<?xml version="1.0" encoding="utf-8"?>
<!-- Generator: Adobe Illustrator 24.2.0, SVG Export Plug-In . SVG Version: 6.00 Build 0)  -->
<svg version="1.1" id="Layer_1" xmlns="http://www.w3.org/2000/svg" xmlns:xlink="http://www.w3.org/1999/xlink" x="0px" y="0px"
	 viewBox="0 0 397.8 268.1" style="enable-background:new 0 0 397.8 268.1;" xml:space="preserve">
<style type="text/css">
	.st0{opacity:0.65;fill:#FFFFFF;enable-background:new    ;}
	.st1{fill:#FFFFFF;}
	.st2{fill:#5FBBA6;}
	.st3{fill:#1F5446;}
	.st4{fill:#40AF92;}
	.st5{fill:#BBD4DB;}
	.st6{fill:#8BB0BE;}
	.st7{fill:#63B7CB;}
	.st8{fill:#E587AB;}
	.st9{fill:#D2C4E1;}
	.st10{fill:#C1E1E6;}
	.st11{opacity:0.76;}
	.st12{opacity:0.76;fill:#FFFFFF;enable-background:new    ;}
	.st13{opacity:0.55;}
	.st14{opacity:0.55;fill:#FFFFFF;enable-background:new    ;}
	.st15{fill:#184654;}
	.st16{fill:#1D313B;}
	.st17{fill:#B0C7CF;}
	.st18{fill:#FCF3F8;}
	.st19{fill:#E9605D;}
	.st20{fill:#F9C14E;}
	.st21{fill:#ED6C56;}
	.st22{fill:#ED9D81;}
	.st23{fill:#E4967D;}
	.st24{fill:#F8FAE6;}
	.st25{opacity:0.53;}
	.st26{opacity:0.53;fill:#5FBBA6;enable-background:new    ;}
	.st27{opacity:0.3;}
	.st28{opacity:0.3;fill:#C1E1E6;enable-background:new    ;}
</style>
<g>
	<g>
		<path class="st0" d="M51.6,266.6c0,0-81.8-75.4-39.3-146.7c42.5-71.4,126.7-46,210.1-89.4s137.6-37.8,160.2,0
			c27.6,46-39.8,86.7-1.3,149.4c38.6,62.7-2.4,86.7-2.4,86.7L51.6,266.6L51.6,266.6z"/>
		<path class="st0" d="M346.3,266.6H19c0,0-41-24-2.4-86.7c38.5-62.7-28.9-103.4-1.3-149.4c22.6-37.8,76.8-43.4,160.2,0
			s167.6,18,210.1,89.4C428.1,191.2,346.3,266.6,346.3,266.6L346.3,266.6z"/>
	</g>
</g>
<g>
	<path class="st1" d="M203.3,33.5c-0.5,0-0.8-0.8-0.5-1.3c2.2-3.1,7.8-5.2,14.1-5.2c9.6,0,12,5.1,20.5-3.3c2-2,4.5-2.9,10.6,0.2
		c6.1,3,5.8-7.7,11-8.2c8.5-0.9,16.3,10.3,19.5,15.6c0.7,1.1,0,2.6-1.1,2.6L203.3,33.5z"/>
	<path class="st1" d="M66.4,35.9c0.4,0,0.6-0.6,0.4-1c-1.6-2.3-5.6-4-10.3-4.1c-7-0.1-6.8-5.1-14.3-8.2c-9.5-4-13.6,8.3-17.4,7.8
		c-6.2-0.8-10.9-0.8-13.3,3.2c-0.5,0.8,0,2,0.8,2L66.4,35.9z"/>
</g>
<g>
	<path class="st2" d="M146,152c-0.5-0.2-0.9-0.8-0.7-1.4l0.7-3.6c0.1-0.7,0.8-1.2,1.5-1c0.1,0,0.2,0.1,0.3,0.1
		c0.5,0.2,0.9,0.8,0.7,1.4l-0.7,3.6c-0.1,0.4-0.3,0.7-0.5,0.8c-0.3,0.2-0.6,0.3-1,0.2C146.2,152,146.1,152,146,152z M147.7,146.2
		c-0.1,0-0.1-0.1-0.2-0.1c-0.6-0.1-1.1,0.3-1.2,0.8l-0.7,3.6c-0.1,0.5,0.1,0.9,0.6,1.1c0.1,0,0.1,0.1,0.2,0.1c0.3,0.1,0.5,0,0.8-0.2
		c0.2-0.1,0.4-0.4,0.4-0.7l0.7-3.6C148.3,146.9,148.1,146.4,147.7,146.2z"/>
	<path class="st2" d="M147.4,145.9c0,0-0.1,0-0.1-0.1c-0.3-0.2-0.5-0.4-0.6-0.8c-0.1-0.3,0-0.7,0.1-1l1.9-3.2
		c0.4-0.6,1.1-0.8,1.8-0.5c0.6,0.4,0.8,1.2,0.5,1.8l-1.9,3.2C148.8,145.9,148.1,146.2,147.4,145.9z M150.3,140.6
		c-0.5-0.2-1,0-1.3,0.4l-1.9,3.2c-0.1,0.2-0.2,0.5-0.1,0.8c0.1,0.3,0.2,0.5,0.5,0.6c0.5,0.3,1.1,0.1,1.4-0.4l1.9-3.2
		C151,141.5,150.8,140.9,150.3,140.6C150.4,140.6,150.3,140.6,150.3,140.6z"/>
	<path class="st2" d="M151,140.8c-0.2-0.1-0.4-0.2-0.5-0.4c-0.4-0.6-0.3-1.4,0.2-1.8l2.9-2.2c0.4-0.3,0.9-0.4,1.3-0.1
		c0.2,0.1,0.4,0.2,0.5,0.4c0.2,0.3,0.3,0.6,0.3,0.9c-0.1,0.4-0.2,0.7-0.5,0.9l-2.9,2.2C152,141,151.4,141,151,140.8z M154.9,136.5
		c-0.4-0.1-0.8-0.1-1.1,0.1l-2.9,2.2c-0.2,0.2-0.4,0.4-0.4,0.7s0,0.5,0.2,0.8c0.1,0.1,0.2,0.2,0.4,0.3c0.4,0.1,0.8,0.1,1.1-0.1
		l2.9-2.2c0.2-0.2,0.4-0.4,0.4-0.7s0-0.5-0.2-0.8C155.2,136.7,155.1,136.5,154.9,136.5z"/>
	<path class="st2" d="M155.8,136.9c-0.2-0.1-0.4-0.2-0.5-0.4c-0.4-0.6-0.3-1.4,0.2-1.8l2.9-2.2c0.4-0.3,0.9-0.4,1.3-0.1
		c0.2,0.1,0.4,0.2,0.5,0.4c0.2,0.3,0.3,0.6,0.3,0.9c-0.1,0.4-0.2,0.7-0.5,0.9l-2.9,2.2C156.8,137.1,156.2,137.1,155.8,136.9z
		 M159.7,132.5c-0.4-0.1-0.8-0.1-1.1,0.1l-2.9,2.2c-0.4,0.4-0.5,1-0.2,1.4c0.1,0.1,0.2,0.2,0.4,0.3c0.4,0.1,0.8,0.1,1.1-0.1l2.9-2.2
		c0.2-0.2,0.4-0.4,0.4-0.7s0-0.5-0.2-0.8C160,132.7,159.9,132.6,159.7,132.5z"/>
	<path class="st2" d="M160.3,132.4C160.3,132.4,160.2,132.4,160.3,132.4c-0.4-0.2-0.6-0.5-0.7-0.8c-0.1-0.3-0.1-0.7,0.1-1l1.8-3.2
		c0.4-0.6,1.1-0.9,1.8-0.5c0.3,0.2,0.5,0.4,0.6,0.8c0.1,0.3,0.1,0.7-0.1,1l-1.8,3.2C161.6,132.5,160.9,132.7,160.3,132.4z
		 M163.1,127.1c-0.5-0.2-1.1,0-1.3,0.4l-1.8,3.2c-0.1,0.2-0.2,0.5-0.1,0.8c0.1,0.3,0.2,0.5,0.5,0.6c0.5,0.3,1.1,0.1,1.4-0.4l1.8-3.2
		c0.1-0.2,0.2-0.5,0.1-0.8C163.6,127.5,163.4,127.3,163.1,127.1L163.1,127.1z"/>
	<path class="st3" d="M285.7,234.1c3-12.3-10.6-16.7-18.5-11.4c0,0-3-10.3-14.9-9.4c-8.3,0.6-12,9.4-12.6,11.3
		c0,0-11.6-2.1-15.2,6.9c-2.4,6,0.6,10.8,0.6,10.8s-14-0.7-12.9,8.8c1,8.9,17.6,5.2,34.5,5.2c16.9,0,28.8,0,28.8,0L285.7,234.1z"/>
	<path class="st2" d="M344.6,218.8c-17.6,4.1-29.1,30.7-28.1,36.7s4.5,2.1,5-1.7c0.5-3.8,6.6-15.8,16.8-19.9
		c10.7-4.3,15.5-3.8,16.3-8.4C355.5,220.5,347.9,218.1,344.6,218.8z"/>
	<path class="st2" d="M358.6,246.6c-4.6,3.6-14.5-2.9-23.3,0.6c-2,0.8-3.6,1.6-5,2.5c-4.9,3-6.2,6.2-7.9,7.9
		c-0.1,0.1-0.3,0.2-0.4,0.4c-0.3,0.3-0.7,0.4-1.1,0.6c-1.3,0.4-2,0.4-2.4,0.1c-0.7-0.5-0.4-1.6-0.4-1.6c0.4-2,1.5-4.4,3.1-6.9
		c1.3-2,2.9-4.1,4.8-6c0.1-0.1,0.1-0.1,0.2-0.2c4.3-4.2,10-7.8,16.8-8.5c9.8-1.1,16.4,2.9,17.3,6.8
		C360.7,243.9,360.2,245.4,358.6,246.6z"/>
	<path class="st2" d="M348.3,255.9c-2.7,3.1-6,0.7-12.7-1.2c-6.7-1.9-12.3,2.9-12.3,2.9h-3c0,0-0.1-0.2,0.1-0.6
		c0.1-0.2,0.2-0.5,0.4-0.9c0.1-0.2,0.3-0.4,0.6-0.7c1.2-1.3,3.7-3.3,8.9-5.8C341.1,244.5,350.9,252.8,348.3,255.9z"/>
	<path class="st4" d="M358.6,246.6c-4.6,3.6-14.5-2.9-23.3,0.6c-2,0.8-3.6,1.6-5,2.5c10.8-5.1,20.6,3.1,17.9,6.2s-6,0.7-12.7-1.2
		c-6.7-1.9-12.3,2.9-12.3,2.9h-0.9c-0.1,0.1-0.3,0.2-0.4,0.4c-0.1-0.1-0.1-0.2-0.1-0.4c-0.2-0.7-0.4-1.4-0.5-2.2
		c0-0.2-0.1-0.4-0.1-0.7c-0.1-1.3-0.1-2.6-0.1-3.9c0-0.2,0-0.5,0.1-0.7c0.4-2.2,2.2-4.3,4.8-6c0,0,0.1,0,0.1-0.1
		c5.3-3.3,13.9-4.9,21.4-1.8c11.8,4.9,12.8,0,12.8,0C360.7,243.9,360.2,245.4,358.6,246.6z"/>
	<path class="st5" d="M228.4,161.5l-27.8-15.7l-5.8,13l26.7,15c5.4,3,8.7,8.8,8.7,15v59.1c0,4.1-2.7,7.8-6.7,8.9l-10.9,3.2
		c-1.6,0.5-2.7,2-2.7,3.7h20.3v-0.2h14v-74.7C244.3,177.5,238.2,167,228.4,161.5z"/>
	<path class="st5" d="M228.4,161.5l-27.8-15.7l-5.8,13l26.7,15c5.4,3,8.7,8.8,8.7,15v59.1c0,4.1-2.7,7.8-6.7,8.9l-10.9,3.2
		c-1.6,0.5-2.7,2-2.7,3.7h20.3v-0.2h14v-74.7C244.3,177.5,238.2,167,228.4,161.5z"/>
	<path class="st6" d="M227.5,259.5c4.1-2.3,6.7-6.7,6.7-11.6v-59.1c0-7.7-4.1-14.7-10.8-18.5l-23.5-13.2l2.5-5.7l24,13.5
		c8.6,4.8,13.9,13.9,13.9,23.8v70.7h-12.8V259.5z"/>
	<path class="st6" d="M200.4,147.4l-4.1-2l2.7-5.9l3.4,2l0.7,3.7L200.4,147.4z"/>
	<path class="st6" d="M240.3,259.5v4H214c0,0,0.4-1.4,6.1-2c5.7-0.7,7.7-2.2,7.7-2.2l8.3-0.9L240.3,259.5z"/>
	<path class="st7" d="M183.5,215.4h-5.4c-1.1,0-2-0.9-2-2v-1.5h9.4v1.5C185.5,214.4,184.6,215.4,183.5,215.4z"/>
	<path class="st8" d="M175,236.9c0,0,0.5-1.9,3.2-2s4.7-1.2,8.4-1s6.2,1.8,6,2.7c-0.1,0.9-10.9,1.8-10.9,1.8L175,236.9z"/>
	<path class="st9" d="M156.9,240.6c0,0,0.8-2.9,7-3.2c6.2-0.3,6.9-1.7,14.7-0.9c7.8,0.8,12.1-0.8,16.2,0.5c4.1,1.2,7.2,1.2,7.9,2.6
		c0.7,1.3-11.8,2.3-11.8,2.3L156.9,240.6z"/>
	<path class="st8" d="M167,40.8h-29.4c-1.9,0-3.4-1.5-3.4-3.4v-4c0-1.9,1.5-3.4,3.4-3.4H167c1.9,0,3.4,1.5,3.4,3.4v4
		C170.4,39.2,168.9,40.8,167,40.8z"/>
	<path class="st8" d="M155.6,40.8l10.4,9.7l-1.4-9.7l-6.7-2.2L155.6,40.8z"/>
	<path class="st1" d="M164.9,34.3h-25.5c-0.2,0-0.3-0.1-0.3-0.3v-0.4c0-0.2,0.1-0.3,0.3-0.3h25.5c0.2,0,0.3,0.1,0.3,0.3V34
		C165.2,34.1,165,34.3,164.9,34.3z"/>
	<path class="st1" d="M164.9,37.4h-25.5c-0.2,0-0.3-0.1-0.3-0.3v-0.4c0-0.2,0.1-0.3,0.3-0.3h25.5c0.2,0,0.3,0.1,0.3,0.3v0.4
		C165.2,37.3,165,37.4,164.9,37.4z"/>
	<path class="st10" d="M285.1,88.9c-3.2-0.4-6,0.4-6,0.4c0-3.3-2.7-6.4-5.9-6.4c-3.3,0-5.9,3.1-5.9,6.4c0,0-0.9-0.4-1.9-0.4
		c-3,0.1-4.4,2-4.4,4.4c0,2.5,2,4.4,4.4,4.4H285c2.4,0,4.4-2,4.4-4.4C289.5,90.9,287.5,89.2,285.1,88.9z"/>
	<path class="st10" d="M141,113.8c2.2,0.1,4.3,1,4.3,1c0-2.7,1.8-5.4,4.4-5.9c3-0.6,5.3,2,5.3,4.7c0,0,0.7-0.4,1.6-0.4
		c2.5,0.1,3.6,1.6,3.6,3.6s-1.6,3.6-3.6,3.6h-14.7c-2,0-5.1-1.6-5.1-3.6C136.8,114.9,139,113.7,141,113.8z"/>
	<path class="st4" d="M332.3,187c0,0,7.3-17.5,1.9-23c-2.7-2.7-6.2-2.2-7.3,0.7c-1.1,3-1.1,3.9,1.6,10.9c2,5.2,2.2,11.4,2.2,11.4
		L332.3,187z"/>
	<path class="st2" d="M343,183.3c-9.3-1.7-10.7,3.7-10.7,3.7l-0.4-0.5l-0.7-0.9c0,0,6.4-10.5,16.2-9.3c1.3,0.1,2.2,0.5,2.9,0.9
		C353.5,179.4,349.1,184.4,343,183.3z"/>
	<path class="st4" d="M343,183.3c-9.3-1.7-10.7,3.7-10.7,3.7l-0.4-0.5c0.1-0.1,0.1-0.3,0.2-0.4c4.7-7.9,17.9-4.9,18.1-8.9
		C353.5,179.4,349.1,184.4,343,183.3z"/>
	<path class="st10" d="M312.7,239.8c-3.9-1.4-6-5.7-4.7-9.6l15.7-45.4l14.3,5l-15.7,45.4C321,239,316.7,241.1,312.7,239.8z"/>
	<path class="st2" d="M329.7,188.3c0,0-0.3,3.8-3.1,8.8c-2.8,5-6.4,17.1-4,16.3c2.4-0.8,0.7-6.1,5.5-16s2.8-10.5,2.8-10.5
		L329.7,188.3z"/>
	<g class="st11">
		<g class="st11">
			<g class="st11">
				<g class="st11">
					<path class="st12" d="M330.3,206.7c-0.3,0.9-3,0.8-6-0.3s-5.2-2.6-4.9-3.5c0.3-0.9,3-0.8,6,0.3S330.6,205.8,330.3,206.7z"/>
				</g>
			</g>
		</g>
	</g>
	<g class="st13">
		<g class="st13">
			<g class="st13">
				<g class="st13">
					<path class="st14" d="M330.3,206.7l-9.5,27.6c-1.1,3-4.4,4.6-7.4,3.6c-3-1.1-4.6-4.4-3.6-7.4l9.5-27.6
						c-0.3,0.9,1.9,2.5,4.9,3.5C327.2,207.5,330,207.6,330.3,206.7z"/>
				</g>
			</g>
		</g>
	</g>
	<path class="st7" d="M338.8,187.7l-14.5-5c-1.1-0.4-2.2,0.2-2.6,1.3s0.2,2.2,1.3,2.6l14.5,5c1.1,0.4,2.2-0.2,2.6-1.3
		C340.4,189.3,339.9,188.1,338.8,187.7z"/>
	<path class="st1" d="M332.6,194.9c-0.1,0.5-0.6,0.7-1.1,0.5c-0.5-0.1-0.7-0.7-0.5-1.1c0.1-0.5,0.6-0.7,1.1-0.5
		C332.6,193.9,332.8,194.4,332.6,194.9z"/>
	<path class="st1" d="M324.9,200c-0.2,0.6-0.9,1-1.5,0.7c-0.6-0.2-1-0.9-0.7-1.5c0.2-0.6,0.9-1,1.5-0.7
		C324.8,198.7,325.1,199.4,324.9,200z"/>
	<path class="st6" d="M193.3,189.6h-0.7v-69.8h0.7c4,0,7.2,3.3,7.2,7.3v55.2C200.6,186.4,197.3,189.6,193.3,189.6z"/>
	<path class="st5" d="M192.6,112.8h-23.7v83.9h23.7V112.8z"/>
	<path class="st6" d="M185.4,99.2H176l-7.2,13.6h23.7L185.4,99.2z"/>
	<path class="st6" d="M185.4,210.4H176l-7.2-13.6h23.7L185.4,210.4z"/>
	<path class="st15" d="M143.9,268.1h105.3c1.1,0,2.1-0.9,2.1-2.1v-0.4c0-1.2-0.9-2.1-2.1-2.1H143.9c-1.1,0-2.1,0.9-2.1,2.1v0.4
		C141.9,267.1,142.8,268.1,143.9,268.1z"/>
	<path class="st6" d="M154.4,244.1h51.5c1.1,0,2.1-0.9,2.1-2.1v-0.4c0-1.2-0.9-2.1-2.1-2.1h-51.5c-1.1,0-2.1,0.9-2.1,2.1v0.4
		C152.3,243.2,153.3,244.1,154.4,244.1z"/>
	<path class="st15" d="M200.6,263.8h-38.7c5.4,0,9.7-4.6,9.7-10s-4.3-9.7-9.7-9.7h38.7c-5.4,0-9.7,4.3-9.7,9.7
		C190.9,259.2,195.2,263.8,200.6,263.8z"/>
	<path class="st5" d="M185.4,76.1h-9.5v23h9.5V76.1z"/>
	<path class="st6" d="M185.3,71.2H176c-1.1,0-1.8,1.1-1.4,2.1l1.3,2.8h9.5l1.3-2.8C187.2,72.3,186.5,71.2,185.3,71.2z"/>
	<path class="st5" d="M185.5,210.3h-9.4v3.5h9.4V210.3z"/>
	<path class="st16" d="M196.6,161.3c4,0,7.2-3.3,7.2-7.3s-3.2-7.3-7.2-7.3s-7.2,3.3-7.2,7.3C189.4,158,192.6,161.3,196.6,161.3z"/>
	<path class="st17" d="M196.6,147.7c2,0,3.7-1.7,3.7-3.7c0-2.1-1.6-3.7-3.7-3.7c-2,0-3.7,1.7-3.7,3.7
		C192.9,146.1,194.6,147.7,196.6,147.7z"/>
	<path class="st8" d="M326.7,257.6h-2.8c-2-1.2-2.8-3.8-2.8-6.7c0-3,0.8-5.6,2.8-6.7h2.8c0.4,0,0.7-0.3,0.7-0.7
		c0-0.4-0.3-0.7-0.7-0.7h-66.2c-4.4,0-8.1,3.6-8.1,8.1s3.6,8.1,8.1,8.1h66.2c0.4,0,0.7-0.3,0.7-0.7
		C327.3,257.9,327,257.6,326.7,257.6z"/>
	<path class="st18" d="M324.8,243.5v0.7c-2.2,1.4-3.6,3.9-3.6,6.7c0,2.8,1.4,5.3,3.6,6.7v0.7h-41.3c-3.9,0-7-3.3-7-7.4
		c0-2,0.8-3.9,2.1-5.2c1.3-1.3,3-2.2,5-2.2L324.8,243.5L324.8,243.5z"/>
	<path class="st1" d="M325.1,243.5v0.7c-2.1,1.4-3.6,3.9-3.6,6.7c0,2.8,1.4,5.3,3.6,6.7v0.7h-41.2c-3.9,0-7-3.3-7-7.4
		c0-2,0.8-3.9,2.1-5.2c1.3-1.3,3-2.2,5-2.2L325.1,243.5L325.1,243.5z"/>
	<path class="st19" d="M327.1,259h-42.7c-4.4,0-8.1-3.6-8.1-8.1s3.6-8.1,8.1-8.1h42.7c0.4,0,0.7,0.3,0.7,0.7s-0.3,0.7-0.7,0.7h-42.7
		c-3.7,0-6.7,3-6.7,6.7s3,6.7,6.7,6.7h42.7c0.4,0,0.7,0.3,0.7,0.7C327.8,258.7,327.5,259,327.1,259z"/>
	<path class="st7" d="M317.1,216.4h-66.2c-0.4,0-0.7,0.3-0.7,0.7c0,0.4,0.3,0.7,0.7,0.7h2.8c2,1.2,2.8,3.8,2.8,6.7
		c0,3-0.8,5.6-2.8,6.7h-2.8c-0.4,0-0.7,0.3-0.7,0.7c0,0.4,0.3,0.7,0.7,0.7h66.2c4.4,0,8.1-3.6,8.1-8.1
		C325.2,220,321.5,216.4,317.1,216.4z"/>
	<path class="st18" d="M251.4,217.1v0.7c2.2,1.4,3.6,3.9,3.6,6.7c0,2.8-1.4,5.3-3.6,6.7v0.7h41.2c3.9,0,7-3.3,7-7.4
		c0-2-0.8-3.9-2.1-5.2c-1.3-1.3-3-2.2-5-2.2L251.4,217.1L251.4,217.1z"/>
	<path class="st1" d="M251.4,217.1v0.7c2.2,1.4,3.6,3.9,3.6,6.7c0,2.8-1.4,5.3-3.6,6.7v0.7h41.2c3.9,0,7-3.3,7-7.4
		c0-2-0.8-3.9-2.1-5.2c-1.3-1.3-3-2.2-5-2.2L251.4,217.1L251.4,217.1z"/>
	<path class="st10" d="M295.7,224.9h-37.5c-0.1,0-0.2-0.1-0.2-0.2s0.1-0.2,0.2-0.2h37.5c0.1,0,0.2,0.1,0.2,0.2
		C295.9,224.8,295.8,224.9,295.7,224.9z"/>
	<path class="st10" d="M295.3,227.2h-37.5c-0.1,0-0.2-0.1-0.2-0.2s0.1-0.2,0.2-0.2h37.5c0.1,0,0.2,0.1,0.2,0.2
		C295.6,227.1,295.4,227.2,295.3,227.2z"/>
	<path class="st10" d="M295.3,222.4h-37.5c-0.1,0-0.2-0.1-0.2-0.2s0.1-0.2,0.2-0.2h37.5c0.1,0,0.2,0.1,0.2,0.2
		C295.6,222.4,295.4,222.4,295.3,222.4z"/>
	<path class="st10" d="M294,229.4h-37.5c-0.1,0-0.2-0.1-0.2-0.2s0.1-0.2,0.2-0.2H294c0.1,0,0.2,0.1,0.2,0.2S294.1,229.4,294,229.4z"
		/>
	<path class="st10" d="M294,220.1h-37.5c-0.1,0-0.2-0.1-0.2-0.2s0.1-0.2,0.2-0.2H294c0.1,0,0.2,0.1,0.2,0.2
		C294.2,219.9,294.1,220.1,294,220.1z"/>
	<path class="st7" d="M250.1,232.6h42.7c4.4,0,8.1-3.6,8.1-8.1s-3.6-8.1-8.1-8.1h-42.7c-0.4,0-0.7,0.3-0.7,0.7
		c0,0.4,0.3,0.7,0.7,0.7h42.7c3.7,0,6.7,3,6.7,6.7s-3,6.7-6.7,6.7h-42.7c-0.4,0-0.7,0.3-0.7,0.7
		C249.5,232.3,249.8,232.6,250.1,232.6z"/>
	<path class="st20" d="M318.9,232.6c2.8,0,5.1,2.3,5.1,5.1s-2.3,5.1-5.1,5.1h-66.4v-0.9h2c1.5-0.7,2.6-2.3,2.6-4.1
		c0-1.8-1.1-3.4-2.6-4.1h-2v-1h66.4V232.6z"/>
	<path class="st1" d="M252.5,242.3h35.2c2.5,0,4.6-2.1,4.6-4.6c0-1.3-0.5-2.4-1.4-3.3c-0.8-0.8-2-1.4-3.2-1.4h-35.2
		c2.5,0,4.6,2.1,4.6,4.6C257.1,240.2,255.1,242.3,252.5,242.3z"/>
	<path class="st21" d="M251.5,242.8H288c2.8,0,5.1-2.3,5.1-5.1c0-1.4-0.5-2.6-1.5-3.6c-0.9-0.9-2.2-1.5-3.6-1.5h-36.5
		c-0.3,0-0.5,0.2-0.5,0.5s0.2,0.5,0.5,0.5H288c1.1,0,2.1,0.4,2.9,1.2c0.8,0.8,1.2,1.8,1.2,2.9c0,2.3-1.9,4.1-4.1,4.1h-36.5
		c-0.3,0-0.5,0.2-0.5,0.5C251,242.6,251.2,242.8,251.5,242.8z"/>
	<path class="st10" d="M319,251.1h-37.5c-0.1,0-0.2-0.1-0.2-0.2s0.1-0.2,0.2-0.2H319c0.1,0,0.2,0.1,0.2,0.2S319.1,251.1,319,251.1z"
		/>
	<path class="st10" d="M319.3,253.4h-37.5c-0.1,0-0.2-0.1-0.2-0.2s0.1-0.2,0.2-0.2h37.5c0.1,0,0.2,0.1,0.2,0.2
		C319.6,253.3,319.5,253.4,319.3,253.4z"/>
	<path class="st10" d="M319.3,248.7h-37.5c-0.1,0-0.2-0.1-0.2-0.2s0.1-0.2,0.2-0.2h37.5c0.1,0,0.2,0.1,0.2,0.2
		C319.6,248.6,319.5,248.7,319.3,248.7z"/>
	<path class="st10" d="M320.7,255.7h-37.5c-0.1,0-0.2-0.1-0.2-0.2s0.1-0.2,0.2-0.2h37.5c0.1,0,0.2,0.1,0.2,0.2
		C320.9,255.6,320.8,255.7,320.7,255.7z"/>
	<path class="st10" d="M320.7,246.3h-37.5c-0.1,0-0.2-0.1-0.2-0.2s0.1-0.2,0.2-0.2h37.5c0.1,0,0.2,0.1,0.2,0.2
		C320.9,246.2,320.8,246.3,320.7,246.3z"/>
	<g>
		<path class="st7" d="M302,175.4h-3.2c-3.4,0-6.1-2.7-6.1-6.1v-1.2c0-3.4,2.7-6.1,6.1-6.1h3.2c3.4,0,6.1,2.7,6.1,6.1v1.2
			C308.1,172.6,305.4,175.4,302,175.4z"/>
		<path class="st7" d="M297.7,175.4l-0.6,5.7l5.2-5.7l-2.3-1.5L297.7,175.4z"/>
		<path class="st22" d="M277.7,265.7h-8.2c-0.3,0-0.4-0.3-0.3-0.5c0.3-0.6,1.1-1.4,2.9-1.5c0.9-0.1,1.6-0.4,2-1c0.6-0.8,0.6-4,0.5-5
			c-0.2-1.7,3.7-0.3,3.7-0.3l-0.7,6.1L277.7,265.7z"/>
		<path class="st19" d="M277.7,265.7h-8.2c-0.3,0-0.4-0.3-0.3-0.5c0.3-0.6,1.1-1.4,2.9-1.5c0.9-0.1,1.6-0.4,2-1
			c0.4,0.1,0.8,0.4,1.4,1c0.4,0.4,1.4,0.2,2.2-0.2V265.7z"/>
		<path class="st22" d="M291.2,265.6h8.2c0.3,0,0.4-0.3,0.3-0.5c-0.3-0.6-1.1-1.4-2.9-1.5c-0.9-0.1-1.6-0.4-2-1
			c-0.6-0.8-0.7-4.4-0.6-5.4c0.1-1.7-3.8,0.2-3.8,0.2l0.9,5.9L291.2,265.6z"/>
		<path class="st19" d="M291.2,265.6h8.2c0.3,0,0.4-0.3,0.3-0.5c-0.3-0.6-1.1-1.4-2.9-1.5c-0.9-0.1-1.6-0.4-2-1
			c-0.4,0.1-0.8,0.4-1.3,1c-0.4,0.4-1.4,0.2-2.2-0.2L291.2,265.6z"/>
		<path class="st22" d="M254.9,201.3c0,0-0.9-2-2.1-1.6c-1.2,0.4,0.5,3.3,1.4,3.6C255,203.7,254.9,201.3,254.9,201.3z"/>
		<path class="st15" d="M273.8,218.7c0,0-1.8,15.2,0.6,38.8l3.8-0.1c0,0,3.7-32.3,4.4-32.2c1.2,0.2,7.6,32.4,7.6,32.4l3.8-0.4
			c0,0,0.5-20-0.3-27.9c-0.9-8-1.3-12.1-1.3-12.1L273.8,218.7z"/>
		<path class="st10" d="M279.5,190.6c-3.6,0.4-5.7,1.8-8.1,5.7c-2.4,3.8-4.2,6.9-5,7c-0.7,0.1-11.6-2.6-11.6-2.6l-0.6,2.6
			c0,0,8.9,5,12.4,5.4s6.8-6.3,6.7-4c-0.1,2.2-0.3,16.2,0.4,16.4c0.7,0.2,12.2-1.2,15.2-0.9c3,0.2,4.6,0.4,5.3,0.1
			c0.8-0.3,2.1-17.2,2-20.6c-0.1-3.3-1-7.5-3.7-8.6C287.9,189.1,279.5,190.6,279.5,190.6z"/>
		<path class="st16" d="M279.9,174.8c-1.3-0.5-1.8,0.4-1.8,1.7c0,0.9-1.5,0.8-1.7,2.1c-0.3,1.3,1.3,2.8,2.4,2.9c1.1,0.1,1.9,2,3.2,3
			c1.3,1,2.8,2.6,4,2c1.2-0.7,1.8,0.2,2.7-1.1c0.9-1.4-0.3-1.8,0.1-3c0.4-1.3,1.1-1.4,0.9-2.7c-0.1-1.2-2-0.7-1.8-1.5
			c0.2-1-0.2-2.4-1.2-2.5c-1.1-0.1-2.1-0.1-2.3-0.8c-0.3-0.8-1.4-1.3-2.2-0.6C281.8,174.7,280.9,175.2,279.9,174.8z"/>
		<path class="st22" d="M280.1,186.2l-0.2,4.9c0,0,0.6,1.7,2.8,1.4c1.9-0.2,2.9-1.3,2.9-1.3l-0.3-7l-0.3,0.1L280.1,186.2z"/>
		<path class="st23" d="M280.1,186.2l-0.1,3c2.9-0.5,4.6-3.8,5.1-5L280.1,186.2z"/>
		<path class="st22" d="M279,187.4c2.7,1.3,5.5-2.6,5.5-2.6s1.4-0.3,1.3-1.9c-0.1-1.6-1.5,0.7-1.6-0.7s-0.2-1.9-1-1.9
			c-0.1,0-0.2,0-0.3-0.1l0,0c-0.6-0.2-1.8-1-2.7-1.8c-0.6-0.6-1.7-0.3-1.9,0.6l0,0C277.7,182,277.1,186.5,279,187.4z"/>
		<path class="st19" d="M280.6,193.1c-5.9,9.1-8.3,18.4-8.3,18.5l-0.7-0.2c0-0.1,2.4-9.6,8.4-18.8L280.6,193.1z"/>
		<path class="st19" d="M274.6,191.3c-5.9,9.1-7.6,17-7.7,17.1l-0.7-0.1c0-0.1,1.8-8.2,7.8-17.4L274.6,191.3z"/>
		<path class="st19" d="M254.3,192.8c-2.3,5.1-4.4,8.1-4.4,8.2l-0.6-0.4c0.1-0.1,4.8-6.7,7.6-17.2l0.7,0.2
			C256.6,187.2,255.5,190.3,254.3,192.8z"/>
		<path class="st19" d="M285.9,196.4c-5.9,9.1-7.6,17-7.7,17.1l-0.7-0.1c0-0.1,1.8-8.2,7.8-17.4L285.9,196.4z"/>
		<path class="st19" d="M267,193.3c-2.7,4.2-3.6,8-3.6,8.1l-0.7-0.1c0-0.1,0.9-4,3.7-8.3L267,193.3z"/>
		<path class="st7" d="M290.1,207c-2.6,3.9-3.4,7.5-3.4,7.5l-0.7-0.1c0-0.1,0.8-3.8,3.5-7.8L290.1,207z"/>
		<path class="st19" d="M259.1,194.5c-1.2,2.8-2.5,4.7-2.5,4.7l-0.6-0.4c0,0,2.8-4.3,4.1-9.2l0.7,0.2
			C260.3,191.5,259.7,193.1,259.1,194.5z"/>
		<path class="st19" d="M302.8,204c-5.9,9.1-7.6,17-7.7,17.1l-0.7-0.1c0-0.1,1.8-8.2,7.8-17.4L302.8,204z"/>
		<path class="st19" d="M296.2,205.8c-2.7,4.2-4.1,9.1-4.1,9.1l-0.7-0.2c0-0.1,1.4-5.1,4.2-9.3L296.2,205.8z"/>
		<path class="st4" d="M300.7,224.4c-0.2,0.5-0.9,0.7-1.4,0.5c-5.6-2.5-9.5-7.9-10.1-14.1l-0.4-4.6c-0.5-5.4-3.9-10.2-8.9-12.4
			c-4.9-2.2-10.6-1.6-15,1.5l-4,2.9c-4.9,3.5-11.5,4.2-17.1,1.7c-0.5-0.2-0.7-0.9-0.5-1.4s0.9-0.7,1.4-0.5c4.9,2.2,10.6,1.6,15-1.5
			l4-2.9c4.9-3.5,11.5-4.2,17.1-1.7s9.5,7.9,10.1,14.1l0.4,4.6c0.5,5.4,3.9,10.2,8.9,12.4C300.7,223.3,300.9,223.9,300.7,224.4z"/>
		<path class="st19" d="M308.9,205.7c-0.2,0.5-0.9,0.7-1.4,0.5c-5-2.2-10.8-1.6-15.1,1.6l-3.7,2.7c-5,3.7-11.6,4.4-17.2,1.9
			s-9.5-7.8-10.1-13.9l-0.5-4.9c-0.6-5.4-4-10-8.9-12.2c-0.5-0.2-0.7-0.9-0.5-1.4s0.9-0.7,1.4-0.5c5.6,2.5,9.5,7.8,10.1,13.9
			l0.5,4.9c0.6,5.4,4,10,8.9,12.2c5,2.2,10.8,1.6,15.1-1.6l3.7-2.7c5-3.7,11.6-4.4,17.2-1.9C308.9,204.6,309.2,205.2,308.9,205.7z"
			/>
		<path class="st22" d="M275.7,213.7c0,0-2.6-1.2-3.2-0.9s1,2.5,3.4,2.7C278.3,215.6,275.7,213.7,275.7,213.7z"/>
		<path class="st10" d="M293,192.5c-1.2,0.2-6.6,12.8-8,15s-9.3,6.2-9.3,6.2l0.7,1.8c0,0,12.4-2.4,14.8-6.4c1.6-2.6,4.1-8,4.5-10.8
			C296.1,195.4,293,192.5,293,192.5z"/>
		<path class="st1" d="M289.6,198.5l-0.2-0.1c1.1-4.7,3.5-6,3.6-6.1l0.1,0.2C293.1,192.6,290.7,193.9,289.6,198.5z"/>
		<path class="st1" d="M277.6,215.6l-0.1-0.2c0.1,0,7.2-1.9,9.8-3.4l0.1,0.2C284.8,213.7,277.6,215.6,277.6,215.6z"/>
	</g>
	<path class="st24" d="M146.7,207c11.9-11.9,11.9-31.3,0-43.2s-31.2-11.9-43,0c-11.9,11.9-11.9,31.3,0,43.2S134.8,219,146.7,207z"/>
	<path class="st2" d="M117.9,165.2c-3.9,1.2-1,10-1,15.4s3.7,10.9,7.6,15.4c3.9,4.5,6.7,9,7.7,14.6c0.9,5.6,5.4,8.9,8.8,8
		c3.4-0.9,6-4.8,2.5-11.8c-3.5-7-3.8-5.5-5.3-17.4c-1.5-11.8-7.6-16.5-9.6-17.8C126.6,170.5,121,164.3,117.9,165.2z"/>
	<path class="st10" d="M141.6,217.4c-3.7,1.3-7.4-1.9-8.5-7.6c-1.1-5.7-2.9-7.5-8.9-15.4s-5.5-10.5-5.9-15.2s-1.8-10.9-0.1-12.2
		c1.2-1,2.7-0.3,3.8,0.7c0.4,0.3,1.1,0.9,2.1,1.7c1.6,1.4,3.9,3.3,5.7,5.2c2.8,3,5.4,5.6,7.2,15.9c0.6,3.4,1.1,5.8,1.5,7.6
		c0.9,3.5,1.8,4.7,3.4,7.3C144.1,209.3,145.3,216.1,141.6,217.4z"/>
	<g class="st25">
		<g class="st25">
			<g class="st25">
				<g class="st25">
					<path class="st26" d="M138.4,198.1c-0.6-1.9-3.9-2-5.7-4s-0.6-3.5-0.9-5.6c-0.2-2-3.4-1.6-4.6-2.8c-1.1-1.3,0.4-6.4,0.1-7.4
						s-1.5-1.4-2.4-2.5c-0.9-1.2,0.6-2.3,0.8-2.8c0.1-0.5-1.6-0.8-2-1.6c-0.3-0.6,0.1-1.4,0.3-1.8c1.6,1.4,3.9,3.3,5.7,5.2
						c2.8,3,5.4,5.6,7.2,15.9C137.5,193.9,138,196.3,138.4,198.1z"/>
				</g>
			</g>
		</g>
	</g>
	<path class="st2" d="M126.7,190.3c-0.1,0.9,0.9,1,2.2,1.3c1.3,0.3,1.6,2-0.2,2.2c-1.9,0.3-5.7-1.4-5.7-3.8c0-2.4,1.9-3.6,3-3.6
		c1.1-0.1,1.8,0.6,1.8,1.6C127.6,189,126.8,189.8,126.7,190.3z"/>
	<g class="st25">
		<g class="st25">
			<g class="st25">
				<g class="st25">
					<path class="st26" d="M136.2,208.1c-0.3,0.6,0.5,1,1.3,1s-0.7,1.3-0.3,1.8c0.4,0.6,1.4-0.1,1.8-1.2c0.4-1.1,0.1-2.4-0.9-2.5
						C137,207.1,136.3,207.8,136.2,208.1z"/>
				</g>
			</g>
		</g>
	</g>
	<path class="st2" d="M139,213.7c0.3,0.7-0.1,1.5-0.8,1.8s-1.5-0.1-1.8-0.8c-0.3-0.7,0.1-1.5,0.8-1.8
		C137.9,212.6,138.7,213,139,213.7z"/>
	<path class="st8" d="M138.5,213.8c0.2,0.5-0.1,1-0.5,1.2c-0.5,0.2-1-0.1-1.2-0.5c-0.2-0.5,0.1-1,0.5-1.2
		C137.8,213.1,138.4,213.4,138.5,213.8z"/>
	<path class="st20" d="M138.1,214c0.1,0.2,0,0.5-0.3,0.6c-0.2,0.1-0.5,0-0.6-0.3c-0.1-0.2,0-0.5,0.3-0.6S138,213.8,138.1,214z"/>
	<path class="st2" d="M136.4,194.5c0.3,0.7-0.1,1.5-0.8,1.8s-1.5-0.1-1.8-0.8s0.1-1.5,0.8-1.8C135.3,193.5,136.1,193.8,136.4,194.5z
		"/>
	<path class="st8" d="M136,194.7c0.2,0.5-0.1,1-0.5,1.2c-0.5,0.2-1-0.1-1.2-0.5c-0.2-0.5,0.1-1,0.5-1.2S135.8,194.2,136,194.7z"/>
	<path class="st20" d="M135.6,194.8c0.1,0.2,0,0.5-0.3,0.6c-0.2,0.1-0.5,0-0.6-0.3c-0.1-0.2,0-0.5,0.3-0.6
		C135.2,194.5,135.5,194.6,135.6,194.8z"/>
	<path class="st2" d="M123.4,181.9c0.3,0.7-0.1,1.5-0.8,1.8c-0.7,0.3-1.5-0.1-1.8-0.8s0.1-1.5,0.8-1.8
		C122.3,180.8,123.1,181.2,123.4,181.9z"/>
	<path class="st8" d="M122.9,182.1c0.2,0.5-0.1,1-0.5,1.2c-0.5,0.2-1-0.1-1.2-0.5c-0.2-0.5,0.1-1,0.5-1.2
		C122.2,181.4,122.8,181.6,122.9,182.1z"/>
	<path class="st20" d="M122.5,182.2c0.1,0.2,0,0.5-0.3,0.6c-0.2,0.1-0.5,0-0.6-0.3c-0.1-0.2,0-0.5,0.3-0.6
		C122.1,181.9,122.4,182,122.5,182.2z"/>
	<path class="st2" d="M122.1,169.9c0.3,0.7-0.1,1.5-0.8,1.8c-0.7,0.3-1.5-0.1-1.8-0.8s0.1-1.5,0.8-1.8
		C121.1,168.8,121.9,169.2,122.1,169.9z"/>
	<path class="st8" d="M121.7,170.1c0.2,0.5-0.1,1-0.5,1.2c-0.5,0.2-1-0.1-1.2-0.5c-0.2-0.5,0.1-1,0.5-1.2
		C121,169.3,121.5,169.6,121.7,170.1z"/>
	<path class="st20" d="M121.3,170.2c0.1,0.2,0,0.5-0.3,0.6c-0.2,0.1-0.5,0-0.6-0.3c-0.1-0.2,0-0.5,0.3-0.6
		C120.9,169.9,121.2,170,121.3,170.2z"/>
	<g class="st25">
		<g class="st25">
			<g class="st25">
				<g class="st25">
					<path class="st26" d="M141.9,215.3c0.2,0.5-0.1,1-0.5,1.2c-0.5,0.2-1-0.1-1.2-0.5c-0.2-0.5,0.1-1,0.5-1.2
						C141.2,214.6,141.7,214.8,141.9,215.3z"/>
				</g>
			</g>
		</g>
	</g>
	<path class="st20" d="M141.5,215.5c0.1,0.2,0,0.5-0.3,0.6c-0.2,0.1-0.5,0-0.6-0.3c-0.1-0.2,0-0.5,0.3-0.6S141.4,215.2,141.5,215.5z
		"/>
	<g class="st25">
		<g class="st25">
			<g class="st25">
				<g class="st25">
					<path class="st26" d="M141.8,207.8c0.2,0.5-0.1,1-0.5,1.2c-0.5,0.2-1-0.1-1.2-0.5c-0.2-0.5,0.1-1,0.5-1.2
						S141.5,207.3,141.8,207.8z"/>
				</g>
			</g>
		</g>
	</g>
	<path class="st20" d="M141.3,208c0.1,0.2,0,0.5-0.3,0.6c-0.2,0.1-0.5,0-0.6-0.3c-0.1-0.2,0-0.5,0.3-0.6
		C141,207.6,141.2,207.7,141.3,208z"/>
	<g class="st25">
		<g class="st25">
			<g class="st25">
				<g class="st25">
					<path class="st26" d="M132.3,199.3c0.2,0.5-0.1,1-0.5,1.2c-0.5,0.2-1-0.1-1.2-0.5c-0.2-0.5,0.1-1,0.5-1.2
						C131.6,198.6,132.1,198.9,132.3,199.3z"/>
				</g>
			</g>
		</g>
	</g>
	<path class="st20" d="M131.9,199.5c0.1,0.2,0,0.5-0.3,0.6c-0.2,0.1-0.5,0-0.6-0.3c-0.1-0.2,0-0.5,0.3-0.6
		C131.5,199.2,131.8,199.3,131.9,199.5z"/>
	<g class="st25">
		<g class="st25">
			<g class="st25">
				<g class="st25">
					<path class="st26" d="M122.3,186.8c0.2,0.5-0.1,1-0.5,1.2c-0.5,0.2-1-0.1-1.2-0.5c-0.2-0.5,0.1-1,0.5-1.2
						C121.6,186.1,122.1,186.3,122.3,186.8z"/>
				</g>
			</g>
		</g>
	</g>
	<path class="st20" d="M121.8,186.9c0.1,0.2,0,0.5-0.3,0.6c-0.2,0.1-0.5,0-0.6-0.3c-0.1-0.2,0-0.5,0.3-0.6
		C121.5,186.6,121.8,186.7,121.8,186.9z"/>
	<g class="st25">
		<g class="st25">
			<g class="st25">
				<g class="st25">
					<path class="st26" d="M132.2,189.9c0.2,0.5-0.1,1-0.5,1.2c-0.5,0.2-1-0.1-1.2-0.5c-0.2-0.5,0.1-1,0.5-1.2
						S132,189.4,132.2,189.9z"/>
				</g>
			</g>
		</g>
	</g>
	<path class="st20" d="M131.7,190.1c0.1,0.2,0,0.5-0.3,0.6c-0.2,0.1-0.5,0-0.6-0.3c-0.1-0.2,0-0.5,0.3-0.6S131.6,189.8,131.7,190.1z
		"/>
	<g class="st25">
		<g class="st25">
			<g class="st25">
				<g class="st25">
					<path class="st26" d="M120.2,176.3c0.2,0.5-0.1,1-0.5,1.2c-0.5,0.2-1-0.1-1.2-0.5c-0.2-0.5,0.1-1,0.5-1.2
						C119.5,175.6,120,175.8,120.2,176.3z"/>
				</g>
			</g>
		</g>
	</g>
	<path class="st20" d="M119.8,176.4c0.1,0.2,0,0.5-0.3,0.6c-0.2,0.1-0.5,0-0.6-0.3c-0.1-0.2,0-0.5,0.3-0.6
		C119.4,176.1,119.7,176.2,119.8,176.4z"/>
	<path class="st2" d="M134.8,183.8c0.2,0.5-0.1,1-0.5,1.2c-0.5,0.2-1-0.1-1.2-0.5c-0.2-0.5,0.1-1,0.5-1.2
		C134,183,134.6,183.3,134.8,183.8z"/>
	<path class="st20" d="M134.3,183.9c0.1,0.2,0,0.5-0.3,0.6c-0.2,0.1-0.5,0-0.6-0.3c-0.1-0.2,0-0.5,0.3-0.6
		C134,183.6,134.2,183.7,134.3,183.9z"/>
	<path class="st2" d="M135.5,208.5c0.1,0.2,0,0.5-0.3,0.6c-0.2,0.1-0.5,0-0.6-0.3c-0.1-0.2,0-0.5,0.3-0.6
		C135.1,208.1,135.4,208.2,135.5,208.5z"/>
	<path class="st2" d="M140,205c0.1,0.2,0,0.5-0.3,0.6c-0.2,0.1-0.5,0-0.6-0.3c-0.1-0.2,0-0.5,0.3-0.6
		C139.6,204.6,139.9,204.8,140,205z"/>
	<path class="st20" d="M142.6,212.5c0.1,0.2,0,0.5-0.3,0.6c-0.2,0.1-0.5,0-0.6-0.3c-0.1-0.2,0-0.5,0.3-0.6
		C142.2,212.1,142.5,212.3,142.6,212.5z"/>
	<path class="st2" d="M132.1,202.7c0.1,0.2,0,0.5-0.3,0.6c-0.2,0.1-0.5,0-0.6-0.3c-0.1-0.2,0-0.5,0.3-0.6
		C131.7,202.4,132,202.5,132.1,202.7z"/>
	<path class="st20" d="M132,195.6c0.1,0.2,0,0.5-0.3,0.6c-0.2,0.1-0.5,0-0.6-0.3c-0.1-0.2,0-0.5,0.3-0.6
		C131.6,195.2,131.9,195.4,132,195.6z"/>
	<path class="st2" d="M135.6,191.2c0.1,0.2,0,0.5-0.3,0.6c-0.2,0.1-0.5,0-0.6-0.3c-0.1-0.2,0-0.5,0.3-0.6
		C135.2,190.8,135.5,190.9,135.6,191.2z"/>
	<path class="st20" d="M129.9,186.2c0.1,0.2,0,0.5-0.3,0.6c-0.2,0.1-0.5,0-0.6-0.3c-0.1-0.2,0-0.5,0.3-0.6
		C129.5,185.8,129.8,185.9,129.9,186.2z"/>
	<path class="st20" d="M126.1,184.3c0.1,0.2,0,0.5-0.3,0.6c-0.2,0.1-0.5,0-0.6-0.3c-0.1-0.2,0-0.5,0.3-0.6
		C125.7,183.9,126,184,126.1,184.3z"/>
	<path class="st20" d="M135.7,198.5c0.1,0.2,0,0.5-0.3,0.6c-0.2,0.1-0.5,0-0.6-0.3c-0.1-0.2,0-0.5,0.3-0.6
		C135.4,198.2,135.6,198.3,135.7,198.5z"/>
	<path class="st2" d="M132.5,179.3c0.1,0.2,0,0.5-0.3,0.6c-0.2,0.1-0.5,0-0.6-0.3s0-0.5,0.3-0.6C132.2,179,132.5,179.1,132.5,179.3z
		"/>
	<path class="st20" d="M125.8,172.4c0.1,0.2,0,0.5-0.3,0.6c-0.2,0.1-0.5,0-0.6-0.3c-0.1-0.2,0-0.5,0.3-0.6
		C125.5,172,125.7,172.1,125.8,172.4z"/>
	<path class="st20" d="M119.9,179.3c0.1,0.2,0,0.5-0.3,0.6c-0.2,0.1-0.5,0-0.6-0.3c-0.1-0.2,0-0.5,0.3-0.6
		C119.5,179,119.8,179.1,119.9,179.3z"/>
	<path class="st2" d="M122.9,174c0.1,0.2,0,0.5-0.3,0.6c-0.2,0.1-0.5,0-0.6-0.3c-0.1-0.2,0-0.5,0.3-0.6
		C122.6,173.6,122.9,173.8,122.9,174z"/>
	<path class="st2" d="M119.3,167.8c0.1,0.2,0,0.5-0.3,0.6c-0.2,0.1-0.5,0-0.6-0.3c-0.1-0.2,0-0.5,0.3-0.6
		C119,167.4,119.2,167.5,119.3,167.8z"/>
	<g class="st25">
		<g class="st25">
			<g class="st25">
				<g class="st25">
					<path class="st26" d="M122,176.6c-1.1,0.8,0.1,2.3,1.2,3.1s3.1,1,2.4,0.1s-1.4-1.1-1.9-2.4C123.1,176.1,122.3,176.3,122,176.6z
						"/>
				</g>
			</g>
		</g>
	</g>
	<path class="st21" d="M133.6,200.5c0,0,0,1,0.3,1.3s0.6,0.7,0.6,0.9s-0.4,0.1-1-0.2s-1.4-0.4-1.6-0.5c-0.2-0.2,0.5,0.7,0.9,0.9
		c0.4,0.1,1.2,0.4,1.1,0.7c-0.1,0.3-0.6,0.2-1.4,0.2c-0.7,0.1-1.2,0.4-1.2,0.4s0.9,0,1.2,0.3c0.4,0.3,1.4-0.3,1.6-0.1s0,0.4-0.4,1.1
		c-0.4,0.8-0.3,1.2-0.5,1.7c0,0,0.4-0.6,0.8-0.8c0.4-0.2,0.6-1.1,0.8-1.4c0.1-0.3,0.3-0.2,0.4,0.3s0.4,1,0.8,1.4
		c0.4,0.4,0.4,0.5,0.4,0.5s-0.4-0.9-0.3-1.5c0.1-0.5-0.5-1.1-0.4-1.2c0.1-0.2,0.6,0,0.8,0.5s1,0.3,1.6,0.5c0,0-0.6-0.5-0.8-0.8
		s-0.9-0.3-1.2-0.7s0.4-0.4,1.2-0.2c0.8,0.1,0.7-0.2,1.5-0.4c0,0-0.7,0-1.1-0.4c-0.4-0.3-1.5,0.2-1.7,0.1c-0.2-0.1-0.3-0.1,0.4-0.7
		c0.6-0.6-0.1-1.1,0.6-1.9c0,0-0.7,0.4-1,0.7c-0.4,0.3-0.4,1.4-0.6,1.4c-0.2,0.1-0.4-0.3-0.5-0.7s-0.4-0.6-0.8-1
		C133.6,200.6,133.6,200.5,133.6,200.5z"/>
	<path class="st21" d="M125.9,175.6c0,0,0,1,0.3,1.3s0.6,0.7,0.6,0.9s-0.4,0.1-1-0.2s-1.4-0.4-1.6-0.5c-0.2-0.2,0.5,0.7,0.9,0.9
		c0.4,0.1,1.2,0.4,1.1,0.7s-0.6,0.2-1.4,0.2c-0.7,0.1-1.2,0.4-1.2,0.4s0.9,0,1.2,0.3c0.4,0.3,1.4-0.3,1.6-0.1s0,0.4-0.4,1.1
		s-0.3,1.2-0.5,1.7c0,0,0.4-0.6,0.8-0.8s0.6-1.1,0.8-1.4c0.1-0.3,0.3-0.2,0.4,0.3s0.4,1,0.8,1.4c0.4,0.4,0.4,0.5,0.4,0.5
		s-0.4-0.9-0.3-1.5c0.1-0.5-0.5-1.1-0.4-1.2c0.1-0.2,0.6,0,0.8,0.5s1,0.3,1.6,0.5c0,0-0.6-0.5-0.8-0.8s-0.9-0.3-1.2-0.7
		s0.4-0.4,1.2-0.2c0.8,0.1,0.7-0.2,1.5-0.4c0,0-0.7,0-1.1-0.4c-0.4-0.3-1.5,0.2-1.7,0.1c-0.2-0.1-0.3-0.1,0.4-0.7
		c0.6-0.6-0.1-1.1,0.6-1.9c0,0-0.7,0.4-1,0.7c-0.4,0.3-0.4,1.4-0.6,1.4c-0.2,0.1-0.4-0.3-0.5-0.7s-0.4-0.6-0.8-1
		C125.9,175.6,125.9,175.6,125.9,175.6z"/>
	<path class="st21" d="M133.4,187c0,0,0,0.5,0.1,0.7c0.1,0.1,0.3,0.3,0.3,0.4c0,0.1-0.2,0.1-0.5-0.1c-0.3-0.1-0.6-0.2-0.8-0.3
		c-0.1-0.1,0.2,0.4,0.4,0.4c0.2,0.1,0.6,0.2,0.6,0.3s-0.3,0.1-0.6,0.1s-0.6,0.2-0.6,0.2s0.4,0,0.6,0.1c0.2,0.1,0.7-0.1,0.8-0.1
		c0.1,0.1,0,0.2-0.2,0.5c-0.2,0.4-0.1,0.6-0.2,0.8c0,0,0.2-0.3,0.4-0.4c0.2-0.1,0.3-0.5,0.4-0.7c0.1-0.1,0.1-0.1,0.2,0.1
		s0.2,0.5,0.4,0.7s0.2,0.3,0.2,0.3s-0.2-0.5-0.1-0.7c0-0.3-0.2-0.5-0.2-0.6c0.1-0.1,0.3,0,0.4,0.3c0.1,0.2,0.5,0.1,0.8,0.2
		c0,0-0.3-0.2-0.4-0.4c-0.1-0.1-0.4-0.1-0.6-0.4c-0.1-0.2,0.2-0.2,0.6-0.1c0.4,0.1,0.4-0.1,0.7-0.2c0,0-0.3,0-0.5-0.2
		c-0.2-0.1-0.7,0.1-0.8,0s-0.1-0.1,0.2-0.3c0.3-0.3,0-0.5,0.3-0.9c0,0-0.3,0.2-0.5,0.4c-0.2,0.1-0.2,0.7-0.3,0.7
		c-0.1,0.1-0.2-0.1-0.3-0.4c-0.1-0.2-0.2-0.3-0.4-0.5C133.4,187.1,133.4,187,133.4,187z"/>
	<path class="st8" d="M128.1,195.4c0,0,0,0.5,0.1,0.7c0.1,0.1,0.3,0.3,0.3,0.4c0,0.1-0.2,0.1-0.5-0.1c-0.3-0.1-0.6-0.2-0.8-0.3
		c-0.1-0.1,0.2,0.4,0.4,0.4c0.2,0.1,0.6,0.2,0.6,0.3s-0.3,0.1-0.6,0.1s-0.6,0.2-0.6,0.2s0.4,0,0.6,0.1c0.2,0.1,0.7-0.1,0.8-0.1
		c0.1,0.1,0,0.2-0.2,0.5c-0.2,0.4-0.1,0.6-0.2,0.8c0,0,0.2-0.3,0.4-0.4c0.2-0.1,0.3-0.5,0.4-0.7c0.1-0.1,0.1-0.1,0.2,0.1
		c0,0.2,0.2,0.5,0.4,0.7s0.2,0.3,0.2,0.3s-0.2-0.5-0.1-0.7c0-0.3-0.2-0.5-0.2-0.6c0.1-0.1,0.3,0,0.4,0.3c0.1,0.2,0.5,0.1,0.8,0.2
		c0,0-0.3-0.2-0.4-0.4c-0.1-0.1-0.4-0.1-0.6-0.4c-0.1-0.2,0.2-0.2,0.6-0.1c0.4,0.1,0.4-0.1,0.7-0.2c0,0-0.3,0-0.5-0.2
		c-0.2-0.1-0.7,0.1-0.8,0s-0.1-0.1,0.2-0.3c0.3-0.3,0-0.5,0.3-0.9c0,0-0.3,0.2-0.5,0.4c-0.2,0.1-0.2,0.7-0.3,0.7
		c-0.1,0.1-0.2-0.1-0.3-0.4c-0.1-0.2-0.2-0.3-0.4-0.5C128.1,195.4,128.1,195.4,128.1,195.4z"/>
	<path class="st21" d="M139.6,210.1c0,0,0,0.5,0.1,0.7c0.1,0.1,0.3,0.3,0.3,0.4c0,0.1-0.2,0.1-0.5-0.1c-0.3-0.1-0.6-0.2-0.8-0.3
		c-0.1-0.1,0.2,0.4,0.4,0.4c0.2,0.1,0.6,0.2,0.6,0.3s-0.3,0.1-0.6,0.1s-0.6,0.2-0.6,0.2s0.4,0,0.6,0.1c0.2,0.1,0.7-0.1,0.8-0.1
		c0.1,0.1,0,0.2-0.2,0.5c-0.2,0.4-0.1,0.6-0.2,0.8c0,0,0.2-0.3,0.4-0.4s0.3-0.5,0.4-0.7c0.1-0.1,0.1-0.1,0.2,0.1
		c0,0.2,0.2,0.5,0.4,0.7s0.2,0.3,0.2,0.3s-0.2-0.5-0.1-0.7c0-0.3-0.2-0.5-0.2-0.6c0.1-0.1,0.3,0,0.4,0.3c0.1,0.2,0.5,0.1,0.8,0.2
		c0,0-0.3-0.2-0.4-0.4c-0.1-0.1-0.4-0.1-0.6-0.4c-0.1-0.2,0.2-0.2,0.6-0.1c0.4,0.1,0.4-0.1,0.7-0.2c0,0-0.3,0-0.5-0.2
		c-0.2-0.1-0.7,0.1-0.8,0s-0.1-0.1,0.2-0.3c0.3-0.3,0-0.5,0.3-0.9c0,0-0.3,0.2-0.5,0.4c-0.2,0.1-0.2,0.7-0.3,0.7
		c-0.1,0.1-0.2-0.1-0.3-0.4c-0.1-0.2-0.2-0.3-0.4-0.5C139.6,210.1,139.6,210.1,139.6,210.1z"/>
	<path class="st8" d="M118.8,172.2c0,0,0,0.5,0.1,0.7c0.1,0.1,0.3,0.3,0.3,0.4c0,0.1-0.2,0.1-0.5-0.1c-0.3-0.1-0.6-0.2-0.8-0.3
		c-0.1-0.1,0.2,0.4,0.4,0.4c0.2,0.1,0.6,0.2,0.6,0.3s-0.3,0.1-0.6,0.1c-0.4,0-0.6,0.2-0.6,0.2s0.4,0,0.6,0.1s0.7-0.1,0.8-0.1
		c0.1,0.1,0,0.2-0.2,0.5c-0.2,0.4-0.1,0.6-0.2,0.8c0,0,0.2-0.3,0.4-0.4c0.2-0.1,0.3-0.5,0.4-0.7c0.1-0.1,0.1-0.1,0.2,0.1
		c0,0.2,0.2,0.5,0.4,0.7c0.2,0.2,0.2,0.3,0.2,0.3s-0.2-0.5-0.1-0.7c0-0.3-0.2-0.5-0.2-0.6c0.1-0.1,0.3,0,0.4,0.3
		c0.1,0.2,0.5,0.1,0.8,0.2c0,0-0.3-0.2-0.4-0.4c-0.1-0.1-0.4-0.1-0.6-0.4c-0.1-0.2,0.2-0.2,0.6-0.1c0.4,0.1,0.4-0.1,0.7-0.2
		c0,0-0.3,0-0.5-0.2c-0.2-0.1-0.7,0.1-0.8,0c-0.1-0.1-0.1-0.1,0.2-0.3c0.3-0.3,0-0.5,0.3-0.9c0,0-0.3,0.2-0.5,0.4
		c-0.2,0.1-0.2,0.7-0.3,0.7c-0.1,0.1-0.2-0.1-0.3-0.4c-0.1-0.2-0.2-0.3-0.4-0.5C118.8,172.2,118.8,172.2,118.8,172.2z"/>
	<g class="st25">
		<g class="st25">
			<g class="st25">
				<g class="st25">
					<path class="st26" d="M122,203.8c2.4,2,4.5,10.2,0.1,10.7c-4.5,0.5-3.2-3.7-3.1-7.4C119,203.4,119.2,201.4,122,203.8z"/>
				</g>
			</g>
		</g>
	</g>
	<g class="st25">
		<g class="st25">
			<g class="st25">
				<g class="st25">
					<path class="st26" d="M111.2,194.5c1.1,4.5,1.7,11.1-1.1,11.2c-2.8,0.1-6.1,0.1-8.5-7.7C99.3,190.4,109,185.5,111.2,194.5z"/>
				</g>
			</g>
		</g>
	</g>
	<g class="st25">
		<g class="st25">
			<g class="st25">
				<g class="st25">
					<path class="st26" d="M147.6,192.2c-4.2,3,0.4,7,3.1,7.2c2.7,0.1,5.6-5.2,6-8.2S151.2,189.7,147.6,192.2z"/>
				</g>
			</g>
		</g>
	</g>
	<g class="st25">
		<g class="st25">
			<g class="st25">
				<g class="st25">
					<path class="st26" d="M145.9,176.6c-3.3,3-0.6,10.2,3.2,9.3C153,184.9,148.9,174,145.9,176.6z"/>
				</g>
			</g>
		</g>
	</g>
	<g class="st25">
		<g class="st25">
			<g class="st25">
				<g class="st25">
					<path class="st26" d="M109.1,169.9c-0.6,3.1,4.2,2.7,4.8,0C114.6,167.2,110,165.1,109.1,169.9z"/>
				</g>
			</g>
		</g>
	</g>
	<path class="st10" d="M106.4,192.7c-3.8,1-2.4,3.5-2.2,5.5c0.1,2,1.8,5.6,4.9,6c3.2,0.4,1.5-3.6,1.8-5.9
		C111.1,195.9,110.4,191.7,106.4,192.7z"/>
	<path class="st10" d="M120.9,203.8c-1.8-0.9-1.4,5.1-1.6,7.3c-0.2,2.2,2.7,2.9,3.7,0.8C123.9,209.8,122.6,204.5,120.9,203.8z"/>
	<path class="st10" d="M149.9,191.8c-1.9,1.2-3.5,3.6-0.9,5.2c2.6,1.6,3.7-1.8,4.8-3.4C155,192.1,155.5,188.4,149.9,191.8z"/>
	<path class="st10" d="M147.2,177.1c-1.2-1.6-3.1,4.9-0.8,6.9s2.7,0.9,3.2-1.1C150.1,181,148.3,178.5,147.2,177.1z"/>
	<path class="st10" d="M110.2,168.6c-0.7,1.3-1.2,2.7,0.5,2.9c1.8,0.2,2.1-1.1,1.9-2.5C112.6,167.5,111,167.1,110.2,168.6z"/>
	<path class="st20" d="M122.5,178.3c0.1,0.2,0,0.5-0.3,0.6c-0.2,0.1-0.5,0-0.6-0.3c-0.1-0.2,0-0.5,0.3-0.6
		C122.1,178,122.4,178.1,122.5,178.3z"/>
	<path class="st15" d="M352.8,201.3l-4.1-2.5v-4.6l4.1-2.4l4.1,2.4v4.8L352.8,201.3z M349,198.6l3.7,2.3l3.7-2.2v-4.4l-3.7-2.2
		l-3.7,2.2V198.6z"/>
	<path class="st15" d="M364.7,208.4l-4.1-2.5v-4.6l4.1-2.4l4.1,2.4v4.8L364.7,208.4z M361,205.7l3.7,2.3l3.7-2.2v-4.4l-3.7-2.2
		l-3.7,2.2V205.7z"/>
	<path class="st15" d="M360.6,215l-4.1-2.5v-4.6l4.1-2.4l4.1,2.5v4.7L360.6,215z M356.9,212.3l3.7,2.3l3.7-2.2V208l-3.7-2.2
		l-3.7,2.2V212.3z"/>
	<path class="st15" d="M356.8,198.7l-0.2,0.3l4.3,2.6l0.2-0.3L356.8,198.7z"/>
	<path class="st15" d="M352.7,193l-2.8,1.5l0.2,0.3l2.8-1.5L352.7,193z"/>
	<path class="st15" d="M363.6,198.4l-2.8,1.5l0.2,0.3l2.8-1.5L363.6,198.4z"/>
	<path class="st15" d="M357.9,208.4h-0.4v3.5h0.4V208.4z"/>
	<path class="st15" d="M363.6,208.4h-0.4v3.5h0.4V208.4z"/>
	<path class="st22" d="M72.6,266.3l8,0.1c0.3,0,0.4-0.3,0.3-0.5c-0.3-0.6-1.1-1.4-2.8-1.5c-0.9-0.1-1.5-0.5-2-1
		c-0.6-0.8-0.8-1.9-0.7-2.8c0.2-1.7-2.7,0.4-2.7,0.4l-0.1,3.2L72.6,266.3z"/>
	<path class="st19" d="M83.7,172.8c1.3-0.1,1.6,0.8,1.3,1.9c-0.2,0.8,1.1,1.1,1.1,2.3c-0.1,1.2-1.8,2.2-2.9,2.1
		c-1.1-0.1-2.2,1.4-3.6,2s-3.1,1.7-4.1,0.9c-1-0.9-1.7-0.2-2.2-1.6c-0.5-1.5,0.7-1.6,0.6-2.8s-0.7-1.5-0.2-2.7c0.4-1,1.9-0.2,2-0.9
		c0-1,0.7-2.2,1.7-2s1.9,0.4,2.3-0.2c0.4-0.7,1.6-0.9,2.1,0C82,172.3,82.7,172.9,83.7,172.8z"/>
	<path class="st22" d="M38.8,252.8l4.1,6.9c0.1,0.2,0.5,0.2,0.6,0c0.3-0.6,0.6-1.6-0.2-3.1c-0.4-0.8-0.4-1.6-0.1-2.2
		c0.4-0.9,1.2-1.7,2.1-2.1c1.5-0.7-1.8-2.2-1.8-2.2l-2.7,1.6L38.8,252.8z"/>
	<path class="st15" d="M38.8,252.8l4.1,6.9c0.1,0.2,0.5,0.2,0.6,0c0.3-0.6,0.6-1.6-0.2-3.1c-0.4-0.8-0.4-1.6-0.1-2.2
		c-0.4-0.3-0.8-0.4-1.5-0.7c-0.6-0.1-0.8-1.1-0.9-2L38.8,252.8z"/>
	<path class="st15" d="M62.9,210.6c0,0-2.1,5.6-3.7,12.9c-1.6,7.3-1.9,9.6-3,11.1c-3.3,4.4-14.2,14.5-14.1,15.2c0.1,0.8,4,3.9,4,3.9
		s15.6-11,17.7-14.6c1.4-2.4,9.4-25.8,9.4-25.8L62.9,210.6z"/>
	<path class="st15" d="M77,212.7c0,0,3.8,25.7,3.9,27.6c0.1,1.7-3.5,19.1-4,21.7c0,0.2-0.2,0.3-0.4,0.3l-4.6-0.4
		c-0.2,0-0.4-0.2-0.3-0.4c0.4-3.8,1.4-16.1,1-21.5c-0.1-1-5.1-18.8-5.1-18.8l2.2-14L77,212.7z"/>
	<path class="st22" d="M85.3,198.3c0,0,1.1,3.5,1.4,3.7s8.7-0.1,9.2-0.1c0.4,0,0.8-0.5,1.3-0.7c0.9-0.2,1.6,1.1,1.1,2.3
		s-2.2,0.9-2.9,0.9c-0.7,0.1-10.6,1.4-11.5,0.9c-0.9-0.6-2.2-4.8-2.2-4.8L85.3,198.3z"/>
	<path class="st20" d="M79.5,186.6c0,0,3.9,1.5,5,5.1c0.8,2.4,1.6,4.6,2.1,5.7c0.2,0.5,0,1.1-0.4,1.4c-1.2,0.7-3.4,2-4.1,2
		c-0.9-0.1-0.7-1.5-1.2-0.9c-0.5,0.5-3,16-3.4,16.6c-0.3,0.7-9.3,1-15.6-3.1c0,0,0-11,1.5-17.1c1.6-6.5,2.2-9.2,4-10.1
		C69.1,185.4,74.8,184.8,79.5,186.6z"/>
	<path class="st22" d="M80.8,183.2l-1,4.5c0,0-0.9,1.4-2.9,0.7c-1.7-0.6-2.4-1.9-2.4-1.9l1.9-6.3l0.2,0.1L80.8,183.2z"/>
	<path class="st23" d="M80.8,183.2l-0.6,2.8c-2.5-1.1-3.3-4.5-3.6-5.7L80.8,183.2z"/>
	<path class="st22" d="M81.5,184.6c-2.8,0.6-4.5-3.6-4.5-3.6s-1.2-0.6-0.8-2c0.4-1.4,1.2,1,1.6-0.2c0.4-1.3,0.6-1.7,1.4-1.5
		c0.1,0,0.2,0,0.3,0l0,0c0.6-0.1,1.9-0.5,2.9-1c0.7-0.4,1.6,0.1,1.6,1l0,0C83.9,179.9,83.4,184.1,81.5,184.6z"/>
	<path class="st1" d="M81.7,197.3c0,0,0.3-2.2,0.4-4c0.1-1.9-0.3-4.3-0.3-4.3h-0.2c0,0,0.4,2.4,0.3,4.3c-0.1,1.7-0.4,4-0.4,4H81.7z"
		/>
	<path class="st15" d="M95.2,199.2l-10.4,12.4l1.6,1.4l10.4-12.4L95.2,199.2z"/>
	<path class="st2" d="M71.2,229.2l0.3,0.3c0.9,0.8,2.4,0.7,3.1-0.3l14.2-17c0.8-0.9,0.7-2.4-0.3-3.1l-0.3-0.3
		c-0.9-0.8-2.4-0.7-3.1,0.3l-14.2,17C70.2,227,70.3,228.4,71.2,229.2z"/>
	<path class="st15" d="M92.7,176.9c-6.1,7.3-5.2,18.3,2.1,24.4c7.3,6.2,18.2,5.2,24.3-2.1c6.1-7.3,5.2-18.3-2.1-24.4
		C109.7,168.6,98.8,169.6,92.7,176.9z M94.3,178.3c5.4-6.4,14.9-7.2,21.3-1.9c6.4,5.4,7.2,14.9,1.9,21.4c-5.4,6.4-14.9,7.2-21.3,1.9
		C89.8,194.3,89,184.7,94.3,178.3z"/>
	<g class="st27">
		<g class="st27">
			<g class="st27">
				<path class="st28" d="M119.9,193.6c3.1-7.8-0.7-16.6-8.5-19.7c-7.8-3.1-16.5,0.8-19.6,8.5c-3.1,7.8,0.7,16.6,8.5,19.7
					S116.9,201.4,119.9,193.6z"/>
			</g>
		</g>
	</g>
	<path class="st22" d="M73.1,196.9c0,0,3.1,6.4,4,7.3c0.9,0.9,9.3,5.4,10.3,5.7s2.9,0.5,2.7,1.3c-0.2,0.8-1.6,1.9-1.9,2.1
		c-0.4,0.2-1.9-1-2.7-1.4c-0.4-0.3-11.2-4.1-11.9-4.4c-0.7-0.4-6.5-8.8-6.5-8.8L73.1,196.9z"/>
	<path class="st20" d="M68.2,186.8c0,0,2.5,0.3,3.9,5.1c1.3,4.9,1.9,5.7,1.9,5.7s-3.5,1.7-4.7,2s-1.2,0.5-2-0.3s-2.4-5.2-2-7.8
		C65.6,188.9,66.4,186.5,68.2,186.8z"/>
	<path class="st1" d="M73.6,195.3l0.1-0.2L73.6,195.3l0.1-0.2c0,0-0.9-0.7-2.2-4.2c-0.9-2.2-1.9-3.6-3.1-3.9c-0.6-0.1-1.1,0-1.6,0.5
		l0.1,0.1c0.4-0.4,0.9-0.5,1.4-0.4c1.1,0.2,2.1,1.6,2.9,3.8C72.7,194.6,73.6,195.3,73.6,195.3z"/>
	<path class="st2" d="M124.7,145.3c-0.6-1.1,0.1-2.2,2.1-3.4c0.4-0.3,1-0.7,1.5-1.1c1.3-1,2.7-2.2,4-2c0.5,0.1,1,0.4,1.4,1
		s0.5,1.1,0.3,1.6c-0.3,1-1.7,1.7-2.9,2.3c-0.4,0.2-0.9,0.5-1.4,0.8c-1.8,1-3.9,2.2-4.7,1.2C124.9,145.5,124.8,145.4,124.7,145.3z
		 M133.5,140l-0.1-0.1c-0.3-0.5-0.7-0.7-1.1-0.8c-1.1-0.2-2.5,0.9-3.7,2c-0.6,0.4-1.1,0.9-1.5,1.2c-1.8,1.1-2.5,2.1-2,2.9
		c0.1,0.1,0.1,0.2,0.2,0.3c0.6,0.8,2.7-0.4,4.3-1.3c0.5-0.3,1-0.6,1.5-0.8c1.1-0.5,2.4-1.2,2.7-2.1
		C133.8,140.8,133.7,140.4,133.5,140z"/>
	<path class="st2" d="M130.2,142.1c-0.4-0.6-0.1-1.7,0.5-2.2c0.5-0.4,1-0.4,1.6,0.1c0.1,0.1,0.2,0.2,0.3,0.4
		c0.3,0.5,0.2,1.1-0.3,1.6c-0.5,0.4-1.3,0.7-1.8,0.4C130.3,142.3,130.2,142.2,130.2,142.1z M132.2,140.6c-0.1-0.1-0.1-0.2-0.2-0.3
		c-0.4-0.4-0.8-0.4-1.1-0.1c-0.5,0.4-0.7,1.3-0.4,1.7c0,0.1,0.1,0.1,0.1,0.1c0.4,0.2,1,0,1.3-0.3
		C132.1,141.6,132.5,141.2,132.2,140.6z"/>
	<path class="st2" d="M113.1,152.6v-0.4c3.2-0.1,4.9-2.3,6.7-4.3c0.3-0.3,0.5-0.6,0.8-0.9c2-2.3,4-2.8,4.1-2.8l0.1,0.4
		c0,0-2,0.5-3.9,2.7c-0.3,0.3-0.5,0.6-0.8,0.9C118.3,150.3,116.5,152.5,113.1,152.6z"/>
	<path class="st2" d="M119.1,153.5l-0.1-0.3c2.2-1,2.9-3.1,3.4-5.1s2.6-2.7,2.7-2.8l0.1,0.3c0,0-2,0.7-2.5,2.5
		C122.1,150.1,121.4,152.4,119.1,153.5z"/>
	<path class="st2" d="M124.6,148.7c-0.3-1-0.2-1.8,0.1-2.4c0.4-0.6,0.9-0.7,0.9-0.7l0.1,0.4v-0.2v0.2c0,0-0.4,0.1-0.7,0.6
		c-0.3,0.5-0.3,1.2-0.1,2.1L124.6,148.7z"/>
	<path class="st2" d="M230.8,138.8c-0.6,0-1.1-0.1-1.7-0.2c-0.5-0.1-1-0.3-1.5-0.6c-0.4-0.2-0.7-0.4-1-0.7l0.2-0.3
		c0.3,0.2,0.6,0.4,0.9,0.6c0.4,0.2,0.9,0.4,1.4,0.6c0.5,0.1,1.1,0.2,1.6,0.2c0.7,0,1.4-0.1,2-0.3c0.5-0.1,1-0.4,1.4-0.7
		c0.3-0.2,0.6-0.4,0.9-0.7c0.3-0.3,0.6-0.6,0.8-0.9c0.4-0.5,0.6-1,0.9-1.5c0.1-0.3,0.2-0.6,0.3-0.8s0.1-0.6,0.1-0.8s0.1-0.5,0.1-0.8
		c0-0.2,0-0.4,0-0.7l0,0c-0.1-1.2-0.6-2.4-1.4-3.4c-0.3-0.4-0.7-0.8-1.1-1.1c-0.4-0.3-0.7-0.5-1.1-0.7c-0.5-0.2-1-0.4-1.4-0.5
		s-0.9-0.1-1.3-0.1c-1.5,0-2.9,0.5-4.1,1.5c-0.4,0.3-0.8,0.7-1.1,1.1c-0.2,0.3-0.4,0.6-0.6,1c-0.2,0.4-0.4,0.9-0.5,1.4
		c-0.1,0.3-0.1,0.5-0.1,0.8c0,0.2,0,0.5,0,0.7c0,0.3,0,0.6,0.1,0.9c0.1,1.2,0.6,2.2,1.3,3.2l-0.3,0.2c-0.8-1-1.2-2.1-1.4-3.3
		c0-0.3-0.1-0.6-0.1-0.9c0-0.2,0-0.5,0-0.7c0-0.3,0.1-0.6,0.1-0.8c0.1-0.5,0.3-1,0.6-1.5c0.2-0.4,0.4-0.7,0.6-1
		c0.3-0.4,0.7-0.8,1.1-1.2c1.2-1,2.7-1.5,4.3-1.5c0.5,0,0.9,0.1,1.4,0.1c0.5,0.1,1,0.3,1.5,0.5c0.4,0.2,0.8,0.4,1.2,0.7
		s0.8,0.7,1.1,1.1c0.9,1,1.4,2.3,1.5,3.6l0,0c0,0.2,0,0.4,0,0.7s0,0.5-0.1,0.8c0,0.3-0.1,0.6-0.1,0.9c-0.1,0.3-0.2,0.6-0.3,0.9
		c-0.2,0.6-0.5,1.1-0.9,1.6c-0.3,0.3-0.5,0.7-0.9,0.9c-0.3,0.3-0.6,0.5-0.9,0.7c-0.4,0.3-0.9,0.5-1.5,0.7
		C232.3,138.7,231.6,138.8,230.8,138.8z"/>
	<path class="st2" d="M230.9,136.5c-1.6,0-3-0.6-3.8-1.7c-0.6-0.8-0.9-1.8-0.6-2.8c0.5-2.2,1.2-4.5,3.6-4.5c0.3,0,0.6,0,0.9,0.1
		c2.3,0.5,3.7,2,4.4,4.4c0.3,1,0.1,2-0.5,2.8C234,135.8,232.5,136.5,230.9,136.5z M230,127.7c-2.1,0-2.8,2.2-3.2,4.3
		c-0.2,1,0,1.9,0.5,2.6c0.8,0.9,2.1,1.5,3.6,1.5s3-0.6,3.7-1.6c0.5-0.7,0.7-1.5,0.4-2.5c-0.6-2.3-2-3.7-4.2-4.2
		C230.5,127.8,230.2,127.7,230,127.7z"/>
	<path class="st2" d="M233.9,126l-0.3-0.1l0.5-1.7c0.1-0.3-0.1-0.7-0.4-0.8c-0.3-0.1-0.7,0.1-0.8,0.4l-0.4,1.6l-0.3-0.1l0.4-1.6
		c0.1-0.5,0.7-0.8,1.2-0.7s0.8,0.7,0.6,1.2L233.9,126z"/>
	<path class="st2" d="M239.2,132.9h-1.7v-0.3h1.7c0.4,0,0.6-0.3,0.6-0.6c0-0.4-0.3-0.6-0.6-0.6h-1.7v-0.1h-0.2V131h1.9
		c0.5,0,0.9,0.4,0.9,1C240.1,132.5,239.7,132.9,239.2,132.9z"/>
	<path class="st2" d="M238.7,135.9c-0.1,0-0.2,0-0.3-0.1l-1.8-0.6l0.6-1.8l1.8,0.6c0.2,0.1,0.4,0.2,0.6,0.5c0.1,0.2,0.1,0.5,0.1,0.7
		C239.5,135.6,239.1,135.9,238.7,135.9z M237,135l1.5,0.5c0.1,0,0.1,0,0.2,0c0.3,0,0.5-0.2,0.6-0.4c0.1-0.1,0-0.3,0-0.5
		c-0.1-0.1-0.2-0.3-0.4-0.3l-1.5-0.5L237,135z"/>
	<path class="st2" d="M236.9,138.7c-0.2,0-0.5-0.1-0.6-0.2l-1.4-1.3l0.4-0.4l0.2,0.2l-0.1,0.1l1.2,1.1c0.1,0.1,0.3,0.2,0.4,0.1
		c0.2,0,0.3-0.1,0.4-0.2c0.2-0.3,0.2-0.7-0.1-0.9L236,136l0.2-0.2l1.3,1.2c0.4,0.4,0.4,0.9,0.1,1.4
		C237.4,138.6,237.2,138.7,236.9,138.7L236.9,138.7z"/>
	<path class="st2" d="M234.4,140.4c-0.4,0-0.7-0.2-0.9-0.5l-0.7-1.5l0.3-0.1l0.7,1.5c0.1,0.3,0.5,0.4,0.8,0.3
		c0.1-0.1,0.3-0.2,0.3-0.4c0.1-0.1,0.1-0.3,0-0.5l-0.7-1.5l0.3-0.1l0.7,1.5c0.1,0.2,0.1,0.5,0,0.7s-0.3,0.4-0.5,0.5
		C234.6,140.4,234.5,140.4,234.4,140.4z"/>
	<path class="st2" d="M227.8,140.7c-0.1,0-0.2,0-0.4-0.1s-0.4-0.3-0.5-0.5s-0.1-0.5,0-0.7l0.6-1.6l0.3,0.1l-0.6,1.6
		c-0.1,0.1-0.1,0.3,0,0.5c0.1,0.1,0.2,0.3,0.4,0.3c0.1,0.1,0.3,0.1,0.5,0c0.1-0.1,0.3-0.2,0.3-0.4l0.6-1.6l0.3,0.1l-0.6,1.6
		c-0.1,0.2-0.3,0.4-0.5,0.5C228.1,140.6,228,140.7,227.8,140.7z"/>
	<path class="st2" d="M225,138.8c-0.3,0-0.5-0.1-0.7-0.3s-0.3-0.4-0.3-0.7s0.1-0.5,0.3-0.7l1.3-1.3l0.1,0.1c0.3,0.4,0.7,0.8,1.1,1.1
		l0.1,0.1l-1.3,1.3C225.5,138.7,225.3,138.8,225,138.8z M225.6,136.3l-1.1,1.1c-0.1,0.1-0.2,0.3-0.2,0.4s0.1,0.3,0.2,0.4
		c0.2,0.2,0.6,0.2,0.9,0l1.1-1.1C226.2,137,225.9,136.7,225.6,136.3z"/>
	<path class="st2" d="M222.6,133c-0.5,0-0.9-0.4-0.9-0.9s0.4-0.9,0.9-0.9h1.7v0.3h-1.7c-0.4,0-0.6,0.3-0.6,0.6
		c0,0.4,0.3,0.6,0.6,0.6h1.7v0.3L222.6,133L222.6,133z"/>
	<path class="st2" d="M224.4,130.6l-1.5-0.5c-0.2-0.1-0.4-0.3-0.5-0.5s-0.1-0.5,0-0.7s0.3-0.4,0.5-0.5s0.5-0.1,0.7,0l1.6,0.5
		l-0.1,0.3l-1.6-0.5c-0.1-0.1-0.3-0.1-0.5,0c-0.1,0.1-0.3,0.2-0.3,0.4c-0.1,0.1-0.1,0.3,0,0.5c0.1,0.1,0.2,0.3,0.4,0.3l1.5,0.5
		L224.4,130.6z"/>
	<path class="st2" d="M225.5,128.1l-1.2-1.2c-0.4-0.4-0.4-1,0-1.4s1-0.4,1.4,0l1.2,1.2l-0.2,0.2l-1.2-1.2c-0.3-0.2-0.6-0.2-0.9,0
		c-0.2,0.2-0.2,0.7,0,0.9l1.2,1.2L225.5,128.1z"/>
	<path class="st2" d="M227.2,126.6l-0.9-1.7c-0.1-0.2-0.1-0.5-0.1-0.7c0.1-0.2,0.2-0.4,0.4-0.6c0.1-0.1,0.3-0.1,0.4-0.1
		c0.4,0,0.7,0.2,0.8,0.5l0.9,1.7L227.2,126.6z M227.1,123.8c-0.1,0-0.2,0-0.3,0.1s-0.3,0.2-0.3,0.4c-0.1,0.1,0,0.3,0.1,0.5l0.8,1.4
		l1.1-0.6l-0.8-1.4C227.6,123.9,227.3,123.8,227.1,123.8z"/>
	<path class="st2" d="M236.1,127.9l-0.2-0.2l1.2-1.2c0.1-0.1,0.2-0.3,0.2-0.4s-0.1-0.3-0.2-0.4c-0.1-0.1-0.3-0.2-0.4-0.2
		c-0.2,0-0.3,0.1-0.4,0.2l-1.2,1.2l-0.2-0.2l1.2-1.2c0.2-0.2,0.4-0.3,0.7-0.3s0.5,0.1,0.7,0.3c0.4,0.4,0.4,1,0,1.4L236.1,127.9z"/>
	<path class="st2" d="M229.7,131.6c-0.8,0-1.5-0.7-1.5-1.5s0.7-1.5,1.5-1.5s1.5,0.7,1.5,1.5S230.5,131.6,229.7,131.6z M229.7,128.9
		c-0.6,0-1.2,0.5-1.2,1.2s0.5,1.2,1.2,1.2c0.6,0,1.2-0.5,1.2-1.2C230.9,129.5,230.4,128.9,229.7,128.9z"/>
	<path class="st2" d="M228.3,134.6c-0.4,0-0.7-0.3-0.7-0.7s0.3-0.7,0.7-0.7s0.7,0.3,0.7,0.7C229.1,134.3,228.7,134.6,228.3,134.6z
		 M228.3,133.5c-0.2,0-0.4,0.2-0.4,0.4s0.2,0.4,0.4,0.4s0.4-0.2,0.4-0.4S228.6,133.5,228.3,133.5z"/>
	<path class="st2" d="M233.7,133.8c-0.7,0-1.3-0.6-1.3-1.3s0.6-1.3,1.3-1.3s1.3,0.6,1.3,1.3S234.4,133.8,233.7,133.8z M233.7,131.5
		c-0.5,0-1,0.4-1,1c0,0.5,0.4,1,1,1c0.5,0,1-0.4,1-1C234.6,132,234.2,131.5,233.7,131.5z"/>
	<path class="st2" d="M231.3,135.2c-0.3,0-0.5-0.2-0.5-0.5s0.2-0.5,0.5-0.5s0.5,0.2,0.5,0.5S231.6,135.2,231.3,135.2z M231.3,134.6
		c-0.1,0-0.2,0.1-0.2,0.2c0,0.1,0.1,0.2,0.2,0.2c0.1,0,0.2-0.1,0.2-0.2C231.5,134.6,231.4,134.6,231.3,134.6z"/>
	<path class="st1" d="M301.5,169.2c0,0.4-0.3,0.7-0.6,0.7c-0.4,0-0.6-0.3-0.6-0.6s0.3-0.7,0.6-0.7
		C301.2,168.6,301.5,168.9,301.5,169.2z"/>
	<path class="st1" d="M304.6,169.2c0,0.4-0.3,0.7-0.6,0.7c-0.4,0-0.7-0.3-0.7-0.6c0-0.4,0.3-0.7,0.6-0.7
		C304.3,168.6,304.6,168.9,304.6,169.2z"/>
	<path class="st1" d="M297.3,169.9c0.4,0,0.6-0.3,0.6-0.7s-0.3-0.6-0.6-0.6c-0.4,0-0.6,0.3-0.6,0.7
		C296.7,169.6,297,169.9,297.3,169.9z"/>
</g>
</svg>
