<?xml version="1.0" encoding="utf-8"?>
<!-- Generator: Adobe Illustrator 24.2.0, SVG Export Plug-In . SVG Version: 6.00 Build 0)  -->
<svg version="1.1" id="Layer_1" xmlns="http://www.w3.org/2000/svg" xmlns:xlink="http://www.w3.org/1999/xlink" x="0px" y="0px"
	 viewBox="0 0 240 246" style="enable-background:new 0 0 240 246;" xml:space="preserve">
<style type="text/css">
	.st0{fill:#FCDF48;stroke:#D37E28;stroke-width:2.2243;stroke-miterlimit:10;}
	.st1{fill:#C3C3C3;}
	.st2{fill:none;stroke:#000000;stroke-width:1.1122;stroke-linecap:round;stroke-linejoin:round;stroke-miterlimit:10;}
	.st3{fill:#FFFFFF;stroke:#FFFFFF;stroke-width:0.5561;stroke-miterlimit:10;}
	.st4{fill:#FFFFFF;}
	.st5{fill:#FCDF48;}
	.st6{fill:#F9BC16;}
	.st7{fill:#E68C24;}
	.st8{fill:none;stroke:#000000;stroke-width:1.1122;stroke-miterlimit:10;}
	.st9{fill:#5DA845;}
	.st10{fill:#638C49;}
	.st11{fill:#9CCE7B;}
	.st12{fill:#28BDC0;}
	.st13{fill:#3EA848;}
	.st14{fill:#96CA4D;}
	.st15{fill:#FFFFFF;stroke:#9A4221;stroke-width:1.1122;stroke-linecap:round;stroke-linejoin:round;stroke-miterlimit:10;}
	.st16{opacity:0.99;fill:none;stroke:#3EA3D4;stroke-width:1.1122;stroke-miterlimit:10;}
	.st17{fill:#D3D3D3;}
	.st18{opacity:0.99;}
	.st19{fill:#B97248;}
	.st20{fill:#E75454;}
	.st21{fill:none;stroke:#9A4221;stroke-width:1.1122;stroke-linecap:round;stroke-linejoin:round;stroke-miterlimit:10;}
	.st22{fill:#F9F9FA;}
	.st23{fill:none;stroke:#FFFFFF;stroke-width:0.5561;stroke-miterlimit:10;}
</style>
<g>
	<path id="basic_1_" class="st0" d="M166.8,82.5c0-37.3-30.2-67.5-67.5-67.5S31.8,45.2,31.8,82.5c0,29,18.3,53.8,44.1,63.3v63.5
		c0,3.5,2.8,6.3,6.3,6.3h0c3.5,0,6.3-2.8,6.3-6.3v-60.2c3.5,0.6,7.1,0.9,10.8,0.9c5.3,0,10.4-0.6,15.3-1.7v61.1
		c0,3.5,2.8,6.3,6.3,6.3c3.5,0,6.3-2.8,6.3-6.3V144C150.6,133.4,166.8,109.8,166.8,82.5z"/>
	<g>
		<g id="XMLID_19_">
			<g>
				<path class="st1" d="M69.7,206.2c0.1-0.4,0.1-0.8,0-1.1c0,0,0,0,0,0l0.4-0.1c-0.4-0.5-0.7-0.9-0.9-1.5c-0.5-1-0.7-2.3-0.2-3.3
					c0.7-1.4,2.8-1.4,3.8-2.6c1.5-1.8,13.6-0.4,15.1,0.2c1.9,0.3,3.8,0.8,5.6,1.4c1.5,0.6,2.9,1.3,3.9,2.5c1,1.2,1.3,3.1,0.4,4.4
					c-0.3,0.5-0.8,0.9-1.3,1.2c-1.2,0.8-2.5,1.5-3.9,1.9h0c0,0-0.1,0-0.1-0.1c-0.1,0.1-0.1,0.1-0.2,0.2c-0.4,0.4-0.4,0.8-0.3,1.4
					c0.2,2.7,2,5.3,2.8,9.8c0,0,0,0,0,0c0.4,2,0.8,3.9,1.3,5.9c0.2,0.8,0.3,1.6-0.1,2.3c-0.3,0.5-0.8,0.8-1.3,1
					c-2.3,1.1-4.7,1.9-7.1,2.3c0.3,2,0.4,4.3-1,5.7c-0.5,0.5-1.2,0.8-1.9,1c-10.8,4.2-23.1,4.4-34.1,0.7c-0.4-0.1-0.8-0.3-1.1-0.6
					c-0.3-0.3-0.4-0.8-0.5-1.2c-0.2-1.1-0.5-2.2-0.7-3.3c-0.4-1.9-0.1-4.8,1.8-5.4l0.6-0.2c-1.6-4.4,0.2-9.6,3.7-12.7
					c2.6-2.3,6-3.6,9.5-4h0c1.2-0.3,3.1-1.9,4.1-2.4C68.8,209.3,69.5,207.5,69.7,206.2z"/>
			</g>
			<g>
				<path class="st2" d="M95,220.5c0,0.1,0,0.3,0.1,0.4"/>
				<path class="st2" d="M92.8,209.2c0,0-0.1,0-0.1-0.1c-0.1,0.1-0.1,0.1-0.2,0.2c-0.4,0.4-0.4,0.8-0.3,1.4c0.2,2.7,2,5.3,2.8,9.8"
					/>
				<path class="st2" d="M93,209.4c0-0.2-0.1-0.1-0.2-0.1"/>
				<path class="st2" d="M88.1,197.8c-1.5-0.7-13.6-2-15.1-0.2c-1,1.2-3.2,1.2-3.8,2.6c-0.5,1-0.3,2.3,0.2,3.3
					c0.2,0.5,0.6,1,0.9,1.5c0.4,0.5,0.7,0.9,1.1,1.3c0.5,0.5,0.9,1,1.6,1.3c1,0.4,2.4,0.1,3.2,0.9"/>
				<path class="st2" d="M88,197.8C88,197.8,88.1,197.8,88,197.8c2,0.3,3.8,0.8,5.6,1.4c1.5,0.6,2.9,1.3,3.9,2.5
					c1,1.2,1.3,3.1,0.4,4.4c-0.3,0.5-0.8,0.9-1.3,1.2c-1.2,0.8-2.5,1.5-3.9,1.9h0c-0.1,0-0.2,0.1-0.2,0.1c-1.1,0.3-2.2,0.6-3.4,0.6
					c0.3,0,0.6,0.1,0.8,0.1"/>
				<path class="st2" d="M72.7,200.6c-0.2,1,0.4,2.1,1.3,2.6c0.9,0.5,2,0.7,3,0.8c2.4,0.2,4.8,0.3,7.2,0.2c2.6-0.1,5.5-0.6,7.1-2.7"
					/>
				<path class="st2" d="M63.9,212.2c-0.1,0-0.2,0-0.2,0"/>
				<path class="st2" d="M69.9,206.4c0.1-0.1,0-0.2-0.2-0.2c0,0-0.1,0-0.1,0c-0.1,0.1,0.1-1.1,0.1-1.1c0,0,0,0,0,0
					c0.1,0.3,0,0.7,0,1.1c-0.2,1.3-1,3-1.8,3.5c-1,0.6-2.8,2.1-4.1,2.4"/>
				<path class="st2" d="M86.3,222.5c-4.2-6-11.1-9.9-18.4-10.4c-1.3-0.1-2.6-0.1-4,0.1h0c-3.5,0.4-6.9,1.6-9.5,4
					c-3.5,3.1-5.3,8.3-3.7,12.7c0,0.1,0.1,0.3,0.1,0.4c0.1,0.2,0.7,0.8,0.9,1"/>
				<path class="st2" d="M50.1,229c-1.9,0.5-2.2,3.4-1.8,5.4c0.2,1.1,0.5,2.2,0.7,3.3c0.1,0.4,0.2,0.9,0.5,1.2
					c0.3,0.3,0.7,0.5,1.1,0.6c11,3.7,23.3,3.4,34.1-0.7c0.7-0.3,1.4-0.5,1.9-1c1.5-1.4,1.3-3.7,1-5.7c2.5-0.4,4.9-1.2,7.1-2.3
					c0.5-0.3,1.1-0.6,1.3-1c0.4-0.7,0.2-1.5,0.1-2.3c-0.4-2-0.8-3.9-1.3-5.9c0,0,0,0,0,0c0-0.2-0.1-0.4-0.1-0.6"/>
				<path class="st2" d="M51.9,230.3c6.1,2.8,13,3.9,19.7,3.3"/>
				<path class="st2" d="M75.6,232.4c3.8,0.8,7.6-1.2,11-3.1"/>
				<path class="st2" d="M89.7,223.6c2-1.1,3.6-3,4.2-5.2"/>
			</g>
		</g>
		<circle class="st3" cx="66.6" cy="222.3" r="8.3"/>
		<g>
			<g>
				<path class="st4" d="M59.4,240.2c2.3,0.3,4.6,0.5,6.9,0.8c1.7,0.2,3.1-1.6,3.1-3.1c0-1.8-1.4-2.9-3.1-3.1
					c-2.3-0.3-4.6-0.5-6.9-0.8c-1.7-0.2-3.1,1.6-3.1,3.1C56.3,238.9,57.7,240,59.4,240.2L59.4,240.2z"/>
			</g>
		</g>
		<g>
			<g>
				<path class="st4" d="M71.6,206.4c1.7,2.7,4.7,4.5,7.9,4.9c0.8,0.1,2.2,0.1,2.2-1c-0.1-1-1.8-1.7-2.6-1.8c-1.2-0.2-2.1-0.8-2.9-2
					c-0.6-1-2-1.5-3.1-1.5C72.3,204.9,71,205.4,71.6,206.4L71.6,206.4z"/>
			</g>
		</g>
	</g>
	<g>
		<g id="XMLID_18_">
			<g>
				<path class="st1" d="M141.7,210.4c-1.2-0.3-3.1-1.9-4.1-2.4c-0.8-0.5-1.6-2.2-1.8-3.5c-0.1-0.4-0.1-0.8,0-1.1c0,0,0,0,0,0
					l-0.4-0.1c0.4-0.5,0.7-0.9,0.9-1.5c0.5-1,0.7-2.3,0.2-3.3c-0.7-1.4-2.8-1.4-3.8-2.6c-1.5-1.8-13.6-0.4-15.1,0.2v0
					c-1.9,0.3-3.8,0.7-5.6,1.4c-1.5,0.6-2.9,1.3-3.9,2.5c-1,1.2-1.3,3.1-0.4,4.4c0.3,0.5,0.8,0.9,1.3,1.2c1.2,0.8,2.5,1.5,3.9,1.9
					c0,0,0.1,0,0.1-0.1c0.1,0.1,0.1,0.1,0.2,0.2c0.4,0.4,0.4,0.8,0.4,1.4c-0.2,2.6-2,5.2-2.7,9.6c-0.4,2-0.9,4.1-1.3,6.1
					c-0.2,0.8-0.3,1.6,0.1,2.3c0.3,0.5,0.8,0.8,1.3,1c2.3,1.1,4.7,1.9,7.1,2.3c-0.3,2-0.4,4.3,1,5.7c0.5,0.5,1.2,0.8,1.9,1
					c10.8,4.2,23.1,4.4,34.1,0.7c0.4-0.1,0.8-0.3,1.1-0.6c0.3-0.3,0.4-0.8,0.5-1.2c0.2-1.1,0.5-2.2,0.7-3.3c0.4-1.9,0.1-4.8-1.8-5.4
					l-0.6-0.2c1.6-4.4-0.2-9.6-3.7-12.7C148.6,212,145.2,210.7,141.7,210.4L141.7,210.4z"/>
			</g>
			<g>
				<path class="st2" d="M112.6,207.6c0-0.2,0.1-0.1,0.2-0.1c0,0,0.1,0,0.1-0.1c0.1,0.1,0.1,0.1,0.2,0.2c0.4,0.4,0.4,0.8,0.4,1.4
					c-0.2,2.6-2,5.2-2.7,9.6c0,0.2-0.1,0.4-0.1,0.6"/>
				<path class="st2" d="M117.5,196c1.5-0.7,13.6-2,15.1-0.2c1,1.2,3.2,1.2,3.8,2.6c0.5,1,0.3,2.3-0.2,3.3c-0.2,0.5-0.6,1-0.9,1.5
					c-0.4,0.5-0.7,0.9-1.1,1.3c-0.5,0.5-0.9,1-1.6,1.3c-1,0.4-2.4,0.1-3.2,0.9"/>
				<path class="st2" d="M117.6,196C117.5,196,117.5,196,117.6,196c-2,0.3-3.8,0.8-5.6,1.4c-1.5,0.6-2.9,1.3-3.9,2.5
					c-1,1.2-1.3,3.1-0.4,4.4c0.3,0.5,0.8,0.9,1.3,1.2c1.2,0.8,2.5,1.5,3.9,1.9c0.1,0,0.1,0.1,0.2,0.1c1.1,0.3,2.2,0.6,3.4,0.7
					c-0.3,0-0.6,0.1-0.8,0.1"/>
				<path class="st2" d="M132.9,198.8c0.2,1-0.4,2.1-1.3,2.6c-0.9,0.5-2,0.7-3,0.8c-2.4,0.2-4.8,0.3-7.2,0.2
					c-2.6-0.1-5.5-0.6-7.1-2.7"/>
				<path class="st2" d="M141.7,210.4c0.1,0,0.2,0,0.2,0"/>
				<path class="st2" d="M135.7,204.6c-0.1-0.1,0-0.2,0.2-0.2c0,0,0.1,0,0.1,0c0.1,0.1-0.1-1.1-0.1-1.1c0,0,0,0,0,0
					c-0.1,0.3,0,0.7,0,1.1c0.2,1.3,1,3,1.8,3.5c1,0.6,2.8,2.1,4.1,2.4"/>
				<path class="st2" d="M119.3,220.7c4.2-6,11.1-9.9,18.4-10.4c1.3-0.1,2.6-0.1,4,0.1h0c3.5,0.4,6.9,1.6,9.5,4
					c3.5,3.1,5.3,8.3,3.7,12.7c0,0.1-0.1,0.3-0.1,0.4c-0.1,0.2-0.7,0.8-0.9,1"/>
				<path class="st2" d="M155.5,227.2c1.9,0.5,2.2,3.4,1.8,5.4c-0.2,1.1-0.5,2.2-0.7,3.3c-0.1,0.4-0.2,0.9-0.5,1.2
					c-0.3,0.3-0.7,0.5-1.1,0.6c-11,3.7-23.3,3.4-34.1-0.7c-0.7-0.3-1.4-0.5-1.9-1c-1.5-1.4-1.3-3.7-1-5.7c-2.5-0.4-4.9-1.2-7.1-2.3
					c-0.5-0.3-1.1-0.6-1.3-1c-0.4-0.7-0.2-1.5-0.1-2.3c0.4-2,0.9-4.1,1.3-6.1c0-0.1,0.1-0.3,0.1-0.4"/>
				<path class="st2" d="M153.7,228.5c-6.1,2.8-13,3.9-19.7,3.3"/>
				<path class="st2" d="M130,230.6c-3.8,0.8-7.6-1.2-11-3.1"/>
				<path class="st2" d="M115.9,221.8c-2-1.1-3.6-3-4.2-5.2"/>
			</g>
		</g>
		<circle class="st3" cx="139" cy="220.5" r="8.3"/>
		<g>
			<g>
				<path class="st4" d="M146.2,232.1c-2.3,0.3-4.6,0.5-6.9,0.8c-1.7,0.2-3.1,1.3-3.1,3.1c0,1.5,1.4,3.3,3.1,3.1
					c2.3-0.3,4.6-0.5,6.9-0.8c1.7-0.2,3.1-1.3,3.1-3.1C149.3,233.7,147.8,231.9,146.2,232.1L146.2,232.1z"/>
			</g>
		</g>
		<g>
			<g>
				<path class="st4" d="M129.4,203.8c-1,1.5-2.6,2.6-4.4,2.8c-1,0.1-1.3,1-0.6,1.8c0.8,0.9,2.2,1.3,3.4,1.1
					c2.7-0.4,4.9-1.8,6.4-4.1c0.6-0.9-1.4-1.9-2-2C131.2,203.1,129.9,202.9,129.4,203.8L129.4,203.8z"/>
			</g>
		</g>
	</g>
	<g>
		<g>
			<path class="st5" d="M76.6,196.9C76.6,196.9,76.6,196.8,76.6,196.9C76.5,196.8,76.6,196.9,76.6,196.9L76.6,196.9z"/>
		</g>
	</g>
	<g>
		<g>
			<path class="st5" d="M78,196.4c1.1,0,2.2-0.1,3.4,0.1c0.6,0.1,1.1,0.2,1.7,0.3c0.3,0.1,1.9,0.3,1.8,0.7c0,0.1,0.3,0.2,0.3,0.1
				c0-0.5-0.6-0.6-1-0.7c-0.7-0.2-1.4-0.4-2.1-0.5c-1.3-0.2-2.8-0.3-4.2-0.1C77.8,196.3,77.9,196.4,78,196.4L78,196.4z"/>
		</g>
	</g>
	<g>
		<g>
			<path class="st5" d="M85,190.4c-0.6,0-0.9,0.2-1.3,0.6c-0.3,0.3-0.4,0.8-0.6,1.2c-0.3,1-0.3,1.9-0.3,2.9
				c-0.1,1.2-0.1,2.4-0.2,3.6c0,0.5,0,1,0,1.6c0,0.6-0.1,1.2,0,1.7c0.2,0.8,1.3,1.1,2,1.2c0.6,0.1,1.8,0,1.9-0.7
				c0.1-0.7,0-1.5-0.1-2.3c0-0.5,0-1-0.1-1.5c0-1-0.1-1.9-0.1-2.9c0-0.9-0.1-1.7-0.1-2.6c0-0.4,0-0.7,0.1-1.1c0.1-0.4,0-0.7-0.2-1.1
				C85.9,190.7,85.4,190.3,85,190.4L85,190.4z"/>
		</g>
	</g>
	<g>
		<g>
			<path class="st5" d="M80.2,191.2c-0.3,0-0.4,0.1-0.6,0.2c-0.1,0-0.3,0-0.4,0.1c-0.4,0.1-0.6,0.3-0.9,0.6
				c-0.7,0.8-0.7,2.1-0.8,3.1c-0.1,1-0.3,2-0.4,3c-0.1,1-0.2,1.9-0.1,2.9c0.2,1.3,1.7,1.7,2.8,1.8c1.1,0.1,2.3,0.3,3.4,0.1
				c0.6-0.2,1.2-0.5,1.3-1.1c0.1-0.4,0.2-0.9,0.2-1.4c0.1-0.9,0.1-1.7,0-2.6c-0.1-1-0.4-2-0.7-3c-0.3-0.9-0.6-1.9-0.6-2.9
				c0-0.9-1.3-1.4-2-1.4c-0.7-0.1-2.1,0-2.3,1c-0.2,1.5-0.3,3-0.2,4.5c0,0.7,0.1,1.4,0.4,2.1c0.5,1.3,1.7,2,3.1,1.9
				c1.7-0.1,2.8-1.8,2.8-3.4c0-0.7-0.1-1.3,0.1-2c0.1-0.5,0.4-1,0.7-1.3c-1.2-0.4-2.4-0.8-3.6-1.2c0,2.4-0.1,4.8-0.1,7.1
				c0,0.9,1,1.2,1.7,1.4c0.7,0.1,2,0.2,2.4-0.6c0.6-1.3,0.6-2.7,0.7-4.1c0.1-1.4,0.2-2.7,0.1-4.1c0-0.9-1.2-1.4-1.9-1.4
				c-0.6-0.1-2.2,0-2.2,0.9c-0.1,2.4-0.2,4.8,0,7.3c0,0.6,0.1,1.1,0.2,1.7c0,0,0.1,0.4,0,0.3c0,0,0,0.1,0,0.1
				c0.1-0.1,0.3-0.2,0.4-0.4c0,0-0.7,0.1-0.7,0.2c-0.2,0-0.3,0.1-0.5,0.1c-0.1,0-0.3,0-0.1,0c-0.3,0-0.6,0-0.9,0c-0.2,0-0.3,0-0.5,0
				c0.2,0,0.2,0,0,0c-0.1,0-0.3-0.1-0.4,0c0.3,0,0.6,0.1,0.8,0.4c0.2,0.1,0.3,0.2,0.3,0.4c0.1-0.3-0.3-0.8-0.5-0.9
				c-0.4-0.2-0.8-0.4-1.2-0.5c-0.6-0.1-2.1-0.2-2.4,0.6c-0.2,0.5-0.2,0.8,0.1,1.2c0.3,0.4,0.8,0.7,1.4,0.9c1,0.3,2.2,0.3,3.3,0.3
				c0.9,0,1.8-0.1,2.7-0.3c0.8-0.2,2-0.3,2.3-1.3c0.2-0.7-0.1-1.6-0.2-2.3c-0.1-0.8-0.1-1.5-0.2-2.3c-0.1-1.7,0-3.4,0.3-5.1
				c-1.4-0.2-2.8-0.4-4.2-0.5c-0.2,1.4-0.3,2.7-0.3,4.1c0,0.6,0,1.2-0.1,1.9c0,0.6,0,1.2-0.3,1.7c1.4,0.3,2.8,0.5,4.1,0.8
				c-0.1-2.3-0.2-4.6-0.2-6.9c0-1.5-2.6-1.9-3.6-1.2c-1,0.7-1.5,2-1.5,3.2c0,0.6,0.1,1.3-0.1,1.9c-0.1,0.2-0.1,0.4-0.3,0.7
				c-0.1,0.1-0.2,0.3-0.3,0.4c-0.1,0.1-0.2,0.1,0,0.1c0.7,0,1.3,0,2,0.1c0,0-0.1,0-0.1,0c0.3,0.1,0.6,0.3,0.8,0.4
				c0.2,0.1,0-0.2-0.1-0.3c-0.1-0.2-0.1-0.5-0.2-0.7c-0.1-0.5-0.1-1-0.1-1.5c0-1.3,0.2-2.5,0.5-3.8c-1.4-0.2-2.9-0.3-4.3-0.5
				c-0.3,1.8,0.6,3.4,1,5.1c0.2,0.8,0.2,1.6,0.2,2.3c0,0.4,0,0.9-0.1,1.3c0,0.2-0.1,0.4-0.1,0.6c0,0.1,0,0.3-0.1,0.4
				c-0.1,0.2-0.1,0.3,0,0c0.2-0.2,0.4-0.3,0.6-0.5c0,0-0.1,0-0.1,0.1c0.3-0.1,0.7-0.2,1-0.2c0.6,0,0,0-0.1,0c-0.2,0-0.4,0-0.7,0
				c-0.4,0-0.9,0-1.3-0.1c0.4,0.1,0.7,0.2,1.1,0.3c0.7,0.3,0.6,0.7,0.5,0.1c0-0.1,0-0.2,0-0.3c0-0.3,0-0.7,0-1c0-0.7,0-1.4,0-2.2
				c0-0.9,0-1.9,0-2.8c0-0.3,0-0.6-0.1-0.9c-0.1-0.3-0.1-0.4-0.3-0.7c-0.2-0.4-0.7-0.7-0.8-1.2c0,0.1,0,0.2,0,0.3
				c0.1-0.2,0.2-0.4,0.4-0.5C80.5,191.5,80.3,191.2,80.2,191.2L80.2,191.2z"/>
		</g>
	</g>
	<g>
		<g>
			<path class="st5" d="M118.7,189.5c-0.3,0-0.4,0.1-0.6,0.2c-0.1,0-0.3,0-0.4,0.1c-0.4,0.1-0.6,0.3-0.9,0.6
				c-0.7,0.8-0.7,2.1-0.8,3.1c-0.1,1-0.3,2-0.4,3c-0.1,1-0.2,1.9-0.1,2.9c0.2,1.3,1.7,1.7,2.8,1.8c1.1,0.1,2.3,0.3,3.4,0.1
				c0.6-0.2,1.2-0.5,1.3-1.1c0.1-0.4,0.2-0.9,0.2-1.4c0.1-0.9,0.1-1.7,0-2.6c-0.1-1-0.4-2-0.7-3c-0.3-0.9-0.6-1.9-0.6-2.9
				c0-0.9-1.3-1.4-2-1.4c-0.7-0.1-2.1,0-2.3,1c-0.2,1.5-0.3,3-0.2,4.5c0,0.7,0.1,1.4,0.4,2.1c0.5,1.3,1.7,2,3.1,1.9
				c1.7-0.1,2.8-1.8,2.8-3.4c0-0.7-0.1-1.3,0.1-2c0.1-0.5,0.4-1,0.7-1.3c-1.2-0.4-2.4-0.8-3.6-1.2c0,2.4-0.1,4.8-0.1,7.1
				c0,0.9,1,1.2,1.7,1.4c0.7,0.1,2,0.2,2.4-0.6c0.6-1.3,0.6-2.7,0.7-4.1c0.1-1.4,0.2-2.7,0.1-4.1c0-0.9-1.2-1.4-1.9-1.4
				c-0.6-0.1-2.2,0-2.2,0.9c-0.1,2.4-0.2,4.8,0,7.3c0,0.6,0.1,1.1,0.2,1.7c0,0,0.1,0.4,0,0.3c0,0,0,0.1,0,0.1
				c0.1-0.1,0.3-0.2,0.4-0.4c0,0-0.7,0.1-0.7,0.2c-0.2,0-0.3,0.1-0.5,0.1c-0.1,0-0.3,0-0.1,0c-0.3,0-0.6,0-0.9,0c-0.2,0-0.3,0-0.5,0
				c0.2,0,0.2,0,0,0c-0.1,0-0.3-0.1-0.4,0c0.3,0,0.6,0.1,0.8,0.4c0.2,0.1,0.3,0.2,0.3,0.4c0.1-0.3-0.3-0.8-0.5-0.9
				c-0.4-0.2-0.8-0.4-1.2-0.5c-0.6-0.1-2.1-0.2-2.4,0.6c-0.2,0.5-0.2,0.8,0.1,1.2c0.3,0.4,0.8,0.7,1.4,0.9c1,0.3,2.2,0.3,3.3,0.3
				c0.9,0,1.8-0.1,2.7-0.3c0.8-0.2,2-0.3,2.3-1.3c0.2-0.7-0.1-1.6-0.2-2.3c-0.1-0.8-0.1-1.5-0.2-2.3c-0.1-1.7,0-3.4,0.3-5.1
				c-1.4-0.2-2.8-0.4-4.2-0.5c-0.2,1.4-0.3,2.7-0.3,4.1c0,0.6,0,1.2-0.1,1.9c0,0.6,0,1.2-0.3,1.7c1.4,0.3,2.8,0.5,4.1,0.8
				c-0.1-2.3-0.2-4.6-0.2-6.9c0-1.5-2.6-1.9-3.6-1.2c-1,0.7-1.5,2-1.5,3.2c0,0.6,0.1,1.3-0.1,1.9c-0.1,0.2-0.1,0.4-0.3,0.7
				c-0.1,0.1-0.2,0.3-0.3,0.4c-0.1,0.1-0.2,0.1,0,0.1c0.7,0,1.3,0,2,0.1c0,0-0.1,0-0.1,0c0.3,0.1,0.6,0.3,0.8,0.4
				c0.2,0.1,0-0.2-0.1-0.3c-0.1-0.2-0.1-0.5-0.2-0.7c-0.1-0.5-0.1-1-0.1-1.5c0-1.3,0.2-2.5,0.5-3.8c-1.4-0.2-2.9-0.3-4.3-0.5
				c-0.3,1.8,0.6,3.4,1,5.1c0.2,0.8,0.2,1.6,0.2,2.3c0,0.4,0,0.9-0.1,1.3c0,0.2-0.1,0.4-0.1,0.6c0,0.1,0,0.3-0.1,0.4
				c-0.1,0.2-0.1,0.3,0,0c0.2-0.2,0.4-0.3,0.6-0.5c0,0-0.1,0-0.1,0.1c0.3-0.1,0.7-0.2,1-0.2c0.6,0,0,0-0.1,0c-0.2,0-0.4,0-0.7,0
				c-0.4,0-0.9,0-1.3-0.1c0.4,0.1,0.7,0.2,1.1,0.3c0.7,0.3,0.6,0.7,0.5,0.1c0-0.1,0-0.2,0-0.3c0-0.3,0-0.7,0-1c0-0.7,0-1.4,0-2.2
				c0-0.9,0-1.9,0-2.8c0-0.3,0-0.6-0.1-0.9c-0.1-0.3-0.1-0.4-0.3-0.7c-0.2-0.4-0.7-0.7-0.8-1.2c0,0.1,0,0.2,0,0.3
				c0.1-0.2,0.2-0.4,0.4-0.5C119,189.8,118.8,189.5,118.7,189.5L118.7,189.5z"/>
		</g>
	</g>
	<ellipse class="st6" cx="98.7" cy="81.4" rx="53.6" ry="62.8"/>
	<path class="st7" d="M97.2,20.6c-4.6,0-9.1,0.5-13.5,1.3c32.1,3.9,56.9,29.8,56.9,61.2c0,29.7-22.2,54.5-51.7,60.4
		c2.7,0.3,5.5,0.5,8.4,0.5c36,0,65.2-27.6,65.2-61.7S133.3,20.6,97.2,20.6z"/>
	<g id="XMLID_17_">
		<g>
			<path class="st1" d="M220.6,132c0.8,0.9,0.5,2.2,0.3,3.3c-0.4,1.4-0.7,2.9-1.1,4.3c-0.1,0.2-0.1,0.4-0.2,0.6
				c0,0.1-0.1,0.1-0.1,0.2c-0.2,0.2-1.4,0.7-1.6,0.8c-3,0.9-5.1,0.9-8.2,1c-2,0.1-3.9,0.4-5.1-0.9c-0.1-0.1-0.1-0.1-0.2-0.2l0-0.4
				c1.4-0.1,2.7-1,3.8-2c0.7-0.6,1.5-1.2,2.2-1.8c0.3-0.3,0.7-0.6,0.8-1c0.2-0.8-0.4-1.6-1-2.2c-0.8-1-1.4-2-1.8-3.2
				c3.1-0.2,6.3,0,9.4,0.6c0.4,0.1,0.7,0.1,1.1,0.2C219.5,131.3,220.1,131.5,220.6,132z"/>
			<path class="st1" d="M220.2,140.3c0.9,1.2,1.1,2,1.3,2.6c0.3,1,0.5,2,0.3,2.9c-0.1,0.6-0.5,1.1-0.8,1.6c-0.8,1.2-1.8,2.4-3.1,3.2
				c-1.1,0.6-2.4,0.8-3.7,0.9c-0.5,0-1,0-1.5,0.1c-1.6,0-3.3,0.1-4.9-0.4s-3.1-1.4-3.8-2.9c-1-2.3-0.9-4.8,0.2-7.1l0.2,0
				c1.3,1.4,3.2,1,5.1,0.9c3.1-0.1,5.2-0.1,8.2-1c0.2-0.1,1.4-0.6,1.6-0.8c0.1-0.1,0.1-0.1,0.1-0.2L220.2,140.3z"/>
			<path class="st4" d="M204.5,119.3c-1.9-2.1-5.1-1.6-7.4-1.3l0,0c-0.5,0.3-0.9,0.6-1.4,1l-0.1-0.1c-1.2-0.1-1.6-0.4-2.7-0.8
				c-0.7-0.3-1.4-0.6-1.8-1.3c-0.5-0.8-0.2-1.9,0.4-2.7c0.6-0.7,1.5-1.2,2.4-1.6c6.9-3.1,14.9-3.6,22.2-1.6c0.9,0.3,1.9,0.6,2.6,1.3
				c0.7,0.7,1.1,1.8,0.7,2.7c-0.2,0.5-0.6,0.8-1,1.1c-2.3,1.8-4.9,4.1-7.7,4.8l0,0.1c-1.6,0.1-3.3,0.4-4.9,0.8h0
				C205.4,120.9,205,120.1,204.5,119.3L204.5,119.3z"/>
			<path class="st1" d="M219.6,125.9c-0.1,1.7-0.8,3.3-1.7,4.7c0,0.1-0.1,0.1-0.1,0.1l0,0.1c-3.1-0.6-6.2-0.8-9.4-0.6
				c-1.1-2.8-1.4-5.9-2.6-8.6c1.6-0.4,3.2-0.7,4.9-0.8c1.1-0.1,2.1-0.1,3.2-0.1c1.3,0,2.6,0.1,3.7,0.8
				C218.9,122.5,219.6,124.3,219.6,125.9z"/>
			<path class="st4" d="M184.3,166.4c0.2-0.4,0.4-0.8,0.7-1.2c0.8-1.4,1.7-2.8,2.7-4c1.2-1.6,2.4-3.2,3.7-4.8
				c1.1-1.5,2.2-2.9,3.4-4.3c0.6-0.8,1.3-1.5,1.9-2.3c0.3-0.6,1.2-1.8,1.5-2.3l0-0.1c-0.2-4-0.2-8,0.2-12l0,0
				c0.1-0.4,0.1-0.7,0.1-1.1l0.3-0.2c0.6,1.3,1.4,2.6,2.1,3.9c0.6,1,1.3,2,2.4,2.4c0.4,0.1,0.7,0.2,1.1,0.2l0,0.4
				c0.1,0.1,0.1,0.1,0.2,0.2l-0.2,0c-1.1,2.2-1.2,4.8-0.2,7.1c0.7,1.5,2.2,2.5,3.8,2.9s3.2,0.4,4.9,0.4c0.5,0,1,0,1.5-0.1l0,0.6
				c-0.2,1.2,0.5,2.3,1.1,3.4c4.3,6.4,9.2,12.3,14.6,17.8c0.9,0.9,1.9,1.9,2.3,3.1c0.2,0.6,0.3,1.4,0.1,2l-0.3-0.1
				c-3.7,3.5-7.9,6.4-13.5,8c-9.4,2.6-17.8,2.9-27.9,0c-4.6-1.3-8.5-3.6-11.1-7.8c-1.3-2.2-0.6-3.7,0.6-5.7c1.3-2.1,2.5-4.3,3.8-6.4
				L184.3,166.4z"/>
			<path class="st1" d="M208.4,130.3c0.4,1.2,1,2.2,1.8,3.2c0.5,0.7,1.2,1.4,1,2.2c-0.1,0.4-0.5,0.8-0.8,1c-0.7,0.6-1.5,1.2-2.2,1.8
				c-1.1,0.9-2.4,1.9-3.8,2c-0.4,0-0.7,0-1.1-0.2c-1.1-0.4-1.8-1.4-2.4-2.4c-0.8-1.2-1.5-2.5-2.1-3.9l-0.3,0.2
				c0,0.4-0.1,0.8-0.1,1.1l0,0c-0.4,4-0.4,8-0.2,12l0,0.1c-0.3,0.6-1.1,1.7-1.5,2.3c-0.7,0.7-1.3,1.5-1.9,2.3l0,0
				c-3.2-2.1-8.5-7.6-9.3-17.2l0.1,0c0-1.1,0.3-2.2,0.7-3.3c0.7-1.7,1.8-3.4,2.9-4.9c0,0,0,0,0,0c1.4-2,2.7-3.9,4.4-5.6
				c0.7-0.8,1.5-1.5,2.4-2.1c0.4-0.3,0.9-0.7,1.4-1l0,0c2.4-0.3,5.5-0.7,7.4,1.3l-0.1,0.1c0.6,0.7,1,1.5,1.4,2.4h0
				C207,124.4,207.3,127.6,208.4,130.3z"/>
			<path class="st1" d="M185.3,134.8c0.8,9.6,6.1,15.1,9.3,17.2l0,0c-1.2,1.4-2.3,2.9-3.4,4.3c-3.6-1.9-7-5.6-9.8-7.8
				c-3.9-3.9-1.1-9.5,0-14.5c0.6-1.7,2.3-1.4,4.5-2.5l0.1,0C185.6,132.6,185.3,133.7,185.3,134.8L185.3,134.8z"/>
			<path class="st1" d="M163.9,157.9c-7.3,15.5-25.6,18.3-41.1,20.5c-1.7,0-2.2-1.7-2.2-2.8c-0.6-17.8-1.1-35-0.6-52.8
				c0-2.2-0.5-4.9,0.9-6.6l0.1,0.1c0.2-0.1,1.1-0.4,1.3-0.4c11.6-1.3,21.8-4.1,32.4-8.9c4.1-1.9,8.4-4.3,10.1-8.4
				c1.9,2.5,3.6,5.1,5.1,7.8c0.2,0.4,0.4,0.8,0.4,1.2c0,0.4-0.2,0.8-0.5,1.2c-0.7,1.1-1.4,2.2-2,3.3l0.3,0.2
				c2.6,0.4,5.2,0.7,7.3,2.5l0-0.1c1.2,0.8,1.8,2.2,2.3,3.5c1.4,3.2,2.7,6.4,4.1,9.5l0,0.1c2.3-0.5,4.7-0.9,7.1-1.2l0.1,0.1
				c-1.1,1.5-2.2,3.2-2.9,4.9l-0.1,0c-2.2,1.1-4,0.8-4.5,2.5c-1.1,5-3.9,10.6,0,14.5c2.8,2.2,6.2,5.9,9.8,7.8
				c-1.2,1.6-2.4,3.2-3.7,4.8c-1,1.3-1.8,2.6-2.7,4l-0.3-0.2C177.3,165.2,168.2,165,163.9,157.9L163.9,157.9z"/>
		</g>
		<g>
			<path class="st8" d="M197,118c2.4-0.3,5.5-0.7,7.4,1.3c0.2,0.2,0.3,0.3,0.4,0.5"/>
			<path class="st8" d="M195.6,118.8c-1.2-0.1-1.6-0.4-2.7-0.8c-0.7-0.3-1.4-0.6-1.8-1.3c-0.5-0.8-0.2-1.9,0.4-2.7
				c0.6-0.7,1.5-1.2,2.4-1.6c6.9-3.1,14.9-3.6,22.2-1.6c0.9,0.3,1.9,0.6,2.6,1.3c0.7,0.7,1.1,1.8,0.7,2.7c-0.2,0.5-0.6,0.8-1,1.1
				c-2.3,1.8-4.9,4.1-7.7,4.8"/>
			<path class="st8" d="M198.2,135.4c-0.2,0.9-0.4,1.7-0.8,2.5c-0.4,0.9-1,1.7-1.5,2.6c-0.3,0.5-0.7,1-1,1.5c-0.4,0.6-1,1.2-1.6,0.8
				"/>
			<path class="st8" d="M205.8,121.7c1.6-0.4,3.2-0.7,4.9-0.8c1.1-0.1,2.1-0.1,3.2-0.1c1.3,0,2.6,0.1,3.7,0.8
				c1.4,0.9,2.1,2.7,2.1,4.4c-0.1,1.7-0.8,3.3-1.7,4.7c0,0.1-0.1,0.1-0.1,0.1c0,0,0,0,0,0c-0.1,0,0-0.2,0-0.1"/>
			<path class="st8" d="M208.3,130.3C208.3,130.3,208.4,130.3,208.3,130.3c3.2-0.2,6.4,0,9.4,0.6c0.4,0.1,0.7,0.1,1.1,0.2
				c0.7,0.2,1.3,0.3,1.8,0.8c0.8,0.9,0.5,2.2,0.3,3.3c-0.4,1.4-0.7,2.9-1.1,4.3c-0.1,0.2-0.1,0.4-0.2,0.6c0,0.1-0.1,0.1-0.1,0.2
				c-0.2,0.2-1.4,0.7-1.6,0.8c-3,0.9-5.1,0.9-8.2,1c-2,0.1-3.9,0.4-5.1-0.9"/>
			<path class="st8" d="M198,114.1c0.3,0.6,1,0.9,1.7,1.1c3.3,1.1,6.9,1.1,10.2,0.1"/>
			<path class="st8" d="M204.4,119.4c0.6,0.7,1,1.5,1.4,2.4h0c1.2,2.7,1.5,5.8,2.6,8.6c0.4,1.2,1,2.2,1.8,3.2c0.5,0.7,1.2,1.4,1,2.2
				c-0.1,0.4-0.5,0.8-0.8,1c-0.7,0.6-1.5,1.2-2.2,1.8c-1.1,0.9-2.4,1.9-3.8,2c-0.4,0-0.7,0-1.1-0.2c-1.1-0.4-1.8-1.4-2.4-2.4
				c-0.8-1.2-1.5-2.5-2.1-3.9c-0.9-1.9-1.5-3.9-1.6-5.9c0-0.5,0-0.9,0.2-1.4c0.1-0.4,0.4-0.8,0.6-1.1c0.4-0.9,0.4-1.9,0.1-2.7"/>
			<path class="st8" d="M198.2,135.4c-0.4,4-0.4,8-0.2,12"/>
			<path class="st8" d="M184.1,166.3c-1.3,2.1-2.5,4.3-3.8,6.4c-1.2,2.1-1.9,3.5-0.6,5.7c2.5,4.3,6.4,6.5,11.1,7.8
				c10.1,2.9,18.5,2.6,27.9,0c5.6-1.6,9.8-4.4,13.5-8"/>
			<path class="st8" d="M198,147.5c-0.3,0.6-1.1,1.7-1.5,2.3c0,0,0,0,0,0"/>
			<path class="st8" d="M214.3,152.1c-0.2,1.2,0.5,2.3,1.1,3.4c4.3,6.4,9.2,12.3,14.6,17.8c0.9,0.9,1.9,1.9,2.3,3.1
				c0.2,0.6,0.3,1.4,0.1,2c-0.2,0.6-0.5,1.2-1.1,1.5"/>
			<path class="st8" d="M204.3,141.2c-1.1,2.2-1.2,4.8-0.2,7.1c0.7,1.5,2.2,2.5,3.8,2.9s3.2,0.4,4.9,0.4c0.5,0,1,0,1.5-0.1
				c1.3-0.1,2.6-0.3,3.7-0.9c1.3-0.7,2.2-1.9,3.1-3.2c0.3-0.5,0.6-1,0.8-1.6c0.2-1,0-2-0.3-2.9c-0.2-0.6-0.4-1.5-1.3-2.6"/>
			<path class="st8" d="M130.2,141.9c-0.3-2.4-0.4-4.9-0.4-7.3c0-0.3,0-0.7,0.3-1c0.2-0.1,0.4-0.2,0.6-0.2
				c6.6-1.1,13.2-2.2,19.7-3.2c1.2,5.5,0.6,11.5-1.9,16.6c-1.4,3-3.7,5.8-6.8,6.8c-0.3,0.1-0.6,0.1-0.7-0.2
				c-0.1-0.2,0.5-0.3,0.3-0.1"/>
			<path class="st8" d="M124.9,121.4c-0.2,5.8-0.1,11.6,0.4,17.3"/>
			<path class="st8" d="M125.9,121c11.6,3.2,23.2,3.2,34.7-0.2c0.1,0,0.1,0,0.1,0c0.1,0,0.2-0.1,0.3-0.1"/>
			<path class="st8" d="M159.1,113.9c-0.1,0.1-0.1-0.2,0-0.2s0.2,0.1,0.2,0.2c0.8,2.2,1.6,4.6,1.3,6.9c0,0.1,0,0.2,0,0.3"/>
			<path class="st8" d="M121,116.3c0.2-0.1,1.1-0.4,1.3-0.4c11.6-1.3,21.8-4.1,32.4-8.9c4.1-1.9,8.4-4.3,10.1-8.4
				c1.9,2.5,3.6,5.1,5.1,7.8c0.2,0.4,0.4,0.8,0.4,1.2c0,0.4-0.2,0.8-0.5,1.2c-0.7,1.1-1.4,2.2-2,3.3c-0.7,1.2-1.4,2.3-2.1,3.5
				c-2.3-0.5-3.7-1.1-6.1-1.6"/>
			<path class="st8" d="M163.1,122.5C163.1,122.5,163.1,122.5,163.1,122.5c0,0,0.1-0.1,0.2-0.2"/>
			<path class="st8" d="M121,116.1C120.9,116.1,120.9,116.1,121,116.1c-1.4,1.7-0.9,4.4-0.9,6.6c-0.6,17.8,0,35,0.6,52.8
				c0,1.1,0.6,2.8,2.2,2.8c15.5-2.2,33.8-5,41.1-20.5c0,0,0-0.1,0-0.1c-1.1-9.5-0.6-18.1-2.3-27.4c-0.5-2.8,1.1-7.6,1.7-8.3
				c0.2,0.1-0.2,0.3-0.2,0.4"/>
			<path class="st8" d="M164,157.9c4.2,7.2,13.3,7.3,20.6,7.2"/>
			<path class="st8" d="M168,112.2c2.6,0.4,5.2,0.7,7.3,2.5c0.3,0.3,0.7,0.6,1,1c-2.2,5-6.1,9.5-8.2,14.3"/>
			<path class="st8" d="M175.3,114.7c1.2,0.8,1.8,2.2,2.3,3.5c1.4,3.2,2.7,6.4,4.1,9.5"/>
			<path class="st8" d="M188.8,126.6c-2.4,0.3-4.8,0.7-7.1,1.2c-0.2,0-0.3,0.1-0.5,0.1c-0.6,0.1-1.3,0.3-1.8,0.7
				c-0.5,0.3-0.8,0.8-1.1,1.3c-1.5,2.2-2.9,4.5-4.2,6.9c-0.9,1.6-1.8,3.3-2.5,5.1c-1.8,4.7-1.8,10.1-0.2,14.9"/>
			<path class="st8" d="M186,131.6c-2.2,1.1-4,0.8-4.5,2.5c-1.1,5-3.9,10.6,0,14.5c2.8,2.2,6.2,5.9,9.8,7.8c0,0,0.1,0,0.1,0"/>
			<path class="st8" d="M197,118c-0.5,0.3-0.9,0.6-1.4,1c-0.8,0.6-1.6,1.3-2.4,2.1c-1.7,1.7-3,3.7-4.4,5.6c0,0,0,0,0,0
				c-1.1,1.5-2.2,3.2-2.9,4.9c-0.4,1-0.7,2.1-0.7,3.3"/>
			<path class="st8" d="M185.2,134.4c0,0.1,0,0.3,0,0.4c0.8,9.6,6.1,15.1,9.3,17.2"/>
			<path class="st8" d="M196.7,149.6c0,0.1-0.1,0.1-0.1,0.2c-0.7,0.7-1.3,1.5-1.9,2.3c-1.2,1.4-2.3,2.9-3.4,4.3
				c-1.2,1.6-2.4,3.2-3.7,4.8c-1,1.3-1.8,2.6-2.7,4c-0.2,0.4-0.5,0.8-0.7,1.2c-0.4,0.7-0.8,1.5-1.2,2.2"/>
		</g>
	</g>
	<g>
		<path class="st9" d="M192.6,88c-1.1-0.2-2,0.8-2.4,1.8c-0.8,1.9-0.9,4.1-0.1,6c0.7,1.8,2,3.3,3.3,4.7c1.6,1.7,3.1,3.4,4.7,5.1"/>
		<g>
			<path d="M192.6,87.5c-1.8-0.2-2.9,1.8-3.3,3.2c-0.5,1.8-0.4,3.8,0.3,5.5c0.8,1.8,2.1,3.3,3.4,4.7c1.6,1.7,3.1,3.4,4.7,5.1
				c0.5,0.5,1.3-0.3,0.8-0.8c-1.3-1.4-2.6-2.8-3.8-4.2c-1.2-1.3-2.4-2.6-3.4-4.1c-0.9-1.4-1.3-3.1-1.1-4.8c0.1-1.3,0.8-3.8,2.5-3.6
				C193.3,88.7,193.3,87.6,192.6,87.5L192.6,87.5z"/>
		</g>
	</g>
	<g>
		<path class="st9" d="M192,88.2c1.5-0.8,4.6-1.4,5.7,1.6c0.2,0.5,0.6,1,0.8,1.6c0.6,1.9,0.9,3.9,0.7,5.9c-0.3,3.1-1.6,6.2-0.9,9.2"
			/>
		<g>
			<path d="M192.3,88.7c1-0.5,2.3-0.8,3.4-0.4c0.7,0.3,1.2,0.9,1.5,1.6c0.2,0.5,0.5,0.9,0.7,1.4c0.2,0.5,0.4,1.1,0.5,1.7
				c0.5,2.4,0.3,4.7-0.2,7c-0.5,2.2-0.9,4.4-0.4,6.7c0.2,0.7,1.2,0.4,1.1-0.3c-0.4-2,0-4.1,0.4-6.1c0.4-1.9,0.7-3.9,0.5-5.8
				c-0.1-1-0.3-1.9-0.6-2.9c-0.3-0.8-0.7-1.6-1.1-2.4c-0.6-1.1-1.6-1.9-2.8-2.1c-1.2-0.2-2.5,0.1-3.5,0.7
				C191.1,88,191.6,89,192.3,88.7L192.3,88.7z"/>
		</g>
	</g>
	<g>
		<path class="st9" d="M215.4,106.8c0-0.5,0.2-1.1,0.3-1.6c1.1-3.2,2.9-6.1,5.3-8.4c0.7-0.6,1.4-1.2,2.2-1.5
			c0.9-0.3,1.9-0.1,2.5,0.5c0.3,0.3,0.5,0.8,0.7,1.2c0.2,0.5,0.3,1,0.3,1.5c0,0.9-0.6,1.7-1.2,2.4c-1.6,1.8-3.8,2.9-6,3.9
			c-1.3,0.6-2.6,1.3-3.8,1.9"/>
		<g>
			<path d="M215.9,106.8c0.1-1.1,0.5-2.1,0.9-3.1c0.4-0.9,0.9-1.8,1.4-2.7c1-1.7,2.4-3.4,4-4.5c0.8-0.6,1.8-1,2.7-0.5
				c0.8,0.4,1.2,1.8,1.2,2.6c0,1-0.8,1.9-1.5,2.6c-0.8,0.7-1.6,1.3-2.5,1.8c-2.2,1.3-4.5,2.3-6.7,3.4c-0.6,0.3-0.1,1.3,0.6,1
				c2.4-1.2,4.8-2.2,7-3.6c1.8-1.1,4.2-2.8,4.3-5.1c0-1-0.5-2.4-1.2-3.1c-0.7-0.8-1.9-0.9-2.9-0.7c-1.1,0.3-2.1,1.1-2.9,1.9
				c-0.8,0.8-1.6,1.7-2.3,2.7c-0.8,1.1-1.5,2.2-2,3.4c-0.6,1.2-1.2,2.6-1.3,4C214.8,107.5,215.9,107.5,215.9,106.8L215.9,106.8z"/>
		</g>
	</g>
	<g>
		<path class="st9" d="M192.1,108.3c0.3,1.5-0.4-1-1.2-3c-0.8-2.1-2.4-3.9-4.5-4.9c-1.4-0.7-2.9-1.1-4.4-0.8c-1.5,0.3-2.8,1.5-3,3
			c-0.1,1,0.3,2.1,1,2.9s1.6,1.3,2.5,1.8c0.9,0.5,1.9,0.9,2.9,1.1c2.2,0.4,4.5-0.1,6.6,0.5"/>
		<g>
			<path d="M191.6,108.5c0,0,0,0.3,0,0.1c0.1-0.1,0.3-0.3,0.4-0.4c0,0,0,0,0,0c0.2,0,0.4,0.1,0.5,0.1c0.1,0.1,0-0.1,0-0.2
				c-0.1-0.2-0.1-0.3-0.2-0.5c-0.2-0.6-0.4-1.2-0.6-1.8c-0.4-1.1-0.9-2.2-1.6-3.2c-1.5-1.9-3.7-3.4-6.2-3.7
				c-2.2-0.3-4.9,0.8-5.4,3.1c-0.6,2.7,1.8,4.7,3.9,5.7c1.4,0.7,2.8,1.1,4.4,1.2c1.7,0.1,3.4-0.1,5.1,0.4c0.7,0.2,1-0.9,0.3-1.1
				c-2.4-0.7-5,0-7.4-0.7c-2-0.6-5-2-5.3-4.4c-0.3-2.5,2.6-3.5,4.6-3.1c2.1,0.4,4.1,1.8,5.4,3.6c0.7,1,1.1,2.1,1.5,3.2
				c0.2,0.5,0.3,1,0.5,1.5c0.1,0.2,0.2,0.5,0.3,0.7c0.1,0.1,0.4,0.2,0.5,0.1c0.5-0.2,0.4-0.7,0.3-1.1
				C192.5,107.5,191.5,107.8,191.6,108.5L191.6,108.5z"/>
		</g>
	</g>
	<g>
		<path class="st9" d="M209.4,94.6c-0.4-0.3-0.9-0.4-1.4-0.5c-0.9-0.2-2,0.3-2.6,1c-0.6,0.7-1,1.6-1,2.6c0,0.7,0.2,1.5,0.8,1.8
			c0.2,0.1,0.3,0.3,0.6,0.3c0.6,0.1,1.4,0.2,2.1,0.1c0.4-0.1,0.9-0.6,1.3-0.8c0.9-0.5,1.5-1.7,1.2-2.8c-0.4-1.5-1-2-2.2-2.1"/>
		<g>
			<path d="M209.8,94.2c-0.6-0.5-1.5-0.7-2.3-0.7c-0.8,0-1.6,0.4-2.3,1c-1.2,1-1.7,3.1-1.1,4.5c0.2,0.3,0.4,0.6,0.7,0.8
				c0.1,0.1,0.3,0.2,0.4,0.3c0.2,0.1,0.4,0.2,0.6,0.2c0.8,0.1,1.8,0.3,2.6-0.1c0.3-0.2,0.6-0.5,1-0.7c0.3-0.2,0.6-0.5,0.9-0.8
				c0.5-0.6,0.7-1.4,0.6-2.1c-0.1-0.8-0.4-1.6-1-2.2c-0.5-0.5-1.2-0.7-1.8-0.8c-0.3,0-0.6,0.3-0.6,0.6c0,0.3,0.3,0.5,0.6,0.6
				c0.4,0,0.7,0.2,1,0.4c0.3,0.3,0.5,0.7,0.6,1.2c0.2,0.5,0.2,1-0.1,1.5c-0.1,0.2-0.3,0.4-0.5,0.6c-0.2,0.2-0.5,0.3-0.7,0.5
				c-0.2,0.2-0.4,0.4-0.7,0.5c-0.3,0.1-0.7,0-1,0c-0.2,0-0.3,0-0.5-0.1c-0.1,0-0.3,0-0.4,0c-0.1,0-0.2-0.1-0.2-0.2
				c-0.1-0.1-0.2-0.1-0.3-0.2c-0.3-0.3-0.4-0.9-0.3-1.3c0-0.6,0.2-1.2,0.6-1.7c0.4-0.5,1-0.9,1.6-1c0.3-0.1,0.6,0,0.9,0
				c0.3,0.1,0.6,0.1,0.9,0.3c0.2,0.2,0.6,0.2,0.8,0C210,94.8,210,94.4,209.8,94.2L209.8,94.2z"/>
		</g>
	</g>
	<g>
		<path class="st9" d="M209.2,78.7c-1.1,0.1-2.4,1-2.7,1.9s0.2,2.1,1,2.7s2,0.7,2.9,0.4c0.9-0.3,1.7-1,2-2s0-2.1-0.8-2.6
			c-1.2-0.9-2.8-0.4-4.1,0.2"/>
		<g>
			<path d="M209.2,78.2c-1.4,0.1-3,1.1-3.2,2.6c-0.3,1.6,0.8,3.1,2.3,3.5c1.5,0.5,3.2-0.1,4.2-1.3c1-1.2,1-3-0.1-4.1
				c-1.3-1.4-3.4-0.8-4.9-0.2c-0.3,0.1-0.5,0.4-0.4,0.7c0.1,0.3,0.4,0.5,0.7,0.4c1-0.4,2.3-0.9,3.3-0.5c1,0.4,1.3,1.7,0.8,2.5
				c-0.5,1-1.6,1.5-2.7,1.4c-1.1-0.1-2-0.8-2.1-1.9c-0.1-1.1,1.1-2.1,2.2-2.1c0.3,0,0.6-0.2,0.6-0.6
				C209.8,78.4,209.5,78.2,209.2,78.2L209.2,78.2z"/>
		</g>
	</g>
	<g>
		<path class="st9" d="M186,78.1c-0.9-0.1-1.8,0.6-2.2,1.4c-0.4,0.9-0.2,1.9,0.4,2.6c0.7,1,2,1.5,3.1,1.1c1.1-0.3,1.9-1.6,1.5-2.7
			c-0.4-1.2-1.4-2-2.6-2.4c-0.3-0.1-0.6-0.1-0.9-0.1s0.6-0.2,0.6,0.1"/>
		<g>
			<path d="M186,77.6c-1.4-0.2-2.7,1.1-2.9,2.4c-0.2,1.4,0.5,2.9,1.8,3.6c1.2,0.6,2.7,0.6,3.7-0.4c0.5-0.5,0.7-1.1,0.8-1.7
				c0.1-0.7-0.1-1.3-0.5-1.9c-0.4-0.6-1-1.1-1.6-1.5c-0.3-0.2-0.7-0.4-1.1-0.5c-0.2-0.1-0.4-0.1-0.7-0.1c-0.1,0-0.3,0-0.4,0
				c0.1,0.1,0.3,0.1,0.4,0.2c0,0,0,0,0,0c0,0.3,0,0.5,0,0.8c-0.2,0.2-0.3,0.1-0.1,0.1c0,0,0.1,0,0.1,0c-0.2,0,0,0,0.1,0
				c0.1,0,0,0,0,0c-0.2-0.1-0.3-0.2-0.3-0.4c0,0.3,0.3,0.6,0.6,0.6c0.3,0,0.5-0.3,0.6-0.6c0-0.5-0.4-0.7-0.8-0.7
				c-0.2,0-0.6,0-0.8,0.2c-0.2,0.2-0.2,0.6,0,0.8c0.2,0.2,0.4,0.1,0.7,0.1c0.3,0,0.5,0.1,0.8,0.2c0.4,0.2,0.9,0.4,1.2,0.8
				c0.6,0.6,1,1.5,0.6,2.3c-0.4,0.8-1.3,1.2-2.2,0.9c-0.9-0.3-1.6-1.1-1.7-2c-0.1-1,0.7-2.2,1.8-2.1c0.3,0,0.6-0.3,0.6-0.6
				C186.5,77.8,186.3,77.6,186,77.6L186,77.6z"/>
		</g>
	</g>
	<g>
		<path class="st9" d="M183.2,85c-0.6-0.1-1.2,0.2-1.6,0.7c-0.4,0.4-0.4,1.1-0.1,1.7c0.3,0.5,0.8,0.9,1.3,1.2
			c0.8,0.6,1.9,1.2,2.7,0.6c0.5-0.3,0.7-0.9,0.6-1.5c-0.1-0.5-0.3-1.1-0.7-1.5c-0.4-0.5-1-1-1.7-1.2c-0.7-0.2-1.7,0.1-2.1,0.7"/>
		<g>
			<path d="M183.2,84.4c-0.7,0-1.4,0.3-1.9,0.7c-0.5,0.5-0.7,1.1-0.6,1.8c0.1,0.6,0.6,1.2,1,1.6c0.5,0.4,1,0.8,1.6,1.1
				c0.6,0.3,1.3,0.5,1.9,0.2c0.6-0.2,1.1-0.8,1.2-1.4c0.3-1.4-0.7-2.7-1.8-3.4c-1.1-0.8-2.8-0.7-3.6,0.5c-0.2,0.2,0,0.6,0.2,0.8
				c0.3,0.2,0.6,0,0.8-0.2c0.1-0.1-0.1,0.1,0-0.1c0,0,0.1-0.1,0.1-0.1c-0.1,0.1,0,0,0,0c0,0,0.1-0.1,0.1-0.1c0.1-0.1,0.1,0,0.2-0.1
				c0.1,0,0.2-0.1,0.3-0.1c0.3-0.1,0.6,0,1,0.1c0.4,0.2,0.8,0.5,1.1,0.9c0.3,0.3,0.5,0.7,0.6,1.2c0,0.4-0.1,0.7-0.3,0.9
				c-0.1,0.1-0.3,0.1-0.4,0.1c-0.2,0-0.4,0-0.6-0.1c-0.4-0.2-0.8-0.4-1.2-0.7c-0.4-0.3-0.8-0.6-1-1c-0.1-0.2-0.1-0.3-0.1-0.5
				c0-0.2,0-0.3,0.1-0.4c0.3-0.4,0.8-0.6,1.3-0.6c0.3,0,0.6-0.3,0.6-0.6C183.7,84.7,183.5,84.5,183.2,84.4L183.2,84.4z"/>
		</g>
	</g>
	<g>
		<path class="st9" d="M223,83.2c-0.7,0-1.3,0.4-1.6,1s-0.2,1.4,0.3,1.9c0.5,0.7,1.5,0.8,2.3,0.9c0.9,0,2-0.1,2.4-0.9
			c0.4-0.9-0.1-2.1-1-2.6c-0.7-0.4-2-0.4-2.9-0.2"/>
		<g>
			<path d="M223,82.7c-1.4,0.1-2.5,1.3-2.2,2.7c0.2,1.4,1.5,2,2.8,2.1c1,0.1,2.4,0.1,3.1-0.8c0.8-1,0.4-2.4-0.4-3.2
				c-1-1-2.6-1-3.9-0.7c-0.7,0.2-0.4,1.3,0.3,1.1c0.8-0.2,1.8-0.3,2.5,0.1c0.3,0.2,0.5,0.5,0.7,0.8c0.1,0.3,0.2,0.7,0.1,0.9
				c-0.1,0.3-0.4,0.5-0.6,0.6c-0.4,0.1-0.7,0.2-1.1,0.2c-0.7,0-1.8-0.1-2.2-0.8c-0.5-0.8,0.1-1.8,1-1.9c0.3,0,0.6-0.2,0.6-0.6
				C223.6,82.9,223.3,82.6,223,82.7L223,82.7z"/>
		</g>
	</g>
	<g>
		<g>
			<path class="st1" d="M192.8,45.2c-0.6,0.8-1.2,1.5-1.7,2.3c-0.5,0.7-1.1,1.5-1.4,2.4c-0.5,1.7,0.8,2.9,2.1,3.7
				c0.4,0.3,1.5,1,1.2,1.6c-0.2,0.4-0.9,0.6-1.3,0.8c-1.4,0.6-2.2,2-1.2,3.4c0.9,1.3,2.6,1.4,3.7,2.5c0.8,0.9,1.3,2.2,1.2,3.5
				c0,0.6-0.1,1.2-0.4,1.8c-0.3,0.7-0.8,1.2-1.1,1.8c-0.4,0.7-0.7,1.5-0.4,2.2c0.1,0.3,0.4,0.6,0.6,0.8c0.2,0.2,0.8,0.3,0.9,0.5
				c0.1,0.2-0.1,0.4-0.1,0.6c-0.1,0.4-0.2,0.7-0.2,1.1c0,0.8,0.7,1.4,1.4,1.7c0.3,0.1,0.7,0.1,0.9,0.4c0.2,0.3,0.1,0.9,0.1,1.2
				c-0.1,1.2-0.2,2.4-0.3,3.6c-0.1,1.1,1.6,1.1,1.7,0c0.1-1,0.1-2,0.2-3c0.1-0.9,0.3-1.9-0.3-2.7c-0.4-0.6-1-0.8-1.6-1
				c-0.2-0.1-0.4-0.1-0.4-0.2c-0.1-0.2,0.2-0.7,0.3-0.9c0.2-0.7,0.2-1.4-0.3-1.9c-0.2-0.2-0.4-0.3-0.7-0.4c-0.3-0.1-0.6-0.2-0.6-0.5
				c0-0.6,0.7-1.3,1-1.8c0.4-0.6,0.7-1.2,0.8-1.9c0.6-2.6-0.5-5.5-2.7-7c-0.6-0.4-3.6-1.4-2-2.2c1.1-0.6,2.4-1,2.5-2.5
				c0-0.9-0.6-1.7-1.2-2.3c-0.6-0.5-1.4-0.9-2-1.5c-0.6-0.8,0.2-1.6,0.6-2.3c0.6-0.9,1.3-1.8,1.9-2.7
				C194.6,45.5,193.4,44.3,192.8,45.2L192.8,45.2z"/>
		</g>
	</g>
	<g>
		<g>
			<path class="st1" d="M214.2,31.4c-0.5,2.1-1.9,3.8-3.9,4.8c-1.1,0.5-2.3,0.6-3.3,1.3c-0.9,0.6-1.4,1.8-1,2.8
				c0.5,1.2,1.6,1.2,2.7,1.4c0.1,0,0.5,0.1,0.5,0.2c0,0,0-0.1,0,0c0,0.2-0.8,0.6-1,0.7c-0.7,0.5-1.3,1.3-1.1,2.2
				c0.2,0.7,0.7,1.3,1.3,1.8c0.3,0.3,1.1,0.9,0.9,1.4c-0.2,0.5-0.9,1-1.3,1.3c-0.5,0.4-1.1,0.7-1.6,1c-1.8,1.2-3.8,2.9-3.5,5.3
				c0.1,1,0.7,2,1.6,2.5c0.4,0.2,0.9,0.3,1.3,0.4c0.4,0.1,1,0.2,1.2,0.5c0.5,0.8-0.8,2.2-1.1,2.9c-0.6,1-1.3,2.4-1.2,3.6
				c0,0.7,0.4,1.2,1,1.5c0.5,0.3,1.1,0.4,1.5,0.9c0.9,1.2,0.2,2.5-0.4,3.6c-0.7,1.2-1.4,2.6-0.9,4c0.4,1.3,1.6,2.1,2.9,1.9
				c1.1-0.2,0.6-1.8-0.4-1.6c-0.4,0.1-0.8-0.4-0.9-0.7c-0.2-0.5,0-1.1,0.2-1.6c0.5-1.2,1.3-2.1,1.6-3.4c0.2-1.1,0-2.2-0.7-3.1
				c-0.3-0.4-0.8-0.8-1.2-1c-0.4-0.2-1-0.2-0.9-0.8c0.2-1.2,0.9-2.3,1.6-3.3c0.6-0.9,1.1-2,0.8-3.1c-0.3-1-1.2-1.5-2.2-1.8
				c-0.8-0.2-1.7-0.3-2-1.3c-0.6-2.2,2-3.5,3.5-4.5c1.6-1,3.8-2.7,2.4-4.7c-0.4-0.6-1-1.1-1.5-1.7c-0.4-0.5-0.2-0.7,0.3-1
				c0.7-0.4,1.5-0.9,1.5-1.8c0-1-0.9-1.7-1.8-1.9c-0.4-0.1-1.3,0-1.5-0.3c-0.2-0.4,0.3-0.9,0.6-1c0.6-0.3,1.2-0.4,1.8-0.6
				c0.6-0.2,1.1-0.4,1.6-0.7c2.1-1.2,3.6-3.2,4.2-5.5C216.1,30.8,214.5,30.3,214.2,31.4L214.2,31.4z"/>
		</g>
	</g>
	<g>
		<g>
			<path class="st1" d="M222.5,43.9c1.6-0.1,2.9,1.2,3.1,2.7c0.3,1.7-0.4,3.4-1.4,4.7c-1,1.2-2.4,2.2-3.9,2.6
				c-1.6,0.5-3.6,0.5-4.4,2.3c-0.7,1.3-0.1,2.8,1.3,3.3c0.6,0.3,1.2,0.4,1.8,0.5c0.5,0.1,1.2,0.3,1.5,0.7c1,1.2-0.4,2.9-1,3.9
				c-0.4,0.7-0.7,1.6-0.2,2.4c0.3,0.6,0.9,0.9,1.5,1.2c0.3,0.2,0.6,0.3,0.7,0.7c0.1,0.4-0.1,0.8-0.3,1.1c-0.6,0.8-1.5,1.3-2.1,2.1
				c-1.2,1.5-1.6,3.6-1.1,5.4c0.3,1,1.9,0.6,1.6-0.4c-0.5-1.7,0.1-3.4,1.4-4.6c1.2-1.1,2.8-2.6,1.9-4.4c-0.3-0.7-1-1-1.6-1.4
				c-0.2-0.1-0.5-0.2-0.6-0.4c-0.2-0.4,0.3-0.9,0.5-1.2c0.9-1.2,1.6-2.9,1.1-4.4c-0.5-1.5-1.9-2-3.3-2.3c-0.5-0.1-1.1-0.2-1.5-0.5
				c-0.5-0.5,0-1.2,0.5-1.5c0.7-0.5,1.7-0.5,2.6-0.7c0.8-0.2,1.6-0.5,2.3-1c1.5-0.8,2.7-2.1,3.5-3.6c1-1.8,1.4-4.1,0.5-6
				c-0.7-1.7-2.5-3-4.4-2.8C221.5,42.3,221.5,44,222.5,43.9L222.5,43.9z"/>
		</g>
	</g>
	<g>
		<g>
			<path class="st10" d="M184.3,175.6c12.8-4.9,26.4-7.2,39.4-1.8c1,0.4,3.8-1.2,2.4-1.8c-13.9-5.8-28.8-3.3-42.5,2
				C181.9,174.6,182.4,176.3,184.3,175.6L184.3,175.6z"/>
		</g>
	</g>
	<g>
		<g>
			<path class="st11" d="M195.3,154.9c-1.3,1-2.2,2.2-3.2,3.5c-1.1,1.5-2.2,2.9-3.2,4.4c-1,1.4-2.1,2.8-3.1,4.2
				c-1,1.3-2,2.6-2.6,4.2c-0.4,0.9,2.2,1.8,2.6,0.9c0.6-1.5,1.6-2.8,2.6-4.1c1-1.4,2.1-2.8,3.1-4.2c1-1.4,2-2.7,3.1-4.1
				c0.9-1.3,1.9-2.5,3.2-3.5c0.5-0.4-0.3-1-0.6-1.2C196.6,154.6,195.8,154.5,195.3,154.9L195.3,154.9z"/>
		</g>
	</g>
	<g>
		<g>
			<path class="st11" d="M195.6,155.2c-5.2,5-7.6,12.1-12.1,17.7c0.8,0.4,1.6,0.8,2.4,1.2c4.5-6.3,9.4-12.2,14.8-17.7
				c0.8-0.8-1.5-1.5-2-1.4c-1.9,0.3-2.8,1.8-3.8,3.3c-1.1,1.7-2.2,3.5-3.2,5.3c-2.4,4.2-4.9,8.3-7.3,12.5c-0.5,0.9,2,1.6,2.5,1
				c5.2-4.8,8.2-11.5,13.1-16.6c0.8-0.8-1.6-1.7-2.2-1.3c-3.3,2-5.1,6-7,9.2c-2.2,3.7-4.5,7.3-7.5,10.4c0.8,0.4,1.6,0.8,2.4,1.2
				c5.2-6.8,9.8-14,13.6-21.7c0.4-0.9-1.8-1.5-2.3-1.2c-2.9,1.8-4.6,5.4-6.4,8.3c-2.2,3.3-4.3,6.7-6.5,10c0.8,0.3,1.7,0.7,2.5,1
				c3.9-6.3,7.7-12.6,11.3-19c0.5-0.9-1.8-1.4-2.3-1.2c-2.6,1.3-3.9,3.8-5.4,6.2c-1.9,3.1-3.8,6.2-5.6,9.3c-0.5,0.8,2,1.7,2.5,1
				c4.3-5.2,7.5-11.1,9.5-17.5c0.3-1-2-1.6-2.5-1c-2,2-3.4,4.5-4.9,6.8c-1.6,2.5-3.3,5.1-4.9,7.6c-0.6,1,1.9,2,2.4,1.2
				c3.1-4.2,6.3-8.5,9.4-12.7c0.8-1-1.6-1.5-2.2-1.3c-2,0.6-3.2,2.6-4.4,4.2c-1.4,1.9-2.8,3.9-4.2,5.8c-1.3,2-2.7,3.9-3.9,5.9
				c-0.9,1.3-2.4,3.4-2,5c0.4,1.5,2.6,2.8,3.9,3.5c1.7,0.9,3.5,1.6,5.3,2c1.9,0.5,3.9,0.9,5.9,1.1c1.9,0.2,4,0.2,5.3-1.5
				c0.7-0.9-1.8-2-2.4-1.2c-1.2,1.6-3.1,1.1-4.8,0.8c-1.5-0.3-3.1-0.5-4.6-1c-1.5-0.4-2.9-1-4.2-1.9c-0.6-0.4-1.6-1.1-1.7-1.8
				c-0.1-0.7,0.5-1.7,0.8-2.4c1.7-3.3,4.1-6.4,6.3-9.5c1.1-1.5,2.1-3,3.2-4.4c1-1.3,2-2.9,3.6-3.4c-0.7-0.4-1.5-0.9-2.2-1.3
				c-3.1,4.2-6.3,8.5-9.4,12.7c0.8,0.4,1.6,0.8,2.4,1.2c1.6-2.5,3.3-5.1,4.9-7.6c1.5-2.3,2.9-4.8,4.9-6.8c-0.8-0.3-1.7-0.7-2.5-1
				c-1.9,6.3-5.1,12.1-9.3,17.2c0.8,0.3,1.7,0.7,2.5,1c1.7-2.8,3.4-5.7,5.1-8.5c1.4-2.3,2.7-5.2,5.3-6.5c-0.8-0.4-1.6-0.8-2.3-1.2
				c-3.6,6.4-7.4,12.8-11.3,19c-0.5,0.7,2.1,1.8,2.5,1c2.1-3.2,4.1-6.4,6.2-9.6c1-1.6,2-3.1,3-4.7c0.9-1.4,1.8-2.8,3.3-3.7
				c-0.8-0.4-1.6-0.8-2.3-1.2c-3.7,7.5-8.2,14.7-13.4,21.3c-0.7,0.9,1.8,1.9,2.4,1.2c2.7-2.9,4.9-6.2,7-9.6c1.1-1.7,2.1-3.5,3.2-5.2
				c1.1-1.7,2.2-3.4,3.9-4.5c-0.7-0.4-1.5-0.9-2.2-1.3c-4.9,5.1-7.8,11.8-13.1,16.6c0.8,0.3,1.7,0.7,2.5,1c2.2-3.7,4.4-7.5,6.6-11.2
				c1-1.7,2-3.5,3.1-5.2c0.8-1.3,1.9-3.6,3.5-3.9c-0.7-0.5-1.3-0.9-2-1.4c-5.4,5.5-10.3,11.4-14.8,17.7c-0.7,0.9,1.8,1.9,2.4,1.2
				c4.6-5.5,6.9-12.6,12.1-17.7C198.8,155.7,196.3,154.5,195.6,155.2L195.6,155.2z"/>
		</g>
	</g>
	<g>
		<g>
			<path class="st11" d="M184.8,176c1.5,2.4,3.1,4.7,5.9,5.7c2.7,0.9,6,0.9,8.8,0.6c1.3-0.1,2.6-0.4,3.7-1c0.9-0.5,2.2-1.2,2.3-2.3
				c0.1-1.3-1.2-2.2-2.2-2.8c-1.4-0.8-2.9-1.2-4.5-1.1c0.6,0.5,1.1,1,1.7,1.4c1.7-1.5,2.2-3.8,2.8-6c0.7-2.6,1.2-5.3,1.5-8
				c0.1-1-2.2-1.8-2.6-0.9c-2.6,5.5-4.3,11.4-4.9,17.5c-0.1,1.1,2.5,1.8,2.6,0.9c0.8-7.1,1.8-14.2,3.2-21.2c0.2-1-2.2-1.8-2.6-0.9
				c-2.9,6.2-3.4,13.2-5.7,19.6c0.9,0.3,1.8,0.6,2.6,0.9c1.5-6.6,2.6-13.3,3.2-20c0.1-1-2.2-1.9-2.6-0.9c-3.2,6.9-3.3,14.7-5.3,21.9
				c0.9,0.3,1.8,0.6,2.6,0.9c1-7.8,2.5-15.6,4.5-23.2c-0.9-0.3-1.8-0.6-2.6-0.9c-1.9,7.5-3.8,15-5.7,22.5c0.9,0.2,1.8,0.5,2.7,0.7
				c0.3-5,0.6-10,0.9-15c0.1-0.9-2.2-1.5-2.7-0.7c-2.8,5.6-1.1,12.2-2.4,18.1c0.9,0.2,1.8,0.5,2.7,0.7c-0.6-5.2-0.7-10.4-0.7-15.6
				c0-0.9-2.3-1.5-2.7-0.7c-2.2,4.7-1.4,10-0.7,14.9c0.1,0.9,2.2,1.5,2.7,0.7c0.1-0.2,0.2-0.3,0.3-0.5c0.4-0.8-2.1-1.8-2.6-0.9
				c-0.1,0.2-0.2,0.3-0.3,0.5c0.9,0.2,1.8,0.5,2.7,0.7c-0.8-4.8-1.5-9.9,0.6-14.5c-0.9-0.2-1.8-0.5-2.7-0.7c0,5.2,0,10.4,0.7,15.6
				c0.1,0.8,2.4,1.6,2.7,0.7c1.3-6-0.4-12.5,2.4-18.1c-0.9-0.2-1.8-0.5-2.7-0.7c-0.3,5-0.6,10-0.9,15c-0.1,0.8,2.4,1.6,2.7,0.7
				c1.9-7.5,3.8-15,5.7-22.5c0.3-1-2.4-1.8-2.6-0.9c-2,7.6-3.5,15.4-4.5,23.2c-0.1,1,2.4,1.9,2.6,0.9c2-7.3,2.1-15,5.3-21.9
				c-0.9-0.3-1.8-0.6-2.6-0.9c-0.6,6.7-1.7,13.4-3.2,20c-0.2,1,2.3,1.8,2.6,0.9c2.3-6.4,2.8-13.4,5.7-19.6c-0.9-0.3-1.8-0.6-2.6-0.9
				c-1.3,7-2.4,14.1-3.2,21.2c0.9,0.3,1.8,0.6,2.6,0.9c0.6-6.1,2.2-12,4.9-17.5c-0.9-0.3-1.8-0.6-2.6-0.9c-0.3,2.5-0.8,5-1.4,7.5
				c-0.5,2.1-1,4.6-2.7,6.1c-0.8,0.7,1.2,1.4,1.7,1.4c0.9,0,2.2,0.1,2.8,0.9c0.8,0.9-0.7,1.8-1.4,2.2c-1.5,0.8-3.2,1-4.8,1
				c-1.7,0-3.9,0.2-5.5-0.5c-1.7-0.7-2.7-2.7-3.6-4.2c-0.3-0.5-1.1-0.8-1.7-0.9C185.1,175.2,184.4,175.5,184.8,176L184.8,176z"/>
		</g>
	</g>
	<g>
		<g>
			<path class="st11" d="M206.7,157.7c-2.1,1.4,1.1,5,2.1,6.2c2.4,3,8.5,7.7,5.7,11.7c-2.9,4.1-9.4,5.4-14,5.4
				c-2.5,0-5.5-0.2-7.8-1.2c-1.6-0.7-1.5-0.5-2-2.2c-0.2-0.6-0.7-1.6-0.2-2.2c2.2-2.9-5.8-6.2-7.7-3.9c-3.1,3.6-4,6.3,0.2,9.6
				c4.5,3.5,11,4.7,16.5,5.3c6.2,0.6,12.5,0.1,18.6-1.5c4.2-1.1,11-2.6,11.4-7.9c0.2-1.9-1.9-3.1-3.5-3.6c2.5,0.9,0.3-1.8-0.4-2.7
				c-1.4-1.7-3.1-3.1-4.5-4.7c-1.5-1.6-2.5-3.6-4-5.2c-1.6-1.9-3.8-3.4-5.8-4.9c-1.1-0.9-7.7-2.8-7,0.4c0.6,3,2,5.7,2.6,8.7
				c0.6,3.2,0.6,6.4,1.3,9.6c2.8,0.3,5.5,0.6,8.3,0.9c-2.8-7.1-3.8-14.6-9.5-20.1c-1-0.9-8.8-3.8-7.8-0.2c2,7,3.4,14.2,3.9,21.5
				c2.8,0.5,5.7,1,8.5,1.5c-1.4-5.9-2.3-11.9-3-18c-0.3-2.9-8.4-5.3-8.5-1.5c-0.3,5.8-0.1,11.6,0.4,17.4c2.8,0.5,5.7,1,8.5,1.5
				c-0.6-3.1-0.9-7.3-2.7-10c-1.5-2.3-4.8-3.2-7.3-2.4c-3.7,1.1-2.8,8.9-2.7,11.8c2.8,0.5,5.7,1,8.5,1.5c-0.1-1.5-0.4-2.7-0.9-4.2
				c-0.7-2.1-7.5-5.6-8.5-2.2c-0.2,0.8-0.4,1.6-0.7,2.4c-0.6,1.2-0.1,1.3,1.6,0.5c-0.9,0-1.9-0.5-2.9-0.5c-1.7-0.1-3.2,0.2-4.6,1.2
				c-0.3,0.3-0.5,0.7-0.4,1.2c0.5,4.9,7.9,5.4,11.6,5.4c4.6-0.1,13.3,0.4,17-3.1c3.1-2.9-0.9-5.6-3.9-6.1c-2.6-0.4-5.1,0.2-7.4,1.6
				c-1,0.6-9.5,5.6-9.5,5.7c-0.3,0.5-0.7,1-1,1.6c1.1-0.7,5.7,0.6,7.2,0.6c1.5,0,3-0.1,4.4-0.3c3-0.5,5.9-1.3,8.1-3.4
				c1.8-1.7-2-3.8-3.1-4.2c-0.5-0.1-0.9-0.3-1.4-0.4c-5.1-1.5-6.7,2.9-1.5,4.5c0.5,0.1,0.9,0.3,1.4,0.4c-1-1.4-2.1-2.8-3.1-4.2
				c-5.4,5.2-12.9-0.9-18.5,2.4c-0.7,0.4-1.1,0.8-1,1.6c0.3,4.5,7.7,5.6,11.1,5.7c2.6,0.1,5.2-0.3,7.6-1.4c1.2-0.5,2.2-1.2,3.3-1.9
				c0.8-0.5,5.2-2.8,3.4-3.4c-1.1-0.8-2.2-1.5-3.3-2.3c-0.4-1-12.9,2.8-14.3,1.7c0.5,0.7,1,1.3,1.5,2c-1.4,0.4-1.6,0.6-0.6,0.8
				c0.5,0.1,1,0.3,1.6,0.4c1,0.1,1.9,0.2,2.9-0.2c2.3-0.9,2.4-3,3-5.3c-2.8-0.7-5.7-1.4-8.5-2.2c0.5,1.4,0.7,2.7,0.9,4.2
				c0.3,3,8.6,5.2,8.5,1.5c0-1.4-0.6-8.3,0.7-8.7c-2.4-0.8-4.9-1.6-7.3-2.4c1.4,2.2,1.7,6,2.2,8.6c0.6,2.9,8.9,5.2,8.5,1.5
				c-0.5-5.8-0.7-11.6-0.4-17.4c-2.8-0.5-5.7-1-8.5-1.5c0.7,6.1,1.6,12.1,3,18c0.7,2.8,8.8,5.3,8.5,1.5c-0.6-7.3-1.9-14.4-3.9-21.5
				c-2.6-0.1-5.2-0.1-7.8-0.2c5.1,5,6,12.4,8.5,18.8c0.9,2.3,9,4.2,8.3,0.9c-0.7-3.2-0.8-6.4-1.3-9.6c-0.5-3-1.9-5.7-2.6-8.7
				c-2.3,0.1-4.7,0.3-7,0.4c4.4,3.4,7.6,8.1,11.4,12.1c2.8,3,3,5.9,7.3,7.4c-1.2-1.2-2.3-2.4-3.5-3.6c-0.5,5.7-11.8,6.7-16.2,7.1
				c-3.7,0.3-19.8,0.5-14.3-5.9c-2.6-1.3-5.2-2.6-7.7-3.9c-2.7,3.6,0.9,9.2,4.3,11c6.5,3.4,14.6,4.5,21.8,3.4
				c5.3-0.8,13.2-3.1,15.1-8.9c0.9-2.8-0.8-5.1-2.4-7.4c-0.7-1.1-6.2-8.4-6.9-8C217,159.8,209.3,155.9,206.7,157.7L206.7,157.7z"/>
		</g>
	</g>
	<g>
		<g>
			<path class="st11" d="M197.9,159.2c5.5,0.6,11.3,1.9,16.8,0.8c-2.2-1.1-4.5-2.2-6.7-3.3c0,3.5,2.4,5.4,4.1,8.2
				c2,3.2,2.1,6.9,3.6,10.3c1.1,2.7,9.7,4.1,8,0.2c-1.3-3-1.4-6.3-2.9-9.3c-1.4-2.7-4.2-4.7-4.2-7.9c0-2.5-4.9-3.7-6.7-3.3
				c-4.1,0.8-8.6-0.3-12.7-0.8C191.2,153.4,193.6,158.7,197.9,159.2L197.9,159.2z"/>
		</g>
	</g>
	<g>
		<g>
			<path class="st12" d="M206.2,154.5c0.3-0.5,0.7-1,0.5-1.6c-0.6-1.8-2.3-2.7-4.1-3.1c-1.3-0.3-3.7-0.6-4.4,1
				c-0.5,1.3-0.7,2.7-0.5,4c0.1,0.8,0.9,1.6,1.5,2c0.9,0.6,2.1,1.1,3.2,1.3c1.3,0.2,4.1,0.2,3.9-1.8c-0.1-0.5-0.1-0.9,0-1.4
				c0,0.2,0,0.4,0,0.6c0.1-0.7,0.2-1.3,0.5-2c-2.8-0.7-5.7-1.4-8.5-2.2c0,0,0,0.1,0.1,0.1c0-0.2,0-0.4,0-0.6c0,0.1,0,0.1,0,0.2
				c0.1-0.2,0.2-0.4,0.3-0.5c0,0-0.1,0.1-0.1,0.1c-1.1,1.5,0.7,3.1,2,3.7c1,0.5,2.2,0.9,3.3,0.9
				C204.5,155.2,205.7,155.2,206.2,154.5L206.2,154.5z"/>
		</g>
	</g>
	<g>
		<g>
			<path class="st12" d="M208.7,152.7c-0.7,1.5-1.4,3-2,4.5c-0.5,1.2,1.6,2.2,2.4,2.5c0.9,0.3,2.9,0.7,3.4-0.6c0.6-1.5,1.3-3,2-4.5
				c0.2-0.4-0.2-1.1-0.5-1.4c-0.5-0.5-1.2-0.9-1.9-1.1C211.1,151.8,209.3,151.5,208.7,152.7L208.7,152.7z"/>
		</g>
	</g>
	<g>
		<g>
			<path class="st12" d="M213,157.2c0.5-0.9,0.6-1.6,0.5-2.6c-0.1-1.7-4.5-3.4-5.6-1.9c-1.1,1.6-3.1,1.9-3.7,4
				c-0.6,2.3,4.2,3.4,5.6,2.3c1.3-1,2.1-2.2,2.4-3.9c0.5-2.2-4.9-4-5.8-1.9c-0.5,1.1-0.9,1.5-1.8,2.1c1.9,0.8,3.7,1.5,5.6,2.3
				c0.4-0.8,0.7-1.7,1.1-2.5c0.8-2-4.4-3.7-5.6-2.3c-1,1.2-2,2.4-2.9,3.5c1.9,0.6,3.7,1.2,5.6,1.9c0-1.1,0.2-2.2,0.4-3.2
				c0.4-2-4.3-3.8-5.6-2.3c-1,1.2-1.9,2.6-3.1,3.6c0.5-0.2,1.1-0.3,1.6-0.5c-0.2,0-0.4,0-0.6-0.1c1.3,0.8,2.6,1.6,4,2.3
				c-0.3-0.8-0.3-1.6-0.1-2.5c0.2-2.1-4.2-3.8-5.6-2.3c-0.7,0.8-1.4,1.8-2.3,2.4c1.5,0.2,3,0.3,4.6,0.5c-0.8-0.5,0.6-2.7,0.9-3.1
				c1.7-1.8-3.8-4.1-5.3-2.7c-1.2,1.2-3.3,2.8-3.4,4.6c0,2,2.1,3.3,3.6,4c4.6,2,10.2,2.1,15.1,1.5c0.4,0,1.1-0.3,1.2-0.8
				c0.2-1.2,0.2-2.9,0.9-4c-1.9-0.5-3.9-1-5.8-1.5c0.3,1.3,0.4,2.3,0.3,3.7c-0.1,1.9,5,3.3,5.8,1.5c1-2.2,0.4-4.2-1.2-5.9
				c-0.7-0.8-5.8-2.6-5.3-0.1c0.2,0.9,0.7,3.7,2.1,3.5c-1.3,0.2-1.4,1.2-0.7,2.2c0.8,1.1,2.8,1.6,4.1,1.4c4-0.6,0.7-4,0.4-6
				c-1.8,0-3.6-0.1-5.3-0.1c0.9,1,0.7,2.1,0.2,3.2c1.9,0.5,3.9,1,5.8,1.5c0.1-1.3,0-2.3-0.3-3.7c-0.4-2-4.7-3.4-5.8-1.5
				c-0.7,1.1-0.7,2.7-0.9,4c0.4-0.3,0.8-0.5,1.2-0.8c-2.5,0.3-4.9,0.3-7.4-0.2c-0.4-0.1-0.9-0.2-1.3-0.3c-0.9,0.1-1-0.3-0.4-0.9
				c0.2-0.8,1.8-2,2.4-2.5c-1.8-0.9-3.5-1.8-5.3-2.7c-2,2.2-2.1,5.7,0.6,7.4c1.3,0.8,3.2,1.5,4.6,0.5c0.9-0.6,1.6-1.6,2.3-2.4
				c-1.9-0.8-3.7-1.5-5.6-2.3c-0.1,1.1-0.3,2.3,0,3.4c0.5,1.6,2.5,2.2,4,2.3c2.7,0.3,3.8-2.1,5.4-4c-1.9-0.8-3.7-1.5-5.6-2.3
				c-0.3,1.4-0.4,2.7-0.5,4.1c-0.1,1.8,4.5,3.2,5.6,1.9c1-1.2,2-2.4,2.9-3.5c-1.9-0.8-3.7-1.5-5.6-2.3c-0.4,0.8-0.7,1.7-1.1,2.5
				c-0.9,2.3,4.3,3.2,5.6,2.3c1.1-0.8,1.8-1.6,2.3-2.9c-1.9-0.6-3.9-1.3-5.8-1.9c-0.3,1.4-0.8,2.2-2,3.1c1.9,0.8,3.7,1.5,5.6,2.3
				c0.4-1.5,2.3-2,3.2-3.3c-1.9-0.6-3.7-1.2-5.6-1.9c0.1,0.6,0,1.2-0.4,1.7C206.2,157,211.8,159.2,213,157.2L213,157.2z"/>
		</g>
	</g>
	<g>
		<g>
			<path class="st12" d="M200.6,148.1c-0.3,0.8-0.6,1.5-0.7,2.3c0,0.4-0.1,0.7-0.1,1.1c0,0.7-0.1,1.4-0.2,2.1c0.1-0.5,0.2-1,0.4-1.6
				c-0.2,0.6-0.3,1.3-0.5,1.9c0.1-0.6,0.6-1.3,0.6-2c0,1.6,0-0.2,0-0.5c0-0.5,0.1-1.1,0.2-1.6c0.1-0.7,0.2-1.5,0.4-2.2
				c-0.2,0.6-0.5,1.1-0.7,1.7c0.3-0.6,0.6-1.3,0.8-1.9c0,0,0,0,0,0.1C200.8,147.8,200.7,147.9,200.6,148.1L200.6,148.1z"/>
		</g>
	</g>
	<g>
		<g>
			<path class="st12" d="M200.7,147.3c-0.5,1.5-0.7,2.9-0.9,4.5c-0.1,0.8,0.2,1.7,0.1,2.6c0.4-2.8,0.4-4.9-0.4-7.6
				c0.2,0.9,0.3,1.8,0.5,2.7c0.1-1.1,0.9-1.7,1.1-2.8c0.2-1.3-0.1-2.8-0.1-4.2c0-0.8-0.4-1.9-0.3-2.7c-0.3,1.7-0.6,3.5-0.9,5.2
				c0,0.8,0,1.7,0.1,2.5c0.1-2.6,0.2-5.2,0.4-7.8c0,0,0,0,0,0c-0.1,0.5-0.5,4.3-0.7,1.9c-0.1,0.8-0.1,1.6-0.2,2.4
				c0.4,0.8,0.2,0.7,0.4,0c0-0.2,0.1-0.5,0.1-0.7c0-0.8,0.1-0.9,0.4-0.4c0.7,0.3,1.6,2.1,2,2.7c0-0.8,0-1.7,0-2.5
				c-0.1,0-0.2-0.1-0.3-0.1c0,0.4,0,0.8-0.1,1.2c0-0.5,0.1-1,0.1-1.5c0,0.6-0.5,1.7-0.3,2.2c0,0.4,0.2,0.6,0.6,0.7
				c-0.3-0.2,0.2-2.2,0-2.5c-0.5-0.6-1.6-2.6-2.4-2.9c-0.2-0.4-0.3-0.4-0.3,0c-0.1,0.2-0.1,0.5-0.1,0.7c-0.2,1.4,0.1,2.9,0.2,4.4
				c0,0.2,0-0.2,0-0.1c0-1.8,0-3.6,0-5.3c0,0,0,0,0,0c-0.1,1.2-0.3,3.2-0.3,4.2c0.1,0.6-0.3,1.7,0.2-0.1c0.3-1.2,0.5-4.2,0.4,0.6
				c0-0.7,0.1-1.4,0.1-2.1c-0.1,0.9-0.1,1.8-0.2,2.7c-0.1,0.8,0.2,1.8,0.1,2.5c0.4-1.7,0.7-3.4,1.1-5.1c-0.1-0.9-0.2-1.8-0.3-2.7
				c0,1.4,0.3,3.3-0.2,4.7c-0.4,1-0.9,1.3-0.8,2.4c0.1,1.3,0.5,2.7,0.8,4c-0.1-0.9-0.2-1.8-0.4-2.6c0.1,0.8,0.2,1.7,0.3,2.5
				c-0.1-0.6-0.1-1.1-0.2-1.7c-0.1,0.9-0.2,1.8-0.3,2.7c0,0.8,0.1,1.7,0.1,2.5c0.1-1.6,0.2-3.2,0.3-4.9c-0.1,0.7-0.2,1.4-0.2,2.2
				c0.2-1,0.3-2,0.5-3c-0.1,0.7-0.2,1.4-0.3,2.1c0.2-1,0.5-1.9,0.7-2.9c-0.2,0.6-0.4,1.2-0.7,1.9c0.3-1,0.8-1.9,1.3-2.8
				C201.3,147.1,200.8,147.1,200.7,147.3L200.7,147.3z"/>
		</g>
	</g>
	<g>
		<g>
			<path class="st12" d="M198.7,138.7c0.2,0.7,0.3,1.4,0.5,2.2c-0.2-0.9-0.4-1.8-0.5-2.8c0,1.7,0.4,3.3,0.6,5c0.3,2.7,0.3,5.1,0,7.9
				c0-0.2,0.6-0.6,0.8-0.8c0.9-0.9,0.3-3.1,0.2-4.2c-0.4-2.6-1-5.2-1.6-7.8c0.2,0.9,0.3,1.8,0.5,2.7c-0.2-1.2-0.3-2.5-0.5-3.7
				c0.1,0.9,0.2,1.7,0.2,2.6c-0.1-1.2-0.1-2.3-0.2-3.5C198.7,137,198.5,138,198.7,138.7L198.7,138.7z"/>
		</g>
	</g>
	<g>
		<g>
			<path class="st12" d="M198.8,137.9c0.3,1.8,0.7,3.5,1,5.3c-0.1-0.9-0.3-1.8-0.4-2.7c0,0.7,0.4,6.2,0.4,2.6c0-0.9-0.4-4.9-0.6-5.1
				c0.4,0.3,1.1,2.9,1.3,3.3c0.7,1.4,1.4,2.8,2.2,4.2c-0.2-0.9-0.4-1.9-0.6-2.8c-1.1-1.3-1.9-2.6-2.6-4.1c-0.4-0.8-0.6-1.8-1-2.6
				c-0.8-1.6-0.3-0.6-0.2,0.7c0.3,4.9-0.1,9.7,0.3,14.7c0,0,0,0,0,0c0.1-1.1,0.3-2.2,0.4-3.4c-0.1,0.7-0.2,1.4-0.3,2.1
				c0.8-3.9,0.5-7.6,1.1-11.4c-0.1,0.7-0.3,1.4-0.4,2.1c0.4,1.5,0.3,2.4,0.5,0.5c0.2-1.6-0.1-3.1-0.6-4.6c0,0.8,0,1.7,0.1,2.5
				c0.9,1,1.6,2.1,2.3,3.3c-0.1-0.9-0.3-1.8-0.4-2.7c-1.2-1.3-2.1-2.6-3-4.1c0.3,0.9,0.6,1.9,0.9,2.8c1.2,1.7,2.7,3.1,4.3,4.4
				c-0.4-1-0.7-1.9-1.1-2.9c-2.1,2.5-1,5.7-1.1,8.7c0,0.9,0.6,1.9,0.5,2.7c0.4-3.1,0.8-6.2,1-9.2c0,0.6-0.7,1.1-0.7,1.7
				c-0.3,2.2-0.3,4.5-0.1,6.7c0-0.6,0.6-1.3,0.6-2c0-2.3,0.1-4.6-0.3-6.9c0.1,0.6-0.6,1.3-0.6,1.9c-0.2,2.7,0.3,5,1.3,7.5
				c0.1-0.8,0.2-1.5,0.3-2.3c-0.1-0.1-1.8-3.6-1.6-3.7c-0.3,0.1,0.1,1.7,0.2,1.9c0.6,2.3,1.9,4.6,2.8,6.8c-0.3-0.8-0.1-1.9-0.4-2.7
				c-1-2.6-2-5.2-3-7.9c0.1,0.9,0.2,1.8,0.3,2.7c1,2.3,2.1,4.6,3.3,6.8c-0.4-0.7,0.1-1.9-0.2-2.6c-0.7-2.1-1.4-4.2-2.1-6.3
				c0.3,0.8,0,1.8,0.1,2.6c0.4,2.8,1.2,5.3,2.4,7.9c-0.3-0.7,0.3-1.8,0-2.5c-1.1-2.9-2.3-5.8-3.5-8.7c0.2,0.5-0.6,1.5-0.5,2
				c0.6,3.4,2.4,6.2,4.8,8.7c-0.5-0.6-0.2-2.1-0.6-2.8c-0.8-1.2-1.6-2.4-2.5-3.5c-0.1,0.8-0.2,1.5-0.3,2.3c1.8,1.7,3.9,3.1,5.8,4.8
				c-0.1-0.9-0.2-1.8-0.3-2.7c-2.4-0.1-3.1-3.1-4.7-4.5c0.2,0.2-0.9,1.6-0.7,1.8c2.6,2.8,5.7,4.5,9.4,5.4c0-0.8,0-1.6,0-2.5
				c-3-0.1-8.4,0.5-11-1.4c0.2,0.9,0.4,1.8,0.7,2.7c-0.1-0.5-0.2-1-0.3-1.5c0,0.2,0.1,0.5,0.1,0.7c0.9-2.6,0.8-5.5-1.1-7.6
				c0.1,0.1,0.1,0.6,0.1,0.7c0.3,2.9,0.6,5.8,0.9,8.6c-0.1-0.8,0.1-1.7,0-2.5c-0.1-1.5-0.3-3-0.3-4.6c0-0.7-0.4-1.9-0.2-2.6
				c-0.8,2.1-1.1,4-1.1,6.2c0,0.7,0.6,2,0.4,2.7c0.5-1.3,0.7-2.2,0.9-3.5c0.2-1.6,0.3-3.1,0.5-4.7c0.2-1.3,0.2-1.6-0.3-0.7
				c-1.3,0.9-2.4,4.1-3.2,5.4c-0.4,0.6,1,2.2,0.7,2.8c1-2.1,1.5-4.2,1.8-6.5c0.1-0.6-0.7-2.2-0.4-2.7c-1.1,1.8-1.9,3.6-2.4,5.7
				c0.1,0.9,0.2,1.8,0.3,2.7c0.4-1.8,0.9-3.5,1.7-5.2c0.3-0.7-0.7-2-0.3-2.7c-1.4,2.6-2.8,5.2-4.3,7.8c-0.3,0.5,0.6,2.3,0.2,2.6
				c2.8-2.5,4.3-5.5,4.5-9.2c0.1-0.9-0.3-1.8-0.2-2.6c-0.1,1.1-0.2,2.2-0.4,3.3c-0.6,3.7-0.4-3.3-0.3-4.9c0-0.8-0.1-1.7-0.1-2.5
				c0,1.9,0,3.8,0,5.8c0,1,0.2,2.3,0,3.3c0.3-1.6-0.2-3.7,0-5.4c0.1-1.2,0.3-4.2,0.2,0.6c0,0.4-0.2,7.2-0.3,3.4
				c-0.1-2.2,0-4.4,0-6.6c0,0.8-0.2,1.6-0.2,2.3c-0.1,2.2-0.1,4.4-0.6,6.6c-0.6,3-0.2-0.6-0.1-1.2c0-0.9,0.2-5,1-4.6
				c0-0.8,0-1.7,0-2.5c-0.2,2.9-0.8,5.7-1.6,8.6c-0.2,0.8,0.6,1.9,0.4,2.7c1-4.1,1.2-8.1,1.3-12.3c0-0.1,0-0.1,0-0.2
				c-0.6,2.2-0.9,4.3-1.1,6.6c-0.1,1.3-0.2,2.7-0.3,4c0,0.5-0.5,3.5,0.1,1.8c0.1-0.2,0.3-2.1,0.3-1.9c0.5-3.3,0.8-6.6,0.9-9.9
				c-0.1,0.8-0.2,1.6-0.2,2.3c0,1.3,0,2.7,0,4c0,0.9,0,1.8,0,2.7c-0.1,1.5,0,1.8,0.1,0.7c0.4-1.3,0.3-2.9,0.4-4.3
				c0.1-1.6,0.2-3.1,0.2-4.7c0-0.5,0.2-4.1-0.3-1.2c-0.1,0.8-0.2,1.6-0.2,2.4c0,0.8,0,1.6-0.1,2.4c0,2.4,0.1,4.8,0.2,7.3
				c0,0,0,0,0,0c0-3.4,0-6.8,0-10.2c0-0.8-0.1-1.7-0.1-2.5c-0.1,2.3-0.1,4.5,0,6.8c0,1,0.1,2,0.2,3c0.2,1.6-0.1,1.6,0.2,0.7
				c0.4-1.1,0.3-2.7,0.5-3.8c-0.1-0.9-0.1-1.7-0.2-2.6c-0.3,3.7-1.8,6.8-4.6,9.2c0.1,0.9,0.2,1.8,0.2,2.6c1.4-2.6,2.9-5.2,4.3-7.8
				c-0.1-0.9-0.2-1.8-0.3-2.7c-0.8,1.7-1.3,3.3-1.7,5.2c-0.2,0.8,0.5,1.9,0.3,2.7c0.5-2.1,1.2-3.9,2.4-5.7c-0.1-0.9-0.3-1.8-0.4-2.7
				c-0.4,2.3-1.1,4.3-2.2,6.4c0.2,0.9,0.5,1.9,0.7,2.8c0.4-1.3,0.8-2.6,1.2-3.8c0.6-1.6,1.1-5.1,1-0.2c0.1-0.8,0.1-1.6,0.2-2.3
				c-0.5,1.5-1,3-1.5,4.4c0.1,0.9,0.2,1.8,0.4,2.7c0-2.2,0.3-4.2,1-6.3c-0.1-0.8-0.1-1.6-0.2-2.4c0.2,3.2,0.3,6.3,0.5,9.4
				c0-0.8,0-1.7,0-2.5c-0.3-2.3-0.7-4.5-1-6.8c0.1,0.9,0.2,1.7,0.3,2.6c0.7,0.7,1.1,1.3,1.5,2.2c-0.1-0.9-0.3-1.8-0.4-2.7
				c-0.1,1.4-0.8,2.3-0.7,3.7c0.1,0.6,0.2,1.5,0.5,2.1c1.3,2.5,7.9,1.7,10.4,1.6c0,0,0.1-2.5,0-2.5c-3.5-0.6-6.3-2.2-8.8-4.7
				c-0.2,0.6-0.5,1.2-0.7,1.8c2.4,1.4,3,4.3,5.7,5.4c-0.4-0.2,0.1-2.4-0.3-2.7c-1.9-1.3-3.5-2.8-5.2-4.4c0.3,0.3-0.6,1.9-0.3,2.3
				c1.1,1.4,2.2,2.7,3.4,4c-0.2-0.9-0.4-1.9-0.6-2.8c-2-2.3-2.9-5-3.6-8c-0.2,0.7-0.4,1.4-0.5,2c1.3,3.1,2.7,6.1,4,9.2
				c0-0.8,0-1.7,0-2.5c-1.3-2.6-2.1-5.2-2.5-8c0,0.9,0.1,1.7,0.1,2.6c0.7,2.1,1.4,4.2,2.1,6.3c-0.1-0.9-0.1-1.7-0.2-2.6
				c-1.2-2.3-2.3-4.6-3.4-6.9c0.4,0.8,0,1.9,0.3,2.7c1.1,2.6,2.1,5.3,3.1,7.9c-0.1-0.9-0.3-1.8-0.4-2.7c-1-2.7-2.6-5.6-3-8.4
				c0.1,0.6,0.1,1.7,0.2,2.5c0.2,2,0.7,3.9,1.5,5.8c-0.3-0.6,0.5-1.7,0.3-2.3c-0.8-2.3-1-4.6-0.9-7.1c-0.2,0.6-0.4,1.3-0.6,1.9
				c0.4,2.4,0.5,4.6,0.4,7c0.2-0.7,0.4-1.3,0.6-2c0-2.1,0.2-4.3,0.3-6.4c-0.2,0.6-0.5,1.1-0.7,1.7c0,1.3,0.1,2.6,0,3.9
				c0.1-0.8,0.2-1.5,0.3-2.3c-0.3,1.1-0.7,2.2-1.1,3.3c0.2,0.9,0.3,1.8,0.5,2.7c0.3-3-0.6-6.2,1.8-8.6c0.1-0.1-0.9-2.7-1.1-2.9
				c-1.7-1.3-2.9-2.6-4-4.4c0.5,0.8,0.5,2,0.9,2.8c0.6,1.5,1.4,2.7,2.5,4c-0.5-0.5-0.1-2-0.4-2.7c-0.5-1.2-1.1-2.2-1.9-3.1
				c0.4,0.4-0.1,2,0.1,2.5c0.3,1.1,0.5,2,0.5,3.2c0.1-0.8,0.1-1.6,0.2-2.3c-0.1,1-0.2-1.4-0.2-1.5c0,0,0,0.1,0,0.1
				c-0.8,3.8-0.9,7.4-1.1,11.3c0.1-0.8,0.2-1.5,0.3-2.3c-0.2,0.3-0.4,0.6-0.6,0.9c0.1,0.9,0.1,1.7,0.2,2.6c0.7-3.7,0.5-8.2,0.3-11.9
				c0-0.5-0.6-2.2,0-1.2c0.4,0.8,0.6,1.8,0.9,2.6c0.7,1.7,1.6,3.2,2.8,4.6c-0.5-0.6-0.2-2.1-0.6-2.8c-1.5-2.4-2.6-4.8-3.4-7.5
				c0,0,0,0,0,0c0.7,4.3,0.9,8.5,1.5,12.8c0,0.1,0,0.1,0,0.2c0.2-4.2-0.8-8.4-1.1-12.7C199.1,136.3,198.6,137.1,198.8,137.9
				L198.8,137.9z"/>
		</g>
	</g>
	<g>
		<g>
			<path class="st12" d="M200.2,141.1c0.1-0.4,0.2-0.8,0.2-1.2c-0.3,0.4-0.6,0.9-0.9,1.3c0.2,2.6,0.8,5.2,0.9,7.8
				c0.1-0.8,0.1-1.6,0.2-2.4c-0.1,1.2-0.3,2.4-0.4,3.6c0.2-0.6,0.4-1.2,0.6-1.9c-0.4,0.8-0.7,1.7-0.9,2.6c0-0.2,0.7-0.3,0.8-0.5
				c0.5-3.4-0.4-7-0.2-10.5c0,0.2-1,1.2-0.9,1.3c0,0,0.1,0.1,0.1,0.1C199.7,141.3,200.2,141.1,200.2,141.1L200.2,141.1z"/>
		</g>
	</g>
	<g>
		<g>
			<path class="st12" d="M199.9,143.9c1-1.3,1.5-2.4,1.4-4.1c-0.2,0.6-0.4,1.3-0.6,1.9c0.1,1.1,0.2,2.1,0.3,3.2
				c0-0.8-0.1-1.7-0.1-2.5c-0.1,1.6,0.1,3.3-0.3,4.9c0.1,0.9,0.2,1.8,0.3,2.6c-0.1-2.8-0.2-5.5-0.5-8.2c0-0.2-0.2-2.1-0.3-2.1
				c0,0-0.2,2.6-0.2,2.8c-0.1,1-0.1,1.9-0.1,2.8c0,0.5,0,1,0,1.5c0.5,0.8,0.6,0.8,0.5,0c0.2-0.7-0.1-2-0.2-2.8
				c-0.1-0.9-0.2-1.9-0.3-2.8c0.1,0.3-0.9,0.8-0.9,1.2c0.3,2.7,0.3,5.3-0.4,8c0.2-0.6,0.3-1.1,0.5-1.7c-0.2,0.8-0.5,1.5-0.7,2.3
				c0,0.1,0,0.2,0,0.1c0.1-0.2,0.8-1.7,0.7-1.8c0,0,0,0,0,0c0.2,0.2-0.9,1.6-0.7,1.8c0,0,0,0,0,0c0.2-0.6,0.5-1.2,0.7-1.8
				c0.1,0,0.5-3.2,0.5-3.6c0.2-1.5,0.3-3,0.2-4.5c-0.3,0.4-0.6,0.8-0.9,1.2c0.2,1.2,0.3,2.4,0.4,3.5c0.1,0.8,0.5,4.5,0.7,4.2
				c0.2-0.5,0.1-1.2,0.1-1.7c0.1-1.2,0.1-2.4,0.1-3.6c0-0.2-0.2-1.7,0-1.9c0.3-0.2,0.7,4.3,0.5,2.8c-0.1-0.9-0.1-1.7-0.2-2.6
				c0.1,1.4,0.1,2.8,0.1,4.2c0,0.8,0.4,1.9,0.3,2.6c0.6-2.4,0.1-5.9,0.1-8.2c0,0.8,0,1.6,0,2.4c0.1-1.3,0.1-2.5,0.2-3.8
				c0,0.3-0.1,0.5-0.1,0.8c0.1-0.5,0.2-0.9,0.2-1.4c-0.1,0.7-0.5,1.3-0.6,1.9c-0.2,0.9-0.5,1.5-1.1,2.2c0.3-0.3,0.6-0.6,0.9-0.8
				c-0.4,0.3-0.8,0.6-1.1,1C199.4,144,199.8,144,199.9,143.9L199.9,143.9z"/>
		</g>
	</g>
	<g>
		<g>
			<path class="st12" d="M199.6,142c-0.7,1.4-0.8,2.9-1,4.4c0,0.4-0.5,3-0.2,3.2c0,0,0.6-0.2,0.6-0.3c0.2-1.4,0.2-2.9,0.4-4.3
				c0.1-0.9,0.6-2.1,0.3-3C199.7,142,199.6,142,199.6,142L199.6,142z"/>
		</g>
	</g>
	<g>
		<g>
			<path class="st12" d="M198.3,143.4c-0.4,1.6-0.4,3.1-0.5,4.7c-0.1,1.4-0.3,2.7-0.5,4.1c0-0.1,0.6-0.1,0.6-0.3
				c0.9-2.5,1.2-5.9,0.6-8.5C198.5,143.3,198.3,143.3,198.3,143.4L198.3,143.4z"/>
		</g>
	</g>
	<g>
		<g>
			<path class="st12" d="M201.5,141.5c0.8-0.4,1.1-0.7,1.4-1.6c-0.3,0.3-0.6,0.5-0.9,0.8c0.3,0.6,0.5,1.2,0.7,1.8
				c-0.1-0.3,0.9-0.9,0.9-1.2c0-1.4-0.7,0.2-1,0.7c-0.2,0.3-0.4,0.7-0.5,1.1c-0.8,2.1-0.4,4.6-0.4,6.9c0-0.8,0.1-1.6,0.1-2.4
				c-0.1,1.2-1.2,8.4-0.5,5.2c0.2-0.9,0.3-1.5,0.2-2.4c0,0.8-0.1,1.6-0.1,2.4c0.4-3.1,0.3-6.2,0.7-9.3c-0.1,0.6-0.2,1.2-0.4,1.8
				c0.2-0.8,0.4-1.7,0.5-2.5c-0.2,0.6-0.3,1.2-0.5,1.9c0.2-0.8,0.5-1.7,0.7-2.5c-0.2,0.6-0.4,1.2-0.7,1.8c0.3-0.8,0.6-1.6,0.9-2.4
				c-0.2,0.5-0.5,1.1-0.7,1.6c0.4-0.7,0.7-1.4,1.1-2.2c-0.3,0.5-0.5,1-0.8,1.5c0.2-0.4,0.5-0.8,0.7-1.2c-0.1,0.2-0.2,0.3-0.3,0.5
				c0,0.2,0,0.3,0,0.5c0.3-0.4,0.6-0.8,0.9-1.2c-0.2-0.4-0.4-0.9-0.7-1.3c0,0.1-0.8,0.6-0.9,0.8C202,141.1,201.9,141.3,201.5,141.5
				c0.3-0.2,0.5-0.3,0.7-0.4c-0.3,0.1-0.7,0.3-1,0.4C201.4,141.5,201.5,141.6,201.5,141.5L201.5,141.5z"/>
		</g>
	</g>
	<g>
		<g>
			<path class="st12" d="M202.8,142.6c0.2-0.7,0.1-1.3-0.1-2c-0.2,0.7-0.3,1.4-0.5,2.1c0.3,1.5,0.3,2.7,0.4,4.3
				c0-0.8-0.1-1.7-0.1-2.5c0,1.7,0.1,3.4,0.2,5.1c0-0.7,0-1.5-0.1-2.2c-0.2,0.9-0.4,1.9-0.6,2.8c0.2-0.6,0.5-1.2,0.7-1.8
				c-0.2-1.2-0.2-2.3-0.2-3.6c0.1-1.2,0.1-2.2-0.3-3.3c0.1,0.2-0.9,0.7-0.9,0.9c0,1.9,0.1,3.8,0.1,5.7c0.2-0.6,0.5-1.2,0.7-1.8
				c0-1.6,0.2-3.3,0.4-4.9c-0.3,0.5-0.5,1-0.8,1.6c0.1,0.1,0.1,0.1,0.2,0.2c0-0.1,0.9-1,0.9-1.1c0.1-0.2,0.1-0.4,0.1-0.6
				c0,0.1-0.6,0.2-0.6,0.3c-0.2,0.5-0.3,0.9-0.4,1.4c0.3-0.4,0.6-0.7,0.9-1.1c-0.1-0.2-0.2-0.4-0.3-0.6c0.1,0.3-0.7,1.2-0.8,1.6
				c-0.4,1.7-0.4,3.4-0.3,5.1c-0.1-0.6,0.7-1.2,0.7-1.8c0-1.6,0.1-3.2,0.1-4.9c-0.3,0.3-0.6,0.6-0.9,0.9c0.5,0.8,0.6,1.7,0.7,2.6
				c0.1,0.6,0.2,1.1,0.2,1.7c0,0.3,0,0.6,0,0.9c-0.2,0.7,0,1.2,0.6,1.7c0,0,0,0,0,0c0-2.6-0.2-5.1-0.2-7.7c0,0.8-0.1,1.6-0.1,2.4
				c0.1-1.1,0.2-2.2,0.3-3.4c0,0,0,0,0,0c-0.2,0.8-0.4,1.6-0.7,2.4C202.1,142.9,202.8,142.7,202.8,142.6L202.8,142.6z"/>
		</g>
	</g>
	<g>
		<g>
			<path class="st12" d="M202.4,141.5c-0.1,2-0.2,4-0.4,6c0.1-0.7,0.3-1.4,0.4-2.1c-0.2-1.9-0.1-3.6,0.1-5.5
				c-0.1,0.7-0.2,1.4-0.3,2.1c-0.1,1.3-0.1,2.6-0.1,3.9c0-0.7,0.6-1.3,0.5-2c0-0.8,0-1.6,0-2.5c0-0.2,0.2-1.1-0.2-0.7
				c-0.2,0.2-0.1,0.2-0.2,0.4c-0.3,0.8-0.2,2.6-0.3,3.8c0,0.8,0,1.7,0,2.5c0-0.7,0.3-1.5,0.4-2.1c0.2-1.5,0.2-3.3,0.8-4.8
				C203.2,140.8,202.4,141.1,202.4,141.5L202.4,141.5z"/>
		</g>
	</g>
	<g>
		<g>
			<path class="st12" d="M202.6,142.3c-0.1,2.4,0.3,4.7,0.3,7.1c0.1-0.8,0.2-1.6,0.2-2.3c-0.2,0.9-0.3,1.8-0.5,2.6
				c0-0.2,0.9-0.5,0.8-0.6c-0.3-1.4-0.5-2.8-0.5-4.3c0,0.1,0,0.2,0,0.4c0-1,0.1-2,0.3-3c-0.2,0.6-0.4,1.2-0.6,1.8
				c0.4-0.7,0.6-1.5,0.7-2.3C203.4,141.9,202.7,142.1,202.6,142.3L202.6,142.3z"/>
		</g>
	</g>
	<g>
		<g>
			<path class="st12" d="M202,144.1c0.5-1.7,0.5-3.4,0.7-5.1c-0.2,0.6-0.5,1.2-0.7,1.8c-0.1,2,0.1,4,0.2,6c0.1,1.9,0.7,4.4,0.2,6.2
				c0.1-0.2,0.9-0.5,0.9-0.7c-0.6-4.4-0.4-8.8-0.6-13.3c0,0.5-0.6,1.2-0.7,1.8c-0.3,1.1-0.8,2.4-0.3,3.4
				C201.7,144.2,202,144.1,202,144.1L202,144.1z"/>
		</g>
	</g>
	<g>
		<g>
			<path class="st12" d="M203.2,141.5c0.1-0.3,0.1-0.5,0.2-0.8c-0.1,0.2-0.9,0.5-0.9,0.7c0.3,3.8,1.1,7.6,1.2,11.5
				c0-0.5,0.1-1,0.1-1.5c0,0.9-0.1,1.8-0.2,2.7c0-0.2,0.9-0.6,0.9-0.8c-0.8-4.2-1.4-8.2-1.1-12.5c-0.3,0.2-0.6,0.5-0.9,0.7
				c0.1,0.1,0.2,0.1,0.3,0.2C202.8,141.6,203.2,141.5,203.2,141.5L203.2,141.5z"/>
		</g>
	</g>
	<g>
		<g>
			<path class="st12" d="M199.6,137.7c-0.2-1.4-0.8-2.6-0.8-4c-0.2,0.6-0.4,1.3-0.6,1.9c1,3.8,2.7,7.4,3.4,11.3c0-0.4,0-0.9-0.1-1.3
				c0,1.1,0.1,2.2,0.1,3.4c0.1-0.8,0.1-1.5,0.2-2.3c-0.1,1.2-0.6,3.2-0.5,4.6c0-0.1,0.7-0.2,0.7-0.4c0.4-5.6-1.6-12-3.3-17.3
				c0.1,0.5-0.6,1.4-0.6,1.9c-0.1,1.4-0.1,1.8,1.3,2.1C199.5,137.7,199.6,137.7,199.6,137.7L199.6,137.7z"/>
		</g>
	</g>
	<g>
		<g>
			<path class="st12" d="M198.3,136.8c1,2.9,2.9,5.2,4.8,7.6c-0.3-0.3,0.5-1.7,0.4-2.2c-0.1-0.6-0.5-0.3-1,0.9
				c0.1,0.5,0.3,0.9,0.6,1.3c0.1-0.7,0.3-1.4,0.4-2.2c-1.6-1.9-2.9-3.9-4.7-5.6C198.8,136.6,198.3,136.9,198.3,136.8L198.3,136.8z"
				/>
		</g>
	</g>
	<g>
		<g>
			<path class="st12" d="M201.1,142c0.2-0.8,0.4-1.6,0.5-2.4c-0.2,0.6-0.5,1.1-0.7,1.7c0.4,1.6,1,3,1.3,4.6
				c-0.1-0.9-0.1-1.7-0.2-2.6c0,1.6-0.1,3.3-0.2,4.8c0.1-0.8,0.1-1.6,0.2-2.3c-0.1,0.2-1.1,2.1-0.7,2.1c0.1,0,0.3-0.2,0.3-0.2
				c0,0,0.2-0.2,0.2-0.1c0.1,0.1-0.2,0.5-0.1,0.6c0.1,0.1,0.4-0.9,0.4-0.9c0.3-2.4-0.6-5-0.7-7.4C201.5,140.5,200.9,141.4,201.1,142
				L201.1,142z"/>
		</g>
	</g>
	<g>
		<g>
			<path class="st12" d="M201,140.7c0.1-0.1,0.1-0.2,0-0.2c0,0.1-0.8,0.7-0.9,0.8c-0.5,1.6,0.3,4.8,0.5,6.3c0-0.9-0.1-1.7-0.1-2.6
				c-0.1,4.1-0.4,8.2-0.8,12.2c0.1-0.7,0.1-1.3,0.2-2c-0.3,1-0.6,2.1-0.9,3.1c0.3-0.5,0.5-1,0.8-1.5c-0.4,0.7-0.8,1.4-1.2,2.1
				c0.1-0.2,0.6-0.2,0.7-0.4c0.6-2,1.3-3.7,1.5-5.8c0.2-2.9-0.1-6.1-0.2-9c0,0.6-0.1,1.2-0.1,1.8c0,0.1,0-4.5,0.5-5.1
				c-0.3,0.3-0.6,0.5-0.9,0.8c0,0,0,0,0.1,0.1C200.4,141.2,200.9,141,201,140.7L201,140.7z"/>
		</g>
	</g>
	<g>
		<g>
			<path class="st12" d="M199,149.9c0.1-2,0.2-4,0.1-6.1c-0.2,0.6-0.4,1.2-0.7,1.8c0.2,1.4,0.3,2.8,0.4,4.2c0-0.8-0.1-1.7-0.1-2.5
				c-0.4,4.2-0.4,8.5,0,12.7c-0.1-0.8-0.1-1.6-0.2-2.4c0,1.3,0,2.5,0,3.8c0.1-0.8,0.1-1.6,0.2-2.4c-0.2,1.1-0.4,2.2-0.5,3.2
				c0.3-0.5,0.5-1,0.8-1.5c0.1-3-0.3-6.1-0.7-9.1c0.1,0.5-0.9,1.1-0.8,1.6c0.3,0.9,0.3,1.8,0.1,2.7c0.2-0.6,0.3-1.2,0.5-1.9
				c0.1-0.4,0.2-0.8,0.4-1.2c0,0.1-0.5,0.1-0.6,0.2c-0.5,0.9-0.6,1.9-0.3,2.9c-0.1-0.6,0.5-1.4,0.6-2c0.1-0.8,0.1-1.5,0.1-2.3
				c-0.3,0.5-0.5,1-0.8,1.6c0.4,3,0.5,6,0.7,9c0-0.5,0.9-1,0.8-1.5c-0.1-1-0.3-2.1-0.4-3.1c0.1,0.9,0.1,1.7,0.2,2.6
				c0.9-4.5,0.1-9.5,0.1-14.1c0,0.8-0.1,1.5-0.1,2.3c0.1-1.5,0.2-3,0.3-4.5c-0.1,0.6-0.5,1.2-0.7,1.8c-0.3,1.5-0.1,3.1-0.1,4.6
				C198.3,150.2,199,150,199,149.9L199,149.9z"/>
		</g>
	</g>
	<g>
		<g>
			<path class="st12" d="M198,151.4c-0.6,1.3-1.1,2.6-1.5,4c0.2-0.5,0.6-0.9,0.8-1.5c0.4-1.1,0.9-2,1.4-3
				C198.7,151.2,198.2,151.2,198,151.4L198,151.4z"/>
		</g>
	</g>
	<g>
		<g>
			<path class="st12" d="M195.5,153c-0.4,1.4-0.7,2.8-1.1,4.1c0,0.3,0,0.5,0,0.8c0.5-0.2,1.2-3.7,1.4-4.1c0.1-0.5,0.3-1,0.3-1.4
				c0-0.8,0.2-0.7-0.4-0.3c-1,0.8-1.5,2.1-2,3.2c-0.2,0.5-0.5,1.1-0.4,1.6c0.1,1.5,2.7,3.3,3.8,4.2c1.4,1.2,3.1,2.3,5,2.6
				c0.5,0.1,0.9,0.2,1.4,0.1c0.4-0.1,2.2-0.9,2.1-1.2c-0.2-0.8-2.5-0.9-3.1-1.1c-2-0.5-3.7-1.5-5.2-2.8c-1.1-1-3.3-2.4-3.3-4
				c-0.2,0.6-0.4,1.2-0.6,1.7c0.3-0.8,0.5-1.5,0.8-2.3c-0.2,0.6-0.4,1.2-0.7,1.8c0.2-0.5,1-2.3,1.6-2.5c0.4-0.4,0.4-0.3,0.2,0.6
				c-0.1,0.8-0.2,1.6-0.5,2.4c0.2-0.6,0.4-1.3,0.6-1.9c-0.2,0.4-0.5,0.8-0.8,1.2c-0.1,0.8-0.2,1.6-0.2,2.3c0.2-1.2,0.4-2.4,0.6-3.6
				c-0.2,0.7-0.3,1.3-0.5,2c0.3-0.9,0.5-1.7,0.8-2.6c-0.2,0.6-0.4,1.2-0.6,1.8c0.4-1,0.9-2,1.3-3c-0.3,0.5-0.5,1-0.8,1.5
				C197.1,151.3,196.3,152.1,195.5,153L195.5,153z"/>
		</g>
	</g>
	<g>
		<g>
			<path class="st12" d="M194.9,154.6c-1.2,8.4,10.7,10.9,17,10c0,0-0.3-2.7-0.4-2.7c-3.9-0.3-11.2-1-13.5-4.8c0,0.8,0,1.6,0,2.5
				c5.2,3.3,10.7,4.1,16.7,3.1c-0.1,0-0.4-2.7-0.5-2.7c-2,0-5.6-0.6-6.2-2.9c0.2,0.9,0.4,1.8,0.6,2.7c0.6-1.1,1.1-0.6,2.1-1.2
				c1.3-0.8,1.2-2.1,1.1-3.4c0-0.3-0.4-2.7-0.5-2.8c-1.5-0.1-2.6-0.5-3.9-1.3c-0.1,0.7-0.3,1.5-0.4,2.2c1.4,0.1,4.9-0.2,6,0.6
				c0.7,0.5,1.2,2.2,1.8,3c-0.5-0.7-0.6-2-0.9-2.9c-0.4-0.9-0.7-1.9-1.1-2.8c0.3,0.8,0.6,1.6,0.9,2.5c0.1,0.1,0.3,0.3,0.4,0.4
				c-0.2-0.9-0.4-1.8-0.6-2.8c1.1,7.9,0.7,0.4-0.9-0.5c0.4,0.2,0.8,2.3,1,2.8c0.4,1.1,0.8,2.1,1.1,3.2c-0.3-0.9-0.6-1.9-0.9-2.8
				c-0.2-0.3-0.3-0.5-0.5-0.8c0.2,0.6,0.4,1.2,0.6,1.8c-0.3-0.9-0.5-1.7-0.8-2.6c0.2,0.9,0.4,1.8,0.6,2.7c-0.2-1.2-0.4-2.4-0.6-3.6
				c0.1,0.6,0.1,1.1,0.2,1.7c-0.3-2.5,0.2-2-1.8-2c-1.4-0.1-2.7-0.1-4.1-0.2c0,0-0.5,2.1-0.4,2.2c1.6,0.9,3,1.5,4.9,1.9
				c-0.2-0.9-0.3-1.8-0.5-2.8c0,1.4,0,2.6-1.2,3.4c-0.7,0.4-1.4,0.1-1.9,0.8c-0.4,0.5,0,1.1,0.1,1.7c0.5,3.2,3.2,4.5,6.4,4.3
				c-0.2-0.9-0.3-1.8-0.5-2.7c-5.6,1.5-11.3,0.3-16.1-2.8c0.4,0.2-0.3,2.1,0,2.5c2.8,3.9,9.5,4.6,13.9,5c-0.1-0.9-0.2-1.8-0.4-2.7
				c-5.4,0.4-15.6-0.3-16.1-7.5C195.5,154.4,194.9,154.5,194.9,154.6L194.9,154.6z"/>
		</g>
	</g>
	<g>
		<g>
			<path class="st12" d="M213.6,151.7c0.9,1.7,0.3,4,1.3,5.8c0.5,0.9,1,1.7,1.4,2.6c-0.1-0.2-0.2-0.5-0.3-0.7
				c0.2,0.6,0.4,1.2,0.6,1.8c-0.3-0.9-0.6-1.8-0.8-2.7c0.3,1.4,0.6,2.8,0.9,4.2c-0.2-0.9-0.3-1.8-0.5-2.7c0,0.5,0.1,0.9,0.1,1.4
				c0-0.2,0-0.4-0.1-0.7c-1.2-2.9-3.1-5.7-3.8-8.7c0.2,0.9,0.3,1.8,0.5,2.7c0.3-1.4,0.7,0.5,1,1.1c0.5,0.9,0.9,1.7,1.4,2.6
				c0.9,1.6,2.1,3.1,2.9,4.7c0-0.1-0.1-0.3-0.1-0.4c-0.6-3.4-1.6-5.4-3.7-8c0.4,0.5-0.1,1.9,0.1,2.6c0.7,2.3,2.8,3.9,4.5,5.5
				c-0.4-1-0.9-1.9-1.3-2.9c-3.3,0.2-6.3-0.6-8.9-2.8c0.4,1,0.7,1.9,1.1,2.9c2.7,1.9,5.6,2.7,8.8,3c-0.5,0-0.6-2.8-1.1-2.9
				c-2-0.4-3.6,0.3-5.5,0.6c-1.9,0.2-3.6,0-5.4-0.6c0.5,1,1,1.9,1.5,2.9c1.6,0.5,9.7,3.1,10.4,0.9c0.1-0.2-1.5-2.9-1.5-2.9
				c-2.1,0.3-4.2,0.5-6.3,0.6c-1.3,0-3.6,0.3-4.6-0.7c0.4,1,0.8,1.9,1.2,2.9c1.6-0.3,4.1,1,5.9,1.2c2.2,0.3,4.4,0.1,6.6-0.2
				c-0.3,0.1-1-2.8-1.4-2.9c-1-0.4-1.5-0.9-2-1.8c0.5,1,1.1,1.9,1.6,2.9c-0.6-1.2-0.8-1.6,0.1-0.3c0.6,0.8,1.2,1.5,1.8,2.2
				c-0.5-1-1-1.9-1.5-2.9c-0.5-0.4-3-2.9-2.7-3.6c-0.1,0.3,0.8,1.8,0.9,2c1,2.1,2,3.7,4.1,4.9c-0.8-0.4-0.7-2.5-1.5-2.9
				c-1.4-0.8-2.4-1.7-3.1-3.2c0.5,0.9,0.9,1.9,1.4,2.8c-0.7-1.8,0.4,0.5,0.7,0.9c0.5,0.8,1.1,1.4,1.8,2c-0.8-0.6-0.8-2.2-1.5-2.9
				c-0.8-0.8-1.5-1.7-2.2-2.5c-1-1.1-0.2,0.1,0.1,0.8c0.8,1.6,1.6,3.8,3.4,4.5c-0.5-1-0.9-1.9-1.4-2.9c-2,0.4-4.1,0.5-6.1,0.3
				c-2-0.2-4.2-1.4-6.1-1.3c0.3,0,0.8,2.7,1.2,2.9c1.4,1,3.4,0.7,5,0.7c2.1,0,4.2-0.2,6.2-0.5c-0.5-1-1-1.9-1.5-2.9
				c-0.7,2.1-8.8-0.5-10.4-0.9c0.7,0.2,0.7,2.7,1.5,2.9c1.8,0.6,3.6,0.9,5.4,0.6c1.7-0.2,3.3-1,5-0.6c-0.4-1-0.7-1.9-1.1-2.9
				c-3.2-0.2-6.1-1.4-8.9-3c0.7,0.4,0.4,2.4,1.1,2.9c2.7,1.9,5.7,3,9.1,2.8c-0.2,0-1.1-2.6-1.3-2.9c-1.2-1.5-2.9-3.2-3.2-5.2
				c0,0.9,0.1,1.7,0.1,2.6c1.2,1.9,2.3,4,3.6,5.9c-0.2-0.9-0.3-1.8-0.5-2.7c-1.5-1.5-2.7-3.4-3.7-5.3c-0.5-0.9-0.8-2.1-1.3-3
				c-0.3-0.4-0.4-1.7-0.4-0.1c0,1.4,0.6,3.3,1,4.5c0.2,0.5,2.2,5.9,2.5,5.8c0.9-0.2,0.3-2.2,0.1-2.7c-0.8-2.4-2.1-4.6-2.8-7
				c0.2,0.9,0.4,1.7,0.5,2.6c-0.2-1.1-0.4-2.1-0.6-3.2c0.2,0.9,0.3,1.8,0.5,2.7c-0.1-1.1-0.2-2.2-0.4-3.4c0.1,0.9,0.1,1.7,0.2,2.6
				c0.1-4.9,0.2-4.1,0-3C213.6,151.2,213.5,151.6,213.6,151.7L213.6,151.7z"/>
		</g>
	</g>
	<g>
		<g>
			<path class="st12" d="M217.6,161.1c0.5,1.5,1.1,2.9,1.7,4.3c0.1-0.8,0.2-1.6,0.2-2.3c-0.7-1.6-1.5-3-2.4-4.4
				c0.3,0.4-0.8,1.6-0.5,2c1.4,2.3,2.9,4.1,5,5.9c-0.5-0.4,0.3-2.1-0.2-2.6c-2.7-3.1-5.1-6.4-7.2-10c0.3,0.5-0.7,1.7-0.4,2.1
				c2,3.4,4,6.8,5.9,10.2c-0.1-0.9-0.2-1.8-0.3-2.7c-4.1-2.1-8.4-3.9-12.8-5.1c-3.7-1-8.1-1.1-10.3-4.7c0.5,1,1,1.9,1.5,2.9
				c-0.2-0.5,3.9,2.5,4.2,2.8c1.3,1.1,2.6,2.1,4.1,3c3.6,2.2,7.5,3.2,11.7,3.6c-0.5,0-0.7-2.7-1.3-2.9c-7.3-2.1-16-2.2-21.4-8.2
				c0.2,0.9,0.5,1.9,0.7,2.8c0.1,0,0.3-0.1,0.4-0.1c0,0-0.4-2.5-0.4-2.7c-0.4-0.9-0.6,2.5-0.3,3.4c1.1,3.5,6.2,4.8,9.2,6
				c3.5,1.4,7.7,3.5,11.5,3.3c-0.3-0.9-0.6-1.9-0.8-2.8c-1.1,0.2-2.1,0.1-3.3,0.3c-0.1,0-0.8,0.8-0.9,0.7c1.9,1.6,2.5,1.8,4.9,1.8
				c-0.2,0-0.6-2.8-0.8-2.8c-3.7,0.2-8-1.9-11.4-3.3c-3.1-1.2-7.7-2.5-8.7-5.9c0.1,0.9,0.2,1.8,0.3,2.7c0.1-1.4,0.3-1.6,0.8-0.7
				c-0.1-0.9-0.3-1.8-0.4-2.7c-0.2,0-0.5,0-0.7,0.1c0.2,0,0.5,2.6,0.7,2.8c6.2,5.8,14.2,6,22,8.3c-0.4-1-0.8-1.9-1.3-2.9
				c-6.5-0.6-11.1-3.3-16-7.4c-0.9-0.7-2.4-2.5-3.5-2.6c-1-0.1-0.8-1.4-0.6,0.7c0.1,0.5,0.6,1.1,0.8,1.6c1.2,2.7,3.1,4,6,4.8
				c5.8,1.6,11.2,3.1,16.5,6c-0.4-0.2-0.1-2.2-0.3-2.7c-1.8-3.2-3.5-6.4-5.2-9.7c-0.1,0.7-0.3,1.4-0.4,2.1c2.2,3.8,4.7,7.3,7.8,10.5
				c-0.1-0.9-0.1-1.7-0.2-2.6c-1.8-1.6-3.1-3.3-4.3-5.3c-0.2,0.7-0.3,1.4-0.5,2c1.1,1.6,1.9,2.9,2.7,4.7c-0.3-0.6,0.5-1.7,0.2-2.3
				c-0.6-1.3-1-2.6-1.4-4C218.3,159.6,217.4,160.5,217.6,161.1L217.6,161.1z"/>
		</g>
	</g>
	<g>
		<g>
			<path class="st12" d="M197.8,159.1c2.9,3.6,7.3,6.1,11.5,8.1c2.1,1,4.3,1.7,6.6,2c1.6,0.2,6,0.9,7.3,0c1-0.6,0.5-0.4,0.2-1.6
				c-0.1-0.4-0.5-0.9-0.7-1.3c-0.9-1.7-1.7-2.8-3.7-3.4c0.5,0.2,1.2,2.4,1.5,2.9c0.2,0.4,2.7,4.3,1.6,1.7c-0.2-0.5-0.7-1.1-1-1.6
				c-1.2-1.9-3.6-3.6-4.4-0.2c0.7,0.9,1.4,1.9,2.1,2.8c0.1-1.1,0.1-2.3-0.1-3.4c-0.1-0.4-2.3-2.6-2.1-2.8c-0.8,0.6-1.1,1.3-0.9,2.3
				c0.6,1,1.3,1.9,1.9,2.9c-0.3-2.7-1.4-4.1-3.5-4.3c0.3,0.1,1,2.5,1.2,2.9c0.7,1.4,1.1,1.7,2.5,1.9c0,0,0,0,0-0.1
				c-0.1-0.1-2.4-6.9-3.7-4.3c-0.2,0.3,0.1,0.7,0.1,1.1c0,0.9,0.5,2,1,2.7c-0.2-0.9-0.5-1.9-0.7-2.8c-1-1.1-1.6-1.4-3.1-1.7
				c0.2,0-0.3,2.3-0.1,2.5c1.6,1.4,11.1,6.2,11.5,2c-0.6-1-1.2-1.9-1.8-2.9c0,1,0.8,2.5,1.4,3.3c2.1,2.5,1.5,0.2,0.9-1.2
				c-2.6-5.5,2.1,5.4,2.2,2.4c0-0.3-2.3-2.7-2.2-2.8c-4.5,3.7-13,0-17.5-1.8c-2.4-1-5.5-0.7-7.7-1.9c-2.4-1.2-3.7-3.6-6.3-4.8
				c0.5,1,1.1,1.9,1.6,2.9c2.2-0.5,4.9,2.7,6.8,3.8c2.5,1.5,5.1,2.8,8,3.3c-0.2,0-0.2-2.4-0.3-2.7c-0.8-1.8-5.6-2.6-7.3-3.3
				c-3.1-1.2-5.8-2.5-8.2-4.9c0.5,0.9,1,1.9,1.4,2.8c-0.5-1.1-1.1-2.2-1.6-3.3c0.4,0.9,0.9,1.9,1.3,2.8c1.5-1.8,1-0.8,1.3-4.4
				c-0.1,0.8-0.2,1.5-0.2,2.3c0.8-0.7,1.9-0.9,2.4-1.9c0.2-0.4-0.2-2.3,0.1-2.4c-3.2,1.5-4.2,4.9-2.2,7.9c-0.4-0.6,0.2-2.1-0.3-2.6
				c-0.3-0.3-0.5-0.6-0.8-0.9c0.2,0.9,0.3,1.8,0.5,2.7c-0.1-2.2,1-3.3,2.6-4.6c0-0.8,0.1-1.6,0.1-2.4c-0.9,1.8-3.9,2.3-4.8,4
				c-0.1,0.2,1.2,2.7,1.5,2.9c2.3,2.2,4.8,3.6,7.7,4.8c1.8,0.7,5.5,1.4,6.6,3.1c-0.1-0.9-0.2-1.8-0.3-2.7c-3.3-0.7-6.3-1.8-9.2-3.5
				c-1.8-1.1-4.7-4.3-6.8-3.8c0.3-0.1,1.2,2.7,1.6,2.9c2.6,1.2,4,3.5,6.3,4.8c2.1,1.2,5.5,1.2,7.8,1.9c3.4,1.1,6.8,1.5,10.3,1.9
				c2,0.2,6.2,1.4,7.7-0.1c-0.7-0.9-1.5-1.9-2.2-2.8c0.4,1.2,0.2,1.1-0.6-0.2c0.6,1,1.1,1.9,1.7,2.9c-0.8-1.5-0.8-1.7-0.1-0.7
				c-0.5-1-1-1.9-1.5-2.9c-0.1,1.4-1.1,0.5-1.7-0.2c0.5,1,1,1.9,1.6,2.9c0.1-0.2,0.2-0.4,0.3-0.6c0.3-0.6-2.1-2.3-1.8-2.9
				c-1.8,3.6-7.6,0.3-9.6-1.6c0,0.8,0,1.6-0.1,2.5c1.7,0.4,2.6,0.9,3.9,2c-0.6-0.5-0.2-2.2-0.7-2.8c-0.1-0.2-0.3-0.4-0.4-0.6
				c0.3,0.9,0.5,1.9,0.8,2.8c0.2-1.5,1.6-0.5,2.5,0c-0.4-1-0.8-1.9-1.2-2.9c0.9,2.7-1.7-0.1-2-0.8c0.4,0.9,0.8,1.9,1.1,2.8
				c3.6,2.1,1.6,1.1,3.5-1c-0.7-0.9-1.4-1.9-2.1-2.8c0.2,1.1,0.3,2.3,0.2,3.4c0,0.8,2.3,2,2.1,2.8c0.4-2.1,1.9-2.5,3.3-1
				c-0.6-1-1.2-1.9-1.8-2.9c-0.2-0.1-0.4-0.3-0.6-0.4c0.3,0.5,0.5,1,0.8,1.4c-0.5-0.9-1.1-1.9-1.6-2.8c0.5,0.9,1,1.9,1.5,2.8
				c1.5,0.5,2,0.9,3,2.2c-0.5-1-1-1.9-1.5-2.9c0.6,1.6,0.1,1-1.3,1.3c-1.2,0.3-2.8,0.1-4.1,0.1c-2.3-0.1-4.6-0.5-6.7-1.4
				c-3.8-1.6-8.2-4.1-11.2-6.9C198.7,158.1,197.8,159.1,197.8,159.1L197.8,159.1z"/>
		</g>
	</g>
	<g>
		<g>
			<path class="st11" d="M192,162.2c-0.5-0.6-1.1-0.7-1.7-0.1c0.1,0,1,2.8,1.2,2.9c8.4,5.2,17.5,8.3,27.5,8.3
				c-0.7,0-1.3-2.6-2.1-2.8c-4.2-1.1-8.5-2.2-12.7-3.3c-3.3-0.8-8.1-1.1-10.4-3.8c0.5,1,1.1,1.9,1.6,2.9c-0.2-2,3-0.7,4.5-0.3
				c2.3,0.6,4.5,1.6,6.9,2.1c5,1.1,9.9,0.7,14.7-0.9c-0.3,0.1-1.2-2.9-1.6-2.9c-8.8,0.3-17.5,0.5-26-2c0.5,1,1,1.9,1.5,2.9
				c7.6,1.5,15.2,2.4,22.9,2.6c-0.4,0-1-2.6-1.5-2.9c-3.2-2.3-6.6-1.9-10.3-2c-4.1,0-7.9-0.9-11.6-2.6c0.3,1,0.7,1.9,1,2.9
				c6,0.2,12.6-0.3,18.4,0.9c4.9,1,7.4,5.2,9.6,9.3c-0.4-1-0.9-1.9-1.3-2.9c-1.7-1.5-8-8.8-10.1-6.1c-1.2,1.6,1.2,5.7,2,7.2
				c1.6,3.1,3.6,5.9,6.3,8.2c-0.1-0.1-0.2-0.4-0.3-0.4c-2.1-3.4-4.2-6.8-6.7-9.9c-0.7-0.9-1.4-1.7-2.1-2.6c-0.7-0.9-1.4-2.6-1.4-1.1
				c0,1.8,1.7,4.5,2.5,6.1c1.8,3.8,4.1,7.2,6.7,10.5c0.7,0.9,1.7,1.7,2.3,2.7c-1.6-2.7-3.8-5.2-5.4-7.9c-1.5-2.6-1.3-0.6-0.6-1.4
				c0.1-0.1,4.2,2.9,4.4,3c1.1,1.4,1.6,1.5,1.6,0.2c0.2-0.8,0.3-1.6,0.3-2.5c0.1-1.8-0.4-3.3-0.7-5c-0.4-2.5-0.7-1.8,0.9-0.6
				c1.7,1.3,3.1,3.3,4.6,4.9c-0.7-0.9-1.4-1.9-2.2-2.8c-1.6-0.6-2.3-1.2-3.4-2.4c0.7,0.9,1.4,1.9,2,2.8c-1.5-2.1-2.7-4.3-4.2-6.3
				c-1.1-1.4-2.3-3-4.2-3.1c-3.2-0.3-3.7,2.4-2.6,4.8c0.4,1,1,2,1.7,2.9c0.9,1.3,3.8,4.5,5.7,3.4c1.6-0.9,0-4.6-0.5-5.9
				c-0.5-1.2-1.2-3.1-1.9-4.1c-2.2-2.8-0.7,3.2-0.1,4.8c0.2,0.6,1.7,4.3,2.7,3.8c0.9-0.4,0-2.9-0.2-3.7c-0.6-1.9-1.5-3.7-3.2-4.8
				c0.6,0.3,0.7,2.3,1.1,2.9c1.3,2,2.6,3.5,4.4,5c-0.7-0.6-0.4-2.2-1-2.9c-3.7-4.1-8.8-5.7-14.2-6c-5.2-0.3-12,2.1-15.6-2.9
				c0.4,1,0.8,1.9,1.2,2.9c-0.7-2.1,0.8-1.1,2.4-1c1.3,0.1,2.6,0.2,3.9,0.3c3.2,0.3,6.4,0.5,9.6,0.8c4.8,0.4,9,0.3,12.4,4.1
				c-0.7-0.9-1.5-1.8-2.2-2.7c3.5,4.6,6.1,11,11.5,13.9c-1-0.5-1.4-2.2-2.4-2.8c-1.4-0.7-2.4-1.5-3.4-2.7c0.7,0.9,1.5,1.7,2.2,2.6
				c-2.9-3.5-4.9-7.6-7.8-11c-2.5-2.8-5-3.6-8.7-3.9c-5.5-0.5-11.8-2-17.3-1.6c-2,0.1-1.6-0.4-1.3,1.4c0.1,0.5,0.4,1.1,0.6,1.5
				c1,2,2.3,3.4,4.5,4c4.5,1.2,9.6-0.4,14.2,0.3c4.4,0.7,8.3,2.4,11.3,5.8c-0.3-1-0.7-1.9-1-2.9c-1.8-1.5-3.2-3-4.5-5
				c0.4,1,0.7,1.9,1.1,2.9c1.2,0.7,1.6,1.2,2.3,2.3c-0.4-1-0.8-1.9-1.2-2.9c0.9,3.4-0.7,4-2.4,0.2c0.4,0.9,0.8,1.9,1.2,2.8
				c-0.2-0.8-0.7-2.6,0-3.2c0.1-0.8,0.3-0.8,0.6,0c0.4,0.6,0.8,1.2,1.1,1.9c-0.4-0.9-0.9-1.9-1.3-2.8c0.5,1.4,2.1,5.3-0.1,6
				c-1.9,0.6-4.5-2.5-5.4-3.6c0.6,1,1.1,1.9,1.7,2.9c-1-2-0.9-4.2,1.6-4.8c2.3-0.6,4.1,1.3,5.4,2.9c-0.7-1-1.3-1.9-2-2.9
				c2,3.2,4.1,7.6,7.9,9c-0.8-0.3-1.6-2.2-2.2-2.8c-1.8-1.8-3.5-3.6-5.3-5.4c-0.4-0.4-0.8-0.8-1.2-1.2c-0.7-0.9-0.8-0.8-0.2,0.1
				c0.1,1.2,1.1,2.8,1.3,4c0.2,1.1,0.8,6-0.3,6.7c-0.5,0.3-6.4-4.5-7.2-5c0.1,0.1,0.1,0.1,0.2,0.2c2.9,3.1,5.3,6.4,7.5,10
				c0.8,0.9,1.5,1.8,2.3,2.7c-3.1-3.9-5.8-8.1-7.9-12.6c-0.2-0.4-2.1-4.3-1.8-4.6c0.1-0.1,7.2,9,5.8,8.1c-1.5-1-5.4-6.6-3.9-8.7
				c1.8-2.7,8.3,4.7,9.9,6.1c-0.6-0.6-0.9-2.1-1.3-2.9c-2.1-4.1-4.6-8.3-9.5-9.3c-5.8-1.2-12.4-0.6-18.2-0.8c0.4,0,0.6,2.7,1,2.9
				c3.8,1.7,7.6,2.6,11.8,2.7c3.8,0,7.3-0.3,10.6,2c-0.5-1-1-1.9-1.5-2.9c-7.7-0.3-15.3-1.1-22.9-2.6c0.7,0.1,0.8,2.7,1.5,2.9
				c8.5,2.5,17.2,2.4,26,2c-0.5-1-1.1-1.9-1.6-2.9c-6.4,2.1-12.3,1.8-18.6-0.3c-0.8-0.3-7.1-2.6-7.6-1.7c-0.4,0.6,0.4,1.4,0.6,2
				c0.9,2,2.1,3.1,4.1,3.9c6.5,2.4,13.9,3.5,20.6,5.1c-0.7-0.9-1.4-1.9-2.1-2.8c-9.6,0.1-18.9-2.5-26.6-8.3c0.4,1,0.8,1.9,1.2,2.9
				c0.5-0.6,1-0.5,1.4,0.1C192.4,164.6,192.7,162.6,192,162.2L192,162.2z"/>
		</g>
	</g>
	<g>
		<g>
			<path class="st11" d="M218.3,165.7c-0.8-0.4-1.4-1-1.9-1.8c0.1,0.2-1,1.3-0.8,1.5c3.2,4.1,7.1,7.6,10.7,11.4
				c-0.5-1-1-1.9-1.6-2.9c-1.3-1.2-2.7-2.5-3.7-4c-1.7-2.5-0.9-2.1,0.5-0.3c0.6,0.7,1.2,1.4,1.9,2.1c0.8,0.8,1.2,1.7,1.6,0.8
				c0.4-0.9-0.4-2.4-0.7-3.2c-0.4-0.9-0.9-1.7-1.4-2.5c-0.4-0.7-1.4-3-1.2-1.5c0.2,2,1.9,4.5,2.7,6.4c0.4,1,1.2,1.9,1.6,2.9
				c-0.8-2-1.8-3.9-2.8-5.7c-0.4-0.8-0.9-1.6-1.4-2.3c-0.2-0.3-1.8-2.4-2.2-2.2c0,0,1.3,2.7,1.3,2.7c0.9,1.8,1.9,3.6,2.8,5.4
				c1,1.7,2,3.4,3.1,5c0.2,0.3,2.3,3.5,2.6,3.5c0.1,0,0.3-4.6,0.4-4.8c0-0.3-1.4-2.9-1.4-2.9c-7.3,1.5-14.5,3.4-20.2,8.3
				c-0.3,0.2-0.6,1.2-0.9,1.3c7.6-1.9,14.8-5.1,22.5-6.7c-0.5-1-1-1.9-1.4-2.9c-0.1,1.1-0.2,2.1-0.3,3.2c0.2,2-0.1,2.1-1,0.4
				c-1.2-0.9-2.2-3-3-4.2c-0.7-1-5.1-7.5-2-4.7c1.2,1.1,1.7,2.3,2.3,3.7c0.5,1,1.1,1.9,1.6,2.9c-0.6-1.4-1.2-2.8-1.8-4.3
				c-0.4-1.1-2.4-5.4,0.1-1c-0.5-0.9-1-1.8-1.5-2.7c0.4,0.7,0.6,1.5,0.6,2.4c0.3,1.6,0,1.7-1.1,0.3c-1.7-0.9-3.4-4-4.3-5.5
				c0,0,0,0,0-0.1c1.8,4.8,4.5,9.5,8.4,13c-0.8-0.7-0.8-2.1-1.6-2.9c-3-3.2-5.4-6.8-8.4-10c-0.3,0.5-0.5,1-0.8,1.5
				c0.9-0.3,1.7-0.2,2.5,0.3C218.1,165.8,218.2,165.7,218.3,165.7L218.3,165.7z"/>
		</g>
	</g>
	<g>
		<g>
			<path class="st13" d="M189.4,175.7c1,0.7,7.3-1.6,8.4-1.8c3.1-0.5,6.3-0.9,9.5-1c6.2-0.2,11,0.2,16.5,3c-1.1-0.8-2.1-1.6-3.2-2.4
				c0.7,0.6,3.8,5.1,5.2,2.2c1.5-0.9,1.2-1.4-0.8-1.5c-0.7-0.1-1.4-0.3-2.1-0.4c-2.9-0.5-5.1-2.1-8-2.8c-5.4-1.3-11.8-0.6-17.3,0
				c-2.5,0.3-5.8,0.3-8.2,1.4c-1.5,0.7-2,0.8-1.2,2.4c3.1,6.1,0.1,1.2,0.6,1.2C188.9,175.9,189.3,175.6,189.4,175.7L189.4,175.7z"/>
		</g>
	</g>
	<g>
		<g>
			<path class="st13" d="M189.8,183.5c12.5,3.2,26.7,2.2,37.1-6.2c-0.6-1-1.3-1.9-1.9-2.9c-0.9,1.3-4.1,5.5-5.4,3.4
				c0.5,1,1,1.9,1.5,2.9c0.4-2.4,1.6-4.9,2.4-7.2c-0.3-0.9-0.6-1.9-0.9-2.8c-0.1,1-0.6,1.8-1.4,2.4c0.2,0.7,0.4,1.4,0.6,2.1
				c-1.6-6.2-4-11.1-9.6-14.7c0.4,0.3,0,2.2,0.3,2.7c2.9,4.6,6.3,8.7,10.1,12.5c-0.6-0.6-0.4-2.1-0.9-2.8c-2.5-4.4-5.4-8.2-9.1-11.6
				c0.5,0.4,0.2,2.1,0.4,2.7c2.3,5,8.2,6.5,10.7,11.3c-0.3-0.9-0.6-1.9-0.9-2.8c0,0.1-2.2-1.5-2.3-1.6c-1.1-1-2.1-2.2-3-3.4
				c-1.8-2.1-3.4-4.3-4.9-6.5c0.4,1,0.8,1.9,1.2,2.9c4.5,2.8,8.5,6.3,11.7,10.6c0.6,0.8,2.8,4.3,1.2,1.1c-0.3-0.5-0.6-1-0.9-1.5
				c-0.2-0.4-0.4-0.8-0.7-1.2c-0.4-0.5-0.8-1.4-1.5-1.6c-1.3-0.5,0,0.8-0.3,2c-1.1,5.2-8.9,5.1-12.1,7.9c-0.1,0.1-0.8,1-0.9,0.9
				c3.8,0.9,8.7-0.4,11.8-2.8c1-0.7,2.2-1.9,2.5-3.2c0.3-0.8,0.2-1.6-0.1-2.4c0.9,0.5,1.6,1.1,2.2,2c-0.6-1-1.1-1.9-1.7-2.9
				c-1.9-4.5-8.3-9.2-12.4-11.8c0.6,0.4,0.8,2.2,1.2,2.9c3,4.5,6.5,8.6,10.4,12.4c0-0.1,0-0.1-0.1-0.2c-0.9-2.9-1.5-4.9-3.8-7.1
				c-2.8-2.6-6.1-4.1-7.7-7.8c0.1,0.9,0.3,1.8,0.4,2.7c3.7,3.5,6.9,7.4,9.5,11.8c-0.3-0.9-0.6-1.9-0.9-2.8
				c-3.6-3.8-6.8-7.9-9.5-12.3c0.1,0.9,0.2,1.8,0.3,2.7c4.7,3,8,7.2,9.5,12.6c0,0.1,0,0.1,0.1,0.2c0.8-0.6,1.3-1.3,1.5-2.3
				c0.3-0.7-1.2-2.2-0.9-2.8c-1.4,3.1-3.6,5.6-2.2,8.8c0.1,0.3,0.4,1,0.6,1.3c1.9,1.6,4.5-1.9,5.9-3.5c0.1-0.1-2-2.8-1.9-2.9
				c-10.5,6.9-23.5,10.6-35.8,6.3C189.7,180.9,189.4,183.4,189.8,183.5L189.8,183.5z"/>
		</g>
	</g>
	<g>
		<g>
			<path class="st13" d="M189.1,163.7c0,2.5,0,4.9,0,7.4c0,0,0.2,0,0.2,0c0-2.5,0-5,0-7.4C189.2,163.7,189.1,163.7,189.1,163.7
				L189.1,163.7z"/>
		</g>
	</g>
	<g>
		<g>
			<path class="st13" d="M189.1,163c-1.5,3.4-2.2,7.8-1.4,11.5c0,0,0.4-0.1,0.4-0.1c0.1-4,0.5-7.5,1.3-11.4
				C189.3,163,189.1,163,189.1,163L189.1,163z"/>
		</g>
	</g>
	<g>
		<g>
			<path class="st14" d="M211.9,167.1c0-2.2,0-4.4,0-6.6c0-2.5-4.1-2.3-4.9-0.5c-2.7,5.5-5.6,11-8.7,16.2c1.5,0.1,3,0.3,4.6,0.4
				c-1.4-5.8,6.3-10,6.1-16.1c-0.1-2-3.7-2.6-4.7-0.9c-4.1,6.8-8.7,13.2-13.8,19.3c1.6,0.3,3.1,0.6,4.7,0.9c-0.1-4,2.3-7.5,4.1-11
				c1.7-3.4,3.3-6.8,5-10.2c-1.6-0.3-3.2-0.7-4.8-1c-2.9,5.9-6.1,11.6-9.8,17.1c1.5,0.5,3,1,4.6,1.4c1.6-4.9,3.3-9.7,5.3-14.5
				c1-2.4-3.4-3-4.6-1.4c-3.8,5.1-7.8,9.9-12.2,14.4c1.4,0.6,2.9,1.3,4.3,1.9c3.7-4.1,7-8.5,10-13.2c1.4-2.2-2.4-3.7-3.9-2.3
				c-3,2.8-5.8,5.7-8.5,8.8c1.4,0.6,2.9,1.3,4.3,1.9c2.9-3.8,5.7-7.7,8.6-11.5c1.8-2.4-2.5-3.2-3.9-2.3c-3.7,2.2-6.7,5.4-8.4,9.4
				c-1.1,2.6-2.6,7.2-0.4,9.6c2.4,2.6,8.2,2.3,11.3,2.6c6.2,0.6,12.4,0.5,18.6,0c2.4-0.2,3.6-3,0.7-3.7c-1-0.2-2.1-0.5-3.1-0.7
				c0.6,0.6,1.2,1.2,1.8,1.8c-0.1-5-0.2-9.9-0.3-14.9c0-2.4-4.1-2.3-4.9-0.5c-1.8,3.9-2.4,7.7-1.9,11.9c0.3,2.4,5.1,2.5,5,0
				c-0.1-2.9-0.2-5.8-0.4-8.7c-0.1-2.2-3.6-2.4-4.7-0.9c-3.6,4.8-6.5,9.8-8.8,15.3c1.6,0.2,3.3,0.3,4.9,0.5
				c-0.4-6.3,4.9-10.9,3.7-17.3c-0.3-1.8-3.7-1.7-4.6-0.4c-2.7,3.9-4.9,7.9-6.4,12.4c-0.9,2.6,3.9,3.2,4.8,1c2-4.6,3.6-9.4,4.8-14.3
				c0.7-2.7-3.8-3.1-4.8-1c-1.7,3.3-3.3,6.7-5,10c1.6,0.2,3.3,0.3,4.9,0.5c0.2-5.2,0.8-10.3,1.6-15.4c0.3-2.1-3.8-2.4-4.7-0.9
				c-3.6,5.9-6.8,12-9.6,18.3c-1,2.3,3.5,3,4.6,1.4c3.2-4.6,5.4-9.5,6.5-15c0.5-2.5-3.2-3-4.6-1.4c-4.4,5.2-9.6,13.5-9.2,20.6
				c0.4,6.6,11,5.8,15.4,5.8c5.1,0.1,15.8,1.2,18.7-4.6c3-5.9-3.3-10.3-8.3-10.9c0.6,0.6,1.2,1.2,1.8,1.8c0-2.2,0-4.4-0.1-6.6
				c0-2.5-5-2.5-5,0c0,2.2,0,4.4,0.1,6.6c0,0.9,1,1.7,1.8,1.8c3.8,0.5,6.9,3,3.8,6c-2.1,2-4.2,1.8-7,2c-3.3,0.2-10.7,1.1-13.8-0.5
				c-1.3,0.1-1.9-0.6-1.6-2.1c-0.6-1.2-0.6-2.3-0.1-3.5c0.2-1.5,0.9-3,1.5-4.5c1.5-3.8,3.7-7.1,6.3-10.2c-1.5-0.5-3-1-4.6-1.4
				c-1.1,5.2-3,9.8-6,14.1c1.5,0.5,3,1,4.6,1.4c2.7-6,5.7-11.8,9.1-17.4c-1.6-0.3-3.1-0.6-4.7-0.9c-0.8,5.1-1.3,10.2-1.6,15.4
				c-0.1,2.5,4.1,2.2,4.9,0.5c1.7-3.3,3.3-6.7,5-10c-1.6-0.3-3.2-0.7-4.8-1c-1.2,4.9-2.8,9.6-4.8,14.3c1.6,0.3,3.2,0.7,4.8,1
				c1.5-4.2,3.4-7.9,5.9-11.5c-1.5-0.1-3-0.3-4.6-0.4c1,5.7-4.2,10.5-3.9,16.3c0.1,2.4,4.1,2.4,4.9,0.5c2.2-5.2,4.9-9.9,8.3-14.4
				c-1.6-0.3-3.1-0.6-4.7-0.9c0.1,2.9,0.2,5.8,0.4,8.7c1.7,0,3.3,0,5,0c-0.5-3.9,0-7.3,1.7-10.9c-1.6-0.2-3.3-0.3-4.9-0.5
				c0.1,5,0.2,9.9,0.3,14.9c0,1,1,1.6,1.8,1.8c1,0.2,2.1,0.5,3.1,0.7c0.2-1.2,0.4-2.5,0.7-3.7c-7.5,0.6-15.1,0.6-22.6-0.5
				c-1.6-0.2-2.9,0-3.4-1.7c-0.3-1.1,0.8-4.1,1.3-5.2c1.5-3.4,4-5.9,7.1-7.8c-1.3-0.8-2.6-1.5-3.9-2.3c-2.9,3.8-5.7,7.7-8.6,11.5
				c-1.8,2.4,2.8,3.6,4.3,1.9c2.4-2.8,5-5.5,7.7-8.1c-1.3-0.8-2.6-1.5-3.9-2.3c-3,4.7-6.3,9-10,13.2c-1.9,2.2,2.7,3.5,4.3,1.9
				c4.4-4.6,8.4-9.4,12.2-14.4c-1.5-0.5-3-1-4.6-1.4c-2,4.8-3.8,9.6-5.3,14.5c-0.8,2.4,3.4,3.1,4.6,1.4c3.9-5.7,7.3-11.7,10.3-17.9
				c1.1-2.4-3.8-3.1-4.8-1c-1.9,4-3.9,7.9-5.8,11.9c-1.6,3.3-3.5,6.5-3.4,10.3c0.1,2.2,3.5,2.3,4.7,0.9c5.1-6,9.7-12.5,13.8-19.3
				c-1.6-0.3-3.1-0.6-4.7-0.9c0.3,6.7-7.7,9.8-5.9,17.1c0.4,1.7,3.7,1.8,4.6,0.4c3.3-5.6,6.4-11.3,9.2-17.1
				c-1.6-0.2-3.3-0.3-4.9-0.5c0,2.2,0,4.4,0,6.6C206.9,169.6,211.9,169.6,211.9,167.1L211.9,167.1z"/>
		</g>
	</g>
	<g>
		
			<ellipse transform="matrix(0.9973 -7.387169e-02 7.387169e-02 0.9973 -3.9241 8.1953)" class="st15" cx="108.8" cy="57.1" rx="14.2" ry="16.8"/>
		<g>
			<ellipse cx="106.5" cy="58.7" rx="7.3" ry="7.4"/>
			<ellipse class="st16" cx="106.4" cy="58.7" rx="4.9" ry="5.1"/>
			<circle class="st4" cx="108.2" cy="53.3" r="2.1"/>
			<circle class="st4" cx="110.5" cy="56.2" r="1.3"/>
		</g>
		
			<ellipse transform="matrix(7.387169e-02 -0.9973 0.9973 7.387169e-02 11.2155 128.8035)" class="st15" cx="75" cy="58.4" rx="16.8" ry="14.2"/>
		<g>
			<ellipse cx="77.3" cy="59.9" rx="7.3" ry="7.4"/>
			<ellipse class="st16" cx="77.4" cy="60" rx="4.9" ry="5.1"/>
			<circle class="st4" cx="75.6" cy="54.5" r="2.1"/>
			<circle class="st4" cx="73.3" cy="57.5" r="1.3"/>
		</g>
		<g>
			<g id="XMLID_9_">
				<g>
					<path class="st17" d="M127,46.3c0.1,0.5,0.3,0.9,0.4,1.3l0,0c-6.1-6.7-15.6-8.3-24.2-3.6l0,0C99,47.3,94,48.7,89,47.9
						c-5.1-0.8-9.4-4-14.5-5c-6.6-1.3-14,0-17.5,6.5l-0.2,0c0.1-0.9,0.1-1.7,0.2-2.6l0.1,0c3.5-6.5,10.8-7.8,17.4-6.5
						c5,1,9.4,4.2,14.5,5c4.9,0.8,9.9-0.5,14.1-3.7l0,0C111.7,36.9,120.9,39.7,127,46.3z"/>
				</g>
				<g>
					<path class="st8" d="M57.2,46.8c3.5-6.5,10.8-7.8,17.4-6.5c5,1,9.4,4.2,14.5,5c4.9,0.8,9.9-0.5,14.1-3.7c0,0,0.1,0,0.1-0.1"/>
					<path class="st8" d="M103.1,41.6c8.6-4.7,17.8-1.9,23.9,4.7c0,0,0.1,0.1,0.1,0.1"/>
					<path class="st8" d="M57.1,49.4c3.5-6.5,10.9-7.8,17.5-6.5c5,1,9.4,4.2,14.5,5c4.9,0.8,10-0.7,14.2-3.8c0,0,0,0,0,0"/>
					<path class="st8" d="M103.2,44.1c8.6-4.7,18.1-3.2,24.2,3.6"/>
					<path class="st8" d="M57.1,46.6c0,0.1,0,0.1,0,0.2c-0.1,0.9-0.1,1.7-0.2,2.6c-0.2,3-0.2,6,0,9.1c0.3,2.9,1,5.9,2.2,8.6
						c1.2,2.7,3.3,6.5,6.4,8.1c2,1,4.3,1.1,6.6,1c3.3-0.1,6.8-0.5,9.6-2.3c2.6-1.7,5.4-6,6.3-9.2c0.5-1.9,0.5-3.6,1-5.5
						c0.5-1.9-0.1-4.7,3.1-4.4c0.4,0,0.8,0,1.2,0.2c0.6,0.4,0.7,1.1,0.8,1.8c0.5,3.8,1.8,8.1,4.2,11.2s5.5,5.4,9.3,6.3
						c1.7,0.4,3.9,0.7,5.7,0.8c2.7,0,5.4-0.8,7.6-2.3c3-1.9,5-5.4,6.1-8.7c0.8-2.6,3.1-7.1,0.6-16.3c-0.1-0.4-0.3-0.9-0.4-1.3
						c0-0.1,0-0.1-0.1-0.2"/>
				</g>
			</g>
		</g>
		<g>
			<g id="XMLID_5_" class="st18">
				<g>
					<path class="st19" d="M114.6,79.4l0.1-0.2c0.2,0.1,0.3,0.1,0.5,0.2c0.4,0.2,0.8,0.4,1.2,0.6l-0.8,0c0,6.7-3.5,13.8-8.9,18.1
						l-0.2-0.3c-1.1-1.6-1.3-2.4-3.8-3.4c-0.6-0.2-4-0.9-7.3,1.6l-1.5,0.4c-1.3-0.2-2.7-0.1-3.2,0c-2.8,0.7-4.1,1.9-5.3,3.7
						l-0.7,0.2c-2.3-1.1-4.4-2.6-6.2-4.4c-2.5-2.6-4.5-5.7-3.8-9.6l0-0.1c7.7,3.4,16.7,3.9,25.1,2.3
						C105.3,87.5,111.7,84.3,114.6,79.4z"/>
					<path class="st20" d="M93.8,96.4l1.5-0.4c3.3-2.5,6.7-1.9,7.3-1.6c2.5,1,2.7,1.8,3.8,3.4l0.2,0.3c-1.5,1.2-3.1,2.2-4.8,2.9
						c-5.5,2.2-11.9,1.8-17.3-0.7l0.7-0.2c1.3-1.8,2.5-3,5.3-3.7C91.2,96.3,92.6,96.2,93.8,96.4z"/>
				</g>
				<g>
					<path class="st21" d="M69.1,83.1c1.8,1.2,3.6,2.2,5.5,3.1c7.7,3.4,16.7,3.9,25.1,2.3c5.6-1.1,11.9-4.3,14.9-9.1"/>
					<path class="st21" d="M74.5,86.7c0.1-0.1,0.1-0.2,0.1-0.4c-0.7,3.8,1.3,7,3.8,9.6c1.8,1.9,3.9,3.3,6.2,4.4
						c5.4,2.5,11.8,2.9,17.3,0.7c1.7-0.7,3.3-1.7,4.8-2.9c5.3-4.3,8.8-11.4,8.9-18.1c0,0,0,0,0,0"/>
					<path class="st21" d="M108.3,79c2.1-0.4,4.4-0.5,6.4,0.2c0.2,0.1,0.3,0.1,0.5,0.2c0.4,0.2,0.8,0.4,1.2,0.6
						c1.6,1,2.8,2.8,2.8,4.6"/>
					<path class="st21" d="M84.3,85c4.1,1.3,8.6,1.5,12.8,0.8c0.2-0.1-0.1-0.3-0.3-0.3"/>
					<path class="st21" d="M93.4,105.9c4,1.9,9,1.2,12.3-1.6"/>
					<path class="st21" d="M85.2,100.1c1.3-1.8,2.5-3,5.3-3.7c0.6-0.1,2-0.2,3.2,0c0.3,0,0.7,0.1,1,0.2c0.1,0,0.1,0.3,0.2,0.4
						c0.1,0,0.2-0.2,0.1-0.2"/>
					<path class="st21" d="M95.3,96c3.3-2.5,6.7-1.9,7.3-1.6c2.5,1,2.7,1.8,3.8,3.4"/>
				</g>
			</g>
		</g>
	</g>
	<g>
		<g id="XMLID_15_">
			<g>
				<path class="st22" d="M78.1,178.8c-0.4,0-0.7-0.1-1.1-0.1C77.4,178.8,77.8,178.8,78.1,178.8z"/>
				<path class="st22" d="M40.9,115.5c0.2-0.1,0.9-0.4,0.6-0.1C41.3,115.4,41.1,115.4,40.9,115.5z"/>
				<path class="st22" d="M40.9,115.5c0.2-0.1,0.4-0.1,0.6-0.1C40.8,115.6,40.8,115.6,40.9,115.5C40.9,115.5,40.9,115.5,40.9,115.5z
					"/>
				<path class="st22" d="M41.5,115.4c-0.5,1.3-1.2,2.7-1.5,4.1l-0.4-0.1c0-0.1,0-0.3-0.1-0.3c-0.2-0.1-0.3,0.1-0.5,0.2
					c-0.9,0.8-1.9,1.6-2.8,2.3c-0.4,0.4-0.9,0.8-1.1,1.3c-0.3,0.6-0.2,1.4-0.1,2c0.4,2.9,0.4,5.9,0,8.8c-0.1,0.4-0.1,0.8-0.2,1.2
					c-0.6-0.9-1.1-1.8-1.7-2.7c-1-1.7-2.1-3.3-3.1-4.9c-1.8-2.9-3.6-5.8-5.2-8.9c-0.1-0.2-0.2-0.5-0.2-0.8c0,0,0-0.1,0-0.1
					c0.1-0.2,0.2-0.4,0.4-0.6c1.5-1.6,3.3-2.8,5.2-3.7l0.3-0.3c0.7,0.9,1.5,1.8,2.1,2.8c2.5,3.5,5.6,0.6,8.3-0.2
					C40.8,115.6,40.8,115.6,41.5,115.4z"/>
				<path class="st1" d="M38.9,119.3c0.1-0.1,0.3-0.2,0.5-0.2c0.1,0,0.2,0.2,0.1,0.3l0.4,0.1c0.3-1.4,1-2.8,1.5-4.1
					c0.3-0.2-0.4,0-0.6,0.1c0,0,0,0,0,0c-2.6,0.8-5.8,3.8-8.3,0.2c-0.7-1-1.4-1.9-2.1-2.8c-1.4-1.7-2.8-3.3-4.1-5.1
					c2.9-2,5-3.8,7.5-6.3c5.8,5.9,13.4,9.9,21.4,12.2c8,2.4,16.4,3.2,24.8,3.4l0.1,0.2c-0.5,0.3-1,0.7-1.5,1
					c-0.6,19-0.4,38.1,0.8,57c0.1,1.3-0.2,2.6-1.1,3.6c-0.1,0-0.2-0.1-0.3-0.1c-0.3-0.1-0.7-0.1-1.1-0.1c-0.5,0-1-0.1-1.6-0.1
					c-6.3-0.5-12.6-1.2-18.4-3.4c-5.6-2.1-10.7-5.5-15.5-9.1c-0.6-0.4-1.1-0.8-1.7-1.3c-2.5-2-4.8-4.3-5.7-7.3
					c-0.5-1.8-0.6-3.7-0.5-5.5c0.1-6.1,0.6-12.2,1.1-18.3c0.4-2.9,0.4-5.8,0-8.8c-0.1-0.7-0.2-1.4,0.1-2c0.2-0.5,0.7-0.9,1.1-1.3
					C37,120.8,38,120.1,38.9,119.3z"/>
				<path class="st1" d="M34.7,134.9c0.1-0.4,0.1-0.8,0.2-1.2c-0.5,6.1-1,12.2-1.1,18.3c0,1.9,0,3.7,0.5,5.5c0.9,3,3.2,5.3,5.7,7.3
					l0,0.1c1.1,0.8,0.9,3.3,0,4.4c-0.6,0.8-1.6,1.3-2.6,1.6c-0.5,0.2-1.1,0.3-1.6,0.5c-3.9,1-8.1,2-11.9,0.7
					c-4.8-1.5-7.9-6.1-12.2-8.8c2.6-3.3,1.9-8,2.6-12.2c0.3-1.5,0.7-3,1.1-4.4c2.4-7.9,4.8-15.8,7.2-23.7c0.6-1.9,1.1-3.8,1.9-5.5
					l0.1,0c0,0,0,0.1,0,0.1c0,0.3,0.1,0.5,0.2,0.8c1.5,3.1,3.3,6,5.2,8.9c1,1.7,2.1,3.3,3.1,4.9C33.5,133.1,34.1,134,34.7,134.9z"/>
				<path class="st1" d="M15.3,197.3l-0.2,0c-0.4,0.7-0.9,0.7-1.7,0.6c-0.8-0.1-1.6-0.5-2.2-1c-1-0.7-2-1.5-2.9-2.4
					c-0.8-0.8-1.5-1.7-1.8-2.7c-0.7-2.1,0.2-4.3,0.7-6.4c0.1-0.6,0.2-1.3,0.3-1.9l-0.8-0.1c0,0.1-0.3,0.1-0.4,0.1
					c-1.8-1.4-3.8-3.1-4.2-5.4c-0.3-1.7,0.5-3.5,1.6-4.9c1.1-1.4,2.4-2.5,3.7-3.8c1.7-1.8,2.7-3.9,4.1-6l0.1,0.1
					c4.3,2.6,7.4,7.2,12.2,8.8c3.8,1.2,8,0.3,11.9-0.7c0.5-0.1,1.1-0.3,1.6-0.5l0,0c1.8,0.5,3.2,2.2,3.4,4.1c0.1,0.8,0,1.5-0.1,2.3
					c-0.2,2.1-0.2,4.3,0,6.4c0.1,1.2,0.3,2.5-0.2,3.6l-0.3-0.1c-0.8,1.5-2.3,2.5-3.9,2.9c-1.7,0.4-3.4,0.3-5.1-0.2
					c-0.3-0.1-0.5-0.2-0.7-0.4c-0.1-0.2-0.2-0.5-0.2-0.7c0-1.7-0.1-3.5-0.1-5.2c0-1.4-0.1-2.9-0.9-4c-0.4-0.6-0.6-0.8-0.4-1.4
					l-0.1,0c-0.8,1-1.5,2.2-1.9,3.5c-2,5.2-1.6,11.4,1.1,16.3l-0.3,0.2c-0.3,1-0.9,1.9-1.8,2.4c-1.7,1.1-3.9,0.8-5.8,0.1
					c-1.3-0.4-2.5-1-3.6-1.7c-0.3-0.2-0.7-0.4-0.9-0.8C15.4,197.9,15.4,197.6,15.3,197.3z"/>
			</g>
			<g>
				<path class="st2" d="M30.1,113.2c-1.9,1-3.7,2.1-5.2,3.7c-0.2,0.2-0.3,0.4-0.4,0.6c0,0,0,0.1,0,0.1c0,0.3,0.1,0.5,0.2,0.8
					c1.5,3.1,3.3,6,5.2,8.9c1,1.7,2.1,3.3,3.1,4.9c0.6,0.9,1.1,1.8,1.7,2.7c0,0,0,0,0,0"/>
				<path class="st2" d="M39.4,119.5c0.1,0,0.1,0,0.1-0.1c0-0.1,0-0.3-0.1-0.3c-0.2-0.1-0.3,0.1-0.5,0.2c-0.9,0.8-1.9,1.6-2.8,2.3
					c-0.4,0.4-0.9,0.8-1.1,1.3c-0.3,0.6-0.2,1.4-0.1,2c0.4,2.9,0.4,5.9,0,8.8c-0.1,0.4-0.1,0.8-0.2,1.2c0,0,0,0.1,0,0.1"/>
				<path class="st2" d="M50.6,124c4,0.2,8-0.5,12-1.1c5.6-0.9,11.4-1.8,16.2-4.7c0.5-0.3,1-0.6,1.5-1c0.1-0.1,0.2-0.2,0.4-0.3"/>
				<path class="st2" d="M24.7,117c-0.1,0.2-0.2,0.3-0.2,0.5c-0.8,1.8-1.4,3.7-1.9,5.5c-2.4,7.9-4.8,15.8-7.2,23.7
					c-0.4,1.5-0.9,2.9-1.1,4.4c-0.7,4.2,0,8.9-2.6,12.2c4.3,2.6,7.4,7.2,12.2,8.8c3.8,1.2,8,0.3,11.9-0.7c0.5-0.1,1.1-0.3,1.6-0.5
					c1-0.3,1.9-0.8,2.6-1.6c0.9-1.1,1.1-3.6,0-4.4c-0.1-0.1-0.2-0.2-0.4-0.2"/>
				<path class="st2" d="M11.9,162.8c-0.1,0.2-0.2,0.3-0.3,0.5c-1.3,2-2.4,4.2-4.1,6c-1.2,1.3-2.6,2.4-3.7,3.8
					c-1.1,1.4-1.8,3.1-1.6,4.9c0.3,2.3,2.3,4,4.2,5.4c0.1,0.1,0.4,0,0.4-0.1c0,0,0,0,0-0.1"/>
				<path class="st2" d="M12.8,174.8c-2.1,0.2-3.7,2.1-4.4,4.2c-0.5,1.4-0.7,2.9-0.9,4.4c-0.1,0.6-0.2,1.3-0.3,1.9
					c-0.5,2.1-1.4,4.3-0.7,6.4c0.3,1.1,1,1.9,1.8,2.7c0.9,0.9,1.8,1.7,2.9,2.4c0.7,0.5,1.4,0.9,2.2,1c0.8,0.1,1.3,0.1,1.7-0.6"/>
				<path class="st2" d="M18.1,181.2c-1.9,1.2-2.2,3.7-2.3,5.9c-0.2,3.1-0.3,6.2-0.5,9.2c0,0.3,0,0.7,0,1c0,0.3,0.1,0.7,0.3,0.9
					c0.2,0.3,0.6,0.6,0.9,0.8c1.1,0.7,2.3,1.2,3.6,1.7c1.9,0.6,4.1,0.9,5.8-0.1c0.9-0.5,1.5-1.4,1.8-2.4"/>
				<path class="st2" d="M31,176.4c-0.8,0.4-1.6,1-2.2,1.7c-0.8,1-1.5,2.2-1.9,3.5c-2,5.2-1.6,11.4,1.1,16.3"/>
				<path class="st2" d="M28.9,178.2c-0.2,0.6,0.1,0.9,0.4,1.4c0.8,1.2,0.8,2.6,0.9,4c0,1.7,0.1,3.5,0.1,5.2c0,0.3,0,0.5,0.2,0.7
					c0.2,0.2,0.4,0.3,0.7,0.4c1.6,0.5,3.4,0.6,5.1,0.2c1.6-0.4,3.1-1.5,3.9-2.9c0,0,0-0.1,0-0.1"/>
				<path class="st2" d="M37.3,170.9c1.8,0.5,3.2,2.2,3.4,4.1c0.1,0.8,0,1.5-0.1,2.3c-0.2,2.1-0.2,4.3,0,6.4
					c0.1,1.2,0.3,2.5-0.2,3.6"/>
				<path class="st2" d="M34.9,132.8c0,0.3-0.1,0.6-0.1,0.9c-0.5,6.1-1,12.2-1.1,18.3c0,1.9,0,3.7,0.5,5.5c0.9,3,3.2,5.3,5.7,7.3
					c0.5,0.4,1.1,0.9,1.7,1.3c4.8,3.6,9.8,7,15.5,9.1c5.9,2.2,12.2,2.9,18.4,3.4c0.5,0,1,0.1,1.6,0.1c0.4,0,0.7,0.1,1.1,0.1
					c0.1,0,0.1,0,0.1,0"/>
				<path class="st2" d="M78.8,117.7c0,0.2,0,0.4,0,0.6c-0.6,19-0.4,38.1,0.8,57c0.1,1.3-0.2,2.6-1.1,3.6c-0.1,0-0.2-0.1-0.3-0.1
					c-0.3-0.1-0.7-0.1-1.1-0.1c-0.6,0-1.2,0-1.6-0.1c-0.1,0-0.1,0-0.2-0.1"/>
				<path class="st2" d="M75.1,124.8c-0.1,5.1-0.1,10.3,0.2,15.4"/>
				<path class="st2" d="M75.8,169.6c0,2.9,0,5.8,0,8.7"/>
				<path class="st2" d="M33.7,101.5c0,0,0.1,0.1,0.1,0.1c5.8,5.9,13.4,9.9,21.4,12.2c8,2.4,16.4,3.2,24.8,3.4"/>
				<path class="st2" d="M40.9,115.5c-0.1,0.1-0.1,0.1,0.6-0.1c-0.5,1.3-1.2,2.7-1.5,4.1c-0.3,1.4-0.3,2.7,0.5,4.1
					c10.6,3.9,22.5,3.1,33.9,0.5"/>
				<path class="st2" d="M40.9,115.5c0.2-0.1,0.4-0.1,0.6-0.1C41.7,115.1,41.1,115.4,40.9,115.5"/>
				<path class="st2" d="M40.9,115.5C40.9,115.5,40.9,115.5,40.9,115.5"/>
				<path class="st2" d="M33.9,101.6C33.9,101.6,33.9,101.6,33.9,101.6c-2.5,2.6-4.6,4.3-7.5,6.3c1.3,1.8,2.7,3.4,4.1,5.1
					c0.7,0.9,1.5,1.8,2.1,2.8c2.5,3.5,5.6,0.6,8.3-0.2"/>
			</g>
		</g>
	</g>
	<g>
		<g>
			<path class="st4" d="M10.8,168.6c-0.1,0.8-1.2,1.4-1.8,1.9c-0.9,0.7-1.7,1.5-2.6,2.2c-0.9,0.7,0.6,1.8,1.1,2.1
				c0.9,0.4,2.4,0.8,3.2,0.1c1-0.8,1.9-1.6,2.9-2.4c0.7-0.6,1.8-1.3,1.9-2.3c0.1-1.1-1.1-1.7-2-2C13,168,10.9,167.6,10.8,168.6
				L10.8,168.6z"/>
		</g>
	</g>
	<g>
		<g>
			<path class="st4" d="M12.9,176c-2.8,2.8-4.5,6.3-4.9,10.2c-0.2,1.9,4.6,3.2,4.7,1.6c0.4-3.7,1.9-6.9,4.5-9.6
				C18.7,176.8,14.2,174.7,12.9,176L12.9,176z"/>
		</g>
	</g>
	<g id="XMLID_14_">
		<g>
			<path class="st4" d="M68.8,131.4c-4.2,5.9-4,13.8-3.7,21.1c-3.7,0.3-7.4,0.4-11,0.3c-4.8-0.1-10.1-0.9-13-4.7
				c-1.8-2.4-2.3-5.5-2.3-8.5c0.1-3,0.6-6,0.7-9c0-0.3-0.2-0.6-0.3-0.7l0.1-0.4C48.4,133.3,58.9,132.4,68.8,131.4z"/>
		</g>
		<g>
			<path class="st23" d="M37.4,128.8c0.6,0.3,1.2,0.6,1.8,0.8c9.1,3.7,19.6,2.9,29.5,1.8c-4.2,5.9-4,13.8-3.7,21.1
				c-3.7,0.3-7.4,0.4-11,0.3c-4.8-0.1-10.1-0.9-13-4.7c-1.8-2.4-2.3-5.5-2.3-8.5c0.1-3,0.6-6,0.7-9c0-0.3-0.2-0.6-0.3-0.7
				c-0.1,0-0.2,0-0.2,0.1"/>
		</g>
	</g>
	<g>
		<g>
			<path class="st4" d="M44.6,115.7c-0.4,6.4,21.9,4.2,25.2,4.4c3.2,0.2,0.2-2.8-1.7-3c-1.9-0.1-18.7,0.2-18.7-0.5
				C49.5,114.9,44.7,113.6,44.6,115.7L44.6,115.7z"/>
		</g>
	</g>
	<g>
		<g>
			<path class="st4" d="M22.7,126.5c-2.3,9.4-6,19.4-5.6,29.2c0.1,1.7,4.9,2.9,4.8,0.9c-0.3-9.5,3.3-19.4,5.6-28.4
				C27.9,126.2,23.1,124.7,22.7,126.5L22.7,126.5z"/>
		</g>
	</g>
	<g>
		<g>
			<path class="st4" d="M22.8,181.4c-0.1,0-0.2-0.1-0.3-0.1c-0.9-0.4-2.3-0.8-3.2-0.1c-1.5,1.3-1.2,5.2-1.2,7c0,3.6,0.4,7,1.2,10.5
				c0.4,1.7,5.2,2.7,4.8,0.9c-0.6-2.6-1-5.3-1.2-8c-0.1-1.7-0.7-7,0.7-8.1c-1.1,0-2.1-0.1-3.2-0.1c0.1,0,0.2,0.1,0.3,0.1
				c0.8,0.3,2.6,1,3.2,0.1C24.6,182.6,23.5,181.7,22.8,181.4L22.8,181.4z"/>
		</g>
	</g>
</g>
</svg>
