<?xml version="1.0" encoding="utf-8"?>
<!-- Generator: Adobe Illustrator 24.2.0, SVG Export Plug-In . SVG Version: 6.00 Build 0)  -->
<svg version="1.1" id="Layer_1" xmlns="http://www.w3.org/2000/svg" xmlns:xlink="http://www.w3.org/1999/xlink" x="0px" y="0px"
	 viewBox="0 0 33.2 22.7" style="enable-background:new 0 0 33.2 22.7;" xml:space="preserve">
<style type="text/css">
	.st0{fill:#FFFFFF;stroke:#000000;stroke-width:2;stroke-miterlimit:10;}
	.st1{fill:#F15623;}
</style>
<path class="st0" d="M30.4,21.8H18.7c-9.8,0-17.8-8-17.8-17.8V3c0-1.1,0.9-2,2-2h24.9c2.5,0,4.6,2.1,4.6,4.6v14.2
	C32.4,20.9,31.5,21.8,30.4,21.8z"/>
<g>
	<path class="st1" d="M25.8,4.8c0-0.1-0.1-0.3-0.3-0.3c-4.5,0.4-8.3,3.5-10.2,8.4c-1.1-1.6-2.7-1.9-3.5-1.9c-0.6,0.1-1,0.3-1.2,0.3
		c-0.1,0-0.3,0.1-0.3,0.3c0,0.2,0,0.3,0.1,0.3c2.2,1.3,3.5,3.4,4.3,5c0.3,0.4,0.5,0.6,0.8,0.6s0.7-0.3,0.7-0.6
		c2.7-8.5,9.3-11.5,9.4-11.5C25.8,5.1,25.9,5,25.8,4.8z"/>
</g>
</svg>
