<?xml version="1.0" encoding="utf-8"?>
<!-- Generator: Adobe Illustrator 24.2.0, SVG Export Plug-In . SVG Version: 6.00 Build 0)  -->
<svg version="1.1" id="Layer_1" xmlns="http://www.w3.org/2000/svg" xmlns:xlink="http://www.w3.org/1999/xlink" x="0px" y="0px"
	 viewBox="0 0 20.4 20.4" style="enable-background:new 0 0 20.4 20.4;" xml:space="preserve">
<style type="text/css">
	.st0{fill:#F16B24;}
	.st1{fill:#FFFFFF;}
</style>
<g>
	<circle class="st0" cx="10.2" cy="10.2" r="9.7"/>
	<path class="st1" d="M10.2,20.4C4.6,20.4,0,15.8,0,10.2S4.6,0,10.2,0s10.2,4.6,10.2,10.2S15.8,20.4,10.2,20.4z M10.2,1
		C5.1,1,1,5.1,1,10.2s4.1,9.2,9.2,9.2s9.2-4.1,9.2-9.2S15.3,1,10.2,1z"/>
</g>
<path class="st1" d="M16.4,5.3c0-0.1-0.1-0.2-0.2-0.2C12.5,5.4,9.5,7.9,8,11.8c-0.8-1.3-2.1-1.5-2.8-1.5c-0.5,0-0.9,0.1-0.9,0.1
	c-0.1,0-0.1,0.1-0.2,0.2c0,0.1,0,0.2,0.1,0.2c1.8,1,2.8,2.8,3.4,4.1c0.1,0.2,0.3,0.4,0.6,0.4c0.3,0,0.5-0.2,0.6-0.5
	c2.2-6.8,7.4-9.2,7.5-9.3C16.4,5.5,16.4,5.4,16.4,5.3z"/>
</svg>
