<?xml version="1.0" encoding="utf-8"?>
<!-- Generator: Adobe Illustrator 24.1.2, SVG Export Plug-In . SVG Version: 6.00 Build 0)  -->
<svg version="1.1" id="Layer_1" xmlns="http://www.w3.org/2000/svg" xmlns:xlink="http://www.w3.org/1999/xlink" x="0px" y="0px"
	 viewBox="0 0 19.7 19.7" style="enable-background:new 0 0 19.7 19.7;" xml:space="preserve">
<style type="text/css">
	.st0{fill:#FFFFFF;}
	.st1{fill:#26265E;}
	.st2{fill:#F15623;}
</style>
<g>
	<g>
		<circle class="st0" cx="9.8" cy="9.8" r="9.3"/>
		<path class="st1" d="M9.8,0C4.4,0,0,4.4,0,9.8c0,5.4,4.4,9.9,9.9,9.9c5.4,0,9.9-4.4,9.9-9.9C19.7,4.4,15.3,0,9.8,0z M18.1,9.8
			c0,4.5-3.7,8.2-8.2,8.2s-8.2-3.7-8.2-8.2c0-4.5,3.7-8.2,8.2-8.2S18.1,5.3,18.1,9.8z"/>
	</g>
	<path class="st2" d="M16,5.7c0-0.1-0.1-0.2-0.2-0.2C12.1,5.8,9,8.4,7.4,12.4c-0.9-1.3-2.2-1.5-2.9-1.5c-0.6,0-0.9,0.1-1,0.1
		c-0.1,0-0.2,0.1-0.2,0.2s0,0.2,0.1,0.2c1.8,1.1,2.9,2.8,3.5,4.1C7.1,15.8,7.3,16,7.6,16c0.3,0,0.6-0.2,0.6-0.5
		c2.2-7,7.6-9.5,7.7-9.5C16,5.9,16.1,5.8,16,5.7z"/>
</g>
</svg>
