<?xml version="1.0" encoding="utf-8"?>
<!-- Generator: Adobe Illustrator 24.2.0, SVG Export Plug-In . SVG Version: 6.00 Build 0)  -->
<svg version="1.1" id="Layer_1" xmlns="http://www.w3.org/2000/svg" xmlns:xlink="http://www.w3.org/1999/xlink" x="0px" y="0px"
	 viewBox="0 0 397.8 273.7" style="enable-background:new 0 0 397.8 273.7;" xml:space="preserve">
<style type="text/css">
	.st0{opacity:0.65;fill:#FFFFFF;enable-background:new    ;}
	.st1{fill:#FFFFFF;}
	.st2{fill:#D8ECD4;}
	.st3{fill:#40AF92;}
	.st4{fill:#5FBBA6;}
	.st5{fill:#E587AB;}
	.st6{fill:#ED9D81;}
	.st7{fill:#184654;}
	.st8{fill:#C1E1E6;}
	.st9{fill:#D2C4E1;}
	.st10{fill:#DDD0E7;}
	.st11{fill:#63B7CB;}
	.st12{fill:#1D313B;}
	.st13{fill:#F6AACB;}
	.st14{fill:#E9605D;}
	.st15{fill:#FAF9E6;}
	.st16{fill:#E4967D;}
	.st17{opacity:0.5;}
	.st18{fill:#E6E5F3;}
	.st19{fill:#343147;}
	.st20{fill:#ED6C56;}
	.st21{fill:#F9C14E;}
	.st22{fill:#F0B130;}
	.st23{fill:#F9D382;}
	.st24{fill:#040404;}
	.st25{fill:#F8FAE6;}
	.st26{opacity:0.87;}
</style>
<g>
	<path class="st0" d="M53.5,271.9c0,0-80.7-74.4-38.8-144.8c41.9-70.5,125.1-45.4,207.4-88.2s135.8-37.3,158.1,0
		c27.2,45.4-39.3,85.6-1.3,147.5c38.1,61.9-2.4,85.6-2.4,85.6L53.5,271.9L53.5,271.9z"/>
</g>
<g>
	<path class="st1" d="M273.1,26.6c-0.5,0-0.8-0.8-0.5-1.3c2.2-3.1,7.7-5.1,13.9-5.1c9.5,0,11.8,5,20.2-3.3c2-2,4.4-2.9,10.5,0.2
		s5.7-7.6,10.9-8.1c8.4-0.9,16.1,10.2,19.2,15.4c0.7,1.1,0,2.6-1.1,2.6L273.1,26.6z"/>
	<path class="st1" d="M69.1,44.4c0.4,0,0.6-0.6,0.4-1c-1.6-2.3-5.5-3.9-10.2-4c-6.9-0.1-6.7-5-14.1-8.1C35.8,27.3,31.8,39.5,28,39
		c-6.1-0.8-10.8-0.8-13.1,3.2c-0.5,0.8,0,2,0.8,2L69.1,44.4z"/>
</g>
<g>
	<g>
		<g>
			<path class="st0" d="M53.5,271.9c0,0-80.7-74.4-38.8-144.8c41.9-70.5,125.1-45.4,207.4-88.2s135.8-37.3,158.1,0
				c27.2,45.4-39.3,85.6-1.3,147.5c38.1,61.9-2.4,85.6-2.4,85.6L53.5,271.9L53.5,271.9z"/>
			<path class="st0" d="M344.3,271.9H21.3c0,0-40.5-23.7-2.4-85.6c38-61.9-28.5-102.1-1.3-147.5C39.9,1.6,93.4-4,175.8,38.9
				s165.4,17.8,207.4,88.2C425.1,197.5,344.3,271.9,344.3,271.9L344.3,271.9z"/>
		</g>
	</g>
	<g>
		<g>
			<g>
				<g>
					<path class="st2" d="M140.4,186c0,0-18.2-1-17.8,25.9c0.3,26.8,24.5-6.2,24.5-6.2L140.4,186z"/>
				</g>
			</g>
		</g>
	</g>
	<g>
		<g>
			<g>
				<g>
					<path class="st2" d="M227.8,232.5c-3.1,11.4-16.7,9.8-43.2,9.8s-45.4,0-45.4,0l-12.5-27c5-9.1,9-19.5,13.8-29.3
						c4,0,8.2,1.2,11.7,3.5c0,0,4.7-16.2,23.6-14.7c13,1,19,14.7,19.9,17.8c0,0,18.3-3.4,24,10.9c3.8,9.5-0.9,16.9-0.9,16.9
						S230.7,221.5,227.8,232.5z"/>
				</g>
			</g>
		</g>
	</g>
	<g>
		<g>
			<g>
				<g>
					<path class="st3" d="M134.3,219.8c-3.2-12.9,11.2-17.5,19.4-11.9c0,0,3.2-10.8,15.8-9.9c8.7,0.7,12.6,9.9,13.3,11.8
						c0,0,12.2-2.2,16,7.2c2.6,6.3-0.6,11.4-0.6,11.4s8.1,0.9,6.1,8.2c-2.1,7.7-11.2,6.5-28.9,6.5s-30.3,0-30.3,0L134.3,219.8z"/>
				</g>
			</g>
		</g>
	</g>
	<g>
		<g>
			<g>
				<g>
					<path class="st4" d="M137.4,215.6c0,0,3.3-4.4,10.2-3.8c6.9,0.7,8.2,7.3,8.2,7.3s6.4-2.5,10.5,0c4,2.5,4.3,7.4,4,11.4
						c0,0,1.9-5.9,7.8-6c5.9-0.1,8.7,4.8,8.7,4.8s5.4-3.8,10,0.6c4.6,4.3,3.5,9.6-2.3,12.8h-46.5L137.4,215.6z"/>
				</g>
			</g>
		</g>
	</g>
	<g>
		<g>
			<g>
				<g>
					<path class="st4" d="M100.5,223.9c0,0-4.4-2.3-7.6,0.8c-3.3,3.1-1.5,6.3-1.5,6.3s-6-0.2-6.8,4.9c-0.9,5.6,4.7,8,14.7,8
						C109.3,244,100.5,223.9,100.5,223.9z"/>
				</g>
			</g>
		</g>
	</g>
	<g>
		<g>
			<g>
				<g>
					<ellipse class="st2" cx="56.7" cy="265.6" rx="17" ry="3.1"/>
				</g>
			</g>
		</g>
	</g>
	<g>
		<g>
			<g>
				<g>
					<ellipse class="st2" cx="111" cy="250.7" rx="31.9" ry="8.7"/>
				</g>
			</g>
		</g>
	</g>
	<g>
		<g>
			<g>
				<g>
					<path class="st5" d="M179.6,126c0,0,0.7-0.1,1.1-0.2c0.4-0.1-1.1,1.6-1.1,1.6l-0.3-0.9L179.6,126z"/>
				</g>
			</g>
		</g>
	</g>
	<g>
		<g>
			<g>
				<g>
					<path class="st6" d="M71.8,177.5c0,0,3.6,1.9,4.1,1.9c0.7,0.1,9.2-2.7,10.5-3.2c0,0,1.7-1,2.5-1.4s2.1-0.8,2.5-0.8
						s0.2,0.4-0.3,0.6c-0.4,0.2-1.1,0.5-1.3,0.7c-0.2,0.2,0.3,0.9,0.3,1.6c0,0.7-1.5,1.1-2.8,1.3s-9,5.3-12.5,4.3
						c-3.5-0.9-5.7-2-5.7-2L71.8,177.5z"/>
				</g>
			</g>
		</g>
	</g>
	<g>
		<g>
			<g>
				<g>
					<path class="st7" d="M60.7,172.3l1.4-0.5c0,0,3.8,0.7,6.1,2.4c2.5,1.6,5.5,2.9,5.1,3.8c-0.4,0.9-2.2,4.9-2.7,5.2
						c-0.5,0.3-5.3-2-5.3-2L60.7,172.3z"/>
				</g>
			</g>
		</g>
	</g>
	<g>
		<g>
			<g>
				<g>
					<circle class="st8" cx="220.2" cy="155.9" r="33.6"/>
				</g>
			</g>
		</g>
	</g>
	<g>
		<g>
			<g>
				<g>
					<g>
						<path class="st9" d="M249.3,155.3c0.2,16.1-12.6,29.3-28.7,29.5s-29.3-12.6-29.5-28.7c-0.1-4.9,1.1-9.5,3.2-13.6
							c0.2-0.5,0.5-1,0.8-1.4c2.9-3.2,12.9-5.6,24.9-5.8c11.8-0.2,21.9,2,25,4.9l0.1,0.1c0.3,0.5,0.6,0.9,0.8,1.4
							C247.9,145.8,249.2,150.4,249.3,155.3z"/>
					</g>
				</g>
			</g>
		</g>
		<g>
			<g>
				<g>
					<g>
						<path class="st10" d="M246,142.6c0,0.2,0,0.4-0.1,0.5c-0.9,3.6-10.7,6.3-23.1,6.7c-0.2,0-0.4,0-0.7,0c-0.2,0-0.4,0-0.7,0
							c-0.2,0-0.3,0-0.5,0c-0.3,0-0.5,0-0.8,0c-0.2,0-0.5,0-0.7,0c-13.5-0.1-24.5-3.2-25.1-6.9c0-0.1,0-0.2,0-0.3c0-0.2,0-0.3,0-0.5
							c0.1-0.5,0.3-0.9,0.7-1.3c0,0,0,0,0.1-0.1c2.9-3.2,13-5.4,25-5.4c11.8,0,21.9,2.3,24.9,5.3l0.1,0.1c0.4,0.5,0.7,0.9,0.8,1.4
							C246,142.3,246,142.5,246,142.6z"/>
					</g>
				</g>
			</g>
		</g>
	</g>
	<g>
		<g>
			<g>
				<g>
					<rect x="211.2" y="106.9" class="st8" width="18.1" height="25"/>
				</g>
			</g>
		</g>
	</g>
	<g>
		<g>
			<g>
				<g>
					<g>
						
							<rect x="181.9" y="126.2" transform="matrix(0.5591 -0.8291 0.8291 0.5591 -28.048 213.8301)" class="st8" width="10.3" height="14.2"/>
					</g>
				</g>
			</g>
		</g>
		<g>
			<g>
				<g>
					<g>
						<path class="st11" d="M182.3,122.8l-6.7,10c-0.6,0.9-0.4,2.2,0.5,2.8l0.2,0.1c0.9,0.6,2.2,0.4,2.8-0.5l6.7-10
							c0.6-0.9,0.4-2.2-0.5-2.8l-0.2-0.1C184.1,121.6,182.9,121.9,182.3,122.8z"/>
					</g>
				</g>
			</g>
		</g>
	</g>
	<g>
		<g>
			<g>
				<g>
					<path class="st7" d="M170.1,113h59.5c0.5,0,0.9-0.4,0.9-0.9V112c0-0.5-0.4-0.9-0.9-0.9h-59.5V113z"/>
				</g>
			</g>
		</g>
	</g>
	<g>
		<g>
			<g>
				<g>
					<path class="st7" d="M171,253.4V30.3c0-0.5-0.4-0.9-0.9-0.9H170c-0.5,0-0.9,0.4-0.9,0.9v223.1H171z"/>
				</g>
			</g>
		</g>
	</g>
	<g>
		<g>
			<g>
				<g>
					<path class="st12" d="M211.2,113.7h17.9c0.8,0,1.5-0.7,1.5-1.5v-0.1c0-0.8-0.7-1.5-1.5-1.5h-17.9c-0.8,0-1.5,0.7-1.5,1.5v0.1
						C209.7,113,210.4,113.7,211.2,113.7z"/>
				</g>
			</g>
		</g>
	</g>
	<g>
		<g>
			<g>
				<g>
					<path class="st7" d="M170.1,72.6h-59.5c-0.5,0-0.9-0.4-0.9-0.9v-0.1c0-0.5,0.4-0.9,0.9-0.9h59.5V72.6z"/>
				</g>
			</g>
		</g>
	</g>
	<g>
		<g>
			<g>
				<g>
					<path class="st8" d="M120.6,88.8h-0.8c-4.8,0-8.8-3.9-8.8-8.8V21.3h18.4V80C129.3,85,125.4,88.8,120.6,88.8z"/>
				</g>
			</g>
		</g>
	</g>
	<g>
		<g>
			<g>
				<g>
					<g>
						<path class="st5" d="M120.1,86c-3.8,0-7.1-3.2-7.1-7.1V47.7h14.1V79C127.2,82.8,124,86,120.1,86z"/>
					</g>
				</g>
			</g>
		</g>
		<g>
			<g>
				<g>
					<g>
						<path class="st13" d="M127.2,47.7c0,1.2-3.2,2.1-7.1,2.1s-7.1-0.9-7.1-2.1c0-1.2,3.2-2.1,7.1-2.1
							C124,45.6,127.2,46.5,127.2,47.7z"/>
					</g>
				</g>
			</g>
		</g>
	</g>
	<g>
		<g>
			<g>
				<g>
					<ellipse class="st8" cx="120.1" cy="246.6" rx="31.4" ry="8.9"/>
				</g>
			</g>
		</g>
	</g>
	<g>
		<g>
			<g>
				<g>
					<polygon class="st8" points="151.6,246.6 88.7,246.6 111.4,182.3 128.9,182.3 					"/>
				</g>
			</g>
		</g>
	</g>
	<g>
		<g>
			<g>
				<g>
					<rect x="111.4" y="153.1" class="st8" width="17.5" height="35.8"/>
				</g>
			</g>
		</g>
	</g>
	<g>
		<g>
			<g>
				<g>
					<path class="st2" d="M170.3,62.9h-0.4c-2.2,0-3.9-1.8-3.9-3.9V41.8c0-2.2,1.8-3.9,3.9-3.9h0.4c2.2,0,3.9,1.8,3.9,3.9V59
						C174.2,61.1,172.5,62.9,170.3,62.9z"/>
				</g>
			</g>
		</g>
	</g>
	<g>
		<g>
			<g>
				<g>
					<g>
						<path class="st5" d="M179.6,127.5c-14,0-25.5-11.4-25.5-25.5V17.8c0-8.1-6.5-14.6-14.6-14.6h-4c-8.1,0-14.6,6.5-14.6,14.6
							h-1.4c0-8.8,7.2-16,16-16h4c8.8,0,16,7.2,16,16v84.3c0,13.2,10.8,24,24,24L179.6,127.5L179.6,127.5z"/>
					</g>
				</g>
			</g>
		</g>
	</g>
	<g>
		<g>
			<g>
				<g>
					<g>
						<path class="st5" d="M120.9,150.5h-1.4v-9c0-3.8,3.1-6.8,6.8-6.8h9.8c3,0,5.4-2.5,5.4-5.4v-0.5c0-3-2.5-5.4-5.4-5.4h-29
							c-3.8,0-6.8-3.1-6.8-6.8v-0.7c0-3.8,3.1-6.8,6.8-6.8h21.8c3,0,5.4-2.5,5.4-5.4c0-3-2.5-5.4-5.4-5.4h-2.7
							c-3.8,0-6.8-3.1-6.8-6.8v-2.6h1.4v2.6c0,3,2.5,5.4,5.4,5.4h2.7c3.8,0,6.8,3.1,6.8,6.8c0,3.8-3.1,6.8-6.8,6.8H107
							c-3,0-5.4,2.5-5.4,5.4v0.7c0,3,2.5,5.4,5.4,5.4h29c3.8,0,6.8,3.1,6.8,6.8v0.5c0,3.8-3.1,6.8-6.8,6.8h-9.8
							c-3,0-5.4,2.5-5.4,5.4L120.9,150.5L120.9,150.5z"/>
					</g>
				</g>
			</g>
		</g>
	</g>
	<g>
		<g>
			<g>
				<g>
					<path class="st14" d="M61.4,161.2c0.5-1.3,2.2-1.9,1.3-6.2c-0.7-3.1-7.1-4.9-11.3-0.2c-3.1,3.5-2.7,6.1-7.7,7.5
						c-5,1.4-7.4,9.8-3.2,13.1c4.3,3.4,0.2,10.5,6.7,12.9c6.5,2.5,12.1-9.4,12.1-9.4l-0.8-10.6L61.4,161.2z"/>
				</g>
			</g>
		</g>
	</g>
	<g>
		<g>
			<g>
				<g>
					<path class="st6" d="M47.4,225.7c0,0,0.5,6.4-0.1,8.8c-0.5,2.4-4.5,24.2-4.5,24.2l3.2,1.2c0,0,9.3-22.4,10.2-25.2
						c0.9-2.8,0.4-15.9,0.4-15.9l-4.6-5.4L47.4,225.7z"/>
				</g>
			</g>
		</g>
	</g>
	<g>
		<g>
			<g>
				<g>
					<path class="st6" d="M59.7,227.7c0,0,2.2,6.3,2.1,7.9c-0.1,1.6,2.7,25.1,2.7,25.1h3.9c0,0,1.1-22.7,1.3-25.6
						c0.2-3-1.4-9.5-1.4-9.5L59.7,227.7z"/>
				</g>
			</g>
		</g>
	</g>
	<g>
		<g>
			<g>
				<g>
					<path class="st7" d="M53.2,171.6c0,0-3.9,1.2-5.9,3.5c-2,2.3,5.3,17.5,5.3,17.5l12.5,0.5c0,0,1.9-10,1.7-13.1
						c-0.1-0.9-0.2-1.9-0.3-2.8c-0.4-3-2.8-5.3-5.7-5.6C58.7,171.3,56.1,171.2,53.2,171.6z"/>
				</g>
			</g>
		</g>
	</g>
	<g>
		<g>
			<g>
				<g>
					<path class="st15" d="M53.2,171.6c0,0,0.4,3.7,2.6,3.8c2.2,0.1,2.6-1.6,2.6-1.6s1.4,1.6,2.4,1s0.6-3.2,0.6-3.2
						S54.6,170.8,53.2,171.6z"/>
				</g>
			</g>
		</g>
	</g>
	<g>
		<g>
			<g>
				<g>
					<path class="st6" d="M55,164.9c0.1,2.3-0.8,6.5-0.8,6.5c0.4,2,3.7,3.1,5,1.9c0.9-0.7,1.2-3.1,1.3-4.8c0.1-1.2,0.1-2.1,0.1-2.1
						l-0.3-2.9l-4.4-0.8l-1.4-0.2l0.2,1.2l0.2,0.9C55,164.7,55,164.8,55,164.9L55,164.9z"/>
				</g>
			</g>
		</g>
	</g>
	<g>
		<g>
			<g>
				<g>
					<path class="st16" d="M55,164.9L55,164.9c1.1,2.7,4.4,3.5,5.5,3.7c0.1-1.2,0.1-2.1,0.1-2.1l-0.3-2.9l-4.4-0.8
						c-0.6,0.1-1,0.4-1.1,1C54.8,164,54.8,164.4,55,164.9z"/>
				</g>
			</g>
		</g>
	</g>
	<g>
		<g>
			<g>
				<g>
					<path class="st6" d="M61.6,157.3c0.9,1.6,3,9-0.7,10.1c-3.6,1.1-7.9-3.8-8.5-8.3C51.8,154.6,58.4,151.9,61.6,157.3z"/>
				</g>
			</g>
		</g>
	</g>
	<g>
		<g>
			<g>
				<g>
					<path class="st14" d="M61.9,157.9c-0.5-1-2.4-2.4-3-1.5c-0.6,0.9-0.9,2.6-3.6,3.1c-2.7,0.5-0.5,5-0.5,5s-3.9-2.9-4.2-4.4
						c-0.3-1.6,2.8-6.2,2.8-6.2l4.9-0.2l3.7,1.8L61.9,157.9z"/>
				</g>
			</g>
		</g>
	</g>
	<g>
		<g class="st17">
			<g>
				<g>
					<g>
						<g>
							<path class="st18" d="M59,161.3c0.2,0.8-0.3,1.5-1.1,1.7c-0.8,0.2-1.5-0.3-1.7-1.1c-0.2-0.8,0.3-1.5,1.1-1.7
								C58.1,160.1,58.8,160.5,59,161.3z"/>
						</g>
					</g>
				</g>
			</g>
			<g>
				<g>
					<g>
						<g>
							<path class="st18" d="M62.8,160.4c0.2,0.8-0.3,1.5-1.1,1.7c-0.8,0.2-1.5-0.3-1.7-1.1c-0.2-0.8,0.3-1.5,1.1-1.7
								C61.9,159.2,62.6,159.6,62.8,160.4z"/>
						</g>
					</g>
				</g>
			</g>
		</g>
		<g>
			<g>
				<g>
					<g>
						<g>
							<path class="st19" d="M57.6,163.1c-0.7,0-1.3-0.5-1.4-1.2c-0.1-0.4,0-0.8,0.2-1.1c0.2-0.3,0.6-0.6,0.9-0.7c0.1,0,0.3,0,0.4,0
								c0.7,0,1.3,0.5,1.4,1.2c0.2,0.8-0.3,1.6-1.1,1.8C57.8,163.1,57.7,163.2,57.6,163.1z M57.7,160.3c-0.1,0-0.2,0-0.3,0
								c-0.4,0.1-0.6,0.3-0.8,0.6c-0.2,0.3-0.2,0.7-0.2,1c0.1,0.6,0.7,1,1.3,1c0.1,0,0.2,0,0.3,0c0.7-0.2,1.2-0.9,1-1.6
								C58.8,160.7,58.3,160.3,57.7,160.3z"/>
						</g>
					</g>
				</g>
			</g>
			<g>
				<g>
					<g>
						<g>
							<path class="st19" d="M61.4,162.3c-0.7,0-1.3-0.5-1.4-1.2c-0.2-0.8,0.3-1.6,1.1-1.8c0.1,0,0.3,0,0.4,0c0.7,0,1.3,0.5,1.4,1.2
								c0.1,0.4,0,0.8-0.2,1.1c-0.2,0.3-0.6,0.6-0.9,0.7C61.7,162.2,61.6,162.3,61.4,162.3z M61.5,159.4c-0.1,0-0.2,0-0.3,0
								c-0.7,0.2-1.2,0.9-1,1.6c0.1,0.6,0.7,1,1.3,1c0.1,0,0.2,0,0.3,0c0.4-0.1,0.6-0.3,0.8-0.6s0.2-0.7,0.2-1
								C62.5,159.8,62.1,159.4,61.5,159.4z"/>
						</g>
					</g>
				</g>
			</g>
			<g>
				<g>
					<g>
						<g>
							<path class="st19" d="M59.1,161.3l-0.2-0.1c0,0,0.2-0.3,0.5-0.4c0.2,0,0.4,0,0.6,0.1l-0.1,0.1c-0.2-0.1-0.3-0.2-0.5-0.1
								C59.3,161.1,59.1,161.3,59.1,161.3z"/>
						</g>
					</g>
				</g>
			</g>
		</g>
	</g>
	<g>
		<g>
			<g>
				<g>
					<path class="st7" d="M51.3,193.9c0,0-5.8,11-5.6,18.9c0.2,8-6.4,10.7-5.5,11.9c0.8,1.3,8.7,1.4,13.6,3.1
						c4.9,1.7,12.5-1.7,15.9-2.1c3.4-0.5,3.7-3.7,1.2-7.9c-2.5-4.2-1.8-21.7-6.8-24.8S51.3,193.9,51.3,193.9z"/>
				</g>
			</g>
		</g>
	</g>
	<g>
		<g>
			<g>
				<g>
					<path class="st12" d="M64.4,260.8v4.3h1.2c0,0,0.1-1.5,0.6-1.4c0.5,0.1,2.3,1.6,4,1.8c1.8,0.2,1.9,0,1.9,0s-1.2-1-2.3-1.8
						c-1.1-0.8-1.5-3-1.5-3H64.4z"/>
				</g>
			</g>
		</g>
	</g>
	<g>
		<g>
			<g>
				<g>
					<path class="st12" d="M42.9,258.5l-1.8,4l1.2,0.4c0,0,0.6-1.4,1-1.1c0.4,0.3,1.7,2.3,3.3,3.1c1.6,0.8,1.8,0.6,1.8,0.6
						s-0.8-1.4-1.5-2.5c-0.7-1.1-0.7-3.3-0.7-3.3L42.9,258.5z"/>
				</g>
			</g>
		</g>
	</g>
	<g>
		<g>
			<g>
				<g>
					<polygon class="st15" points="57.8,182.3 53.2,196.1 63.5,197 67.8,183.5 					"/>
				</g>
			</g>
		</g>
	</g>
	<g>
		<g>
			<g>
				<g>
					<path class="st6" d="M49.8,186.3c0,0,0.7,3,1.5,3.7c0.7,0.7,10,1.5,11.6,1.1c1.7-0.4,3.3-1.9,3.5-0.7c0.2,1.2-1.1,3.3-1,3.6
						s-3.9,0.1-9.3,0s-7.3,1-8.9-1.9c-1.5-2.9-1.6-5.7-1.6-5.7L49.8,186.3L49.8,186.3z"/>
				</g>
			</g>
		</g>
	</g>
	<g>
		<g>
			<g>
				<g>
					<path class="st7" d="M47.1,175.1c0,0-1.9,3.4-2.3,7.9c-0.4,4.5-0.4,4.5-0.4,4.5s4.7,0.4,6-0.6c1.3-1,0.6-6.6,0-9.2
						C49.9,175.1,48.7,173.9,47.1,175.1z"/>
				</g>
			</g>
		</g>
	</g>
	<g>
		<g>
			<g>
				<g>
					<path class="st11" d="M129.6,150.5h-19c-1.3,0-2.4,1.1-2.4,2.4v0.2c0,1.3,1.1,2.4,2.4,2.4h19c1.3,0,2.4-1.1,2.4-2.4v-0.2
						C132,151.6,130.9,150.5,129.6,150.5z"/>
				</g>
			</g>
		</g>
	</g>
	<g>
		<g>
			<g>
				<g>
					<path class="st11" d="M229.7,103.7h-18.9c-1.3,0-2.4,1.1-2.4,2.4v0.2c0,1.3,1.1,2.4,2.4,2.4h19c1.3,0,2.4-1.1,2.4-2.4v-0.2
						C232.1,104.8,231,103.7,229.7,103.7z"/>
				</g>
			</g>
		</g>
	</g>
	<g>
		<g>
			<g>
				<g>
					<path class="st11" d="M129.6,18.9h-19c-1.3,0-2.4,1.1-2.4,2.4v0.2c0,1.3,1.1,2.4,2.4,2.4h19c1.3,0,2.4-1.1,2.4-2.4v-0.2
						C132,19.9,130.9,18.9,129.6,18.9z"/>
				</g>
			</g>
		</g>
	</g>
	<g>
		<g>
			<g>
				<g>
					<path class="st12" d="M129.1,73.3h-17.9c-0.8,0-1.5-0.7-1.5-1.5v-0.1c0-0.8,0.7-1.5,1.5-1.5h17.9c0.8,0,1.5,0.7,1.5,1.5v0.1
						C130.6,72.7,129.9,73.3,129.1,73.3z"/>
				</g>
			</g>
		</g>
	</g>
	<g>
		<g>
			<g>
				<g>
					<polygon class="st11" points="178.8,127.9 179.7,126.6 180,128.2 					"/>
				</g>
			</g>
		</g>
	</g>
	<g>
		<g>
			<g>
				<g>
					<rect x="119.4" y="17.5" class="st5" width="1.4" height="1.4"/>
				</g>
			</g>
		</g>
	</g>
	<g>
		<g>
			<g>
				<g>
					<g>
						<path class="st20" d="M89.4,128.9h-6.5c-4.5,0-8.3,3.7-8.3,8.3v1c0,1.6,0.5,3.1,1.3,4.3l-4.6,6.1l9.3-2.6
							c0.7,0.2,1.5,0.3,2.3,0.3h6.6c4.5,0,8.3-3.7,8.3-8.3v-1C97.7,132.6,94,128.9,89.4,128.9z"/>
					</g>
				</g>
			</g>
		</g>
		<g>
			<g>
				<g>
					<g>
						<path class="st1" d="M92.9,137.8H80.2c-0.2,0-0.3-0.1-0.3-0.3v-0.3c0-0.2,0.1-0.3,0.3-0.3h12.7c0.2,0,0.3,0.1,0.3,0.3v0.3
							C93.2,137.7,93.1,137.8,92.9,137.8z"/>
					</g>
				</g>
			</g>
		</g>
		<g>
			<g>
				<g>
					<g>
						<path class="st1" d="M92.9,140.9H80.2c-0.2,0-0.3-0.1-0.3-0.3v-0.4c0-0.2,0.1-0.3,0.3-0.3h12.7c0.2,0,0.3,0.1,0.3,0.3v0.3
							C93.2,140.7,93.1,140.9,92.9,140.9z"/>
					</g>
				</g>
			</g>
		</g>
		<g>
			<g>
				<g>
					<g>
						<path class="st1" d="M92.9,134.4H80.2c-0.2,0-0.3-0.1-0.3-0.3v-0.3c0-0.2,0.1-0.3,0.3-0.3h12.7c0.2,0,0.3,0.1,0.3,0.3v0.3
							C93.2,134.2,93.1,134.4,92.9,134.4z"/>
					</g>
				</g>
			</g>
		</g>
	</g>
	<g>
		<g>
			<g>
				<g>
					<g>
						<path class="st21" d="M145.9,242.6c-0.9,3.6-10.7,6.3-23.1,6.7c-0.2,0-0.4,0-0.7,0c-0.2,0-0.4,0-0.7,0c-0.2,0-0.3,0-0.5,0
							c-0.3,0-0.5,0-0.8,0c-0.2,0-0.5,0-0.7,0c-13.5-0.1-24.5-3.2-25.1-6.9l0.8-2.1L110,198v-0.1c0.6-1.4,4.8-2.6,10.1-2.6
							c5.2,0,9.6,1.1,10.1,2.6l0,0l14.9,42.1L145.9,242.6z"/>
					</g>
				</g>
			</g>
		</g>
		<g>
			<g>
				<g>
					<g>
						<path class="st22" d="M146,242.1c0,0.2,0,0.4-0.1,0.5c-0.9,3.6-10.7,6.3-23.1,6.7c-0.2,0-0.4,0-0.7,0c-0.2,0-0.4,0-0.7,0
							c-0.2,0-0.3,0-0.5,0c-0.3,0-0.5,0-0.8,0c-0.2,0-0.5,0-0.7,0c-13.5-0.1-24.5-3.2-25.1-6.9c0-0.1,0-0.2,0-0.3
							c0-0.6,0.3-1.2,0.8-1.8c2.8-3.2,12.9-5.5,25.1-5.5c11.8,0,21.9,2.3,24.9,5.3C145.7,240.8,146,241.4,146,242.1z"/>
					</g>
				</g>
			</g>
		</g>
		<g>
			<g>
				<g>
					<g>
						<path class="st23" d="M130.2,198.3c0,1.6-4.5,2.9-10.1,2.9c-5.6,0-10.1-1.3-10.1-2.9c0-0.1,0-0.2,0-0.2V198
							c0.6-1.4,4.8-2.6,10.1-2.6c5.2,0,9.6,1.1,10.1,2.6l0,0C130.2,198.1,130.2,198.2,130.2,198.3z"/>
					</g>
				</g>
			</g>
		</g>
	</g>
	<g>
		<g>
			<g>
				<g>
					<g>
						<path class="st21" d="M266.7,92.2h-29.2c-2,0-3.6-1.6-3.6-3.6V85c0-2,1.6-3.6,3.6-3.6h29.2c2,0,3.6,1.6,3.6,3.6v3.7
							C270.2,90.6,268.6,92.2,266.7,92.2z"/>
					</g>
				</g>
			</g>
		</g>
		<g>
			<g>
				<g>
					<g>
						<polygon class="st21" points="255.3,92.2 265.8,101.9 264.3,92.2 257.6,89.9 						"/>
					</g>
				</g>
			</g>
		</g>
		<g>
			<g>
				<g>
					<g>
						<path class="st1" d="M264.7,85.7H239c-0.2,0-0.3-0.1-0.3-0.3V85c0-0.2,0.1-0.3,0.3-0.3h25.7c0.2,0,0.3,0.1,0.3,0.3v0.3
							C265,85.5,264.8,85.7,264.7,85.7z"/>
					</g>
				</g>
			</g>
		</g>
		<g>
			<g>
				<g>
					<g>
						<path class="st1" d="M264.7,88.8H239c-0.2,0-0.3-0.1-0.3-0.3v-0.3c0-0.2,0.1-0.3,0.3-0.3h25.7c0.2,0,0.3,0.1,0.3,0.3v0.3
							C265,88.6,264.8,88.8,264.7,88.8z"/>
					</g>
				</g>
			</g>
		</g>
	</g>
	<g>
		<g>
			<g>
				<g>
					<path class="st8" d="M218,30.9c-2.2-0.1-4.9,1-4.9,1c-0.7-3.9-4.3-7.9-8.5-7.9c-4.1,0-7.2,3.6-7.9,7.5c0,0-2.5-0.6-3.8-0.6
						c-3.5,0.2-6.3,2.9-6.3,6.3l0,0c0,3.5,2.9,6.3,6.3,6.3H218c3.5,0,6.3-2.9,6.3-6.3l0,0C224.3,33.8,221.5,31.1,218,30.9z"/>
				</g>
			</g>
		</g>
	</g>
	<g>
		<g>
			<g>
				<g>
					<path class="st8" d="M317.4,82.6c-3.3-0.4-6,0.4-6,0.4c0-3.3-2.7-6.3-5.9-6.3s-5.9,3.1-5.9,6.3c0,0-0.9-0.4-1.9-0.4
						c-3.1,0.1-4.4,2-4.4,4.4l0,0c0,2.5,2,4.4,4.4,4.4h19.7c2.5,0,4.4-2,4.4-4.4l0,0C321.8,84.7,319.8,83,317.4,82.6z"/>
				</g>
			</g>
		</g>
	</g>
	<g>
		<g>
			<g>
				<g>
					<path class="st8" d="M74.9,96.8c2.3,0.1,4.5,1.1,4.5,1.1c0-2.9,1.9-5.6,4.6-6.2c3.2-0.6,5.5,2.1,5.5,4.9c0,0,0.8-0.4,1.7-0.4
						c2.7,0.1,3.8,1.7,3.8,3.8l0,0c0,2.1-1.7,3.8-3.8,3.8H75.8c-2.1,0-5.3-1.7-5.3-3.8l0,0C70.3,97.9,72.7,96.7,74.9,96.8z"/>
				</g>
			</g>
		</g>
	</g>
	<g>
		<g>
			<g>
				<g>
					<ellipse class="st23" cx="124.3" cy="215.6" rx="2.5" ry="2.5"/>
				</g>
			</g>
		</g>
	</g>
	<g>
		<g>
			<g>
				<g>
					<ellipse class="st10" cx="211.2" cy="159.3" rx="2.5" ry="2.5"/>
				</g>
			</g>
		</g>
	</g>
	<g>
		<g>
			<g>
				<g>
					<ellipse class="st9" cx="218.9" cy="130.6" rx="2.5" ry="2.5"/>
				</g>
			</g>
		</g>
	</g>
	<g>
		<g>
			<g>
				<g>
					<path class="st23" d="M117.4,205.8c0,0.9-0.7,1.7-1.7,1.7c-0.9,0-1.7-0.7-1.7-1.7c0-0.9,0.7-1.7,1.7-1.7
						C116.7,204.1,117.4,204.8,117.4,205.8z"/>
				</g>
			</g>
		</g>
	</g>
	<g>
		<g>
			<g>
				<g>
					<path class="st10" d="M242.8,158.8c0,0.9-0.7,1.7-1.7,1.7c-0.9,0-1.7-0.7-1.7-1.7c0-0.9,0.7-1.7,1.7-1.7
						C242.1,157.2,242.8,157.9,242.8,158.8z"/>
				</g>
			</g>
		</g>
	</g>
	<g>
		<g>
			<g>
				<g>
					<path class="st9" d="M225.3,138.3c0,0.9-0.7,1.7-1.7,1.7c-0.9,0-1.7-0.7-1.7-1.7c0-1,0.7-1.7,1.7-1.7
						C224.5,136.6,225.3,137.4,225.3,138.3z"/>
				</g>
			</g>
		</g>
	</g>
	<g>
		<g>
			<g>
				<g>
					<path class="st9" d="M192.7,136.4c0,0.6-0.5,1.1-1.1,1.1s-1.1-0.5-1.1-1.1s0.5-1.1,1.1-1.1S192.7,135.8,192.7,136.4z"/>
				</g>
			</g>
		</g>
	</g>
	<g>
		<g>
			<g>
				<g>
					<path class="st13" d="M121.9,59.6c0,0.6-0.5,1.1-1.1,1.1c-0.6,0-1.1-0.5-1.1-1.1s0.5-1.1,1.1-1.1
						C121.4,58.5,121.9,59.1,121.9,59.6z"/>
				</g>
			</g>
		</g>
	</g>
	<g>
		<g>
			<g>
				<g>
					<path class="st5" d="M123.1,32.7c0,0.6-0.5,1.1-1.1,1.1c-0.6,0-1.1-0.5-1.1-1.1c0-0.6,0.5-1.1,1.1-1.1
						C122.7,31.6,123.1,32.1,123.1,32.7z"/>
				</g>
			</g>
		</g>
	</g>
	<g>
		<g>
			<g>
				<g>
					<circle class="st5" cx="118.3" cy="42.1" r="1.5"/>
				</g>
			</g>
		</g>
	</g>
	<g>
		<g>
			<g>
				<g>
					<path class="st13" d="M122.9,79.3c0,0.5-0.4,1-1,1c-0.5,0-1-0.4-1-1c0-0.6,0.4-1,1-1C122.5,78.3,122.9,78.7,122.9,79.3z"/>
				</g>
			</g>
		</g>
	</g>
	<g>
		<g>
			<g>
				<g>
					<circle class="st13" cx="118.3" cy="65.7" r="1.9"/>
				</g>
			</g>
		</g>
	</g>
	<g>
		<g>
			<g>
				<g>
					<circle class="st9" cx="187" cy="130.1" r="0.9"/>
				</g>
			</g>
		</g>
	</g>
	<g>
		<g>
			<g>
				<g>
					<path class="st9" d="M209.6,145c0,1.2-0.9,2.1-2.1,2.1c-1.2,0-2.1-0.9-2.1-2.1c0-1.2,0.9-2.1,2.1-2.1
						C208.7,142.9,209.6,143.9,209.6,145z"/>
				</g>
			</g>
		</g>
	</g>
	<g>
		<g>
			<g>
				<g>
					<circle class="st23" cx="123.9" cy="169" r="2.1"/>
				</g>
			</g>
		</g>
	</g>
	<g>
		<g>
			<g>
				<g>
					<path class="st23" d="M121.1,188.9c0,0.9-0.7,1.7-1.7,1.7c-0.9,0-1.7-0.7-1.7-1.7c0-0.9,0.7-1.7,1.7-1.7
						C120.3,187.2,121.1,187.9,121.1,188.9z"/>
				</g>
			</g>
		</g>
	</g>
	<g>
		<g>
			<g>
				<g>
					<path class="st23" d="M118.8,160.8c0,0.6-0.5,1.1-1.1,1.1s-1.1-0.5-1.1-1.1c0-0.6,0.5-1.1,1.1-1.1
						C118.3,159.8,118.8,160.2,118.8,160.8z"/>
				</g>
			</g>
		</g>
	</g>
	<g>
		<g>
			<g>
				<g>
					<path class="st10" d="M201.4,165.7c0,0.6-0.5,1.1-1.1,1.1s-1.1-0.5-1.1-1.1s0.5-1.1,1.1-1.1S201.4,165.1,201.4,165.7z"/>
				</g>
			</g>
		</g>
	</g>
	<g>
		<g>
			<g>
				<g>
					<circle class="st23" cx="115.8" cy="224.2" r="3.2"/>
				</g>
			</g>
		</g>
	</g>
	<g>
		<g>
			<g>
				<g>
					<circle class="st10" cx="222.1" cy="167.5" r="3.2"/>
				</g>
			</g>
		</g>
	</g>
	<g>
		<g>
			<g>
				<g>
					<g>
						<path class="st14" d="M168.9,58.1L168.9,58.1c-0.3,0-0.5-0.2-0.5-0.5V43.3c0-0.3,0.2-0.5,0.5-0.5l0,0c0.3,0,0.5,0.2,0.5,0.5
							v14.3C169.4,57.9,169.2,58.1,168.9,58.1z"/>
					</g>
				</g>
			</g>
		</g>
		<g>
			<g>
				<g>
					<g>
						<path class="st14" d="M171.8,45.7L171.8,45.7c0,0.3-0.2,0.5-0.5,0.5h-2.4c-0.3,0-0.5-0.2-0.5-0.5l0,0c0-0.3,0.2-0.5,0.5-0.5
							h2.4C171.5,45.2,171.8,45.4,171.8,45.7z"/>
					</g>
				</g>
			</g>
		</g>
		<g>
			<g>
				<g>
					<g>
						<path class="st14" d="M171.8,48.9L171.8,48.9c0,0.3-0.2,0.5-0.5,0.5h-2.4c-0.3,0-0.5-0.2-0.5-0.5l0,0c0-0.3,0.2-0.5,0.5-0.5
							h2.4C171.5,48.5,171.8,48.7,171.8,48.9z"/>
					</g>
				</g>
			</g>
		</g>
		<g>
			<g>
				<g>
					<g>
						<path class="st14" d="M171.8,52.1L171.8,52.1c0,0.3-0.2,0.5-0.5,0.5h-2.4c-0.3,0-0.5-0.2-0.5-0.5l0,0c0-0.3,0.2-0.5,0.5-0.5
							h2.4C171.5,51.6,171.8,51.8,171.8,52.1z"/>
					</g>
				</g>
			</g>
		</g>
		<g>
			<g>
				<g>
					<g>
						<path class="st14" d="M171.8,55.4L171.8,55.4c0,0.3-0.2,0.5-0.5,0.5h-2.4c-0.3,0-0.5-0.2-0.5-0.5l0,0c0-0.3,0.2-0.5,0.5-0.5
							h2.4C171.5,54.9,171.8,55.2,171.8,55.4z"/>
					</g>
				</g>
			</g>
		</g>
	</g>
	<g>
		<g>
			<g>
				<g>
					<g>
						<path class="st24" d="M264.4,259.2c-0.2,0-0.4-0.1-0.5-0.3L221,167.8v90.8c0,0.3-0.3,0.6-0.6,0.6c-0.3,0-0.6-0.3-0.6-0.6
							v-93.5c0-0.3,0.2-0.5,0.5-0.6c0.3-0.1,0.6,0.1,0.7,0.3l44.1,93.5c0.1,0.3,0,0.7-0.3,0.8C264.6,259.2,264.5,259.2,264.4,259.2z
							"/>
					</g>
				</g>
			</g>
		</g>
		<g>
			<g>
				<g>
					<g>
						<path class="st24" d="M294.5,259.2c-0.2,0-0.4-0.1-0.5-0.3l-42.9-91.1v90.8c0,0.3-0.3,0.6-0.6,0.6s-0.6-0.3-0.6-0.6v-93.5
							c0-0.3,0.2-0.5,0.5-0.6c0.3-0.1,0.6,0.1,0.7,0.3l44.1,93.5c0.1,0.3,0,0.7-0.3,0.8C294.7,259.2,294.6,259.2,294.5,259.2z"/>
					</g>
				</g>
			</g>
		</g>
		<g>
			<g>
				<g>
					<g>
						<path class="st24" d="M271.5,210.4h-30.1c-0.3,0-0.6-0.3-0.6-0.6s0.3-0.6,0.6-0.6h30.1c0.3,0,0.6,0.3,0.6,0.6
							S271.8,210.4,271.5,210.4z"/>
					</g>
				</g>
			</g>
		</g>
		<g>
			<g>
				<g>
					<g>
						<path class="st24" d="M257.8,182.7h-29.2c-0.3,0-0.6-0.3-0.6-0.6s0.3-0.6,0.6-0.6h29.3c0.3,0,0.6,0.3,0.6,0.6
							C258.4,182.4,258.2,182.7,257.8,182.7z"/>
					</g>
				</g>
			</g>
		</g>
		<g>
			<g>
				<g>
					<g>
						<path class="st24" d="M278.3,224.7h-30.1c-0.3,0-0.6-0.3-0.6-0.6c0-0.3,0.3-0.6,0.6-0.6h30.1c0.3,0,0.6,0.3,0.6,0.6
							C278.9,224.4,278.6,224.7,278.3,224.7z"/>
					</g>
				</g>
			</g>
		</g>
		<g>
			<g>
				<g>
					<g>
						<path class="st24" d="M264.7,196.3h-29.4c-0.3,0-0.6-0.3-0.6-0.6s0.3-0.6,0.6-0.6h29.4c0.3,0,0.6,0.3,0.6,0.6
							S265,196.3,264.7,196.3z"/>
					</g>
				</g>
			</g>
		</g>
		<g>
			<g>
				<g>
					<g>
						<path class="st24" d="M251.7,169.3h-29.3c-0.3,0-0.6-0.3-0.6-0.6s0.3-0.6,0.6-0.6h29.3c0.3,0,0.6,0.3,0.6,0.6
							C252.3,169,252,169.3,251.7,169.3z"/>
					</g>
				</g>
			</g>
		</g>
		<g>
			<g>
				<g>
					<g>
						<path class="st24" d="M284.6,239.1h-29.5c-0.3,0-0.6-0.3-0.6-0.6s0.3-0.6,0.6-0.6h29.5c0.3,0,0.6,0.3,0.6,0.6
							S285,239.1,284.6,239.1z"/>
					</g>
				</g>
			</g>
		</g>
	</g>
	<g>
		<g>
			<g>
				<g>
					<g>
						<path class="st6" d="M249.9,146.8c0,0-1.1-2.3-1.8-3.1s-0.8,3.6,0,4.7L249.9,146.8z"/>
					</g>
				</g>
			</g>
		</g>
		<g>
			<g>
				<g>
					<g>
						<path class="st12" d="M244.2,139.8l6.9-4.3c0.1-0.1,0.3-0.1,0.4,0.1l9.7,11.4l-6.3,5.1c-0.2,0.2-0.5,0.1-0.7-0.1l-10.1-11.6
							C244,140.2,244,139.9,244.2,139.8z"/>
					</g>
				</g>
			</g>
		</g>
		<g>
			<g>
				<g>
					<g>
						<polygon class="st15" points="256.5,149.3 254.5,150.6 245.5,140.3 251,136.7 258.4,145 						"/>
					</g>
				</g>
			</g>
		</g>
		<g>
			<g>
				<g>
					<g>
						<polygon class="st6" points="267.7,135.4 275,135.5 274,127.2 271.2,127.9 267.9,129.2 267.8,132.1 						"/>
					</g>
				</g>
			</g>
		</g>
		<g>
			<g>
				<g>
					<g>
						<path class="st6" d="M266.5,119.8c0,0-2.2,8.4-0.4,9.8c1.8,1.5,5.9-1.5,5.9-1.5l0.8-7.2L266.5,119.8z"/>
					</g>
				</g>
			</g>
		</g>
		<g>
			<g>
				<g>
					<g>
						<path class="st6" d="M252,209.3l-8.9,0.1c-0.3,0-0.5-0.3-0.3-0.6c0.4-0.6,1.2-1.5,3.1-1.7c1-0.1,1.7-0.5,2.2-1.2
							c0.7-0.9,0.9-2.1,0.8-3.2c-0.2-1.9,3.1,0.4,3.1,0.4l0.1,3.6L252,209.3z"/>
					</g>
				</g>
			</g>
		</g>
		<g>
			<g>
				<g>
					<g>
						<path class="st14" d="M252,209.3l-8.9,0.1c-0.3,0-0.5-0.3-0.3-0.6c0.4-0.6,1.2-1.5,3.1-1.7c1-0.1,1.7-0.5,2.2-1.2
							c0.5,0.2,0.9,0.5,1.5,1c0.5,0.5,1.5,0.2,2.4-0.2L252,209.3z"/>
					</g>
				</g>
			</g>
		</g>
		<g>
			<g>
				<g>
					<g>
						<path class="st7" d="M261.6,161.9c0,0-18.6,14-19.3,16.6s5,27.1,5,27.1l4.8-1c0,0-2.1-22.2-1.1-23.2c1-1,19.8-9.7,22.3-13.9
							c2.5-4.1,1-8.3,1-8.3L261.6,161.9z"/>
					</g>
				</g>
			</g>
		</g>
		<g>
			<g>
				<g>
					<g>
						<path class="st6" d="M273.2,224l-8.9,0.1c-0.3,0-0.5-0.3-0.3-0.6c0.4-0.6,1.2-1.5,3.1-1.7c1-0.1,1.7-0.5,2.2-1.2
							c0.7-0.9,0.9-2.1,0.8-3.2c-0.2-1.9,3.1,0.4,3.1,0.4l0.1,3.6L273.2,224z"/>
					</g>
				</g>
			</g>
		</g>
		<g>
			<g>
				<g>
					<g>
						<path class="st14" d="M273.2,224l-8.9,0.1c-0.3,0-0.5-0.3-0.3-0.6c0.4-0.6,1.2-1.5,3.1-1.7c1-0.1,1.7-0.5,2.2-1.2
							c0.5,0.2,0.9,0.5,1.5,1c0.5,0.5,1.5,0.2,2.4-0.2L273.2,224z"/>
					</g>
				</g>
			</g>
		</g>
		<g>
			<g>
				<g>
					<g>
						<path class="st7" d="M263.3,168.2c0,0,0.4,21.5,0.5,24.5c0.1,3,5.2,26.6,5.2,26.6h4.6c0,0-0.8-25,0-27.2
							c0.8-2.4,4.6-23.5,3.9-29.9C277,155.7,263.3,168.2,263.3,168.2z"/>
					</g>
				</g>
			</g>
		</g>
		<g>
			<g>
				<g>
					<g>
						<path class="st20" d="M270.1,133.9c-2.4,0-4.6,0.5-6.8,1.3c-2.6,1-5.1,2.6-4.9,6c0.2,5.2,2.2,21.4,2.2,21.4s12.8,6.1,18.6,4.3
							c0,0,1.5-23.1,1.4-26.6c-0.1-3.5-2.2-5.5-6-5.9L270.1,133.9z"/>
					</g>
				</g>
			</g>
		</g>
		<g>
			<g>
				<g>
					<g>
						<path class="st20" d="M261.2,136.8c-2.2,0.4-3.8,0.3-5.7,16.7c0,0-5.6-6.4-5.7-6.7s-2.4,2.5-2.4,2.5s4.3,9.9,6.9,10.9
							c2.6,0.9,6.2-0.5,8.2-7.8C264.6,145,264.8,136.1,261.2,136.8z"/>
					</g>
				</g>
			</g>
		</g>
		<g>
			<g>
				<g>
					<g>
						<path class="st20" d="M277.1,135.2c0,0,4.6,1.2,4.5,7c-0.1,5.8,0.4,15.4-3.3,15C274.9,156.9,277.1,135.2,277.1,135.2z"/>
					</g>
				</g>
			</g>
		</g>
		<g>
			<g>
				<g>
					<g>
						<path class="st19" d="M266.2,117.6c0,0.6-1,2.1,0.3,2.3c1.3,0.2,2.2,0.5,2.6,2c0.4,1.6,2.1,0.8,2.1,2.2c0,1.4-1.3,3.6,0.4,4.4
							c1.7,0.9,1.9-0.1,2.7,0c0.8,0.1,1.7,0.4,2.4-0.3s2.7-1.1,2.1-3.3s1.1-4.7,0.5-5.8c-0.7-1.1-2.9-1.9-3.3-3
							c-0.5-1.1-2-1.4-4.1-1.1C269.5,115.4,266.1,114.2,266.2,117.6z"/>
					</g>
				</g>
			</g>
		</g>
		<g>
			<g>
				<g>
					<g>
						<path class="st20" d="M266.8,135.2c0,0,0.6-2.3,0.9-2.5c0.4-0.2,3.5-0.4,5.1-0.4s1.9,0.5,2.1,0.8c0.2,0.2,1,1.6,1.6,1.8
							c0.5,0.2,1.4,0.7,2.4,1.3C279.9,136.9,266.8,135.2,266.8,135.2z"/>
					</g>
				</g>
			</g>
		</g>
		<g>
			<g>
				<g>
					<g>
						<path class="st5" d="M247,138l1.1,1.2c0.2,0.3,0.6,0.3,0.9,0.1l0,0c0.4-0.2,0.5-0.8,0.1-1.1l-0.9-1L247,138z"/>
					</g>
				</g>
			</g>
		</g>
		<g>
			<g>
				<g>
					<g>
						<path class="st1" d="M260.9,156.6l-0.2-0.1c4.2-11.6,3.7-16.2,2.5-17.9c-0.7-1-1.5-1-1.5-1v-0.2c0,0,1,0,1.7,1.1
							C264.6,140.4,265.2,144.9,260.9,156.6z"/>
					</g>
				</g>
			</g>
		</g>
		<g>
			<g>
				<g>
					<g>
						<path class="st1" d="M279.7,154.1h-0.2c0.5-3.2,0.5-10.9,0.5-10.9h0.2C280.2,143.2,280.2,150.9,279.7,154.1z"/>
					</g>
				</g>
			</g>
		</g>
		<g>
			<g>
				<g>
					<g>
						<path class="st1" d="M265.4,173.6l-0.1-0.2c0.1,0,6.6-2.4,7.8-4.3l0.2,0.1C272.1,171.2,265.7,173.5,265.4,173.6z"/>
					</g>
				</g>
			</g>
		</g>
	</g>
	<g>
		<g>
			<g>
				<g>
					<path class="st25" d="M358.4,262.7c5,4.7,4.3,10.1-23,8.7c-11.2-0.6-21.6-2.9-21.6-5.2s8.8-4.2,20-5.1
						C345.5,260.2,356.6,261.1,358.4,262.7z"/>
				</g>
			</g>
		</g>
	</g>
	<g>
		<g>
			<g>
				<g>
					<path class="st6" d="M326.2,267.2l-8.9,0.1c-0.3,0-0.5-0.3-0.3-0.6c0.4-0.6,1.2-1.5,3.1-1.7c1-0.1,1.7-0.5,2.2-1.2
						c0.7-0.9,0.9-2.1,0.8-3.2c-0.2-1.9,3.1,0.4,3.1,0.4l0.1,3.6L326.2,267.2z"/>
				</g>
			</g>
		</g>
	</g>
	<g>
		<g>
			<g>
				<g>
					<path class="st14" d="M326.2,267.2l-8.9,0.1c-0.3,0-0.5-0.3-0.3-0.6c0.4-0.6,1.2-1.5,3.1-1.7c1-0.1,1.7-0.5,2.2-1.2
						c0.5,0.2,0.9,0.5,1.5,1c0.5,0.5,1.5,0.2,2.4-0.2L326.2,267.2z"/>
				</g>
			</g>
		</g>
	</g>
	<g>
		<g>
			<g>
				<g>
					<path class="st12" d="M313.8,163.5c-1.4-0.2-1.8,0.9-1.4,2.2c0.2,0.9-1.3,1.2-1.2,2.6c0.1,1.4,2,2.5,3.3,2.4
						c1.2-0.1,2.5,1.6,3.9,2.2c1.6,0.7,3.5,1.9,4.5,1c1.1-1,1.9-0.2,2.5-1.8c0.6-1.7-0.8-1.8-0.7-3.2c0.1-1.4,0.8-1.7,0.3-3
						c-0.5-1.1-2.2-0.2-2.2-1.1c0-1.1-0.8-2.5-1.9-2.3s-2.2,0.5-2.6-0.2c-0.5-0.8-1.8-1-2.4,0C315.6,162.9,314.9,163.5,313.8,163.5z
						"/>
				</g>
			</g>
		</g>
	</g>
	<g>
		<g>
			<g>
				<g>
					<path class="st6" d="M363.9,252.4l-4.5,7.6c-0.1,0.3-0.5,0.3-0.7,0c-0.3-0.6-0.7-1.8,0.2-3.5c0.5-0.9,0.5-1.7,0.2-2.5
						c-0.4-1-1.3-1.9-2.3-2.3c-1.7-0.8,2-2.4,2-2.4l3.1,1.8L363.9,252.4z"/>
				</g>
			</g>
		</g>
	</g>
	<g>
		<g>
			<g>
				<g>
					<path class="st14" d="M363.9,252.4l-4.5,7.6c-0.1,0.3-0.5,0.3-0.7,0c-0.3-0.6-0.7-1.8,0.2-3.5c0.5-0.9,0.5-1.7,0.2-2.5
						c0.4-0.3,0.9-0.5,1.7-0.7c0.6-0.2,0.9-1.2,1.1-2.2L363.9,252.4z"/>
				</g>
			</g>
		</g>
	</g>
	<g>
		<g>
			<g>
				<g>
					<path class="st12" d="M337,205.5c0,0,2.4,6.2,4.1,14.3c1.8,8.1,2.2,10.7,3.4,12.3c3.7,4.9,15.9,16.1,15.8,17
						c-0.1,0.9-4.4,4.3-4.4,4.3s-17.5-12.2-19.7-16.3c-1.5-2.6-9.9-29.4-9.9-29.4L337,205.5z"/>
				</g>
			</g>
		</g>
	</g>
	<g>
		<g>
			<g>
				<g>
					<path class="st12" d="M321.2,207.7c0,0-4.2,28.6-4.3,30.7c-0.1,1.9,3.8,21.2,4.4,24.1c0,0.2,0.2,0.4,0.5,0.3l5.1-0.5
						c0.2,0,0.4-0.2,0.4-0.5c-0.4-4.2-1.6-17.9-1.1-23.9c0.1-1.1,5.7-20.8,5.7-20.8l-2.5-15.5L321.2,207.7z"/>
				</g>
			</g>
		</g>
	</g>
	<g>
		<g>
			<g>
				<g>
					<path class="st6" d="M312,191.7c0,0-1.2,3.9-1.6,4c-0.3,0.2-9.8-0.1-10.3-0.1c-0.5,0-0.9-0.6-1.5-0.7c-1-0.2-1.8,1.3-1.2,2.6
						c0.6,1.3,2.5,1,3.3,1.1s11.8,1.6,12.9,1c1.1-0.6,2.5-5.3,2.5-5.3L312,191.7z"/>
				</g>
			</g>
		</g>
	</g>
	<g>
		<g>
			<g>
				<g>
					<path class="st5" d="M318.5,178.7c0,0-4.3,1.7-5.6,5.6c-0.9,2.7-1.8,5-2.4,6.3c-0.2,0.6,0,1.2,0.5,1.6c1.4,0.8,3.8,2.3,4.5,2.2
						c1.1-0.1,0.8-1.7,1.4-1.1c0.6,0.6,3.4,17.8,3.8,18.5s10.4,1.1,17.5-3.5c0,0,0-12.2-1.7-19c-1.8-7.2-2.5-10.2-4.4-11.2
						C330.1,177.4,323.8,176.8,318.5,178.7z"/>
				</g>
			</g>
		</g>
	</g>
	<g class="st26">
		<g>
			<g>
				<g>
					<path class="st8" d="M330.4,219.1l-0.4,0.4c-2.5,2.5-6.4,2.5-8.9,0l-30.9-31.1l9.3-9.3l30.9,31.1
						C332.9,212.7,332.9,216.7,330.4,219.1z"/>
				</g>
			</g>
		</g>
	</g>
	<g>
		<g>
			<g>
				<g>
					<g>
						<path class="st21" d="M328.7,217.5c-0.8,0.8-2,1.3-3.2,1.3s-2.3-0.5-3.2-1.3L302.9,198l-0.4-0.4v-0.1c0-0.8,2.8-1.5,6.1-1.5
							c2.8,0,5,0.5,5.8,1.1l0,0l0.2,0.2l14.1,14.1C330.3,213,330.3,215.8,328.7,217.5z"/>
					</g>
				</g>
			</g>
		</g>
		<g>
			<g>
				<g>
					<g>
						<path class="st23" d="M314.6,197.4c0,0.8-2.8,1.5-6.1,1.5c-2.6,0-4.7-0.4-5.6-0.9l-0.4-0.4v-0.1c0-0.8,2.8-1.5,6.1-1.5
							c2.8,0,5,0.5,5.8,1.1l0,0C314.5,197.2,314.5,197.2,314.6,197.4C314.6,197.2,314.6,197.3,314.6,197.4z"/>
					</g>
				</g>
			</g>
		</g>
	</g>
	<g>
		<g>
			<g>
				<g>
					<path class="st6" d="M317.1,175l1.1,4.9c0,0,1.1,1.6,3.3,0.8c1.9-0.7,2.7-2.1,2.7-2.1l-2.1-7l-0.2,0.2L317.1,175z"/>
				</g>
			</g>
		</g>
	</g>
	<g>
		<g>
			<g>
				<g>
					<path class="st16" d="M317.1,175l0.7,3.1c2.8-1.3,3.8-5,3.9-6.3L317.1,175z"/>
				</g>
			</g>
		</g>
	</g>
	<g>
		<g>
			<g>
				<g>
					<path class="st6" d="M316.3,176.5c3.1,0.6,5-4,5-4s1.3-0.6,0.9-2.3c-0.5-1.6-1.4,1.2-1.8-0.3c-0.4-1.4-0.7-1.9-1.6-1.7
						c-0.1,0-0.2,0-0.3,0l0,0c-0.7-0.1-2.1-0.5-3.2-1.1c-0.8-0.4-1.8,0.2-1.8,1.1l0,0C313.5,171.2,314.1,176,316.3,176.5z"/>
				</g>
			</g>
		</g>
	</g>
	<g>
		<g>
			<g>
				<g>
					<path class="st6" d="M325.6,190.2c0,0-3.5,7.2-4.4,8.2c-1,1-10.4,5.9-11.4,6.3c-1.1,0.3-3.3,0.6-3,1.5c0.3,0.9,1.8,2.1,2.2,2.3
						c0.4,0.2,2.2-1.1,3.1-1.6c0.5-0.3,12.4-4.5,13.3-4.9c0.8-0.4,7.3-9.8,7.3-9.8L325.6,190.2z"/>
				</g>
			</g>
		</g>
	</g>
	<g>
		<g>
			<g>
				<g>
					<path class="st5" d="M331,178.9c0,0-2.9,0.3-4.3,5.7c-1.5,5.4-2.1,6.3-2.1,6.3s3.9,1.9,5.2,2.2c1.4,0.4,1.4,0.6,2.2-0.4
						c0.9-0.9,2.7-5.8,2.3-8.7C334,181.3,333.1,178.7,331,178.9z"/>
				</g>
			</g>
		</g>
	</g>
	<g>
		<g>
			<g>
				<g>
					<g>
						<g>
							<path class="st11" d="M345.8,160.7h-5c-3.8,0-7-3.2-7-7V151c0-3.8,3.2-7,7-7h5c3.8,0,7,3.2,7,7v2.7
								C352.9,157.5,349.8,160.7,345.8,160.7z"/>
						</g>
					</g>
				</g>
			</g>
			<g>
				<g>
					<g>
						<g>
							<polygon class="st11" points="340,160.7 339.1,167.8 345.7,160.7 342.9,158.8 							"/>
						</g>
					</g>
				</g>
			</g>
		</g>
		<g>
			<g>
				<g>
					<g>
						<circle class="st1" cx="343.4" cy="152.2" r="0.8"/>
					</g>
				</g>
			</g>
		</g>
		<g>
			<g>
				<g>
					<g>
						<circle class="st1" cx="347.2" cy="152.2" r="0.8"/>
					</g>
				</g>
			</g>
		</g>
		<g>
			<g>
				<g>
					<g>
						<circle class="st1" cx="339" cy="152.2" r="0.8"/>
					</g>
				</g>
			</g>
		</g>
	</g>
	<g>
		<g>
			<g>
				<g>
					<path class="st1" d="M325,188.4l-0.1-0.2L325,188.4l-0.1-0.2c0,0,1-0.8,2.5-4.6c1-2.5,2.2-4,3.5-4.3c0.6-0.1,1.3,0,1.8,0.5
						l-0.2,0.2c-0.5-0.4-1-0.6-1.6-0.5c-1.2,0.3-2.4,1.8-3.3,4.1C326,187.6,325.1,188.3,325,188.4z"/>
				</g>
			</g>
		</g>
	</g>
	<g>
		<g>
			<g>
				<g>
					<path class="st1" d="M316.1,190.6c0,0-0.3-2.5-0.5-4.4c-0.2-2.2,0.3-4.8,0.3-4.8h0.2c0,0-0.5,2.7-0.3,4.7
						c0.1,2,0.5,4.4,0.5,4.4L316.1,190.6z"/>
				</g>
			</g>
		</g>
	</g>
	<g>
		<g>
			<g>
				<g>
					<path class="st11" d="M299.3,178.6l-9.7,9.7c-0.7,0.7-0.7,1.8,0,2.5l0.1,0.1c0.7,0.7,1.8,0.7,2.5,0l9.7-9.7
						c0.7-0.7,0.7-1.8,0-2.5l-0.1-0.1C301.1,177.9,300,177.9,299.3,178.6z"/>
				</g>
			</g>
		</g>
	</g>
	<g>
		<g>
			<g>
				<g>
					<circle class="st23" cx="306.6" cy="192.3" r="1.1"/>
				</g>
			</g>
		</g>
	</g>
	<g>
		<g>
			<g>
				<g>
					<path class="st23" d="M298.9,189.1c0,0.4-0.4,0.8-0.8,0.8s-0.8-0.4-0.8-0.8s0.4-0.8,0.8-0.8S298.9,188.6,298.9,189.1z"/>
				</g>
			</g>
		</g>
	</g>
	<g>
		<g>
			<g>
				<g>
					<g>
						<path class="st11" d="M313.3,128.8l-4.3-2.6v-4.8l4.3-2.5l4.3,2.5v5L313.3,128.8z M309.3,126l3.9,2.4l3.9-2.3v-4.6l-3.9-2.3
							l-3.9,2.3V126z"/>
					</g>
				</g>
			</g>
		</g>
		<g>
			<g>
				<g>
					<g>
						<path class="st11" d="M318,136.9l-4.3-2.6v-4.9l4.3-2.5l4.3,2.5v5L318,136.9z M314,134.1l3.9,2.4l3.9-2.3v-4.6l-3.9-2.3
							l-3.9,2.3V134.1z"/>
					</g>
				</g>
			</g>
		</g>
		<g>
			<g>
				<g>
					<g>
						<path class="st11" d="M308.6,136.9l-4.3-2.6v-4.9l4.3-2.5l4.3,2.5v5L308.6,136.9z M304.7,134.1l3.9,2.4l3.9-2.3v-4.6l-3.9-2.3
							l-3.9,2.3V134.1z"/>
					</g>
				</g>
			</g>
		</g>
		<g>
			<g>
				<g>
					<g>
						<rect x="313.1" y="114.8" class="st11" width="0.4" height="2.9"/>
					</g>
				</g>
			</g>
		</g>
		<g>
			<g>
				<g>
					<g>
						
							<rect x="324.5" y="134.3" transform="matrix(0.5168 -0.8561 0.8561 0.5168 40.6939 343.5665)" class="st11" width="0.4" height="2.9"/>
					</g>
				</g>
			</g>
		</g>
		<g>
			<g>
				<g>
					<g>
						
							<rect x="300.5" y="135.5" transform="matrix(0.856 -0.5169 0.5169 0.856 -26.6902 175.6103)" class="st11" width="2.9" height="0.4"/>
					</g>
				</g>
			</g>
		</g>
		<g>
			<g>
				<g>
					<g>
						<g>
							<path class="st11" d="M310.8,113v-2.6h0.3v1.1h1.3v-1.1h0.3v2.6h-0.2v-1.2h-1.3v1.2H310.8z"/>
						</g>
					</g>
				</g>
			</g>
			<g>
				<g>
					<g>
						<g>
							<path class="st11" d="M313.3,111.7c0-0.4,0.1-0.8,0.3-1c0.2-0.2,0.5-0.4,0.9-0.4c0.2,0,0.5,0.1,0.6,0.2
								c0.2,0.1,0.3,0.3,0.4,0.5c0.1,0.2,0.2,0.4,0.2,0.7s-0.1,0.5-0.2,0.7c-0.1,0.2-0.3,0.4-0.5,0.5s-0.4,0.2-0.6,0.2
								s-0.5-0.1-0.7-0.2c-0.2-0.1-0.3-0.3-0.4-0.5C313.3,112.1,313.3,111.9,313.3,111.7z M313.5,111.7c0,0.3,0.1,0.6,0.3,0.7
								c0.2,0.2,0.4,0.3,0.6,0.3c0.3,0,0.5-0.1,0.6-0.3c0.2-0.2,0.2-0.4,0.2-0.8c0-0.2,0-0.4-0.1-0.6c-0.1-0.2-0.2-0.3-0.3-0.4
								c-0.1-0.1-0.3-0.1-0.5-0.1s-0.5,0.1-0.6,0.2C313.6,111,313.5,111.3,313.5,111.7z"/>
						</g>
					</g>
				</g>
			</g>
		</g>
		<g>
			<g>
				<g>
					<g>
						<g>
							<path class="st11" d="M327.7,139.5v-2.6h0.3v1.1h1.3v-1.1h0.3v2.6h-0.3v-1.2H328v1.2H327.7z"/>
						</g>
					</g>
				</g>
			</g>
			<g>
				<g>
					<g>
						<g>
							<path class="st11" d="M330.1,138.2c0-0.4,0.1-0.8,0.3-1c0.2-0.2,0.5-0.4,0.9-0.4c0.2,0,0.5,0.1,0.6,0.2
								c0.2,0.1,0.3,0.3,0.4,0.5c0.1,0.2,0.2,0.4,0.2,0.7s-0.1,0.5-0.2,0.7c-0.1,0.2-0.3,0.4-0.5,0.5s-0.4,0.2-0.6,0.2
								s-0.5-0.1-0.7-0.2c-0.2-0.1-0.3-0.3-0.4-0.5C330.1,138.7,330.1,138.5,330.1,138.2z M330.4,138.2c0,0.3,0.1,0.6,0.3,0.7
								c0.2,0.2,0.4,0.3,0.6,0.3c0.3,0,0.5-0.1,0.6-0.3c0.2-0.2,0.2-0.4,0.2-0.8c0-0.2,0-0.4-0.1-0.6c-0.1-0.2-0.2-0.3-0.3-0.4
								c-0.1-0.1-0.3-0.1-0.5-0.1s-0.5,0.1-0.6,0.2C330.5,137.6,330.4,137.8,330.4,138.2z"/>
						</g>
					</g>
				</g>
			</g>
		</g>
		<g>
			<g>
				<g>
					<g>
						<g>
							<path class="st11" d="M296.9,138.6l0.3,0.1c-0.1,0.3-0.2,0.5-0.4,0.6c-0.2,0.1-0.4,0.2-0.7,0.2c-0.3,0-0.5-0.1-0.7-0.2
								c-0.2-0.1-0.3-0.3-0.4-0.5c-0.1-0.2-0.1-0.4-0.1-0.7c0-0.3,0.1-0.5,0.2-0.7c0.1-0.2,0.2-0.4,0.4-0.5c0.2-0.1,0.4-0.2,0.6-0.2
								c0.3,0,0.5,0.1,0.7,0.2c0.2,0.1,0.3,0.3,0.4,0.6l-0.3,0.1c-0.1-0.2-0.1-0.3-0.3-0.4c-0.1-0.1-0.3-0.1-0.4-0.1
								c-0.2,0-0.4,0-0.5,0.1c-0.1,0.1-0.2,0.2-0.3,0.4c-0.1,0.2-0.1,0.3-0.1,0.5c0,0.2,0,0.4,0.1,0.6c0.1,0.2,0.2,0.3,0.3,0.4
								c0.1,0.1,0.3,0.1,0.4,0.1c0.2,0,0.4-0.1,0.5-0.2C296.8,139,296.9,138.8,296.9,138.6z"/>
						</g>
					</g>
				</g>
			</g>
			<g>
				<g>
					<g>
						<g>
							<path class="st11" d="M297.6,138.2c0-0.4,0.1-0.8,0.3-1c0.2-0.2,0.5-0.4,0.9-0.4c0.2,0,0.5,0.1,0.6,0.2
								c0.2,0.1,0.3,0.3,0.4,0.5c0.1,0.2,0.2,0.4,0.2,0.7s-0.1,0.5-0.2,0.7c-0.1,0.2-0.3,0.4-0.5,0.5s-0.4,0.2-0.6,0.2
								c-0.2,0-0.5-0.1-0.7-0.2c-0.2-0.1-0.3-0.3-0.4-0.5C297.6,138.7,297.6,138.5,297.6,138.2z M297.9,138.2c0,0.3,0.1,0.6,0.3,0.7
								c0.2,0.2,0.4,0.3,0.6,0.3c0.3,0,0.5-0.1,0.6-0.3c0.2-0.2,0.2-0.4,0.2-0.8c0-0.2,0-0.4-0.1-0.6c-0.1-0.2-0.2-0.3-0.3-0.4
								c-0.1-0.1-0.3-0.1-0.5-0.1s-0.5,0.1-0.6,0.2C298,137.6,297.9,137.8,297.9,138.2z"/>
						</g>
					</g>
				</g>
			</g>
		</g>
	</g>
	<g>
		<g>
			<g>
				<g>
					<g>
						
							<rect x="189.1" y="72.1" transform="matrix(1.422617e-03 -1 1 1.422617e-03 115.893 262.1381)" class="st11" width="0.3" height="2"/>
					</g>
				</g>
			</g>
		</g>
		<g>
			<g>
				<g>
					<g>
						
							<rect x="195.3" y="72" transform="matrix(1.422617e-03 -1 1 1.422617e-03 122.2011 268.4048)" class="st11" width="0.3" height="2"/>
					</g>
				</g>
			</g>
		</g>
		<g>
			<g>
				<g>
					<g>
						
							<rect x="191.3" y="69.6" transform="matrix(1.422617e-03 -1 1 1.422617e-03 122.2791 261.9715)" class="st11" width="2" height="0.3"/>
					</g>
				</g>
			</g>
		</g>
		<g>
			<g>
				<g>
					<g>
						
							<rect x="191.3" y="76.5" transform="matrix(1.422617e-03 -1 1 1.422617e-03 115.332 268.8709)" class="st11" width="2" height="0.3"/>
					</g>
				</g>
			</g>
		</g>
		<g>
			<g>
				<g>
					<g>
						
							<rect x="201.9" y="72.1" transform="matrix(1.422617e-03 -1 1 1.422617e-03 128.7062 274.9967)" class="st11" width="0.3" height="2"/>
					</g>
				</g>
			</g>
		</g>
		<g>
			<g>
				<g>
					<g>
						<path class="st11" d="M185.3,74.3v-2.6h0.3v1.1h1.3v-1.1h0.3v2.6h-0.3v-1.2h-1.3v1.2H185.3z"/>
					</g>
				</g>
			</g>
		</g>
		<g>
			<g>
				<g>
					<g>
						<path class="st11" d="M191.4,67.9v-2.6h0.3v1.1h1.3v-1.1h0.3v2.6H193v-1.2h-1.3v1.2H191.4z"/>
					</g>
				</g>
			</g>
		</g>
		<g>
			<g>
				<g>
					<g>
						<path class="st11" d="M191.4,81.4v-2.6h0.3v1.1h1.3v-1.1h0.3v2.6H193v-1.2h-1.3v1.2H191.4z"/>
					</g>
				</g>
			</g>
		</g>
		<g>
			<g>
				<g>
					<g>
						<path class="st11" d="M204.3,74.3v-2.6h0.3v1.1h1.3v-1.1h0.3v2.6h-0.3v-1.2h-1.3v1.2H204.3z"/>
					</g>
				</g>
			</g>
		</g>
		<g>
			<g>
				<g>
					<g>
						<path class="st11" d="M197.7,73.1c0-0.4,0.1-0.8,0.3-1c0.2-0.2,0.5-0.4,0.9-0.4c0.2,0,0.5,0.1,0.6,0.2
							c0.2,0.1,0.3,0.3,0.4,0.5c0.1,0.2,0.2,0.4,0.2,0.7c0,0.3-0.1,0.5-0.2,0.7c-0.1,0.2-0.3,0.4-0.5,0.5s-0.4,0.2-0.6,0.2
							c-0.2,0-0.5-0.1-0.7-0.2s-0.3-0.3-0.4-0.5C197.7,73.5,197.7,73.3,197.7,73.1z M198,73.1c0,0.3,0.1,0.6,0.3,0.7
							c0.2,0.2,0.4,0.3,0.6,0.3c0.3,0,0.5-0.1,0.6-0.3c0.2-0.2,0.2-0.4,0.2-0.8c0-0.2,0-0.4-0.1-0.6s-0.2-0.3-0.3-0.4
							c-0.1-0.1-0.3-0.1-0.5-0.1s-0.5,0.1-0.6,0.2C198.1,72.4,198,72.7,198,73.1z"/>
					</g>
				</g>
			</g>
		</g>
		<g>
			<g>
				<g>
					<g>
						<path class="st11" d="M193.1,73.4l0.3,0.1c-0.1,0.3-0.2,0.5-0.4,0.6s-0.4,0.2-0.7,0.2s-0.5-0.1-0.7-0.2s-0.3-0.3-0.4-0.5
							c-0.1-0.2-0.1-0.4-0.1-0.7c0-0.3,0.1-0.5,0.2-0.7c0.1-0.2,0.2-0.4,0.4-0.5s0.4-0.2,0.6-0.2c0.3,0,0.5,0.1,0.7,0.2
							s0.3,0.3,0.4,0.6l-0.3,0.1c-0.1-0.2-0.1-0.3-0.3-0.4c-0.1-0.1-0.3-0.1-0.4-0.1c-0.2,0-0.4,0-0.5,0.1c-0.1,0.1-0.2,0.2-0.3,0.4
							c-0.1,0.2-0.1,0.3-0.1,0.5s0,0.4,0.1,0.6s0.2,0.3,0.3,0.4c0.1,0.1,0.3,0.1,0.4,0.1c0.2,0,0.4-0.1,0.5-0.2
							C193,73.8,193.1,73.6,193.1,73.4z"/>
					</g>
				</g>
			</g>
		</g>
	</g>
	<g>
		<g>
			<g>
				<g>
					<path class="st11" d="M59.1,108.7v-2.6h0.3v1.1h1.4v-1.1h0.3v2.6h-0.3v-1.2h-1.3v1.2H59.1z"/>
				</g>
			</g>
		</g>
	</g>
	<g>
		<g>
			<g>
				<g>
					<path class="st11" d="M57.7,107.7l0.3,0.1c-0.1,0.3-0.2,0.5-0.4,0.6c-0.2,0.1-0.4,0.2-0.7,0.2c-0.3,0-0.5-0.1-0.7-0.2
						c-0.2-0.1-0.3-0.3-0.4-0.5c-0.1-0.2-0.1-0.4-0.1-0.7s0.1-0.5,0.2-0.7c0.1-0.2,0.2-0.4,0.4-0.5c0.2-0.1,0.4-0.2,0.6-0.2
						c0.3,0,0.5,0.1,0.7,0.2c0.2,0.1,0.3,0.3,0.4,0.6l-0.3,0.1c-0.1-0.2-0.1-0.3-0.3-0.4c-0.1-0.1-0.3-0.1-0.4-0.1
						c-0.2,0-0.4,0-0.5,0.1s-0.2,0.2-0.3,0.4c-0.1,0.2-0.1,0.3-0.1,0.5s0,0.4,0.1,0.6c0.1,0.2,0.2,0.3,0.3,0.4
						c0.1,0.1,0.3,0.1,0.4,0.1c0.2,0,0.4-0.1,0.5-0.2C57.6,108.1,57.7,108,57.7,107.7z"/>
				</g>
			</g>
		</g>
	</g>
	<g>
		<g>
			<g>
				<g>
					<rect x="46.3" y="104.5" class="st11" width="0.4" height="2.9"/>
				</g>
			</g>
		</g>
	</g>
	<g>
		<g>
			<g>
				<g>
					
						<rect x="52" y="109.1" transform="matrix(0.7647 -0.6444 0.6444 0.7647 -57.8438 60.1428)" class="st11" width="2.9" height="0.4"/>
				</g>
			</g>
		</g>
	</g>
	<g>
		<g>
			<g>
				<g>
					<rect x="46.3" y="120.1" class="st11" width="0.4" height="2.9"/>
				</g>
			</g>
		</g>
	</g>
	<g>
		<g>
			<g>
				<g>
					<path class="st11" d="M45.3,101.9c0-0.4,0.1-0.8,0.3-1c0.2-0.2,0.5-0.4,0.9-0.4c0.2,0,0.5,0.1,0.6,0.2c0.2,0.1,0.3,0.3,0.4,0.5
						c0.1,0.2,0.2,0.4,0.2,0.7s-0.1,0.5-0.2,0.7c-0.1,0.2-0.3,0.4-0.5,0.5s-0.4,0.2-0.6,0.2c-0.2,0-0.5-0.1-0.7-0.2
						c-0.2-0.1-0.3-0.3-0.4-0.5C45.3,102.3,45.3,102.1,45.3,101.9z M45.6,101.9c0,0.3,0.1,0.6,0.3,0.7c0.2,0.2,0.4,0.3,0.6,0.3
						c0.3,0,0.5-0.1,0.6-0.3c0.2-0.2,0.2-0.4,0.2-0.8c0-0.2,0-0.4-0.1-0.6c-0.1-0.2-0.2-0.3-0.3-0.4c-0.1-0.1-0.3-0.1-0.5-0.1
						s-0.5,0.1-0.6,0.2C45.7,101.2,45.6,101.5,45.6,101.9z"/>
				</g>
			</g>
		</g>
	</g>
	<g>
		<g>
			<g>
				<g>
					<path class="st11" d="M45.3,125.5c0-0.4,0.1-0.8,0.3-1c0.2-0.2,0.5-0.4,0.9-0.4c0.2,0,0.5,0.1,0.6,0.2c0.2,0.1,0.3,0.3,0.4,0.5
						c0.1,0.2,0.2,0.4,0.2,0.7c0,0.3-0.1,0.5-0.2,0.7c-0.1,0.2-0.3,0.4-0.5,0.5s-0.4,0.2-0.6,0.2c-0.2,0-0.5-0.1-0.7-0.2
						c-0.2-0.1-0.3-0.3-0.4-0.5C45.3,126,45.3,125.8,45.3,125.5z M45.6,125.6c0,0.3,0.1,0.6,0.3,0.7c0.2,0.2,0.4,0.3,0.6,0.3
						c0.3,0,0.5-0.1,0.6-0.3c0.2-0.2,0.2-0.4,0.2-0.8c0-0.2,0-0.4-0.1-0.6c-0.1-0.2-0.2-0.3-0.3-0.4c-0.1-0.1-0.3-0.1-0.5-0.1
						s-0.5,0.1-0.6,0.2C45.7,125,45.6,125.3,45.6,125.6z"/>
				</g>
			</g>
		</g>
	</g>
	<g>
		<g>
			<g>
				<g>
					<g>
						<path class="st11" d="M42.1,111.2l4.3-2.5l4.3,2.5v5l-4.3,2.5l-4.3-2.6 M42.5,115.9l3.9,2.4l3.9-2.3v-4.6l-3.9-2.3l-3.9,2.3"
							/>
					</g>
				</g>
			</g>
		</g>
		<g>
			<g>
				<g>
					<g>
						<path class="st11" d="M38.2,118.7l-4.3-2.6v-4.8l4.3-2.5l4.3,2.5v5L38.2,118.7z M34.2,115.9l3.9,2.4l3.9-2.3v-4.6l-3.9-2.3
							l-3.9,2.3V115.9z"/>
					</g>
				</g>
			</g>
		</g>
	</g>
	<g>
		<g>
			<g>
				<rect x="49.3" y="111.9" class="st11" width="0.4" height="3.5"/>
			</g>
		</g>
	</g>
	<g>
		<g>
			<g>
				<rect x="41.1" y="111.9" class="st11" width="0.4" height="3.5"/>
			</g>
		</g>
	</g>
	<g>
		<g>
			<g>
				
					<rect x="36.3" y="114.8" transform="matrix(0.5206 -0.8538 0.8538 0.5206 -82.0071 87.0562)" class="st11" width="0.4" height="3.5"/>
			</g>
		</g>
	</g>
	<g>
		<g>
			<g>
				
					<rect x="34.9" y="110.6" transform="matrix(0.8646 -0.5024 0.5024 0.8646 -50.7289 33.3937)" class="st11" width="3.5" height="0.4"/>
			</g>
		</g>
	</g>
	<g>
		<g>
			<g>
				<g>
					<path class="st11" d="M62.7,109.4v0.2h-0.9v-0.1c0-0.1,0.1-0.1,0.1-0.2c0-0.1,0.1-0.1,0.2-0.2c0.1-0.1,0.2-0.2,0.3-0.3
						s0.1-0.1,0.1-0.2c0-0.1,0-0.1-0.1-0.2c0,0-0.1-0.1-0.2-0.1c-0.1,0-0.1,0-0.2,0.1c0,0-0.1,0.1-0.1,0.2h-0.2
						c0-0.1,0.1-0.2,0.1-0.3c0.1-0.1,0.2-0.1,0.3-0.1s0.2,0,0.3,0.1c0.1,0.1,0.1,0.2,0.1,0.3s0,0.1,0,0.2c0,0.1-0.1,0.1-0.1,0.2
						c-0.1,0.1-0.1,0.1-0.3,0.2c-0.1,0.1-0.2,0.1-0.2,0.2l-0.1,0.1L62.7,109.4L62.7,109.4z"/>
				</g>
			</g>
		</g>
	</g>
</g>
</svg>
