<?xml version="1.0" encoding="utf-8"?>
<!-- Generator: Adobe Illustrator 24.2.0, SVG Export Plug-In . SVG Version: 6.00 Build 0)  -->
<svg version="1.1" id="Layer_1" xmlns="http://www.w3.org/2000/svg" xmlns:xlink="http://www.w3.org/1999/xlink" x="0px" y="0px"
	 viewBox="0 0 18.4 29.1" style="enable-background:new 0 0 18.4 29.1;" xml:space="preserve">
<style type="text/css">
	.st0{fill:#F16B24;}
	.st1{fill:none;stroke:#FFFFFF;stroke-width:0.4;stroke-linecap:round;stroke-miterlimit:10;stroke-dasharray:0.8076,1.0095;}
	.st2{fill:#FFFFFF;}
</style>
<path class="st0" d="M6.4,1.2L1.3,6.3C0.5,7.1,0.1,8.1,0.1,9.2V25c0,2.3,1.8,4.1,4.1,4.1l10.2,0c2.3,0,4.1-1.8,4.1-4.1l0-15.7
	c0-1.1-0.4-2.1-1.2-2.9l-5.1-5.1C10.6-0.4,8-0.4,6.4,1.2L6.4,1.2z M11.1,9.6c-1,1-2.7,1-3.8,0s-1-2.7,0-3.8c1-1,2.7-1,3.8,0
	S12.2,8.6,11.1,9.6z"/>
<g>
	<g>
		<path class="st1" d="M6.5,2.3L1.7,7.1C1,7.8,0.6,8.8,0.6,9.8v14.7c0,2.1,1.7,3.8,3.8,3.8l9.5,0c2.1,0,3.8-1.7,3.8-3.8l0-14.7
			c0-1-0.4-2-1.1-2.7l-4.7-4.7C10.4,0.8,8,0.8,6.5,2.3z"/>
	</g>
</g>
<g>
	<path class="st2" d="M5.6,18.3h-2v2.1h-1v-5.1H6v0.8H3.6v1.4h2V18.3z"/>
	<path class="st2" d="M8.4,17.5l-0.4,0c-0.2,0-0.3,0-0.4,0.1c-0.1,0.1-0.2,0.2-0.2,0.3v2.6h-1v-3.8h0.9l0,0.6
		c0.1-0.2,0.2-0.4,0.3-0.5c0.1-0.1,0.3-0.2,0.5-0.2c0.1,0,0.1,0,0.1,0c0,0,0.1,0,0.1,0L8.4,17.5z"/>
	<path class="st2" d="M10.5,20.5c-0.6,0-1-0.2-1.3-0.5c-0.3-0.3-0.5-0.8-0.5-1.3v-0.1c0-0.6,0.2-1,0.5-1.4c0.3-0.4,0.7-0.5,1.3-0.5
		c0.5,0,0.9,0.2,1.2,0.5c0.3,0.3,0.4,0.7,0.4,1.3v0.5H9.8l0,0c0,0.3,0.1,0.5,0.2,0.6c0.1,0.2,0.4,0.2,0.6,0.2c0.2,0,0.4,0,0.6-0.1
		c0.2,0,0.3-0.1,0.5-0.2L12,20c-0.2,0.1-0.4,0.2-0.6,0.3C11.1,20.4,10.8,20.5,10.5,20.5z M10.5,17.3c-0.2,0-0.4,0.1-0.5,0.2
		c-0.1,0.1-0.2,0.3-0.2,0.6l0,0H11V18c0-0.2,0-0.4-0.1-0.5C10.8,17.4,10.7,17.3,10.5,17.3z"/>
	<path class="st2" d="M14.3,20.5c-0.6,0-1-0.2-1.3-0.5c-0.3-0.3-0.5-0.8-0.5-1.3v-0.1c0-0.6,0.2-1,0.5-1.4c0.3-0.4,0.7-0.5,1.3-0.5
		c0.5,0,0.9,0.2,1.2,0.5s0.4,0.7,0.4,1.3v0.5h-2.3l0,0c0,0.3,0.1,0.5,0.2,0.6c0.1,0.2,0.4,0.2,0.6,0.2c0.2,0,0.4,0,0.6-0.1
		c0.2,0,0.3-0.1,0.5-0.2l0.3,0.6c-0.2,0.1-0.4,0.2-0.6,0.3C14.9,20.4,14.6,20.5,14.3,20.5z M14.2,17.3c-0.2,0-0.4,0.1-0.5,0.2
		c-0.1,0.1-0.2,0.3-0.2,0.6l0,0h1.2V18c0-0.2,0-0.4-0.1-0.5C14.6,17.4,14.4,17.3,14.2,17.3z"/>
</g>
</svg>
