<?xml version="1.0" encoding="utf-8"?>
<!-- Generator: Adobe Illustrator 24.1.2, SVG Export Plug-In . SVG Version: 6.00 Build 0)  -->
<svg version="1.1" id="Layer_1" xmlns="http://www.w3.org/2000/svg" xmlns:xlink="http://www.w3.org/1999/xlink" x="0px" y="0px"
	 viewBox="0 0 20 20" style="enable-background:new 0 0 20 20;" xml:space="preserve">
<style type="text/css">
	.st0{fill:#B5B5B5;}
	.st1{fill:#FCFCFC;}
</style>
<circle class="st0" cx="10" cy="10" r="9.9"/>
<path class="st1" d="M11.8,6.4c0.3-0.3,0.4-0.6,0.4-1c0-0.4-0.1-0.7-0.4-1C11.5,4.1,11.2,4,10.8,4S10,4.1,9.7,4.4
	c-0.3,0.3-0.5,0.6-0.5,1c0,0.4,0.1,0.7,0.4,1c0.3,0.3,0.6,0.4,1.1,0.4C11.2,6.8,11.5,6.7,11.8,6.4z M11.1,15.6
	c0.6-0.3,0.8-0.7,0.6-0.9c-0.1-0.1-0.4,0.1-0.5,0.1c-0.4,0-0.6-0.1-0.7-0.1c-0.1-0.1-0.2-0.3-0.2-0.6c0-0.1,0-0.3,0.1-0.5
	c0.1-0.2,0.1-0.4,0.1-0.6l0.6-2.3c0.1-0.2,0.1-0.4,0.1-0.7c0-0.3,0-0.4,0-0.5c0-0.5-0.1-0.8-0.5-1.1C10.4,8,10,7.9,9.4,7.9
	C9,7.9,8.6,8,8.3,8.1C7.5,8.2,7.7,8.9,7.9,8.9c0.4,0,0.6,0.1,0.7,0.1c0.1,0.1,0.2,0.3,0.2,0.6c0,0.1,0,0.4-0.1,0.6
	c-0.1,0.2-0.1,0.4-0.1,0.6l-0.7,2.3c-0.1,0.2-0.1,0.4-0.1,0.6c0,0.2-0.1,0.4-0.1,0.6c0,0.5,0.1,0.8,0.5,1.1C8.5,15.7,9,16,9.6,16
	C10.1,16,10.7,15.9,11.1,15.6z"/>
</svg>
