<?xml version="1.0" encoding="utf-8"?>
<!-- Generator: Adobe Illustrator 24.1.2, SVG Export Plug-In . SVG Version: 6.00 Build 0)  -->
<svg version="1.1" id="Layer_1" xmlns="http://www.w3.org/2000/svg" xmlns:xlink="http://www.w3.org/1999/xlink" x="0px" y="0px"
	 viewBox="0 0 30 30" style="enable-background:new 0 0 30 30;" xml:space="preserve">
<style type="text/css">
	.st0{fill:#F68F33;}
	.st1{opacity:0.5;fill:#F68F33;enable-background:new    ;}
	.st2{fill:#FBB035;}
	.st3{fill:#FFD074;}
	.st4{fill:#AD561F;}
	.st5{fill:#5E2A00;}
</style>
<g>
	<path class="st0" d="M9.9,12.5v-1.1c0-3,2.1-6.6,4.8-6.6h0.7c2.7,0,4.8,3.5,4.8,6.6v1.1h2.9V9.8c0-2-0.8-4.1-2.1-5.7
		c-1.5-1.7-3.4-2.7-5.4-2.7h-0.8c-2,0-3.9,1-5.4,2.7C7.8,5.7,7.1,7.8,7.1,9.8v2.7H9.9z"/>
	<path class="st1" d="M20.8,4.1c-0.1-0.1-0.2-0.3-0.4-0.4c0.1,0.2,0.1,0.3,0.1,0.5c0,0.4-0.2,1-0.5,1.3c-0.3,0.3-0.7,0.3-1.1,0.1
		c-0.3-0.1-0.5-0.3-0.7-0.4c-0.3-0.2-0.6-0.3-0.9-0.4c-0.6-0.2-1.3-0.4-1.9-0.4c-1.2,0-2.4,0.3-3.4,1C11,6,10.3,6.9,9.9,7.9
		c-0.3,0.7-0.5,1.5-1,2.1c-0.2,0.2-0.5,0.4-0.8,0.3C7.7,10.2,7.4,10,7.3,9.6C7.2,9.4,7.1,9.2,7.1,9c0,0.3,0,0.5,0,0.8v2.7h2.8v-1.1
		c0-3,2.1-6.6,4.8-6.6h0.7c2.7,0,4.8,3.5,4.8,6.6v1.1h2.9V9.8C22.9,7.8,22.2,5.8,20.8,4.1z"/>
	<rect x="20.1" y="11.5" class="st1" width="2.9" height="1"/>
	<rect x="7.1" y="11.5" class="st1" width="2.9" height="1"/>
	<path class="st0" d="M25.1,12.8c-0.1-0.2-0.2-0.3-0.3-0.4c-0.2-0.2-0.4-0.2-0.6-0.3H5.8c-0.2,0-0.5,0.1-0.7,0.3
		c-0.1,0.1-0.2,0.3-0.3,0.5c0,0,0,0.1,0,0.1V17c0,15.1,20.4,15.5,20.4,0V13C25.2,13,25.2,12.9,25.1,12.8z"/>
	<path class="st2" d="M24.7,13.1c-0.1-0.1-0.2-0.3-0.3-0.4c-0.2-0.1-0.4-0.2-0.6-0.2H6.1c-0.2,0-0.5,0.1-0.6,0.3
		c-0.1,0.1-0.2,0.3-0.3,0.5c0,0,0,0.1,0,0.1v3.6c0,14,19.6,14.3,19.6,0v-3.7C24.7,13.2,24.7,13.1,24.7,13.1z"/>
	<path class="st3" d="M23.9,13.3c-0.1-0.1-0.1-0.2-0.3-0.3c-0.2-0.1-0.4-0.2-0.6-0.2H6.7c-0.2,0-0.4,0.1-0.6,0.2
		c-0.1,0.1-0.2,0.2-0.2,0.4c0,0,0,0.1,0,0.1v3.1c0,11.9,18,12.2,18,0v-3.1C23.9,13.4,23.9,13.3,23.9,13.3z"/>
	<path class="st4" d="M17.4,17.2c0-1.3-1.1-2.3-2.4-2.3c-1.3,0-2.4,1-2.4,2.3c0,1,0.6,1.8,1.5,2.1l-1.7,5.2h5l-1.6-5.2
		C16.7,19.1,17.4,18.2,17.4,17.2z"/>
	<g>
		<path class="st4" d="M13.3,17.2c0-1.2,0.9-2.1,2.1-2.2c-0.1,0-0.2,0-0.3,0c-1.3,0-2.4,1-2.4,2.3c0,1,0.6,1.8,1.5,2.1l-1.7,5.2H13
			l1.7-5.2C13.9,19,13.3,18.2,13.3,17.2z"/>
		<path class="st5" d="M17.4,17.2c0-1.2-0.9-2.1-2.1-2.2c-1.2,0.1-2.1,1.1-2.1,2.2c0,1,0.6,1.8,1.5,2.1l-1.7,5.2h4.3l-1.6-5.2
			C16.7,19.1,17.4,18.2,17.4,17.2z"/>
	</g>
	<path class="st0" d="M7.4,8.7c0,0,1.2-7.2,8.7-7C16.1,1.8,9.5,2.3,7.4,8.7z"/>
	<path class="st0" d="M6.5,13.6c0,0-0.2,0.6,0,1.2c0.3,0.5,3.3-0.3,3.3-1C9.7,13.1,7,12.5,6.5,13.6z"/>
	<path class="st0" d="M6.4,16.2c0,0-0.1,0.5,0,1c0.1,0.5,1.7-0.2,1.6-0.9C8,15.7,6.7,15.2,6.4,16.2z"/>
</g>
</svg>
