<?xml version="1.0" encoding="utf-8"?>
<!-- Generator: Adobe Illustrator 24.2.0, SVG Export Plug-In . SVG Version: 6.00 Build 0)  -->
<svg version="1.1" id="Layer_1" xmlns="http://www.w3.org/2000/svg" xmlns:xlink="http://www.w3.org/1999/xlink" x="0px" y="0px"
	 viewBox="0 0 397.8 266.6" style="enable-background:new 0 0 397.8 266.6;" xml:space="preserve">
<style type="text/css">
	.st0{opacity:0.65;fill:#FFFFFF;enable-background:new    ;}
	.st1{fill:#FFFFFF;}
	.st2{fill:#D8ECD4;}
	.st3{fill:#5FBBA6;}
	.st4{fill:#F9C14E;}
	.st5{fill:#184654;}
	.st6{fill:#ED9D81;}
	.st7{fill:#40AF92;}
	.st8{fill:#C1E1E6;}
	.st9{fill:#63B7CB;}
	.st10{fill:#32B559;}
	.st11{fill:#E9605D;}
	.st12{fill:#71873D;}
	.st13{fill:#0C1B1C;}
	.st14{fill:#8BB0BE;}
	.st15{fill:#F16263;}
	.st16{fill:#1D313B;}
	.st17{opacity:0.5;}
	.st18{opacity:0.5;fill:#E6E5F3;enable-background:new    ;}
	.st19{fill:#343147;}
	.st20{fill:#E4967D;}
	.st21{fill:#FAF9E6;}
	.st22{fill:#ED6C56;}
</style>
<g>
	<g>
		<path class="st0" d="M51.6,266.6c0,0-81.8-75.4-39.3-146.7c42.5-71.4,126.7-46,210.1-89.4s137.6-37.8,160.2,0
			c27.6,46-39.8,86.7-1.3,149.4c38.6,62.7-2.4,86.7-2.4,86.7H51.6L51.6,266.6z"/>
		<path class="st0" d="M346.3,266.6H19c0,0-41-24-2.4-86.7c38.5-62.7-28.9-103.4-1.3-149.4c22.6-37.8,76.8-43.4,160.2,0
			s167.6,18,210.1,89.4C428.1,191.2,346.3,266.6,346.3,266.6L346.3,266.6z"/>
	</g>
</g>
<g>
	<path class="st1" d="M161.5,52.2c-0.5,0-0.8-0.8-0.5-1.3c2.2-3.1,7.8-5.2,14.1-5.2c9.6,0,12,5.1,20.5-3.3c2-2,4.5-2.9,10.6,0.2
		s5.8-7.7,11-8.2c8.5-0.9,16.3,10.3,19.5,15.6c0.7,1.1,0,2.6-1.1,2.6L161.5,52.2z"/>
	<path class="st1" d="M67.8,36.2c0.4,0,0.6-0.6,0.4-1c-1.6-2.3-5.6-4-10.3-4.1c-7-0.1-6.8-5.1-14.3-8.2c-9.5-4-13.6,8.3-17.4,7.8
		c-6.2-0.8-10.9-0.8-13.3,3.2c-0.5,0.8,0,2,0.8,2L67.8,36.2z"/>
</g>
<g>
	<path class="st2" d="M157.1,253.3c-18.2,0.5-17.5,8.8,2.5,10c20,1.3,64.9,1.7,72.6-3.6C239.9,254.5,157.1,253.3,157.1,253.3z"/>
	<path class="st2" d="M92.5,257.5c11,0,19.8-1.9,19.8-4.2c0-2.3-8.9-4.2-19.8-4.2c-11,0-19.8,1.9-19.8,4.2
		C72.6,255.6,81.5,257.5,92.5,257.5z"/>
	<path class="st2" d="M287.2,217.7c0,0,6.1-9.5,1.2-21.7c-7.3-18.1-30.9-13.9-30.9-13.9c-1.2-3.9-6.9-30.4-29.8-32.3
		c-24.4-2-34.9,13.1-34.9,13.1c-4.5-3-13.7-8.6-22.2-4.3c-8,4.1-23.1,17.7-6.5,37.1c0,0-7.3-6-15.4-0.8c-8.1,5.2-6.1,15.1-6.1,15.1
		c-5.5-0.8-17.4,8.4-13.4,21.3c1.9,5.9,9.2,10.9,13.5,12.2c17.1,5.2,40.7,3.3,40.7,3.3s1.8-1,3-1c6.2,0,28,0,56.9,0
		c34.3,0,51.9,2.3,55.8-12.5C302.9,219.4,287.2,217.7,287.2,217.7z"/>
	<path class="st3" d="M227.2,202.3c10.4-2.7,14.6,21.1,7.7,40.4c-6.9,19.3-17-31.1-17-31.1L227.2,202.3z"/>
	<path class="st4" d="M196.1,235.8c-0.5-21.6-18.4-39-40.3-39s-39.7,17.4-40.3,39H108v12.7h9.2h11.6h53.9h11.7h9.2v-12.7H196.1z
		 M126.5,235.8c0.5-15.7,13.5-28.2,29.4-28.2s28.9,12.5,29.4,28.2H126.5z"/>
	<path class="st5" d="M195.2,248c-0.2,0-0.4-0.2-0.4-0.4v-2.8c0-0.2,0.2-0.4,0.4-0.4s0.4,0.2,0.4,0.4v2.8
		C195.6,247.8,195.4,248,195.2,248z"/>
	<path class="st5" d="M189.6,248c-0.2,0-0.4-0.2-0.4-0.4v-2.8c0-0.2,0.2-0.4,0.4-0.4s0.4,0.2,0.4,0.4v2.8
		C190,247.8,189.8,248,189.6,248z"/>
	<path class="st5" d="M184.1,248c-0.2,0-0.4-0.2-0.4-0.4v-2.8c0-0.2,0.2-0.4,0.4-0.4s0.4,0.2,0.4,0.4v2.8
		C184.4,247.8,184.3,248,184.1,248z"/>
	<path class="st5" d="M178.5,248c-0.2,0-0.4-0.2-0.4-0.4v-2.8c0-0.2,0.2-0.4,0.4-0.4s0.4,0.2,0.4,0.4v2.8
		C178.9,247.8,178.7,248,178.5,248z"/>
	<path class="st5" d="M172.9,248c-0.2,0-0.4-0.2-0.4-0.4v-2.8c0-0.2,0.2-0.4,0.4-0.4s0.4,0.2,0.4,0.4v2.8
		C173.3,247.8,173.2,248,172.9,248z"/>
	<path class="st5" d="M167.4,248c-0.2,0-0.4-0.2-0.4-0.4v-2.8c0-0.2,0.2-0.4,0.4-0.4s0.4,0.2,0.4,0.4v2.8
		C167.7,247.8,167.6,248,167.4,248z"/>
	<path class="st5" d="M161.8,248c-0.2,0-0.4-0.2-0.4-0.4v-2.8c0-0.2,0.2-0.4,0.4-0.4s0.4,0.2,0.4,0.4v2.8
		C162.2,247.8,162,248,161.8,248z"/>
	<path class="st5" d="M156.2,248c-0.2,0-0.4-0.2-0.4-0.4v-2.8c0-0.2,0.2-0.4,0.4-0.4s0.4,0.2,0.4,0.4v2.8
		C156.6,247.8,156.5,248,156.2,248z"/>
	<path class="st5" d="M150.7,248c-0.2,0-0.4-0.2-0.4-0.4v-2.8c0-0.2,0.2-0.4,0.4-0.4s0.4,0.2,0.4,0.4v2.8
		C151.1,247.8,150.9,248,150.7,248z"/>
	<path class="st5" d="M145.1,248c-0.2,0-0.4-0.2-0.4-0.4v-2.8c0-0.2,0.2-0.4,0.4-0.4s0.4,0.2,0.4,0.4v2.8
		C145.5,247.8,145.3,248,145.1,248z"/>
	<path class="st5" d="M139.5,248c-0.2,0-0.4-0.2-0.4-0.4v-2.8c0-0.2,0.2-0.4,0.4-0.4s0.4,0.2,0.4,0.4v2.8
		C139.9,247.8,139.8,248,139.5,248z"/>
	<path class="st5" d="M134,248c-0.2,0-0.4-0.2-0.4-0.4v-2.8c0-0.2,0.2-0.4,0.4-0.4s0.4,0.2,0.4,0.4v2.8
		C134.4,247.8,134.2,248,134,248z"/>
	<path class="st5" d="M128.4,248c-0.2,0-0.4-0.2-0.4-0.4v-2.8c0-0.2,0.2-0.4,0.4-0.4c0.2,0,0.4,0.2,0.4,0.4v2.8
		C128.8,247.8,128.6,248,128.4,248z"/>
	<path class="st5" d="M122.9,248c-0.2,0-0.4-0.2-0.4-0.4v-2.8c0-0.2,0.2-0.4,0.4-0.4c0.2,0,0.4,0.2,0.4,0.4v2.8
		C123.2,247.8,123.1,248,122.9,248z"/>
	<path class="st5" d="M117.3,248c-0.2,0-0.4-0.2-0.4-0.4v-2.8c0-0.2,0.2-0.4,0.4-0.4c0.2,0,0.4,0.2,0.4,0.4v2.8
		C117.7,247.8,117.5,248,117.3,248z"/>
	<path class="st5" d="M111.7,248c-0.2,0-0.4-0.2-0.4-0.4v-2.8c0-0.2,0.2-0.4,0.4-0.4c0.2,0,0.4,0.2,0.4,0.4v2.8
		C112.1,247.8,111.9,248,111.7,248z"/>
	<path class="st5" d="M138.5,253.3l0.7,3.7c0.1,0.3,0.5,0.3,0.5,0l0.6-4L138.5,253.3z"/>
	<path class="st6" d="M103.1,253.3h10.5c0.3,0,0.6-0.4,0.4-0.7c-0.4-0.7-1.5-1.8-3.7-1.9c-1.2-0.1-2-0.6-2.6-1.3
		c-0.8-1-1.1-7.4-0.9-8.6c0.2-2.2-4.5,1.9-4.5,1.9l0.9,7.7v2.9H103.1z"/>
	<path class="st5" d="M103.1,253.3h10.5c0.3,0,0.6-0.4,0.4-0.7c-0.4-0.7-1.5-1.8-3.7-1.9c-1.2-0.1-2-0.6-2.6-1.3
		c-0.5,0.2-1,0.6-1.7,1.2c-0.6,0.5-1.8,0.2-2.9-0.2L103.1,253.3z"/>
	<path class="st6" d="M69.8,251.8l9.4,4.7c0.3,0.2,0.7-0.1,0.6-0.4c-0.1-0.8-0.5-2.2-2.4-3.3c-1-0.6-1.6-1.4-1.7-2.3
		c-0.2-1.3,1.6-4.9,2.3-5.9c1.2-1.8-4.1-2.5-4.1-2.5l-2.7,7.3L69.8,251.8z"/>
	<path class="st5" d="M69.8,251.8l9.4,4.7c0.3,0.2,0.7-0.1,0.6-0.4c-0.1-0.8-0.5-2.2-2.4-3.3c-1-0.6-1.6-1.4-1.7-2.3
		c-0.6-0.1-1.2,0-2.1,0.3c-0.8,0.2-1.7-0.6-2.4-1.5L69.8,251.8z"/>
	<path class="st2" d="M307.3,264.3c12.3,0,22.2-2.1,22.2-4.7s-9.9-4.7-22.2-4.7s-22.2,2.1-22.2,4.7
		C285.1,262.2,295.1,264.3,307.3,264.3z"/>
	<path class="st3" d="M261.4,212.9c-19.9,4.5-32.9,34.3-31.8,41.1c1.1,6.8,5.1,2.4,5.7-1.9c0.6-4.2,7.5-17.7,19-22.2
		c12.1-4.8,17.5-4.2,18.5-9.4C273.7,214.8,265.1,212.1,261.4,212.9z"/>
	<path class="st3" d="M277.3,244.1c-5.2,4-16.4-3.3-26.4,0.6c-2.3,0.9-4.1,1.8-5.7,2.7c-5.6,3.4-7,7-8.9,8.9
		c-0.2,0.2-0.3,0.3-0.5,0.4c-0.4,0.3-0.8,0.5-1.2,0.7c-1.4,0.5-2.3,0.4-2.7,0.1c-0.8-0.5-0.5-1.8-0.5-1.8c0.5-2.2,1.7-4.9,3.5-7.7
		c1.5-2.2,3.3-4.6,5.5-6.7c0.1-0.1,0.1-0.1,0.2-0.2c4.8-4.7,11.3-8.7,19-9.5c11.1-1.2,18.6,3.2,19.6,7.6
		C279.7,241,279.1,242.7,277.3,244.1z"/>
	<path class="st3" d="M265.5,254.4c-3,3.5-6.8,0.7-14.4-1.4s-13.9,3.3-13.9,3.3h-3.3c0,0-0.1-0.2,0.1-0.7c0.1-0.2,0.2-0.6,0.5-0.9
		c0.2-0.2,0.4-0.5,0.6-0.8c1.4-1.5,4.2-3.7,10.1-6.5C257.4,241.7,268.5,250.9,265.5,254.4z"/>
	<path class="st7" d="M277.3,244.1c-5.2,4-16.4-3.3-26.4,0.6c-2.3,0.9-4.1,1.8-5.7,2.7c12.2-5.8,23.3,3.5,20.3,7s-6.8,0.7-14.4-1.4
		s-13.9,3.3-13.9,3.3s-2.2,1.8-2.4,1.9c-0.1-0.1,0.9-1.8,0.8-1.9c-0.3-0.8-0.5-1.6-0.6-2.4c0-0.2-0.1-0.5-0.1-0.7
		c-0.2-1.4-0.2-2.9-0.1-4.4c0-0.3,0-0.5,0.1-0.8c0.4-2.4,2.5-4.8,5.5-6.7l0.1-0.1c6-3.7,15.8-5.5,24.3-2.1c13.3,5.5,14.4,0,14.4,0
		C279.7,241,279.1,242.7,277.3,244.1z"/>
	<path class="st4" d="M141.7,86.7h-32.1c-1.9,0-3.5-1.6-3.5-3.5v-4.6c0-1.9,1.6-3.5,3.5-3.5h32.1c1.9,0,3.5,1.6,3.5,3.5v4.6
		C145.3,85.1,143.7,86.7,141.7,86.7z"/>
	<path class="st4" d="M129.2,86.7L140.5,97l-1.6-10.3l-7.2-2.4L129.2,86.7z"/>
	<path class="st1" d="M139.2,79.8h-27.6c-0.2,0-0.3-0.2-0.3-0.3v-0.4c0-0.2,0.2-0.3,0.3-0.3h27.6c0.2,0,0.3,0.2,0.3,0.3v0.4
		C139.6,79.6,139.4,79.8,139.2,79.8z"/>
	<path class="st1" d="M139.2,83.1h-27.6c-0.2,0-0.3-0.2-0.3-0.3v-0.4c0-0.2,0.2-0.3,0.3-0.3h27.6c0.2,0,0.3,0.2,0.3,0.3v0.4
		C139.6,83,139.4,83.1,139.2,83.1z"/>
	<path class="st8" d="M262,68.4c-2.3-0.1-5.3,1-5.3,1c-0.8-4.2-4.7-8.4-9.2-8.4c-4.4,0-7.8,3.8-8.5,8c0,0-2.6-0.7-4-0.6
		c-3.7,0.2-6.8,3-6.8,6.7s3,6.7,6.8,6.7h27c3.7,0,6.8-3,6.8-6.7C268.8,71.4,265.8,68.6,262,68.4z"/>
	<path class="st8" d="M363,186c-3.6-0.5-6.8,0.5-6.8,0.5c0-3.7-3-7.1-6.7-7.1s-6.7,3.4-6.7,7.1c0,0-1-0.5-2.1-0.5
		c-3.4,0.1-5,2.2-5,5s2.3,5,5,5H363c2.8,0,5-2.2,5-5C368,188.2,365.7,186.3,363,186z"/>
	<path class="st8" d="M99.6,115.9c2.5,0.1,4.8,1.2,4.8,1.2c0-3,2-6,5-6.6c3.4-0.7,6,2.2,6,5.2c0,0,0.8-0.4,1.8-0.4
		c2.8,0.1,4.1,1.8,4.1,4.1c0,2.2-1.8,4.1-4.1,4.1h-16.6c-2.3,0-5.7-1.8-5.7-4.1C94.8,117.2,97.3,115.8,99.6,115.9z"/>
	<path class="st9" d="M250.4,140.5h4.8c3.5,0,6.3-2.8,6.3-6.2v-2.5c0-3.4-2.8-6.2-6.3-6.2h-4.8c-3.5,0-6.3,2.8-6.3,6.2v2.5
		C244.1,137.7,246.9,140.5,250.4,140.5z"/>
	<path class="st9" d="M255.9,140.5l0.7,6.4l-6-6.4l2.6-1.7L255.9,140.5z"/>
	<path class="st1" d="M252,132.8c0,0.4,0.3,0.8,0.8,0.8c0.4,0,0.8-0.3,0.8-0.8c0-0.4-0.3-0.8-0.8-0.8
		C252.4,132.1,252,132.4,252,132.8z"/>
	<path class="st1" d="M248.5,132.8c0,0.4,0.3,0.8,0.8,0.8c0.4,0,0.8-0.3,0.8-0.8c0-0.4-0.3-0.8-0.8-0.8
		C248.9,132.1,248.5,132.4,248.5,132.8z"/>
	<path class="st1" d="M256,132.8c0,0.4,0.3,0.8,0.8,0.8c0.4,0,0.8-0.3,0.8-0.8c0-0.4-0.3-0.8-0.8-0.8
		C256.3,132.1,256,132.4,256,132.8z"/>
	<path class="st10" d="M88.1,145c1.6-0.6,2.3,0.5,2.3,2.1c0,1.1,1.8,1,2.1,2.6c0.3,1.6-1.6,3.4-3,3.6c-1.4,0.2-2.3,2.5-3.9,3.7
		s-3.5,3.2-5,2.4s-2.3,0.3-3.3-1.4c-1.2-1.8,0.4-2.2-0.1-3.8s-1.4-1.7-1.2-3.3c0.2-1.4,2.5-0.9,2.2-1.8c-0.3-1.3,0.2-3,1.5-3.1
		s2.6-0.1,2.9-1c0.4-1,1.8-1.6,2.7-0.7C85.8,144.9,86.8,145.5,88.1,145z"/>
	<path class="st10" d="M198.8,98.6c1.6-1.6,1.6-4.1,0-5.7c-1.6-1.6-4.1-1.6-5.7,0c-1.6,1.6-1.6,4.1,0,5.7
		C194.7,100.1,197.2,100.1,198.8,98.6z"/>
	<path class="st1" d="M198,96.4h-4c-0.3,0-0.5-0.2-0.5-0.5s0.2-0.5,0.5-0.5h4c0.3,0,0.5,0.2,0.5,0.5C198.5,96.2,198.2,96.4,198,96.4
		z"/>
	<path class="st9" d="M232.7,259.7H159c-1.7,0-3.1-1.4-3.1-3v-78c0-1.7,1.4-3,3.1-3h73.7c1.7,0,3.1,1.4,3.1,3v78
		C235.8,258.4,234.4,259.7,232.7,259.7z"/>
	<path class="st8" d="M158.4,256.4V179c0-0.5,0.4-0.9,0.9-0.9h73.1c0.5,0,0.9,0.4,0.9,0.9v77.4c0,0.5-0.4,0.9-0.9,0.9h-73.1
		C158.8,257.2,158.4,256.8,158.4,256.4z"/>
	<path class="st1" d="M225.5,195.7h-59.3c-0.6,0-1-0.5-1-1v-10c0-0.6,0.5-1,1-1h59.3c0.6,0,1,0.5,1,1v10
		C226.5,195.2,226,195.7,225.5,195.7z"/>
	<path class="st4" d="M223.5,215.7h-3.9c-1.7,0-3.1-1.4-3.1-3.1v-3.8c0-1.7,1.4-3.1,3.1-3.1h3.9c1.7,0,3.1,1.4,3.1,3.1v3.8
		C226.6,214.3,225.2,215.7,223.5,215.7z"/>
	<path class="st4" d="M223.5,227.7h-3.9c-1.7,0-3.1-1.4-3.1-3.1v-3.8c0-1.7,1.4-3.1,3.1-3.1h3.9c1.7,0,3.1,1.4,3.1,3.1v3.8
		C226.6,226.3,225.2,227.7,223.5,227.7z"/>
	<path class="st11" d="M223.5,251.9h-3.9c-1.7,0-3.1-1.4-3.1-3.1v-15.9c0-1.7,1.4-3.1,3.1-3.1h3.9c1.7,0,3.1,1.4,3.1,3.1v15.9
		C226.6,250.6,225.2,251.9,223.5,251.9z"/>
	<path class="st9" d="M225.2,201.3H218c-0.7,0-1.3-0.6-1.3-1.3s0.6-1.3,1.3-1.3h7.2c0.7,0,1.3,0.6,1.3,1.3
		C226.5,200.8,225.9,201.3,225.2,201.3z"/>
	<path class="st9" d="M212.4,201.3h-7.2c-0.7,0-1.3-0.6-1.3-1.3s0.6-1.3,1.3-1.3h7.2c0.7,0,1.3,0.6,1.3,1.3
		C213.6,200.8,213.1,201.3,212.4,201.3z"/>
	<path class="st9" d="M199.5,201.3h-7.2c-0.7,0-1.3-0.6-1.3-1.3s0.6-1.3,1.3-1.3h7.2c0.7,0,1.3,0.6,1.3,1.3
		C200.7,200.8,200.2,201.3,199.5,201.3z"/>
	<path class="st9" d="M186.5,201.3h-7.2c-0.7,0-1.3-0.6-1.3-1.3s0.6-1.3,1.3-1.3h7.2c0.7,0,1.3,0.6,1.3,1.3
		C187.8,200.8,187.2,201.3,186.5,201.3z"/>
	<path class="st9" d="M173.6,201.3h-7.2c-0.7,0-1.3-0.6-1.3-1.3s0.6-1.3,1.3-1.3h7.2c0.7,0,1.3,0.6,1.3,1.3
		C174.9,200.8,174.3,201.3,173.6,201.3z"/>
	<path class="st9" d="M171.8,215.7h-3.9c-1.7,0-3.1-1.4-3.1-3.1v-3.8c0-1.7,1.4-3.1,3.1-3.1h3.9c1.7,0,3.1,1.4,3.1,3.1v3.8
		C174.9,214.3,173.5,215.7,171.8,215.7z"/>
	<path class="st9" d="M184.9,215.7H181c-1.7,0-3.1-1.4-3.1-3.1v-3.8c0-1.7,1.4-3.1,3.1-3.1h3.9c1.7,0,3.1,1.4,3.1,3.1v3.8
		C188,214.3,186.6,215.7,184.9,215.7z"/>
	<path class="st9" d="M197.9,215.7H194c-1.7,0-3.1-1.4-3.1-3.1v-3.8c0-1.7,1.4-3.1,3.1-3.1h3.9c1.7,0,3.1,1.4,3.1,3.1v3.8
		C201,214.3,199.6,215.7,197.9,215.7z"/>
	<path class="st9" d="M210.9,215.7H207c-1.7,0-3.1-1.4-3.1-3.1v-3.8c0-1.7,1.4-3.1,3.1-3.1h3.9c1.7,0,3.1,1.4,3.1,3.1v3.8
		C214.1,214.3,212.7,215.7,210.9,215.7z"/>
	<path class="st9" d="M171.8,227.7h-3.9c-1.7,0-3.1-1.4-3.1-3.1v-3.8c0-1.7,1.4-3.1,3.1-3.1h3.9c1.7,0,3.1,1.4,3.1,3.1v3.8
		C174.9,226.3,173.5,227.7,171.8,227.7z"/>
	<path class="st9" d="M184.9,227.7H181c-1.7,0-3.1-1.4-3.1-3.1v-3.8c0-1.7,1.4-3.1,3.1-3.1h3.9c1.7,0,3.1,1.4,3.1,3.1v3.8
		C188,226.3,186.6,227.7,184.9,227.7z"/>
	<path class="st9" d="M197.9,227.7H194c-1.7,0-3.1-1.4-3.1-3.1v-3.8c0-1.7,1.4-3.1,3.1-3.1h3.9c1.7,0,3.1,1.4,3.1,3.1v3.8
		C201,226.3,199.6,227.7,197.9,227.7z"/>
	<path class="st9" d="M210.9,227.7H207c-1.7,0-3.1-1.4-3.1-3.1v-3.8c0-1.7,1.4-3.1,3.1-3.1h3.9c1.7,0,3.1,1.4,3.1,3.1v3.8
		C214.1,226.3,212.7,227.7,210.9,227.7z"/>
	<path class="st9" d="M171.8,239.9h-3.9c-1.7,0-3.1-1.4-3.1-3.1V233c0-1.7,1.4-3.1,3.1-3.1h3.9c1.7,0,3.1,1.4,3.1,3.1v3.8
		C174.9,238.5,173.5,239.9,171.8,239.9z"/>
	<path class="st9" d="M184.9,239.9H181c-1.7,0-3.1-1.4-3.1-3.1V233c0-1.7,1.4-3.1,3.1-3.1h3.9c1.7,0,3.1,1.4,3.1,3.1v3.8
		C188,238.5,186.6,239.9,184.9,239.9z"/>
	<path class="st9" d="M197.9,239.9H194c-1.7,0-3.1-1.4-3.1-3.1V233c0-1.7,1.4-3.1,3.1-3.1h3.9c1.7,0,3.1,1.4,3.1,3.1v3.8
		C201,238.5,199.6,239.9,197.9,239.9z"/>
	<path class="st9" d="M210.9,239.9H207c-1.7,0-3.1-1.4-3.1-3.1V233c0-1.7,1.4-3.1,3.1-3.1h3.9c1.7,0,3.1,1.4,3.1,3.1v3.8
		C214.1,238.5,212.7,239.9,210.9,239.9z"/>
	<path class="st9" d="M171.8,251.9h-3.9c-1.7,0-3.1-1.4-3.1-3.1V245c0-1.7,1.4-3.1,3.1-3.1h3.9c1.7,0,3.1,1.4,3.1,3.1v3.8
		C174.9,250.6,173.5,251.9,171.8,251.9z"/>
	<path class="st9" d="M184.9,251.9H181c-1.7,0-3.1-1.4-3.1-3.1V245c0-1.7,1.4-3.1,3.1-3.1h3.9c1.7,0,3.1,1.4,3.1,3.1v3.8
		C188,250.6,186.6,251.9,184.9,251.9z"/>
	<path class="st9" d="M197.9,251.9H194c-1.7,0-3.1-1.4-3.1-3.1V245c0-1.7,1.4-3.1,3.1-3.1h3.9c1.7,0,3.1,1.4,3.1,3.1v3.8
		C201,250.6,199.6,251.9,197.9,251.9z"/>
	<path class="st9" d="M210.9,251.9H207c-1.7,0-3.1-1.4-3.1-3.1V245c0-1.7,1.4-3.1,3.1-3.1h3.9c1.7,0,3.1,1.4,3.1,3.1v3.8
		C214.1,250.6,212.7,251.9,210.9,251.9z"/>
	<path class="st12" d="M76,198.9c-0.1,4.2,2.2,23.5,1.7,27.4s-5.4,19.6-5.4,19.6l4,2.1c0,0,9.5-14.5,10.9-20.3
		c0.9-3.8,1.7-20,2.1-20.2c0.3-0.1,7.5,15.7,8.2,18.4s5.4,21,5.4,21s4.2-0.7,4.3-1c0.1-0.3-0.5-20.9-0.6-23
		c-0.2-5.3-7.9-24.9-7.9-24.9l-10.9-3.1L76,198.9z"/>
	<path class="st5" d="M82.3,163.4c-2.9,0.5-11.4,3.7-11.3,7.2c0.1,3.6,3.9,15.8,3.9,19.3c0,3.6-0.8,11,0,12.1s4.6-1.1,7.5-1
		s9.7-1,13-1.6s3.6-0.8,3.7-2.5s-0.8-17-1-19c-0.2-2.1,0-4.5,1-4.1c1,0.3,11.3,0.7,12.9,0.1c1.6-0.6,6.4-5.1,6.4-5.1s-5.6,0-7.6-0.5
		C104.1,166.6,92.2,161.6,82.3,163.4z"/>
	<path class="st5" d="M84.2,164.9c0,0-7.2-0.9-11.9,3c-4.7,3.9-6.6,27-4.8,27.7c0.8,0.3,4.8,3.3,8,1.7c1.6-0.8-1.4-3.7-1.4-3.7
		s0.2-14.3,1.2-13.4C76.4,181.2,84.2,164.9,84.2,164.9z"/>
	<path class="st6" d="M82.3,158.7c0,1.3,0,6.2,0,6.2s0.5,0.9,3.2,1.1c2.6,0.2,3.4-1.7,3.4-1.7s-0.2-4.4,0-4.5s1.2-0.5,1.5-3.9
		c0.2-3.4,0.1-5.3-0.3-5.1s-2.3,1-3.6,0.7c-1.4-0.3-4-0.4-4,0.6c-0.1,1,0.5,2.5,0.3,3c-0.3,0.5-1.4-0.9-2.4,0.1s0.5,2.7,1.1,2.9
		C81.8,158.1,82.3,158.2,82.3,158.7z"/>
	<path class="st6" d="M75.6,196.9c2,0,3.6-0.9,4.5-1.7s1.4-3.7-0.5-3.1c-1.9,0.6-2.9,2.5-3.3,3.3C75.7,196.3,74.8,196.9,75.6,196.9z
		"/>
	<path class="st13" d="M138.9,226.4c-0.4,0-0.8-0.1-1.1-0.4c-0.8-0.6-1-1.8-0.4-2.5c0.3-0.5,0.9-0.7,1.5-0.7c0.4,0,0.8,0.1,1.1,0.4
		c0.4,0.3,0.6,0.7,0.7,1.2c0.1,0.5-0.1,1-0.4,1.4C140,226.1,139.5,226.4,138.9,226.4z M138.9,223c-0.5,0-1,0.2-1.2,0.6
		c-0.5,0.7-0.4,1.7,0.3,2.2c0.3,0.2,0.6,0.3,0.9,0.3c0.5,0,1-0.2,1.2-0.6c0.2-0.3,0.4-0.8,0.3-1.1c-0.1-0.4-0.3-0.8-0.6-1
		C139.6,223.1,139.2,223,138.9,223z"/>
	<path class="st14" d="M143.6,204.1l-44-29c-0.3-0.2-0.4-0.6-0.2-0.9l0.1-0.2c0.2-0.3,0.6-0.4,0.9-0.2l44,29
		c0.3,0.2,0.4,0.6,0.2,0.9l-0.1,0.2C144.2,204.2,143.8,204.3,143.6,204.1z"/>
	<path class="st15" d="M140,253.7h-1c-0.4,0-0.8-0.3-0.8-0.7l-4.7-87.4l8.6-0.2l-1.3,87.5C140.8,253.4,140.4,253.7,140,253.7z"/>
	<path class="st15" d="M55.9,205.1l-1.2-2.2l77.5-43.2l4,7.6L55.9,205.1z"/>
	<path class="st5" d="M147.2,152.8l-4.6-3l7.1-10.6c0.7-1.1,2.2-1.4,3.3-0.7l0.6,0.4c1.1,0.7,1.4,2.2,0.7,3.3L147.2,152.8z"/>
	<path class="st5" d="M54.7,202.9l-1.9,1.4c-0.5,0.4-0.2,1.2,0.5,1.1l2.6-0.3L54.7,202.9z"/>
	<path class="st14" d="M142.2,170.5c6.2-1.8,9.6-8.3,7.8-14.4c-1.9-6.1-8.4-9.6-14.5-7.7c-6.2,1.8-9.6,8.3-7.8,14.4
		C129.6,168.9,136.1,172.4,142.2,170.5z"/>
	<path class="st15" d="M143.7,163.1c-2,2.7-5.8,3.2-8.5,1.2s-3.2-5.8-1.2-8.4c2-2.7,5.8-3.2,8.5-1.2
		C145.2,156.7,145.7,160.5,143.7,163.1z"/>
	<path class="st12" d="M283.9,97.5c0,0-0.9,25.5-3.3,30s-5.2,5.9-9.2,4.3c-4-1.6-4,3.1-1.3,5.8s8.9,4.3,13.8,0s4.9-41.4,4.9-41.4
		L283.9,97.5z"/>
	<path class="st12" d="M274.8,105.2c0,0-0.9-7.1,12.2-7.7c13.1-0.6,24.8,2.3,31.1-2.4c6.3-4.7,3.2-12.6,0.7-13.5s4.6,4.9-7.1,7.2
		s-26.6-2-34.4,4.1C269.5,98.9,274.7,106.4,274.8,105.2z"/>
	<path class="st16" d="M293.2,151.7c0,0-2.1-0.7-0.4-3.7s6.9-2.7,8.6-0.8c1.7,1.8,5.5,3.9,9.1,2c3.5-1.8,8,0.1,9.6,2.3
		s4.3,2.5,6.8,1.6c2.6-0.9,7.4,2.9,1.1,6.9s-11.9,1.5-13.1,0.4s-3-3.5-7.3-1.9s-6.1,1.8-7.3-0.7C299,155.3,293.2,151.7,293.2,151.7z
		"/>
	<path class="st6" d="M287.6,211.9c0,0-1.1,10-0.7,14.4s6.6,26.3,6.6,26.3l4.2-0.9c0,0-2.2-24.9-1.9-26.2c0.2-1.3,1.9-10.1,1.9-10.1
		L287.6,211.9z"/>
	<path class="st5" d="M297.4,255.9c-0.4,0.8-1.6,3.2-2.4,3.6c-0.7,0.3-3.5,1.1-3.5,1.1s1.9-2.7,2.2-4.3c0.3-1.6-0.2-3.7-0.2-3.7
		l4.2-0.9c0,0,0.9,1.8,1.3,3c0.4,1.3,0.6,3.1,0.6,3.1l-1.2,0.5C298.4,258.2,297.5,255.6,297.4,255.9z"/>
	<path class="st6" d="M299.6,217.4c0,0,2.4,4,3.4,8.1s9.6,26.2,9.6,26.2l3.9-1.2c0,0-4.4-23.1-5.3-27.1c-0.9-3.9-1.8-9.4-1.8-9.4
		L299.6,217.4z"/>
	<path class="st5" d="M316.3,258.3c0,0-2.2-2.7-2.5-3.4c-0.3-0.7-1.1-3.2-1.1-3.2l3.9-1.2c0,0,0.6,2.5,0.7,3.9
		C317.4,255.7,316.3,258.3,316.3,258.3z"/>
	<path class="st11" d="M288.7,187c4-1.3,12.3-0.5,13,0c0.8,0.5,5,6.5,6.3,11.7c1.3,5.1,4.6,12.3,7.5,14.8c2.9,2.4,1.2,4.9-2,5
		c-3.3,0-6.2-0.2-10.6,1.4s-8.4,2.3-10.6,0.8c-2.3-1.5-4.9-4.9-8-3.1c-3,1.8-4.7-0.2-4.3-2c0.4-1.8,3.4-5.6,4.6-11.3
		C285.7,198.5,287.2,187.5,288.7,187z"/>
	<path class="st6" d="M293.2,151.7c-0.9-0.4-1.7,4.6-1.1,7s1.7,2.5,1.7,2.5s0.2,4.6-2.6,4.3s1.5,3.1,1.5,3.1s5.9,1.2,6.2,1.2
		c0.3,0,3.3-2.4,3.6-2.9c0.3-0.5-1.1-1.6-1.1-1.6s-2,0.5-2.7-1.7s-0.1-3.6,0-3.8s0.8-1.6,1.9-1.7c1-0.1,1.5-0.9,1.9-1.6
		c0.5-0.8-0.7-1.4-1.2-1.3c-0.5,0.1-0.3,0.2-0.4-1.8c-0.1-1.9-1.9-2.4-3.8-1.9C295,152.2,293.9,152,293.2,151.7z"/>
	<g class="st17">
		<g class="st17">
			<g class="st17">
				<g class="st17">
					<g class="st17">
						<path class="st18" d="M295.2,154.7c-0.3,0.8-1.2,1.2-2,0.9s-1.2-1.2-0.9-2c0.3-0.8,1.2-1.2,2-0.9
							C295.1,153,295.5,153.9,295.2,154.7z"/>
					</g>
				</g>
			</g>
		</g>
		<g class="st17">
			<g class="st17">
				<g class="st17">
					<g class="st17">
						<path class="st18" d="M299.3,156.2c-0.3,0.8-1.2,1.2-2,0.9s-1.2-1.2-0.9-2c0.3-0.8,1.2-1.2,2-0.9S299.6,155.4,299.3,156.2z"/>
					</g>
				</g>
			</g>
		</g>
	</g>
	<path class="st19" d="M292.7,155.6c-0.6-0.4-0.9-1.2-0.6-2c0.2-0.4,0.5-0.8,0.9-0.9c0.4-0.2,0.9-0.2,1.3-0.1
		c0.1,0.1,0.3,0.1,0.4,0.2c0.6,0.4,0.9,1.2,0.6,2c-0.3,0.9-1.3,1.3-2.2,1C293,155.7,292.8,155.7,292.7,155.6z M294.5,153
		c-0.1-0.1-0.2-0.1-0.3-0.2c-0.4-0.1-0.8-0.1-1.2,0.1c-0.4,0.2-0.6,0.5-0.8,0.8c-0.2,0.6,0,1.4,0.5,1.7c0.1,0.1,0.2,0.1,0.3,0.2
		c0.8,0.3,1.6-0.1,1.9-0.9C295.3,154.1,295.1,153.3,294.5,153z"/>
	<path class="st19" d="M296.9,157c-0.6-0.4-0.9-1.2-0.6-2c0.3-0.9,1.3-1.3,2.2-1c0.1,0.1,0.3,0.1,0.4,0.2c0.6,0.4,0.9,1.2,0.6,2
		c-0.2,0.4-0.5,0.8-0.9,0.9c-0.4,0.2-0.9,0.2-1.3,0.1C297.1,157.2,297,157.1,296.9,157z M298.7,154.5c-0.1-0.1-0.2-0.1-0.3-0.2
		c-0.8-0.3-1.6,0.1-1.9,0.9c-0.2,0.6,0,1.4,0.5,1.7c0.1,0.1,0.2,0.1,0.3,0.2c0.4,0.1,0.8,0.1,1.2-0.1c0.4-0.2,0.6-0.5,0.8-0.8
		C299.4,155.5,299.2,154.8,298.7,154.5z"/>
	<path class="st19" d="M295.2,154.8l-0.1-0.2c0,0,0.4-0.2,0.8-0.1c0.2,0.1,0.4,0.2,0.5,0.5l-0.2,0.1c-0.1-0.2-0.2-0.4-0.4-0.4
		C295.5,154.7,295.2,154.8,295.2,154.8z"/>
	<path class="st20" d="M293.8,161.2c0,0,1.9,0.2,3.4-0.7s0,2-3.5,1.7L293.8,161.2z"/>
	<path class="st6" d="M283.6,157.4c0,0-1.5-1.8-1.4-2.9c0.1-1.1-1.2-12.1-1.4-12.8c-0.2-0.7-1.6-1-2.9-1.4s-2.9-0.9-2.5,0
		s2.5,1.1,2.6,2.4c0.1,1.3,0.2,12.9,0.3,14c0.1,1.1,1.1,3.5,1.1,3.5L283.6,157.4z"/>
	<path class="st6" d="M307.3,159.9c0,0,2.6-4.3,3-4.7c0.3-0.5,2.2-13.3,2.6-13.9c0.4-0.6,2.7-1.7,4.2-3s1.9-0.3,1.5,0.7
		s-2,1.6-2.4,3c-0.4,1.3-1.2,12-1.7,14.8s-3.5,5.5-3.5,5.5L307.3,159.9z"/>
	<path class="st12" d="M302.5,96.2c0,0-1.6,27,2.2,35.5c3.7,8.5,11.6,8.9,17.1,5c5.6-3.9,4.5-10.8,3.2-11.5s-2.7,0.9-4,3.9
		s-10.4,6.6-13.4-6.6c-3-13.2-1.5-26.9-1.5-26.9L302.5,96.2z"/>
	<path class="st8" d="M292.5,165.5c-1.6-0.3-5.1-3-6.2-4.9s-2.5-3.4-3.6-3.1c-1.1,0.2-2.3,1.3-3.2,1.9c-0.9,0.6-1.1,1.4,1.3,6.2
		s6.1,5.2,6.2,8s-0.1,13,1.6,13.5s11.8,1.1,13,0s2.3-7.7,1.9-10.2s0.6-4.8,2.2-5.8c1.6-1.1,5-6.6,5.9-7.9c0.9-1.3-0.1-3.3-2.6-4
		s-4.6,2.3-5.6,3.4C302.7,163.7,300.1,167.1,292.5,165.5z"/>
	<path class="st21" d="M293,164.7c0,0,1.3,1.2,2.8,1.1c1.5,0,3.4-1.3,3.4-1.3s1.8,0.5,1,1.7c-1.4,1.9-4.3,0-4.3,0s-1.7,1.5-3.1,0.2
		C291.6,165.5,293,164.7,293,164.7z"/>
	<path class="st5" d="M139.7,200.8c-0.6,0.8-1.6,0.9-2.4,0.3c-0.8-0.6-0.9-1.6-0.3-2.4c0.6-0.8,1.6-0.9,2.4-0.3
		C140.1,199,140.3,200,139.7,200.8z"/>
	<path class="st5" d="M106.7,179.1c-0.6,0.8-1.6,0.9-2.4,0.3c-0.8-0.6-0.9-1.6-0.3-2.4c0.6-0.8,1.6-0.9,2.4-0.3
		C107.1,177.3,107.3,178.4,106.7,179.1z"/>
	<path class="st5" d="M143.3,227.8c1.8-2.4,1.3-5.8-1.2-7.6c-2.4-1.8-5.9-1.3-7.7,1.2c-1.8,2.4-1.3,5.8,1.2,7.6
		C138.1,230.7,141.5,230.2,143.3,227.8z"/>
	<path class="st15" d="M140,225.3c-0.4,0.6-1.3,0.7-1.9,0.2c-0.6-0.4-0.7-1.3-0.2-1.8c0.4-0.6,1.3-0.7,1.9-0.2
		C140.3,223.9,140.4,224.8,140,225.3z"/>
	<path class="st16" d="M158.8,96.4c-2.3,0.7-4.3,1.9-4.2,4.7c0,2.9,2.5,4.1,3.4,3.8c0.9-0.2,1.7,0.9,4,0s7.8-0.2,8.9-0.8
		c1.2-0.6,1.2-1.6,1-2.6c-0.1-1-0.1-1.8-1.7-2.6c-1.6-0.8,0.1-3.1-1.3-4.4c-1.4-1.3-2.7-0.7-3.7-1.5s-4-0.7-4.7,1.1
		C159.9,96.1,159.6,96.2,158.8,96.4z"/>
	<path class="st6" d="M159.7,103.3c0.1,0.4,1.3,3.5,3,5.2c1.6,1.7,3.1,2.3,3.9,2.1c0.9-0.2,1.2-0.9,1.4-0.9s2.8,2.8,2.8,2.8
		s2.2,1.2,3.4,0s1.8-5.1,1.8-5.1s-5-2.9-5.7-3.7c-0.6-0.8-0.4-1.5-0.6-2.2c-0.2-0.7-1-1-1.4-1c-0.4,0.1-0.9,0.7-0.8,1.3
		c0.1,0.6-0.9-0.1-1.3-0.8c-0.5-0.7-1.1-1.4-1.9-1.1c-0.7,0.2-0.9,1.4-1.9,1.3C161.5,101.1,159.2,101.8,159.7,103.3z"/>
	<path class="st20" d="M169.4,105.4c-0.4,0.1-0.1,2.7-1.4,4.3l1.1,1C169.1,110.7,170.9,104.9,169.4,105.4z"/>
	<path class="st6" d="M158.9,124c0,0-11.8,0.9-12.7,1s-2.9-0.9-3.5-0.3c-0.7,0.6,1,1.9,2.2,2.4s3.6,1,6.3,1.2s6.6,0.2,6.6,0.2
		L158.9,124z"/>
	<path class="st6" d="M221.5,173l-1.2,11.4c0,0.4-0.5,0.6-0.8,0.3c-0.7-0.5-1.8-1.8-1.6-4.2c0.1-1.3-0.4-2.3-1.1-3
		c-1-1-2.6-1.4-4-1.5c-2.4,0,1-3.9,1-3.9l4.6,0.5L221.5,173z"/>
	<path class="st11" d="M221.5,173l-1.2,11.4c0,0.4-0.5,0.6-0.8,0.3c-0.7-0.5-1.8-1.8-1.6-4.2c0.1-1.3-0.4-2.3-1.1-3
		c0.3-0.6,0.8-1.1,1.6-1.8c0.7-0.5,0.5-1.9,0.1-3.1L221.5,173z"/>
	<path class="st5" d="M174.5,144.7c0,0-1.6,22.5-1.6,24.5s0,6.5,6.6,7.1s34,2.1,34.5,1.3c0.6-0.8,1.3-4.5,1.3-5.9
		c0.1-1.4-10.9-3.1-16.2-3.9c-5.2-0.8-11.6-1-11.7-1.8c-0.1-0.8,4.7-18.2,4.4-20.8C191.5,142.5,174.5,144.7,174.5,144.7z"/>
	<path class="st22" d="M176,107.4c-1.9,3.6-5.2,5.1-5.2,5.1s-0.8,13.9,1,19.7c1.8,5.9,0.4,15.1,1.5,15.5c1.1,0.3,5.9-0.6,10,0
		s7.3-0.4,9.5-1.1c2.2-0.7,1.7,1.5,0.9-6.6c-0.9-8.1-4.5-22.5-8.1-27.5C182,107.5,176.9,105.8,176,107.4z"/>
	<path class="st6" d="M165.4,130.1c0,0-9,6.7-10.6,7.4s-2.5,0.2-4,1.1c-1.5,0.8-1.9,1.3-1.6,1.6c0.3,0.3,2.6-0.1,3.4,0
		c0.8,0.1,2.6,0.4,3.2,0.4c0.5,0,10.8-5.2,10.8-5.2L165.4,130.1z"/>
	<path class="st22" d="M171.8,113.2c0,0-3.9,3.5-7,5.8s-4.1,3.8-5.2,3.6c-1.1-0.2-2.6-0.1-2.5,0.5s0.9,4.3,0.7,5.5
		c-0.1,1.1,1.5,0.8,2.1,0.5s5-0.5,10.2-5.4C175.3,118.8,171.8,113.2,171.8,113.2z"/>
	<path class="st22" d="M164.2,130.8c0,0,2.4,5.3,3.2,5.3s1.9-0.9,2.3-1.8c0.4-0.9,12-11.7,12-18.2c0.1-6.4-4.5-5.4-9.2,2.1
		s-5.1,9.4-6.4,10.4C164.9,129.7,163.6,129.5,164.2,130.8z"/>
	<path class="st1" d="M175.3,128.1l-0.1-0.2c0,0,2.9-1.7,5.8-9.1c1-2.5,1.1-4.3,0.2-5.3c-1.1-1.3-3.4-1-3.4-0.9v-0.2
		c0.1,0,2.5-0.4,3.6,1c0.9,1.1,0.9,3-0.2,5.6C178.3,126.4,175.5,128.1,175.3,128.1z"/>
	<path class="st1" d="M170.5,120.9c-0.1-2.4,0-5.9,0-5.9h0.2c0,0-0.1,3.5,0,5.9H170.5z"/>
	<path class="st5" d="M180.2,188.5l-0.6,0.3l-0.1-0.4l0.8-0.4h0.4v3.6h-0.5L180.2,188.5L180.2,188.5z"/>
	<path class="st5" d="M181.9,190.7c0-0.5,0.3-0.8,0.7-1l0,0c-0.4-0.2-0.6-0.5-0.6-0.8c0-0.6,0.5-1,1.1-1c0.7,0,1,0.4,1,0.9
		c0,0.3-0.2,0.6-0.6,0.8l0,0c0.5,0.2,0.7,0.5,0.7,0.9c0,0.6-0.5,1-1.2,1C182.4,191.7,181.9,191.2,181.9,190.7z M183.9,190.7
		c0-0.4-0.3-0.6-0.8-0.8c-0.4,0.1-0.6,0.4-0.6,0.7c0,0.4,0.3,0.7,0.7,0.7C183.6,191.3,183.9,191,183.9,190.7z M182.5,188.8
		c0,0.4,0.3,0.5,0.7,0.7c0.3-0.1,0.5-0.3,0.5-0.6s-0.2-0.6-0.6-0.6C182.7,188.3,182.5,188.5,182.5,188.8z"/>
	<path class="st5" d="M187.1,188v0.3l-1.6,3.3H185l1.6-3.2h-1.8V188L187.1,188L187.1,188z"/>
	<path class="st5" d="M187.5,192.3c0.1-0.3,0.3-0.9,0.3-1.3l0.5-0.1c-0.1,0.5-0.4,1.1-0.5,1.3L187.5,192.3z"/>
	<path class="st5" d="M189.1,191.2c0.1,0,0.2,0,0.4,0c0.3,0,0.5-0.2,0.8-0.3c0.2-0.2,0.4-0.5,0.5-1l0,0c-0.2,0.2-0.5,0.4-0.9,0.4
		c-0.6,0-1.1-0.5-1.1-1.1c0-0.7,0.5-1.3,1.2-1.3s1.2,0.6,1.2,1.5c0,0.8-0.3,1.3-0.6,1.7c-0.3,0.3-0.7,0.4-1,0.5c-0.2,0-0.3,0-0.5,0
		L189.1,191.2L189.1,191.2z M189.3,189.2c0,0.5,0.3,0.8,0.7,0.8c0.3,0,0.6-0.2,0.7-0.4c0,0,0-0.1,0-0.2c0-0.6-0.2-1.1-0.7-1.1
		C189.5,188.3,189.3,188.7,189.3,189.2z"/>
	<path class="st5" d="M191.9,191.2c0.1,0,0.2,0,0.4,0c0.3,0,0.5-0.2,0.8-0.3c0.2-0.2,0.4-0.5,0.5-1l0,0c-0.2,0.2-0.5,0.4-0.9,0.4
		c-0.6,0-1.1-0.5-1.1-1.1c0-0.7,0.5-1.3,1.2-1.3s1.2,0.6,1.2,1.5c0,0.8-0.3,1.3-0.6,1.7c-0.3,0.3-0.7,0.4-1,0.5c-0.2,0-0.3,0-0.5,0
		L191.9,191.2L191.9,191.2z M192.1,189.2c0,0.5,0.3,0.8,0.7,0.8c0.3,0,0.6-0.2,0.7-0.4c0,0,0-0.1,0-0.2c0-0.6-0.2-1.1-0.7-1.1
		C192.4,188.3,192.1,188.7,192.1,189.2z"/>
	<path class="st5" d="M197.2,188.7v1.3h1.2v0.3h-1.2v1.3h-0.4v-1.3h-1.2V190h1.2v-1.3H197.2z"/>
	<path class="st5" d="M201.2,188.5l-0.6,0.3l-0.1-0.4l0.8-0.4h0.4v3.6h-0.5L201.2,188.5L201.2,188.5z"/>
	<path class="st5" d="M205.4,189.8c0,1.2-0.5,1.9-1.2,1.9s-1.2-0.7-1.2-1.8c0-1.2,0.5-1.9,1.2-1.9
		C204.9,187.9,205.4,188.6,205.4,189.8z M203.4,189.8c0,0.9,0.3,1.4,0.7,1.4c0.5,0,0.7-0.6,0.7-1.5s-0.2-1.4-0.7-1.4
		C203.7,188.3,203.4,188.8,203.4,189.8z"/>
	<path class="st5" d="M208.2,189.8c0,1.2-0.5,1.9-1.2,1.9s-1.2-0.7-1.2-1.8c0-1.2,0.5-1.9,1.2-1.9
		C207.8,187.9,208.2,188.6,208.2,189.8z M206.2,189.8c0,0.9,0.3,1.4,0.7,1.4c0.5,0,0.7-0.6,0.7-1.5s-0.2-1.4-0.7-1.4
		C206.6,188.3,206.2,188.8,206.2,189.8z"/>
	<path class="st5" d="M211,189.8c0,1.2-0.5,1.9-1.2,1.9s-1.2-0.7-1.2-1.8c0-1.2,0.5-1.9,1.2-1.9C210.6,187.9,211,188.6,211,189.8z
		 M209.1,189.8c0,0.9,0.3,1.4,0.7,1.4c0.5,0,0.7-0.6,0.7-1.5s-0.2-1.4-0.7-1.4C209.4,188.3,209.1,188.8,209.1,189.8z"/>
	<path class="st5" d="M211.3,192.3c0.1-0.3,0.3-0.9,0.3-1.3l0.5-0.1c-0.1,0.5-0.4,1.1-0.5,1.3L211.3,192.3z"/>
	<path class="st5" d="M214.1,191.6v-1h-1.7v-0.3l1.6-2.3h0.5v2.2h0.5v0.4h-0.5v1L214.1,191.6L214.1,191.6z M214.1,190.2V189
		c0-0.2,0-0.4,0-0.6l0,0c-0.1,0.2-0.2,0.4-0.3,0.5l-0.9,1.2L214.1,190.2L214.1,190.2z"/>
	<path class="st5" d="M215.6,191c0.2,0.1,0.5,0.2,0.8,0.2c0.6,0,0.8-0.4,0.8-0.7c0-0.5-0.5-0.7-0.9-0.7H216v-0.4h0.3
		c0.4,0,0.8-0.2,0.8-0.6c0-0.3-0.2-0.5-0.6-0.5c-0.3,0-0.6,0.1-0.7,0.2l-0.1-0.4c0.2-0.2,0.5-0.3,0.9-0.3c0.7,0,1,0.4,1,0.8
		c0,0.4-0.2,0.7-0.7,0.8c0.5,0.1,0.8,0.4,0.8,0.9c0,0.6-0.5,1.1-1.3,1.1c-0.4,0-0.8-0.1-0.9-0.2L215.6,191z"/>
	<path class="st5" d="M219.5,189.7v-0.3h2.9v0.3H219.5z M219.5,190.8v-0.3h2.9v0.3H219.5z"/>
	<path class="st1" d="M221.7,208.7v1.7h1.6c0.1,0,0.2,0.1,0.2,0.2c0,0.1-0.1,0.2-0.2,0.2h-1.6v1.7c0,0.1-0.1,0.2-0.2,0.2l0,0
		c-0.1,0-0.2-0.1-0.2-0.2v-1.7h-1.6c-0.1,0-0.2-0.1-0.2-0.2c0-0.1,0.1-0.2,0.2-0.2h1.6v-1.7c0-0.1,0.1-0.2,0.2-0.2l0,0
		C221.6,208.5,221.7,208.6,221.7,208.7z"/>
	<path class="st1" d="M223.5,222.7c0,0.2-0.1,0.3-0.3,0.3h-3.6c-0.2,0-0.3-0.1-0.3-0.3c0-0.2,0.1-0.3,0.3-0.3h3.6
		C223.4,222.4,223.5,222.5,223.5,222.7z"/>
	<path class="st1" d="M223.5,240.1c0,0.2-0.1,0.3-0.3,0.3h-3.6c-0.2,0-0.3-0.1-0.3-0.3c0-0.2,0.1-0.3,0.3-0.3h3.6
		C223.4,239.8,223.5,239.9,223.5,240.1z"/>
	<path class="st1" d="M223.5,241.7c0,0.2-0.1,0.3-0.3,0.3h-3.6c-0.2,0-0.3-0.1-0.3-0.3c0-0.2,0.1-0.3,0.3-0.3h3.6
		C223.4,241.5,223.5,241.6,223.5,241.7z"/>
	<path class="st1" d="M75.4,183.2l-0.2-0.1c2.9-8,2.3-11.4,1.2-12.9c-0.9-1.3-2.1-1.3-2.2-1.3v-0.2c0.1,0,1.4,0,2.4,1.4
		C77.6,171.6,78.3,175.2,75.4,183.2z"/>
	<path class="st20" d="M88.8,159.8c0,0-2.3,1.2-4.6-1.1c0,0-0.5,0,0,0.9s2.3,2,4.5,1.6L88.8,159.8z"/>
	<path class="st6" d="M128.4,170.2c0,0-3.1,0.2-3.5,1.4s1.4,1.3,2.9,0.6C129.2,171.5,129.3,170.1,128.4,170.2z"/>
	<path class="st1" d="M89.8,206.9l-0.2-0.2c0,0,1.6-1.8,1.6-4.8h0.2C91.4,205.1,89.8,206.9,89.8,206.9z"/>
	<path class="st12" d="M331.6,178.8c0.7-3-1.2-6-4.2-6.8c-3-0.7-6.1,1.2-6.8,4.2c-0.7,3,1.2,6,4.2,6.8
		C327.8,183.7,330.9,181.8,331.6,178.8z"/>
	<path class="st1" d="M323.7,176.1c0.1,0,0.2,0.1,0.3,0.2l0.6,0.9c0.2,0.3,0.3,0.5,0.5,0.8l0,0c0.2-0.3,0.3-0.5,0.5-0.8l0.6-0.8
		c0.1-0.1,0.2-0.2,0.3-0.2c0.3,0,0.5,0.4,0.3,0.6l-1.2,1.7l1.3,1.9c0.2,0.2,0,0.6-0.3,0.6h-0.1c-0.1,0-0.2-0.1-0.3-0.2l-0.6-0.9
		c-0.2-0.3-0.4-0.5-0.5-0.8l0,0c-0.2,0.3-0.3,0.5-0.5,0.8l-0.6,0.9c-0.1,0.1-0.2,0.2-0.3,0.2l0,0c-0.3,0-0.5-0.4-0.3-0.6l1.3-1.9
		l-1.2-1.8C323.1,176.5,323.3,176.1,323.7,176.1L323.7,176.1L323.7,176.1z"/>
	<path class="st1" d="M328.1,175.4h0.7c0.1,0,0.2,0.1,0.2,0.2c0,0.1-0.1,0.2-0.2,0.2h-1c-0.2,0-0.2-0.1-0.2-0.2c0-0.1,0-0.2,0.1-0.2
		l0.5-0.5c0.1-0.1,0.2-0.2,0.3-0.3c0.1-0.1,0.1-0.2,0.1-0.2c0-0.2-0.1-0.3-0.3-0.3c-0.1,0-0.2,0-0.3,0.1c-0.1,0.1-0.2,0-0.2-0.2
		c0-0.1,0-0.1,0.1-0.2c0.2-0.1,0.3-0.1,0.5-0.1s0.4,0.1,0.5,0.2c0.1,0.1,0.2,0.3,0.2,0.5s-0.2,0.5-0.5,0.8L328.1,175.4z"/>
	<path class="st11" d="M112.5,138.7c0.7-3-1.2-6-4.2-6.8c-3-0.7-6.1,1.2-6.8,4.2c-0.7,3,1.2,6,4.2,6.8
		C108.8,143.6,111.8,141.7,112.5,138.7z"/>
	<path class="st1" d="M109,135.5h0.7c0.1,0,0.2,0.1,0.2,0.2c0,0.1-0.1,0.2-0.2,0.2h-1c-0.2,0-0.2-0.1-0.2-0.2c0-0.1,0-0.2,0.1-0.2
		l0.5-0.5c0.1-0.1,0.2-0.2,0.3-0.3c0.1-0.1,0.1-0.2,0.1-0.2c0-0.2-0.1-0.3-0.3-0.3c-0.1,0-0.2,0-0.3,0.1c-0.1,0.1-0.2,0-0.2-0.2
		c0-0.1,0-0.1,0.1-0.2c0.2-0.1,0.3-0.1,0.5-0.1s0.4,0.1,0.5,0.2c0.1,0.1,0.2,0.3,0.2,0.5s-0.2,0.5-0.5,0.8L109,135.5z"/>
	<path class="st1" d="M108,136.9l-1.2,3.2c-0.4,0.9-0.9,1.4-1.6,1.4c-0.1,0-0.2,0-0.3,0c-0.2,0-0.4-0.2-0.4-0.4s0.2-0.4,0.5-0.4l0,0
		c0.3,0,0.5-0.1,0.6-0.4l0.2-0.4l-1.1-2.9c-0.1-0.3,0-0.6,0.3-0.7h0.1c0.2,0,0.4,0.2,0.4,0.4c0,0,0.7,2.1,0.7,2.3
		c0-0.1,0.8-2.2,0.8-2.2c0.1-0.2,0.3-0.4,0.5-0.4C107.9,136.3,108.1,136.6,108,136.9z"/>
	<path class="st9" d="M73.7,104.9V101h1.5c0.3,0,0.5,0,0.6,0c0.2,0,0.4,0.1,0.5,0.2c0.1,0.1,0.2,0.2,0.3,0.4
		c0.1,0.2,0.1,0.3,0.1,0.5c0,0.3-0.1,0.6-0.3,0.8c-0.2,0.2-0.6,0.4-1.2,0.4h-1v1.6H73.7L73.7,104.9z M74.2,102.8h1
		c0.3,0,0.6-0.1,0.7-0.2c0.2-0.1,0.2-0.3,0.2-0.5s0-0.3-0.1-0.4c-0.1-0.1-0.2-0.2-0.3-0.2c-0.1,0-0.2,0-0.5,0h-1L74.2,102.8
		L74.2,102.8z"/>
	<path class="st9" d="M81.3,102.6h-2.6v-0.5h2.6V102.6z M81.3,103.8h-2.6v-0.5h2.6V103.8z"/>
	<path class="st9" d="M86,104.5v0.5h-2.6c0-0.1,0-0.2,0.1-0.3c0.1-0.2,0.2-0.4,0.3-0.5c0.2-0.2,0.4-0.4,0.6-0.6
		c0.4-0.4,0.7-0.6,0.9-0.8c0.2-0.2,0.2-0.4,0.2-0.6c0-0.2-0.1-0.4-0.2-0.5c-0.2-0.1-0.3-0.2-0.5-0.2s-0.4,0.1-0.6,0.2
		c-0.2,0.2-0.2,0.3-0.2,0.6l-0.5-0.1c0-0.4,0.2-0.7,0.4-0.8c0.2-0.2,0.5-0.3,0.9-0.3s0.7,0.1,0.9,0.3c0.2,0.2,0.3,0.5,0.3,0.8
		c0,0.2,0,0.3-0.1,0.5s-0.2,0.3-0.3,0.5c-0.2,0.2-0.4,0.4-0.8,0.7c-0.3,0.2-0.5,0.4-0.6,0.5s-0.2,0.2-0.2,0.3L86,104.5L86,104.5z"/>
	<path class="st9" d="M87.2,104.9V101h0.5v3.9H87.2z"/>
	<path class="st9" d="M91,104.3v-1.1h-1.1v-0.5H91v-1.1h0.4v1.1h1.1v0.5h-1.1v1.1H91z"/>
	<path class="st9" d="M97.1,104.5v0.5h-2.6c0-0.1,0-0.2,0.1-0.3c0.1-0.2,0.2-0.4,0.3-0.5c0.2-0.2,0.4-0.4,0.6-0.6
		c0.4-0.4,0.7-0.6,0.9-0.8c0.2-0.2,0.2-0.4,0.2-0.6c0-0.2-0.1-0.4-0.2-0.5c-0.2-0.1-0.3-0.2-0.5-0.2s-0.4,0.1-0.6,0.2
		c-0.2,0.2-0.2,0.3-0.2,0.6l-0.5-0.1c0-0.4,0.2-0.7,0.4-0.8c0.2-0.2,0.5-0.3,0.9-0.3s0.7,0.1,0.9,0.3c0.2,0.2,0.3,0.5,0.3,0.8
		c0,0.2,0,0.3-0.1,0.5s-0.2,0.3-0.3,0.5c-0.2,0.2-0.4,0.4-0.8,0.7c-0.3,0.2-0.5,0.4-0.6,0.5s-0.2,0.2-0.2,0.3L97.1,104.5L97.1,104.5
		z"/>
	<path class="st9" d="M98.9,104.9l-0.9-2.8h0.5l0.5,1.7l0.2,0.6c0,0,0.1-0.2,0.2-0.6l0.5-1.7h0.5l0.4,1.7l0.2,0.5l0.2-0.5l0.5-1.7
		h0.5l-0.9,2.8h-0.5l-0.5-1.7l-0.1-0.5l-0.6,2.2H98.9L98.9,104.9z"/>
	<path class="st9" d="M219,96.8h-0.5v22.5h0.5V96.8z"/>
	<path class="st9" d="M241.3,118.9h-22.5v0.5h22.5V118.9z"/>
	<path class="st9" d="M219.8,99.1c-0.1,0-0.2-0.1-0.2-0.2l-0.8-2.1l-0.8,2.1c0,0.1-0.2,0.2-0.3,0.1c-0.1,0-0.2-0.2-0.1-0.3l1-2.7
		c0-0.1,0.1-0.2,0.2-0.2c0.1,0,0.2,0.1,0.2,0.2l1,2.7C220,98.8,220,98.9,219.8,99.1C219.8,99.1,219.8,99.1,219.8,99.1z"/>
	<path class="st9" d="M239.1,120.3c-0.1,0-0.2-0.1-0.2-0.2c0-0.1,0-0.2,0.1-0.3l2.1-0.8l-2.1-0.8c-0.1,0-0.2-0.2-0.1-0.3
		c0-0.1,0.2-0.2,0.3-0.1l2.7,1c0.1,0,0.2,0.1,0.2,0.2c0,0.1-0.1,0.2-0.2,0.2L239.1,120.3L239.1,120.3z"/>
	<path class="st9" d="M235.2,104.7C235.2,104.7,235.2,104.8,235.2,104.7c-0.1,0.1-0.2,0.1-0.2,0l-0.5-1.4l-0.5,1.4
		c0,0.1-0.1,0.1-0.1,0.1c-0.1,0-0.1-0.1-0.1-0.1l0.6-1.6l0.1-0.1c0,0,0.1,0,0.1,0.1L235.2,104.7
		C235.2,104.6,235.2,104.6,235.2,104.7z"/>
	<path class="st9" d="M221,117.1C220.9,117.1,220.9,117.1,221,117.1c-0.2,0-0.3-0.1-0.3-0.2c0-0.1,0.1-0.2,0.2-0.2
		c0.1,0,6.1,0.1,10-3.7c2.3-2.2,3.5-5.4,3.5-9.4c0-0.1,0.1-0.4,0.2-0.4c0.1,0,0.2,0.3,0.2,0.4c0,4.1-1.2,7.3-3.6,9.7
		C227.3,117,221.7,117.1,221,117.1z"/>
	<path class="st9" d="M243.9,120.6l0.7-1l-0.6-0.9h0.4l0.3,0.5c0.1,0.1,0.1,0.2,0.1,0.2c0.1-0.1,0.1-0.2,0.2-0.2l0.3-0.5h0.4
		l-0.7,0.9l0.7,1h-0.4l-0.4-0.6l-0.1-0.2l-0.5,0.8H243.9L243.9,120.6z"/>
	<path class="st9" d="M217,95v-0.3c0.1,0,0.1,0,0.2,0c0.1,0,0.1,0,0.2,0l0.1-0.1c0,0,0.1-0.1,0.1-0.2c0,0,0,0,0-0.1l-0.7-1.9h0.4
		l0.4,1.1c0.1,0.2,0.1,0.3,0.2,0.5c0-0.2,0.1-0.3,0.1-0.4l0.4-1.1h0.3l-0.7,2c-0.1,0.2-0.2,0.4-0.2,0.4c-0.1,0.1-0.1,0.2-0.2,0.2
		c-0.1,0.1-0.2,0.1-0.3,0.1C217.2,95,217.1,95,217,95z"/>
	<path class="st9" d="M211.7,108.1L211.7,108.1l-3.1-2.7c0,0-0.1-0.1,0-0.2c0-0.1,0.1-0.1,0.1-0.1h3c0.1,0,0.1,0.1,0.1,0.1v0.8
		c0,0.1-0.1,0.1-0.1,0.1l-0.1-0.1v-0.7H209l2.8,2.5C211.9,107.9,211.9,108,211.7,108.1C211.8,108.1,211.8,108.1,211.7,108.1z"/>
	<path class="st9" d="M211.7,110.8h-3c-0.1,0-0.1,0-0.1-0.1s0-0.1,0-0.2l3-2.7c0.1-0.1,0.2,0,0.2,0c0.1,0.1,0,0.2,0,0.2l-2.8,2.5
		h2.6v-0.7c0-0.1,0.1-0.1,0.1-0.1l0.1,0.1v0.8C211.9,110.8,211.8,110.8,211.7,110.8z"/>
	<path class="st9" d="M212.9,110.8v-1.4h0.2v0.2c0.1-0.2,0.2-0.2,0.5-0.2c0.1,0,0.2,0,0.2,0.1c0.1,0,0.1,0.1,0.2,0.1
		c0,0.1,0.1,0.1,0.1,0.2c0,0,0,0.1,0,0.2v0.9h-0.2V110c0-0.1,0-0.2,0-0.2c0-0.1-0.1-0.1-0.1-0.1c-0.1,0-0.1,0-0.2,0
		c-0.1,0-0.2,0-0.3,0.1s-0.1,0.2-0.1,0.4v0.8L212.9,110.8L212.9,110.8z"/>
	<path class="st9" d="M62.5,156.1l0.7-1l-0.6-0.9H63l0.3,0.5c0.1,0.1,0.1,0.2,0.1,0.2c0.1-0.1,0.1-0.2,0.2-0.2l0.3-0.5h0.4l-0.7,0.9
		l0.7,1h-0.4l-0.4-0.6l-0.1-0.2l-0.5,0.8H62.5L62.5,156.1z"/>
	<path class="st9" d="M46.6,139.5v-0.3c0.1,0,0.1,0,0.2,0c0.1,0,0.1,0,0.2,0l0.1-0.1c0,0,0.1-0.1,0.1-0.2c0,0,0,0,0-0.1l-0.7-1.9
		h0.4l0.4,1.1c0.1,0.2,0.1,0.3,0.2,0.5c0-0.2,0.1-0.3,0.1-0.4L48,137h0.3l-0.7,2c-0.1,0.2-0.2,0.4-0.2,0.4c-0.1,0.1-0.1,0.2-0.2,0.2
		c-0.1,0.1-0.2,0.1-0.3,0.1C46.7,139.5,46.6,139.5,46.6,139.5z"/>
	<path class="st9" d="M47.4,142.6h-0.3v25.1h0.3V142.6z"/>
	<path class="st9" d="M59.9,155H34.6v0.3h25.3V155z"/>
	<path class="st9" d="M47.7,143.6l-0.5-1.1l-0.4,1.1l-0.3-0.1l0.7-1.8l0.8,1.8L47.7,143.6z"/>
	<path class="st9" d="M59.1,155.9l-0.2-0.3l1.1-0.5l-1.1-0.4l0.1-0.3l1.8,0.7L59.1,155.9z"/>
	<path class="st9" d="M35.4,155.9l-1.8-0.8l1.8-0.7l0.1,0.3l-1.1,0.4l1.1,0.5L35.4,155.9z"/>
	<path class="st9" d="M47.2,168.6l-0.7-1.8l0.3-0.1l0.4,1.1l0.5-1.1l0.3,0.1L47.2,168.6z"/>
	<path class="st9" d="M47.2,162.5v-0.3c6.6,0,7.4-17,7.4-17.2h0.3C54.9,145.6,54.2,162.5,47.2,162.5z"/>
	<path class="st9" d="M47.2,162.5c-6.9,0-7.7-16.8-7.7-17.5h0.3c0,0.2,0.8,17.2,7.4,17.2V162.5L47.2,162.5z"/>
	<path class="st9" d="M47.8,152.4h-1.2v0.3h1.2V152.4z"/>
	<path class="st9" d="M47.8,150h-1.2v0.3h1.2V150z"/>
	<path class="st9" d="M47.8,147.5h-1.2v0.3h1.2V147.5z"/>
	<path class="st9" d="M47.8,145h-1.2v0.3h1.2V145z"/>
	<path class="st9" d="M50,154.6h-0.3v1.2H50V154.6z"/>
	<path class="st9" d="M52.5,154.6h-0.3v1.2h0.3V154.6z"/>
	<path class="st9" d="M55,154.6h-0.3v1.2H55V154.6z"/>
	<path class="st9" d="M57.5,154.6h-0.3v1.2h0.3V154.6z"/>
	<path class="st9" d="M37.2,154.6h-0.3v1.2h0.3V154.6z"/>
	<path class="st9" d="M39.8,154.6h-0.4v1.2h0.3v-1.2H39.8z"/>
	<path class="st9" d="M42.3,154.6H42v1.2h0.3V154.6z"/>
	<path class="st9" d="M44.8,154.6h-0.3v1.2h0.3V154.6z"/>
	<path class="st9" d="M47.8,164.8h-1.2v0.3h1.2V164.8z"/>
	<path class="st9" d="M47.8,162.3h-1.2v0.3h1.2V162.3z"/>
	<path class="st9" d="M47.8,159.8h-1.2v0.3h1.2V159.8z"/>
	<path class="st9" d="M47.8,157.4h-1.2v0.3h1.2V157.4z"/>
	<path class="st9" d="M315.6,112.7h-2.2v-0.4h2.2V112.7z M315.6,113.7h-2.2v-0.4h2.2V113.7z"/>
	<path class="st9" d="M317.3,113.7l0.4-0.1c0.1,0.2,0.1,0.4,0.2,0.5s0.2,0.2,0.4,0.2c0.2,0,0.4-0.1,0.5-0.2c0.1-0.1,0.2-0.3,0.2-0.5
		s-0.1-0.3-0.2-0.5c-0.1-0.1-0.3-0.2-0.5-0.2c-0.1,0-0.2,0-0.3,0.1l0.1-0.4h0.1c0.2,0,0.3-0.1,0.5-0.2c0.2-0.1,0.2-0.2,0.2-0.4
		s-0.1-0.3-0.2-0.4c-0.1-0.1-0.2-0.2-0.4-0.2c-0.2,0-0.3,0.1-0.4,0.2c-0.1,0.1-0.2,0.2-0.2,0.5l-0.4-0.1c0.1-0.3,0.2-0.5,0.3-0.6
		c0.2-0.2,0.4-0.2,0.7-0.2c0.2,0,0.4,0,0.5,0.1c0.2,0.1,0.3,0.2,0.4,0.3s0.1,0.3,0.1,0.4c0,0.2,0,0.3-0.1,0.4
		c-0.1,0.1-0.2,0.2-0.3,0.3c0.2,0.1,0.4,0.2,0.5,0.3c0.1,0.2,0.2,0.3,0.2,0.5c0,0.3-0.1,0.5-0.3,0.8c-0.2,0.2-0.5,0.3-0.8,0.3
		s-0.5-0.1-0.7-0.3C317.4,114.3,317.4,114,317.3,113.7z"/>
	<path class="st9" d="M320.2,114.6v-0.5h0.5v0.5c0,0.2,0,0.3-0.1,0.4c-0.1,0.1-0.2,0.2-0.3,0.2l-0.1-0.2c0.1,0,0.2-0.1,0.2-0.2
		c0-0.1,0.1-0.2,0.1-0.3L320.2,114.6L320.2,114.6z"/>
	<path class="st9" d="M322.8,114.6h-0.4V112c-0.1,0.1-0.2,0.2-0.4,0.3c-0.2,0.1-0.3,0.2-0.4,0.2v-0.4c0.2-0.1,0.4-0.2,0.6-0.4
		s0.3-0.3,0.4-0.5h0.3v3.4H322.8z"/>
	<path class="st9" d="M325.2,114.6v-0.8h-1.5v-0.4l1.6-2.2h0.3v2.2h0.5v0.4h-0.5v0.8H325.2L325.2,114.6z M325.2,113.4v-1.5l-1.1,1.5
		H325.2z"/>
</g>
</svg>
