<?xml version="1.0" encoding="utf-8"?>
<!-- Generator: Adobe Illustrator 24.1.2, SVG Export Plug-In . SVG Version: 6.00 Build 0)  -->
<svg version="1.1" id="Layer_1" xmlns="http://www.w3.org/2000/svg" xmlns:xlink="http://www.w3.org/1999/xlink" x="0px" y="0px"
	 viewBox="0 0 39.6 39.6" style="enable-background:new 0 0 39.6 39.6;" xml:space="preserve">
<style type="text/css">
	.st0{fill-rule:evenodd;clip-rule:evenodd;fill:url(#SVGID_1_);}
	.st1{fill:url(#SVGID_2_);}
	.st2{fill-rule:evenodd;clip-rule:evenodd;fill:url(#SVGID_3_);}
	.st3{fill-rule:evenodd;clip-rule:evenodd;fill:url(#SVGID_4_);}
</style>
<g>
	<g>
		
			<linearGradient id="SVGID_1_" gradientUnits="userSpaceOnUse" x1="19.8219" y1="-236.1245" x2="19.8219" y2="-200.6945" gradientTransform="matrix(1 0 0 1 0 236)">
			<stop  offset="0" style="stop-color:#FDD60C"/>
			<stop  offset="1" style="stop-color:#F59120"/>
		</linearGradient>
		<path class="st0" d="M39.6,19.8c0,10.9-8.9,19.8-19.8,19.8S0,30.8,0,19.8S8.9,0,19.8,0S39.6,8.9,39.6,19.8z"/>
	</g>
	<g>
		
			<radialGradient id="SVGID_2_" cx="-422.627" cy="261.0158" r="2.2499" gradientTransform="matrix(3.7037 0 0 -3.7037 1585.1056 992.9227)" gradientUnits="userSpaceOnUse">
			<stop  offset="0.129" style="stop-color:#442A16"/>
			<stop  offset="0.4659" style="stop-color:#3C2413"/>
			<stop  offset="0.9452" style="stop-color:#2A170C"/>
			<stop  offset="1" style="stop-color:#29170C"/>
		</radialGradient>
		<path class="st1" d="M19.8,22.1c-4.7,0-9,2.8-11,7.1c-0.2,0.4,0,0.8,0.4,1c0.4,0.2,0.8,0,1-0.4c1.7-3.8,5.5-6.2,9.6-6.2
			c4.1,0,7.9,2.4,9.6,6.2c0.2,0.4,0.6,0.6,1,0.4c0.4-0.2,0.6-0.6,0.4-1C28.9,24.9,24.5,22.1,19.8,22.1z"/>
	</g>
	<g>
		
			<radialGradient id="SVGID_3_" cx="-424.2978" cy="161.5875" r="0.5354" gradientTransform="matrix(3.7037 0 0 3.7037 1585.1056 -582.9841)" gradientUnits="userSpaceOnUse">
			<stop  offset="0.129" style="stop-color:#442A16"/>
			<stop  offset="0.4659" style="stop-color:#3C2413"/>
			<stop  offset="0.9452" style="stop-color:#2A170C"/>
			<stop  offset="1" style="stop-color:#29170C"/>
		</radialGradient>
		<path class="st2" d="M15.6,15.5c0,1.1-0.9,2-2,2s-2-0.9-2-2s0.9-2,2-2C14.7,13.5,15.6,14.4,15.6,15.5z"/>
		
			<radialGradient id="SVGID_4_" cx="-420.9521" cy="161.5875" r="0.5352" gradientTransform="matrix(3.7037 0 0 3.7037 1585.1056 -582.9841)" gradientUnits="userSpaceOnUse">
			<stop  offset="0.129" style="stop-color:#442A16"/>
			<stop  offset="0.4659" style="stop-color:#3C2413"/>
			<stop  offset="0.9452" style="stop-color:#2A170C"/>
			<stop  offset="1" style="stop-color:#29170C"/>
		</radialGradient>
		<circle class="st3" cx="26" cy="15.5" r="2"/>
	</g>
</g>
</svg>
