<?xml version="1.0" encoding="utf-8"?>
<!-- Generator: Adobe Illustrator 24.2.0, SVG Export Plug-In . SVG Version: 6.00 Build 0)  -->
<svg version="1.1" id="Layer_1" xmlns="http://www.w3.org/2000/svg" xmlns:xlink="http://www.w3.org/1999/xlink" x="0px" y="0px"
	 viewBox="0 0 398.9 270.2" style="enable-background:new 0 0 398.9 270.2;" xml:space="preserve">
<style type="text/css">
	.st0{opacity:0.65;fill:#FFFFFF;enable-background:new    ;}
	.st1{fill:#FFFFFF;}
	.st2{fill:#D8ECD4;}
	.st3{fill:#0F1407;}
	.st4{fill:#93C9A1;}
	.st5{fill:#E9605D;}
	.st6{fill:#676899;}
	.st7{fill:#F9C14E;}
	.st8{fill:#68BBEA;}
	.st9{fill:#F2F2F2;}
	.st10{fill:#40AF92;}
	.st11{fill:#E587AB;}
	.st12{fill:#FCF3F8;}
	.st13{fill:#ED9D81;}
	.st14{fill:#31B359;stroke:#231F20;stroke-miterlimit:10;}
	.st15{fill:#F9D382;}
	.st16{opacity:0.61;}
	.st17{opacity:0.61;fill:#0F1407;enable-background:new    ;}
	.st18{opacity:0.2;}
	.st19{opacity:0.2;fill:#FFFFFF;enable-background:new    ;}
	.st20{fill:#D2C4E1;}
	.st21{fill:#ED6C56;}
	.st22{fill:#355373;}
	.st23{fill:#E4967D;}
	.st24{opacity:0.5;}
	.st25{opacity:0.5;fill:#E6E5F3;enable-background:new    ;}
	.st26{fill:#343147;}
	.st27{opacity:0.21;}
	.st28{opacity:0.21;fill:#FFFFFF;enable-background:new    ;}
	.st29{opacity:0.21;fill:#F9C14E;enable-background:new    ;}
</style>
<path class="st0" d="M51.5,269.4c0,0-81.8-75.4-39.3-146.7c42.5-71.4,126.7-46,210.1-89.4s137.6-37.8,160.2,0
	c27.6,46-39.8,86.7-1.3,149.4c38.6,62.7-2.4,86.7-2.4,86.7L51.5,269.4L51.5,269.4z"/>
<path class="st0" d="M347.3,269.4H20c0,0-41-24-2.4-86.7C56.1,120-11.3,79.3,16.3,33.3c22.6-37.8,76.8-43.4,160.2,0
	s167.6,18,210.1,89.4C429.1,194,347.3,269.4,347.3,269.4L347.3,269.4z"/>
<g>
	<path class="st1" d="M121.6,17.9c-0.5,0-0.8-0.8-0.5-1.3c2.2-3.1,7.8-5.2,14.1-5.2c9.6,0,12,5.1,20.5-3.3c2-2,4.5-2.9,10.6,0.2
		s5.8-7.7,11-8.2c8.5-0.9,16.3,10.3,19.5,15.6c0.7,1.1,0,2.6-1.1,2.6L121.6,17.9z"/>
	<path class="st1" d="M66.3,39.7c0.4,0,0.6-0.6,0.4-1c-1.6-2.3-5.6-4-10.3-4.1c-7-0.1-6.8-5.1-14.3-8.2c-9.5-4-13.6,8.3-17.4,7.8
		c-6.2-0.8-10.9-0.8-13.3,3.2c-0.5,0.8,0,2,0.8,2L66.3,39.7z"/>
</g>
<g>
	<path class="st2" d="M80.4,255c0,0,23.7,1.5,28.1,1.5s4.8,2.1,4.1,4.6c-0.8,2.5,34.1-5.5,34.1-5.5l-10.2-8L91.7,248L80.4,255z"/>
	<path class="st2" d="M120.2,254.8c-12.3,3.3-11.3,13.8,13.8,13.8c52.3,0,118.8-0.9,116.1-6.3s-123-12.9-123-12.9L120.2,254.8z"/>
	<path class="st2" d="M287.8,270.2c13.8,0,25-2.4,25-5.4s-11.2-5.4-25-5.4s-25,2.4-25,5.4S274,270.2,287.8,270.2z"/>
	<path class="st3" d="M266.8,123.7c0,0-2-0.9-2-5.8c0.1-4.9,5.4-7,9.4-5.9s8.1,3.7,12.1,0.5s7.2-4.7,10.8-3.5
		c3.6,1.2,6.6,0.5,8.5-1.5s4.4-4.9,7.5-2.6c3.2,2.3-0.3,11.1-3.6,13.2c-3.4,2.1-6.5,0.2-9.1,1.2c-2.6,0.9-3.7,6.2-8.9,7.2
		c-5.2,1-3.1,0-7.4,0.4c-4.2,0.4-6.6,5.4-11.9,2.1C267.1,125.7,266.8,123.7,266.8,123.7z"/>
	<path class="st3" d="M37.9,209.3l-4.5-5l0.7-0.6l3.9,1.1c0.9,0.3,1.7,0.5,2.4,0.8l0,0c-0.7-0.6-1.2-1.2-1.9-2l-1.9-2.1l0.6-0.6
		l4.5,5l-0.6,0.6l-3.9-1.1c-0.9-0.2-1.7-0.5-2.4-0.8l0,0c0.6,0.6,1.2,1.2,1.9,2l1.9,2.1L37.9,209.3z"/>
	<path class="st3" d="M72.9,176.2c0.5-0.1,1-0.3,1.5-0.7c0.7-0.6,0.8-1.3,0.3-1.8c-0.4-0.5-0.9-0.5-1.8-0.2c-1.1,0.5-2,0.5-2.6-0.2
		c-0.7-0.8-0.6-2,0.4-2.8c0.5-0.5,1-0.7,1.3-0.8l0.3,0.7c-0.2,0.1-0.7,0.2-1.2,0.6c-0.7,0.6-0.6,1.3-0.3,1.6
		c0.4,0.5,0.9,0.4,1.9,0.1c1.1-0.5,2-0.4,2.6,0.3c0.7,0.8,0.7,2-0.5,3c-0.5,0.5-1.1,0.8-1.6,0.8L72.9,176.2z"/>
	<path class="st4" d="M74.6,164.4l23.9,26.7c10.9,12.2,9.9,30.9-2.2,41.9c-12.1,10.9-30.8,9.9-41.8-2.2l-23.9-26.7l9-8.1l23.9,26.7
		c6.4,7.2,17.5,7.8,24.7,1.3c7.2-6.4,7.7-17.5,1.3-24.7l-23.9-26.7L74.6,164.4z"/>
	<path class="st5" d="M74.6,164.4l23.9,26.7c10.9,12.2,9.9,30.9-2.2,41.9l-8.1-9c7.2-6.4,7.7-17.5,1.3-24.7l-23.9-26.7L74.6,164.4z"
		/>
	<path class="st6" d="M39.7,195.9l-9,8.1l7.2,8l9-8.1L39.7,195.9z"/>
	<path class="st6" d="M74.7,164.4l-9,8.1l7.2,8l9-8.1L74.7,164.4z"/>
	<path class="st3" d="M39.1,208.2l-4.5-5l0.7-0.6l3.9,1.1c0.9,0.3,1.7,0.5,2.4,0.8l0,0c-0.7-0.6-1.2-1.2-1.9-2l-1.9-2.1l0.6-0.6
		l4.5,5l-0.6,0.6l-3.9-1.1c-0.9-0.2-1.7-0.5-2.4-0.8l0,0c0.6,0.6,1.2,1.2,1.9,2l1.9,2.1L39.1,208.2z"/>
	<path class="st3" d="M74.1,175.2c0.5-0.1,1-0.3,1.5-0.7c0.7-0.6,0.8-1.3,0.3-1.8c-0.4-0.5-0.9-0.5-1.8-0.2c-1.1,0.5-2,0.5-2.6-0.2
		c-0.7-0.8-0.6-2,0.4-2.8c0.5-0.5,1-0.7,1.3-0.8l0.3,0.7c-0.2,0.1-0.7,0.2-1.2,0.6c-0.7,0.6-0.6,1.3-0.3,1.6
		c0.4,0.5,0.9,0.4,1.9,0.1c1.1-0.5,2-0.4,2.6,0.3c0.7,0.8,0.7,2-0.5,3c-0.5,0.5-1.1,0.8-1.6,0.8L74.1,175.2z"/>
	<path class="st7" d="M30.6,152.9l7.3,15.9l6.3-5.6l5.1,22.6l-7.2-15.7l-5.7,5.1L30.6,152.9z"/>
	<path class="st8" d="M136,237.2c3.8-15.7-13.5-21.2-23.5-14.5c0,0-3.8-13.1-19-11.9c-10.5,0.8-15.3,11.9-16.1,14.4
		c0,0-14.7-2.7-19.3,8.8c-3,7.7,0.8,13.7,0.8,13.7s-17.8-0.9-16.4,11.2c1.3,11.3,20.7,9.2,42.1,9.2s44.8-0.8,44.8-0.8L136,237.2z"/>
	<path class="st9" d="M160.4,233.9c0,0-4-5.3-12.3-4.5c-8.3,0.9-9.9,8.8-9.9,8.8s-7.8-2.9-12.6,0s-5.3,8.9-4.8,13.9
		c0,0-2.3-7.2-9.4-7.3c-7.1-0.2-10.5,5.9-10.5,5.9s-6.5-4.6-12.1,0.7c-5.6,5.3-4.2,11.6,2.7,15.6h56.2L160.4,233.9z"/>
	<path class="st10" d="M235.8,221.3c0,0,7.1-3.6,12.3,1.3c5.2,5,2.4,10.2,2.4,10.2s9.6-0.4,11,8c1.4,9-7.5,12.9-23.6,12.9
		C221.7,253.7,235.8,221.3,235.8,221.3z"/>
	<path class="st11" d="M253.4,259.9h-4.9c-3.5-2.1-4.9-6.6-4.9-11.8c0-5.3,1.4-9.8,4.9-11.9h4.9c0.7,0,1.2-0.5,1.2-1.2
		s-0.5-1.2-1.2-1.2H136.9c-7.8,0-14.2,6.4-14.2,14.3s6.4,14.3,14.2,14.3h116.5c0.7,0,1.2-0.5,1.2-1.2S254.1,259.9,253.4,259.9z"/>
	<path class="st12" d="M250.1,235.1v1.2c-3.8,2.6-6.3,6.9-6.3,11.9c0,4.9,2.5,9.3,6.3,11.9v1.2h-72.6c-6.9,0-12.4-5.8-12.4-13.1
		c0-3.6,1.4-6.8,3.6-9.2c2.3-2.4,5.4-3.8,8.8-3.8h72.6L250.1,235.1L250.1,235.1z"/>
	<path class="st1" d="M250.6,235.1v1.2c-3.8,2.6-6.3,6.9-6.3,11.9c0,4.9,2.5,9.3,6.3,11.9v1.2H178c-6.9,0-12.4-5.8-12.4-13.1
		c0-3.6,1.4-6.8,3.6-9.2c2.3-2.4,5.4-3.8,8.8-3.8h72.6L250.6,235.1L250.6,235.1z"/>
	<path class="st5" d="M254.2,262.4h-75.3c-7.8,0-14.2-6.4-14.2-14.3s6.4-14.3,14.2-14.3h75.3c0.7,0,1.2,0.5,1.2,1.2
		s-0.5,1.2-1.2,1.2h-75.3c-6.5,0-11.8,5.3-11.8,11.9c0,6.5,5.3,11.9,11.8,11.9h75.3c0.7,0,1.2,0.5,1.2,1.2
		C255.4,261.8,254.9,262.4,254.2,262.4z"/>
	<path class="st4" d="M236.5,187.5H120c-0.7,0-1.2,0.5-1.2,1.2s0.5,1.2,1.2,1.2h4.9c3.5,2.1,4.9,6.6,4.9,11.9
		c0,5.2-1.4,9.7-4.9,11.8H120c-0.7,0-1.2,0.5-1.2,1.2s0.5,1.2,1.2,1.2h116.5c7.8,0,14.2-6.4,14.2-14.3
		C250.8,193.9,244.4,187.5,236.5,187.5z"/>
	<path class="st12" d="M121,188.7v1.2c3.8,2.6,6.3,6.9,6.3,11.9c0,4.9-2.5,9.3-6.3,11.9v1.2h72.6c6.9,0,12.4-5.8,12.4-13.1
		c0-3.6-1.4-6.8-3.6-9.2c-2.3-2.4-5.4-3.8-8.8-3.8L121,188.7L121,188.7z"/>
	<path class="st1" d="M121,188.7v1.2c3.8,2.6,6.3,6.9,6.3,11.9c0,4.9-2.5,9.3-6.3,11.9v1.2h72.6c6.9,0,12.4-5.8,12.4-13.1
		c0-3.6-1.4-6.8-3.6-9.2c-2.3-2.4-5.4-3.8-8.8-3.8L121,188.7L121,188.7z"/>
	<path class="st6" d="M198.9,202.4h-66c-0.2,0-0.4-0.2-0.4-0.4s0.2-0.4,0.4-0.4h66c0.2,0,0.4,0.2,0.4,0.4
		C199.3,202.2,199.1,202.4,198.9,202.4z"/>
	<path class="st6" d="M198.2,206.4h-66c-0.2,0-0.4-0.2-0.4-0.4s0.2-0.4,0.4-0.4h66c0.2,0,0.4,0.2,0.4,0.4
		C198.6,206.2,198.4,206.4,198.2,206.4z"/>
	<path class="st6" d="M198.2,198.1h-66c-0.2,0-0.4-0.2-0.4-0.4s0.2-0.4,0.4-0.4h66c0.2,0,0.4,0.2,0.4,0.4
		C198.6,198,198.4,198.1,198.2,198.1z"/>
	<path class="st6" d="M195.9,210.4h-66c-0.2,0-0.4-0.2-0.4-0.4s0.2-0.4,0.4-0.4h66c0.2,0,0.4,0.2,0.4,0.4
		C196.2,210.2,196.1,210.4,195.9,210.4z"/>
	<path class="st6" d="M195.9,193.9h-66c-0.2,0-0.4-0.2-0.4-0.4s0.2-0.4,0.4-0.4h66c0.2,0,0.4,0.2,0.4,0.4
		C196.2,193.7,196.1,193.9,195.9,193.9z"/>
	<path class="st11" d="M118.7,216H194c7.8,0,14.2-6.4,14.2-14.3c0-7.9-6.4-14.3-14.2-14.3h-75.3c-0.7,0-1.2,0.5-1.2,1.2
		s0.5,1.2,1.2,1.2H194c6.5,0,11.8,5.3,11.8,11.9c0,6.5-5.3,11.9-11.8,11.9h-75.3c-0.7,0-1.2,0.5-1.2,1.2
		C117.5,215.5,118,216,118.7,216z"/>
	<path class="st6" d="M239.8,216c4.9,0,8.9,4,8.9,8.9s-4,8.9-8.9,8.9H122.9v-1.6h3.5c2.7-1.3,4.6-4.1,4.6-7.3c0-3.2-1.9-6-4.6-7.3
		h-3.5V216H239.8z"/>
	<path class="st1" d="M122.9,233h61.9c4.5,0,8.1-3.7,8.1-8.1c0-2.3-0.9-4.3-2.4-5.7c-1.5-1.5-3.5-2.4-5.7-2.4h-62
		c4.5,0,8.1,3.7,8.1,8.1C131,229.4,127.4,233,122.9,233z"/>
	<path class="st4" d="M121,233.9h64.3c4.9,0,8.9-4,8.9-8.9c0-2.4-0.9-4.6-2.6-6.3c-1.7-1.7-3.9-2.6-6.3-2.6H121
		c-0.5,0-0.8,0.4-0.8,0.8c0,0.5,0.4,0.8,0.8,0.8h64.3c2,0,3.8,0.8,5.1,2.1c1.4,1.4,2.1,3.2,2.1,5.2c0,4-3.3,7.3-7.3,7.3h-64.3
		c-0.5,0-0.8,0.4-0.8,0.8C120.2,233.5,120.6,233.9,121,233.9z"/>
	<path class="st6" d="M239.9,248.5h-66c-0.2,0-0.4-0.2-0.4-0.4s0.2-0.4,0.4-0.4h66c0.2,0,0.4,0.2,0.4,0.4S240.1,248.5,239.9,248.5z"
		/>
	<path class="st6" d="M240.5,252.6h-66c-0.2,0-0.4-0.2-0.4-0.4c0-0.2,0.2-0.4,0.4-0.4h66c0.2,0,0.4,0.2,0.4,0.4
		C241,252.4,240.8,252.6,240.5,252.6z"/>
	<path class="st6" d="M240.5,244.2h-66c-0.2,0-0.4-0.2-0.4-0.4c0-0.2,0.2-0.4,0.4-0.4h66c0.2,0,0.4,0.2,0.4,0.4
		C241,244.1,240.8,244.2,240.5,244.2z"/>
	<path class="st6" d="M242.9,256.5h-66c-0.2,0-0.4-0.2-0.4-0.4c0-0.2,0.2-0.4,0.4-0.4h66c0.2,0,0.4,0.2,0.4,0.4
		C243.4,256.3,243.2,256.5,242.9,256.5z"/>
	<path class="st6" d="M242.9,240h-66c-0.2,0-0.4-0.2-0.4-0.4s0.2-0.4,0.4-0.4h66c0.2,0,0.4,0.2,0.4,0.4S243.2,240,242.9,240z"/>
	<path class="st13" d="M300.5,99c-0.4,1.2-4.7,3.8-5.7,5.1s-3.1-0.6-3.1-0.6s1.6-2.2,4-2.9C298.1,99.8,300.7,98.5,300.5,99z"/>
	<path class="st13" d="M235.8,113.4c0.2,0.8,4.2,0.7,5.7,1.4s3-1.6,3-1.6s-0.3-1.2-3.3-1.2s-4,0.7-5.1,0.7S235.8,113.4,235.8,113.4z
		"/>
	<path class="st13" d="M265.6,121.5c-1.2-0.4-1.6,5.9-0.7,8.8c0.9,2.9,2.3,2.9,2.3,2.9s0.7,5.8-2.7,5.6c-3.5-0.2,2.1,3.7,2.1,3.7
		s7.4,0.9,7.7,0.9c0.4,0,3.8-3.3,4.1-4c0.3-0.6-1.5-1.9-1.5-1.9s-2.5,0.8-3.5-1.8c-1.1-2.6-0.5-4.4-0.4-4.7s0.9-2.1,2.1-2.3
		s1.8-1.3,2.2-2.2c0.5-1.1-1-1.7-1.7-1.4c-0.6,0.2-0.4,0.3-0.6-2.1c-0.3-2.4-2.5-2.7-4.9-2S266.4,121.8,265.6,121.5z"/>
	<path class="st13" d="M265.8,159.9c0,0,1.1,5.6,0.4,7.2c-0.7,1.6,9.8,3.6,9.8,3.6l6.5-4.2c0,0,0-4.6,0-7.9
		C282.4,155.3,265.8,159.9,265.8,159.9z"/>
	<path class="st13" d="M261.6,202.8c0,0-0.7,9.5-0.7,14.4s6.9,39.3,6.9,39.3l5.7-1.3c0,0-1.1-34.6-0.9-37.4
		c0.2-2.7,2.9-12.3,2.9-12.3L261.6,202.8z"/>
	<path class="st13" d="M276.8,202.8c0,0,0.7,11.1,4.7,16.4c4,5.2,21.2,27.6,21.2,27.6l4.2-3.8c0,0-15.9-29.2-16.2-30.7
		c-0.3-1.5-0.4-15.5-0.4-15.5l-11,1.5L276.8,202.8z"/>
	<path class="st5" d="M273.7,255l1.5,6.5l-1.8,0.4c0,0-0.6-2.2-1.4-1.8c-0.7,0.3-2.9,3.1-5.4,4c-2.6,0.9-2.7,0.6-2.7,0.6
		s1.5-2,2.7-3.5c1.3-1.5,1.2-4.9,1.2-4.9L273.7,255z"/>
	<path class="st5" d="M307.1,242.9l4.3,5.1l-1.4,1.2c0,0-1.5-1.7-2-1c-0.5,0.6-1.2,4.1-3,6.1c-1.9,2-2.1,1.8-2.1,1.8
		s0.4-2.4,0.9-4.3c0.5-2-1.2-4.9-1.2-4.9L307.1,242.9z"/>
	<path class="st6" d="M271.5,51.1c-0.2,0-0.5-0.1-0.7-0.2l-51.5-39c-0.5-0.4-0.6-1.1-0.2-1.6c0.4-0.5,1.1-0.6,1.6-0.2l51.5,39
		c0.5,0.4,0.6,1.1,0.2,1.6C272.2,51,271.9,51.1,271.5,51.1z"/>
	<path class="st6" d="M275,46c-0.6,0-1.1-0.5-1.1-1l-3.5-36.2c-0.1-0.6,0.4-1.2,1-1.2c0.6-0.1,1.2,0.4,1.2,1l3.4,36.1
		c0.1,0.6-0.4,1.2-1,1.2C275,46,275,46,275,46z"/>
	<path class="st6" d="M294.8,91.2c-0.4,0-0.8-0.2-1-0.6l-15.1-31.1c-0.3-0.6,0-1.2,0.5-1.5c0.6-0.3,1.2,0,1.5,0.5l15.1,31.1
		c0.3,0.6,0,1.2-0.5,1.5C295.1,91.2,295,91.2,294.8,91.2z"/>
	<path class="st6" d="M235,104.7c-0.3,0-0.5-0.1-0.7-0.3c-0.5-0.4-0.6-1.1-0.1-1.6l36.5-44.5c0.4-0.5,1.1-0.6,1.6-0.2
		s0.6,1.1,0.1,1.6l-36.5,44.5C235.6,104.5,235.3,104.7,235,104.7z"/>
	<path class="st6" d="M229.6,57.3c-0.6,0-1.1-0.5-1.1-1.1s0.5-1.2,1.1-1.2l39.4-2.3c0.6,0,1.2,0.5,1.2,1.1s-0.5,1.2-1.1,1.2
		L229.6,57.3L229.6,57.3z"/>
	<path class="st14" d="M311.1,159.4c3.5,0,6.4-2.9,6.4-6.4s-2.9-6.4-6.4-6.4s-6.4,2.9-6.4,6.4C304.8,156.6,307.6,159.4,311.1,159.4z
		"/>
	<path class="st1" d="M311.1,157c-0.3,0-0.6-0.3-0.6-0.6v-6.3c0-0.3,0.3-0.6,0.6-0.6c0.3,0,0.6,0.3,0.6,0.6v6.3
		C311.7,156.8,311.5,157,311.1,157z"/>
	<path class="st1" d="M314.3,153.9H308c-0.3,0-0.6-0.3-0.6-0.6s0.3-0.6,0.6-0.6h6.3c0.3,0,0.6,0.3,0.6,0.6S314.6,153.9,314.3,153.9z
		"/>
	<path class="st10" d="M100.3,152.7c3.3-1.4,4.8-5.1,3.5-8.4c-1.3-3.3-5.1-4.8-8.3-3.5c-3.3,1.4-4.8,5.1-3.5,8.4S97,154,100.3,152.7
		z"/>
	<path class="st1" d="M97.8,150.8c-0.3,0-0.6-0.3-0.6-0.6v-6.3c0-0.3,0.3-0.6,0.6-0.6s0.6,0.3,0.6,0.6v6.3
		C98.4,150.5,98.1,150.8,97.8,150.8z"/>
	<path class="st1" d="M100.9,147.6h-6.3c-0.3,0-0.6-0.3-0.6-0.6s0.3-0.6,0.6-0.6h6.3c0.3,0,0.6,0.3,0.6,0.6
		C101.5,147.4,101.2,147.6,100.9,147.6z"/>
	<path class="st5" d="M181.3,100.8c2.5,0,4.6-2.1,4.6-4.6s-2-4.6-4.6-4.6c-2.5,0-4.6,2.1-4.6,4.6S178.7,100.8,181.3,100.8z"/>
	<path class="st1" d="M183.5,97H179c-0.3,0-0.6-0.3-0.6-0.6s0.3-0.6,0.6-0.6h4.5c0.3,0,0.6,0.3,0.6,0.6
		C184.1,96.8,183.8,97,183.5,97z"/>
	<path class="st3" d="M135.6,99.7h-1.5c-2.5,0-4.5-2-4.5-4.5v-2.3h10.5v2.3C140.1,97.7,138.1,99.7,135.6,99.7z"/>
	<path class="st6" d="M141,92.8h-12.4c-0.7,0-1.2-0.5-1.2-1.2v-0.1c0-0.7,0.5-1.2,1.2-1.2H141c0.7,0,1.2,0.5,1.2,1.2v0.2
		C142.2,92.2,141.7,92.8,141,92.8z"/>
	<path class="st6" d="M141,95.2h-12.4c-0.7,0-1.2-0.5-1.2-1.2v-0.2c0-0.7,0.5-1.2,1.2-1.2H141c0.7,0,1.2,0.5,1.2,1.2V94
		C142.2,94.7,141.7,95.2,141,95.2z"/>
	<path class="st6" d="M141,97.6h-12.4c-0.7,0-1.2-0.5-1.2-1.2v-0.2c0-0.7,0.5-1.2,1.2-1.2H141c0.7,0,1.2,0.5,1.2,1.2v0.2
		C142.2,97.1,141.7,97.6,141,97.6z"/>
	<path class="st7" d="M149.3,65.2c0,3.7-1.4,7-3.6,9.5c-1.2,1.6-4.8,6.8-4.8,15.5h-12.2c0-8.6-3.6-13.9-4.8-15.5
		c-1.2-1.4-2.1-2.9-2.7-4.7c-0.5-1.5-0.8-3.2-0.8-4.9c0-8,6.5-14.5,14.4-14.5c3.3,0,6.4,1.1,8.9,3C147.1,56.5,149.3,60.6,149.3,65.2
		z"/>
	<path class="st15" d="M144.5,58.7c0,8-6.5,14.5-14.4,14.5c-3.4,0-6.5-1.2-8.9-3.1c-0.5-1.5-0.8-3.2-0.8-4.9c0-8,6.5-14.5,14.4-14.5
		c3.3,0,6.4,1.1,8.9,3C144.2,55.3,144.5,57,144.5,58.7z"/>
	<g class="st16">
		<g class="st16">
			<g class="st16">
				<g class="st16">
					<g class="st16">
						<g class="st16">
							<path class="st17" d="M130.3,69.8c-1.5,0-2.6-1.2-2.6-2.6c0-1.5,1.2-2.6,2.6-2.6c1.5,0,2.6,1.2,2.6,2.6h-0.5
								c0-1.2-1-2.2-2.2-2.2s-2.2,1-2.2,2.2s1,2.2,2.2,2.2L130.3,69.8L130.3,69.8z"/>
						</g>
					</g>
				</g>
			</g>
			<g class="st16">
				<g class="st16">
					<g class="st16">
						<g class="st16">
							<path class="st17" d="M132.9,69.8h-2.7v-0.5h2.2v-2.2h0.5V69.8z"/>
						</g>
					</g>
				</g>
			</g>
		</g>
		<g class="st16">
			<g class="st16">
				<g class="st16">
					<g class="st16">
						<g class="st16">
							<path class="st17" d="M140.1,69.8v-0.5c1.7,0,3.1-1.4,3.1-3.1s-1.4-3.1-3.1-3.1c-1.7,0-3.1,1.4-3.1,3.1h-0.5
								c0-2,1.6-3.5,3.5-3.5s3.5,1.6,3.5,3.5C143.6,68.2,142.1,69.8,140.1,69.8z"/>
						</g>
					</g>
				</g>
			</g>
			<g class="st16">
				<g class="st16">
					<g class="st16">
						<g class="st16">
							<path class="st17" d="M140.1,69.8h-3.5v-3.5h0.4v3.1h3.1V69.8z"/>
						</g>
					</g>
				</g>
			</g>
		</g>
		<g class="st16">
			<g class="st16">
				<g class="st16">
					<g class="st16">
						<path class="st17" d="M132.9,69.6h-0.5v20.7h0.5V69.6z"/>
					</g>
				</g>
			</g>
		</g>
		<g class="st16">
			<g class="st16">
				<g class="st16">
					<g class="st16">
						<path class="st17" d="M137,90.2h-0.4V69.8h-3.9v-0.5h4.3L137,90.2L137,90.2z"/>
					</g>
				</g>
			</g>
		</g>
	</g>
	<path class="st10" d="M209.7,143.9c-2.1,5.9-9,8.8-9,8.8s-3.5-6.6-1.4-12.5s9-8.8,9-8.8S211.8,138,209.7,143.9z"/>
	<path class="st3" d="M195.2,138.9c-0.3,0.5-0.2,1,0.2,1.3c1.4,1.1,4.1,4.1,5.1,11.9c1.4,10.5,0.9-0.1,0.9-0.1s0.1-9.2-4.7-13.4
		C196.2,138.3,195.6,138.4,195.2,138.9z"/>
	<path class="st5" d="M199.2,152.3c-2.7-1.1-6.4-5.6-11.9-4.4c-7.8,1.8-8.1,11.6-4.4,22.7c3.7,11.1,4.2,16,9.5,17.5s7.6-2.3,8.7-2.3
		c1.1,0,2.9,2.3,8.7,2.3s9.8-6.8,10.5-12.2c0.8-5.3,5.7-18.4,0.9-26.2s-12.8-5.3-16.4-0.8C201.1,153.7,199.2,152.3,199.2,152.3z"/>
	<g class="st18">
		<g class="st18">
			<g class="st18">
				<g class="st18">
					<path class="st19" d="M192.2,156.6c-2.2-3.4-6.9,1.5-5.6,6.2c1.4,4.7,5.3,14.6,6.7,13.2C194.7,174.6,194.3,159.9,192.2,156.6z"
						/>
				</g>
			</g>
		</g>
	</g>
	<g class="st18">
		<g class="st18">
			<g class="st18">
				<g class="st18">
					<path class="st19" d="M212.7,150.2c5.5-0.5,7.8,4.2,7.8,6c0,1.7-2.5,2.2-6.8-0.8C209.3,152.5,208.1,150.6,212.7,150.2z"/>
				</g>
			</g>
		</g>
	</g>
	<path class="st7" d="M242.4,111c4.1-4.1,4.1-10.8,0-15c-4.1-4.1-10.8-4.1-14.9,0c-4.1,4.1-4.1,10.8,0,15
		C231.6,115.1,238.3,115.1,242.4,111z"/>
	<path class="st4" d="M220.1,21.5c5.8,0,10.5-4.7,10.5-10.6c0-5.8-4.7-10.6-10.5-10.6S209.6,5,209.6,10.9
		C209.5,16.8,214.2,21.5,220.1,21.5z"/>
	<path class="st20" d="M271.5,16.9c4.5,0,8.1-3.6,8.1-8.1s-3.6-8.1-8.1-8.1s-8.1,3.6-8.1,8.1C263.4,13.2,267.1,16.9,271.5,16.9z"/>
	<path class="st20" d="M229.6,64.3c4.5,0,8.1-3.6,8.1-8.1s-3.6-8.1-8.1-8.1s-8.1,3.6-8.1,8.1C221.5,60.6,225.1,64.3,229.6,64.3z"/>
	<path class="st4" d="M294.8,100.7c5.8,0,10.5-4.7,10.5-10.6c0-5.8-4.7-10.6-10.5-10.6s-10.5,4.7-10.5,10.6
		C284.2,95.9,288.9,100.7,294.8,100.7z"/>
	<path class="st11" d="M276.7,63.5c5.8,0,10.5-4.7,10.5-10.6c0-5.8-4.7-10.6-10.5-10.6s-10.5,4.7-10.5,10.6
		C266.1,58.8,270.9,63.5,276.7,63.5z"/>
	<path class="st6" d="M313.1,65.5c-0.1,0-0.3,0-0.4-0.1L279.3,54c-0.6-0.2-0.9-0.9-0.7-1.4c0.2-0.6,0.9-0.9,1.4-0.7l33.4,11.4
		c0.6,0.2,0.9,0.9,0.7,1.4C314,65.1,313.5,65.5,313.1,65.5z"/>
	<path class="st7" d="M315.1,69.2c2.7-1.1,4-4.2,2.9-6.9c-1.1-2.7-4.2-4-6.9-2.9c-2.7,1.1-4,4.2-2.9,6.9
		C309.3,69,312.4,70.3,315.1,69.2z"/>
	<path class="st11" d="M244.8,113.2c-1.9,0.4-3.2,1.6-3.2,1.6s4.3,15.5,5.6,17.9s13.2,12.4,13.8,15.6c0.7,3.2,0.8,11,2.7,11.9
		c2,0.9,3.9,1.1,6.8,1.3s6.1-0.5,9.8-1.1c3.7-0.6,4.3-1.6,4.1-5.8c-0.2-4.2,0.3-11.8,1.1-13.9c0.9-2.1,6.2-12.8,7-15.8
		c0.9-2.9,2.1-20.6,2.2-20.9c0.1-0.3-3.1-0.6-3.1-0.6s-4.5,18.6-5.5,20.4c-0.8,1.4-8,12.9-8.7,13.3c-0.8,0.4-2.6,2.9-7.1,2.9
		c-4.5-0.1-5.1-0.7-6.3-1.7c-1.3-1-10.1-6.7-11.2-8.8C251.6,127.4,244.8,113.2,244.8,113.2z"/>
	<path class="st3" d="M266.1,166.5c3.7,0.1,12.2,1.6,16.2,0c0,0,4.1,1.6,7,5.6s9.7,13.4,14.5,15.7s5,4.3,2.9,6.4
		c-2.1,2.1-5.7,6.7-11.1,7s-10.5-2-14.6,1.6s-8.1,7.8-14.8,6.5c-6.7-1.3-9.4-3.1-13.5-3.1s-0.9-2.3,1.8-8
		C257.2,192.5,261.2,166.4,266.1,166.5z"/>
	<g class="st18">
		<g class="st18">
			<g class="st18">
				<g class="st18">
					<path class="st19" d="M237.1,100c0.3-1.8-0.9-3.5-2.7-3.8s-3.5,0.9-3.7,2.7c-0.3,1.8,0.9,3.5,2.7,3.8
						C235.1,103,236.8,101.8,237.1,100z"/>
				</g>
			</g>
		</g>
	</g>
	<g class="st18">
		<g class="st18">
			<g class="st18">
				<g class="st18">
					<path class="st19" d="M292.9,89.3c1.8,0,3.3-1.5,3.3-3.3s-1.5-3.3-3.3-3.3s-3.3,1.5-3.3,3.3C289.7,87.8,291.1,89.3,292.9,89.3z
						"/>
				</g>
			</g>
		</g>
	</g>
	<g class="st18">
		<g class="st18">
			<g class="st18">
				<g class="st18">
					<path class="st19" d="M222.1,7.1c0.3-1.8-0.9-3.5-2.7-3.8s-3.5,0.9-3.7,2.7c-0.3,1.8,0.9,3.5,2.7,3.8S221.9,8.9,222.1,7.1z"/>
				</g>
			</g>
		</g>
	</g>
	<g class="st18">
		<g class="st18">
			<g class="st18">
				<g class="st18">
					<path class="st19" d="M312,64.3c1,0,1.7-0.8,1.7-1.7c0-1-0.8-1.7-1.7-1.7c-1,0-1.7,0.8-1.7,1.7S311,64.3,312,64.3z"/>
				</g>
			</g>
		</g>
	</g>
	<g class="st18">
		<g class="st18">
			<g class="st18">
				<g class="st18">
					<path class="st19" d="M276.6,50.3c1.3-1.3,1.3-3.4,0-4.6c-1.3-1.3-3.3-1.3-4.6,0c-1.3,1.3-1.3,3.4,0,4.6
						C273.2,51.6,275.3,51.6,276.6,50.3z"/>
				</g>
			</g>
		</g>
	</g>
	<g class="st18">
		<g class="st18">
			<g class="st18">
				<g class="st18">
					<path class="st19" d="M262.7,32.9c0,1.2-0.9,2.1-2.1,2.1s-2.1-0.9-2.1-2.1s0.9-2.1,2.1-2.1S262.7,31.7,262.7,32.9z"/>
				</g>
			</g>
		</g>
	</g>
	<g class="st18">
		<g class="st18">
			<g class="st18">
				<g class="st18">
					<path class="st19" d="M226.3,56.2c1.2,0,2.1-1,2.1-2.1s-1-2.1-2.1-2.1c-1.2,0-2.1,1-2.1,2.1S225.1,56.2,226.3,56.2z"/>
				</g>
			</g>
		</g>
	</g>
	<g class="st18">
		<g class="st18">
			<g class="st18">
				<g class="st18">
					<path class="st19" d="M269.1,8.7c1.2,0,2.1-1,2.1-2.1s-1-2.1-2.1-2.1c-1.2,0-2.1,1-2.1,2.1S267.9,8.7,269.1,8.7z"/>
				</g>
			</g>
		</g>
	</g>
	<path class="st21" d="M127.1,120.7c-2.2,0-2.5,1.5-1.8,3.5c0.5,1.3-1.8,2-1.5,4.1c0.3,2,3.4,3.5,5.2,3.2c1.8-0.4,3.9,2,6.3,2.8
		c2.4,0.8,5.6,2.4,7.1,0.8c1.5-1.6,2.9-0.6,3.5-3.1c0.6-2.7-1.5-2.5-1.5-4.7c0-2.1,0.9-2.7,0-4.6c-0.8-1.7-3.3,0-3.5-1.3
		c-0.1-1.7-1.5-3.6-3.2-3.2c-1.6,0.5-3.2,1-3.9,0c-0.9-1.1-2.9-1.2-3.6,0.3C129.8,119.5,128.7,120.7,127.1,120.7z"/>
	<path class="st13" d="M129.4,240l-12.6,2.9c-0.4,0.1-0.8-0.3-0.6-0.7c0.3-1,1.3-2.6,3.9-3.3c1.4-0.4,2.3-1.2,2.8-2.3
		c0.7-1.4,0.6-3.2,0.1-4.8c-0.9-2.6,4.5-0.3,4.5-0.3l1.2,5L129.4,240z"/>
	<path class="st3" d="M129.4,240l-12.6,2.9c-0.4,0.1-0.8-0.3-0.6-0.7c0.3-1,1.3-2.6,3.9-3.3c1.4-0.4,2.3-1.2,2.8-2.3
		c0.7,0.1,1.4,0.4,2.4,1c0.8,0.5,2.2-0.2,3.4-1.1L129.4,240z"/>
	<path class="st13" d="M95.9,234.7L84,229.6c-0.4-0.2-0.5-0.7-0.1-0.9c0.9-0.6,2.5-1.3,5.1-0.4c1.4,0.5,2.6,0.3,3.6-0.2
		c1.4-0.8,2.4-2.3,2.9-3.8c0.8-2.6,3.9,2.4,3.9,2.4l-2,4.8L95.9,234.7z"/>
	<path class="st3" d="M95.9,234.7L84,229.6c-0.4-0.2-0.5-0.7-0.1-0.9c0.9-0.6,2.5-1.3,5.1-0.4c1.4,0.5,2.6,0.3,3.6-0.2
		c0.5,0.5,0.9,1.2,1.4,2.3c0.4,0.9,2,1.1,3.3,1.1L95.9,234.7z"/>
	<path class="st22" d="M140.4,176.5c0,0-24.2,12-24.7,16.7c-0.5,4.8,4.8,40,4.8,40l9.5-0.9c0,0-1.2-32.4-0.1-34.2
		c1.1-1.8,21.4-7.6,26-9.1s7.2-4.4,7.2-6.2s-15.8-7.2-15.8-7.2L140.4,176.5z"/>
	<path class="st22" d="M135.3,176.7c0,0-23,8.8-26.9,14.7s-14.9,33.3-14.9,33.3l7.2,3.7c0,0,18-26.4,18.5-26.8
		c0.5-0.4,17.6-15.1,17.6-15.1l5.5-10.8L135.3,176.7z"/>
	<path class="st6" d="M137.8,141.3c-5.3,2.6-9.2,3.5-11.6,8.8c-2.3,5.2-2.2,27-1.1,30c1.1,2.9,2.3,2,2.6,2c0.3,0,5.8-7.8,5.8-7.8
		s-1.2-11.2-1-12.4c0.2-1.4,3,12.8,2.3,15c0,0,6.8-0.9,12.2,0.3s14.8,6.4,15.9,6.9c1,0.4,1.7,0.6,2.1-3c0.4-3.6-1.3-30.3-5.3-36.8
		C155.8,137.7,143.1,138.7,137.8,141.3z"/>
	<path class="st13" d="M133.6,137.9l1.8,6c0.6,1.9,2.5,3,4.4,2.5c0.3-0.1,0.7-0.2,1.1-0.4c0.9-0.4,1.6-0.9,2.1-1.4
		c1.1-1,1.5-2.6,0.9-4l-3.4-8.6l-0.3,0.3L133.6,137.9z"/>
	<path class="st23" d="M133.6,137.9l1.4,4.6c4.1-2.3,5-8.2,5.2-10.2L133.6,137.9z"/>
	<path class="st13" d="M132.6,140.2c4.8,0.5,7.1-6.8,7.1-6.8s2-1.1,1-3.5c-0.9-2.3-2,2-2.8-0.2c-0.9-2.1-1.3-2.7-2.6-2.4
		c-0.1,0-0.3,0-0.5,0c0,0,0,0-0.1,0c-1.1,0-3.2-0.5-5-1.3c-1.3-0.5-2.7,0.5-2.5,1.9c0,0,0,0,0,0.1
		C127.8,132.7,129.2,139.9,132.6,140.2z"/>
	<path class="st3" d="M120.8,167.4l15.2-1.5l6.5,18.4l-15.3,1.4L120.8,167.4z"/>
	<path class="st13" d="M130.7,177.5c0,0-6.1-0.4-5.9,0.9c0.3,1.3,0.3,3.9,1.5,4.2c1.3,0.3,6.2-1.1,6.2-1.1L130.7,177.5z"/>
	<path class="st6" d="M155.1,142c-3,0.5-4.7,8.1-6.5,16.6s-0.9,8.2-2.1,9c-1.1,0.9-15.8,9.9-15.8,9.9l1.9,4c0,0,15.4-6,20.3-9.6
		c4.9-3.5,8.6-20.6,8.2-23.1C160.8,146.2,159.1,141.4,155.1,142z"/>
	<path class="st1" d="M146,175.5l-0.1-0.3c10.9-2.9,14.8-20,14.8-20.1l0.3,0.1C161,155.3,157,172.5,146,175.5z"/>
	<path class="st1" d="M143.7,169.1l-0.1-0.3c0,0,2.9-1.6,5.7-14.4c2.9-13.1,5.7-12.7,5.8-12.6v0.3v-0.2v0.2c0,0-2.6-0.2-5.5,12.4
		C146.6,167.5,143.8,169.1,143.7,169.1z"/>
	<path class="st1" d="M116,200.5c-3-10.8,6.6-14,6.7-14l0.1,0.3c-0.1,0-9.4,3.1-6.5,13.7H116z"/>
	<g class="st18">
		<g class="st18">
			<g class="st18">
				<g class="st18">
					<path class="st19" d="M209.5,37.3c1.8,0,3.3-1.5,3.3-3.3s-1.5-3.3-3.3-3.3s-3.3,1.5-3.3,3.3C206.3,35.8,207.7,37.3,209.5,37.3z
						"/>
				</g>
			</g>
		</g>
	</g>
	<g class="st24">
		<g class="st24">
			<g class="st24">
				<g class="st24">
					<g class="st24">
						<path class="st25" d="M268.3,125.1c-0.3,1.1-1.4,1.7-2.4,1.4c-1.1-0.3-1.7-1.4-1.4-2.4c0.3-1.1,1.4-1.7,2.4-1.4
							C268,122.9,268.6,124,268.3,125.1z"/>
					</g>
				</g>
			</g>
		</g>
		<g class="st24">
			<g class="st24">
				<g class="st24">
					<g class="st24">
						<path class="st25" d="M273.5,126.5c-0.3,1.1-1.4,1.7-2.4,1.4c-1.1-0.3-1.7-1.4-1.4-2.4c0.3-1.1,1.4-1.7,2.4-1.4
							C273.2,124.3,273.8,125.4,273.5,126.5z"/>
					</g>
				</g>
			</g>
		</g>
	</g>
	<path class="st26" d="M265.4,126.3c-0.8-0.5-1.2-1.4-1-2.4c0.2-0.5,0.5-1,1-1.3s1.1-0.3,1.6-0.2c0.1,0,0.3,0.1,0.5,0.2
		c0.8,0.5,1.2,1.4,1,2.4c-0.3,1.1-1.5,1.8-2.6,1.5C265.7,126.5,265.5,126.4,265.4,126.3z M267.3,122.9c-0.2-0.1-0.3-0.2-0.4-0.2
		c-0.5-0.1-1-0.1-1.4,0.2s-0.8,0.6-0.9,1.1c-0.2,0.8,0.2,1.7,0.9,2.1c0.2,0.1,0.3,0.2,0.4,0.2c1,0.3,2-0.3,2.3-1.3
		C268.4,124.2,268.1,123.3,267.3,122.9z"/>
	<path class="st26" d="M270.6,127.8c-0.8-0.5-1.2-1.4-1-2.4c0.3-1.1,1.5-1.8,2.6-1.5c0.2,0,0.3,0.1,0.5,0.2c0.8,0.5,1.2,1.4,1,2.4
		c-0.2,0.5-0.5,1-1,1.3s-1.1,0.3-1.6,0.2C270.9,127.9,270.8,127.8,270.6,127.8z M272.6,124.3c-0.1-0.1-0.3-0.2-0.4-0.2
		c-1-0.3-2,0.3-2.3,1.3c-0.2,0.8,0.2,1.7,0.9,2.1c0.1,0.1,0.3,0.2,0.4,0.2c0.5,0.1,1,0.1,1.4-0.2s0.8-0.6,0.9-1.1
		C273.6,125.6,273.3,124.8,272.6,124.3z"/>
	<path class="st26" d="M268.4,125.1l-0.1-0.2c0,0,0.5-0.3,0.9-0.2c0.3,0.1,0.5,0.3,0.7,0.6l-0.2,0.1c-0.2-0.3-0.3-0.4-0.5-0.5
		C268.7,124.9,268.4,125.1,268.4,125.1z"/>
	<path class="st23" d="M267.3,133.3c0,0,2.4,0,4.2-1.2c1.8-1.3,0.2,2.4-4.1,2.4L267.3,133.3z"/>
	<path class="st6" d="M75.3,128.6c-2.2,0-4.3-2.9-5.7-8.2c-1.4-5.1-2.3-11.9-2.3-19.1c0-7.2,0.8-14,2.3-19.1
		c1.5-5.3,3.5-8.2,5.7-8.2s4.3,2.9,5.7,8.2c1.4,5.1,2.3,11.9,2.3,19.1c0,5.3-0.4,10.4-1.2,14.8c0,0.2-0.3,0.4-0.5,0.3
		c-0.2,0-0.4-0.3-0.3-0.5c0.8-4.4,1.2-9.4,1.2-14.6c0-7.2-0.8-13.8-2.2-18.9c-1.4-4.8-3.2-7.6-5-7.6s-3.6,2.7-5,7.6
		c-1.4,5-2.2,11.7-2.2,18.9s0.8,13.8,2.2,18.9c1.4,4.8,3.2,7.6,5,7.6c1.6,0,3.1-2.1,4.4-5.8c0.1-0.2,0.3-0.3,0.5-0.3
		c0.2,0.1,0.3,0.3,0.3,0.5C79.1,126.5,77.3,128.6,75.3,128.6z"/>
	<path class="st6" d="M56.2,116.8c-2.2,0-3.7-0.6-4.4-1.7c-1.1-1.9,0.3-5.2,4.1-9.1c3.7-3.8,9.1-7.9,15.3-11.6
		c4.5-2.6,9.1-4.8,13.2-6.3c0.2-0.1,0.5,0,0.5,0.2c0.1,0.2,0,0.5-0.2,0.5c-4.1,1.5-8.7,3.7-13.1,6.3c-6.2,3.6-11.5,7.7-15.2,11.4
		c-3.5,3.6-4.9,6.6-4,8.1c0.9,1.6,4.2,1.7,9,0.5c5.1-1.3,11.2-4,17.4-7.6S90.3,99.8,94,96.1c3.5-3.6,4.9-6.6,4-8.1
		c-0.8-1.3-3.2-1.7-7-1c-0.2,0-0.4-0.1-0.5-0.3c0-0.2,0.1-0.4,0.3-0.5c4.1-0.8,6.8-0.3,7.8,1.4c1.1,1.9-0.3,5.2-4.1,9.1
		c-3.7,3.8-9.1,7.9-15.3,11.6c-6.2,3.7-12.5,6.4-17.6,7.7C59.6,116.6,57.7,116.8,56.2,116.8z"/>
	<path class="st6" d="M94.5,116.3c-1.5,0-3.2-0.2-5.3-0.7c-5.2-1.2-11.5-3.8-17.8-7.2c-4.8-2.7-9.3-5.6-12.8-8.6
		c-0.1-0.2-0.2-0.4,0-0.6c0.1-0.2,0.4-0.2,0.6,0c3.5,2.9,7.9,5.9,12.7,8.5c6.2,3.4,12.5,6,17.6,7.2c4.9,1.1,8.1,0.9,9-0.8
		c0.9-1.6-0.7-4.5-4.2-8c-3.7-3.7-9.2-7.6-15.5-11c-6.2-3.4-12.5-6-17.6-7.2c-4.9-1.1-8.1-0.9-9,0.8c-0.8,1.4,0.3,3.7,2.9,6.7
		c0.1,0.2,0.1,0.4,0,0.6c-0.1,0.2-0.4,0.2-0.6,0c-2.9-3.2-4-5.9-3-7.6c1.1-2,4.6-2.4,9.9-1.1c5.2,1.2,11.5,3.8,17.8,7.2
		c6.3,3.5,11.9,7.4,15.6,11.1c3.9,3.8,5.4,7,4.4,9C98.5,115.7,96.9,116.3,94.5,116.3z"/>
	<path class="st4" d="M75.3,108.2c-1.5,0-2.7-1.2-2.7-2.7s1.2-2.7,2.7-2.7s2.7,1.2,2.7,2.7S76.8,108.2,75.3,108.2z M75.3,102.9
		c-1.4,0-2.6,1.2-2.6,2.6c0,1.4,1.2,2.6,2.6,2.6s2.6-1.2,2.6-2.6S76.8,102.9,75.3,102.9z"/>
	<path class="st7" d="M81.5,100c0,1.5-1.2,2.6-2.6,2.6c-1.5,0-2.6-1.2-2.6-2.6c0-1.5,1.2-2.6,2.6-2.6C80.4,97.4,81.5,98.5,81.5,100z
		"/>
	<path class="st5" d="M78.2,97.2c0,1.5-1.2,2.6-2.6,2.6S73,98.6,73,97.2s1.2-2.6,2.6-2.6S78.2,95.7,78.2,97.2z"/>
	<path class="st7" d="M74.2,100c0,1.5-1.2,2.6-2.6,2.6S69,101.4,69,100c0-1.5,1.2-2.6,2.6-2.6C73,97.4,74.2,98.5,74.2,100z"/>
	<path class="st5" d="M74.4,103.7c0,1.5-1.2,2.6-2.6,2.6c-1.5,0-2.6-1.2-2.6-2.6s1.2-2.6,2.6-2.6C73.2,101.1,74.4,102.3,74.4,103.7z
		"/>
	<path class="st7" d="M77.9,105.4c0,1.5-1.2,2.6-2.6,2.6c-1.5,0-2.6-1.2-2.6-2.6c0-1.5,1.2-2.6,2.6-2.6
		C76.8,102.9,77.9,104,77.9,105.4z"/>
	<path class="st5" d="M81.8,103.7c0,1.5-1.2,2.6-2.6,2.6c-1.5,0-2.6-1.2-2.6-2.6s1.2-2.6,2.6-2.6C80.6,101.1,81.8,102.3,81.8,103.7z
		"/>
	<path class="st7" d="M87.7,89.3c1,0,1.8-0.8,1.8-1.8s-0.8-1.8-1.8-1.8s-1.8,0.8-1.8,1.8S86.7,89.3,87.7,89.3z"/>
	<path class="st7" d="M80.9,121c1,0,1.8-0.8,1.8-1.8s-0.8-1.8-1.8-1.8s-1.8,0.8-1.8,1.8C79.2,120.2,80,121,80.9,121z"/>
	<path class="st7" d="M58.9,97.4c0,1-0.8,1.8-1.8,1.8s-1.8-0.8-1.8-1.8s0.8-1.8,1.8-1.8S58.9,96.4,58.9,97.4z"/>
	<path class="st6" d="M78,100.9c0,1.5-1.2,2.6-2.6,2.6s-2.6-1.2-2.6-2.6c0-1.5,1.2-2.6,2.6-2.6S78,99.5,78,100.9z"/>
	<g class="st27">
		<g class="st27">
			<g class="st27">
				<path class="st28" d="M76.9,100c0,0.5-0.5,1-1,1s-1-0.5-1-1s0.5-1,1-1C76.5,99,76.9,99.4,76.9,100z"/>
			</g>
		</g>
	</g>
	<g class="st27">
		<g class="st27">
			<g class="st27">
				<path class="st28" d="M75.9,97.5c0.5,0,1-0.4,1-1c0-0.5-0.4-1-1-1c-0.5,0-1,0.4-1,1S75.4,97.5,75.9,97.5z"/>
			</g>
		</g>
	</g>
	<g class="st27">
		<g class="st27">
			<g class="st27">
				<path class="st28" d="M75.9,106.4c0.5,0,1-0.4,1-1c0-0.5-0.4-1-1-1c-0.5,0-1,0.4-1,1C74.9,106,75.4,106.4,75.9,106.4z"/>
			</g>
		</g>
	</g>
	<g>
		<g class="st27">
			<g class="st27">
				<path class="st29" d="M79.5,100.1c0.5,0,1-0.4,1-1c0-0.5-0.4-1-1-1c-0.5,0-1,0.4-1,1C78.5,99.7,78.9,100.1,79.5,100.1z"/>
			</g>
		</g>
	</g>
	<g class="st27">
		<g class="st27">
			<g class="st27">
				<path class="st28" d="M71.8,100.1c0.5,0,1-0.4,1-1c0-0.5-0.4-1-1-1c-0.5,0-1,0.4-1,1C70.8,99.7,71.3,100.1,71.8,100.1z"/>
			</g>
		</g>
	</g>
	<g>
		<g class="st27">
			<g class="st27">
				<path class="st29" d="M82,118.9c0,0.4-0.3,0.7-0.7,0.7s-0.7-0.3-0.7-0.7s0.3-0.7,0.7-0.7S82,118.5,82,118.9z"/>
			</g>
		</g>
	</g>
	<g class="st27">
		<g class="st27">
			<g class="st27">
				<path class="st28" d="M88.7,87c0,0.4-0.3,0.7-0.7,0.7c-0.4,0-0.7-0.3-0.7-0.7c0-0.4,0.3-0.7,0.7-0.7S88.7,86.6,88.7,87z"/>
			</g>
		</g>
	</g>
	<g>
		<g class="st27">
			<g class="st27">
				<path class="st29" d="M57.8,97.2c0,0.4-0.3,0.7-0.7,0.7s-0.7-0.3-0.7-0.7s0.3-0.7,0.7-0.7C57.5,96.5,57.8,96.8,57.8,97.2z"/>
			</g>
		</g>
	</g>
	<g class="st27">
		<g class="st27">
			<g class="st27">
				<path class="st28" d="M71.8,103.8c0.5,0,1-0.4,1-1c0-0.5-0.4-1-1-1c-0.5,0-1,0.4-1,1S71.3,103.8,71.8,103.8z"/>
			</g>
		</g>
	</g>
	<path class="st3" d="M196.2,54.2v0.3h-1.4c0-0.1,0-0.1,0-0.2s0.1-0.2,0.2-0.3c0.1-0.1,0.2-0.2,0.3-0.3c0.2-0.2,0.4-0.3,0.5-0.5
		c0.1-0.1,0.1-0.2,0.1-0.3c0-0.1,0-0.2-0.1-0.3c-0.1-0.1-0.2-0.1-0.3-0.1s-0.2,0-0.3,0.1s-0.1,0.2-0.1,0.3h-0.3
		c0-0.2,0.1-0.3,0.2-0.5c0.1-0.1,0.3-0.2,0.5-0.2s0.4,0.1,0.5,0.2s0.2,0.3,0.2,0.4s0,0.2,0,0.3c0,0.1-0.1,0.2-0.2,0.3
		c-0.1,0.1-0.2,0.2-0.4,0.4c-0.2,0.2-0.3,0.2-0.3,0.3c0,0-0.1,0.1-0.1,0.2h1L196.2,54.2L196.2,54.2z"/>
	<path class="st3" d="M171.8,58.5v-5.1h3.6V54h-3v1.5h2.8v0.6h-2.8v1.7h3.1v0.6L171.8,58.5L171.8,58.5L171.8,58.5z"/>
	<path class="st3" d="M181.7,55.5h-3.3v-0.6h3.3V55.5z M181.7,57h-3.3v-0.6h3.3V57z"/>
	<path class="st3" d="M184.5,58.5v-3.7h0.6v0.5c0.1-0.2,0.3-0.3,0.5-0.5c0.2-0.1,0.4-0.2,0.6-0.2c0.3,0,0.5,0.1,0.7,0.2
		s0.3,0.3,0.4,0.5c0.3-0.4,0.7-0.6,1.1-0.6c0.4,0,0.6,0.1,0.8,0.3c0.2,0.2,0.3,0.5,0.3,0.9v2.5h-0.6v-2.3c0-0.3,0-0.4-0.1-0.5
		c0-0.1-0.1-0.2-0.2-0.3c-0.1-0.1-0.2-0.1-0.4-0.1c-0.3,0-0.5,0.1-0.6,0.3c-0.2,0.2-0.3,0.5-0.3,0.8v2.1h-0.6v-2.5
		c0-0.3,0-0.5-0.2-0.6c-0.1-0.2-0.3-0.2-0.5-0.2s-0.3,0-0.5,0.2c-0.1,0.1-0.3,0.2-0.3,0.4c-0.1,0.2-0.1,0.5-0.1,0.8v1.9L184.5,58.5
		L184.5,58.5z"/>
	<path class="st3" d="M193.3,57.1l0.6,0.1c-0.1,0.4-0.2,0.8-0.5,1s-0.6,0.4-1,0.4c-0.5,0-0.9-0.2-1.2-0.5s-0.5-0.8-0.5-1.4
		c0-0.4,0.1-0.8,0.2-1.1c0.2-0.3,0.3-0.5,0.6-0.7s0.6-0.2,0.9-0.2c0.4,0,0.7,0.1,1,0.3c0.3,0.2,0.4,0.5,0.5,0.9l-0.6,0.1
		c-0.1-0.3-0.1-0.4-0.3-0.6c-0.1-0.1-0.3-0.2-0.5-0.2c-0.3,0-0.6,0.1-0.8,0.3c-0.2,0.2-0.3,0.6-0.3,1.1s0.1,0.9,0.3,1.1
		s0.5,0.3,0.8,0.3c0.2,0,0.5-0.1,0.6-0.2C193.1,57.7,193.2,57.4,193.3,57.1z"/>
	<path class="st3" d="M319.2,131.7v-4.8h3.3v0.6h-2.6v1.5h2.2v0.6h-2.2v2.2h-0.7V131.7z"/>
	<path class="st3" d="M328.2,128.9H325v-0.6h3.2V128.9z M328.2,130.3H325v-0.5h3.2V130.3z"/>
	<path class="st3" d="M330.9,131.7v-3.5h0.5v0.5c0.1-0.2,0.3-0.3,0.4-0.4c0.2-0.1,0.4-0.2,0.6-0.2c0.3,0,0.5,0,0.6,0.2
		c0.2,0.1,0.3,0.3,0.3,0.5c0.3-0.4,0.6-0.6,1.1-0.6c0.3,0,0.6,0.1,0.8,0.3c0.2,0.2,0.3,0.5,0.3,0.9v2.4h-0.6v-2.2
		c0-0.2,0-0.4-0.1-0.5c0-0.1-0.1-0.2-0.2-0.3s-0.2-0.1-0.3-0.1c-0.3,0-0.4,0.1-0.6,0.3c-0.1,0.2-0.2,0.4-0.2,0.8v2h-0.6v-2.3
		c0-0.3,0-0.5-0.1-0.6c-0.1-0.2-0.3-0.2-0.5-0.2c-0.1,0-0.3,0-0.5,0.2c-0.1,0.1-0.2,0.2-0.3,0.4c-0.1,0.2-0.1,0.4-0.1,0.7v1.8
		L330.9,131.7L330.9,131.7z"/>
	<path class="st3" d="M337,132l0.6,0.1c0,0.2,0.1,0.3,0.2,0.4c0.1,0.1,0.3,0.2,0.6,0.2c0.3,0,0.5,0,0.6-0.2c0.1-0.1,0.3-0.3,0.3-0.5
		c0-0.1,0-0.4,0-0.8c-0.3,0.3-0.6,0.5-1,0.5c-0.5,0-0.9-0.2-1.1-0.5c-0.3-0.3-0.4-0.8-0.4-1.2c0-0.3,0.1-0.6,0.2-0.9
		c0.1-0.3,0.3-0.5,0.5-0.6c0.2-0.2,0.5-0.2,0.8-0.2c0.4,0,0.7,0.2,1,0.5v-0.4h0.6v3c0,0.5,0,0.9-0.2,1.2c-0.1,0.2-0.3,0.4-0.5,0.5
		c-0.2,0.2-0.5,0.2-0.9,0.2s-0.7-0.1-1-0.3C337.1,132.7,337,132.4,337,132z M337.5,129.9c0,0.5,0.1,0.8,0.3,1
		c0.2,0.2,0.4,0.3,0.7,0.3c0.3,0,0.5-0.1,0.7-0.3s0.3-0.5,0.3-1c0-0.4-0.1-0.8-0.3-1c-0.2-0.2-0.4-0.3-0.7-0.3
		c-0.3,0-0.5,0.1-0.7,0.3C337.6,129.2,337.5,129.5,337.5,129.9z"/>
	<path class="st3" d="M344.7,157.3v-0.5h2v1.7c-0.3,0.2-0.6,0.4-0.9,0.5s-0.6,0.2-1,0.2s-0.9-0.1-1.2-0.3c-0.4-0.2-0.6-0.5-0.8-0.8
		c-0.2-0.4-0.3-0.8-0.3-1.2c0-0.5,0.1-0.9,0.3-1.2c0.2-0.4,0.5-0.7,0.8-0.9s0.8-0.3,1.2-0.3c0.3,0,0.6,0,0.9,0.2
		c0.3,0.1,0.5,0.3,0.6,0.5s0.3,0.5,0.3,0.8l-0.6,0.2c-0.1-0.2-0.1-0.4-0.3-0.6c-0.1-0.2-0.3-0.2-0.5-0.3s-0.4-0.1-0.6-0.1
		c-0.3,0-0.5,0-0.7,0.1s-0.4,0.2-0.5,0.3c-0.1,0.2-0.2,0.3-0.3,0.5c-0.1,0.3-0.2,0.6-0.2,0.9c0,0.4,0.1,0.8,0.2,1
		c0.1,0.3,0.3,0.5,0.6,0.6c0.3,0.2,0.6,0.2,0.9,0.2s0.5,0,0.8-0.2c0.3-0.1,0.5-0.2,0.6-0.3v-0.8h-1.3V157.3z"/>
	<path class="st3" d="M352.3,156.4h-3v-0.5h3V156.4z M352.3,157.8h-3v-0.5h3V157.8z"/>
	<path class="st3" d="M355,159.1v-4.6h3.1v0.5h-2.5v1.4h2.2v0.5h-2.2v2.1L355,159.1L355,159.1z"/>
	<path class="st3" d="M358.3,159.2l1.4-4.8h0.5l-1.3,4.8H358.3z"/>
	<path class="st3" d="M360.5,159.1v-3.3h0.5v0.5c0.1-0.2,0.2-0.3,0.4-0.4c0.2-0.1,0.4-0.2,0.6-0.2c0.3,0,0.5,0,0.6,0.2
		c0.1,0.1,0.3,0.3,0.3,0.4c0.3-0.4,0.6-0.6,1-0.6c0.3,0,0.6,0.1,0.7,0.3c0.2,0.2,0.3,0.5,0.3,0.9v2.3h-0.5v-2.1c0-0.2,0-0.4,0-0.5
		s-0.1-0.2-0.2-0.2c-0.1-0.1-0.2-0.1-0.3-0.1c-0.2,0-0.4,0.1-0.6,0.2c-0.1,0.2-0.2,0.4-0.2,0.8v2h-0.6v-2.1c0-0.3,0-0.5-0.1-0.6
		s-0.2-0.2-0.5-0.2c-0.1,0-0.3,0-0.5,0.1c-0.1,0.1-0.2,0.2-0.3,0.4c-0.1,0.2-0.1,0.4-0.1,0.7v1.7h-0.5L360.5,159.1L360.5,159.1z"/>
</g>
</svg>
