<?xml version="1.0" encoding="utf-8"?>
<!-- Generator: Adobe Illustrator 24.2.0, SVG Export Plug-In . SVG Version: 6.00 Build 0)  -->
<svg version="1.1" id="Layer_1" xmlns="http://www.w3.org/2000/svg" xmlns:xlink="http://www.w3.org/1999/xlink" x="0px" y="0px"
	 viewBox="0 0 51 50" style="enable-background:new 0 0 51 50;" xml:space="preserve">
<style type="text/css">
	.st0{fill:#00C984;}
	.st1{fill:#AB78FF;}
</style>
<path class="st0" d="M17.6,29.6v9.2c0,0.7-0.5,1.2-1.2,1.2h-4.7c-0.7,0-1.2-0.5-1.2-1.2v-9.2c0-0.7,0.5-1.2,1.2-1.2h4.7
	C17.1,28.5,17.6,29,17.6,29.6z M40.4,17.6l-5.3-7.3c-0.2-0.3-0.7-0.3-1-0.1L34,10.3l-5.3,7.3c-0.2,0.3-0.2,0.7,0.2,0.9
	c0.1,0.1,0.2,0.1,0.4,0.1h1.8v20.2c0,0.7,0.5,1.2,1.2,1.2H37c0.7,0,1.2-0.5,1.2-1.2V18.6H40c0.2,0,0.5-0.3,0.5-0.6
	C40.5,17.8,40.5,17.7,40.4,17.6z"/>
<path class="st1" d="M28,25.4v12.9c0,0.9-0.5,1.6-1.2,1.6h-4.7c-0.7,0-1.2-0.7-1.2-1.6V25.4c0-0.9,0.5-1.6,1.2-1.6h4.7
	C27.5,23.8,28,24.5,28,25.4z"/>
</svg>
