<svg width="32" height="32" viewBox="0 0 32 32" fill="none" xmlns="http://www.w3.org/2000/svg">
<circle cx="16" cy="16" r="16" fill="#9A2929"/>
<g clip-path="url(#clip0)">
<path d="M7.34056 10.2026C6.47798 10.2026 5.81836 10.9117 5.81836 11.839V21.6572C5.81836 22.5845 6.47798 23.2935 7.34056 23.2935H24.5921C25.4547 23.2935 26.1143 22.5845 26.1143 21.6572V19.4754H26.6217C27.1799 19.4754 27.6365 18.9845 27.6365 18.3845V15.1117C27.6365 14.5117 27.1799 14.0208 26.6217 14.0208H26.1143V11.839C26.1143 10.9117 25.4547 10.2026 24.5921 10.2026H7.34056ZM15.459 13.4754H16.4738C16.7782 13.4754 16.9811 13.6935 16.9811 14.0208V15.6572H18.5033C18.8078 15.6572 19.0107 15.8754 19.0107 16.2026V17.2935C19.0107 17.6208 18.8078 17.839 18.5033 17.839H16.9811V19.4754C16.9811 19.8026 16.7782 20.0208 16.4738 20.0208H15.459C15.1545 20.0208 14.9516 19.8026 14.9516 19.4754V17.839H13.4294C13.1249 17.839 12.922 17.6208 12.922 17.2935V16.2026C12.922 15.8754 13.1249 15.6572 13.4294 15.6572H14.9516V14.0208C14.9516 13.6935 15.1545 13.4754 15.459 13.4754Z" fill="white"/>
</g>
<defs>
<clipPath id="clip0">
<rect width="21.8182" height="13.0909" fill="white" transform="translate(5.81836 10.1819)"/>
</clipPath>
</defs>
</svg>
