<?xml version="1.0" encoding="utf-8"?>
<!-- Generator: Adobe Illustrator 24.1.3, SVG Export Plug-In . SVG Version: 6.00 Build 0)  -->
<svg version="1.1" id="Layer_1" xmlns="http://www.w3.org/2000/svg" xmlns:xlink="http://www.w3.org/1999/xlink" x="0px" y="0px"
	 viewBox="0 0 20 20" style="enable-background:new 0 0 20 20;" xml:space="preserve">
<style type="text/css">
	.st0{fill:#FFFFFF;}
	.st1{fill:#E0E0E0;}
	.st2{fill:#C9C9C9;}
	.st3{fill:#A8A8A8;}
	.st4{fill:#E8E8E8;}
	.st5{fill:#D3D3D3;}
	.st6{fill:#BCBCBC;}
	.st7{fill:#FFC71F;}
	.st8{fill:#F0AB00;}
	.st9{fill:#E08F00;}
	.st10{fill:#FFDE38;}
	.st11{fill:#AB4F00;}
	.st12{fill:#F2F2F2;}
	.st13{fill:#BFBFBF;}
	.st14{fill:#3DC2F5;}
	.st15{fill:#47DBFF;}
	.st16{fill:#00A6E8;}
	.st17{fill:#0082C7;}
	.st18{fill:#00367A;}
	.st19{fill:#FFE0B5;}
	.st20{fill:#F7CC9E;}
	.st21{fill:#C1654F;}
	.st22{fill:#FF2900;}
	.st23{fill:#870000;}
	.st24{fill:#FF948C;}
	.st25{fill:#F77A75;}
	.st26{fill:#A31C1A;}
	.st27{fill:#EAB282;}
	.st28{fill:#ED9431;}
	.st29{fill:#FFBA3D;}
	.st30{fill:#D87821;}
	.st31{fill:#C15E14;}
	.st32{fill:#5E1A00;}
	.st33{fill:#FFEDC7;}
	.st34{fill:#912600;}
	.st35{fill:#912900;}
	.st36{fill:#450D00;}
	.st37{fill:#C45229;}
	.st38{fill:#DB946E;}
	.st39{fill:#D67357;}
	.st40{fill:#D68F61;}
	.st41{fill:#E5E5E5;}
	.st42{fill:#666666;}
</style>
<circle class="st0" cx="10" cy="10" r="9.5"/>
<g>
	<g>
		<path class="st1" d="M15.5,15.2c-0.1-0.6-0.5-1.1-1.3-1.1c-0.7,0-7.6,0-8.3,0c-0.9,0-1.2,0.6-1.3,1.1H15.5z"/>
		<path class="st2" d="M13.6,14.1c-0.2,0-0.5,0-0.8,0l-0.3,0.4h0.7C13.5,14.4,13.6,14.1,13.6,14.1z"/>
		<path class="st3" d="M13.2,14.1c-0.2,0-0.5,0-0.8,0l-0.3,0.4h0.5C12.9,14.4,13.1,14.2,13.2,14.1z"/>
		<path class="st2" d="M7.1,14.5l-0.3-0.4c0,0-0.1,0-0.1,0c0,0,0,0.3,0.1,0.4H7.1z"/>
		<path class="st3" d="M6.9,14.1C6.9,14.1,6.8,14.1,6.9,14.1c0,0.1,0,0.3,0.1,0.4h0.2L6.9,14.1z"/>
		<path class="st4" d="M15.5,16.5c0,0.5-0.4,1-1,1H5.5c-0.5,0-1-0.4-1-1v-1.1c0-0.5,0.4-1,1-1h9.1c0.5,0,1,0.4,1,1V16.5z"/>
		<path class="st5" d="M9.5,16.4c0,0,0,0.8,0,1.1H10C10,16.9,9.7,16.5,9.5,16.4z"/>
		<path class="st6" d="M9.5,16.5l0,0.9h0.3C9.9,17,9.7,16.6,9.5,16.5z"/>
		<path class="st5" d="M6.9,14.5c0.4,1,1.7,1.1,2.8,1.2c1.2,0.1,1.8,0.7,1.9,1c0.1,0.3,0,1,0.2,0.8c0.2-0.2,0.2-0.5,0.2-0.7
			c0-0.2,0.4-0.3,0.5-0.7c0.1-0.3,0-0.5,0.1-0.8c0.1-0.2,0.4-0.3,0.5-0.8H6.9z"/>
		<path class="st6" d="M7,14.5C7,14.6,7.2,14.8,7.5,15c0.3,0.1,2,0.2,2.7,0.3c0.3,0,1.5,2.1,1.6,2c0.1-0.2,0.1-0.4,0.1-0.5
			c0-0.1,0-0.1,0.3-0.4c0.3-0.3,0.1-0.6,0.1-0.7c0-0.2,0.3-0.4,0.3-0.6c0-0.2-0.1-0.4,0-0.6H7z"/>
	</g>
	<g>
		<path class="st7" d="M8.1,16.6C8,16.8,8,17.2,8,17.4c0.1,0.3,0.4,0.7,0.8,0.7c0.3,0,0.7-0.4,0.8-0.7c0.1-0.5-0.1-0.9-0.1-0.9
			L8.1,16.6z"/>
		<path class="st8" d="M9.2,17.9c-0.3,0.3-0.4,0.2-0.5,0.2c0.1,0.1,0.2,0.1,0.2,0.1c0.3,0,0.7-0.4,0.8-0.7c0.1-0.5-0.1-0.9-0.1-0.9
			l-1.4,0.1c0,0,0,0.1-0.1,0.1c0.2,0.1,0.7,0.2,1.1,0.1C9.5,16.8,9.5,17.5,9.2,17.9z"/>
		<path class="st9" d="M9.6,17.4c0.1-0.5-0.1-0.9-0.1-0.9l-1.4,0.1c0,0,0,0.1,0,0.1c0.2,0,0.4,0.1,0.8,0.1c0.4,0,0.6-0.1,0.6,0
			c0.1,0.1,0.2,0.5,0,0.8c-0.2,0.3-0.4,0.5-0.6,0.5C9.2,18.2,9.5,17.7,9.6,17.4z"/>
		<path class="st10" d="M8.1,16.7L8.1,16.7C8,16.9,8,17.2,8,17.4c0.1,0.3,0.4,0.7,0.8,0.7C8.1,17.8,8,17.1,8.1,16.7z"/>
		<g>
			<path class="st11" d="M8.9,18.2c-0.5,0-0.8-0.5-0.9-0.7c-0.1-0.2,0-0.6,0.1-0.8l0,0l1.4-0.1l0,0c0,0,0.3,0.4,0.1,0.9
				C9.6,17.8,9.2,18.1,8.9,18.2C8.9,18.2,8.9,18.2,8.9,18.2z M8.1,16.6C8,16.8,8,17.2,8.1,17.4c0.1,0.2,0.4,0.7,0.8,0.7c0,0,0,0,0,0
				c0.3,0,0.7-0.4,0.7-0.7c0.1-0.4-0.1-0.8-0.1-0.8L8.1,16.6z"/>
		</g>
		<path class="st12" d="M8.6,16.7c-0.1,0.2-0.1,0.5,0,0.6c0.1,0.1,0.4,0.1,0.5,0c0.1-0.1-0.1-0.5-0.1-0.5L8.6,16.7z"/>
		<path class="st1" d="M9.2,17.1c0,0.2-0.4,0.2-0.4,0c0-0.1,0-0.2,0-0.2c0.1,0,0.3,0,0.4,0c0-0.1-0.1-0.2-0.1-0.2l-0.4,0
			c0,0-0.2,0.4,0,0.6c0.1,0.1,0.4,0.1,0.5,0C9.2,17.2,9.2,17.1,9.2,17.1z"/>
		<path class="st13" d="M8.8,16.8c0.1,0,0.2,0,0.3,0c0-0.1-0.1-0.1-0.1-0.1l-0.4,0c0,0,0,0.1,0,0.1C8.7,16.8,8.7,16.8,8.8,16.8z"/>
		<g>
			<path class="st11" d="M8.9,17.3c-0.1,0-0.2,0-0.2-0.1c-0.1-0.1-0.1-0.4,0-0.6l0,0l0.4,0l0,0c0,0,0.2,0.4,0.1,0.6
				c0,0-0.1,0.1-0.2,0.1C9,17.3,8.9,17.3,8.9,17.3z M8.7,16.7c-0.1,0.2-0.1,0.5,0,0.5c0.1,0,0.2,0.1,0.3,0c0.1,0,0.1,0,0.1-0.1
				c0.1-0.1,0-0.4-0.1-0.5L8.7,16.7z"/>
		</g>
	</g>
	<g>
		<path class="st7" d="M11.7,16.6c0.1,0.2,0.2,0.6,0.1,0.8c-0.1,0.3-0.4,0.7-0.8,0.7c-0.3,0-0.7-0.4-0.8-0.7
			c-0.1-0.5,0.1-0.9,0.1-0.9L11.7,16.6z"/>
		<path class="st10" d="M10.3,17.4c-0.2-0.3-0.1-0.7,0-0.8l0,0c-0.1,0.1-0.2,0.4-0.1,0.8c0.1,0.4,0.5,0.7,0.8,0.7c0,0,0.1,0,0.1,0
			C10.8,18.1,10.5,17.8,10.3,17.4z"/>
		<path class="st8" d="M11.8,17.4c0.1-0.2,0-0.6-0.1-0.8l-1.4-0.1l0,0.1c0.1,0.1,0.3,0.2,0.9,0.2c0.5,0,0.4,0.5,0.3,0.7
			c-0.1,0.2-0.4,0.5-0.8,0.5c0,0,0.1,0,0.2,0.1C11.4,18.1,11.7,17.7,11.8,17.4z"/>
		<path class="st9" d="M11.8,17.4c0.1-0.2,0-0.6-0.1-0.8l-1.4-0.1l0,0.1c0.1,0.1,0.3,0.2,0.6,0.2c0.4,0,0.7,0,0.7,0.2
			c0.1,0.1,0.1,0.5-0.2,0.8c-0.1,0.2-0.4,0.3-0.5,0.3C11.4,18.1,11.7,17.7,11.8,17.4z"/>
		<g>
			<path class="st11" d="M10.9,18.2C10.9,18.2,10.9,18.2,10.9,18.2c-0.3,0-0.7-0.4-0.8-0.8c-0.1-0.5,0.1-0.9,0.1-0.9l0,0l1.4,0.1
				l0,0c0.1,0.2,0.2,0.6,0.1,0.8C11.7,17.7,11.4,18.2,10.9,18.2z M10.3,16.6c0,0.1-0.2,0.4-0.1,0.8c0.1,0.3,0.4,0.7,0.7,0.7
				c0,0,0,0,0,0c0.4,0,0.7-0.4,0.8-0.7c0.1-0.2,0-0.6-0.1-0.8L10.3,16.6z"/>
		</g>
		<path class="st12" d="M11.2,16.7c0.1,0.2,0.1,0.5,0,0.6c-0.1,0.1-0.4,0.1-0.5,0c-0.1-0.1,0.1-0.5,0.1-0.5L11.2,16.7z"/>
		<path class="st1" d="M11.2,16.8C11.2,16.8,11.2,16.8,11.2,16.8c0-0.1,0-0.1,0-0.2l-0.4,0c0,0,0,0.1-0.1,0.2c0,0.2-0.1,0.4,0.1,0.4
			c0.1,0,0.4,0,0.4-0.1c-0.6,0.1-0.4-0.3-0.4-0.3C10.9,16.8,11,16.8,11.2,16.8z"/>
		<path class="st13" d="M10.9,16.8c0.1,0,0.2,0,0.3,0c0-0.1,0-0.1,0-0.1l-0.4,0c0,0,0,0.1-0.1,0.1C10.8,16.8,10.8,16.8,10.9,16.8z"
			/>
		<g>
			<path class="st11" d="M10.9,17.3c0,0-0.1,0-0.1,0c-0.1,0-0.1-0.1-0.2-0.1c-0.1-0.1,0-0.5,0.1-0.6l0,0l0.4,0l0,0
				c0.1,0.2,0.1,0.5,0,0.6C11.1,17.3,11,17.3,10.9,17.3z M10.8,16.7c0,0.1-0.1,0.4-0.1,0.5c0,0,0.1,0.1,0.1,0.1c0.1,0,0.3,0,0.3,0
				c0.1-0.1,0-0.3,0-0.5L10.8,16.7z"/>
		</g>
	</g>
	<g>
		<path class="st14" d="M7.1,12.9c-0.2,0.3-0.3,0.7-0.3,1.1c0,0.3,0.2,0.6,0.5,0.7c0,0,0.2,0.5,0.3,0.6c0,0.1-0.1,0.3-0.1,0.4
			c0,0.2,0.2,0.2,0.2,0.3c0,0.1-0.1,0.3,0,0.4c0,0.1,0.2,0.5,1.3,0.4c1.1-0.1,0.9-1,0.9-1.2c0-0.1-0.1-0.4-0.2-0.7
			c-0.1-0.2-0.1-0.5,0-0.4c0,0,0.2,0,0.4,0c0,0,0.1,0.6,0,1.2c-0.1,0.4,0,0.5,0.1,0.7c0.2,0.3,0.4,0.3,0.7,0.4c0.6,0,0.8,0,1.1-0.3
			c0.2-0.2,0.3-0.3,0.2-0.5c-0.1-0.4-0.1-0.3,0.1-0.7c0.1-0.2-0.1-0.4-0.1-0.6c0-0.1,0.1-0.1,0.2-0.3c0.3-0.3,0.6-0.8,0.2-1.6
			L7.1,12.9z"/>
		<path class="st15" d="M10.4,16.6c-0.3-0.2-0.3-0.6-0.2-1.2c0.1-0.4,0.1-0.5-0.1-1.2c-0.1-0.7,0-0.8,0-0.9c0,0-0.3,0.1-0.1,1.1
			c0,0,0.1,0.6,0,1.2c-0.1,0.4,0,0.5,0.1,0.7C10.1,16.4,10.3,16.5,10.4,16.6z"/>
		<path class="st15" d="M8.7,16.7c-0.5-0.1-0.8-0.3-0.7-0.5C8,16,8,16,7.8,15.8c-0.2-0.2-0.2-0.3,0-0.5c0.1-0.2,0-0.2-0.3-0.7
			c-0.3-0.5-0.3-0.8-0.2-1c0,0-0.1,0.1-0.1,0.4c0,0.2,0.1,0.5,0.2,0.7c0,0,0,0,0,0c0,0.1,0.2,0.5,0.3,0.6c0,0.1-0.1,0.3-0.1,0.4
			c0,0.2,0.2,0.2,0.2,0.3c0,0.1-0.1,0.3,0,0.4C7.7,16.5,7.9,16.8,8.7,16.7z"/>
		<path class="st16" d="M12.6,12.8l-3.2,0l0.3,1.7c0,0,0.2,0,0.4,0c0,0-0.2-1.1,0.3-1.2c0.5-0.1,1.4-0.1,1.5,0.3
			c0.1,0.4-0.1,0.4,0,0.7c0.2,0.3,0.1,0.6-0.1,0.5c-0.2-0.2-0.2,0.1,0,0.8c0.2,0.7-0.2,1-0.7,0.9c-0.5,0-0.7,0-0.9-0.2
			c0.1,0.3,0.3,0.4,0.7,0.4c0.6,0,0.8,0,1.1-0.3c0.2-0.2,0.3-0.3,0.2-0.5c-0.1-0.4-0.1-0.3,0.1-0.7c0.1-0.2-0.1-0.4-0.1-0.6
			c0-0.1,0.1-0.1,0.2-0.3C12.7,14.1,12.9,13.6,12.6,12.8z"/>
		<path class="st17" d="M11,13.2c0.7,0,1.1,0.2,1.1,0.5c0,0.3-0.2,0.4-0.1,0.7c0.1,0.3,0.2,0.7,0.1,0.7c-0.1,0-0.3-0.2-0.3-0.1
			c0,0.1,0.2,0.4,0.2,0.8c0,0.5-0.3,0.7-0.5,0.7c-0.1,0.1-0.6,0.1-1.2,0c0.1,0.1,0.3,0.1,0.5,0.1c0.6,0,0.8,0,1.1-0.3
			c0.2-0.2,0.3-0.3,0.2-0.5c-0.1-0.4-0.1-0.3,0.1-0.7c0.1-0.2-0.1-0.4-0.1-0.6c0-0.1,0.1-0.1,0.2-0.3c0.3-0.3,0.6-0.8,0.2-1.6
			L11,13.2z"/>
		<path class="st17" d="M9.9,14c0,0.2-0.1,0.2-0.1,0c0-0.3-0.1-0.6-0.2-0.7l0.1,1.2c0,0,0.2,0,0.4,0c0,0-0.2-1.1,0.3-1.2
			C9.9,13.3,9.9,13.8,9.9,14z"/>
		<path class="st16" d="M9.9,15.6c0-0.1-0.1-0.4-0.2-0.7c-0.1-0.2-0.1-0.4,0-0.4c0,0,0,0,0,0c0-0.3,0.1-1-0.1-1.3l-2.3,0
			c0.1,0,0.2,0.1,0.2,0.2c0.1,0.1,0.3-0.1,0.9-0.1c0.8,0,1,0.4,0.9,0.9c-0.1,0.5-0.1,0.6,0.2,1c0.2,0.4,0.3,1.6-1.1,1.5
			c0,0,0,0-0.1,0c0.2,0,0.4,0,0.7,0C10,16.7,9.9,15.7,9.9,15.6z"/>
		<path class="st17" d="M9.9,15.6c0-0.1-0.1-0.4-0.2-0.7c-0.1-0.2-0.1-0.4,0-0.4c0,0,0,0,0,0c0-0.3,0.1-1-0.1-1.3l-2.3,0l0,0
			c0.1,0,0.2,0,0.3,0.1c0,0,0.4,0,0.8,0c0.4,0,0.8,0,1,0.2c0.2,0.2,0.2,0.6,0.1,0.9c-0.1,0.3-0.1,0.4,0.1,0.8c0.2,0.4,0.3,1,0,1.3
			c-0.1,0.2-0.3,0.3-0.5,0.3C10,16.6,9.9,15.7,9.9,15.6z"/>
		<path class="st16" d="M7.2,14.2c-0.1-0.3,0-0.7,0-0.7c-0.2,0.4-0.2,0.8-0.1,0.9c0,0,0.1,0.1,0.3,0.2C7.3,14.6,7.3,14.4,7.2,14.2z"
			/>
		<path class="st17" d="M7.2,13.6c0,0-0.1,0.3-0.1,0.5c0,0.1,0.1,0.4,0.1,0.5c0,0,0.1,0,0.1,0.1c0-0.1-0.1-0.2-0.2-0.4
			C7.1,13.9,7.2,13.6,7.2,13.6z"/>
		<g>
			<path class="st18" d="M8.7,16.8c-0.8,0-1-0.3-1.1-0.4c0-0.1,0-0.2,0-0.2c0-0.1,0-0.1,0-0.2c0,0,0-0.1-0.1-0.1
				c-0.1-0.1-0.1-0.1-0.1-0.2c0-0.1,0-0.2,0.1-0.3c0-0.1,0-0.1,0-0.1c0-0.1-0.2-0.4-0.3-0.6c-0.4-0.1-0.5-0.5-0.6-0.8
				c0-0.4,0.1-0.8,0.3-1.1l0,0l0,0l5.5,0l0,0c0.4,0.9,0,1.4-0.2,1.6c0,0-0.1,0-0.1,0.1c-0.1,0.1-0.1,0.1-0.1,0.2
				c0,0.1,0,0.1,0.1,0.2c0,0.1,0.1,0.3,0,0.4c0,0.1-0.1,0.1-0.1,0.1c-0.1,0.2-0.1,0.2,0,0.4c0,0,0,0.1,0,0.1c0.1,0.2,0,0.3-0.2,0.5
				c-0.3,0.3-0.6,0.3-1.1,0.3c-0.4,0-0.6-0.1-0.7-0.4C9.9,16.1,9.9,16,10,15.7c0.1-0.5,0-1,0-1.1c-0.1,0-0.3,0-0.3,0
				c0,0,0,0.2,0.1,0.4l0,0c0.1,0.2,0.2,0.5,0.2,0.6c0,0,0,0,0,0c0,0.4,0,0.6-0.2,0.8c-0.2,0.2-0.4,0.3-0.8,0.3
				C8.9,16.8,8.8,16.8,8.7,16.8z M7.1,12.9c-0.2,0.3-0.3,0.6-0.3,1c0,0.3,0.2,0.6,0.5,0.7l0,0l0,0c0,0.1,0.3,0.5,0.3,0.6
				c0,0,0,0.1,0,0.2c0,0.1-0.1,0.2-0.1,0.2c0,0.1,0.1,0.1,0.1,0.2c0,0,0.1,0.1,0.1,0.1c0,0.1,0,0.1,0,0.2c0,0.1,0,0.1,0,0.2
				c0,0.1,0.2,0.5,1.2,0.4c0.3,0,0.6-0.1,0.7-0.3c0.2-0.3,0.2-0.7,0.2-0.8c0,0,0,0,0,0c0-0.1-0.1-0.4-0.2-0.6l0,0
				c-0.1-0.2-0.1-0.4,0-0.5l0,0l0,0c0,0,0.2,0,0.4,0l0,0l0,0c0,0,0.1,0.6,0,1.2c-0.1,0.4,0,0.4,0.1,0.7c0.2,0.3,0.3,0.3,0.7,0.4
				c0.6,0,0.8,0,1.1-0.2c0.2-0.2,0.2-0.3,0.2-0.5c0,0,0-0.1,0-0.1c-0.1-0.3-0.1-0.3,0-0.5c0,0,0-0.1,0.1-0.1c0-0.1,0-0.2,0-0.3
				c0-0.1-0.1-0.2-0.1-0.2c0-0.1,0.1-0.1,0.1-0.2c0,0,0.1,0,0.1-0.1c0.3-0.2,0.6-0.7,0.2-1.5L7.1,12.9z"/>
		</g>
		<g>
			<g>
				<path class="st18" d="M7.2,13.5c-0.1,0.2-0.1,0.4,0,0.6c0,0.1,0,0.2,0.1,0.3c0,0.1,0.1,0.2,0.1,0.3l0,0c0-0.1-0.1-0.2-0.1-0.3
					c0-0.1-0.1-0.2-0.1-0.3c0-0.1,0-0.2,0-0.3C7.2,13.7,7.2,13.6,7.2,13.5L7.2,13.5z"/>
			</g>
		</g>
		<g>
			<g>
				<path class="st18" d="M9.6,13.2c0,0.1,0.1,0.2,0.1,0.3c0,0.1,0,0.2,0,0.3c0,0.2,0,0.4,0,0.6l-0.1,0c0-0.2,0.1-0.4,0.1-0.6
					c0-0.1,0-0.2,0-0.3C9.6,13.5,9.6,13.4,9.6,13.2L9.6,13.2z"/>
			</g>
		</g>
		<g>
			<g>
				<path class="st18" d="M10,14.5c0-0.2,0-0.4,0-0.6c0-0.1,0-0.2,0-0.3c0-0.1,0.1-0.2,0.1-0.3l0,0C10,13.5,10,13.6,10,13.7
					c0,0.1,0,0.2,0,0.3C10,14.1,10,14.3,10,14.5L10,14.5z"/>
			</g>
		</g>
		<g>
			<g>
				<path class="st18" d="M12.1,14.6c0-0.1,0-0.1,0-0.2c0-0.1,0-0.1,0-0.2c0-0.1,0.1-0.2,0.1-0.3c0.1-0.1,0.1-0.2,0.1-0.3
					c0-0.1,0-0.2-0.1-0.3l0,0c0.1,0.1,0.1,0.2,0.1,0.3c0,0.1,0,0.2-0.1,0.3c0,0.1-0.1,0.2-0.1,0.3C12.1,14.4,12.1,14.5,12.1,14.6
					L12.1,14.6z"/>
			</g>
		</g>
		<g>
			<g>
				<path class="st18" d="M11.8,15.1c0,0,0.1,0.1,0.1,0.1c0,0,0,0.1,0.1,0.1c0,0.1,0.1,0.2,0.1,0.3l-0.1,0c0-0.1,0-0.2-0.1-0.3
					C11.9,15.3,11.9,15.2,11.8,15.1L11.8,15.1z"/>
			</g>
		</g>
	</g>
	<g>
		<path class="st19" d="M6.1,12.1c0.3,0.2,0.6,0.3,1,0.4l-0.6-1.6c0,0-0.3,0.2-0.4,0.5C6,11.8,6.1,12.1,6.1,12.1z"/>
		<path class="st20" d="M7,12.3c-0.3,0-0.8-0.2-0.8-0.6c0-0.4,0.2-0.5,0.3-0.6l0-0.2c-0.8,0.3-0.4,1.2-0.4,1.2
			c0.3,0.2,0.6,0.3,1,0.4L7,12.3z"/>
		<g>
			<path class="st21" d="M7.2,12.5L7.2,12.5c-0.5-0.1-0.8-0.2-1.1-0.4l0,0l0,0c0,0-0.2-0.3,0-0.7c0.1-0.4,0.4-0.5,0.5-0.6l0,0
				L7.2,12.5z M6.1,12.1c0.3,0.2,0.6,0.3,1,0.4l-0.6-1.5c-0.1,0-0.3,0.2-0.4,0.5C6,11.8,6.1,12.1,6.1,12.1z"/>
		</g>
		<path class="st22" d="M8.5,8.5c-0.3,0-0.6,0.1-1.2,0.7C6.4,10,5.8,10.6,6,11l7.2-0.1c0,0,0.5,0,0.2-0.4c-0.2-0.4-1.2-1.9-2-1.9
			C11,8.5,8.5,8.5,8.5,8.5z"/>
		<g>
			<path class="st23" d="M6,11L6,11c-0.2-0.4,0.5-1.1,1.2-1.8c0.6-0.6,0.9-0.7,1.3-0.7h0c0.1,0,2.5-0.1,3,0c0.7,0.1,1.7,1.4,2,2
				c0.1,0.1,0.1,0.2,0,0.3c-0.1,0.1-0.3,0.2-0.3,0.2L6,11z M8.5,8.5c-0.3,0-0.6,0.1-1.2,0.7C6.6,9.8,5.9,10.6,6,10.9l7.2-0.1
				c0,0,0.2,0,0.3-0.1c0-0.1,0-0.2,0-0.3c-0.3-0.5-1.3-1.9-1.9-1.9C11,8.5,8.6,8.5,8.5,8.5z"/>
		</g>
		<path class="st24" d="M6.5,10.5c-0.1,0-0.4,0.2-0.6,0.6c-0.2,0.4-0.2,1.1,0.5,1.3C6,12.1,6,11.2,6.6,11L6.5,10.5z"/>
		<path class="st25" d="M6.6,11l-0.1-0.5c-0.2,0.1-0.3,0.2-0.3,0.2c0.2-0.1,0.3,0.1,0.1,0.4c-0.2,0.3-0.4,0.7-0.2,1.2
			c0.1,0,0.1,0.1,0.2,0.1C6,12.1,6,11.2,6.6,11z"/>
		<g>
			<path class="st26" d="M6.4,12.3l-0.1,0c-0.3-0.1-0.4-0.2-0.5-0.4c-0.1-0.3-0.1-0.6,0-0.9c0.2-0.4,0.5-0.5,0.7-0.6l0,0L6.6,11l0,0
				c-0.3,0.1-0.4,0.4-0.5,0.7C6.1,11.9,6.2,12.2,6.4,12.3L6.4,12.3z M6.4,10.5C6.3,10.6,6,10.7,5.9,11c-0.1,0.3-0.2,0.6,0,0.8
				c0.1,0.2,0.2,0.3,0.4,0.4c-0.1-0.1-0.2-0.4-0.1-0.6c0-0.3,0.2-0.6,0.5-0.7L6.4,10.5z"/>
		</g>
		<path class="st19" d="M13.6,12.1c-0.3,0.2-0.7,0.3-1,0.4l0.6-1.6c0,0,0.3,0.2,0.4,0.5C13.8,11.8,13.6,12.1,13.6,12.1z"/>
		<path class="st20" d="M13.3,11.8c-0.1,0.3-0.4,0.4-0.6,0.4l-0.1,0.3c0.4,0,0.7-0.2,1-0.3c0.3-0.9-0.4-1.3-0.4-1.3l-0.1,0.2
			C13.3,11.2,13.4,11.4,13.3,11.8z"/>
		<path class="st27" d="M13.2,10.9l0,0.1c0.2,0.1,0.4,0.4,0.3,0.8c-0.1,0.4-0.7,0.5-0.7,0.5l0,0.2c0.3,0,0.7-0.2,0.9-0.3
			C13.8,11.4,13.4,11,13.2,10.9z"/>
		<g>
			<path class="st21" d="M12.5,12.5l0.6-1.7l0,0c0,0,0.3,0.2,0.5,0.6c0.1,0.4,0,0.7,0,0.7l0,0l0,0C13.4,12.4,13,12.5,12.5,12.5
				L12.5,12.5z M13.2,10.9l-0.6,1.5c0.4-0.1,0.7-0.2,1-0.4c0,0,0.1-0.3,0-0.7C13.5,11.2,13.3,11,13.2,10.9z"/>
		</g>
		<path class="st24" d="M13.3,10.5c0.1,0,0.4,0.2,0.6,0.6c0.2,0.4,0.2,1.1-0.5,1.3c0.3-0.2,0.3-1-0.3-1.3L13.3,10.5z"/>
		<g>
			<path class="st26" d="M13.3,12.3L13.3,12.3c0.2-0.2,0.3-0.4,0.3-0.7c0-0.3-0.2-0.6-0.5-0.7l0,0l0.2-0.5l0,0
				c0.2,0.1,0.5,0.2,0.7,0.6c0.1,0.3,0.2,0.6,0,0.9c-0.1,0.2-0.3,0.4-0.5,0.4L13.3,12.3z M13.2,11c0.3,0.1,0.4,0.4,0.5,0.7
				c0,0.2,0,0.4-0.1,0.6c0.2-0.1,0.3-0.2,0.4-0.4c0.1-0.2,0.1-0.6,0-0.8c-0.2-0.3-0.4-0.5-0.6-0.5L13.2,11z"/>
		</g>
	</g>
	<g>
		<path class="st28" d="M6.5,6.3C6,5,6.6,2.8,9,2.1c2.2-0.7,3.4,0.8,3.5,0.9c0.2,0.3,0.8,0.4,1.1,1.1c0.4,1,0,2-0.3,2.4
			c0,0-1.4,1.5-3.7,1.4C7.4,7.9,6.5,6.3,6.5,6.3z"/>
		<path class="st29" d="M10,5.1C10,5.2,9.6,6,9.7,6.4L9.4,6.8c0,0,0-0.4,0.2-0.9C9.7,5.4,10,5.1,10,5.1z"/>
		<path class="st29" d="M9.6,4.3C9.5,4.5,8.9,5.1,8.8,6c0,0-0.2,0.4-0.3,0.2c-0.1-0.2,0-0.7,0.3-1.2C9.2,4.5,9.6,4.3,9.6,4.3z"/>
		<path class="st29" d="M7,7c0.1-0.2,0-0.5,0-0.5C6.9,6,7,5.2,7.1,5.1c0,0-0.4,0.4-0.4,1.5C6.8,6.7,6.9,6.8,7,7z"/>
		<path class="st29" d="M7.6,2.8L7.6,2.8C6.5,3.8,6.2,5.1,6.5,6.1l0.2-0.4C6.4,4.6,7,3.4,7.6,2.8z"/>
		<path class="st30" d="M9.5,6.7c0.1-0.3,0.5-0.6,0.8-0.9c0.4-0.5,0.8-0.9,1.1-1.3c0.1-0.2,0.2,0.2,0.1,0.6c0,0-1.8,1.7-1.9,1.8
			C9.4,7,9.5,6.7,9.5,6.7z"/>
		<path class="st31" d="M9.4,6.9c0-0.2,0.4-0.5,0.6-0.8C10.6,5.7,11,5.3,11.1,5c0.2-0.3,0.4-0.4,0.4-0.1c0,0-0.9,1.2-1.3,1.6
			C9.7,6.9,9.4,6.9,9.4,6.9z"/>
		<path class="st30" d="M8.6,6.2c0.1-0.4,0.6-0.9,0.9-1.1c0.4-0.3,0.7-0.2,0.5,0.1L8.6,6.2z"/>
		<path class="st31" d="M9.9,5.2C10,5.1,10,5,9.8,5.1C9.5,5.1,9.1,5.5,8.7,6L9.9,5.2z"/>
		<path class="st30" d="M7,6.9c0.1-0.7,0.5-1.3,1.1-2c1-1,2-1,1.7-0.8C9.7,4.2,9.1,4.7,8.8,5.3L7,6.9z"/>
		<path class="st31" d="M7,6.7c0.1-0.5,0.6-1.3,1.5-2c0.9-0.7,1.3-0.6,1-0.4L7,6.7z"/>
		<path class="st30" d="M13.6,4.1c-0.3-0.7-0.9-0.9-1.1-1.1C12.4,2.8,11.2,1.4,9,2.1C8.4,2.2,7.8,2.6,7.5,3c0.8-0.6,2.2-1,3.4-0.5
			c0.5,0.2,0.9,0.8,0.8,1C11.6,4,12,3.9,12,4.5c0,0.5-0.3,1.2-1,1.8c0,0,0.2,0.1,0.6-0.3c0.5-0.4,1,0.3,1.4,0.7
			c0.2-0.1,0.3-0.3,0.3-0.3C13.6,6.2,14,5.2,13.6,4.1z"/>
		<path class="st31" d="M13.4,5.1c0,0-0.1,0.8-0.4,0.7c-0.3-0.1-0.5-0.6-0.6-1c0,0,0,1.9,0.5,1.9c0.2,0,0.4-0.6,0.4-0.8
			C13.5,5.4,13.4,5.1,13.4,5.1z"/>
		<path class="st31" d="M13.4,6.4c0.3-0.5,0.5-1.3,0.2-2.2c-0.3-0.7-0.9-0.9-1.1-1.1C12.4,2.8,11.2,1.4,9,2.1
			C8.7,2.2,8.4,2.3,8.1,2.5c0.7-0.3,1.5-0.6,2.5-0.4c1.1,0.2,1.5,0.8,1.6,1.2c0.1,0.3,0.5,0.3,0.9,0.7c0.5,0.4,0.7,1.3,0.4,2.2
			C13.4,6.2,13.4,6.3,13.4,6.4z"/>
		<path class="st30" d="M6.5,6.1c0-0.4,0.2-0.8,0.6-1c0,0-0.2,0.4-0.2,1.1L6.5,6.1z"/>
		<path class="st31" d="M6.7,6c0-0.3,0.1-0.7,0.4-1c0,0-0.3,0.7-0.2,1.2L6.7,6z"/>
		<g>
			<path class="st32" d="M9.7,8c0,0-0.1,0-0.1,0c-2.2,0-3.1-1.6-3.1-1.6l0,0C6.2,5.6,6.3,4.7,6.7,3.9C7,3.3,7.7,2.4,9,2
				c2.4-0.7,3.6,0.9,3.6,1c0.1,0.1,0.2,0.2,0.3,0.3c0.3,0.2,0.6,0.4,0.8,0.9c0.4,1,0,2-0.3,2.4C13.3,6.6,11.9,8,9.7,8z M6.5,6.3
				c0,0.1,0.9,1.6,3.1,1.6c0,0,0.1,0,0.1,0c2.1,0,3.5-1.4,3.5-1.4c0.4-0.4,0.7-1.4,0.3-2.4c-0.2-0.5-0.5-0.7-0.8-0.8
				c-0.1-0.1-0.3-0.2-0.3-0.3c0,0-1.2-1.7-3.5-0.9C7.7,2.5,7.1,3.3,6.8,3.9C6.4,4.7,6.3,5.6,6.5,6.3z"/>
		</g>
		<path class="st19" d="M6.8,6.2c0-0.2-0.3-0.3-0.4-0.1c-0.2,0.3,0,0.6,0.3,0.7c0.2,0,0.1,0.2,0.4,0.6C7.4,8,8.2,9.1,10.1,9
			c2.3-0.1,2.9-2,3-2.1c0-0.1,0.5,0,0.6-0.4c0.2-0.4-0.2-0.5-0.3-0.4c0,0-0.1,0.4-0.3,0.6c-0.2,0.2,0-0.1-0.3-0.6
			c-0.3-0.6-0.4-1-0.4-1.5c0,0-0.2,0.4-0.5,1c-0.3,0.4-0.8,0.8-0.9,0.9c-0.1,0,0.2-0.2,0.4-0.9c0.2-0.6,0.1-0.6,0-0.5
			c-0.1,0.1-0.3,0.4-0.9,0.9c-0.5,0.5-0.9,0.7-1.1,1c-0.1,0.1-0.1,0-0.1-0.2C9.5,6,9.8,5.4,9.9,5.2C9.9,5.1,10,5.1,9.8,5.2
			C9.5,5.3,9,5.6,8.7,6.1C8.6,6.2,8.6,6.2,8.6,6c0.1-0.3,0.2-0.9,1-1.7c0.1-0.1-0.9,0.5-1.4,0.9C7.8,5.5,7.2,6.1,7,6.8
			C7,7,6.8,6.6,6.8,6.2z"/>
		<path class="st33" d="M7.3,7.5C7,7,6.9,6.8,6.7,6.8l0.1,0c0.1,0.1,0.1,0.2,0.4,0.6C7.4,8,8.2,9,10,9c0,0,0,0,0,0
			C8.6,8.9,7.7,8,7.3,7.5z"/>
		<path class="st27" d="M6.8,6.4C6.8,6.2,6.5,6,6.3,6.3c0,0,0-0.3,0.2-0.3c0.2,0,0.3,0.2,0.3,0.2L6.8,6.4z"/>
		<path class="st20" d="M9.8,5.4c0.1-0.2,0.2-0.3,0-0.2C9.6,5.3,9.1,5.6,8.7,6.1C8.6,6.2,8.6,6.2,8.6,6c0.1-0.3,0.2-0.9,1-1.7
			c0.1-0.1-0.9,0.5-1.4,0.9C7.8,5.5,7.2,6.1,7,6.8C7.2,6.5,7.4,6.1,8,5.6C8.4,5.2,8.9,5,8.8,5.3c-0.1,0.3-0.3,1-0.2,1
			C8.7,6.2,9.2,5.6,9.8,5.4z M13.4,6.1c0,0-0.1,0.4-0.3,0.6c-0.2,0.2,0-0.1-0.3-0.6c-0.3-0.6-0.4-1-0.4-1.5c0,0-0.2,0.4-0.5,1
			c-0.3,0.4-0.8,0.8-0.9,0.9c-0.1,0,0-0.1,0.1-0.2C11,6.3,10.9,6.4,11,6.4c0.2,0,0.8-0.4,1-0.7c0.2-0.2,0.9,2-0.8,3.1
			c1.5-0.5,1.9-1.8,1.9-1.9c0-0.1,0.5,0,0.6-0.4C13.9,6.1,13.5,6,13.4,6.1z M11.3,5.4C11.4,5.3,11.4,5.3,11.3,5.4
			c0.2-0.5,0.2-0.5,0.1-0.5c-0.1,0.1-0.3,0.4-0.9,0.9c-0.5,0.5-0.9,0.7-1.1,1c0,0.1-0.1,0.1-0.1,0c0,0,0,0.1,0,0
			c0.1-0.1,0.5-0.4,0.8-0.6C10.7,6,11.2,5.6,11.3,5.4z M9.5,6.6c0.1-0.3,0.2-0.7,0.3-0.9c0,0.1-0.1,0.1-0.1,0.2
			C9.6,6,9.5,6.3,9.5,6.6z"/>
		<path class="st27" d="M13.4,6.1c0,0-0.1,0.4-0.3,0.6c-0.2,0.2,0-0.1-0.3-0.6c-0.3-0.6-0.4-1-0.4-1.5c0,0-0.2,0.4-0.5,1
			C11.4,6.1,11,6.3,11,6.3c0,0,0.3-0.1,0.7-0.5c0.4-0.4,0.6-0.7,0.6-0.6c0.1,0.1,0.2,0.5,0.3,1c0.1,0.4,0.2,1.4-0.9,2.3c0,0,0,0,0,0
			c1-0.6,1.3-1.6,1.3-1.7c0-0.1,0.5,0,0.6-0.4C13.9,6.1,13.5,6,13.4,6.1z M9.8,5.2c-0.2,0.1-0.7,0.4-1,0.9l0,0
			c0.2-0.2,0.7-0.7,1.1-0.8C9.9,5.1,10,5.1,9.8,5.2z M9,5c0.2-0.3,0.6-0.7,0.6-0.7S8.8,4.7,8.2,5.2C7.8,5.5,7.4,5.9,7.1,6.5l0,0
			c0.1-0.2,0.5-0.7,1.1-1.2C8.8,4.9,9,4.9,9,5z M11.5,5L11.5,5C11.5,4.9,11.5,4.9,11.5,5c-0.1,0-0.5,0.5-1,1
			C9.7,6.6,9.6,6.7,9.6,6.7c0.1-0.1,0.5-0.4,0.9-0.7C10.8,5.8,11.3,5.4,11.5,5z"/>
		<g>
			<path class="st33" d="M10,7.5c0,0,0,0.1-0.1,0.1c-0.1,0-0.1,0-0.1-0.1c0,0,0-0.1,0.1-0.1C10,7.5,10,7.5,10,7.5z"/>
			<path class="st20" d="M10.3,7.4c0,0.1,0,0.1-0.1,0.2c-0.1,0.1-0.3,0.2-0.5,0.1c0,0,0.1,0.2,0.4,0.1c0.3-0.1,0.2-0.3,0.2-0.3
				C10.4,7.4,10.3,7.4,10.3,7.4z"/>
			<g>
				<path class="st20" d="M11.4,6.4c0-0.1,0.2-0.3,0.5,0c0.2,0.2,0.1,0.4-0.1,0.2C11.6,6.4,11.4,6.5,11.4,6.4z"/>
				<path class="st28" d="M11.5,6.3c0-0.1,0.2-0.2,0.4,0c0.2,0.2,0.1,0.2,0,0.1C11.7,6.4,11.5,6.4,11.5,6.3z"/>
				<path class="st30" d="M11.8,6.4c0.1,0.1,0.2,0.1,0.1,0C12.1,6.6,12,6.6,11.8,6.4c-0.1,0-0.3,0-0.3-0.1
					C11.6,6.4,11.7,6.4,11.8,6.4z"/>
				<g>
					<path class="st34" d="M12,6.6c0,0-0.1,0-0.1,0c-0.1,0-0.1-0.1-0.2-0.1c-0.1,0-0.2-0.1-0.2-0.1c0,0,0-0.1,0.1-0.1
						c0.1,0,0.2,0,0.3,0.1C12,6.5,12,6.5,12,6.6C12,6.6,12,6.6,12,6.6z M11.6,6.2C11.6,6.2,11.6,6.2,11.6,6.2
						c-0.1,0-0.1,0.1-0.1,0.1v0c0,0,0.1,0.1,0.2,0.1c0.1,0,0.1,0,0.2,0.1c0.1,0,0.1,0,0.1,0c0,0,0,0-0.1-0.2
						C11.8,6.3,11.7,6.2,11.6,6.2z"/>
				</g>
				<path class="st29" d="M11.8,6.3c0,0-0.1-0.1-0.2-0.1c-0.1,0,0,0.1,0.1,0.1C11.8,6.3,11.8,6.4,11.8,6.3z"/>
			</g>
			<g>
				<path class="st20" d="M8.6,6.4C8.6,6.2,8.4,6,8,6.3C7.8,6.5,7.9,6.6,8.1,6.5C8.3,6.5,8.6,6.5,8.6,6.4z"/>
				<path class="st28" d="M8.4,6.3c0-0.1-0.2-0.2-0.4,0c-0.2,0.2-0.1,0.2,0,0.1C8.2,6.4,8.4,6.4,8.4,6.3z"/>
				<path class="st30" d="M8.1,6.4C8,6.5,7.9,6.5,8,6.4C7.8,6.5,7.9,6.5,8.1,6.4c0.1,0,0.3,0,0.3-0.1C8.4,6.4,8.2,6.4,8.1,6.4z"/>
				<g>
					<path class="st34" d="M7.9,6.5C7.9,6.5,7.9,6.5,7.9,6.5C7.9,6.5,7.9,6.5,8,6.3c0.2-0.2,0.3-0.1,0.3-0.1c0.1,0,0.1,0.1,0.1,0.1
						v0c0,0.1-0.1,0.1-0.2,0.1c-0.1,0-0.1,0-0.2,0.1C8,6.5,8,6.5,7.9,6.5z M8.3,6.2c-0.1,0-0.1,0-0.2,0.1C7.9,6.5,7.9,6.5,7.9,6.5
						c0,0,0,0,0.1,0c0.1,0,0.1,0,0.2-0.1c0.1,0,0.2,0,0.2-0.1l0,0C8.4,6.3,8.4,6.3,8.3,6.2C8.3,6.2,8.3,6.2,8.3,6.2z"/>
				</g>
				<path class="st29" d="M8.1,6.3c0,0,0.2-0.1,0.2,0c0.1,0,0,0.1-0.1,0.1C8.2,6.3,8.1,6.3,8.1,6.3z"/>
			</g>
			<g>
				<path class="st20" d="M11.4,7.4c-0.2,0-0.4,0-0.3-0.3c0.2-0.2,0.5-0.2,0.6,0.1C11.7,7.4,11.6,7.4,11.4,7.4z"/>
				<path class="st35" d="M11.3,7.3c-0.1,0-0.3,0-0.2-0.2c0.1-0.1,0.3-0.1,0.4,0.1C11.5,7.4,11.4,7.3,11.3,7.3z"/>
				<path class="st36" d="M11.2,7.3c-0.1,0-0.1,0-0.1-0.1c0,0,0-0.1,0-0.1c0-0.1,0.1-0.1,0.2-0.1c0.1,0,0.2,0.1,0.2,0.2
					c0,0,0,0.1,0,0.1c0,0-0.1,0-0.1,0C11.3,7.4,11.3,7.4,11.2,7.3C11.3,7.4,11.3,7.4,11.2,7.3z M11.3,7.1c-0.1,0-0.1,0-0.2,0.1
					c0,0,0,0.1,0,0.1c0,0,0,0,0.1,0c0,0,0,0,0.1,0c0,0,0,0,0.1,0c0.1,0,0.1,0,0.1,0c0,0,0,0,0-0.1C11.5,7.1,11.4,7.1,11.3,7.1z"/>
				<path class="st37" d="M11.3,7.3C11.2,7.3,11.1,7.3,11.3,7.3C11.2,7.2,11.3,7.2,11.3,7.3C11.4,7.3,11.3,7.3,11.3,7.3z"/>
				<path class="st19" d="M11.2,7.3C11.2,7.3,11.2,7.3,11.2,7.3C11.2,7.2,11.3,7.2,11.2,7.3C11.3,7.3,11.3,7.3,11.2,7.3z"/>
			</g>
			<g>
				<path class="st20" d="M8.6,7.4c-0.2,0-0.4,0-0.3-0.2C8.5,7,8.8,7,8.9,7.2C9,7.4,8.8,7.4,8.6,7.4z"/>
				<path class="st35" d="M8.6,7.4c-0.1,0-0.3,0-0.2-0.1c0.1-0.2,0.3-0.2,0.4,0C8.8,7.3,8.7,7.3,8.6,7.4z"/>
				<path class="st36" d="M8.5,7.4C8.4,7.4,8.4,7.4,8.5,7.4C8.4,7.3,8.4,7.3,8.4,7.2c0-0.1,0.1-0.1,0.2-0.1c0.1,0,0.1,0.1,0.2,0.1
					c0,0,0,0.1,0,0.1c0,0-0.1,0-0.1,0c0,0,0,0-0.1,0C8.5,7.4,8.5,7.4,8.5,7.4z M8.6,7.1c-0.1,0-0.2,0-0.2,0.1c0,0,0,0.1,0,0.1
					c0,0,0,0,0.1,0c0,0,0.1,0,0.1,0c0,0,0,0,0.1,0c0.1,0,0.1,0,0.1,0c0,0,0,0,0-0.1C8.8,7.2,8.7,7.1,8.6,7.1z"/>
				<path class="st37" d="M8.5,7.3C8.5,7.3,8.4,7.3,8.5,7.3C8.5,7.2,8.6,7.2,8.5,7.3C8.6,7.3,8.6,7.3,8.5,7.3z"/>
				<path class="st19" d="M8.5,7.3C8.5,7.3,8.5,7.3,8.5,7.3C8.5,7.3,8.5,7.3,8.5,7.3C8.6,7.3,8.5,7.3,8.5,7.3z"/>
			</g>
			<g>
				<g>
					<path class="st38" d="M9.8,7.4c-0.1,0.1-0.1,0.2,0,0.3c0.1,0.1,0.2,0.1,0.3,0.1c0.1,0,0.2,0,0.3-0.1c0,0,0.1-0.1,0.1-0.1
						c0-0.1,0-0.1,0-0.2c0,0,0.1,0.1,0.1,0.2c0,0.1,0,0.1-0.1,0.2c0,0-0.1,0.1-0.1,0.1c-0.1,0-0.1,0-0.2,0c-0.1,0-0.1,0-0.2,0
						c-0.1,0-0.1-0.1-0.1-0.1c0,0-0.1-0.1-0.1-0.2C9.7,7.5,9.7,7.5,9.8,7.4z"/>
				</g>
			</g>
			<g>
				<path class="st20" d="M9.2,8.2c0.2,0.1,0.4,0.3,0.9,0.3c0.5,0,0.7-0.2,0.8-0.3c0,0-0.2,0.2-0.8,0.2C9.6,8.5,9.3,8.3,9.2,8.2z"/>
				<path class="st39" d="M9.8,8.5c-0.3,0-0.6-0.1-0.7-0.3l0,0c0.1,0.1,0.5,0.2,0.9,0.2c0.5,0,0.7-0.2,0.8-0.3l0,0
					c-0.1,0.1-0.4,0.3-0.8,0.3C10,8.5,9.9,8.5,9.8,8.5z"/>
				<path class="st39" d="M9.9,8.6c0.1,0,0.1,0,0.2,0c0.1,0,0.1,0,0.2,0c0,0.1-0.1,0.1-0.2,0.1C10,8.7,9.9,8.7,9.9,8.6z"/>
				<path class="st39" d="M9.3,8.3c0-0.1-0.1-0.1-0.2-0.1C9,8.2,9.1,8.3,9.3,8.3C9.3,8.3,9.3,8.3,9.3,8.3z"/>
				<path class="st39" d="M10.8,8.3c0-0.1,0.1-0.1,0.2-0.1C11,8.2,10.9,8.3,10.8,8.3C10.8,8.3,10.8,8.3,10.8,8.3z"/>
			</g>
		</g>
		<g>
			<path class="st21" d="M10,9C8.7,9,7.7,8.5,7.1,7.5C7,7.3,6.9,7.2,6.9,7.1C6.8,6.9,6.8,6.9,6.7,6.9c-0.2,0-0.3-0.2-0.4-0.3
				c-0.1-0.1,0-0.3,0-0.4C6.4,6,6.5,6,6.6,6c0.1,0,0.2,0.1,0.2,0.2l-0.1,0c0-0.1-0.1-0.1-0.2-0.2c-0.1,0-0.1,0-0.2,0.1
				c-0.1,0.1-0.1,0.2,0,0.4c0.1,0.1,0.2,0.3,0.3,0.3c0.1,0,0.1,0.1,0.2,0.3C7,7.2,7,7.3,7.1,7.4c0.6,1,1.7,1.6,3,1.5
				c2.4-0.1,2.9-2.1,2.9-2.1c0-0.1,0.1-0.1,0.2-0.1c0.1,0,0.4,0,0.5-0.3c0.1-0.2,0-0.3,0-0.4c-0.1-0.1-0.2-0.1-0.2-0.1l0,0
				c0.1,0,0.2,0,0.3,0.1c0.1,0.1,0.2,0.2,0,0.4c-0.1,0.2-0.3,0.3-0.5,0.3c-0.1,0-0.1,0-0.1,0c0,0.1-0.2,0.6-0.6,1.1
				c-0.4,0.5-1.1,1-2.4,1C10.1,9,10,9,10,9z"/>
		</g>
		<g>
			<path class="st34" d="M9.5,6.9C9.5,6.9,9.5,6.9,9.5,6.9c0,0-0.1,0,0-0.3c0.1-0.7,0.4-1.3,0.4-1.4c0,0,0-0.1,0-0.1
				c0,0-0.1,0-0.1,0C9.6,5.3,9,5.7,8.7,6.1C8.6,6.2,8.6,6.2,8.6,6.2c0,0,0-0.1,0-0.2c0.1-0.3,0.2-0.9,0.9-1.6
				C9.2,4.5,8.6,4.9,8.2,5.2c-0.7,0.5-1,1.1-1.2,1.6c0,0,0,0.1-0.1,0.1c-0.1,0-0.2-0.4-0.2-0.6l0.1,0c0,0.3,0.1,0.6,0.1,0.6
				c0,0,0,0,0-0.1c0.1-0.5,0.5-1.1,1.2-1.6c0.3-0.2,0.7-0.5,0.9-0.6c0.5-0.3,0.5-0.3,0.6-0.3l0,0l0,0C8.9,5.1,8.7,5.6,8.6,6
				c0,0.1,0,0.1,0,0.2c0,0,0,0,0-0.1C9,5.6,9.6,5.2,9.7,5.2c0.1-0.1,0.2-0.1,0.2,0c0,0,0,0.1,0,0.1c0,0.1-0.3,0.7-0.4,1.3
				C9.5,6.7,9.5,6.8,9.5,6.9C9.5,6.8,9.5,6.8,9.5,6.9c0.1-0.2,0.3-0.4,0.6-0.7c0.1-0.1,0.3-0.3,0.5-0.4C11,5.4,11.2,5.1,11.3,5
				c0,0,0.1-0.1,0.1-0.1c0,0,0.1,0,0.1,0c0,0,0.1,0-0.1,0.6c-0.1,0.4-0.3,0.7-0.4,0.8c0,0,0,0,0,0c0.2-0.1,0.6-0.5,0.9-0.8
				c0.3-0.5,0.5-0.9,0.5-0.9l0.1-0.1l0,0.2c0,0.5,0.1,0.9,0.4,1.5C13,6.3,13,6.5,13,6.6c0,0,0,0.1,0,0.1c0,0,0,0,0.1,0
				c0.2-0.2,0.3-0.5,0.3-0.5l0.1,0c0,0-0.1,0.4-0.3,0.6c-0.1,0-0.1,0.1-0.1,0.1c0,0,0,0,0-0.1c0-0.1,0-0.3-0.2-0.6
				c-0.3-0.6-0.4-0.9-0.4-1.4c-0.1,0.2-0.2,0.5-0.5,0.8c-0.3,0.4-0.8,0.8-0.9,0.9c0,0,0,0-0.1,0c0,0,0,0,0-0.1
				c0.1-0.1,0.2-0.4,0.4-0.8c0.1-0.4,0.1-0.5,0.1-0.5c0,0,0,0,0,0c0,0,0,0-0.1,0.1c-0.1,0.1-0.4,0.4-0.8,0.8
				c-0.2,0.2-0.3,0.3-0.5,0.4C9.8,6.5,9.6,6.7,9.5,6.9C9.5,6.8,9.5,6.9,9.5,6.9z"/>
		</g>
		<g>
			<path class="st34" d="M13.4,6.1L13.4,6.1c0-0.3,0-0.7,0-0.9l0.1,0C13.5,5.4,13.5,5.8,13.4,6.1z"/>
		</g>
		<g>
			<path class="st34" d="M6.8,6.2c0-0.3,0.1-0.9,0.3-1.2l0,0C6.9,5.3,6.8,5.9,6.8,6.2L6.8,6.2z"/>
		</g>
		<path class="st40" d="M13.4,6.4c0-0.1,0.1-0.1,0.2,0c0,0.1-0.1,0.2-0.2,0.2C13.3,6.6,13.4,6.5,13.4,6.4z"/>
		<path class="st27" d="M6.7,6.4c0-0.1-0.1-0.1-0.2,0c0,0.1,0.1,0.2,0.2,0.2C6.8,6.6,6.7,6.5,6.7,6.4z"/>
	</g>
	<g>
		<path class="st12" d="M12.6,12.9C12.6,13,12.6,13,12.6,12.9L7.2,13c0,0,0,0-0.1-0.1l-1.2-4c0,0,0-0.1,0.1-0.1h7.8
			c0,0,0.1,0,0.1,0.1L12.6,12.9z"/>
		<path class="st0" d="M8,8.8l-2,0c0,0-0.1,0-0.1,0.1l1.2,4c0,0,0,0.1,0.1,0.1c0,0,1,0,1.2,0c-0.7,0-1.3-0.8-1.5-1.9
			C6.5,9.6,7,9,8,8.8z"/>
		<path class="st41" d="M13.8,8.8l-3.5,0c1.2,0.2,1.8,1.2,1.8,1.9c0,0.8-0.7,2.1-4.1,2.2c0.5,0,4.6,0,4.6,0L13.8,8.8
			C13.8,8.8,13.8,8.8,13.8,8.8z"/>
		<path class="st5" d="M13.8,8.8l-1.8,0l0,0c0.7,0.1,1,1.3,0.9,2.1c-0.2,1-0.8,1.8-2,2l1.7,0L13.8,8.8C13.8,8.8,13.8,8.8,13.8,8.8z"
			/>
		<g>
			<path class="st42" d="M12.5,13H7.2c0,0-0.1,0-0.1-0.1l-1.2-4c0,0,0,0,0-0.1c0,0,0,0,0.1,0h7.8c0,0,0.1,0,0.1,0c0,0,0,0,0,0.1
				L12.5,13C12.6,13,12.6,13,12.5,13z M6,8.8C6,8.8,5.9,8.9,6,8.8C5.9,8.9,5.9,8.9,6,8.8l1.2,4.1c0,0,0,0,0,0h5.4c0,0,0,0,0,0l1.2-4
				c0,0,0,0,0,0c0,0,0,0,0,0H6z"/>
		</g>
		<path class="st12" d="M12.6,13.2C12.6,13.2,12.6,13.2,12.6,13.2l-5.4,0.1c0,0-0.1,0-0.1-0.1V13c0,0,0-0.1,0.1-0.1h5.3
			c0,0,0.1,0,0.1,0.1V13.2z"/>
		<path class="st0" d="M8.5,13c-0.3,0-0.5,0.1-0.4,0.1c0.1,0.1,0.4,0.1,0.7,0.1l-1.7,0l0-0.2L8.5,13z"/>
		<path class="st41" d="M12,13l-3.4,0c0.3,0,1.2,0,1.4,0.2l2.5,0c0,0,0.1,0,0.1-0.1V13C12.6,13,12.6,13,12,13z"/>
		<path class="st5" d="M10.6,13c0.2,0,0.6,0.1,0.2,0.2l1.7,0l0-0.2L10.6,13z"/>
		<g>
			<path class="st42" d="M12.5,13.3H7.2c0,0-0.1,0-0.1-0.1V13c0,0,0-0.1,0.1-0.1h5.3c0,0,0.1,0,0.1,0.1L12.5,13.3
				C12.6,13.2,12.6,13.3,12.5,13.3z M7.2,13C7.2,13,7.2,13,7.2,13l0,0.2c0,0,0,0,0,0h5.3c0,0,0,0,0,0V13c0,0,0,0,0,0H7.2z"/>
		</g>
	</g>
</g>
</svg>
