<svg width="32" height="32" viewBox="0 0 32 32" fill="none" xmlns="http://www.w3.org/2000/svg">
<circle cx="16" cy="16" r="16" fill="#9A2929"/>
<path d="M12.889 20H9C8.73478 20 8.48043 19.8947 8.29289 19.7071C8.10536 19.5196 8 19.2652 8 19V13C8 12.7348 8.10536 12.4805 8.29289 12.2929C8.48043 12.1054 8.73478 12 9 12H12.889L18.183 7.66802C18.2563 7.60797 18.3451 7.56996 18.4391 7.55841C18.5331 7.54687 18.6284 7.56227 18.714 7.60282C18.7996 7.64337 18.872 7.7074 18.9226 7.78745C18.9732 7.86751 19.0001 7.9603 19 8.05502V23.945C19.0001 24.0397 18.9732 24.1325 18.9226 24.2126C18.872 24.2926 18.7996 24.3567 18.714 24.3972C18.6284 24.4378 18.5331 24.4532 18.4391 24.4416C18.3451 24.4301 18.2563 24.3921 18.183 24.332L12.89 20H12.889ZM22.863 20.591L21.441 19.169C21.9265 18.7957 22.3196 18.3158 22.5899 17.7663C22.8602 17.2167 23.0006 16.6124 23 16C23 14.57 22.25 13.315 21.12 12.608L22.559 11.169C23.3165 11.7262 23.9321 12.4539 24.3562 13.2931C24.7802 14.1324 25.0008 15.0597 25 16C25 17.842 24.17 19.49 22.863 20.591Z" fill="white"/>
</svg>
