<svg width="32" height="32" viewBox="0 0 32 32" fill="none" xmlns="http://www.w3.org/2000/svg">
<circle cx="16" cy="16" r="16" fill="#9A2929"/>
<path d="M18.6473 4.91626H13.6621V6.61081H18.6473V4.91626Z" fill="white"/>
<path d="M22.4012 7.59935L23.5449 8.70081L21.9614 10.2259C17.9439 7.11923 12.079 7.71232 8.85332 11.5815C5.62763 15.4508 6.24344 21.0993 10.2609 24.206C14.2783 27.3126 20.1432 26.7195 23.3689 22.8503C26.1841 19.4895 26.1254 14.6882 23.2223 11.4121L24.7765 9.91524L25.9202 11.0167L27.1518 9.83051L23.6329 6.44141L22.4012 7.59935ZM18.0319 19.0093C17.0642 20.0543 15.3927 20.1673 14.3077 19.2353C13.2227 18.3033 13.1054 16.6934 14.0731 15.6202L12.255 12.7112L13.7798 11.8357L15.5686 14.7165C16.9762 14.3776 18.4131 15.2248 18.765 16.5805C18.9703 17.456 18.7063 18.388 18.0319 19.0093Z" fill="white"/>
<path d="M16.1547 16.3545C15.6562 16.3545 15.275 16.7499 15.3043 17.23C15.3336 17.7101 15.7149 18.0773 16.2134 18.049C16.7119 18.049 17.0931 17.6536 17.0638 17.1735C17.0638 16.9476 16.9758 16.7499 16.7999 16.6087C16.6239 16.4392 16.3893 16.3545 16.1547 16.3545Z" fill="white"/>
</svg>
