<?xml version="1.0" encoding="utf-8"?>
<!-- Generator: Adobe Illustrator 24.2.0, SVG Export Plug-In . SVG Version: 6.00 Build 0)  -->
<svg version="1.1" id="Layer_1" xmlns="http://www.w3.org/2000/svg" xmlns:xlink="http://www.w3.org/1999/xlink" x="0px" y="0px"
	 viewBox="0 0 51 43" style="enable-background:new 0 0 51 43;" xml:space="preserve">
<style type="text/css">
	.st0{fill:#AB78FF;}
</style>
<g>
	<path class="st0" d="M34.2,15.3c-0.4-0.5-1.1-0.5-1.6-0.1l-1.1,1.2c-0.4,0.4-0.4,1-0.1,1.4c0.9,1.1,1.3,2.4,1.3,3.9
		c0,1.4-0.5,2.7-1.3,3.9c-0.3,0.4-0.3,1,0.1,1.4l1.1,1.2c0.4,0.4,1.2,0.4,1.6-0.1c1.5-1.8,2.3-4,2.3-6.4S35.7,17.1,34.2,15.3z"/>
	<path class="st0" d="M43.4,21.7c0-4.5-1.8-8.7-4.8-11.9c-0.4-0.4-1.2-0.4-1.6,0.1L36,11.1c-0.4,0.4-0.4,1.1,0.1,1.5
		c2.4,2.5,3.7,5.8,3.7,9.2s-1.3,6.7-3.7,9.2c-0.4,0.4-0.4,1,0,1.5l1.1,1.2c0.4,0.5,1.1,0.5,1.6,0.1C41.7,30.4,43.4,26.1,43.4,21.7z"
		/>
	<path class="st0" d="M24.8,4.8l-8.5,9.3H9.7c-1,0-1.9,0.9-1.9,1.9v11.5c0,1,0.9,1.9,1.9,1.9h6.6l8.5,9.3c1.2,1.2,3.3,0.4,3.3-1.3
		V6.1C28.1,4.4,26,3.6,24.8,4.8z"/>
</g>
</svg>
