<?xml version="1.0" encoding="utf-8"?>
<!-- Generator: Adobe Illustrator 24.2.0, SVG Export Plug-In . SVG Version: 6.00 Build 0)  -->
<svg version="1.1" id="Layer_1" xmlns="http://www.w3.org/2000/svg" xmlns:xlink="http://www.w3.org/1999/xlink" x="0px" y="0px"
	 viewBox="0 0 51 43" style="enable-background:new 0 0 51 43;" xml:space="preserve">
<style type="text/css">
	.st0{fill:#FFFFFF;}
	.st1{fill:#AB78FF;}
	.st2{fill:#FFFFFF;stroke:#AB78FF;}
	.st3{fill:#F46E7A;}
</style>
<circle class="st0" cx="23.5" cy="19" r="7.5"/>
<path class="st1" d="M18,3.5v2.4h8V3.5H18z M21.2,6.7v1.6c0.3,0,0.5,0,0.8,0s0.5,0,0.8,0V6.7H21.2z M33.5,7.5L31.9,9l4.1,4.1
	l1.5-1.5L33.5,7.5z M22,9.1c-7.7,0-14,6.3-14,14s6.3,14,14,14s14-6.3,14-14C35.9,15.3,29.7,9.1,22,9.1z M32.9,11l-1,1
	c0.4,0.4,0.8,0.7,1.1,1.1l1-1L32.9,11z M22,13.5c0.4,0,0.8,0.4,0.8,0.8v6.5c0.9,0.3,1.6,1.2,1.6,2.3c0,1.3-1.1,2.4-2.4,2.4
	s-2.4-1.1-2.4-2.4c0-1,0.7-1.9,1.6-2.3v-6.5C21.2,13.8,21.5,13.5,22,13.5z M22,22.3c-0.4,0-0.8,0.4-0.8,0.8s0.4,0.8,0.8,0.8
	s0.8-0.4,0.8-0.8C22.8,22.6,22.4,22.3,22,22.3z"/>
<circle class="st2" cx="34.5" cy="31" r="8"/>
<rect x="35" y="27.5" class="st3" width="2" height="7"/>
<rect x="31" y="27.5" class="st3" width="2" height="7"/>
<path d="M48.6,4.1c0,0-0.5-0.5-1-0.5C34.8,4.5,24.4,14,19.1,28.8c-2.9-4.8-7.1-5.7-10-5.7c-1.9,0-3.3,0.5-3.3,0.5
	c-0.5,0-0.5,0.5-0.5,0.5c0,0.5,0,0.5,0.5,1c6.2,3.8,10,10.5,11.9,15.2c0.5,1,1,1.4,1.9,1.4s1.9-0.5,2.4-1.9C29.6,14,47.6,5,47.6,5
	C48.6,5,48.6,4.5,48.6,4.1z"/>
</svg>
