<?xml version="1.0" encoding="utf-8"?>
<!-- Generator: Adobe Illustrator 24.2.0, SVG Export Plug-In . SVG Version: 6.00 Build 0)  -->
<svg version="1.1" id="Layer_1" xmlns="http://www.w3.org/2000/svg" xmlns:xlink="http://www.w3.org/1999/xlink" x="0px" y="0px"
	 viewBox="0 0 50.5 62.2" style="enable-background:new 0 0 50.5 62.2;" xml:space="preserve">
<style type="text/css">
	.st0{fill:#FFFFFF;}
</style>
<g id="prefix__Group_321" transform="translate(-18.355 -12.705)">
	<path id="prefix__Path_72" class="st0" d="M60.6,32.2c-0.9,0-1.7-0.8-1.7-1.7c0-0.4,0.2-0.9,0.5-1.2l2.9-2.9c0.7-0.7,1.7-0.7,2.4,0
		c0.7,0.7,0.7,1.7,0,2.4l0,0l-2.9,2.9C61.4,32,61,32.2,60.6,32.2z"/>
	<path id="prefix__Path_73" class="st0" d="M43.6,74.9c-13.9,0-25.2-11.3-25.2-25.2s11.3-25.2,25.2-25.2s25.2,11.3,25.2,25.2
		c0,0,0,0,0,0C68.8,63.6,57.5,74.9,43.6,74.9z M43.6,27.8c-12.1,0-21.9,9.8-21.9,21.9s9.8,21.9,21.9,21.9s21.9-9.8,21.9-21.9
		C65.5,37.6,55.7,27.8,43.6,27.8L43.6,27.8z"/>
	<path id="prefix__Path_74" class="st0" d="M43.7,53.4c-0.9,0-1.7-0.7-1.7-1.7c0,0,0,0,0,0V35.6c0-0.9,0.7-1.7,1.7-1.7
		c0.9,0,1.7,0.7,1.7,1.7c0,0,0,0,0,0v16.1C45.3,52.6,44.6,53.4,43.7,53.4z"/>
	<path id="prefix__Path_75" class="st0" d="M51.8,22.3H33.4c-0.9,0-1.7-0.7-1.7-1.7v-6.3c0-0.9,0.7-1.7,1.7-1.7h18.5
		c0.9,0,1.7,0.7,1.7,1.7c0,0,0,0,0,0v6.3C53.5,21.6,52.8,22.3,51.8,22.3C51.9,22.3,51.8,22.3,51.8,22.3z M35.1,19h15.1v-2.9H35.1
		L35.1,19z"/>
</g>
</svg>
