<svg xmlns="http://www.w3.org/2000/svg" width="50.487" height="62.237" viewBox="0 0 50.487 62.237">
    <defs>
        <style>
            .prefix__cls-1{fill:#231f20}
        </style>
    </defs>
    <g id="prefix__Group_321" data-name="Group 321" transform="translate(-18.355 -12.705)">
        <path id="prefix__Path_72" d="M70.181 35.335A1.674 1.674 0 0 1 69 32.477l2.869-2.869a1.674 1.674 0 0 1 2.368 2.368l-2.869 2.869a1.67 1.67 0 0 1-1.187.49z" class="prefix__cls-1" data-name="Path 72" transform="translate(-9.628 -3.151)"/>
        <path id="prefix__Path_73" d="M43.6 77.733A25.244 25.244 0 1 1 68.842 52.49 25.272 25.272 0 0 1 43.6 77.733zm0-47.14a21.9 21.9 0 1 0 21.9 21.9 21.92 21.92 0 0 0-21.9-21.899z" class="prefix__cls-1" data-name="Path 73" transform="translate(0 -2.791)"/>
        <path id="prefix__Path_74" d="M49.277 58.436a1.674 1.674 0 0 1-1.677-1.675V40.632a1.674 1.674 0 1 1 3.348 0v16.129a1.675 1.675 0 0 1-1.671 1.675z" class="prefix__cls-1" data-name="Path 74" transform="translate(-5.615 -5.04)"/>
        <path id="prefix__Path_75" d="M55.021 22.339H36.558a1.674 1.674 0 0 1-1.674-1.674v-6.286a1.674 1.674 0 0 1 1.674-1.674h18.463a1.674 1.674 0 0 1 1.679 1.674v6.286a1.674 1.674 0 0 1-1.679 1.674zm-16.789-3.348h15.115v-2.937H38.232z" class="prefix__cls-1" data-name="Path 75" transform="translate(-3.173)"/>
    </g>
</svg>
