<?xml version="1.0" encoding="utf-8"?>
<!-- Generator: Adobe Illustrator 24.2.0, SVG Export Plug-In . SVG Version: 6.00 Build 0)  -->
<svg version="1.1" id="Layer_1" xmlns="http://www.w3.org/2000/svg" xmlns:xlink="http://www.w3.org/1999/xlink" x="0px" y="0px"
	 viewBox="0 0 142.2 80" style="enable-background:new 0 0 142.2 80;" xml:space="preserve">
<style type="text/css">
	.st0{fill:#212121;}
	.st1{opacity:0.2;fill:#FFFFFF;enable-background:new    ;}
	.st2{fill:#FFFFFF;}
	.st3{fill:#121212;}
	.st4{fill:#525252;}
	.st5{fill:#0060F6;}
</style>
<g>
	<rect class="st0" width="142.2" height="80"/>
	<g>
		<ellipse class="st1" cx="71.1" cy="34.8" rx="10.7" ry="10.7"/>
		<g>
			<path class="st2" d="M76.8,34.8L67.9,29c0,8.8,0,4.5,0,11.7L76.8,34.8z"/>
		</g>
	</g>
	<g>
		<rect y="64.6" class="st3" width="142.2" height="15.4"/>
		<g>
			<path class="st2" d="M14.2,72.3l-5.6-3.7c0,5.6,0,2.8,0,7.4L14.2,72.3z"/>
		</g>
		<g>
			<g>
				<path class="st2" d="M31.6,75.7l-2.2-1.5c0,2.2,0,1.1,0,2.9L31.6,75.7z"/>
			</g>
			<rect x="31.6" y="74.2" class="st2" width="0.4" height="2.9"/>
		</g>
		<g>
			<g>
				<path class="st2" d="M20.6,75.7l2.2,1.5c0-2.2,0-1.1,0-2.9L20.6,75.7z"/>
			</g>
			<rect x="20.2" y="74.2" class="st2" width="0.4" height="2.9"/>
		</g>
		<g>
			<rect x="20" y="68.9" class="st4" width="93.1" height="0.9"/>
			<rect x="20" y="68.9" class="st5" width="27.6" height="0.9"/>
			<g>
				<path class="st3" d="M48.8,69.4c0,0.6-0.5,1.2-1.2,1.2c-0.6,0-1.2-0.5-1.2-1.2c0-0.6,0.5-1.2,1.2-1.2
					C48.3,68.1,48.8,68.7,48.8,69.4z"/>
				<path class="st5" d="M47.7,70.9c-0.9,0-1.6-0.7-1.6-1.6c0-0.9,0.7-1.6,1.6-1.6c0.9,0,1.6,0.7,1.6,1.6
					C49.2,70.2,48.5,70.9,47.7,70.9z M47.7,68.5c-0.4,0-0.8,0.3-0.8,0.8c0,0.4,0.3,0.8,0.8,0.8s0.8-0.3,0.8-0.8
					C48.4,68.9,48.1,68.5,47.7,68.5z"/>
			</g>
		</g>
		<g>
			<g>
				<g>
					<path class="st2" d="M40.3,74.2l-1.4,1v0.9l1.4,1C40.3,75,40.3,76,40.3,74.2z"/>
				</g>
				<rect x="38.6" y="75" class="st2" width="0.7" height="1.4"/>
			</g>
			<g>
				<g>
					<path class="st2" d="M41.2,77.1c-0.1,0-0.1,0-0.2-0.1c0-0.1,0-0.2,0.1-0.2c0.1,0,0.3-0.1,0.4-0.3c0.1-0.1,0.2-0.2,0.3-0.4
						c0-0.1,0.1-0.3,0.1-0.5s0-0.3-0.1-0.5c0-0.1-0.1-0.3-0.3-0.4c-0.1-0.1-0.2-0.2-0.4-0.3c-0.1,0-0.1-0.1-0.1-0.2
						c0-0.1,0.1-0.1,0.2-0.1c0.2,0.1,0.3,0.2,0.5,0.3c0.1,0.1,0.3,0.3,0.3,0.5c0.1,0.2,0.1,0.4,0.1,0.6c0,0.2,0,0.4-0.1,0.6
						c-0.1,0.2-0.2,0.3-0.3,0.5C41.6,76.9,41.4,77,41.2,77.1C41.2,77.1,41.2,77.1,41.2,77.1z"/>
				</g>
				<g>
					<path class="st2" d="M40.9,76.4c0,0-0.1,0-0.1-0.1c0-0.1,0-0.2,0.1-0.2c0,0,0.1,0,0.1-0.1c0,0,0.1-0.1,0.1-0.1c0,0,0-0.1,0-0.2
						c0,0,0-0.1,0-0.2c0,0,0-0.1-0.1-0.1c0,0-0.1-0.1-0.1-0.1c-0.1,0-0.1-0.1-0.1-0.2c0-0.1,0.1-0.1,0.2-0.1c0.1,0,0.2,0.1,0.3,0.2
						c0.1,0.1,0.1,0.2,0.2,0.3c0,0.1,0,0.2,0,0.3c0,0.1,0,0.2,0,0.3s-0.1,0.2-0.2,0.3C41.2,76.4,41.1,76.4,40.9,76.4
						C40.9,76.4,40.9,76.4,40.9,76.4z"/>
				</g>
			</g>
		</g>
		<g>
			<polygon class="st2" points="135.1,77 134.3,77 134.3,77.4 135.5,77.4 135.5,76.2 135.1,76.2 			"/>
			<polygon class="st2" points="132.4,76.2 132,76.2 132,77.4 133.2,77.4 133.2,77 132.4,77 			"/>
			<polygon class="st2" points="132,75.2 132.4,75.2 132.4,74.3 133.2,74.3 133.2,73.9 132,73.9 			"/>
			<polygon class="st2" points="134.3,73.9 134.3,74.3 135.1,74.3 135.1,75.2 135.5,75.2 135.5,73.9 			"/>
		</g>
		<path class="st2" d="M126.5,75.4c0.2,0,0.3,0,0.5,0v0.7c-0.2,0-0.3,0-0.5,0l-0.2,0.6c0.1,0.1,0.3,0.2,0.4,0.3l-0.5,0.5
			c-0.1-0.1-0.2-0.3-0.3-0.4l-0.6,0.2c0,0.2,0,0.3,0,0.5h-0.7c0-0.2,0-0.3,0-0.5l-0.6-0.2c-0.1,0.1-0.2,0.3-0.3,0.4l-0.5-0.5
			c0.1-0.1,0.3-0.2,0.4-0.3l-0.2-0.6c-0.2,0-0.3,0-0.5,0v-0.7c0.2,0,0.3,0,0.5,0l0.2-0.6c-0.1-0.1-0.3-0.2-0.4-0.3l0.5-0.5
			c0.1,0.1,0.2,0.3,0.3,0.4l0.6-0.2c0-0.2,0-0.3,0-0.5h0.7c0,0.2,0,0.3,0,0.5l0.6,0.2c0.1-0.1,0.2-0.3,0.3-0.4l0.5,0.5
			c-0.1,0.1-0.3,0.2-0.4,0.3L126.5,75.4z M125,74.8c-0.5,0-0.9,0.4-0.9,0.9c0,0.5,0.4,0.9,0.9,0.9c0.5,0,0.9-0.4,0.9-0.9
			C125.9,75.2,125.4,74.8,125,74.8z"/>
		<g>
			<path class="st2" d="M118.1,70.2c-0.1-0.1-0.2-0.2-0.3-0.3c-0.1-0.2-0.1-0.3-0.1-0.6c0-0.2,0-0.4,0.1-0.6
				c0.1-0.2,0.2-0.3,0.3-0.3c0.1-0.1,0.3-0.1,0.4-0.1s0.3,0,0.4,0.1c0.1,0.1,0.2,0.2,0.3,0.3c0.1,0.2,0.1,0.3,0.1,0.6
				c0,0.2,0,0.4-0.1,0.6c-0.1,0.2-0.2,0.3-0.3,0.3c-0.1,0.1-0.3,0.1-0.4,0.1S118.2,70.3,118.1,70.2z M118.8,69.8
				c0.1-0.1,0.1-0.3,0.1-0.6c0-0.3,0-0.4-0.1-0.6c-0.1-0.1-0.2-0.2-0.3-0.2s-0.3,0-0.3,0.2c-0.1,0.1-0.1,0.3-0.1,0.6
				c0,0.3,0,0.4,0.1,0.6c0.1,0.1,0.2,0.2,0.3,0.2C118.6,70,118.7,70,118.8,69.8z"/>
			<path class="st2" d="M120.9,69.3c0.1,0.1,0.1,0.3,0.1,0.4c0,0.1,0,0.2-0.1,0.3c0,0.1-0.2,0.2-0.3,0.2c-0.1,0-0.3,0.1-0.4,0.1
				c-0.1,0-0.3,0-0.4,0s-0.3-0.1-0.3-0.2l0.2-0.3c0.1,0,0.2,0.1,0.3,0.1c0.1,0,0.2,0,0.3,0c0.1,0,0.3,0,0.3-0.1
				c0.1,0,0.1-0.1,0.1-0.2s0-0.2-0.1-0.2c-0.1,0-0.2-0.1-0.3-0.1H120v-0.3l0.5-0.6h-0.9v-0.3h1.4v0.3l-0.5,0.6
				C120.6,69.1,120.8,69.2,120.9,69.3z"/>
			<path class="st2" d="M121.4,69.1c0,0-0.1-0.1-0.1-0.2s0-0.1,0.1-0.2c0,0,0.1-0.1,0.2-0.1c0.1,0,0.1,0,0.2,0.1
				c0,0,0.1,0.1,0.1,0.2s0,0.1-0.1,0.2c0,0-0.1,0.1-0.2,0.1C121.5,69.2,121.4,69.2,121.4,69.1z M121.4,70.3c0,0-0.1-0.1-0.1-0.2
				s0-0.1,0.1-0.2c0,0,0.1-0.1,0.2-0.1c0.1,0,0.1,0,0.2,0.1c0,0,0.1,0.1,0.1,0.2s0,0.1-0.1,0.2s-0.1,0.1-0.2,0.1
				C121.5,70.3,121.4,70.3,121.4,70.3z"/>
			<path class="st2" d="M123.9,69.9h-0.3v0.5h-0.4v-0.5H122v-0.3l1-1.3h0.4l-0.9,1.3h0.7v-0.4h0.3v0.4h0.3L123.9,69.9L123.9,69.9z"
				/>
			<path class="st2" d="M125.4,68.3v0.3l-0.8,1.8h-0.4l0.8-1.7h-0.8V69h-0.3v-0.7H125.4z"/>
			<path class="st2" d="M127.2,67.8h0.3l-1,2.8h-0.3L127.2,67.8z"/>
			<path class="st2" d="M129.1,68.3v2.1h-0.4v-1.7h-0.4v-0.3L129.1,68.3L129.1,68.3z"/>
			<path class="st2" d="M130,70.2c-0.1-0.1-0.2-0.2-0.3-0.3c-0.1-0.2-0.1-0.3-0.1-0.6c0-0.2,0-0.4,0.1-0.6c0.1-0.2,0.2-0.3,0.3-0.3
				c0.1-0.1,0.3-0.1,0.4-0.1s0.3,0,0.4,0.1c0.1,0.1,0.2,0.2,0.3,0.3c0.1,0.2,0.1,0.3,0.1,0.6c0,0.2,0,0.4-0.1,0.6
				c-0.1,0.2-0.2,0.3-0.3,0.3c-0.1,0.1-0.3,0.1-0.4,0.1S130.1,70.3,130,70.2z M130.7,69.8c0.1-0.1,0.1-0.3,0.1-0.6
				c0-0.3,0-0.4-0.1-0.6s-0.2-0.2-0.3-0.2s-0.3,0-0.3,0.2c-0.1,0.1-0.1,0.3-0.1,0.6c0,0.3,0,0.4,0.1,0.6c0.1,0.1,0.2,0.2,0.3,0.2
				C130.5,70,130.6,70,130.7,69.8z"/>
			<path class="st2" d="M131.6,69.1c0,0-0.1-0.1-0.1-0.2s0-0.1,0.1-0.2c0,0,0.1-0.1,0.2-0.1c0.1,0,0.1,0,0.2,0.1
				c0,0,0.1,0.1,0.1,0.2s0,0.1-0.1,0.2c0,0-0.1,0.1-0.2,0.1C131.7,69.2,131.6,69.2,131.6,69.1z M131.6,70.3c0,0-0.1-0.1-0.1-0.2
				s0-0.1,0.1-0.2c0,0,0.1-0.1,0.2-0.1c0.1,0,0.1,0,0.2,0.1c0,0,0.1,0.1,0.1,0.2s0,0.1-0.1,0.2s-0.1,0.1-0.2,0.1
				C131.7,70.3,131.6,70.3,131.6,70.3z"/>
			<path class="st2" d="M132.6,70.2c-0.1-0.1-0.2-0.2-0.3-0.3c-0.1-0.2-0.1-0.3-0.1-0.6c0-0.2,0-0.4,0.1-0.6
				c0.1-0.2,0.2-0.3,0.3-0.3c0.1-0.1,0.3-0.1,0.4-0.1s0.3,0,0.4,0.1c0.1,0.1,0.2,0.2,0.3,0.3c0.1,0.2,0.1,0.3,0.1,0.6
				c0,0.2,0,0.4-0.1,0.6c-0.1,0.2-0.2,0.3-0.3,0.3c-0.1,0.1-0.3,0.1-0.4,0.1C132.9,70.3,132.8,70.3,132.6,70.2z M133.4,69.8
				c0.1-0.1,0.1-0.3,0.1-0.6c0-0.3,0-0.4-0.1-0.6c-0.1-0.1-0.2-0.2-0.3-0.2s-0.3,0-0.3,0.2c-0.1,0.1-0.1,0.3-0.1,0.6
				c0,0.3,0,0.4,0.1,0.6s0.2,0.2,0.3,0.2C133.2,70,133.4,70,133.4,69.8z"/>
			<path class="st2" d="M134.7,70.2c-0.1-0.1-0.2-0.2-0.3-0.3c-0.1-0.2-0.1-0.3-0.1-0.6c0-0.2,0-0.4,0.1-0.6
				c0.1-0.2,0.2-0.3,0.3-0.3c0.1-0.1,0.3-0.1,0.4-0.1s0.3,0,0.4,0.1c0.1,0.1,0.2,0.2,0.3,0.3c0.1,0.2,0.1,0.3,0.1,0.6
				c0,0.2,0,0.4-0.1,0.6c-0.1,0.2-0.2,0.3-0.3,0.3c-0.1,0.1-0.3,0.1-0.4,0.1S134.8,70.3,134.7,70.2z M135.4,69.8
				c0.1-0.1,0.1-0.3,0.1-0.6c0-0.3,0-0.4-0.1-0.6c-0.1-0.1-0.2-0.2-0.3-0.2s-0.3,0-0.3,0.2c-0.1,0.1-0.1,0.3-0.1,0.6
				c0,0.3,0,0.4,0.1,0.6c0.1,0.1,0.2,0.2,0.3,0.2C135.2,70,135.3,70,135.4,69.8z"/>
		</g>
	</g>
</g>
</svg>
