<?xml version="1.0" encoding="utf-8"?>
<!-- Generator: Adobe Illustrator 24.2.0, SVG Export Plug-In . SVG Version: 6.00 Build 0)  -->
<svg version="1.1" id="Layer_1" xmlns="http://www.w3.org/2000/svg" xmlns:xlink="http://www.w3.org/1999/xlink" x="0px" y="0px"
	 viewBox="0 0 15 15" style="enable-background:new 0 0 15 15;" xml:space="preserve">
<style type="text/css">
	.st0{fill:#CC003F;}
</style>
<path class="st0" d="M8.9,7.5L13.4,3c0.4-0.4,0.4-1,0-1.4s-1-0.4-1.4,0L7.5,6.1L3,1.6c-0.4-0.4-1-0.4-1.4,0s-0.4,1,0,1.4l4.5,4.5
	L1.6,12c-0.4,0.4-0.4,1,0,1.4c0.2,0.2,0.5,0.3,0.7,0.3s0.5-0.1,0.7-0.3l4.5-4.5l4.5,4.5c0.2,0.2,0.5,0.3,0.7,0.3s0.5-0.1,0.7-0.3
	c0.4-0.4,0.4-1,0-1.4L8.9,7.5z"/>
</svg>
