<?xml version="1.0" encoding="utf-8"?>
<!-- Generator: Adobe Illustrator 24.2.0, SVG Export Plug-In . SVG Version: 6.00 Build 0)  -->
<svg version="1.1" id="Layer_1" xmlns="http://www.w3.org/2000/svg" xmlns:xlink="http://www.w3.org/1999/xlink" x="0px" y="0px"
	 viewBox="0 0 3 3" style="enable-background:new 0 0 3 3;" xml:space="preserve">
<style type="text/css">
	.st0{fill:url(#SVGID_1_);}
	.st1{fill:url(#SVGID_2_);}
	.st2{fill:url(#SVGID_3_);}
	.st3{fill:url(#SVGID_4_);}
	.st4{fill:url(#SVGID_5_);}
	.st5{fill:url(#SVGID_6_);}
	.st6{fill:url(#SVGID_7_);}
	.st7{fill:url(#SVGID_8_);}
</style>
<g>
	<linearGradient id="SVGID_1_" gradientUnits="userSpaceOnUse" x1="1.0197" y1="2.3656" x2="1.9714" y2="2.3656">
		<stop  offset="0" style="stop-color:#DA0000"/>
		<stop  offset="8.967442e-02" style="stop-color:#E61014"/>
		<stop  offset="0.2424" style="stop-color:#F82832"/>
		<stop  offset="0.3293" style="stop-color:#FF313D"/>
		<stop  offset="0.3565" style="stop-color:#FE404A"/>
		<stop  offset="0.4196" style="stop-color:#FB5C63"/>
		<stop  offset="0.4745" style="stop-color:#FA6E73"/>
		<stop  offset="0.5146" style="stop-color:#F97478"/>
		<stop  offset="0.6707" style="stop-color:#FF313D"/>
		<stop  offset="0.6918" style="stop-color:#FA2C37"/>
		<stop  offset="0.8148" style="stop-color:#DE141B"/>
		<stop  offset="0.9217" style="stop-color:#CD0509"/>
		<stop  offset="1" style="stop-color:#C70003"/>
	</linearGradient>
	<path class="st0" d="M2,2c0,0.4-0.8,0.6-1,0.9V2.7C1.1,2.4,1.8,2.2,2,1.9c0,0,0,0,0-0.1L2,2L2,2z"/>
	<linearGradient id="SVGID_2_" gradientUnits="userSpaceOnUse" x1="0.7149" y1="1.2689" x2="3.0072" y2="1.5847">
		<stop  offset="0" style="stop-color:#DA0000"/>
		<stop  offset="8.967442e-02" style="stop-color:#E61014"/>
		<stop  offset="0.2424" style="stop-color:#F82832"/>
		<stop  offset="0.3293" style="stop-color:#FF313D"/>
		<stop  offset="0.3565" style="stop-color:#FE404A"/>
		<stop  offset="0.4196" style="stop-color:#FB5C63"/>
		<stop  offset="0.4745" style="stop-color:#FA6E73"/>
		<stop  offset="0.5146" style="stop-color:#F97478"/>
		<stop  offset="0.6707" style="stop-color:#FF313D"/>
		<stop  offset="0.6918" style="stop-color:#FA2C37"/>
		<stop  offset="0.8148" style="stop-color:#DE141B"/>
		<stop  offset="0.9217" style="stop-color:#CD0509"/>
		<stop  offset="1" style="stop-color:#C70003"/>
	</linearGradient>
	<path class="st1" d="M1.7,1.3C1.5,1.4,1.3,1.5,1.1,1.4C1,1.4,1,1.4,1,1.4C1,1.3,1.4,1.2,1.7,1.3z"/>
	<linearGradient id="SVGID_3_" gradientUnits="userSpaceOnUse" x1="0.9745" y1="0.6477" x2="2.6046" y2="0.8006">
		<stop  offset="0" style="stop-color:#DA0000"/>
		<stop  offset="8.967442e-02" style="stop-color:#E61014"/>
		<stop  offset="0.2424" style="stop-color:#F82832"/>
		<stop  offset="0.3293" style="stop-color:#FF313D"/>
		<stop  offset="0.3565" style="stop-color:#FE404A"/>
		<stop  offset="0.4196" style="stop-color:#FB5C63"/>
		<stop  offset="0.4745" style="stop-color:#FA6E73"/>
		<stop  offset="0.5146" style="stop-color:#F97478"/>
		<stop  offset="0.6707" style="stop-color:#FF313D"/>
		<stop  offset="0.6918" style="stop-color:#FA2C37"/>
		<stop  offset="0.8148" style="stop-color:#DE141B"/>
		<stop  offset="0.9217" style="stop-color:#CD0509"/>
		<stop  offset="1" style="stop-color:#C70003"/>
	</linearGradient>
	<path class="st2" d="M1.6,0.7C1.5,0.7,1.3,0.7,1.2,0.7c-0.1,0-0.1,0-0.1,0v0C1.1,0.6,1.4,0.6,1.6,0.7z"/>
	<linearGradient id="SVGID_4_" gradientUnits="userSpaceOnUse" x1="0.9539" y1="0.8668" x2="2.584" y2="1.0197">
		<stop  offset="0" style="stop-color:#DA0000"/>
		<stop  offset="8.967442e-02" style="stop-color:#E61014"/>
		<stop  offset="0.2424" style="stop-color:#F82832"/>
		<stop  offset="0.3293" style="stop-color:#FF313D"/>
		<stop  offset="0.3565" style="stop-color:#FE404A"/>
		<stop  offset="0.4196" style="stop-color:#FB5C63"/>
		<stop  offset="0.4745" style="stop-color:#FA6E73"/>
		<stop  offset="0.5146" style="stop-color:#F97478"/>
		<stop  offset="0.6707" style="stop-color:#FF313D"/>
		<stop  offset="0.6918" style="stop-color:#FA2C37"/>
		<stop  offset="0.8148" style="stop-color:#DE141B"/>
		<stop  offset="0.9217" style="stop-color:#CD0509"/>
		<stop  offset="1" style="stop-color:#C70003"/>
	</linearGradient>
	<path class="st3" d="M1.9,1L1.9,1C1.9,1,1.9,1.1,1.9,1c0,0.1,0,0.1,0,0.1C1.9,1.1,1.9,1.1,1.9,1C1.8,1,1.7,0.9,1.6,0.9
		c0.1,0,0.1-0.1,0.2-0.1c0,0,0,0,0.1,0.1C1.9,0.9,1.9,0.9,1.9,1L1.9,1C1.9,1,1.9,1,1.9,1z"/>
	<linearGradient id="SVGID_5_" gradientUnits="userSpaceOnUse" x1="1.2754" y1="0.1511" x2="2.2942" y2="0.2938">
		<stop  offset="0" style="stop-color:#DA0000"/>
		<stop  offset="8.967442e-02" style="stop-color:#E61014"/>
		<stop  offset="0.2424" style="stop-color:#F82832"/>
		<stop  offset="0.3293" style="stop-color:#FF313D"/>
		<stop  offset="0.3565" style="stop-color:#FE404A"/>
		<stop  offset="0.4196" style="stop-color:#FB5C63"/>
		<stop  offset="0.4745" style="stop-color:#FA6E73"/>
		<stop  offset="0.5146" style="stop-color:#F97478"/>
		<stop  offset="0.6707" style="stop-color:#FF313D"/>
		<stop  offset="0.6918" style="stop-color:#FA2C37"/>
		<stop  offset="0.8148" style="stop-color:#DE141B"/>
		<stop  offset="0.9217" style="stop-color:#CD0509"/>
		<stop  offset="1" style="stop-color:#C70003"/>
	</linearGradient>
	<path class="st4" d="M2,0.3L2,0.3c0,0,0,0.1,0,0.1c0,0-0.1-0.1-0.2-0.1V0.1C1.9,0.1,2,0.2,2,0.3z"/>
	<linearGradient id="SVGID_6_" gradientUnits="userSpaceOnUse" x1="0.6837" y1="1.4957" x2="2.9759" y2="1.8115">
		<stop  offset="0" style="stop-color:#DA0000"/>
		<stop  offset="8.967442e-02" style="stop-color:#E61014"/>
		<stop  offset="0.2424" style="stop-color:#F82832"/>
		<stop  offset="0.3293" style="stop-color:#FF313D"/>
		<stop  offset="0.3565" style="stop-color:#FE404A"/>
		<stop  offset="0.4196" style="stop-color:#FB5C63"/>
		<stop  offset="0.4745" style="stop-color:#FA6E73"/>
		<stop  offset="0.5146" style="stop-color:#F97478"/>
		<stop  offset="0.6707" style="stop-color:#FF313D"/>
		<stop  offset="0.6918" style="stop-color:#FA2C37"/>
		<stop  offset="0.8148" style="stop-color:#DE141B"/>
		<stop  offset="0.9217" style="stop-color:#CD0509"/>
		<stop  offset="1" style="stop-color:#C70003"/>
	</linearGradient>
	<path class="st5" d="M2,1.8C2,1.8,2,1.8,2,1.8C1.9,1.9,1.9,1.8,2,1.8C1.9,1.7,1.8,1.6,1.7,1.6c0.1,0,0.1-0.1,0.1-0.1
		c0,0,0.1,0.1,0.1,0.2C2,1.7,2,1.7,2,1.8L2,1.8C2,1.7,2,1.8,2,1.8z"/>
	<linearGradient id="SVGID_7_" gradientUnits="userSpaceOnUse" x1="1.0855" y1="0.6183" x2="1.99" y2="0.6183">
		<stop  offset="0" style="stop-color:#DA0000"/>
		<stop  offset="8.967442e-02" style="stop-color:#E61014"/>
		<stop  offset="0.2424" style="stop-color:#F82832"/>
		<stop  offset="0.3293" style="stop-color:#FF313D"/>
		<stop  offset="0.3565" style="stop-color:#FE404A"/>
		<stop  offset="0.4196" style="stop-color:#FB5C63"/>
		<stop  offset="0.4745" style="stop-color:#FA6E73"/>
		<stop  offset="0.5146" style="stop-color:#F97478"/>
		<stop  offset="0.6707" style="stop-color:#FF313D"/>
		<stop  offset="0.6918" style="stop-color:#FA2C37"/>
		<stop  offset="0.8148" style="stop-color:#DE141B"/>
		<stop  offset="0.9217" style="stop-color:#CD0509"/>
		<stop  offset="1" style="stop-color:#C70003"/>
	</linearGradient>
	<path class="st6" d="M2,0.3v0.2c0,0.1-0.1,0.2-0.2,0.3c-0.1,0-0.1,0.1-0.2,0.1C1.5,0.9,1.3,1,1.2,0.9c-0.1,0-0.1,0-0.1,0V0.7
		c0,0,0,0,0.1,0c0.1,0,0.3,0,0.4-0.1C1.8,0.6,1.9,0.5,2,0.4C2,0.4,2,0.3,2,0.3z"/>
	<linearGradient id="SVGID_8_" gradientUnits="userSpaceOnUse" x1="0.9992" y1="1.3363" x2="1.935" y2="1.3363">
		<stop  offset="0" style="stop-color:#DA0000"/>
		<stop  offset="8.967442e-02" style="stop-color:#E61014"/>
		<stop  offset="0.2424" style="stop-color:#F82832"/>
		<stop  offset="0.3293" style="stop-color:#FF313D"/>
		<stop  offset="0.3565" style="stop-color:#FE404A"/>
		<stop  offset="0.4196" style="stop-color:#FB5C63"/>
		<stop  offset="0.4745" style="stop-color:#FA6E73"/>
		<stop  offset="0.5146" style="stop-color:#F97478"/>
		<stop  offset="0.6707" style="stop-color:#FF313D"/>
		<stop  offset="0.6918" style="stop-color:#FA2C37"/>
		<stop  offset="0.8148" style="stop-color:#DE141B"/>
		<stop  offset="0.9217" style="stop-color:#CD0509"/>
		<stop  offset="1" style="stop-color:#C70003"/>
	</linearGradient>
	<path class="st7" d="M1.9,1v0.2c0,0.1,0,0.2-0.1,0.2c0,0-0.1,0.1-0.1,0.1C1.5,1.6,1.3,1.7,1.1,1.6C1,1.6,1,1.6,1,1.6V1.4
		c0,0,0,0,0.1,0.1c0.2,0,0.4,0,0.5-0.1C1.8,1.3,1.9,1.2,1.9,1C1.9,1.1,1.9,1.1,1.9,1C1.9,1.1,1.9,1,1.9,1z"/>
</g>
</svg>
