<?xml version="1.0" encoding="utf-8"?>
<!-- Generator: Adobe Illustrator 24.2.0, SVG Export Plug-In . SVG Version: 6.00 Build 0)  -->
<svg version="1.1" id="Layer_1" xmlns="http://www.w3.org/2000/svg" xmlns:xlink="http://www.w3.org/1999/xlink" x="0px" y="0px"
	 viewBox="0 0 72 72" style="enable-background:new 0 0 72 72;" xml:space="preserve">
<style type="text/css">
	.st0{fill:#010101;}
</style>
<g>
	<path class="st0" d="M65.9,57.8h-1.2V20c0-0.5-0.4-0.9-0.9-0.9h-9.3c-0.5,0-0.9,0.4-0.9,0.9v37.8h-4.2V31.6c0-0.5-0.4-0.9-0.9-0.9
		H39c-0.5,0-0.9,0.4-0.9,0.9v12c0,0.5,0.4,0.9,0.9,0.9s0.9-0.4,0.9-0.9V32.6h7.4v25.2H40v-9.7c0-0.5-0.4-0.9-0.9-0.9
		s-0.9,0.4-0.9,0.9v9.7h-4.2v-32c0-0.5-0.4-0.9-0.9-0.9h-9.3c-0.5,0-0.9,0.4-0.9,0.9v32h-4.2V45.7c0-0.5-0.4-0.9-0.9-0.9
		c-0.5,0-0.9,0.4-0.9,0.9v12.1H9.3V38.3h7.4v3.4c0,0.5,0.4,0.9,0.9,0.9c0.5,0,0.9-0.4,0.9-0.9v-4.3c0-0.5-0.4-0.9-0.9-0.9H8.3
		c-0.5,0-0.9,0.4-0.9,0.9v20.4H6.1c-0.5,0-0.9,0.4-0.9,0.9v4.9c0,0.5,0.4,0.9,0.9,0.9h50.1c0.5,0,0.9-0.4,0.9-0.9s-0.4-0.9-0.9-0.9
		H7.1v-3h57.8v3H62c-0.5,0-0.9,0.4-0.9,0.9s0.4,0.9,0.9,0.9h3.8c0.5,0,0.9-0.4,0.9-0.9v-4.9C66.8,58.2,66.4,57.8,65.9,57.8z
		 M24.6,57.8v-31H32v31H24.6z M55.3,57.8V21h7.4v36.8H55.3z"/>
	<path class="st0" d="M12.6,34.8c2.7,0,4.9-2.2,5-4.9c0-0.9-0.2-1.8-0.7-2.6l8-6c1.9,1.9,5.1,1.9,7,0c0.6-0.6,1-1.2,1.2-2l5.7,3.5
		c0,0.1,0,0.2,0,0.4c0,2.7,2.2,4.9,5,4.9c2.7,0,4.9-2.2,4.9-5c0-0.5-0.1-1-0.2-1.5l7.3-5.5c2,1.9,5.2,1.8,7-0.2s1.8-5.2-0.2-7
		S57.3,7,55.4,9c-1.4,1.5-1.7,3.7-0.9,5.5L47.5,20c-1.8-2.1-4.9-2.4-6.9-0.6c-0.5,0.4-0.9,1-1.2,1.6l-6.1-3.7
		c-0.3-2.7-2.7-4.7-5.4-4.4c-2.7,0.3-4.7,2.7-4.4,5.4c0.1,0.5,0.2,1,0.4,1.4l-8.2,6.2c-2.2-1.7-5.3-1.3-6.9,0.9s-1.3,5.3,0.9,6.9
		C10.4,34.4,11.5,34.8,12.6,34.8z M59,9.4c1.7,0,3.1,1.4,3.1,3.1c0,1.7-1.4,3.1-3.1,3.1c-1.7,0-3.1-1.4-3.1-3.1
		C56,10.8,57.3,9.4,59,9.4C59,9.4,59,9.4,59,9.4L59,9.4z M43.7,20.1c1.7,0,3.1,1.4,3.1,3.1c0,1.7-1.4,3.1-3.1,3.1
		c-1.7,0-3.1-1.4-3.1-3.1C40.6,21.4,42,20.1,43.7,20.1z M28.3,14.7c1.7,0,3.1,1.4,3.1,3.1s-1.4,3.1-3.1,3.1s-3.1-1.4-3.1-3.1v0
		C25.3,16.1,26.6,14.7,28.3,14.7z M12.6,26.7c1.7,0,3.1,1.4,3.1,3.1s-1.4,3.1-3.1,3.1c-1.7,0-3.1-1.4-3.1-3.1c0,0,0,0,0,0
		C9.5,28.1,10.9,26.8,12.6,26.7z"/>
</g>
</svg>
