<?xml version="1.0" encoding="utf-8"?>
<!-- Generator: Adobe Illustrator 24.2.0, SVG Export Plug-In . SVG Version: 6.00 Build 0)  -->
<svg version="1.1" id="Layer_1" xmlns="http://www.w3.org/2000/svg" xmlns:xlink="http://www.w3.org/1999/xlink" x="0px" y="0px"
	 viewBox="0 0 72 72" style="enable-background:new 0 0 72 72;" xml:space="preserve">
<style type="text/css">
	.st0{fill:#010101;}
</style>
<g>
	<path class="st0" d="M15.9,21.8H5v2.9h10.8V21.8z M14.9,23.7H6v-1h8.8V23.7z"/>
	<path class="st0" d="M56.1,17.8v2.9H67v-2.9H56.1z M66,19.8h-8.8v-1H66V19.8z"/>
	<path class="st0" d="M5,55.7h8.8v-2.9H5V55.7z M6,53.7h6.9v1H6V53.7z"/>
	<path class="st0" d="M46.8,55.3c6.6-3.7,11.1-10.7,11.3-18.8h0V36v-0.5h0c0-0.3,0-0.7,0-1h2V34c0-5.3-1.9-10.3-5.2-14.2h0.8v-1H54
		c-2-2.1-4.5-3.9-7.3-5.1C44,12.5,41,11.9,38,11.9h-0.5v2c-0.3,0-0.7,0-1,0v0H36h-0.5v0c-7,0.2-13.2,3.6-17.2,8.8h-2v1h1.3
		c-2.3,3.4-3.6,7.4-3.7,11.8h0V36v0.5h0c0.1,5.1,2,9.8,5.1,13.6l-3.3,3.6h-1.3v1h1.7l3.5-3.8c2,2.2,4.4,4,7.2,5.2l0,0l0.5,0.2
		l0.5,0.2l0,0c2.6,1.1,5.4,1.6,8.3,1.6c3.6,0,6.9-0.9,9.9-2.4l2.8,3.3h8.8v-1h-8.4L46.8,55.3z M38.5,12.9c2.7,0.1,5.4,0.6,7.9,1.7
		c2.4,1,4.5,2.4,6.3,4.2h-2.9l-4,4.6c-0.3-0.1-0.6-0.2-0.9-0.2c-1.1,0-2,0.9-2,2s0.9,2,2,2s2-0.9,2-2c0-0.4-0.1-0.8-0.3-1.1l3.7-4.3
		h3.4c3.4,3.7,5.4,8.6,5.5,13.8H38.5V12.9z M45.8,25.2c0,0.5-0.4,1-1,1s-1-0.4-1-1c0-0.5,0.4-1,1-1S45.8,24.6,45.8,25.2z M37.5,14.9
		v19.6h19.6c0,0.3,0,0.7,0.1,1H36.7h-0.3V14.9C36.8,14.9,37.1,14.9,37.5,14.9z M18.8,23.7h2.5l3.7,4.8c-0.2,0.3-0.4,0.7-0.4,1.1
		c0,1.1,0.9,2,2,2s2-0.9,2-2s-0.9-2-2-2c-0.3,0-0.6,0.1-0.9,0.2l-4-5.1h-2.2c3.8-4.7,9.5-7.7,15.9-7.9v20.6H14.9
		C15,31.1,16.4,27.1,18.8,23.7z M26.7,28.6c0.5,0,1,0.4,1,1c0,0.5-0.4,1-1,1c-0.5,0-1-0.4-1-1C25.7,29.1,26.1,28.6,26.7,28.6z
		 M20.3,50.1l5.5-6c0.3,0.1,0.6,0.2,0.9,0.2c1.1,0,2-0.9,2-2c0-1.1-0.9-2-2-2s-2,0.9-2,2c0,0.4,0.1,0.8,0.3,1.1l-5.4,5.9
		c-2.9-3.6-4.7-8.1-4.8-12.9h20.4l-6.3,14.6l-1.8,4.1C24.5,54,22.2,52.2,20.3,50.1z M25.7,42.4c0-0.5,0.4-1,1-1c0.5,0,1,0.4,1,1
		c0,0.5-0.4,1-1,1C26.1,43.4,25.7,42.9,25.7,42.4z M36,57.1c-2.7,0-5.4-0.5-7.9-1.5l4.4-10.3l3.8-8.8h0.2h20.6
		c-0.2,7.8-4.6,14.5-11,18l-5.6-6.6c0.2-0.3,0.4-0.7,0.4-1.1c0-1.1-0.9-2-2-2c-1.1,0-2,0.9-2,2c0,1.1,0.9,2,2,2
		c0.3,0,0.6-0.1,0.9-0.2l5.5,6.4C42.5,56.4,39.3,57.1,36,57.1z M38.9,47.8c-0.5,0-1-0.4-1-1c0-0.5,0.4-1,1-1c0.5,0,1,0.4,1,1
		C39.9,47.4,39.5,47.8,38.9,47.8z"/>
	<path class="st0" d="M58.1,60.1H67v-2.9h-8.8V60.1z M59.1,58.1H66v1h-6.9V58.1z"/>
</g>
</svg>
