<?xml version="1.0" encoding="utf-8"?>
<!-- Generator: Adobe Illustrator 24.2.0, SVG Export Plug-In . SVG Version: 6.00 Build 0)  -->
<svg version="1.1" id="Layer_1" xmlns="http://www.w3.org/2000/svg" xmlns:xlink="http://www.w3.org/1999/xlink" x="0px" y="0px"
	 viewBox="0 0 320 306.2" style="enable-background:new 0 0 320 306.2;" xml:space="preserve">
<style type="text/css">
	.st0{fill:#80411C;}
	.st1{fill:#6E3516;}
	.st2{fill:#5D2B0E;}
	.st3{fill:#9E5B25;}
	.st4{fill:#B36428;}
	.st5{fill:#8F4D21;}
	.st6{fill:#915022;}
	.st7{fill:#A05124;}
	.st8{fill:#7B3A1A;}
	.st9{fill:#6F3516;}
	.st10{fill:#A05324;}
	.st11{fill:#EF7722;}
	.st12{fill:#F9A53F;}
	.st13{fill:#CB6828;}
	.st14{fill:#ED7523;}
	.st15{fill:#512E1A;}
	.st16{fill:#3C2415;}
	.st17{fill:#BCBEC0;}
	.st18{opacity:0.37;fill:#1092A0;}
	.st19{fill:#037C36;}
	.st20{fill:#016B2C;}
	.st21{opacity:0.31;fill:#22A4BA;}
	.st22{opacity:0.31;fill:#7CE0FC;}
	.st23{opacity:0.31;fill:#A7ECFC;}
	.st24{opacity:0.31;fill:#0A869B;}
	.st25{fill:#F1F2F2;}
	.st26{fill:#D1D3D4;}
</style>
<g>
	<path class="st0" d="M307.7,134.9l-4.5-1c-9.9-2.5-21.3-2.5-31.7-3c-23.1-1.1-45.3,2.3-66,11.2c-21.7,9.3-46.2,26.3-54.1,47.6
		c-5.5,14.9-9.7,32.2-7,48c2.8,16.7,12.8,33.3,12.6,50.2c10.6-2.1,18.7-13.3,29.8-16.6c0,0,8.5,4.9,19.4-3.4
		c14.8-11.3,29.7-24.4,47.2-28.7c19.4-4.8,27.2-23,37.5-28.5c8.4-17.3-2.3-20.9,5.8-33.8C306.8,160.8,302.1,148.7,307.7,134.9z"/>
	<path class="st1" d="M213.5,203.9c-3.1,7.9-3.4,23.7-5.7,31.8c-2.2,7.8-4.2,15.7-5.7,23.6c-0.5,2.9-1,5.7-1.2,8.6
		c-0.1,1.8,0.1,2.4,0.1,2.5c0.1,0.1,0.2,0.3,0.3,0.4c1.5-0.7,3.1-1.6,4.7-2.9c5.1-3.9,10.3-8.1,15.6-12c0.4-6.4,1.6-12.8,2.8-19.2
		c1.3-7.5,3.1-16.4-0.3-23.6C222.6,209.9,213.5,203.9,213.5,203.9z"/>
	<path class="st2" d="M218.4,258.4c0.8-5.4,1.9-10.8,2.8-16.2c1.4-8.6-5.2-23.8-7.2-31.2c-0.1,18.8-0.8,40.4-6.5,55.9
		C211.1,264.1,214.8,261.2,218.4,258.4z"/>
	<path class="st1" d="M273.5,199.9c-2.5,10.1-2.8,20.4-3.7,30.7c8.6-7.2,14.3-16.2,21-19.8c8.4-17.3-2.3-20.9,5.8-33.8
		c10.2-16.2,5.5-28.3,11-42.1l-4.5-1c-0.3-0.1-0.6-0.1-0.9-0.2c-6.1,3.1-12.1,6.4-17.9,10c4.2,0.1,8.1,1,12.2,2.2
		c4.5,1.3,5.5,5.9,3.3,8.7C295.3,171.7,277.8,182.7,273.5,199.9z"/>
	<path class="st2" d="M301.6,166.3c-5.2,8-11,15.5-17,23.1c-3.3,10.8-6.8,21.5-9.8,32.3c5.5-8.4,12-15.9,19.4-22.9
		c0.4-8.1-3.4-12.6,2.4-21.8C299,173.3,300.6,169.7,301.6,166.3z"/>
	<path class="st1" d="M155.6,205.4c-0.4,0.1-0.8,0.1-1.2,0c-0.9,19.8-1.2,39.7-1.9,59.5c2.5,7.6,4.5,15.3,4.4,23c5-1,9.4-4,13.9-7.2
		c-0.1-1.3-0.2-2.5-0.3-3.8c-0.4-5.9-0.7-12-2.9-17.6c-1.8-4.7-5.2-9.3-6.2-14.2c-3.3-16.5,3.7-30,14.8-42.1
		C169.5,204.1,162.6,204.6,155.6,205.4z"/>
	<path class="st1" d="M231.3,249.2c3.9-2.5,8-4.7,12.1-6.6c0.3-4.2,0.7-8.5,1.3-12.7c1.5-10.2,5.1-18.5,8.9-28.2
		c3.4-8.6,1.1-17.8,4.4-26.3c2.6-6.7,6.1-12.7,8.1-19.3c-4.5,2.3-10.1,3.7-14.7,3.7c-5.6-0.1-11.4-0.8-16.9,0.9c0.3-0.1-16,3.4-12,5
		c1.1,0.1,5.5,1.2,6.4,1.5c0.5,0.2,13.1-0.3,13.1-0.3c-9.2,19.3-7.2,47.7-9,68.2C232.6,240,232,244.6,231.3,249.2z"/>
	<path class="st2" d="M231.3,249.2c1-0.6,2-1.3,3-1.8c0.5-8.2,1.8-16.4,2.8-24.6c1.1-8.8,1.5-17.7,3.5-26.5
		c3.4-15,7.4-25.6,20.9-35.6c1.1-0.8,2.3-1.2,3.4-1.3c0.4-1,0.7-2.1,1.1-3.1c-4.5,2.3-10.1,3.7-14.7,3.7c-5.6-0.1-11.4-0.8-16.9,0.9
		c0.3-0.1-16,3.4-12,5c1.1,0.1,5.5,1.2,6.4,1.5c0.5,0.2,13.1-0.3,13.1-0.3c-9.2,19.3-7.2,47.7-9,68.2
		C232.6,240,232,244.6,231.3,249.2z"/>
	<path class="st1" d="M194.1,224.1c4.7-10.9,3.3-21.8,11.9-32.6c2-2.5,15.3-16,15.8-18.9c-9.6,3.1-37.5,19.5-42.9,27.4
		c1,8.8,1.9,17.6,1.7,26.5c-0.2,8.9-1.7,17.7-0.5,26.6c0.9,6.6,2.1,13.1,3,19.7c0.9-0.4,1.9-0.8,2.8-1.1c-0.5-7,1.5-13.7,2.8-20.7
		C190.5,241.6,190.3,233,194.1,224.1z"/>
	<path class="st2" d="M203.4,184.1c0.1-0.4,0.1-0.9,0.2-1.3c-9.6,3.1-19.3,9.3-24.6,17.2c1,8.8,1.9,17.6,1.7,26.5
		c-0.2,8.9-1.7,17.7-0.5,26.6c0.9,6.6,2.1,13.1,3,19.7c0.8-0.4,1.7-0.7,2.5-1c-0.8-16.5-1-32.9-0.3-49.4
		C186,206.5,194.4,196.9,203.4,184.1z"/>
	<path class="st3" d="M154.4,190.9c-8-19.3-40.8-36.5-60.9-44.8c-20.1-8.3-47.4-8.3-69.2-9.2c-5.9-0.2-10.6-0.5-15.8-2
		c0,15.4,0.6,31.9,8.8,45.1c3.4,5.4,7,26,14,37.7c4.8,7.9,9.6,6.1,17.2,8.8c11.9,4.2,17.8,19.1,38,28.8c7.2,3.5,11.7,12.4,26.7,16.7
		c8.6,2.5,19,0.8,19,0.8c8.7,3.1,9,10.2,24.6,15c0.5-15.3-1-31.1-1-47.4C155.9,225.8,160.1,204.6,154.4,190.9z"/>
	<path class="st0" d="M73.8,247.3c3.6,2.8,7.7,5.6,12.8,8.1c4.3,2.1,7.7,6.1,13,10c-3.8-8.3-7.4-16.6-9.8-25.3
		c-3.1-11.3-4.3-23.2-7.8-34.4c0,0.1,0,0.2-0.1,0.3c1.8,5.7,2.6,12.7,1.8,19.6C83.8,235.2,81.6,244,73.8,247.3z"/>
	<path class="st4" d="M155.5,207.6c-2.6-1.8-6.8-4.6-10.3-5.4c0,0.2,0.1,0.5,0.1,0.9c0.1,0.4,0.3,0.8,0.4,1.1
		c0.5,0.3,0.9,0.7,1.3,1.2c10.1,12.5,6,27.6,6.6,41.9c0.5,12.3,2.3,24.5,3.3,36.8c0.2-14.1-1.1-28.6-1.1-43.6c0-9.3,1.7-21.1,1.5-32
		C156.7,208.3,156.1,208,155.5,207.6z"/>
	<path class="st4" d="M144,281.5c-1-10.2-2.4-20.4-2.8-30.6c-0.2-4.7,0.3-9.8,0.5-14.9c-3-8.5-6-17-7.3-25.8
		c-2.5-6.2-4.7-13.2,0.3-16.7c1.3-0.9,2.7-1.6,4.1-2c-0.9-0.5-1.9-0.9-2.9-1.2c-3.7,1.9-7.8,3.1-12.1,3.8
		c7.3,17.8,10.5,36.5,10.2,55.3c0.1,0.2,0.2,0.4,0.2,0.5c1.1,3.2,0.3,7-0.5,10.3c0.1,0.3,0.1,0.6,0.1,0.9c0,4.2-0.2,8.2-0.8,12.1
		C137.7,275.2,139.9,278.3,144,281.5z"/>
	<path class="st4" d="M10.6,135.5c-0.7-0.2-1.3-0.3-2-0.5c0,15.4,0.6,31.9,8.8,45.1c3.4,5.4,7,26,14,37.7c2.8,4.6,5.6,5.9,8.9,6.7
		c-7.1-13-20.1-33-12.3-46.2c-4.5-2.8-11.3-10-11.3-10c0,1.2-3.2-7.7-3.8-17.3c-0.2-4.4-0.2-8.8,0.4-13.2
		C12.4,137.1,11.4,136.3,10.6,135.5z"/>
	<path class="st4" d="M62.9,237.3c0.4-6.9,0.9-13.7,1-20.6c0.1-15.7-7.7-30.8-1.1-46c-1.5-1.2-2.7-2.5-3.8-3.9
		c-3.9-2-7.3-4.5-11.3-6.1c-0.1,2.2-0.3,4.3-0.6,6.5c0,0.2,0.1,0.5,0.1,0.7c3.6,8.7,5.3,17.7,7,27c0.2,0.4,0.4,0.9,0.5,1.4
		c0.5,2.2,0.9,4.4,1.4,6.6c0.5,0.8,0.9,1.7,1,2.7c0.6,9.1,1.7,18.1,1,27.1C59.6,234.1,61.2,235.6,62.9,237.3z"/>
	<path class="st5" d="M54.9,149.9c-5.6-0.8-19.4-2.4-20.6-2.3c1,8.8,1.9,17.8,4.6,26.3c2.8,9.1,8.1,17.1,11.5,26
		c4,10.7,6.1,21.7,7.8,32.8c1,0.9,1.9,1.8,2.9,2.8c-0.5-17.9-1.6-35.9-5.8-53.3c-2.5-10-3.6-13.3-4.5-19.7
		C51.6,161.2,55.8,150.1,54.9,149.9z"/>
	<path class="st1" d="M54.9,149.9c-5.6-0.8-36.9-9.5-38.1-9.4c4.2,6.3,15.1,11.1,19,12.1c10.1,3.1,10,9,11.9,15.9
		c2.4,9.1,4.7,18.3,6.8,27.5c2.8,12,5.7,25.5,5.5,38.5c0.4,0.3,0.7,0.7,1.1,1c-0.5-17.9-1.6-35.9-5.8-53.3c-2.5-10-3.4-13.6-4.3-20
		C51.8,160.9,55.8,150.1,54.9,149.9z"/>
	<path class="st5" d="M148.6,186.2c-10.3,0.2-42.2-4-39.8,1.7c7.2,9.2,14.7,22.9,19.5,48.8c2.2,12.2,2.4,24,4,36.3
		c0.6,0.3,2.2,1,2.7,1.3c0.7-6.5,1.7-13,2.4-19.6c1.8-18.6-5.2-39.4-7.2-57.8C130.2,196.8,145.3,190,148.6,186.2z"/>
	<path class="st1" d="M148.6,186.2c-10.3,0.2-59.2-16.6-68.9-13.6c0,0,11.8,7.4,11.8,7.4c10.5,3.5,27.3,16.5,27.2,16.9
		c2.4,1.3,11.4,19.7,13.1,27.2c3.5,15.7,5.1,33.4,1.9,49.4c0.5,0.2,1,0.5,1.4,0.7c0.7-6.5,1.7-13,2.4-19.6
		c1.8-18.6-5.2-39.4-7.2-57.8C130.2,196.8,145.3,190,148.6,186.2z"/>
	<path class="st6" d="M258.6,227.8c5.1-0.4,16.4-23.5,21.4-25.2c4.9-1.6,14.8-6.9,17.9-10.9c3-3.8,2.7-7,5-11.1c2.3-4.2,4.8-4.2,8-8
		c3.3-3.9-3.2-17.4-3.2-17.4l-24.9,7.9c-2.6,1-5.4,1.8-8.1,2.8c-1.5,0.5-2.9,1-4.4,1.5c-5.8,2.2-11.7,4.2-17.7,5.8
		c-0.2,0.1-0.4,0.1-0.6,0.1c-0.5,0.2-0.9,0.2-1.3,0.1l-0.5,0.2c0,0,0.2,5.9-0.1,7.5c-0.5,2.7-2.7,4.7-3.1,7.4
		c-0.8,5.9,2.4,35.8,0.7,41.3C253.9,229.6,252.3,228.3,258.6,227.8z"/>
	<path class="st7" d="M259.7,214c-1.4,4.7-2.6,9.3-3.3,14.1c0.6-0.1,1.4-0.2,2.2-0.3c0.6-0.1,1.2-0.4,1.9-0.9
		c2.4-8.8,7.1-16.7,11.9-25c3.6-6.1,6.4-12.3,8.9-18.8c1.1-2.9,3.1-4.6-2.7-5c-3-0.2-6-0.4-9.1-0.5c4,4.7,7.6,8.3,3.9,14.9
		C269.5,199.8,262.2,206.1,259.7,214z"/>
	<path class="st8" d="M259.1,227.7c5.3-1.8,16.1-23.5,20.9-25.1c4.9-1.6,14.8-6.9,17.9-10.9c3-3.8,2.7-7,5-11.1c2.3-4.2,4.8-4.2,8-8
		c3.3-3.9-3.2-17.4-3.2-17.4c0-0.7-16.3,5.1-28.9,14.2c-2.7,2.6-0.3,9.5-0.3,10.3c0.6,8.6-1.3,13.2-8.8,22.7
		C263.7,210.1,260.7,218.7,259.1,227.7z"/>
	<path class="st1" d="M259.1,227.7c2.4-0.8,5.8-5.5,9.3-10.7c-2.6-8.9,4.8-17.2,11-24.4c1.9-5.6,3.5-11.3,6.6-16.4
		c-0.1,0-0.2-0.1-0.2-0.2c-0.6-0.4-1.2-0.8-1.9-1.2c-1.9-0.5-4.2,0.3-6.3,0.7c0.3,2.1,0.8,3.8,0.8,4.2c0.6,8.6-1.3,13.2-8.8,22.7
		C263.7,210.1,260.7,218.7,259.1,227.7z"/>
	<path class="st8" d="M213.5,203.9c-0.5,5,0.9,12.1,1.5,17.6c0.6,5.9,3.3,31.1,3.4,36.9c5,1.5,8.7,0.1,13.5-2.9
		c3.3-2.1,5.1-15.4,7.6-24.9c2.3-8.3,15.8-20,16.1-28.5l-0.5,0.4c-6.3-4.7-13.5,0.5-19,2.3C228.7,207.3,220.6,205.1,213.5,203.9z"/>
	<path class="st1" d="M232.2,212.3c-5.1,15.1-6.2,30.6-6.7,46.3c1.6-0.4,3.1-1.1,4.8-2.1c0-6.9,0.5-13.7,0.9-20.6
		c0.3-3.9,0-8.9,1.7-12.6c3.9-8.6,14.6-11.2,21.8-17.2c0.5-1.2,0.8-2.4,0.9-3.5c-6.4,4.9-14.9,8.4-23.3,9.2
		C232.3,211.9,232.3,212.1,232.2,212.3z"/>
	<path class="st6" d="M215,221.5c0.6,5.9,3.3,31.1,3.4,36.9c3.3,1,6,0.7,8.8-0.4c0.1-17.9,3.3-38,9.9-54.9c-7.1,1.8-17,1.9-23.6,0.8
		C213.1,208.9,214.5,216.1,215,221.5z"/>
	<path class="st7" d="M225.4,258.6c0.6-0.2,1.3-0.4,1.9-0.6c0.1-14.4,2.3-30.3,6.6-44.8c-3.2,0.3-6.6,0-9.3-1
		c4.8,6.1,4.4,12.1,3,19.1C225.7,240.4,225.6,249.5,225.4,258.6z"/>
	<path class="st0" d="M40,193.6c0.7,6.2,5.1,14.6,8,20.5c2.8,5.6,5.7,11.3,8.9,19.7c0.7,0,2.3,0.6,3,0.6c-0.1-7.3,0.2-13.2-1.2-20.5
		c-3-15.5-4.7-21.2-6.9-28.9C48.1,187.1,44.1,192.2,40,193.6z"/>
	<path class="st9" d="M52.1,186c-0.1-0.3-0.2-0.7-0.3-1.1c-3.7,2.1-7.7,7.2-11.9,8.7c0.7,6.2,5.1,14.6,8,20.5
		c2.8,5.6,5.7,11.3,8.9,19.7c0.2,0,0.4,0,0.7,0.1c-2.3-8.5-4.4-17-7-25.5c-1-3.2-2.8-7.4-1.9-10.9C49.7,193.6,51.8,190.1,52.1,186z"
		/>
	<path class="st5" d="M23.7,188.6c6.2,7.4,13.5,14.5,17.4,22.8c3.2,6.8,7.3,20.2,15.8,22.4c-3.3-11.6-9.8-26.9-12.5-35.4
		C43,193.8,33.5,179.9,23.7,188.6z"/>
	<path class="st5" d="M23.7,188.6C23.7,188.6,23.7,188.6,23.7,188.6l-0.2,0.1C23.6,188.7,23.7,188.7,23.7,188.6z"/>
	<path class="st10" d="M23.7,188.6c0.1,0.2,0.3,0.3,0.4,0.5c0.4,0,0.8,0,1.2,0.2c13.3,5.1,18.5,11.6,22.5,23.6
		c2,6.1,4.7,11.7,7.8,17.4c0.2,0.4,0.4,0.8,0.6,1.3c-3.4-11.3-9.3-25.2-11.8-33.2C43,193.8,33.5,179.9,23.7,188.6z"/>
	<path class="st5" d="M144.7,270.3c-0.4-11.5,4.8-24.7,7.6-35.4c-6.7,0.2-7.9-7.4-9.9-12.2c-2-4.7-3.3-10.8-5-14.8l-0.8-0.3
		c2,5.3,2.1,11.8,3.9,17.5c0.8,2.4,1.5,5,2.7,7.3c0.4,0.9,0.8,1.9,1.5,2.7c0.8,0.8,2.6,0.9,3.1,1.7c0.7,1.3-1.2,4.9-1.7,6.5
		c-0.9,3-1.4,5-1.4,8.1c0,3.5,0.2,7,0,10.4C144.6,264.4,143.5,267.9,144.7,270.3z"/>
	<path class="st0" d="M78.5,187.9c-0.5-2.2-1.1-13.1-1.8-15.3c-2-1.1-5.7-0.9-8-1.6c-1.4-0.4-6.5-1-5.7-0.3l-0.4-0.3
		c0.8,2.1,0,15.7,0,17.9c1.6-0.3,4.4-8.7,6.2-8.5c0.2,4.1,0.9,8.2-0.4,11.7c4.9,2.5,3.1,6.3,2.6,10.4c-0.5,4.8,3.2,2,2.9,6.8
		c-0.3,4-3.9,15.1-3.3,19.1c0,0,3.4,8,3.3,10.4c0,0.3,0.1,0.1,0.4-0.5c-3.2-10.4,0.6-20.7,4.1-30.8c-0.1-2-0.1-4.1,0-6.2
		c0.1-1.5,0.1-2.9,0.2-4.4C77.5,191.1,78.7,193.1,78.5,187.9z"/>
	<path class="st11" d="M306.8,135.1c-9.4-8.8-36.2-20.4-44.3-23.9l-17.8,2.8c2.1-1.4,7-5.1,8.7-6.9c-16.4-15.5-38.2-15.8-51.6-26.2
		c-6.7-5.1-36.8-18-44.8-22.7c-18.3,9.6-31.7,9.5-39.7,18.9c-7.9,9.2-23.7,10.3-34.7,15.9c0.6,1.3,2,4.5,2.7,5.9
		c-14-2.1-31.4,10.9-44.9,18.7c-11.7,6.9-32.2,16.8-32.2,16.8c15.4,14.7,28.6,17.3,44.2,19.3c1.1,2.6-3.1,6.6-1,10.8
		c6.6,13,55.7,18.6,67.4,30.4c2.8,2.8,17.5-3.7,17.5-3.7c0,2.3-6.1,5.6-6.1,5.6c14.5,7.3,21.3,14.7,27.6,13.9
		c6.1-0.8,22.7-9.6,28.1-12.5c10.5-5.7,13.8-11.8,25.1-15.5c13.8-4.6,21-4.8,31.1-15.6c-5.7-0.5-10.8-1.6-16.6-1.5
		c14.3-5.8,31.2-1.7,45.5-9.3C282.3,150.4,293.8,137.3,306.8,135.1z"/>
	<path class="st12" d="M299.2,137.6c-7,1.4-13.4,7-19.3,10.6c-8.4,5.2-15,9.8-25.5,11.1c-6.6,0.8-24.6,2.6-27.6,4.3
		c-2.8,1.5-5.2,2.7-2.2,2.9c7.9,0.6,14.3,2,14.3,2c-14,10.8-29.1,10.2-33.2,12.5c-4.6,2.6-7.9,6.2-11.8,9.5
		c-5.3,4.6-29.2,16.6-36.4,17.8c-5.3,0.9-7.3-4.6-21.4-10.8c-3.3-1.5,4-7.4,4.4-8.7c-5,0.6-9.9,2-14.7,3.8c-2,0.7-6.6,0.6-8.1-0.6
		c-12-10.4-44.2-16.2-52.8-19.4c-4.7-1.8-11.7-5.6-12.3-10.4c-0.4-2.9,1.4-5.2,2.4-7.9c1.5-3.9-6.1-3.1-8.3-3.6
		c-8.3-1.6-30.3-7.8-38.5-16.4c0,0,0,0,0,0c15.4,14.7,28.6,17.3,44.2,19.3c1.1,2.6-3.1,6.6-1,10.8c6.6,13,55.7,18.6,67.4,30.4
		c2.8,2.8,17.5-3.7,17.5-3.7c0,2.3-6.1,5.6-6.1,5.6c14.5,7.3,21.3,14.7,27.6,13.9c6.1-0.8,22.7-9.6,28.1-12.5
		c10.5-5.7,13.8-11.8,25.1-15.5c13.8-4.6,21-4.8,31.1-15.6c-5.7-0.5-10.8-1.6-16.6-1.5c14.3-5.8,31.2-1.7,45.5-9.3
		C280.1,151.6,289.2,142.2,299.2,137.6z"/>
	<path class="st1" d="M296.5,186.4c-0.5,1.7,0.4,5.2-0.2,6.9c0.6-0.5,1.1-1,1.5-1.5c3-3.8,2.7-7,5-11.1c2.3-4.2,4.8-4.2,8-8
		c3.3-3.9-3.2-17.4-3.2-17.4c0-0.1-0.5,0-1.4,0.2c-1.6,3.2-3.7,6.2-6.4,8.4c1.9,3.5,4,8,3.6,8.8
		C300.7,178.7,298.2,182.1,296.5,186.4z"/>
	<path class="st2" d="M283.8,196.5c5.2-8.9,10.4-17.8,12.7-27.7c-5.1,1.1-12.7-0.8-17.9,0c-1.7,1.8,8.3,3.5,9.1,5.4
		c0,0-0.6,4.3-0.8,5.7C285.9,185.5,284.9,191,283.8,196.5z"/>
	<path class="st13" d="M282.1,170.1c1.2-0.5,13.4,0,14.7-0.5c8.5-3.4,8.7-7.4,10.8-10.6c3-4.6-3.5-6.5-11.9-5.8
		c-9.6,9.7-30.4,16.2-45.6,20.4c4.6,4.1,12.2,0.8,15.9,3.1c5.7,3.5,12.3,3,12.3,3s6.8-3.4,9.3-5.4
		C289.1,173.2,279.9,171.1,282.1,170.1z"/>
	<path class="st14" d="M278.4,178.4c-2.7,0.3-9.5-2.9-12.3-3.2c-5.3-0.5-3.4,0.4-8.7-0.5c-1.8-0.3-4.3-1.3-6-1.5
		c-0.4,0.1-0.8,0.2-1.2,0.3c4.6,4.1,12.2,0.8,15.9,3.1c5.7,3.5,12.3,3,12.3,3s6.8-3.4,9.3-5.4c1.3-1-7.8-3.1-5.7-4.1
		c1.2-0.5,13.4,0,14.7-0.5c7.1-2.9,8.4-6.1,9.9-9c-3.6,4.8-7.7,8-20.4,6.6c0,0,0,0-0.1,0c-2.5,0.4-4.9,0.9-7.4,1.7
		c-0.1,0-0.2,0-0.3,0.1c1.4,1.2,2.5,3,4.4,3.5C288.2,174.2,280.4,178.2,278.4,178.4z"/>
	<path class="st13" d="M235.1,197.7c0,0-6,2.9-9,4c-3.6,1.4-8.6,2.9-12.6,2.2c0.3,0.9,1.1,2.5,2,3.4c4.4,4.5,15.1,8.4,21.2,6.3
		c3.9-1.4,17.1-7.2,18.8-10.6C257.8,198.3,239.4,196.3,235.1,197.7z"/>
	<path class="st14" d="M214.9,204.1c-0.4,0-0.9-0.1-1.3-0.2c0.3,0.9,1.1,2.5,2,3.4c4.4,4.5,15.1,8.4,21.2,6.3
		c3.4-1.2,13.7-5.7,17.5-9.1C242.9,212.1,224,214.4,214.9,204.1z"/>
	<path class="st11" d="M28.5,190.4c5.8,1.2,11.2,5,16,8c3.2-3.7,7.4-8,7.4-13.4c-4.1-1.5-9.1-3.6-11.5-6.8
		C31.3,181.6,15.5,188.8,28.5,190.4z"/>
	<path class="st12" d="M42.3,195.3c-2.7-2.2-9.7-4.8-15.7-6c-3.1-0.6-2.6-1.6-2.8-2.1c-0.7,1.4,0.4,2.6,4.7,3.1c5.8,1.2,11.2,5,16,8
		c3.1-3.6,7.1-7.8,7.3-13c-1.4,3.4-2.2,4.5-4.2,7.5C46.7,194.2,43.7,196.4,42.3,195.3z"/>
	<path class="st0" d="M107.7,205.7c-2.3,2.2-3.7,4-5.1,6.7c-3.4,6.7-5.1,11.5-3.2,19.2c2.3,9.2,6,17.9,9.4,26.8
		c2.4,6.1,5.8,17.5,12.1,21.4c2.6-2,5.8-4.2,8-6.5c-4.1-10.3-6.2-23.3-7.5-34.6c-1.3-11.4-3.5-23.3-4.5-34.6
		C114.1,203.1,109.5,204.1,107.7,205.7z"/>
	<path class="st9" d="M117.1,205.5c0-0.5-0.1-0.9-0.2-1.4c-2.8-1-7.5,0-9.3,1.6c-2.3,2.2-3.7,4-5.1,6.7c-3.4,6.7-5.1,11.5-3.2,19.2
		c2.3,9.2,6,17.9,9.4,26.8c2.4,6.1,5.8,17.5,12.1,21.4c2.2-1.7,4.8-3.5,6.9-5.5c-8.2-5.5-8.7-15.7-12.4-24.6
		c-3-7.4-5.5-14.7-5.3-22.6c0.1-7.6,4-13.3,6.4-20.4C116.7,206.2,116.9,205.8,117.1,205.5z"/>
	<path class="st5" d="M102.5,209.8c-3.7-2-9.4-2.8-13.5-5.1c-3.6-2-20.2-8.5-24.5-8.1c0.7,11,12.4,24.6,17.7,36.4
		c5.7,12.7,10.1,20.9,14.1,34c1.4,4.6,12.3,3.7,17.4,12.5l7.2,0.5c0,0-1.5-8.7-2.6-12.1c-1.4-4.3-9.3-30.2-11.3-38.6
		C105.7,223.6,108.2,212.8,102.5,209.8z"/>
	<path class="st10" d="M105.6,213.9c-3,0.8-6.3,0.9-9.6,0.8c9.8,7.9,12.1,22,14.3,33.1c2.2,11,7.1,21.2,9.9,31.9l0.7,0
		c0,0-1.5-8.7-2.6-12.1c-1.4-4.3-9.3-30.2-11.3-38.6C106.1,225.1,107.1,218.4,105.6,213.9z"/>
	<path class="st11" d="M78.8,186.4c-4.7,3.9-8.8,4.1-13.2,7.6c-4.6,3.7,7.3,16,14.1,19c7.1,3.2,16.6,3.7,24.4,3
		c7.1-0.7,13.3-12.4,13.3-12.4c-4.2-2.5-13.3-3.4-19.7-7.2C89.1,191.5,78.8,186.4,78.8,186.4z"/>
	<path class="st12" d="M65.6,194c-4.6,3.7,7.3,16,14.1,19c7.1,3.2,16.6,3.7,24.4,3c5.6-0.5,10.7-8,12.5-11.1
		c-9.4,10.1-17.9,11.4-35.4,5.9c-5.3-1.7-17.3-8.5-14.3-17.7C66.4,193.4,66,193.7,65.6,194z"/>
</g>
<g>
	<g>
		<path class="st15" d="M157.4,96.4c-0.4,0.6-0.9,1.7-1.8,2c-0.7,0.2-1.5-0.2-2.2,0c-1.1,0.3-0.9,0.5-1.6,1.3
			c-1.6,1.7-2.7,1.8-4.1,1.3c-0.2,0.2-0.3,0.4-0.5,0.6c-1,1.1-4,1.9-4.4,3.3c-0.3,1.2-1.8,2.3-3.1,1.8c0,0-0.1,0-0.1,0
			c-1.6,2-4.3,3.7-6.7,3.7c-0.8,0.9-1.9,1.5-3.1,1.8c-0.5,0.1-0.9,0.2-1.4,0.2c-0.1,0.6-0.5,1.2-1.1,1.6c0,0.1-0.1,0.1-0.1,0.2
			l-0.2,0.6c-0.2,0.5-0.6,1-1,1.4c-0.7,0.7-1.6,1-2.5,0.9c-0.1,0-0.6-0.1-0.9-0.1c-1,0.8-2.1,0.8-3,0.2c-0.1,0.3-0.2,0.6-0.2,0.8
			c-0.3,0.8-0.7,1.5-1.3,2.1c-0.7,0.8-2.1,1-3,0.4c-0.2-0.1-0.3-0.2-0.4-0.3c-0.4,0.5-0.5,1-1,1.4c-0.7,0.6-1.4,0.7-2.2,0.7
			c-0.5,0.5-0.9,0.9-1.7,1.2c-0.4,0.1-1.3,0.4-1.8,0.2c-0.4,0.8-1.4,1.3-2.4,1.4c-0.8,0-1.6-0.3-2.2-1.1c-1.6-2.2,0-5.2,2.7-5.4
			c0.1,0,1.9,0.3,1.8,0.3c0.4-0.1,0.8-0.9,1.2-1.2c0.5-0.3,0.9-0.4,1.4-0.5c0.1-0.4,0.3-0.7,0.4-0.9c0.5-0.6,1-1,1.8-1.3
			c0.9-0.3,1.8-0.3,2.6-0.1c0.2-0.9,0.2-2,1.1-2.7c0.6-0.5,1.3-0.5,2-0.7c0.3-0.1,0.5-0.1,0.5,0c0.1-0.1,0.1-0.3,0.3-0.6
			c0.9-1.7,2.6-2.6,4.4-3.1c1.2-0.3,5.4-0.1,5.6-1.2c0.4-2.4,3.5-2.1,4.6-0.6c-1-1.3-1.1-0.6,0.3-1.5c0.7-0.4,1.8-0.9,2-1.8
			c0.3-1.2,1.9-2.2,3.1-1.8l0.1,0c0.2-0.3,0.5-0.5,0.8-0.8c0.7-0.6,3.6-1.6,3.6-2.5c0.1-1,0.7-2.2,1.8-2.4c0.7-0.1,2-0.3,2.7,0.2
			c0.1-0.2,0.2-0.3,0.3-0.4c1.5-2.2,3.2-1.9,5.2-1.8c1.1-1.5,2-2.7,4.5-1.6c0.5,0.2,0.9,0.6,1.1,1C160,94.1,159,96,157.4,96.4z"/>
		<path class="st15" d="M168.7,103.8c-0.4,0.6-0.9,1.7-1.8,2c-0.7,0.2-1.5-0.2-2.2,0c-1.1,0.3-0.9,0.5-1.6,1.3
			c-1.6,1.7-2.7,1.8-4.1,1.3c-0.1,0.2-0.3,0.4-0.5,0.6c-1,1.1-4,2-4.4,3.3c-0.3,1.2-1.8,2.3-3.1,1.8c0,0-0.1,0-0.1,0
			c-1.6,2-4.3,3.7-6.7,3.7c-0.8,0.9-1.9,1.5-3.1,1.8c-0.5,0.1-0.9,0.2-1.4,0.2c-0.1,0.6-0.5,1.2-1.1,1.6c0,0.1-0.1,0.1-0.1,0.2
			c-0.1,0.2-0.2,0.4-0.2,0.6c-0.2,0.5-0.6,1-1,1.4c-0.7,0.7-1.6,1-2.5,0.9c-0.1,0-0.6-0.1-0.9-0.1c-1,0.9-2.1,0.8-3,0.2
			c-0.1,0.3-0.2,0.6-0.2,0.8c-0.3,0.8-0.7,1.5-1.3,2.1c-0.7,0.8-2.1,1-3,0.4c-0.2-0.1-0.3-0.2-0.4-0.3c-0.4,0.5-0.5,1-1,1.4
			c-0.7,0.6-1.5,0.7-2.2,0.7c-0.5,0.5-0.9,0.9-1.7,1.2c-0.4,0.1-1.3,0.4-1.8,0.2c-0.4,0.8-1.4,1.3-2.4,1.4c-0.8,0-1.6-0.3-2.2-1.1
			c-1.6-2.2,0-5.2,2.7-5.4c0.1,0,1.9,0.3,1.8,0.3c0.4-0.1,0.8-0.9,1.2-1.2c0.5-0.3,0.9-0.4,1.4-0.5c0.1-0.4,0.3-0.7,0.4-0.9
			c0.5-0.6,1-1,1.8-1.3c0.9-0.3,1.8-0.3,2.6-0.1c0.2-0.9,0.2-2,1.1-2.7c0.6-0.5,1.3-0.5,2-0.7c0.3-0.1,0.5-0.1,0.5,0
			c0-0.1,0.1-0.3,0.3-0.6c0.9-1.7,2.7-2.6,4.5-3.1c1.2-0.3,5.4-0.1,5.6-1.2c0.4-2.4,3.5-2.1,4.6-0.6c-1-1.3-1.1-0.6,0.3-1.5
			c0.7-0.4,1.8-0.9,2-1.8c0.3-1.2,1.9-2.2,3.1-1.8l0.1,0c0.2-0.3,0.5-0.5,0.8-0.8c0.7-0.6,3.6-1.6,3.6-2.5c0.1-1,0.7-2.2,1.8-2.4
			c0.7-0.1,2-0.3,2.7,0.2c0.1-0.2,0.2-0.3,0.3-0.4c1.5-2.2,3.2-1.9,5.2-1.8c1.1-1.5,2-2.7,4.5-1.6c0.5,0.2,0.9,0.6,1.1,1
			C171.3,101.6,170.2,103.4,168.7,103.8z"/>
		<path class="st15" d="M180.6,111.2c-0.4,0.6-0.9,1.7-1.8,2c-0.7,0.2-1.5-0.2-2.2,0c-1.1,0.3-0.9,0.5-1.6,1.3
			c-1.6,1.7-2.7,1.8-4.1,1.3c-0.1,0.2-0.3,0.4-0.5,0.6c-1,1.1-4,1.9-4.4,3.3c-0.3,1.2-1.8,2.3-3.1,1.8c0,0-0.1,0-0.1,0
			c-1.6,2-4.3,3.7-6.7,3.7c-0.8,0.9-1.9,1.5-3.1,1.8c-0.5,0.1-0.9,0.2-1.4,0.2c-0.1,0.6-0.5,1.2-1.1,1.6c0,0.1-0.1,0.1-0.1,0.2
			c-0.1,0.2-0.2,0.4-0.2,0.6c-0.2,0.5-0.6,1-1,1.4c-0.7,0.6-1.6,1-2.5,0.9c-0.1,0-0.6-0.1-0.9-0.1c-1,0.9-2.1,0.8-3,0.2
			c-0.1,0.3-0.1,0.6-0.2,0.8c-0.3,0.8-0.7,1.5-1.3,2.1c-0.7,0.8-2.1,1-3,0.4c-0.2-0.1-0.3-0.2-0.4-0.3c-0.4,0.5-0.5,1-1,1.4
			c-0.7,0.6-1.4,0.7-2.2,0.7c-0.5,0.5-0.9,0.9-1.7,1.2c-0.4,0.1-1.3,0.4-1.8,0.2c-0.4,0.8-1.4,1.3-2.4,1.4c-0.8,0-1.6-0.3-2.2-1.1
			c-1.6-2.2,0-5.2,2.7-5.4c0.1,0,1.9,0.3,1.8,0.3c0.4-0.1,0.8-0.9,1.2-1.2c0.5-0.3,0.9-0.4,1.4-0.5c0.1-0.4,0.3-0.7,0.4-0.9
			c0.5-0.6,1-1,1.8-1.3c0.9-0.3,1.8-0.3,2.6-0.1c0.2-0.9,0.2-2,1.1-2.7c0.6-0.5,1.3-0.5,2-0.7c0.3-0.1,0.5-0.1,0.5,0
			c0-0.1,0.1-0.3,0.3-0.6c0.9-1.7,2.7-2.6,4.4-3.1c1.2-0.3,5.4-0.1,5.6-1.2c0.4-2.4,3.5-2.1,4.6-0.6c-1-1.3-1.1-0.6,0.3-1.4
			c0.7-0.4,1.7-0.9,2-1.8c0.3-1.2,1.9-2.2,3.1-1.8l0.1,0c0.2-0.3,0.5-0.5,0.8-0.8c0.7-0.6,3.6-1.6,3.6-2.5c0.1-1,0.7-2.2,1.8-2.4
			c0.7-0.1,2-0.3,2.7,0.2c0.1-0.1,0.2-0.3,0.3-0.4c1.5-2.2,3.2-1.9,5.2-1.8c1.1-1.5,2-2.7,4.5-1.6c0.5,0.2,0.9,0.6,1.1,1
			C183.2,109,182.2,110.8,180.6,111.2z"/>
		<path class="st15" d="M191.9,117.9c-0.4,0.6-0.9,1.7-1.8,2c-0.7,0.2-1.5-0.2-2.2,0c-1.1,0.3-0.9,0.5-1.6,1.3
			c-1.6,1.7-2.7,1.8-4.1,1.3c-0.2,0.2-0.3,0.4-0.5,0.6c-1,1.1-4,1.9-4.4,3.3c-0.3,1.2-1.8,2.3-3.1,1.8c0,0-0.1,0-0.1,0
			c-1.6,2-4.3,3.7-6.7,3.7c-0.8,0.9-1.9,1.5-3.1,1.8c-0.5,0.1-0.9,0.2-1.4,0.2c-0.1,0.6-0.5,1.2-1.1,1.6c0,0.1-0.1,0.1-0.1,0.2
			l-0.2,0.6c-0.2,0.5-0.6,1-1,1.4c-0.7,0.7-1.6,1-2.5,0.9c-0.1,0-0.6-0.1-0.9-0.1c-1,0.8-2.1,0.8-3,0.2c-0.1,0.3-0.2,0.6-0.2,0.8
			c-0.3,0.8-0.7,1.5-1.3,2.1c-0.7,0.8-2.1,1-3,0.4c-0.2-0.1-0.3-0.2-0.4-0.3c-0.4,0.5-0.5,1-1,1.4c-0.7,0.6-1.4,0.7-2.2,0.7
			c-0.5,0.5-0.9,0.9-1.7,1.2c-0.4,0.1-1.3,0.4-1.8,0.2c-0.4,0.8-1.4,1.3-2.4,1.4c-0.8,0-1.6-0.3-2.2-1.1c-1.6-2.2,0-5.2,2.7-5.4
			c0.1,0,1.9,0.3,1.8,0.3c0.4-0.1,0.8-0.9,1.2-1.2c0.5-0.3,0.9-0.4,1.4-0.5c0.1-0.4,0.3-0.7,0.4-0.9c0.5-0.6,1-1,1.8-1.3
			c0.9-0.3,1.8-0.3,2.6-0.1c0.2-0.9,0.2-2,1.1-2.7c0.6-0.5,1.3-0.5,2-0.7c0.3-0.1,0.5-0.1,0.5,0c0.1-0.1,0.1-0.3,0.3-0.6
			c0.9-1.7,2.6-2.6,4.4-3.1c1.2-0.3,5.4-0.1,5.6-1.2c0.4-2.4,3.5-2.1,4.6-0.6c-1-1.3-1.1-0.6,0.3-1.5c0.7-0.4,1.8-0.9,2-1.8
			c0.3-1.2,1.9-2.2,3.1-1.8l0.1,0c0.2-0.3,0.5-0.5,0.8-0.8c0.7-0.6,3.6-1.6,3.6-2.5c0.1-1,0.7-2.2,1.8-2.4c0.7-0.1,2-0.3,2.7,0.2
			c0.1-0.2,0.2-0.3,0.3-0.4c1.5-2.2,3.2-1.9,5.2-1.8c1.1-1.5,2-2.7,4.5-1.6c0.5,0.2,0.9,0.6,1.1,1
			C194.5,115.7,193.5,117.5,191.9,117.9z"/>
		<path class="st15" d="M203.8,125.3c-0.4,0.6-0.9,1.7-1.8,2c-0.7,0.2-1.5-0.2-2.2,0c-1.1,0.3-0.9,0.5-1.6,1.3
			c-1.6,1.7-2.7,1.8-4.1,1.3c-0.1,0.2-0.3,0.4-0.5,0.6c-1,1.1-4,2-4.4,3.3c-0.3,1.2-1.8,2.3-3.1,1.8c0,0-0.1,0-0.1,0
			c-1.6,2-4.3,3.7-6.7,3.7c-0.8,0.9-1.9,1.5-3.1,1.8c-0.5,0.1-0.9,0.2-1.4,0.2c-0.1,0.6-0.5,1.2-1.1,1.6c0,0.1-0.1,0.1-0.1,0.2
			c-0.1,0.2-0.2,0.4-0.2,0.6c-0.2,0.5-0.6,1-1,1.4c-0.7,0.7-1.6,1-2.5,0.9c-0.1,0-0.6-0.1-0.9-0.1c-1,0.9-2.1,0.8-3,0.2
			c-0.1,0.3-0.2,0.6-0.2,0.8c-0.3,0.8-0.7,1.5-1.3,2.1c-0.7,0.8-2.1,1-3,0.4c-0.2-0.1-0.3-0.2-0.4-0.3c-0.4,0.5-0.5,1-1,1.4
			c-0.7,0.6-1.5,0.7-2.2,0.7c-0.5,0.5-0.9,0.9-1.7,1.2c-0.4,0.1-1.3,0.4-1.8,0.2c-0.4,0.8-1.4,1.3-2.4,1.4c-0.8,0-1.6-0.3-2.2-1.1
			c-1.6-2.2,0-5.2,2.7-5.4c0.1,0,1.9,0.3,1.8,0.3c0.4-0.1,0.8-0.9,1.2-1.2c0.5-0.3,0.9-0.4,1.4-0.5c0.1-0.4,0.3-0.7,0.4-0.9
			c0.5-0.6,1-1,1.8-1.3c0.9-0.3,1.8-0.3,2.6-0.1c0.2-0.9,0.2-2,1.1-2.7c0.6-0.5,1.3-0.5,2-0.7c0.3-0.1,0.5-0.1,0.5,0
			c0-0.1,0.1-0.3,0.3-0.6c0.9-1.7,2.7-2.6,4.5-3.1c1.2-0.3,5.4-0.1,5.6-1.2c0.4-2.4,3.5-2.1,4.6-0.6c-1-1.3-1.1-0.6,0.3-1.5
			c0.7-0.4,1.8-0.9,2-1.8c0.3-1.2,1.9-2.2,3.1-1.8l0.1,0c0.2-0.3,0.5-0.5,0.8-0.8c0.7-0.6,3.6-1.6,3.6-2.5c0.1-1,0.7-2.2,1.8-2.4
			c0.7-0.1,2-0.3,2.7,0.2c0.1-0.2,0.2-0.3,0.3-0.4c1.5-2.2,3.2-1.9,5.2-1.8c1.1-1.5,2-2.7,4.5-1.6c0.5,0.2,0.9,0.6,1.1,1
			C206.4,123.1,205.4,125,203.8,125.3z"/>
		<path class="st15" d="M215.1,132.8c-0.4,0.6-0.9,1.7-1.8,2c-0.7,0.2-1.5-0.2-2.2,0c-1.1,0.3-0.9,0.5-1.6,1.3
			c-1.6,1.7-2.7,1.8-4.1,1.3c-0.1,0.2-0.3,0.4-0.5,0.6c-1,1.1-4,1.9-4.4,3.3c-0.3,1.2-1.8,2.3-3.1,1.8c0,0-0.1,0-0.1,0
			c-1.6,2-4.3,3.7-6.7,3.7c-0.8,0.9-1.9,1.5-3.1,1.8c-0.5,0.1-0.9,0.2-1.4,0.2c-0.1,0.6-0.5,1.2-1.1,1.6c0,0.1-0.1,0.1-0.1,0.2
			c-0.1,0.2-0.2,0.4-0.2,0.6c-0.2,0.5-0.6,1-1,1.4c-0.7,0.6-1.6,1-2.5,0.9c-0.1,0-0.6-0.1-0.9-0.1c-1,0.9-2.1,0.8-3,0.2
			c-0.1,0.3-0.1,0.6-0.2,0.8c-0.3,0.8-0.7,1.5-1.3,2.1c-0.7,0.8-2.1,1-3,0.4c-0.2-0.1-0.3-0.2-0.4-0.3c-0.4,0.5-0.5,1-1,1.4
			c-0.7,0.6-1.4,0.7-2.2,0.7c-0.5,0.5-0.9,0.9-1.7,1.2c-0.4,0.1-1.3,0.4-1.8,0.2c-0.4,0.8-1.4,1.3-2.4,1.4c-0.8,0-1.6-0.3-2.2-1.1
			c-1.6-2.2,0-5.2,2.7-5.4c0.1,0,1.9,0.3,1.8,0.3c0.4-0.1,0.8-0.9,1.2-1.2c0.5-0.3,0.9-0.4,1.4-0.5c0.1-0.4,0.3-0.7,0.4-0.9
			c0.5-0.6,1-1,1.8-1.3c0.9-0.3,1.8-0.3,2.6-0.1c0.2-0.9,0.2-2,1.1-2.7c0.6-0.5,1.3-0.5,2-0.7c0.3-0.1,0.5-0.1,0.5,0
			c0-0.1,0.1-0.3,0.3-0.6c0.9-1.7,2.7-2.6,4.4-3.1c1.2-0.3,5.4-0.1,5.6-1.2c0.4-2.4,3.5-2.1,4.6-0.6c-1-1.3-1.1-0.6,0.3-1.4
			c0.7-0.4,1.7-0.9,2-1.8c0.3-1.2,1.9-2.2,3.1-1.8l0.1,0c0.2-0.3,0.5-0.5,0.8-0.8c0.7-0.6,3.6-1.6,3.6-2.5c0.1-1,0.7-2.2,1.8-2.4
			c0.7-0.1,2-0.3,2.7,0.2c0.1-0.1,0.2-0.3,0.3-0.4c1.5-2.2,3.2-1.9,5.2-1.8c1.1-1.5,2-2.7,4.5-1.6c0.5,0.2,0.9,0.6,1.1,1
			C217.7,130.5,216.7,132.4,215.1,132.8z"/>
		<path class="st16" d="M157.4,96.4c-0.4,0.6-0.9,1.7-1.8,2c-0.7,0.2-1.5-0.2-2.2,0c-1.1,0.3-0.9,0.5-1.6,1.3
			c-1.6,1.7-2.7,1.8-4.1,1.3c-0.2,0.2-0.3,0.4-0.5,0.6c-1,1.1-4,1.9-4.4,3.3c-0.3,1.2-1.8,2.3-3.1,1.8c0,0-0.1,0-0.1,0
			c-1.6,2-4.3,3.7-6.7,3.7c-0.8,0.9-1.9,1.5-3.1,1.8c-0.5,0.1-0.9,0.2-1.4,0.2c-0.1,0.6-0.5,1.2-1.1,1.6c0,0.1-0.1,0.1-0.1,0.2
			l-0.2,0.6c-0.2,0.5-0.6,1-1,1.4c-0.7,0.7-1.6,1-2.5,0.9c-0.1,0-0.6-0.1-0.9-0.1c-1,0.8-2.1,0.8-3,0.2c-0.1,0.3-0.2,0.6-0.2,0.8
			c-0.3,0.8-0.7,1.5-1.3,2.1c-0.7,0.8-2.1,1-3,0.4c-0.2-0.1-0.3-0.2-0.4-0.3c-0.4,0.5-0.5,1-1,1.4c-0.7,0.6-1.4,0.7-2.2,0.7
			c-0.5,0.5-0.9,0.9-1.7,1.2c-0.4,0.1-1.3,0.4-1.8,0.2c-0.4,0.8-1.4,1.3-2.4,1.4c-1.3-2.2,0.4-4.9,2.9-5.1c0.1,0,1.9,0.3,1.8,0.3
			c0.4-0.1,0.8-0.9,1.2-1.2c0.5-0.3,0.9-0.4,1.4-0.5c0.1-0.4,0.3-0.7,0.4-0.9c0.5-0.6,1-1,1.8-1.3c0.9-0.3,1.8-0.3,2.6-0.1
			c0.2-0.9,0.2-2,1.1-2.7c0.6-0.5,1.3-0.5,2-0.7c0.3-0.1,0.5-0.1,0.5,0c0-0.1,0.1-0.3,0.3-0.6c0.9-1.7,2.7-2.6,4.5-3.1
			c1.2-0.3,5.4-0.1,5.6-1.2c0.4-2.4,3.5-2.1,4.6-0.6c-1-1.3-1.1-0.6,0.3-1.5c0.7-0.4,1.8-0.9,2-1.8c0.3-1.2,1.9-2.2,3.1-1.8l0.1,0
			c0.2-0.3,0.5-0.5,0.8-0.8c0.7-0.6,3.6-1.6,3.6-2.5c0.1-1,0.7-2.2,1.8-2.4c0.7-0.1,2-0.3,2.7,0.2c0.1-0.2,0.2-0.3,0.3-0.4
			c1.5-2.2,3.2-1.9,5.2-1.8c0.9-1.2,1.7-2.2,3.2-2C160,94.1,159,96,157.4,96.4z"/>
		<path class="st16" d="M168.7,103.8c-0.4,0.6-0.9,1.7-1.8,2c-0.7,0.2-1.5-0.2-2.2,0c-1.1,0.3-0.9,0.5-1.6,1.3
			c-1.6,1.7-2.7,1.8-4.1,1.3c-0.1,0.2-0.3,0.4-0.5,0.6c-1,1.1-4,2-4.4,3.3c-0.3,1.2-1.8,2.3-3.1,1.8c0,0-0.1,0-0.1,0
			c-1.6,2-4.3,3.7-6.7,3.7c-0.8,0.9-1.9,1.5-3.1,1.8c-0.5,0.1-0.9,0.2-1.4,0.2c-0.1,0.6-0.5,1.2-1.1,1.6c0,0.1-0.1,0.1-0.1,0.2
			c-0.1,0.2-0.2,0.4-0.2,0.6c-0.2,0.5-0.6,1-1,1.4c-0.7,0.7-1.6,1-2.5,0.9c-0.1,0-0.6-0.1-0.9-0.1c-1,0.9-2.1,0.8-3,0.2
			c-0.1,0.3-0.2,0.6-0.2,0.8c-0.3,0.8-0.7,1.5-1.3,2.1c-0.7,0.8-2.1,1-3,0.4c-0.2-0.1-0.3-0.2-0.4-0.3c-0.4,0.5-0.5,1-1,1.4
			c-0.7,0.6-1.5,0.7-2.2,0.7c-0.5,0.5-0.9,0.9-1.7,1.2c-0.4,0.1-1.3,0.4-1.8,0.2c-0.4,0.8-1.4,1.3-2.4,1.4c-1.3-2.2,0.4-4.9,2.9-5.1
			c0.1,0,1.9,0.3,1.8,0.3c0.4-0.1,0.8-0.9,1.2-1.2c0.5-0.3,0.9-0.4,1.4-0.5c0.1-0.4,0.3-0.7,0.4-0.9c0.5-0.6,1-1,1.8-1.3
			c0.9-0.3,1.8-0.3,2.6-0.1c0.2-0.9,0.2-2,1.1-2.7c0.6-0.5,1.3-0.5,2-0.7c0.3-0.1,0.5-0.1,0.5,0c0-0.1,0.1-0.3,0.3-0.6
			c0.9-1.7,2.7-2.6,4.4-3.1c1.2-0.3,5.4-0.1,5.6-1.2c0.4-2.4,3.5-2.1,4.6-0.6c-1-1.3-1.1-0.5,0.3-1.4c0.7-0.4,1.7-0.9,2-1.8
			c0.3-1.2,1.9-2.2,3.1-1.8l0.1,0c0.2-0.3,0.5-0.5,0.8-0.8c0.7-0.6,3.6-1.6,3.6-2.5c0.1-1,0.7-2.2,1.8-2.4c0.7-0.1,2-0.3,2.7,0.2
			c0.1-0.1,0.2-0.3,0.3-0.4c1.5-2.2,3.2-1.9,5.2-1.8c0.9-1.2,1.7-2.2,3.2-2C171.3,101.6,170.2,103.4,168.7,103.8z"/>
		<path class="st16" d="M180.6,111.2c-0.4,0.6-0.9,1.7-1.8,2c-0.7,0.2-1.5-0.2-2.2,0c-1.1,0.3-0.9,0.5-1.6,1.3
			c-1.6,1.7-2.7,1.8-4.1,1.3c-0.1,0.2-0.3,0.4-0.5,0.6c-1,1.1-4,1.9-4.4,3.3c-0.3,1.2-1.8,2.3-3.1,1.8c0,0-0.1,0-0.1,0
			c-1.6,2-4.3,3.7-6.7,3.7c-0.8,0.9-1.9,1.5-3.1,1.8c-0.5,0.1-0.9,0.2-1.4,0.2c-0.1,0.6-0.5,1.2-1.1,1.6c0,0.1-0.1,0.1-0.1,0.2
			c-0.1,0.2-0.2,0.4-0.2,0.6c-0.2,0.5-0.6,1-1,1.4c-0.7,0.6-1.6,1-2.5,0.9c-0.1,0-0.6-0.1-0.9-0.1c-1,0.9-2.1,0.8-3,0.2
			c-0.1,0.3-0.1,0.6-0.2,0.8c-0.3,0.8-0.7,1.5-1.3,2.1c-0.7,0.8-2.1,1-3,0.4c-0.2-0.1-0.3-0.2-0.4-0.3c-0.4,0.5-0.5,1-1,1.4
			c-0.7,0.6-1.4,0.7-2.2,0.7c-0.5,0.5-0.9,0.9-1.7,1.2c-0.4,0.1-1.3,0.4-1.8,0.2c-0.4,0.8-1.4,1.3-2.4,1.4c-1.3-2.2,0.4-4.9,2.9-5.1
			c0.1,0,1.9,0.3,1.8,0.3c0.4-0.1,0.8-0.9,1.2-1.2c0.5-0.3,0.9-0.4,1.4-0.5c0.1-0.4,0.3-0.7,0.4-0.9c0.5-0.6,1-1,1.8-1.3
			c0.9-0.3,1.8-0.3,2.6-0.1c0.2-0.9,0.2-2,1.1-2.7c0.6-0.5,1.3-0.5,2-0.7c0.3-0.1,0.5-0.1,0.5,0c0.1-0.1,0.1-0.3,0.3-0.6
			c0.9-1.7,2.6-2.6,4.4-3.1c1.2-0.3,5.4-0.1,5.6-1.2c0.4-2.4,3.5-2.1,4.6-0.6c-1-1.3-1.1-0.6,0.3-1.4c0.7-0.4,1.8-0.9,2-1.8
			c0.3-1.2,1.9-2.2,3.1-1.8l0.1,0c0.2-0.3,0.5-0.5,0.8-0.8c0.7-0.6,3.6-1.6,3.6-2.5c0.1-1,0.7-2.2,1.8-2.4c0.7-0.1,2-0.3,2.7,0.2
			c0.1-0.2,0.2-0.3,0.3-0.4c1.5-2.2,3.2-1.9,5.2-1.8c0.9-1.2,1.6-2.2,3.2-2C183.2,109,182.2,110.8,180.6,111.2z"/>
		<path class="st16" d="M191.9,117.9c-0.4,0.6-0.9,1.7-1.8,2c-0.7,0.2-1.5-0.2-2.2,0c-1.1,0.3-0.9,0.5-1.6,1.3
			c-1.6,1.7-2.7,1.8-4.1,1.3c-0.2,0.2-0.3,0.4-0.5,0.6c-1,1.1-4,1.9-4.4,3.3c-0.3,1.2-1.8,2.3-3.1,1.8c0,0-0.1,0-0.1,0
			c-1.6,2-4.3,3.7-6.7,3.7c-0.8,0.9-1.9,1.5-3.1,1.8c-0.5,0.1-0.9,0.2-1.4,0.2c-0.1,0.6-0.5,1.2-1.1,1.6c0,0.1-0.1,0.1-0.1,0.2
			l-0.2,0.6c-0.2,0.5-0.6,1-1,1.4c-0.7,0.7-1.6,1-2.5,0.9c-0.1,0-0.6-0.1-0.9-0.1c-1,0.8-2.1,0.8-3,0.2c-0.1,0.3-0.2,0.6-0.2,0.8
			c-0.3,0.8-0.7,1.5-1.3,2.1c-0.7,0.8-2.1,1-3,0.4c-0.2-0.1-0.3-0.2-0.4-0.3c-0.4,0.5-0.5,1-1,1.4c-0.7,0.6-1.4,0.7-2.2,0.7
			c-0.5,0.5-0.9,0.9-1.7,1.2c-0.4,0.1-1.3,0.4-1.8,0.2c-0.4,0.8-1.4,1.3-2.4,1.4c-1.3-2.2,0.4-4.9,2.9-5.1c0.1,0,1.9,0.3,1.8,0.3
			c0.4-0.1,0.8-0.9,1.2-1.2c0.5-0.3,0.9-0.4,1.4-0.5c0.1-0.4,0.3-0.7,0.4-0.9c0.5-0.6,1-1,1.8-1.3c0.9-0.3,1.8-0.3,2.6-0.1
			c0.2-0.9,0.2-2,1.1-2.7c0.6-0.5,1.3-0.5,2-0.7c0.3-0.1,0.5-0.1,0.5,0c0-0.1,0.1-0.3,0.3-0.6c0.9-1.7,2.7-2.6,4.5-3.1
			c1.2-0.3,5.4-0.1,5.6-1.2c0.4-2.4,3.5-2.1,4.6-0.6c-1-1.3-1.1-0.6,0.3-1.5c0.7-0.4,1.8-0.9,2-1.8c0.3-1.2,1.9-2.2,3.1-1.8l0.1,0
			c0.2-0.3,0.5-0.5,0.8-0.8c0.7-0.6,3.6-1.6,3.6-2.5c0.1-1,0.7-2.2,1.8-2.4c0.7-0.1,2-0.3,2.7,0.2c0.1-0.2,0.2-0.3,0.3-0.4
			c1.5-2.2,3.2-1.9,5.2-1.8c0.9-1.2,1.7-2.2,3.2-2C194.5,115.7,193.5,117.5,191.9,117.9z"/>
		<path class="st16" d="M203.8,125.3c-0.4,0.6-0.9,1.7-1.8,2c-0.7,0.2-1.5-0.2-2.2,0c-1.1,0.3-0.9,0.5-1.6,1.3
			c-1.6,1.7-2.7,1.8-4.1,1.3c-0.1,0.2-0.3,0.4-0.5,0.6c-1,1.1-4,2-4.4,3.3c-0.3,1.2-1.8,2.3-3.1,1.8c0,0-0.1,0-0.1,0
			c-1.6,2-4.3,3.7-6.7,3.7c-0.8,0.9-1.9,1.5-3.1,1.8c-0.5,0.1-0.9,0.2-1.4,0.2c-0.1,0.6-0.5,1.2-1.1,1.6c0,0.1-0.1,0.1-0.1,0.2
			c-0.1,0.2-0.2,0.4-0.2,0.6c-0.2,0.5-0.6,1-1,1.4c-0.7,0.7-1.6,1-2.5,0.9c-0.1,0-0.6-0.1-0.9-0.1c-1,0.9-2.1,0.8-3,0.2
			c-0.1,0.3-0.2,0.6-0.2,0.8c-0.3,0.8-0.7,1.5-1.3,2.1c-0.7,0.8-2.1,1-3,0.4c-0.2-0.1-0.3-0.2-0.4-0.3c-0.4,0.5-0.5,1-1,1.4
			c-0.7,0.6-1.5,0.7-2.2,0.7c-0.5,0.5-0.9,0.9-1.7,1.2c-0.4,0.1-1.3,0.4-1.8,0.2c-0.4,0.8-1.4,1.3-2.4,1.4c-1.3-2.2,0.4-4.9,2.9-5.1
			c0.1,0,1.9,0.3,1.8,0.3c0.4-0.1,0.8-0.9,1.2-1.2c0.5-0.3,0.9-0.4,1.4-0.5c0.1-0.4,0.3-0.7,0.4-0.9c0.5-0.6,1-1,1.8-1.3
			c0.9-0.3,1.8-0.3,2.6-0.1c0.2-0.9,0.2-2,1.1-2.7c0.6-0.5,1.3-0.5,2-0.7c0.3-0.1,0.5-0.1,0.5,0c0-0.1,0.1-0.3,0.3-0.6
			c0.9-1.7,2.7-2.6,4.4-3.1c1.2-0.3,5.4-0.1,5.6-1.2c0.4-2.4,3.5-2.1,4.6-0.6c-1-1.3-1.1-0.5,0.3-1.4c0.7-0.4,1.7-0.9,2-1.8
			c0.3-1.2,1.9-2.2,3.1-1.8l0.1,0c0.2-0.3,0.5-0.5,0.8-0.8c0.7-0.6,3.6-1.6,3.6-2.5c0.1-1,0.7-2.2,1.8-2.4c0.7-0.1,2-0.3,2.7,0.2
			c0.1-0.1,0.2-0.3,0.3-0.4c1.5-2.2,3.2-1.9,5.2-1.8c0.9-1.2,1.7-2.2,3.2-2C206.4,123.1,205.4,125,203.8,125.3z"/>
		<path class="st16" d="M215.1,132.8c-0.4,0.6-0.9,1.7-1.8,2c-0.7,0.2-1.5-0.2-2.2,0c-1.1,0.3-0.9,0.5-1.6,1.3
			c-1.6,1.7-2.7,1.8-4.1,1.3c-0.1,0.2-0.3,0.4-0.5,0.6c-1,1.1-4,1.9-4.4,3.3c-0.3,1.2-1.8,2.3-3.1,1.8c0,0-0.1,0-0.1,0
			c-1.6,2-4.3,3.7-6.7,3.7c-0.8,0.9-1.9,1.5-3.1,1.8c-0.5,0.1-0.9,0.2-1.4,0.2c-0.1,0.6-0.5,1.2-1.1,1.6c0,0.1-0.1,0.1-0.1,0.2
			c-0.1,0.2-0.2,0.4-0.2,0.6c-0.2,0.5-0.6,1-1,1.4c-0.7,0.6-1.6,1-2.5,0.9c-0.1,0-0.6-0.1-0.9-0.1c-1,0.9-2.1,0.8-3,0.2
			c-0.1,0.3-0.1,0.6-0.2,0.8c-0.3,0.8-0.7,1.5-1.3,2.1c-0.7,0.8-2.1,1-3,0.4c-0.2-0.1-0.3-0.2-0.4-0.3c-0.4,0.5-0.5,1-1,1.4
			c-0.7,0.6-1.4,0.7-2.2,0.7c-0.5,0.5-0.9,0.9-1.7,1.2c-0.4,0.1-1.3,0.4-1.8,0.2c-0.4,0.8-1.4,1.3-2.4,1.4c-1.3-2.2,0.4-4.9,2.9-5.1
			c0.1,0,1.9,0.3,1.8,0.3c0.4-0.1,0.8-0.9,1.2-1.2c0.5-0.3,0.9-0.4,1.4-0.5c0.1-0.4,0.3-0.7,0.4-0.9c0.5-0.6,1-1,1.8-1.3
			c0.9-0.3,1.8-0.3,2.6-0.1c0.2-0.9,0.2-2,1.1-2.7c0.6-0.5,1.3-0.5,2-0.7c0.3-0.1,0.5-0.1,0.5,0c0.1-0.1,0.1-0.3,0.3-0.6
			c0.9-1.7,2.6-2.6,4.4-3.1c1.2-0.3,5.4-0.1,5.6-1.2c0.4-2.4,3.5-2.1,4.6-0.6c-1-1.3-1.1-0.6,0.3-1.5c0.7-0.4,1.8-0.9,2-1.8
			c0.3-1.2,1.9-2.2,3.1-1.8l0.1,0c0.2-0.3,0.5-0.5,0.8-0.8c0.7-0.6,3.6-1.6,3.6-2.5c0.1-1,0.7-2.2,1.8-2.4c0.7-0.1,2-0.3,2.7,0.2
			c0.1-0.2,0.2-0.3,0.3-0.4c1.5-2.2,3.2-1.9,5.2-1.8c0.9-1.2,1.6-2.2,3.2-2C217.7,130.5,216.7,132.4,215.1,132.8z"/>
	</g>
	<rect x="172.8" y="31.3" class="st17" width="2.2" height="65.3"/>
	<rect x="218.8" y="58.4" class="st17" width="2.2" height="65.3"/>
	<rect x="78.1" y="76" transform="matrix(0.8701 -0.4928 0.4928 0.8701 -22.8094 67.693)" class="st17" width="77.9" height="2.2"/>
	<rect x="194.5" y="32.2" transform="matrix(0.5 -0.866 0.866 0.5 25.2796 211.2218)" class="st17" width="2.2" height="103.1"/>
	<path class="st17" d="M153.1,21.1l87.6,50.6V133l-87.6-50.6V21.1L153.1,21.1z M150.9,17.4v66.3l91.9,53.1V70.5L150.9,17.4
		L150.9,17.4z"/>
	<path class="st17" d="M148.8,21.1v61.3l-64.6,37.3V58.4L148.8,21.1L148.8,21.1z M150.9,17.4L82,57.2v66.3l68.9-39.8V17.4
		L150.9,17.4z"/>
	<path class="st17" d="M117.4,13.1l27.5,5.3L89.9,50.1L117.4,13.1L117.4,13.1z M116.5,10.8L82,57.2l68.9-39.8L116.5,10.8L116.5,10.8
		z"/>
	<polygon class="st18" points="150.9,17.4 242.8,70.5 242.8,136.8 150.9,83.7 	"/>
	<g>
		<g>
			<path class="st19" d="M108.8,111.6c0,0-0.6-4.9,4.2-8.5C115.5,108.2,108.8,111.6,108.8,111.6z"/>
			<path class="st19" d="M108.8,105c0,0-0.6-4.9,4.2-8.5C115.5,101.5,108.8,105,108.8,105z"/>
			<path class="st19" d="M108.8,111.6c0,0-1.2-3.5-6-5.1C103.2,112.3,108.8,111.6,108.8,111.6z"/>
			<path class="st19" d="M108.8,107c0,0-1.2-3.5-6-5.1C103.2,107.7,108.8,107,108.8,107z"/>
			<path class="st19" d="M108.8,102.4c0,0-1.2-3.5-6-5.1C103.2,103.1,108.8,102.4,108.8,102.4z"/>
			
				<rect x="95.1" y="106.2" transform="matrix(1.457875e-02 -0.9999 0.9999 1.457875e-02 0.6931 213.8047)" class="st19" width="27.5" height="0.8"/>
			<path class="st19" d="M109,100c0,0-5-4.6,0.3-11.4C112.9,92.6,109,100,109,100z"/>
		</g>
		<g>
			<path class="st20" d="M117.6,107c0,0-0.6-4.9,4.2-8.5C124.4,103.5,117.6,107,117.6,107z"/>
			<path class="st20" d="M117.6,100.4c0,0-0.6-4.9,4.2-8.5C124.4,96.9,117.6,100.4,117.6,100.4z"/>
			<path class="st20" d="M117.6,107c0,0-1.2-3.5-6-5.1C112.1,107.7,117.6,107,117.6,107z"/>
			<path class="st20" d="M117.6,102.4c0,0-1.2-3.5-6-5.1C112.1,103.1,117.6,102.4,117.6,102.4z"/>
			<path class="st20" d="M117.6,97.8c0,0-1.2-3.5-6-5.1C112.1,98.4,117.6,97.8,117.6,97.8z"/>
			
				<rect x="103.9" y="101.5" transform="matrix(1.457875e-02 -0.9999 0.9999 1.457875e-02 14.0413 218.1027)" class="st20" width="27.5" height="0.8"/>
			<path class="st20" d="M117.8,95.4c0,0-5-4.6,0.3-11.4C121.8,87.9,117.8,95.4,117.8,95.4z"/>
		</g>
		<g>
			<path class="st19" d="M126.5,102.4c0,0-0.6-4.9,4.2-8.5C133.2,98.9,126.5,102.4,126.5,102.4z"/>
			<path class="st19" d="M126.5,95.8c0,0-0.6-4.9,4.2-8.5C133.2,92.3,126.5,95.8,126.5,95.8z"/>
			<path class="st19" d="M126.5,102.4c0,0-1.2-3.5-6-5.1C120.9,103.1,126.5,102.4,126.5,102.4z"/>
			<path class="st19" d="M126.5,97.8c0,0-1.2-3.5-6-5.1C120.9,98.5,126.5,97.8,126.5,97.8z"/>
			<path class="st19" d="M126.5,93.1c0,0-1.2-3.5-6-5.1C120.9,93.8,126.5,93.1,126.5,93.1z"/>
			
				<rect x="112.8" y="96.9" transform="matrix(1.478697e-02 -0.9999 0.9999 1.478697e-02 27.3634 222.3802)" class="st19" width="27.5" height="0.8"/>
			<path class="st19" d="M126.7,90.8c0,0-5-4.6,0.3-11.4C130.6,83.3,126.7,90.8,126.7,90.8z"/>
		</g>
		<g>
			<path class="st20" d="M135.3,97.8c0,0-0.6-4.9,4.2-8.5C142.1,94.3,135.3,97.8,135.3,97.8z"/>
			<path class="st20" d="M135.3,91.1c0,0-0.6-4.9,4.2-8.5C142.1,87.6,135.3,91.1,135.3,91.1z"/>
			<path class="st20" d="M135.3,97.8c0,0-1.2-3.5-6-5.1C129.8,98.5,135.3,97.8,135.3,97.8z"/>
			<path class="st20" d="M135.3,93.1c0,0-1.2-3.5-6-5.1C129.8,93.8,135.3,93.1,135.3,93.1z"/>
			<path class="st20" d="M135.3,88.5c0,0-1.2-3.5-6-5.1C129.8,89.2,135.3,88.5,135.3,88.5z"/>
			
				<rect x="121.6" y="92.3" transform="matrix(1.457875e-02 -0.9999 0.9999 1.457875e-02 40.7376 226.6989)" class="st20" width="27.5" height="0.8"/>
			<path class="st20" d="M135.5,86.2c0,0-5-4.6,0.3-11.4C139.5,78.7,135.5,86.2,135.5,86.2z"/>
		</g>
		<g>
			<path class="st19" d="M144.2,93.2c0,0-0.6-4.9,4.2-8.5C150.9,89.7,144.2,93.2,144.2,93.2z"/>
			<path class="st19" d="M144.2,86.5c0,0-0.6-4.9,4.2-8.5C150.9,83,144.2,86.5,144.2,86.5z"/>
			<path class="st19" d="M144.2,93.2c0,0-1.2-3.5-6-5.1C138.6,93.8,144.2,93.2,144.2,93.2z"/>
			<path class="st19" d="M144.2,88.5c0,0-1.2-3.5-6-5.1C138.6,89.2,144.2,88.5,144.2,88.5z"/>
			<path class="st19" d="M144.2,83.9c0,0-1.2-3.5-6-5.1C138.6,84.6,144.2,83.9,144.2,83.9z"/>
			
				<rect x="130.5" y="87.7" transform="matrix(1.478697e-02 -0.9999 0.9999 1.478697e-02 54.056 230.9782)" class="st19" width="27.5" height="0.8"/>
			<path class="st19" d="M144.4,81.6c0,0-5-4.6,0.3-11.4C148.4,74.1,144.4,81.6,144.4,81.6z"/>
		</g>
		<g>
			<path class="st20" d="M153,88.5c0,0-0.6-4.9,4.2-8.5C159.8,85,153,88.5,153,88.5z"/>
			<path class="st20" d="M153,81.9c0,0-0.6-4.9,4.2-8.5C159.8,78.4,153,81.9,153,81.9z"/>
			<path class="st20" d="M153,88.5c0,0-1.2-3.5-6-5.1C147.5,89.2,153,88.5,153,88.5z"/>
			<path class="st20" d="M153,83.9c0,0-1.2-3.5-6-5.1C147.5,84.6,153,83.9,153,83.9z"/>
			<path class="st20" d="M153,79.3c0,0-1.2-3.5-6-5.1C147.5,80,153,79.3,153,79.3z"/>
			
				<rect x="139.3" y="83" transform="matrix(1.457875e-02 -0.9999 0.9999 1.457875e-02 67.4339 235.2951)" class="st20" width="27.5" height="0.8"/>
			<path class="st20" d="M153.3,76.9c0,0-5-4.6,0.3-11.4C157.2,69.4,153.3,76.9,153.3,76.9z"/>
		</g>
		<g>
			<path class="st19" d="M120.9,118.8c0,0-0.6-4.9,4.2-8.5C127.6,115.3,120.9,118.8,120.9,118.8z"/>
			<path class="st19" d="M120.9,112.1c0,0-0.6-4.9,4.2-8.5C127.6,108.6,120.9,112.1,120.9,112.1z"/>
			<path class="st19" d="M120.9,118.8c0,0-1.2-3.5-6-5.1C115.3,119.5,120.9,118.8,120.9,118.8z"/>
			<path class="st19" d="M120.9,114.1c0,0-1.2-3.5-6-5.1C115.3,114.8,120.9,114.1,120.9,114.1z"/>
			<path class="st19" d="M120.9,109.5c0,0-1.2-3.5-6-5.1C115.3,110.2,120.9,109.5,120.9,109.5z"/>
			
				<rect x="107.2" y="113.3" transform="matrix(1.457571e-02 -0.9999 0.9999 1.457571e-02 5.504 232.9545)" class="st19" width="27.5" height="0.8"/>
			<path class="st19" d="M121.1,107.2c0,0-5-4.6,0.3-11.4C125.1,99.7,121.1,107.2,121.1,107.2z"/>
		</g>
		<g>
			<path class="st20" d="M129.7,114.2c0,0-0.6-4.9,4.2-8.5C136.5,110.7,129.7,114.2,129.7,114.2z"/>
			<path class="st20" d="M129.7,107.5c0,0-0.6-4.9,4.2-8.5C136.5,104,129.7,107.5,129.7,107.5z"/>
			<path class="st20" d="M129.7,114.2c0,0-1.2-3.5-6-5.1C124.2,114.8,129.7,114.2,129.7,114.2z"/>
			<path class="st20" d="M129.7,109.5c0,0-1.2-3.5-6-5.1C124.2,110.2,129.7,109.5,129.7,109.5z"/>
			<path class="st20" d="M129.7,104.9c0,0-1.2-3.5-6-5.1C124.2,105.6,129.7,104.9,129.7,104.9z"/>
			
				<rect x="116" y="108.7" transform="matrix(1.457571e-02 -0.9999 0.9999 1.457571e-02 18.8521 237.2526)" class="st20" width="27.5" height="0.8"/>
			<path class="st20" d="M130,102.6c0,0-5-4.6,0.3-11.4C133.9,95.1,130,102.6,130,102.6z"/>
		</g>
		<g>
			<path class="st19" d="M138.6,109.5c0,0-0.6-4.9,4.2-8.5C145.3,106,138.6,109.5,138.6,109.5z"/>
			<path class="st19" d="M138.6,102.9c0,0-0.6-4.9,4.2-8.5C145.3,99.4,138.6,102.9,138.6,102.9z"/>
			<path class="st19" d="M138.6,109.5c0,0-1.2-3.5-6-5.1C133,110.2,138.6,109.5,138.6,109.5z"/>
			<path class="st19" d="M138.6,104.9c0,0-1.2-3.5-6-5.1C133,105.6,138.6,104.9,138.6,104.9z"/>
			<path class="st19" d="M138.6,100.3c0,0-1.2-3.5-6-5.1C133,101,138.6,100.3,138.6,100.3z"/>
			
				<rect x="124.9" y="104" transform="matrix(1.478389e-02 -0.9999 0.9999 1.478389e-02 32.1718 241.5284)" class="st19" width="27.5" height="0.8"/>
			<path class="st19" d="M138.8,97.9c0,0-5-4.6,0.3-11.4C142.8,90.4,138.8,97.9,138.8,97.9z"/>
		</g>
		<g>
			<path class="st20" d="M147.5,104.9c0,0-0.6-4.9,4.2-8.5C154.2,101.4,147.5,104.9,147.5,104.9z"/>
			<path class="st20" d="M147.5,98.3c0,0-0.6-4.9,4.2-8.5C154.2,94.8,147.5,98.3,147.5,98.3z"/>
			<path class="st20" d="M147.5,104.9c0,0-1.2-3.5-6-5.1C141.9,105.6,147.5,104.9,147.5,104.9z"/>
			<path class="st20" d="M147.5,100.3c0,0-1.2-3.5-6-5.1C141.9,101,147.5,100.3,147.5,100.3z"/>
			<path class="st20" d="M147.5,95.6c0,0-1.2-3.5-6-5.1C141.9,96.3,147.5,95.6,147.5,95.6z"/>
			
				<rect x="133.7" y="99.4" transform="matrix(1.457571e-02 -0.9999 0.9999 1.457571e-02 45.5485 245.8487)" class="st20" width="27.5" height="0.8"/>
			<path class="st20" d="M147.7,93.3c0,0-5-4.6,0.3-11.4C151.6,85.8,147.7,93.3,147.7,93.3z"/>
		</g>
		<g>
			<path class="st19" d="M156.3,100.3c0,0-0.6-4.9,4.2-8.5C163,96.8,156.3,100.3,156.3,100.3z"/>
			<path class="st19" d="M156.3,93.6c0,0-0.6-4.9,4.2-8.5C163,90.1,156.3,93.6,156.3,93.6z"/>
			<path class="st19" d="M156.3,100.3c0,0-1.2-3.5-6-5.1C150.7,101,156.3,100.3,156.3,100.3z"/>
			<path class="st19" d="M156.3,95.7c0,0-1.2-3.5-6-5.1C150.7,96.3,156.3,95.7,156.3,95.7z"/>
			<path class="st19" d="M156.3,91c0,0-1.2-3.5-6-5.1C150.7,91.7,156.3,91,156.3,91z"/>
			
				<rect x="142.6" y="94.8" transform="matrix(1.457571e-02 -0.9999 0.9999 1.457571e-02 58.8966 250.1468)" class="st19" width="27.5" height="0.8"/>
			<path class="st19" d="M156.5,88.7c0,0-5-4.6,0.3-11.4C160.5,81.2,156.5,88.7,156.5,88.7z"/>
		</g>
		<g>
			<path class="st20" d="M165.2,95.7c0,0-0.6-4.9,4.2-8.5C171.9,92.2,165.2,95.7,165.2,95.7z"/>
			<path class="st20" d="M165.2,89c0,0-0.6-4.9,4.2-8.5C171.9,85.5,165.2,89,165.2,89z"/>
			<path class="st20" d="M165.2,95.7c0,0-1.2-3.5-6-5.1C159.6,96.4,165.2,95.7,165.2,95.7z"/>
			<path class="st20" d="M165.2,91c0,0-1.2-3.5-6-5.1C159.6,91.7,165.2,91,165.2,91z"/>
			<path class="st20" d="M165.2,86.4c0,0-1.2-3.5-6-5.1C159.6,87.1,165.2,86.4,165.2,86.4z"/>
			
				<rect x="151.5" y="90.2" transform="matrix(1.478389e-02 -0.9999 0.9999 1.478389e-02 72.2108 254.4255)" class="st20" width="27.5" height="0.8"/>
			<path class="st20" d="M165.4,84.1c0,0-5-4.6,0.3-11.4C169.3,76.6,165.4,84.1,165.4,84.1z"/>
		</g>
		<g>
			<path class="st19" d="M133,125.9c0,0-0.6-4.9,4.2-8.5C139.7,122.4,133,125.9,133,125.9z"/>
			<path class="st19" d="M133,119.3c0,0-0.6-4.9,4.2-8.5C139.7,115.8,133,119.3,133,119.3z"/>
			<path class="st19" d="M133,125.9c0,0-1.2-3.5-6-5.1C127.5,126.6,133,125.9,133,125.9z"/>
			<path class="st19" d="M133,121.3c0,0-1.2-3.5-6-5.1C127.5,122,133,121.3,133,121.3z"/>
			<path class="st19" d="M133,116.7c0,0-1.2-3.5-6-5.1C127.5,117.3,133,116.7,133,116.7z"/>
			
				<rect x="119.3" y="120.4" transform="matrix(1.457571e-02 -0.9999 0.9999 1.457571e-02 10.3146 252.1039)" class="st19" width="27.5" height="0.8"/>
			<path class="st19" d="M133.2,114.3c0,0-5-4.6,0.3-11.4C137.2,106.8,133.2,114.3,133.2,114.3z"/>
		</g>
		<g>
			<path class="st20" d="M141.9,121.3c0,0-0.6-4.9,4.2-8.5C148.6,117.8,141.9,121.3,141.9,121.3z"/>
			<path class="st20" d="M141.9,114.6c0,0-0.6-4.9,4.2-8.5C148.6,111.1,141.9,114.6,141.9,114.6z"/>
			<path class="st20" d="M141.9,121.3c0,0-1.2-3.5-6-5.1C136.3,122,141.9,121.3,141.9,121.3z"/>
			<path class="st20" d="M141.9,116.7c0,0-1.2-3.5-6-5.1C136.3,117.3,141.9,116.7,141.9,116.7z"/>
			<path class="st20" d="M141.9,112c0,0-1.2-3.5-6-5.1C136.3,112.7,141.9,112,141.9,112z"/>
			
				<rect x="128.2" y="115.8" transform="matrix(1.457571e-02 -0.9999 0.9999 1.457571e-02 23.6627 256.4021)" class="st20" width="27.5" height="0.8"/>
			<path class="st20" d="M142.1,109.7c0,0-5-4.6,0.3-11.4C146,102.2,142.1,109.7,142.1,109.7z"/>
		</g>
		<g>
			<path class="st19" d="M150.7,116.7c0,0-0.6-4.9,4.2-8.5C157.4,113.2,150.7,116.7,150.7,116.7z"/>
			<path class="st19" d="M150.7,110c0,0-0.6-4.9,4.2-8.5C157.4,106.5,150.7,110,150.7,110z"/>
			<path class="st19" d="M150.7,116.7c0,0-1.2-3.5-6-5.1C145.2,117.4,150.7,116.7,150.7,116.7z"/>
			<path class="st19" d="M150.7,112c0,0-1.2-3.5-6-5.1C145.2,112.7,150.7,112,150.7,112z"/>
			<path class="st19" d="M150.7,107.4c0,0-1.2-3.5-6-5.1C145.2,108.1,150.7,107.4,150.7,107.4z"/>
			
				<rect x="137" y="111.2" transform="matrix(1.478389e-02 -0.9999 0.9999 1.478389e-02 36.9799 260.6764)" class="st19" width="27.5" height="0.8"/>
			<path class="st19" d="M150.9,105.1c0,0-5-4.6,0.3-11.4C154.9,97.6,150.9,105.1,150.9,105.1z"/>
		</g>
		<g>
			<path class="st20" d="M159.6,112c0,0-0.6-4.9,4.2-8.5C166.3,108.5,159.6,112,159.6,112z"/>
			<path class="st20" d="M159.6,105.4c0,0-0.6-4.9,4.2-8.5C166.3,101.9,159.6,105.4,159.6,105.4z"/>
			<path class="st20" d="M159.6,112c0,0-1.2-3.5-6-5.1C154,112.7,159.6,112,159.6,112z"/>
			<path class="st20" d="M159.6,107.4c0,0-1.2-3.5-6-5.1C154,108.1,159.6,107.4,159.6,107.4z"/>
			<path class="st20" d="M159.6,102.8c0,0-1.2-3.5-6-5.1C154,103.5,159.6,102.8,159.6,102.8z"/>
			
				<rect x="145.9" y="106.6" transform="matrix(1.457571e-02 -0.9999 0.9999 1.457571e-02 50.3591 264.9982)" class="st20" width="27.5" height="0.8"/>
			<path class="st20" d="M159.8,100.4c0,0-5-4.6,0.3-11.4C163.7,93,159.8,100.4,159.8,100.4z"/>
		</g>
		<g>
			<path class="st19" d="M168.4,107.4c0,0-0.6-4.9,4.2-8.5C175.2,103.9,168.4,107.4,168.4,107.4z"/>
			<path class="st19" d="M168.4,100.8c0,0-0.6-4.9,4.2-8.5C175.2,97.3,168.4,100.8,168.4,100.8z"/>
			<path class="st19" d="M168.4,107.4c0,0-1.2-3.5-6-5.1C162.9,108.1,168.4,107.4,168.4,107.4z"/>
			<path class="st19" d="M168.4,102.8c0,0-1.2-3.5-6-5.1C162.9,103.5,168.4,102.8,168.4,102.8z"/>
			<path class="st19" d="M168.4,98.2c0,0-1.2-3.5-6-5.1C162.9,98.8,168.4,98.2,168.4,98.2z"/>
			
				<rect x="154.7" y="101.9" transform="matrix(1.457571e-02 -0.9999 0.9999 1.457571e-02 63.7072 269.2963)" class="st19" width="27.5" height="0.8"/>
			<path class="st19" d="M168.6,95.8c0,0-5-4.6,0.3-11.4C172.6,88.3,168.6,95.8,168.6,95.8z"/>
		</g>
		<g>
			<path class="st20" d="M177.3,102.8c0,0-0.6-4.9,4.2-8.5C184,99.3,177.3,102.8,177.3,102.8z"/>
			<path class="st20" d="M177.3,96.1c0,0-0.6-4.9,4.2-8.5C184,92.7,177.3,96.1,177.3,96.1z"/>
			<path class="st20" d="M177.3,102.8c0,0-1.2-3.5-6-5.1C171.7,103.5,177.3,102.8,177.3,102.8z"/>
			<path class="st20" d="M177.3,98.2c0,0-1.2-3.5-6-5.1C171.7,98.9,177.3,98.2,177.3,98.2z"/>
			<path class="st20" d="M177.3,93.5c0,0-1.2-3.5-6-5.1C171.7,94.2,177.3,93.5,177.3,93.5z"/>
			
				<rect x="163.6" y="97.3" transform="matrix(1.478389e-02 -0.9999 0.9999 1.478389e-02 77.0188 273.5734)" class="st20" width="27.5" height="0.8"/>
			<path class="st20" d="M177.5,91.2c0,0-5-4.6,0.3-11.4C181.5,83.7,177.5,91.2,177.5,91.2z"/>
		</g>
		<g>
			<path class="st19" d="M145.1,133.1c0,0-0.6-4.9,4.2-8.5C151.9,129.6,145.1,133.1,145.1,133.1z"/>
			<path class="st19" d="M145.1,126.4c0,0-0.6-4.9,4.2-8.5C151.9,122.9,145.1,126.4,145.1,126.4z"/>
			<path class="st19" d="M145.1,133.1c0,0-1.2-3.5-6-5.1C139.6,133.7,145.1,133.1,145.1,133.1z"/>
			<path class="st19" d="M145.1,128.4c0,0-1.2-3.5-6-5.1C139.6,129.1,145.1,128.4,145.1,128.4z"/>
			<path class="st19" d="M145.1,123.8c0,0-1.2-3.5-6-5.1C139.6,124.5,145.1,123.8,145.1,123.8z"/>
			
				<rect x="131.4" y="127.6" transform="matrix(1.457571e-02 -0.9999 0.9999 1.457571e-02 15.1251 271.2534)" class="st19" width="27.5" height="0.8"/>
			<path class="st19" d="M145.3,121.4c0,0-5-4.6,0.3-11.4C149.3,114,145.3,121.4,145.3,121.4z"/>
		</g>
		<g>
			<path class="st20" d="M154,128.4c0,0-0.6-4.9,4.2-8.5C160.7,124.9,154,128.4,154,128.4z"/>
			<path class="st20" d="M154,121.8c0,0-0.6-4.9,4.2-8.5C160.7,118.3,154,121.8,154,121.8z"/>
			<path class="st20" d="M154,128.4c0,0-1.2-3.5-6-5.1C148.4,129.1,154,128.4,154,128.4z"/>
			<path class="st20" d="M154,123.8c0,0-1.2-3.5-6-5.1C148.4,124.5,154,123.8,154,123.8z"/>
			<path class="st20" d="M154,119.2c0,0-1.2-3.5-6-5.1C148.4,119.9,154,119.2,154,119.2z"/>
			
				<rect x="140.3" y="122.9" transform="matrix(1.457571e-02 -0.9999 0.9999 1.457571e-02 28.4732 275.5515)" class="st20" width="27.5" height="0.8"/>
			<path class="st20" d="M154.2,116.8c0,0-5-4.6,0.3-11.4C158.2,109.3,154.2,116.8,154.2,116.8z"/>
		</g>
		<g>
			<path class="st19" d="M162.8,123.8c0,0-0.6-4.9,4.2-8.5C169.6,120.3,162.8,123.8,162.8,123.8z"/>
			<path class="st19" d="M162.8,117.2c0,0-0.6-4.9,4.2-8.5C169.6,113.7,162.8,117.2,162.8,117.2z"/>
			<path class="st19" d="M162.8,123.8c0,0-1.2-3.5-6-5.1C157.3,124.5,162.8,123.8,162.8,123.8z"/>
			<path class="st19" d="M162.8,119.2c0,0-1.2-3.5-6-5.1C157.3,119.9,162.8,119.2,162.8,119.2z"/>
			<path class="st19" d="M162.8,114.5c0,0-1.2-3.5-6-5.1C157.3,115.2,162.8,114.5,162.8,114.5z"/>
			
				<rect x="149.1" y="118.3" transform="matrix(1.478389e-02 -0.9999 0.9999 1.478389e-02 41.7879 279.8243)" class="st19" width="27.5" height="0.8"/>
			<path class="st19" d="M163.1,112.2c0,0-5-4.6,0.3-11.4C167,104.7,163.1,112.2,163.1,112.2z"/>
		</g>
		<g>
			<path class="st20" d="M171.7,119.2c0,0-0.6-4.9,4.2-8.5C178.4,115.7,171.7,119.2,171.7,119.2z"/>
			<path class="st20" d="M171.7,112.5c0,0-0.6-4.9,4.2-8.5C178.4,109,171.7,112.5,171.7,112.5z"/>
			<path class="st20" d="M171.7,119.2c0,0-1.2-3.5-6-5.1C166.1,119.9,171.7,119.2,171.7,119.2z"/>
			<path class="st20" d="M171.7,114.5c0,0-1.2-3.5-6-5.1C166.1,115.2,171.7,114.5,171.7,114.5z"/>
			<path class="st20" d="M171.7,109.9c0,0-1.2-3.5-6-5.1C166.1,110.6,171.7,109.9,171.7,109.9z"/>
			
				<rect x="158" y="113.7" transform="matrix(1.457571e-02 -0.9999 0.9999 1.457571e-02 55.1696 284.1476)" class="st20" width="27.5" height="0.8"/>
			<path class="st20" d="M171.9,107.6c0,0-5-4.6,0.3-11.4C175.9,100.1,171.9,107.6,171.9,107.6z"/>
		</g>
		<g>
			<path class="st19" d="M180.6,114.6c0,0-0.6-4.9,4.2-8.5C187.3,111.1,180.6,114.6,180.6,114.6z"/>
			<path class="st19" d="M180.6,107.9c0,0-0.6-4.9,4.2-8.5C187.3,104.4,180.6,107.9,180.6,107.9z"/>
			<path class="st19" d="M180.6,114.6c0,0-1.2-3.5-6-5.1C175,115.2,180.6,114.6,180.6,114.6z"/>
			<path class="st19" d="M180.6,109.9c0,0-1.2-3.5-6-5.1C175,110.6,180.6,109.9,180.6,109.9z"/>
			<path class="st19" d="M180.6,105.3c0,0-1.2-3.5-6-5.1C175,106,180.6,105.3,180.6,105.3z"/>
			
				<rect x="166.8" y="109.1" transform="matrix(1.457571e-02 -0.9999 0.9999 1.457571e-02 68.5177 288.4457)" class="st19" width="27.5" height="0.8"/>
			<path class="st19" d="M180.8,103c0,0-5-4.6,0.3-11.4C184.7,95.5,180.8,103,180.8,103z"/>
		</g>
		<g>
			<path class="st20" d="M189.4,109.9c0,0-0.6-4.9,4.2-8.5C196.1,106.4,189.4,109.9,189.4,109.9z"/>
			<path class="st20" d="M189.4,103.3c0,0-0.6-4.9,4.2-8.5C196.1,99.8,189.4,103.3,189.4,103.3z"/>
			<path class="st20" d="M189.4,109.9c0,0-1.2-3.5-6-5.1C183.8,110.6,189.4,109.9,189.4,109.9z"/>
			<path class="st20" d="M189.4,105.3c0,0-1.2-3.5-6-5.1C183.8,106,189.4,105.3,189.4,105.3z"/>
			<path class="st20" d="M189.4,100.7c0,0-1.2-3.5-6-5.1C183.8,101.4,189.4,100.7,189.4,100.7z"/>
			
				<rect x="175.7" y="104.4" transform="matrix(1.478389e-02 -0.9999 0.9999 1.478389e-02 81.8268 292.7213)" class="st20" width="27.5" height="0.8"/>
			<path class="st20" d="M189.6,98.3c0,0-5-4.6,0.3-11.4C193.6,90.8,189.6,98.3,189.6,98.3z"/>
		</g>
		<g>
			<path class="st19" d="M157.3,140.2c0,0-0.6-4.9,4.2-8.5C164,136.7,157.3,140.2,157.3,140.2z"/>
			<path class="st19" d="M157.3,133.5c0,0-0.6-4.9,4.2-8.5C164,130,157.3,133.5,157.3,133.5z"/>
			<path class="st19" d="M157.3,140.2c0,0-1.2-3.5-6-5.1C151.7,140.9,157.3,140.2,157.3,140.2z"/>
			<path class="st19" d="M157.3,135.6c0,0-1.2-3.5-6-5.1C151.7,136.2,157.3,135.6,157.3,135.6z"/>
			<path class="st19" d="M157.3,130.9c0,0-1.2-3.5-6-5.1C151.7,131.6,157.3,130.9,157.3,130.9z"/>
			
				<rect x="143.5" y="134.7" transform="matrix(1.478697e-02 -0.9999 0.9999 1.478697e-02 19.9028 290.3738)" class="st19" width="27.5" height="0.8"/>
			<path class="st19" d="M157.5,128.6c0,0-5-4.6,0.3-11.4C161.4,121.1,157.5,128.6,157.5,128.6z"/>
		</g>
		<g>
			<path class="st20" d="M166.1,135.6c0,0-0.6-4.9,4.2-8.5C172.8,132.1,166.1,135.6,166.1,135.6z"/>
			<path class="st20" d="M166.1,128.9c0,0-0.6-4.9,4.2-8.5C172.8,125.4,166.1,128.9,166.1,128.9z"/>
			<path class="st20" d="M166.1,135.6c0,0-1.2-3.5-6-5.1C160.5,136.3,166.1,135.6,166.1,135.6z"/>
			<path class="st20" d="M166.1,130.9c0,0-1.2-3.5-6-5.1C160.5,131.6,166.1,130.9,166.1,130.9z"/>
			<path class="st20" d="M166.1,126.3c0,0-1.2-3.5-6-5.1C160.5,127,166.1,126.3,166.1,126.3z"/>
			
				<rect x="152.4" y="130.1" transform="matrix(1.457875e-02 -0.9999 0.9999 1.457875e-02 33.2833 294.7006)" class="st20" width="27.5" height="0.8"/>
			<path class="st20" d="M166.3,124c0,0-5-4.6,0.3-11.4C170.3,116.5,166.3,124,166.3,124z"/>
		</g>
		<g>
			<path class="st19" d="M175,130.9c0,0-0.6-4.9,4.2-8.5C181.7,127.4,175,130.9,175,130.9z"/>
			<path class="st19" d="M175,124.3c0,0-0.6-4.9,4.2-8.5C181.7,120.8,175,124.3,175,124.3z"/>
			<path class="st19" d="M175,130.9c0,0-1.2-3.5-6-5.1C169.4,131.6,175,130.9,175,130.9z"/>
			<path class="st19" d="M175,126.3c0,0-1.2-3.5-6-5.1C169.4,127,175,126.3,175,126.3z"/>
			<path class="st19" d="M175,121.7c0,0-1.2-3.5-6-5.1C169.4,122.4,175,121.7,175,121.7z"/>
			
				<rect x="161.2" y="125.4" transform="matrix(1.457875e-02 -0.9999 0.9999 1.457875e-02 46.6314 298.9986)" class="st19" width="27.5" height="0.8"/>
			<path class="st19" d="M175.2,119.3c0,0-5-4.6,0.3-11.4C179.1,111.8,175.2,119.3,175.2,119.3z"/>
		</g>
		<g>
			<path class="st20" d="M183.8,126.3c0,0-0.6-4.9,4.2-8.5C190.5,122.8,183.8,126.3,183.8,126.3z"/>
			<path class="st20" d="M183.8,119.7c0,0-0.6-4.9,4.2-8.5C190.5,116.2,183.8,119.7,183.8,119.7z"/>
			<path class="st20" d="M183.8,126.3c0,0-1.2-3.5-6-5.1C178.3,127,183.8,126.3,183.8,126.3z"/>
			<path class="st20" d="M183.8,121.7c0,0-1.2-3.5-6-5.1C178.3,122.4,183.8,121.7,183.8,121.7z"/>
			<path class="st20" d="M183.8,117c0,0-1.2-3.5-6-5.1C178.3,117.7,183.8,117,183.8,117z"/>
			
				<rect x="170.1" y="120.8" transform="matrix(1.478697e-02 -0.9999 0.9999 1.478697e-02 59.9417 303.2709)" class="st20" width="27.5" height="0.8"/>
			<path class="st20" d="M184,114.7c0,0-5-4.6,0.3-11.4C188,107.2,184,114.7,184,114.7z"/>
		</g>
		<g>
			<path class="st19" d="M192.7,121.7c0,0-0.6-4.9,4.2-8.5C199.4,118.2,192.7,121.7,192.7,121.7z"/>
			<path class="st19" d="M192.7,115c0,0-0.6-4.9,4.2-8.5C199.4,111.5,192.7,115,192.7,115z"/>
			<path class="st19" d="M192.7,121.7c0,0-1.2-3.5-6-5.1C187.1,122.4,192.7,121.7,192.7,121.7z"/>
			<path class="st19" d="M192.7,117.1c0,0-1.2-3.5-6-5.1C187.1,117.7,192.7,117.1,192.7,117.1z"/>
			<path class="st19" d="M192.7,112.4c0,0-1.2-3.5-6-5.1C187.1,113.1,192.7,112.4,192.7,112.4z"/>
			
				<rect x="179" y="116.2" transform="matrix(1.457875e-02 -0.9999 0.9999 1.457875e-02 73.3277 307.5948)" class="st19" width="27.5" height="0.8"/>
			<path class="st19" d="M192.9,110.1c0,0-5-4.6,0.3-11.4C196.8,102.6,192.9,110.1,192.9,110.1z"/>
		</g>
		<g>
			<path class="st20" d="M201.5,117.1c0,0-0.6-4.9,4.2-8.5C208.3,113.6,201.5,117.1,201.5,117.1z"/>
			<path class="st20" d="M201.5,110.4c0,0-0.6-4.9,4.2-8.5C208.3,106.9,201.5,110.4,201.5,110.4z"/>
			<path class="st20" d="M201.5,117.1c0,0-1.2-3.5-6-5.1C196,117.8,201.5,117.1,201.5,117.1z"/>
			<path class="st20" d="M201.5,112.4c0,0-1.2-3.5-6-5.1C196,113.1,201.5,112.4,201.5,112.4z"/>
			<path class="st20" d="M201.5,107.8c0,0-1.2-3.5-6-5.1C196,108.5,201.5,107.8,201.5,107.8z"/>
			
				<rect x="187.8" y="111.6" transform="matrix(1.478697e-02 -0.9999 0.9999 1.478697e-02 86.6343 311.8689)" class="st20" width="27.5" height="0.8"/>
			<path class="st20" d="M201.7,105.5c0,0-5-4.6,0.3-11.4C205.7,98,201.7,105.5,201.7,105.5z"/>
		</g>
		<g>
			<path class="st19" d="M169.4,147.3c0,0-0.6-4.9,4.2-8.5C176.1,143.8,169.4,147.3,169.4,147.3z"/>
			<path class="st19" d="M169.4,140.7c0,0-0.6-4.9,4.2-8.5C176.1,137.2,169.4,140.7,169.4,140.7z"/>
			<path class="st19" d="M169.4,147.3c0,0-1.2-3.5-6-5.1C163.8,148,169.4,147.3,169.4,147.3z"/>
			<path class="st19" d="M169.4,142.7c0,0-1.2-3.5-6-5.1C163.8,143.4,169.4,142.7,169.4,142.7z"/>
			<path class="st19" d="M169.4,138.1c0,0-1.2-3.5-6-5.1C163.8,138.7,169.4,138.1,169.4,138.1z"/>
			
				<rect x="155.7" y="141.8" transform="matrix(1.478697e-02 -0.9999 0.9999 1.478697e-02 24.7108 309.5218)" class="st19" width="27.5" height="0.8"/>
			<path class="st19" d="M169.6,135.7c0,0-5-4.6,0.3-11.4C173.5,128.2,169.6,135.7,169.6,135.7z"/>
		</g>
		<g>
			<path class="st20" d="M178.2,142.7c0,0-0.6-4.9,4.2-8.5C185,139.2,178.2,142.7,178.2,142.7z"/>
			<path class="st20" d="M178.2,136c0,0-0.6-4.9,4.2-8.5C185,132.5,178.2,136,178.2,136z"/>
			<path class="st20" d="M178.2,142.7c0,0-1.2-3.5-6-5.1C172.7,143.4,178.2,142.7,178.2,142.7z"/>
			<path class="st20" d="M178.2,138.1c0,0-1.2-3.5-6-5.1C172.7,138.8,178.2,138.1,178.2,138.1z"/>
			<path class="st20" d="M178.2,133.4c0,0-1.2-3.5-6-5.1C172.7,134.1,178.2,133.4,178.2,133.4z"/>
			
				<rect x="164.5" y="137.2" transform="matrix(1.457875e-02 -0.9999 0.9999 1.457875e-02 38.0938 313.85)" class="st20" width="27.5" height="0.8"/>
			<path class="st20" d="M178.4,131.1c0,0-5-4.6,0.3-11.4C182.4,123.6,178.4,131.1,178.4,131.1z"/>
		</g>
		<g>
			<path class="st19" d="M187.1,138.1c0,0-0.6-4.9,4.2-8.5C193.8,134.6,187.1,138.1,187.1,138.1z"/>
			<path class="st19" d="M187.1,131.4c0,0-0.6-4.9,4.2-8.5C193.8,127.9,187.1,131.4,187.1,131.4z"/>
			<path class="st19" d="M187.1,138.1c0,0-1.2-3.5-6-5.1C181.5,138.8,187.1,138.1,187.1,138.1z"/>
			<path class="st19" d="M187.1,133.4c0,0-1.2-3.5-6-5.1C181.5,134.1,187.1,133.4,187.1,133.4z"/>
			<path class="st19" d="M187.1,128.8c0,0-1.2-3.5-6-5.1C181.5,129.5,187.1,128.8,187.1,128.8z"/>
			
				<rect x="173.4" y="132.6" transform="matrix(1.457875e-02 -0.9999 0.9999 1.457875e-02 51.4419 318.1481)" class="st19" width="27.5" height="0.8"/>
			<path class="st19" d="M187.3,126.5c0,0-5-4.6,0.3-11.4C191.2,119,187.3,126.5,187.3,126.5z"/>
		</g>
		<g>
			<path class="st20" d="M195.9,133.5c0,0-0.6-4.9,4.2-8.5C202.7,130,195.9,133.5,195.9,133.5z"/>
			<path class="st20" d="M195.9,126.8c0,0-0.6-4.9,4.2-8.5C202.7,123.3,195.9,126.8,195.9,126.8z"/>
			<path class="st20" d="M195.9,133.5c0,0-1.2-3.5-6-5.1C190.4,134.1,195.9,133.5,195.9,133.5z"/>
			<path class="st20" d="M195.9,128.8c0,0-1.2-3.5-6-5.1C190.4,129.5,195.9,128.8,195.9,128.8z"/>
			<path class="st20" d="M195.9,124.2c0,0-1.2-3.5-6-5.1C190.4,124.9,195.9,124.2,195.9,124.2z"/>
			
				<rect x="182.2" y="128" transform="matrix(1.478697e-02 -0.9999 0.9999 1.478697e-02 64.7497 322.4188)" class="st20" width="27.5" height="0.8"/>
			<path class="st20" d="M196.1,121.8c0,0-5-4.6,0.3-11.4C200.1,114.4,196.1,121.8,196.1,121.8z"/>
		</g>
		<g>
			<path class="st19" d="M204.8,128.8c0,0-0.6-4.9,4.2-8.5C211.5,125.3,204.8,128.8,204.8,128.8z"/>
			<path class="st19" d="M204.8,122.2c0,0-0.6-4.9,4.2-8.5C211.5,118.7,204.8,122.2,204.8,122.2z"/>
			<path class="st19" d="M204.8,128.8c0,0-1.2-3.5-6-5.1C199.2,129.5,204.8,128.8,204.8,128.8z"/>
			<path class="st19" d="M204.8,124.2c0,0-1.2-3.5-6-5.1C199.2,124.9,204.8,124.2,204.8,124.2z"/>
			<path class="st19" d="M204.8,119.6c0,0-1.2-3.5-6-5.1C199.2,120.2,204.8,119.6,204.8,119.6z"/>
			
				<rect x="191.1" y="123.3" transform="matrix(1.457875e-02 -0.9999 0.9999 1.457875e-02 78.1382 326.7443)" class="st19" width="27.5" height="0.8"/>
			<path class="st19" d="M205,117.2c0,0-5-4.6,0.3-11.4C209,109.7,205,117.2,205,117.2z"/>
		</g>
		<g>
			<path class="st20" d="M213.7,124.2c0,0-0.6-4.9,4.2-8.5C220.4,120.7,213.7,124.2,213.7,124.2z"/>
			<path class="st20" d="M213.7,117.6c0,0-0.6-4.9,4.2-8.5C220.4,114.1,213.7,117.6,213.7,117.6z"/>
			<path class="st20" d="M213.7,124.2c0,0-1.2-3.5-6-5.1C208.1,124.9,213.7,124.2,213.7,124.2z"/>
			<path class="st20" d="M213.7,119.6c0,0-1.2-3.5-6-5.1C208.1,120.3,213.7,119.6,213.7,119.6z"/>
			<path class="st20" d="M213.7,114.9c0,0-1.2-3.5-6-5.1C208.1,115.6,213.7,114.9,213.7,114.9z"/>
			
				<rect x="199.9" y="118.7" transform="matrix(1.457875e-02 -0.9999 0.9999 1.457875e-02 91.4863 331.0424)" class="st20" width="27.5" height="0.8"/>
			<path class="st20" d="M213.9,112.6c0,0-5-4.6,0.3-11.4C217.8,105.1,213.9,112.6,213.9,112.6z"/>
		</g>
	</g>
	<polygon class="st21" points="82,57.2 150.9,17.4 150.9,83.7 82,123.5 	"/>
	<polygon class="st21" points="173.9,110.2 242.8,70.5 242.8,136.8 173.9,176.6 	"/>
	<polygon class="st22" points="82,57.2 173.9,110.2 173.9,176.6 82,123.5 	"/>
	<polygon class="st21" points="173.9,110.2 208.3,63.8 242.8,70.5 	"/>
	<polygon class="st21" points="82,57.2 116.5,10.8 150.9,17.4 	"/>
	<polygon class="st23" points="82,57.2 173.9,110.2 208.3,63.8 116.5,10.8 	"/>
	<polygon class="st24" points="116.5,10.8 150.9,17.4 242.8,70.5 208.3,63.8 	"/>
	<path class="st25" d="M84.2,60.9l87.6,50.6v61.3l-87.6-50.6V60.9L84.2,60.9z M82,57.2v66.3l91.9,53.1v-66.3L82,57.2L82,57.2z"/>
	<path class="st26" d="M240.6,74.2v61.3L176,172.8v-61.3L240.6,74.2L240.6,74.2z M242.8,70.5l-68.9,39.8v66.3l68.9-39.8V70.5
		L242.8,70.5z"/>
	<path class="st26" d="M209.3,66.2l27.5,5.3l-54.9,31.7L209.3,66.2L209.3,66.2z M208.3,63.8l-34.5,46.4l68.9-39.8L208.3,63.8
		L208.3,63.8z"/>
	<path class="st25" d="M117,13.6l88.1,50.9l-31.9,42.9L85.2,56.5L117,13.6L117,13.6z M116.5,10.8L82,57.2l91.9,53.1l34.5-46.4
		L116.5,10.8L116.5,10.8z"/>
	<path class="st17" d="M128.6,15.3l21.5,4.1l80.5,46.5l-21.5-4.1L128.6,15.3L128.6,15.3z M116.5,10.8l91.9,53.1l34.5,6.6l-91.9-53.1
		L116.5,10.8L116.5,10.8z"/>
	<polygon class="st26" points="197.9,161.8 195.8,163.3 195.8,123 220.9,108.4 220.9,148.5 218.8,150 218.8,112.1 197.9,124.3 	"/>
	<rect x="126.7" y="72" transform="matrix(0.5 -0.866 0.866 0.5 -43.0551 172.4387)" class="st25" width="2.2" height="103.1"/>
	<polygon class="st25" points="106,135.7 103.9,135.7 103.9,70.1 137.8,24.4 139.6,25.7 106,70.8 	"/>
	<polygon class="st25" points="152,162.8 149.8,162.8 149.8,97.2 182.2,50.6 184,51.8 152,97.8 	"/>
	
		<rect x="173.5" y="141.9" transform="matrix(0.866 -0.5001 0.5001 0.866 -46.5932 112.1863)" class="st26" width="25" height="2.2"/>
	
		<rect x="218.8" y="116.2" transform="matrix(0.866 -0.5001 0.5001 0.866 -27.632 131.3992)" class="st26" width="25" height="2.2"/>
	
		<rect x="184.9" y="104.8" transform="matrix(0.5047 -0.8633 0.8633 0.5047 -9.1543 218.6988)" class="st26" width="2.2" height="25.1"/>
	
		<rect x="209.3" y="90.9" transform="matrix(0.5001 -0.866 0.866 0.5001 35.4881 245.4877)" class="st26" width="42.1" height="2.2"/>
	<rect x="139.8" y="12.6" transform="matrix(0.5 -0.866 0.866 0.5 14.4412 154.3609)" class="st25" width="2.2" height="104.2"/>
	
		<rect x="200.6" y="36.2" transform="matrix(0.2494 -0.9684 0.9684 0.2494 99.4647 235.5104)" class="st17" width="2.2" height="34.9"/>
</g>
</svg>
