<?xml version="1.0" encoding="utf-8"?>
<!-- Generator: Adobe Illustrator 24.2.0, SVG Export Plug-In . SVG Version: 6.00 Build 0)  -->
<svg version="1.1" id="Layer_1" xmlns="http://www.w3.org/2000/svg" xmlns:xlink="http://www.w3.org/1999/xlink" x="0px" y="0px"
	 viewBox="0 0 320 306.2" style="enable-background:new 0 0 320 306.2;" xml:space="preserve">
<style type="text/css">
	.st0{fill:#8D1E5A;}
	.st1{fill:#5E0E3E;}
	.st2{fill:#4A1425;}
	.st3{fill:#C31C6F;}
	.st4{fill:#671140;}
	.st5{fill:#9C2063;}
	.st6{fill:#791646;}
	.st7{fill:#A32167;}
	.st8{fill:#4C112E;}
	.st9{fill:#AF1F63;}
	.st10{fill:#ED3487;}
	.st11{fill:#EC5F2D;}
	.st12{fill:#F397BB;}
	.st13{fill:#D41674;}
	.st14{fill:#E66E9F;}
	.st15{fill:#88442E;}
	.st16{fill:#7D8A00;}
	.st17{fill:#713818;}
	.st18{fill:#A3B800;}
	.st19{fill:#703717;}
	.st20{fill:#7B8800;}
	.st21{fill:#DBE61D;}
	.st22{fill:#F2FFFF;}
	.st23{fill:#C6D7DC;}
	.st24{fill:#00ACAF;}
	.st25{opacity:0.75;fill:#0063C5;}
	.st26{fill:#95AEB2;}
	.st27{fill:#422C4D;}
	.st28{fill:#0083CE;}
	.st29{fill:#543F62;}
	.st30{fill:#321C3B;}
	.st31{opacity:0.75;fill:#00C1C7;}
	.st32{opacity:0.75;fill:#00E0E0;}
	.st33{fill:#5C2606;}
</style>
<g>
	<path class="st0" d="M305.1,135.6l-3.6-1.1c-9.8-2.4-21-2.5-31.3-2.9c-22.9-1.1-44.8,2.3-65.2,11c-21.4,9.1-45.6,26-53.5,46.9
		c-5.5,14.7-9.6,31.8-6.9,47.3c2.8,16.5,12.7,32.8,12.5,49.5c10.4-2,18.5-13.1,29.4-16.3c0,0,8.3,4.9,19.2-3.4
		c14.6-11.1,29.3-24,46.6-28.3c19.2-4.7,26.9-22.6,37.1-28.1c8.3-17-2.3-20.6,5.7-33.3C305.1,161,299.6,149.2,305.1,135.6z"/>
	<path class="st1" d="M205.5,266.6c5.1-3.9,10.2-8,15.4-11.8c0.4-6.3,1.6-12.6,2.7-18.9c1.3-7.4,3.1-16.2-0.3-23.3
		c-1.5-3.1-10.5-9.1-10.5-9.1c-3,7.8-3.3,23.4-5.6,31.4c-2.2,7.7-4.2,15.4-5.6,23.2c-0.5,2.8-1,5.7-1.2,8.5
		c-0.1,1.7,0.1,2.4,0.1,2.4c0.1,0.1,0.2,0.3,0.3,0.4C202.4,268.7,203.9,267.8,205.5,266.6z"/>
	<path class="st2" d="M213.4,210.4c-0.1,18.6-0.7,39.8-6.5,55.1c3.6-2.8,7.2-5.6,10.8-8.4c0.8-5.3,1.8-10.6,2.7-16
		C221.9,232.7,215.4,217.7,213.4,210.4z"/>
	<path class="st1" d="M272.2,199.5c-2.5,9.9-2.8,20.1-3.7,30.3c8.5-7.1,14.1-16,20.8-19.5c8.3-17-2.3-20.6,5.7-33.3
		c10.1-16,4.6-27.8,10.1-41.4l-3.6-1.1c-0.3-0.1-0.6-0.1-0.9-0.2c-6.1,3-11.9,6.3-17.7,9.8c4.2,0.1,8,1,12,2.2
		c4.4,1.3,5.4,5.8,3.3,8.5C293.7,171.7,276.4,182.6,272.2,199.5z"/>
	<path class="st2" d="M299.9,166.4c-5.1,7.8-10.9,15.3-16.8,22.8c-3.2,10.6-6.7,21.2-9.7,31.9c5.4-8.3,11.8-15.7,19.1-22.5
		c0.4-8-3.3-12.4,2.4-21.5C297.3,173.3,298.9,169.7,299.9,166.4z"/>
	<path class="st1" d="M155.6,205c-0.4,0-0.8,0-1.2,0c-0.9,19.5-1.2,39.1-1.9,58.6c2.5,7.5,4.5,15.1,4.4,22.7c4.9-1,9.3-3.9,13.7-7.1
		c-0.1-1.2-0.2-2.5-0.3-3.7c-0.4-5.8-0.7-11.8-2.9-17.3c-1.8-4.6-5.1-9.1-6.1-14c-3.3-16.3,3.6-29.5,14.6-41.4
		C169.4,203.7,162.6,204.1,155.6,205z"/>
	<path class="st1" d="M230.5,248.1c3.9-2.5,7.9-4.7,12-6.5c0.3-4.2,0.7-8.3,1.3-12.5c1.5-10.1,5-18.3,8.8-27.8
		c3.4-8.5,1-17.5,4.3-25.9c2.6-6.6,6.1-12.5,8-19c-4.4,2.3-10,3.7-14.6,3.6c-5.6-0.1-11.3-0.8-16.7,0.9c0.3-0.1-15.8,3.3-11.8,4.9
		c1,0.1,5.4,1.2,6.3,1.5c0.5,0.2,13-0.2,13-0.2c-9.1,19-7.2,47-8.9,67.2C231.7,239.1,231.2,243.6,230.5,248.1z"/>
	<path class="st2" d="M230.5,248.1c1-0.6,2-1.2,3-1.8c0.5-8.1,1.8-16.1,2.8-24.2c1.1-8.7,1.5-17.5,3.5-26.1
		c3.4-14.8,7.3-25.2,20.7-35.1c1.1-0.8,2.2-1.2,3.4-1.3c0.4-1,0.7-2,1-3.1c-4.4,2.3-10,3.7-14.6,3.6c-5.6-0.1-11.3-0.8-16.7,0.9
		c0.3-0.1-15.8,3.3-11.8,4.9c1,0.1,5.4,1.2,6.3,1.5c0.5,0.2,13-0.2,13-0.2c-9.1,19-7.2,47-8.9,67.2
		C231.7,239.1,231.2,243.6,230.5,248.1z"/>
	<path class="st1" d="M193.7,223.5c4.5-10.8,2.9-21.6,11.2-32.3c1.9-2.5,14.8-16,15.3-18.8c-9.4,3.2-36.7,19.7-41.8,27.6
		c1.1,8.6,2.2,17.3,2.1,26.1c-0.1,8.8-1.3,17.4,0,26.2c1,6.5,2.3,12.9,3.4,19.4c0.9-0.4,1.8-0.8,2.8-1.2c-0.7-6.9,1.2-13.6,2.3-20.5
		C190.5,240.8,190.1,232.3,193.7,223.5z"/>
	<path class="st2" d="M202.9,183.9c0.1-0.4,0.1-0.8,0.2-1.3c-9.5,3-19,9.1-24.3,16.9c1,8.7,1.9,17.4,1.6,26.1
		c-0.2,8.8-1.6,17.4-0.5,26.2c0.8,6.5,2.1,12.9,3,19.4c0.8-0.4,1.6-0.7,2.5-1c-0.7-16.2-1-32.5-0.3-48.7
		C185.7,206.1,194,196.5,202.9,183.9z"/>
	<path class="st3" d="M154.5,190.7c-7.9-19-40.3-36-60.1-44.2c-19.9-8.2-46.8-8.1-68.3-9.1c-5.8-0.3-10.5-0.5-15.6-2
		c0,15.2,0.6,31.4,8.7,44.4c3.3,5.4,6.9,25.6,13.9,37.2c4.7,7.8,9.5,6,17,8.7c11.8,4.2,17.6,18.8,37.5,28.4
		c7.1,3.4,11.6,12.2,26.3,16.5c8.5,2.5,18.8,0.8,18.8,0.8c8.6,3,8.9,10.1,24.3,14.7c0.5-15.1-1-30.7-1-46.8
		C155.9,225,160.1,204.1,154.5,190.7z"/>
	<path class="st4" d="M74.9,246.3c3.5,2.8,7.6,5.5,12.6,8c4.3,2.1,7.6,6.1,12.8,9.9c-3.8-8.2-7.3-16.4-9.7-24.9
		c-3.1-11.1-4.2-22.9-7.7-33.9c0,0.1,0,0.2-0.1,0.3c1.8,5.6,2.6,12.5,1.8,19.3C84.7,234.3,82.5,243,74.9,246.3z"/>
	<path class="st5" d="M155.5,207.1c-2.6-1.8-6.7-4.5-10.1-5.3c0,0.2,0.1,0.5,0.1,0.8c0.1,0.4,0.3,0.8,0.4,1.1
		c0.5,0.3,0.9,0.7,1.3,1.2c10,12.3,6,27.2,6.5,41.3c0.5,12.1,2.3,24.2,3.2,36.2c0.2-13.9-1.1-28.2-1.1-43c0-9.2,1.6-20.8,1.5-31.6
		C156.8,207.8,156.1,207.5,155.5,207.1z"/>
	<path class="st5" d="M144.2,280c-1-10-2.3-20.1-2.8-30.2c-0.2-4.6,0.3-9.6,0.5-14.7c-2.9-8.4-6-16.7-7.2-25.4
		c-2.5-6.1-4.6-13,0.3-16.4c1.3-0.9,2.7-1.5,4.1-2c-0.9-0.5-1.8-0.9-2.9-1.2c-3.7,1.9-7.7,3.1-11.9,3.8c7.2,17.6,10.4,36,10,54.5
		c0.1,0.2,0.2,0.3,0.2,0.5c1.1,3.2,0.3,6.9-0.5,10.1c0.1,0.3,0.1,0.6,0.1,0.9c0,4.1-0.2,8.1-0.8,11.9
		C138,273.7,140.2,276.8,144.2,280z"/>
	<path class="st5" d="M12.4,136c-0.7-0.1-1.3-0.3-2-0.5c0,15.2,0.6,31.4,8.7,44.4c3.3,5.4,6.9,25.6,13.9,37.2
		c2.7,4.5,5.5,5.8,8.8,6.6c-7.1-12.9-19.9-32.5-12.1-45.5c-4.5-2.8-11.2-9.8-11.2-9.8c0,1.2-3.2-7.6-3.8-17.1
		c-0.2-4.3-0.2-8.7,0.4-13C14.1,137.6,13.2,136.8,12.4,136z"/>
	<path class="st5" d="M64,236.4c0.3-6.8,0.9-13.5,0.9-20.3c0.1-15.4-7.6-30.4-1.1-45.4c-1.5-1.2-2.6-2.5-3.7-3.8
		c-3.8-1.9-7.2-4.5-11.1-6c-0.1,2.2-0.3,4.3-0.6,6.4c0,0.2,0.1,0.5,0.1,0.7c3.5,8.6,5.2,17.5,6.9,26.6c0.2,0.4,0.4,0.9,0.5,1.4
		c0.5,2.2,0.9,4.3,1.3,6.5c0.5,0.7,0.9,1.6,0.9,2.7c0.6,9,1.7,17.8,1,26.7C60.8,233.2,62.4,234.7,64,236.4z"/>
	<path class="st6" d="M56.1,150.2c-5.5-0.8-19.1-2.3-20.4-2.3c1,8.7,1.9,17.5,4.5,26c2.8,9,8,16.9,11.4,25.6
		c4,10.5,6.1,21.4,7.7,32.3c1,0.9,1.9,1.8,2.9,2.7c-0.5-17.7-1.5-35.4-5.8-52.6c-2.4-9.9-3.6-13.1-4.5-19.4
		C52.9,161.4,57.1,150.4,56.1,150.2z"/>
	<path class="st1" d="M56.1,150.2c-5.5-0.8-36.4-9.3-37.7-9.3c4.1,6.3,14.9,11,18.8,11.9c10,3.1,9.9,8.8,11.7,15.7
		c2.4,9,4.7,18,6.8,27.1c2.7,11.8,5.6,25.1,5.4,37.9c0.4,0.3,0.7,0.6,1.1,1c-0.5-17.7-1.5-35.4-5.8-52.6c-2.4-9.9-3.3-13.4-4.2-19.7
		C53.1,161.1,57.1,150.4,56.1,150.2z"/>
	<path class="st6" d="M148.7,186c-10.2,0.3-41.7-3.9-39.3,1.7c7.1,9.1,14.5,22.5,19.3,48.1c2.2,12,2.4,23.7,3.9,35.8
		c0.6,0.2,2.2,1,2.7,1.2c0.7-6.4,1.7-12.8,2.3-19.4c1.7-18.3-5.2-38.8-7.1-57C130.6,196.5,145.4,189.7,148.7,186z"/>
	<path class="st1" d="M148.7,186c-10.2,0.3-58.5-16.4-68.1-13.4l11.7,7.3c10.4,3.5,27,16.2,26.9,16.6c2.4,1.3,11.2,19.4,12.9,26.9
		c3.5,15.5,5.1,33,1.8,48.7c0.5,0.2,0.9,0.4,1.4,0.7c0.7-6.4,1.7-12.8,2.3-19.4c1.7-18.3-5.2-38.8-7.1-57
		C130.6,196.5,145.4,189.7,148.7,186z"/>
	<path class="st7" d="M245.9,188.3c-0.8,5.8,2.4,35.2,0.6,40.7c6.2-0.2,4.7-1.5,10.9-2c5-0.4,16.2-23.2,21.1-24.8
		c4.9-1.6,14.6-6.8,17.6-10.7c2.9-3.8,2.7-6.9,5-11c2.3-4.2,4.7-4.1,7.9-7.8c3.3-3.8-3.2-17.1-3.2-17.1l-24.6,7.8
		c-2.6,1-5.3,1.8-8,2.7c-1.4,0.5-2.9,1-4.3,1.5c-5.7,2.1-11.5,4.1-17.5,5.7c-0.2,0.1-0.4,0.1-0.5,0.1c-0.5,0.2-0.9,0.2-1.3,0.1
		l-0.5,0.2c0,0,0.2,5.9-0.1,7.4C248.4,183.6,246.3,185.5,245.9,188.3z"/>
	<path class="st3" d="M258.5,213.4c-1.4,4.6-2.6,9.2-3.3,13.9c0.6-0.1,1.3-0.2,2.2-0.3c0.6,0,1.2-0.4,1.9-0.9
		c2.3-8.7,7-16.5,11.8-24.6c3.5-6,6.3-12.1,8.8-18.5c1.1-2.9,3.1-4.5-2.6-4.9c-3-0.2-6-0.4-9-0.5c4,4.6,7.5,8.1,3.9,14.7
		C268.2,199.4,260.9,205.6,258.5,213.4z"/>
	<path class="st6" d="M257.9,226.9c5.2-1.7,15.9-23.1,20.6-24.7c4.9-1.6,14.6-6.8,17.6-10.7c2.9-3.8,2.7-6.9,5-11
		c2.3-4.2,4.7-4.1,7.9-7.8c3.3-3.8-3.2-17.1-3.2-17.1c0-0.7-16.1,5.1-28.6,14c-2.6,2.6-0.3,9.4-0.3,10.1c0.5,8.5-1.3,13-8.6,22.4
		C262.4,209.6,259.5,218,257.9,226.9z"/>
	<path class="st1" d="M257.9,226.9c2.3-0.8,5.7-5.4,9.2-10.5c-2.6-8.7,4.7-16.9,10.9-24.1c1.9-5.5,3.5-11.1,6.5-16.2
		c-0.1,0-0.2-0.1-0.2-0.2c-0.6-0.4-1.2-0.8-1.9-1.2c-1.9-0.5-4.2,0.3-6.3,0.7c0.3,2,0.8,3.8,0.8,4.1c0.5,8.5-1.3,13-8.6,22.4
		C262.4,209.6,259.5,218,257.9,226.9z"/>
	<path class="st6" d="M231.1,254.3c3.3-2.1,5-15.2,7.6-24.5c2.2-8.2,15.6-19.7,15.9-28.1l-0.5,0.4c-6.3-4.6-13.3,0.5-18.8,2.3
		c-7.4,2.5-15.4,0.3-22.4-0.9c-0.5,4.9,0.9,12,1.5,17.3c0.6,5.9,3.2,30.7,3.4,36.4C222.7,258.7,226.4,257.3,231.1,254.3z"/>
	<path class="st1" d="M232.1,222.5c3.8-8.4,14.5-11.1,21.6-17c0.5-1.2,0.8-2.3,0.9-3.4c-6.3,4.9-14.8,8.3-23,9.1
		c0,0.2,0,0.4-0.1,0.6c-5,14.9-6.2,30.2-6.6,45.6c1.5-0.4,3.1-1.1,4.7-2.1c0-6.8,0.5-13.5,0.9-20.3
		C230.7,231.1,230.4,226.2,232.1,222.5z"/>
	<path class="st7" d="M226.4,256.8c0.1-17.6,3.2-37.4,9.8-54.1c-7,1.8-16.8,1.9-23.3,0.8c-0.5,4.9,0.9,12,1.5,17.3
		c0.6,5.9,3.2,30.7,3.4,36.4C221,258.2,223.7,257.9,226.4,256.8z"/>
	<path class="st3" d="M224.6,257.4c0.6-0.2,1.2-0.4,1.9-0.6c0.1-14.2,2.2-29.9,6.5-44.2c-3.2,0.3-6.5,0-9.2-1c4.7,6,4.3,11.9,3,18.8
		C224.9,239.4,224.8,248.4,224.6,257.4z"/>
	<path class="st4" d="M41.4,193.3c0.6,6.1,5,14.4,7.9,20.2c2.8,5.5,5.6,11.1,8.8,19.4c0.7,0,2.2,0.6,2.9,0.6
		c-0.1-7.2,0.2-13.1-1.2-20.2c-3-15.3-4.7-20.9-6.8-28.5C49.5,186.9,45.5,191.9,41.4,193.3z"/>
	<path class="st8" d="M53.4,185.8c-0.1-0.3-0.2-0.7-0.3-1c-3.7,2.1-7.6,7.1-11.7,8.6c0.6,6.1,5,14.4,7.9,20.2
		c2.8,5.5,5.6,11.1,8.8,19.4c0.2,0,0.4,0,0.7,0.1c-2.3-8.4-4.3-16.8-7-25.2c-1-3.2-2.8-7.3-1.9-10.7C51,193.3,53.1,189.8,53.4,185.8
		z"/>
	<path class="st6" d="M25.4,188.4c6.1,7.3,13.3,14.3,17.2,22.5c3.2,6.7,7.2,19.9,15.6,22c-3.2-11.4-9.7-26.5-12.3-34.9
		C44.4,193.5,35.1,179.8,25.4,188.4z"/>
	<path class="st9" d="M25.4,188.4c0.1,0.2,0.3,0.3,0.4,0.5c0.4,0,0.8,0,1.2,0.2c13.2,5,18.3,11.5,22.2,23.3c2,6,4.7,11.5,7.8,17.2
		c0.2,0.4,0.4,0.8,0.6,1.3c-3.4-11.1-9.2-24.8-11.7-32.8C44.4,193.5,35.1,179.8,25.4,188.4z"/>
	<path class="st6" d="M144.9,268.9c-0.4-11.3,4.8-24.4,7.5-34.9c-6.7,0.2-7.8-7.2-9.8-12c-1.9-4.6-3.2-10.6-4.9-14.6l-0.8-0.3
		c2,5.3,2.1,11.6,3.9,17.2c0.8,2.4,1.5,4.9,2.6,7.2c0.4,0.8,0.8,1.9,1.5,2.6c0.8,0.8,2.6,0.9,3,1.7c0.7,1.3-1.2,4.9-1.7,6.4
		c-0.9,2.9-1.4,4.9-1.4,8c0,3.4,0.2,6.9,0,10.3C144.8,263.1,143.7,266.5,144.9,268.9z"/>
	<path class="st4" d="M79.5,187.7c-0.5-2.2-1.1-13-1.8-15.1c-2-1.1-5.7-0.9-7.9-1.6c-1.4-0.4-6.4-1-5.7-0.3l-0.4-0.3
		c0.8,2.1,0,15.4,0,17.6c1.6-0.3,4.4-8.5,6.1-8.4c0.2,4.1,0.9,8.1-0.4,11.6c4.8,2.5,3,6.2,2.6,10.3c-0.5,4.7,3.2,2,2.8,6.7
		c-0.3,3.9-3.9,14.9-3.3,18.8c0,0,3.4,7.9,3.3,10.3c0,0.3,0.1,0.1,0.4-0.5c-3.1-10.3,0.6-20.4,4.1-30.4c-0.1-2-0.1-4,0-6.1
		c0.1-1.4,0.1-2.9,0.2-4.3C78.5,190.9,79.7,192.9,79.5,187.7z"/>
	<path class="st10" d="M252.3,108c-16.2-15.3-37.7-15.6-51-25.8c-6.6-5.1-36.4-17.8-44.3-22.4c-18.1,9.5-31.4,9.4-39.2,18.6
		c-7.8,9.1-23.4,10.2-34.3,15.7c0.6,1.3,2,4.4,2.7,5.8c-13.8-2.1-31,10.7-44.3,18.5C30.2,125.2,10,135,10,135
		c15.2,14.5,28.3,17.1,43.7,19.1c1.1,2.5-3,6.5-0.9,10.6c6.5,12.8,55.1,18.4,66.6,29.9c2.8,2.8,17.3-3.6,17.3-3.6
		c0,2.3-6.1,5.5-6.1,5.5c14.3,7.2,21.1,14.5,27.2,13.7c6-0.8,22.4-9.4,27.7-12.3c10.4-5.7,13.7-11.6,24.8-15.3
		c13.6-4.5,20.8-4.7,30.7-15.4c-5.6-0.5-10.6-1.6-16.4-1.5c14.1-5.7,30.8-1.7,45-9.1c11.2-5.9,22.6-18.8,35.4-21
		c-4.4-4.1-15.7-11.6-43.8-23.5l-17.6,2.7C245.7,113.4,250.6,109.8,252.3,108z"/>
	<path class="st11" d="M87,179.2c-3.1-0.4-6.1-0.8-9.2-1.3c-0.3,0-0.7,0-1,0c3.9,1.3,8.1,2.5,12.2,3.8c-0.2-0.1-0.4-0.2-0.7-0.3
		C87.4,180.7,87,180,87,179.2z"/>
	<path class="st12" d="M193.5,190.4c-5.2,4.5-28.8,16.4-35.9,17.5c-5.3,0.9-7.2-4.5-21.1-10.7c-3.3-1.4,3.9-7.2,4.4-8.6
		c-5,0.6-9.7,2-14.6,3.7c-2,0.7-6.5,0.6-8-0.6c-11.9-10.3-43.7-16-52.2-19.1c-4.7-1.8-11.6-5.5-12.2-10.2c-0.4-2.8,1.4-5.2,2.3-7.8
		c1.4-3.9-6-3.1-8.2-3.5c-8.2-1.5-29.9-7.7-38-16.1c0,0,0,0,0,0c15.2,14.5,28.3,17.1,43.7,19.1c1.1,2.5-3,6.5-0.9,10.6
		c6.5,12.8,55.1,18.4,66.6,29.9c2.8,2.8,17.3-3.6,17.3-3.6c0,2.3-6.1,5.5-6.1,5.5c14.3,7.2,21.1,14.5,27.2,13.7
		c6-0.8,22.4-9.4,27.7-12.3c10.4-5.7,13.7-11.6,24.8-15.3c13.6-4.5,20.8-4.7,30.7-15.4c-5.6-0.5-10.6-1.6-16.4-1.5
		c14.1-5.7,30.8-1.7,45-9.1c9-4.7,18.1-13.9,27.9-18.5c-7,1.4-13.3,6.9-19.1,10.5c-8.3,5.2-14.9,9.7-25.2,10.9
		c-6.5,0.8-24.3,2.6-27.3,4.2c-2.7,1.5-5.2,2.7-2.1,2.9c7.8,0.6,14.1,2,14.1,2c-13.8,10.7-28.7,10.1-32.8,12.4
		C200.5,183.5,197.3,187.1,193.5,190.4z"/>
	<path class="st2" d="M282.4,196.2c5.1-8.8,10.3-17.5,12.5-27.3c-5,1.1-12.5-0.8-17.7,0c-1.7,1.7,8.2,3.4,9,5.3c0,0-0.6,4.2-0.8,5.6
		C284.4,185.3,283.4,190.8,282.4,196.2z"/>
	<path class="st13" d="M235.8,213c3.9-1.4,16.9-7.1,18.6-10.4c2.3-4.7-15.9-6.6-20.2-5.2c0,0-6,2.9-8.9,4c-3.5,1.3-8.5,2.9-12.4,2.1
		c0.3,0.8,1.1,2.4,2,3.3C219.2,211.2,229.8,215.1,235.8,213z"/>
	<path class="st14" d="M235.8,213c3.4-1.2,13.6-5.6,17.3-8.9c-11.2,7.5-29.8,9.7-38.9-0.4c-0.4,0-0.9-0.1-1.3-0.2
		c0.3,0.8,1.1,2.4,2,3.3C219.2,211.2,229.8,215.1,235.8,213z"/>
	<path class="st10" d="M30,190.2c5.7,1.2,11.1,4.9,15.8,7.9c3.2-3.6,7.3-7.9,7.3-13.2c-4.1-1.5-8.9-3.6-11.4-6.7
		C32.8,181.5,17.3,188.6,30,190.2z"/>
	<path class="st12" d="M43.8,195c-2.7-2.1-9.6-4.8-15.5-5.9c-3-0.6-2.6-1.6-2.8-2c-0.7,1.4,0.4,2.5,4.6,3.1
		c5.7,1.2,11.1,4.9,15.8,7.9c3.1-3.5,7.1-7.7,7.2-12.9c-1.3,3.4-2.2,4.4-4.1,7.4C48.1,193.9,45.1,196.1,43.8,195z"/>
	<path class="st4" d="M108.4,205.3c-2.3,2.1-3.6,3.9-5,6.6c-3.4,6.6-5.1,11.4-3.2,18.9c2.3,9,5.9,17.7,9.3,26.4
		c2.3,6,5.7,17.3,12,21.1c2.5-2,5.7-4.1,7.9-6.4c-4-10.1-6.2-23-7.4-34.1c-1.3-11.3-3.4-23-4.4-34.1
		C114.7,202.6,110.1,203.7,108.4,205.3z"/>
	<path class="st8" d="M117.6,205c0-0.5-0.1-0.9-0.2-1.4c-2.8-1-7.4,0-9.1,1.6c-2.3,2.1-3.6,3.9-5,6.6c-3.4,6.6-5.1,11.4-3.2,18.9
		c2.3,9,5.9,17.7,9.3,26.4c2.3,6,5.7,17.3,12,21.1c2.1-1.7,4.7-3.5,6.8-5.4c-8.1-5.4-8.6-15.4-12.2-24.2c-3-7.3-5.4-14.5-5.3-22.3
		c0.1-7.5,4-13.1,6.3-20.1C117.2,205.8,117.4,205.4,117.6,205z"/>
	<path class="st6" d="M103.2,209.3c-3.6-1.9-9.3-2.8-13.3-5.1c-3.5-2-20-8.4-24.2-8c0.7,10.9,12.3,24.3,17.5,35.8
		c5.6,12.5,10,20.6,14,33.5c1.4,4.5,12.2,3.6,17.2,12.3l7.1,0.5c0,0-1.5-8.5-2.6-11.9c-1.4-4.3-9.2-29.8-11.2-38.1
		C106.3,222.9,108.8,212.3,103.2,209.3z"/>
	<path class="st9" d="M106.3,213.3c-3,0.8-6.2,0.9-9.4,0.8c9.7,7.8,11.9,21.7,14.1,32.6c2.2,10.9,7,20.9,9.8,31.5l0.7,0
		c0,0-1.5-8.5-2.6-11.9c-1.4-4.3-9.2-29.8-11.2-38.1C106.7,224.4,107.7,217.8,106.3,213.3z"/>
	<path class="st10" d="M66.7,193.8c-4.5,3.6,7.2,15.8,13.9,18.7c7,3.1,16.4,3.7,24.1,2.9c7-0.7,13.1-12.2,13.1-12.2
		c-4.1-2.4-13.1-3.4-19.5-7.1c-8.3-4.8-18.6-9.8-18.6-9.8C75.1,190.1,71.1,190.3,66.7,193.8z"/>
	<path class="st12" d="M66.7,193.8c-4.5,3.6,7.2,15.8,13.9,18.7c7,3.1,16.4,3.7,24.1,2.9c5.5-0.5,10.5-7.9,12.4-10.9
		c-9.3,9.9-17.7,11.2-35,5.8c-5.2-1.6-17.1-8.4-14.1-17.4C67.5,193.1,67.1,193.4,66.7,193.8z"/>
	<path class="st15" d="M175.1,192.6c0-0.1,0-0.2,0-0.2l-0.7,0.6C174.6,193,174.9,192.8,175.1,192.6z"/>
</g>
<g>
	<polygon class="st16" points="49.7,137.5 49.7,128.7 243.9,147.1 243.9,156 	"/>
	<polygon class="st17" points="49.7,137.5 163,202.7 243.9,156 129.7,90.1 	"/>
	<polygon class="st18" points="49.7,128.7 163,193.8 243.9,147.1 129.7,81.2 	"/>
	<polygon class="st18" points="92.9,50.9 207.1,116.8 243.9,95.2 129.7,29.3 	"/>
	<g>
		<g>
			<path class="st19" d="M193.3,70c0.8,0.5,0.8,1.2,0,1.7s-2.1,0.5-3,0c-0.8-0.5-0.8-1.2,0-1.7C191.1,69.6,192.5,69.6,193.3,70z"/>
			<path class="st19" d="M192.4,55.8c0.3,0.2,0.3,0.5,0,0.6c-0.3,0.2-0.8,0.2-1.1,0c-0.3-0.2-0.3-0.5,0-0.6S192.1,55.6,192.4,55.8z"
				/>
			<polygon class="st19" points="191,56.1 189.7,70.9 193.9,70.9 192.6,56.1 			"/>
			<g>
				<path class="st19" d="M191.3,61.1c-2.9-0.3-5.1-4.8-5.2-5l0.4-0.2c0,0,2.2,4.4,4.9,4.7L191.3,61.1z"/>
			</g>
			<g>
				<path class="st19" d="M192.7,62.7l-0.2-0.4c0.1,0,2.3-1,2.6-4.4l0.4,0C195.2,61.6,192.8,62.6,192.7,62.7z"/>
			</g>
			<g>
				<path class="st19" d="M189.5,60.7c-1.8,0-2.7-1.6-2.8-1.6l0.4-0.2c0,0.1,1.1,1.7,2.9,1.4l0.1,0.4
					C189.9,60.7,189.7,60.7,189.5,60.7z"/>
			</g>
		</g>
		<g>
			<path class="st18" d="M199.6,54c0-0.9-0.6-1.7-1.5-1.9c0.1-0.2,0.2-0.4,0.3-0.6c0.6-1.6-0.2-3.3-1.8-3.9c-0.1,0-0.3-0.1-0.4-0.1
				c0.3-0.4,0.5-0.8,0.5-1.3c0-1.1-0.8-1.9-1.8-2.1c0.1-0.2,0.1-0.4,0.1-0.6c0-1-0.8-1.9-1.9-1.9c-0.2,0-0.3,0-0.5,0.1
				c-0.2-0.9-1-1.6-1.9-1.6c-1.1,0-2,0.9-2,2c0,0.2,0,0.3,0.1,0.5c-0.1,0-0.2,0-0.3,0c-1.4,0-2.5,1.1-2.5,2.5c0,0.4,0.1,0.8,0.3,1.2
				c-1.1,0.1-2.1,0.8-2.5,1.9c-0.5,1.2-0.1,2.5,0.8,3.3c-0.6,0.3-1.1,0.9-1.4,1.6c-0.6,1.6,0.2,3.3,1.8,3.9c0.2,0.1,0.4,0.1,0.6,0.2
				c0,1.2,0.7,2.4,1.9,2.9c1.1,0.4,2.4,0.1,3.2-0.7c0.3,0.3,0.7,0.5,1.2,0.7c2.1,0.8,4.4-0.2,5.4-2.2c0.7-0.3,1.2-1,1.2-1.8
				C199.1,55.5,199.6,54.8,199.6,54z"/>
			<g>
				<path class="st20" d="M198.2,52.1c0.1-0.2,0.2-0.4,0.3-0.6c0.2-0.5,0.2-1.1,0.1-1.6c-0.8,0.6-1.8,1-2.8,1c-0.1,0-0.1,0-0.2,0
					c0.1,0.3,0.2,0.6,0.2,0.9c0,1.6-1.3,3-3,3c-1.2,0-2.3-0.7-2.7-1.8c-0.3,0.1-0.6,0.1-0.8,0.1c-1.1,0-2-0.6-2.4-1.5
					c-0.4,0.2-0.9,0.3-1.4,0.3c-0.5,0-0.9-0.1-1.3-0.3c-0.4,0.3-0.7,0.7-0.9,1.2c-0.6,1.6,0.2,3.3,1.8,3.9c0.2,0.1,0.4,0.1,0.6,0.2
					c0,1.2,0.7,2.4,1.9,2.9c1.1,0.4,2.4,0.1,3.2-0.7c0.3,0.3,0.7,0.5,1.2,0.7c2.1,0.8,4.4-0.2,5.4-2.2c0.7-0.3,1.2-1,1.2-1.8
					c0.7-0.3,1.2-1,1.2-1.8C199.6,53.1,199,52.3,198.2,52.1z"/>
			</g>
			<path class="st21" d="M194.4,41.9c-0.3-0.2-0.7-0.4-1.1-0.4c-0.2,0-0.3,0-0.5,0.1c-0.2-0.9-1-1.6-1.9-1.6c-1.1,0-2,0.9-2,2
				c0,0.2,0,0.3,0.1,0.5c-0.1,0-0.2,0-0.3,0c-1.4,0-2.5,1.1-2.5,2.5c0,0.4,0.1,0.8,0.3,1.2c-0.3,0-0.5,0.1-0.7,0.2
				c0.4,0.7,1.2,1.1,2,1.1c1,0,1.8-0.6,2.2-1.5c0.2,0.1,0.4,0.1,0.6,0.1c1.3,0,2.4-1.1,2.4-2.4c0-0.2,0-0.3,0-0.5
				C193.5,42.8,194,42.4,194.4,41.9z"/>
		</g>
	</g>
	<g>
		<g>
			<path class="st19" d="M160.8,51.2c0.8,0.5,0.8,1.2,0,1.7c-0.8,0.5-2.1,0.5-3,0c-0.8-0.5-0.8-1.2,0-1.7
				C158.7,50.7,160,50.7,160.8,51.2z"/>
			<path class="st19" d="M159.9,37c0.3,0.2,0.3,0.5,0,0.6c-0.3,0.2-0.8,0.2-1.1,0c-0.3-0.2-0.3-0.5,0-0.6S159.6,36.8,159.9,37z"/>
			<polygon class="st19" points="158.5,37.3 157.2,52.1 161.4,52.1 160.1,37.3 			"/>
			<g>
				<path class="st19" d="M158.9,42.3c-2.9-0.3-5.1-4.8-5.2-5l0.4-0.2c0,0,2.2,4.4,4.9,4.7L158.9,42.3z"/>
			</g>
			<g>
				<path class="st19" d="M160.2,43.9l-0.2-0.4c0.1,0,2.3-1,2.6-4.4l0.4,0C162.7,42.7,160.3,43.8,160.2,43.9z"/>
			</g>
			<g>
				<path class="st19" d="M157,41.9c-1.8,0-2.7-1.6-2.8-1.6l0.4-0.2c0,0.1,1.1,1.7,2.9,1.4l0.1,0.4C157.4,41.8,157.2,41.9,157,41.9z
					"/>
			</g>
		</g>
		<g>
			<path class="st18" d="M167.1,35.2c0-0.9-0.6-1.7-1.5-1.9c0.1-0.2,0.2-0.4,0.3-0.6c0.6-1.6-0.2-3.3-1.8-3.9
				c-0.1,0-0.3-0.1-0.4-0.1c0.3-0.4,0.5-0.8,0.5-1.3c0-1.1-0.8-1.9-1.8-2.1c0.1-0.2,0.1-0.4,0.1-0.6c0-1-0.8-1.9-1.9-1.9
				c-0.2,0-0.3,0-0.5,0.1c-0.2-0.9-1-1.6-1.9-1.6c-1.1,0-2,0.9-2,2c0,0.2,0,0.3,0.1,0.5c-0.1,0-0.2,0-0.3,0c-1.4,0-2.5,1.1-2.5,2.5
				c0,0.4,0.1,0.8,0.3,1.2c-1.1,0.1-2.1,0.8-2.5,1.9c-0.5,1.2-0.1,2.5,0.8,3.3c-0.6,0.3-1.1,0.9-1.4,1.6c-0.6,1.6,0.2,3.3,1.8,3.9
				c0.2,0.1,0.4,0.1,0.6,0.2c0,1.2,0.7,2.4,1.9,2.9c1.1,0.4,2.4,0.1,3.2-0.7c0.3,0.3,0.7,0.5,1.2,0.7c2.1,0.8,4.4-0.2,5.4-2.2
				c0.7-0.3,1.2-1,1.2-1.8C166.6,36.7,167.1,36,167.1,35.2z"/>
			<g>
				<path class="st20" d="M165.7,33.3c0.1-0.2,0.2-0.4,0.3-0.6c0.2-0.5,0.2-1.1,0.1-1.6c-0.8,0.6-1.8,1-2.8,1c-0.1,0-0.1,0-0.2,0
					c0.1,0.3,0.2,0.6,0.2,0.9c0,1.6-1.3,3-3,3c-1.2,0-2.3-0.7-2.7-1.8c-0.3,0.1-0.6,0.1-0.8,0.1c-1.1,0-2-0.6-2.4-1.5
					c-0.4,0.2-0.9,0.3-1.4,0.3c-0.5,0-0.9-0.1-1.3-0.3c-0.4,0.3-0.7,0.7-0.9,1.2c-0.6,1.6,0.2,3.3,1.8,3.9c0.2,0.1,0.4,0.1,0.6,0.2
					c0,1.2,0.7,2.4,1.9,2.9c1.1,0.4,2.4,0.1,3.2-0.7c0.3,0.3,0.7,0.5,1.2,0.7c2.1,0.8,4.4-0.2,5.4-2.2c0.7-0.3,1.2-1,1.2-1.8
					c0.7-0.3,1.2-1,1.2-1.8C167.1,34.3,166.5,33.5,165.7,33.3z"/>
			</g>
			<path class="st21" d="M161.9,23.1c-0.3-0.2-0.7-0.4-1.1-0.4c-0.2,0-0.3,0-0.5,0.1c-0.2-0.9-1-1.6-1.9-1.6c-1.1,0-2,0.9-2,2
				c0,0.2,0,0.3,0.1,0.5c-0.1,0-0.2,0-0.3,0c-1.4,0-2.5,1.1-2.5,2.5c0,0.4,0.1,0.8,0.3,1.2c-0.3,0-0.5,0.1-0.7,0.2
				c0.4,0.7,1.2,1.1,2,1.1c1,0,1.8-0.6,2.2-1.5c0.2,0.1,0.4,0.1,0.6,0.1c1.3,0,2.4-1.1,2.4-2.4c0-0.2,0-0.3,0-0.5
				C161,24,161.5,23.6,161.9,23.1z"/>
		</g>
	</g>
	<g>
		<g>
			<path class="st19" d="M138,37.7c0.8,0.5,0.8,1.2,0,1.7c-0.8,0.5-2.1,0.5-3,0c-0.8-0.5-0.8-1.2,0-1.7
				C135.8,37.2,137.1,37.2,138,37.7z"/>
			<path class="st19" d="M137,23.4c0.3,0.2,0.3,0.5,0,0.6s-0.8,0.2-1.1,0c-0.3-0.2-0.3-0.5,0-0.6C136.2,23.3,136.7,23.3,137,23.4z"
				/>
			<polygon class="st19" points="135.7,23.8 134.4,38.6 138.6,38.6 137.2,23.8 			"/>
			<g>
				<path class="st19" d="M136,28.7c-2.9-0.3-5.1-4.8-5.2-5l0.4-0.2c0,0,2.2,4.4,4.9,4.7L136,28.7z"/>
			</g>
			<g>
				<path class="st19" d="M137.4,30.3l-0.2-0.4c0.1,0,2.3-1,2.6-4.4l0.4,0C139.9,29.2,137.5,30.3,137.4,30.3z"/>
			</g>
			<g>
				<path class="st19" d="M134.2,28.3c-1.8,0-2.7-1.6-2.8-1.6l0.4-0.2c0,0.1,1.1,1.7,2.9,1.4l0.1,0.4
					C134.5,28.3,134.4,28.3,134.2,28.3z"/>
			</g>
		</g>
		<g>
			<path class="st18" d="M144.3,21.6c0-0.9-0.6-1.7-1.5-1.9c0.1-0.2,0.2-0.4,0.3-0.6c0.6-1.6-0.2-3.3-1.8-3.9
				c-0.1,0-0.3-0.1-0.4-0.1c0.3-0.4,0.5-0.8,0.5-1.3c0-1.1-0.8-1.9-1.8-2.1c0.1-0.2,0.1-0.4,0.1-0.6c0-1-0.8-1.9-1.9-1.9
				c-0.2,0-0.3,0-0.5,0.1c-0.2-0.9-1-1.6-1.9-1.6c-1.1,0-2,0.9-2,2c0,0.2,0,0.3,0.1,0.5c-0.1,0-0.2,0-0.3,0c-1.4,0-2.5,1.1-2.5,2.5
				c0,0.4,0.1,0.8,0.3,1.2c-1.1,0.1-2.1,0.8-2.5,1.9c-0.5,1.2-0.1,2.5,0.8,3.3c-0.6,0.3-1.1,0.9-1.4,1.6c-0.6,1.6,0.2,3.3,1.8,3.9
				c0.2,0.1,0.4,0.1,0.6,0.2c0,1.2,0.7,2.4,1.9,2.9c1.1,0.4,2.4,0.1,3.2-0.7c0.3,0.3,0.7,0.5,1.2,0.7c2.1,0.8,4.4-0.2,5.4-2.2
				c0.7-0.3,1.2-1,1.2-1.8C143.8,23.1,144.3,22.4,144.3,21.6z"/>
			<g>
				<path class="st20" d="M142.8,19.7c0.1-0.2,0.2-0.4,0.3-0.6c0.2-0.5,0.2-1.1,0.1-1.6c-0.8,0.6-1.8,1-2.8,1c-0.1,0-0.1,0-0.2,0
					c0.1,0.3,0.2,0.6,0.2,0.9c0,1.6-1.3,3-3,3c-1.2,0-2.3-0.7-2.7-1.8c-0.3,0.1-0.6,0.1-0.8,0.1c-1.1,0-2-0.6-2.4-1.5
					c-0.4,0.2-0.9,0.3-1.4,0.3c-0.5,0-0.9-0.1-1.3-0.3c-0.4,0.3-0.7,0.7-0.9,1.2c-0.6,1.6,0.2,3.3,1.8,3.9c0.2,0.1,0.4,0.1,0.6,0.2
					c0,1.2,0.7,2.4,1.9,2.9c1.1,0.4,2.4,0.1,3.2-0.7c0.3,0.3,0.7,0.5,1.2,0.7c2.1,0.8,4.4-0.2,5.4-2.2c0.7-0.3,1.2-1,1.2-1.8
					c0.7-0.3,1.2-1,1.2-1.8C144.3,20.7,143.7,20,142.8,19.7z"/>
			</g>
			<path class="st21" d="M139,9.6c-0.3-0.2-0.7-0.4-1.1-0.4c-0.2,0-0.3,0-0.5,0.1c-0.2-0.9-1-1.6-1.9-1.6c-1.1,0-2,0.9-2,2
				c0,0.2,0,0.3,0.1,0.5c-0.1,0-0.2,0-0.3,0c-1.4,0-2.5,1.1-2.5,2.5c0,0.4,0.1,0.8,0.3,1.2c-0.3,0-0.5,0.1-0.7,0.2
				c0.4,0.7,1.2,1.1,2,1.1c1,0,1.8-0.6,2.2-1.5c0.2,0.1,0.4,0.1,0.6,0.1c1.3,0,2.4-1.1,2.4-2.4c0-0.2,0-0.3,0-0.5
				C138.1,10.5,138.7,10.1,139,9.6z"/>
		</g>
	</g>
	<polygon class="st16" points="243.9,95.2 243.9,156 207.1,177.3 207.1,116.8 	"/>
	<polygon class="st16" points="92.9,102.6 207.1,168.4 207.1,116.7 92.9,50.9 	"/>
	<polygon class="st22" points="104.9,71.7 219,109.7 219,85.8 104.9,20 	"/>
	<polygon class="st23" points="92.9,66 207.1,131.7 207.1,92.1 92.9,26.3 	"/>
	<polygon class="st24" points="109.8,75.6 190.1,121.9 190.1,94 109.8,47.7 	"/>
	<polygon class="st22" points="92.9,26.3 104.9,20 219,85.8 207.1,92.1 	"/>
	<polygon class="st25" points="103.4,72 109.8,112.4 65.8,137.9 71.7,118.4 	"/>
	<g>
		<polygon class="st23" points="83,135.8 88.8,139.2 116.4,58.4 110.9,55.2 		"/>
		<polygon class="st22" points="110.9,55.2 117.1,52 122.7,55.1 116.4,58.4 		"/>
		<polygon class="st26" points="116.4,58.4 122.7,55.1 122.7,119.8 88.8,139.2 		"/>
	</g>
	<g>
		<polygon class="st23" points="98,144.5 103.8,147.9 131.4,67.1 125.9,63.9 		"/>
		<polygon class="st22" points="125.9,63.9 132.2,60.7 137.7,63.8 131.4,67.1 		"/>
		<polygon class="st26" points="131.4,67.1 137.7,63.8 137.7,128.5 103.8,147.9 		"/>
	</g>
	<g>
		<polygon class="st23" points="113.8,153.5 119.6,156.8 147.2,76 141.6,72.9 		"/>
		<polygon class="st22" points="141.6,72.9 147.9,69.6 153.4,72.8 147.2,76 		"/>
		<polygon class="st26" points="147.2,76 153.4,72.8 153.4,137.5 119.6,156.8 		"/>
	</g>
	<polygon class="st26" points="207.1,92.1 219,85.8 219,109.7 207.1,116.8 	"/>
	<g>
		<polygon class="st27" points="133.3,46.5 173.2,69.5 173.2,57.9 133.3,35 		"/>
		<polygon class="st28" points="137.5,49 167.8,66.4 167.8,57.6 137.5,40.2 		"/>
		<polygon class="st29" points="133.3,35 140.4,31.3 180.2,54.2 173.2,57.9 		"/>
		<polygon class="st30" points="173.2,57.9 180.2,54.2 180.2,65.3 173.2,69.5 		"/>
		<polygon class="st27" points="140,40.4 140.8,40.8 140.8,50.8 140,50.4 		"/>
		<polygon class="st27" points="143.1,42.1 143.8,42.6 143.8,52.6 143.1,52.2 		"/>
		<polygon class="st27" points="146.2,43.9 146.9,44.3 146.9,54.4 146.2,54 		"/>
		<polygon class="st27" points="149.2,45.7 149.9,46.1 149.9,56.1 149.2,55.7 		"/>
		<polygon class="st27" points="152.3,47.4 153,47.9 153,57.9 152.3,57.5 		"/>
		<polygon class="st27" points="155.3,49.2 156,49.6 156,59.6 155.3,59.2 		"/>
		<polygon class="st27" points="158.4,51 159.1,51.4 159.1,61.4 158.4,61 		"/>
		<polygon class="st27" points="161.4,52.7 162.2,53.1 162.2,63.2 161.4,62.8 		"/>
		<polygon class="st27" points="164.5,54.5 165.2,54.9 165.2,64.9 164.5,64.5 		"/>
		<polygon class="st27" points="137.5,42.4 167.8,59.9 167.8,60.6 137.5,43.2 		"/>
		<polygon class="st27" points="137.5,45.4 167.8,62.8 167.8,63.5 137.5,46.2 		"/>
	</g>
	<g>
		<polygon class="st23" points="128.9,162 134.7,165.4 162.3,84.6 156.8,81.4 		"/>
		<polygon class="st22" points="156.8,81.4 163,78.2 168.5,81.3 162.3,84.6 		"/>
		<polygon class="st26" points="162.3,84.6 168.5,81.3 168.5,146 134.7,165.4 		"/>
	</g>
	<g>
		<polygon class="st23" points="144.8,171.5 150.6,174.8 178.2,94 172.7,90.9 		"/>
		<polygon class="st22" points="172.7,90.9 178.9,87.6 184.5,90.7 178.2,94 		"/>
		<polygon class="st26" points="178.2,94 184.5,90.7 184.5,155.4 150.6,174.8 		"/>
	</g>
	<polygon class="st25" points="190.1,118.4 190.1,158.7 146.1,184.1 152,164.6 	"/>
	<polygon class="st31" points="71.7,118.4 152,164.6 190.1,118.4 104.9,72.8 	"/>
	<polygon class="st32" points="71.7,118.4 152,164.6 146.1,184.1 65.8,137.9 	"/>
	<polygon class="st24" points="110.4,75.8 120,80.9 123.2,71.6 	"/>
	<polygon class="st24" points="135.9,89.6 125.6,84.1 137.7,79.1 138.6,81.7 	"/>
	<polygon class="st24" points="141.5,92.5 151.2,97.7 154.1,89.2 153.4,88.9 	"/>
	<polygon class="st24" points="156.8,100.7 167.3,106.3 170.1,98.5 168.5,97.7 	"/>
	<polygon class="st24" points="173,109.3 188.3,117.5 184.5,105.9 	"/>
	<polygon class="st18" points="190.1,118.4 207.1,127.9 207.1,168.4 163,193.8 146.1,184.1 152,164.6 	"/>
	<polygon class="st16" points="163,193.8 167.6,173.7 207.1,127.9 207.1,168.4 	"/>
	<polygon class="st21" points="146.1,184.1 163,193.8 167.6,173.7 152,164.6 	"/>
	<polygon class="st18" points="92.9,66 104.9,72.8 71.7,118.4 57,109.7 	"/>
	<polygon class="st21" points="65.8,137.9 49.7,128.7 57,109.7 71.7,118.4 	"/>
	<g>
		<g>
			<path class="st19" d="M71.7,107.3c0.8,0.5,0.8,1.2,0,1.7c-0.8,0.5-2.1,0.5-3,0c-0.8-0.5-0.8-1.2,0-1.7
				C69.5,106.8,70.9,106.8,71.7,107.3z"/>
			<path class="st19" d="M70.7,93.1c0.3,0.2,0.3,0.5,0,0.6c-0.3,0.2-0.8,0.2-1.1,0c-0.3-0.2-0.3-0.5,0-0.6
				C69.9,92.9,70.4,92.9,70.7,93.1z"/>
			<polygon class="st19" points="69.4,93.4 68.1,108.2 72.3,108.2 71,93.4 			"/>
			<g>
				<path class="st19" d="M69.7,98.3c-2.9-0.3-5.1-4.8-5.2-5l0.4-0.2c0,0,2.2,4.4,4.9,4.7L69.7,98.3z"/>
			</g>
			<g>
				<path class="st19" d="M71.1,99.9l-0.2-0.4c0.1,0,2.3-1,2.6-4.4l0.4,0C73.6,98.8,71.2,99.9,71.1,99.9z"/>
			</g>
			<g>
				<path class="st19" d="M67.9,97.9c-1.8,0-2.7-1.6-2.8-1.6l0.4-0.2c0,0.1,1.1,1.7,2.9,1.4l0.1,0.4C68.2,97.9,68.1,97.9,67.9,97.9z
					"/>
			</g>
		</g>
		<g>
			<path class="st18" d="M78,91.2c0-0.9-0.6-1.7-1.5-1.9c0.1-0.2,0.2-0.4,0.3-0.6c0.6-1.6-0.2-3.3-1.8-3.9c-0.1,0-0.3-0.1-0.4-0.1
				c0.3-0.4,0.5-0.8,0.5-1.3c0-1.1-0.8-1.9-1.8-2.1c0.1-0.2,0.1-0.4,0.1-0.6c0-1-0.8-1.9-1.9-1.9c-0.2,0-0.3,0-0.5,0.1
				c-0.2-0.9-1-1.6-1.9-1.6c-1.1,0-2,0.9-2,2c0,0.2,0,0.3,0.1,0.5c-0.1,0-0.2,0-0.3,0c-1.4,0-2.5,1.1-2.5,2.5c0,0.4,0.1,0.8,0.3,1.2
				c-1.1,0.1-2.1,0.8-2.5,1.9c-0.5,1.2-0.1,2.5,0.8,3.3c-0.6,0.3-1.1,0.9-1.4,1.6c-0.6,1.6,0.2,3.3,1.8,3.9c0.2,0.1,0.4,0.1,0.6,0.2
				c0,1.2,0.7,2.4,1.9,2.9c1.1,0.4,2.4,0.1,3.2-0.7c0.3,0.3,0.7,0.5,1.2,0.7c2.1,0.8,4.4-0.2,5.4-2.2c0.7-0.3,1.2-1,1.2-1.8
				C77.5,92.7,78,92,78,91.2z"/>
			<g>
				<path class="st20" d="M76.5,89.3c0.1-0.2,0.2-0.4,0.3-0.6c0.2-0.5,0.2-1.1,0.1-1.6c-0.8,0.6-1.8,1-2.8,1c-0.1,0-0.1,0-0.2,0
					c0.1,0.3,0.2,0.6,0.2,0.9c0,1.6-1.3,3-3,3c-1.2,0-2.3-0.7-2.7-1.8c-0.3,0.1-0.6,0.1-0.8,0.1c-1.1,0-2-0.6-2.4-1.5
					c-0.4,0.2-0.9,0.3-1.4,0.3c-0.5,0-0.9-0.1-1.3-0.3c-0.4,0.3-0.7,0.7-0.9,1.2c-0.6,1.6,0.2,3.3,1.8,3.9c0.2,0.1,0.4,0.1,0.6,0.2
					c0,1.2,0.7,2.4,1.9,2.9c1.1,0.4,2.4,0.1,3.2-0.7c0.3,0.3,0.7,0.5,1.2,0.7c2.1,0.8,4.4-0.2,5.4-2.2c0.7-0.3,1.2-1,1.2-1.8
					c0.7-0.3,1.2-1,1.2-1.8C78,90.3,77.4,89.6,76.5,89.3z"/>
			</g>
			<path class="st21" d="M72.8,79.2c-0.3-0.2-0.7-0.4-1.1-0.4c-0.2,0-0.3,0-0.5,0.1c-0.2-0.9-1-1.6-1.9-1.6c-1.1,0-2,0.9-2,2
				c0,0.2,0,0.3,0.1,0.5c-0.1,0-0.2,0-0.3,0c-1.4,0-2.5,1.1-2.5,2.5c0,0.4,0.1,0.8,0.3,1.2c-0.3,0-0.5,0.1-0.7,0.2
				c0.4,0.7,1.2,1.1,2,1.1c1,0,1.8-0.6,2.2-1.5c0.2,0,0.4,0.1,0.6,0.1c1.3,0,2.4-1.1,2.4-2.4c0-0.2,0-0.3,0-0.5
				C71.8,80.1,72.4,79.7,72.8,79.2z"/>
		</g>
	</g>
	<g>
		<g>
			<path class="st19" d="M89.7,84.6c0.8,0.5,0.8,1.2,0,1.7s-2.1,0.5-3,0c-0.8-0.5-0.8-1.2,0-1.7C87.6,84.1,88.9,84.1,89.7,84.6z"/>
			<path class="st19" d="M88.8,70.3c0.3,0.2,0.3,0.5,0,0.6c-0.3,0.2-0.8,0.2-1.1,0c-0.3-0.2-0.3-0.5,0-0.6
				C88,70.2,88.5,70.2,88.8,70.3z"/>
			<polygon class="st19" points="87.5,70.7 86.2,85.5 90.3,85.5 89,70.7 			"/>
			<g>
				<path class="st19" d="M87.8,75.6c-2.9-0.3-5.1-4.8-5.2-5l0.4-0.2c0,0,2.2,4.4,4.9,4.7L87.8,75.6z"/>
			</g>
			<g>
				<path class="st19" d="M89.1,77.2L89,76.8c0.1,0,2.3-1,2.6-4.4l0.4,0C91.7,76.1,89.3,77.2,89.1,77.2z"/>
			</g>
			<g>
				<path class="st19" d="M86,75.2c-1.8,0-2.7-1.6-2.8-1.6l0.4-0.2c0,0.1,1.1,1.7,2.9,1.4l0.1,0.4C86.3,75.2,86.1,75.2,86,75.2z"/>
			</g>
		</g>
		<g>
			<path class="st18" d="M96.1,68.5c0-0.9-0.6-1.7-1.5-1.9c0.1-0.2,0.2-0.4,0.3-0.6c0.6-1.6-0.2-3.3-1.8-3.9c-0.1,0-0.3-0.1-0.4-0.1
				c0.3-0.4,0.5-0.8,0.5-1.3c0-1.1-0.8-1.9-1.8-2.1c0.1-0.2,0.1-0.4,0.1-0.6c0-1-0.8-1.9-1.9-1.9c-0.2,0-0.3,0-0.5,0.1
				c-0.2-0.9-1-1.6-1.9-1.6c-1.1,0-2,0.9-2,2c0,0.2,0,0.3,0.1,0.5c-0.1,0-0.2,0-0.3,0c-1.4,0-2.5,1.1-2.5,2.5c0,0.4,0.1,0.8,0.3,1.2
				c-1.1,0.1-2.1,0.8-2.5,1.9c-0.5,1.2-0.1,2.5,0.8,3.3c-0.6,0.3-1.1,0.9-1.4,1.6c-0.6,1.6,0.2,3.3,1.8,3.9c0.2,0.1,0.4,0.1,0.6,0.2
				c0,1.2,0.7,2.4,1.9,2.9c1.1,0.4,2.4,0.1,3.2-0.7c0.3,0.3,0.7,0.5,1.2,0.7c2.1,0.8,4.4-0.2,5.4-2.2c0.7-0.3,1.2-1,1.2-1.8
				C95.6,70,96.1,69.3,96.1,68.5z"/>
			<g>
				<path class="st20" d="M94.6,66.6c0.1-0.2,0.2-0.4,0.3-0.6c0.2-0.5,0.2-1.1,0.1-1.6c-0.8,0.6-1.8,1-2.8,1c-0.1,0-0.1,0-0.2,0
					c0.1,0.3,0.2,0.6,0.2,0.9c0,1.6-1.3,3-3,3c-1.2,0-2.3-0.7-2.7-1.8c-0.3,0.1-0.6,0.1-0.8,0.1c-1.1,0-2-0.6-2.4-1.5
					c-0.4,0.2-0.9,0.3-1.4,0.3c-0.5,0-0.9-0.1-1.3-0.3c-0.4,0.3-0.7,0.7-0.9,1.2c-0.6,1.6,0.2,3.3,1.8,3.9c0.2,0.1,0.4,0.1,0.6,0.2
					c0,1.2,0.7,2.4,1.9,2.9c1.1,0.4,2.4,0.1,3.2-0.7c0.3,0.3,0.7,0.5,1.2,0.7c2.1,0.8,4.4-0.2,5.4-2.2c0.7-0.3,1.2-1,1.2-1.8
					c0.7-0.3,1.2-1,1.2-1.8C96.1,67.6,95.4,66.8,94.6,66.6z"/>
			</g>
			<path class="st21" d="M90.8,56.5c-0.3-0.2-0.7-0.4-1.1-0.4c-0.2,0-0.3,0-0.5,0.1c-0.2-0.9-1-1.6-1.9-1.6c-1.1,0-2,0.9-2,2
				c0,0.2,0,0.3,0.1,0.5c-0.1,0-0.2,0-0.3,0c-1.4,0-2.5,1.1-2.5,2.5c0,0.4,0.1,0.8,0.3,1.2c-0.3,0-0.5,0.1-0.7,0.2
				c0.4,0.7,1.2,1.1,2,1.1c1,0,1.8-0.6,2.2-1.5c0.2,0.1,0.4,0.1,0.6,0.1c1.3,0,2.4-1.1,2.4-2.4c0-0.2,0-0.3,0-0.5
				C89.9,57.4,90.4,57,90.8,56.5z"/>
		</g>
	</g>
	<g>
		<g>
			<path class="st19" d="M169.5,159.3c0.8,0.5,0.8,1.2,0,1.7c-0.8,0.5-2.1,0.5-3,0c-0.8-0.5-0.8-1.2,0-1.7
				C167.3,158.8,168.7,158.8,169.5,159.3z"/>
			<path class="st19" d="M168.5,145.1c0.3,0.2,0.3,0.5,0,0.6c-0.3,0.2-0.8,0.2-1.1,0c-0.3-0.2-0.3-0.5,0-0.6
				C167.7,144.9,168.2,144.9,168.5,145.1z"/>
			<polygon class="st19" points="167.2,145.4 165.9,160.2 170.1,160.2 168.8,145.4 			"/>
			<g>
				<path class="st19" d="M167.5,150.4c-2.9-0.3-5.1-4.8-5.2-5l0.4-0.2c0,0,2.2,4.4,4.9,4.7L167.5,150.4z"/>
			</g>
			<g>
				<path class="st19" d="M168.9,151.9l-0.2-0.4c0.1,0,2.3-1,2.6-4.4l0.4,0C171.4,150.8,169,151.9,168.9,151.9z"/>
			</g>
			<g>
				<path class="st19" d="M165.7,149.9c-1.8,0-2.7-1.6-2.8-1.6l0.4-0.2c0,0.1,1.1,1.7,2.9,1.4l0.1,0.4
					C166.1,149.9,165.9,149.9,165.7,149.9z"/>
			</g>
		</g>
		<g>
			<path class="st18" d="M175.8,143.2c0-0.9-0.6-1.7-1.5-1.9c0.1-0.2,0.2-0.4,0.3-0.6c0.6-1.6-0.2-3.3-1.8-3.9
				c-0.1,0-0.3-0.1-0.4-0.1c0.3-0.4,0.5-0.8,0.5-1.3c0-1.1-0.8-1.9-1.8-2.1c0.1-0.2,0.1-0.4,0.1-0.6c0-1-0.8-1.9-1.9-1.9
				c-0.2,0-0.3,0-0.5,0.1c-0.2-0.9-1-1.6-1.9-1.6c-1.1,0-2,0.9-2,2c0,0.2,0,0.3,0.1,0.5c-0.1,0-0.2,0-0.3,0c-1.4,0-2.5,1.1-2.5,2.5
				c0,0.4,0.1,0.8,0.3,1.2c-1.1,0.1-2.1,0.8-2.5,1.9c-0.5,1.2-0.1,2.5,0.8,3.3c-0.6,0.3-1.1,0.9-1.4,1.6c-0.6,1.6,0.2,3.3,1.8,3.9
				c0.2,0.1,0.4,0.1,0.6,0.2c0,1.2,0.7,2.4,1.9,2.9c1.1,0.4,2.4,0.1,3.2-0.7c0.3,0.3,0.7,0.5,1.2,0.7c2.1,0.8,4.4-0.2,5.4-2.2
				c0.7-0.3,1.2-1,1.2-1.8C175.3,144.7,175.8,144,175.8,143.2z"/>
			<g>
				<path class="st20" d="M174.4,141.3c0.1-0.2,0.2-0.4,0.3-0.6c0.2-0.5,0.2-1.1,0.1-1.6c-0.8,0.6-1.8,1-2.8,1c-0.1,0-0.1,0-0.2,0
					c0.1,0.3,0.2,0.6,0.2,0.9c0,1.6-1.3,3-3,3c-1.2,0-2.3-0.7-2.7-1.8c-0.3,0.1-0.6,0.1-0.8,0.1c-1.1,0-2-0.6-2.4-1.5
					c-0.4,0.2-0.9,0.3-1.4,0.3c-0.5,0-0.9-0.1-1.3-0.3c-0.4,0.3-0.7,0.7-0.9,1.2c-0.6,1.6,0.2,3.3,1.8,3.9c0.2,0.1,0.4,0.1,0.6,0.2
					c0,1.2,0.7,2.4,1.9,2.9c1.1,0.4,2.4,0.1,3.2-0.7c0.3,0.3,0.7,0.5,1.2,0.7c2.1,0.8,4.4-0.2,5.4-2.2c0.7-0.3,1.2-1,1.2-1.8
					c0.7-0.3,1.2-1,1.2-1.8C175.8,142.3,175.2,141.6,174.4,141.3z"/>
			</g>
			<path class="st21" d="M170.6,131.2c-0.3-0.2-0.7-0.4-1.1-0.4c-0.2,0-0.3,0-0.5,0.1c-0.2-0.9-1-1.6-1.9-1.6c-1.1,0-2,0.9-2,2
				c0,0.2,0,0.3,0.1,0.5c-0.1,0-0.2,0-0.3,0c-1.4,0-2.5,1.1-2.5,2.5c0,0.4,0.1,0.8,0.3,1.2c-0.3,0-0.5,0.1-0.7,0.2
				c0.4,0.7,1.2,1.1,2,1.1c1,0,1.8-0.6,2.2-1.5c0.2,0.1,0.4,0.1,0.6,0.1c1.3,0,2.4-1.1,2.4-2.4c0-0.2,0-0.3,0-0.5
				C169.6,132.1,170.2,131.7,170.6,131.2z"/>
		</g>
	</g>
	<g>
		<g>
			
				<ellipse transform="matrix(1 -5.415982e-03 5.415982e-03 1 -0.7416 1.0096)" class="st19" cx="186" cy="137.4" rx="2.1" ry="1.2"/>
			<path class="st19" d="M186.6,122.4c0.3,0.2,0.3,0.5,0,0.6c-0.3,0.2-0.8,0.2-1.1,0c-0.3-0.2-0.3-0.5,0-0.6
				C185.8,122.2,186.3,122.2,186.6,122.4z"/>
			<polygon class="st19" points="185.3,122.7 184,137.5 188.1,137.5 186.8,122.7 			"/>
			<g>
				<path class="st19" d="M185.6,127.6c-2.9-0.3-5.1-4.8-5.2-5l0.4-0.2c0,0,2.2,4.4,4.9,4.7L185.6,127.6z"/>
			</g>
			<g>
				<path class="st19" d="M187,129.2l-0.2-0.4c0.1,0,2.3-1,2.6-4.4l0.4,0C189.5,128.1,187.1,129.2,187,129.2z"/>
			</g>
			<g>
				<path class="st19" d="M183.8,127.2c-1.8,0-2.7-1.6-2.8-1.6l0.4-0.2c0,0.1,1.1,1.7,2.9,1.4l0.1,0.4
					C184.1,127.2,183.9,127.2,183.8,127.2z"/>
			</g>
		</g>
		<g>
			<path class="st18" d="M193.9,120.5c0-0.9-0.6-1.7-1.5-1.9c0.1-0.2,0.2-0.4,0.3-0.6c0.6-1.6-0.2-3.3-1.8-3.9
				c-0.1,0-0.3-0.1-0.4-0.1c0.3-0.4,0.5-0.8,0.5-1.3c0-1.1-0.8-1.9-1.8-2.1c0.1-0.2,0.1-0.4,0.1-0.6c0-1-0.8-1.9-1.9-1.9
				c-0.2,0-0.3,0-0.5,0.1c-0.2-0.9-1-1.6-1.9-1.6c-1.1,0-2,0.9-2,2c0,0.2,0,0.3,0.1,0.5c-0.1,0-0.2,0-0.3,0c-1.4,0-2.5,1.1-2.5,2.5
				c0,0.4,0.1,0.8,0.3,1.2c-1.1,0.1-2.1,0.8-2.5,1.9c-0.5,1.2-0.1,2.5,0.8,3.3c-0.6,0.3-1.1,0.9-1.4,1.6c-0.6,1.6,0.2,3.3,1.8,3.9
				c0.2,0.1,0.4,0.1,0.6,0.2c0,1.2,0.7,2.4,1.9,2.9c1.1,0.4,2.4,0.1,3.2-0.7c0.3,0.3,0.7,0.5,1.2,0.7c2.1,0.8,4.4-0.2,5.4-2.2
				c0.7-0.3,1.2-1,1.2-1.8C193.4,122,193.9,121.3,193.9,120.5z"/>
			<g>
				<path class="st20" d="M192.4,118.6c0.1-0.2,0.2-0.4,0.3-0.6c0.2-0.5,0.2-1.1,0.1-1.6c-0.8,0.6-1.8,1-2.8,1c-0.1,0-0.1,0-0.2,0
					c0.1,0.3,0.2,0.6,0.2,0.9c0,1.6-1.3,3-3,3c-1.2,0-2.3-0.7-2.7-1.8c-0.3,0.1-0.6,0.1-0.8,0.1c-1.1,0-2-0.6-2.4-1.5
					c-0.4,0.2-0.9,0.3-1.4,0.3c-0.5,0-0.9-0.1-1.3-0.3c-0.4,0.3-0.7,0.7-0.9,1.2c-0.6,1.6,0.2,3.3,1.8,3.9c0.2,0.1,0.4,0.1,0.6,0.2
					c0,1.2,0.7,2.4,1.9,2.9c1.1,0.4,2.4,0.1,3.2-0.7c0.3,0.3,0.7,0.5,1.2,0.7c2.1,0.8,4.4-0.2,5.4-2.2c0.7-0.3,1.2-1,1.2-1.8
					c0.7-0.3,1.2-1,1.2-1.8C193.9,119.6,193.3,118.9,192.4,118.6z"/>
			</g>
			<path class="st21" d="M188.6,108.5c-0.3-0.2-0.7-0.4-1.1-0.4c-0.2,0-0.3,0-0.5,0.1c-0.2-0.9-1-1.6-1.9-1.6c-1.1,0-2,0.9-2,2
				c0,0.2,0,0.3,0.1,0.5c-0.1,0-0.2,0-0.3,0c-1.4,0-2.5,1.1-2.5,2.5c0,0.4,0.1,0.8,0.3,1.2c-0.3,0-0.5,0.1-0.7,0.2
				c0.4,0.7,1.2,1.1,2,1.1c1,0,1.8-0.6,2.2-1.5c0.2,0.1,0.4,0.1,0.6,0.1c1.3,0,2.4-1.1,2.4-2.4c0-0.2,0-0.3,0-0.5
				C187.7,109.4,188.2,109,188.6,108.5z"/>
		</g>
	</g>
	<g>
		<g>
			<path class="st19" d="M224,88.2c0.8,0.5,0.8,1.2,0,1.7c-0.8,0.5-2.1,0.5-3,0c-0.8-0.5-0.8-1.2,0-1.7
				C221.8,87.8,223.2,87.7,224,88.2z"/>
			<path class="st19" d="M223,74c0.3,0.2,0.3,0.5,0,0.6c-0.3,0.2-0.8,0.2-1.1,0c-0.3-0.2-0.3-0.5,0-0.6
				C222.2,73.8,222.7,73.8,223,74z"/>
			<polygon class="st19" points="221.7,74.3 220.4,89.1 224.6,89.1 223.3,74.3 			"/>
			<g>
				<path class="st19" d="M222,79.3c-2.9-0.3-5.1-4.8-5.2-5l0.4-0.2c0,0,2.2,4.4,4.9,4.7L222,79.3z"/>
			</g>
			<g>
				<path class="st19" d="M223.4,80.9l-0.2-0.4c0.1,0,2.3-1,2.6-4.4l0.4,0C225.9,79.7,223.5,80.8,223.4,80.9z"/>
			</g>
			<g>
				<path class="st19" d="M220.2,78.9c-1.8,0-2.7-1.6-2.8-1.6l0.4-0.2c0,0.1,1.1,1.7,2.9,1.4l0.1,0.4
					C220.6,78.8,220.4,78.9,220.2,78.9z"/>
			</g>
		</g>
		<g>
			<path class="st18" d="M230.3,72.2c0-0.9-0.6-1.7-1.5-1.9c0.1-0.2,0.2-0.4,0.3-0.6c0.6-1.6-0.2-3.3-1.8-3.9
				c-0.1,0-0.3-0.1-0.4-0.1c0.3-0.4,0.5-0.8,0.5-1.3c0-1.1-0.8-1.9-1.8-2.1c0.1-0.2,0.1-0.4,0.1-0.6c0-1-0.8-1.9-1.9-1.9
				c-0.2,0-0.3,0-0.5,0.1c-0.2-0.9-1-1.6-1.9-1.6c-1.1,0-2,0.9-2,2c0,0.2,0,0.3,0.1,0.5c-0.1,0-0.2,0-0.3,0c-1.4,0-2.5,1.1-2.5,2.5
				c0,0.4,0.1,0.8,0.3,1.2c-1.1,0.1-2.1,0.8-2.5,1.9c-0.5,1.2-0.1,2.5,0.8,3.3c-0.6,0.3-1.1,0.9-1.4,1.6c-0.6,1.6,0.2,3.3,1.8,3.9
				c0.2,0.1,0.4,0.1,0.6,0.2c0,1.2,0.7,2.4,1.9,2.9c1.1,0.4,2.4,0.1,3.2-0.7c0.3,0.3,0.7,0.5,1.2,0.7c2.1,0.8,4.4-0.2,5.4-2.2
				c0.7-0.3,1.2-1,1.2-1.8C229.8,73.7,230.3,73,230.3,72.2z"/>
			<g>
				<path class="st20" d="M228.9,70.3c0.1-0.2,0.2-0.4,0.3-0.6c0.2-0.5,0.2-1.1,0.1-1.6c-0.8,0.6-1.8,1-2.8,1c-0.1,0-0.1,0-0.2,0
					c0.1,0.3,0.2,0.6,0.2,0.9c0,1.6-1.3,3-3,3c-1.2,0-2.3-0.7-2.7-1.8c-0.3,0.1-0.6,0.1-0.8,0.1c-1.1,0-2-0.6-2.4-1.5
					c-0.4,0.2-0.9,0.3-1.4,0.3c-0.5,0-0.9-0.1-1.3-0.3c-0.4,0.3-0.7,0.7-0.9,1.2c-0.6,1.6,0.2,3.3,1.8,3.9c0.2,0.1,0.4,0.1,0.6,0.2
					c0,1.2,0.7,2.4,1.9,2.9c1.1,0.4,2.4,0.1,3.2-0.7c0.3,0.3,0.7,0.5,1.2,0.7c2.1,0.8,4.4-0.2,5.4-2.2c0.7-0.3,1.2-1,1.2-1.8
					c0.7-0.3,1.2-1,1.2-1.8C230.3,71.3,229.7,70.5,228.9,70.3z"/>
			</g>
			<path class="st21" d="M225.1,60.1c-0.3-0.2-0.7-0.4-1.1-0.4c-0.2,0-0.3,0-0.5,0.1c-0.2-0.9-1-1.6-1.9-1.6c-1.1,0-2,0.9-2,2
				c0,0.2,0,0.3,0.1,0.5c-0.1,0-0.2,0-0.3,0c-1.4,0-2.5,1.1-2.5,2.5c0,0.4,0.1,0.8,0.3,1.2c-0.3,0-0.5,0.1-0.7,0.2
				c0.4,0.7,1.2,1.1,2,1.1c1,0,1.8-0.6,2.2-1.5c0.2,0,0.4,0.1,0.6,0.1c1.3,0,2.4-1.1,2.4-2.4c0-0.2,0-0.3,0-0.5
				C224.1,61,224.7,60.6,225.1,60.1z"/>
		</g>
	</g>
	<polygon class="st17" points="49.7,128.7 49.7,137.5 163,202.7 163,193.8 	"/>
	<polygon class="st33" points="163,193.8 243.9,147.1 243.9,156 163,202.7 	"/>
</g>
</svg>
