<?xml version="1.0" encoding="utf-8"?>
<!-- Generator: Adobe Illustrator 24.2.0, SVG Export Plug-In . SVG Version: 6.00 Build 0)  -->
<svg version="1.1" id="Layer_1" xmlns="http://www.w3.org/2000/svg" xmlns:xlink="http://www.w3.org/1999/xlink" x="0px" y="0px"
	 viewBox="0 0 320 306.2" style="enable-background:new 0 0 320 306.2;" xml:space="preserve">
<style type="text/css">
	.st0{fill:#4A573C;}
	.st1{fill:#504C3B;}
	.st2{fill:#566846;}
	.st3{fill:#3A4331;}
	.st4{fill:#7B9065;}
	.st5{fill:#4A563C;}
	.st6{fill:#667754;}
	.st7{fill:#667955;}
	.st8{fill:#5F714D;}
	.st9{fill:#71875D;}
	.st10{fill:#49543C;}
	.st11{fill:#434D38;}
	.st12{fill:#7A9264;}
	.st13{fill:#AABD98;}
	.st14{opacity:0.43;fill:#9FB38B;}
	.st15{fill:#6F8C5D;}
	.st16{fill:#DAE5C9;}
	.st17{fill:#94A57E;}
	.st18{fill:#B6C6A4;}
	.st19{fill:#C7D3B7;}
	.st20{fill:#00579A;}
	.st21{fill:#0082E0;}
	.st22{fill:#850C9B;}
	.st23{fill:#005181;}
	.st24{fill:#00649D;}
	.st25{fill:#004163;}
	.st26{fill:#0069B8;}
	.st27{fill:#0080F7;}
	.st28{fill:#FFFFFF;}
	.st29{fill:#2D2423;}
	.st30{fill:#980505;}
	.st31{fill:#DD3324;}
	.st32{fill:#4D9208;}
	.st33{fill:#EE4B2E;}
	.st34{fill:#A70000;}
	.st35{fill:#262E2D;}
	.st36{fill:#BD6300;}
	.st37{fill:#FFAF00;}
	.st38{fill:#A3B800;}
	.st39{fill:#FFCC19;}
	.st40{fill:#353D3F;}
</style>
<g>
	<path class="st0" d="M83.5,92.7c-0.2,1.2-0.7,2.5-0.8,3.8c-0.2,1.5-0.1,3-0.5,4.4L82,101c0.8,0.4,2.9-0.5,3.9-0.5
		c1.4-0.1,3.2,0.6,2.9-1.1C88.2,96.6,85.1,95,83.5,92.7z"/>
	<path class="st1" d="M251.7,118.5h0.5c-0.2-0.1-0.3-0.2-0.5-0.3C251.7,118.2,251.7,118.3,251.7,118.5z"/>
	<path class="st2" d="M270.1,130.9c-22.9-1.1-44.8,2.3-65.2,11.2c-21.4,9.3-45.6,26.4-53.4,47.6c-5.5,14.9-9.6,32.3-6.9,48.1
		c2.8,16.7,12.7,33.3,12.5,50.2c10.4-2.1,18.5-13.3,29.4-16.6c0,0,8.4,4.9,19.2-3.4c14.6-11.3,29.3-24.4,46.6-28.7
		c19.2-4.8,26.9-23,37.1-28.5c8.3-17.3-2.3-20.9,5.7-33.8c10.1-16.2,4.6-28.2,10.1-42l-3.6-1.1C291.6,131.4,280.4,131.4,270.1,130.9
		z"/>
	<path class="st0" d="M212.9,203.9c-3,7.9-3.3,23.7-5.6,31.8c-2.2,7.8-4.2,15.7-5.6,23.6c-0.5,2.9-1,5.7-1.2,8.6
		c-0.1,1.8,0.1,2.4,0.1,2.5c0.1,0.1,0.2,0.3,0.3,0.4c1.5-0.7,3-1.6,4.6-2.9c5.1-3.9,10.2-8.1,15.4-12c0.4-6.4,1.6-12.8,2.7-19.2
		c1.3-7.5,3.1-16.4-0.3-23.7C221.9,210,212.9,203.9,212.9,203.9z"/>
	<path class="st3" d="M206.9,266.9c3.6-2.8,7.2-5.7,10.8-8.5c0.8-5.4,1.8-10.8,2.7-16.2c1.4-8.6-5.1-23.8-7.1-31.2
		C213.2,229.8,212.6,251.4,206.9,266.9z"/>
	<path class="st0" d="M300.5,133.7c-6.1,3.1-11.9,6.4-17.7,10c4.2,0.1,8,1,12,2.2c4.4,1.3,5.4,5.9,3.3,8.7
		c-4.5,17.1-21.8,28.2-26,45.4c-2.5,10.1-2.8,20.4-3.7,30.7c8.5-7.2,14.1-16.2,20.8-19.8c8.3-17.3-2.3-20.9,5.7-33.8
		c10.1-16.2,4.6-28.2,10.1-42l-3.6-1.1C301.1,133.8,300.8,133.8,300.5,133.7z"/>
	<path class="st3" d="M273.4,221.7c5.4-8.4,11.8-15.9,19.2-22.9c0.4-8.1-3.3-12.6,2.4-21.8c2.4-3.8,3.9-7.4,5-10.8
		c-5.1,8-10.9,15.6-16.8,23.1C279.9,200.2,276.4,210.9,273.4,221.7z"/>
	<path class="st0" d="M155.6,205.4c-0.4,0-0.8,0.1-1.2,0c-0.9,19.8-1.2,39.7-1.9,59.5c2.5,7.6,4.5,15.3,4.4,23c4.9-1,9.3-4,13.7-7.3
		c-0.1-1.3-0.2-2.5-0.3-3.8c-0.4-5.9-0.7-12-2.9-17.6c-1.8-4.7-5.1-9.3-6.1-14.2c-3.3-16.5,3.6-30,14.6-42.1
		C169.4,204.2,162.6,204.6,155.6,205.4z"/>
	<path class="st0" d="M233.6,160.8c0.3-0.1-15.9,3.4-11.8,5c1.1,0.1,5.4,1.2,6.3,1.5c0.5,0.2,13-0.3,13-0.3
		c-9.1,19.3-7.2,47.8-8.9,68.3c-0.4,4.7-0.9,9.3-1.6,13.9c3.9-2.5,7.9-4.7,12-6.6c0.3-4.2,0.7-8.5,1.3-12.7
		c1.5-10.2,5-18.6,8.8-28.2c3.4-8.6,1-17.8,4.3-26.3c2.6-6.7,6.1-12.7,8-19.3c-4.4,2.3-10,3.7-14.6,3.7
		C244.7,159.9,239,159.2,233.6,160.8z"/>
	<path class="st3" d="M233.6,160.8c0.3-0.1-15.9,3.4-11.8,5c1.1,0.1,5.4,1.2,6.3,1.5c0.5,0.2,13-0.3,13-0.3
		c-9.1,19.3-7.2,47.8-8.9,68.3c-0.4,4.7-0.9,9.3-1.6,13.9c1-0.6,2-1.2,3-1.8c0.5-8.2,1.7-16.4,2.8-24.6c1.1-8.8,1.5-17.7,3.5-26.5
		c3.4-15,7.3-25.6,20.7-35.6c1.1-0.8,2.3-1.2,3.4-1.3c0.4-1,0.7-2.1,1-3.1c-4.4,2.3-10,3.7-14.6,3.7
		C244.7,159.9,239,159.2,233.6,160.8z"/>
	<path class="st0" d="M178.8,200c1,8.8,1.9,17.7,1.6,26.5c-0.2,8.9-1.6,17.7-0.5,26.6c0.8,6.6,2.1,13.1,3,19.7
		c0.9-0.4,1.8-0.8,2.8-1.1c-0.5-7,1.4-13.8,2.7-20.8c1.7-9.2,1.5-17.8,5.3-26.8c4.7-10.9,3.3-21.8,11.8-32.6
		c1.9-2.5,15.1-16,15.6-18.9C211.6,175.7,184.1,192.1,178.8,200z"/>
	<path class="st3" d="M178.8,200c1,8.8,1.9,17.7,1.6,26.5c-0.2,8.9-1.6,17.7-0.5,26.6c0.8,6.6,2.1,13.1,3,19.7
		c0.8-0.4,1.6-0.7,2.5-1c-0.7-16.5-1-33-0.3-49.5c0.6-15.8,8.9-25.4,17.8-38.2c0.1-0.4,0.1-0.9,0.2-1.3
		C193.6,185.9,184.1,192.1,178.8,200z"/>
	<path class="st4" d="M154.5,190.9c-7.9-19.3-40.3-36.5-60.1-44.8c-19.9-8.3-46.8-8.3-68.3-9.2c-5.8-0.3-10.5-0.5-15.6-2
		c0,15.4,0.6,31.9,8.7,45.1c3.3,5.4,6.9,26,13.9,37.8c4.7,7.9,9.5,6.1,17,8.8c11.8,4.2,17.6,19.1,37.5,28.9
		c7.1,3.5,11.5,12.4,26.3,16.8c8.5,2.5,18.8,0.8,18.8,0.8c8.6,3.1,8.9,10.2,24.3,15c0.5-15.3-1-31.1-1-47.5
		C155.9,225.8,160.1,204.6,154.5,190.9z"/>
	<path class="st5" d="M83,205.7c0,0.1,0,0.2-0.1,0.3c1.8,5.7,2.6,12.7,1.8,19.6c0.1,9.5-2.2,18.3-9.8,21.7c3.5,2.9,7.6,5.6,12.6,8.1
		c4.3,2.1,7.6,6.2,12.8,10c-3.8-8.3-7.3-16.6-9.7-25.3C87.6,228.9,86.4,217,83,205.7z"/>
	<path class="st6" d="M155.5,207.6c-2.6-1.8-6.7-4.6-10.1-5.4c0,0.2,0.1,0.5,0.1,0.9c0.1,0.4,0.3,0.8,0.4,1.2
		c0.5,0.3,0.9,0.7,1.3,1.2c10,12.5,6,27.6,6.5,41.9c0.5,12.3,2.3,24.5,3.2,36.8c0.2-14.2-1.1-28.7-1.1-43.6c0-9.3,1.6-21.1,1.5-32
		C156.8,208.3,156.1,208.1,155.5,207.6z"/>
	<path class="st6" d="M142,236.1c-2.9-8.5-6-17-7.2-25.8c-2.5-6.2-4.7-13.2,0.3-16.7c1.3-0.9,2.7-1.6,4.1-2
		c-0.9-0.5-1.8-0.9-2.9-1.2c-3.7,1.9-7.7,3.1-11.9,3.8c7.2,17.8,10.4,36.5,10,55.3c0.1,0.2,0.2,0.4,0.2,0.5c1.1,3.2,0.3,7-0.5,10.3
		c0.1,0.3,0.1,0.6,0.1,0.9c0,4.2-0.2,8.2-0.8,12.1c4.7,1.9,6.9,5,10.9,8.3c-0.9-10.2-2.3-20.4-2.8-30.6
		C141.3,246.3,141.7,241.2,142,236.1z"/>
	<path class="st6" d="M29.6,178.3c-4.5-2.8-11.2-10-11.2-10c0,1.2-3.2-7.7-3.8-17.3c-0.2-4.4-0.2-8.8,0.4-13.2
		c-1-0.7-1.9-1.5-2.7-2.4c-0.7-0.2-1.3-0.3-2-0.5c0,15.4,0.6,31.9,8.7,45.1c3.3,5.4,6.9,26,13.9,37.8c2.7,4.6,5.5,5.9,8.8,6.7
		C34.7,211.5,21.9,191.5,29.6,178.3z"/>
	<path class="st6" d="M63.9,170.6c-1.5-1.2-2.7-2.5-3.7-3.9c-3.8-2-7.2-4.6-11.1-6.1c-0.1,2.2-0.3,4.4-0.6,6.5
		c0,0.2,0.1,0.5,0.1,0.7c3.5,8.7,5.2,17.7,6.9,27c0.2,0.4,0.4,0.9,0.5,1.4c0.5,2.2,0.9,4.4,1.3,6.6c0.5,0.8,0.9,1.7,0.9,2.7
		c0.6,9.1,1.7,18.1,1,27.1c1.6,1.4,3.2,3,4.8,4.6c0.3-6.9,0.9-13.7,0.9-20.6C65.1,201,57.4,185.8,63.9,170.6z"/>
	<path class="st7" d="M51.9,162.4c1-1.2,5.1-12.3,4.2-12.5c-5.5-0.8-19.1-2.4-20.4-2.3c1,8.8,1.9,17.8,4.5,26.4
		c2.8,9.1,8,17.1,11.4,26c4,10.7,6.1,21.7,7.7,32.8c1,0.9,1.9,1.8,2.9,2.8c-0.5-17.9-1.5-35.9-5.8-53.4
		C54,172.1,52.8,168.8,51.9,162.4z"/>
	<path class="st0" d="M52.1,162.1c0.9-1.2,4.9-12,4-12.2c-5.5-0.8-36.4-9.5-37.7-9.4c4.1,6.3,14.9,11.1,18.8,12.1
		c10,3.1,9.9,9,11.7,15.9c2.4,9.1,4.7,18.3,6.8,27.5c2.7,12,5.6,25.5,5.4,38.5c0.3,0.3,0.7,0.7,1.1,1c-0.5-17.9-1.5-35.9-5.8-53.4
		C54,172.1,53,168.5,52.1,162.1z"/>
	<path class="st7" d="M109.4,188c7.1,9.2,14.6,22.9,19.3,48.8c2.2,12.2,2.4,24,3.9,36.3c0.6,0.3,2.2,1,2.7,1.3
		c0.7-6.5,1.7-13,2.3-19.7c1.7-18.6-5.2-39.4-7.1-57.8c0,0,14.8-6.8,18.1-10.6C138.6,186.5,107,182.2,109.4,188z"/>
	<path class="st0" d="M80.6,172.6l11.7,7.4c10.4,3.5,27,16.5,26.9,16.9c2.4,1.3,11.2,19.7,12.9,27.3c3.5,15.7,5.1,33.5,1.8,49.4
		c0.5,0.2,0.9,0.5,1.4,0.7c0.7-6.5,1.7-13,2.3-19.7c1.7-18.6-5.2-39.4-7.1-57.8c0,0,14.8-6.8,18.1-10.6
		C138.6,186.5,90.2,169.6,80.6,172.6z"/>
	<path class="st8" d="M281.3,163.2c-2.6,1-5.3,1.8-8,2.8c-1.4,0.5-2.9,1-4.3,1.5c-5.7,2.1-11.5,4.2-17.5,5.8c-0.2,0-0.4,0.1-0.6,0.1
		c-0.5,0.2-0.9,0.2-1.3,0.1l-0.5,0.2c0,0,0.2,5.9-0.1,7.5c-0.5,2.7-2.7,4.6-3,7.4c-0.8,5.9,2.4,35.8,0.6,41.3
		c6.2-0.2,4.7-1.5,10.9-2c5-0.4,16.2-23.6,21.1-25.2c4.9-1.6,14.6-7,17.6-10.9c2.9-3.8,2.7-7,5-11.1c2.3-4.2,4.7-4.2,7.9-8
		c3.3-3.9-3.2-17.4-3.2-17.4L281.3,163.2z"/>
	<path class="st9" d="M277.2,178.1c-3-0.2-6-0.4-9-0.5c4,4.7,7.5,8.3,3.9,15c-3.9,7.3-11.2,13.6-13.7,21.4
		c-1.4,4.7-2.6,9.3-3.3,14.1c0.6-0.1,1.3-0.2,2.2-0.3c0.6-0.1,1.2-0.4,1.9-0.9c2.3-8.8,7-16.7,11.8-25c3.5-6.1,6.3-12.3,8.8-18.8
		C281,180.1,283,178.5,277.2,178.1z"/>
	<path class="st10" d="M277.3,169.4c-2.6,2.6-0.3,9.5-0.3,10.3c0.5,8.7-1.3,13.2-8.6,22.7c-5.9,7.7-8.9,16.3-10.4,25.3
		c5.2-1.8,15.9-23.5,20.6-25.1c4.9-1.6,14.6-7,17.6-10.9c2.9-3.8,2.7-7,5-11.1c2.3-4.2,4.7-4.2,7.9-8c3.3-3.9-3.2-17.4-3.2-17.4
		C305.9,154.6,289.8,160.3,277.3,169.4z"/>
	<path class="st0" d="M282.4,174.8c-1.9-0.5-4.2,0.3-6.3,0.7c0.3,2.1,0.8,3.8,0.8,4.2c0.5,8.7-1.3,13.2-8.6,22.7
		c-5.9,7.7-8.9,16.3-10.4,25.3c2.3-0.8,5.7-5.5,9.2-10.7c-2.6-8.9,4.7-17.2,10.9-24.5c1.9-5.6,3.5-11.3,6.5-16.4
		c-0.1-0.1-0.2-0.1-0.3-0.1C283.7,175.6,283.1,175.2,282.4,174.8z"/>
	<path class="st10" d="M235.3,204.8c-7.4,2.5-15.4,0.3-22.4-0.9c-0.5,5,0.9,12.1,1.4,17.6c0.6,6,3.2,31.2,3.4,36.9
		c4.9,1.5,8.6,0.1,13.3-2.9c3.3-2.1,5-15.4,7.6-24.9c2.2-8.3,15.6-20,15.9-28.6l-0.4,0.4C247.8,197.8,240.8,202.9,235.3,204.8z"/>
	<path class="st0" d="M231.3,212.3c-5,15.1-6.2,30.6-6.6,46.3c1.5-0.4,3.1-1.1,4.7-2.1c0-6.9,0.5-13.7,0.9-20.6
		c0.3-3.9,0-8.9,1.7-12.6c3.8-8.6,14.5-11.2,21.6-17.3c0.5-1.2,0.8-2.4,0.9-3.5c-6.3,4.9-14.8,8.4-23,9.2
		C231.4,211.9,231.4,212.1,231.3,212.3z"/>
	<path class="st8" d="M212.9,203.9c-0.5,5,0.9,12.1,1.4,17.6c0.6,6,3.2,31.2,3.4,36.9c3.2,1,5.9,0.7,8.7-0.4c0.1-17.9,3.2-38,9.8-55
		C229.2,204.9,219.4,205,212.9,203.9z"/>
	<path class="st9" d="M223.7,212.2c4.7,6.1,4.3,12.1,3,19.1c-1.7,9.1-1.9,18.2-2.1,27.3c0.6-0.2,1.2-0.4,1.9-0.6
		c0.1-14.5,2.2-30.3,6.5-44.8C229.7,213.5,226.4,213.2,223.7,212.2z"/>
	<path class="st5" d="M53.1,185c-3.7,2.1-7.6,7.2-11.7,8.7c0.7,6.2,5,14.6,7.9,20.5c2.8,5.6,5.6,11.3,8.8,19.7
		c0.7,0,2.2,0.6,2.9,0.6c-0.1-7.3,0.2-13.3-1.2-20.5C56.9,198.4,55.2,192.7,53.1,185z"/>
	<path class="st11" d="M50,197.5c1-3.9,3.1-7.4,3.4-11.5c-0.1-0.4-0.2-0.7-0.3-1.1c-3.7,2.1-7.6,7.2-11.7,8.7
		c0.7,6.2,5,14.6,7.9,20.5c2.8,5.6,5.6,11.3,8.8,19.7c0.2,0,0.4,0,0.7,0.1c-2.3-8.5-4.3-17-7-25.5C50.9,205.2,49.1,201,50,197.5z"/>
	<path class="st7" d="M25.4,188.6c6.1,7.4,13.3,14.5,17.2,22.8c3.2,6.8,7.2,20.2,15.6,22.4c-3.2-11.6-9.7-26.9-12.3-35.4
		C44.4,193.8,35.1,179.9,25.4,188.6z"/>
	<path class="st7" d="M25.2,188.8c0.1-0.1,0.1-0.1,0.2-0.1c0,0,0,0,0,0L25.2,188.8z"/>
	<path class="st12" d="M25.4,188.6c0.1,0.2,0.3,0.3,0.4,0.5c0.4,0,0.8,0,1.2,0.2c13.2,5.1,18.3,11.6,22.2,23.6
		c2,6.1,4.7,11.7,7.7,17.4c0.2,0.4,0.4,0.8,0.6,1.3c-3.4-11.3-9.2-25.2-11.7-33.3C44.4,193.8,35.1,179.9,25.4,188.6z"/>
	<path class="st7" d="M142.6,222.8c-1.9-4.7-3.2-10.8-4.9-14.8l-0.8-0.3c2,5.3,2.1,11.8,3.9,17.5c0.8,2.4,1.5,5,2.6,7.3
		c0.4,0.9,0.8,1.9,1.5,2.7c0.8,0.8,2.6,0.9,3,1.7c0.7,1.3-1.2,4.9-1.7,6.5c-0.9,3-1.4,5-1.4,8.1c0,3.5,0.2,7,0,10.4
		c-0.1,2.6-1.2,6.1,0,8.5c-0.4-11.5,4.8-24.8,7.5-35.5C145.7,235.1,144.6,227.6,142.6,222.8z"/>
	<path class="st5" d="M79.5,188c-0.5-2.2-1.1-13.2-1.8-15.3c-2-1.2-5.7-0.9-7.9-1.6c-1.4-0.4-6.4-1-5.7-0.3l-0.4-0.3
		c0.8,2.1,0,15.7,0,17.9c1.6-0.3,4.4-8.7,6.1-8.5c0.2,4.1,0.9,8.2-0.4,11.8c4.8,2.5,3,6.2,2.6,10.4c-0.5,4.8,3.2,2,2.8,6.8
		c-0.3,4-3.9,15.1-3.3,19.1c0,0,3.4,8,3.3,10.4c0,0.3,0.1,0.1,0.4-0.5c-3.1-10.4,0.6-20.8,4.1-30.9c-0.1-2.1-0.1-4.1,0-6.2
		c0.1-1.5,0.1-2.9,0.2-4.4C78.5,191.1,79.7,193.2,79.5,188z"/>
	<path class="st13" d="M261.3,111.2l-17.6,2.8c2.1-1.4,6.9-5.1,8.6-6.9c-16.2-15.5-37.7-15.8-51-26.2c-6.6-5.1-36.4-18-44.3-22.7
		c-18.1,9.7-31.4,9.5-39.2,18.9c-7.8,9.2-23.4,10.3-34.3,15.9c0.6,1.3,2,4.5,2.7,5.9c-13.8-2.1-31,10.9-44.3,18.7
		C30.2,124.4,10,134.4,10,134.4c15.2,14.8,28.3,17.3,43.7,19.4c1.1,2.6-3,6.6-0.9,10.8c6.5,13,55,18.6,66.6,30.4
		c2.8,2.8,17.3-3.7,17.3-3.7c0,2.3-6.1,5.6-6.1,5.6c14.3,7.3,21.1,14.8,27.2,14c6-0.8,22.4-9.6,27.7-12.5
		c10.4-5.7,13.7-11.8,24.8-15.5c13.6-4.6,20.8-4.8,30.7-15.6c-5.6-0.5-10.6-1.6-16.4-1.5c14.1-5.8,30.8-1.7,45-9.3
		c11.2-6,22.6-19.1,35.4-21.3C300.7,130.9,289.4,123.3,261.3,111.2z"/>
	<path class="st14" d="M157,58.1c-18.1,9.7-31.4,9.5-39.2,18.9c-7.8,9.2-23.4,10.3-34.3,15.9c0.6,1.3,2,4.5,2.7,5.9
		c-13.8-2.1-31,10.9-44.3,18.7C30.2,124.4,10,134.4,10,134.4c6.1,6,11.9,9.9,17.7,12.7c0.8-0.5,1.7-1,2.5-1.5
		c15.3-15.1,39-22,60.7-26.2c24.2-4.7,48.9-6.8,73.5-8.2c28-1.6,56.1-2.3,84-0.8c1.5-1.2,3-2.4,3.8-3.3
		c-16.2-15.5-37.7-15.8-51-26.2C194.7,75.7,164.9,62.8,157,58.1z"/>
	<path class="st15" d="M87,179.3c-3.1-0.4-6.1-0.8-9.2-1.4c-0.3,0-0.7,0-1,0c3.9,1.3,8.1,2.6,12.2,3.9c-0.2-0.1-0.4-0.2-0.7-0.4
		C87.4,180.8,87,180.1,87,179.3z"/>
	<path class="st16" d="M253.3,159.3c-6.5,0.8-24.3,2.6-27.3,4.3c-2.7,1.5-5.2,2.7-2.1,2.9c7.9,0.6,14.1,2,14.1,2
		c-13.8,10.8-28.7,10.2-32.8,12.5c-4.6,2.6-7.8,6.2-11.6,9.5c-5.2,4.6-28.8,16.6-36,17.8c-5.3,0.9-7.2-4.6-21.1-10.8
		c-3.3-1.5,3.9-7.4,4.4-8.7c-5,0.6-9.7,2-14.6,3.8c-2,0.7-6.5,0.6-8-0.6c-11.9-10.4-43.7-16.2-52.2-19.4
		c-4.7-1.8-11.6-5.6-12.2-10.4c-0.4-2.9,1.4-5.2,2.3-7.9c1.4-4-6-3.1-8.2-3.6c-8.2-1.6-29.9-7.8-38-16.4c0,0,0,0,0,0
		c15.2,14.8,28.3,17.3,43.7,19.4c1.1,2.6-3,6.6-0.9,10.8c6.5,13,55,18.6,66.6,30.4c2.8,2.8,17.3-3.7,17.3-3.7c0,2.3-6.1,5.6-6.1,5.6
		c14.3,7.3,21.1,14.8,27.2,14c6-0.8,22.4-9.6,27.7-12.5c10.4-5.7,13.7-11.8,24.8-15.5c13.6-4.6,20.8-4.8,30.7-15.6
		c-5.6-0.5-10.6-1.6-16.4-1.5c14.1-5.8,30.8-1.7,45-9.3c9-4.8,18.1-14.1,27.9-18.8c-7,1.4-13.3,7-19.1,10.6
		C270.2,153.4,263.6,158,253.3,159.3z"/>
	<path class="st0" d="M304.5,155.5c-1.6,3.2-3.6,6.2-6.4,8.4c1.9,3.5,3.9,8,3.5,8.8c-2.6,6.1-5.1,9.5-6.8,13.8
		c-0.5,1.7,0.4,5.2-0.2,6.9c0.6-0.5,1.1-1.1,1.4-1.5c2.9-3.8,2.7-7,5-11.1c2.3-4.2,4.7-4.2,7.9-8c3.3-3.9-3.2-17.4-3.2-17.4
		C305.9,155.1,305.3,155.2,304.5,155.5z"/>
	<path class="st3" d="M277.2,168.9c-1.7,1.8,8.2,3.5,9,5.4c0,0-0.5,4.3-0.8,5.7c-1,5.5-2,11.1-3,16.6c5.1-8.9,10.3-17.8,12.5-27.7
		C289.8,170,282.4,168.1,277.2,168.9z"/>
	<path class="st17" d="M294.1,153.2c-9.5,9.7-30,16.2-45,20.4c4.5,4.1,12,0.8,15.8,3.1c5.7,3.5,12.2,3,12.2,3s6.7-3.4,9.2-5.4
		c1.3-1-7.7-3.1-5.6-4.1c1.1-0.5,13.3,0.1,14.5-0.5c8.4-3.4,8.6-7.4,10.7-10.6C308.9,154.4,302.4,152.5,294.1,153.2z"/>
	<path class="st18" d="M284.8,167.3C284.7,167.3,284.7,167.2,284.8,167.3c-2.6,0.3-4.9,0.9-7.4,1.7c-0.1,0-0.2,0.1-0.3,0.1
		c1.4,1.2,2.4,3,4.3,3.5c5.3,1.6-2.4,5.6-4.4,5.8c-2.7,0.3-9.4-2.9-12.2-3.2c-5.2-0.5-3.4,0.4-8.6-0.5c-1.7-0.3-4.2-1.3-5.9-1.5
		c-0.4,0.1-0.8,0.2-1.2,0.3c4.5,4.1,12,0.8,15.8,3.1c5.7,3.5,12.2,3,12.2,3s6.7-3.4,9.2-5.4c1.3-1-7.7-3.1-5.6-4.1
		c1.1-0.5,13.3,0.1,14.5-0.5c7-2.9,8.3-6.1,9.8-9C301.4,165.5,297.3,168.7,284.8,167.3z"/>
	<path class="st17" d="M234.2,197.8c0,0-6,2.9-8.9,4c-3.5,1.4-8.5,2.9-12.4,2.2c0.3,0.9,1.1,2.5,2,3.4c4.3,4.5,14.9,8.4,20.9,6.3
		c3.9-1.4,16.9-7.2,18.6-10.6C256.6,198.3,238.4,196.3,234.2,197.8z"/>
	<path class="st18" d="M214.2,204.1c-0.4,0-0.9-0.1-1.3-0.2c0.3,0.9,1.1,2.5,2,3.4c4.3,4.5,14.9,8.4,20.9,6.3
		c3.4-1.2,13.6-5.7,17.3-9.1C241.9,212.1,223.3,214.4,214.2,204.1z"/>
	<path class="st13" d="M41.7,178.1c-8.9,3.5-24.5,10.7-11.7,12.3c5.7,1.2,11.1,5,15.8,8c3.2-3.7,7.3-8,7.3-13.4
		C49.1,183.4,44.2,181.3,41.7,178.1z"/>
	<path class="st19" d="M43.8,195.3c-2.7-2.1-9.6-4.8-15.5-6c-3-0.6-2.6-1.6-2.8-2.1c-0.7,1.4,0.4,2.6,4.6,3.1c5.7,1.2,11.1,5,15.8,8
		c3.1-3.6,7.1-7.8,7.3-13c-1.3,3.4-2.2,4.5-4.1,7.5C48.1,194.2,45.1,196.4,43.8,195.3z"/>
	<path class="st5" d="M117.5,204.1c-2.8-1-7.4,0-9.1,1.6c-2.3,2.2-3.6,4-5,6.7c-3.4,6.7-5.1,11.5-3.2,19.2
		c2.3,9.2,5.9,17.9,9.3,26.8c2.3,6.1,5.8,17.5,12,21.4c2.5-2,5.7-4.2,7.9-6.5c-4-10.3-6.2-23.3-7.4-34.6
		C120.6,227.3,118.5,215.4,117.5,204.1z"/>
	<path class="st11" d="M116,249.8c-3-7.4-5.4-14.7-5.3-22.7c0.1-7.6,4-13.3,6.3-20.4c0.1-0.4,0.3-0.8,0.5-1.2c0-0.5-0.1-0.9-0.2-1.4
		c-2.8-1-7.4,0-9.1,1.6c-2.3,2.2-3.6,4-5,6.7c-3.4,6.7-5.1,11.5-3.2,19.2c2.3,9.2,5.9,17.9,9.3,26.8c2.3,6.1,5.8,17.5,12,21.4
		c2.1-1.7,4.7-3.5,6.8-5.5C120.2,268.9,119.7,258.8,116,249.8z"/>
	<path class="st7" d="M107.6,229.1c-1.3-5.5,1.2-16.2-4.4-19.3c-3.6-2-9.3-2.8-13.3-5.1c-3.5-2-20-8.5-24.2-8.1
		c0.7,11,12.3,24.6,17.5,36.4c5.6,12.7,10,20.9,13.9,34c1.4,4.6,12.2,3.7,17.2,12.5l7.1,0.5c0,0-1.5-8.7-2.6-12.1
		C117.5,263.4,109.7,237.5,107.6,229.1z"/>
	<path class="st12" d="M107.6,229.1c-0.9-3.9,0.1-10.6-1.4-15.2c-3,0.8-6.2,0.9-9.4,0.8c9.7,7.9,11.9,22,14.1,33.1
		c2.2,11,7,21.3,9.8,32l0.7,0c0,0-1.5-8.7-2.6-12.1C117.5,263.4,109.7,237.5,107.6,229.1z"/>
	<path class="st13" d="M79.8,186.4c-4.7,3.9-8.7,4.1-13,7.6c-4.5,3.7,7.2,16,13.9,19c7,3.1,16.4,3.7,24.1,3
		c7-0.7,13.1-12.4,13.1-12.4c-4.1-2.5-13.1-3.4-19.5-7.2C90,191.5,79.8,186.4,79.8,186.4z"/>
	<path class="st19" d="M82,210.8c-5.2-1.7-17.1-8.5-14.1-17.7c-0.4,0.3-0.8,0.6-1.3,0.9c-4.5,3.7,7.2,16,13.9,19
		c7,3.1,16.4,3.7,24.1,3c5.5-0.5,10.5-8,12.4-11.1C107.8,215.1,99.4,216.4,82,210.8z"/>
</g>
<g>
	<g>
		<g>
			<polygon class="st20" points="115.8,42.6 115.8,40.4 112.8,41.8 114,42.9 			"/>
			<path class="st20" d="M109.2,45.1l0.2,0.1c0.8,0.5,2.2,0.4,3.1-0.1l2.6-1.5c0.9-0.5,1-1.3,0.2-1.8l-0.2-0.1
				c-0.8-0.5-2.2-0.4-3.1,0.1l-2.6,1.5C108.5,43.9,108.4,44.7,109.2,45.1z"/>
			<path class="st21" d="M109.2,43.1l0.2,0.1c0.8,0.5,2.2,0.4,3.1-0.1l2.6-1.5c0.9-0.5,1-1.3,0.2-1.8l-0.2-0.1
				c-0.8-0.5-2.2-0.4-3.1,0.1l-2.6,1.5C108.5,41.8,108.4,42.6,109.2,43.1z"/>
		</g>
		<g>
			<polygon class="st20" points="98,32.7 98,30.5 94.9,31.8 96.1,33 			"/>
			<path class="st20" d="M91.3,35.2l0.2,0.1c0.8,0.5,2.2,0.4,3.1-0.1l2.6-1.5c0.9-0.5,1-1.3,0.2-1.8l-0.2-0.1
				c-0.8-0.5-2.2-0.4-3.1,0.1l-2.6,1.5C90.7,33.9,90.6,34.7,91.3,35.2z"/>
			<path class="st21" d="M91.3,33.1l0.2,0.1c0.8,0.5,2.2,0.4,3.1-0.1l2.6-1.5c0.9-0.5,1-1.3,0.2-1.8l-0.2-0.1
				c-0.8-0.5-2.2-0.4-3.1,0.1l-2.6,1.5C90.7,31.9,90.6,32.7,91.3,33.1z"/>
		</g>
		<path class="st22" d="M58.6,121.1l22.5,13c1.7,1,4.5,0.8,6.5-0.3l21.4-12.3c1.9-1.1,2.1-2.8,0.5-3.7l-22.5-13
			c-1.7-1-4.5-0.8-6.5,0.3l-21.4,12.3C57.2,118.5,57,120.2,58.6,121.1z"/>
		<path class="st23" d="M84,75v59.7c0,0-0.9,0-1.5-0.1c-0.8-0.2-1.4-0.5-1.4-0.5l-22.5-13c0,0-0.6-0.4-0.9-0.8
			c-0.2-0.3-0.2-0.9-0.2-0.9L46.2,53.5c0,0,0.3,1.4,1.6,2.1c7.5,4.4,32.1,18.5,32.1,18.5s1.1,0.5,2,0.7C82.6,75,84,75,84,75z"/>
		<path class="st24" d="M121.8,53.2l-11.3,66.2c0,0,0,0.5-0.3,1c-0.5,0.7-1.2,1.1-1.2,1.1l-21.4,12.3c0,0-0.9,0.5-1.7,0.7
			c-0.8,0.2-1.8,0.2-1.8,0.2V75c0,0,1.6-0.1,2.6-0.3c1.2-0.3,2.5-1,2.5-1l30.5-17.6L121.8,53.2z"/>
		<g>
			<path class="st25" d="M47.8,55.6l32.1,18.5c2.4,1.4,6.5,1.2,9.2-0.4l30.5-17.6c2.7-1.6,3-4,0.7-5.3L88.2,32.3
				c-2.4-1.4-6.5-1.2-9.2,0.4L48.4,50.3C45.7,51.8,45.4,54.2,47.8,55.6z"/>
			<polygon class="st25" points="121.8,53.2 121.8,50.4 46.2,50.3 46.2,53.2 			"/>
			<path class="st26" d="M47.8,52.8l32.1,18.5c2.4,1.4,6.5,1.2,9.2-0.4l30.5-17.6c2.7-1.6,3-4,0.7-5.3L88.2,29.4
				c-2.4-1.4-6.5-1.2-9.2,0.4L48.4,47.4C45.7,49,45.4,51.4,47.8,52.8z"/>
		</g>
		<g>
			<path class="st20" d="M61.3,45.9c-0.5,0-0.9-0.4-0.9-0.9v-5.4c0-2.1,1.4-4.6,3.3-5.7l9.4-5.4c1-0.6,2.1-0.7,2.9-0.2
				c0.8,0.5,1.3,1.4,1.3,2.6v5.4c0,0.5-0.4,0.9-0.9,0.9c-0.5,0-0.9-0.4-0.9-0.9v-5.4c0-0.5-0.1-0.9-0.3-1c-0.2-0.1-0.6-0.1-1.1,0.2
				l-9.4,5.4c-1.3,0.7-2.3,2.6-2.3,4V45C62.2,45.5,61.8,45.9,61.3,45.9z"/>
		</g>
		<g>
			<path class="st25" d="M56.7,50.5l24.8,14.3c1.8,1.1,5,0.9,7.1-0.3l23.6-13.6c2.1-1.2,2.3-3.1,0.5-4.1L87.9,32.5
				c-1.8-1.1-5-0.9-7.1,0.3L57.2,46.4C55.1,47.7,54.9,49.5,56.7,50.5z"/>
			<polygon class="st25" points="113.9,48.7 113.9,46.5 55.5,46.4 55.5,48.7 			"/>
			<path class="st27" d="M56.7,48.4l24.8,14.3c1.8,1.1,5,0.9,7.1-0.3l23.6-13.6c2.1-1.2,2.3-3.1,0.5-4.1L87.9,30.3
				c-1.8-1.1-5-0.9-7.1,0.3L57.2,44.2C55.1,45.5,54.9,47.3,56.7,48.4z"/>
		</g>
		<g>
			<path class="st20" d="M94.2,64.8c-0.5,0-0.9-0.4-0.9-0.9v-5.4c0-2.1,1.4-4.6,3.3-5.7l9.4-5.4c1-0.6,2.1-0.7,2.9-0.2
				c0.8,0.5,1.3,1.4,1.3,2.6v5.4c0,0.5-0.4,0.9-0.9,0.9c-0.5,0-0.9-0.4-0.9-0.9v-5.4c0-0.5-0.1-0.9-0.3-1s-0.6-0.1-1.1,0.2l-9.4,5.4
				c-1.3,0.7-2.3,2.6-2.3,4v5.4C95.1,64.4,94.7,64.8,94.2,64.8z"/>
		</g>
		<g>
			<path class="st28" d="M59.4,97.9l14.5,8.3c0.7,0.4,1.3,0,1.3-1V89.1c0-1-0.6-2.1-1.3-2.5l-14.5-8.3c-0.7-0.4-1.3,0-1.3,1v16.1
				C58.1,96.4,58.7,97.5,59.4,97.9z"/>
			<g>
				<g>
					<g>
						<path class="st29" d="M71,101.3c-0.3,0-0.6-0.1-0.9-0.2l-2.7-1.5c-0.3-0.2-0.4-0.6-0.2-0.8c0.2-0.3,0.6-0.4,0.8-0.2l2.7,1.5
							c0.3,0.2,0.5,0,0.6-0.1c0.1-0.1,0.3-0.3,0.1-0.6l-0.7-1.7c-0.1-0.3,0-0.7,0.4-0.8c0.3-0.1,0.7,0,0.8,0.4l0.7,1.7
							c0.3,0.7,0.1,1.5-0.5,2C71.8,101.1,71.4,101.3,71,101.3z"/>
					</g>
					<g>
						<polygon class="st29" points="73.3,97.2 70.4,94.9 69.9,98.5 						"/>
					</g>
				</g>
				<g>
					<g>
						<path class="st29" d="M63.5,97.1c-0.1,0-0.2,0-0.3-0.1l-2.3-1.4c-0.5-0.3-0.8-0.7-0.9-1.2c-0.1-0.5,0-1.1,0.3-1.5l0.9-1.3
							c0.2-0.3,0.6-0.3,0.9-0.1c0.3,0.2,0.3,0.6,0.1,0.9l-0.9,1.3c-0.1,0.2-0.1,0.3-0.1,0.5c0,0.2,0.1,0.3,0.3,0.4l2.3,1.4
							c0.3,0.2,0.4,0.6,0.2,0.8C64,97,63.8,97.1,63.5,97.1z"/>
					</g>
					<g>
						<polygon class="st29" points="62.1,97.8 65.9,97.8 64,94.6 						"/>
					</g>
				</g>
				<g>
					<g>
						<path class="st29" d="M69.4,93.1c-0.2,0-0.5-0.2-0.6-0.4l-2.1-5.3c-0.1-0.2-0.2-0.2-0.3-0.2c-0.1,0-0.2,0-0.4,0.2L65,88.8
							c-0.2,0.3-0.6,0.3-0.9,0.1c-0.3-0.2-0.3-0.6-0.1-0.9l1.1-1.5c0.3-0.5,0.9-0.7,1.5-0.7c0.6,0.1,1.1,0.5,1.3,1l2.1,5.3
							c0.1,0.3,0,0.7-0.4,0.8C69.5,93.1,69.5,93.1,69.4,93.1z"/>
					</g>
					<g>
						<polygon class="st29" points="63.3,87 62.9,90.7 66.3,89.1 						"/>
					</g>
				</g>
			</g>
		</g>
	</g>
	<g>
		<g>
			<polygon class="st30" points="167.5,66.4 167.5,64.2 164.5,65.5 165.6,66.6 			"/>
			<path class="st30" d="M160.9,68.9l0.2,0.1c0.8,0.5,2.2,0.4,3.1-0.1l2.6-1.5c0.9-0.5,1-1.3,0.2-1.8l-0.2-0.1
				c-0.8-0.5-2.2-0.4-3.1,0.1l-2.6,1.5C160.2,67.6,160.1,68.4,160.9,68.9z"/>
			<path class="st31" d="M160.9,66.8l0.2,0.1c0.8,0.5,2.2,0.4,3.1-0.1l2.6-1.5c0.9-0.5,1-1.3,0.2-1.8l-0.2-0.1
				c-0.8-0.5-2.2-0.4-3.1,0.1l-2.6,1.5C160.2,65.6,160.1,66.3,160.9,66.8z"/>
		</g>
		<g>
			<polygon class="st30" points="149.6,56.4 149.6,54.2 146.6,55.6 147.8,56.7 			"/>
			<path class="st30" d="M143,58.9l0.2,0.1c0.8,0.5,2.2,0.4,3.1-0.1l2.6-1.5c0.9-0.5,1-1.3,0.2-1.8l-0.2-0.1
				c-0.8-0.5-2.2-0.4-3.1,0.1l-2.6,1.5C142.3,57.7,142.2,58.5,143,58.9z"/>
			<path class="st31" d="M143,56.9l0.2,0.1c0.8,0.5,2.2,0.4,3.1-0.1l2.6-1.5c0.9-0.5,1-1.3,0.2-1.8l-0.2-0.1
				c-0.8-0.5-2.2-0.4-3.1,0.1l-2.6,1.5C142.3,55.6,142.2,56.4,143,56.9z"/>
		</g>
		<path class="st32" d="M110.3,144.8l22.5,13c1.7,1,4.5,0.8,6.5-0.3l21.4-12.3c1.9-1.1,2.1-2.8,0.5-3.7l-22.5-13
			c-1.7-1-4.5-0.8-6.5,0.3l-21.4,12.3C108.8,142.2,108.6,143.9,110.3,144.8z"/>
		<path class="st31" d="M135.7,98.8v59.7c0,0-0.9,0-1.5-0.1c-0.8-0.2-1.4-0.5-1.4-0.5l-22.5-13c0,0-0.6-0.4-0.9-0.8
			c-0.2-0.3-0.2-0.9-0.2-0.9L97.8,77.2c0,0,0.3,1.4,1.6,2.1c7.5,4.4,32.1,18.5,32.1,18.5s1.1,0.5,2,0.7
			C134.2,98.7,135.7,98.8,135.7,98.8z"/>
		<path class="st33" d="M173.5,76.9l-11.3,66.2c0,0,0,0.5-0.3,1c-0.5,0.7-1.2,1.1-1.2,1.1l-21.4,12.3c0,0-0.9,0.5-1.7,0.7
			c-0.8,0.2-1.8,0.2-1.8,0.2V98.8c0,0,1.6-0.1,2.6-0.3c1.2-0.3,2.5-1,2.5-1l30.5-17.6L173.5,76.9z"/>
		<g>
			<path class="st30" d="M99.4,79.3l32.1,18.5c2.4,1.4,6.5,1.2,9.2-0.4l30.5-17.6c2.7-1.6,3-4,0.7-5.3L139.8,56
				c-2.4-1.4-6.5-1.2-9.2,0.4L100.1,74C97.4,75.6,97.1,78,99.4,79.3z"/>
			<polygon class="st30" points="173.5,76.9 173.5,74.1 97.8,74 97.8,76.9 			"/>
			<path class="st31" d="M99.4,76.5L131.5,95c2.4,1.4,6.5,1.2,9.2-0.4L171.3,77c2.7-1.6,3-4,0.7-5.3l-32.1-18.5
				c-2.4-1.4-6.5-1.2-9.2,0.4l-30.5,17.6C97.4,72.7,97.1,75.1,99.4,76.5z"/>
		</g>
		<g>
			<path class="st34" d="M112.9,69.6c-0.5,0-0.9-0.4-0.9-0.9v-5.4c0-2.1,1.4-4.6,3.3-5.7l9.4-5.4c1-0.6,2.1-0.7,2.9-0.2
				c0.8,0.5,1.3,1.4,1.3,2.6V60c0,0.5-0.4,0.9-0.9,0.9c-0.5,0-0.9-0.4-0.9-0.9v-5.4c0-0.5-0.1-0.9-0.3-1c-0.2-0.1-0.6-0.1-1.1,0.2
				l-9.4,5.4c-1.3,0.7-2.3,2.6-2.3,4v5.4C113.9,69.2,113.4,69.6,112.9,69.6z"/>
		</g>
		<g>
			<path class="st30" d="M108.4,74.3l24.8,14.3c1.8,1.1,5,0.9,7.1-0.3l23.6-13.6c2.1-1.2,2.3-3.1,0.5-4.1l-24.8-14.3
				c-1.8-1.1-5-0.9-7.1,0.3l-23.6,13.6C106.8,71.4,106.6,73.2,108.4,74.3z"/>
			<polygon class="st30" points="165.6,72.4 165.6,70.2 107.2,70.2 107.2,72.4 			"/>
			<path class="st33" d="M108.4,72.1l24.8,14.3c1.8,1.1,5,0.9,7.1-0.3l23.6-13.6c2.1-1.2,2.3-3.1,0.5-4.1l-24.8-14.3
				c-1.8-1.1-5-0.9-7.1,0.3L108.9,68C106.8,69.2,106.6,71,108.4,72.1z"/>
		</g>
		<g>
			<path class="st34" d="M145.9,88.6c-0.5,0-0.9-0.4-0.9-0.9v-5.4c0-2.1,1.4-4.6,3.3-5.7l9.4-5.4c1-0.6,2.1-0.7,2.9-0.2
				c0.8,0.5,1.3,1.4,1.3,2.6V79c0,0.5-0.4,0.9-0.9,0.9c-0.5,0-0.9-0.4-0.9-0.9v-5.4c0-0.5-0.1-0.9-0.3-1c-0.2-0.1-0.6-0.1-1.1,0.2
				l-9.4,5.4c-1.3,0.7-2.3,2.6-2.3,4v5.4C146.8,88.1,146.4,88.6,145.9,88.6z"/>
		</g>
		<g>
			<path class="st28" d="M111.1,121.6l14.5,8.3c0.7,0.4,1.3,0,1.3-1v-16.1c0-1-0.6-2.1-1.3-2.5l-14.5-8.3c-0.7-0.4-1.3,0-1.3,1v16.1
				C109.8,120.1,110.3,121.2,111.1,121.6z"/>
			<g>
				<g>
					<g>
						<path class="st35" d="M124.9,126.4c-0.1,0-0.2,0-0.3-0.1l-5.5-3.2c-0.3-0.2-0.4-0.6-0.2-0.8c0.2-0.3,0.6-0.4,0.8-0.2l3.9,2.3
							l-1.2-3.1c-0.1-0.3,0-0.7,0.4-0.8c0.3-0.1,0.7,0,0.8,0.4l1.8,4.7c0.1,0.2,0,0.5-0.2,0.7C125.2,126.4,125.1,126.4,124.9,126.4z
							"/>
					</g>
					<g>
						<polygon class="st35" points="125,120.9 122.1,118.6 121.5,122.3 						"/>
					</g>
				</g>
				<g>
					<g>
						<path class="st35" d="M115.2,120.8c-0.1,0-0.2,0-0.3-0.1l-3.5-2c-0.2-0.1-0.3-0.2-0.3-0.4c0-0.2,0-0.3,0.1-0.5l2.8-4
							c0.2-0.3,0.6-0.3,0.9-0.1c0.3,0.2,0.3,0.6,0.1,0.9l-2.4,3.4l3,1.7c0.3,0.2,0.4,0.6,0.2,0.8
							C115.6,120.7,115.4,120.8,115.2,120.8z"/>
					</g>
					<g>
						<polygon class="st35" points="113.8,121.6 117.5,121.6 115.7,118.3 						"/>
					</g>
				</g>
				<g>
					<g>
						<path class="st35" d="M121.1,116.9c-0.2,0-0.5-0.2-0.6-0.4l-2.3-6l-0.6,0.9c-0.2,0.3-0.6,0.3-0.9,0.1
							c-0.3-0.2-0.3-0.6-0.1-0.9l1.3-1.9c0.1-0.2,0.4-0.3,0.6-0.3c0.2,0,0.4,0.2,0.5,0.4l2.8,7.1c0.1,0.3,0,0.7-0.4,0.8
							C121.2,116.9,121.1,116.9,121.1,116.9z"/>
					</g>
					<g>
						<polygon class="st35" points="115.8,109.5 115.4,113.2 118.8,111.7 						"/>
					</g>
				</g>
			</g>
		</g>
		<g>
			<path class="st28" d="M111.1,121.6l14.5,8.3c0.7,0.4,1.3,0,1.3-1v-16.1c0-1-0.6-2.1-1.3-2.5l-14.5-8.3c-0.7-0.4-1.3,0-1.3,1v16.1
				C109.8,120.1,110.3,121.2,111.1,121.6z"/>
			<g>
				<g>
					<g>
						<path class="st29" d="M122.7,125c-0.3,0-0.6-0.1-0.9-0.2l-2.7-1.5c-0.3-0.2-0.4-0.6-0.2-0.8c0.2-0.3,0.6-0.4,0.8-0.2l2.7,1.5
							c0.3,0.2,0.5,0,0.6-0.1c0.1-0.1,0.3-0.3,0.1-0.6l-0.7-1.7c-0.1-0.3,0-0.7,0.4-0.8c0.3-0.1,0.7,0,0.8,0.4l0.7,1.7
							c0.3,0.7,0.1,1.5-0.5,2C123.5,124.8,123.1,125,122.7,125z"/>
					</g>
					<g>
						<polygon class="st29" points="125,120.9 122.1,118.6 121.5,122.3 						"/>
					</g>
				</g>
				<g>
					<g>
						<path class="st29" d="M115.2,120.8c-0.1,0-0.2,0-0.3-0.1l-2.3-1.4c-0.5-0.3-0.8-0.7-0.9-1.2c-0.1-0.5,0-1.1,0.3-1.5l0.9-1.3
							c0.2-0.3,0.6-0.3,0.9-0.1c0.3,0.2,0.3,0.6,0.1,0.9l-0.9,1.3c-0.1,0.2-0.1,0.3-0.1,0.5c0,0.2,0.1,0.3,0.3,0.4l2.3,1.4
							c0.3,0.2,0.4,0.6,0.2,0.8C115.6,120.7,115.4,120.8,115.2,120.8z"/>
					</g>
					<g>
						<polygon class="st29" points="113.8,121.6 117.5,121.6 115.7,118.3 						"/>
					</g>
				</g>
				<g>
					<g>
						<path class="st29" d="M121.1,116.9c-0.2,0-0.5-0.2-0.6-0.4l-2.1-5.3c-0.1-0.2-0.2-0.2-0.3-0.2c-0.1,0-0.2,0-0.4,0.2l-1.1,1.5
							c-0.2,0.3-0.6,0.3-0.9,0.1c-0.3-0.2-0.3-0.6-0.1-0.9l1.1-1.5c0.3-0.5,0.9-0.8,1.5-0.7c0.6,0.1,1.1,0.5,1.3,1l2.1,5.3
							c0.1,0.3,0,0.7-0.4,0.8C121.2,116.9,121.1,116.9,121.1,116.9z"/>
					</g>
					<g>
						<polygon class="st29" points="114.9,110.7 114.6,114.4 118,112.8 						"/>
					</g>
				</g>
			</g>
		</g>
	</g>
	<g>
		<g>
			<polygon class="st36" points="221,92.1 221,89.9 217.9,91.3 219.1,92.4 			"/>
			<path class="st36" d="M214.3,94.6l0.2,0.1c0.8,0.5,2.2,0.4,3.1-0.1l2.6-1.5c0.9-0.5,1-1.3,0.2-1.8l-0.2-0.1
				c-0.8-0.5-2.2-0.4-3.1,0.1l-2.6,1.5C213.7,93.4,213.6,94.2,214.3,94.6z"/>
			<path class="st37" d="M214.3,92.5l0.2,0.1c0.8,0.5,2.2,0.4,3.1-0.1l2.6-1.5c0.9-0.5,1-1.3,0.2-1.8l-0.2-0.1
				c-0.8-0.5-2.2-0.4-3.1,0.1l-2.6,1.5C213.7,91.3,213.6,92.1,214.3,92.5z"/>
		</g>
		<g>
			<polygon class="st36" points="203.1,82.2 203.1,80 200.1,81.3 201.2,82.4 			"/>
			<path class="st36" d="M196.5,84.7l0.2,0.1c0.8,0.5,2.2,0.4,3.1-0.1l2.6-1.5c0.9-0.5,1-1.3,0.2-1.8l-0.2-0.1
				c-0.8-0.5-2.2-0.4-3.1,0.1l-2.6,1.5C195.8,83.4,195.7,84.2,196.5,84.7z"/>
			<path class="st37" d="M196.5,82.6l0.2,0.1c0.8,0.5,2.2,0.4,3.1-0.1l2.6-1.5c0.9-0.5,1-1.3,0.2-1.8l-0.2-0.1
				c-0.8-0.5-2.2-0.4-3.1,0.1l-2.6,1.5C195.8,81.4,195.7,82.1,196.5,82.6z"/>
		</g>
		<path class="st38" d="M163.8,170.6l22.5,13c1.7,1,4.5,0.8,6.5-0.3l21.4-12.3c1.9-1.1,2.1-2.8,0.5-3.7l-22.5-13
			c-1.7-1-4.5-0.8-6.5,0.3l-21.4,12.3C162.3,168,162.1,169.6,163.8,170.6z"/>
		<path class="st37" d="M189.2,124.5v59.7c0,0-0.9,0-1.5-0.1c-0.8-0.2-1.4-0.5-1.4-0.5l-22.5-13c0,0-0.6-0.4-0.9-0.8
			c-0.2-0.3-0.2-0.9-0.2-0.9l-11.3-65.9c0,0,0.3,1.4,1.6,2.1c7.5,4.4,32.1,18.5,32.1,18.5s1.1,0.5,2,0.7
			C187.7,124.5,189.2,124.5,189.2,124.5z"/>
		<path class="st39" d="M227,102.7l-11.3,66.2c0,0,0,0.5-0.3,1c-0.5,0.7-1.2,1.1-1.2,1.1l-21.4,12.3c0,0-0.9,0.5-1.7,0.7
			c-0.8,0.2-1.8,0.2-1.8,0.2v-59.7c0,0,1.6-0.1,2.6-0.3c1.2-0.3,2.5-1,2.5-1l30.5-17.6L227,102.7z"/>
		<g>
			<path class="st36" d="M152.9,105.1l32.1,18.5c2.4,1.4,6.5,1.2,9.2-0.4l30.5-17.6c2.7-1.6,3-4,0.7-5.3l-32.1-18.5
				c-2.4-1.4-6.5-1.2-9.2,0.4l-30.5,17.6C150.8,101.3,150.5,103.7,152.9,105.1z"/>
			<polygon class="st36" points="227,102.7 227,99.8 151.3,99.7 151.3,102.7 			"/>
			<path class="st37" d="M152.9,102.2l32.1,18.5c2.4,1.4,6.5,1.2,9.2-0.4l30.5-17.6c2.7-1.6,3-4,0.7-5.3l-32.1-18.5
				c-2.4-1.4-6.5-1.2-9.2,0.4l-30.5,17.6C150.8,98.5,150.5,100.9,152.9,102.2z"/>
		</g>
		<g>
			<path class="st36" d="M166.4,95.4c-0.5,0-0.9-0.4-0.9-0.9v-5.4c0-2.1,1.4-4.6,3.3-5.7l9.4-5.4c1-0.6,2.1-0.7,2.9-0.2
				c0.8,0.5,1.3,1.4,1.3,2.6v5.4c0,0.5-0.4,0.9-0.9,0.9c-0.5,0-0.9-0.4-0.9-0.9v-5.4c0-0.5-0.1-0.9-0.3-1c-0.2-0.1-0.6-0.1-1.1,0.2
				l-9.4,5.4c-1.3,0.7-2.3,2.6-2.3,4v5.4C167.3,94.9,166.9,95.4,166.4,95.4z"/>
		</g>
		<g>
			<path class="st36" d="M161.9,100l24.8,14.3c1.8,1.1,5,0.9,7.1-0.3l23.6-13.6c2.1-1.2,2.3-3.1,0.5-4.1L193.1,82
				c-1.8-1.1-5-0.9-7.1,0.3l-23.6,13.6C160.3,97.1,160.1,99,161.9,100z"/>
			<polygon class="st36" points="219.1,98.2 219.1,96 160.7,95.9 160.7,98.2 			"/>
			<path class="st39" d="M161.9,97.8l24.8,14.3c1.8,1.1,5,0.9,7.1-0.3l23.6-13.6c2.1-1.2,2.3-3.1,0.5-4.1l-24.8-14.3
				c-1.8-1.1-5-0.9-7.1,0.3l-23.6,13.6C160.3,94.9,160.1,96.8,161.9,97.8z"/>
		</g>
		<g>
			<path class="st36" d="M199.3,114.3c-0.5,0-0.9-0.4-0.9-0.9V108c0-2.1,1.4-4.6,3.3-5.7l9.4-5.4c1-0.6,2.1-0.7,2.9-0.2
				c0.8,0.5,1.3,1.4,1.3,2.6v5.4c0,0.5-0.4,0.9-0.9,0.9c-0.5,0-0.9-0.4-0.9-0.9v-5.4c0-0.5-0.1-0.9-0.3-1c-0.2-0.1-0.6-0.1-1.1,0.2
				l-9.4,5.4c-1.3,0.7-2.3,2.6-2.3,4v5.4C200.3,113.9,199.9,114.3,199.3,114.3z"/>
		</g>
		<g>
			<path class="st28" d="M164.5,147.4l14.5,8.3c0.7,0.4,1.3,0,1.3-1v-16.1c0-1-0.6-2.1-1.3-2.5l-14.5-8.3c-0.7-0.4-1.3,0-1.3,1v16.1
				C163.2,145.8,163.8,146.9,164.5,147.4z"/>
			<g>
				<g>
					<g>
						<path class="st40" d="M178.4,152.2c-0.1,0-0.2,0-0.3-0.1l-5.5-3.2c-0.3-0.2-0.4-0.6-0.2-0.8c0.2-0.3,0.6-0.4,0.8-0.2l3.9,2.3
							l-1.2-3.1c-0.1-0.3,0-0.7,0.4-0.8c0.3-0.1,0.7,0,0.8,0.4l1.8,4.7c0.1,0.2,0,0.5-0.2,0.7C178.7,152.1,178.5,152.2,178.4,152.2z
							"/>
					</g>
					<g>
						<polygon class="st40" points="178.5,146.7 175.6,144.3 175,148 						"/>
					</g>
				</g>
				<g>
					<g>
						<path class="st40" d="M168.7,146.6c-0.1,0-0.2,0-0.3-0.1l-3.5-2c-0.2-0.1-0.3-0.2-0.3-0.4c0-0.2,0-0.3,0.1-0.5l2.8-4
							c0.2-0.3,0.6-0.3,0.9-0.1c0.3,0.2,0.3,0.6,0.1,0.9l-2.4,3.4l3,1.7c0.3,0.2,0.4,0.6,0.2,0.8
							C169.1,146.5,168.9,146.6,168.7,146.6z"/>
					</g>
					<g>
						<polygon class="st40" points="167.3,147.3 171,147.3 169.1,144.1 						"/>
					</g>
				</g>
				<g>
					<g>
						<path class="st40" d="M174.5,142.6c-0.2,0-0.5-0.2-0.6-0.4l-2.3-6l-0.6,0.9c-0.2,0.3-0.6,0.3-0.9,0.1
							c-0.3-0.2-0.3-0.6-0.1-0.9l1.3-1.9c0.1-0.2,0.4-0.3,0.6-0.3c0.2,0,0.4,0.2,0.5,0.4l2.8,7.1c0.1,0.3,0,0.7-0.4,0.8
							C174.7,142.6,174.6,142.6,174.5,142.6z"/>
					</g>
					<g>
						<polygon class="st40" points="169.3,135.2 168.9,138.9 172.3,137.4 						"/>
					</g>
				</g>
			</g>
		</g>
		<g>
			<path class="st28" d="M164.5,147.4l14.5,8.3c0.7,0.4,1.3,0,1.3-1v-16.1c0-1-0.6-2.1-1.3-2.5l-14.5-8.3c-0.7-0.4-1.3,0-1.3,1v16.1
				C163.2,145.8,163.8,146.9,164.5,147.4z"/>
			<g>
				<g>
					<g>
						<path class="st29" d="M176.1,150.7c-0.3,0-0.6-0.1-0.9-0.2l-2.7-1.5c-0.3-0.2-0.4-0.6-0.2-0.8s0.6-0.4,0.8-0.2l2.7,1.5
							c0.3,0.2,0.5,0,0.6-0.1c0.1-0.1,0.3-0.3,0.1-0.6l-0.7-1.7c-0.1-0.3,0-0.7,0.4-0.8c0.3-0.1,0.7,0,0.8,0.4l0.7,1.7
							c0.3,0.7,0.1,1.5-0.5,2C176.9,150.6,176.5,150.7,176.1,150.7z"/>
					</g>
					<g>
						<polygon class="st29" points="178.4,146.7 175.5,144.3 175,148 						"/>
					</g>
				</g>
				<g>
					<g>
						<path class="st29" d="M168.6,146.6c-0.1,0-0.2,0-0.3-0.1l-2.3-1.4c-0.5-0.3-0.8-0.7-0.9-1.2c-0.1-0.5,0-1.1,0.3-1.5l0.9-1.3
							c0.2-0.3,0.6-0.3,0.9-0.1c0.3,0.2,0.3,0.6,0.1,0.9l-0.9,1.3c-0.1,0.2-0.1,0.3-0.1,0.5c0,0.2,0.1,0.3,0.3,0.4l2.3,1.4
							c0.3,0.2,0.4,0.6,0.2,0.8C169.1,146.5,168.8,146.6,168.6,146.6z"/>
					</g>
					<g>
						<polygon class="st29" points="167.2,147.3 170.9,147.3 169.1,144.1 						"/>
					</g>
				</g>
				<g>
					<g>
						<path class="st29" d="M174.5,142.6c-0.2,0-0.5-0.2-0.6-0.4l-2.1-5.3c-0.1-0.2-0.2-0.2-0.3-0.2c-0.1,0-0.2,0-0.4,0.2l-1.1,1.5
							c-0.2,0.3-0.6,0.3-0.9,0.1c-0.3-0.2-0.3-0.6-0.1-0.9l1.1-1.5c0.3-0.5,0.9-0.8,1.5-0.7c0.6,0.1,1.1,0.5,1.3,1l2.1,5.3
							c0.1,0.3,0,0.7-0.4,0.8C174.6,142.6,174.6,142.6,174.5,142.6z"/>
					</g>
					<g>
						<polygon class="st29" points="168.4,136.4 168,140.1 171.4,138.6 						"/>
					</g>
				</g>
			</g>
		</g>
	</g>
</g>
</svg>
