<?xml version="1.0" encoding="utf-8"?>
<!-- Generator: Adobe Illustrator 24.2.0, SVG Export Plug-In . SVG Version: 6.00 Build 0)  -->
<svg version="1.1" id="Layer_1" xmlns="http://www.w3.org/2000/svg" xmlns:xlink="http://www.w3.org/1999/xlink" x="0px" y="0px"
	 viewBox="0 0 320 306.2" style="enable-background:new 0 0 320 306.2;" xml:space="preserve">
<style type="text/css">
	.st0{fill:#94D7EB;}
	.st1{fill:#1A6F7F;}
	.st2{fill:#084C59;}
	.st3{fill:#582D0F;}
	.st4{fill:#0C5D6D;}
	.st5{fill:#033D47;}
	.st6{fill:#207E91;}
	.st7{fill:#2994A9;}
	.st8{fill:#187282;}
	.st9{fill:#278292;}
	.st10{fill:#115C68;}
	.st11{fill:#094E5B;}
	.st12{fill:#238192;}
	.st13{fill:#47BFB9;}
	.st14{fill:#4C6FB5;}
	.st15{fill:#95D4CE;}
	.st16{fill:#1C949C;}
	.st17{fill:#36B1B0;}
	.st18{fill:#92B73E;}
	.st19{fill:#BCBEC0;}
	.st20{fill:#A7A9AC;}
	.st21{fill:#E6E7E8;}
	.st22{fill:#414042;}
	.st23{fill:#989899;}
	.st24{fill:#6D6D6D;}
</style>
<path class="st0" d="M163,164.4c-0.4,1.5-0.8,3-1.3,4.5C162.3,167.4,162.7,165.9,163,164.4z"/>
<g>
	<g>
		<g>
			<path class="st1" d="M25.4,188.8L25.4,188.8l-0.2,0.1C25.2,188.9,25.3,188.9,25.4,188.8z"/>
			<path class="st2" d="M294.9,186.5c-0.5,1.7,0.4,5.2-0.2,6.9c0.6-0.5,1.1-1.1,1.4-1.6c2.9-3.9,2.7-7,5-11.2c2.3-4.3,4.7-4.2,7.9-8
				c3.3-3.9-3.2-17.6-3.2-17.6c0-0.1-0.5,0-1.4,0.3c-1.6,3.2-3.6,6.3-6.4,8.4c1.9,3.5,3.9,8,3.5,8.9
				C299,178.7,296.5,182.2,294.9,186.5z"/>
			<g>
				<path class="st3" d="M82.7,95.7c-0.2,1.5-0.1,3.1-0.5,4.5l-0.2,0.1c0.8,0.4,2.9-0.5,3.9-0.5c1.4-0.1,3.2,0.6,2.9-1.1
					c-0.5-2.8-3.7-4.5-5.2-6.8C83.3,93.1,82.9,94.4,82.7,95.7z"/>
				<path class="st3" d="M251.7,117.6h0.5c-0.2-0.1-0.3-0.2-0.5-0.3C251.7,117.4,251.7,117.5,251.7,117.6z"/>
				<path class="st3" d="M246.4,117.1c1.9,0.1,3.7-0.4,5.3,0.5c0-3.8,0.7-7.5,0.6-11.1c-1.1-0.3-4,1.8-5.1,2.3
					c-2.1,1-4.3,1.7-5.9,3.3c-1.5,1.5-2.3,2.8,0,3.9C242.9,116.8,244.6,117,246.4,117.1z"/>
				<path class="st4" d="M305.1,134.7l-3.6-1.1c-9.8-2.5-21-2.5-31.3-3c-22.9-1.1-44.8,2.4-65.2,11.3c-21.4,9.4-45.6,26.6-53.4,48.1
					c-5.5,15.1-9.6,32.6-6.9,48.5c2.8,16.9,12.7,33.6,12.5,50.7c10.4-2.1,18.5-13.5,29.4-16.8c0,0,8.4,5,19.2-3.5
					c14.6-11.4,29.3-24.6,46.6-29c19.2-4.8,26.9-23.2,37.1-28.8c8.3-17.4-2.3-21.1,5.7-34.1C305.1,160.7,299.6,148.6,305.1,134.7z"
					/>
				<path class="st2" d="M205.5,268.9c5.1-4,10.2-8.2,15.4-12.1c0.4-6.4,1.6-12.9,2.7-19.4c1.3-7.6,3.1-16.6-0.3-23.9
					c-1.5-3.2-10.5-9.3-10.5-9.3c-3,8-3.3,24-5.6,32.1c-2.2,7.9-4.2,15.8-5.6,23.8c-0.5,2.9-1,5.8-1.2,8.7c-0.1,1.8,0.1,2.4,0.1,2.5
					c0.1,0.1,0.2,0.3,0.3,0.4C202.4,271.1,203.9,270.2,205.5,268.9z"/>
				<path class="st5" d="M213.4,211.3c-0.1,19-0.7,40.8-6.5,56.5c3.6-2.8,7.2-5.7,10.9-8.6c0.8-5.5,1.8-10.9,2.7-16.4
					C221.9,234.2,215.3,218.9,213.4,211.3z"/>
				<path class="st2" d="M272.2,200.2c-2.5,10.2-2.8,20.6-3.7,31c8.5-7.2,14.1-16.4,20.8-20c8.3-17.4-2.3-21.1,5.7-34.1
					c10.1-16.4,4.6-28.5,10.1-42.4l-3.6-1.1c-0.3-0.1-0.6-0.1-0.9-0.2c-6.1,3.1-11.9,6.5-17.7,10.1c4.2,0.1,8,1,12,2.2
					c4.4,1.3,5.4,5.9,3.3,8.7C293.7,171.6,276.4,182.8,272.2,200.2z"/>
				<path class="st5" d="M299.9,166.2c-5.1,8-10.9,15.7-16.8,23.3c-3.2,10.9-6.7,21.7-9.7,32.7c5.4-8.5,11.8-16.1,19.1-23.1
					c0.4-8.2-3.3-12.7,2.4-22C297.3,173.2,298.9,169.7,299.9,166.2z"/>
				<path class="st2" d="M155.6,205.8c-0.4,0-0.8,0.1-1.2,0c-0.9,20-1.2,40.1-1.9,60.1c2.5,7.7,4.5,15.4,4.4,23.2
					c4.9-1,9.3-4,13.7-7.3c-0.1-1.3-0.2-2.5-0.3-3.8c-0.4-5.9-0.7-12.1-2.9-17.8c-1.8-4.7-5.1-9.4-6.1-14.4
					c-3.3-16.7,3.6-30.3,14.6-42.5C169.4,204.5,162.6,204.9,155.6,205.8z"/>
				<path class="st2" d="M230.5,250c3.9-2.5,7.9-4.8,12-6.6c0.3-4.3,0.7-8.6,1.3-12.8c1.5-10.3,5-18.7,8.8-28.5
					c3.4-8.7,1-18,4.3-26.5c2.6-6.8,6.1-12.8,8-19.5c-4.4,2.3-10,3.8-14.6,3.7c-5.6-0.1-11.3-0.8-16.7,0.9
					c0.3-0.1-15.9,3.4-11.8,5.1c1,0.1,5.4,1.2,6.3,1.5c0.5,0.2,13-0.3,13-0.3c-9.1,19.5-7.2,48.2-8.9,68.9
					C231.7,240.7,231.2,245.4,230.5,250z"/>
				<path class="st5" d="M230.5,250c1-0.6,2-1.3,3-1.9c0.5-8.3,1.8-16.5,2.8-24.8c1.1-8.9,1.5-17.9,3.5-26.8
					c3.4-15.1,7.3-25.9,20.7-36c1.1-0.8,2.2-1.2,3.4-1.3c0.4-1,0.7-2.1,1.1-3.2c-4.4,2.3-10,3.8-14.6,3.7
					c-5.6-0.1-11.3-0.8-16.7,0.9c0.3-0.1-15.9,3.4-11.8,5.1c1,0.1,5.4,1.2,6.3,1.5c0.5,0.2,13-0.3,13-0.3
					c-9.1,19.5-7.2,48.2-8.9,68.9C231.7,240.7,231.2,245.4,230.5,250z"/>
				<path class="st2" d="M193.7,224.6c4.7-11,3.3-22,11.8-33c1.9-2.5,15.1-16.2,15.6-19.1c-9.5,3.1-37,19.7-42.3,27.7
					c1,8.9,1.9,17.8,1.6,26.7c-0.2,9-1.6,17.9-0.5,26.9c0.8,6.6,2.1,13.3,3,19.9c0.9-0.4,1.8-0.8,2.8-1.1c-0.5-7,1.4-13.9,2.7-21
					C190.1,242.3,189.9,233.6,193.7,224.6z"/>
				<path class="st5" d="M202.9,184.2c0.1-0.4,0.1-0.9,0.2-1.3c-9.5,3.1-19,9.4-24.3,17.3c1,8.9,1.9,17.8,1.6,26.7
					c-0.2,9-1.6,17.9-0.5,26.9c0.8,6.6,2.1,13.3,3,19.9c0.8-0.4,1.6-0.7,2.5-1c-0.7-16.6-1-33.3-0.3-49.9
					C185.7,206.9,194,197.1,202.9,184.2z"/>
				<path class="st6" d="M154.5,191.1c-7.9-19.5-40.3-36.9-60.1-45.3c-19.9-8.4-46.8-8.3-68.3-9.3c-5.8-0.3-10.5-0.5-15.6-2
					c0,15.6,0.6,32.2,8.7,45.5c3.3,5.5,6.9,26.3,13.9,38.1c4.7,8,9.5,6.2,17,8.9c11.8,4.3,17.6,19.3,37.5,29.1
					c7.1,3.5,11.6,12.5,26.3,16.9c8.5,2.5,18.8,0.8,18.8,0.8c8.6,3.1,8.9,10.3,24.3,15.1c0.5-15.5-1-31.4-1-47.9
					C155.9,226.3,160.1,204.9,154.5,191.1z"/>
				<path class="st4" d="M74.9,248.1c3.5,2.9,7.6,5.7,12.6,8.2c4.3,2.1,7.6,6.2,12.8,10.1c-3.8-8.4-7.3-16.8-9.7-25.5
					c-3.1-11.4-4.2-23.4-7.7-34.8c0,0.1,0,0.2-0.1,0.3c1.8,5.7,2.6,12.9,1.8,19.8C84.7,235.8,82.5,244.7,74.9,248.1z"/>
				<path class="st7" d="M155.5,208c-2.6-1.8-6.7-4.7-10.1-5.4c0,0.2,0.1,0.5,0.1,0.9c0.1,0.4,0.3,0.8,0.4,1.2
					c0.5,0.4,0.9,0.7,1.3,1.2c10,12.6,6,27.9,6.5,42.3c0.5,12.4,2.3,24.8,3.2,37.1c0.2-14.3-1.1-28.9-1.1-44.1
					c0-9.4,1.6-21.3,1.5-32.3C156.8,208.7,156.1,208.4,155.5,208z"/>
				<path class="st7" d="M144.2,282.7c-1-10.3-2.3-20.6-2.8-30.9c-0.2-4.7,0.3-9.9,0.5-15c-2.9-8.6-6-17.1-7.2-26
					c-2.5-6.3-4.6-13.3,0.3-16.8c1.3-0.9,2.7-1.6,4.1-2c-0.9-0.5-1.8-0.9-2.9-1.2c-3.7,1.9-7.7,3.2-11.9,3.9
					c7.2,18,10.4,36.9,10,55.8c0.1,0.2,0.2,0.4,0.2,0.5c1.1,3.3,0.3,7.1-0.5,10.4c0.1,0.3,0.1,0.6,0.1,0.9c0,4.2-0.2,8.3-0.8,12.2
					C138,276.2,140.2,279.4,144.2,282.7z"/>
				<path class="st7" d="M12.4,135.1c-0.6-0.2-1.3-0.3-2-0.5c0,15.6,0.6,32.2,8.7,45.5c3.3,5.5,6.9,26.3,13.9,38.1
					c2.7,4.6,5.5,6,8.8,6.8c-7.1-13.2-19.9-33.4-12.1-46.7c-4.5-2.8-11.2-10.1-11.2-10.1c0,1.2-3.2-7.8-3.8-17.5
					c-0.2-4.5-0.2-8.9,0.4-13.3C14.1,136.7,13.2,135.9,12.4,135.1z"/>
				<path class="st7" d="M64,237.9c0.3-6.9,0.9-13.9,0.9-20.8c0.1-15.8-7.6-31.2-1.1-46.5c-1.5-1.3-2.6-2.6-3.7-3.9
					c-3.8-2-7.2-4.6-11.1-6.2c-0.1,2.2-0.3,4.4-0.6,6.6c0,0.2,0.1,0.5,0.1,0.7c3.5,8.8,5.2,17.9,6.9,27.3c0.2,0.4,0.4,0.9,0.5,1.4
					c0.5,2.2,0.9,4.4,1.3,6.6c0.5,0.8,0.9,1.7,0.9,2.7c0.6,9.2,1.7,18.2,1,27.4C60.8,234.7,62.4,236.3,64,237.9z"/>
				<path class="st1" d="M56.1,149.6c-5.5-0.8-19.1-2.4-20.4-2.4c1,8.9,1.9,18,4.5,26.6c2.8,9.2,8,17.3,11.4,26.2
					c4,10.8,6.1,21.9,7.7,33.1c1,0.9,1.9,1.8,2.9,2.8c-0.5-18.1-1.5-36.2-5.8-53.9c-2.4-10.1-3.6-13.4-4.5-19.9
					C52.9,161.1,57.1,149.8,56.1,149.6z"/>
				<path class="st2" d="M56.1,149.6c-5.5-0.8-36.4-9.6-37.7-9.5c4.1,6.4,14.9,11.2,18.8,12.2c10,3.2,9.9,9.1,11.7,16
					c2.4,9.2,4.7,18.5,6.8,27.8c2.7,12.1,5.6,25.7,5.4,38.9c0.3,0.3,0.7,0.7,1.1,1c-0.5-18.1-1.5-36.2-5.8-53.9
					C54,172,53,168.4,52.1,162C53.1,160.8,57.1,149.8,56.1,149.6z"/>
				<path class="st1" d="M148.7,186.3c-10.2,0.3-41.7-4-39.3,1.8c7.1,9.3,14.5,23.1,19.3,49.3c2.2,12.3,2.4,24.3,3.9,36.7
					c0.6,0.3,2.2,1,2.7,1.3c0.7-6.6,1.7-13.2,2.3-19.8c1.7-18.8-5.2-39.8-7.1-58.4C130.6,197,145.4,190.1,148.7,186.3z"/>
				<path class="st2" d="M148.7,186.3c-10.2,0.3-58.5-16.8-68.1-13.7l11.7,7.5c10.4,3.6,27,16.6,26.9,17
					c2.4,1.3,11.2,19.9,12.9,27.5c3.5,15.8,5.1,33.8,1.8,49.9c0.5,0.2,0.9,0.5,1.4,0.7c0.7-6.6,1.7-13.2,2.3-19.8
					c1.7-18.8-5.2-39.8-7.1-58.4C130.6,197,145.4,190.1,148.7,186.3z"/>
				<path class="st8" d="M245.9,188.6c-0.8,5.9,2.4,36.1,0.6,41.7c6.2-0.2,4.7-1.5,10.9-2c5-0.4,16.2-23.8,21.1-25.4
					c4.9-1.7,14.6-7,17.6-11c2.9-3.9,2.7-7,5-11.2c2.3-4.3,4.7-4.2,7.9-8c3.3-3.9-3.2-17.6-3.2-17.6l-24.6,8c-2.6,1-5.3,1.8-8,2.8
					c-1.4,0.5-2.9,1-4.3,1.6c-5.7,2.2-11.5,4.2-17.5,5.8c-0.2,0-0.4,0.1-0.5,0.1c-0.5,0.2-0.9,0.2-1.3,0.1l-0.5,0.2
					c0,0,0.2,6-0.1,7.5C248.4,183.8,246.3,185.8,245.9,188.6z"/>
				<path class="st9" d="M258.5,214.4c-1.4,4.7-2.6,9.4-3.3,14.2c0.6-0.1,1.3-0.2,2.2-0.3c0.6,0,1.2-0.4,1.9-0.9
					c2.3-8.9,7-16.9,11.8-25.2c3.5-6.2,6.3-12.4,8.8-19c1.1-3,3.1-4.6-2.6-5.1c-3-0.2-6-0.4-9-0.5c4,4.7,7.5,8.3,3.9,15.1
					C268.2,200.1,260.9,206.5,258.5,214.4z"/>
				<path class="st10" d="M257.9,228.2c5.2-1.8,15.9-23.7,20.6-25.3c4.9-1.7,14.6-7,17.6-11c2.9-3.9,2.7-7,5-11.2
					c2.3-4.3,4.7-4.2,7.9-8c3.3-3.9-3.2-17.6-3.2-17.6c0-0.7-16.1,5.2-28.6,14.4c-2.6,2.6-0.3,9.6-0.3,10.4c0.5,8.7-1.3,13.3-8.6,23
					C262.4,210.5,259.5,219.1,257.9,228.2z"/>
				<path class="st2" d="M257.9,228.2c2.3-0.8,5.7-5.6,9.2-10.8c-2.6-9,4.7-17.4,10.9-24.7c1.9-5.7,3.5-11.4,6.5-16.6
					c-0.1,0-0.2-0.1-0.2-0.2c-0.6-0.4-1.2-0.8-1.8-1.2c-1.9-0.5-4.2,0.3-6.3,0.7c0.3,2.1,0.8,3.9,0.8,4.2c0.5,8.7-1.3,13.3-8.6,23
					C262.4,210.5,259.5,219.1,257.9,228.2z"/>
				<path class="st10" d="M231.1,256.3c3.3-2.1,5-15.6,7.6-25.1c2.2-8.4,15.6-20.2,15.9-28.8l-0.4,0.4c-6.2-4.7-13.3,0.5-18.8,2.4
					c-7.4,2.6-15.4,0.3-22.4-0.9c-0.5,5,0.9,12.3,1.4,17.8c0.6,6,3.2,31.5,3.4,37.3C222.7,260.9,226.4,259.4,231.1,256.3z"/>
				<path class="st2" d="M232.1,223.8c3.8-8.7,14.5-11.3,21.6-17.4c0.5-1.2,0.8-2.4,0.9-3.5c-6.3,5-14.8,8.5-23,9.3
					c0,0.2-0.1,0.4-0.1,0.6c-5,15.3-6.2,30.9-6.6,46.7c1.5-0.4,3.1-1.2,4.7-2.1c0-7,0.5-13.9,0.9-20.8
					C230.7,232.5,230.4,227.5,232.1,223.8z"/>
				<path class="st8" d="M226.4,258.9c0.1-18.1,3.2-38.4,9.8-55.5c-7,1.8-16.8,2-23.3,0.9c-0.5,5,0.9,12.3,1.4,17.8
					c0.6,6,3.2,31.5,3.4,37.3C221,260.3,223.6,260,226.4,258.9z"/>
				<path class="st9" d="M224.6,259.5c0.6-0.2,1.2-0.4,1.9-0.6c0.1-14.6,2.2-30.6,6.5-45.3c-3.2,0.3-6.5,0-9.2-1
					c4.7,6.1,4.3,12.2,3,19.3C224.9,241.1,224.8,250.3,224.6,259.5z"/>
				<path class="st4" d="M41.4,193.8c0.6,6.2,5,14.7,7.9,20.7c2.8,5.6,5.6,11.4,8.8,19.9c0.7,0,2.2,0.6,2.9,0.6
					c-0.1-7.4,0.2-13.4-1.2-20.7c-3-15.7-4.7-21.4-6.8-29.2C49.5,187.2,45.5,192.4,41.4,193.8z"/>
				<path class="st11" d="M53.4,186.1c-0.1-0.4-0.2-0.7-0.3-1.1c-3.7,2.2-7.6,7.3-11.7,8.8c0.6,6.2,5,14.7,7.9,20.7
					c2.8,5.6,5.6,11.4,8.8,19.9c0.2,0,0.4,0,0.7,0.1c-2.3-8.6-4.3-17.2-7-25.8c-1-3.2-2.8-7.5-1.9-11
					C51,193.8,53.1,190.3,53.4,186.1z"/>
				<path class="st1" d="M25.4,188.8c6.1,7.5,13.3,14.6,17.2,23c3.2,6.8,7.2,20.4,15.6,22.6c-3.2-11.7-9.7-27.1-12.3-35.8
					C44.4,194,35.1,179.9,25.4,188.8z"/>
				<path class="st12" d="M25.4,188.8c0.1,0.2,0.3,0.3,0.4,0.5c0.4,0,0.8,0,1.2,0.2c13.2,5.2,18.3,11.7,22.2,23.9
					c2,6.2,4.7,11.8,7.8,17.6c0.2,0.4,0.4,0.8,0.6,1.3c-3.4-11.4-9.2-25.5-11.7-33.6C44.4,194,35.1,179.9,25.4,188.8z"/>
				<path class="st1" d="M144.9,271.3c-0.4-11.6,4.8-25,7.5-35.8c-6.7,0.2-7.8-7.4-9.8-12.3c-2-4.7-3.2-10.9-4.9-14.9L137,208
					c2,5.4,2.1,11.9,3.9,17.7c0.8,2.5,1.5,5,2.6,7.4c0.4,0.9,0.8,1.9,1.5,2.7c0.8,0.8,2.6,0.9,3,1.7c0.7,1.3-1.2,5-1.7,6.5
					c-0.9,3-1.4,5-1.4,8.2c0,3.5,0.2,7,0,10.5C144.8,265.3,143.7,268.9,144.9,271.3z"/>
				<path class="st4" d="M79.5,188.1c-0.5-2.3-1.1-13.3-1.8-15.5c-2-1.2-5.7-0.9-7.9-1.6c-1.4-0.4-6.4-1-5.7-0.3l-0.4-0.3
					c0.8,2.2,0,15.8,0,18.1c1.6-0.3,4.4-8.7,6.1-8.6c0.2,4.2,0.9,8.3-0.4,11.9c4.8,2.5,3,6.3,2.6,10.5c-0.5,4.8,3.2,2.1,2.8,6.9
					c-0.3,4-3.9,15.3-3.3,19.3c0,0,3.4,8.1,3.3,10.5c0,0.3,0.1,0.1,0.4-0.5c-3.1-10.5,0.6-21,4.1-31.2c-0.1-2.1-0.1-4.1,0-6.2
					c0.1-1.5,0.1-2.9,0.2-4.4C78.5,191.3,79.7,193.4,79.5,188.1z"/>
				<path class="st13" d="M252.3,106.4c-16.2-15.7-37.7-16-51-26.5c-6.6-5.2-36.4-18.2-44.3-22.9c-18.1,9.7-31.4,9.6-39.2,19.1
					c-7.8,9.3-23.4,10.4-34.3,16.1c0.6,1.3,2,4.5,2.7,5.9c-13.8-2.2-31,11-44.3,18.9C30.2,124,10,134,10,134
					c15.2,14.9,28.3,17.5,43.7,19.5c1.1,2.6-3,6.6-0.9,10.9c6.5,13.2,55.1,18.8,66.6,30.7c2.8,2.9,17.3-3.7,17.3-3.7
					c0,2.4-6.1,5.6-6.1,5.6c14.3,7.4,21.1,14.9,27.2,14.1c6-0.8,22.4-9.7,27.7-12.6c10.4-5.8,13.7-11.9,24.8-15.7
					c13.6-4.6,20.8-4.9,30.7-15.8c-5.6-0.5-10.6-1.6-16.4-1.5c14.1-5.9,30.8-1.7,45-9.4c11.2-6,22.6-19.3,35.4-21.5
					c-4.4-4.2-15.7-11.9-43.8-24.1l-17.6,2.8C245.7,111.9,250.6,108.2,252.3,106.4z"/>
				<path class="st14" d="M87,179.3c-3.1-0.4-6.1-0.8-9.2-1.4c-0.3,0-0.7,0-1,0c3.9,1.3,8.1,2.6,12.2,3.9c-0.2-0.1-0.4-0.2-0.7-0.4
					C87.4,180.9,87,180.1,87,179.3z"/>
				<path class="st15" d="M193.5,190.8c-5.2,4.6-28.8,16.8-36,18c-5.3,0.9-7.2-4.6-21.1-10.9c-3.3-1.5,3.9-7.4,4.4-8.8
					c-5,0.7-9.7,2-14.6,3.8c-2,0.8-6.5,0.6-8-0.6c-11.9-10.5-43.7-16.4-52.2-19.6c-4.7-1.8-11.6-5.6-12.2-10.5
					c-0.4-2.9,1.4-5.3,2.3-8c1.4-4-6-3.2-8.2-3.6c-8.2-1.6-29.9-7.9-38-16.5l0,0c15.2,14.9,28.3,17.5,43.7,19.5
					c1.1,2.6-3,6.6-0.9,10.9c6.5,13.2,55.1,18.8,66.6,30.7c2.8,2.9,17.3-3.7,17.3-3.7c0,2.4-6.1,5.6-6.1,5.6
					c14.3,7.4,21.1,14.9,27.2,14.1c6-0.8,22.4-9.7,27.7-12.6c10.4-5.8,13.7-11.9,24.8-15.7c13.6-4.6,20.8-4.9,30.7-15.8
					c-5.6-0.5-10.6-1.6-16.4-1.5c14.1-5.9,30.8-1.7,45-9.4c9-4.8,18.1-14.3,27.9-19c-7,1.4-13.3,7.1-19.1,10.8
					c-8.3,5.3-14.9,9.9-25.2,11.2c-6.5,0.8-24.3,2.7-27.3,4.3c-2.7,1.5-5.2,2.8-2.1,3c7.8,0.6,14.1,2,14.1,2
					c-13.8,10.9-28.7,10.3-32.8,12.7C200.5,183.8,197.3,187.4,193.5,190.8z"/>
				<path class="st5" d="M282.4,196.8c5.1-9,10.3-18,12.5-28c-5,1.1-12.5-0.8-17.7,0c-1.7,1.8,8.2,3.5,9,5.5c0,0-0.5,4.3-0.8,5.8
					C284.4,185.6,283.4,191.2,282.4,196.8z"/>
				<path class="st16" d="M280.6,170.1c1.1-0.5,13.3,0.1,14.5-0.5c8.4-3.5,8.6-7.5,10.7-10.7c3-4.6-3.5-6.6-11.8-5.9
					c-9.5,9.8-30,16.4-45,20.6c4.5,4.1,12,0.8,15.8,3.1c5.7,3.6,12.2,3.1,12.2,3.1s6.7-3.5,9.2-5.5
					C287.5,173.2,278.5,171.1,280.6,170.1z"/>
				<path class="st13" d="M277,178.5c-2.7,0.3-9.4-2.9-12.2-3.2c-5.2-0.5-3.4,0.4-8.6-0.5c-1.7-0.3-4.2-1.3-5.9-1.5
					c-0.4,0.1-0.8,0.2-1.2,0.3c4.5,4.1,12,0.8,15.8,3.1c5.7,3.6,12.2,3.1,12.2,3.1s6.7-3.5,9.2-5.5c1.3-1-7.7-3.2-5.6-4.2
					c1.1-0.5,13.3,0.1,14.5-0.5c7-2.9,8.3-6.2,9.8-9c-3.5,4.8-7.6,8.1-20.2,6.6c0,0,0,0-0.1,0c-2.5,0.4-4.8,0.9-7.3,1.8
					c-0.1,0-0.2,0-0.3,0.1c1.4,1.2,2.4,3,4.4,3.6C286.7,174.2,279,178.3,277,178.5z"/>
				<path class="st16" d="M235.8,214c3.9-1.4,16.9-7.3,18.6-10.7c2.3-4.8-15.9-6.8-20.2-5.3c0,0-5.9,2.9-8.9,4.1
					c-3.5,1.4-8.5,2.9-12.4,2.2c0.3,0.9,1.1,2.5,2,3.4C219.2,212.2,229.8,216.2,235.8,214z"/>
				<path class="st13" d="M235.8,214c3.4-1.2,13.6-5.8,17.3-9.2c-11.2,7.7-29.8,10-38.9-0.4c-0.4,0-0.9-0.1-1.3-0.2
					c0.3,0.9,1.1,2.5,2,3.4C219.2,212.2,229.8,216.2,235.8,214z"/>
				<path class="st17" d="M30,190.6c5.7,1.2,11.1,5,15.8,8.1c3.2-3.7,7.3-8.1,7.3-13.6c-4.1-1.5-8.9-3.7-11.4-6.9
					C32.8,181.7,17.3,188.9,30,190.6z"/>
				<path class="st15" d="M43.8,195.5c-2.7-2.2-9.6-4.9-15.5-6c-3-0.6-2.6-1.6-2.8-2.1c-0.7,1.4,0.4,2.6,4.6,3.2
					c5.7,1.2,11.1,5,15.8,8.1c3.1-3.6,7.1-7.9,7.2-13.2c-1.3,3.5-2.2,4.5-4.1,7.6C48.1,194.4,45.1,196.6,43.8,195.5z"/>
				<path class="st4" d="M108.4,206.1c-2.3,2.2-3.6,4-5,6.8c-3.4,6.7-5.1,11.6-3.2,19.4c2.3,9.3,5.9,18.1,9.3,27.1
					c2.3,6.2,5.8,17.7,12,21.6c2.5-2.1,5.7-4.2,7.9-6.6c-4-10.4-6.2-23.6-7.4-34.9c-1.3-11.6-3.4-23.6-4.4-34.9
					C114.7,203.4,110.1,204.4,108.4,206.1z"/>
				<path class="st11" d="M117.6,205.8c0-0.5-0.1-0.9-0.2-1.4c-2.8-1-7.4,0-9.1,1.6c-2.3,2.2-3.6,4-5,6.8
					c-3.4,6.7-5.1,11.6-3.2,19.4c2.3,9.3,5.9,18.1,9.3,27.1c2.3,6.2,5.8,17.7,12,21.6c2.1-1.7,4.7-3.6,6.8-5.5
					c-8.1-5.6-8.6-15.8-12.2-24.9c-3-7.5-5.4-14.8-5.3-22.9c0.1-7.7,4-13.4,6.3-20.6C117.2,206.6,117.4,206.2,117.6,205.8z"/>
				<path class="st1" d="M103.2,210.2c-3.6-2-9.3-2.9-13.3-5.2c-3.5-2-20-8.6-24.2-8.2c0.7,11.1,12.3,24.9,17.5,36.7
					c5.6,12.8,10,21.1,14,34.3c1.4,4.7,12.2,3.7,17.2,12.6l7.1,0.5c0,0-1.5-8.7-2.6-12.2c-1.4-4.4-9.2-30.5-11.2-39
					C106.3,224.1,108.8,213.2,103.2,210.2z"/>
				<path class="st12" d="M106.3,214.3c-3,0.8-6.2,0.9-9.4,0.8c9.7,8,11.9,22.2,14.1,33.5c2.2,11.1,7,21.5,9.8,32.3h0.7
					c0,0-1.5-8.7-2.6-12.2c-1.4-4.4-9.2-30.5-11.2-39C106.7,225.7,107.7,218.9,106.3,214.3z"/>
				<path class="st17" d="M66.7,194.3c-4.5,3.7,7.2,16.2,13.9,19.2c7,3.2,16.4,3.8,24.1,3c7-0.7,13.1-12.6,13.1-12.6
					c-4.1-2.5-13.1-3.5-19.5-7.3c-8.3-5-18.6-10.1-18.6-10.1C75.1,190.5,71.1,190.7,66.7,194.3z"/>
				<path class="st15" d="M66.7,194.3c-4.5,3.7,7.2,16.2,13.9,19.2c7,3.2,16.4,3.8,24.1,3c5.5-0.6,10.5-8.1,12.4-11.2
					c-9.3,10.2-17.7,11.5-35,5.9c-5.2-1.7-17.1-8.6-14.1-17.8C67.5,193.6,67.1,193.9,66.7,194.3z"/>
				<path class="st18" d="M192.7,81.3c0.2-0.1,0.5-0.2,0.8-0.2c-0.2-0.5-0.4-1-0.8-1.6V81.3z"/>
			</g>
		</g>
	</g>
</g>
<g>
	<g>
		<polygon class="st19" points="121.9,83.8 145.7,70.1 169.6,83.6 145.7,97.6 		"/>
		<polygon class="st20" points="145.7,97.6 169.6,83.6 169.6,89.4 145.8,102.7 		"/>
		<polygon class="st21" points="104.8,45.3 173,84.7 207.1,45.3 138.9,5.9 		"/>
		<polygon class="st22" points="197.2,47 197,47.2 171.6,76.5 136.5,56.2 125.1,49.6 118.3,45.7 114.7,43.6 130.9,24.9 140.3,14.1 
			152.8,21.3 179.2,36.6 184.8,39.8 184.8,39.8 		"/>
		<polygon class="st20" points="137,70.1 137,81.8 149.6,89 149.6,77.2 		"/>
		<polygon class="st23" points="149.6,89 154.8,86 154.8,77.2 149.6,77.3 		"/>
		<polygon class="st24" points="179.2,36.6 118.3,45.7 114.7,43.6 130.9,24.9 152.8,21.3 		"/>
		<polygon class="st24" points="197.2,47 197,47.2 136.5,56.2 125.1,49.6 184.8,39.8 184.8,39.8 		"/>
		<polygon class="st19" points="104.8,45.3 104.8,53.3 173,92.6 173,84.7 		"/>
		<polygon class="st20" points="173,84.7 173,92.6 207.1,53.3 207.1,45.3 		"/>
		<polygon class="st20" points="140.3,14.1 114.7,43.6 116.3,44.5 140.3,16.8 195.8,48.5 197.2,47 		"/>
		<polygon class="st21" points="123.5,52.6 152.2,18.9 154.1,20 125.6,53.8 		"/>
		<polygon class="st20" points="152.9,21.4 152.9,24 129.5,52.1 127.8,51.2 		"/>
		<polygon class="st21" points="138.8,61.5 167.5,27.9 169.3,28.9 140.9,62.7 		"/>
		<polygon class="st20" points="168.1,30.3 168.1,32.9 144.7,61.1 143.1,60.1 		"/>
		<polygon class="st21" points="154.1,70.5 182.8,36.8 184.6,37.9 156.1,71.7 		"/>
		<polygon class="st20" points="183.4,39.2 183.4,41.9 160,70 158.3,69.1 		"/>
		<polygon class="st21" points="128.3,27.7 186.7,61.4 185.3,63 126.7,29.5 		"/>
		<polygon class="st20" points="126.7,29.5 126.7,32.2 136.3,37.6 137.8,35.8 		"/>
		<polygon class="st20" points="139.8,37 139.8,39.7 151.6,46.5 153.2,44.6 		"/>
		<polygon class="st20" points="155.2,45.8 155.2,48.5 167,55.3 168.6,53.4 		"/>
		<polygon class="st20" points="170.5,54.6 170.5,57.3 182.4,64.1 183.9,62.3 		"/>
		<polygon class="st21" points="121.9,83.8 121.9,88.9 145.8,102.7 145.7,97.6 		"/>
	</g>
	<g>
		<polygon class="st19" points="207.2,133.9 230.9,120.2 254.9,133.6 230.9,147.6 		"/>
		<polygon class="st20" points="230.9,147.6 254.9,133.6 254.9,139.4 231,152.7 		"/>
		<polygon class="st21" points="190.1,95.3 258.2,134.7 292.3,95.3 224.2,56 		"/>
		<polygon class="st22" points="282.4,97 282.3,97.2 256.9,126.5 221.8,106.3 210.4,99.7 203.5,95.7 200,93.7 216.2,74.9 
			225.5,64.1 238,71.3 264.5,86.6 270,89.8 270,89.8 		"/>
		<polygon class="st20" points="222.3,120.2 222.3,131.9 234.8,139 234.8,127.3 		"/>
		<polygon class="st23" points="234.8,139 240,136 240,127.3 234.8,127.3 		"/>
		<polygon class="st24" points="264.5,86.6 203.5,95.7 200,93.7 216.2,74.9 238,71.3 		"/>
		<polygon class="st24" points="282.4,97 282.3,97.2 221.8,106.3 210.4,99.7 270,89.8 270,89.8 		"/>
		<polygon class="st19" points="190.1,95.3 190.1,103.3 258.2,142.7 258.2,134.7 		"/>
		<polygon class="st20" points="258.2,134.7 258.2,142.7 292.3,103.3 292.3,95.3 		"/>
		<polygon class="st20" points="225.5,64.1 200,93.7 201.6,94.6 225.5,66.8 281.1,98.6 282.4,97 		"/>
		<polygon class="st21" points="208.8,102.6 237.5,69 239.3,70 210.9,103.8 		"/>
		<polygon class="st20" points="238.1,71.4 238.1,74 214.7,102.2 213,101.2 		"/>
		<polygon class="st21" points="224,111.6 252.7,77.9 254.6,79 226.1,112.8 		"/>
		<polygon class="st20" points="253.4,80.3 253.4,83 230,111.1 228.3,110.2 		"/>
		<polygon class="st21" points="239.3,120.5 268,86.8 269.8,87.9 241.4,121.7 		"/>
		<polygon class="st20" points="268.6,89.3 268.6,91.9 245.2,120 243.6,119.1 		"/>
		<polygon class="st21" points="213.5,77.7 271.9,111.5 270.5,113.1 212,79.5 		"/>
		<polygon class="st20" points="212,79.5 212,82.2 221.5,87.7 223.1,85.9 		"/>
		<polygon class="st20" points="225,87 225,89.7 236.9,96.5 238.4,94.7 		"/>
		<polygon class="st20" points="240.4,95.8 240.4,98.5 252.2,105.3 253.8,103.5 		"/>
		<polygon class="st20" points="255.7,104.6 255.7,107.3 267.6,114.1 269.2,112.3 		"/>
		<polygon class="st21" points="207.2,133.9 207.2,139 231,152.7 230.9,147.6 		"/>
	</g>
	<g>
		<polygon class="st19" points="51.5,128.7 75.2,115 99.2,128.5 75.2,142.5 		"/>
		<polygon class="st20" points="75.2,142.5 99.2,128.5 99.2,134.3 75.3,147.6 		"/>
		<polygon class="st21" points="34.4,90.2 102.5,129.6 136.6,90.2 68.4,50.8 		"/>
		<polygon class="st22" points="126.7,91.9 126.5,92.1 101.2,121.4 66.1,101.1 54.7,94.5 47.8,90.6 44.2,88.5 60.5,69.8 69.8,59 
			82.3,66.2 108.7,81.5 114.3,84.7 114.3,84.7 		"/>
		<polygon class="st20" points="66.6,115 66.6,126.7 79.1,133.9 79.1,122.1 		"/>
		<polygon class="st23" points="79.1,133.9 84.3,130.9 84.3,122.1 79.1,122.2 		"/>
		<polygon class="st24" points="108.7,81.5 47.8,90.6 44.2,88.5 60.5,69.8 82.3,66.2 		"/>
		<polygon class="st24" points="126.7,91.9 126.5,92.1 66.1,101.1 54.7,94.5 114.3,84.7 114.3,84.7 		"/>
		<polygon class="st19" points="34.4,90.2 34.4,98.2 102.5,137.5 102.5,129.6 		"/>
		<polygon class="st20" points="102.5,129.6 102.5,137.5 136.6,98.2 136.6,90.2 		"/>
		<polygon class="st20" points="69.8,59 44.3,88.5 45.9,89.4 69.8,61.7 125.4,93.4 126.7,91.9 		"/>
		<polygon class="st21" points="53.1,97.5 81.8,63.8 83.6,64.9 55.2,98.7 		"/>
		<polygon class="st20" points="82.4,66.3 82.4,68.9 59,97 57.3,96.1 		"/>
		<polygon class="st21" points="68.3,106.4 97,72.8 98.8,73.8 70.4,107.6 		"/>
		<polygon class="st20" points="97.7,75.2 97.7,77.8 74.2,106 72.6,105 		"/>
		<polygon class="st21" points="83.6,115.3 112.3,81.7 114.1,82.8 85.7,116.5 		"/>
		<polygon class="st20" points="112.9,84.1 112.9,86.8 89.5,114.9 87.9,114 		"/>
		<polygon class="st21" points="57.8,72.6 116.2,106.3 114.8,107.9 56.3,74.4 		"/>
		<polygon class="st20" points="56.3,74.4 56.3,77.1 65.8,82.5 67.4,80.7 		"/>
		<polygon class="st20" points="69.3,81.9 69.3,84.6 81.2,91.4 82.7,89.5 		"/>
		<polygon class="st20" points="84.7,90.7 84.7,93.4 96.5,100.2 98.1,98.3 		"/>
		<polygon class="st20" points="100,99.5 100,102.2 111.9,109 113.5,107.2 		"/>
		<polygon class="st21" points="51.5,128.7 51.5,133.8 75.3,147.6 75.2,142.5 		"/>
	</g>
	<g>
		<polygon class="st19" points="136.7,178.8 160.5,165.1 184.4,178.5 160.5,192.5 		"/>
		<polygon class="st20" points="160.5,192.5 184.4,178.5 184.4,184.3 160.6,197.6 		"/>
		<polygon class="st21" points="119.6,140.2 187.8,179.6 221.9,140.2 153.7,100.9 		"/>
		<polygon class="st22" points="212,141.9 211.8,142.1 186.4,171.4 151.3,151.2 139.9,144.6 133.1,140.6 129.5,138.6 145.7,119.8 
			155.1,109 167.5,116.2 194,131.5 199.5,134.7 199.6,134.7 		"/>
		<polygon class="st20" points="151.8,165.1 151.8,176.8 164.3,183.9 164.3,172.2 		"/>
		<polygon class="st23" points="164.3,183.9 169.5,180.9 169.5,172.2 164.3,172.2 		"/>
		<polygon class="st24" points="194,131.5 133.1,140.6 129.5,138.6 145.7,119.8 167.5,116.2 		"/>
		<polygon class="st24" points="212,141.9 211.8,142.1 151.3,151.2 139.9,144.6 199.5,134.7 199.6,134.7 		"/>
		<polygon class="st19" points="119.6,140.2 119.6,148.2 187.8,187.6 187.8,179.6 		"/>
		<polygon class="st20" points="187.8,179.6 187.8,187.6 221.9,148.2 221.9,140.2 		"/>
		<polygon class="st20" points="155.1,109 129.5,138.6 131.1,139.5 155.1,111.7 210.6,143.5 212,141.9 		"/>
		<polygon class="st21" points="138.3,147.5 167,113.9 168.8,114.9 140.4,148.7 		"/>
		<polygon class="st20" points="167.7,116.3 167.7,118.9 144.2,147.1 142.6,146.1 		"/>
		<polygon class="st21" points="153.6,156.4 182.3,122.8 184.1,123.8 155.7,157.6 		"/>
		<polygon class="st20" points="182.9,125.2 182.9,127.9 159.5,156 157.8,155.1 		"/>
		<polygon class="st21" points="168.8,165.4 197.5,131.7 199.3,132.8 170.9,166.6 		"/>
		<polygon class="st20" points="198.2,134.2 198.2,136.8 174.7,164.9 173.1,164 		"/>
		<polygon class="st21" points="143,122.6 201.5,156.4 200.1,158 141.5,124.4 		"/>
		<polygon class="st20" points="141.5,124.4 141.5,127.1 151.1,132.6 152.6,130.8 		"/>
		<polygon class="st20" points="154.6,131.9 154.6,134.6 166.4,141.4 168,139.6 		"/>
		<polygon class="st20" points="169.9,140.7 169.9,143.4 181.8,150.2 183.3,148.4 		"/>
		<polygon class="st20" points="185.3,149.5 185.3,152.2 197.1,159 198.7,157.2 		"/>
		<polygon class="st21" points="136.7,178.8 136.7,183.9 160.6,197.6 160.5,192.5 		"/>
	</g>
</g>
</svg>
