<?xml version="1.0" encoding="utf-8"?>
<!-- Generator: Adobe Illustrator 24.2.0, SVG Export Plug-In . SVG Version: 6.00 Build 0)  -->
<svg version="1.1" id="Layer_1" xmlns="http://www.w3.org/2000/svg" xmlns:xlink="http://www.w3.org/1999/xlink" x="0px" y="0px"
	 viewBox="0 0 320 306.2" style="enable-background:new 0 0 320 306.2;" xml:space="preserve">
<style type="text/css">
	.st0{fill:#94D7EB;}
	.st1{fill:#582D0F;}
	.st2{fill:#6C3B17;}
	.st3{fill:#45220F;}
	.st4{fill:#905A24;}
	.st5{fill:#A9692C;}
	.st6{fill:#7F4A1E;}
	.st7{fill:#814C1F;}
	.st8{fill:#93562B;}
	.st9{fill:#683515;}
	.st10{fill:#5A2D0F;}
	.st11{fill:#935627;}
	.st12{fill:#E29D2A;}
	.st13{fill:#F8CA80;}
	.st14{fill:#BB7731;}
	.st15{fill:#D19046;}
	.st16{fill:#B8874C;}
	.st17{opacity:0.48;fill:#74441C;enable-background:new    ;}
	.st18{fill:#009444;}
	.st19{fill:#39B54A;}
	.st20{fill:#808285;}
	.st21{fill:#939598;}
	.st22{fill:#6D6E71;}
	.st23{fill:#58595B;}
	.st24{fill:#BCBEC0;}
	.st25{fill:#D1D3D4;}
	.st26{fill:#E6E7E8;}
	.st27{fill:#A7A9AC;}
	.st28{fill:#2B2B2B;}
	.st29{fill:#414042;}
	.st30{fill:#8B5E3C;}
	.st31{fill:#A97C50;}
	.st32{fill:#BE1E2D;}
	.st33{fill:#9B1021;}
	.st34{fill:#E2293F;}
	.st35{fill:#474747;}
	.st36{fill:#2D2D2D;}
	.st37{fill:#7A4E31;}
	.st38{fill:#BABABA;}
	.st39{fill:#7CE0FC;}
	.st40{fill:#FFFFFF;}
	.st41{fill:#F1F2F2;}
	.st42{fill:#DDDDDD;}
	.st43{fill:#700618;}
	.st44{fill:#5B0417;}
</style>
<path class="st0" d="M-188,20.8c-0.4,1.5-0.8,2.9-1.3,4.4C-188.7,23.8-188.3,22.3-188,20.8z"/>
<g>
	<path class="st1" d="M83.4,91.6c-0.2,1.2-0.7,2.5-0.8,3.8c-0.2,1.5-0.1,3.1-0.5,4.5l-0.2,0.1c0.8,0.4,2.9-0.5,3.9-0.5
		c1.4-0.1,3.2,0.6,2.8-1.1C88.1,95.6,85,93.9,83.4,91.6z"/>
	<path class="st1" d="M247.2,108.5c-2.1,1-4.3,1.7-5.9,3.3c-1.5,1.5-2.3,2.8,0,3.9c1.6,0.8,3.3,1,5.1,1.1c1.9,0.1,3.7-0.4,5.3,0.5
		c0-3.8,0.7-7.7,0.6-11.3C251.1,105.7,248.2,108,247.2,108.5z"/>
	<g>
		<path class="st2" d="M305.9,134.3l-4.5-1c-9.8-2.5-21-2.5-31.3-3c-22.9-1.1-44.8,2.4-65.2,11.4c-21.4,9.4-45.6,26.8-53.4,48.4
			c-5.5,15.2-9.6,32.8-6.9,48.9c2.8,17,12.7,33.8,12.5,51.1c10.4-2.1,18.5-13.6,29.4-16.9c0,0,8.3,5,19.2-3.5
			c14.6-11.5,29.3-24.8,46.6-29.2c19.2-4.9,26.9-23.3,37.1-29c8.3-17.6-2.3-21.3,5.7-34.3C305.1,160.6,300.4,148.3,305.9,134.3z"/>
		<path class="st1" d="M212.9,204.4c-3,8-3.3,24.1-5.6,32.4c-2.2,7.9-4.2,15.9-5.6,24c-0.5,2.9-1,5.8-1.2,8.8
			c-0.1,1.8,0.1,2.5,0.1,2.5c0.1,0.1,0.2,0.3,0.3,0.4c1.5-0.7,3-1.7,4.6-2.9c5.1-4,10.2-8.2,15.4-12.2c0.4-6.5,1.6-13,2.7-19.5
			c1.3-7.6,3.1-16.7-0.3-24C221.9,210.6,212.9,204.4,212.9,204.4z"/>
		<path class="st3" d="M217.7,259.9c0.8-5.5,1.8-11,2.7-16.5c1.4-8.7-5.1-24.2-7.1-31.8c-0.1,19.2-0.7,41-6.5,56.9
			C210.5,265.6,214.1,262.7,217.7,259.9z"/>
		<path class="st1" d="M305.9,134.3l-4.5-1c-0.3-0.1-0.6-0.1-0.9-0.2c-6.1,3.1-11.9,6.5-17.7,10.1c4.2,0.1,8,1,12,2.2
			c4.4,1.3,5.4,6,3.3,8.8c-4.5,17.4-21.8,28.7-26,46.2c-2.5,10.2-2.8,20.8-3.7,31.2c8.5-7.3,14.1-16.5,20.8-20.1
			c8.3-17.6-2.3-21.3,5.7-34.3C305.1,160.6,300.4,148.3,305.9,134.3z"/>
		<path class="st3" d="M299.9,166.2c-5.1,8.1-10.9,15.8-16.8,23.5c-3.3,11-6.7,21.9-9.7,32.9c5.4-8.6,11.8-16.2,19.1-23.3
			c0.4-8.2-3.3-12.8,2.4-22.2C297.3,173.3,298.9,169.6,299.9,166.2z"/>
		<path class="st1" d="M155.6,206c-0.4,0.1-0.8,0.1-1.2,0c-0.9,20.2-1.2,40.3-1.9,60.5c2.5,7.8,4.5,15.5,4.4,23.4
			c4.9-1,9.3-4.1,13.7-7.4c-0.1-1.3-0.2-2.6-0.3-3.8c-0.4-6-0.7-12.2-2.9-17.9c-1.8-4.8-5.1-9.4-6.1-14.4
			c-3.3-16.8,3.6-30.5,14.6-42.8C169.4,204.7,162.6,205.1,155.6,206z"/>
		<path class="st1" d="M230.5,250.5c3.9-2.5,7.9-4.8,12-6.7c0.3-4.3,0.7-8.6,1.3-12.9c1.5-10.4,5-18.9,8.8-28.7
			c3.4-8.7,1-18.1,4.3-26.7c2.6-6.8,6.1-12.9,8-19.6c-4.4,2.3-10,3.8-14.6,3.7c-5.6-0.1-11.3-0.8-16.7,0.9
			c0.3-0.1-15.9,3.5-11.8,5.1c1,0.1,5.4,1.2,6.3,1.5c0.5,0.2,13-0.3,13-0.3c-9.1,19.7-7.2,48.5-8.9,69.4
			C231.7,241.2,231.2,245.9,230.5,250.5z"/>
		<path class="st3" d="M230.5,250.5c1-0.6,2-1.3,3-1.9c0.5-8.4,1.8-16.6,2.8-25c1.1-9,1.5-18,3.5-26.9c3.4-15.2,7.3-26,20.7-36.2
			c1.1-0.8,2.2-1.2,3.4-1.4c0.4-1.1,0.7-2.1,1.1-3.2c-4.4,2.3-10,3.8-14.6,3.7c-5.6-0.1-11.3-0.8-16.7,0.9
			c0.3-0.1-15.9,3.5-11.8,5.1c1,0.1,5.4,1.2,6.3,1.5c0.5,0.2,13-0.3,13-0.3c-9.1,19.7-7.2,48.5-8.9,69.4
			C231.7,241.2,231.2,245.9,230.5,250.5z"/>
		<path class="st1" d="M193.7,225c4.7-11.1,3.3-22.2,11.8-33.2c1.9-2.5,15.1-16.3,15.6-19.2c-9.5,3.1-37.1,19.8-42.3,27.8
			c1,8.9,1.9,17.9,1.6,26.9c-0.2,9.1-1.6,18-0.5,27c0.8,6.7,2.1,13.4,3,20c0.9-0.4,1.8-0.8,2.8-1.1c-0.5-7.1,1.4-14,2.7-21.1
			C190.1,242.8,189.9,234,193.7,225z"/>
		<path class="st3" d="M202.9,184.3c0.1-0.4,0.1-0.9,0.2-1.3c-9.5,3.1-19,9.4-24.3,17.5c1,8.9,1.9,17.9,1.6,26.9
			c-0.2,9.1-1.6,18-0.5,27c0.8,6.7,2.1,13.4,3,20c0.8-0.4,1.6-0.7,2.5-1c-0.7-16.7-1-33.5-0.3-50.3
			C185.7,207.1,194,197.3,202.9,184.3z"/>
		<path class="st4" d="M154.5,191.2c-7.9-19.6-40.3-37.1-60.1-45.6c-19.9-8.4-46.8-8.4-68.3-9.3c-5.8-0.3-10.4-0.5-15.6-2
			c0,15.7,0.6,32.4,8.7,45.8c3.3,5.5,6.9,26.5,13.9,38.4c4.7,8.1,9.5,6.2,17,9c11.8,4.3,17.6,19.4,37.5,29.3
			c7.1,3.5,11.6,12.6,26.3,17c8.5,2.5,18.8,0.8,18.8,0.8c8.6,3.1,8.9,10.4,24.3,15.2c0.5-15.6-1-31.6-1-48.2
			C155.9,226.7,160.1,205.1,154.5,191.2z"/>
		<path class="st2" d="M74.9,248.6c3.5,2.9,7.6,5.7,12.6,8.2c4.3,2.1,7.6,6.3,12.8,10.2c-3.8-8.4-7.3-16.9-9.7-25.7
			c-3.1-11.5-4.2-23.6-7.7-35c0,0.1,0,0.2-0.1,0.4c1.8,5.8,2.6,12.9,1.8,19.9C84.7,236.3,82.5,245.2,74.9,248.6z"/>
		<path class="st5" d="M155.5,208.2c-2.6-1.8-6.7-4.7-10.1-5.4c0,0.2,0.1,0.5,0.1,0.9c0.1,0.4,0.3,0.8,0.4,1.2
			c0.4,0.4,0.9,0.7,1.3,1.2c10,12.7,6,28.1,6.5,42.6c0.5,12.5,2.3,24.9,3.2,37.4c0.2-14.4-1.1-29.1-1.1-44.4
			c0-9.4,1.6-21.5,1.5-32.6C156.8,208.9,156.1,208.6,155.5,208.2z"/>
		<path class="st5" d="M144.2,283.4c-0.9-10.4-2.3-20.7-2.8-31.1c-0.2-4.8,0.3-9.9,0.5-15.1c-3-8.6-6-17.2-7.2-26.2
			c-2.5-6.3-4.6-13.4,0.3-17c1.3-0.9,2.7-1.6,4.1-2c-0.9-0.5-1.8-0.9-2.9-1.2c-3.7,1.9-7.7,3.2-11.9,3.9c7.2,18.1,10.4,37.1,10,56.2
			c0.1,0.2,0.2,0.4,0.2,0.5c1.1,3.3,0.3,7.1-0.5,10.5c0.1,0.3,0.1,0.6,0.1,0.9c0,4.2-0.2,8.3-0.8,12.3
			C138,276.9,140.2,280.1,144.2,283.4z"/>
		<path class="st5" d="M12.4,134.8c-0.7-0.2-1.3-0.3-2-0.5c0,15.7,0.6,32.4,8.7,45.8c3.3,5.5,6.9,26.5,13.9,38.4
			c2.7,4.7,5.5,6,8.8,6.9c-7.1-13.3-19.9-33.6-12.1-47c-4.5-2.8-11.2-10.1-11.2-10.1c0,1.2-3.2-7.8-3.8-17.6
			c-0.2-4.5-0.2-8.9,0.4-13.4C14.1,136.5,13.2,135.7,12.4,134.8z"/>
		<path class="st5" d="M64,238.4c0.4-7,0.9-14,0.9-21c0.1-15.9-7.6-31.4-1.1-46.8c-1.4-1.3-2.7-2.6-3.7-4c-3.8-2-7.2-4.6-11.1-6.2
			c-0.1,2.2-0.3,4.4-0.6,6.6c0,0.2,0.1,0.5,0.1,0.7c3.5,8.9,5.2,18,6.9,27.5c0.2,0.4,0.4,0.9,0.5,1.4c0.5,2.2,0.9,4.5,1.4,6.7
			c0.5,0.8,0.9,1.7,0.9,2.8c0.6,9.3,1.7,18.4,1,27.6C60.8,235.1,62.4,236.7,64,238.4z"/>
		<path class="st6" d="M56.1,149.5c-5.5-0.8-19.1-2.4-20.4-2.4c1,9,1.9,18.1,4.5,26.8c2.8,9.2,8,17.4,11.4,26.4
			c4,10.9,6.1,22.1,7.7,33.4c1,0.9,1.9,1.8,2.9,2.8c-0.5-18.2-1.5-36.5-5.8-54.2c-2.4-10.2-3.6-13.5-4.5-20
			C52.9,161,57.1,149.7,56.1,149.5z"/>
		<path class="st1" d="M56.1,149.5c-5.5-0.8-36.4-9.6-37.7-9.6c4.1,6.4,14.9,11.3,18.8,12.3c10,3.2,9.9,9.1,11.7,16.2
			c2.4,9.2,4.7,18.6,6.8,27.9c2.7,12.2,5.6,25.9,5.4,39.1c0.4,0.3,0.7,0.7,1.1,1c-0.5-18.2-1.5-36.5-5.8-54.2
			C54,172,53,168.4,52.1,161.9C53.1,160.7,57.1,149.7,56.1,149.5z"/>
		<path class="st6" d="M148.7,186.4c-10.2,0.3-41.7-4-39.3,1.8c7.1,9.4,14.5,23.3,19.3,49.6c2.2,12.4,2.4,24.4,3.9,36.9
			c0.6,0.3,2.2,1,2.7,1.3c0.7-6.6,1.7-13.2,2.3-20c1.7-18.9-5.2-40-7.1-58.8C130.6,197.2,145.4,190.2,148.7,186.4z"/>
		<path class="st1" d="M148.7,186.4c-10.2,0.3-58.5-16.9-68.1-13.8l11.7,7.6c10.4,3.6,27,16.8,26.9,17.2c2.4,1.3,11.2,20,12.9,27.7
			c3.5,15.9,5.1,34,1.8,50.2c0.5,0.2,0.9,0.5,1.4,0.7c0.7-6.6,1.7-13.2,2.3-20c1.7-18.9-5.2-40-7.1-58.8
			C130.6,197.2,145.4,190.2,148.7,186.4z"/>
		<path class="st7" d="M257.4,228.7c5-0.4,16.2-23.9,21.1-25.6c4.9-1.7,14.6-7.1,17.6-11.1c2.9-3.9,2.7-7.1,5-11.3
			c2.3-4.3,4.7-4.2,7.9-8.1c3.3-4-3.2-17.7-3.2-17.7l-24.6,8.1c-2.6,1-5.3,1.9-8,2.8c-1.4,0.5-2.9,1-4.3,1.6
			c-5.7,2.2-11.5,4.2-17.5,5.9c-0.2,0-0.4,0.1-0.6,0.1c-0.5,0.2-0.9,0.2-1.3,0.1l-0.5,0.2c0,0,0.2,6-0.1,7.6c-0.5,2.7-2.7,4.7-3,7.6
			c-0.8,6,2.4,36.4,0.6,42C252.8,230.5,251.2,229.2,257.4,228.7z"/>
		<path class="st8" d="M258.5,214.7c-1.4,4.7-2.6,9.5-3.3,14.3c0.6-0.1,1.3-0.2,2.2-0.3c0.6-0.1,1.2-0.4,1.9-0.9
			c2.3-8.9,7-17,11.8-25.4c3.5-6.2,6.3-12.5,8.8-19.1c1.1-3,3.1-4.6-2.6-5.1c-3-0.2-6-0.4-9-0.5c4,4.8,7.5,8.4,3.9,15.2
			C268.2,200.2,260.9,206.7,258.5,214.7z"/>
		<path class="st9" d="M257.9,228.6c5.2-1.8,15.9-23.9,20.6-25.5c4.9-1.7,14.6-7.1,17.6-11.1c2.9-3.9,2.7-7.1,5-11.3
			c2.3-4.3,4.7-4.2,7.9-8.1c3.3-4-3.2-17.7-3.2-17.7c0-0.7-16.1,5.2-28.6,14.5c-2.6,2.7-0.3,9.7-0.3,10.4c0.5,8.8-1.3,13.4-8.6,23.1
			C262.4,210.7,259.5,219.4,257.9,228.6z"/>
		<path class="st1" d="M284.5,176.2c-0.1,0-0.2-0.1-0.2-0.2c-0.6-0.4-1.2-0.8-1.8-1.2c-1.9-0.6-4.2,0.3-6.3,0.7
			c0.3,2.1,0.8,3.9,0.8,4.3c0.5,8.8-1.3,13.4-8.6,23.1c-5.9,7.8-8.9,16.5-10.4,25.7c2.3-0.8,5.7-5.6,9.2-10.8
			c-2.6-9,4.7-17.5,10.9-24.9C279.9,187.2,281.5,181.4,284.5,176.2z"/>
		<path class="st9" d="M235.3,205.3c-7.4,2.6-15.4,0.3-22.4-0.9c-0.5,5.1,0.9,12.3,1.4,17.9c0.6,6,3.2,31.7,3.4,37.5
			c4.9,1.6,8.6,0.1,13.3-3c3.3-2.1,5-15.7,7.6-25.3c2.2-8.4,15.6-20.3,15.9-29l-0.5,0.4C247.8,198.2,240.8,203.4,235.3,205.3z"/>
		<path class="st1" d="M224.8,260c1.5-0.4,3.1-1.2,4.7-2.1c0-7,0.5-14,0.9-21c0.3-4,0-9,1.7-12.8c3.8-8.7,14.5-11.4,21.6-17.5
			c0.5-1.2,0.8-2.4,0.9-3.6c-6.3,5-14.8,8.6-23,9.4c0,0.2-0.1,0.4-0.1,0.6C226.3,228.4,225.2,244.1,224.8,260z"/>
		<path class="st7" d="M214.3,222.3c0.6,6,3.2,31.7,3.4,37.5c3.2,1,5.9,0.7,8.7-0.4c0.1-18.2,3.2-38.6,9.8-55.9
			c-7,1.8-16.8,2-23.3,0.9C212.4,209.5,213.8,216.8,214.3,222.3z"/>
		<path class="st8" d="M224.6,260.1c0.6-0.2,1.2-0.4,1.9-0.6c0.1-14.7,2.2-30.8,6.5-45.5c-3.2,0.3-6.5,0-9.2-1
			c4.7,6.2,4.3,12.3,3,19.4C224.9,241.5,224.8,250.8,224.6,260.1z"/>
		<path class="st2" d="M41.4,194c0.7,6.3,5,14.8,8,20.8c2.8,5.7,5.6,11.5,8.8,20.1c0.7,0,2.2,0.7,2.9,0.6
			c-0.1-7.4,0.2-13.5-1.2-20.9c-3-15.8-4.7-21.6-6.8-29.4C49.5,187.3,45.5,192.5,41.4,194z"/>
		<path class="st10" d="M53.4,186.2c-0.1-0.4-0.2-0.7-0.3-1.1c-3.7,2.2-7.6,7.3-11.7,8.8c0.7,6.3,5,14.8,8,20.8
			c2.8,5.7,5.6,11.5,8.8,20.1c0.2,0,0.4,0,0.7,0.1c-2.3-8.7-4.3-17.3-7-26c-1-3.3-2.8-7.5-1.9-11C51,193.9,53.1,190.4,53.4,186.2z"
			/>
		<path class="st6" d="M25.4,188.9c6.1,7.5,13.3,14.7,17.2,23.2c3.2,6.9,7.2,20.5,15.6,22.7c-3.2-11.8-9.7-27.3-12.3-36
			C44.4,194.2,35.1,180,25.4,188.9z"/>
		<path class="st6" d="M25.2,189.1c0.1-0.1,0.1-0.1,0.2-0.1l0,0L25.2,189.1z"/>
		<path class="st11" d="M25.4,188.9c0.1,0.2,0.3,0.3,0.4,0.5c0.4,0,0.8,0,1.2,0.2c13.2,5.2,18.3,11.8,22.2,24
			c2,6.2,4.7,11.9,7.8,17.7c0.2,0.4,0.4,0.8,0.6,1.3c-3.4-11.5-9.2-25.6-11.7-33.8C44.4,194.2,35.1,180,25.4,188.9z"/>
		<path class="st6" d="M144.9,272c-0.4-11.7,4.8-25.2,7.5-36c-6.7,0.2-7.8-7.5-9.8-12.4c-2-4.7-3.2-11-4.9-15l-0.8-0.3
			c2,5.4,2.1,12,3.9,17.8c0.8,2.5,1.5,5,2.6,7.4c0.4,0.9,0.8,2,1.5,2.7c0.8,0.8,2.6,0.9,3,1.7c0.7,1.4-1.2,5-1.7,6.6
			c-0.9,3-1.4,5.1-1.4,8.3c0,3.5,0.2,7.1,0,10.6C144.8,265.9,143.7,269.5,144.9,272z"/>
		<path class="st2" d="M79.5,188.2c-0.5-2.3-1.1-13.4-1.8-15.6c-2-1.2-5.7-0.9-7.9-1.6c-1.3-0.4-6.4-1-5.7-0.3l-0.4-0.3
			c0.8,2.2,0,15.9,0,18.2c1.6-0.3,4.4-8.8,6.1-8.7c0.2,4.2,0.9,8.3-0.4,11.9c4.8,2.5,3,6.4,2.6,10.6c-0.5,4.9,3.2,2.1,2.8,7
			c-0.3,4-3.9,15.4-3.3,19.4c0,0,3.4,8.2,3.3,10.6c0,0.4,0.1,0.1,0.4-0.5c-3.1-10.6,0.6-21.1,4.1-31.4c-0.1-2.1-0.1-4.2,0-6.3
			c0.1-1.5,0.1-3,0.2-4.4C78.5,191.4,79.7,193.5,79.5,188.2z"/>
		<path class="st12" d="M305.1,134.4c-9.3-8.9-35.8-20.8-43.8-24.3l-17.6,2.8c2.1-1.5,6.9-5.2,8.6-7c-16.2-15.8-37.7-16.1-51-26.6
			c-6.6-5.2-36.4-18.3-44.3-23.1c-18.1,9.8-31.4,9.7-39.2,19.2c-7.8,9.4-23.4,10.5-34.3,16.2c0.6,1.4,2,4.6,2.7,6
			c-13.8-2.2-31,11-44.3,19.1c-11.6,7-31.8,17.1-31.8,17.1c15.2,15,28.3,17.6,43.7,19.7c1.1,2.6-3,6.7-0.9,10.9
			c6.5,13.2,55.1,18.9,66.6,30.9c2.8,2.9,17.3-3.7,17.3-3.7c0,2.4-6.1,5.7-6.1,5.7c14.3,7.5,21.1,15,27.2,14.2
			c6-0.8,22.4-9.7,27.7-12.7c10.4-5.8,13.7-12,24.8-15.8c13.6-4.6,20.8-4.9,30.7-15.9c-5.6-0.5-10.6-1.6-16.4-1.5
			c14.1-5.9,30.8-1.8,45-9.4C280.9,150,292.2,136.7,305.1,134.4z"/>
		<path class="st13" d="M297.6,136.9c-7,1.4-13.3,7.1-19.1,10.8c-8.3,5.3-14.9,10-25.2,11.3c-6.5,0.8-24.3,2.7-27.3,4.4
			c-2.7,1.5-5.2,2.8-2.1,3c7.9,0.6,14.1,2.1,14.1,2.1c-13.8,11-28.7,10.4-32.8,12.8c-4.6,2.6-7.8,6.3-11.6,9.7
			c-5.2,4.6-28.8,16.9-35.9,18.1c-5.3,0.9-7.2-4.7-21.1-11c-3.3-1.5,3.9-7.5,4.4-8.9c-5,0.7-9.7,2-14.6,3.9c-2,0.8-6.5,0.6-8-0.6
			c-11.9-10.6-43.7-16.5-52.2-19.8c-4.7-1.8-11.6-5.7-12.2-10.5c-0.4-2.9,1.4-5.3,2.3-8.1c1.4-4-6-3.2-8.2-3.6
			c-8.2-1.6-29.9-8-38-16.6l0,0c15.2,15,28.3,17.6,43.7,19.7c1.1,2.6-3,6.7-0.9,10.9c6.5,13.2,55.1,18.9,66.6,30.9
			c2.8,2.9,17.3-3.7,17.3-3.7c0,2.4-6.1,5.7-6.1,5.7c14.3,7.5,21.1,15,27.2,14.2c6-0.8,22.4-9.7,27.7-12.7
			c10.4-5.8,13.7-12,24.8-15.8c13.6-4.6,20.8-4.9,30.7-15.9c-5.6-0.5-10.6-1.6-16.4-1.5c14.1-5.9,30.8-1.8,45-9.4
			C278.6,151.2,287.7,141.7,297.6,136.9z"/>
		<path class="st1" d="M296.2,192c2.9-3.9,2.7-7.1,5-11.3c2.3-4.3,4.7-4.2,7.9-8.1c3.3-4-3.2-17.7-3.2-17.7c0-0.1-0.5,0-1.4,0.3
			c-1.6,3.2-3.6,6.3-6.4,8.5c1.9,3.5,3.9,8.1,3.5,8.9c-2.6,6.2-5.1,9.6-6.8,14c-0.5,1.7,0.4,5.3-0.2,7
			C295.3,193,295.8,192.5,296.2,192z"/>
		<path class="st3" d="M282.4,196.9c5.1-9.1,10.3-18.1,12.5-28.2c-5,1.1-12.5-0.8-17.7,0c-1.7,1.8,8.2,3.6,9,5.5
			c0,0-0.5,4.3-0.8,5.8C284.4,185.7,283.4,191.3,282.4,196.9z"/>
		<path class="st14" d="M280.6,170.1c1.1-0.5,13.3,0.1,14.5-0.5c8.4-3.5,8.6-7.6,10.7-10.8c3-4.7-3.5-6.6-11.8-5.9
			c-9.5,9.9-30,16.5-45,20.7c4.5,4.1,12,0.8,15.8,3.1c5.7,3.6,12.2,3.1,12.2,3.1s6.7-3.5,9.2-5.5
			C287.5,173.2,278.5,171.1,280.6,170.1z"/>
		<path class="st15" d="M280.6,170.1c1.1-0.5,13.3,0.1,14.5-0.5c7-2.9,8.3-6.2,9.8-9.1c-3.5,4.9-7.6,8.1-20.2,6.7c0,0,0,0-0.1,0
			c-2.5,0.4-4.8,0.9-7.3,1.8c-0.1,0-0.2,0-0.3,0.1c1.4,1.2,2.4,3,4.4,3.6c5.3,1.6-2.4,5.7-4.4,5.9c-2.7,0.3-9.4-3-12.2-3.2
			c-5.2-0.5-3.4,0.4-8.6-0.5c-1.7-0.3-4.2-1.3-5.9-1.5c-0.4,0.1-0.8,0.2-1.2,0.3c4.5,4.1,12,0.8,15.8,3.1c5.7,3.6,12.2,3.1,12.2,3.1
			s6.7-3.5,9.2-5.5C287.5,173.2,278.5,171.1,280.6,170.1z"/>
		<path class="st14" d="M234.2,198.2c0,0-5.9,3-8.9,4.1c-3.5,1.4-8.5,2.9-12.4,2.2c0.3,0.9,1.1,2.5,2,3.4c4.3,4.6,14.9,8.6,20.9,6.4
			c3.9-1.4,16.9-7.3,18.6-10.7C256.6,198.7,238.4,196.7,234.2,198.2z"/>
		<path class="st15" d="M214.2,204.6c-0.4,0-0.9-0.1-1.3-0.2c0.3,0.9,1.1,2.5,2,3.4c4.3,4.6,14.9,8.6,20.9,6.4
			c3.4-1.2,13.6-5.8,17.3-9.2C241.9,212.7,223.3,215.1,214.2,204.6z"/>
		<path class="st12" d="M30,190.7c5.7,1.2,11.1,5.1,15.8,8.1c3.2-3.7,7.3-8.1,7.3-13.7c-4.1-1.5-9-3.7-11.4-7
			C32.8,181.7,17.3,189.1,30,190.7z"/>
		<path class="st13" d="M43.8,195.7c-2.7-2.2-9.6-4.9-15.5-6.1c-3-0.6-2.6-1.6-2.8-2.1c-0.7,1.5,0.4,2.6,4.6,3.2
			c5.7,1.2,11.1,5.1,15.8,8.1c3.1-3.6,7.1-7.9,7.2-13.3c-1.3,3.5-2.2,4.5-4.1,7.6C48.1,194.5,45.1,196.8,43.8,195.7z"/>
		<path class="st2" d="M108.4,206.3c-2.3,2.2-3.6,4.1-5,6.8c-3.4,6.8-5.1,11.7-3.2,19.5c2.3,9.3,5.9,18.2,9.3,27.3
			c2.3,6.2,5.7,17.8,12,21.8c2.5-2.1,5.7-4.2,7.9-6.6c-4-10.4-6.2-23.7-7.4-35.2c-1.3-11.6-3.4-23.7-4.4-35.2
			C114.7,203.6,110.1,204.6,108.4,206.3z"/>
		<path class="st10" d="M117.6,206c0-0.5-0.1-0.9-0.2-1.4c-2.8-1.1-7.4,0-9.1,1.6c-2.3,2.2-3.6,4.1-5,6.8
			c-3.4,6.8-5.1,11.7-3.2,19.5c2.3,9.3,5.9,18.2,9.3,27.3c2.3,6.2,5.7,17.8,12,21.8c2.1-1.8,4.7-3.6,6.8-5.5
			c-8.1-5.6-8.6-15.9-12.2-25c-3-7.5-5.4-14.9-5.3-23c0.1-7.8,4-13.5,6.3-20.8C117.2,206.8,117.4,206.4,117.6,206z"/>
		<path class="st6" d="M103.2,210.4c-3.6-2-9.3-2.9-13.3-5.2c-3.5-2-20-8.7-24.2-8.3c0.7,11.2,12.3,25,17.5,37
			c5.6,12.9,10,21.2,13.9,34.5c1.4,4.7,12.2,3.7,17.2,12.7l7.1,0.5c0,0-1.5-8.8-2.6-12.3c-1.4-4.4-9.2-30.7-11.2-39.3
			C106.3,224.5,108.8,213.5,103.2,210.4z"/>
		<path class="st11" d="M106.3,214.6c-3,0.8-6.2,0.9-9.4,0.8c9.7,8.1,11.9,22.4,14.1,33.7c2.2,11.2,7,21.6,9.8,32.5l0.7,0.1
			c0,0-1.5-8.8-2.6-12.3c-1.4-4.4-9.2-30.7-11.2-39.3C106.7,226,107.7,219.2,106.3,214.6z"/>
		<path class="st12" d="M66.7,194.4c-4.5,3.7,7.2,16.3,13.9,19.3c7,3.2,16.4,3.8,24.1,3c7-0.7,13.1-12.6,13.1-12.6
			c-4.1-2.5-13.1-3.5-19.5-7.3c-8.3-5-18.6-10.2-18.6-10.2C75.1,190.7,71.1,190.8,66.7,194.4z"/>
		<path class="st13" d="M66.7,194.4c-4.5,3.7,7.2,16.3,13.9,19.3c7,3.2,16.4,3.8,24.1,3c5.5-0.6,10.5-8.2,12.4-11.3
			c-9.3,10.3-17.7,11.6-35,6c-5.2-1.7-17.1-8.7-14.1-18C67.5,193.8,67.1,194.1,66.7,194.4z"/>
	</g>
	<path class="st16" d="M162.7,141.9c0.2-0.1,0.5-0.2,0.8-0.3c-0.1-0.1-0.3-0.1-0.4-0.2L162.7,141.9z"/>
	<path class="st16" d="M240.1,147.9c-0.1,0.2-0.2,0.4-0.4,0.5C240,148.2,240,148,240.1,147.9z"/>
	<path class="st17" d="M136.6,118.4c0.2,0.1,0.3,0.1,0.5,0.1c-0.2-0.3-0.4-0.6-0.5-0.9V118.4z"/>
</g>
<g>
	<g>
		<g>
			<path class="st18" d="M259.6,120.4c-12.4-7.1-32.4-7.2-44.7,0c-12.3,7.1-12.2,18.7,0.1,25.9c12.4,7.2,32.4,7.2,44.7,0
				C272.1,139.2,272,127.6,259.6,120.4L259.6,120.4z"/>
		</g>
	</g>
	<g>
		<g>
			<path class="st19" d="M259.6,115.8c-12.4-7.1-32.4-7.1-44.7,0c-12.3,7.2-12.2,18.7,0.1,25.9c12.4,7.2,32.4,7.2,44.7,0
				C272.1,134.5,272,122.9,259.6,115.8L259.6,115.8z"/>
		</g>
	</g>
	<g>
		<g>
			<polygon class="st20" points="258.5,104.1 242.4,94.8 220.4,98.2 214.6,110.9 230.8,120.3 252.7,116.8 			"/>
		</g>
	</g>
	<polygon class="st21" points="214.6,110.9 212.5,131 230.2,141.2 230.8,120.3 	"/>
	<polygon class="st22" points="230.8,120.3 230.2,141.2 254.2,137.5 252.7,116.8 	"/>
	<polygon class="st23" points="252.7,116.8 254.2,137.5 260.6,123.5 258.5,104.1 	"/>
	<g>
		<g>
			<polygon class="st24" points="256,104.5 241.7,96.3 222.3,99.3 217.2,110.5 231.4,118.8 250.9,115.8 			"/>
		</g>
	</g>
	<g>
		<g>
			<polygon class="st25" points="252.7,54.4 240.9,47.6 224.7,50.1 220.4,59.4 232.3,66.3 248.4,63.8 			"/>
		</g>
	</g>
	<polygon class="st26" points="232.3,66.3 232.3,68.9 231.4,118.8 217.1,110.5 220.2,63.1 220.4,59.4 	"/>
	<polygon class="st24" points="250.9,115.8 231.4,118.8 232.3,68.9 232.3,66.3 248.4,63.8 248.6,66.9 	"/>
	<polygon class="st27" points="256,104.5 250.9,115.8 248.6,66.9 248.4,63.8 252.7,54.4 253.3,63.6 	"/>
	<g>
		<g>
			<path class="st28" d="M227,100.1l-0.3,4.2l-3.7-2.1l-0.9-0.5l0.3-4.2c0.1-1.5,1.2-2.1,2.4-1.4c0.4,0.2,0.8,0.6,1.1,1
				C226.7,98,227.1,99.1,227,100.1z"/>
		</g>
	</g>
	<g>
		<g>
			<path class="st29" d="M227,100.1l-0.3,4.2l-3.7-2.1l0.2-3.9c0.1-1.5,1.2-2.1,2.4-1.4c0.1,0.1,0.2,0.1,0.3,0.2
				C226.7,98,227.1,99.1,227,100.1z"/>
		</g>
	</g>
	<g>
		<g>
			<path class="st25" d="M253.3,63.6c-0.8,0.9-1.9,1.7-3.2,2.4c-0.5,0.3-1,0.6-1.6,0.8c-4.7,2.2-10.8,2.8-16.3,2
				c-3.1-0.5-6-1.4-8.4-2.8c-1.5-0.9-2.7-1.9-3.6-2.9l0.2-3.7l11.9,6.9l16.1-2.5l4.3-9.4L253.3,63.6z"/>
		</g>
	</g>
	<g>
		<g>
			<path class="st30" d="M250.1,49.3c-7.3-4.2-19.1-4.2-26.4,0c-7.3,4.2-7.2,11.1,0.1,15.3s19.1,4.2,26.4,0
				C257.4,60.3,257.4,53.5,250.1,49.3L250.1,49.3z"/>
		</g>
	</g>
	<g>
		<g>
			<path class="st31" d="M250.1,47.4c-7.3-4.2-19.1-4.2-26.4,0c-7.3,4.2-7.2,11.1,0.1,15.3s19.1,4.2,26.4,0
				C257.4,58.5,257.4,51.6,250.1,47.4L250.1,47.4z"/>
		</g>
	</g>
	<g>
		<g>
			<path class="st30" d="M248,48.6c-6.1-3.5-16-3.5-22.1,0s-6.1,9.3,0.1,12.8c6.1,3.5,16,3.5,22.1,0C254.1,57.9,254.1,52.2,248,48.6
				L248,48.6z"/>
		</g>
	</g>
	<path class="st30" d="M221.3,55c0,0-0.9-15.6,15.6-15.6S252.5,55,252.5,55H221.3z"/>
	<g>
		<g>
			<path class="st28" d="M227.4,74.6l-0.2,3.6l-3.1-1.8l-0.7-0.4l0.2-3.6c0.1-1.3,1-1.8,2.1-1.2c0.4,0.2,0.7,0.5,1,0.9
				C227.2,72.7,227.5,73.7,227.4,74.6z"/>
		</g>
	</g>
	<g>
		<g>
			<path class="st29" d="M227.4,74.6l-0.2,3.6l-3.1-1.8l0.2-3.3c0.1-1.3,1-1.8,2.1-1.2c0.1,0,0.2,0.1,0.2,0.2
				C227.2,72.7,227.5,73.7,227.4,74.6z"/>
		</g>
	</g>
	<g>
		<polygon class="st31" points="221.6,101.3 227.6,104.8 227,105.1 220.9,101.6 		"/>
		<polygon class="st30" points="220.9,101.6 220.9,102.1 226.9,105.7 227,105.1 		"/>
		<polygon class="st30" points="226.9,105.7 227.6,105.4 227.6,104.8 227,105.1 		"/>
	</g>
	<g>
		<polygon class="st31" points="222.7,75.5 227.8,78.4 227.2,78.7 222.1,75.8 		"/>
		<polygon class="st30" points="222.1,75.8 222.1,76.3 227.2,79.3 227.2,78.7 		"/>
		<polygon class="st30" points="227.2,79.3 227.8,79 227.8,78.4 227.2,78.7 		"/>
	</g>
	<g>
		<g>
			<path class="st28" d="M223.1,131.7l-0.3,5.2l-4.6-2.6l-1.1-0.6l0.3-5.2c0.1-1.8,1.5-2.6,3-1.7c0.5,0.3,1,0.7,1.4,1.3
				C222.7,129.1,223.2,130.5,223.1,131.7z"/>
		</g>
	</g>
	<g>
		<g>
			<path class="st29" d="M223.1,131.7l-0.3,5.2l-4.6-2.6l0.3-4.8c0.1-1.8,1.5-2.6,3-1.7c0.1,0.1,0.2,0.1,0.3,0.2
				C222.7,129.1,223.2,130.5,223.1,131.7z"/>
		</g>
	</g>
	<g>
		<path class="st29" d="M212.9,116l-11-4.9l11.4-48.4l11,4.9L212.9,116z M203.2,110.4l8.9,4L223,68.3l-8.9-4L203.2,110.4z"/>
		<path class="st29" d="M212.5,116.3c-0.1,0-0.2,0-0.3,0c-0.6-0.1-1-0.7-0.8-1.4l12.7-54c0.1-0.6,0.7-1,1.4-0.8
			c0.6,0.1,1,0.7,0.8,1.4l-12.7,54C213.5,116,213,116.3,212.5,116.3z"/>
		<rect x="216.4" y="67" transform="matrix(0.3993 -0.9168 0.9168 0.3993 63.851 242.5025)" class="st29" width="1.1" height="11"/>
		
			<rect x="214.9" y="73.7" transform="matrix(0.3993 -0.9168 0.9168 0.3993 56.7799 245.1156)" class="st29" width="1.1" height="11"/>
		
			<rect x="213.4" y="80.4" transform="matrix(0.3993 -0.9168 0.9168 0.3993 49.7088 247.7289)" class="st29" width="1.1" height="11"/>
		
			<rect x="211.9" y="87.2" transform="matrix(0.3992 -0.9169 0.9169 0.3992 42.6937 250.4569)" class="st29" width="1.1" height="11"/>
		
			<rect x="210.3" y="94" transform="matrix(0.3992 -0.9169 0.9169 0.3992 35.4841 253.0813)" class="st29" width="1.1" height="11"/>
		
			<rect x="208.8" y="100.7" transform="matrix(0.3992 -0.9169 0.9169 0.3992 28.4138 255.692)" class="st29" width="1.1" height="11"/>
	</g>
	<g>
		<path class="st29" d="M219,54.9l-36.2-21.6l2.7-14.2l36.2,21.6L219,54.9z M183.9,32.8l34.4,20.5l2.3-12.1l-34.4-20.5L183.9,32.8z"
			/>
		<path class="st29" d="M223.7,58.1c-0.2,0-0.4,0-0.5-0.1l-40.3-24c-0.5-0.3-0.6-0.9-0.3-1.4s0.9-0.6,1.4-0.3l40.3,24
			c0.5,0.3,0.6,0.9,0.3,1.4C224.4,57.9,224,58.1,223.7,58.1z"/>
		
			<rect x="208.2" y="44.1" transform="matrix(0.1792 -0.9838 0.9838 0.1792 132.4473 247.977)" class="st29" width="13.3" height="1"/>
		
			<rect x="203.2" y="41" transform="matrix(0.1792 -0.9838 0.9838 0.1792 131.3861 240.4635)" class="st29" width="13.3" height="1"/>
		
			<rect x="198.2" y="38" transform="matrix(0.1792 -0.9838 0.9838 0.1792 130.2805 233.1375)" class="st29" width="13.3" height="1"/>
		
			<rect x="193.3" y="35" transform="matrix(0.1792 -0.9838 0.9838 0.1792 129.173 225.8059)" class="st29" width="13.3" height="1"/>
		
			<rect x="188.2" y="32" transform="matrix(0.1794 -0.9838 0.9838 0.1794 127.9794 218.3609)" class="st29" width="13.3" height="1"/>
		
			<rect x="183.3" y="28.9" transform="matrix(0.1792 -0.9838 0.9838 0.1792 127.0061 210.9668)" class="st29" width="13.3" height="1"/>
	</g>
	<g>
		<g>
			<g>
				<path class="st24" d="M227.1,55c-1.2-0.2-1.9,0.6-1.6,1.9c0.3,1.2,1.4,2.4,2.6,2.6c1.2,0.2,1.9-0.6,1.6-1.9
					C229.5,56.4,228.3,55.2,227.1,55L227.1,55z"/>
			</g>
		</g>
		<polygon class="st24" points="224.5,63.8 229.3,59.2 226.1,55 221.7,59.4 		"/>
		<g>
			<g>
				<path class="st26" d="M222.7,59.3c-1.2-0.2-1.9,0.6-1.6,1.9c0.3,1.2,1.4,2.4,2.6,2.6c1.2,0.2,1.9-0.7,1.6-1.9
					C225.1,60.7,223.9,59.5,222.7,59.3L222.7,59.3z"/>
			</g>
		</g>
	</g>
	<g>
		<path class="st29" d="M237.6,57.3L227,50.8l10.9-48.5l10.5,6.5L237.6,57.3z M228.3,50.3l8.5,5.2l10.4-46.2L238.7,4L228.3,50.3z"/>
		<path class="st29" d="M226.1,58.4c-0.1,0-0.2,0-0.2,0c-0.6-0.1-1-0.7-0.9-1.3l12.2-54.2c0.1-0.6,0.7-1,1.3-0.9s1,0.7,0.9,1.3
			l-12.2,54.2C227.1,58.1,226.7,58.4,226.1,58.4z"/>
		
			<rect x="233.3" y="41.2" transform="matrix(0.5222 -0.8528 0.8528 0.5222 71.9364 221.7075)" class="st29" width="1.1" height="11"/>
		
			<rect x="234.9" y="34.4" transform="matrix(0.5222 -0.8528 0.8528 0.5222 78.4439 219.8606)" class="st29" width="1.1" height="11"/>
		
			<rect x="236.5" y="27.7" transform="matrix(0.5222 -0.8528 0.8528 0.5222 84.9523 218.0124)" class="st29" width="1.1" height="11"/>
		<rect x="238" y="21" transform="matrix(0.5222 -0.8528 0.8528 0.5222 91.3631 216.1605)" class="st29" width="1.1" height="11"/>
		
			<rect x="239.6" y="14.3" transform="matrix(0.5222 -0.8528 0.8528 0.5222 97.8752 214.2148)" class="st29" width="1.1" height="11"/>
		
			<rect x="241.2" y="7.5" transform="matrix(0.5222 -0.8528 0.8528 0.5222 104.3846 212.3524)" class="st29" width="1.1" height="11"/>
	</g>
	<g>
		<path class="st29" d="M273.4,101.7l-43.1-24.9l2.9-14.3l43.1,24.9L273.4,101.7z M231.6,76.2l41,23.7l2.4-12l-41-23.7L231.6,76.2z"
			/>
		<path class="st29" d="M275.6,88.8c-0.2,0-0.4,0-0.6-0.2l-48-27.7c-0.5-0.3-0.7-1-0.4-1.5s1-0.7,1.5-0.4l48.1,27.8
			c0.5,0.3,0.7,1,0.4,1.5C276.4,88.6,276,88.8,275.6,88.8z"/>
		
			<rect x="231.5" y="73" transform="matrix(0.1944 -0.9809 0.9809 0.1944 119.7971 292.8939)" class="st29" width="13.5" height="1.1"/>
		
			<rect x="237.5" y="76.4" transform="matrix(0.1945 -0.9809 0.9809 0.1945 121.2814 301.5123)" class="st29" width="13.5" height="1.1"/>
		
			<rect x="243.5" y="79.8" transform="matrix(0.1945 -0.9809 0.9809 0.1945 122.7827 310.1573)" class="st29" width="13.5" height="1.1"/>
		
			<rect x="249.5" y="83.2" transform="matrix(0.1944 -0.9809 0.9809 0.1944 124.3003 318.8171)" class="st29" width="13.5" height="1.1"/>
		
			<rect x="255.5" y="86.6" transform="matrix(0.1945 -0.9809 0.9809 0.1945 125.782 327.4258)" class="st29" width="13.5" height="1.1"/>
		
			<rect x="261.5" y="90" transform="matrix(0.1944 -0.9809 0.9809 0.1944 127.3003 336.0856)" class="st29" width="13.5" height="1.1"/>
	</g>
</g>
<g>
	<polygon class="st31" points="55.3,141.6 111,173.7 111,178.4 55.3,145.3 	"/>
	<polygon class="st30" points="111,173.7 177,135.1 177,139.8 111,178.4 	"/>
	<polygon class="st24" points="173.6,83.8 110.7,120.1 110.7,172 173.6,135.6 	"/>
	<polygon class="st26" points="110.7,120.1 56.7,88.9 56.7,140.8 110.7,172 	"/>
	<polygon class="st26" points="56.7,88.9 83.7,83.8 110.7,120.1 	"/>
	<polygon class="st32" points="178.1,83.8 110.7,122.7 81.8,83.8 149.2,44.8 	"/>
	<polygon class="st33" points="52.9,89.3 81.8,83.8 149.2,44.8 120.3,50.4 	"/>
	<polygon class="st34" points="52.9,89.3 52.9,92.1 81.8,86.5 81.8,83.8 	"/>
	<polygon class="st34" points="80.7,86.4 110.7,127 110.7,122.7 81.8,83.8 	"/>
	<polygon class="st33" points="110.7,127 178.1,87.9 178.1,83.8 110.7,122.7 	"/>
	<polygon class="st26" points="56.7,93.8 80.6,89.3 110.7,130.5 173.6,94.1 173.6,90.6 110.7,127 80.9,86.7 56.7,91.4 	"/>
	<polygon class="st26" points="172.8,86.8 158.6,95 139.2,83.8 141.4,68.3 	"/>
	<g>
		<polygon class="st35" points="141.2,66.2 150,78.1 150,59 141.2,53.8 		"/>
		<polygon class="st36" points="130.3,59.9 141.2,53.8 141.2,72.8 130.3,72.3 		"/>
		<polygon class="st21" points="130.3,72.3 139.2,84.2 139.2,65 130.3,59.9 		"/>
		<polygon class="st22" points="139.2,65 150,59 150,78 139.2,84.2 		"/>
		<path class="st23" d="M141.2,53.8l-10.8,6.1l8.8,5.1l10.8-6L141.2,53.8z M132.6,59.9l8.6-4.8l6.6,3.9l-8.6,4.7L132.6,59.9z"/>
	</g>
	<polygon class="st21" points="146.6,146.4 164.6,156.7 191.6,141.2 173.4,130.8 	"/>
	<polygon class="st37" points="56.7,140.8 55.3,141.6 111,173.7 151.2,150.4 149.5,149.5 110.7,172 	"/>
	<polygon class="st38" points="146.6,146.4 146.6,149.2 164.6,159.6 164.6,156.7 	"/>
	<polygon class="st21" points="164.6,159.6 162.4,160.8 144.4,150.4 146.6,149.2 	"/>
	<polygon class="st38" points="142.2,154.5 142.2,157.4 160.2,167.7 160.2,164.9 	"/>
	<polygon class="st21" points="160.2,167.7 157.9,169 140,158.6 142.2,157.4 	"/>
	<polygon class="st38" points="144.4,150.4 144.4,153.3 162.4,163.7 162.4,160.8 	"/>
	<polygon class="st38" points="140,158.6 140,161.7 157.9,172.1 157.9,169 	"/>
	<polygon class="st21" points="162.4,163.7 160.2,164.9 142.2,154.5 144.4,153.3 	"/>
	<polygon class="st22" points="191.6,141.2 191.6,152.7 157.9,172.1 157.9,169 160.2,167.7 160.2,164.9 162.4,163.7 162.4,160.8 
		164.6,159.6 164.6,156.7 	"/>
	<g>
		<polygon class="st39" points="116.7,130.6 116.7,151.4 139.3,138.3 139.3,117.6 		"/>
		<polygon class="st39" points="119.8,132.4 139.3,138.4 139.3,130.8 127.3,128.1 		"/>
		<polygon class="st40" points="141.1,118.6 141.1,139.3 139.3,138.3 139.3,117.6 		"/>
		<polygon class="st41" points="139.3,117.6 141.1,118.6 118.4,131.6 116.7,130.6 		"/>
		<polygon class="st41" points="139.3,138.4 141.1,139.3 118.4,152.3 116.7,151.4 		"/>
		<polygon class="st40" points="118.4,131.6 118.4,152.4 116.7,151.4 116.7,130.6 		"/>
		<polygon class="st39" points="130.3,126.4 139.3,128.5 139.3,126.4 132.9,124.9 		"/>
		
			<rect x="117.9" y="132.8" transform="matrix(0.8683 -0.4961 0.4961 0.8683 -48.9146 81.9597)" class="st40" width="23.9" height="0.6"/>
		<path class="st26" d="M118.4,131.6v20.8l22.7-13v-20.7L118.4,131.6z M139.7,138.5l-19.9,11.4v-17.5l19.9-11.4V138.5z"/>
	</g>
	<polygon class="st26" points="146.7,118.6 146.7,146.4 162.9,136.9 162.9,134.3 	"/>
	<g>
		<polygon class="st39" points="96.5,131.7 96.5,152.4 65.4,134.5 65.4,113.7 		"/>
		<polygon class="st39" points="96.5,131.7 96.5,137.7 65.4,128.7 65.4,113.7 		"/>
		<polygon class="st41" points="67.2,112.8 98.2,130.7 96.5,131.7 65.4,113.7 		"/>
		<polygon class="st41" points="67.2,114.7 67.2,135.5 65.4,134.5 65.4,113.7 		"/>
		
			<rect x="81.6" y="112.2" transform="matrix(0.5121 -0.8589 0.8589 0.5121 -71.9884 133.8889)" class="st40" width="0.6" height="36.2"/>
		<polygon class="st41" points="67.2,133.5 98.2,151.5 96.5,152.4 65.4,134.5 		"/>
		<polygon class="st42" points="98.2,130.7 98.2,151.5 96.5,152.4 96.5,131.7 		"/>
		<rect x="73.8" y="120.4" class="st40" width="0.6" height="18.1"/>
		<rect x="87.3" y="127.7" class="st40" width="0.6" height="18.1"/>
		<path class="st40" d="M65.4,113.7v20.7l31.1,17.9v-20.7L65.4,113.7z M95.1,150l-28.3-16.3v-17.5l28.3,16.3
			C95.1,132.5,95.1,150,95.1,150z"/>
	</g>
	<polygon class="st43" points="154.8,120.8 154.8,141.6 167.1,134.5 167.1,113.7 	"/>
	<g>
		<polygon class="st31" points="164.6,108 164.6,155.1 162.9,154.1 162.9,107 		"/>
		<polygon class="st30" points="164.6,108 166.2,107 166.2,154.1 164.6,155.1 		"/>
	</g>
	<g>
		<polygon class="st31" points="187.2,117.4 187.2,142 185.6,141 185.6,116.4 		"/>
		<polygon class="st30" points="187.2,117.4 188.9,116.4 188.9,141.1 187.2,142 		"/>
	</g>
	<g>
		<polygon class="st32" points="173.8,100.2 193.4,119 166.4,134.7 146.7,115.7 		"/>
		<polygon class="st34" points="166.4,134.7 166.4,137.5 146.7,118.6 146.7,115.7 		"/>
		<polygon class="st33" points="166.4,134.7 166.4,137.5 193.4,121.9 193.4,119 		"/>
	</g>
	<polygon class="st26" points="162.9,135.9 164.6,137.5 165.7,136.9 162.9,134.3 	"/>
	<polygon class="st26" points="186.1,126.1 187.2,126.7 188.9,125.8 188.9,124.5 	"/>
	<polygon class="st44" points="154.8,141 154.8,141.6 162.9,136.9 162.9,136.3 	"/>
	<g>
		<g>
			<path class="st41" d="M82.3,97.1c-4.1-2.3-7.4-0.5-7.4,4.2s3.3,10.3,7.3,12.7c4.1,2.3,7.4,0.5,7.4-4.2
				C89.7,105.2,86.4,99.5,82.3,97.1L82.3,97.1z"/>
		</g>
	</g>
	<g>
		<g>
			<path class="st39" d="M88,110.2c0,4.1-2.9,5.8-6.5,3.7c-3.2-1.8-5.8-5.9-6.4-9.7c-0.1-0.5-0.1-1-0.1-1.6c0-4.1,2.9-5.8,6.5-3.7
				c3,1.7,5.4,5.4,6.2,9C87.9,108.7,88,109.5,88,110.2z"/>
		</g>
	</g>
	<path class="st39" d="M87.7,107.9l-12.6-3.7c-0.1-0.5-0.1-1-0.1-1.6c0-4.1,2.9-5.8,6.5-3.7C84.5,100.7,86.9,104.4,87.7,107.9z"/>
	<g>
		<g>
			<path class="st40" d="M81,113.4c-3.4-1.9-6.1-6.6-6.1-10.5s2.7-5.4,6.1-3.5s6.1,6.6,6.1,10.5C87,113.8,84.3,115.4,81,113.4
				L81,113.4z M81,98c-4.1-2.3-7.4-0.5-7.4,4.2s3.3,10.3,7.3,12.7c4.1,2.3,7.4,0.5,7.4-4.2S85.1,100.3,81,98L81,98z"/>
		</g>
	</g>
	<rect x="80.4" y="99.3" class="st40" width="0.6" height="14.4"/>
	
		<rect x="80.4" y="98.5" transform="matrix(0.4978 -0.8673 0.8673 0.4978 -51.4907 123.328)" class="st40" width="0.6" height="15.3"/>
</g>
</svg>
