<?xml version="1.0" encoding="utf-8"?>
<!-- Generator: Adobe Illustrator 24.2.0, SVG Export Plug-In . SVG Version: 6.00 Build 0)  -->
<svg version="1.1" id="Layer_1" xmlns="http://www.w3.org/2000/svg" xmlns:xlink="http://www.w3.org/1999/xlink" x="0px" y="0px"
	 viewBox="0 0 320 306.2" style="enable-background:new 0 0 320 306.2;" xml:space="preserve">
<style type="text/css">
	.st0{fill:#8D1E5A;}
	.st1{fill:#5E0E3E;}
	.st2{fill:#4A1425;}
	.st3{fill:#C31C6F;}
	.st4{fill:#671140;}
	.st5{fill:#9C2063;}
	.st6{fill:#791646;}
	.st7{fill:#A32167;}
	.st8{fill:#4C112E;}
	.st9{fill:#AF1F63;}
	.st10{fill:#ED3487;}
	.st11{fill:#EC5F2D;}
	.st12{fill:#F397BB;}
	.st13{fill:#D41674;}
	.st14{fill:#E66E9F;}
	.st15{fill:#88442E;}
	.st16{fill:#C70000;}
	.st17{fill:#F05959;}
	.st18{fill:#D9DEFF;}
	.st19{fill:#6F7182;}
	.st20{fill:#E81E1E;}
	.st21{fill:#FF5E5E;}
	.st22{fill:#F21616;}
	.st23{clip-path:url(#SVGID_2_);}
	.st24{fill:#FF7575;}
	.st25{fill:#A6E2F0;}
	.st26{fill:#A1DBE8;}
	.st27{clip-path:url(#SVGID_4_);}
	.st28{fill:#BFF4FF;}
	.st29{fill:#422D04;}
	.st30{clip-path:url(#SVGID_6_);fill:#876014;}
	.st31{fill:#7D4113;}
	.st32{fill:#A1581F;}
	.st33{fill:#D9DDF7;}
	.st34{fill:#34B5CF;}
	.st35{fill:#FAB69B;}
	.st36{clip-path:url(#SVGID_9_);fill:#F2A18B;}
	.st37{fill:#EDEFFF;}
	.st38{fill:#FDC6AA;}
	.st39{fill:#FFCFB5;}
	.st40{fill:#5C3419;}
	.st41{clip-path:url(#SVGID_11_);fill:#876014;}
	.st42{fill:#353D40;}
	.st43{fill:#515D61;}
	.st44{fill:#EBEBE9;}
	.st45{fill:#7D7D7C;}
	.st46{fill:#CF7036;}
	.st47{fill:#47AA48;}
	.st48{fill:#ADD481;}
	.st49{fill:#2271B3;}
	.st50{fill:#2B6596;}
	.st51{fill:#3D88C8;}
	.st52{fill:#63B3E3;}
	.st53{fill:#326896;}
	.st54{fill:#AAD3F0;}
	.st55{fill:#4D4E4E;}
	.st56{fill:#434343;}
	.st57{fill:#FFCC05;}
	.st58{fill:#FBAE17;}
	.st59{fill:#FFE26F;}
	.st60{fill:#F6F090;}
	.st61{fill:#FFD85F;}
	.st62{fill:#B3B3B4;}
	.st63{fill:#E4E4E6;}
	.st64{fill:#CCCBCB;}
	.st65{fill:#808080;}
	.st66{fill:#F3F3F4;}
	.st67{fill:#BD592C;}
	.st68{fill:#276192;}
	.st69{fill:#D8434A;}
	.st70{fill:#E57369;}
	.st71{fill:#FFFFFF;}
	.st72{fill:#9B9B9B;}
	.st73{fill:#E4DBC7;}
	.st74{fill:#7D7565;}
	.st75{fill:#BFB399;}
	.st76{fill:#F27465;}
	.st77{fill:#EC4748;}
	.st78{fill:#AB3435;}
</style>
<g>
	<path class="st0" d="M305.1,135.6l-3.6-1.1c-9.8-2.4-21-2.5-31.3-2.9c-22.9-1.1-44.8,2.3-65.2,11c-21.4,9.1-45.6,26-53.5,46.9
		c-5.5,14.7-9.6,31.8-6.9,47.3c2.8,16.5,12.7,32.8,12.5,49.5c10.4-2,18.5-13.1,29.4-16.3c0,0,8.3,4.9,19.2-3.4
		c14.6-11.1,29.3-24,46.6-28.3c19.2-4.7,26.9-22.6,37.1-28.1c8.3-17-2.3-20.6,5.7-33.3C305.1,161,299.6,149.2,305.1,135.6z"/>
	<path class="st1" d="M205.5,266.6c5.1-3.9,10.2-8,15.4-11.8c0.4-6.3,1.6-12.6,2.7-18.9c1.3-7.4,3.1-16.2-0.3-23.3
		c-1.5-3.1-10.5-9.1-10.5-9.1c-3,7.8-3.3,23.4-5.6,31.4c-2.2,7.7-4.2,15.4-5.6,23.2c-0.5,2.8-1,5.7-1.2,8.5
		c-0.1,1.7,0.1,2.4,0.1,2.4c0.1,0.1,0.2,0.3,0.3,0.4C202.4,268.7,203.9,267.8,205.5,266.6z"/>
	<path class="st2" d="M213.4,210.4c-0.1,18.6-0.7,39.8-6.5,55.1c3.6-2.8,7.2-5.6,10.8-8.4c0.8-5.3,1.8-10.6,2.7-16
		C221.9,232.7,215.4,217.7,213.4,210.4z"/>
	<path class="st1" d="M272.2,199.5c-2.5,9.9-2.8,20.1-3.7,30.3c8.5-7.1,14.1-16,20.8-19.5c8.3-17-2.3-20.6,5.7-33.3
		c10.1-16,4.6-27.8,10.1-41.4l-3.6-1.1c-0.3-0.1-0.6-0.1-0.9-0.2c-6.1,3-11.9,6.3-17.7,9.8c4.2,0.1,8,1,12,2.2
		c4.4,1.3,5.4,5.8,3.3,8.5C293.7,171.7,276.4,182.6,272.2,199.5z"/>
	<path class="st2" d="M299.9,166.4c-5.1,7.8-10.9,15.3-16.8,22.8c-3.2,10.6-6.7,21.2-9.7,31.9c5.4-8.3,11.8-15.7,19.1-22.5
		c0.4-8-3.3-12.4,2.4-21.5C297.3,173.3,298.9,169.7,299.9,166.4z"/>
	<path class="st1" d="M155.6,205c-0.4,0-0.8,0-1.2,0c-0.9,19.5-1.2,39.1-1.9,58.6c2.5,7.5,4.5,15.1,4.4,22.7c4.9-1,9.3-3.9,13.7-7.1
		c-0.1-1.2-0.2-2.5-0.3-3.7c-0.4-5.8-0.7-11.8-2.9-17.3c-1.8-4.6-5.1-9.1-6.1-14c-3.3-16.3,3.6-29.5,14.6-41.4
		C169.4,203.7,162.6,204.1,155.6,205z"/>
	<path class="st1" d="M230.5,248.1c3.9-2.5,7.9-4.7,12-6.5c0.3-4.2,0.7-8.3,1.3-12.5c1.5-10.1,5-18.3,8.8-27.8
		c3.4-8.5,1-17.5,4.3-25.9c2.6-6.6,6.1-12.5,8-19c-4.4,2.3-10,3.7-14.6,3.6c-5.6-0.1-11.3-0.8-16.7,0.9c0.3-0.1-15.8,3.3-11.8,4.9
		c1,0.1,5.4,1.2,6.3,1.5c0.5,0.2,13-0.2,13-0.2c-9.1,19-7.2,47-8.9,67.2C231.7,239.1,231.2,243.6,230.5,248.1z"/>
	<path class="st2" d="M230.5,248.1c1-0.6,2-1.2,3-1.8c0.5-8.1,1.8-16.1,2.8-24.2c1.1-8.7,1.5-17.5,3.5-26.1
		c3.4-14.8,7.3-25.2,20.7-35.1c1.1-0.8,2.2-1.2,3.4-1.3c0.4-1,0.7-2,1-3.1c-4.4,2.3-10,3.7-14.6,3.6c-5.6-0.1-11.3-0.8-16.7,0.9
		c0.3-0.1-15.8,3.3-11.8,4.9c1,0.1,5.4,1.2,6.3,1.5c0.5,0.2,13-0.2,13-0.2c-9.1,19-7.2,47-8.9,67.2
		C231.7,239.1,231.2,243.6,230.5,248.1z"/>
	<path class="st1" d="M193.7,223.5c4.5-10.8,2.9-21.6,11.2-32.3c1.9-2.5,14.8-16,15.3-18.8c-9.4,3.2-36.7,19.7-41.8,27.6
		c1.1,8.6,2.2,17.3,2.1,26.1c-0.1,8.8-1.3,17.4,0,26.2c1,6.5,2.3,12.9,3.4,19.4c0.9-0.4,1.8-0.8,2.8-1.2c-0.7-6.9,1.2-13.6,2.3-20.5
		C190.5,240.8,190.1,232.3,193.7,223.5z"/>
	<path class="st2" d="M202.9,183.9c0.1-0.4,0.1-0.8,0.2-1.3c-9.5,3-19,9.1-24.3,16.9c1,8.7,1.9,17.4,1.6,26.1
		c-0.2,8.8-1.6,17.4-0.5,26.2c0.8,6.5,2.1,12.9,3,19.4c0.8-0.4,1.6-0.7,2.5-1c-0.7-16.2-1-32.5-0.3-48.7
		C185.7,206.1,194,196.5,202.9,183.9z"/>
	<path class="st3" d="M154.5,190.7c-7.9-19-40.3-36-60.1-44.2c-19.9-8.2-46.8-8.1-68.3-9.1c-5.8-0.3-10.5-0.5-15.6-2
		c0,15.2,0.6,31.4,8.7,44.4c3.3,5.4,6.9,25.6,13.9,37.2c4.7,7.8,9.5,6,17,8.7c11.8,4.2,17.6,18.8,37.5,28.4
		c7.1,3.4,11.6,12.2,26.3,16.5c8.5,2.5,18.8,0.8,18.8,0.8c8.6,3,8.9,10.1,24.3,14.7c0.5-15.1-1-30.7-1-46.8
		C155.9,225,160.1,204.1,154.5,190.7z"/>
	<path class="st4" d="M74.9,246.3c3.5,2.8,7.6,5.5,12.6,8c4.3,2.1,7.6,6.1,12.8,9.9c-3.8-8.2-7.3-16.4-9.7-24.9
		c-3.1-11.1-4.2-22.9-7.7-33.9c0,0.1,0,0.2-0.1,0.3c1.8,5.6,2.6,12.5,1.8,19.3C84.7,234.3,82.5,243,74.9,246.3z"/>
	<path class="st5" d="M155.5,207.1c-2.6-1.8-6.7-4.5-10.1-5.3c0,0.2,0.1,0.5,0.1,0.8c0.1,0.4,0.3,0.8,0.4,1.1
		c0.5,0.3,0.9,0.7,1.3,1.2c10,12.3,6,27.2,6.5,41.3c0.5,12.1,2.3,24.2,3.2,36.2c0.2-13.9-1.1-28.2-1.1-43c0-9.2,1.6-20.8,1.5-31.6
		C156.8,207.8,156.1,207.5,155.5,207.1z"/>
	<path class="st5" d="M144.2,280c-1-10-2.3-20.1-2.8-30.2c-0.2-4.6,0.3-9.6,0.5-14.7c-2.9-8.4-6-16.7-7.2-25.4
		c-2.5-6.1-4.6-13,0.3-16.4c1.3-0.9,2.7-1.5,4.1-2c-0.9-0.5-1.8-0.9-2.9-1.2c-3.7,1.9-7.7,3.1-11.9,3.8c7.2,17.6,10.4,36,10,54.5
		c0.1,0.2,0.2,0.3,0.2,0.5c1.1,3.2,0.3,6.9-0.5,10.1c0.1,0.3,0.1,0.6,0.1,0.9c0,4.1-0.2,8.1-0.8,11.9
		C138,273.7,140.2,276.8,144.2,280z"/>
	<path class="st5" d="M12.4,136c-0.7-0.1-1.3-0.3-2-0.5c0,15.2,0.6,31.4,8.7,44.4c3.3,5.4,6.9,25.6,13.9,37.2
		c2.7,4.5,5.5,5.8,8.8,6.6c-7.1-12.9-19.9-32.5-12.1-45.5c-4.5-2.8-11.2-9.8-11.2-9.8c0,1.2-3.2-7.6-3.8-17.1
		c-0.2-4.3-0.2-8.7,0.4-13C14.1,137.6,13.2,136.8,12.4,136z"/>
	<path class="st5" d="M64,236.4c0.3-6.8,0.9-13.5,0.9-20.3c0.1-15.4-7.6-30.4-1.1-45.4c-1.5-1.2-2.6-2.5-3.7-3.8
		c-3.8-1.9-7.2-4.5-11.1-6c-0.1,2.2-0.3,4.3-0.6,6.4c0,0.2,0.1,0.5,0.1,0.7c3.5,8.6,5.2,17.5,6.9,26.6c0.2,0.4,0.4,0.9,0.5,1.4
		c0.5,2.2,0.9,4.3,1.3,6.5c0.5,0.7,0.9,1.6,0.9,2.7c0.6,9,1.7,17.8,1,26.7C60.8,233.2,62.4,234.7,64,236.4z"/>
	<path class="st6" d="M56.1,150.2c-5.5-0.8-19.1-2.3-20.4-2.3c1,8.7,1.9,17.5,4.5,26c2.8,9,8,16.9,11.4,25.6
		c4,10.5,6.1,21.4,7.7,32.3c1,0.9,1.9,1.8,2.9,2.7c-0.5-17.7-1.5-35.4-5.8-52.6c-2.4-9.9-3.6-13.1-4.5-19.4
		C52.9,161.4,57.1,150.4,56.1,150.2z"/>
	<path class="st1" d="M56.1,150.2c-5.5-0.8-36.4-9.3-37.7-9.3c4.1,6.3,14.9,11,18.8,11.9c10,3.1,9.9,8.8,11.7,15.7
		c2.4,9,4.7,18,6.8,27.1c2.7,11.8,5.6,25.1,5.4,37.9c0.4,0.3,0.7,0.6,1.1,1c-0.5-17.7-1.5-35.4-5.8-52.6c-2.4-9.9-3.3-13.4-4.2-19.7
		C53.1,161.1,57.1,150.4,56.1,150.2z"/>
	<path class="st6" d="M148.7,186c-10.2,0.3-41.7-3.9-39.3,1.7c7.1,9.1,14.5,22.5,19.3,48.1c2.2,12,2.4,23.7,3.9,35.8
		c0.6,0.2,2.2,1,2.7,1.2c0.7-6.4,1.7-12.8,2.3-19.4c1.7-18.3-5.2-38.8-7.1-57C130.6,196.5,145.4,189.7,148.7,186z"/>
	<path class="st1" d="M148.7,186c-10.2,0.3-58.5-16.4-68.1-13.4l11.7,7.3c10.4,3.5,27,16.2,26.9,16.6c2.4,1.3,11.2,19.4,12.9,26.9
		c3.5,15.5,5.1,33,1.8,48.7c0.5,0.2,0.9,0.4,1.4,0.7c0.7-6.4,1.7-12.8,2.3-19.4c1.7-18.3-5.2-38.8-7.1-57
		C130.6,196.5,145.4,189.7,148.7,186z"/>
	<path class="st7" d="M245.9,188.3c-0.8,5.8,2.4,35.2,0.6,40.7c6.2-0.2,4.7-1.5,10.9-2c5-0.4,16.2-23.2,21.1-24.8
		s14.6-6.8,17.6-10.7c2.9-3.8,2.7-6.9,5-11c2.3-4.2,4.7-4.1,7.9-7.8c3.3-3.8-3.2-17.1-3.2-17.1l-24.6,7.8c-2.6,1-5.3,1.8-8,2.7
		c-1.4,0.5-2.9,1-4.3,1.5c-5.7,2.1-11.5,4.1-17.5,5.7c-0.2,0.1-0.4,0.1-0.5,0.1c-0.5,0.2-0.9,0.2-1.3,0.1l-0.5,0.2
		c0,0,0.2,5.9-0.1,7.4C248.4,183.6,246.3,185.5,245.9,188.3z"/>
	<path class="st3" d="M258.5,213.4c-1.4,4.6-2.6,9.2-3.3,13.9c0.6-0.1,1.3-0.2,2.2-0.3c0.6,0,1.2-0.4,1.9-0.9
		c2.3-8.7,7-16.5,11.8-24.6c3.5-6,6.3-12.1,8.8-18.5c1.1-2.9,3.1-4.5-2.6-4.9c-3-0.2-6-0.4-9-0.5c4,4.6,7.5,8.1,3.9,14.7
		C268.2,199.4,260.9,205.6,258.5,213.4z"/>
	<path class="st6" d="M257.9,226.9c5.2-1.7,15.9-23.1,20.6-24.7c4.9-1.6,14.6-6.8,17.6-10.7c2.9-3.8,2.7-6.9,5-11
		c2.3-4.2,4.7-4.1,7.9-7.8c3.3-3.8-3.2-17.1-3.2-17.1c0-0.7-16.1,5.1-28.6,14c-2.6,2.6-0.3,9.4-0.3,10.1c0.5,8.5-1.3,13-8.6,22.4
		C262.4,209.6,259.5,218,257.9,226.9z"/>
	<path class="st1" d="M257.9,226.9c2.3-0.8,5.7-5.4,9.2-10.5c-2.6-8.7,4.7-16.9,10.9-24.1c1.9-5.5,3.5-11.1,6.5-16.2
		c-0.1,0-0.2-0.1-0.2-0.2c-0.6-0.4-1.2-0.8-1.9-1.2c-1.9-0.5-4.2,0.3-6.3,0.7c0.3,2,0.8,3.8,0.8,4.1c0.5,8.5-1.3,13-8.6,22.4
		C262.4,209.6,259.5,218,257.9,226.9z"/>
	<path class="st6" d="M231.1,254.3c3.3-2.1,5-15.2,7.6-24.5c2.2-8.2,15.6-19.7,15.9-28.1l-0.5,0.4c-6.3-4.6-13.3,0.5-18.8,2.3
		c-7.4,2.5-15.4,0.3-22.4-0.9c-0.5,4.9,0.9,12,1.5,17.3c0.6,5.9,3.2,30.7,3.4,36.4C222.7,258.7,226.4,257.3,231.1,254.3z"/>
	<path class="st1" d="M232.1,222.5c3.8-8.4,14.5-11.1,21.6-17c0.5-1.2,0.8-2.3,0.9-3.4c-6.3,4.9-14.8,8.3-23,9.1
		c0,0.2,0,0.4-0.1,0.6c-5,14.9-6.2,30.2-6.6,45.6c1.5-0.4,3.1-1.1,4.7-2.1c0-6.8,0.5-13.5,0.9-20.3
		C230.7,231.1,230.4,226.2,232.1,222.5z"/>
	<path class="st7" d="M226.4,256.8c0.1-17.6,3.2-37.4,9.8-54.1c-7,1.8-16.8,1.9-23.3,0.8c-0.5,4.9,0.9,12,1.5,17.3
		c0.6,5.9,3.2,30.7,3.4,36.4C221,258.2,223.7,257.9,226.4,256.8z"/>
	<path class="st3" d="M224.6,257.4c0.6-0.2,1.2-0.4,1.9-0.6c0.1-14.2,2.2-29.9,6.5-44.2c-3.2,0.3-6.5,0-9.2-1c4.7,6,4.3,11.9,3,18.8
		C224.9,239.4,224.8,248.4,224.6,257.4z"/>
	<path class="st4" d="M41.4,193.3c0.6,6.1,5,14.4,7.9,20.2c2.8,5.5,5.6,11.1,8.8,19.4c0.7,0,2.2,0.6,2.9,0.6
		c-0.1-7.2,0.2-13.1-1.2-20.2c-3-15.3-4.7-20.9-6.8-28.5C49.5,186.9,45.5,191.9,41.4,193.3z"/>
	<path class="st8" d="M53.4,185.8c-0.1-0.3-0.2-0.7-0.3-1c-3.7,2.1-7.6,7.1-11.7,8.6c0.6,6.1,5,14.4,7.9,20.2
		c2.8,5.5,5.6,11.1,8.8,19.4c0.2,0,0.4,0,0.7,0.1c-2.3-8.4-4.3-16.8-7-25.2c-1-3.2-2.8-7.3-1.9-10.7C51,193.3,53.1,189.8,53.4,185.8
		z"/>
	<path class="st6" d="M25.4,188.4c6.1,7.3,13.3,14.3,17.2,22.5c3.2,6.7,7.2,19.9,15.6,22c-3.2-11.4-9.7-26.5-12.3-34.9
		C44.4,193.5,35.1,179.8,25.4,188.4z"/>
	<path class="st9" d="M25.4,188.4c0.1,0.2,0.3,0.3,0.4,0.5c0.4,0,0.8,0,1.2,0.2c13.2,5,18.3,11.5,22.2,23.3c2,6,4.7,11.5,7.8,17.2
		c0.2,0.4,0.4,0.8,0.6,1.3c-3.4-11.1-9.2-24.8-11.7-32.8C44.4,193.5,35.1,179.8,25.4,188.4z"/>
	<path class="st6" d="M144.9,268.9c-0.4-11.3,4.8-24.4,7.5-34.9c-6.7,0.2-7.8-7.2-9.8-12c-1.9-4.6-3.2-10.6-4.9-14.6l-0.8-0.3
		c2,5.3,2.1,11.6,3.9,17.2c0.8,2.4,1.5,4.9,2.6,7.2c0.4,0.8,0.8,1.9,1.5,2.6c0.8,0.8,2.6,0.9,3,1.7c0.7,1.3-1.2,4.9-1.7,6.4
		c-0.9,2.9-1.4,4.9-1.4,8c0,3.4,0.2,6.9,0,10.3C144.8,263.1,143.7,266.5,144.9,268.9z"/>
	<path class="st4" d="M79.5,187.7c-0.5-2.2-1.1-13-1.8-15.1c-2-1.1-5.7-0.9-7.9-1.6c-1.4-0.4-6.4-1-5.7-0.3l-0.4-0.3
		c0.8,2.1,0,15.4,0,17.6c1.6-0.3,4.4-8.5,6.1-8.4c0.2,4.1,0.9,8.1-0.4,11.6c4.8,2.5,3,6.2,2.6,10.3c-0.5,4.7,3.2,2,2.8,6.7
		c-0.3,3.9-3.9,14.9-3.3,18.8c0,0,3.4,7.9,3.3,10.3c0,0.3,0.1,0.1,0.4-0.5c-3.1-10.3,0.6-20.4,4.1-30.4c-0.1-2-0.1-4,0-6.1
		c0.1-1.4,0.1-2.9,0.2-4.3C78.5,190.9,79.7,192.9,79.5,187.7z"/>
	<path class="st10" d="M252.3,108c-16.2-15.3-37.7-15.6-51-25.8c-6.6-5.1-36.4-17.8-44.3-22.4c-18.1,9.5-31.4,9.4-39.2,18.6
		c-7.8,9.1-23.4,10.2-34.3,15.7c0.6,1.3,2,4.4,2.7,5.8c-13.8-2.1-31,10.7-44.3,18.5C30.2,125.2,10,135,10,135
		c15.2,14.5,28.3,17.1,43.7,19.1c1.1,2.5-3,6.5-0.9,10.6c6.5,12.8,55.1,18.4,66.6,29.9c2.8,2.8,17.3-3.6,17.3-3.6
		c0,2.3-6.1,5.5-6.1,5.5c14.3,7.2,21.1,14.5,27.2,13.7c6-0.8,22.4-9.4,27.7-12.3c10.4-5.7,13.7-11.6,24.8-15.3
		c13.6-4.5,20.8-4.7,30.7-15.4c-5.6-0.5-10.6-1.6-16.4-1.5c14.1-5.7,30.8-1.7,45-9.1c11.2-5.9,22.6-18.8,35.4-21
		c-4.4-4.1-15.7-11.6-43.8-23.5l-17.6,2.7C245.7,113.4,250.6,109.8,252.3,108z"/>
	<path class="st11" d="M87,179.2c-3.1-0.4-6.1-0.8-9.2-1.3c-0.3,0-0.7,0-1,0c3.9,1.3,8.1,2.5,12.2,3.8c-0.2-0.1-0.4-0.2-0.7-0.3
		C87.4,180.7,87,180,87,179.2z"/>
	<path class="st12" d="M193.5,190.4c-5.2,4.5-28.8,16.4-35.9,17.5c-5.3,0.9-7.2-4.5-21.1-10.7c-3.3-1.4,3.9-7.2,4.4-8.6
		c-5,0.6-9.7,2-14.6,3.7c-2,0.7-6.5,0.6-8-0.6c-11.9-10.3-43.7-16-52.2-19.1c-4.7-1.8-11.6-5.5-12.2-10.2c-0.4-2.8,1.4-5.2,2.3-7.8
		c1.4-3.9-6-3.1-8.2-3.5c-8.2-1.5-29.9-7.7-38-16.1l0,0c15.2,14.5,28.3,17.1,43.7,19.1c1.1,2.5-3,6.5-0.9,10.6
		c6.5,12.8,55.1,18.4,66.6,29.9c2.8,2.8,17.3-3.6,17.3-3.6c0,2.3-6.1,5.5-6.1,5.5c14.3,7.2,21.1,14.5,27.2,13.7
		c6-0.8,22.4-9.4,27.7-12.3c10.4-5.7,13.7-11.6,24.8-15.3c13.6-4.5,20.8-4.7,30.7-15.4c-5.6-0.5-10.6-1.6-16.4-1.5
		c14.1-5.7,30.8-1.7,45-9.1c9-4.7,18.1-13.9,27.9-18.5c-7,1.4-13.3,6.9-19.1,10.5c-8.3,5.2-14.9,9.7-25.2,10.9
		c-6.5,0.8-24.3,2.6-27.3,4.2c-2.7,1.5-5.2,2.7-2.1,2.9c7.8,0.6,14.1,2,14.1,2c-13.8,10.7-28.7,10.1-32.8,12.4
		C200.5,183.5,197.3,187.1,193.5,190.4z"/>
	<path class="st2" d="M282.4,196.2c5.1-8.8,10.3-17.5,12.5-27.3c-5,1.1-12.5-0.8-17.7,0c-1.7,1.7,8.2,3.4,9,5.3c0,0-0.6,4.2-0.8,5.6
		C284.4,185.3,283.4,190.8,282.4,196.2z"/>
	<path class="st13" d="M235.8,213c3.9-1.4,16.9-7.1,18.6-10.4c2.3-4.7-15.9-6.6-20.2-5.2c0,0-6,2.9-8.9,4c-3.5,1.3-8.5,2.9-12.4,2.1
		c0.3,0.8,1.1,2.4,2,3.3C219.2,211.2,229.8,215.1,235.8,213z"/>
	<path class="st14" d="M235.8,213c3.4-1.2,13.6-5.6,17.3-8.9c-11.2,7.5-29.8,9.7-38.9-0.4c-0.4,0-0.9-0.1-1.3-0.2
		c0.3,0.8,1.1,2.4,2,3.3C219.2,211.2,229.8,215.1,235.8,213z"/>
	<path class="st10" d="M30,190.2c5.7,1.2,11.1,4.9,15.8,7.9c3.2-3.6,7.3-7.9,7.3-13.2c-4.1-1.5-8.9-3.6-11.4-6.7
		C32.8,181.5,17.3,188.6,30,190.2z"/>
	<path class="st12" d="M43.8,195c-2.7-2.1-9.6-4.8-15.5-5.9c-3-0.6-2.6-1.6-2.8-2c-0.7,1.4,0.4,2.5,4.6,3.1
		c5.7,1.2,11.1,4.9,15.8,7.9c3.1-3.5,7.1-7.7,7.2-12.9c-1.3,3.4-2.2,4.4-4.1,7.4C48.1,193.9,45.1,196.1,43.8,195z"/>
	<path class="st4" d="M108.4,205.3c-2.3,2.1-3.6,3.9-5,6.6c-3.4,6.6-5.1,11.4-3.2,18.9c2.3,9,5.9,17.7,9.3,26.4
		c2.3,6,5.7,17.3,12,21.1c2.5-2,5.7-4.1,7.9-6.4c-4-10.1-6.2-23-7.4-34.1c-1.3-11.3-3.4-23-4.4-34.1
		C114.7,202.6,110.1,203.7,108.4,205.3z"/>
	<path class="st8" d="M117.6,205c0-0.5-0.1-0.9-0.2-1.4c-2.8-1-7.4,0-9.1,1.6c-2.3,2.1-3.6,3.9-5,6.6c-3.4,6.6-5.1,11.4-3.2,18.9
		c2.3,9,5.9,17.7,9.3,26.4c2.3,6,5.7,17.3,12,21.1c2.1-1.7,4.7-3.5,6.8-5.4c-8.1-5.4-8.6-15.4-12.2-24.2c-3-7.3-5.4-14.5-5.3-22.3
		c0.1-7.5,4-13.1,6.3-20.1C117.2,205.8,117.4,205.4,117.6,205z"/>
	<path class="st6" d="M103.2,209.3c-3.6-1.9-9.3-2.8-13.3-5.1c-3.5-2-20-8.4-24.2-8c0.7,10.9,12.3,24.3,17.5,35.8
		c5.6,12.5,10,20.6,14,33.5c1.4,4.5,12.2,3.6,17.2,12.3l7.1,0.5c0,0-1.5-8.5-2.6-11.9c-1.4-4.3-9.2-29.8-11.2-38.1
		C106.3,222.9,108.8,212.3,103.2,209.3z"/>
	<path class="st9" d="M106.3,213.3c-3,0.8-6.2,0.9-9.4,0.8c9.7,7.8,11.9,21.7,14.1,32.6c2.2,10.9,7,20.9,9.8,31.5h0.7
		c0,0-1.5-8.5-2.6-11.9c-1.4-4.3-9.2-29.8-11.2-38.1C106.7,224.4,107.7,217.8,106.3,213.3z"/>
	<path class="st10" d="M66.7,193.8c-4.5,3.6,7.2,15.8,13.9,18.7c7,3.1,16.4,3.7,24.1,2.9c7-0.7,13.1-12.2,13.1-12.2
		c-4.1-2.4-13.1-3.4-19.5-7.1c-8.3-4.8-18.6-9.8-18.6-9.8C75.1,190.1,71.1,190.3,66.7,193.8z"/>
	<path class="st12" d="M66.7,193.8c-4.5,3.6,7.2,15.8,13.9,18.7c7,3.1,16.4,3.7,24.1,2.9c5.5-0.5,10.5-7.9,12.4-10.9
		c-9.3,9.9-17.7,11.2-35,5.8c-5.2-1.6-17.1-8.4-14.1-17.4C67.5,193.1,67.1,193.4,66.7,193.8z"/>
	<path class="st15" d="M175.1,192.6c0-0.1,0-0.2,0-0.2l-0.7,0.6C174.6,193,174.9,192.8,175.1,192.6z"/>
</g>
<g>
	<g>
		<path class="st16" d="M123.3,17.6C123.2,12,121.2,8,118,6.2h-0.1h-0.1h-0.1h-0.1h-0.1h-0.1h-0.1h-0.1h-0.1H117h-0.1h-0.1h-0.1
			h-0.1h-0.1h-0.1h-0.1h-0.1h-0.1H116h-0.1h-0.1h-0.1h-0.1h-0.1h-0.1h-0.1h-0.1h-0.1H115h-0.1h-0.1h-0.1h-0.1h-0.1h-0.1h-0.1h-0.1
			h-0.1H114h-0.1h-0.1h-0.1h-0.1h-0.1h-0.1h-0.1h-0.1h-0.1H113h-0.1h-0.1h-0.1h-0.1h-0.1h-0.1h-0.1h-0.1h-0.1H112h-0.1h-0.1h-0.1
			h-0.1h-0.1h-0.1h-0.1h-0.1h-0.1H111h-0.1h-0.1h-0.1h-0.1h-0.1h-0.1h-0.1h-0.1h-0.1H110c-3.2-1.8-7.6-1.6-12.5,1.3L94.9,9
			c-8.7,1.8-16.4,15.6-16.3,26.8l0.8,90c0.1,5.6,2.1,9.6,5.3,11.4h0.1h0.1H85h0.1h0.1h0.1h0.1h0.1h0.1h0.1h0.1h0.1H86h0.1h0.1h0.1
			h0.1h0.1h0.1h0.1h0.1h0.1H87h0.1h0.1h0.1h0.1h0.1h0.1h0.1h0.1h0.1H88h0.1h0.1h0.1h0.1h0.1h0.1h0.1h0.1h0.1H89h0.1h0.1h0.1h0.1h0.1
			h0.1h0.1h0.1h0.1H90h0.1h0.1h0.1h0.1h0.1h0.1h0.1h0.1h0.1H91h0.1h0.1h0.1h0.1h0.1h0.1h0.1h0.1h0.1H92h0.1h0.1h0.1h0.1h0.1h0.1h0.1
			c3.2,1.8,7.6,1.6,12.5-1.3l2.6-1.5c9.7-5.7,17.4-19.4,17.3-30.7L123.3,17.6z"/>
		<path class="st17" d="M104.1,139.8c-9.7,5.7-17.6,1.2-17.7-10l-0.8-90c-0.1-11.2,7.7-25,17.3-30.7l2.6-1.5
			c9.7-5.7,17.6-1.2,17.7,10l0.8,90c0.1,11.2-7.7,25-17.3,30.7L104.1,139.8z"/>
		<path class="st18" d="M106.7,134.8l-2.6,1.5c-8,4.7-14.6,1-14.7-8.3l-0.8-90C88.5,28.7,95,17.4,103,12.6l2.6-1.5
			c8-4.7,14.6-1,14.7,8.3l0.8,90C121.2,118.7,114.7,130.1,106.7,134.8z"/>
		<path class="st19" d="M111.4,116.6c0,4-2.8,9-6.2,11c-3.5,2-6.3,0.4-6.4-3.6c0-4,2.8-9,6.2-11C108.5,111,111.4,112.6,111.4,116.6z
			"/>
		<g>
			<polygon class="st19" points="114,24.9 108.3,28.2 108.2,27.4 114,24 			"/>
			<polygon class="st19" points="117.2,26.6 108.3,31.8 108.3,31 117.2,25.7 			"/>
			<polygon class="st19" points="114,32.1 108.3,35.5 108.3,34.6 114,31.2 			"/>
			<polygon class="st19" points="114.1,35.7 108.4,39.1 108.3,38.2 114.1,34.9 			"/>
			<polygon class="st19" points="117.3,37.5 108.4,42.7 108.4,41.8 117.3,36.6 			"/>
			<polygon class="st19" points="114.1,43 108.4,46.3 108.4,45.5 114.1,42.1 			"/>
			<polygon class="st19" points="114.2,46.6 108.5,49.9 108.4,49.1 114.2,45.7 			"/>
			<polygon class="st19" points="117.4,48.3 108.5,53.6 108.5,52.7 117.4,47.4 			"/>
			<polygon class="st19" points="114.2,53.8 108.5,57.2 108.5,56.3 114.2,52.9 			"/>
			<polygon class="st19" points="114.3,57.4 108.6,60.8 108.5,59.9 114.3,56.6 			"/>
			<polygon class="st19" points="117.5,59.2 108.6,64.4 108.6,63.5 117.5,58.3 			"/>
			<polygon class="st19" points="114.3,64.7 108.6,68 108.6,67.2 114.3,63.8 			"/>
			<polygon class="st19" points="114.4,68.3 108.7,71.6 108.6,70.8 114.4,67.4 			"/>
			<polygon class="st19" points="117.6,70 108.7,75.3 108.7,74.4 117.6,69.1 			"/>
			<polygon class="st19" points="114.4,75.5 108.7,78.9 108.7,78 114.4,74.6 			"/>
			<polygon class="st19" points="114.5,79.1 108.7,82.5 108.7,81.6 114.5,78.3 			"/>
			<polygon class="st19" points="117.7,80.8 108.8,86.1 108.8,85.3 117.7,80 			"/>
			<polygon class="st19" points="114.5,86.4 108.8,89.7 108.8,88.9 114.5,85.5 			"/>
			<polygon class="st19" points="114.6,90 108.8,93.4 108.8,92.5 114.6,89.1 			"/>
			<polygon class="st19" points="117.9,91.7 108.9,97 108.9,96.1 117.9,90.8 			"/>
			<polygon class="st19" points="114.6,97.2 108.9,100.6 108.9,99.7 114.6,96.4 			"/>
			<polygon class="st19" points="114.7,100.8 108.9,104.2 108.9,103.3 114.7,100 			"/>
			<polygon class="st19" points="118,102.5 109,107.8 109,107 118,101.6 			"/>
		</g>
		<g>
			<path class="st16" d="M115.8,120.3c0,4.9-3.9,9-8.9,9c-4.9,0-9-3.9-9-8.9c0-4.9,3.9-9,8.9-9C111.7,111.4,115.8,115.4,115.8,120.3
				z"/>
			<path class="st20" d="M113.3,119.3c0,4.2-3.3,7.6-7.5,7.6s-7.6-3.3-7.6-7.5s3.3-7.6,7.5-7.6S113.3,115.1,113.3,119.3z"/>
			<path class="st21" d="M109.5,117.4c0,2.5-2,4.6-4.6,4.6s-4.6-2-4.6-4.6c0-2.5,2-4.6,4.6-4.6C107.4,112.8,109.5,114.9,109.5,117.4
				z"/>
		</g>
		<g>
			<g>
				<g>
					<g>
						
							<rect x="103.3" y="60.2" transform="matrix(1 -9.112448e-03 9.112448e-03 1 -0.7911 0.9723)" class="st22" width="6" height="54.2"/>
					</g>
					<g>
						<path class="st22" d="M108.7,113.1c1.2,0.7,1.2,1.8,0,2.5s-3.1,0.7-4.3,0c-1.2-0.7-1.2-1.8,0-2.5
							C105.6,112.4,107.5,112.4,108.7,113.1z"/>
					</g>
					<g>
						<g>
							<g>
								<g>
									<defs>
										<path id="SVGID_1_" d="M109.6,114.3l-0.5-54.1l-6,0.1l0.5,54.1c0,0.5,0.3,0.9,0.9,1.3c1.2,0.7,3.1,0.7,4.3,0
											C109.3,115.2,109.6,114.7,109.6,114.3z"/>
									</defs>
									<clipPath id="SVGID_2_">
										<use xlink:href="#SVGID_1_"  style="overflow:visible;"/>
									</clipPath>
									<g class="st23">
										
											<rect x="103.9" y="59.9" transform="matrix(1 -9.126279e-03 9.126279e-03 1 -0.8047 0.9606)" class="st24" width="1.9" height="57.5"/>
									</g>
								</g>
							</g>
						</g>
					</g>
				</g>
				<g>
					<path class="st25" d="M108.2,59c1.2,0.7,1.2,1.8,0,2.5s-3.1,0.7-4.3,0c-1.2-0.7-1.2-1.8,0-2.5C105.1,58.3,107,58.3,108.2,59z"
						/>
				</g>
			</g>
			<g>
				<g>
					<g>
						
							<rect x="103" y="24.5" transform="matrix(1 -9.112660e-03 9.112660e-03 1 -0.4658 0.9681)" class="st26" width="6" height="54.2"/>
					</g>
					<g>
						<path class="st26" d="M108.4,77.4c1.2,0.7,1.2,1.8,0,2.5s-3.1,0.7-4.3,0c-1.2-0.7-1.2-1.8,0-2.5
							C105.3,76.7,107.2,76.7,108.4,77.4z"/>
					</g>
					<g>
						<g>
							<g>
								<g>
									<defs>
										<path id="SVGID_3_" d="M109.3,78.6l-0.5-54.1l-6,0.1l0.5,54.1c0,0.5,0.3,0.9,0.9,1.3c1.2,0.7,3.1,0.7,4.3,0
											C109,79.5,109.3,79.1,109.3,78.6z"/>
									</defs>
									<clipPath id="SVGID_4_">
										<use xlink:href="#SVGID_3_"  style="overflow:visible;"/>
									</clipPath>
									<g class="st27">
										
											<rect x="103.6" y="24.2" transform="matrix(1 -9.126279e-03 9.126279e-03 1 -0.4789 0.9564)" class="st28" width="1.9" height="57.5"/>
									</g>
								</g>
							</g>
						</g>
					</g>
				</g>
				<g>
					<path class="st25" d="M107.9,23.3c1.2,0.7,1.2,1.8,0,2.5s-3.1,0.7-4.3,0c-1.2-0.7-1.2-1.8,0-2.5
						C104.8,22.7,106.7,22.6,107.9,23.3z"/>
				</g>
			</g>
		</g>
	</g>
	<g>
		<g>
			<path class="st29" d="M162.7,131.4c0,0-0.6,1.5-2.6,3.2s-2.7,2.4-2.9,4s-0.3,2.1,0.8,2.7c1.1,0.6,2.6,0.7,4.1,0.2
				c1.4-0.6,3.4-1.8,4.5-3.3s1.6-2.2,1.6-2.2l0.1,0.5c0,0,1.8-1.6,2.1-2.2c0.3-0.5,0.3-2.9,0.3-2.9H162.7z"/>
			<path class="st29" d="M155.1,125.1c0,0-1.5,1.3-3.4,2.6c-1.9,1.3-2.9,2.1-2.9,3.5s-0.1,2.5,1.2,2.9s2.5,0.1,3.6-0.6
				s3.9-2.7,5.5-4.7c0,0-0.1,0.5,0,0.5s3-2.3,3.5-3s0.4-3.7,0.4-3.7S155.4,124.6,155.1,125.1z"/>
			<g>
				<g>
					<g>
						<defs>
							<path id="SVGID_5_" d="M155.1,125c0,0-1.5,1.3-3.4,2.6s-2.9,2.1-2.9,3.5c0,1.4-0.1,2.5,1.2,2.9s2.5,0.1,3.6-0.6
								c1.1-0.7,3.9-2.7,5.5-4.7c0,0-0.1,0.5,0,0.5s3-2.3,3.5-3s0.4-3.7,0.4-3.7S155.5,124.5,155.1,125z"/>
						</defs>
						<clipPath id="SVGID_6_">
							<use xlink:href="#SVGID_5_"  style="overflow:visible;"/>
						</clipPath>
						<path class="st30" d="M148.6,129.9c0,0-0.6,2.4,1.2,3.2c1.7,0.8,2.7,0.4,3.8-0.2c1.1-0.6,1.8-1.1,3.5-2.5s6-5.8,6-5.8
							s0.7,3.2,0.7,3.3c0,0.1-8.4,7.2-8.7,7.3c-0.2,0.1-7,1.3-7.1,1.2c-0.1-0.2-0.7-2.5-0.4-3.3
							C147.8,132.2,148.6,129.9,148.6,129.9z"/>
					</g>
				</g>
			</g>
			<path class="st31" d="M151.1,81.7c0,0.3-0.6,10.4-0.5,15.2c0.1,4.9,0.9,10.8,1.7,15.5s2.3,7.6,2.1,12.8c0,0,2.2,1.3,4.7,1
				c2.6-0.3,5.2-2.9,5.2-2.9V108l-1-25.7L151.1,81.7z"/>
			<path class="st32" d="M155.8,85.8c0,0,2,1.7,2.4,4.1c0.5,2.4,1.4,8.5,1.5,11.7s1.5,6.5,2.3,10.6c0.7,4.1-0.1,18.8-0.1,18.8
				s0.9,2.1,3.8,2.5c2.9,0.4,4.9-0.5,6.1-2c0,0,0.9-10.5,0.4-15.3s-1.1-5.8-1-8.3s0.4-15.7,0.3-19.2c0-3.5,0.2-5.1-0.1-6
				C171.1,81.8,155.8,85.8,155.8,85.8z"/>
			<path class="st33" d="M151.4,50.4c0,0-1.9,0.4-2.8,2.7c-0.9,2.3-2.2,12.8-3.1,15.1c-0.9,2.3-6.5,10.2-6.5,10.2s1.5,2.2,4.2,2.8
				c0,0,6.1-8,7.4-10.7c1.3-2.7,3.8-13.3,3.8-13.3L151.4,50.4z"/>
			<path class="st34" d="M164.1,52.7c0,0,2.9,1.1,4.5,1.7s2.7,2.1,3,4.4s-1.5,8.6-1.6,12.1s1.5,12.7,1.5,12.7s-2.8,5.3-8.7,5
				s-9-2.2-11.6-6.4c0,0,0.8-5,0-9.8s-1.7-7.9-1.7-10.5c0-2.7,0.3-4.4,0.4-6.1c0.1-1.7-0.1-3.5,1.1-4.8c1.2-1.2,2.3-1.5,3.9-1.9
				C156.4,48.8,164.1,52.7,164.1,52.7z"/>
			<g>
				<g>
					<path id="SVGID_7_" class="st35" d="M162.2,49.1c0,0-0.1,0.9,0.5,2s1.7,1.6,1.7,1.6s-1.7,3.8-4.2,4.6c-2.5,0.9-4.1,0.3-4.8-1.6
						c-0.7-2,1.9-5.4,2-5.4C157.5,50.3,162.2,49.1,162.2,49.1z"/>
				</g>
				<g>
					<g>
						<defs>
							<path id="SVGID_8_" d="M162.2,49.1c0,0-0.1,0.9,0.5,2s1.7,1.6,1.7,1.6s-1.7,3.8-4.2,4.6c-2.5,0.9-4.1,0.3-4.8-1.6
								c-0.7-2,1.9-5.4,2-5.4C157.5,50.3,162.2,49.1,162.2,49.1z"/>
						</defs>
						<clipPath id="SVGID_9_">
							<use xlink:href="#SVGID_8_"  style="overflow:visible;"/>
						</clipPath>
						<path class="st36" d="M160.5,51.3c0,0-0.2,2-0.7,2.9c-0.6,1-1.9,2.9-3.6,3.7c-1.7,0.9-2-2.4-1.8-2.7
							C154.5,55.1,160.5,51.3,160.5,51.3z"/>
					</g>
				</g>
			</g>
			<path class="st37" d="M153.8,69.6c0.1-8.2-0.2-13.3-0.1-15.3l-0.2-4.2c0,0-1.6,0-2.8,0.8c-1.1,0.8-1.5,6.2-1.7,8.7
				s1.1,10.5,1.1,14.4s-1.5,18-1.5,18s2.4,3.1,6.3,4.4C155,96.3,153.6,77.8,153.8,69.6z"/>
			<path class="st38" d="M150.8,49.2c0,0,0-2.6,0.2-3.7c0.2-1,2.1-4.7,4.5-5.6c2.3-0.9,4.8-0.1,5.5,1.7c0.7,1.9,1.3,4,1.2,5.1
				c0,1.2-1.2,3-1.5,4.1s-0.6,2.6-1.3,3.3s-3.2,2.4-4.2,2.6c-1,0.1-1.5-0.5-1.7-1s-0.3-1.2-0.6-1.4s-0.7-0.3-0.7-0.7
				c0-0.5,0.1-0.9,0.1-1.2c-0.1-0.3-0.5-1.5-0.8-2.1C151.1,49.9,150.8,49.3,150.8,49.2z"/>
			<path class="st39" d="M160.6,49.1c0,0,0.2-1.3,1.3-0.9c1.1,0.3,1,1.6,0.4,2.5s-1.2,0.9-1.5,0.9c-0.3-0.1-0.3-0.1-0.3-0.8
				S160.7,50.1,160.6,49.1z"/>
			<path class="st40" d="M150.6,45.2c0,0-0.2,1.5,0.9,2.3c1.1,0.7,2.1,0.8,3,0.5s1.1-0.8,1.5-0.7c0.3,0.1,0.9,0.5,1,1
				s-0.4,0.6-0.2,1.1c0.1,0.4,0.7,0.4,1.2,0.5s0.4,0.4,0.6,0.6c0.2,0.2,0.9,0.2,1.2,0c0.3-0.3,0.3-1,0.7-1.5s0.6-0.7,1.1-0.7
				s0.7,1.1,0.7,1.1s0.2,0.7,0.4-1.4c0.2-2.2-0.3-5.1-0.7-6.1s-1.3-2.3-3-2.7s-3.9-0.1-5.7,1.3C151.3,41.8,150.5,44.1,150.6,45.2z"
				/>
			<g>
				<g>
					<g>
						<defs>
							<path id="SVGID_10_" d="M162.7,131.4c0,0-0.6,1.5-2.6,3.2s-2.7,2.4-2.9,4s-0.3,2.1,0.8,2.7c1.1,0.6,2.6,0.7,4.1,0.2
								c1.4-0.6,3.4-1.8,4.5-3.3s1.6-2.2,1.6-2.2l0.1,0.5c0,0,1.8-1.6,2.1-2.2c0.3-0.5,0.3-2.9,0.3-2.9H162.7z"/>
						</defs>
						<clipPath id="SVGID_11_">
							<use xlink:href="#SVGID_10_"  style="overflow:visible;"/>
						</clipPath>
						<path class="st41" d="M157.1,138.3c0,0-0.3,2.3,1.5,2.8c1.8,0.4,3.6,0.1,4.8-0.6c1.2-0.8,2.4-1.4,3.4-3.1c1.1-1.6,4.4-5,4.4-5
							l-0.4,2.6c0,0-3.8,6.4-3.9,6.7c-0.1,0.2-8.1,3.6-8.2,3.6c-0.1,0-3.7-1.8-3.7-2.7c-0.1-0.9,0-1.9,0.2-2.1
							C155.3,140.2,157.1,138.3,157.1,138.3z"/>
					</g>
				</g>
			</g>
		</g>
		<path class="st33" d="M164.4,52.8c0,0,4,1.2,5.3,2.1c1.3,0.9,2,4.2,1.7,7.5c-0.2,3.4-0.4,10.5,0,14.6s1.3,20.7,1.3,20.7
			s-0.9,1.7-4,2.2c-3,0.5-8.4,0-10.7-1.7c0,0,0.3-16.9,0-23.4c-0.3-6.4,0.3-13.7,1.1-15.1C160,58.6,163,55.5,164.4,52.8z"/>
		<g>
			<path class="st38" d="M150.9,91.9c-0.3,0.1-1.6-0.1-2.1-0.2c-0.5-0.2-0.9,0.4-1.1,0.6c-0.1,0.3,0,2,0.3,2.2
				c0.4,0.3,3.2,0.6,4.5,0.2c0.6-0.2,1.4-0.5,2.1-0.8L153,92C152.5,92.1,151.2,91.9,150.9,91.9z"/>
			<path class="st38" d="M136.9,83.9c0,0.9-1.6,3.6-0.1,3.8c1.4,0.3,3.7-1.1,3.5-1.9s-0.7-1.4-0.8-1.8c0-0.2,0.1-0.4,0.2-0.5
				l-1.4-2.6C137.6,81.6,137,83.2,136.9,83.9z"/>
			<g>
				<polygon class="st42" points="146.5,80.5 159.7,87.9 142.5,98 129.3,90.6 				"/>
				<g>
					<polygon class="st43" points="146.5,79.9 159.7,87.3 142.5,97.5 129.3,90 					"/>
					<polygon class="st44" points="146.3,81 157.8,87.5 142.4,96.5 131,90 					"/>
					<path class="st45" d="M139,91.6l4.7,2.6c0.1,0.1,0.1,0.1,0,0.2l0,0c-0.1,0.1-0.3,0.1-0.4,0l-4.7-2.6c-0.1-0.1-0.1-0.1,0-0.2
						l0,0C138.7,91.5,138.9,91.5,139,91.6z"/>
					<path class="st45" d="M142.6,92.7l1.8,1c0.1,0.1,0.1,0.1,0,0.2l0,0c-0.1,0.1-0.3,0.1-0.4,0l-1.8-1c-0.1-0.1-0.1-0.1,0-0.2l0,0
						C142.3,92.6,142.5,92.6,142.6,92.7z"/>
					<path class="st45" d="M141,91.8l0.9,0.5c0.1,0.1,0.1,0.1,0,0.2l0,0c-0.1,0.1-0.3,0.1-0.4,0l-0.9-0.5c-0.1-0.1-0.1-0.1,0-0.2
						l0,0C140.7,91.7,140.9,91.7,141,91.8z"/>
					<path class="st45" d="M146.5,92l0.4,0.2c0.1,0.1,0.1,0.1,0,0.2l0,0c-0.1,0.1-0.3,0.1-0.4,0l-0.4-0.2c-0.1-0.1-0.1-0.1,0-0.2
						l0,0C146.3,91.9,146.4,91.9,146.5,92z"/>
					<path class="st45" d="M143.2,90.1l2.6,1.5c0.1,0.1,0.1,0.1,0,0.2l0,0c-0.1,0.1-0.3,0.1-0.4,0l-2.6-1.5c-0.1-0.1-0.1-0.1,0-0.2
						l0,0C143,90,143.1,90,143.2,90.1z"/>
					<path class="st45" d="M141.7,89.2l0.8,0.5c0.1,0.1,0.1,0.1,0,0.2l0,0c-0.1,0.1-0.3,0.1-0.4,0l-0.8-0.5c-0.1-0.1-0.1-0.1,0-0.2
						l0,0C141.5,89.2,141.6,89.2,141.7,89.2z"/>
					<path class="st45" d="M137.9,90l2.3,1.3c0.1,0.1,0.1,0.1,0,0.2l0,0c-0.1,0.1-0.3,0.1-0.4,0l-2.3-1.3c-0.1-0.1-0.1-0.1,0-0.2
						l0,0C137.6,90,137.8,90,137.9,90z"/>
				</g>
			</g>
			<path class="st38" d="M158.1,86.7c0,0-1.8,2.6-2.3,2.9s-3.5-0.4-3.8-0.4c-0.4,0-1.1,0.2-1.1,0.2s-0.5,0.7,0.2,1
				c0.6,0.3,2.1,0.3,2.3,0.6c0.2,0.3-0.1,0.8-0.3,1c0,0-0.1,0.1-0.2,0.1l1.7,1.9c0.7-0.3,1.4-0.6,1.6-0.8c0.6-0.4,4.2-4.2,4.2-4.2
				L158.1,86.7z"/>
			<path class="st38" d="M141.7,82.2c-0.1-0.7,0.9-2.6,0.9-2.6l-1.4-2.1c0,0-2,2.5-2.3,2.8c-0.1,0.1-0.3,0.3-0.6,0.6l1.4,2.6
				c0.1-0.1,0.4-0.2,0.6-0.2c0.4,0.1,0.9,1.5,1.7,1.6s1.1-0.6,1.1-0.6S141.8,82.9,141.7,82.2z"/>
		</g>
		<path class="st37" d="M170.5,55.4c0,0,1.6,2.9,1.5,7.6s-2.3,13.3-2.8,14.9c-0.5,1.7-8,12.1-8,12.1l-5-2.4c0,0,5.4-10.3,6.4-13.3
			s1.9-12,3.3-15.3C167.2,55.7,169.7,54.6,170.5,55.4z"/>
		<path class="st33" d="M145,75.5c-0.9-0.6-1.7-1.3-2.5-2c-1.7,2.5-3.4,4.9-3.4,4.9s1.5,2.2,4.2,2.8c0,0,1.7-2.2,3.4-4.6
			C146.1,76.2,145.5,75.9,145,75.5z"/>
	</g>
</g>
<g>
	<g>
		<g>
			<path class="st46" d="M175,143.1c-1.2,0-2.2,0.1-3.1,0.4c-2.6,0.9-3,2-3.3,2.8s-0.4,1.1-2.3,1.3c-2.1,0.2-3.9-0.4-6.3-1.3
				c-1.4-0.5-3-1-4.8-1.5c-5.1-1.3-9.2-1.1-14.5-0.8c-0.7,0-1.2,0.4-1.2,0.8c0.1,0.4,0.7,0.8,1.4,0.7c5.6-0.3,9-0.3,13.3,0.7
				c1.7,0.4,3.2,0.9,4.5,1.4c2.6,0.9,4.9,1.7,8,1.5c3.7-0.3,4.1-1.6,4.5-2.5c0.2-0.7,0.4-1.3,2-1.8c1.3-0.4,4.2-0.1,7.2,0.2
				c2.3,0.3,4.8,0.5,7.3,0.6c0.7,0,1.3-0.3,1.3-0.8c0-0.4-0.5-0.8-1.2-0.8c-2.3,0-4.6-0.3-6.9-0.6
				C178.7,143.3,176.7,143.1,175,143.1z"/>
			<path class="st47" d="M175,142.7c-1.3,0-2.4,0.1-3.4,0.4c-2.8,0.9-3.3,2.2-3.6,3.1c-0.3,0.8-0.3,0.8-1.8,1
				c-1.9,0.2-3.6-0.4-5.9-1.2c-1.4-0.5-3-1-4.9-1.5c-2.5-0.6-4.9-0.9-7.6-1c-1.1,0-2,0.5-2,1.1c-0.1,0.6,0.8,1.2,1.8,1.2
				c2.3,0.1,4.3,0.3,6.3,0.8c1.7,0.4,3.1,0.9,4.5,1.4c2.6,0.9,5.1,1.8,8.4,1.5c4.1-0.4,4.7-1.8,5-2.8c0.2-0.7,0.4-1.1,1.7-1.5
				c1.1-0.4,4.2,0,6.2,0.2c1,0.1,2-0.3,2.2-0.9c0.2-0.6-0.5-1.2-1.5-1.4C178.3,142.9,176.5,142.7,175,142.7z"/>
			<path class="st48" d="M160,147c4.3,2.6,11.2,2.5,9.4-0.7C168.6,148.4,164.4,148.4,160,147z"/>
		</g>
		<g>
			<path class="st46" d="M101.2,175.9c-3.2,0-5.9-0.3-7.9-0.7c-9-1.9-14.9-4.4-18.1-7.7c-2.7-2.7-3.5-6-2.5-10
				c1.5-6.3,14.8-13.9,47-14.3c0.6,0,1,0.3,1.1,0.7c0,0.4-0.4,0.7-1,0.7c-14.1,0.2-25.8,1.8-33.9,4.7c-6.3,2.3-10.3,5.3-11.1,8.4
				c-0.9,3.7-0.2,6.5,2.2,9c3,3,8.5,5.4,17,7.2c3.1,0.7,8.9,1,15.1,0c5-0.8,11.9-3,16.7-8.1c10-10.5,25.1-9.9,25.5-9.9
				c0.6,0,1,0.3,1,0.7s-0.5,0.7-1.1,0.7c0,0-7.2-0.1-12.6,2c-2.8,1.1-7.2,2.9-11.1,7.3C120.8,173.8,109.6,175.9,101.2,175.9z"/>
			<path class="st47" d="M101.1,176.6c-3.2,0-6-0.3-8-0.7c-9-1.9-15-5-18.3-8.3c-2.7-2.8-3.6-6.1-2.6-10.2c0.8-3.4,4.7-6.6,10.8-9
				c7.3-2.9,17.3-4.9,29.8-5.5c0.8,0,1.6,0.5,1.7,1.1s-0.6,1.4-1.4,1.5c-11.9,0.6-21.9,2.3-28.7,5c-5.4,2.2-8.6,4.5-9.3,7.2
				c-0.9,3.6-0.2,6.4,2.1,8.8c2.9,3,8.4,5.3,16.8,7.1c3,0.6,8.7,1,14.9,0c4.9-0.8,11.6-3.1,16.4-8c6.8-6.8,14.3-8.4,17.8-9.3
				c0.7-0.2,1.6,0.1,1.9,0.6c0.3,0.5-0.3,1.5-1.1,1.6c-3.1,0.8-10.5,2.1-16.1,8.5C121.2,174.4,109.6,176.6,101.1,176.6z"/>
			<path class="st48" d="M74.2,163.5c-0.8-2.2-1.5-8.7,5.6-12.5C70.7,154.1,71.7,161.5,74.2,163.5z"/>
			<path class="st48" d="M112,173.3c-3,0.9-11.9,2.7-18.4,0.4C99.5,177,109.7,174.9,112,173.3z"/>
			<path class="st48" d="M125.8,167.5c1.3-1.9,5.7-7,11.2-8.7C131.2,159.7,126.3,165.6,125.8,167.5z"/>
		</g>
		<g>
			<path class="st46" d="M228.8,175.9c3.7,0,6.9-0.3,9.3-0.7c10.5-1.9,17.4-4.4,21.2-7.7c3.1-2.7,4.1-6,3-10
				c-1.8-6.3-17.3-13.9-55-14.3c-0.7,0-1.2,0.3-1.2,0.7s0.5,0.7,1.2,0.7c16.5,0.2,30.2,1.8,39.7,4.7c7.4,2.3,12.1,5.3,13,8.4
				c1,3.7,0.2,6.5-2.6,9c-3.5,3-10,5.4-19.9,7.2c-3.6,0.7-10.4,1-17.7,0c-5.9-0.8-13.9-3-19.5-8.1c-11.9-10.7-24.1-9.2-24.6-9.2
				c-0.7,0-1.2,0.3-1.2,0.7s0.6,0.7,1.2,0.7c0,0,5.8,0.3,9.5,1.3c3.4,0.9,8.4,2.9,13,7.3C205.9,173.8,219,175.9,228.8,175.9z"/>
			<path class="st47" d="M228.8,176.8c3.8,0,7-0.3,9.4-0.7c10.6-1.9,17.6-5.1,21.5-8.5c3.2-2.8,4.2-6.1,3.1-10.2
				c-1-3.4-5.5-6.6-12.7-9c-8.6-2.9-20.4-4.9-35.1-5.5c-0.9,0-1.7,0.5-1.8,1.1s0.6,1.2,1.6,1.2c14,0.6,25.6,2.2,33.6,4.9
				c6.3,2.2,10.2,4.9,11,7.6c1,3.6,0.2,6.4-2.5,8.8c-3.4,3-9.9,5.3-19.7,7.1c-3.5,0.6-10.2,1-17.4,0c-5.8-0.8-13.8-2.9-19.2-8
				c-5.5-5.1-13.1-8.8-19.7-9.3c-0.9-0.1-1.4,0.3-1.6,1c-0.1,0.6,0.1,1.3,1,1.4c5.6,0.4,12.5,3.4,17.4,8.1
				C205.6,174.1,218.9,176.8,228.8,176.8z"/>
			<path class="st48" d="M260.4,163.5c0.9-2.2,1.8-8.7-6.6-12.5C264.5,154.1,263.3,161.5,260.4,163.5z"/>
			<path class="st48" d="M216.1,173.3c3.5,0.9,14,2.7,21.5,0.4C230.8,177,218.9,174.9,216.1,173.3z"/>
			<path class="st48" d="M199.9,167.5c-1.5-1.9-6.6-7-13.2-8.7C193.7,159.7,199.4,165.6,199.9,167.5z"/>
		</g>
		<g>
			<g>
				<path class="st49" d="M142.6,145.9h-24.9v7.1l0,0l0,0c0,1.6,5.6,2.8,12.5,2.8c6.9,0,12.5-1.3,12.5-2.8v-0.8l0,0v-6.3H142.6z"/>
				<g>
					<path class="st50" d="M117.7,152.6L117.7,152.6C117.7,152.7,117.7,152.7,117.7,152.6L117.7,152.6z"/>
					<path class="st50" d="M130.1,155.5c-6.9,0-12.5-1.3-12.5-2.8v0.3l0,0l0,0c0,1.6,5.6,2.8,12.5,2.8c6.9,0,12.5-1.3,12.5-2.8
						c0,0,0-0.2,0-0.3C142.6,154.2,137,155.5,130.1,155.5z"/>
				</g>
				<path class="st51" d="M120.7,154.9c1.1,0.3,2.4,0.5,4,0.7v-7.8l-4-0.5V154.9z"/>
				<path class="st49" d="M124.6,155.2c-1.5-0.2-2.9-0.4-4-0.7v0.3l0,0c0.3,0.1,0.6,0.1,0.8,0.2l0,0c0.3,0.1,0.6,0.1,0.9,0.2l0,0
					c0.3,0.1,0.7,0.1,1,0.2l0,0c0.4,0.1,0.7,0.1,1.1,0.1l0,0v-0.3H124.6z"/>
				<path class="st52" d="M142.6,145.9c0,1.6-5.6,2.8-12.5,2.8c-6.9,0-12.5-1.3-12.5-2.8c0-1.6,5.6-2.8,12.5-2.8
					C137,143.1,142.6,144.4,142.6,145.9z"/>
				<path class="st49" d="M133.2,145.6c0,0.4,0.6,1.4,2.1,1.8c1.9,0.6,3.1,0,3.2-0.4c0.1-0.4-1.6-0.2-3.2-1.1
					C134.5,145.4,133.2,145.1,133.2,145.6z"/>
				<path class="st49" d="M126.9,145.6c0,0.4-0.6,1.4-2.1,1.8c-1.9,0.6-3.1,0-3.2-0.4s1.6-0.2,3.2-1.1
					C125.6,145.4,126.9,145.1,126.9,145.6z"/>
				<path class="st53" d="M134.2,145.3c0,0.5-1.8,0.9-4.1,0.9c-2.2,0-4.1-0.4-4.1-0.9s1.8-0.9,4.1-0.9
					C132.4,144.4,134.2,144.8,134.2,145.3z"/>
				<path class="st49" d="M125.5,145.7c0,0.4-1.6,0.8-3.5,0.8s-3.5-0.4-3.5-0.8c0-0.4,1.6-0.8,3.5-0.8S125.5,145.2,125.5,145.7z"/>
				<path class="st49" d="M134.6,145.7c0,0.4,1.6,0.8,3.5,0.8s3.5-0.4,3.5-0.8c0-0.4-1.6-0.8-3.5-0.8
					C136.2,144.9,134.6,145.2,134.6,145.7z"/>
				<path class="st54" d="M141.6,144.8c0.2,0.2,0.3,0.4,0.3,0.6c0,1.6-5.6,2.8-12.5,2.8c-5.2,0-9.6-0.7-11.5-1.7
					c1.3,1.3,6.2,2.2,12.1,2.2c6.9,0,12.5-1.3,12.5-2.8C142.6,145.5,142.3,145.2,141.6,144.8z"/>
				<path class="st49" d="M134,141.3h-7.7v3.9l0,0l0,0c0,0.5,1.7,0.9,3.8,0.9s3.8-0.4,3.8-0.9l0,0l0,0L134,141.3L134,141.3z"/>
				<path class="st51" d="M127.4,145.8c0.6,0.1,1.4,0.2,2.3,0.2v-4.8h-2.3C127.4,141.2,127.4,145.8,127.4,145.8z"/>
				<path class="st52" d="M134,141.3c0,0.5-1.7,0.9-3.8,0.9s-3.8-0.4-3.8-0.9s1.7-0.9,3.8-0.9C132.3,140.4,134,140.8,134,141.3z"/>
				<path class="st54" d="M133.4,140.8c0.1,0.1,0.2,0.2,0.2,0.3c0,0.5-1.7,0.9-3.8,0.9c-1.4,0-2.6-0.2-3.3-0.4
					c0.5,0.4,1.9,0.6,3.7,0.6c2.1,0,3.8-0.4,3.8-0.9C134,141.1,133.8,140.9,133.4,140.8z"/>
			</g>
			<g>
				<path class="st55" d="M125.1,132.2v4.2c0,1.5,0.7,2.9,1.7,3.8c0,0.3,0.1,0.5,0.1,0.8c0.3,0.4,1.9,0.6,3.2,0.6s3.1-0.2,3.3-0.6
					c0.1-0.2,0.1-0.5,0.1-0.8c1.1-0.9,1.7-2.3,1.7-3.8v-4.2H125.1z"/>
				<path class="st56" d="M134.8,132.2v4c0,1.5-0.7,2.9-1.7,3.8c0,0.3-0.1,0.5-0.1,0.8c-0.2,0.4-2,0.6-3.3,0.6
					c-0.9,0-2.1-0.1-2.7-0.3c0.3,0.4,1.9,0.6,3.2,0.6s3.1-0.2,3.3-0.6c0.1-0.2,0.1-0.5,0.1-0.8c1.1-0.9,1.7-2.3,1.7-3.8v-4.2h-0.5
					V132.2z"/>
				<g>
					<path class="st57" d="M130.2,105.4c-0.3,0-0.5-0.2-0.5-0.5v-5.2c0-0.3,0.2-0.5,0.5-0.5s0.5,0.2,0.5,0.5v5.3
						C130.7,105.2,130.4,105.4,130.2,105.4z"/>
				</g>
				<g>
					<path class="st57" d="M116.4,119.4H111c-0.3,0-0.5-0.2-0.5-0.5s0.2-0.5,0.5-0.5h5.4c0.3,0,0.5,0.2,0.5,0.5
						C116.8,119.2,116.6,119.4,116.4,119.4z"/>
					<path class="st57" d="M149.4,119.4h-5.2c-0.3,0-0.5-0.2-0.5-0.5s0.2-0.5,0.5-0.5h5.2c0.3,0,0.5,0.2,0.5,0.5
						C149.9,119.2,149.7,119.4,149.4,119.4z"/>
				</g>
				<g>
					<path class="st57" d="M116.6,133c-0.1,0-0.2,0-0.3-0.1c-0.2-0.2-0.2-0.5,0-0.7l3.8-3.8c0.2-0.2,0.5-0.2,0.7,0s0.2,0.5,0,0.7
						l-3.8,3.8C116.8,133,116.7,133,116.6,133z"/>
					<path class="st57" d="M140.1,109.5c-0.1,0-0.2,0-0.3-0.1c-0.2-0.2-0.2-0.5,0-0.7l3.7-3.7c0.2-0.2,0.5-0.2,0.7,0s0.2,0.5,0,0.7
						l-3.7,3.7C140.3,109.5,140.2,109.5,140.1,109.5z"/>
				</g>
				<g>
					<path class="st57" d="M120.4,109.7c-0.1,0-0.2,0-0.3-0.1l-3.8-3.8c-0.2-0.2-0.2-0.5,0-0.7s0.5-0.2,0.7,0l3.8,3.8
						c0.2,0.2,0.2,0.5,0,0.7C120.6,109.6,120.5,109.7,120.4,109.7z"/>
					<path class="st57" d="M143.8,133c-0.1,0-0.2,0-0.3-0.1l-3.7-3.7c-0.2-0.2-0.2-0.5,0-0.7s0.5-0.2,0.7,0l3.7,3.7
						c0.2,0.2,0.2,0.5,0,0.7C144,133,143.9,133,143.8,133z"/>
				</g>
				<g>
					<path class="st57" d="M142.1,118.8c0-6.6-5.3-11.9-11.9-11.9c-6.6,0-11.9,5.3-11.9,11.9c0,4.7,2.8,8.8,6.8,10.8v2.4
						c0,2.8,2.3,5.1,5.1,5.1c2.8,0,5.1-2.3,5.1-5.1v-2.4C139.3,127.6,142.1,123.5,142.1,118.8z"/>
					<path class="st58" d="M134,127c-6.5,0-12.8-6-12.8-12.3c0-0.8,0.1-1.6,0.3-2.3c-1.4,1.7-2.2,3.9-2.2,6.3c0,4,2,7.2,6.7,10.1v2
						c0,2.4,1.9,4.4,4.4,4.4c2.4,0,4.4-1.9,4.4-4.4v-2c1.3-0.6,2.4-1.5,3.3-2.5C136.7,126.8,135.4,127,134,127z"/>
					<path class="st59" d="M139.4,115c-0.2,0-0.4-0.1-0.5-0.3c-1.1-2.1-2.9-3.7-5.1-4.6c-0.3-0.1-0.4-0.5-0.3-0.8
						c0.1-0.3,0.5-0.4,0.8-0.3c2.5,1,4.5,2.8,5.7,5.1c0.1,0.3,0,0.6-0.2,0.8C139.6,114.9,139.5,115,139.4,115z"/>
					<path class="st60" d="M133.6,118.2l-1.2-1.5c-0.1-0.2-0.4-0.2-0.6,0l-0.9,1.1l-0.9-1.1c-0.1-0.1-0.2-0.1-0.3-0.1
						s-0.2,0-0.3,0.1l-0.9,1.1l-0.9-1.1c-0.1-0.2-0.4-0.2-0.6,0l-1.2,1.5c-0.1,0.1-0.1,0.1-0.1,0.2v0.1l2,9.3v5.3
						c0,0.2,0.2,0.4,0.4,0.4c0.2,0,0.4-0.2,0.4-0.4v-5.4v-0.1l-2-9.2l0.8-1l0.9,1.1c0.1,0.1,0.2,0.1,0.3,0.1s0.2-0.1,0.3-0.1
						l0.9-1.1l0.9,1.1c0.1,0.1,0.2,0.1,0.3,0.1s0.2-0.1,0.3-0.1l0.9-1.1l0.8,1l-2,9.2c0,0,0,0,0,0.1v5.4c0,0.2,0.2,0.4,0.4,0.4
						s0.4-0.2,0.4-0.4v-5.3l2-9.3C133.7,118.4,133.7,118.3,133.6,118.2z"/>
					<g>
						<g>
							<path class="st61" d="M128.1,127.9v5.3c0,0.2,0.2,0.4,0.4,0.4s0.4-0.2,0.4-0.4v-5.4v-0.1l-0.4-2c-0.3-0.1-0.5-0.3-0.8-0.4
								L128.1,127.9z"/>
							<path class="st61" d="M131.2,126.7l-0.2,1c0,0,0,0,0,0.1v5.4c0,0.2,0.2,0.4,0.4,0.4s0.4-0.2,0.4-0.4v-5.3l0.2-1
								C131.6,126.8,131.4,126.8,131.2,126.7z"/>
						</g>
					</g>
					<path class="st62" d="M125.1,132.2v4.2c0,1,0.3,2,0.8,2.8l0,0c0.1,0.4,2,0.6,4.3,0.6c2.3,0,4.2-0.3,4.3-0.6l0,0
						c0.5-0.8,0.8-1.8,0.8-2.8v-5.2L125.1,132.2z"/>
					<path class="st63" d="M136.2,131c0,0.3-0.3,0.6-0.6,0.6l-10.7,1.6c-0.3,0-0.6-0.3-0.6-0.6l0,0c0-0.3,0.3-0.6,0.6-0.6l10.7-1.6
						C135.9,130.4,136.2,130.7,136.2,131L136.2,131z M136.2,133.1c0-0.3-0.3-0.6-0.6-0.6l-10.7,1.6c-0.3,0-0.6,0.3-0.6,0.6l0,0
						c0,0.3,0.3,0.6,0.6,0.6l10.7-1.6C135.9,133.7,136.2,133.4,136.2,133.1L136.2,133.1z M136.2,135.1c0-0.3-0.3-0.6-0.6-0.6
						l-10.7,1.6c-0.3,0-0.6,0.3-0.6,0.6l0,0c0,0.3,0.3,0.6,0.6,0.6l10.7-1.6C135.9,135.7,136.2,135.4,136.2,135.1L136.2,135.1z
						 M135.7,137.2c0-0.3-0.3-0.6-0.6-0.6l-9.9,1.6c-0.3,0-0.6,0.3-0.6,0.6l0,0c0,0.3,0.3,0.6,0.6,0.6l9.9-1.6
						C135.5,137.8,135.7,137.5,135.7,137.2L135.7,137.2z"/>
				</g>
			</g>
			<g>
				<g>
					<path class="st62" d="M125.3,142.3h-6.5v3.3l0,0l0,0c0,0.4,1.5,0.7,3.2,0.7c1.8,0,3.2-0.3,3.2-0.7l0,0l0,0v-3.3H125.3z"/>
					<path class="st64" d="M119.5,146.1c0.6,0.2,1.4,0.3,2.3,0.3v-4h-2.3V146.1z"/>
					<path class="st63" d="M125.3,142.3c0,0.4-1.5,0.7-3.2,0.7c-1.8,0-3.2-0.3-3.2-0.7s1.5-0.7,3.2-0.7S125.3,141.9,125.3,142.3z"/>
					<path class="st62" d="M123,142.3c0,0.1-0.4,0.2-1,0.2c-0.5,0-1-0.1-1-0.2c0-0.1,0.4-0.2,1-0.2S123,142.2,123,142.3z"/>
					<path class="st65" d="M121.2,142.4c0.2-0.1,0.5-0.1,0.9-0.1s0.7,0,0.9,0.1c0.1,0,0.1-0.1,0.1-0.1c0-0.1-0.4-0.2-1-0.2
						c-0.5,0-1,0.1-1,0.2C121.1,142.3,121.1,142.4,121.2,142.4z"/>
					<path class="st66" d="M124.8,141.9c0.1,0.1,0.1,0.1,0.1,0.2c0,0.4-1.5,0.7-3.2,0.7c-1.2,0-2.2-0.1-2.7-0.3
						c0.4,0.3,1.6,0.5,3.1,0.5c1.8,0,3.2-0.3,3.2-0.7C125.3,142.2,125.1,142,124.8,141.9z"/>
				</g>
				<path class="st46" d="M125.3,143.8c0,0.3-0.1,1.1-2.3,1.6c-2.2,0.5-1.3,2.1,0.2,1.9c1.4-0.2,2.8-0.6,3.3-1.7
					c0.4-1,0.1-2.2-1.2-2.5C125.3,143.4,125.3,143.6,125.3,143.8z"/>
				<g>
					<path class="st67" d="M126.4,144.9c-0.4,1-1.7,1.4-3,1.6c-0.7,0.1-1.2-0.2-1.3-0.6c-0.5,0.6,0.3,1.3,1.3,1.1
						c1.3-0.2,2.5-0.7,2.9-1.4c0.1-0.3,0.2-0.6,0.2-0.9C126.4,144.8,126.4,144.8,126.4,144.9z"/>
				</g>
			</g>
			<g>
				<g>
					<path class="st62" d="M134.9,142.3h6.5v3.3l0,0l0,0c0,0.4-1.5,0.7-3.2,0.7c-1.8,0-3.2-0.3-3.2-0.7l0,0l0,0v-3.3H134.9z"/>
					<path class="st64" d="M140.6,146.1c-0.6,0.2-1.4,0.3-2.3,0.3v-4h2.3V146.1z"/>
					<path class="st63" d="M134.9,142.3c0,0.4,1.5,0.7,3.2,0.7c1.8,0,3.2-0.3,3.2-0.7s-1.5-0.7-3.2-0.7
						C136.3,141.6,134.9,141.9,134.9,142.3z"/>
					<path class="st62" d="M137.1,142.3c0,0.1,0.4,0.2,1,0.2c0.5,0,1-0.1,1-0.2c0-0.1-0.4-0.2-1-0.2
						C137.6,142.1,137.1,142.2,137.1,142.3z"/>
					<path class="st65" d="M139,142.4c-0.2-0.1-0.5-0.1-0.9-0.1s-0.7,0-0.9,0.1c-0.1,0-0.1-0.1-0.1-0.1c0-0.1,0.4-0.2,1-0.2
						c0.5,0,1,0.1,1,0.2C139.1,142.3,139,142.4,139,142.4z"/>
					<path class="st66" d="M135.4,141.9c-0.1,0.1-0.1,0.1-0.1,0.2c0,0.4,1.5,0.7,3.2,0.7c1.2,0,2.2-0.1,2.7-0.3
						c-0.4,0.3-1.6,0.5-3.1,0.5c-1.8,0-3.2-0.3-3.2-0.7C134.9,142.2,135,142,135.4,141.9z"/>
				</g>
				<path class="st46" d="M134.9,143.8c0,0.3,0.1,1.1,2.3,1.6s1.3,2.1-0.2,1.9c-1.4-0.2-2.8-0.6-3.3-1.7c-0.4-1-0.1-2.2,1.2-2.5
					C134.9,143.4,134.8,143.6,134.9,143.8z"/>
				<g>
					<path class="st67" d="M133.7,144.9c0.4,1,1.7,1.4,3,1.6c0.7,0.1,1.2-0.2,1.3-0.6c0.5,0.6-0.3,1.3-1.3,1.1
						c-1.3-0.2-2.5-0.7-2.9-1.4c-0.1-0.3-0.2-0.6-0.2-0.9C133.7,144.8,133.7,144.8,133.7,144.9z"/>
				</g>
			</g>
		</g>
		<g>
			<g>
				<path class="st49" d="M209.6,145.9h-24.9v7.1l0,0l0,0c0,1.6,5.6,2.8,12.5,2.8s12.5-1.3,12.5-2.8v-0.8l0,0v-6.3H209.6z"/>
				<g>
					<path class="st50" d="M184.6,152.6L184.6,152.6C184.6,152.7,184.6,152.7,184.6,152.6L184.6,152.6z"/>
					<path class="st50" d="M197.1,155.5c-6.9,0-12.5-1.3-12.5-2.8v0.3l0,0l0,0c0,1.6,5.6,2.8,12.5,2.8s12.5-1.3,12.5-2.8
						c0,0,0-0.2,0-0.3C209.6,154.2,204,155.5,197.1,155.5z"/>
				</g>
				<path class="st51" d="M187.6,154.9c1.1,0.3,2.4,0.5,4,0.7v-7.8l-4-0.5V154.9z"/>
				<path class="st49" d="M191.6,155.2c-1.5-0.2-2.9-0.4-4-0.7v0.3l0,0c0.3,0.1,0.6,0.1,0.8,0.2l0,0c0.3,0.1,0.6,0.1,0.9,0.2l0,0
					c0.3,0.1,0.7,0.1,1,0.2l0,0c0.4,0.1,0.7,0.1,1.1,0.1l0,0v-0.3H191.6z"/>
				<path class="st52" d="M209.6,145.9c0,1.6-5.6,2.8-12.5,2.8s-12.5-1.3-12.5-2.8c0-1.6,5.6-2.8,12.5-2.8
					C204,143.1,209.6,144.4,209.6,145.9z"/>
				<path class="st49" d="M200.2,145.6c0,0.4,0.6,1.4,2.1,1.8c1.9,0.6,3.1,0,3.2-0.4c0.1-0.4-1.6-0.2-3.2-1.1
					C201.5,145.4,200.2,145.1,200.2,145.6z"/>
				<path class="st49" d="M193.9,145.6c0,0.4-0.6,1.4-2.1,1.8c-1.9,0.6-3.1,0-3.2-0.4c-0.1-0.4,1.6-0.2,3.2-1.1
					C192.6,145.4,193.9,145.1,193.9,145.6z"/>
				<path class="st53" d="M201.2,145.3c0,0.5-1.8,0.9-4.1,0.9c-2.2,0-4.1-0.4-4.1-0.9s1.8-0.9,4.1-0.9
					C199.3,144.4,201.2,144.8,201.2,145.3z"/>
				<path class="st49" d="M192.5,145.7c0,0.4-1.6,0.8-3.5,0.8s-3.5-0.4-3.5-0.8c0-0.4,1.6-0.8,3.5-0.8S192.5,145.2,192.5,145.7z"/>
				<path class="st49" d="M201.6,145.7c0,0.4,1.6,0.8,3.5,0.8s3.5-0.4,3.5-0.8c0-0.4-1.6-0.8-3.5-0.8
					C203.2,144.9,201.6,145.2,201.6,145.7z"/>
				<path class="st54" d="M208.6,144.8c0.2,0.2,0.3,0.4,0.3,0.6c0,1.6-5.6,2.8-12.5,2.8c-5.2,0-9.6-0.7-11.5-1.7
					c1.3,1.3,6.2,2.2,12.1,2.2c6.9,0,12.5-1.3,12.5-2.8C209.6,145.5,209.2,145.2,208.6,144.8z"/>
				<path class="st49" d="M200.9,141.3h-7.7v3.9l0,0l0,0c0,0.5,1.7,0.9,3.8,0.9s3.8-0.4,3.8-0.9l0,0l0,0L200.9,141.3L200.9,141.3z"
					/>
				<path class="st51" d="M194.4,145.8c0.6,0.1,1.4,0.2,2.3,0.2v-4.8h-2.3V145.8z"/>
				<path class="st52" d="M200.9,141.3c0,0.5-1.7,0.9-3.8,0.9s-3.8-0.4-3.8-0.9s1.7-0.9,3.8-0.9
					C199.2,140.4,200.9,140.8,200.9,141.3z"/>
				<path class="st54" d="M200.4,140.8c0.1,0.1,0.2,0.2,0.2,0.3c0,0.5-1.7,0.9-3.8,0.9c-1.4,0-2.6-0.2-3.3-0.4
					c0.5,0.4,1.9,0.6,3.7,0.6c2.1,0,3.8-0.4,3.8-0.9C200.9,141.1,200.7,140.9,200.4,140.8z"/>
			</g>
			<g>
				<path class="st55" d="M192,132.2v4.2c0,1.5,0.7,2.9,1.7,3.8c0,0.3,0.1,0.5,0.1,0.8c0.3,0.4,1.9,0.6,3.2,0.6s3.1-0.2,3.3-0.6
					c0.1-0.2,0.1-0.5,0.1-0.8c1.1-0.9,1.7-2.3,1.7-3.8v-4.2H192z"/>
				<path class="st56" d="M201.8,132.2v4c0,1.5-0.7,2.9-1.7,3.8c0,0.3-0.1,0.5-0.1,0.8c-0.2,0.4-2,0.6-3.3,0.6
					c-0.9,0-2.1-0.1-2.7-0.3c0.3,0.4,1.9,0.6,3.2,0.6s3.1-0.2,3.3-0.6c0.1-0.2,0.1-0.5,0.1-0.8c1.1-0.9,1.7-2.3,1.7-3.8v-4.2h-0.5
					V132.2z"/>
				<g>
					<path class="st57" d="M197.2,105.4c-0.3,0-0.5-0.2-0.5-0.5v-5.2c0-0.3,0.2-0.5,0.5-0.5s0.5,0.2,0.5,0.5v5.3
						C197.6,105.2,197.4,105.4,197.2,105.4z"/>
				</g>
				<g>
					<path class="st57" d="M183.3,119.4h-5.4c-0.3,0-0.5-0.2-0.5-0.5s0.2-0.5,0.5-0.5h5.4c0.3,0,0.5,0.2,0.5,0.5
						C183.8,119.2,183.6,119.4,183.3,119.4z"/>
					<path class="st57" d="M216.4,119.4h-5.2c-0.3,0-0.5-0.2-0.5-0.5s0.2-0.5,0.5-0.5h5.2c0.3,0,0.5,0.2,0.5,0.5
						C216.9,119.2,216.7,119.4,216.4,119.4z"/>
				</g>
				<g>
					<path class="st57" d="M183.6,133c-0.1,0-0.2,0-0.3-0.1c-0.2-0.2-0.2-0.5,0-0.7l3.8-3.8c0.2-0.2,0.5-0.2,0.7,0s0.2,0.5,0,0.7
						l-3.8,3.8C183.8,133,183.7,133,183.6,133z"/>
					<path class="st57" d="M207.1,109.5c-0.1,0-0.2,0-0.3-0.1c-0.2-0.2-0.2-0.5,0-0.7l3.7-3.7c0.2-0.2,0.5-0.2,0.7,0s0.2,0.5,0,0.7
						l-3.7,3.7C207.3,109.5,207.2,109.5,207.1,109.5z"/>
				</g>
				<g>
					<path class="st57" d="M187.4,109.7c-0.1,0-0.2,0-0.3-0.1l-3.8-3.8c-0.2-0.2-0.2-0.5,0-0.7s0.5-0.2,0.7,0l3.8,3.8
						c0.2,0.2,0.2,0.5,0,0.7C187.6,109.6,187.5,109.7,187.4,109.7z"/>
					<path class="st57" d="M210.8,133c-0.1,0-0.2,0-0.3-0.1l-3.7-3.7c-0.2-0.2-0.2-0.5,0-0.7s0.5-0.2,0.7,0l3.7,3.7
						c0.2,0.2,0.2,0.5,0,0.7C211,133,210.9,133,210.8,133z"/>
				</g>
				<g>
					<path class="st57" d="M209.1,118.8c0-6.6-5.3-11.9-11.9-11.9c-6.6,0-11.9,5.3-11.9,11.9c0,4.7,2.8,8.8,6.8,10.8v2.4
						c0,2.8,2.3,5.1,5.1,5.1s5.1-2.3,5.1-5.1v-2.4C206.3,127.6,209.1,123.5,209.1,118.8z"/>
					<path class="st58" d="M201,127c-6.5,0-12.8-6-12.8-12.3c0-0.8,0.1-1.6,0.3-2.3c-1.4,1.7-2.2,3.9-2.2,6.3c0,4,2,7.2,6.7,10.1v2
						c0,2.4,1.9,4.4,4.4,4.4c2.4,0,4.4-1.9,4.4-4.4v-2c1.3-0.6,2.4-1.5,3.3-2.5C203.7,126.8,202.4,127,201,127z"/>
					<path class="st59" d="M206.4,115c-0.2,0-0.4-0.1-0.5-0.3c-1.1-2.1-2.9-3.7-5.1-4.6c-0.3-0.1-0.4-0.5-0.3-0.8
						c0.1-0.3,0.5-0.4,0.8-0.3c2.5,1,4.5,2.8,5.7,5.1c0.1,0.3,0,0.6-0.2,0.8C206.6,114.9,206.5,115,206.4,115z"/>
					<path class="st60" d="M200.6,118.2l-1.2-1.5c-0.1-0.2-0.4-0.2-0.6,0l-0.9,1.1l-0.9-1.1c-0.1-0.1-0.2-0.1-0.3-0.1
						s-0.2,0-0.3,0.1l-0.9,1.1l-0.9-1.1c-0.1-0.2-0.4-0.2-0.6,0l-1.2,1.5c-0.1,0.1-0.1,0.1-0.1,0.2v0.1l2,9.3v5.3
						c0,0.2,0.2,0.4,0.4,0.4s0.4-0.2,0.4-0.4v-5.4v-0.1l-2-9.2l0.8-1l0.9,1.1c0.1,0.1,0.2,0.1,0.3,0.1s0.2-0.1,0.3-0.1l0.9-1.1
						l0.9,1.1c0.1,0.1,0.2,0.1,0.3,0.1s0.2-0.1,0.3-0.1l0.9-1.1l0.8,1l-2,9.2c0,0,0,0,0,0.1v5.4c0,0.2,0.2,0.4,0.4,0.4
						s0.4-0.2,0.4-0.4v-5.3l2-9.3C200.7,118.4,200.7,118.3,200.6,118.2z"/>
					<g>
						<g>
							<path class="st61" d="M195,127.9v5.3c0,0.2,0.2,0.4,0.4,0.4s0.4-0.2,0.4-0.4v-5.4v-0.1l-0.4-2c-0.3-0.1-0.5-0.3-0.8-0.4
								L195,127.9z"/>
							<path class="st61" d="M198.1,126.7l-0.2,1c0,0,0,0,0,0.1v5.4c0,0.2,0.2,0.4,0.4,0.4s0.4-0.2,0.4-0.4v-5.3l0.2-1
								C198.6,126.8,198.4,126.8,198.1,126.7z"/>
						</g>
					</g>
					<path class="st62" d="M192,132.2v4.2c0,1,0.3,2,0.8,2.8l0,0c0.1,0.4,2,0.6,4.3,0.6s4.2-0.3,4.3-0.6l0,0
						c0.5-0.8,0.8-1.8,0.8-2.8v-5.2L192,132.2z"/>
					<path class="st63" d="M203.1,131c0,0.3-0.3,0.6-0.6,0.6l-10.7,1.6c-0.3,0-0.6-0.3-0.6-0.6l0,0c0-0.3,0.3-0.6,0.6-0.6l10.7-1.6
						C202.9,130.4,203.1,130.7,203.1,131L203.1,131z M203.1,133.1c0-0.3-0.3-0.6-0.6-0.6l-10.7,1.6c-0.3,0-0.6,0.3-0.6,0.6l0,0
						c0,0.3,0.3,0.6,0.6,0.6l10.7-1.6C202.9,133.7,203.1,133.4,203.1,133.1L203.1,133.1z M203.1,135.1c0-0.3-0.3-0.6-0.6-0.6
						l-10.7,1.6c-0.3,0-0.6,0.3-0.6,0.6l0,0c0,0.3,0.3,0.6,0.6,0.6l10.7-1.6C202.9,135.7,203.1,135.4,203.1,135.1L203.1,135.1z
						 M202.7,137.2c0-0.3-0.3-0.6-0.6-0.6l-9.9,1.6c-0.3,0-0.6,0.3-0.6,0.6l0,0c0,0.3,0.3,0.6,0.6,0.6l9.9-1.6
						C202.4,137.8,202.7,137.5,202.7,137.2L202.7,137.2z"/>
				</g>
			</g>
			<g>
				<g>
					<path class="st62" d="M192.3,142.3h-6.5v3.3l0,0l0,0c0,0.4,1.5,0.7,3.2,0.7c1.8,0,3.2-0.3,3.2-0.7l0,0l0,0v-3.3H192.3z"/>
					<path class="st64" d="M186.5,146.1c0.6,0.2,1.4,0.3,2.3,0.3v-4h-2.3V146.1z"/>
					<path class="st63" d="M192.3,142.3c0,0.4-1.5,0.7-3.2,0.7c-1.8,0-3.2-0.3-3.2-0.7s1.5-0.7,3.2-0.7S192.3,141.9,192.3,142.3z"/>
					<path class="st62" d="M190,142.3c0,0.1-0.4,0.2-1,0.2c-0.5,0-1-0.1-1-0.2c0-0.1,0.4-0.2,1-0.2S190,142.2,190,142.3z"/>
					<path class="st65" d="M188.2,142.4c0.2-0.1,0.5-0.1,0.9-0.1s0.7,0,0.9,0.1c0.1,0,0.1-0.1,0.1-0.1c0-0.1-0.4-0.2-1-0.2
						c-0.5,0-1,0.1-1,0.2C188,142.3,188.1,142.4,188.2,142.4z"/>
					<path class="st66" d="M191.8,141.9c0.1,0.1,0.1,0.1,0.1,0.2c0,0.4-1.5,0.7-3.2,0.7c-1.2,0-2.2-0.1-2.7-0.3
						c0.4,0.3,1.6,0.5,3.1,0.5c1.8,0,3.2-0.3,3.2-0.7C192.3,142.2,192.1,142,191.8,141.9z"/>
				</g>
				<path class="st46" d="M192.3,143.8c0,0.3-0.1,1.1-2.3,1.6s-1.3,2.1,0.2,1.9c1.4-0.2,2.8-0.6,3.3-1.7c0.4-1,0.1-2.2-1.2-2.5
					C192.3,143.4,192.3,143.6,192.3,143.8z"/>
				<g>
					<path class="st67" d="M193.4,144.9c-0.4,1-1.7,1.4-3,1.6c-0.7,0.1-1.2-0.2-1.3-0.6c-0.5,0.6,0.3,1.3,1.3,1.1
						c1.3-0.2,2.5-0.7,2.9-1.4c0.1-0.3,0.2-0.6,0.2-0.9C193.4,144.8,193.4,144.8,193.4,144.9z"/>
				</g>
			</g>
			<g>
				<g>
					<path class="st62" d="M201.8,142.3h6.5v3.3l0,0l0,0c0,0.4-1.5,0.7-3.2,0.7c-1.8,0-3.2-0.3-3.2-0.7l0,0l0,0v-3.3H201.8z"/>
					<path class="st64" d="M207.6,146.1c-0.6,0.2-1.4,0.3-2.3,0.3v-4h2.3V146.1z"/>
					<path class="st63" d="M201.8,142.3c0,0.4,1.5,0.7,3.2,0.7c1.8,0,3.2-0.3,3.2-0.7s-1.5-0.7-3.2-0.7S201.8,141.9,201.8,142.3z"/>
					<path class="st62" d="M204.1,142.3c0,0.1,0.4,0.2,1,0.2c0.5,0,1-0.1,1-0.2c0-0.1-0.4-0.2-1-0.2S204.1,142.2,204.1,142.3z"/>
					<path class="st65" d="M205.9,142.4c-0.2-0.1-0.5-0.1-0.9-0.1s-0.7,0-0.9,0.1c-0.1,0-0.1-0.1-0.1-0.1c0-0.1,0.4-0.2,1-0.2
						c0.5,0,1,0.1,1,0.2C206.1,142.3,206,142.4,205.9,142.4z"/>
					<path class="st66" d="M202.3,141.9c-0.1,0.1-0.1,0.1-0.1,0.2c0,0.4,1.5,0.7,3.2,0.7c1.2,0,2.2-0.1,2.7-0.3
						c-0.4,0.3-1.6,0.5-3.1,0.5c-1.8,0-3.2-0.3-3.2-0.7C201.8,142.2,202,142,202.3,141.9z"/>
				</g>
				<path class="st46" d="M201.8,143.8c0,0.3,0.1,1.1,2.3,1.6s1.3,2.1-0.2,1.9c-1.4-0.2-2.8-0.6-3.3-1.7c-0.4-1-0.1-2.2,1.2-2.5
					C201.8,143.4,201.8,143.6,201.8,143.8z"/>
				<g>
					<path class="st67" d="M200.7,144.9c0.4,1,1.7,1.4,3,1.6c0.7,0.1,1.2-0.2,1.3-0.6c0.5,0.6-0.3,1.3-1.3,1.1
						c-1.3-0.2-2.5-0.7-2.9-1.4c-0.1-0.3-0.2-0.6-0.2-0.9C200.7,144.8,200.7,144.8,200.7,144.9z"/>
				</g>
			</g>
		</g>
		<g>
			<g>
				<path class="st49" d="M145.6,161.8v22.9c0,0.9,1.3,1.6,3,1.6h27.6c1.6,0,3-0.7,3-1.6v-22.9H145.6z"/>
				<path class="st68" d="M176.2,185.8h-27.6c-1.6,0-3-0.7-3-1.6v0.5c0,0.9,1.3,1.6,3,1.6h27.6c1.6,0,3-0.7,3-1.6v-0.5
					C179.2,185.1,177.8,185.8,176.2,185.8z"/>
				<path class="st51" d="M146.7,161.8V186c0.5,0.2,1.2,0.4,1.9,0.4h0.8v-24.5L146.7,161.8L146.7,161.8z"/>
				<path class="st49" d="M148.6,185.8c-0.7,0-1.4-0.1-1.9-0.4v0.5l0,0c0.1,0.1,0.2,0.1,0.4,0.1c0,0,0,0,0.1,0s0.3,0.1,0.4,0.1
					c0,0,0,0,0.1,0s0.3,0,0.4,0.1c0,0,0,0,0.1,0c0.2,0,0.3,0,0.5,0h0.8v-0.5L148.6,185.8L148.6,185.8z"/>
				<path class="st52" d="M176.7,186.3c0.3,0,0.6-0.1,0.9-0.2v-23.6h-0.9V186.3z"/>
				<path class="st49" d="M177.6,185.6c-0.3,0.1-0.6,0.1-0.9,0.2v0.5c0.2,0,0.3,0,0.4-0.1l0,0c0.1,0,0.3-0.1,0.4-0.1l0,0v-0.5
					L177.6,185.6L177.6,185.6z"/>
				<rect x="153.1" y="170.3" class="st50" width="18.3" height="10"/>
				<rect x="153.3" y="170.5" class="st69" width="17.9" height="9.7"/>
				<polygon class="st70" points="171.2,172.8 153.3,178.4 153.3,176 171.2,170.5 				"/>
				<polygon class="st70" points="171.2,174.4 153.3,180 153.3,179.3 171.2,173.8 				"/>
				<path class="st52" d="M179.2,161.8c0,0.6-1.3,1.1-3,1.1h-27.6c-1.6,0-3-0.5-3-1.1l0,0c0-0.6,1.3-1.1,3-1.1h27.6
					C177.8,160.6,179.2,161.1,179.2,161.8L179.2,161.8z"/>
				<path class="st54" d="M177.9,160.8c0.4,0.2,0.7,0.4,0.7,0.7c0,0.6-1.3,1.1-3,1.1H148c-0.6,0-1.2-0.1-1.7-0.2
					c0.5,0.3,1.4,0.4,2.3,0.4h27.6c1.6,0,3-0.5,3-1.1C179.2,161.4,178.7,161,177.9,160.8z"/>
			</g>
			<g>
				<path class="st63" d="M149.8,151.5c-0.5-0.5-1.2-0.4-1.4,0.8c-0.2,1.1-0.3,2.8,0.1,3.1c0.7,0.5,8.7,7.1,8.7,7.1l1.6-0.5v-2.8
					L149.8,151.5z"/>
				<path class="st71" d="M149.7,154.7c-0.3-0.2-0.2-2-0.1-3.1c0-0.1,0-0.2,0.1-0.3c-0.5-0.3-1.1-0.2-1.3,0.9
					c-0.2,1.1-0.3,2.8,0.1,3.1c0.7,0.5,8.7,7.1,8.7,7.1l1.6-0.5l-0.2-0.2C156.9,160.4,150.3,155.2,149.7,154.7z"/>
				<path class="st62" d="M149.4,154.8c-0.3-0.3-0.1-3,0.3-3.4c-0.5-0.3-1.1-0.2-1.3,0.9c-0.2,1.1-0.3,2.8,0.1,3.1
					c0.7,0.5,8.7,7.1,8.7,7.1l1.6-0.5C158.7,161.9,152.5,157.5,149.4,154.8z"/>
				<g>
					<path class="st72" d="M154.2,159.9l-0.8-0.6C153.6,159.4,153.9,159.6,154.2,159.9z"/>
					<path class="st72" d="M154.2,159.9l2.9,2.5l1.3-0.5l-3.9-2.9c0,0,2.1,1.7,1.8,2C156.1,161.1,155.1,160.5,154.2,159.9z"/>
				</g>
				<path class="st46" d="M154.9,155.8c0.4-0.3,1.2-0.5,2,0.6c0.5,0.6,0.8,2.5-0.4,3.9s-2.8,0.9-2.5-0.5c0.7-0.2,1.4-0.7,1.6-1.8
					c0.2-1.1-0.1-1.7-0.1-1.7L154.9,155.8z"/>
				<path class="st67" d="M156.4,156.2c0.9,1.9-0.3,4.3-2.2,4.3c0.1,0.5,0.7,0.6,1.2,0.4C156.7,160.4,157.9,157.7,156.4,156.2z"/>
				<path class="st46" d="M151.4,152.8l1.2,1c0,0,0.3,0.6-0.2,1.7c-0.4,0.9,0.1,2.1,1,1.7c0.9-0.4,1.3-2.5,0.7-3.6
					C153.1,151.8,151.4,152.8,151.4,152.8z"/>
				<path class="st67" d="M153.2,153c1,1.5,0.4,3-0.4,3.4c-0.1,0.1-0.2,0.1-0.3,0.1c0.1,0.5,0.5,0.8,1,0.5
					C154.3,156.6,154.7,153.8,153.2,153z"/>
			</g>
			<g>
				<path class="st63" d="M176.9,151.2c0.5-0.5,1.2-0.4,1.4,0.8c0.2,1.1,0.3,2.8-0.1,3.1c-0.7,0.5-8.7,7.1-8.7,7.1l-1.6-0.5v-2.8
					L176.9,151.2z"/>
				<path class="st71" d="M177.1,154.5c0.3-0.2,0.2-2,0.1-3.1c0-0.1,0-0.2-0.1-0.3c0.5-0.3,1.1-0.2,1.3,0.9c0.2,1.1,0.3,2.8-0.1,3.1
					c-0.7,0.5-8.7,7.1-8.7,7.1l-1.6-0.5l0.2-0.2C169.8,160.2,176.4,154.9,177.1,154.5z"/>
				<path class="st62" d="M177.3,154.5c0.3-0.3,0.1-3-0.3-3.4c0.5-0.3,1.1-0.2,1.3,0.9c0.2,1.1,0.3,2.8-0.1,3.1
					c-0.7,0.5-8.7,7.1-8.7,7.1l-1.6-0.5C168,161.7,174.2,157.3,177.3,154.5z"/>
				<g>
					<path class="st72" d="M172.5,159.6l0.8-0.6C173.1,159.2,172.8,159.4,172.5,159.6z"/>
					<path class="st72" d="M172.5,159.6l-2.9,2.5l-1.3-0.5l3.9-2.9c0,0-2.1,1.7-1.8,2C170.6,160.9,171.7,160.3,172.5,159.6z"/>
				</g>
				<path class="st46" d="M171.8,155.5c-0.4-0.3-1.2-0.5-2,0.6c-0.5,0.6-0.8,2.5,0.4,3.9s2.8,0.9,2.5-0.5c-0.7-0.2-1.4-0.7-1.6-1.8
					c-0.2-1.1,0.1-1.7,0.1-1.7L171.8,155.5z"/>
				<path class="st67" d="M170.3,156c-0.9,1.9,0.3,4.3,2.2,4.3c-0.1,0.5-0.7,0.6-1.2,0.4C170,160.1,168.8,157.5,170.3,156z"/>
				<path class="st46" d="M175.3,152.6l-1.2,1c0,0-0.3,0.6,0.2,1.7c0.4,0.9-0.1,2.1-1,1.7c-0.9-0.4-1.3-2.5-0.7-3.6
					C173.6,151.6,175.3,152.6,175.3,152.6z"/>
				<path class="st67" d="M173.5,152.7c-1,1.5-0.4,3,0.4,3.4c0.1,0.1,0.2,0.1,0.3,0.1c-0.1,0.5-0.5,0.8-1,0.5
					C172.4,156.3,172,153.5,173.5,152.7z"/>
			</g>
		</g>
		<g>
			<polygon class="st73" points="245.5,172.8 219.3,172.8 219.8,169.1 243.5,169.1 			"/>
			<polygon class="st74" points="241.7,172.4 222.8,172.4 223.1,169.5 240.3,169.5 			"/>
			<polygon class="st75" points="223.1,169.8 240.3,169.8 241.6,172.4 241.7,172.4 240.3,169.5 223.1,169.5 222.8,172.4 
				222.9,172.4 			"/>
			<rect x="219.3" y="172.8" class="st75" width="26.2" height="7.2"/>
			<rect x="222.9" y="173.8" class="st73" width="18.8" height="5.2"/>
			<g>
				<polygon class="st76" points="241.5,169.5 232.9,169.5 232.4,167.5 240.6,167.5 				"/>
				<rect x="232.9" y="169.5" class="st77" width="8.6" height="2.9"/>
				<polygon class="st78" points="232.4,170.1 232.9,172.3 232.9,169.5 232.4,167.5 				"/>
			</g>
		</g>
	</g>
</g>
</svg>
