<?xml version="1.0" encoding="utf-8"?>
<!-- Generator: Adobe Illustrator 24.2.0, SVG Export Plug-In . SVG Version: 6.00 Build 0)  -->
<svg version="1.1" id="Layer_1" xmlns="http://www.w3.org/2000/svg" xmlns:xlink="http://www.w3.org/1999/xlink" x="0px" y="0px"
	 viewBox="0 0 320 306.2" style="enable-background:new 0 0 320 306.2;" xml:space="preserve">
<style type="text/css">
	.st0{fill:#80411C;}
	.st1{fill:#6E3516;}
	.st2{fill:#5D2B0E;}
	.st3{fill:#9E5B25;}
	.st4{fill:#B36428;}
	.st5{fill:#8F4D21;}
	.st6{fill:#915022;}
	.st7{fill:#A05124;}
	.st8{fill:#7B3A1A;}
	.st9{fill:#6F3516;}
	.st10{fill:#A05324;}
	.st11{fill:#EF7722;}
	.st12{fill:#F9A53F;}
	.st13{fill:#CB6828;}
	.st14{fill:#ED7523;}
	.st15{fill:#75492E;}
	.st16{fill:#A36745;}
	.st17{fill:#955E3E;}
	.st18{fill:#5DA73D;}
	.st19{fill:#ADD136;}
	.st20{fill:#D4E16F;}
	.st21{fill:#008270;}
	.st22{fill:#00B48D;}
	.st23{fill:#00528C;}
	.st24{fill:#2E6FB7;}
	.st25{fill:#71B0E0;}
	.st26{fill:#BA1621;}
	.st27{fill:#ED1C2B;}
	.st28{fill:#F6998A;}
	.st29{fill:#6C4F96;}
	.st30{fill:#975BA5;}
	.st31{fill:#CC66A8;}
	.st32{fill:#F2633C;}
	.st33{fill:#F89A42;}
	.st34{fill:#FFE6B0;}
	.st35{fill:#EAB323;}
	.st36{fill:#F0DD17;}
	.st37{fill:#E8F3E0;}
	.st38{fill:#0074BD;}
	.st39{fill:#009DDC;}
	.st40{fill:#B3E4FA;}
	.st41{fill:#F05C2F;}
	.st42{fill:#F47F30;}
	.st43{fill:#FBBB8F;}
	.st44{fill:#813971;}
	.st45{fill:#AB4A8B;}
	.st46{fill:#E4759B;}
</style>
<g>
	<path class="st0" d="M307.7,134.9l-4.5-1c-9.9-2.5-21.3-2.5-31.7-3c-23.1-1.1-45.3,2.3-66,11.2c-21.7,9.3-46.2,26.3-54.1,47.6
		c-5.5,14.9-9.7,32.2-7,48c2.8,16.7,12.8,33.3,12.6,50.2c10.6-2.1,18.7-13.3,29.8-16.6c0,0,8.5,4.9,19.4-3.4
		c14.8-11.3,29.7-24.4,47.2-28.7c19.4-4.8,27.2-23,37.5-28.5c8.4-17.3-2.3-20.9,5.8-33.8C306.8,160.8,302.1,148.7,307.7,134.9z"/>
	<path class="st1" d="M213.5,203.9c-3.1,7.9-3.4,23.7-5.7,31.8c-2.2,7.8-4.2,15.7-5.7,23.6c-0.5,2.9-1,5.7-1.2,8.6
		c-0.1,1.8,0.1,2.4,0.1,2.5c0.1,0.1,0.2,0.3,0.3,0.4c1.5-0.7,3.1-1.6,4.7-2.9c5.1-3.9,10.3-8.1,15.6-12c0.4-6.4,1.6-12.8,2.8-19.2
		c1.3-7.5,3.1-16.4-0.3-23.6C222.6,209.9,213.5,203.9,213.5,203.9z"/>
	<path class="st2" d="M218.4,258.4c0.8-5.4,1.9-10.8,2.8-16.2c1.4-8.6-5.2-23.8-7.2-31.2c-0.1,18.8-0.8,40.4-6.5,55.9
		C211.1,264.1,214.8,261.2,218.4,258.4z"/>
	<path class="st1" d="M273.5,199.9c-2.5,10.1-2.8,20.4-3.7,30.7c8.6-7.2,14.3-16.2,21-19.8c8.4-17.3-2.3-20.9,5.8-33.8
		c10.2-16.2,5.5-28.3,11-42.1l-4.5-1c-0.3-0.1-0.6-0.1-0.9-0.2c-6.1,3.1-12.1,6.4-17.9,10c4.2,0.1,8.1,1,12.2,2.2
		c4.5,1.3,5.5,5.9,3.3,8.7C295.3,171.7,277.8,182.7,273.5,199.9z"/>
	<path class="st2" d="M301.6,166.3c-5.2,8-11,15.5-17,23.1c-3.3,10.8-6.8,21.5-9.8,32.3c5.5-8.4,12-15.9,19.4-22.9
		c0.4-8.1-3.4-12.6,2.4-21.8C299,173.3,300.6,169.7,301.6,166.3z"/>
	<path class="st1" d="M155.6,205.4c-0.4,0.1-0.8,0.1-1.2,0c-0.9,19.8-1.2,39.7-1.9,59.5c2.5,7.6,4.5,15.3,4.4,23c5-1,9.4-4,13.9-7.2
		c-0.1-1.3-0.2-2.5-0.3-3.8c-0.4-5.9-0.7-12-2.9-17.6c-1.8-4.7-5.2-9.3-6.2-14.2c-3.3-16.5,3.7-30,14.8-42.1
		C169.5,204.1,162.6,204.6,155.6,205.4z"/>
	<path class="st1" d="M231.3,249.2c3.9-2.5,8-4.7,12.1-6.6c0.3-4.2,0.7-8.5,1.3-12.7c1.5-10.2,5.1-18.5,8.9-28.2
		c3.4-8.6,1.1-17.8,4.4-26.3c2.6-6.7,6.1-12.7,8.1-19.3c-4.5,2.3-10.1,3.7-14.7,3.7c-5.6-0.1-11.4-0.8-16.9,0.9c0.3-0.1-16,3.4-12,5
		c1.1,0.1,5.5,1.2,6.4,1.5c0.5,0.2,13.1-0.3,13.1-0.3c-9.2,19.3-7.2,47.7-9,68.2C232.6,240,232,244.6,231.3,249.2z"/>
	<path class="st2" d="M231.3,249.2c1-0.6,2-1.3,3-1.8c0.5-8.2,1.8-16.4,2.8-24.6c1.1-8.8,1.5-17.7,3.5-26.5
		c3.4-15,7.4-25.6,20.9-35.6c1.1-0.8,2.3-1.2,3.4-1.3c0.4-1,0.7-2.1,1.1-3.1c-4.5,2.3-10.1,3.7-14.7,3.7c-5.6-0.1-11.4-0.8-16.9,0.9
		c0.3-0.1-16,3.4-12,5c1.1,0.1,5.5,1.2,6.4,1.5c0.5,0.2,13.1-0.3,13.1-0.3c-9.2,19.3-7.2,47.7-9,68.2
		C232.6,240,232,244.6,231.3,249.2z"/>
	<path class="st1" d="M194.1,224.1c4.7-10.9,3.3-21.8,11.9-32.6c2-2.5,15.3-16,15.8-18.9c-9.6,3.1-37.5,19.5-42.9,27.4
		c1,8.8,1.9,17.6,1.7,26.5c-0.2,8.9-1.7,17.7-0.5,26.6c0.9,6.6,2.1,13.1,3,19.7c0.9-0.4,1.9-0.8,2.8-1.1c-0.5-7,1.5-13.7,2.8-20.7
		C190.5,241.6,190.3,233,194.1,224.1z"/>
	<path class="st2" d="M203.4,184.1c0.1-0.4,0.1-0.9,0.2-1.3c-9.6,3.1-19.3,9.3-24.6,17.2c1,8.8,1.9,17.6,1.7,26.5
		c-0.2,8.9-1.7,17.7-0.5,26.6c0.9,6.6,2.1,13.1,3,19.7c0.8-0.4,1.7-0.7,2.5-1c-0.8-16.5-1-32.9-0.3-49.4
		C186,206.5,194.4,196.9,203.4,184.1z"/>
	<path class="st3" d="M154.4,190.9c-8-19.3-40.8-36.5-60.9-44.8c-20.1-8.3-47.4-8.3-69.2-9.2c-5.9-0.2-10.6-0.5-15.8-2
		c0,15.4,0.6,31.9,8.8,45.1c3.4,5.4,7,26,14,37.7c4.8,7.9,9.6,6.1,17.2,8.8c11.9,4.2,17.8,19.1,38,28.8c7.2,3.5,11.7,12.4,26.7,16.7
		c8.6,2.5,19,0.8,19,0.8c8.7,3.1,9,10.2,24.6,15c0.5-15.3-1-31.1-1-47.4C155.9,225.8,160.1,204.6,154.4,190.9z"/>
	<path class="st0" d="M73.8,247.3c3.6,2.8,7.7,5.6,12.8,8.1c4.3,2.1,7.7,6.1,13,10c-3.8-8.3-7.4-16.6-9.8-25.3
		c-3.1-11.3-4.3-23.2-7.8-34.4c0,0.1,0,0.2-0.1,0.3c1.8,5.7,2.6,12.7,1.8,19.6C83.8,235.2,81.6,244,73.8,247.3z"/>
	<path class="st4" d="M155.5,207.6c-2.6-1.8-6.8-4.6-10.3-5.4c0,0.2,0.1,0.5,0.1,0.9c0.1,0.4,0.3,0.8,0.4,1.1
		c0.5,0.3,0.9,0.7,1.3,1.2c10.1,12.5,6,27.6,6.6,41.9c0.5,12.3,2.3,24.5,3.3,36.8c0.2-14.1-1.1-28.6-1.1-43.6c0-9.3,1.7-21.1,1.5-32
		C156.7,208.3,156.1,208,155.5,207.6z"/>
	<path class="st4" d="M144,281.5c-1-10.2-2.4-20.4-2.8-30.6c-0.2-4.7,0.3-9.8,0.5-14.9c-3-8.5-6-17-7.3-25.8
		c-2.5-6.2-4.7-13.2,0.3-16.7c1.3-0.9,2.7-1.6,4.1-2c-0.9-0.5-1.9-0.9-2.9-1.2c-3.7,1.9-7.8,3.1-12.1,3.8
		c7.3,17.8,10.5,36.5,10.2,55.3c0.1,0.2,0.2,0.4,0.2,0.5c1.1,3.2,0.3,7-0.5,10.3c0.1,0.3,0.1,0.6,0.1,0.9c0,4.2-0.2,8.2-0.8,12.1
		C137.7,275.2,139.9,278.3,144,281.5z"/>
	<path class="st4" d="M10.6,135.5c-0.7-0.2-1.3-0.3-2-0.5c0,15.4,0.6,31.9,8.8,45.1c3.4,5.4,7,26,14,37.7c2.8,4.6,5.6,5.9,8.9,6.7
		c-7.1-13-20.1-33-12.3-46.2c-4.5-2.8-11.3-10-11.3-10c0,1.2-3.2-7.7-3.8-17.3c-0.2-4.4-0.2-8.8,0.4-13.2
		C12.4,137.1,11.4,136.3,10.6,135.5z"/>
	<path class="st4" d="M62.9,237.3c0.4-6.9,0.9-13.7,1-20.6c0.1-15.7-7.7-30.8-1.1-46c-1.5-1.2-2.7-2.5-3.8-3.9
		c-3.9-2-7.3-4.5-11.3-6.1c-0.1,2.2-0.3,4.3-0.6,6.5c0,0.2,0.1,0.5,0.1,0.7c3.6,8.7,5.3,17.7,7,27c0.2,0.4,0.4,0.9,0.5,1.4
		c0.5,2.2,0.9,4.4,1.4,6.6c0.5,0.8,0.9,1.7,1,2.7c0.6,9.1,1.7,18.1,1,27.1C59.6,234.1,61.2,235.6,62.9,237.3z"/>
	<path class="st5" d="M54.9,149.9c-5.6-0.8-19.4-2.4-20.6-2.3c1,8.8,1.9,17.8,4.6,26.3c2.8,9.1,8.1,17.1,11.5,26
		c4,10.7,6.1,21.7,7.8,32.8c1,0.9,1.9,1.8,2.9,2.8c-0.5-17.9-1.6-35.9-5.8-53.3c-2.5-10-3.6-13.3-4.5-19.7
		C51.6,161.2,55.8,150.1,54.9,149.9z"/>
	<path class="st1" d="M54.9,149.9c-5.6-0.8-36.9-9.5-38.1-9.4c4.2,6.3,15.1,11.1,19,12.1c10.1,3.1,10,9,11.9,15.9
		c2.4,9.1,4.7,18.3,6.8,27.5c2.8,12,5.7,25.5,5.5,38.5c0.4,0.3,0.7,0.7,1.1,1c-0.5-17.9-1.6-35.9-5.8-53.3c-2.5-10-3.4-13.6-4.3-20
		C51.8,160.9,55.8,150.1,54.9,149.9z"/>
	<path class="st5" d="M148.6,186.2c-10.3,0.2-42.2-4-39.8,1.7c7.2,9.2,14.7,22.9,19.5,48.8c2.2,12.2,2.4,24,4,36.3
		c0.6,0.3,2.2,1,2.7,1.3c0.7-6.5,1.7-13,2.4-19.6c1.8-18.6-5.2-39.4-7.2-57.8C130.2,196.8,145.3,190,148.6,186.2z"/>
	<path class="st1" d="M148.6,186.2c-10.3,0.2-59.2-16.6-68.9-13.6c0,0,11.8,7.4,11.8,7.4c10.5,3.5,27.3,16.5,27.2,16.9
		c2.4,1.3,11.4,19.7,13.1,27.2c3.5,15.7,5.1,33.4,1.9,49.4c0.5,0.2,1,0.5,1.4,0.7c0.7-6.5,1.7-13,2.4-19.6
		c1.8-18.6-5.2-39.4-7.2-57.8C130.2,196.8,145.3,190,148.6,186.2z"/>
	<path class="st6" d="M258.6,227.8c5.1-0.4,16.4-23.5,21.4-25.2c4.9-1.6,14.8-6.9,17.9-10.9c3-3.8,2.7-7,5-11.1c2.3-4.2,4.8-4.2,8-8
		c3.3-3.9-3.2-17.4-3.2-17.4l-24.9,7.9c-2.6,1-5.4,1.8-8.1,2.8c-1.5,0.5-2.9,1-4.4,1.5c-5.8,2.2-11.7,4.2-17.7,5.8
		c-0.2,0.1-0.4,0.1-0.6,0.1c-0.5,0.2-0.9,0.2-1.3,0.1l-0.5,0.2c0,0,0.2,5.9-0.1,7.5c-0.5,2.7-2.7,4.7-3.1,7.4
		c-0.8,5.9,2.4,35.8,0.7,41.3C253.9,229.6,252.3,228.3,258.6,227.8z"/>
	<path class="st7" d="M259.7,214c-1.4,4.7-2.6,9.3-3.3,14.1c0.6-0.1,1.4-0.2,2.2-0.3c0.6-0.1,1.2-0.4,1.9-0.9
		c2.4-8.8,7.1-16.7,11.9-25c3.6-6.1,6.4-12.3,8.9-18.8c1.1-2.9,3.1-4.6-2.7-5c-3-0.2-6-0.4-9.1-0.5c4,4.7,7.6,8.3,3.9,14.9
		C269.5,199.8,262.2,206.1,259.7,214z"/>
	<path class="st8" d="M259.1,227.7c5.3-1.8,16.1-23.5,20.9-25.1c4.9-1.6,14.8-6.9,17.9-10.9c3-3.8,2.7-7,5-11.1c2.3-4.2,4.8-4.2,8-8
		c3.3-3.9-3.2-17.4-3.2-17.4c0-0.7-16.3,5.1-28.9,14.2c-2.7,2.6-0.3,9.5-0.3,10.3c0.6,8.6-1.3,13.2-8.8,22.7
		C263.7,210.1,260.7,218.7,259.1,227.7z"/>
	<path class="st1" d="M259.1,227.7c2.4-0.8,5.8-5.5,9.3-10.7c-2.6-8.9,4.8-17.2,11-24.4c1.9-5.6,3.5-11.3,6.6-16.4
		c-0.1,0-0.2-0.1-0.2-0.2c-0.6-0.4-1.2-0.8-1.9-1.2c-1.9-0.5-4.2,0.3-6.3,0.7c0.3,2.1,0.8,3.8,0.8,4.2c0.6,8.6-1.3,13.2-8.8,22.7
		C263.7,210.1,260.7,218.7,259.1,227.7z"/>
	<path class="st8" d="M213.5,203.9c-0.5,5,0.9,12.1,1.5,17.6c0.6,5.9,3.3,31.1,3.4,36.9c5,1.5,8.7,0.1,13.5-2.9
		c3.3-2.1,5.1-15.4,7.6-24.9c2.3-8.3,15.8-20,16.1-28.5l-0.5,0.4c-6.3-4.7-13.5,0.5-19,2.3C228.7,207.3,220.6,205.1,213.5,203.9z"/>
	<path class="st1" d="M232.2,212.3c-5.1,15.1-6.2,30.6-6.7,46.3c1.6-0.4,3.1-1.1,4.8-2.1c0-6.9,0.5-13.7,0.9-20.6
		c0.3-3.9,0-8.9,1.7-12.6c3.9-8.6,14.6-11.2,21.8-17.2c0.5-1.2,0.8-2.4,0.9-3.5c-6.4,4.9-14.9,8.4-23.3,9.2
		C232.3,211.9,232.3,212.1,232.2,212.3z"/>
	<path class="st6" d="M215,221.5c0.6,5.9,3.3,31.1,3.4,36.9c3.3,1,6,0.7,8.8-0.4c0.1-17.9,3.3-38,9.9-54.9c-7.1,1.8-17,1.9-23.6,0.8
		C213.1,208.9,214.5,216.1,215,221.5z"/>
	<path class="st7" d="M225.4,258.6c0.6-0.2,1.3-0.4,1.9-0.6c0.1-14.4,2.3-30.3,6.6-44.8c-3.2,0.3-6.6,0-9.3-1
		c4.8,6.1,4.4,12.1,3,19.1C225.7,240.4,225.6,249.5,225.4,258.6z"/>
	<path class="st0" d="M40,193.6c0.7,6.2,5.1,14.6,8,20.5c2.8,5.6,5.7,11.3,8.9,19.7c0.7,0,2.3,0.6,3,0.6c-0.1-7.3,0.2-13.2-1.2-20.5
		c-3-15.5-4.7-21.2-6.9-28.9C48.1,187.1,44.1,192.2,40,193.6z"/>
	<path class="st9" d="M52.1,186c-0.1-0.3-0.2-0.7-0.3-1.1c-3.7,2.1-7.7,7.2-11.9,8.7c0.7,6.2,5.1,14.6,8,20.5
		c2.8,5.6,5.7,11.3,8.9,19.7c0.2,0,0.4,0,0.7,0.1c-2.3-8.5-4.4-17-7-25.5c-1-3.2-2.8-7.4-1.9-10.9C49.7,193.6,51.8,190.1,52.1,186z"
		/>
	<path class="st5" d="M23.7,188.6c6.2,7.4,13.5,14.5,17.4,22.8c3.2,6.8,7.3,20.2,15.8,22.4c-3.3-11.6-9.8-26.9-12.5-35.4
		C43,193.8,33.5,179.9,23.7,188.6z"/>
	<path class="st5" d="M23.7,188.6C23.7,188.6,23.7,188.6,23.7,188.6l-0.2,0.1C23.6,188.7,23.7,188.7,23.7,188.6z"/>
	<path class="st10" d="M23.7,188.6c0.1,0.2,0.3,0.3,0.4,0.5c0.4,0,0.8,0,1.2,0.2c13.3,5.1,18.5,11.6,22.5,23.6
		c2,6.1,4.7,11.7,7.8,17.4c0.2,0.4,0.4,0.8,0.6,1.3c-3.4-11.3-9.3-25.2-11.8-33.2C43,193.8,33.5,179.9,23.7,188.6z"/>
	<path class="st5" d="M144.7,270.3c-0.4-11.5,4.8-24.7,7.6-35.4c-6.7,0.2-7.9-7.4-9.9-12.2c-2-4.7-3.3-10.8-5-14.8l-0.8-0.3
		c2,5.3,2.1,11.8,3.9,17.5c0.8,2.4,1.5,5,2.7,7.3c0.4,0.9,0.8,1.9,1.5,2.7c0.8,0.8,2.6,0.9,3.1,1.7c0.7,1.3-1.2,4.9-1.7,6.5
		c-0.9,3-1.4,5-1.4,8.1c0,3.5,0.2,7,0,10.4C144.6,264.4,143.5,267.9,144.7,270.3z"/>
	<path class="st0" d="M78.5,187.9c-0.5-2.2-1.1-13.1-1.8-15.3c-2-1.1-5.7-0.9-8-1.6c-1.4-0.4-6.5-1-5.7-0.3l-0.4-0.3
		c0.8,2.1,0,15.7,0,17.9c1.6-0.3,4.4-8.7,6.2-8.5c0.2,4.1,0.9,8.2-0.4,11.7c4.9,2.5,3.1,6.3,2.6,10.4c-0.5,4.8,3.2,2,2.9,6.8
		c-0.3,4-3.9,15.1-3.3,19.1c0,0,3.4,8,3.3,10.4c0,0.3,0.1,0.1,0.4-0.5c-3.2-10.4,0.6-20.7,4.1-30.8c-0.1-2-0.1-4.1,0-6.2
		c0.1-1.5,0.1-2.9,0.2-4.4C77.5,191.1,78.7,193.1,78.5,187.9z"/>
	<path class="st11" d="M306.8,135.1c-9.4-8.8-36.2-20.4-44.3-23.9l-17.8,2.8c2.1-1.4,7-5.1,8.7-6.9c-16.4-15.5-38.2-15.8-51.6-26.2
		c-6.7-5.1-36.8-18-44.8-22.7c-18.3,9.6-31.7,9.5-39.7,18.9c-7.9,9.2-23.7,10.3-34.7,15.9c0.6,1.3,2,4.5,2.7,5.9
		c-14-2.1-31.4,10.9-44.9,18.7c-11.7,6.9-32.2,16.8-32.2,16.8c15.4,14.7,28.6,17.3,44.2,19.3c1.1,2.6-3.1,6.6-1,10.8
		c6.6,13,55.7,18.6,67.4,30.4c2.8,2.8,17.5-3.7,17.5-3.7c0,2.3-6.1,5.6-6.1,5.6c14.5,7.3,21.3,14.7,27.6,13.9
		c6.1-0.8,22.7-9.6,28.1-12.5c10.5-5.7,13.8-11.8,25.1-15.5c13.8-4.6,21-4.8,31.1-15.6c-5.7-0.5-10.8-1.6-16.6-1.5
		c14.3-5.8,31.2-1.7,45.5-9.3C282.3,150.4,293.8,137.3,306.8,135.1z"/>
	<path class="st12" d="M299.2,137.6c-7,1.4-13.4,7-19.3,10.6c-8.4,5.2-15,9.8-25.5,11.1c-6.6,0.8-24.6,2.6-27.6,4.3
		c-2.8,1.5-5.2,2.7-2.2,2.9c7.9,0.6,14.3,2,14.3,2c-14,10.8-29.1,10.2-33.2,12.5c-4.6,2.6-7.9,6.2-11.8,9.5
		c-5.3,4.6-29.2,16.6-36.4,17.8c-5.3,0.9-7.3-4.6-21.4-10.8c-3.3-1.5,4-7.4,4.4-8.7c-5,0.6-9.9,2-14.7,3.8c-2,0.7-6.6,0.6-8.1-0.6
		c-12-10.4-44.2-16.2-52.8-19.4c-4.7-1.8-11.7-5.6-12.3-10.4c-0.4-2.9,1.4-5.2,2.4-7.9c1.5-3.9-6.1-3.1-8.3-3.6
		c-8.3-1.6-30.3-7.8-38.5-16.4c0,0,0,0,0,0c15.4,14.7,28.6,17.3,44.2,19.3c1.1,2.6-3.1,6.6-1,10.8c6.6,13,55.7,18.6,67.4,30.4
		c2.8,2.8,17.5-3.7,17.5-3.7c0,2.3-6.1,5.6-6.1,5.6c14.5,7.3,21.3,14.7,27.6,13.9c6.1-0.8,22.7-9.6,28.1-12.5
		c10.5-5.7,13.8-11.8,25.1-15.5c13.8-4.6,21-4.8,31.1-15.6c-5.7-0.5-10.8-1.6-16.6-1.5c14.3-5.8,31.2-1.7,45.5-9.3
		C280.1,151.6,289.2,142.2,299.2,137.6z"/>
	<path class="st1" d="M296.5,186.4c-0.5,1.7,0.4,5.2-0.2,6.9c0.6-0.5,1.1-1,1.5-1.5c3-3.8,2.7-7,5-11.1c2.3-4.2,4.8-4.2,8-8
		c3.3-3.9-3.2-17.4-3.2-17.4c0-0.1-0.5,0-1.4,0.2c-1.6,3.2-3.7,6.2-6.4,8.4c1.9,3.5,4,8,3.6,8.8
		C300.7,178.7,298.2,182.1,296.5,186.4z"/>
	<path class="st2" d="M283.8,196.5c5.2-8.9,10.4-17.8,12.7-27.7c-5.1,1.1-12.7-0.8-17.9,0c-1.7,1.8,8.3,3.5,9.1,5.4
		c0,0-0.6,4.3-0.8,5.7C285.9,185.5,284.9,191,283.8,196.5z"/>
	<path class="st13" d="M282.1,170.1c1.2-0.5,13.4,0,14.7-0.5c8.5-3.4,8.7-7.4,10.8-10.6c3-4.6-3.5-6.5-11.9-5.8
		c-9.6,9.7-30.4,16.2-45.6,20.4c4.6,4.1,12.2,0.8,15.9,3.1c5.7,3.5,12.3,3,12.3,3s6.8-3.4,9.3-5.4
		C289.1,173.2,279.9,171.1,282.1,170.1z"/>
	<path class="st14" d="M278.4,178.4c-2.7,0.3-9.5-2.9-12.3-3.2c-5.3-0.5-3.4,0.4-8.7-0.5c-1.8-0.3-4.3-1.3-6-1.5
		c-0.4,0.1-0.8,0.2-1.2,0.3c4.6,4.1,12.2,0.8,15.9,3.1c5.7,3.5,12.3,3,12.3,3s6.8-3.4,9.3-5.4c1.3-1-7.8-3.1-5.7-4.1
		c1.2-0.5,13.4,0,14.7-0.5c7.1-2.9,8.4-6.1,9.9-9c-3.6,4.8-7.7,8-20.4,6.6c0,0,0,0-0.1,0c-2.5,0.4-4.9,0.9-7.4,1.7
		c-0.1,0-0.2,0-0.3,0.1c1.4,1.2,2.5,3,4.4,3.5C288.2,174.2,280.4,178.2,278.4,178.4z"/>
	<path class="st13" d="M235.1,197.7c0,0-6,2.9-9,4c-3.6,1.4-8.6,2.9-12.6,2.2c0.3,0.9,1.1,2.5,2,3.4c4.4,4.5,15.1,8.4,21.2,6.3
		c3.9-1.4,17.1-7.2,18.8-10.6C257.8,198.3,239.4,196.3,235.1,197.7z"/>
	<path class="st14" d="M214.9,204.1c-0.4,0-0.9-0.1-1.3-0.2c0.3,0.9,1.1,2.5,2,3.4c4.4,4.5,15.1,8.4,21.2,6.3
		c3.4-1.2,13.7-5.7,17.5-9.1C242.9,212.1,224,214.4,214.9,204.1z"/>
	<path class="st11" d="M28.5,190.4c5.8,1.2,11.2,5,16,8c3.2-3.7,7.4-8,7.4-13.4c-4.1-1.5-9.1-3.6-11.5-6.8
		C31.3,181.6,15.5,188.8,28.5,190.4z"/>
	<path class="st12" d="M42.3,195.3c-2.7-2.2-9.7-4.8-15.7-6c-3.1-0.6-2.6-1.6-2.8-2.1c-0.7,1.4,0.4,2.6,4.7,3.1c5.8,1.2,11.2,5,16,8
		c3.1-3.6,7.1-7.8,7.3-13c-1.4,3.4-2.2,4.5-4.2,7.5C46.7,194.2,43.7,196.4,42.3,195.3z"/>
	<path class="st0" d="M107.7,205.7c-2.3,2.2-3.7,4-5.1,6.7c-3.4,6.7-5.1,11.5-3.2,19.2c2.3,9.2,6,17.9,9.4,26.8
		c2.4,6.1,5.8,17.5,12.1,21.4c2.6-2,5.8-4.2,8-6.5c-4.1-10.3-6.2-23.3-7.5-34.6c-1.3-11.4-3.5-23.3-4.5-34.6
		C114.1,203.1,109.5,204.1,107.7,205.7z"/>
	<path class="st9" d="M117.1,205.5c0-0.5-0.1-0.9-0.2-1.4c-2.8-1-7.5,0-9.3,1.6c-2.3,2.2-3.7,4-5.1,6.7c-3.4,6.7-5.1,11.5-3.2,19.2
		c2.3,9.2,6,17.9,9.4,26.8c2.4,6.1,5.8,17.5,12.1,21.4c2.2-1.7,4.8-3.5,6.9-5.5c-8.2-5.5-8.7-15.7-12.4-24.6
		c-3-7.4-5.5-14.7-5.3-22.6c0.1-7.6,4-13.3,6.4-20.4C116.7,206.2,116.9,205.8,117.1,205.5z"/>
	<path class="st5" d="M102.5,209.8c-3.7-2-9.4-2.8-13.5-5.1c-3.6-2-20.2-8.5-24.5-8.1c0.7,11,12.4,24.6,17.7,36.4
		c5.7,12.7,10.1,20.9,14.1,34c1.4,4.6,12.3,3.7,17.4,12.5l7.2,0.5c0,0-1.5-8.7-2.6-12.1c-1.4-4.3-9.3-30.2-11.3-38.6
		C105.7,223.6,108.2,212.8,102.5,209.8z"/>
	<path class="st10" d="M105.6,213.9c-3,0.8-6.3,0.9-9.6,0.8c9.8,7.9,12.1,22,14.3,33.1c2.2,11,7.1,21.2,9.9,31.9l0.7,0
		c0,0-1.5-8.7-2.6-12.1c-1.4-4.3-9.3-30.2-11.3-38.6C106.1,225.1,107.1,218.4,105.6,213.9z"/>
	<path class="st11" d="M78.8,186.4c-4.7,3.9-8.8,4.1-13.2,7.6c-4.6,3.7,7.3,16,14.1,19c7.1,3.2,16.6,3.7,24.4,3
		c7.1-0.7,13.3-12.4,13.3-12.4c-4.2-2.5-13.3-3.4-19.7-7.2C89.1,191.5,78.8,186.4,78.8,186.4z"/>
	<path class="st12" d="M65.6,194c-4.6,3.7,7.3,16,14.1,19c7.1,3.2,16.6,3.7,24.4,3c5.6-0.5,10.7-8,12.5-11.1
		c-9.4,10.1-17.9,11.4-35.4,5.9c-5.3-1.7-17.3-8.5-14.3-17.7C66.4,193.4,66,193.7,65.6,194z"/>
</g>
<g>
	<g>
		<path class="st15" d="M151,172.7c-2.3,0-4.1-1-4.1-2.2V21.4c0-1.2,1.8-2.2,4.1-2.2c2.3,0,4.1,1,4.1,2.2v149.1
			C155.1,171.7,153.3,172.7,151,172.7z"/>
		<path class="st16" d="M150.1,169.5c-1.1,0-2.1-1-2.1-2.1V23.1c0-1.2,0.9-2.1,2.1-2.1c1.1,0,2.1,1,2.1,2.1v144.3
			C152.1,168.5,151.2,169.5,150.1,169.5z"/>
	</g>
	<g>
		<rect x="75.6" y="160.7" class="st17" width="150.8" height="12.9"/>
		<rect x="75.6" y="167.2" class="st15" width="150.8" height="6.5"/>
	</g>
	<path class="st18" d="M216.3,160.7C216.3,160.7,216.3,160.7,216.3,160.7l-130.7-0.1c-2.9,0-5.2-2.6-5.2-5.8c0-3.2,2.3-5.7,5.2-5.7
		h0l130.7,0.1c2.9,0,5.2,2.6,5.2,5.8C221.5,158.2,219.2,160.7,216.3,160.7z"/>
	<path class="st19" d="M214.9,159.8C214.9,159.8,214.9,159.8,214.9,159.8l-127.7-0.1c-2.8,0-5.1-2.2-5.1-4.9c0-2.7,2.3-4.9,5.1-4.9
		h0l127.7,0.1c2.8,0,5.1,2.2,5.1,4.9C220,157.6,217.7,159.8,214.9,159.8z"/>
	<path class="st20" d="M120.6,153.9L120.6,153.9l-34.5,0c-0.8,0-1.4-0.6-1.4-1.3c0-0.7,0.6-1.3,1.4-1.3c0,0,0,0,0,0l34.5,0
		c0.8,0,1.4,0.6,1.4,1.3C122,153.4,121.4,153.9,120.6,153.9z"/>
	<g>
		<path class="st21" d="M207.5,148.9C207.5,148.9,207.5,148.9,207.5,148.9l-113-0.1c-2.9,0-5.2-2.6-5.2-5.8c0-3.2,2.3-5.8,5.2-5.8h0
			l113,0.1c2.9,0,5.2,2.6,5.2,5.8C212.7,146.4,210.4,148.9,207.5,148.9z"/>
		<path class="st22" d="M206.6,148L206.6,148l-111.1-0.1c-2.8,0-5.1-2.2-5.1-4.8c0-2.7,2.3-4.8,5.1-4.8c0,0,0,0,0,0l111.1,0.1
			c2.8,0,5.1,2.2,5.1,4.9C211.7,145.9,209.4,148,206.6,148z"/>
		<path class="st22" d="M120,142L120,142l-25,0c-0.6,0-1.2-0.5-1.2-1.1c0-0.6,0.5-1.1,1.2-1.1l0,0l25,0c0.6,0,1.2,0.5,1.2,1.1
			C121.1,141.5,120.6,142,120,142z"/>
	</g>
	<g>
		<path class="st23" d="M198.5,137.1C198.5,137.1,198.5,137.1,198.5,137.1l-95.1-0.1c-2.9,0-5.2-2.6-5.2-5.8c0-3.2,2.3-5.7,5.2-5.7
			c0,0,0,0,0,0l95.1,0.1c2.9,0,5.2,2.6,5.2,5.8C203.8,134.6,201.4,137.1,198.5,137.1z"/>
		<path class="st24" d="M197.4,136.3L197.4,136.3l-92.8-0.1c-2.8,0-5.1-2.2-5.1-4.8c0-2.7,2.3-4.8,5.1-4.8c0,0,0,0,0,0l92.8,0.1
			c2.8,0,5.1,2.2,5.1,4.8C202.5,134.2,200.2,136.3,197.4,136.3z"/>
		<path class="st25" d="M126.7,129.8L126.7,129.8l-22.1,0c-0.7,0-1.2-0.5-1.2-1.1c0-0.6,0.5-1.1,1.2-1.1h0l22.1,0
			c0.7,0,1.2,0.5,1.2,1.1C127.9,129.3,127.4,129.8,126.7,129.8z"/>
	</g>
	<g>
		<path class="st26" d="M191.6,125.4L191.6,125.4l-81.2-0.1c-2.9,0-5.2-2.6-5.2-5.8c0-3.2,2.3-5.7,5.2-5.7c0,0,0,0,0,0l81.2,0.1
			c2.9,0,5.2,2.6,5.2,5.8C196.8,122.8,194.5,125.4,191.6,125.4z"/>
		<path class="st27" d="M190.5,124.2L190.5,124.2l-79-0.1c-2.8,0-5.1-2.1-5.1-4.7c0-2.6,2.3-4.7,5.1-4.7c0,0,0,0,0,0l79,0.1
			c2.8,0,5.1,2.1,5.1,4.7C195.6,122.2,193.3,124.2,190.5,124.2z"/>
		<path class="st28" d="M132.7,118.8L132.7,118.8l-21.8,0c-0.8,0-1.4-0.6-1.4-1.3c0-0.7,0.6-1.3,1.4-1.3l0,0l21.8,0
			c0.8,0,1.4,0.6,1.4,1.3C134.1,118.2,133.5,118.8,132.7,118.8z"/>
	</g>
	<g>
		<path class="st29" d="M183.9,113.6L183.9,113.6l-65.7-0.1c-2.9,0-5.2-2.6-5.2-5.8c0-3.2,2.3-5.8,5.2-5.8h0l65.7,0.1
			c2.9,0,5.2,2.6,5.2,5.8C189.1,111,186.7,113.6,183.9,113.6z"/>
		<path class="st30" d="M182.6,112.8L182.6,112.8l-63.2-0.1c-2.8,0-5-2.2-5-5c0-2.8,2.2-5,5-5c0,0,0,0,0,0l63.2,0.1c2.8,0,5,2.2,5,5
			C187.6,110.6,185.3,112.8,182.6,112.8z"/>
		<path class="st31" d="M135.1,106.6L135.1,106.6l-16.2,0c-0.7,0-1.3-0.6-1.3-1.3c0-0.7,0.6-1.3,1.3-1.3l0,0l16.2,0
			c0.7,0,1.3,0.6,1.3,1.3C136.4,106,135.8,106.6,135.1,106.6z"/>
	</g>
	<g>
		<path class="st32" d="M178.6,101.9C178.6,101.9,178.6,101.9,178.6,101.9l-55.2-0.1c-2.9,0-5.2-2.6-5.2-5.8c0-3.2,2.3-5.8,5.2-5.8
			h0l55.2,0c2.9,0,5.2,2.6,5.2,5.8C183.8,99.3,181.5,101.9,178.6,101.9z"/>
		<path class="st33" d="M177.5,101.3C177.5,101.3,177.5,101.3,177.5,101.3l-53.4,0c-2.8,0-5-2.3-5-5.1c0-2.8,2.3-5.1,5-5.1
			c0,0,0,0,0,0l53.4,0c2.8,0,5,2.3,5,5.1C182.5,99,180.3,101.3,177.5,101.3z"/>
		<path class="st34" d="M136.2,94L136.2,94l-12.3,0c-0.6,0-1.2-0.5-1.2-1.2c0-0.6,0.5-1.2,1.2-1.2l0,0l12.3,0c0.6,0,1.2,0.5,1.2,1.2
			C137.4,93.5,136.9,94,136.2,94z"/>
	</g>
	<g>
		<path class="st35" d="M173.1,90.1C173.1,90.1,173.1,90.1,173.1,90.1l-44.1,0c-2.9,0-5.2-2.6-5.2-5.8c0-3.2,2.3-5.7,5.2-5.7
			c0,0,0,0,0,0l44.1,0c2.9,0,5.2,2.6,5.2,5.8C178.3,87.6,175.9,90.1,173.1,90.1z"/>
		<path class="st36" d="M172,89.2L172,89.2l-42.1,0c-2.7,0-5-2.2-5-4.9c0-2.7,2.2-4.8,5-4.8h0l42.1,0c2.7,0,5,2.2,5,4.8
			C177,87,174.8,89.2,172,89.2z"/>
		<path class="st37" d="M138.5,82.7L138.5,82.7l-9.6,0c-0.6,0-1.1-0.5-1.1-1.1c0-0.6,0.5-1.1,1.1-1.1l0,0l9.6,0
			c0.6,0,1.1,0.5,1.1,1.1C139.6,82.2,139.1,82.7,138.5,82.7z"/>
	</g>
	<g>
		<path class="st38" d="M163.5,66.7L163.5,66.7l-25.1,0c-2.9,0-5.2-2.6-5.2-5.8c0-3.2,2.3-5.8,5.2-5.8c0,0,0,0,0,0l25.1,0
			c2.9,0,5.2,2.6,5.2,5.8C168.8,64.1,166.4,66.7,163.5,66.7z"/>
		<path class="st39" d="M162.7,65.9C162.7,65.9,162.7,65.9,162.7,65.9l-23.3,0c-2.7,0-4.8-2.3-4.8-5.1c0-2.8,2.2-5.1,4.9-5.1h0
			l23.3,0c2.7,0,4.9,2.3,4.9,5.1C167.5,63.6,165.3,65.9,162.7,65.9z"/>
		<path class="st40" d="M144.9,59.3L144.9,59.3l-6.4,0c-0.7,0-1.3-0.7-1.3-1.5c0-0.8,0.6-1.5,1.3-1.5l0,0l6.4,0
			c0.7,0,1.3,0.7,1.3,1.5C146.2,58.6,145.6,59.3,144.9,59.3z"/>
	</g>
	<g>
		<path class="st41" d="M173.3,31.7c0,12.3-10,22.3-22.3,22.3c-12.3,0-22.3-10-22.3-22.3c0-12.3,10-22.3,22.3-22.3
			C163.3,9.4,173.3,19.4,173.3,31.7z"/>
		<path class="st42" d="M169.4,30c0,10.1-8.2,18.3-18.3,18.3c-10.1,0-18.3-8.2-18.3-18.3c0-10.1,8.2-18.3,18.3-18.3
			C161.2,11.7,169.4,19.9,169.4,30z"/>
		<path class="st43" d="M155.2,23.4c0,4.6-3.7,8.4-8.3,8.4c-4.6,0-8.4-3.7-8.4-8.4c0-4.6,3.7-8.4,8.4-8.4
			C151.5,15,155.2,18.7,155.2,23.4z"/>
		<path class="st43" d="M140,32.3c0,1.3-1,2.3-2.3,2.3c-1.3,0-2.3-1-2.3-2.3c0-1.3,1-2.3,2.3-2.3C138.9,30,140,31,140,32.3z"/>
	</g>
	<g>
		<path class="st44" d="M167.7,78.4C167.7,78.4,167.7,78.4,167.7,78.4l-33.4,0c-2.9,0-5.2-2.6-5.2-5.8c0-3.2,2.3-5.8,5.2-5.8
			c0,0,0,0,0,0l33.4,0c2.9,0,5.2,2.6,5.2,5.8C172.9,75.8,170.6,78.4,167.7,78.4z"/>
		<path class="st45" d="M166.9,77.5C166.9,77.5,166.9,77.5,166.9,77.5l-31.9,0c-2.7,0-5-2.2-5-4.9c0-2.7,2.2-4.9,5-4.9c0,0,0,0,0,0
			l31.9,0c2.7,0,5,2.2,5,4.9C171.9,75.3,169.7,77.5,166.9,77.5z"/>
		<path class="st46" d="M140.3,71.6L140.3,71.6l-6.4,0c-0.7,0-1.3-0.7-1.3-1.5c0-0.8,0.6-1.5,1.3-1.5l0,0l6.4,0
			c0.7,0,1.3,0.7,1.3,1.5C141.7,70.9,141.1,71.6,140.3,71.6z"/>
	</g>
</g>
</svg>
