<?xml version="1.0" encoding="utf-8"?>
<!-- Generator: Adobe Illustrator 24.2.0, SVG Export Plug-In . SVG Version: 6.00 Build 0)  -->
<svg version="1.1" id="Layer_1" xmlns="http://www.w3.org/2000/svg" xmlns:xlink="http://www.w3.org/1999/xlink" x="0px" y="0px"
	 viewBox="0 0 320 306.2" style="enable-background:new 0 0 320 306.2;" xml:space="preserve">
<style type="text/css">
	.st0{fill:#8D1E5A;}
	.st1{fill:#5E0E3E;}
	.st2{fill:#4A1425;}
	.st3{fill:#C31C6F;}
	.st4{fill:#671140;}
	.st5{fill:#9C2063;}
	.st6{fill:#791646;}
	.st7{fill:#A32167;}
	.st8{fill:#4C112E;}
	.st9{fill:#AF1F63;}
	.st10{fill:#ED3487;}
	.st11{fill:#EC5F2D;}
	.st12{fill:#F397BB;}
	.st13{fill:#D41674;}
	.st14{fill:#E66E9F;}
	.st15{fill:#88442E;}
	.st16{fill:#FFBD00;}
	.st17{fill:#FFA000;}
	.st18{opacity:0.19;fill:#94160F;}
	.st19{fill:#833B22;}
	.st20{fill:#24B464;}
	.st21{fill:#009E5B;}
	.st22{fill:#E4FB00;}
	.st23{fill:#D1D100;}
	.st24{fill:#1BD4EF;}
	.st25{fill:#00B2CA;}
	.st26{fill:#FF67B1;}
	.st27{fill:#FF50A6;}
	.st28{opacity:0.27;fill:#94160F;}
	.st29{fill:#5D1807;}
	.st30{fill:#FFFFFF;}
	.st31{fill:none;stroke:#5D1807;stroke-width:1.3587;stroke-linecap:round;stroke-linejoin:round;stroke-miterlimit:10;}
</style>
<g>
	<path class="st0" d="M305.1,135.6l-3.6-1.1c-9.8-2.4-21-2.5-31.3-2.9c-22.9-1.1-44.8,2.3-65.2,11c-21.4,9.1-45.6,26-53.5,46.9
		c-5.5,14.7-9.6,31.8-6.9,47.3c2.8,16.5,12.7,32.8,12.5,49.5c10.4-2,18.5-13.1,29.4-16.3c0,0,8.3,4.9,19.2-3.4
		c14.6-11.1,29.3-24,46.6-28.3c19.2-4.7,26.9-22.6,37.1-28.1c8.3-17-2.3-20.6,5.7-33.3C305.1,161,299.6,149.2,305.1,135.6z"/>
	<path class="st1" d="M205.5,266.6c5.1-3.9,10.2-8,15.4-11.8c0.4-6.3,1.6-12.6,2.7-18.9c1.3-7.4,3.1-16.2-0.3-23.3
		c-1.5-3.1-10.5-9.1-10.5-9.1c-3,7.8-3.3,23.4-5.6,31.4c-2.2,7.7-4.2,15.4-5.6,23.2c-0.5,2.8-1,5.7-1.2,8.5
		c-0.1,1.7,0.1,2.4,0.1,2.4c0.1,0.1,0.2,0.3,0.3,0.4C202.4,268.7,203.9,267.8,205.5,266.6z"/>
	<path class="st2" d="M213.4,210.4c-0.1,18.6-0.7,39.8-6.5,55.1c3.6-2.8,7.2-5.6,10.8-8.4c0.8-5.3,1.8-10.6,2.7-16
		C221.9,232.7,215.4,217.7,213.4,210.4z"/>
	<path class="st1" d="M272.2,199.5c-2.5,9.9-2.8,20.1-3.7,30.3c8.5-7.1,14.1-16,20.8-19.5c8.3-17-2.3-20.6,5.7-33.3
		c10.1-16,4.6-27.8,10.1-41.4l-3.6-1.1c-0.3-0.1-0.6-0.1-0.9-0.2c-6.1,3-11.9,6.3-17.7,9.8c4.2,0.1,8,1,12,2.2
		c4.4,1.3,5.4,5.8,3.3,8.5C293.7,171.7,276.4,182.6,272.2,199.5z"/>
	<path class="st2" d="M299.9,166.4c-5.1,7.8-10.9,15.3-16.8,22.8c-3.2,10.6-6.7,21.2-9.7,31.9c5.4-8.3,11.8-15.7,19.1-22.5
		c0.4-8-3.3-12.4,2.4-21.5C297.3,173.3,298.9,169.7,299.9,166.4z"/>
	<path class="st1" d="M155.6,205c-0.4,0-0.8,0-1.2,0c-0.9,19.5-1.2,39.1-1.9,58.6c2.5,7.5,4.5,15.1,4.4,22.7c4.9-1,9.3-3.9,13.7-7.1
		c-0.1-1.2-0.2-2.5-0.3-3.7c-0.4-5.8-0.7-11.8-2.9-17.3c-1.8-4.6-5.1-9.1-6.1-14c-3.3-16.3,3.6-29.5,14.6-41.4
		C169.4,203.7,162.6,204.1,155.6,205z"/>
	<path class="st1" d="M230.5,248.1c3.9-2.5,7.9-4.7,12-6.5c0.3-4.2,0.7-8.3,1.3-12.5c1.5-10.1,5-18.3,8.8-27.8
		c3.4-8.5,1-17.5,4.3-25.9c2.6-6.6,6.1-12.5,8-19c-4.4,2.3-10,3.7-14.6,3.6c-5.6-0.1-11.3-0.8-16.7,0.9c0.3-0.1-15.8,3.3-11.8,4.9
		c1,0.1,5.4,1.2,6.3,1.5c0.5,0.2,13-0.2,13-0.2c-9.1,19-7.2,47-8.9,67.2C231.7,239.1,231.2,243.6,230.5,248.1z"/>
	<path class="st2" d="M230.5,248.1c1-0.6,2-1.2,3-1.8c0.5-8.1,1.8-16.1,2.8-24.2c1.1-8.7,1.5-17.5,3.5-26.1
		c3.4-14.8,7.3-25.2,20.7-35.1c1.1-0.8,2.2-1.2,3.4-1.3c0.4-1,0.7-2,1-3.1c-4.4,2.3-10,3.7-14.6,3.6c-5.6-0.1-11.3-0.8-16.7,0.9
		c0.3-0.1-15.8,3.3-11.8,4.9c1,0.1,5.4,1.2,6.3,1.5c0.5,0.2,13-0.2,13-0.2c-9.1,19-7.2,47-8.9,67.2
		C231.7,239.1,231.2,243.6,230.5,248.1z"/>
	<path class="st1" d="M193.7,223.5c4.5-10.8,2.9-21.6,11.2-32.3c1.9-2.5,14.8-16,15.3-18.8c-9.4,3.2-36.7,19.7-41.8,27.6
		c1.1,8.6,2.2,17.3,2.1,26.1c-0.1,8.8-1.3,17.4,0,26.2c1,6.5,2.3,12.9,3.4,19.4c0.9-0.4,1.8-0.8,2.8-1.2c-0.7-6.9,1.2-13.6,2.3-20.5
		C190.5,240.8,190.1,232.3,193.7,223.5z"/>
	<path class="st2" d="M202.9,183.9c0.1-0.4,0.1-0.8,0.2-1.3c-9.5,3-19,9.1-24.3,16.9c1,8.7,1.9,17.4,1.6,26.1
		c-0.2,8.8-1.6,17.4-0.5,26.2c0.8,6.5,2.1,12.9,3,19.4c0.8-0.4,1.6-0.7,2.5-1c-0.7-16.2-1-32.5-0.3-48.7
		C185.7,206.1,194,196.5,202.9,183.9z"/>
	<path class="st3" d="M154.5,190.7c-7.9-19-40.3-36-60.1-44.2c-19.9-8.2-46.8-8.1-68.3-9.1c-5.8-0.3-10.5-0.5-15.6-2
		c0,15.2,0.6,31.4,8.7,44.4c3.3,5.4,6.9,25.6,13.9,37.2c4.7,7.8,9.5,6,17,8.7c11.8,4.2,17.6,18.8,37.5,28.4
		c7.1,3.4,11.6,12.2,26.3,16.5c8.5,2.5,18.8,0.8,18.8,0.8c8.6,3,8.9,10.1,24.3,14.7c0.5-15.1-1-30.7-1-46.8
		C155.9,225,160.1,204.1,154.5,190.7z"/>
	<path class="st4" d="M74.9,246.3c3.5,2.8,7.6,5.5,12.6,8c4.3,2.1,7.6,6.1,12.8,9.9c-3.8-8.2-7.3-16.4-9.7-24.9
		c-3.1-11.1-4.2-22.9-7.7-33.9c0,0.1,0,0.2-0.1,0.3c1.8,5.6,2.6,12.5,1.8,19.3C84.7,234.3,82.5,243,74.9,246.3z"/>
	<path class="st5" d="M155.5,207.1c-2.6-1.8-6.7-4.5-10.1-5.3c0,0.2,0.1,0.5,0.1,0.8c0.1,0.4,0.3,0.8,0.4,1.1
		c0.5,0.3,0.9,0.7,1.3,1.2c10,12.3,6,27.2,6.5,41.3c0.5,12.1,2.3,24.2,3.2,36.2c0.2-13.9-1.1-28.2-1.1-43c0-9.2,1.6-20.8,1.5-31.6
		C156.8,207.8,156.1,207.5,155.5,207.1z"/>
	<path class="st5" d="M144.2,280c-1-10-2.3-20.1-2.8-30.2c-0.2-4.6,0.3-9.6,0.5-14.7c-2.9-8.4-6-16.7-7.2-25.4
		c-2.5-6.1-4.6-13,0.3-16.4c1.3-0.9,2.7-1.5,4.1-2c-0.9-0.5-1.8-0.9-2.9-1.2c-3.7,1.9-7.7,3.1-11.9,3.8c7.2,17.6,10.4,36,10,54.5
		c0.1,0.2,0.2,0.3,0.2,0.5c1.1,3.2,0.3,6.9-0.5,10.1c0.1,0.3,0.1,0.6,0.1,0.9c0,4.1-0.2,8.1-0.8,11.9
		C138,273.7,140.2,276.8,144.2,280z"/>
	<path class="st5" d="M12.4,136c-0.7-0.1-1.3-0.3-2-0.5c0,15.2,0.6,31.4,8.7,44.4c3.3,5.4,6.9,25.6,13.9,37.2
		c2.7,4.5,5.5,5.8,8.8,6.6c-7.1-12.9-19.9-32.5-12.1-45.5c-4.5-2.8-11.2-9.8-11.2-9.8c0,1.2-3.2-7.6-3.8-17.1
		c-0.2-4.3-0.2-8.7,0.4-13C14.1,137.6,13.2,136.8,12.4,136z"/>
	<path class="st5" d="M64,236.4c0.3-6.8,0.9-13.5,0.9-20.3c0.1-15.4-7.6-30.4-1.1-45.4c-1.5-1.2-2.6-2.5-3.7-3.8
		c-3.8-1.9-7.2-4.5-11.1-6c-0.1,2.2-0.3,4.3-0.6,6.4c0,0.2,0.1,0.5,0.1,0.7c3.5,8.6,5.2,17.5,6.9,26.6c0.2,0.4,0.4,0.9,0.5,1.4
		c0.5,2.2,0.9,4.3,1.3,6.5c0.5,0.7,0.9,1.6,0.9,2.7c0.6,9,1.7,17.8,1,26.7C60.8,233.2,62.4,234.7,64,236.4z"/>
	<path class="st6" d="M56.1,150.2c-5.5-0.8-19.1-2.3-20.4-2.3c1,8.7,1.9,17.5,4.5,26c2.8,9,8,16.9,11.4,25.6
		c4,10.5,6.1,21.4,7.7,32.3c1,0.9,1.9,1.8,2.9,2.7c-0.5-17.7-1.5-35.4-5.8-52.6c-2.4-9.9-3.6-13.1-4.5-19.4
		C52.9,161.4,57.1,150.4,56.1,150.2z"/>
	<path class="st1" d="M56.1,150.2c-5.5-0.8-36.4-9.3-37.7-9.3c4.1,6.3,14.9,11,18.8,11.9c10,3.1,9.9,8.8,11.7,15.7
		c2.4,9,4.7,18,6.8,27.1c2.7,11.8,5.6,25.1,5.4,37.9c0.4,0.3,0.7,0.6,1.1,1c-0.5-17.7-1.5-35.4-5.8-52.6c-2.4-9.9-3.3-13.4-4.2-19.7
		C53.1,161.1,57.1,150.4,56.1,150.2z"/>
	<path class="st6" d="M148.7,186c-10.2,0.3-41.7-3.9-39.3,1.7c7.1,9.1,14.5,22.5,19.3,48.1c2.2,12,2.4,23.7,3.9,35.8
		c0.6,0.2,2.2,1,2.7,1.2c0.7-6.4,1.7-12.8,2.3-19.4c1.7-18.3-5.2-38.8-7.1-57C130.6,196.5,145.4,189.7,148.7,186z"/>
	<path class="st1" d="M148.7,186c-10.2,0.3-58.5-16.4-68.1-13.4l11.7,7.3c10.4,3.5,27,16.2,26.9,16.6c2.4,1.3,11.2,19.4,12.9,26.9
		c3.5,15.5,5.1,33,1.8,48.7c0.5,0.2,0.9,0.4,1.4,0.7c0.7-6.4,1.7-12.8,2.3-19.4c1.7-18.3-5.2-38.8-7.1-57
		C130.6,196.5,145.4,189.7,148.7,186z"/>
	<path class="st7" d="M245.9,188.3c-0.8,5.8,2.4,35.2,0.6,40.7c6.2-0.2,4.7-1.5,10.9-2c5-0.4,16.2-23.2,21.1-24.8
		c4.9-1.6,14.6-6.8,17.6-10.7c2.9-3.8,2.7-6.9,5-11c2.3-4.2,4.7-4.1,7.9-7.8c3.3-3.8-3.2-17.1-3.2-17.1l-24.6,7.8
		c-2.6,1-5.3,1.8-8,2.7c-1.4,0.5-2.9,1-4.3,1.5c-5.7,2.1-11.5,4.1-17.5,5.7c-0.2,0.1-0.4,0.1-0.5,0.1c-0.5,0.2-0.9,0.2-1.3,0.1
		l-0.5,0.2c0,0,0.2,5.9-0.1,7.4C248.4,183.6,246.3,185.5,245.9,188.3z"/>
	<path class="st3" d="M258.5,213.4c-1.4,4.6-2.6,9.2-3.3,13.9c0.6-0.1,1.3-0.2,2.2-0.3c0.6,0,1.2-0.4,1.9-0.9
		c2.3-8.7,7-16.5,11.8-24.6c3.5-6,6.3-12.1,8.8-18.5c1.1-2.9,3.1-4.5-2.6-4.9c-3-0.2-6-0.4-9-0.5c4,4.6,7.5,8.1,3.9,14.7
		C268.2,199.4,260.9,205.6,258.5,213.4z"/>
	<path class="st6" d="M257.9,226.9c5.2-1.7,15.9-23.1,20.6-24.7c4.9-1.6,14.6-6.8,17.6-10.7c2.9-3.8,2.7-6.9,5-11
		c2.3-4.2,4.7-4.1,7.9-7.8c3.3-3.8-3.2-17.1-3.2-17.1c0-0.7-16.1,5.1-28.6,14c-2.6,2.6-0.3,9.4-0.3,10.1c0.5,8.5-1.3,13-8.6,22.4
		C262.4,209.6,259.5,218,257.9,226.9z"/>
	<path class="st1" d="M257.9,226.9c2.3-0.8,5.7-5.4,9.2-10.5c-2.6-8.7,4.7-16.9,10.9-24.1c1.9-5.5,3.5-11.1,6.5-16.2
		c-0.1,0-0.2-0.1-0.2-0.2c-0.6-0.4-1.2-0.8-1.9-1.2c-1.9-0.5-4.2,0.3-6.3,0.7c0.3,2,0.8,3.8,0.8,4.1c0.5,8.5-1.3,13-8.6,22.4
		C262.4,209.6,259.5,218,257.9,226.9z"/>
	<path class="st6" d="M231.1,254.3c3.3-2.1,5-15.2,7.6-24.5c2.2-8.2,15.6-19.7,15.9-28.1l-0.5,0.4c-6.3-4.6-13.3,0.5-18.8,2.3
		c-7.4,2.5-15.4,0.3-22.4-0.9c-0.5,4.9,0.9,12,1.5,17.3c0.6,5.9,3.2,30.7,3.4,36.4C222.7,258.7,226.4,257.3,231.1,254.3z"/>
	<path class="st1" d="M232.1,222.5c3.8-8.4,14.5-11.1,21.6-17c0.5-1.2,0.8-2.3,0.9-3.4c-6.3,4.9-14.8,8.3-23,9.1
		c0,0.2,0,0.4-0.1,0.6c-5,14.9-6.2,30.2-6.6,45.6c1.5-0.4,3.1-1.1,4.7-2.1c0-6.8,0.5-13.5,0.9-20.3
		C230.7,231.1,230.4,226.2,232.1,222.5z"/>
	<path class="st7" d="M226.4,256.8c0.1-17.6,3.2-37.4,9.8-54.1c-7,1.8-16.8,1.9-23.3,0.8c-0.5,4.9,0.9,12,1.5,17.3
		c0.6,5.9,3.2,30.7,3.4,36.4C221,258.2,223.7,257.9,226.4,256.8z"/>
	<path class="st3" d="M224.6,257.4c0.6-0.2,1.2-0.4,1.9-0.6c0.1-14.2,2.2-29.9,6.5-44.2c-3.2,0.3-6.5,0-9.2-1c4.7,6,4.3,11.9,3,18.8
		C224.9,239.4,224.8,248.4,224.6,257.4z"/>
	<path class="st4" d="M41.4,193.3c0.6,6.1,5,14.4,7.9,20.2c2.8,5.5,5.6,11.1,8.8,19.4c0.7,0,2.2,0.6,2.9,0.6
		c-0.1-7.2,0.2-13.1-1.2-20.2c-3-15.3-4.7-20.9-6.8-28.5C49.5,186.9,45.5,191.9,41.4,193.3z"/>
	<path class="st8" d="M53.4,185.8c-0.1-0.3-0.2-0.7-0.3-1c-3.7,2.1-7.6,7.1-11.7,8.6c0.6,6.1,5,14.4,7.9,20.2
		c2.8,5.5,5.6,11.1,8.8,19.4c0.2,0,0.4,0,0.7,0.1c-2.3-8.4-4.3-16.8-7-25.2c-1-3.2-2.8-7.3-1.9-10.7C51,193.3,53.1,189.8,53.4,185.8
		z"/>
	<path class="st6" d="M25.4,188.4c6.1,7.3,13.3,14.3,17.2,22.5c3.2,6.7,7.2,19.9,15.6,22c-3.2-11.4-9.7-26.5-12.3-34.9
		C44.4,193.5,35.1,179.8,25.4,188.4z"/>
	<path class="st9" d="M25.4,188.4c0.1,0.2,0.3,0.3,0.4,0.5c0.4,0,0.8,0,1.2,0.2c13.2,5,18.3,11.5,22.2,23.3c2,6,4.7,11.5,7.8,17.2
		c0.2,0.4,0.4,0.8,0.6,1.3c-3.4-11.1-9.2-24.8-11.7-32.8C44.4,193.5,35.1,179.8,25.4,188.4z"/>
	<path class="st6" d="M144.9,268.9c-0.4-11.3,4.8-24.4,7.5-34.9c-6.7,0.2-7.8-7.2-9.8-12c-1.9-4.6-3.2-10.6-4.9-14.6l-0.8-0.3
		c2,5.3,2.1,11.6,3.9,17.2c0.8,2.4,1.5,4.9,2.6,7.2c0.4,0.8,0.8,1.9,1.5,2.6c0.8,0.8,2.6,0.9,3,1.7c0.7,1.3-1.2,4.9-1.7,6.4
		c-0.9,2.9-1.4,4.9-1.4,8c0,3.4,0.2,6.9,0,10.3C144.8,263.1,143.7,266.5,144.9,268.9z"/>
	<path class="st4" d="M79.5,187.7c-0.5-2.2-1.1-13-1.8-15.1c-2-1.1-5.7-0.9-7.9-1.6c-1.4-0.4-6.4-1-5.7-0.3l-0.4-0.3
		c0.8,2.1,0,15.4,0,17.6c1.6-0.3,4.4-8.5,6.1-8.4c0.2,4.1,0.9,8.1-0.4,11.6c4.8,2.5,3,6.2,2.6,10.3c-0.5,4.7,3.2,2,2.8,6.7
		c-0.3,3.9-3.9,14.9-3.3,18.8c0,0,3.4,7.9,3.3,10.3c0,0.3,0.1,0.1,0.4-0.5c-3.1-10.3,0.6-20.4,4.1-30.4c-0.1-2-0.1-4,0-6.1
		c0.1-1.4,0.1-2.9,0.2-4.3C78.5,190.9,79.7,192.9,79.5,187.7z"/>
	<path class="st10" d="M252.3,108c-16.2-15.3-37.7-15.6-51-25.8c-6.6-5.1-36.4-17.8-44.3-22.4c-18.1,9.5-31.4,9.4-39.2,18.6
		c-7.8,9.1-23.4,10.2-34.3,15.7c0.6,1.3,2,4.4,2.7,5.8c-13.8-2.1-31,10.7-44.3,18.5C30.2,125.2,10,135,10,135
		c15.2,14.5,28.3,17.1,43.7,19.1c1.1,2.5-3,6.5-0.9,10.6c6.5,12.8,55.1,18.4,66.6,29.9c2.8,2.8,17.3-3.6,17.3-3.6
		c0,2.3-6.1,5.5-6.1,5.5c14.3,7.2,21.1,14.5,27.2,13.7c6-0.8,22.4-9.4,27.7-12.3c10.4-5.7,13.7-11.6,24.8-15.3
		c13.6-4.5,20.8-4.7,30.7-15.4c-5.6-0.5-10.6-1.6-16.4-1.5c14.1-5.7,30.8-1.7,45-9.1c11.2-5.9,22.6-18.8,35.4-21
		c-4.4-4.1-15.7-11.6-43.8-23.5l-17.6,2.7C245.7,113.4,250.6,109.8,252.3,108z"/>
	<path class="st11" d="M87,179.2c-3.1-0.4-6.1-0.8-9.2-1.3c-0.3,0-0.7,0-1,0c3.9,1.3,8.1,2.5,12.2,3.8c-0.2-0.1-0.4-0.2-0.7-0.3
		C87.4,180.7,87,180,87,179.2z"/>
	<path class="st12" d="M193.5,190.4c-5.2,4.5-28.8,16.4-35.9,17.5c-5.3,0.9-7.2-4.5-21.1-10.7c-3.3-1.4,3.9-7.2,4.4-8.6
		c-5,0.6-9.7,2-14.6,3.7c-2,0.7-6.5,0.6-8-0.6c-11.9-10.3-43.7-16-52.2-19.1c-4.7-1.8-11.6-5.5-12.2-10.2c-0.4-2.8,1.4-5.2,2.3-7.8
		c1.4-3.9-6-3.1-8.2-3.5c-8.2-1.5-29.9-7.7-38-16.1c0,0,0,0,0,0c15.2,14.5,28.3,17.1,43.7,19.1c1.1,2.5-3,6.5-0.9,10.6
		c6.5,12.8,55.1,18.4,66.6,29.9c2.8,2.8,17.3-3.6,17.3-3.6c0,2.3-6.1,5.5-6.1,5.5c14.3,7.2,21.1,14.5,27.2,13.7
		c6-0.8,22.4-9.4,27.7-12.3c10.4-5.7,13.7-11.6,24.8-15.3c13.6-4.5,20.8-4.7,30.7-15.4c-5.6-0.5-10.6-1.6-16.4-1.5
		c14.1-5.7,30.8-1.7,45-9.1c9-4.7,18.1-13.9,27.9-18.5c-7,1.4-13.3,6.9-19.1,10.5c-8.3,5.2-14.9,9.7-25.2,10.9
		c-6.5,0.8-24.3,2.6-27.3,4.2c-2.7,1.5-5.2,2.7-2.1,2.9c7.8,0.6,14.1,2,14.1,2c-13.8,10.7-28.7,10.1-32.8,12.4
		C200.5,183.5,197.3,187.1,193.5,190.4z"/>
	<path class="st2" d="M282.4,196.2c5.1-8.8,10.3-17.5,12.5-27.3c-5,1.1-12.5-0.8-17.7,0c-1.7,1.7,8.2,3.4,9,5.3c0,0-0.6,4.2-0.8,5.6
		C284.4,185.3,283.4,190.8,282.4,196.2z"/>
	<path class="st13" d="M235.8,213c3.9-1.4,16.9-7.1,18.6-10.4c2.3-4.7-15.9-6.6-20.2-5.2c0,0-6,2.9-8.9,4c-3.5,1.3-8.5,2.9-12.4,2.1
		c0.3,0.8,1.1,2.4,2,3.3C219.2,211.2,229.8,215.1,235.8,213z"/>
	<path class="st14" d="M235.8,213c3.4-1.2,13.6-5.6,17.3-8.9c-11.2,7.5-29.8,9.7-38.9-0.4c-0.4,0-0.9-0.1-1.3-0.2
		c0.3,0.8,1.1,2.4,2,3.3C219.2,211.2,229.8,215.1,235.8,213z"/>
	<path class="st10" d="M30,190.2c5.7,1.2,11.1,4.9,15.8,7.9c3.2-3.6,7.3-7.9,7.3-13.2c-4.1-1.5-8.9-3.6-11.4-6.7
		C32.8,181.5,17.3,188.6,30,190.2z"/>
	<path class="st12" d="M43.8,195c-2.7-2.1-9.6-4.8-15.5-5.9c-3-0.6-2.6-1.6-2.8-2c-0.7,1.4,0.4,2.5,4.6,3.1
		c5.7,1.2,11.1,4.9,15.8,7.9c3.1-3.5,7.1-7.7,7.2-12.9c-1.3,3.4-2.2,4.4-4.1,7.4C48.1,193.9,45.1,196.1,43.8,195z"/>
	<path class="st4" d="M108.4,205.3c-2.3,2.1-3.6,3.9-5,6.6c-3.4,6.6-5.1,11.4-3.2,18.9c2.3,9,5.9,17.7,9.3,26.4
		c2.3,6,5.7,17.3,12,21.1c2.5-2,5.7-4.1,7.9-6.4c-4-10.1-6.2-23-7.4-34.1c-1.3-11.3-3.4-23-4.4-34.1
		C114.7,202.6,110.1,203.7,108.4,205.3z"/>
	<path class="st8" d="M117.6,205c0-0.5-0.1-0.9-0.2-1.4c-2.8-1-7.4,0-9.1,1.6c-2.3,2.1-3.6,3.9-5,6.6c-3.4,6.6-5.1,11.4-3.2,18.9
		c2.3,9,5.9,17.7,9.3,26.4c2.3,6,5.7,17.3,12,21.1c2.1-1.7,4.7-3.5,6.8-5.4c-8.1-5.4-8.6-15.4-12.2-24.2c-3-7.3-5.4-14.5-5.3-22.3
		c0.1-7.5,4-13.1,6.3-20.1C117.2,205.8,117.4,205.4,117.6,205z"/>
	<path class="st6" d="M103.2,209.3c-3.6-1.9-9.3-2.8-13.3-5.1c-3.5-2-20-8.4-24.2-8c0.7,10.9,12.3,24.3,17.5,35.8
		c5.6,12.5,10,20.6,14,33.5c1.4,4.5,12.2,3.6,17.2,12.3l7.1,0.5c0,0-1.5-8.5-2.6-11.9c-1.4-4.3-9.2-29.8-11.2-38.1
		C106.3,222.9,108.8,212.3,103.2,209.3z"/>
	<path class="st9" d="M106.3,213.3c-3,0.8-6.2,0.9-9.4,0.8c9.7,7.8,11.9,21.7,14.1,32.6c2.2,10.9,7,20.9,9.8,31.5l0.7,0
		c0,0-1.5-8.5-2.6-11.9c-1.4-4.3-9.2-29.8-11.2-38.1C106.7,224.4,107.7,217.8,106.3,213.3z"/>
	<path class="st10" d="M66.7,193.8c-4.5,3.6,7.2,15.8,13.9,18.7c7,3.1,16.4,3.7,24.1,2.9c7-0.7,13.1-12.2,13.1-12.2
		c-4.1-2.4-13.1-3.4-19.5-7.1c-8.3-4.8-18.6-9.8-18.6-9.8C75.1,190.1,71.1,190.3,66.7,193.8z"/>
	<path class="st12" d="M66.7,193.8c-4.5,3.6,7.2,15.8,13.9,18.7c7,3.1,16.4,3.7,24.1,2.9c5.5-0.5,10.5-7.9,12.4-10.9
		c-9.3,9.9-17.7,11.2-35,5.8c-5.2-1.6-17.1-8.4-14.1-17.4C67.5,193.1,67.1,193.4,66.7,193.8z"/>
	<path class="st15" d="M175.1,192.6c0-0.1,0-0.2,0-0.2l-0.7,0.6C174.6,193,174.9,192.8,175.1,192.6z"/>
</g>
<g>
	<g>
		<g>
			<g>
				<path class="st16" d="M90.4,146.3c0,0-4-0.2-8.1-1.7c-1.3-0.5-2.2-1.7-2.2-3.1c-0.1-3.6-0.4-10.6-0.8-12.7
					c-0.6-3,9.5-2.1,12.5,5.7C94.9,142.2,90.4,146.3,90.4,146.3z"/>
				<path class="st16" d="M94,7.3c-0.4-0.1-11.7-4.1-21.8,4.5c-4.7,4.1-9.1,10.9-12,22.2c-9.1,35.9-11,81.7,3.5,123.4c0,0,0,0,0,0
					c-0.6,0-6.3-0.5-11.6-3.4c0,0-12.9-21.2-11.2-83.6c1-36,13.3-55.4,26.4-63.1C76.9,1.7,87,2.3,93.6,7C93.7,7.1,93.8,7.2,94,7.3z"
					/>
			</g>
		</g>
		<path class="st17" d="M102.7,140c-0.4,1.4-1.4,2.6-2.6,3.3c-1.6,1-3.4,1.7-5.1,2.3c-1.2,0.4-2.3,0.7-3.2,1c-0.5,0.1-1,0-1.3-0.3
			c-0.4-0.3-0.7-0.8-0.6-1.4c0.6-5,1-16.5-7.8-15.7c-0.9,0.1-1.8,0.3-2.5,0.7c-6,2.9-5.9,13.8-5.4,19.4c0.2,2.5-1,4.8-3.2,6
			c-1.8,0.9-3.8,1.7-5.3,2.2c-0.7,0.2-1.3,0.2-1.9,0c-0.8-0.3-1.5-0.9-1.9-1.7c-4-9.9-13.9-46.8-10.3-89.4
			c2.6-31.5,11.4-48.1,19.5-56C74.6,6.7,78.2,5,81,4.6c4.5-0.7,8.7-0.1,12.6,2.5c0.1,0.1,0.2,0.1,0.3,0.2c7.8,5.5,14,19.9,16.5,50.5
			C114,100.7,105.2,132.1,102.7,140z"/>
		<path class="st18" d="M102.7,140c-0.4,1.4-1.4,2.6-2.6,3.3c-1.6,1-3.4,1.7-5.1,2.3c2.1-37.9-0.9-76.2-12.1-112.4
			c-2.4-7.9-5.5-15.6-10.7-21.4c-0.4-0.5-0.9-1-1.3-1.4C74.6,6.7,78.2,5,81,4.6c4.5-0.7,8.7-0.1,12.6,2.5c0.1,0.1,0.2,0.1,0.3,0.2
			c7.8,5.5,14,19.9,16.5,50.5C114,100.7,105.2,132.1,102.7,140z"/>
		<path class="st19" d="M82.2,115.3l134.2,14.4c2.6,0.3,4.5,2.3,4.1,4.4c-0.3,2.2-2.7,3.7-5.4,3.4c0,0-0.1,0-0.1,0L81.2,121.3
			c-2-0.2-3.3-1.8-3.1-3.4C78.4,116.3,80.2,115.1,82.2,115.3z"/>
		<path class="st19" d="M82.9,103.2L216,122.8c2.6,0.4,4.3,1.8,3.9,3.2c-0.4,1.4-2.9,2.2-5.5,1.8c0,0-0.1,0-0.1,0L81.7,106.9
			c-2-0.3-3.3-1.4-2.9-2.4C79.1,103.5,81,102.9,82.9,103.2z"/>
		<path class="st19" d="M82.9,83.7L216,103.3c2.6,0.4,4.3,1.8,3.9,3.2c-0.4,1.4-2.9,2.2-5.5,1.8c0,0-0.1,0-0.1,0L81.7,87.5
			c-2-0.3-3.3-1.4-2.9-2.4C79.1,84,81,83.4,82.9,83.7z"/>
		<path class="st19" d="M82.9,64.2L216,83.8c2.6,0.4,4.3,1.8,3.9,3.2c-0.4,1.4-2.9,2.2-5.5,1.8c0,0-0.1,0-0.1,0L81.7,68
			c-2-0.3-3.3-1.4-2.9-2.4C79.1,64.5,81,63.9,82.9,64.2z"/>
		<path class="st19" d="M82.9,44.7L216,64.3c2.6,0.4,4.3,1.8,3.9,3.2c-0.4,1.4-2.9,2.2-5.5,1.8c0,0-0.1,0-0.1,0L81.7,48.5
			c-2-0.3-3.3-1.4-2.9-2.4C79.1,45,81,44.4,82.9,44.7z"/>
		<path class="st19" d="M87.1,17.3l134.2,17.4c2.6,0.3,4.5,2.7,4.1,5.4c-0.3,2.6-2.7,4.5-5.4,4.1c0,0-0.1,0-0.1,0L86.1,24.5
			c-2-0.3-3.3-2.1-3.1-4.1C83.3,18.4,85.1,17,87.1,17.3z"/>
		<circle class="st20" cx="83" cy="46.4" r="7.3"/>
		<circle class="st21" cx="93.3" cy="48.1" r="7.3"/>
		<circle class="st20" cx="103.6" cy="49.8" r="7.3"/>
		<circle class="st21" cx="113.8" cy="51.4" r="7.3"/>
		<circle class="st20" cx="124.1" cy="53.1" r="7.3"/>
		
			<ellipse transform="matrix(0.7071 -0.7071 0.7071 0.7071 0.5952 111.0807)" class="st21" cx="134.4" cy="54.8" rx="7.3" ry="7.3"/>
		
			<ellipse transform="matrix(0.9247 -0.3808 0.3808 0.9247 -10.2289 71.4629)" class="st20" cx="175.5" cy="61.6" rx="7.3" ry="7.3"/>
		<circle class="st22" cx="84.4" cy="66.1" r="7.3"/>
		<circle class="st23" cx="94.7" cy="67.8" r="7.3"/>
		<circle class="st22" cx="105" cy="69.5" r="7.3"/>
		<circle class="st23" cx="115.2" cy="71.2" r="7.3"/>
		<circle class="st22" cx="125.5" cy="72.9" r="7.3"/>
		<circle class="st23" cx="166.6" cy="79.6" r="7.3"/>
		<circle class="st22" cx="176.9" cy="81.3" r="7.3"/>
		
			<ellipse transform="matrix(0.5108 -0.8597 0.8597 0.5108 -31.826 115.7714)" class="st24" cx="85.8" cy="85.9" rx="7.3" ry="7.3"/>
		<circle class="st25" cx="96.1" cy="87.5" r="7.3"/>
		<circle class="st24" cx="106.4" cy="89.2" r="7.3"/>
		<circle class="st25" cx="116.6" cy="90.9" r="7.3"/>
		<circle class="st24" cx="157.7" cy="97.7" r="7.3"/>
		<circle class="st25" cx="168" cy="99.4" r="7.3"/>
		
			<ellipse transform="matrix(0.1708 -0.9853 0.9853 0.1708 48.2506 259.4564)" class="st24" cx="178.3" cy="101.1" rx="7.3" ry="7.3"/>
		<circle class="st26" cx="87.2" cy="105.6" r="7.3"/>
		<circle class="st27" cx="97.5" cy="107.3" r="7.3"/>
		
			<ellipse transform="matrix(0.9247 -0.3808 0.3808 0.9247 -33.3766 49.2477)" class="st26" cx="107.8" cy="109" rx="7.3" ry="7.3"/>
		<circle class="st27" cx="148.9" cy="115.7" r="7.3"/>
		<circle class="st26" cx="159.1" cy="117.4" r="7.3"/>
		<circle class="st27" cx="169.4" cy="119.1" r="7.3"/>
		<circle class="st26" cx="179.7" cy="120.8" r="7.3"/>
		<path class="st16" d="M224.8,169.6c0,0-4.1-0.3-8.3-1.8c-1.3-0.5-2.2-1.8-2.3-3.2c-0.1-3.7-0.4-10.8-0.8-13.1
			c-0.6-3.1,9.7-2.2,12.9,5.8C229.3,165.4,224.8,169.6,224.8,169.6z"/>
		<path class="st16" d="M228.4,26.9c0,0-10.9-4.1-21.1,3.6c-5.3,4-10.4,11.2-13.6,23.8c-9.3,36.9-11.3,83.9,3.5,126.8c0,0,0,0,0,0
			c-0.4,0-6.4-0.5-12-3.5c0,0-13.3-21.8-11.5-85.8c1.1-38,14.3-57.9,28.3-65.4c9.5-5.1,19.4-4.4,26,0.3
			C228.2,26.7,228.3,26.8,228.4,26.9z"/>
		<path class="st17" d="M237.3,163.2c-0.5,1.4-1.4,2.6-2.7,3.4c-1.1,0.6-2.3,1.2-3.4,1.7c-1.9,0.8-3.7,1.3-5.1,1.6
			c-0.5,0.1-1,0-1.4-0.3c-0.5-0.3-0.7-0.9-0.7-1.5c0.6-5.1,1-17-8.1-16.1c-1,0.1-1.8,0.3-2.6,0.7c-6.1,3-6,14.2-5.6,19.9
			c0.2,2.5-1.1,5-3.3,6.1c-1.8,1-3.9,1.7-5.5,2.3c-0.7,0.2-1.3,0.2-1.9,0c0,0,0,0,0,0c-0.9-0.3-1.6-0.9-2-1.8
			c-4.1-10.2-14.2-48.1-10.6-91.8c2.8-33.8,12.5-50.9,21.1-58.5c3.5-3.1,6.8-4.5,9.4-4.9c4.6-0.7,8.9-0.1,12.9,2.5
			c0.1,0.1,0.2,0.2,0.4,0.3c8,5.7,14.3,20.4,16.9,51.9C249,122.9,239.9,155.1,237.3,163.2z"/>
		<path class="st28" d="M237.3,163.2c-0.5,1.4-1.4,2.6-2.7,3.4c-1.1,0.6-2.3,1.2-3.4,1.7c2.4-38.8-0.5-78-11.9-115.1
			c-2.6-8.5-6-16.8-12-22.7c-0.5-0.5-1-1-1.6-1.4c3.5-3.1,6.8-4.5,9.4-4.9c4.6-0.7,8.9-0.1,12.9,2.5c0.1,0.1,0.2,0.2,0.4,0.3
			c8,5.7,14.3,20.4,16.9,51.9C249,122.9,239.9,155.1,237.3,163.2z"/>
	</g>
	<g>
		<g>
			<g>
				<path class="st29" d="M206,107.8c0.5,2.9-1.4,5.6-4.3,6.1c-2.9,0.5-5.6-1.4-6.1-4.3c-0.5-2.9,1.4-5.6,4.3-6.1
					C202.7,103,205.5,104.9,206,107.8z"/>
				<path class="st29" d="M239.7,101.9c0.5,2.9-1.4,5.6-4.3,6.1c-2.9,0.5-5.6-1.4-6.1-4.3c-0.5-2.9,1.4-5.6,4.3-6.1
					C236.4,97.1,239.1,99,239.7,101.9z"/>
			</g>
		</g>
		<g>
			<path class="st30" d="M204,106.7c0.2,1.1-0.5,2.1-1.6,2.3c-1.1,0.2-2.1-0.5-2.3-1.6c-0.2-1.1,0.5-2.1,1.6-2.3
				C202.8,104.8,203.8,105.6,204,106.7z"/>
			<path class="st30" d="M201.9,110.2c0.1,0.5-0.2,0.9-0.7,1c-0.5,0.1-0.9-0.2-1-0.7c-0.1-0.5,0.2-0.9,0.7-1
				C201.4,109.4,201.8,109.7,201.9,110.2z"/>
			<path class="st30" d="M237.7,100.7c0.2,1.1-0.5,2.1-1.6,2.3c-1.1,0.2-2.1-0.5-2.3-1.6c-0.2-1.1,0.5-2.1,1.6-2.3
				S237.5,99.6,237.7,100.7z"/>
			<path class="st30" d="M235.6,104.3c0.1,0.5-0.2,0.9-0.7,1c-0.5,0.1-0.9-0.2-1-0.7c-0.1-0.5,0.2-0.9,0.7-1
				C235.1,103.5,235.5,103.8,235.6,104.3z"/>
		</g>
		<g>
			<path class="st26" d="M204.8,117.6c0.2,1.4-1.6,2.9-4.2,3.3c-2.6,0.5-4.8-0.3-5.1-1.7c-0.2-1.4,1.6-2.9,4.2-3.3
				C202.3,115.4,204.6,116.2,204.8,117.6z"/>
			
				<ellipse transform="matrix(0.9848 -0.1737 0.1737 0.9848 -15.8506 42.799)" class="st26" cx="236.7" cy="112" rx="4.7" ry="2.6"/>
		</g>
		<g>
			<path class="st31" d="M216.1,108.2c0.3-0.7,0.8-1.2,1.6-1.3c1.1-0.2,2.2,0.6,2.4,1.7c0.2,1.1-0.6,2.2-1.7,2.4"/>
			<path class="st31" d="M217.2,114.4c0.5,0.5,1.2,0.8,1.9,0.7c1.1-0.2,1.9-1.3,1.7-2.4c-0.2-1.1-1.3-1.9-2.4-1.7"/>
		</g>
	</g>
</g>
</svg>
