<?xml version="1.0" encoding="utf-8"?>
<!-- Generator: Adobe Illustrator 24.2.0, SVG Export Plug-In . SVG Version: 6.00 Build 0)  -->
<svg version="1.1" id="Layer_1" xmlns="http://www.w3.org/2000/svg" xmlns:xlink="http://www.w3.org/1999/xlink" x="0px" y="0px"
	 viewBox="0 0 320 306.2" style="enable-background:new 0 0 320 306.2;" xml:space="preserve">
<style type="text/css">
	.st0{fill:#94D7EB;}
	.st1{fill:#582D0F;}
	.st2{fill:#6C3B17;}
	.st3{fill:#45220F;}
	.st4{fill:#905A24;}
	.st5{fill:#A9692C;}
	.st6{fill:#7F4A1E;}
	.st7{fill:#814C1F;}
	.st8{fill:#93562B;}
	.st9{fill:#683515;}
	.st10{fill:#5A2D0F;}
	.st11{fill:#935627;}
	.st12{fill:#E29D2A;}
	.st13{fill:#F8CA80;}
	.st14{fill:#BB7731;}
	.st15{fill:#D19046;}
	.st16{fill:#B8874C;}
	.st17{opacity:0.48;fill:#74441C;}
	.st18{fill:#A3A4A7;}
	.st19{fill:#5A7ABD;}
	.st20{opacity:0.24;fill:#001AAC;}
	.st21{fill:#FF4461;}
	.st22{fill:#A01143;}
	.st23{fill:#00225C;}
	.st24{opacity:0.27;fill:#001AAC;}
	.st25{fill:#5D1807;}
	.st26{fill:#FFFFFF;}
	.st27{fill:none;stroke:#000000;stroke-width:0.4578;stroke-linecap:round;stroke-linejoin:round;stroke-miterlimit:10;}
	.st28{fill:#691300;}
	.st29{fill:#FF77C1;}
	.st30{fill:#FF67B1;}
	.st31{fill:#567BBD;}
	.st32{opacity:0.34;fill:#FFB6D3;}
	.st33{fill:none;stroke:#470A01;stroke-width:1.623;stroke-linecap:round;stroke-linejoin:round;stroke-miterlimit:10;}
	.st34{opacity:0.2;fill:#001AAC;}
	.st35{fill:#631300;}
	.st36{fill:#00DDB8;}
	.st37{fill:#060B4F;}
	.st38{fill:none;stroke:#000000;stroke-width:0.3752;stroke-miterlimit:10;}
</style>
<path class="st0" d="M-188,20.8c-0.4,1.5-0.8,2.9-1.3,4.4C-188.7,23.8-188.3,22.3-188,20.8z"/>
<g>
	<path class="st1" d="M83.4,91.6c-0.2,1.2-0.7,2.5-0.8,3.8c-0.2,1.5-0.1,3.1-0.5,4.5l-0.2,0.1c0.8,0.4,2.9-0.5,3.9-0.5
		c1.4-0.1,3.2,0.6,2.8-1.1C88.1,95.6,85,93.9,83.4,91.6z"/>
	<path class="st1" d="M247.2,108.5c-2.1,1-4.3,1.7-5.9,3.3c-1.5,1.5-2.3,2.8,0,3.9c1.6,0.8,3.3,1,5.1,1.1c1.9,0.1,3.7-0.4,5.3,0.5
		c0-3.8,0.7-7.7,0.6-11.3C251.1,105.7,248.2,108,247.2,108.5z"/>
	<g>
		<path class="st2" d="M305.9,134.3l-4.5-1c-9.8-2.5-21-2.5-31.3-3c-22.9-1.1-44.8,2.4-65.2,11.4c-21.4,9.4-45.6,26.8-53.4,48.4
			c-5.5,15.2-9.6,32.8-6.9,48.9c2.8,17,12.7,33.8,12.5,51.1c10.4-2.1,18.5-13.6,29.4-16.9c0,0,8.3,5,19.2-3.5
			c14.6-11.5,29.3-24.8,46.6-29.2c19.2-4.9,26.9-23.3,37.1-29c8.3-17.6-2.3-21.3,5.7-34.3C305.1,160.6,300.4,148.3,305.9,134.3z"/>
		<path class="st1" d="M212.9,204.4c-3,8-3.3,24.1-5.6,32.4c-2.2,7.9-4.2,15.9-5.6,24c-0.5,2.9-1,5.8-1.2,8.8
			c-0.1,1.8,0.1,2.5,0.1,2.5c0.1,0.1,0.2,0.3,0.3,0.4c1.5-0.7,3-1.7,4.6-2.9c5.1-4,10.2-8.2,15.4-12.2c0.4-6.5,1.6-13,2.7-19.5
			c1.3-7.6,3.1-16.7-0.3-24C221.9,210.6,212.9,204.4,212.9,204.4z"/>
		<path class="st3" d="M217.7,259.9c0.8-5.5,1.8-11,2.7-16.5c1.4-8.7-5.1-24.2-7.1-31.8c-0.1,19.2-0.7,41-6.5,56.9
			C210.5,265.6,214.1,262.7,217.7,259.9z"/>
		<path class="st1" d="M305.9,134.3l-4.5-1c-0.3-0.1-0.6-0.1-0.9-0.2c-6.1,3.1-11.9,6.5-17.7,10.1c4.2,0.1,8,1,12,2.2
			c4.4,1.3,5.4,6,3.3,8.8c-4.5,17.4-21.8,28.7-26,46.2c-2.5,10.2-2.8,20.8-3.7,31.2c8.5-7.3,14.1-16.5,20.8-20.1
			c8.3-17.6-2.3-21.3,5.7-34.3C305.1,160.6,300.4,148.3,305.9,134.3z"/>
		<path class="st3" d="M299.9,166.2c-5.1,8.1-10.9,15.8-16.8,23.5c-3.3,11-6.7,21.9-9.7,32.9c5.4-8.6,11.8-16.2,19.1-23.3
			c0.4-8.2-3.3-12.8,2.4-22.2C297.3,173.3,298.9,169.6,299.9,166.2z"/>
		<path class="st1" d="M155.6,206c-0.4,0.1-0.8,0.1-1.2,0c-0.9,20.2-1.2,40.3-1.9,60.5c2.5,7.8,4.5,15.5,4.4,23.4
			c4.9-1,9.3-4.1,13.7-7.4c-0.1-1.3-0.2-2.6-0.3-3.8c-0.4-6-0.7-12.2-2.9-17.9c-1.8-4.8-5.1-9.4-6.1-14.4
			c-3.3-16.8,3.6-30.5,14.6-42.8C169.4,204.7,162.6,205.1,155.6,206z"/>
		<path class="st1" d="M230.5,250.5c3.9-2.5,7.9-4.8,12-6.7c0.3-4.3,0.7-8.6,1.3-12.9c1.5-10.4,5-18.9,8.8-28.7
			c3.4-8.7,1-18.1,4.3-26.7c2.6-6.8,6.1-12.9,8-19.6c-4.4,2.3-10,3.8-14.6,3.7c-5.6-0.1-11.3-0.8-16.7,0.9
			c0.3-0.1-15.9,3.5-11.8,5.1c1,0.1,5.4,1.2,6.3,1.5c0.5,0.2,13-0.3,13-0.3c-9.1,19.7-7.2,48.5-8.9,69.4
			C231.7,241.2,231.2,245.9,230.5,250.5z"/>
		<path class="st3" d="M230.5,250.5c1-0.6,2-1.3,3-1.9c0.5-8.4,1.8-16.6,2.8-25c1.1-9,1.5-18,3.5-26.9c3.4-15.2,7.3-26,20.7-36.2
			c1.1-0.8,2.2-1.2,3.4-1.4c0.4-1.1,0.7-2.1,1.1-3.2c-4.4,2.3-10,3.8-14.6,3.7c-5.6-0.1-11.3-0.8-16.7,0.9
			c0.3-0.1-15.9,3.5-11.8,5.1c1,0.1,5.4,1.2,6.3,1.5c0.5,0.2,13-0.3,13-0.3c-9.1,19.7-7.2,48.5-8.9,69.4
			C231.7,241.2,231.2,245.9,230.5,250.5z"/>
		<path class="st1" d="M193.7,225c4.7-11.1,3.3-22.2,11.8-33.2c1.9-2.5,15.1-16.3,15.6-19.2c-9.5,3.1-37.1,19.8-42.3,27.8
			c1,8.9,1.9,17.9,1.6,26.9c-0.2,9.1-1.6,18-0.5,27c0.8,6.7,2.1,13.4,3,20c0.9-0.4,1.8-0.8,2.8-1.1c-0.5-7.1,1.4-14,2.7-21.1
			C190.1,242.8,189.9,234,193.7,225z"/>
		<path class="st3" d="M202.9,184.3c0.1-0.4,0.1-0.9,0.2-1.3c-9.5,3.1-19,9.4-24.3,17.5c1,8.9,1.9,17.9,1.6,26.9
			c-0.2,9.1-1.6,18-0.5,27c0.8,6.7,2.1,13.4,3,20c0.8-0.4,1.6-0.7,2.5-1c-0.7-16.7-1-33.5-0.3-50.3
			C185.7,207.1,194,197.3,202.9,184.3z"/>
		<path class="st4" d="M154.5,191.2c-7.9-19.6-40.3-37.1-60.1-45.6c-19.9-8.4-46.8-8.4-68.3-9.3c-5.8-0.3-10.4-0.5-15.6-2
			c0,15.7,0.6,32.4,8.7,45.8c3.3,5.5,6.9,26.5,13.9,38.4c4.7,8.1,9.5,6.2,17,9c11.8,4.3,17.6,19.4,37.5,29.3
			c7.1,3.5,11.6,12.6,26.3,17c8.5,2.5,18.8,0.8,18.8,0.8c8.6,3.1,8.9,10.4,24.3,15.2c0.5-15.6-1-31.6-1-48.2
			C155.9,226.7,160.1,205.1,154.5,191.2z"/>
		<path class="st2" d="M74.9,248.6c3.5,2.9,7.6,5.7,12.6,8.2c4.3,2.1,7.6,6.3,12.8,10.2c-3.8-8.4-7.3-16.9-9.7-25.7
			c-3.1-11.5-4.2-23.6-7.7-35c0,0.1,0,0.2-0.1,0.4c1.8,5.8,2.6,12.9,1.8,19.9C84.7,236.3,82.5,245.2,74.9,248.6z"/>
		<path class="st5" d="M155.5,208.2c-2.6-1.8-6.7-4.7-10.1-5.4c0,0.2,0.1,0.5,0.1,0.9c0.1,0.4,0.3,0.8,0.4,1.2
			c0.4,0.4,0.9,0.7,1.3,1.2c10,12.7,6,28.1,6.5,42.6c0.5,12.5,2.3,24.9,3.2,37.4c0.2-14.4-1.1-29.1-1.1-44.4
			c0-9.4,1.6-21.5,1.5-32.6C156.8,208.9,156.1,208.6,155.5,208.2z"/>
		<path class="st5" d="M144.2,283.4c-0.9-10.4-2.3-20.7-2.8-31.1c-0.2-4.8,0.3-9.9,0.5-15.1c-3-8.6-6-17.2-7.2-26.2
			c-2.5-6.3-4.6-13.4,0.3-17c1.3-0.9,2.7-1.6,4.1-2c-0.9-0.5-1.8-0.9-2.9-1.2c-3.7,1.9-7.7,3.2-11.9,3.9c7.2,18.1,10.4,37.1,10,56.2
			c0.1,0.2,0.2,0.4,0.2,0.5c1.1,3.3,0.3,7.1-0.5,10.5c0.1,0.3,0.1,0.6,0.1,0.9c0,4.2-0.2,8.3-0.8,12.3
			C138,276.9,140.2,280.1,144.2,283.4z"/>
		<path class="st5" d="M12.4,134.8c-0.7-0.2-1.3-0.3-2-0.5c0,15.7,0.6,32.4,8.7,45.8c3.3,5.5,6.9,26.5,13.9,38.4
			c2.7,4.7,5.5,6,8.8,6.9c-7.1-13.3-19.9-33.6-12.1-47c-4.5-2.8-11.2-10.1-11.2-10.1c0,1.2-3.2-7.8-3.8-17.6
			c-0.2-4.5-0.2-8.9,0.4-13.4C14.1,136.5,13.2,135.7,12.4,134.8z"/>
		<path class="st5" d="M64,238.4c0.4-7,0.9-14,0.9-21c0.1-15.9-7.6-31.4-1.1-46.8c-1.4-1.3-2.7-2.6-3.7-4c-3.8-2-7.2-4.6-11.1-6.2
			c-0.1,2.2-0.3,4.4-0.6,6.6c0,0.2,0.1,0.5,0.1,0.7c3.5,8.9,5.2,18,6.9,27.5c0.2,0.4,0.4,0.9,0.5,1.4c0.5,2.2,0.9,4.5,1.4,6.7
			c0.5,0.8,0.9,1.7,0.9,2.8c0.6,9.3,1.7,18.4,1,27.6C60.8,235.1,62.4,236.7,64,238.4z"/>
		<path class="st6" d="M56.1,149.5c-5.5-0.8-19.1-2.4-20.4-2.4c1,9,1.9,18.1,4.5,26.8c2.8,9.2,8,17.4,11.4,26.4
			c4,10.9,6.1,22.1,7.7,33.4c1,0.9,1.9,1.8,2.9,2.8c-0.5-18.2-1.5-36.5-5.8-54.2c-2.4-10.2-3.6-13.5-4.5-20
			C52.9,161,57.1,149.7,56.1,149.5z"/>
		<path class="st1" d="M56.1,149.5c-5.5-0.8-36.4-9.6-37.7-9.6c4.1,6.4,14.9,11.3,18.8,12.3c10,3.2,9.9,9.1,11.7,16.2
			c2.4,9.2,4.7,18.6,6.8,27.9c2.7,12.2,5.6,25.9,5.4,39.1c0.4,0.3,0.7,0.7,1.1,1c-0.5-18.2-1.5-36.5-5.8-54.2
			C54,172,53,168.4,52.1,161.9C53.1,160.7,57.1,149.7,56.1,149.5z"/>
		<path class="st6" d="M148.7,186.4c-10.2,0.3-41.7-4-39.3,1.8c7.1,9.4,14.5,23.3,19.3,49.6c2.2,12.4,2.4,24.4,3.9,36.9
			c0.6,0.3,2.2,1,2.7,1.3c0.7-6.6,1.7-13.2,2.3-20c1.7-18.9-5.2-40-7.1-58.8C130.6,197.2,145.4,190.2,148.7,186.4z"/>
		<path class="st1" d="M148.7,186.4c-10.2,0.3-58.5-16.9-68.1-13.8c0,0,11.7,7.6,11.7,7.6c10.4,3.6,27,16.8,26.9,17.2
			c2.4,1.3,11.2,20,12.9,27.7c3.5,15.9,5.1,34,1.8,50.2c0.5,0.2,0.9,0.5,1.4,0.7c0.7-6.6,1.7-13.2,2.3-20c1.7-18.9-5.2-40-7.1-58.8
			C130.6,197.2,145.4,190.2,148.7,186.4z"/>
		<path class="st7" d="M257.4,228.7c5-0.4,16.2-23.9,21.1-25.6c4.9-1.7,14.6-7.1,17.6-11.1c2.9-3.9,2.7-7.1,5-11.3
			c2.3-4.3,4.7-4.2,7.9-8.1c3.3-4-3.2-17.7-3.2-17.7l-24.6,8.1c-2.6,1-5.3,1.9-8,2.8c-1.4,0.5-2.9,1-4.3,1.6
			c-5.7,2.2-11.5,4.2-17.5,5.9c-0.2,0-0.4,0.1-0.6,0.1c-0.5,0.2-0.9,0.2-1.3,0.1l-0.5,0.2c0,0,0.2,6-0.1,7.6c-0.5,2.7-2.7,4.7-3,7.6
			c-0.8,6,2.4,36.4,0.6,42C252.8,230.5,251.2,229.2,257.4,228.7z"/>
		<path class="st8" d="M258.5,214.7c-1.4,4.7-2.6,9.5-3.3,14.3c0.6-0.1,1.3-0.2,2.2-0.3c0.6-0.1,1.2-0.4,1.9-0.9
			c2.3-8.9,7-17,11.8-25.4c3.5-6.2,6.3-12.5,8.8-19.1c1.1-3,3.1-4.6-2.6-5.1c-3-0.2-6-0.4-9-0.5c4,4.8,7.5,8.4,3.9,15.2
			C268.2,200.2,260.9,206.7,258.5,214.7z"/>
		<path class="st9" d="M257.9,228.6c5.2-1.8,15.9-23.9,20.6-25.5c4.9-1.7,14.6-7.1,17.6-11.1c2.9-3.9,2.7-7.1,5-11.3
			c2.3-4.3,4.7-4.2,7.9-8.1c3.3-4-3.2-17.7-3.2-17.7c0-0.7-16.1,5.2-28.6,14.5c-2.6,2.7-0.3,9.7-0.3,10.4c0.5,8.8-1.3,13.4-8.6,23.1
			C262.4,210.7,259.5,219.4,257.9,228.6z"/>
		<path class="st1" d="M284.5,176.2c-0.1,0-0.2-0.1-0.2-0.2c-0.6-0.4-1.2-0.8-1.8-1.2c-1.9-0.6-4.2,0.3-6.3,0.7
			c0.3,2.1,0.8,3.9,0.8,4.3c0.5,8.8-1.3,13.4-8.6,23.1c-5.9,7.8-8.9,16.5-10.4,25.7c2.3-0.8,5.7-5.6,9.2-10.8
			c-2.6-9,4.7-17.5,10.9-24.9C279.9,187.2,281.5,181.4,284.5,176.2z"/>
		<path class="st9" d="M235.3,205.3c-7.4,2.6-15.4,0.3-22.4-0.9c-0.5,5.1,0.9,12.3,1.4,17.9c0.6,6,3.2,31.7,3.4,37.5
			c4.9,1.6,8.6,0.1,13.3-3c3.3-2.1,5-15.7,7.6-25.3c2.2-8.4,15.6-20.3,15.9-29l-0.5,0.4C247.8,198.2,240.8,203.4,235.3,205.3z"/>
		<path class="st1" d="M224.8,260c1.5-0.4,3.1-1.2,4.7-2.1c0-7,0.5-14,0.9-21c0.3-4,0-9,1.7-12.8c3.8-8.7,14.5-11.4,21.6-17.5
			c0.5-1.2,0.8-2.4,0.9-3.6c-6.3,5-14.8,8.6-23,9.4c0,0.2-0.1,0.4-0.1,0.6C226.3,228.4,225.2,244.1,224.8,260z"/>
		<path class="st7" d="M214.3,222.3c0.6,6,3.2,31.7,3.4,37.5c3.2,1,5.9,0.7,8.7-0.4c0.1-18.2,3.2-38.6,9.8-55.9
			c-7,1.8-16.8,2-23.3,0.9C212.4,209.5,213.8,216.8,214.3,222.3z"/>
		<path class="st8" d="M224.6,260.1c0.6-0.2,1.2-0.4,1.9-0.6c0.1-14.7,2.2-30.8,6.5-45.5c-3.2,0.3-6.5,0-9.2-1
			c4.7,6.2,4.3,12.3,3,19.4C224.9,241.5,224.8,250.8,224.6,260.1z"/>
		<path class="st2" d="M41.4,194c0.7,6.3,5,14.8,8,20.8c2.8,5.7,5.6,11.5,8.8,20.1c0.7,0,2.2,0.7,2.9,0.6
			c-0.1-7.4,0.2-13.5-1.2-20.9c-3-15.8-4.7-21.6-6.8-29.4C49.5,187.3,45.5,192.5,41.4,194z"/>
		<path class="st10" d="M53.4,186.2c-0.1-0.4-0.2-0.7-0.3-1.1c-3.7,2.2-7.6,7.3-11.7,8.8c0.7,6.3,5,14.8,8,20.8
			c2.8,5.7,5.6,11.5,8.8,20.1c0.2,0,0.4,0,0.7,0.1c-2.3-8.7-4.3-17.3-7-26c-1-3.3-2.8-7.5-1.9-11C51,193.9,53.1,190.4,53.4,186.2z"
			/>
		<path class="st6" d="M25.4,188.9c6.1,7.5,13.3,14.7,17.2,23.2c3.2,6.9,7.2,20.5,15.6,22.7c-3.2-11.8-9.7-27.3-12.3-36
			C44.4,194.2,35.1,180,25.4,188.9z"/>
		<path class="st6" d="M25.2,189.1c0.1-0.1,0.1-0.1,0.2-0.1c0,0,0,0,0,0L25.2,189.1z"/>
		<path class="st11" d="M25.4,188.9c0.1,0.2,0.3,0.3,0.4,0.5c0.4,0,0.8,0,1.2,0.2c13.2,5.2,18.3,11.8,22.2,24
			c2,6.2,4.7,11.9,7.8,17.7c0.2,0.4,0.4,0.8,0.6,1.3c-3.4-11.5-9.2-25.6-11.7-33.8C44.4,194.2,35.1,180,25.4,188.9z"/>
		<path class="st6" d="M144.9,272c-0.4-11.7,4.8-25.2,7.5-36c-6.7,0.2-7.8-7.5-9.8-12.4c-2-4.7-3.2-11-4.9-15l-0.8-0.3
			c2,5.4,2.1,12,3.9,17.8c0.8,2.5,1.5,5,2.6,7.4c0.4,0.9,0.8,2,1.5,2.7c0.8,0.8,2.6,0.9,3,1.7c0.7,1.4-1.2,5-1.7,6.6
			c-0.9,3-1.4,5.1-1.4,8.3c0,3.5,0.2,7.1,0,10.6C144.8,265.9,143.7,269.5,144.9,272z"/>
		<path class="st2" d="M79.5,188.2c-0.5-2.3-1.1-13.4-1.8-15.6c-2-1.2-5.7-0.9-7.9-1.6c-1.3-0.4-6.4-1-5.7-0.3l-0.4-0.3
			c0.8,2.2,0,15.9,0,18.2c1.6-0.3,4.4-8.8,6.1-8.7c0.2,4.2,0.9,8.3-0.4,11.9c4.8,2.5,3,6.4,2.6,10.6c-0.5,4.9,3.2,2.1,2.8,7
			c-0.3,4-3.9,15.4-3.3,19.4c0,0,3.4,8.2,3.3,10.6c0,0.4,0.1,0.1,0.4-0.5c-3.1-10.6,0.6-21.1,4.1-31.4c-0.1-2.1-0.1-4.2,0-6.3
			c0.1-1.5,0.1-3,0.2-4.4C78.5,191.4,79.7,193.5,79.5,188.2z"/>
		<path class="st12" d="M305.1,134.4c-9.3-8.9-35.8-20.8-43.8-24.3l-17.6,2.8c2.1-1.5,6.9-5.2,8.6-7c-16.2-15.8-37.7-16.1-51-26.6
			c-6.6-5.2-36.4-18.3-44.3-23.1c-18.1,9.8-31.4,9.7-39.2,19.2c-7.8,9.4-23.4,10.5-34.3,16.2c0.6,1.4,2,4.6,2.7,6
			c-13.8-2.2-31,11-44.3,19.1c-11.6,7-31.8,17.1-31.8,17.1c15.2,15,28.3,17.6,43.7,19.7c1.1,2.6-3,6.7-0.9,10.9
			c6.5,13.2,55.1,18.9,66.6,30.9c2.8,2.9,17.3-3.7,17.3-3.7c0,2.4-6.1,5.7-6.1,5.7c14.3,7.5,21.1,15,27.2,14.2
			c6-0.8,22.4-9.7,27.7-12.7c10.4-5.8,13.7-12,24.8-15.8c13.6-4.6,20.8-4.9,30.7-15.9c-5.6-0.5-10.6-1.6-16.4-1.5
			c14.1-5.9,30.8-1.8,45-9.4C280.9,150,292.2,136.7,305.1,134.4z"/>
		<path class="st13" d="M297.6,136.9c-7,1.4-13.3,7.1-19.1,10.8c-8.3,5.3-14.9,10-25.2,11.3c-6.5,0.8-24.3,2.7-27.3,4.4
			c-2.7,1.5-5.2,2.8-2.1,3c7.9,0.6,14.1,2.1,14.1,2.1c-13.8,11-28.7,10.4-32.8,12.8c-4.6,2.6-7.8,6.3-11.6,9.7
			c-5.2,4.6-28.8,16.9-35.9,18.1c-5.3,0.9-7.2-4.7-21.1-11c-3.3-1.5,3.9-7.5,4.4-8.9c-5,0.7-9.7,2-14.6,3.9c-2,0.8-6.5,0.6-8-0.6
			c-11.9-10.6-43.7-16.5-52.2-19.8c-4.7-1.8-11.6-5.7-12.2-10.5c-0.4-2.9,1.4-5.3,2.3-8.1c1.4-4-6-3.2-8.2-3.6
			c-8.2-1.6-29.9-8-38-16.6c0,0,0,0,0,0c15.2,15,28.3,17.6,43.7,19.7c1.1,2.6-3,6.7-0.9,10.9c6.5,13.2,55.1,18.9,66.6,30.9
			c2.8,2.9,17.3-3.7,17.3-3.7c0,2.4-6.1,5.7-6.1,5.7c14.3,7.5,21.1,15,27.2,14.2c6-0.8,22.4-9.7,27.7-12.7
			c10.4-5.8,13.7-12,24.8-15.8c13.6-4.6,20.8-4.9,30.7-15.9c-5.6-0.5-10.6-1.6-16.4-1.5c14.1-5.9,30.8-1.8,45-9.4
			C278.6,151.2,287.7,141.7,297.6,136.9z"/>
		<path class="st1" d="M296.2,192c2.9-3.9,2.7-7.1,5-11.3c2.3-4.3,4.7-4.2,7.9-8.1c3.3-4-3.2-17.7-3.2-17.7c0-0.1-0.5,0-1.4,0.3
			c-1.6,3.2-3.6,6.3-6.4,8.5c1.9,3.5,3.9,8.1,3.5,8.9c-2.6,6.2-5.1,9.6-6.8,14c-0.5,1.7,0.4,5.3-0.2,7
			C295.3,193,295.8,192.5,296.2,192z"/>
		<path class="st3" d="M282.4,196.9c5.1-9.1,10.3-18.1,12.5-28.2c-5,1.1-12.5-0.8-17.7,0c-1.7,1.8,8.2,3.6,9,5.5
			c0,0-0.5,4.3-0.8,5.8C284.4,185.7,283.4,191.3,282.4,196.9z"/>
		<path class="st14" d="M280.6,170.1c1.1-0.5,13.3,0.1,14.5-0.5c8.4-3.5,8.6-7.6,10.7-10.8c3-4.7-3.5-6.6-11.8-5.9
			c-9.5,9.9-30,16.5-45,20.7c4.5,4.1,12,0.8,15.8,3.1c5.7,3.6,12.2,3.1,12.2,3.1s6.7-3.5,9.2-5.5
			C287.5,173.2,278.5,171.1,280.6,170.1z"/>
		<path class="st15" d="M280.6,170.1c1.1-0.5,13.3,0.1,14.5-0.5c7-2.9,8.3-6.2,9.8-9.1c-3.5,4.9-7.6,8.1-20.2,6.7c0,0,0,0-0.1,0
			c-2.5,0.4-4.8,0.9-7.3,1.8c-0.1,0-0.2,0-0.3,0.1c1.4,1.2,2.4,3,4.4,3.6c5.3,1.6-2.4,5.7-4.4,5.9c-2.7,0.3-9.4-3-12.2-3.2
			c-5.2-0.5-3.4,0.4-8.6-0.5c-1.7-0.3-4.2-1.3-5.9-1.5c-0.4,0.1-0.8,0.2-1.2,0.3c4.5,4.1,12,0.8,15.8,3.1c5.7,3.6,12.2,3.1,12.2,3.1
			s6.7-3.5,9.2-5.5C287.5,173.2,278.5,171.1,280.6,170.1z"/>
		<path class="st14" d="M234.2,198.2c0,0-5.9,3-8.9,4.1c-3.5,1.4-8.5,2.9-12.4,2.2c0.3,0.9,1.1,2.5,2,3.4c4.3,4.6,14.9,8.6,20.9,6.4
			c3.9-1.4,16.9-7.3,18.6-10.7C256.6,198.7,238.4,196.7,234.2,198.2z"/>
		<path class="st15" d="M214.2,204.6c-0.4,0-0.9-0.1-1.3-0.2c0.3,0.9,1.1,2.5,2,3.4c4.3,4.6,14.9,8.6,20.9,6.4
			c3.4-1.2,13.6-5.8,17.3-9.2C241.9,212.7,223.3,215.1,214.2,204.6z"/>
		<path class="st12" d="M30,190.7c5.7,1.2,11.1,5.1,15.8,8.1c3.2-3.7,7.3-8.1,7.3-13.7c-4.1-1.5-9-3.7-11.4-7
			C32.8,181.7,17.3,189.1,30,190.7z"/>
		<path class="st13" d="M43.8,195.7c-2.7-2.2-9.6-4.9-15.5-6.1c-3-0.6-2.6-1.6-2.8-2.1c-0.7,1.5,0.4,2.6,4.6,3.2
			c5.7,1.2,11.1,5.1,15.8,8.1c3.1-3.6,7.1-7.9,7.2-13.3c-1.3,3.5-2.2,4.5-4.1,7.6C48.1,194.5,45.1,196.8,43.8,195.7z"/>
		<path class="st2" d="M108.4,206.3c-2.3,2.2-3.6,4.1-5,6.8c-3.4,6.8-5.1,11.7-3.2,19.5c2.3,9.3,5.9,18.2,9.3,27.3
			c2.3,6.2,5.7,17.8,12,21.8c2.5-2.1,5.7-4.2,7.9-6.6c-4-10.4-6.2-23.7-7.4-35.2c-1.3-11.6-3.4-23.7-4.4-35.2
			C114.7,203.6,110.1,204.6,108.4,206.3z"/>
		<path class="st10" d="M117.6,206c0-0.5-0.1-0.9-0.2-1.4c-2.8-1.1-7.4,0-9.1,1.6c-2.3,2.2-3.6,4.1-5,6.8
			c-3.4,6.8-5.1,11.7-3.2,19.5c2.3,9.3,5.9,18.2,9.3,27.3c2.3,6.2,5.7,17.8,12,21.8c2.1-1.8,4.7-3.6,6.8-5.5
			c-8.1-5.6-8.6-15.9-12.2-25c-3-7.5-5.4-14.9-5.3-23c0.1-7.8,4-13.5,6.3-20.8C117.2,206.8,117.4,206.4,117.6,206z"/>
		<path class="st6" d="M103.2,210.4c-3.6-2-9.3-2.9-13.3-5.2c-3.5-2-20-8.7-24.2-8.3c0.7,11.2,12.3,25,17.5,37
			c5.6,12.9,10,21.2,13.9,34.5c1.4,4.7,12.2,3.7,17.2,12.7l7.1,0.5c0,0-1.5-8.8-2.6-12.3c-1.4-4.4-9.2-30.7-11.2-39.3
			C106.3,224.5,108.8,213.5,103.2,210.4z"/>
		<path class="st11" d="M106.3,214.6c-3,0.8-6.2,0.9-9.4,0.8c9.7,8.1,11.9,22.4,14.1,33.7c2.2,11.2,7,21.6,9.8,32.5l0.7,0.1
			c0,0-1.5-8.8-2.6-12.3c-1.4-4.4-9.2-30.7-11.2-39.3C106.7,226,107.7,219.2,106.3,214.6z"/>
		<path class="st12" d="M66.7,194.4c-4.5,3.7,7.2,16.3,13.9,19.3c7,3.2,16.4,3.8,24.1,3c7-0.7,13.1-12.6,13.1-12.6
			c-4.1-2.5-13.1-3.5-19.5-7.3c-8.3-5-18.6-10.2-18.6-10.2C75.1,190.7,71.1,190.8,66.7,194.4z"/>
		<path class="st13" d="M66.7,194.4c-4.5,3.7,7.2,16.3,13.9,19.3c7,3.2,16.4,3.8,24.1,3c5.5-0.6,10.5-8.2,12.4-11.3
			c-9.3,10.3-17.7,11.6-35,6c-5.2-1.7-17.1-8.7-14.1-18C67.5,193.8,67.1,194.1,66.7,194.4z"/>
	</g>
	<path class="st16" d="M162.7,141.9c0.2-0.1,0.5-0.2,0.8-0.3c-0.1-0.1-0.3-0.1-0.4-0.2L162.7,141.9z"/>
	<path class="st16" d="M240.1,147.9c-0.1,0.2-0.2,0.4-0.4,0.5C240,148.2,240,148,240.1,147.9z"/>
	<path class="st17" d="M136.6,118.4c0.2,0.1,0.3,0.1,0.5,0.1c-0.2-0.3-0.4-0.6-0.5-0.9V118.4z"/>
</g>
<g>
	<g>
		<path class="st18" d="M74.3,199c0,0,0.1,3.8,1.8,7.5l0-8L74.3,199z"/>
		<polygon class="st18" points="98.9,200.3 97.6,206.9 99.4,207.2 101.6,200.4 		"/>
		<path class="st18" d="M64.4,100.6c7.3,0.5,49.2,3.1,68.2,5.1c0.9,0.1,1.6,1,1.4,1.9l0,0c-0.1,0.8-0.9,1.5-1.8,1.4
			c-6.8-0.6-35.3-2.9-68.1-5c-0.9-0.1-1.7-0.9-1.5-1.8c0-0.1,0-0.1,0-0.2C62.9,101.1,63.6,100.6,64.4,100.6z"/>
		<path class="st19" d="M107.6,57.9l-8.9-1.8c0,0,0-0.3,0-0.9c0-0.6,0-1.6,0.1-2.8c0.3-8,1-25.9,2-25.8c0.6,0.1,2.4,1,4.4,2.2
			c2.7,1.7,5.6,4.1,5.9,6.2c0.4,2.8-2.2,16.2-3.2,21.1C107.8,57.3,107.6,57.9,107.6,57.9z"/>
		<path class="st19" d="M76.6,199.9c-0.3,0-0.5,0.1-0.8,0.1c-0.1,0-0.2,0-0.3,0c-1.6,0-3-1.2-3.3-2.8C70,186.5,62.5,139.4,79.4,91
			c1.3-3.7,2.7-7.3,4.3-11l9,19.2c0,0-13.6,21.2-13.4,97.3C79.3,198.2,78.2,199.6,76.6,199.9z"/>
		<path class="st19" d="M104.6,199.9c-0.6,1.5-2.3,2.3-3.8,2c-0.1,0-0.2-0.1-0.4-0.1c-0.3-0.1-0.5-0.2-0.7-0.2
			c-0.7-0.3-1.3-0.8-1.6-1.4c-0.4-0.7-0.5-1.6-0.3-2.4c4.5-20.8,7-37.6,8.4-51.1c2.2-22.7,1-35.8-0.1-42.1c-0.6-3.3-1.1-4.8-1.1-4.8
			l12.8-16.9C128.8,138.4,109.3,189,104.6,199.9z"/>
		<path class="st20" d="M104.6,199.9c-0.6,1.5-2.3,2.3-3.8,2c-0.1,0-0.2-0.1-0.4-0.1c6.8-25.5,12.1-51.4,16-77.5
			c0.7-4.8,1.3-10-0.8-14.4c-2.4-5.1-5.9-3.7-9.5-5.3c-0.6-3.3-1.1-4.8-1.1-4.8l12.8-16.9C128.8,138.4,109.3,189,104.6,199.9z"/>
		<path class="st20" d="M79.3,196.5c0,1.6-1.1,3.1-2.7,3.3c-0.3,0-0.5,0.1-0.8,0.1c-3.3-18-0.7-37,1.9-55.3
			c1.7-11.6,3.3-23.3,4.9-34.9c0.8-5.9,1.3-11.6-1.9-16.9c-0.4-0.7-0.8-1.3-1.2-1.8c1.3-3.7,2.7-7.3,4.3-11l9,19.2
			C92.7,99.2,79.1,120.5,79.3,196.5z"/>
		<path class="st21" d="M104.3,102.5c0,0,0.9-9.5,0.6-13.9c-0.1-0.9-0.7-1.7-1.5-2.1c-0.5-0.2-1.1-0.4-1.8-0.5
			c-1-0.2-2.3-0.3-3.7-0.2c-1,0.1-1.8,0.9-2.1,1.9c-0.5,2.2-1.3,6.7-1.9,13.7c0,0.5-8.9-0.4-10.6-16.4c-0.9-8.8-0.3-15.8,0.5-20.4
			c0.7-3.9,3.5-7.1,7.3-8.2c1.8-0.5,4-1,6.5-1.2c0.4,0,0.8-0.1,1.2-0.1c2.8-0.2,5.9,0.1,9.2,0.9c1.8,0.5,3.7,1.1,5.6,2
			c3.7,1.8,6,5.7,5.8,9.9C118.9,78.4,116.3,98.6,104.3,102.5z"/>
		<path class="st22" d="M99.5,113c-0.1,0.6-0.5,1.1-1,1.3c-0.3,0.1-0.6,0.2-0.9,0.2c0,0,0,0,0,0c-1.1,0-1.9-0.9-1.9-2
			c0.1-4.1,0.7-14.4,2.1-21c0.2-1,1.1-1.6,2.1-1.5c0.1,0,0.1,0,0.2,0c0.1,0,0.2,0,0.3,0.1c0.8,0.3,1.3,1,1.3,1.8
			C101.6,95.1,101.5,103.8,99.5,113z"/>
		<g>
			<g>
				<path class="st23" d="M84.9,102.9c-0.3,1.5-1.8,2.5-3.4,2.2c-1.5-0.3-2.5-1.8-2.2-3.4c0.3-1.5,1.8-2.5,3.4-2.2
					C84.2,99.9,85.2,101.4,84.9,102.9z"/>
				<path class="st23" d="M117.2,105.7c-0.3,1.5-1.8,2.5-3.4,2.2c-1.5-0.3-2.5-1.8-2.2-3.4c0.3-1.5,1.8-2.5,3.4-2.2
					C116.5,102.7,117.5,104.2,117.2,105.7z"/>
			</g>
		</g>
		<path class="st24" d="M101.6,91.9c0,3.2-0.1,11.8-2.1,21.1c-0.1,0.6-0.5,1.1-1,1.3c-0.2-1.1-0.3-2.1-0.4-3.2
			c-0.5-5.8,0-11.8,1.3-17.5c0.3-1.2,0.6-2.4,0.9-3.6C101.1,90.4,101.6,91.1,101.6,91.9z"/>
		<path class="st20" d="M97.6,55.3c5.1,3.5,7.3,10.6,6.9,17c-0.3,4.7-1.7,9.2-3,13.7c0.7,0.1,1.3,0.3,1.8,0.5
			c0.9,0.3,1.5,1.1,1.5,2.1c0.3,4.4-0.6,13.9-0.6,13.9c12.1-3.9,14.6-24.1,15.1-34.5c0.2-4.1-2.1-8-5.8-9.9c-1.9-0.9-3.7-1.6-5.6-2
			c1-4.9,3.6-18.3,3.2-21.1c-0.3-2-3.2-4.4-5.9-6.2c0.4,9.5,1.4,24.2-0.7,23.6c-1.9-0.5-3.8-0.5-5.7-0.1L97.6,55.3z"/>
		<path class="st20" d="M98.1,200.1c-0.4-0.7-0.5-1.6-0.3-2.4c4.5-20.8,7-37.6,8.4-51.1c-0.4,11.3-1.5,22.6-3.1,33.8
			C102,187,100.7,193.9,98.1,200.1z"/>
	</g>
	<g>
		<g>
			<path class="st25" d="M96.1,71.3c0,1.6-1.3,2.8-2.9,2.8c-1.6,0-2.8-1.3-2.8-2.9c0-1.6,1.3-2.8,2.9-2.8
				C94.9,68.4,96.2,69.7,96.1,71.3z"/>
			<path class="st25" d="M114.7,71.7c0,1.6-1.3,2.8-2.9,2.8c-1.6,0-2.8-1.3-2.8-2.9c0-1.6,1.3-2.8,2.9-2.8
				C113.5,68.8,114.7,70.1,114.7,71.7z"/>
		</g>
		<g>
			<path class="st26" d="M95.2,70.5c0,0.6-0.5,1.1-1.1,1.1c-0.6,0-1.1-0.5-1.1-1.1c0-0.6,0.5-1.1,1.1-1.1
				C94.7,69.4,95.2,69.9,95.2,70.5z"/>
			<path class="st26" d="M93.7,72.1c0,0.3-0.2,0.5-0.5,0.5c-0.3,0-0.5-0.2-0.5-0.5c0-0.3,0.2-0.5,0.5-0.5
				C93.5,71.7,93.7,71.9,93.7,72.1z"/>
			<path class="st26" d="M113.8,70.9c0,0.6-0.5,1.1-1.1,1.1c-0.6,0-1.1-0.5-1.1-1.1s0.5-1.1,1.1-1.1
				C113.3,69.8,113.8,70.3,113.8,70.9z"/>
			<path class="st26" d="M112.3,72.5c0,0.3-0.2,0.5-0.5,0.5c-0.3,0-0.5-0.2-0.5-0.5c0-0.3,0.2-0.5,0.5-0.5
				C112.1,72,112.3,72.3,112.3,72.5z"/>
		</g>
		<g>
			<path class="st27" d="M98.5,71.2c0,0.9,0.5,1.6,1.3,1.9c0.2,0.1,0.4,0.1,0.6,0.1c1.1,0,2-0.8,2-1.9"/>
			<path class="st27" d="M102.4,71.3c0,1.1,0.8,2,1.9,2c0.2,0,0.4,0,0.6-0.1c0.8-0.2,1.3-1,1.4-1.8"/>
		</g>
		<path class="st28" d="M105,73.8c0,1.3-0.3,2.4-0.8,3.2c-0.5,0.8-1.2,1.4-1.9,1.3c-0.7,0-1.4-0.6-1.8-1.4c-0.4-0.8-0.7-2-0.7-3.2
			c0-0.2,0-0.4,0-0.6c0.2,0.1,0.4,0.1,0.6,0.1c1.1,0,2-0.8,2-1.9c0,1.1,0.8,2,1.9,2c0.2,0,0.4,0,0.6-0.1C105,73.4,105,73.6,105,73.8
			z"/>
		<path class="st29" d="M104.2,77c-0.5,0.8-1.2,1.4-1.9,1.3c-0.7,0-1.4-0.6-1.8-1.4c0.5-0.5,1.1-0.8,1.9-0.8
			C103.1,76.2,103.7,76.5,104.2,77z"/>
		<g>
			<path class="st30" d="M94.5,76.4c0,0.8-1.2,1.4-2.6,1.3c-1.4,0-2.5-0.7-2.5-1.4c0-0.8,1.2-1.4,2.6-1.3
				C93.4,75,94.5,75.6,94.5,76.4z"/>
			<path class="st30" d="M114.6,76.8c0,0.8-1.2,1.4-2.6,1.3c-1.4,0-2.5-0.7-2.5-1.4c0-0.8,1.2-1.4,2.6-1.3
				C113.5,75.4,114.6,76,114.6,76.8z"/>
		</g>
	</g>
</g>
<g>
	<g>
		<polygon class="st31" points="125,134.5 177.6,149.5 177.3,145.6 166.9,38.6 164.6,44 		"/>
		<polygon class="st21" points="166.9,38.6 177.3,145.6 177.6,149.5 215.3,135.5 216.9,134.9 		"/>
		<polygon class="st20" points="125,134.5 177.6,149.5 215.3,135.5 177.3,145.6 177.3,145.6 138.9,129 164.6,44 		"/>
		<polygon class="st32" points="213.2,133.5 171.8,54.1 207.1,135.9 		"/>
	</g>
	<g>
		<g>
			<path class="st33" d="M167.3,119.8c0.5-2-0.7-4.1-2.8-4.6c-0.4-0.1-0.8-0.1-1.2-0.1c-1.6,0.1-2.9,1.2-3.3,2.9"/>
			<path class="st33" d="M144.6,114.2c0.5-2-0.7-4.1-2.8-4.6c-0.4-0.1-0.8-0.1-1.2-0.1c-1.6,0.1-2.9,1.2-3.3,2.9"/>
		</g>
		<g>
			<path class="st30" d="M160.8,122.2c-0.2,0.9,0.9,2,2.6,2.4c1.6,0.4,3.2,0,3.4-0.9c0.2-0.9-0.9-2-2.6-2.4
				C162.5,120.9,161,121.3,160.8,122.2z"/>
			<path class="st30" d="M137.3,116.4c-0.2,0.9,0.9,2,2.6,2.4c1.6,0.4,3.2,0,3.4-0.9c0.2-0.9-0.9-2-2.6-2.4
				C139,115.1,137.5,115.5,137.3,116.4z"/>
		</g>
		<path class="st28" d="M148.1,114c-0.4,1.5-0.2,3,0.4,4.2c0.6,1.2,1.7,2.2,3,2.5c1.4,0.3,2.8,0,3.9-0.9c1-0.8,1.9-2,2.2-3.4
			c0-0.1,0.1-0.3,0.1-0.4l-9.5-2.3C148.2,113.7,148.2,113.8,148.1,114z"/>
		<path class="st29" d="M148.6,118.2c0.6,1.2,1.7,2.2,3,2.5c1.4,0.3,2.8,0,3.9-0.9c-0.7-0.8-1.8-1.4-3.1-1.8
			C151,117.7,149.6,117.7,148.6,118.2z"/>
		<g>
			<path class="st26" d="M153.8,115c-0.2,1,0.1,1.9,0.8,2c0.6,0.2,1.4-0.5,1.6-1.4c0,0,0-0.1,0-0.1l-2.3-0.6
				C153.9,115,153.8,115,153.8,115z"/>
			<path class="st26" d="M150,114.1c-0.2,1,0.1,1.9,0.8,2c0.6,0.2,1.4-0.5,1.6-1.4c0,0,0-0.1,0-0.1L150,114
				C150,114,150,114,150,114.1z"/>
		</g>
	</g>
</g>
<g>
	<g>
		<path class="st19" d="M210.1,144.8c0.3,0.9,0.9,1.7,1.8,2.2c9.4,4.9,22.9,5.6,22.9,5.6c0.1,0,0.3,0,0.4,0
			c7.1-0.3,13.6-3.3,17.5-5.5c1.2-0.7,2.2-1.3,2.8-1.7c0.5-0.4,1-0.8,1.2-1.4c5.6-12.4,2.1-28.6,2.1-28.6l-0.1,0l-23,10.8l-18-4.4
			l-8.4-2.1c0,0,0,0,0,0C206,128.8,208.9,140.8,210.1,144.8z"/>
		<path class="st21" d="M235.1,152.6c7.1-0.3,13.6-3.3,17.5-5.5c1.2-0.7,2.2-1.3,2.8-1.7c0.5-0.4,1-0.8,1.2-1.4
			c5.6-12.4,2.1-28.6,2.1-28.6l-0.1,0c-0.1-0.2-0.2-0.3-0.4-0.4c-0.6-0.3-1.5-0.7-2.7-1.1c-6.4,2.8-19.6,10.7-19.9,12.4
			c0,0,0.1,0.4,0.2,1c0.4,2.6,1.4,9.8,0.1,20.1C235.7,149,235.4,150.8,235.1,152.6z"/>
		<path class="st34" d="M210.1,144.8c0.3,0.9,0.9,1.7,1.8,2.2c9.4,4.9,22.9,5.6,22.9,5.6c0.1,0,0.3,0,0.4,0
			c7.1-0.3,13.6-3.3,17.5-5.5c-5.3-0.5-11.1,0.6-16.7,0.2c-1.3-0.1-2.5-0.2-3.7-0.5c-6.5-1.4-11.8-6.3-14.6-12.2
			c-2.5-5.6-1-8.3-0.1-12.8l-8.4-2.1c0,0,0,0,0,0C206,128.8,208.9,140.8,210.1,144.8z"/>
		<polygon class="st35" points="250.5,131.2 248.7,128.9 247.2,129.4 246.8,140.1 245.2,140.7 245.2,142.2 249.9,141.3 249.8,139.9 
			248.4,140.1 248.6,132 		"/>
		<path class="st36" d="M209.1,119.8c0,0.3,0.1,0.7,0.5,0.8c2.6,1.1,10.6,4.2,26.1,6.6c0,0,0.1,0,0.1,0c0.1,0,0.2,0,0.3,0
			c0.9-0.2,5.1-1.4,9.8-3.4c4.4-1.8,9.4-4.4,12.6-7.6c0.3-0.3,0.3-0.6,0.2-0.9c-0.1-0.2-0.2-0.3-0.4-0.4c-0.6-0.3-1.5-0.7-2.7-1.1
			c-4.1-1.5-11.6-3.6-21.8-3.9c-1,0-2-0.1-3-0.1c0,0-0.1,0-0.1,0c-1,0.2-14.3,2.3-21.1,9.3C209.2,119.4,209.1,119.6,209.1,119.8
			C209.1,119.8,209.1,119.8,209.1,119.8z"/>
		<path class="st35" d="M231.2,114.4l-1.7-0.3l-4.4,2.7l2.1,1l4.2-0.2c0,0-0.8,2.4,2.4,3c3.2,0.6,5.4-2.4,5.4-2.4l-1.1-0.5
			c0,0-2.7,2.5-4.4,1.6c-1.7-0.9,0-2.5,0-2.5l-1.3-0.6l-4.4,0.4L231.2,114.4z"/>
		<path class="st34" d="M209.1,119.8c0,0.3,0.1,0.7,0.5,0.8c2.6,1.1,10.6,4.2,26.1,6.6c0,0,0.1,0,0.1,0c0.1,0,0.2,0,0.3,0
			c0.9-0.2,5.1-1.4,9.8-3.4c-1.8,0.2-3.6,0.4-5.4,0.5c-3.9,0-8.2-1.4-9.8-4.9c-0.9-1.9-0.7-4,0.1-5.9c0.4-0.9,2-2.4,2.9-3.5
			c-1,0-2-0.1-3-0.1c0,0-0.1,0-0.1,0c-1,0.2-14.3,2.3-21.1,9.3C209.2,119.4,209.1,119.6,209.1,119.8
			C209.1,119.8,209.1,119.8,209.1,119.8z"/>
	</g>
	<g>
		<path class="st37" d="M209.6,130.5c-0.2,1.3,0.7,2.6,2,2.8c1.3,0.2,2.6-0.7,2.8-2c0.2-1.3-0.7-2.6-2-2.8
			C211.1,128.3,209.8,129.2,209.6,130.5z"/>
		<g>
			<path class="st26" d="M210.5,130c-0.1,0.5,0.3,1,0.8,1.1c0.5,0.1,1-0.3,1.1-0.8c0.1-0.5-0.3-1-0.8-1.1
				C211.1,129.1,210.6,129.5,210.5,130z"/>
			<path class="st26" d="M211.5,131.6c0,0.2,0.1,0.4,0.3,0.5c0.2,0,0.4-0.1,0.5-0.3c0-0.2-0.1-0.4-0.3-0.5
				C211.7,131.2,211.5,131.4,211.5,131.6z"/>
		</g>
		<g>
			<path class="st30" d="M225.8,137.5c-0.1,0.6,0.8,1.3,2,1.5c1.2,0.2,2.2-0.2,2.3-0.8c0.1-0.6-0.8-1.3-2-1.5
				C227,136.5,225.9,136.8,225.8,137.5z"/>
			<path class="st30" d="M208.9,134.8c-0.1,0.6,0.8,1.3,2,1.5c1.2,0.2,2.2-0.2,2.3-0.8s-0.8-1.3-2-1.5
				C210.1,133.8,209,134.2,208.9,134.8z"/>
		</g>
		<polyline class="st38" points="231.7,131.5 226.5,133.2 230.9,136.6 		"/>
		<line class="st38" x1="231.5" y1="134.1" x2="226.5" y2="133.2"/>
		<path class="st28" d="M216.9,131.7c-0.2,1.1,0.1,2.1,0.5,2.9c0.5,0.8,1.3,1.4,2.3,1.6c1,0.2,2-0.2,2.7-0.9
			c0.7-0.6,1.2-1.5,1.4-2.6c0-0.1,0-0.2,0-0.3l-6.9-1.1C216.9,131.5,216.9,131.6,216.9,131.7z"/>
		<path class="st29" d="M217.4,134.6c0.5,0.8,1.3,1.4,2.3,1.6c1,0.2,2-0.2,2.7-0.9c-0.6-0.5-1.4-0.9-2.3-1.1
			C219.1,134.1,218.1,134.2,217.4,134.6z"/>
	</g>
</g>
</svg>
