<?xml version="1.0" encoding="utf-8"?>
<!-- Generator: Adobe Illustrator 24.2.0, SVG Export Plug-In . SVG Version: 6.00 Build 0)  -->
<svg version="1.1" id="Layer_1" xmlns="http://www.w3.org/2000/svg" xmlns:xlink="http://www.w3.org/1999/xlink" x="0px" y="0px"
	 viewBox="0 0 202 202" style="enable-background:new 0 0 202 202;" xml:space="preserve">
<style type="text/css">
	.st0{fill:#43c6ac;}
	.st1{fill:#FFFFFF;}
	.st2{fill-rule:evenodd;clip-rule:evenodd;fill:#F16B24;}
	.st3{fill-rule:evenodd;clip-rule:evenodd;fill:#FFFFFF;}
</style>
<g>
	<circle class="st0" cx="101" cy="101" r="101"/>
	<path class="st1" d="M142.9,169.9c-0.3,1.3-0.7,2.5-1.3,3.6c-0.8,2-1.3,3.2-1.5,3.7c-0.5,1.9-1.3,4.7-2.6,8.3
		c-0.2,0.5-0.5,0.8-0.9,1.1c-0.4,0.3-0.9,0.4-1.3,0.3c-0.9,0-1.9-0.2-2.8-0.3c-9.5-1.1-19.1-1.6-28.7-1.4c-3.7,0-9.3,0.1-16.8,0.3
		c-7.5,0.2-13.1,0.3-16.8,0.3c-1.7,0-2.4-0.8-2.1-2.3c0.7-4.1,1.9-9.6,3.4-16.6h15.8c0.2,0.5,0.4,1,0.8,1.4
		c4.5,1.4,9.2,1.9,13.9,1.6l8.4-0.1c3.6,0,13.7-0.6,30.3-1.9l1.2-0.1C142.8,167.8,143.2,168.5,142.9,169.9z"/>
	<path class="st1" d="M81,147c0.9-4.3,1.7-7.9,2.2-10.8c0.6-3,1.3-7.4,2.2-13.2h8.3c-0.1,0.4-0.1,0.9-0.1,1.4
		c0.2,1.6,1.3,2.4,3.6,2.4c0.6,0,1.5,0,2.6-0.1h2.6c10,0,19-0.2,27.1-0.6c3.1-0.1,6.9-0.4,11.2-0.8c1.1-0.1,1.5,0.4,1.3,1.4
		c-0.3,1.7-1,4.2-2,7.7c-0.8,2.5-1.5,5.1-2,7.7c-0.2,1-1,1.4-2.6,1.4c-0.6,0-2.9-0.2-6.7-0.5c-2.8-0.3-9.2-0.5-19.2-0.5
		c-8.4,0-13.8,0.1-16.1,0.3c-0.9,0-1.8,0.3-2.6,0.9c-0.7,0.6-1.3,1.4-1.5,2.3c0.1-0.2,0,0.1-0.1,0.9L81,147z"/>
	<path class="st1" d="M150.7,93.8c0.2-1.3,0.2-2.7,0.1-4c-0.1-2.2-0.2-3.6-0.2-4c0.2-2.1,0.4-5.2,0.4-9.2c0-0.2,0-0.5-0.1-0.7
		c-0.1-0.2-0.2-0.4-0.4-0.5c-0.2-0.2-0.4-0.3-0.6-0.3c-0.2-0.1-0.4-0.1-0.7,0c-1,0.1-2,0.2-3.1,0.4c-10.1,1.2-20.2,1.8-30.4,1.6
		c-3.9,0-9.6-0.1-17.3-0.4c-7.7-0.2-5-0.4-8.8-0.4c-0.4,0-0.7,0-1.1,0.1c-0.4,0.1-0.7,0.3-1,0.5c-0.3,0.2-0.5,0.5-0.7,0.9
		c-0.2,0.3-0.3,0.7-0.3,1.1C85.9,83.3,85,89.4,84,97h12.7c0.4-0.6,0.8-1.1,1.3-1.5c3.1-1.6,6.7-2.2,10.2-1.8l8.7,0.1
		c3.7,0,13.9,0.7,30.7,2.1l1.2,0.1C149.8,96.1,150.4,95.4,150.7,93.8z"/>
	<path class="st2" d="M113.3,17.2c-1.9-0.3-3.9-0.2-5.8,0.2c-1.9,0.5-3.7,1.3-5.3,2.5c-1.6,1.2-2.9,2.7-4,4.4c-1,1.7-1.7,3.7-2,5.7
		c-0.3,2-0.2,4.1,0.2,6c0.5,2,1.3,3.8,2.5,5.5c1.2,1.6,2.6,3,4.3,4.1c1.7,1.1,3.5,1.8,5.5,2.1c3.9,0.6,7.9-0.4,11.2-2.8
		c3.2-2.4,5.4-6.1,6-10.1c0.6-4.1-0.3-8.2-2.7-11.5C120.8,20.1,117.3,17.8,113.3,17.2z"/>
	<path class="st3" d="M128,18.2c-0.2,0.3-3.5,3.1-4.1,3.6c-1.4,1.2-2.8,2.4-4.2,3.6c-2.7,2.4-5.7,4.8-8.3,7.2
		c-0.6,0.6-1.3,1.2-2.1,1.7c-6.1-1.2-12.2-2-18.3-2.5l1.9,7.9c0.2,0.3,0.7,0.1,0.9,0.8c0.1,0.2,0.1,0.4,0,0.7
		c-0.1,0.2-0.2,0.4-0.4,0.5l2.4,3.1L91.9,46l0.6-4.1c-0.4-0.1-0.8-0.2-0.9-0.8c-0.1-0.8,0.4-0.7,0.4-1.2l-2-8.2L86,31.1
		c0.4-0.6,18.6-16.1,18.6-16.1S127.5,18,128,18.2z"/>
	<path class="st2" d="M78.9,73.1c0.5-0.3,1-0.6,1.6-0.8L75,92.2c-0.5,1.9-0.7,4-0.4,6c0.3,2,0.9,3.9,1.9,5.7c2,3.2,5.2,5.5,8.8,6.6
		c-4.8,17.1-11,39.2-14.6,56.5l15.9-0.1l15.5-52.4l10.1,2.3l-0.4,9.5l3.9,0l5-0.1l4.7-0.1l4.6-0.2l-0.9-13.7
		c-0.5-2.9-1.8-5.6-3.9-7.7c-2-2.1-4.6-3.6-7.4-4.3l-11-2.6l5.2-18.8c0.4,0.4,0.6,1.1,1,1.6c1.3,2.1,3,4,5.1,5.4
		c2.1,1.4,4.4,2.4,6.8,2.9l15.1,3.1c1.6,0.4,3.2,0.2,4.6-0.6c1.1-0.5,2-1.3,2.7-2.2c0.7-0.9,1.2-2,1.5-3.2c0.2-1,0.2-2,0-3
		c-0.2-1-0.6-1.9-1.2-2.7c-0.6-0.8-1.3-1.5-2.1-2.1c-0.8-0.5-1.8-0.9-2.8-1.1l-15.1-3.1c-0.8-0.3-1.5-0.8-2.1-1.4
		c-11.9-19.2-14.5-20.4-18.2-20.9l-12.3-1.4c-2.4-0.4-4.6-0.5-23.7,9.5c-4,2.2-7.3,5.4-9.7,9.2l-8.7,14.9c-0.5,0.9-0.8,1.8-1,2.8
		c-0.1,1-0.1,2,0.2,3c0.2,1,0.7,1.9,1.3,2.7c0.6,0.8,1.3,1.5,2.2,2c1.7,1,3.8,1.3,5.7,0.8c1.9-0.5,3.6-1.8,4.7-3.5l8.7-14.7
		C75.9,75.3,77.3,74,78.9,73.1z"/>
</g>
</svg>
