<?xml version="1.0" encoding="utf-8"?>
<!-- Generator: Adobe Illustrator 24.2.0, SVG Export Plug-In . SVG Version: 6.00 Build 0)  -->
<svg version="1.1" id="Layer_1" xmlns="http://www.w3.org/2000/svg" xmlns:xlink="http://www.w3.org/1999/xlink" x="0px" y="0px"
	 viewBox="0 0 320 306.2" style="enable-background:new 0 0 320 306.2;" xml:space="preserve">
<style type="text/css">
	.st0{fill:#80411C;}
	.st1{fill:#6E3516;}
	.st2{fill:#5D2B0E;}
	.st3{fill:#9E5B25;}
	.st4{fill:#B36428;}
	.st5{fill:#8F4D21;}
	.st6{fill:#915022;}
	.st7{fill:#A05124;}
	.st8{fill:#7B3A1A;}
	.st9{fill:#6F3516;}
	.st10{fill:#A05324;}
	.st11{fill:#EF7722;}
	.st12{fill:#F9A53F;}
	.st13{fill:#CB6828;}
	.st14{fill:#ED7523;}
	.st15{opacity:5.000000e-02;enable-background:new    ;}
	.st16{fill:#7185A3;}
	.st17{opacity:0.2;enable-background:new    ;}
	.st18{fill:#EDEDEF;}
	.st19{fill:#3F536F;}
	.st20{opacity:0.3;}
	.st21{opacity:0.3;enable-background:new    ;}
	.st22{fill:#F1BD9A;}
	.st23{opacity:0.4;enable-background:new    ;}
	.st24{fill:#76A0CC;}
	.st25{fill:#FFD76A;}
	.st26{opacity:0.2;fill:#FFFFFF;enable-background:new    ;}
	.st27{opacity:0.1;enable-background:new    ;}
	.st28{opacity:0.1;fill:#FFFFFF;enable-background:new    ;}
	.st29{fill:#F18879;}
	.st30{opacity:0.6;enable-background:new    ;}
	.st31{opacity:0.7;fill:#FFFFFF;enable-background:new    ;}
	.st32{fill-rule:evenodd;clip-rule:evenodd;fill:#F1BD9A;}
	.st33{fill-rule:evenodd;clip-rule:evenodd;fill:#3F536F;}
</style>
<g>
	<path class="st0" d="M307.7,134.9l-4.5-1c-9.9-2.5-21.3-2.5-31.7-3c-23.1-1.1-45.3,2.3-66,11.2c-21.7,9.3-46.2,26.3-54.1,47.6
		c-5.5,14.9-9.7,32.2-7,48c2.8,16.7,12.8,33.3,12.6,50.2c10.6-2.1,18.7-13.3,29.8-16.6c0,0,8.5,4.9,19.4-3.4
		c14.8-11.3,29.7-24.4,47.2-28.7c19.4-4.8,27.2-23,37.5-28.5c8.4-17.3-2.3-20.9,5.8-33.8C306.8,160.8,302.1,148.7,307.7,134.9z"/>
	<path class="st1" d="M213.5,203.9c-3.1,7.9-3.4,23.7-5.7,31.8c-2.2,7.8-4.2,15.7-5.7,23.6c-0.5,2.9-1,5.7-1.2,8.6
		c-0.1,1.8,0.1,2.4,0.1,2.5c0.1,0.1,0.2,0.3,0.3,0.4c1.5-0.7,3.1-1.6,4.7-2.9c5.1-3.9,10.3-8.1,15.6-12c0.4-6.4,1.6-12.8,2.8-19.2
		c1.3-7.5,3.1-16.4-0.3-23.6C222.6,209.9,213.5,203.9,213.5,203.9z"/>
	<path class="st2" d="M218.4,258.4c0.8-5.4,1.9-10.8,2.8-16.2c1.4-8.6-5.2-23.8-7.2-31.2c-0.1,18.8-0.8,40.4-6.5,55.9
		C211.1,264.1,214.8,261.2,218.4,258.4z"/>
	<path class="st1" d="M273.5,199.9c-2.5,10.1-2.8,20.4-3.7,30.7c8.6-7.2,14.3-16.2,21-19.8c8.4-17.3-2.3-20.9,5.8-33.8
		c10.2-16.2,5.5-28.3,11-42.1l-4.5-1c-0.3-0.1-0.6-0.1-0.9-0.2c-6.1,3.1-12.1,6.4-17.9,10c4.2,0.1,8.1,1,12.2,2.2
		c4.5,1.3,5.5,5.9,3.3,8.7C295.3,171.7,277.8,182.7,273.5,199.9z"/>
	<path class="st2" d="M301.6,166.3c-5.2,8-11,15.5-17,23.1c-3.3,10.8-6.8,21.5-9.8,32.3c5.5-8.4,12-15.9,19.4-22.9
		c0.4-8.1-3.4-12.6,2.4-21.8C299,173.3,300.6,169.7,301.6,166.3z"/>
	<path class="st1" d="M155.6,205.4c-0.4,0.1-0.8,0.1-1.2,0c-0.9,19.8-1.2,39.7-1.9,59.5c2.5,7.6,4.5,15.3,4.4,23c5-1,9.4-4,13.9-7.2
		c-0.1-1.3-0.2-2.5-0.3-3.8c-0.4-5.9-0.7-12-2.9-17.6c-1.8-4.7-5.2-9.3-6.2-14.2c-3.3-16.5,3.7-30,14.8-42.1
		C169.5,204.1,162.6,204.6,155.6,205.4z"/>
	<path class="st1" d="M231.3,249.2c3.9-2.5,8-4.7,12.1-6.6c0.3-4.2,0.7-8.5,1.3-12.7c1.5-10.2,5.1-18.5,8.9-28.2
		c3.4-8.6,1.1-17.8,4.4-26.3c2.6-6.7,6.1-12.7,8.1-19.3c-4.5,2.3-10.1,3.7-14.7,3.7c-5.6-0.1-11.4-0.8-16.9,0.9c0.3-0.1-16,3.4-12,5
		c1.1,0.1,5.5,1.2,6.4,1.5c0.5,0.2,13.1-0.3,13.1-0.3c-9.2,19.3-7.2,47.7-9,68.2C232.6,240,232,244.6,231.3,249.2z"/>
	<path class="st2" d="M231.3,249.2c1-0.6,2-1.3,3-1.8c0.5-8.2,1.8-16.4,2.8-24.6c1.1-8.8,1.5-17.7,3.5-26.5
		c3.4-15,7.4-25.6,20.9-35.6c1.1-0.8,2.3-1.2,3.4-1.3c0.4-1,0.7-2.1,1.1-3.1c-4.5,2.3-10.1,3.7-14.7,3.7c-5.6-0.1-11.4-0.8-16.9,0.9
		c0.3-0.1-16,3.4-12,5c1.1,0.1,5.5,1.2,6.4,1.5c0.5,0.2,13.1-0.3,13.1-0.3c-9.2,19.3-7.2,47.7-9,68.2
		C232.6,240,232,244.6,231.3,249.2z"/>
	<path class="st1" d="M194.1,224.1c4.7-10.9,3.3-21.8,11.9-32.6c2-2.5,15.3-16,15.8-18.9c-9.6,3.1-37.5,19.5-42.9,27.4
		c1,8.8,1.9,17.6,1.7,26.5s-1.7,17.7-0.5,26.6c0.9,6.6,2.1,13.1,3,19.7c0.9-0.4,1.9-0.8,2.8-1.1c-0.5-7,1.5-13.7,2.8-20.7
		C190.5,241.6,190.3,233,194.1,224.1z"/>
	<path class="st2" d="M203.4,184.1c0.1-0.4,0.1-0.9,0.2-1.3c-9.6,3.1-19.3,9.3-24.6,17.2c1,8.8,1.9,17.6,1.7,26.5
		s-1.7,17.7-0.5,26.6c0.9,6.6,2.1,13.1,3,19.7c0.8-0.4,1.7-0.7,2.5-1c-0.8-16.5-1-32.9-0.3-49.4C186,206.5,194.4,196.9,203.4,184.1z
		"/>
	<path class="st3" d="M154.4,190.9c-8-19.3-40.8-36.5-60.9-44.8s-47.4-8.3-69.2-9.2c-5.9-0.2-10.6-0.5-15.8-2
		c0,15.4,0.6,31.9,8.8,45.1c3.4,5.4,7,26,14,37.7c4.8,7.9,9.6,6.1,17.2,8.8c11.9,4.2,17.8,19.1,38,28.8c7.2,3.5,11.7,12.4,26.7,16.7
		c8.6,2.5,19,0.8,19,0.8c8.7,3.1,9,10.2,24.6,15c0.5-15.3-1-31.1-1-47.4C155.9,225.8,160.1,204.6,154.4,190.9z"/>
	<path class="st0" d="M73.8,247.3c3.6,2.8,7.7,5.6,12.8,8.1c4.3,2.1,7.7,6.1,13,10c-3.8-8.3-7.4-16.6-9.8-25.3
		c-3.1-11.3-4.3-23.2-7.8-34.4c0,0.1,0,0.2-0.1,0.3c1.8,5.7,2.6,12.7,1.8,19.6C83.8,235.2,81.6,244,73.8,247.3z"/>
	<path class="st4" d="M155.5,207.6c-2.6-1.8-6.8-4.6-10.3-5.4c0,0.2,0.1,0.5,0.1,0.9c0.1,0.4,0.3,0.8,0.4,1.1
		c0.5,0.3,0.9,0.7,1.3,1.2c10.1,12.5,6,27.6,6.6,41.9c0.5,12.3,2.3,24.5,3.3,36.8c0.2-14.1-1.1-28.6-1.1-43.6c0-9.3,1.7-21.1,1.5-32
		C156.7,208.3,156.1,208,155.5,207.6z"/>
	<path class="st4" d="M144,281.5c-1-10.2-2.4-20.4-2.8-30.6c-0.2-4.7,0.3-9.8,0.5-14.9c-3-8.5-6-17-7.3-25.8
		c-2.5-6.2-4.7-13.2,0.3-16.7c1.3-0.9,2.7-1.6,4.1-2c-0.9-0.5-1.9-0.9-2.9-1.2c-3.7,1.9-7.8,3.1-12.1,3.8
		c7.3,17.8,10.5,36.5,10.2,55.3c0.1,0.2,0.2,0.4,0.2,0.5c1.1,3.2,0.3,7-0.5,10.3c0.1,0.3,0.1,0.6,0.1,0.9c0,4.2-0.2,8.2-0.8,12.1
		C137.7,275.2,139.9,278.3,144,281.5z"/>
	<path class="st4" d="M10.6,135.5c-0.7-0.2-1.3-0.3-2-0.5c0,15.4,0.6,31.9,8.8,45.1c3.4,5.4,7,26,14,37.7c2.8,4.6,5.6,5.9,8.9,6.7
		c-7.1-13-20.1-33-12.3-46.2c-4.5-2.8-11.3-10-11.3-10c0,1.2-3.2-7.7-3.8-17.3c-0.2-4.4-0.2-8.8,0.4-13.2
		C12.4,137.1,11.4,136.3,10.6,135.5z"/>
	<path class="st4" d="M62.9,237.3c0.4-6.9,0.9-13.7,1-20.6c0.1-15.7-7.7-30.8-1.1-46c-1.5-1.2-2.7-2.5-3.8-3.9
		c-3.9-2-7.3-4.5-11.3-6.1c-0.1,2.2-0.3,4.3-0.6,6.5c0,0.2,0.1,0.5,0.1,0.7c3.6,8.7,5.3,17.7,7,27c0.2,0.4,0.4,0.9,0.5,1.4
		c0.5,2.2,0.9,4.4,1.4,6.6c0.5,0.8,0.9,1.7,1,2.7c0.6,9.1,1.7,18.1,1,27.1C59.6,234.1,61.2,235.6,62.9,237.3z"/>
	<path class="st5" d="M54.9,149.9c-5.6-0.8-19.4-2.4-20.6-2.3c1,8.8,1.9,17.8,4.6,26.3c2.8,9.1,8.1,17.1,11.5,26
		c4,10.7,6.1,21.7,7.8,32.8c1,0.9,1.9,1.8,2.9,2.8c-0.5-17.9-1.6-35.9-5.8-53.3c-2.5-10-3.6-13.3-4.5-19.7
		C51.6,161.2,55.8,150.1,54.9,149.9z"/>
	<path class="st1" d="M54.9,149.9c-5.6-0.8-36.9-9.5-38.1-9.4c4.2,6.3,15.1,11.1,19,12.1c10.1,3.1,10,9,11.9,15.9
		c2.4,9.1,4.7,18.3,6.8,27.5c2.8,12,5.7,25.5,5.5,38.5c0.4,0.3,0.7,0.7,1.1,1c-0.5-17.9-1.6-35.9-5.8-53.3c-2.5-10-3.4-13.6-4.3-20
		C51.8,160.9,55.8,150.1,54.9,149.9z"/>
	<path class="st5" d="M148.6,186.2c-10.3,0.2-42.2-4-39.8,1.7c7.2,9.2,14.7,22.9,19.5,48.8c2.2,12.2,2.4,24,4,36.3
		c0.6,0.3,2.2,1,2.7,1.3c0.7-6.5,1.7-13,2.4-19.6c1.8-18.6-5.2-39.4-7.2-57.8C130.2,196.8,145.3,190,148.6,186.2z"/>
	<path class="st1" d="M148.6,186.2c-10.3,0.2-59.2-16.6-68.9-13.6l11.8,7.4c10.5,3.5,27.3,16.5,27.2,16.9
		c2.4,1.3,11.4,19.7,13.1,27.2c3.5,15.7,5.1,33.4,1.9,49.4c0.5,0.2,1,0.5,1.4,0.7c0.7-6.5,1.7-13,2.4-19.6
		c1.8-18.6-5.2-39.4-7.2-57.8C130.2,196.8,145.3,190,148.6,186.2z"/>
	<path class="st6" d="M258.6,227.8c5.1-0.4,16.4-23.5,21.4-25.2c4.9-1.6,14.8-6.9,17.9-10.9c3-3.8,2.7-7,5-11.1c2.3-4.2,4.8-4.2,8-8
		c3.3-3.9-3.2-17.4-3.2-17.4l-24.9,7.9c-2.6,1-5.4,1.8-8.1,2.8c-1.5,0.5-2.9,1-4.4,1.5c-5.8,2.2-11.7,4.2-17.7,5.8
		c-0.2,0.1-0.4,0.1-0.6,0.1c-0.5,0.2-0.9,0.2-1.3,0.1l-0.5,0.2c0,0,0.2,5.9-0.1,7.5c-0.5,2.7-2.7,4.7-3.1,7.4
		c-0.8,5.9,2.4,35.8,0.7,41.3C253.9,229.6,252.3,228.3,258.6,227.8z"/>
	<path class="st7" d="M259.7,214c-1.4,4.7-2.6,9.3-3.3,14.1c0.6-0.1,1.4-0.2,2.2-0.3c0.6-0.1,1.2-0.4,1.9-0.9
		c2.4-8.8,7.1-16.7,11.9-25c3.6-6.1,6.4-12.3,8.9-18.8c1.1-2.9,3.1-4.6-2.7-5c-3-0.2-6-0.4-9.1-0.5c4,4.7,7.6,8.3,3.9,14.9
		C269.5,199.8,262.2,206.1,259.7,214z"/>
	<path class="st8" d="M259.1,227.7c5.3-1.8,16.1-23.5,20.9-25.1c4.9-1.6,14.8-6.9,17.9-10.9c3-3.8,2.7-7,5-11.1c2.3-4.2,4.8-4.2,8-8
		c3.3-3.9-3.2-17.4-3.2-17.4c0-0.7-16.3,5.1-28.9,14.2c-2.7,2.6-0.3,9.5-0.3,10.3c0.6,8.6-1.3,13.2-8.8,22.7
		C263.7,210.1,260.7,218.7,259.1,227.7z"/>
	<path class="st1" d="M259.1,227.7c2.4-0.8,5.8-5.5,9.3-10.7c-2.6-8.9,4.8-17.2,11-24.4c1.9-5.6,3.5-11.3,6.6-16.4
		c-0.1,0-0.2-0.1-0.2-0.2c-0.6-0.4-1.2-0.8-1.9-1.2c-1.9-0.5-4.2,0.3-6.3,0.7c0.3,2.1,0.8,3.8,0.8,4.2c0.6,8.6-1.3,13.2-8.8,22.7
		C263.7,210.1,260.7,218.7,259.1,227.7z"/>
	<path class="st8" d="M213.5,203.9c-0.5,5,0.9,12.1,1.5,17.6c0.6,5.9,3.3,31.1,3.4,36.9c5,1.5,8.7,0.1,13.5-2.9
		c3.3-2.1,5.1-15.4,7.6-24.9c2.3-8.3,15.8-20,16.1-28.5l-0.5,0.4c-6.3-4.7-13.5,0.5-19,2.3C228.7,207.3,220.6,205.1,213.5,203.9z"/>
	<path class="st1" d="M232.2,212.3c-5.1,15.1-6.2,30.6-6.7,46.3c1.6-0.4,3.1-1.1,4.8-2.1c0-6.9,0.5-13.7,0.9-20.6
		c0.3-3.9,0-8.9,1.7-12.6c3.9-8.6,14.6-11.2,21.8-17.2c0.5-1.2,0.8-2.4,0.9-3.5c-6.4,4.9-14.9,8.4-23.3,9.2
		C232.3,211.9,232.3,212.1,232.2,212.3z"/>
	<path class="st6" d="M215,221.5c0.6,5.9,3.3,31.1,3.4,36.9c3.3,1,6,0.7,8.8-0.4c0.1-17.9,3.3-38,9.9-54.9c-7.1,1.8-17,1.9-23.6,0.8
		C213.1,208.9,214.5,216.1,215,221.5z"/>
	<path class="st7" d="M225.4,258.6c0.6-0.2,1.3-0.4,1.9-0.6c0.1-14.4,2.3-30.3,6.6-44.8c-3.2,0.3-6.6,0-9.3-1
		c4.8,6.1,4.4,12.1,3,19.1C225.7,240.4,225.6,249.5,225.4,258.6z"/>
	<path class="st0" d="M40,193.6c0.7,6.2,5.1,14.6,8,20.5c2.8,5.6,5.7,11.3,8.9,19.7c0.7,0,2.3,0.6,3,0.6c-0.1-7.3,0.2-13.2-1.2-20.5
		c-3-15.5-4.7-21.2-6.9-28.9C48.1,187.1,44.1,192.2,40,193.6z"/>
	<path class="st9" d="M52.1,186c-0.1-0.3-0.2-0.7-0.3-1.1c-3.7,2.1-7.7,7.2-11.9,8.7c0.7,6.2,5.1,14.6,8,20.5
		c2.8,5.6,5.7,11.3,8.9,19.7c0.2,0,0.4,0,0.7,0.1c-2.3-8.5-4.4-17-7-25.5c-1-3.2-2.8-7.4-1.9-10.9C49.7,193.6,51.8,190.1,52.1,186z"
		/>
	<path class="st5" d="M23.7,188.6c6.2,7.4,13.5,14.5,17.4,22.8c3.2,6.8,7.3,20.2,15.8,22.4c-3.3-11.6-9.8-26.9-12.5-35.4
		C43,193.8,33.5,179.9,23.7,188.6z"/>
	<path class="st5" d="M23.7,188.6L23.7,188.6l-0.2,0.1C23.6,188.7,23.7,188.7,23.7,188.6z"/>
	<path class="st10" d="M23.7,188.6c0.1,0.2,0.3,0.3,0.4,0.5c0.4,0,0.8,0,1.2,0.2c13.3,5.1,18.5,11.6,22.5,23.6
		c2,6.1,4.7,11.7,7.8,17.4c0.2,0.4,0.4,0.8,0.6,1.3c-3.4-11.3-9.3-25.2-11.8-33.2C43,193.8,33.5,179.9,23.7,188.6z"/>
	<path class="st5" d="M144.7,270.3c-0.4-11.5,4.8-24.7,7.6-35.4c-6.7,0.2-7.9-7.4-9.9-12.2c-2-4.7-3.3-10.8-5-14.8l-0.8-0.3
		c2,5.3,2.1,11.8,3.9,17.5c0.8,2.4,1.5,5,2.7,7.3c0.4,0.9,0.8,1.9,1.5,2.7c0.8,0.8,2.6,0.9,3.1,1.7c0.7,1.3-1.2,4.9-1.7,6.5
		c-0.9,3-1.4,5-1.4,8.1c0,3.5,0.2,7,0,10.4C144.6,264.4,143.5,267.9,144.7,270.3z"/>
	<path class="st0" d="M78.5,187.9c-0.5-2.2-1.1-13.1-1.8-15.3c-2-1.1-5.7-0.9-8-1.6c-1.4-0.4-6.5-1-5.7-0.3l-0.4-0.3
		c0.8,2.1,0,15.7,0,17.9c1.6-0.3,4.4-8.7,6.2-8.5c0.2,4.1,0.9,8.2-0.4,11.7c4.9,2.5,3.1,6.3,2.6,10.4c-0.5,4.8,3.2,2,2.9,6.8
		c-0.3,4-3.9,15.1-3.3,19.1c0,0,3.4,8,3.3,10.4c0,0.3,0.1,0.1,0.4-0.5c-3.2-10.4,0.6-20.7,4.1-30.8c-0.1-2-0.1-4.1,0-6.2
		c0.1-1.5,0.1-2.9,0.2-4.4C77.5,191.1,78.7,193.1,78.5,187.9z"/>
	<path class="st11" d="M306.8,135.1c-9.4-8.8-36.2-20.4-44.3-23.9l-17.8,2.8c2.1-1.4,7-5.1,8.7-6.9c-16.4-15.5-38.2-15.8-51.6-26.2
		c-6.7-5.1-36.8-18-44.8-22.7c-18.3,9.6-31.7,9.5-39.7,18.9c-7.9,9.2-23.7,10.3-34.7,15.9c0.6,1.3,2,4.5,2.7,5.9
		c-14-2.1-31.4,10.9-44.9,18.7c-11.7,6.9-32.2,16.8-32.2,16.8c15.4,14.7,28.6,17.3,44.2,19.3c1.1,2.6-3.1,6.6-1,10.8
		c6.6,13,55.7,18.6,67.4,30.4c2.8,2.8,17.5-3.7,17.5-3.7c0,2.3-6.1,5.6-6.1,5.6c14.5,7.3,21.3,14.7,27.6,13.9
		c6.1-0.8,22.7-9.6,28.1-12.5c10.5-5.7,13.8-11.8,25.1-15.5c13.8-4.6,21-4.8,31.1-15.6c-5.7-0.5-10.8-1.6-16.6-1.5
		c14.3-5.8,31.2-1.7,45.5-9.3C282.3,150.4,293.8,137.3,306.8,135.1z"/>
	<path class="st12" d="M299.2,137.6c-7,1.4-13.4,7-19.3,10.6c-8.4,5.2-15,9.8-25.5,11.1c-6.6,0.8-24.6,2.6-27.6,4.3
		c-2.8,1.5-5.2,2.7-2.2,2.9c7.9,0.6,14.3,2,14.3,2c-14,10.8-29.1,10.2-33.2,12.5c-4.6,2.6-7.9,6.2-11.8,9.5
		c-5.3,4.6-29.2,16.6-36.4,17.8c-5.3,0.9-7.3-4.6-21.4-10.8c-3.3-1.5,4-7.4,4.4-8.7c-5,0.6-9.9,2-14.7,3.8c-2,0.7-6.6,0.6-8.1-0.6
		c-12-10.4-44.2-16.2-52.8-19.4c-4.7-1.8-11.7-5.6-12.3-10.4c-0.4-2.9,1.4-5.2,2.4-7.9c1.5-3.9-6.1-3.1-8.3-3.6
		c-8.3-1.6-30.3-7.8-38.5-16.4l0,0c15.4,14.7,28.6,17.3,44.2,19.3c1.1,2.6-3.1,6.6-1,10.8c6.6,13,55.7,18.6,67.4,30.4
		c2.8,2.8,17.5-3.7,17.5-3.7c0,2.3-6.1,5.6-6.1,5.6c14.5,7.3,21.3,14.7,27.6,13.9c6.1-0.8,22.7-9.6,28.1-12.5
		c10.5-5.7,13.8-11.8,25.1-15.5c13.8-4.6,21-4.8,31.1-15.6c-5.7-0.5-10.8-1.6-16.6-1.5c14.3-5.8,31.2-1.7,45.5-9.3
		C280.1,151.6,289.2,142.2,299.2,137.6z"/>
	<path class="st1" d="M296.5,186.4c-0.5,1.7,0.4,5.2-0.2,6.9c0.6-0.5,1.1-1,1.5-1.5c3-3.8,2.7-7,5-11.1c2.3-4.2,4.8-4.2,8-8
		c3.3-3.9-3.2-17.4-3.2-17.4c0-0.1-0.5,0-1.4,0.2c-1.6,3.2-3.7,6.2-6.4,8.4c1.9,3.5,4,8,3.6,8.8
		C300.7,178.7,298.2,182.1,296.5,186.4z"/>
	<path class="st2" d="M283.8,196.5c5.2-8.9,10.4-17.8,12.7-27.7c-5.1,1.1-12.7-0.8-17.9,0c-1.7,1.8,8.3,3.5,9.1,5.4
		c0,0-0.6,4.3-0.8,5.7C285.9,185.5,284.9,191,283.8,196.5z"/>
	<path class="st13" d="M282.1,170.1c1.2-0.5,13.4,0,14.7-0.5c8.5-3.4,8.7-7.4,10.8-10.6c3-4.6-3.5-6.5-11.9-5.8
		c-9.6,9.7-30.4,16.2-45.6,20.4c4.6,4.1,12.2,0.8,15.9,3.1c5.7,3.5,12.3,3,12.3,3s6.8-3.4,9.3-5.4
		C289.1,173.2,279.9,171.1,282.1,170.1z"/>
	<path class="st14" d="M278.4,178.4c-2.7,0.3-9.5-2.9-12.3-3.2c-5.3-0.5-3.4,0.4-8.7-0.5c-1.8-0.3-4.3-1.3-6-1.5
		c-0.4,0.1-0.8,0.2-1.2,0.3c4.6,4.1,12.2,0.8,15.9,3.1c5.7,3.5,12.3,3,12.3,3s6.8-3.4,9.3-5.4c1.3-1-7.8-3.1-5.7-4.1
		c1.2-0.5,13.4,0,14.7-0.5c7.1-2.9,8.4-6.1,9.9-9c-3.6,4.8-7.7,8-20.4,6.6c0,0,0,0-0.1,0c-2.5,0.4-4.9,0.9-7.4,1.7
		c-0.1,0-0.2,0-0.3,0.1c1.4,1.2,2.5,3,4.4,3.5C288.2,174.2,280.4,178.2,278.4,178.4z"/>
	<path class="st13" d="M235.1,197.7c0,0-6,2.9-9,4c-3.6,1.4-8.6,2.9-12.6,2.2c0.3,0.9,1.1,2.5,2,3.4c4.4,4.5,15.1,8.4,21.2,6.3
		c3.9-1.4,17.1-7.2,18.8-10.6C257.8,198.3,239.4,196.3,235.1,197.7z"/>
	<path class="st14" d="M214.9,204.1c-0.4,0-0.9-0.1-1.3-0.2c0.3,0.9,1.1,2.5,2,3.4c4.4,4.5,15.1,8.4,21.2,6.3
		c3.4-1.2,13.7-5.7,17.5-9.1C242.9,212.1,224,214.4,214.9,204.1z"/>
	<path class="st11" d="M28.5,190.4c5.8,1.2,11.2,5,16,8c3.2-3.7,7.4-8,7.4-13.4c-4.1-1.5-9.1-3.6-11.5-6.8
		C31.3,181.6,15.5,188.8,28.5,190.4z"/>
	<path class="st12" d="M42.3,195.3c-2.7-2.2-9.7-4.8-15.7-6c-3.1-0.6-2.6-1.6-2.8-2.1c-0.7,1.4,0.4,2.6,4.7,3.1c5.8,1.2,11.2,5,16,8
		c3.1-3.6,7.1-7.8,7.3-13c-1.4,3.4-2.2,4.5-4.2,7.5C46.7,194.2,43.7,196.4,42.3,195.3z"/>
	<path class="st0" d="M107.7,205.7c-2.3,2.2-3.7,4-5.1,6.7c-3.4,6.7-5.1,11.5-3.2,19.2c2.3,9.2,6,17.9,9.4,26.8
		c2.4,6.1,5.8,17.5,12.1,21.4c2.6-2,5.8-4.2,8-6.5c-4.1-10.3-6.2-23.3-7.5-34.6c-1.3-11.4-3.5-23.3-4.5-34.6
		C114.1,203.1,109.5,204.1,107.7,205.7z"/>
	<path class="st9" d="M117.1,205.5c0-0.5-0.1-0.9-0.2-1.4c-2.8-1-7.5,0-9.3,1.6c-2.3,2.2-3.7,4-5.1,6.7c-3.4,6.7-5.1,11.5-3.2,19.2
		c2.3,9.2,6,17.9,9.4,26.8c2.4,6.1,5.8,17.5,12.1,21.4c2.2-1.7,4.8-3.5,6.9-5.5c-8.2-5.5-8.7-15.7-12.4-24.6
		c-3-7.4-5.5-14.7-5.3-22.6c0.1-7.6,4-13.3,6.4-20.4C116.7,206.2,116.9,205.8,117.1,205.5z"/>
	<path class="st5" d="M102.5,209.8c-3.7-2-9.4-2.8-13.5-5.1c-3.6-2-20.2-8.5-24.5-8.1c0.7,11,12.4,24.6,17.7,36.4
		c5.7,12.7,10.1,20.9,14.1,34c1.4,4.6,12.3,3.7,17.4,12.5l7.2,0.5c0,0-1.5-8.7-2.6-12.1c-1.4-4.3-9.3-30.2-11.3-38.6
		C105.7,223.6,108.2,212.8,102.5,209.8z"/>
	<path class="st10" d="M105.6,213.9c-3,0.8-6.3,0.9-9.6,0.8c9.8,7.9,12.1,22,14.3,33.1c2.2,11,7.1,21.2,9.9,31.9h0.7
		c0,0-1.5-8.7-2.6-12.1c-1.4-4.3-9.3-30.2-11.3-38.6C106.1,225.1,107.1,218.4,105.6,213.9z"/>
	<path class="st11" d="M78.8,186.4c-4.7,3.9-8.8,4.1-13.2,7.6c-4.6,3.7,7.3,16,14.1,19c7.1,3.2,16.6,3.7,24.4,3
		c7.1-0.7,13.3-12.4,13.3-12.4c-4.2-2.5-13.3-3.4-19.7-7.2C89.1,191.5,78.8,186.4,78.8,186.4z"/>
	<path class="st12" d="M65.6,194c-4.6,3.7,7.3,16,14.1,19c7.1,3.2,16.6,3.7,24.4,3c5.6-0.5,10.7-8,12.5-11.1
		c-9.4,10.1-17.9,11.4-35.4,5.9c-5.3-1.7-17.3-8.5-14.3-17.7C66.4,193.4,66,193.7,65.6,194z"/>
</g>
<g>
	<g>
		<path class="st15" d="M92.6,141.2c0.6-0.3,0.9-0.7,0.9-1.2l0,0v-0.1v-0.1c0-0.4-0.3-0.9-0.9-1.2l-34.7-20c-1.2-0.7-3.2-0.7-4.4,0
			l-14.8,8.3c-0.6,0.3-0.9,0.8-0.9,1.2c0,0,0,0,0,0.1l0,0l0,0c0,0.4,0.3,0.9,0.9,1.2l34.7,20c1.2,0.7,3.2,0.7,4.4,0L92.6,141.2z"/>
		<g>
			<g>
				<path class="st16" d="M68.7,86.7c-3.6,2.1-5.8,6.5-5.8,12.7c0,8.9,4.6,19.6,11.6,27.3c0.5,0.6,1.1,0.8,1.6,0.6l0,0l2.3-1.3l0,0
					c0.1-0.1,0.2-0.2,0.3-0.3c0.1-0.2,0.1-0.4,0.1-0.6c0-0.6-0.3-1.4-0.8-2c-6-6.6-9.9-15.7-9.9-23.4c0-4.6,1.4-8.1,3.9-10.1
					c1.2-0.4,2.5-0.6,3.9-0.5c0.2,0,0.3,0,0.4-0.1l0,0l0,0l0,0l2.1-1.2l0,0c0.5-0.2,0.6-0.9,0.4-1.7c-0.3-1-1.2-1.9-1.9-1.9
					c-2.3-0.2-4.3,0.3-6,1.3l0,0L68.7,86.7L68.7,86.7z"/>
				<path class="st17" d="M76.5,126.4c0,0.2,0,0.4-0.1,0.6c-0.3,0.6-1.2,0.5-1.9-0.2c-7.1-7.7-11.6-18.4-11.6-27.3
					s4.6-14.4,11.6-13.9c0.7,0,1.6,0.9,1.9,1.9s0,1.8-0.7,1.7c-6-0.4-9.9,4.3-9.9,11.9s3.9,16.8,9.9,23.4
					C76.2,125,76.5,125.7,76.5,126.4z"/>
			</g>
			<g>
				<path class="st16" d="M71.2,85L71.2,85c-0.5,0.3-0.8,0.9-0.8,1.8c0,1.8,1.2,3.9,2.8,4.8c0.8,0.4,1.5,0.5,2,0.2l1.5-0.9
					c0.5-0.3,0.8-0.9,0.8-1.8c0-1.8-1.2-3.9-2.8-4.8c-0.8-0.4-1.5-0.5-2-0.2l0,0L71.2,85z"/>
				<path class="st17" d="M71.2,85c0.5-0.3,1.2-0.3,2,0.2c1.5,0.9,2.8,3.1,2.8,4.8c0,0.9-0.3,1.5-0.8,1.8l0,0l1.5-0.9
					c0.5-0.3,0.8-0.9,0.8-1.8c0-1.8-1.2-3.9-2.8-4.8c-0.8-0.4-1.5-0.5-2-0.2l0,0L71.2,85L71.2,85z"/>
			</g>
		</g>
		<g>
			<g>
				<path class="st16" d="M62.3,65.3c0.3,0.5,0,1.5-1.1,2.7c-2.2,2.4-6.5,4.9-9.7,5.6c-1.6,0.4-2.6,0.2-2.9-0.3l-1-1.8l0,0l0,0
					c-0.3-0.5,0-1.5,1.1-2.7c2.2-2.4,6.5-4.9,9.7-5.6c1.6-0.4,2.6-0.2,2.9,0.3L62.3,65.3L62.3,65.3L62.3,65.3z"/>
				<path class="st17" d="M59.4,65c-3.2,0.7-7.5,3.2-9.7,5.6c-1.1,1.2-1.5,2.1-1.1,2.7l-1-1.8l0,0c-0.3-0.5,0-1.5,1.1-2.7
					c2.2-2.4,6.5-4.9,9.7-5.6c1.6-0.4,2.6-0.2,2.9,0.3l1,1.8l0,0C61.9,64.8,61,64.6,59.4,65z"/>
			</g>
			<g>
				<path class="st16" d="M64.2,66.3L64.2,66.3c0.4,0.6,0,1.7-1.3,3.1c-2.5,2.7-7.5,5.6-11.2,6.4c-1.8,0.4-3,0.2-3.3-0.4l-0.9-1.6
					l0,0c-0.4-0.6,0-1.7,1.3-3.1c2.5-2.7,7.5-5.6,11.2-6.4c1.8-0.4,2.9-0.2,3.3,0.4L64.2,66.3z"/>
				<path class="st17" d="M60.9,65.9c-3.6,0.8-8.6,3.7-11.2,6.4c-1.3,1.4-1.7,2.4-1.3,3.1l0,0l-0.9-1.6c-0.4-0.6,0-1.7,1.3-3.1
					c2.5-2.7,7.5-5.6,11.2-6.4c1.8-0.4,2.9-0.2,3.3,0.4l0.9,1.6l0,0C63.8,65.7,62.7,65.5,60.9,65.9z"/>
			</g>
			<path class="st18" d="M63.2,66.9L82,99.5l0,0c0.3,0.5,0,1.5-1.1,2.7c-2.2,2.4-6.6,4.9-9.8,5.6c-1.6,0.4-2.6,0.2-2.9-0.3l0,0
				L49.4,74.8l0,0c-0.3-0.5,0-1.5,1.1-2.7c2.2-2.4,6.6-4.9,9.8-5.6C61.9,66.2,62.9,66.3,63.2,66.9L63.2,66.9L63.2,66.9L63.2,66.9z"
				/>
			<path class="st16" d="M71.2,107.8c-1.6,0.4-2.6,0.2-2.9-0.3l0,0L49.4,74.8l0,0c-0.3-0.5,0-1.5,1.1-2.7c0.8-0.8,1.8-1.7,3-2.5
				l21.2,36.8C73.5,107.1,72.3,107.6,71.2,107.8z"/>
			<g>
				<path class="st16" d="M83.2,99.3L83.2,99.3c0.4,0.6,0,1.7-1.3,3.1c-2.5,2.7-7.5,5.6-11.2,6.4c-1.8,0.4-2.9,0.2-3.3-0.4l-0.9-1.6
					l0,0c-0.4-0.6,0-1.7,1.3-3.1c2.5-2.7,7.5-5.6,11.2-6.4c1.8-0.4,2.9-0.2,3.3,0.4L83.2,99.3z"/>
				<path class="st17" d="M79.9,98.9c-3.6,0.8-8.6,3.7-11.2,6.4c-1.3,1.4-1.7,2.4-1.3,3.1l0,0l-0.9-1.6c-0.4-0.6,0-1.7,1.3-3.1
					c2.5-2.7,7.5-5.6,11.2-6.4c1.8-0.4,2.9-0.2,3.3,0.4l0.9,1.6l0,0C82.9,98.6,81.7,98.5,79.9,98.9z"/>
			</g>
			<g>
				<path class="st16" d="M83.2,101.7c0.3,0.5,0,1.5-1.1,2.7c-2.2,2.4-6.5,4.9-9.7,5.6c-1.6,0.4-2.6,0.2-2.9-0.3l-1-1.8l0,0l0,0
					c-0.3-0.5,0-1.5,1.1-2.7c2.2-2.4,6.5-4.9,9.7-5.6c1.6-0.4,2.6-0.2,2.9,0.3L83.2,101.7L83.2,101.7L83.2,101.7z"/>
				<path class="st17" d="M80.4,101.3c-3.2,0.7-7.5,3.2-9.7,5.6c-1.1,1.2-1.5,2.1-1.1,2.7l-1-1.8l0,0c-0.3-0.5,0-1.5,1.1-2.7
					c2.2-2.4,6.5-4.9,9.7-5.6c1.6-0.4,2.6-0.2,2.9,0.3l1,1.8l0,0C82.9,101.1,81.9,101,80.4,101.3z"/>
				<path class="st17" d="M72.7,106.5c1.4-1.5,4.2-3.1,6.2-3.6c1-0.2,1.6-0.1,1.8,0.2c0.2,0.3,0,0.9-0.7,1.7
					c-1.4,1.5-4.2,3.1-6.2,3.6c-1,0.2-1.6,0.1-1.8-0.2C71.8,107.8,72,107.2,72.7,106.5z"/>
			</g>
			<path class="st16" d="M77.2,93.1c0.2,0.4-0.2,0.9-1,1.1l0,0c-0.8,0.2-1.7,0-2-0.4l-13-22.5c-0.3-0.4,0.2-0.9,1-1.1l0,0
				c0.8-0.2,1.7,0,2,0.4L77.2,93.1z"/>
		</g>
		<g>
			<g>
				<path class="st16" d="M59.6,91.7L59.6,91.7c-0.5,0.3-0.8,0.9-0.8,1.8c0,1.8,1.2,3.9,2.8,4.8c0.8,0.4,1.5,0.5,2,0.2l1.5-0.9
					c0.5-0.3,0.8-0.9,0.8-1.8c0-1.8-1.2-3.9-2.8-4.8c-0.8-0.4-1.5-0.5-2-0.2l0,0L59.6,91.7z"/>
				<path class="st17" d="M59.6,91.7c0.5-0.3,1.2-0.2,2,0.2c1.5,0.9,2.8,3.1,2.8,4.8c0,0.9-0.3,1.5-0.8,1.8l0,0l1.5-0.9
					c0.5-0.3,0.8-0.9,0.8-1.8c0-1.8-1.2-3.9-2.8-4.8c-0.8-0.4-1.5-0.5-2-0.2l0,0L59.6,91.7L59.6,91.7z"/>
				<path class="st18" d="M63.1,96c0-1-0.7-2.2-1.5-2.7c-0.4-0.2-0.8-0.3-1.1-0.1c-0.3,0.2-0.5,0.5-0.5,1c0,1,0.7,2.2,1.5,2.7
					c0.4,0.2,0.8,0.3,1.1,0.1C62.9,96.9,63.1,96.5,63.1,96z"/>
			</g>
			<g>
				<path class="st16" d="M52.4,96.1c-3.6,2.1-5.8,6.5-5.8,12.7c0,8.9,4.6,19.6,11.6,27.3c0.5,0.6,1.1,0.8,1.6,0.6l0,0l2.3-1.3l0,0
					c0.1-0.1,0.2-0.2,0.3-0.3c0.1-0.2,0.1-0.4,0.1-0.6c0-0.6-0.3-1.4-0.8-2c-6-6.6-9.9-15.7-9.9-23.4c0-4.6,1.4-8.1,3.9-10.1
					c1.2-0.4,2.5-0.6,3.9-0.5c0.2,0,0.3,0,0.4-0.1l0,0l0,0l0,0l2.1-1.2l0,0c0.5-0.2,0.6-0.9,0.4-1.7c-0.3-1-1.2-1.9-1.9-1.9
					c-2.3-0.2-4.3,0.3-6,1.3l0,0L52.4,96.1L52.4,96.1z"/>
				<path class="st17" d="M60.3,135.7c0,0.2,0,0.4-0.1,0.6c-0.3,0.6-1.2,0.5-1.9-0.2c-7.1-7.7-11.6-18.4-11.6-27.3
					s4.6-14.4,11.6-13.9c0.7,0.1,1.6,0.9,1.9,1.9c0.3,1,0,1.8-0.7,1.7c-6-0.4-10,4.3-9.9,11.9c0,7.6,3.9,16.8,9.9,23.4
					C60,134.3,60.3,135.1,60.3,135.7z"/>
			</g>
		</g>
		<g>
			<path class="st16" d="M94.9,133.8L94.9,133.8c-0.1-0.4-0.4-0.7-0.9-1L78.8,124c-1.2-0.7-3.2-0.7-4.4,0l-15.3,8.8
				c-0.3,0.2-0.5,0.4-0.7,0.6l0,0l0,0c0,0,0,0,0,0.1s-0.1,0.1-0.1,0.2l0.1-0.1c0,0.1-0.1,0.1-0.1,0.2c0,0,0,0,0-0.1v0.1
				c0,0,0,0,0,0.1v0.1v-0.1c0,0.1,0,0.1,0,0.2l0,0c0,0,0,0,0,0.1v5.9l0,0c0,0.5,0.3,0.9,0.9,1.3l15.3,8.8c1.2,0.7,3.2,0.7,4.4,0
				l15.3-8.8c0.6-0.3,0.9-0.8,0.9-1.3l0,0v-5.9C95,134,94.9,133.9,94.9,133.8z"/>
			<path class="st17" d="M94.1,135.4l-15.3,8.8c-1.2,0.7-3.2,0.7-4.4,0l-15.3-8.8c-0.6-0.4-0.9-0.8-0.9-1.3l0,0c0,0,0,0,0,0.1v5.9
				l0,0c0,0.5,0.3,0.9,0.9,1.3l15.3,8.8c1.2,0.7,3.2,0.7,4.4,0l15.3-8.8c0.6-0.3,0.9-0.8,0.9-1.3l0,0v-5.9
				C95,134.6,94.7,135,94.1,135.4z"/>
		</g>
		<g>
			<path class="st18" d="M98.1,128.1v-1.7c0-0.5-0.3-0.9-0.9-1.3l-19-11c-1.2-0.7-3.2-0.7-4.4,0L56,124.5c-0.6,0.4-0.9,0.8-0.9,1.3
				v1.6l0,0c0,0.5,0.3,1,0.9,1.3l19,11c1.2,0.7,3.2,0.7,4.4,0l17.9-10.3C97.8,129,98.1,128.6,98.1,128.1L98.1,128.1z"/>
			<path class="st19" d="M97.2,125.2c1.2,0.7,1.2,1.8,0,2.5L79.3,138c-1.2,0.7-3.2,0.7-4.4,0l-19-11c-0.6-0.3-0.9-0.8-0.9-1.3l0,0
				v1.6l0,0c0,0.5,0.3,1,0.9,1.3l19,11c1.2,0.7,3.2,0.7,4.4,0l17.9-10.3c0.6-0.4,0.9-0.8,0.9-1.3l0,0v-1.7
				C98.1,126,97.8,125.5,97.2,125.2z"/>
		</g>
	</g>
	<g>
		<path class="st15" d="M154.8,130.2c2.6-3.5,8-4.7,6.7-7.1c-0.9-2.4-6.7-4.8-11.6-5.5c-5.1-0.7-7,2.8-11.5,2.3
			c-5.5-0.7-9.5,3.8-12,6c-5.7,4.3,4.2,11.2,9.8,9.3C142.2,133.1,150.3,136.2,154.8,130.2z"/>
		<g>
			<g>
				<path class="st19" d="M149.2,118.1c0,1.7,2.3,3.6,5.1,4.7s4,2.7,1.3,3.4c-1.4,0.4-8.6-1.5-11.8-3c-1.2-0.6-1-1.6-1-1.7
					c0-1.3,1.1-2.3,0.8-3.7C143.2,116.1,149.2,113.7,149.2,118.1z"/>
				<g class="st20">
					<path d="M155.6,125.5c-1.4,0.4-8.6-1.5-11.8-3c-0.7-0.3-0.9-0.8-1-1.2c0,0.1,0,0.1,0,0.2s-0.2,1.1,1,1.7
						c3.3,1.5,10.4,3.4,11.8,3c1.3-0.4,1.7-0.9,1.4-1.6C156.8,125,156.4,125.3,155.6,125.5z"/>
					<path d="M143.6,117.4c0,0.1-0.1,0.3,0,0.4c0,0.1,0,0.1,0,0.1C143.6,117.8,143.6,117.6,143.6,117.4z"/>
				</g>
				<path class="st21" d="M148.2,119.3c0.5-0.2,0.9-0.4,1.1-0.6c-0.1-0.2-0.1-0.4-0.1-0.6c0-4.4-6-2-5.7-0.3
					c0.1,0.4,0.1,0.7,0.1,0.9C144.8,119.7,146.9,119.8,148.2,119.3z"/>
				<path class="st21" d="M142.7,121.6c0,0.1-0.2,1.1,1,1.7c3.3,1.5,10.4,3.4,11.8,3c1.6-0.4,1.9-1.2,1.2-2
					c-0.1-0.1-0.1-0.1-0.2-0.2l0,0c-1,1.4-3.2,1.1-4.4,0.6s-3.5-1.3-5.2-1.7c-1.7-0.5-1.6-1.8-1.5-2.6c0.6-5.1-0.3-2.5-0.9-4l0,0
					c-0.1,0.1-0.3,0.2-0.4,0.3l0,0l0,0c-0.1,0.1-0.1,0.1-0.2,0.2c0,0.1-0.1,0.1-0.1,0.2l0,0c0,0,0,0.1-0.1,0.1
					c0,0.1-0.1,0.2-0.1,0.3c0,0,0,0,0,0.1s0,0.2,0,0.3C143.8,119.3,142.7,120.3,142.7,121.6z"/>
			</g>
			<path class="st21" d="M148.3,119.3c0.5-0.2,0.9-0.4,1.1-0.6c-0.1-0.2-0.1-0.4-0.1-0.6c0-4.4-6-2-5.7-0.3c0.1,0.4,0.1,0.7,0.1,0.9
				C144.8,119.7,147,119.8,148.3,119.3z"/>
			<g>
				<g>
					<path class="st22" d="M157.5,71c0.6,1.1,1.8,2.4,3.2,4.6c0.6,0.9,0.8,2.1,0.7,3.1s-0.2,1.3-0.7,1.9c-0.4,0.6-0.6,1-0.9,1
						c-0.3,0-0.4-0.4-0.4-0.4s-0.2,0.5-0.6,0.5c-0.4,0-0.4-0.7-0.4-0.7s-0.3,0.1-0.5-0.1s0.1-0.8,0.1-0.8s-0.4,0-0.4-0.4
						c0-0.5,0.5-1.2,0.4-1.7s0.2-0.4-0.4-1.2c-0.6-0.8-1.4-1.7-1.6-2.6c-0.2-0.9,0-0.9-0.6-1.7c-5.2-6-0.3-1.7,0.3-2.3
						C156.2,69.7,156.8,69.8,157.5,71z"/>
					<path class="st21" d="M160.5,77.6c-0.1-1.3-1.5-2.3-2.5-3.9c-0.6-1-1.6-2.2-2.7-3.4c-1.2-0.2-4.7-3.2,0,2.2
						c0.7,0.8,0.4,0.7,0.6,1.7c0.2,0.9,1,1.9,1.6,2.6c0.6,0.8,0.3,0.7,0.4,1.2c0.1,0.5-0.4,1.2-0.4,1.7c0,0.4,0.4,0.4,0.4,0.4
						s-0.3,0.6-0.1,0.8c0.2,0.2,0.5,0.1,0.5,0.1s0,0.6,0.4,0.7c0.4,0,0.6-0.5,0.6-0.5s0.1,0.2,0.2,0.3
						C161.1,79.7,160.6,78.9,160.5,77.6z"/>
					<path class="st21" d="M159.6,80.5c0.5,0.5,0.7,0.4,0.9,0.1c0.2-0.2,0-0.6-0.1-0.7c0-0.1,0.1-0.2,0.2-0.5c0.1-0.3-0.1-0.4,0-0.7
						c0-0.3-0.1-1-0.2-1.4c-0.2-0.3-0.4-1-0.5-1.3c-0.1-0.4-0.3-0.3-0.3,0.2c-0.1,0.5,0.3,1,0.7,2s0.5,1.4,0,1.6s-1.2-1-1.4-1.5
						c-0.2-0.6-0.6-0.7-1.1-1.3l0,0c0.4,0.5,0.2,0.5,0.2,0.9c0,0.1,0,0.3-0.1,0.5c0.3,0.3,0.5,0.5,0.8,0.7
						C159.3,79.6,159.1,80,159.6,80.5z"/>
				</g>
				<g>
					<path class="st18" d="M152.7,58.5l6.5,14.7c0.2,1.7-2.4,2.7-3.3,1.8c-2-2-8.6-11.3-9.4-15.6C145.5,54.1,150.9,54.8,152.7,58.5z
						"/>
					<path class="st17" d="M152.7,58.5l6.5,14.7c0.2,1.7-2.4,2.7-3.3,1.8c-2-2-8.6-11.3-9.4-15.6C145.5,54.1,150.9,54.8,152.7,58.5z
						"/>
					<path class="st18" d="M145.3,41c-1.1,2.1,0.3,17.1,1.6,19.3c0.5,0.7,2.5,6,3.5,5.8c0.4-0.1,0.8-0.2,1.1-0.5
						c1.6-1.6,1.1-11.1,1.2-14.9c0-3.6-0.8-9.7-5.1-10.7C146.6,39.7,145.8,40,145.3,41z"/>
					<path class="st17" d="M145.3,41c-1.1,2.1,0.3,17.1,1.6,19.3c0.5,0.7,2.5,6,3.5,5.8c0.4-0.1,0.8-0.2,1.1-0.5
						c1.6-1.6,1.1-11.1,1.2-14.9c0-3.6-0.8-9.7-5.1-10.7C146.6,39.7,145.8,40,145.3,41z"/>
					<path class="st17" d="M149,59.9L149,59.9c-1.2-4-2.2-16.4-1.2-18.4c0.2-0.3,0.4-0.8,0.6-1.3c-0.3-0.1-0.6-0.2-0.9-0.3
						c-0.9-0.2-1.7,0.1-2.2,1.1c-1,1.9,0,14.4,1.2,18.4l0,0c0.8,4.3,7.5,13.6,9.4,15.6c0.5,0.5,1.4,0.5,2.1,0.1
						C155.8,72.4,149.8,63.9,149,59.9z"/>
				</g>
			</g>
			<path class="st19" d="M130.3,123c0,1.7-0.7,6.8,1.2,8.3s5.1,1.7,4.5-1.6s-1.8-6.4-1.6-9.6C134.6,117.1,130.3,119.4,130.3,123z"/>
			<g class="st20">
				<g>
					<path class="st23" d="M130.3,123c0,1.7-0.7,6.8,1.2,8.3c1.8,1.5,4.7,1.7,4.6-1c-5.1,2-4.4-2.8-4.4-5.6c0-1.2,0.1-2.7,0.5-5
						c0-0.2,0-0.3,0-0.5C131.2,120,130.3,121.4,130.3,123z"/>
				</g>
			</g>
			<path class="st21" d="M131.7,130.6c-1.9-1.5-1.2-6.6-1.2-8.3c0-0.4,0.1-0.8,0.2-1.2c-0.3,0.6-0.5,1.3-0.5,2
				c0,1.7-0.7,6.8,1.2,8.3c1.7,1.3,4.2,1.6,4.5-0.5C135.2,132.1,133.2,131.7,131.7,130.6z"/>
			<path class="st21" d="M134.4,120.2c0.2-3.1-4-0.8-4.1,2.8c0,0.3,0,0.7-0.1,1.2c0.7,0.5,3.3,1,4.5-0.4
				C134.4,122.6,134.3,121.4,134.4,120.2z"/>
			<path class="st19" d="M149.9,69.2l-12.4,2.1l6.1,46.8c1.2,1,3.3,1,4.6,0.6c0.5-0.2,0.9-0.4,1.1-0.6l0,0c0-0.1,0-0.3,0-0.4
				L149.9,69.2z"/>
			<path class="st17" d="M143.8,79c0-1.7-0.5-3.2-1.3-4.5l-0.3-3.9l-4.7,0.8v0.4c-3.1,0.2-5.6,3.4-5.6,7.2c0,4,2.6,7.2,5.9,7.2
				c0.5,0,1-0.1,1.5-0.2l4.2,32.2c0.6,0.5,1.6,0.8,2.5,0.8l-3-36.8C143.6,81.2,143.8,80.1,143.8,79z"/>
			<path class="st19" d="M144.2,77.2c0-1.4-0.3-2.7-0.9-3.8l0.5-2.8h-3c-0.7-0.4-1.6-0.6-2.4-0.6c-0.9,0-1.7,0.2-2.5,0.7h-4.6
				l-1.7,50.9c-0.1,1.3,0.9,2.5,2.2,2.8c1.7,0.3,3.2-0.8,3.5-2.5l6.5-38.8C143.2,81.8,144.2,79.6,144.2,77.2z"/>
			<path class="st17" d="M131.8,123.8l3.9-50.8l7.7,0.3l0.4-2.7l-12.6,0.1l-1.7,50.9c-0.1,1.3,0.9,2.5,2.2,2.8h0.1
				C131.8,124.2,131.7,124,131.8,123.8z"/>
			<path class="st24" d="M136,42.1c0.2,0.2,0.7,0.5,1.3,1c2,2,4.1,3.3,3.9,13.3c-0.1,7.6-0.4,14.3-0.1,18c-0.3,0.1-0.2,0-0.4,0.1
				c2.4-0.3,4.8-1,6.7-2c-0.2,0.1-0.5,0.3-0.7,0.4c1.6-6.7,0.2-18.1,0.2-22.1c0-5.2-0.7-7.4-2.1-9.5l0,0c-0.3-0.6-0.6-1.1-0.9-1.4
				c0.1,0,0.1,0,0.2,0c-2.8,0.3-5.9,1.3-7.7,1.9c-0.2,0.1-0.4,0.1-0.6,0.2C135.8,42,135.9,42.1,136,42.1z"/>
			<path class="st21" d="M149.9,96.4c0-3.1-0.6-34.3-0.5-36.8c0.3-7.5,1.4-8.4,1.4-13.4c0-2.7-0.6-4.5-1.8-5.5
				c-1.3-1.1-3.4-1.3-5.7-1.1c-0.1,0-0.1,0-0.2,0c0.2,0.3,0.6,0.9,0.9,1.4h0.7c1.4,2.1,1.4,4.3,1.4,9.5c0,4-0.9,44.4,0,50.8
				C148.3,100.5,149.9,98.3,149.9,96.4z"/>
			<path class="st18" d="M141.7,103.7c-2.6,0.4-5.5-0.2-7.1-0.6c-2.3-0.5-4.5-2.1-4.5-4.3c-0.5-3.8,0.9-34.7,0.9-40.4l-0.5-3.3l0,0
				c-0.5-2.8-1.3-3.6-1.7-5.3c-0.3-1.3-0.2-2.7,0.9-4.2c0.3-0.5,0.8-1,1.3-1.4l0,0l0,0l0,0c0.1-0.1,0.2-0.2,0.4-0.3
				c0.2-0.2,0.5-0.3,0.7-0.5c0.7-0.4,1.4-0.7,2.1-1l0,0c0.5-0.2,1-0.4,1.5-0.6c0.1,0.1,0.2,0.2,0.3,0.3c0.2,0.2,0.7,0.5,1.3,1
				c2,2,4.1,3.3,3.9,13.3C141.1,64,141.4,100.1,141.7,103.7z M150.1,59.7c0.3-7.5,1.4-8.4,1.4-13.4c0-2.7-0.6-4.5-1.8-5.5
				c-1.3-1.1-3.4-1.3-5.7-1.1c-0.1,0-0.1,0-0.2,0c0.2,0.3,0.6,0.9,0.9,1.4l0,0c1.4,2.1,2.1,4.3,2.1,9.5c0,4-1.3,45.2-0.3,51.5
				c2.2-1,3.7-3.2,3.7-5C150.2,94.1,150,62.2,150.1,59.7z"/>
			<path class="st23" d="M149.7,40.8c-2.9-2.5-10.1-0.3-13.4,0.8c-0.7,0.2-1.4,0.5-2.1,0.8l0,0c-0.8,0.3-1.5,0.7-2.1,1
				c-0.3,0.1-0.5,0.3-0.7,0.5c-0.1,0.1-0.2,0.1-0.4,0.3l0,0l0,0l0,0c-0.5,0.4-1,0.9-1.3,1.4c-1.1,1.5-1.2,2.8-0.9,4.2
				c0.4,1.7,1.2,2.5,1.7,5.3l0,0l0.5,3.3c0,5.7-1.4,36.4-0.9,40.2c0,2.2,1.9,3.8,4,4.4c0.3,0.1,2.2,0.5,2.5,0.5
				c-0.1-2.4,0.2-33.8,0.3-35.7c0.3-7.5,0-8.3,0-13.3c0-2.7-0.6-4.5-1.8-5.5c-0.3-0.2-3.2-2.6-3.5-2.7l2.6-2
				c1.2-0.6,2.5-1.2,3.9-1.6c2.9-1,8.6-2.8,12-1.6C150,41.1,149.9,40.9,149.7,40.8z"/>
			<g>
				<path class="st22" d="M135.8,41.9c0.1,0.2,0.2,0.3,0.4,0.4c0.9,0.7,4.5,3.7,7.1,2.8c3.5-1.2,1.5-4,0.8-5.1c0.2,0,0.3,0,0.4-0.1
					c-0.5-0.6-0.8-1.7-0.8-3.8c0-2.9-2.2-4.6-3.9-4.5s-4,1-3.4,3.5C136.6,36.7,137.4,40.3,135.8,41.9z"/>
				<path class="st21" d="M135.8,41.9c0.1,0.2,0.2,0.3,0.4,0.4c0.2,0.2,0.6,0.5,1,0.8c1.9-0.9,1.7-3.9,1.6-6.7c0-1.4,1-2.8,2.4-4.5
					c-0.5-0.2-1-0.4-1.5-0.3c-1.7,0.1-4,1-3.4,3.5C136.6,36.7,137.4,40.3,135.8,41.9z"/>
				<path class="st22" d="M146.3,31.6c0,3.2,0.1,8.3-2.4,8.7c-2.5,0.4-8.5-3.8-8.5-8.4s3.6-7.1,6.7-6.3
					C145.1,26.4,146.3,29.6,146.3,31.6z"/>
				<path class="st19" d="M145.8,36.5c-0.2-0.4-0.6-0.1-1.4-0.1c-0.8-0.1-1.4,0.4-2.3,1c-0.9,0.6-1.6-0.2-2.1-0.8
					c-0.7-1.1-1-2.4-1.2-3.4c-0.1-0.8-0.2-0.7-0.5-1s-1.1,0.1-0.7,1.3c0.4,1.2,0.5,2.3,0.3,3.3c0,0.2,0,0.4,0.1,0.6
					c1.9,1.9,4.4,3.1,5.8,2.9c1-0.1,1.6-1,1.9-2.2l0,0C146.2,37,146.1,36.9,145.8,36.5z M145.7,37.9c-0.1,0.2-0.3,0.4-0.5,0.5l0,0
					c-0.6,0.3-0.2-0.4-0.5-0.4c-0.2,0-0.4,0.1-0.5,0.4c-0.1,0.3-0.5,0.5-0.8,0.5c-0.1,0-0.2,0-0.3,0c0,0,0,0-0.1,0h-0.1
					c-0.8-0.2,0.2-1.2,0.5-1.5c0.4-0.3,0.9-0.3,1.4-0.4c0.4,0,0.7,0.2,0.8,0.6C145.7,37.6,145.7,37.8,145.7,37.9z"/>
				<path class="st17" d="M135.4,31.9c0,4.6,6,8.8,8.5,8.4c0.5-0.1,0.9-0.4,1.2-0.8c-0.4,0.2-1.1,0.7-2,0.3c-1.6-0.7-3.9-2.7-4-4.5
					c-0.2-2.2-0.7-3.5-1.1-4.7c0,0,0-0.6-0.4-3.9C136.3,27.8,135.4,29.6,135.4,31.9z"/>
				<path class="st19" d="M145,26.5c1.6,1.6,3.3,2-0.1,3.8c-2.5,1.2-3.7-0.4-5.6,0.3c-1.1,0.4-0.1,3.1-0.4,3.2
					c-0.3,0.1-0.9,0.4-1.1-0.1c-0.7-2-2.1-0.9-2,0.2c0.1,1.1,1.2,2.4,0.9,3.5s-0.8-1-1.9-3.2c-1.1-2.2-1.2-6.2,2-8.2
					C140.1,23.9,143.2,24.7,145,26.5z"/>
				<path class="st17" d="M136.9,25.8c-3.2,2-3.1,6-2,8.2s1.6,4.3,1.9,3.2c0.3-1.1-0.8-2.4-0.9-3.5c-0.1-1.1,1.3-2.2,2-0.2
					c0.2,0.5,0.8,0.2,1.1,0.1c-0.3-1.1-0.9-1.9-1.3-2.7c-0.6-1-0.9-2.5,0.1-4c1.8-2.6,5-1.8,6.2-1.4
					C142.1,24.5,139.6,24.2,136.9,25.8z"/>
			</g>
			<g>
				<path class="st18" d="M158,59.5c0.5,0-0.2,3.9-0.9,4C156.4,63.6,156.9,59.5,158,59.5z"/>
				<path class="st23" d="M158,59.5c0.5,0-0.2,3.9-0.9,4C156.4,63.6,156.9,59.5,158,59.5z"/>
				<g>
					<path class="st22" d="M154.4,59.6c1.3,0,3.2,0.5,3.8,0c1-0.8,0.5-0.4,1.1-0.8c0.6-0.3,1.2-0.6,2.1-0.7c0.9-0.1,1.7-0.6,2-0.2
						c0.3,0.4-0.2,0.7-0.4,0.9s-1.5,0.6-1.5,0.7c0,0.1,0.6,0.3,1,0.5c0.5,0.2,1,0.3,1.5,0.3s2.5,0.2,2.6,0.6
						c0.1,0.4-0.4,0.5-0.4,0.5s0.4,0.4-0.3,0.8c-0.8,0.3-1.4,0.5-1.4,0.5s-0.1,0.3-0.7,0.5c-0.6,0.2-0.6,0.1-0.6,0.1
						s-0.1,0.4-1.4,0.5c-1.3,0.2-3.7-0.8-4.8-0.6s-2,0.3-2.7,0.2C153.7,63.5,152.9,59.6,154.4,59.6z"/>
					<path class="st21" d="M154.4,63.6c0.7,0.1,1.5,0,2.7-0.2c1.1-0.2,3.4,0.7,4.8,0.6c1.3-0.2,1.4-0.5,1.4-0.5s0.1,0.1,0.6-0.1
						c0.6-0.2,0.6-0.5,0.6-0.5s0.6-0.2,1.4-0.5c0.8-0.3,0.4-0.8,0.4-0.8s0,0,0.1,0c-1.3,0.5-3.3,0.6-4.1,0.9
						c-1.1,0.4-3.2-0.3-5.1-0.4c-1-0.1-2.2-0.1-3.8-0.2C153.6,62.6,154,63.6,154.4,63.6z"/>
				</g>
				<path class="st18" d="M157,62.7c0-1,0.4-2.2,1-3.2L143.5,59c-0.3,0-0.7-0.2-0.9-0.5l-7.8-11.4c-1-1.5-3.1-2-4.7-1
					c-1.6,1-2.1,3.1-0.9,4.6l9,12.5c1.2,1.6,3.2,2.5,5.2,2.2l13.6-1.9C157,63.3,157,63,157,62.7z"/>
				<path class="st23" d="M130.2,46.1c-1.6,1-2.1,3.1-0.9,4.6l9,12.5c1.2,1.6,3.2,2.5,5.2,2.2l13.6-1.9c-0.1-0.2-0.1-0.5-0.1-0.8
					c0-0.6,0.1-1.2,0.3-1.8L143,61.5c-1.1-0.1-1.6-0.4-2.4-1.6l-7.7-11.2l0,0c-0.9-1.4-0.9-2.2-0.4-3
					C131.8,45.6,130.9,45.7,130.2,46.1z"/>
			</g>
		</g>
	</g>
	<g>
		<path class="st15" d="M241.1,117.3l-14.2-8.2c-5.4-3.1-14.2-3.1-19.5,0L184,122.6c-2.7,1.6-4,3.6-4,5.6v0.1l0,0c0,2,1.3,4.1,4,5.7
			l14.2,8.2c5.4,3.1,14.2,3.1,19.5,0l23.3-13.5c2.7-1.6,4-3.6,4-5.6l0,0V123l0,0C245.1,120.9,243.8,118.8,241.1,117.3z"/>
		<g>
			<path class="st16" d="M241.2,122.1L241.2,122.1c0-2-1.3-4.1-4-5.7l-14.2-8.2c-5.4-3.1-14.2-3.1-19.5,0l-23.3,13.5
				c-2.7,1.6-4,3.6-4,5.6l0,0v3.1l0,0c0,2,1.3,4.1,4,5.7l14.2,8.2c5.4,3.1,14.2,3.1,19.5,0l23.3-13.5c2.7-1.5,4-3.6,4-5.6l0,0V122.1
				z"/>
			<path class="st17" d="M241.2,122.1L241.2,122.1c0-2-1.3-4.1-4-5.7l-14.2-8.2c-5.4-3.1-14.2-3.1-19.5,0l-23.3,13.5
				c-2.7,1.6-4,3.6-4,5.6l0,0v3.1l0,0c0,2,1.3,4.1,4,5.7l14.2,8.2c5.4,3.1,14.2,3.1,19.5,0l23.3-13.5c2.7-1.5,4-3.6,4-5.6l0,0V122.1
				z"/>
			<path class="st16" d="M237.2,116.5l-14.2-8.2c-5.4-3.1-14.2-3.1-19.5,0l-23.3,13.5c-2.7,1.6-4,3.6-4,5.6v0.1l0,0
				c0,2,1.3,4.1,4,5.7l14.2,8.2c5.4,3.1,14.2,3.1,19.5,0l23.3-13.5c2.7-1.6,4-3.6,4-5.6l0,0v-0.1l0,0
				C241.3,120.1,239.9,118,237.2,116.5z"/>
		</g>
		<path class="st17" d="M209.5,120.7c0,0.9,0.6,1.8,1.8,2.5c2.4,1.4,6.3,1.4,8.7,0l0,0l14.4-8.3l-8.7-5l-14.4,8.3
			C210.1,118.8,209.5,119.8,209.5,120.7z"/>
		<g>
			<path class="st19" d="M221,74.8L221,74.8L221,74.8L221,74.8c0-0.3-0.2-0.5-0.5-0.7c-0.7-0.4-1.8-0.4-2.4,0
				c-0.3,0.2-0.5,0.5-0.5,0.7l0,0V119l0,0c0,0.3,0.2,0.5,0.5,0.7c0.7,0.4,1.8,0.4,2.4,0c0.3-0.2,0.5-0.4,0.5-0.7V74.8z"/>
			<path class="st16" d="M218.1,74c-0.7,0.4-0.7,1,0,1.4s1.8,0.4,2.4,0c0.7-0.4,0.7-1,0-1.4C219.8,73.7,218.7,73.7,218.1,74z"/>
		</g>
		<g>
			<path class="st19" d="M222,86.5c0-0.4-0.3-0.8-0.8-1.1c-0.1,0-0.1,0-0.2-0.1v1.2l0,0c0,0.3-0.2,0.5-0.5,0.7
				c-0.7,0.4-1.8,0.4-2.4,0c-0.3-0.2-0.5-0.4-0.5-0.7l0,0v-1.2c-0.1,0-0.1,0-0.2,0.1c-0.5,0.3-0.8,0.7-0.8,1.1v5.1
				c0,0.4,0.3,0.8,0.8,1.1c1.1,0.6,2.8,0.6,3.8,0c0.5-0.3,0.8-0.7,0.8-1.1L222,86.5C222,86.5,222,86.5,222,86.5z"/>
			<path class="st16" d="M221.2,85.4c-0.1,0-0.1,0-0.2-0.1v1.2l0,0c0,0.3-0.2,0.5-0.5,0.7c-0.7,0.4-1.8,0.4-2.4,0
				c-0.3-0.2-0.5-0.4-0.5-0.7l0,0v-1.2c-0.1,0-0.1,0-0.2,0.1c-1.1,0.6-1.1,1.6,0,2.2s2.8,0.6,3.8,0C222.3,87,222.3,86,221.2,85.4z"
				/>
		</g>
		<path class="st19" d="M206.7,98.9L206.7,98.9L206.7,98.9L206.7,98.9c-0.2,0.1-0.5,0.1-0.9-0.1c-0.7-0.4-1.2-1.3-1.2-2.1
			c0-0.4,0.1-0.7,0.4-0.8l0,0l12-6.9l0,0c0.2-0.1,0.5-0.1,0.9,0.1c0.7,0.4,1.2,1.3,1.2,2.1c0,0.4-0.1,0.7-0.4,0.8L206.7,98.9z"/>
		<g>
			<path class="st18" d="M193.1,77.9L193.1,77.9c0-1,0.6-1.9,1.9-2.7c2.5-1.5,6.6-1.5,9.2,0c1.3,0.7,1.9,1.7,1.9,2.6l0,0l0,0v33.8
				c0,3.6-2.9,6.5-6.5,6.5s-6.5-2.9-6.5-6.5C193.1,111.7,193.1,77.9,193.1,77.9z"/>
			<path d="M199.4,91.6c0.3,0,0.6-0.2,0.6-0.6V81c-0.4,0-0.7,0-1.1,0v10C198.9,91.3,199.1,91.6,199.4,91.6z"/>
			<path class="st16" d="M198,116.4c2.7,0,4.9-2.2,4.9-4.9c0,0,0-24.4,0-32.5c-2.4,0.8-5.6,0.7-7.7-0.5c-0.9-0.5-1.4-1.1-1.7-1.8
				c0.3-0.5,0.8-1,1.6-1.5c0.1,0,0.2-0.1,0.3-0.1c2.1,1.1,5.2,1.3,7.5,0.5c0-0.3,0-0.6,0-0.9c0.5,0.2,0.9,0.3,1.4,0.6
				c0.2,0.1,0.3,0.2,0.5,0.3l0.1,0.1c0.1,0.1,0.2,0.2,0.3,0.3c0,0,0,0,0.1,0.1s0.2,0.2,0.3,0.3l0,0c0.1,0.1,0.2,0.2,0.3,0.4l0,0l0,0
				c0.2,0.4,0.3,0.8,0.3,1.2l0,0l0,0v33.8c0,3.6-2.9,6.5-6.5,6.5s-6.5-2.9-6.5-6.5v-0.1C193.1,114.2,195.3,116.4,198,116.4z"/>
			<g>
				<path class="st25" d="M195.8,88.5c2.1-1.2,5.6-1.2,7.7,0c1.1,0.6,1.6,1.4,1.6,2.2l0,0l0,0l0,0v20.9c0,3-2.4,5.4-5.4,5.4
					s-5.4-2.4-5.4-5.4v-21C194.2,89.9,194.7,89.1,195.8,88.5z"/>
				<path class="st17" d="M205.1,90.7L205.1,90.7L205.1,90.7C205.1,90.7,205,90.7,205.1,90.7v21c0,3-2.4,5.4-5.4,5.4
					c-1.1,0-2.2-0.3-3-0.9c0.5,0.1,0.9,0.2,1.4,0.2c2.7,0,4.9-2.2,4.9-4.9c0,0,0-15.5,0-23.3c0.2,0.1,0.4,0.2,0.6,0.3
					C204.5,89.1,205,89.9,205.1,90.7z"/>
				<path class="st26" d="M203.5,93c-2.1,1.2-5.6,1.2-7.7,0c-1.1-0.6-1.6-1.4-1.6-2.2c0-0.8,0.5-1.6,1.6-2.2c2.1-1.2,5.6-1.2,7.7,0
					c1.1,0.6,1.6,1.4,1.6,2.2l0,0l0,0C205.1,91.5,204.5,92.3,203.5,93z"/>
				<path class="st23" d="M199.4,91.6c0.3,0,0.6-0.2,0.6-0.6v-3.4c-0.4,0-0.7,0-1.1,0V91C198.9,91.3,199.1,91.6,199.4,91.6z"/>
			</g>
			<path class="st18" d="M206.1,77.9c0-1-0.6-1.9-1.9-2.6c-2.5-1.5-6.6-1.5-9.2,0c-1.3,0.7-1.9,1.7-1.9,2.7s0.6,1.9,1.9,2.6
				c2.5,1.5,6.6,1.5,9.2,0C205.5,79.8,206.1,78.8,206.1,77.9L206.1,77.9L206.1,77.9z"/>
			<path class="st19" d="M205.1,77.9c0-0.8-0.5-1.6-1.6-2.2c-2.1-1.2-5.6-1.2-7.7,0c-1.1,0.6-1.6,1.4-1.6,2.2c0,0.8,0.5,1.6,1.6,2.2
				c2.1,1.2,5.6,1.2,7.7,0C204.5,79.5,205.1,78.7,205.1,77.9C205,77.9,205,77.9,205.1,77.9L205.1,77.9z"/>
		</g>
		<g>
			<path class="st19" d="M207.5,97.2c0-0.9-0.5-1.8-1.4-2.5v2.5l0,0l0,0l0,0c0,0.9-0.6,1.9-1.9,2.6c-2.5,1.5-6.6,1.5-9.2,0
				c-1.3-0.7-1.9-1.7-1.9-2.6l0,0l0,0l0,0v-2.5c-0.9,0.8-1.4,1.7-1.4,2.5v3.4c0,1.2,0.8,2.3,2.3,3.2c3.1,1.8,8,1.8,11.1,0
				c1.5-0.9,2.3-2,2.3-3.2L207.5,97.2C207.5,97.2,207.5,97.2,207.5,97.2z"/>
			<path class="st16" d="M206.1,94.7v2.5l0,0l0,0l0,0c0,0.9-0.6,1.9-1.9,2.6c-2.5,1.5-6.6,1.5-9.2,0c-1.3-0.7-1.9-1.7-1.9-2.6l0,0
				l0,0l0,0v-2.5c-2.1,1.8-1.8,4.2,0.9,5.7c3.1,1.8,8,1.8,11.1,0C207.9,98.9,208.2,96.4,206.1,94.7z"/>
		</g>
	</g>
	<g>
		<path class="st15" d="M172.6,144.5c5.2,3,5.2,7.9,0,10.9s-13.7,3-18.9,0s-5.2-7.9,0-10.9C158.9,141.5,167.4,141.5,172.6,144.5z"/>
		<path class="st18" d="M152.7,121.4c0.1-0.1,0.2-0.2,0.4-0.4c0,0,0,0,0.1-0.1l0,0c4.9-3.7,5.6-5.5,5.6-10.1v-10.1l0,0
			c0-0.6,0.4-1.3,1.3-1.8c1.7-1,4.5-1,6.2,0c0.9,0.5,1.3,1.1,1.3,1.8v10.1l0,0c0,4.6,0.7,6.4,5.5,10.1c0.1,0.1,0.2,0.2,0.3,0.2
			c0.1,0.1,0.2,0.2,0.2,0.2c3.3,2.9,5.3,7.1,5.3,11.8c0,8.7-7.1,15.8-15.8,15.8s-15.8-7.1-15.8-15.8
			C147.4,128.5,149.4,124.3,152.7,121.4z"/>
		<path class="st16" d="M162.6,102.8v30.1c0,0.3,0.2,0.6,0.6,0.6c0.3,0,0.6-0.2,0.6-0.6v-30.1C163.3,102.8,163,102.8,162.6,102.8z"
			/>
		<path class="st17" d="M168.8,133.2c0-4.7-0.7-8.9-1.9-11.8c0-0.1-0.1-0.1-0.1-0.2s-0.1-0.2-0.1-0.2c-1.7-3.7-2-5.5-2-10.1l0,0
			v-10.1c0-0.6-0.2-1.3-0.5-1.8s-0.7-0.7-1.1-0.7c1.1,0,2.2,0.2,3.1,0.7c0.9,0.5,1.3,1.1,1.3,1.8v10.1l0,0c0,4.6,0.7,6.4,5.5,10.1
			c0.1,0.1,0.2,0.2,0.3,0.2c0.1,0.1,0.2,0.2,0.2,0.2c3.3,2.9,5.3,7.1,5.3,11.8c0,2.1-0.4,4-1.1,5.9v0.1c-0.1,0.3-0.3,0.6-0.5,1
			c-0.1,0.1-0.1,0.3-0.2,0.4c-0.1,0.3-0.3,0.6-0.5,0.8c-0.1,0.1-0.2,0.3-0.3,0.4c-0.2,0.2-0.3,0.5-0.5,0.7c-0.1,0.2-0.2,0.3-0.4,0.5
			s-0.4,0.4-0.5,0.6c-0.1,0.2-0.3,0.3-0.4,0.5c-0.2,0.2-0.4,0.4-0.6,0.6c-0.2,0.2-0.3,0.3-0.5,0.5s-0.4,0.3-0.6,0.5
			c-0.2,0.1-0.4,0.3-0.6,0.4c-0.2,0.1-0.4,0.3-0.6,0.4c-0.2,0.1-0.4,0.3-0.6,0.4c-0.2,0.1-0.4,0.2-0.6,0.3c-0.2,0.1-0.5,0.2-0.7,0.3
			s-0.4,0.2-0.6,0.3c-0.3,0.1-0.5,0.2-0.8,0.3c-0.2,0.1-0.4,0.1-0.6,0.2c-0.3,0.1-0.6,0.2-0.9,0.2c-0.2,0-0.4,0.1-0.6,0.1
			c-0.3,0.1-0.7,0.1-1,0.2c-0.2,0-0.3,0.1-0.5,0.1c-0.5,0-1,0.1-1.6,0.1c-5.2,0-9.7-2.5-12.6-6.3
			C159.2,149.9,168.8,145.1,168.8,133.2z"/>
		<path class="st18" d="M166.3,99c1.7,1,1.7,2.6,0,3.6s-4.5,1-6.2,0s-1.7-2.6,0-3.6S164.5,98,166.3,99z"/>
		<path class="st19" d="M165.7,99.3c1.4,0.8,1.4,2.1,0,2.9s-3.7,0.8-5.1,0c-1.4-0.8-1.4-2.1,0-2.9C162,98.5,164.3,98.5,165.7,99.3z"
			/>
		<path class="st24" d="M148.5,133.2c0-2.2,1.4-4.3,4.3-6c5.7-3.3,15-3.3,20.7,0c2.8,1.6,4.3,3.8,4.3,5.9l0,0l0,0
			c0,8.1-6.5,14.6-14.6,14.6C155.1,147.8,148.5,141.3,148.5,133.2L148.5,133.2L148.5,133.2z"/>
		<path class="st17" d="M163.1,133.5c0.3,0,0.6-0.2,0.6-0.6v-8.2c-0.4,0-0.7,0-1.1,0v8.1C162.6,133.2,162.8,133.5,163.1,133.5z"/>
		<path class="st27" d="M152.8,139.2c5.7,3.3,15,3.3,20.7,0c2.9-1.6,4.3-3.8,4.3-6l0,0l0,0c0,8.1-6.5,14.6-14.6,14.6
			s-14.6-6.5-14.6-14.6l0,0C148.5,135.4,150,137.5,152.8,139.2z"/>
		<path class="st17" d="M168.8,133.2c0-2.9-0.3-5.6-0.8-8c2,0.4,3.9,1.1,5.5,2c2.8,1.6,4.3,3.8,4.3,5.9l0,0l0,0
			c0,8.1-6.5,14.6-14.6,14.6c-3,0-5.9-0.9-8.2-2.5C162.1,148.1,168.8,143.1,168.8,133.2z"/>
		<g>
			<path class="st26" d="M157.5,144c0-0.6,0.5-1.1,1.1-1.1s1.1,0.5,1.1,1.1s-0.5,1.1-1.1,1.1S157.5,144.6,157.5,144z"/>
			<path class="st26" d="M157.9,143.8c0-0.3,0.2-0.5,0.5-0.5s0.5,0.2,0.5,0.5s-0.2,0.5-0.5,0.5C158.1,144.3,157.9,144.1,157.9,143.8
				z"/>
		</g>
		<g>
			<path class="st26" d="M163.6,136c0-0.6,0.5-1.1,1.1-1.1s1.1,0.5,1.1,1.1s-0.5,1.1-1.1,1.1S163.6,136.6,163.6,136z"/>
			<path class="st26" d="M164,135.8c0-0.3,0.2-0.5,0.5-0.5s0.5,0.2,0.5,0.5s-0.2,0.5-0.5,0.5S164,136.1,164,135.8z"/>
		</g>
		<g>
			<path class="st26" d="M156,132.5c0-0.4,0.3-0.7,0.7-0.7s0.7,0.3,0.7,0.7s-0.3,0.7-0.7,0.7S156,132.9,156,132.5z"/>
			<path class="st26" d="M156.3,132.3c0-0.2,0.1-0.3,0.3-0.3s0.3,0.1,0.3,0.3s-0.1,0.3-0.3,0.3C156.4,132.7,156.3,132.5,156.3,132.3
				z"/>
		</g>
		<g>
			<path class="st28" d="M173,131.8c0-0.4,0.3-0.7,0.7-0.7s0.7,0.3,0.7,0.7s-0.3,0.7-0.7,0.7S173,132.2,173,131.8z"/>
			<path class="st28" d="M173.3,131.6c0-0.2,0.1-0.3,0.3-0.3s0.3,0.1,0.3,0.3s-0.1,0.3-0.3,0.3C173.4,131.9,173.3,131.8,173.3,131.6
				z"/>
		</g>
	</g>
	<path class="st16" d="M198.3,61.2c-1.1-0.6-2.5-0.5-4,0.3l-6.7,3.9c-1.2,0.7-2.3,1.7-3.3,2.9c-1-0.1-2.2,0.2-3.3,0.9
		c-1.2,0.7-2.3,1.7-3.3,2.9c-1-0.1-2.2,0.2-3.3,0.9l-6.7,3.9c-2.8,1.6-5.1,5.6-5.1,8.8v17c0.4,0,0.7,0,1.1,0v-17
		c0-2.9,2-6.4,4.5-7.8l6.7-3.9c0.7-0.4,1.4-0.6,2-0.7c-1.3,2.1-2.2,4.5-2.2,6.7v0.2c0,1,0.4,1.8,1.1,2.2c0.7,0.4,1.6,0.3,2.5-0.2
		c1.7-1,3-3.3,3-5.2c0-2-0.7-3.6-2.1-4.3c-0.1-0.1-0.2-0.1-0.3-0.1c0.8-0.9,1.7-1.7,2.7-2.3c0.7-0.4,1.4-0.6,2-0.7
		c-1.4,2.1-2.2,4.6-2.2,6.8v0.1c0,1,0.4,1.8,1.1,2.2c0.7,0.4,1.6,0.3,2.5-0.2c1.7-1,3-3.3,3-5.2c0-2-0.7-3.6-2.1-4.3
		c-0.1-0.1-0.2-0.1-0.3-0.1c0.8-0.9,1.7-1.7,2.7-2.3l6.7-3.9c1.1-0.6,2.1-0.8,2.8-0.3c0.7,0.4,1.1,1.4,1.1,2.6v16.1
		c0.4,0,0.7,0,1.1,0V65C200,63.1,199.4,61.9,198.3,61.2z M180.1,77.1c0,1.5-1.1,3.5-2.4,4.2c-0.5,0.3-1,0.4-1.4,0.2
		c-0.3-0.2-0.5-0.7-0.5-1.3V80c0-2.2,1-4.6,2.4-6.6c0.2,0.1,0.3,0.1,0.4,0.2C179.6,74.2,180.1,75.4,180.1,77.1z M186.8,73.2
		c0,1.5-1.1,3.5-2.4,4.2c-0.5,0.3-1,0.4-1.4,0.2c-0.3-0.2-0.5-0.7-0.5-1.3v-0.1c0-2.2,1-4.7,2.4-6.7c0.2,0.1,0.3,0.1,0.4,0.2
		C186.2,70.4,186.8,71.6,186.8,73.2z"/>
	<g>
		<g>
			<path class="st18" d="M300.9,113.2c1.4-1.4,3.6-1.4,4.9,0c1.4,1.4,1.4,3.6,0,4.9c-1.4,1.4-3.6,1.4-5,0
				C299.5,116.8,299.5,114.6,300.9,113.2z"/>
			<path class="st17" d="M304.7,117c1.2-1.2,1.3-3,0.5-4.3c0.2,0.1,0.5,0.3,0.6,0.5c1.4,1.4,1.4,3.6,0,4.9c-1.4,1.4-3.6,1.4-5,0
				c-0.2-0.2-0.4-0.4-0.5-0.6C301.7,118.4,303.5,118.2,304.7,117z"/>
		</g>
		<path class="st19" d="M292.2,122.1c-0.3,0-0.5-0.1-0.6-0.4c-0.2-0.3,0-0.8,0.3-0.9l9.5-4.8c0.3-0.2,0.8,0,0.9,0.3
			c0.2,0.3,0,0.8-0.3,0.9l-9.5,4.8C292.4,122.1,292.3,122.1,292.2,122.1z"/>
		<g>
			<path class="st16" d="M287.5,116.7c2.6-2.6,6.8-2.6,9.4,0s2.6,6.8,0,9.4s-6.8,2.6-9.4,0S284.9,119.3,287.5,116.7z"/>
			<path class="st17" d="M294.7,123.9c2.2-2.2,2.5-5.6,1-8.2c0.4,0.3,0.9,0.6,1.2,1c2.6,2.6,2.6,6.8,0,9.4c-2.6,2.6-6.8,2.6-9.4,0
				c-0.4-0.4-0.7-0.8-1-1.2C289.1,126.4,292.5,126.1,294.7,123.9z"/>
		</g>
		<path class="st19" d="M287.3,120.1c-0.1,0-0.2,0-0.3-0.1l-9.4-3.9c-0.4-0.1-0.5-0.6-0.4-0.9c0.1-0.4,0.6-0.5,0.9-0.4l9.4,3.9
			c0.4,0.1,0.5,0.6,0.4,0.9S287.5,120.1,287.3,120.1z"/>
		<g>
			<path class="st18" d="M275.3,113c1.4-1.4,3.6-1.4,4.9,0c1.4,1.4,1.4,3.6,0,5s-3.6,1.4-5,0C274,116.6,274,114.4,275.3,113z"/>
			<path class="st17" d="M279.1,116.8c1.2-1.2,1.3-3,0.5-4.3c0.2,0.1,0.5,0.3,0.6,0.5c1.4,1.4,1.4,3.6,0,5s-3.6,1.4-5,0
				c-0.2-0.2-0.4-0.4-0.5-0.7C276.2,118.1,278,118,279.1,116.8z"/>
		</g>
		<path class="st19" d="M287.2,137.5c-0.1,0-0.1,0-0.2,0c-0.4-0.1-0.6-0.5-0.5-0.9l3.1-9.7c0.1-0.4,0.5-0.6,0.9-0.5s0.6,0.5,0.5,0.9
			l-3.1,9.7C287.7,137.3,287.5,137.5,287.2,137.5z"/>
		<g>
			<path class="st29" d="M284.7,134.3c1.4-1.4,3.6-1.4,4.9,0c1.4,1.4,1.4,3.6,0,4.9c-1.4,1.4-3.6,1.4-5,0
				C283.3,137.9,283.3,135.7,284.7,134.3z"/>
			<path class="st17" d="M288.5,138.1c1.2-1.2,1.3-3,0.5-4.3c0.2,0.1,0.5,0.3,0.6,0.5c1.4,1.4,1.4,3.6,0,4.9c-1.4,1.4-3.6,1.4-5,0
				c-0.2-0.2-0.4-0.4-0.5-0.7C285.5,139.5,287.3,139.3,288.5,138.1z"/>
		</g>
	</g>
	<g>
		<path class="st29" d="M252.6,76.1c-0.3-0.6-0.9-0.7-1.7-0.3l-20.8,12c-1,0.6-1.8,2-1.8,3.1v9c0,0.8,0.4,1.3,1,1.3
			c-0.2,0-0.4,0-0.5-0.1l-0.6-0.4l0,0c-0.3-0.2-0.5-0.6-0.5-1.2v-9c0-1.2,0.8-2.6,1.8-3.1l20.8-12c0.5-0.3,1-0.3,1.3-0.1l0,0
			l0.6,0.3C252.3,75.8,252.5,76,252.6,76.1z"/>
		<path class="st23" d="M252.6,76.1c-0.3-0.6-0.9-0.7-1.7-0.3l-20.8,12c-1,0.6-1.8,2-1.8,3.1v9c0,0.8,0.4,1.3,1,1.3
			c-0.2,0-0.4,0-0.5-0.1l-0.6-0.4l0,0c-0.3-0.2-0.5-0.6-0.5-1.2v-9c0-1.2,0.8-2.6,1.8-3.1l20.8-12c0.5-0.3,1-0.3,1.3-0.1l0,0
			l0.6,0.3C252.3,75.8,252.5,76,252.6,76.1z"/>
		<path class="st29" d="M228.3,100c0,1.2,0.8,1.6,1.8,1l20.8-12c1-0.6,1.8-2,1.8-3.1v-9c0-1.2-0.8-1.6-1.8-1l-20.8,12
			c-1,0.6-1.8,2-1.8,3.1V100z"/>
		<path class="st17" d="M249,82.7c-0.1-0.2-0.3-0.3-0.6-0.3c0.1,0.2,0.2,0.4,0.2,0.7c0,0.9-0.6,2-1.4,2.5L232.7,94
			c-0.2,0.1-0.5,0.2-0.7,0.2c-0.1-0.2-0.2-0.4-0.2-0.7c0-0.9,0.6-2,1.4-2.5l14.5-8.4C248.3,82.3,248.7,82.4,249,82.7z"/>
		<path class="st30" d="M232.7,93.9l14.5-8.4c0.8-0.5,1.4-1.6,1.4-2.5c0-0.3-0.1-0.5-0.2-0.7c0.5,0,0.8,0.4,0.8,1
			c0,0.9-0.6,2-1.4,2.5l-14.5,8.4c-0.6,0.3-1,0.2-1.3-0.2C232.2,94.1,232.4,94.1,232.7,93.9z"/>
		<path class="st31" d="M240,88.7c-0.4-0.4-1.1-0.5-1.8-0.1c-1.2,0.7-2.2,2.4-2.2,3.8c0,0.7,0.2,1.2,0.6,1.4l0,0l-1.2-0.7
			c-0.4-0.2-0.6-0.7-0.6-1.4c0-1.4,1-3.1,2.2-3.8c0.6-0.3,1.1-0.4,1.5-0.2l0,0l1.2,0.7C239.8,88.6,239.9,88.6,240,88.7z"/>
		<path d="M240,88.7c-0.4-0.4-1.1-0.5-1.8-0.1c-1.2,0.7-2.2,2.4-2.2,3.8c0,0.7,0.2,1.2,0.6,1.4l0,0l-1.2-0.7
			c-0.4-0.2-0.6-0.7-0.6-1.4c0-1.4,1-3.1,2.2-3.8c0.6-0.3,1.1-0.4,1.5-0.2l0,0l1.2,0.7C239.8,88.6,239.9,88.6,240,88.7z"/>
		<path class="st31" d="M240.4,89.9c0,1.4-1,3.1-2.2,3.8c-1.2,0.7-2.2,0.1-2.2-1.3s1-3.1,2.2-3.8C239.4,88,240.4,88.5,240.4,89.9z"
			/>
	</g>
	<g>
		<path class="st24" d="M249.8,18.8l0.6,0.3c0.3,0.2,0.5,0.6,0.5,1.2v22.8c0,1.2-0.8,2.6-1.8,3.1l-37.2,21.5c-0.5,0.3-1,0.3-1.3,0.1
			l-0.6-0.3l0,0l0,0l0,0c-0.3-0.2-0.5-0.6-0.5-1.2V43.5c0-1.2,0.8-2.6,1.8-3.1L248.5,19C249,18.6,249.4,18.6,249.8,18.8L249.8,18.8z
			"/>
		<path class="st23" d="M249.1,19.2l-37.2,21.5c-1,0.6-1.8,2-1.8,3.1v22.8c0,0.6,0.2,1,0.5,1.2l0,0l-0.6-0.3l0,0l0,0l0,0
			c-0.3-0.2-0.5-0.6-0.5-1.2V43.5c0-1.2,0.8-2.6,1.8-3.1L248.5,19c0.5-0.3,1-0.3,1.3-0.1l0,0l0.6,0.3l0,0
			C250,18.9,249.6,18.9,249.1,19.2z"/>
		<path class="st17" d="M213.6,44.3v12.8l0,0c0,0.3,0.2,0.4,0.4,0.3l32.8-19c0.2-0.1,0.4-0.5,0.4-0.8l0,0V24.8
			c0-0.3-0.2-0.4-0.4-0.3l-32.8,19C213.8,43.7,213.6,44,213.6,44.3z"/>
		<path class="st17" d="M213.6,57.1v-0.2L246.3,38c0.2-0.1,0.4-0.5,0.4-0.8V24.7l0.2-0.1c0.2-0.1,0.4,0,0.4,0.3v12.8
			c0,0.3-0.2,0.6-0.4,0.8l-32.8,19C213.8,57.5,213.6,57.3,213.6,57.1z"/>
		<path class="st24" d="M236,49.1c0-0.3,0.2-0.6,0.4-0.8l10.4-6c0.1-0.1,0.3-0.1,0.3,0h0.1h0.1h0.1h0.1h0.1h0.1h0.1l0,0
			c-0.1,0-0.2,0-0.3,0l-10.4,6c-0.2,0.1-0.4,0.5-0.4,0.8c0,0.1,0,0.2,0.1,0.2h-0.1h-0.1h-0.1h-0.1h-0.1h-0.1h-0.1
			C236.1,49.4,236,49.3,236,49.1z M222,55.5L222,55.5c-0.1-0.1-0.1-0.1-0.2-0.1c0,0,0,0-0.1,0c0,0,0,0-0.1,0c0,0,0,0-0.1,0
			c0,0,0,0-0.1,0c0,0,0,0-0.1,0c-0.1-0.1-0.2-0.1-0.3,0l-7.1,4.1c-0.2,0.1-0.4,0.5-0.4,0.8v2c0,0.2,0.1,0.3,0.2,0.3c0,0,0,0,0.1,0
			c0,0,0,0,0.1,0c0,0,0,0,0.1,0c0,0,0,0,0.1,0c0,0,0,0,0.1,0c0,0,0,0,0.1,0c0,0,0,0,0.1,0c-0.1-0.1-0.1-0.1-0.1-0.2v-2
			c0-0.3,0.2-0.6,0.4-0.8l7.1-4.1C221.9,55.5,222,55.5,222,55.5z M247.8,40.7L247.8,40.7C247.7,40.7,247.7,40.6,247.8,40.7
			c-0.1-0.1-0.1-0.1-0.2-0.1c0,0,0,0-0.1,0c0,0,0,0-0.1,0c0,0,0,0-0.1,0c0,0,0,0-0.1,0c0,0,0,0-0.1,0c-0.1-0.1-0.2-0.1-0.3,0
			l-16.5,9.5c-0.2,0.1-0.4,0.5-0.4,0.8c0,0.2,0.1,0.3,0.2,0.3c0,0,0,0,0.1,0c0,0,0,0,0.1,0c0,0,0,0,0.1,0c0,0,0,0,0.1,0
			c0,0,0,0,0.1,0c0,0,0,0,0.1,0c0,0,0,0,0.1,0l0,0c-0.1-0.1-0.1-0.1-0.1-0.2c0-0.3,0.2-0.6,0.4-0.8l16.5-9.5
			C247.6,40.7,247.7,40.7,247.8,40.7z"/>
		<path class="st23" d="M236,49.1c0-0.3,0.2-0.6,0.4-0.8l10.4-6c0.1-0.1,0.3-0.1,0.3,0h0.1h0.1h0.1h0.1h0.1h0.1h0.1l0,0
			c-0.1,0-0.2,0-0.3,0l-10.4,6c-0.2,0.1-0.4,0.5-0.4,0.8c0,0.1,0,0.2,0.1,0.2h-0.1h-0.1h-0.1h-0.1h-0.1h-0.1h-0.1
			C236.1,49.4,236,49.3,236,49.1z M222,55.5L222,55.5c-0.1-0.1-0.1-0.1-0.2-0.1c0,0,0,0-0.1,0c0,0,0,0-0.1,0c0,0,0,0-0.1,0
			c0,0,0,0-0.1,0c0,0,0,0-0.1,0c-0.1-0.1-0.2-0.1-0.3,0l-7.1,4.1c-0.2,0.1-0.4,0.5-0.4,0.8v2c0,0.2,0.1,0.3,0.2,0.3c0,0,0,0,0.1,0
			c0,0,0,0,0.1,0c0,0,0,0,0.1,0c0,0,0,0,0.1,0c0,0,0,0,0.1,0c0,0,0,0,0.1,0c0,0,0,0,0.1,0c-0.1-0.1-0.1-0.1-0.1-0.2v-2
			c0-0.3,0.2-0.6,0.4-0.8l7.1-4.1C221.9,55.5,222,55.5,222,55.5z M247.8,40.7L247.8,40.7C247.7,40.7,247.7,40.6,247.8,40.7
			c-0.1-0.1-0.1-0.1-0.2-0.1c0,0,0,0-0.1,0c0,0,0,0-0.1,0c0,0,0,0-0.1,0c0,0,0,0-0.1,0c0,0,0,0-0.1,0c-0.1-0.1-0.2-0.1-0.3,0
			l-16.5,9.5c-0.2,0.1-0.4,0.5-0.4,0.8c0,0.2,0.1,0.3,0.2,0.3c0,0,0,0,0.1,0c0,0,0,0,0.1,0c0,0,0,0,0.1,0c0,0,0,0,0.1,0
			c0,0,0,0,0.1,0c0,0,0,0,0.1,0c0,0,0,0,0.1,0l0,0c-0.1-0.1-0.1-0.1-0.1-0.2c0-0.3,0.2-0.6,0.4-0.8l16.5-9.5
			C247.6,40.7,247.7,40.7,247.8,40.7z"/>
		<path class="st31" d="M230.6,51c0-0.3,0.2-0.6,0.4-0.8l16.5-9.5c0.2-0.1,0.4,0,0.4,0.3l0,0c0,0.3-0.2,0.6-0.4,0.8L231,51.2
			C230.8,51.4,230.6,51.3,230.6,51L230.6,51z M236.7,49.5c0,0.3,0.2,0.4,0.4,0.3l10.4-6c0.2-0.1,0.4-0.5,0.4-0.8l0,0
			c0-0.3-0.2-0.4-0.4-0.3l-10.4,6C236.8,48.9,236.7,49.2,236.7,49.5L236.7,49.5z M214.2,60.4v2l0,0c0,0.3,0.2,0.4,0.4,0.3l7.1-4.1
			c0.2-0.1,0.4-0.5,0.4-0.8l0,0v-2c0-0.3-0.2-0.4-0.4-0.3l-7.1,4.1C214.4,59.8,214.2,60.1,214.2,60.4z"/>
		<path class="st24" d="M230.6,43.6l-0.6-0.3l-0.2-0.8l-0.7,4.8l0.9-6L230.6,43.6z M227.5,43.7l1.1,3.3l0.6,0.3l-1.2-3.9L227.5,43.7
			z M222.6,45.5l0.5,2.1l0.6,0.3l-0.8-3.4L222.6,45.5z M221.2,47.4l0.2,0.5l0.6,0.3l-0.6-1.6L221.2,47.4z M240.1,34.5l-0.9,3.8
			l0.7-2.8l0.5,2.1l0.6,0.3L240.1,34.5z M218.9,48.6l1,2.4l0.6,0.3l-1.2-2.9L218.9,48.6z M238.5,37.5l0.2,0.5l0.6,0.3l-0.6-1.6
			L238.5,37.5z M231.5,39.1l-0.9,4.5l0.6-3.2l0.6,3.2l0.6,0.3L231.5,39.1z M233.3,40.3l2.9-1.7l1,2.4l0.6,0.3l-1.2-2.9L233.3,40.3z
			 M221.9,46.1l1-4.3l-0.6-0.3l-0.9,3.6l-0.3-0.8L221.9,46.1z M237.6,39.1l0.9-4.8l-0.6-0.3l-0.8,4.1l-0.2-0.6L237.6,39.1z
			 M232.8,39.9l4.1-2.3l-0.6-0.3l-4.1,2.3v0.1l-0.7-3.7l0.9,5.2L232.8,39.9z M239.2,36.2l1-4.3l-0.6-0.3l-0.9,3.6l-0.3-0.8
			L239.2,36.2z M240.9,34.6L240.9,34.6l-0.7-2.7l1,3.9l0.3-0.9l4.3-2.5l-0.6-0.3L240.9,34.6z M230.6,40.9l1-5l-0.6-0.3l-0.8,4
			L230.6,40.9z M224.3,44.8l4-2.3l-0.6-0.3l-4,2.3v0.1l0.3,1.1L224.3,44.8z M220.3,49.1l0.9-4.8l-0.6-0.3l-0.8,4.1L220.3,49.1z
			 M228.9,44.5l0.9-6.3l-0.6-0.3l-0.8,5.3L228.9,44.5z M216.3,49.4l3.3-1.9l-0.6-0.3l-3.3,1.9v0.7l0.6,0.3V49.4z"/>
		<path class="st23" d="M230.6,43.6l-0.6-0.3l-0.2-0.8l-0.7,4.8l0.9-6L230.6,43.6z M227.5,43.7l1.1,3.3l0.6,0.3l-1.2-3.9L227.5,43.7
			z M222.6,45.5l0.5,2.1l0.6,0.3l-0.8-3.4L222.6,45.5z M221.2,47.4l0.2,0.5l0.6,0.3l-0.6-1.6L221.2,47.4z M240.1,34.5l-0.9,3.8
			l0.7-2.8l0.5,2.1l0.6,0.3L240.1,34.5z M218.9,48.6l1,2.4l0.6,0.3l-1.2-2.9L218.9,48.6z M238.5,37.5l0.2,0.5l0.6,0.3l-0.6-1.6
			L238.5,37.5z M231.5,39.1l-0.9,4.5l0.6-3.2l0.6,3.2l0.6,0.3L231.5,39.1z M233.3,40.3l2.9-1.7l1,2.4l0.6,0.3l-1.2-2.9L233.3,40.3z
			 M221.9,46.1l1-4.3l-0.6-0.3l-0.9,3.6l-0.3-0.8L221.9,46.1z M237.6,39.1l0.9-4.8l-0.6-0.3l-0.8,4.1l-0.2-0.6L237.6,39.1z
			 M232.8,39.9l4.1-2.3l-0.6-0.3l-4.1,2.3v0.1l-0.7-3.7l0.9,5.2L232.8,39.9z M239.2,36.2l1-4.3l-0.6-0.3l-0.9,3.6l-0.3-0.8
			L239.2,36.2z M240.9,34.6L240.9,34.6l-0.7-2.7l1,3.9l0.3-0.9l4.3-2.5l-0.6-0.3L240.9,34.6z M230.6,40.9l1-5l-0.6-0.3l-0.8,4
			L230.6,40.9z M224.3,44.8l4-2.3l-0.6-0.3l-4,2.3v0.1l0.3,1.1L224.3,44.8z M220.3,49.1l0.9-4.8l-0.6-0.3l-0.8,4.1L220.3,49.1z
			 M228.9,44.5l0.9-6.3l-0.6-0.3l-0.8,5.3L228.9,44.5z M216.3,49.4l3.3-1.9l-0.6-0.3l-3.3,1.9v0.7l0.6,0.3V49.4z"/>
		<polygon class="st31" points="229.1,47.3 230,41.4 230.6,43.6 231.5,39.1 232.4,44 233.3,40.3 236.5,38.5 237.7,41.4 238.6,36.7 
			239.2,38.3 240.1,34.5 241,37.9 241.9,35.4 245.8,33.1 245.8,32.4 241.5,34.9 241.2,35.8 240.2,31.9 239.2,36.2 238.5,34.4 
			237.6,39.1 236.9,37.5 232.8,39.9 232.5,41.1 231.6,35.9 230.6,40.9 229.9,38.3 228.9,44.5 228.3,42.5 224.3,44.8 223.9,45.8 
			223,41.9 221.9,46.1 221.3,44.3 220.3,49.1 219.6,47.5 216.3,49.4 216.3,50.1 219.2,48.4 220.5,51.3 221.4,46.7 222,48.3 
			222.9,44.5 223.7,47.9 224.6,45.3 227.8,43.5 		"/>
	</g>
	<g>
		<path class="st15" d="M264.8,151c2.6-3.5,8-4.7,6.7-7.1c-0.9-2.4-6.7-4.8-11.6-5.5c-5.1-0.7-7,2.8-11.5,2.3c-5.5-0.7-9.5,3.8-12,6
			c-5.7,4.3,4.2,11.2,9.8,9.3C252.3,153.8,260.3,157,264.8,151z"/>
		<g>
			<path class="st22" d="M254.8,60.1c0.5-0.2,1,3-0.6,3.8s8.1,0.7,7.4-0.2c-0.7-0.8-0.4-1.7-1-1.7s-3-2.3-1.6-4.7s-2.8-2.1-3.3-1.5
				c-0.5,0.6-2.3,1.1-1.9,1.9C254.2,58.5,254,60.4,254.8,60.1z"/>
			<path class="st17" d="M254.8,60.1c0.5-0.2,1,3-0.6,3.8s8.1,0.7,7.4-0.2c-0.7-0.8-0.4-1.7-1-1.7s-3-2.3-1.6-4.7s-2.8-2.1-3.3-1.5
				c-0.5,0.6-2.3,1.1-1.9,1.9C254.2,58.5,254,60.4,254.8,60.1z"/>
			<path class="st22" d="M251.6,51.1c0.2-0.9,1.8-1.6,2.8-0.4c1.3,1.6,1.4,2.4,2.9,4.1c0.1,0.2,0.3,0.3,0.4,0.4c0-0.1,0-0.3,0.1-0.4
				c0.3-0.9,1-1.5,1.6-1.4c0.6,0.2,0.9,1.1,0.7,2c-0.1,0.5-0.4,0.9-0.7,1.1c-1,1.7-1.3,2.3-3.1,3.1c-1.5,0.6-3.4,0.9-3.7-0.3
				c-0.3-1-1.3-1.7-1.3-3.1c0-0.9,0.5-2.6,0.4-3.4C251.5,52.2,251.5,51.5,251.6,51.1z"/>
			<path class="st17" d="M251.6,51.1c0.2-0.9,1.8-1.6,2.8-0.4c1.3,1.6,1.4,2.4,2.9,4.1c0.1,0.2,0.3,0.3,0.4,0.4c0-0.1,0-0.3,0.1-0.4
				c0.3-0.9,1-1.5,1.6-1.4c0.6,0.2,0.9,1.1,0.7,2c-0.1,0.5-0.4,0.9-0.7,1.1c-1,1.7-1.3,2.3-3.1,3.1c-1.5,0.6-3.4,0.9-3.7-0.3
				c-0.3-1-1.3-1.7-1.3-3.1c0-0.9,0.5-2.6,0.4-3.4C251.5,52.2,251.5,51.5,251.6,51.1z"/>
			<path class="st17" d="M255,59.3c-1-0.4-0.9,0.4-2-1.3c-1.1-1.8-0.7-3.5-0.8-4.9c-0.1-1.5-0.1-1.5,0.8-2.7
				c0.1-0.1,0.2-0.2,0.2-0.3c-0.8-0.1-1.5,0.4-1.7,1c-0.1,0.4-0.1,1.1,0,1.7c0.1,0.8-0.4,2.5-0.4,3.4c0,1.4,1,2.2,1.3,3.1
				c0.2,0.8,1.1,0.9,2.1,0.8c0.1,0,0.1,0,0.2,0c0.5-0.2,1,3-0.6,3.8c-0.5,0.3,0.2,0.4,1.5,0.4c0.1-1,0.1-2,0.2-2.4
				C256.1,60.8,256,59.7,255,59.3z"/>
			<g>
				<path class="st22" d="M259.4,90.5c-0.5,0.9-0.5,1.5-1.2,2.2s-1.4,1.6-1.4,2.1s-0.1,0.9,0.1,1.7c0.2,0.8,0.2,1,0.4,1
					c0.2,0,0.1,0,0.4,0.2c0.2,0.2,0.2,0,0.5,0.2s0.4,0.2,0.6,0.2s0.9,0.1,0.9-0.3s-0.1-0.5-0.4-0.6c-0.3,0-0.3-0.2-0.2-0.4
					c0.1-0.2,0.3-0.4,0.7-0.9c0.4-0.5,1.1-1.3,1.3-2.2c0.2-0.9-0.2-1.3,0.7-2.2C262.5,90.8,260.7,88.3,259.4,90.5z"/>
				<path class="st22" d="M268.2,82.2c-1,2.5-1.7,3.4-3.4,5.9c-1,1.5-2.9,3.2-3.7,4.5c-0.1,0.1-0.5,0.6-1.1,1.2
					c-0.7,0.7-1.3,1.9-1.5,1.4c-0.6-1.5-0.3-2.2,0.8-4.1c1.1-2,3.5-5.6,4.5-7.1s1.3-2.9,1.4-3.4c0.4-1.6,1.1-0.5,1.9-0.5
					C267.8,80,268.6,81,268.2,82.2z"/>
				<path class="st21" d="M258.7,97.5c-0.6-0.7,0.6-2.2,1.2-3.2s0.1-1.9,0.5-2.9s0.8-1.3,3.7-5c3-3.6,2.5-3.8,2.5-5.6
					c0-0.3,0-0.7-0.1-1.1c-0.6-0.2-1.1-0.7-1.4,0.6c-0.1,0.5-0.4,1.8-1.4,3.4c-1,1.5-3.4,5.1-4.5,7.1c-0.3,0.6-0.6,1.1-0.8,1.6
					c-0.1,0.1-0.1,0.1-0.2,0.2c-0.7,0.7-1.4,1.6-1.4,2.1s-0.1,0.9,0.1,1.7c0.2,0.8,0.2,1,0.4,1c0.2,0,0.1,0,0.4,0.2
					c0.2,0.2,0.2,0,0.5,0.2s0.4,0.2,0.6,0.2s0.9,0.1,0.9-0.3c0-0.1,0-0.1,0-0.2C259.3,97.8,258.9,97.8,258.7,97.5z"/>
				<path class="st18" d="M265.9,62.6c-1.4,1.3-1.5,2.2-1.6,4.5c0,2.5,0.5,11.1,0.5,13.2s0.4,2.7,2,2.4c0.8-0.2,1.4-0.4,1.6-1.6
					c0.1-1.1,0.8-6.2,0.8-7.5c0-2.4-0.2-5.5-0.9-7.9C267.7,64.1,266.9,63.2,265.9,62.6z"/>
				<path class="st18" d="M265.9,62.6c-1.4,1.3-1.5,2.2-1.6,4.5c0,2.5,0.5,11.1,0.5,13.2s0.4,2.7,2,2.4c0.8-0.2,1.4-0.4,1.6-1.6
					c0.1-1.1,0.8-6.2,0.8-7.5c0-2.4-0.2-5.5-0.9-7.9C267.7,64.1,266.9,63.2,265.9,62.6z"/>
				<path class="st27" d="M265.9,62.6c-1.4,1.3-1.5,2.2-1.6,4.5c0,2.5,0.5,11.1,0.5,13.2s0.4,2.7,2,2.4c0.8-0.2,1.4-0.4,1.6-1.6
					c0.1-1.1,0.8-6.2,0.8-7.5c0-2.4-0.2-5.5-0.9-7.9C267.7,64.1,266.9,63.2,265.9,62.6z"/>
				<path class="st23" d="M265.9,66.7c0-2.1,0.1-2.6,1.1-3.2c-0.3-0.4-0.7-0.6-1.1-0.8c-0.1,0.1-0.1,0.1-0.2,0.2
					c-1.2,1.2-1.3,2.1-1.4,4.3c0,2.5,0.5,11.1,0.5,13.2c0,1.9,0.4,2.6,1.7,2.4c0.1-1.2-0.1-3-0.1-4.4
					C266.3,76,265.9,69.7,265.9,66.7z"/>
			</g>
			<path class="st22" d="M260.8,134.2c0.1,2.2-0.1,2.5-0.9,5c-1.1,3.4-1,2.6-2.3,3s-0.8,1.4-0.1,2.9c0.7,1.4,3.6,0.2,5.3-0.3
				c1.7-0.5,0.9-2,1.7-3.6c0.7-1.5-0.8-1.2-0.7-6.2c0-0.1,0-0.2,0-0.3C263,135.3,261.4,134.9,260.8,134.2z"/>
			<path class="st19" d="M257.5,145c0.7,1.4,3.6,0.2,5.3-0.3c1.7-0.5,0.9-2,1.7-3.6c0.4-0.8,0.2-1,0-1.5c-0.6-0.1-1-0.2-1.9,0.1
				c-1.1,0.3-1.8,0.7-2.5,1.8c-0.7,1.2-1.6,2.2-2.1,1.7c-0.4-0.5,0.2-0.9,0.6-1.4c-0.2,0.1-0.5,0.1-1.1,0.3
				C256.3,142.5,256.8,143.6,257.5,145z"/>
			<path class="st19" d="M264.7,140.2c-0.1-0.4-0.2-0.7-0.3-0.9c-0.4-0.4-1.8-0.2-2.6,0.3c-0.4,0.3-0.9,0.9-1.5,2c0,0,0,0,0,0.1
				c-0.7,1.2-1.6,2.2-2.1,1.7c-0.4-0.5,0.2-0.9,0.6-1.4c-0.2,0.1-0.5,0.1-1.1,0.3c-1.3,0.4-0.8,1.4-0.1,2.9c0.7,1.4,3.6,0.2,5.3-0.3
				c1.3-0.3,1.2-1.3,1.3-2.3c0.1-0.4,0.1-0.8,0.4-1.3c0.1-0.3,0.2-0.5,0.2-0.6C264.7,140.4,264.7,140.3,264.7,140.2z"/>
			<path class="st22" d="M265.1,118.8c0-0.2-0.1-0.3-0.1-0.5s-0.1-0.4-0.1-0.7c0-0.1-0.1-0.2-0.1-0.4c-0.1-0.3-0.3-1.7-0.3-1.7
				c-0.8-5.8,0-12.4,0.8-16.1c0-0.1,0-0.1,0-0.2c0.3-1.3,0.5-2.8,0.5-4.4c0-0.3,0-0.6,0-0.9l0,0c0-2.1-0.4-3.6-0.9-4.8
				c-0.2-0.5-0.4-0.9-0.6-1.3s-0.4-0.9-0.6-1.3c0,0.1-0.1,0.1-0.2,0.2c-0.3-0.3-0.7-0.6-1.1-0.7c-0.2-0.9-0.4-1.5-0.6-1.6
				c-2.2-2.5-2.7-0.8-4.2,0.5c-1.4,3.1-3,8.5-3.3,10.2c-0.6,3,5.8,29.9,6.2,35.5c0.1,1.5,0.2,2.6,0.2,3.4c0.6,0.7,2.3,1.1,3.1,0.5
				c0-0.5,2-9.8,1.3-15.2C265.1,119.2,265.1,119,265.1,118.8z"/>
			<path class="st17" d="M260.6,130.7c0.4,5.6,0.4,5-0.6,8.4c-1.1,3.4-1,2.6-2.3,3s-0.8,1.4-0.1,2.9c0.7,1.4,3.6,0.2,5.3-0.3
				c1.7-0.5,0.9-2,1.7-3.6c0.1-0.3,0.2-0.5,0.2-0.7c-1-0.1-2.7,0.4-3.1,0.6c-0.6,0.3,0.3-2.2,0.4-2.8c0.1-0.5-0.3-15.1-0.5-19.8
				c-0.2-4.6-2.6-14.6-1.7-16.7c2.7-6.7,0.4-8.7-3.3-14.2c-0.8,2.7-2,6.5-2.2,7.6C253.8,98.1,260.2,125.1,260.6,130.7z"/>
			<path class="st19" d="M260.8,142c-1,1.5-2.1,3.7-3,2.7c-0.4-0.4-0.7-0.8-1-1.1c0.1,0.4,0.4,0.9,0.6,1.5c0.7,1.4,3.6,0.2,5.3-0.3
				c1.7-0.5,0.9-2,1.7-3.6c0.1-0.2,0.1-0.3,0.2-0.4C263.3,140.7,261.5,141,260.8,142z"/>
			<path class="st21" d="M260.8,142c-1,1.5-2.1,3.7-3,2.7c-0.4-0.4-0.7-0.8-1-1.1c0.1,0.4,0.4,0.9,0.6,1.5c0.7,1.4,3.6,0.2,5.3-0.3
				c1.7-0.5,0.9-2,1.7-3.6c0.1-0.2,0.1-0.3,0.2-0.4C263.3,140.7,261.5,141,260.8,142z"/>
			<path class="st22" d="M251.1,137.7c0.1,1.5,0,3-0.6,4.7c-1.2,3.6-2.2,6-3.4,6.1c-1.1,0.1-3.2,1.4-1.7,2.5s2.5,1.2,4.4,0.1
				c1.9-1,2.4-4,4.9-4.3c1.4-0.2,2-1.1,1.4-2.4c-0.5-1.3-1.3-2.3-1.2-5.8v-0.1C254.2,139.4,251.7,138.6,251.1,137.7z"/>
			<path class="st32" d="M258,102.4c0.6-1.2,4.9-6.7,1.9-13c-3.6-7.5-6.4-7.9-8.9-3.4c-1.7,3.1-3,6.3-3.2,13
				c-0.2,7.5,3.2,37.1,3.3,38.7c0.7,0.9,3.1,1.7,3.9,0.9v-0.1v0.1c0.9-4.4,2.1-12.1,1.2-18.5c0.1-1.2,0.1-2.3,0.1-3.2
				C256.4,114.5,257.6,103.1,258,102.4z"/>
			<path class="st33" d="M256.3,145.4c0-0.7-0.4-1.7-0.7-2.2c-2.1-0.1-4.3,2.5-5.4,4.3l-0.3,0.4l0,0c-0.1,0.1-0.2,0.3-0.3,0.4
				c-0.8,1.3-1.6,2.3-2.9,1.6c-1.1-0.6-0.5-0.9,0.3-1.3c0,0,0,0-0.1,0c-1.1,0.1-3.2,1.4-1.7,2.5s2.5,1.2,4.4,0.1
				c1.9-1,2.4-4,4.9-4.3C255.7,146.8,256.3,146.2,256.3,145.4L256.3,145.4z"/>
			<path class="st17" d="M251,86c-1.7,3.1-3,6.3-3.2,13c-0.2,7.5,3.2,37.1,3.3,38.7c0.1,1.5,0,3-0.6,4.7c-1.2,3.6-2.2,6-3.4,6.1
				c-1.1,0.1-3.2,1.4-1.7,2.5s2.5,1.2,4.4,0.1c1.9-1,2.4-4,4.9-4.3c0.9-0.1,1.5-0.6,1.6-1.3l0,0c-0.5-0.2-1.8,0.5-2.7,0.8
				c-1.2,0.4-0.7-2-1-5.1s0.4-16.5-0.8-38.8c-0.4-8,2.1-10,2.1-12.1s0.3-4.6,0.6-7.1c-0.3-0.1-0.5-0.1-0.8,0l0,0
				C252.8,83.4,251.9,84.4,251,86z"/>
			<g>
				<path class="st19" d="M257.8,114c5.3-1,9.1-3.8,9.7-5.7c0-21.4-4.6-19.9-4.6-25.2c0-7.7-7.2-3.5-10.4,1.5
					c-2,3.1-6.4,6.8-6.4,26.1C247.2,112.9,252.4,115,257.8,114z"/>
				<path class="st17" d="M253,98.2c-0.1-5.9,0.7-8.9,2.1-11c0.9-1.4,0.7-4-0.2-5.6c-0.9,0.9-1.8,1.9-2.5,3c-2,3.1-6.4,6.7-6.4,26.1
					c0.8,1.6,4,3.2,7.8,3.5v-3.5C254,107.1,253,100.6,253,98.2z"/>
			</g>
			<path class="st19" d="M251.1,148.4c-1.6,2-2.3,4.2-4.7,2.8c-0.6-0.4-1.1-0.7-1.5-1.1c-0.1,0.3,0.1,0.7,0.5,1
				c1.5,1.1,2.5,1.2,4.4,0.1c1.9-1,2.4-4,4.9-4.3c0.9-0.1,1.4-0.6,1.6-1.2C254.9,146.2,252.4,146.6,251.1,148.4z"/>
			<path class="st21" d="M251.1,148.4c-1.6,2-2.3,4.2-4.7,2.8c-0.6-0.4-1.1-0.7-1.5-1.1c-0.1,0.3,0.1,0.7,0.5,1
				c1.5,1.1,2.5,1.2,4.4,0.1c1.9-1,2.4-4,4.9-4.3c0.9-0.1,1.4-0.6,1.6-1.2C254.9,146.2,252.4,146.6,251.1,148.4z"/>
			<path class="st19" d="M254.9,146.5c-0.8,0.4-1.2,0-0.9,0.9c0.3,1-0.2,4.8,0,5s0.4,0.2,0.6,0c0.2-0.2,0.3-4.4,0.9-5.4
				C256.3,146.2,255.7,146.2,254.9,146.5z"/>
			<path class="st19" d="M263,141.4c-0.8,0.4-1.2,0-0.9,0.9c0.3,1-0.2,4.8,0,5s0.4,0.2,0.6,0s0.3-4.4,0.9-5.4
				C264.4,141,263.8,141,263,141.4z"/>
			<path class="st18" d="M262,61.9c-2.9,0.1-5.1,0.6-7.2,1.5c-1.3,0.6-3.1,1.5-4.4,2.5c0,0,0,0-0.1,0c0,0-0.1,0-0.1,0.1
				c-0.2,0.2-0.4,0.3-0.6,0.5c-0.4,0.2-0.9,0.5-2.2,0.7c-1.1,0.2-0.5,0.9,0.5,1.3c-0.6,2.8-2.5,3.7-1.7,6.1c0.7,2.1,2.3,1.9,2.7,4.4
				s0.2,9.8,0.5,10.2c0.3,0.3,4.9,2.1,9.2,0.3c0.1,0,0.1-0.1,0.2-0.1c2.7-1.1,4.2-2,4.8-2.9c-0.3-0.8-0.5-1.6-0.5-2.5
				c0-3.4,0.4-3.9,1.1-7.2c0-0.1,0.1-0.2,0.1-0.3c0.1-0.2,0.1-0.3,0.2-0.5c0.2-0.6,0.5-1.1,0.8-1.6c1.9-3.5,2.2-6.7,2.2-9.7
				C267.5,62.1,263.2,61.9,262,61.9z"/>
			<path class="st18" d="M241.9,72.8c2.2-0.1,6.8,0.6,7.1,6.3c0.3,5.7,6.2,1.9,4.7-3c-1.4-4.9-0.9-7.2-4.7-6.9
				c-3.8,0.3-9.1,0-9.9,1.4C238.2,71.9,240.2,72.8,241.9,72.8z"/>
			<path class="st18" d="M243.5,67.9c3.2-0.6,5.6-1.5,10.3-3.9c4.6-2.4,6.6,2,5.2,3.9s-10.6,3.2-13.4,2.6
				C242.7,69.9,238.2,68.9,243.5,67.9z"/>
			<path class="st23" d="M267.4,64.2c-0.4-1.4-2-1.9-3.4-2.2l0,0c-0.1,0-0.3,0-0.4-0.1l0,0c-0.1,0-0.2,0-0.4,0c0,0,0,0-0.1,0
				s-0.2,0-0.3,0h-0.1c-0.1,0-0.2,0-0.2,0c-0.1,0-0.1,0-0.1,0c-0.1,0-0.1,0-0.2,0s-0.2,0-0.3,0c-2.9,0.1-5.1,0.6-7.2,1.5
				c-0.3,0.1-0.6,0.3-0.8,0.4c-0.2,0.1-0.3,0.2-0.6,0.3c-0.2,0.1-0.4,0.2-0.6,0.3c-0.7,0.4-1.4,0.7-2,1c-2.1,1.2-2.7,2.2-4.6,3.1
				c0.9,0,1.5,0,1.7,0.1c-0.1,0.3-0.1,0.5-0.2,0.7c-3.6,0.2-7.9,0.1-8.7,1.3c-0.9,1.3,1.1,2.2,2.9,2.1c1.1,0,2.7,0.1,4.1,0.9
				c0,0.1,0,0.2,0,0.3V74c0,0.2,0.1,0.4,0.1,0.5c0.7,2.1,2.3,1.9,2.7,4.4c0,0.4,0.1,0.8,0.1,1.2c0.2,3.1,0.1,8.7,0.4,9l0.1,0.1
				c0,0,0,0,0.1,0s0.1,0.1,0.2,0.1h0.1c0.1,0,0.2,0.1,0.3,0.1h0.1c0.3,0.1,0.7,0.2,1.1,0.3l0,0c0.2,0,0.4,0.1,0.7,0.1h0.1
				c0.2,0,0.4,0.1,0.7,0.1h0.1c0.3,0,0.5,0.1,0.8,0.1l0,0l0,0c0-2.7-1.2-2.7-1.2-6.6c0-2.7,0.7-5.9,0.7-7.8c0-2.8-0.7-3.8-1.8-6.2
				c-0.1-0.2-0.2-0.4-0.3-0.6l0,0c-0.4-0.9-0.5-1.5,0-1.9c0,0,0,0,0.1,0s0.1-0.1,0.2-0.1c0.2-0.1,0.3-0.2,0.5-0.3h0.1
				c0.2-0.1,0.4-0.2,0.6-0.3c1-0.6,2.1-1.1,2.9-1.6c2-1,4.3-1.4,7.2-1.5C263.8,63.2,266.1,63.3,267.4,64.2L267.4,64.2z"/>
			<path class="st19" d="M263.3,48.2c-0.3-0.4-0.6-0.7-0.9-1.1l-0.1-0.1l-0.1-0.1l-0.1-0.1l0,0c-1.1-0.8-2.6-1.4-4.2-1.4
				c-3.5,0-6.3,2.3-6.3,5.2c0,0.6,0.1,1.2,0.4,1.8l0,0c0.9,2.8,1.3,2.1,1.7,4.8c0.8,6.4-2.5,5.5-2.9,8.5c0.9-0.6,1.9-1.2,2.8-1.7
				l0,0c1.3-0.6,1.8,0.1,4.4-0.5s4.3-1.2,6.2-5.6C265.3,55.3,265.3,50.9,263.3,48.2z"/>
			<path class="st17" d="M251.5,50.6c0,0.6,0.1,1.2,0.4,1.8l0,0c0.9,2.8,1.3,2.1,1.7,4.8c0.8,6.4-2.5,5.5-2.9,8.5
				c0.9-0.6,1.9-1.2,2.8-1.7l0,0c1.3-0.6,1.8,0.1,4.4-0.5c2.6-0.6,4.3-1.2,6.2-5.6c0-0.1,0.1-0.2,0.1-0.3c-2,3.4-7.2,4.7-6.8,1.4
				c0.7-5.9-1.8-7.9-2.4-10.3c-0.6-2.2,3.2-2.9,5.2-3c-0.7-0.3-1.6-0.4-2.4-0.4C254.3,45.4,251.5,47.7,251.5,50.6z"/>
			<g>
				<path class="st22" d="M228.1,67c-0.4-0.3-2.3-2.2-3.1-2.3c-0.8-0.1-1.3-0.2-1.7-0.8c-0.4-0.6-0.4-0.4-0.6-0.4
					c-0.1,0-0.5,0.1-0.7,0.1s-0.5-0.3-0.7-0.6s-0.2-0.6-0.4-0.8s0.1-0.6,0-0.8s-0.2-0.4,0.4-0.9c0.6-0.4,0.7-0.5,0.7-0.5
					s-0.3-0.4-0.5-0.6c-0.3-0.3-0.5-0.5-0.9-0.8c-0.4-0.2-0.9-0.8-0.6-1c0.3-0.2,1.1,0.2,1.6,0.6c0.6,0.4,1.4,0.9,1.8,1
					c0.4,0.2,0.9,0.5,1.6,1.1c0.7,0.7,1.7,1.7,2.8,2.6c1.3,1,1.7,1.8,1.2,2.5C228.5,66.1,228.8,67.6,228.1,67z"/>
				<path class="st21" d="M225,64.7c-0.8-0.1-1.3-0.2-1.7-0.8c-0.4-0.6-0.4-0.4-0.6-0.4c-0.1,0-0.5,0.1-0.7,0.1s-0.5-0.3-0.7-0.6
					s-0.2-0.6-0.4-0.8s0.1-0.6,0-0.8s-0.2-0.4,0.4-0.9c0.6-0.4,0.7-0.5,0.7-0.5s-0.3-0.4-0.5-0.6c-0.3-0.3-0.5-0.5-0.9-0.8
					c-0.1,0-0.2-0.1-0.2-0.2l0,0c-0.1-0.1-0.2-0.1-0.2-0.2l0,0c-0.1-0.2-0.2-0.3-0.2-0.5l0,0c1,0.7,2.8,2.2,2.5,2.5
					s-0.6,0.8-0.5,1.4c0.1,0.6,0.7,0.8,1.3,1.1s1.4,0.1,5.4,2.9c-0.2,0.2-0.4,1.1-0.4,1.5c0,0-0.1,0-0.1-0.1
					C227.8,66.7,225.8,64.8,225,64.7z"/>
			</g>
			<path class="st22" d="M236.3,69.2c0.2-0.1,0.4-0.2,0.6-0.2c-0.2,0-0.4-0.1-0.6-0.2l-7.9-5.4l-0.5,3.4l5.6,5.1
				c0.4,0.4,0.9,0.6,1.4,0.9c-0.1-0.2-0.2-0.4-0.2-0.7C234.6,71,235.4,69.7,236.3,69.2z"/>
			<path class="st18" d="M251.2,69c-0.3-1.4-1.6-2.3-3-2l-10.7,2c-0.2,0-0.5,0-0.7,0s-0.4,0.1-0.6,0.2c-0.9,0.5-1.6,1.8-1.6,2.8
				c0,0.3,0.1,0.6,0.2,0.7c0.8,0.4,1.7,0.5,2.7,0.4l11.3-1C250.4,72,251.5,70.6,251.2,69z"/>
			<path class="st21" d="M233.7,69.5c0.8,0.6,1.5,0.4,1.7,0.4l0,0c-0.2,0.3-0.5,0.6-0.6,1c0,0,0,0,0,0.1c-0.1,0.1-0.1,0.3-0.1,0.4
				v0.1c0,0.2-0.1,0.3-0.1,0.5c0,0.3,0.1,0.6,0.2,0.7c-0.5-0.2-1-0.5-1.4-0.9l-5.6-5.1l0.2-1.5C228.4,65.4,233.7,69.5,233.7,69.5z"
				/>
			<path class="st23" d="M248.6,67c-1.3,1-11.4,3.4-13.1,2.9c-0.5,0.6-0.8,1.4-0.8,2.1c0,0.3,0.1,0.6,0.2,0.7
				c0.8,0.4,1.7,0.5,2.7,0.4l11.3-1c1.6-0.1,2.7-1.6,2.4-3.2C251,67.7,249.8,66.9,248.6,67z"/>
		</g>
	</g>
</g>
</svg>
