<?xml version="1.0" encoding="utf-8"?>
<!-- Generator: Adobe Illustrator 24.2.0, SVG Export Plug-In . SVG Version: 6.00 Build 0)  -->
<svg version="1.1" id="Layer_1" xmlns="http://www.w3.org/2000/svg" xmlns:xlink="http://www.w3.org/1999/xlink" x="0px" y="0px"
	 viewBox="0 0 320 306.2" style="enable-background:new 0 0 320 306.2;" xml:space="preserve">
<style type="text/css">
	.st0{fill:#8D1E5A;}
	.st1{fill:#5E0E3E;}
	.st2{fill:#4A1425;}
	.st3{fill:#C31C6F;}
	.st4{fill:#671140;}
	.st5{fill:#9C2063;}
	.st6{fill:#791646;}
	.st7{fill:#A32167;}
	.st8{fill:#4C112E;}
	.st9{fill:#AF1F63;}
	.st10{fill:#ED3487;}
	.st11{fill:#EC5F2D;}
	.st12{fill:#F397BB;}
	.st13{fill:#D41674;}
	.st14{fill:#E66E9F;}
	.st15{fill:#88442E;}
	.st16{opacity:0.1;}
	.st17{fill:#094F72;}
	.st18{fill:#0D2F4C;}
	.st19{opacity:0.5;}
	.st20{opacity:0.5526;fill:#FFFFFF;}
	.st21{opacity:0.8333;}
	.st22{opacity:0.6271;fill:#FAFDFF;}
	.st23{opacity:0.6667;}
	.st24{opacity:0.7017;fill:#F6FAFF;}
	.st25{opacity:0.7763;fill:#F1F8FF;}
	.st26{opacity:0.3333;}
	.st27{opacity:0.8509;fill:#ECF6FE;}
	.st28{opacity:0.1667;}
	.st29{opacity:0.9254;fill:#E8F3FE;}
	.st30{opacity:0;}
	.st31{fill:#E3F1FE;}
	.st32{opacity:0.8;}
	.st33{opacity:0;fill:#B839E3;}
	.st34{opacity:0.1167;fill:#C45AE8;}
	.st35{opacity:0.2333;fill:#D07BEC;}
	.st36{opacity:0.35;fill:#DC9CF1;}
	.st37{opacity:0.4667;fill:#E7BDF6;}
	.st38{opacity:0.5833;fill:#F3DEFA;}
	.st39{opacity:0.7;fill:#FFFFFF;}
	.st40{fill:#E6F5FF;}
	.st41{fill:#79AA2D;}
	.st42{fill:#8BC63E;}
	.st43{fill:#AAE252;}
	.st44{fill:#E8BB2E;}
	.st45{fill:#FFD646;}
	.st46{fill:#FFE180;}
	.st47{enable-background:new    ;}
	.st48{clip-path:url(#SVGID_2_);enable-background:new    ;}
	.st49{fill:#858E94;}
	.st50{fill:#81898F;}
	.st51{fill:#7C848A;}
	.st52{fill:#787F85;}
	.st53{fill:#7B8388;}
	.st54{clip-path:url(#SVGID_4_);enable-background:new    ;}
	.st55{clip-path:url(#SVGID_6_);enable-background:new    ;}
	.st56{clip-path:url(#SVGID_8_);enable-background:new    ;}
	.st57{fill:#357280;}
	.st58{fill:#336E7C;}
	.st59{fill:#899298;}
	.st60{clip-path:url(#SVGID_10_);enable-background:new    ;}
	.st61{clip-path:url(#SVGID_12_);enable-background:new    ;}
	.st62{fill:#2F6673;}
	.st63{fill:#367584;}
	.st64{fill:#316976;}
	.st65{fill:#57BCD3;}
	.st66{clip-path:url(#SVGID_14_);enable-background:new    ;}
	.st67{fill:#316A77;}
	.st68{fill:#CCF2E8;}
	.st69{fill:#ABD9CE;}
	.st70{fill:#FFAA83;}
	.st71{fill:#FFE9FE;}
	.st72{fill:#E3B1E5;}
	.st73{fill:#3213B7;}
	.st74{fill:#471BCE;}
	.st75{fill:#F79F7C;}
	.st76{fill:#341C09;}
	.st77{fill:#F4D3F4;}
</style>
<g>
	<path class="st0" d="M305.1,135.6l-3.6-1.1c-9.8-2.4-21-2.5-31.3-2.9c-22.9-1.1-44.8,2.3-65.2,11c-21.4,9.1-45.6,26-53.5,46.9
		c-5.5,14.7-9.6,31.8-6.9,47.3c2.8,16.5,12.7,32.8,12.5,49.5c10.4-2,18.5-13.1,29.4-16.3c0,0,8.3,4.9,19.2-3.4
		c14.6-11.1,29.3-24,46.6-28.3c19.2-4.7,26.9-22.6,37.1-28.1c8.3-17-2.3-20.6,5.7-33.3C305.1,161,299.6,149.2,305.1,135.6z"/>
	<path class="st1" d="M205.5,266.6c5.1-3.9,10.2-8,15.4-11.8c0.4-6.3,1.6-12.6,2.7-18.9c1.3-7.4,3.1-16.2-0.3-23.3
		c-1.5-3.1-10.5-9.1-10.5-9.1c-3,7.8-3.3,23.4-5.6,31.4c-2.2,7.7-4.2,15.4-5.6,23.2c-0.5,2.8-1,5.7-1.2,8.5
		c-0.1,1.7,0.1,2.4,0.1,2.4c0.1,0.1,0.2,0.3,0.3,0.4C202.4,268.7,203.9,267.8,205.5,266.6z"/>
	<path class="st2" d="M213.4,210.4c-0.1,18.6-0.7,39.8-6.5,55.1c3.6-2.8,7.2-5.6,10.8-8.4c0.8-5.3,1.8-10.6,2.7-16
		C221.9,232.7,215.4,217.7,213.4,210.4z"/>
	<path class="st1" d="M272.2,199.5c-2.5,9.9-2.8,20.1-3.7,30.3c8.5-7.1,14.1-16,20.8-19.5c8.3-17-2.3-20.6,5.7-33.3
		c10.1-16,4.6-27.8,10.1-41.4l-3.6-1.1c-0.3-0.1-0.6-0.1-0.9-0.2c-6.1,3-11.9,6.3-17.7,9.8c4.2,0.1,8,1,12,2.2
		c4.4,1.3,5.4,5.8,3.3,8.5C293.7,171.7,276.4,182.6,272.2,199.5z"/>
	<path class="st2" d="M299.9,166.4c-5.1,7.8-10.9,15.3-16.8,22.8c-3.2,10.6-6.7,21.2-9.7,31.9c5.4-8.3,11.8-15.7,19.1-22.5
		c0.4-8-3.3-12.4,2.4-21.5C297.3,173.3,298.9,169.7,299.9,166.4z"/>
	<path class="st1" d="M155.6,205c-0.4,0-0.8,0-1.2,0c-0.9,19.5-1.2,39.1-1.9,58.6c2.5,7.5,4.5,15.1,4.4,22.7c4.9-1,9.3-3.9,13.7-7.1
		c-0.1-1.2-0.2-2.5-0.3-3.7c-0.4-5.8-0.7-11.8-2.9-17.3c-1.8-4.6-5.1-9.1-6.1-14c-3.3-16.3,3.6-29.5,14.6-41.4
		C169.4,203.7,162.6,204.1,155.6,205z"/>
	<path class="st1" d="M230.5,248.1c3.9-2.5,7.9-4.7,12-6.5c0.3-4.2,0.7-8.3,1.3-12.5c1.5-10.1,5-18.3,8.8-27.8
		c3.4-8.5,1-17.5,4.3-25.9c2.6-6.6,6.1-12.5,8-19c-4.4,2.3-10,3.7-14.6,3.6c-5.6-0.1-11.3-0.8-16.7,0.9c0.3-0.1-15.8,3.3-11.8,4.9
		c1,0.1,5.4,1.2,6.3,1.5c0.5,0.2,13-0.2,13-0.2c-9.1,19-7.2,47-8.9,67.2C231.7,239.1,231.2,243.6,230.5,248.1z"/>
	<path class="st2" d="M230.5,248.1c1-0.6,2-1.2,3-1.8c0.5-8.1,1.8-16.1,2.8-24.2c1.1-8.7,1.5-17.5,3.5-26.1
		c3.4-14.8,7.3-25.2,20.7-35.1c1.1-0.8,2.2-1.2,3.4-1.3c0.4-1,0.7-2,1-3.1c-4.4,2.3-10,3.7-14.6,3.6c-5.6-0.1-11.3-0.8-16.7,0.9
		c0.3-0.1-15.8,3.3-11.8,4.9c1,0.1,5.4,1.2,6.3,1.5c0.5,0.2,13-0.2,13-0.2c-9.1,19-7.2,47-8.9,67.2
		C231.7,239.1,231.2,243.6,230.5,248.1z"/>
	<path class="st1" d="M193.7,223.5c4.5-10.8,2.9-21.6,11.2-32.3c1.9-2.5,14.8-16,15.3-18.8c-9.4,3.2-36.7,19.7-41.8,27.6
		c1.1,8.6,2.2,17.3,2.1,26.1c-0.1,8.8-1.3,17.4,0,26.2c1,6.5,2.3,12.9,3.4,19.4c0.9-0.4,1.8-0.8,2.8-1.2c-0.7-6.9,1.2-13.6,2.3-20.5
		C190.5,240.8,190.1,232.3,193.7,223.5z"/>
	<path class="st2" d="M202.9,183.9c0.1-0.4,0.1-0.8,0.2-1.3c-9.5,3-19,9.1-24.3,16.9c1,8.7,1.9,17.4,1.6,26.1
		c-0.2,8.8-1.6,17.4-0.5,26.2c0.8,6.5,2.1,12.9,3,19.4c0.8-0.4,1.6-0.7,2.5-1c-0.7-16.2-1-32.5-0.3-48.7
		C185.7,206.1,194,196.5,202.9,183.9z"/>
	<path class="st3" d="M154.5,190.7c-7.9-19-40.3-36-60.1-44.2c-19.9-8.2-46.8-8.1-68.3-9.1c-5.8-0.3-10.5-0.5-15.6-2
		c0,15.2,0.6,31.4,8.7,44.4c3.3,5.4,6.9,25.6,13.9,37.2c4.7,7.8,9.5,6,17,8.7c11.8,4.2,17.6,18.8,37.5,28.4
		c7.1,3.4,11.6,12.2,26.3,16.5c8.5,2.5,18.8,0.8,18.8,0.8c8.6,3,8.9,10.1,24.3,14.7c0.5-15.1-1-30.7-1-46.8
		C155.9,225,160.1,204.1,154.5,190.7z"/>
	<path class="st4" d="M74.9,246.3c3.5,2.8,7.6,5.5,12.6,8c4.3,2.1,7.6,6.1,12.8,9.9c-3.8-8.2-7.3-16.4-9.7-24.9
		c-3.1-11.1-4.2-22.9-7.7-33.9c0,0.1,0,0.2-0.1,0.3c1.8,5.6,2.6,12.5,1.8,19.3C84.7,234.3,82.5,243,74.9,246.3z"/>
	<path class="st5" d="M155.5,207.1c-2.6-1.8-6.7-4.5-10.1-5.3c0,0.2,0.1,0.5,0.1,0.8c0.1,0.4,0.3,0.8,0.4,1.1
		c0.5,0.3,0.9,0.7,1.3,1.2c10,12.3,6,27.2,6.5,41.3c0.5,12.1,2.3,24.2,3.2,36.2c0.2-13.9-1.1-28.2-1.1-43c0-9.2,1.6-20.8,1.5-31.6
		C156.8,207.8,156.1,207.5,155.5,207.1z"/>
	<path class="st5" d="M144.2,280c-1-10-2.3-20.1-2.8-30.2c-0.2-4.6,0.3-9.6,0.5-14.7c-2.9-8.4-6-16.7-7.2-25.4
		c-2.5-6.1-4.6-13,0.3-16.4c1.3-0.9,2.7-1.5,4.1-2c-0.9-0.5-1.8-0.9-2.9-1.2c-3.7,1.9-7.7,3.1-11.9,3.8c7.2,17.6,10.4,36,10,54.5
		c0.1,0.2,0.2,0.3,0.2,0.5c1.1,3.2,0.3,6.9-0.5,10.1c0.1,0.3,0.1,0.6,0.1,0.9c0,4.1-0.2,8.1-0.8,11.9
		C138,273.7,140.2,276.8,144.2,280z"/>
	<path class="st5" d="M12.4,136c-0.7-0.1-1.3-0.3-2-0.5c0,15.2,0.6,31.4,8.7,44.4c3.3,5.4,6.9,25.6,13.9,37.2
		c2.7,4.5,5.5,5.8,8.8,6.6c-7.1-12.9-19.9-32.5-12.1-45.5c-4.5-2.8-11.2-9.8-11.2-9.8c0,1.2-3.2-7.6-3.8-17.1
		c-0.2-4.3-0.2-8.7,0.4-13C14.1,137.6,13.2,136.8,12.4,136z"/>
	<path class="st5" d="M64,236.4c0.3-6.8,0.9-13.5,0.9-20.3c0.1-15.4-7.6-30.4-1.1-45.4c-1.5-1.2-2.6-2.5-3.7-3.8
		c-3.8-1.9-7.2-4.5-11.1-6c-0.1,2.2-0.3,4.3-0.6,6.4c0,0.2,0.1,0.5,0.1,0.7c3.5,8.6,5.2,17.5,6.9,26.6c0.2,0.4,0.4,0.9,0.5,1.4
		c0.5,2.2,0.9,4.3,1.3,6.5c0.5,0.7,0.9,1.6,0.9,2.7c0.6,9,1.7,17.8,1,26.7C60.8,233.2,62.4,234.7,64,236.4z"/>
	<path class="st6" d="M56.1,150.2c-5.5-0.8-19.1-2.3-20.4-2.3c1,8.7,1.9,17.5,4.5,26c2.8,9,8,16.9,11.4,25.6
		c4,10.5,6.1,21.4,7.7,32.3c1,0.9,1.9,1.8,2.9,2.7c-0.5-17.7-1.5-35.4-5.8-52.6c-2.4-9.9-3.6-13.1-4.5-19.4
		C52.9,161.4,57.1,150.4,56.1,150.2z"/>
	<path class="st1" d="M56.1,150.2c-5.5-0.8-36.4-9.3-37.7-9.3c4.1,6.3,14.9,11,18.8,11.9c10,3.1,9.9,8.8,11.7,15.7
		c2.4,9,4.7,18,6.8,27.1c2.7,11.8,5.6,25.1,5.4,37.9c0.4,0.3,0.7,0.6,1.1,1c-0.5-17.7-1.5-35.4-5.8-52.6c-2.4-9.9-3.3-13.4-4.2-19.7
		C53.1,161.1,57.1,150.4,56.1,150.2z"/>
	<path class="st6" d="M148.7,186c-10.2,0.3-41.7-3.9-39.3,1.7c7.1,9.1,14.5,22.5,19.3,48.1c2.2,12,2.4,23.7,3.9,35.8
		c0.6,0.2,2.2,1,2.7,1.2c0.7-6.4,1.7-12.8,2.3-19.4c1.7-18.3-5.2-38.8-7.1-57C130.6,196.5,145.4,189.7,148.7,186z"/>
	<path class="st1" d="M148.7,186c-10.2,0.3-58.5-16.4-68.1-13.4l11.7,7.3c10.4,3.5,27,16.2,26.9,16.6c2.4,1.3,11.2,19.4,12.9,26.9
		c3.5,15.5,5.1,33,1.8,48.7c0.5,0.2,0.9,0.4,1.4,0.7c0.7-6.4,1.7-12.8,2.3-19.4c1.7-18.3-5.2-38.8-7.1-57
		C130.6,196.5,145.4,189.7,148.7,186z"/>
	<path class="st7" d="M245.9,188.3c-0.8,5.8,2.4,35.2,0.6,40.7c6.2-0.2,4.7-1.5,10.9-2c5-0.4,16.2-23.2,21.1-24.8
		c4.9-1.6,14.6-6.8,17.6-10.7c2.9-3.8,2.7-6.9,5-11c2.3-4.2,4.7-4.1,7.9-7.8c3.3-3.8-3.2-17.1-3.2-17.1l-24.6,7.8
		c-2.6,1-5.3,1.8-8,2.7c-1.4,0.5-2.9,1-4.3,1.5c-5.7,2.1-11.5,4.1-17.5,5.7c-0.2,0.1-0.4,0.1-0.5,0.1c-0.5,0.2-0.9,0.2-1.3,0.1
		l-0.5,0.2c0,0,0.2,5.9-0.1,7.4C248.4,183.6,246.3,185.5,245.9,188.3z"/>
	<path class="st3" d="M258.5,213.4c-1.4,4.6-2.6,9.2-3.3,13.9c0.6-0.1,1.3-0.2,2.2-0.3c0.6,0,1.2-0.4,1.9-0.9
		c2.3-8.7,7-16.5,11.8-24.6c3.5-6,6.3-12.1,8.8-18.5c1.1-2.9,3.1-4.5-2.6-4.9c-3-0.2-6-0.4-9-0.5c4,4.6,7.5,8.1,3.9,14.7
		C268.2,199.4,260.9,205.6,258.5,213.4z"/>
	<path class="st6" d="M257.9,226.9c5.2-1.7,15.9-23.1,20.6-24.7c4.9-1.6,14.6-6.8,17.6-10.7c2.9-3.8,2.7-6.9,5-11
		c2.3-4.2,4.7-4.1,7.9-7.8c3.3-3.8-3.2-17.1-3.2-17.1c0-0.7-16.1,5.1-28.6,14c-2.6,2.6-0.3,9.4-0.3,10.1c0.5,8.5-1.3,13-8.6,22.4
		C262.4,209.6,259.5,218,257.9,226.9z"/>
	<path class="st1" d="M257.9,226.9c2.3-0.8,5.7-5.4,9.2-10.5c-2.6-8.7,4.7-16.9,10.9-24.1c1.9-5.5,3.5-11.1,6.5-16.2
		c-0.1,0-0.2-0.1-0.2-0.2c-0.6-0.4-1.2-0.8-1.9-1.2c-1.9-0.5-4.2,0.3-6.3,0.7c0.3,2,0.8,3.8,0.8,4.1c0.5,8.5-1.3,13-8.6,22.4
		C262.4,209.6,259.5,218,257.9,226.9z"/>
	<path class="st6" d="M231.1,254.3c3.3-2.1,5-15.2,7.6-24.5c2.2-8.2,15.6-19.7,15.9-28.1l-0.5,0.4c-6.3-4.6-13.3,0.5-18.8,2.3
		c-7.4,2.5-15.4,0.3-22.4-0.9c-0.5,4.9,0.9,12,1.5,17.3c0.6,5.9,3.2,30.7,3.4,36.4C222.7,258.7,226.4,257.3,231.1,254.3z"/>
	<path class="st1" d="M232.1,222.5c3.8-8.4,14.5-11.1,21.6-17c0.5-1.2,0.8-2.3,0.9-3.4c-6.3,4.9-14.8,8.3-23,9.1
		c0,0.2,0,0.4-0.1,0.6c-5,14.9-6.2,30.2-6.6,45.6c1.5-0.4,3.1-1.1,4.7-2.1c0-6.8,0.5-13.5,0.9-20.3
		C230.7,231.1,230.4,226.2,232.1,222.5z"/>
	<path class="st7" d="M226.4,256.8c0.1-17.6,3.2-37.4,9.8-54.1c-7,1.8-16.8,1.9-23.3,0.8c-0.5,4.9,0.9,12,1.5,17.3
		c0.6,5.9,3.2,30.7,3.4,36.4C221,258.2,223.7,257.9,226.4,256.8z"/>
	<path class="st3" d="M224.6,257.4c0.6-0.2,1.2-0.4,1.9-0.6c0.1-14.2,2.2-29.9,6.5-44.2c-3.2,0.3-6.5,0-9.2-1c4.7,6,4.3,11.9,3,18.8
		C224.9,239.4,224.8,248.4,224.6,257.4z"/>
	<path class="st4" d="M41.4,193.3c0.6,6.1,5,14.4,7.9,20.2c2.8,5.5,5.6,11.1,8.8,19.4c0.7,0,2.2,0.6,2.9,0.6
		c-0.1-7.2,0.2-13.1-1.2-20.2c-3-15.3-4.7-20.9-6.8-28.5C49.5,186.9,45.5,191.9,41.4,193.3z"/>
	<path class="st8" d="M53.4,185.8c-0.1-0.3-0.2-0.7-0.3-1c-3.7,2.1-7.6,7.1-11.7,8.6c0.6,6.1,5,14.4,7.9,20.2
		c2.8,5.5,5.6,11.1,8.8,19.4c0.2,0,0.4,0,0.7,0.1c-2.3-8.4-4.3-16.8-7-25.2c-1-3.2-2.8-7.3-1.9-10.7C51,193.3,53.1,189.8,53.4,185.8
		z"/>
	<path class="st6" d="M25.4,188.4c6.1,7.3,13.3,14.3,17.2,22.5c3.2,6.7,7.2,19.9,15.6,22c-3.2-11.4-9.7-26.5-12.3-34.9
		C44.4,193.5,35.1,179.8,25.4,188.4z"/>
	<path class="st9" d="M25.4,188.4c0.1,0.2,0.3,0.3,0.4,0.5c0.4,0,0.8,0,1.2,0.2c13.2,5,18.3,11.5,22.2,23.3c2,6,4.7,11.5,7.8,17.2
		c0.2,0.4,0.4,0.8,0.6,1.3c-3.4-11.1-9.2-24.8-11.7-32.8C44.4,193.5,35.1,179.8,25.4,188.4z"/>
	<path class="st6" d="M144.9,268.9c-0.4-11.3,4.8-24.4,7.5-34.9c-6.7,0.2-7.8-7.2-9.8-12c-1.9-4.6-3.2-10.6-4.9-14.6l-0.8-0.3
		c2,5.3,2.1,11.6,3.9,17.2c0.8,2.4,1.5,4.9,2.6,7.2c0.4,0.8,0.8,1.9,1.5,2.6c0.8,0.8,2.6,0.9,3,1.7c0.7,1.3-1.2,4.9-1.7,6.4
		c-0.9,2.9-1.4,4.9-1.4,8c0,3.4,0.2,6.9,0,10.3C144.8,263.1,143.7,266.5,144.9,268.9z"/>
	<path class="st4" d="M79.5,187.7c-0.5-2.2-1.1-13-1.8-15.1c-2-1.1-5.7-0.9-7.9-1.6c-1.4-0.4-6.4-1-5.7-0.3l-0.4-0.3
		c0.8,2.1,0,15.4,0,17.6c1.6-0.3,4.4-8.5,6.1-8.4c0.2,4.1,0.9,8.1-0.4,11.6c4.8,2.5,3,6.2,2.6,10.3c-0.5,4.7,3.2,2,2.8,6.7
		c-0.3,3.9-3.9,14.9-3.3,18.8c0,0,3.4,7.9,3.3,10.3c0,0.3,0.1,0.1,0.4-0.5c-3.1-10.3,0.6-20.4,4.1-30.4c-0.1-2-0.1-4,0-6.1
		c0.1-1.4,0.1-2.9,0.2-4.3C78.5,190.9,79.7,192.9,79.5,187.7z"/>
	<path class="st10" d="M252.3,108c-16.2-15.3-37.7-15.6-51-25.8c-6.6-5.1-36.4-17.8-44.3-22.4c-18.1,9.5-31.4,9.4-39.2,18.6
		c-7.8,9.1-23.4,10.2-34.3,15.7c0.6,1.3,2,4.4,2.7,5.8c-13.8-2.1-31,10.7-44.3,18.5C30.2,125.2,10,135,10,135
		c15.2,14.5,28.3,17.1,43.7,19.1c1.1,2.5-3,6.5-0.9,10.6c6.5,12.8,55.1,18.4,66.6,29.9c2.8,2.8,17.3-3.6,17.3-3.6
		c0,2.3-6.1,5.5-6.1,5.5c14.3,7.2,21.1,14.5,27.2,13.7c6-0.8,22.4-9.4,27.7-12.3c10.4-5.7,13.7-11.6,24.8-15.3
		c13.6-4.5,20.8-4.7,30.7-15.4c-5.6-0.5-10.6-1.6-16.4-1.5c14.1-5.7,30.8-1.7,45-9.1c11.2-5.9,22.6-18.8,35.4-21
		c-4.4-4.1-15.7-11.6-43.8-23.5l-17.6,2.7C245.7,113.4,250.6,109.8,252.3,108z"/>
	<path class="st11" d="M87,179.2c-3.1-0.4-6.1-0.8-9.2-1.3c-0.3,0-0.7,0-1,0c3.9,1.3,8.1,2.5,12.2,3.8c-0.2-0.1-0.4-0.2-0.7-0.3
		C87.4,180.7,87,180,87,179.2z"/>
	<path class="st12" d="M193.5,190.4c-5.2,4.5-28.8,16.4-35.9,17.5c-5.3,0.9-7.2-4.5-21.1-10.7c-3.3-1.4,3.9-7.2,4.4-8.6
		c-5,0.6-9.7,2-14.6,3.7c-2,0.7-6.5,0.6-8-0.6c-11.9-10.3-43.7-16-52.2-19.1c-4.7-1.8-11.6-5.5-12.2-10.2c-0.4-2.8,1.4-5.2,2.3-7.8
		c1.4-3.9-6-3.1-8.2-3.5c-8.2-1.5-29.9-7.7-38-16.1c0,0,0,0,0,0c15.2,14.5,28.3,17.1,43.7,19.1c1.1,2.5-3,6.5-0.9,10.6
		c6.5,12.8,55.1,18.4,66.6,29.9c2.8,2.8,17.3-3.6,17.3-3.6c0,2.3-6.1,5.5-6.1,5.5c14.3,7.2,21.1,14.5,27.2,13.7
		c6-0.8,22.4-9.4,27.7-12.3c10.4-5.7,13.7-11.6,24.8-15.3c13.6-4.5,20.8-4.7,30.7-15.4c-5.6-0.5-10.6-1.6-16.4-1.5
		c14.1-5.7,30.8-1.7,45-9.1c9-4.7,18.1-13.9,27.9-18.5c-7,1.4-13.3,6.9-19.1,10.5c-8.3,5.2-14.9,9.7-25.2,10.9
		c-6.5,0.8-24.3,2.6-27.3,4.2c-2.7,1.5-5.2,2.7-2.1,2.9c7.8,0.6,14.1,2,14.1,2c-13.8,10.7-28.7,10.1-32.8,12.4
		C200.5,183.5,197.3,187.1,193.5,190.4z"/>
	<path class="st2" d="M282.4,196.2c5.1-8.8,10.3-17.5,12.5-27.3c-5,1.1-12.5-0.8-17.7,0c-1.7,1.7,8.2,3.4,9,5.3c0,0-0.6,4.2-0.8,5.6
		C284.4,185.3,283.4,190.8,282.4,196.2z"/>
	<path class="st13" d="M235.8,213c3.9-1.4,16.9-7.1,18.6-10.4c2.3-4.7-15.9-6.6-20.2-5.2c0,0-6,2.9-8.9,4c-3.5,1.3-8.5,2.9-12.4,2.1
		c0.3,0.8,1.1,2.4,2,3.3C219.2,211.2,229.8,215.1,235.8,213z"/>
	<path class="st14" d="M235.8,213c3.4-1.2,13.6-5.6,17.3-8.9c-11.2,7.5-29.8,9.7-38.9-0.4c-0.4,0-0.9-0.1-1.3-0.2
		c0.3,0.8,1.1,2.4,2,3.3C219.2,211.2,229.8,215.1,235.8,213z"/>
	<path class="st10" d="M30,190.2c5.7,1.2,11.1,4.9,15.8,7.9c3.2-3.6,7.3-7.9,7.3-13.2c-4.1-1.5-8.9-3.6-11.4-6.7
		C32.8,181.5,17.3,188.6,30,190.2z"/>
	<path class="st12" d="M43.8,195c-2.7-2.1-9.6-4.8-15.5-5.9c-3-0.6-2.6-1.6-2.8-2c-0.7,1.4,0.4,2.5,4.6,3.1
		c5.7,1.2,11.1,4.9,15.8,7.9c3.1-3.5,7.1-7.7,7.2-12.9c-1.3,3.4-2.2,4.4-4.1,7.4C48.1,193.9,45.1,196.1,43.8,195z"/>
	<path class="st4" d="M108.4,205.3c-2.3,2.1-3.6,3.9-5,6.6c-3.4,6.6-5.1,11.4-3.2,18.9c2.3,9,5.9,17.7,9.3,26.4
		c2.3,6,5.7,17.3,12,21.1c2.5-2,5.7-4.1,7.9-6.4c-4-10.1-6.2-23-7.4-34.1c-1.3-11.3-3.4-23-4.4-34.1
		C114.7,202.6,110.1,203.7,108.4,205.3z"/>
	<path class="st8" d="M117.6,205c0-0.5-0.1-0.9-0.2-1.4c-2.8-1-7.4,0-9.1,1.6c-2.3,2.1-3.6,3.9-5,6.6c-3.4,6.6-5.1,11.4-3.2,18.9
		c2.3,9,5.9,17.7,9.3,26.4c2.3,6,5.7,17.3,12,21.1c2.1-1.7,4.7-3.5,6.8-5.4c-8.1-5.4-8.6-15.4-12.2-24.2c-3-7.3-5.4-14.5-5.3-22.3
		c0.1-7.5,4-13.1,6.3-20.1C117.2,205.8,117.4,205.4,117.6,205z"/>
	<path class="st6" d="M103.2,209.3c-3.6-1.9-9.3-2.8-13.3-5.1c-3.5-2-20-8.4-24.2-8c0.7,10.9,12.3,24.3,17.5,35.8
		c5.6,12.5,10,20.6,14,33.5c1.4,4.5,12.2,3.6,17.2,12.3l7.1,0.5c0,0-1.5-8.5-2.6-11.9c-1.4-4.3-9.2-29.8-11.2-38.1
		C106.3,222.9,108.8,212.3,103.2,209.3z"/>
	<path class="st9" d="M106.3,213.3c-3,0.8-6.2,0.9-9.4,0.8c9.7,7.8,11.9,21.7,14.1,32.6c2.2,10.9,7,20.9,9.8,31.5l0.7,0
		c0,0-1.5-8.5-2.6-11.9c-1.4-4.3-9.2-29.8-11.2-38.1C106.7,224.4,107.7,217.8,106.3,213.3z"/>
	<path class="st10" d="M66.7,193.8c-4.5,3.6,7.2,15.8,13.9,18.7c7,3.1,16.4,3.7,24.1,2.9c7-0.7,13.1-12.2,13.1-12.2
		c-4.1-2.4-13.1-3.4-19.5-7.1c-8.3-4.8-18.6-9.8-18.6-9.8C75.1,190.1,71.1,190.3,66.7,193.8z"/>
	<path class="st12" d="M66.7,193.8c-4.5,3.6,7.2,15.8,13.9,18.7c7,3.1,16.4,3.7,24.1,2.9c5.5-0.5,10.5-7.9,12.4-10.9
		c-9.3,9.9-17.7,11.2-35,5.8c-5.2-1.6-17.1-8.4-14.1-17.4C67.5,193.1,67.1,193.4,66.7,193.8z"/>
	<path class="st15" d="M175.1,192.6c0-0.1,0-0.2,0-0.2l-0.7,0.6C174.6,193,174.9,192.8,175.1,192.6z"/>
</g>
<g>
	<g>
		<g class="st16">
			<path d="M164.2,125.1c18.6,10.8,18.7,28.2,0.2,38.9c-18.5,10.8-48.6,10.8-67.2,0c-18.6-10.7-18.7-28.2-0.2-38.9
				C115.5,114.3,145.6,114.3,164.2,125.1z"/>
		</g>
		<g>
			<path class="st17" d="M175,132c0,0.2,0,0.4,0,0.6c0,0.2,0,0.4-0.1,0.5c0,0.2-0.1,0.4-0.1,0.6c0,0.2-0.1,0.4-0.1,0.6
				c0,0.2-0.1,0.4-0.1,0.6c-0.1,0.2-0.1,0.4-0.2,0.6c-0.1,0.2-0.1,0.4-0.2,0.6c-0.1,0.2-0.1,0.4-0.2,0.5c-0.1,0.2-0.2,0.4-0.3,0.6
				c-0.1,0.2-0.2,0.4-0.2,0.5c-0.1,0.2-0.2,0.4-0.3,0.6c-0.1,0.2-0.2,0.3-0.3,0.5c-0.1,0.2-0.3,0.5-0.5,0.7
				c-0.1,0.1-0.2,0.3-0.3,0.4c-0.2,0.3-0.4,0.5-0.6,0.8c-0.1,0.1-0.2,0.2-0.3,0.4c-0.3,0.4-0.7,0.8-1.1,1.3
				c-0.1,0.1-0.2,0.2-0.3,0.3c-0.3,0.3-0.6,0.6-0.9,0.9c-0.2,0.1-0.3,0.3-0.5,0.4c-0.2,0.2-0.4,0.3-0.6,0.5
				c-0.2,0.2-0.4,0.3-0.6,0.5c-0.2,0.2-0.4,0.3-0.7,0.5c-0.2,0.2-0.4,0.3-0.6,0.5c-0.2,0.2-0.5,0.3-0.7,0.5
				c-0.2,0.1-0.4,0.3-0.7,0.5c-0.2,0.2-0.5,0.3-0.7,0.5c-0.3,0.2-0.6,0.4-1,0.6c-0.9,0.5-1.9,1-2.8,1.5c-0.3,0.1-0.5,0.2-0.8,0.4
				c-0.9,0.4-1.8,0.8-2.7,1.1c-0.1,0-0.2,0.1-0.4,0.1c-1,0.4-2,0.7-3,1c-0.7,0.2-1.4,0.4-2.1,0.6c-0.5,0.2-1.1,0.3-1.7,0.4
				c-0.8,0.2-1.5,0.3-2.3,0.5c-0.6,0.1-1.1,0.2-1.7,0.3c-0.2,0-0.5,0.1-0.7,0.1c-1,0.2-1.9,0.3-2.9,0.4c-0.3,0-0.6,0.1-0.8,0.1
				c-0.6,0.1-1.1,0.1-1.7,0.1c-0.9,0.1-1.9,0.1-2.8,0.2c-0.6,0-1.2,0-1.8,0.1c-0.8,0-1.5,0-2.3,0c-0.7,0-1.3,0-1.9-0.1
				c-0.7,0-1.4-0.1-2.1-0.1c-0.6,0-1.3-0.1-1.9-0.2c-0.7-0.1-1.4-0.1-2.1-0.2c-0.6-0.1-1.2-0.2-1.9-0.3c-0.7-0.1-1.5-0.2-2.2-0.4
				c-0.6-0.1-1.2-0.2-1.7-0.4c-0.9-0.2-1.7-0.4-2.6-0.6c-0.6-0.1-1.1-0.3-1.7-0.4c-0.3-0.1-0.6-0.2-0.9-0.3
				c-0.9-0.3-1.7-0.6-2.5-0.9c-0.2-0.1-0.5-0.2-0.7-0.3c-0.8-0.3-1.5-0.6-2.2-0.9c-0.4-0.2-0.7-0.3-1.1-0.5c-1.1-0.5-2.1-1-3.1-1.6
				c-8.3-4.8-12.4-11-12.4-17.3c0,4,0,7.9,0,11.9c0,6.2,4.1,12.5,12.4,17.3c1,0.6,2,1.1,3.1,1.6c0.4,0.2,0.7,0.3,1.1,0.5
				c0.6,0.3,1.2,0.6,1.9,0.8c0.1,0,0.2,0.1,0.3,0.1c0.2,0.1,0.5,0.2,0.7,0.3c0.8,0.3,1.7,0.6,2.5,0.9c0.3,0.1,0.6,0.2,0.9,0.3
				c0.2,0.1,0.4,0.1,0.6,0.2c0.3,0.1,0.7,0.2,1.1,0.3c0.9,0.2,1.7,0.4,2.6,0.6c0.2,0.1,0.5,0.1,0.7,0.2c0.3,0.1,0.7,0.1,1,0.2
				c0.7,0.1,1.5,0.3,2.2,0.4c0.3,0,0.6,0.1,0.9,0.2c0.3,0,0.7,0.1,1,0.1c0.7,0.1,1.4,0.2,2.1,0.2c0.3,0,0.7,0.1,1,0.1
				c0.3,0,0.6,0,0.9,0.1c0.7,0.1,1.4,0.1,2.1,0.1c0.4,0,0.7,0,1.1,0.1c0.3,0,0.6,0,0.8,0c0.8,0,1.5,0,2.3,0c0.4,0,0.8,0,1.1,0
				c0.2,0,0.4,0,0.7,0c1,0,1.9-0.1,2.9-0.2c0.4,0,0.7,0,1.1-0.1c0.2,0,0.4,0,0.5-0.1c0.3,0,0.6-0.1,0.9-0.1c1-0.1,1.9-0.3,2.9-0.4
				c0.2,0,0.5-0.1,0.7-0.1c0.1,0,0.2,0,0.3-0.1c0.5-0.1,0.9-0.2,1.4-0.3c0.8-0.2,1.5-0.3,2.3-0.5c0.6-0.1,1.1-0.3,1.7-0.4
				c0.7-0.2,1.4-0.4,2.1-0.6c0.2,0,0.3-0.1,0.5-0.1c0.9-0.3,1.7-0.6,2.5-0.9c0.1,0,0.2-0.1,0.4-0.1c0.9-0.4,1.8-0.7,2.7-1.1
				c0.3-0.1,0.5-0.2,0.8-0.4c1-0.5,1.9-1,2.8-1.5c0.2-0.1,0.3-0.2,0.5-0.3c0.2-0.1,0.3-0.2,0.4-0.3c0.3-0.2,0.5-0.3,0.8-0.5
				c0.2-0.1,0.4-0.3,0.6-0.4c0.2-0.2,0.5-0.3,0.7-0.5c0.2-0.1,0.4-0.3,0.6-0.5c0.2-0.2,0.5-0.3,0.7-0.5c0.2-0.2,0.4-0.3,0.6-0.5
				c0.2-0.2,0.4-0.4,0.6-0.5c0.1-0.1,0.2-0.1,0.2-0.2c0.1-0.1,0.1-0.1,0.2-0.2c0.3-0.3,0.6-0.6,1-1c0.1-0.1,0.2-0.2,0.3-0.3
				c0.4-0.4,0.7-0.8,1.1-1.3c0,0,0,0,0-0.1c0.1-0.1,0.1-0.2,0.2-0.3c0.2-0.3,0.4-0.5,0.6-0.8c0.1-0.1,0.2-0.3,0.3-0.4
				c0.2-0.2,0.3-0.5,0.5-0.7c0-0.1,0.1-0.1,0.1-0.2c0.1-0.1,0.1-0.2,0.2-0.3c0.1-0.2,0.2-0.4,0.3-0.6c0.1-0.2,0.2-0.3,0.2-0.5
				c0.1-0.2,0.2-0.4,0.3-0.6c0-0.1,0.1-0.2,0.1-0.3c0-0.1,0.1-0.2,0.1-0.3c0.1-0.2,0.1-0.4,0.2-0.6c0.1-0.2,0.1-0.4,0.2-0.6
				c0.1-0.2,0.1-0.4,0.1-0.6c0-0.1,0.1-0.2,0.1-0.3c0-0.1,0-0.2,0-0.2c0-0.2,0.1-0.4,0.1-0.6c0-0.2,0.1-0.4,0.1-0.6
				c0-0.2,0-0.4,0-0.6c0-0.1,0-0.3,0-0.4c0-0.1,0-0.2,0-0.4l0-11.9C175.1,131.5,175.1,131.7,175,132z"/>
			<g>
				<path class="st18" d="M162.7,114c16.4,9.5,16.5,24.8,0.2,34.3c-16.3,9.5-42.8,9.5-59.2,0c-16.4-9.5-16.5-24.8-0.2-34.3
					C119.8,104.5,146.3,104.5,162.7,114z"/>
			</g>
		</g>
		<g class="st19">
			<path class="st20" d="M160.2,113.2c15,8.7,15.1,22.7,0.2,31.3c-14.9,8.6-39.1,8.6-54.1,0c-15-8.7-15.1-22.7-0.2-31.3
				C121,104.6,145.2,104.6,160.2,113.2z"/>
			<g class="st21">
				<path class="st22" d="M160.6,97.4c15.2,8.8,15.3,23,0.2,31.8c-15.1,8.8-39.7,8.8-54.9,0c-15.2-8.8-15.3-23-0.2-31.8
					C120.8,88.7,145.4,88.7,160.6,97.4z"/>
			</g>
			<g class="st23">
				<path class="st24" d="M160.9,81.6c15.4,8.9,15.5,23.3,0.2,32.2c-15.3,8.9-40.2,8.9-55.6,0C90.1,105,90,90.5,105.3,81.6
					C120.6,72.8,145.5,72.8,160.9,81.6z"/>
			</g>
			<g class="st19">
				<path class="st25" d="M161.3,65.9c15.6,9,15.7,23.6,0.2,32.7c-15.5,9-40.8,9-56.4,0c-15.6-9-15.7-23.6-0.2-32.7
					C120.5,56.8,145.7,56.8,161.3,65.9z"/>
			</g>
			<g class="st26">
				<path class="st27" d="M161.7,50.1c15.8,9.1,15.9,24,0.2,33.1c-15.7,9.1-41.3,9.1-57.1,0c-15.8-9.1-15.9-24-0.2-33.1
					C120.3,40.9,145.9,40.9,161.7,50.1z"/>
			</g>
			<g class="st28">
				<path class="st29" d="M162.1,34.3c16,9.3,16.1,24.3,0.2,33.5c-15.9,9.3-41.9,9.3-57.9,0c-16-9.3-16.1-24.3-0.2-33.5
					C120.1,25,146,25,162.1,34.3z"/>
			</g>
			<g class="st30">
				<path class="st31" d="M162.5,18.5c16.2,9.4,16.3,24.6,0.2,34c-16.1,9.4-42.4,9.4-58.7,0c-16.2-9.4-16.3-24.6-0.2-34
					C119.9,9.1,146.2,9.1,162.5,18.5z"/>
			</g>
		</g>
		<g class="st32">
			<path class="st33" d="M137.3,50.3c0,8.3-6.8,15.1-15.1,15.1c-8.3,0-15.1-6.8-15.1-15.1c0-8.3,6.8-15.1,15.1-15.1
				C130.6,35.2,137.3,42,137.3,50.3z"/>
			<path class="st34" d="M134.9,50.4c0,7-5.7,12.7-12.7,12.7c-7,0-12.7-5.7-12.7-12.7c0-7,5.7-12.7,12.7-12.7
				C129.3,37.7,134.9,43.4,134.9,50.4z"/>
			<path class="st35" d="M132.6,50.6c0,5.7-4.6,10.3-10.3,10.3c-5.7,0-10.3-4.6-10.3-10.3c0-5.7,4.6-10.3,10.3-10.3
				C127.9,40.2,132.6,44.9,132.6,50.6z"/>
			<path class="st36" d="M130.2,50.7c0,4.4-3.6,7.9-7.9,7.9c-4.4,0-7.9-3.6-7.9-7.9c0-4.4,3.6-7.9,7.9-7.9
				C126.6,42.7,130.2,46.3,130.2,50.7z"/>
			<path class="st37" d="M127.8,50.8c0,3.1-2.5,5.5-5.5,5.5c-3.1,0-5.5-2.5-5.5-5.5c0-3.1,2.5-5.5,5.5-5.5
				C125.3,45.3,127.8,47.7,127.8,50.8z"/>
			<path class="st38" d="M125.4,50.9c0,1.7-1.4,3.2-3.2,3.2c-1.7,0-3.2-1.4-3.2-3.2c0-1.7,1.4-3.2,3.2-3.2
				C124,47.8,125.4,49.2,125.4,50.9z"/>
			<path class="st39" d="M123,51.1c0,0.4-0.3,0.8-0.8,0.8c-0.4,0-0.8-0.3-0.8-0.8c0-0.4,0.3-0.8,0.8-0.8
				C122.7,50.3,123,50.6,123,51.1z"/>
		</g>
		<g>
			<g>
				
					<rect x="111.2" y="16.8" transform="matrix(0.8661 -0.4999 0.4999 0.8661 9.0379 68.9591)" class="st40" width="44" height="1.7"/>
			</g>
			<g>
				
					<rect x="115.3" y="26.5" transform="matrix(0.869 -0.4949 0.4949 0.869 3.847 69.1371)" class="st40" width="34.4" height="1.7"/>
			</g>
			<g>
				
					<rect x="116.8" y="59.9" transform="matrix(0.869 -0.4948 0.4948 0.869 -12.4986 74.2532)" class="st40" width="34.4" height="1.7"/>
			</g>
			<g>
				
					<rect x="116" y="70" transform="matrix(0.8692 -0.4945 0.4945 0.8692 -17.6203 75.1473)" class="st40" width="34.4" height="1.7"/>
			</g>
			<g>
				
					<rect x="116" y="79.4" transform="matrix(0.8691 -0.4946 0.4946 0.8691 -22.2561 76.4015)" class="st40" width="34.4" height="1.7"/>
			</g>
			<g>
				
					<rect x="116" y="113.3" transform="matrix(0.8884 -0.459 0.459 0.8884 -37.5144 73.8807)" class="st40" width="34.4" height="1.7"/>
			</g>
			<g>
				
					<rect x="113.6" y="122.5" transform="matrix(0.8924 -0.4512 0.4512 0.8924 -41.1656 74.0998)" class="st40" width="42.5" height="1.7"/>
			</g>
			<g>
				
					<rect x="116" y="131.8" transform="matrix(0.8924 -0.4513 0.4513 0.8924 -45.098 76.1981)" class="st40" width="42.5" height="1.7"/>
			</g>
			<g>
				
					<rect x="117.7" y="33.5" transform="matrix(0.8658 -0.5003 0.5003 0.8658 0.6719 71.2664)" class="st40" width="31.1" height="1.7"/>
			</g>
			<g>
				<g>
					<path class="st41" d="M106.8,27.3c0,2.8,2.3,5.1,5.1,5.1c2.8,0,5.1-2.3,5.1-5.1c0-2.8-2.3-5.1-5.1-5.1
						C109,22.2,106.8,24.5,106.8,27.3z"/>
				</g>
				<g>
					<path class="st42" d="M111.8,22.2c0.7,0,1.4,0.2,2.1,0.5c0.7,0.9,1.1,1.9,1.1,3.1c0,2.8-2.3,5.1-5.1,5.1
						c-0.7,0-1.4-0.2-2.1-0.5c-0.7-0.9-1.1-1.9-1.1-3.1C106.8,24.5,109,22.2,111.8,22.2z"/>
				</g>
				<g>
					<path class="st43" d="M107.9,26.5c0,1.1,1.8,0.5,3,0.5c1.1,0,2.1-0.9,2.1-2.1c0-1.1-0.9-2.1-2.1-2.1
						C109.7,22.8,107.9,25.4,107.9,26.5z"/>
				</g>
			</g>
			<g>
				<g>
					<path class="st41" d="M109.9,35.9c0,2.8,2.3,5.1,5.1,5.1c2.8,0,5.1-2.3,5.1-5.1c0-2.8-2.3-5.1-5.1-5.1
						C112.2,30.8,109.9,33.1,109.9,35.9z"/>
				</g>
				<g>
					<path class="st42" d="M115,30.8c0.7,0,1.4,0.2,2.1,0.5c0.7,0.9,1.1,1.9,1.1,3.1c0,2.8-2.3,5.1-5.1,5.1c-0.7,0-1.4-0.2-2.1-0.5
						c-0.7-0.9-1.1-1.9-1.1-3.1C109.9,33.1,112.2,30.8,115,30.8z"/>
				</g>
				<g>
					<path class="st43" d="M111.1,35.1c0,1.1,1.8,0.4,3,0.4c1.1,0,2.1-0.9,2.1-2.1c0-1.1-0.9-2.1-2.1-2.1
						C112.9,31.4,111.1,34,111.1,35.1z"/>
				</g>
			</g>
			<g>
				<g>
					<path class="st41" d="M116.9,42.8c0,2.8,2.3,5.1,5.1,5.1c2.8,0,5.1-2.3,5.1-5.1c0-2.8-2.3-5.1-5.1-5.1
						C119.2,37.7,116.9,40,116.9,42.8z"/>
				</g>
				<g>
					<path class="st42" d="M122,37.7c0.7,0,1.5,0.2,2.1,0.5c0.7,0.9,1.1,1.9,1.1,3.1c0,2.8-2.3,5.1-5.1,5.1c-0.7,0-1.4-0.2-2.1-0.5
						c-0.7-0.9-1.1-1.9-1.1-3.1C116.9,40,119.2,37.7,122,37.7z"/>
				</g>
				<g>
					<path class="st43" d="M118.1,42c0,1.1,1.8,0.4,3,0.4c1.1,0,2.1-0.9,2.1-2.1c0-1.1-0.9-2.1-2.1-2.1
						C119.9,38.3,118.1,40.9,118.1,42z"/>
				</g>
			</g>
			<g>
				<g>
					<path class="st41" d="M127.1,43.4c0,2.8,2.3,5.1,5.1,5.1c2.8,0,5.1-2.3,5.1-5.1c0-2.8-2.3-5.1-5.1-5.1
						C129.3,38.3,127.1,40.6,127.1,43.4z"/>
				</g>
				<g>
					<path class="st42" d="M132.1,38.3c0.7,0,1.4,0.2,2.1,0.5c0.7,0.9,1.1,1.9,1.1,3.1c0,2.8-2.3,5.1-5.1,5.1
						c-0.7,0-1.4-0.2-2.1-0.5c-0.7-0.9-1.1-1.9-1.1-3.1C127.1,40.6,129.3,38.3,132.1,38.3z"/>
				</g>
				<g>
					<path class="st43" d="M128.2,42.6c0,1.1,1.8,0.5,3,0.5c1.1,0,2.1-0.9,2.1-2.1c0-1.1-0.9-2.1-2.1-2.1
						C130,39,128.2,41.5,128.2,42.6z"/>
				</g>
			</g>
			<g>
				<g>
					<path class="st41" d="M137.2,46.3c0,2.8,2.3,5.1,5.1,5.1c2.8,0,5.1-2.3,5.1-5.1c0-2.8-2.3-5.1-5.1-5.1
						C139.5,41.2,137.2,43.5,137.2,46.3z"/>
				</g>
				<g>
					<path class="st42" d="M142.3,41.2c0.7,0,1.4,0.2,2.1,0.5c0.7,0.9,1.1,1.9,1.1,3.1c0,2.8-2.3,5.1-5.1,5.1
						c-0.7,0-1.4-0.2-2.1-0.5c-0.7-0.9-1.1-1.9-1.1-3.1C137.2,43.5,139.5,41.2,142.3,41.2z"/>
				</g>
				<g>
					<path class="st43" d="M138.4,45.5c0,1.1,1.8,0.4,3,0.4c1.1,0,2.1-0.9,2.1-2.1c0-1.1-0.9-2.1-2.1-2.1
						C140.2,41.9,138.4,44.4,138.4,45.5z"/>
				</g>
			</g>
			<g>
				<g>
					<path class="st41" d="M145.4,51.4c0,2.8,2.3,5.1,5.1,5.1c2.8,0,5.1-2.3,5.1-5.1c0-2.8-2.3-5.1-5.1-5.1
						C147.7,46.3,145.4,48.6,145.4,51.4z"/>
				</g>
				<g>
					<path class="st42" d="M150.5,46.3c0.7,0,1.4,0.2,2.1,0.5c0.7,0.9,1.1,1.9,1.1,3.1c0,2.8-2.3,5.1-5.1,5.1
						c-0.7,0-1.4-0.2-2.1-0.5c-0.7-0.9-1.1-1.9-1.1-3.1C145.4,48.6,147.7,46.3,150.5,46.3z"/>
				</g>
				<g>
					<path class="st43" d="M146.6,50.6c0,1.1,1.8,0.4,3,0.4c1.1,0,2.1-0.9,2.1-2.1c0-1.1-0.9-2.1-2.1-2.1
						C148.4,46.9,146.6,49.5,146.6,50.6z"/>
				</g>
			</g>
			<g>
				<g>
					<path class="st41" d="M145.1,71.6c0,2.8,2.3,5.1,5.1,5.1c2.8,0,5.1-2.3,5.1-5.1c0-2.8-2.3-5.1-5.1-5.1
						C147.4,66.6,145.1,68.8,145.1,71.6z"/>
				</g>
				<g>
					<path class="st42" d="M150.2,66.6c0.7,0,1.4,0.2,2.1,0.5c0.7,0.9,1.1,1.9,1.1,3.1c0,2.8-2.3,5.1-5.1,5.1
						c-0.7,0-1.4-0.2-2.1-0.5c-0.7-0.9-1.1-1.9-1.1-3.1C145.1,68.8,147.4,66.6,150.2,66.6z"/>
				</g>
				<g>
					<path class="st43" d="M146.3,70.9c0,1.1,1.8,0.4,2.9,0.4c1.1,0,2.1-0.9,2.1-2.1c0-1.1-0.9-2.1-2.1-2.1
						C148.1,67.2,146.3,69.7,146.3,70.9z"/>
				</g>
			</g>
			<g>
				<g>
					<path class="st41" d="M140,80.2c0,2.8,2.3,5.1,5.1,5.1c2.8,0,5.1-2.3,5.1-5.1c0-2.8-2.3-5.1-5.1-5.1
						C142.3,75.2,140,77.4,140,80.2z"/>
				</g>
				<g>
					<path class="st42" d="M145.1,75.2c0.7,0,1.4,0.2,2.1,0.5c0.7,0.9,1.1,1.9,1.1,3.1c0,2.8-2.3,5.1-5.1,5.1
						c-0.7,0-1.4-0.2-2.1-0.5c-0.7-0.9-1.1-1.9-1.1-3.1C140,77.4,142.3,75.2,145.1,75.2z"/>
				</g>
				<g>
					<path class="st43" d="M141.2,79.5c0,1.1,1.8,0.5,3,0.5c1.1,0,2.1-0.9,2.1-2.1c0-1.1-0.9-2.1-2.1-2.1
						C143,75.8,141.2,78.3,141.2,79.5z"/>
				</g>
			</g>
			<g>
				<g>
					<path class="st41" d="M134,88.9c0,2.8,2.3,5.1,5.1,5.1c2.8,0,5.1-2.3,5.1-5.1c0-2.8-2.3-5.1-5.1-5.1
						C136.3,83.8,134,86.1,134,88.9z"/>
				</g>
				<g>
					<path class="st42" d="M139.1,83.8c0.7,0,1.4,0.2,2.1,0.5c0.7,0.9,1.1,1.9,1.1,3.1c0,2.8-2.3,5.1-5.1,5.1
						c-0.7,0-1.4-0.2-2.1-0.5c-0.7-0.9-1.1-1.9-1.1-3.1C134,86.1,136.3,83.8,139.1,83.8z"/>
				</g>
				<g>
					<path class="st43" d="M135.2,88.1c0,1.1,1.8,0.5,3,0.5c1.1,0,2.1-0.9,2.1-2.1c0-1.1-0.9-2.1-2.1-2.1
						C137,84.4,135.2,86.9,135.2,88.1z"/>
				</g>
			</g>
			<g>
				<g>
					<path class="st41" d="M127.1,96.3c0,2.8,2.3,5.1,5.1,5.1c2.8,0,5.1-2.3,5.1-5.1c0-2.8-2.3-5.1-5.1-5.1
						C129.3,91.2,127.1,93.5,127.1,96.3z"/>
				</g>
				<g>
					<path class="st42" d="M132.1,91.2c0.7,0,1.4,0.2,2.1,0.5c0.7,0.9,1.1,1.9,1.1,3.1c0,2.8-2.3,5.1-5.1,5.1
						c-0.7,0-1.4-0.2-2.1-0.5c-0.7-0.9-1.1-1.9-1.1-3.1C127.1,93.5,129.3,91.2,132.1,91.2z"/>
				</g>
				<g>
					<path class="st43" d="M128.2,95.5c0,1.1,1.8,0.5,3,0.5c1.1,0,2.1-0.9,2.1-2.1c0-1.1-0.9-2.1-2.1-2.1
						C130,91.8,128.2,94.4,128.2,95.5z"/>
				</g>
			</g>
			<g>
				<g>
					<path class="st41" d="M120.1,104.9c0,2.8,2.3,5.1,5.1,5.1c2.8,0,5.1-2.3,5.1-5.1c0-2.8-2.3-5.1-5.1-5.1
						C122.3,99.8,120.1,102.1,120.1,104.9z"/>
				</g>
				<g>
					<path class="st42" d="M125.1,99.8c0.7,0,1.4,0.2,2.1,0.5c0.7,0.9,1.1,1.9,1.1,3.1c0,2.8-2.3,5.1-5.1,5.1
						c-0.7,0-1.4-0.2-2.1-0.5c-0.7-0.9-1.1-1.9-1.1-3.1C120.1,102.1,122.3,99.8,125.1,99.8z"/>
				</g>
				<g>
					<path class="st43" d="M121.2,104.1c0,1.1,1.8,0.5,3,0.5c1.1,0,2.1-0.9,2.1-2.1c0-1.1-0.9-2.1-2.1-2.1
						C123,100.4,121.2,103,121.2,104.1z"/>
				</g>
			</g>
			<g>
				<g>
					<path class="st41" d="M114,113.5c0,2.8,2.3,5.1,5.1,5.1c2.8,0,5.1-2.3,5.1-5.1c0-2.8-2.3-5.1-5.1-5.1
						C116.3,108.4,114,110.7,114,113.5z"/>
				</g>
				<g>
					<path class="st42" d="M119.1,108.4c0.7,0,1.4,0.2,2.1,0.5c0.7,0.9,1.1,1.9,1.1,3.1c0,2.8-2.3,5.1-5.1,5.1
						c-0.7,0-1.4-0.2-2.1-0.5c-0.7-0.9-1.1-1.9-1.1-3.1C114,110.7,116.3,108.4,119.1,108.4z"/>
				</g>
				<g>
					<path class="st43" d="M115.2,112.7c0,1.1,1.8,0.4,3,0.4c1.1,0,2.1-0.9,2.1-2.1c0-1.1-0.9-2.1-2.1-2.1
						C117,109.1,115.2,111.6,115.2,112.7z"/>
				</g>
			</g>
			<g>
				<g>
					<path class="st41" d="M110.1,122.1c0,2.8,2.3,5.1,5.1,5.1c2.8,0,5.1-2.3,5.1-5.1c0-2.8-2.3-5.1-5.1-5.1
						C112.4,117,110.1,119.3,110.1,122.1z"/>
				</g>
				<g>
					<path class="st42" d="M115.2,117c0.7,0,1.4,0.2,2.1,0.5c0.7,0.9,1.1,1.9,1.1,3.1c0,2.8-2.3,5.1-5.1,5.1c-0.7,0-1.4-0.2-2.1-0.5
						c-0.7-0.9-1.1-1.9-1.1-3.1C110.1,119.3,112.4,117,115.2,117z"/>
				</g>
				<g>
					<path class="st43" d="M111.3,121.3c0,1.1,1.8,0.4,3,0.4c1.1,0,2.1-0.9,2.1-2.1c0-1.1-0.9-2.1-2.1-2.1
						C113.1,117.7,111.3,120.2,111.3,121.3z"/>
				</g>
			</g>
			<g>
				<g>
					<path class="st41" d="M106.8,130.7c0,2.8,2.3,5.1,5.1,5.1c2.8,0,5.1-2.3,5.1-5.1c0-2.8-2.3-5.1-5.1-5.1
						C109,125.6,106.8,127.9,106.8,130.7z"/>
				</g>
				<g>
					<path class="st42" d="M111.8,125.6c0.7,0,1.4,0.2,2.1,0.5c0.7,0.9,1.1,1.9,1.1,3.1c0,2.8-2.3,5.1-5.1,5.1
						c-0.7,0-1.4-0.2-2.1-0.5c-0.7-0.9-1.1-1.9-1.1-3.1C106.8,127.9,109,125.6,111.8,125.6z"/>
				</g>
				<g>
					<path class="st43" d="M107.9,129.9c0,1.1,1.8,0.5,3,0.5c1.1,0,2.1-0.9,2.1-2.1c0-1.1-0.9-2.1-2.1-2.1
						C109.7,126.3,107.9,128.8,107.9,129.9z"/>
				</g>
			</g>
			<g>
				<g>
					<path class="st41" d="M108.9,140.8c0,2.8,2.3,5.1,5.1,5.1c2.8,0,5.1-2.3,5.1-5.1c0-2.8-2.3-5.1-5.1-5.1
						C111.2,135.8,108.9,138,108.9,140.8z"/>
				</g>
				<g>
					<path class="st42" d="M114,135.8c0.7,0,1.4,0.2,2.1,0.5c0.7,0.9,1.1,1.9,1.1,3.1c0,2.8-2.3,5.1-5.1,5.1c-0.7,0-1.4-0.2-2.1-0.5
						c-0.7-0.9-1.1-1.9-1.1-3.1C108.9,138,111.2,135.8,114,135.8z"/>
				</g>
				<g>
					<path class="st43" d="M110.1,140.1c0,1.1,1.8,0.4,3,0.4c1.1,0,2.1-0.9,2.1-2.1c0-1.1-0.9-2.1-2.1-2.1
						C111.9,136.4,110.1,138.9,110.1,140.1z"/>
				</g>
			</g>
			<g>
				<g>
					<path class="st44" d="M157.7,8.3c1,2.6-0.4,5.5-3,6.5c-2.6,1-5.5-0.4-6.5-3c-1-2.6,0.4-5.5,3-6.5
						C153.8,4.4,156.8,5.7,157.7,8.3z"/>
				</g>
				<g>
					<path class="st45" d="M151.2,5.3c-0.7,0.3-1.3,0.7-1.8,1.1c-0.3,1-0.3,2.2,0.1,3.2c1,2.6,3.9,4,6.5,3c0.7-0.3,1.3-0.7,1.8-1.1
						c0.3-1,0.3-2.2,0-3.3C156.8,5.7,153.8,4.4,151.2,5.3z"/>
				</g>
				<g>
					<path class="st46" d="M156.4,8c0.4,1.1-1.6,1-2.6,1.4c-1.1,0.4-2.2-0.2-2.6-1.2c-0.4-1.1,0.2-2.2,1.2-2.6
						C153.4,5.2,156,6.9,156.4,8z"/>
				</g>
			</g>
			<g>
				<g>
					<path class="st44" d="M155.8,18.4c1,2.6-0.4,5.5-3,6.5c-2.6,1-5.5-0.4-6.5-3c-1-2.6,0.4-5.5,3-6.5
						C152,14.4,154.9,15.8,155.8,18.4z"/>
				</g>
				<g>
					<path class="st45" d="M149.4,15.4c-0.7,0.3-1.3,0.7-1.8,1.1c-0.3,1-0.3,2.2,0.1,3.3c1,2.6,3.9,4,6.5,3c0.7-0.3,1.3-0.7,1.8-1.1
						c0.3-1,0.4-2.2,0-3.3C154.9,15.8,152,14.4,149.4,15.4z"/>
				</g>
				<g>
					<path class="st46" d="M154.5,18.1c0.4,1.1-1.6,1-2.6,1.4c-1.1,0.4-2.2-0.2-2.6-1.2c-0.4-1.1,0.2-2.2,1.2-2.6
						C151.5,15.3,154.1,17,154.5,18.1z"/>
				</g>
			</g>
			<g>
				<g>
					<path class="st44" d="M151.2,27.6c1,2.6-0.4,5.5-3,6.5c-2.6,1-5.5-0.4-6.5-3c-1-2.6,0.4-5.5,3-6.5
						C147.4,23.6,150.3,24.9,151.2,27.6z"/>
				</g>
				<g>
					<path class="st45" d="M144.7,24.5c-0.7,0.3-1.3,0.7-1.8,1.1c-0.3,1-0.3,2.2,0.1,3.2c1,2.6,3.9,4,6.5,3c0.7-0.3,1.3-0.7,1.8-1.1
						c0.3-1,0.3-2.2,0-3.3C150.3,24.9,147.4,23.6,144.7,24.5z"/>
				</g>
				<g>
					<path class="st46" d="M149.9,27.2c0.4,1.1-1.6,1-2.6,1.4c-1.1,0.4-2.2-0.2-2.6-1.2c-0.4-1.1,0.2-2.2,1.2-2.6
						C146.9,24.4,149.5,26.2,149.9,27.2z"/>
				</g>
			</g>
			<g>
				<g>
					<path class="st44" d="M144.7,34.9c1,2.6-0.4,5.5-3,6.5c-2.6,1-5.5-0.4-6.5-3c-1-2.6,0.4-5.5,3-6.5
						C140.8,30.9,143.7,32.3,144.7,34.9z"/>
				</g>
				<g>
					<path class="st45" d="M138.2,31.9c-0.7,0.3-1.3,0.7-1.8,1.1c-0.3,1-0.3,2.2,0.1,3.3c1,2.6,3.9,4,6.5,3c0.7-0.3,1.3-0.7,1.8-1.1
						c0.3-1,0.3-2.2,0-3.3C143.7,32.3,140.8,30.9,138.2,31.9z"/>
				</g>
				<g>
					<path class="st46" d="M143.3,34.6c0.4,1.1-1.6,1-2.6,1.4c-1.1,0.4-2.2-0.2-2.6-1.2c-0.4-1.1,0.2-2.2,1.2-2.6
						C140.4,31.8,142.9,33.5,143.3,34.6z"/>
				</g>
			</g>
			<g>
				<g>
					<path class="st44" d="M131,49.8c1,2.6-0.4,5.5-3,6.5c-2.6,1-5.5-0.4-6.5-3c-1-2.6,0.4-5.5,3-6.5C127.1,45.8,130,47.1,131,49.8z
						"/>
				</g>
				<g>
					<path class="st45" d="M124.5,46.7c-0.7,0.3-1.3,0.7-1.8,1.1c-0.3,1-0.3,2.2,0.1,3.3c1,2.6,3.9,4,6.5,3c0.7-0.3,1.3-0.7,1.8-1.1
						c0.3-1,0.3-2.2-0.1-3.3C130,47.1,127.1,45.8,124.5,46.7z"/>
				</g>
				<g>
					<path class="st46" d="M129.6,49.4c0.4,1.1-1.6,1-2.6,1.4c-1.1,0.4-2.2-0.2-2.6-1.2c-0.4-1.1,0.2-2.2,1.2-2.6
						C126.7,46.6,129.3,48.4,129.6,49.4z"/>
				</g>
			</g>
			<g>
				<g>
					<path class="st44" d="M125.8,58.6c1,2.6-0.4,5.5-3,6.5c-2.6,1-5.5-0.4-6.5-3c-1-2.6,0.4-5.5,3-6.5
						C121.9,54.6,124.8,56,125.8,58.6z"/>
				</g>
				<g>
					<path class="st45" d="M119.3,55.6c-0.7,0.3-1.3,0.7-1.8,1.1c-0.3,1-0.3,2.2,0,3.2c1,2.6,3.9,4,6.5,3c0.7-0.3,1.3-0.7,1.8-1.1
						c0.3-1,0.3-2.2-0.1-3.3C124.8,56,121.9,54.6,119.3,55.6z"/>
				</g>
				<g>
					<path class="st46" d="M124.4,58.3c0.4,1.1-1.6,1-2.6,1.4c-1.1,0.4-2.2-0.2-2.6-1.2c-0.4-1.1,0.2-2.2,1.2-2.6
						C121.5,55.5,124,57.2,124.4,58.3z"/>
				</g>
			</g>
			<g>
				<g>
					<path class="st44" d="M121,67.7c1,2.6-0.4,5.5-3,6.5c-2.6,1-5.5-0.4-6.5-3c-1-2.6,0.4-5.5,3-6.5C117.2,63.7,120.1,65,121,67.7z
						"/>
				</g>
				<g>
					<path class="st45" d="M114.5,64.6c-0.7,0.3-1.3,0.7-1.8,1.1c-0.3,1-0.3,2.2,0.1,3.2c1,2.6,3.9,4,6.5,3c0.7-0.3,1.3-0.7,1.8-1.1
						c0.3-1,0.4-2.2,0-3.3C120.1,65,117.2,63.7,114.5,64.6z"/>
				</g>
				<g>
					<path class="st46" d="M119.7,67.3c0.4,1.1-1.6,1-2.6,1.4c-1.1,0.4-2.2-0.2-2.6-1.2c-0.4-1.1,0.2-2.2,1.2-2.6
						C116.7,64.5,119.3,66.3,119.7,67.3z"/>
				</g>
			</g>
			<g>
				<g>
					<path class="st44" d="M119.9,77.7c1,2.6-0.4,5.5-3,6.5c-2.6,1-5.5-0.4-6.5-3c-1-2.6,0.4-5.5,3-6.5
						C116.1,73.8,119,75.1,119.9,77.7z"/>
				</g>
				<g>
					<path class="st45" d="M113.4,74.7c-0.7,0.3-1.3,0.7-1.8,1.1c-0.3,1-0.3,2.2,0.1,3.3c1,2.6,3.9,4,6.5,3c0.7-0.3,1.3-0.7,1.8-1.1
						c0.3-1,0.3-2.2,0-3.3C119,75.1,116.1,73.8,113.4,74.7z"/>
				</g>
				<g>
					<path class="st46" d="M118.6,77.4c0.4,1.1-1.6,1-2.6,1.4c-1.1,0.4-2.2-0.2-2.6-1.2c-0.4-1.1,0.2-2.2,1.2-2.6
						C115.6,74.6,118.2,76.4,118.6,77.4z"/>
				</g>
			</g>
			<g>
				<g>
					<path class="st44" d="M128.5,94c1,2.6-0.4,5.5-3,6.5c-2.6,1-5.5-0.4-6.5-3c-1-2.6,0.4-5.5,3-6.5C124.6,90,127.5,91.4,128.5,94z
						"/>
				</g>
				<g>
					<path class="st45" d="M122,91c-0.7,0.3-1.3,0.7-1.8,1.1c-0.3,1-0.3,2.2,0.1,3.3c1,2.6,3.9,4,6.5,3c0.7-0.3,1.3-0.7,1.8-1.1
						c0.3-1,0.4-2.2,0-3.3C127.5,91.4,124.6,90,122,91z"/>
				</g>
				<g>
					<path class="st46" d="M127.1,93.7c0.4,1.1-1.6,1-2.6,1.4c-1.1,0.4-2.2-0.2-2.6-1.2c-0.4-1.1,0.2-2.2,1.2-2.6
						C124.2,90.9,126.7,92.6,127.1,93.7z"/>
				</g>
			</g>
			<g>
				<g>
					<path class="st44" d="M146.2,99.1c1,2.6-0.4,5.5-3,6.5c-2.6,1-5.5-0.4-6.5-3c-1-2.6,0.4-5.5,3-6.5
						C142.3,95.1,145.2,96.5,146.2,99.1z"/>
				</g>
				<g>
					<path class="st45" d="M139.7,96.1c-0.7,0.3-1.3,0.7-1.8,1.1c-0.3,1-0.3,2.2,0.1,3.3c1,2.6,3.9,4,6.5,3c0.7-0.3,1.3-0.7,1.8-1.1
						c0.3-1,0.3-2.2-0.1-3.3C145.2,96.5,142.3,95.1,139.7,96.1z"/>
				</g>
				<g>
					<path class="st46" d="M144.8,98.8c0.4,1.1-1.6,1-2.6,1.4c-1.1,0.4-2.2-0.2-2.6-1.2c-0.4-1.1,0.2-2.2,1.2-2.6
						C141.8,95.9,144.4,97.7,144.8,98.8z"/>
				</g>
			</g>
			<g>
				<g>
					<path class="st44" d="M154.3,104.2c1,2.6-0.4,5.5-3,6.5c-2.6,1-5.5-0.4-6.5-3c-1-2.6,0.4-5.5,3-6.5
						C150.4,100.2,153.3,101.5,154.3,104.2z"/>
				</g>
				<g>
					<path class="st45" d="M147.8,101.1c-0.7,0.3-1.3,0.7-1.8,1.1c-0.3,1-0.3,2.2,0.1,3.3c1,2.6,3.9,4,6.5,3
						c0.7-0.3,1.3-0.7,1.8-1.1c0.3-1,0.4-2.2,0-3.3C153.3,101.5,150.4,100.2,147.8,101.1z"/>
				</g>
				<g>
					<path class="st46" d="M152.9,103.8c0.4,1.1-1.6,1-2.6,1.4c-1.1,0.4-2.2-0.2-2.6-1.2c-0.4-1.1,0.2-2.2,1.2-2.6
						C150,101,152.6,102.8,152.9,103.8z"/>
				</g>
			</g>
			<g>
				<g>
					<path class="st44" d="M159.5,111.7c1,2.6-0.4,5.5-3,6.5c-2.6,1-5.5-0.4-6.5-3c-1-2.6,0.4-5.5,3-6.5
						C155.6,107.8,158.5,109.1,159.5,111.7z"/>
				</g>
				<g>
					<path class="st45" d="M153,108.7c-0.7,0.3-1.3,0.6-1.8,1.1c-0.3,1-0.3,2.2,0.1,3.2c1,2.6,3.9,4,6.5,3c0.7-0.3,1.3-0.7,1.8-1.1
						c0.3-1,0.3-2.2,0-3.3C158.5,109.1,155.6,107.8,153,108.7z"/>
				</g>
				<g>
					<path class="st46" d="M158.2,111.4c0.4,1.1-1.6,1-2.6,1.4c-1.1,0.4-2.2-0.2-2.6-1.2c-0.4-1.1,0.2-2.2,1.2-2.6
						C155.2,108.6,157.8,110.4,158.2,111.4z"/>
				</g>
			</g>
			<g>
				<g>
					<path class="st44" d="M161.4,121.4c1,2.6-0.4,5.5-3,6.5c-2.6,1-5.5-0.4-6.5-3c-1-2.6,0.4-5.5,3-6.5
						C157.6,117.4,160.5,118.8,161.4,121.4z"/>
				</g>
				<g>
					<path class="st45" d="M154.9,118.3c-0.7,0.3-1.3,0.7-1.8,1.1c-0.3,1-0.3,2.2,0,3.2c1,2.6,3.9,4,6.5,3c0.7-0.3,1.3-0.7,1.8-1.1
						c0.3-1,0.3-2.2,0-3.3C160.5,118.8,157.6,117.4,154.9,118.3z"/>
				</g>
				<g>
					<path class="st46" d="M160.1,121.1c0.4,1.1-1.6,1-2.6,1.4c-1.1,0.4-2.2-0.2-2.6-1.2c-0.4-1.1,0.2-2.2,1.2-2.6
						C157.1,118.2,159.7,120,160.1,121.1z"/>
				</g>
			</g>
			<g>
				<g>
					<path class="st44" d="M122.9,87c1,2.6-0.4,5.5-3,6.5c-2.6,1-5.5-0.4-6.5-3c-1-2.6,0.4-5.5,3-6.5C119,83,121.9,84.4,122.9,87z"
						/>
				</g>
				<g>
					<path class="st45" d="M116.4,84c-0.7,0.3-1.3,0.7-1.8,1.1c-0.3,1-0.3,2.2,0.1,3.2c1,2.6,3.9,4,6.5,3c0.7-0.3,1.3-0.7,1.8-1.1
						c0.3-1,0.3-2.2,0-3.3C121.9,84.4,119,83,116.4,84z"/>
				</g>
				<g>
					<path class="st46" d="M121.5,86.7c0.4,1.1-1.6,1-2.6,1.4c-1.1,0.4-2.2-0.2-2.6-1.2c-0.4-1.1,0.2-2.2,1.2-2.6
						C118.6,83.9,121.2,85.6,121.5,86.7z"/>
				</g>
			</g>
			<g>
				<g>
					<path class="st41" d="M146.5,61.5c0,2.8,2.3,5.1,5.1,5.1c2.8,0,5.1-2.3,5.1-5.1c0-2.8-2.3-5.1-5.1-5.1
						C148.8,56.4,146.5,58.7,146.5,61.5z"/>
				</g>
				<g>
					<path class="st42" d="M151.6,56.4c0.7,0,1.4,0.2,2.1,0.5c0.7,0.9,1.1,1.9,1.1,3.1c0,2.8-2.3,5.1-5.1,5.1
						c-0.7,0-1.4-0.2-2.1-0.5c-0.7-0.9-1.1-1.9-1.1-3.1C146.5,58.7,148.8,56.4,151.6,56.4z"/>
				</g>
				<g>
					<path class="st43" d="M147.7,60.7c0,1.1,1.8,0.5,3,0.5c1.1,0,2.1-0.9,2.1-2.1c0-1.1-0.9-2.1-2.1-2.1
						C149.5,57.1,147.7,59.6,147.7,60.7z"/>
				</g>
			</g>
			<g>
				<g>
					<g>
						
							<rect x="162.4" y="46" transform="matrix(0.8776 -0.4793 0.4793 0.8776 -1.0877 88.609)" class="st40" width="21.2" height="1"/>
						
							<rect x="161.5" y="45.1" transform="matrix(0.8781 -0.4785 0.4785 0.8781 -1.1263 88.4496)" class="st40" width="22.9" height="2.6"/>
					</g>
				</g>
				<g>
					<g>
						
							<rect x="166.8" y="26" transform="matrix(0.4425 -0.8968 0.8968 0.4425 73.8504 171.7217)" class="st40" width="16.4" height="1"/>
						
							<rect x="166" y="25.1" transform="matrix(0.4421 -0.897 0.897 0.4421 73.9216 171.7704)" class="st40" width="18.1" height="2.6"/>
					</g>
				</g>
				<g>
					<g>
						<polygon class="st40" points="194.6,48.3 171.4,33.8 171.9,33 195.1,47.5 						"/>
						
							<rect x="181.9" y="26.1" transform="matrix(0.5283 -0.8491 0.8491 0.5283 51.9167 174.7449)" class="st40" width="2.6" height="29"/>
					</g>
				</g>
				<g>
					<g>
						<g>
							<path class="st41" d="M167,32.1c0,2.1,1.7,3.9,3.9,3.9c2.1,0,3.9-1.7,3.9-3.9c0-2.1-1.7-3.9-3.9-3.9
								C168.7,28.2,167,29.9,167,32.1z"/>
						</g>
					</g>
					<g>
						<g>
							<path class="st42" d="M170.9,28.2c0.6,0,1.1,0.1,1.6,0.3c0.5,0.6,0.8,1.5,0.8,2.3c0,2.1-1.7,3.9-3.9,3.9
								c-0.6,0-1.1-0.1-1.6-0.3c-0.5-0.7-0.8-1.5-0.8-2.3C167,29.9,168.7,28.2,170.9,28.2z"/>
						</g>
					</g>
					<g>
						<g>
							<path class="st43" d="M167.9,31.5c0,0.9,1.4,0.3,2.2,0.3c0.9,0,1.6-0.7,1.6-1.6c0-0.9-0.7-1.6-1.6-1.6
								C169.3,28.7,167.9,30.6,167.9,31.5z"/>
						</g>
					</g>
				</g>
				<g>
					<g>
						<g>
							<path class="st44" d="M187.4,38.2c0.8,2.2-0.3,4.6-2.5,5.4c-2.2,0.8-4.6-0.3-5.4-2.5c-0.8-2.2,0.3-4.6,2.5-5.4
								C184.2,34.9,186.6,36.1,187.4,38.2z"/>
						</g>
					</g>
					<g>
						<g>
							<path class="st45" d="M182,35.7c-0.6,0.2-1.1,0.5-1.5,0.9c-0.3,0.8-0.3,1.8,0,2.7c0.8,2.2,3.2,3.3,5.4,2.5
								c0.6-0.2,1.1-0.5,1.5-0.9c0.3-0.8,0.3-1.8,0-2.7C186.6,36.1,184.2,34.9,182,35.7z"/>
						</g>
					</g>
					<g>
						<g>
							<path class="st46" d="M186.3,38c0.3,0.9-1.3,0.9-2.2,1.2c-0.9,0.3-1.8-0.1-2.2-1c-0.3-0.9,0.1-1.8,1-2.2
								C183.8,35.6,185.9,37.1,186.3,38z"/>
						</g>
					</g>
				</g>
				<g>
					<g>
						<g>
							<path class="st44" d="M183.1,16.3c0.8,2.2-0.3,4.6-2.5,5.4c-2.2,0.8-4.6-0.3-5.4-2.5c-0.8-2.2,0.3-4.6,2.5-5.4
								C179.9,13,182.3,14.1,183.1,16.3z"/>
						</g>
					</g>
					<g>
						<g>
							<path class="st45" d="M177.7,13.8c-0.6,0.2-1.1,0.5-1.5,0.9c-0.3,0.9-0.3,1.8,0,2.7c0.8,2.2,3.2,3.3,5.4,2.5
								c0.6-0.2,1.1-0.5,1.5-0.9c0.3-0.9,0.3-1.8,0-2.7C182.3,14.1,179.9,13,177.7,13.8z"/>
						</g>
					</g>
					<g>
						<g>
							<path class="st46" d="M182,16c0.3,0.9-1.3,0.9-2.2,1.2c-0.9,0.3-1.9-0.1-2.2-1c-0.3-0.9,0.1-1.9,1-2.2
								C179.5,13.7,181.7,15.1,182,16z"/>
						</g>
					</g>
				</g>
				<g>
					<g>
						<g>
							<path class="st41" d="M192.1,49.2c0,2.4,1.9,4.3,4.3,4.3c2.4,0,4.3-1.9,4.3-4.3c0-2.4-1.9-4.3-4.3-4.3
								C194,44.9,192.1,46.8,192.1,49.2z"/>
						</g>
					</g>
					<g>
						<g>
							<path class="st42" d="M196.3,44.9c0.6,0,1.2,0.1,1.8,0.4c0.6,0.7,0.9,1.6,0.9,2.6c0,2.4-1.9,4.3-4.3,4.3
								c-0.6,0-1.2-0.1-1.8-0.4c-0.6-0.7-0.9-1.6-0.9-2.6C192.1,46.8,194,44.9,196.3,44.9z"/>
						</g>
					</g>
					<g>
						<g>
							<path class="st43" d="M193,48.6c0,1,1.5,0.4,2.5,0.4c1,0,1.7-0.8,1.7-1.7c0-1-0.8-1.7-1.7-1.7C194.6,45.5,193,47.6,193,48.6z
								"/>
						</g>
					</g>
				</g>
			</g>
			<g>
				<g>
					<g>
						
							<rect x="97.7" y="56.7" transform="matrix(0.8622 -0.5066 0.5066 0.8622 -14.2548 62.0973)" class="st40" width="18.6" height="1.1"/>
						
							<rect x="96.9" y="55.9" transform="matrix(0.8617 -0.5074 0.5074 0.8617 -14.2501 62.212)" class="st40" width="20.3" height="2.7"/>
					</g>
				</g>
				<g>
					<g>
						
							<rect x="98.5" y="43" transform="matrix(0.9126 -0.4088 0.4088 0.9126 -12.6023 45.0309)" class="st40" width="1.1" height="18.1"/>
						
							<rect x="97.7" y="42.1" transform="matrix(0.9126 -0.4089 0.4089 0.9126 -12.6029 45.0432)" class="st40" width="2.7" height="19.7"/>
					</g>
				</g>
				<g>
					<g>
						
							<rect x="74.5" y="66.7" transform="matrix(0.8672 -0.4979 0.4979 0.8672 -21.6025 53.4919)" class="st40" width="30" height="1.1"/>
						
							<rect x="73.6" y="65.9" transform="matrix(0.8665 -0.4992 0.4992 0.8665 -21.6228 53.6562)" class="st40" width="31.7" height="2.7"/>
					</g>
				</g>
				<g>
					<g>
						<g>
							<path class="st41" d="M106.9,59.9c-0.1,2.6-2.3,4.6-4.9,4.5c-2.6-0.1-4.6-2.3-4.5-4.9c0.1-2.6,2.3-4.6,4.9-4.5
								C105,55.1,107,57.3,106.9,59.9z"/>
						</g>
					</g>
					<g>
						<g>
							<path class="st42" d="M102.4,55.1c-0.7,0-1.3,0.1-1.9,0.4c-0.6,0.8-1,1.7-1.1,2.8c-0.1,2.6,1.9,4.8,4.5,4.9
								c0.7,0,1.3-0.1,1.9-0.4c0.6-0.8,1-1.7,1.1-2.8C107,57.3,105,55.1,102.4,55.1z"/>
						</g>
					</g>
					<g>
						<g>
							<path class="st43" d="M105.9,59.2c0,1-1.7,0.4-2.7,0.3c-1,0-1.9-0.9-1.8-2c0-1,0.9-1.9,2-1.8
								C104.3,55.7,105.9,58.1,105.9,59.2z"/>
						</g>
					</g>
				</g>
				<g>
					<g>
						<g>
							<path class="st44" d="M85.2,65.3c-0.9,2.2,0.2,4.7,2.3,5.5c2.2,0.9,4.7-0.2,5.5-2.3c0.9-2.2-0.2-4.6-2.3-5.5
								C88.6,62.1,86.1,63.1,85.2,65.3z"/>
						</g>
					</g>
					<g>
						<g>
							<path class="st45" d="M90.8,62.9c0.6,0.2,1.1,0.6,1.5,1c0.2,0.9,0.2,1.8-0.1,2.7c-0.9,2.2-3.4,3.2-5.5,2.3
								c-0.6-0.2-1.1-0.6-1.5-1c-0.2-0.9-0.2-1.8,0.1-2.7C86.1,63.1,88.6,62.1,90.8,62.9z"/>
						</g>
					</g>
					<g>
						<g>
							<path class="st46" d="M86.4,65.1c-0.4,0.9,1.3,0.9,2.2,1.3c0.9,0.4,1.9-0.1,2.2-0.9c0.4-0.9-0.1-1.9-0.9-2.2
								C88.9,62.8,86.7,64.2,86.4,65.1z"/>
						</g>
					</g>
				</g>
				<g>
					<g>
						<g>
							<path class="st44" d="M90.8,40.6c-0.9,2.2,0.2,4.6,2.3,5.5c2.2,0.9,4.6-0.2,5.5-2.3c0.9-2.2-0.2-4.6-2.3-5.5
								C94.1,37.4,91.7,38.4,90.8,40.6z"/>
						</g>
					</g>
					<g>
						<g>
							<path class="st45" d="M96.3,38.3c0.6,0.2,1.1,0.6,1.5,1c0.2,0.9,0.2,1.8-0.1,2.7c-0.9,2.2-3.3,3.2-5.5,2.3
								c-0.6-0.2-1.1-0.6-1.5-1c-0.2-0.9-0.2-1.8,0.1-2.7C91.7,38.4,94.1,37.4,96.3,38.3z"/>
						</g>
					</g>
					<g>
						<g>
							<path class="st46" d="M91.9,40.4c-0.4,0.9,1.3,0.9,2.1,1.3c0.9,0.4,1.9-0.1,2.2-0.9c0.4-0.9-0.1-1.9-0.9-2.2
								C94.5,38.1,92.3,39.5,91.9,40.4z"/>
						</g>
					</g>
				</g>
				<g>
					<g>
						<g>
							<path class="st41" d="M80.5,75.4c-0.1,2.8-2.5,5-5.3,4.9c-2.8-0.1-5-2.5-4.9-5.3c0.1-2.8,2.5-5,5.3-4.9
								C78.4,70.2,80.6,72.5,80.5,75.4z"/>
						</g>
					</g>
					<g>
						<g>
							<path class="st42" d="M75.6,70.1c-0.7,0-1.5,0.1-2.1,0.4c-0.7,0.8-1.1,1.9-1.2,3c-0.1,2.8,2.1,5.2,4.9,5.3
								c0.7,0,1.5-0.1,2.1-0.4c0.7-0.8,1.1-1.9,1.2-3C80.6,72.5,78.4,70.2,75.6,70.1z"/>
						</g>
					</g>
					<g>
						<g>
							<path class="st43" d="M79.3,74.5c0,1.1-1.8,0.4-3,0.3c-1.1,0-2-1-2-2.1c0-1.1,1-2,2.1-2C77.7,70.8,79.4,73.4,79.3,74.5z"/>
						</g>
					</g>
				</g>
			</g>
		</g>
	</g>
	<g>
		<g>
			<g>
				<g class="st47">
					<defs>
						<path id="SVGID_1_" class="st47" d="M179.6,102.1c1-0.6,1.4-2.1,0.9-3.4l0.8-0.1c0.5,1.3,0.1,2.8-0.9,3.4
							C180.2,102,179.9,102,179.6,102.1z"/>
					</defs>
					<clipPath id="SVGID_2_">
						<use xlink:href="#SVGID_1_"  style="overflow:visible;"/>
					</clipPath>
					<g class="st48">
						<path class="st49" d="M180.4,102l-0.8,0.1c0.3-0.2,0.6-0.5,0.8-0.9l0.8-0.1C181.1,101.5,180.8,101.8,180.4,102L180.4,102z"/>
						<path class="st50" d="M181.3,101.1l-0.8,0.1c0.1-0.3,0.2-0.5,0.3-0.9l0.8-0.1C181.5,100.6,181.4,100.9,181.3,101.1
							L181.3,101.1z"/>
						<path class="st51" d="M181.5,100.3l-0.8,0.1c0-0.3,0.1-0.5,0-0.8l0.8-0.1C181.6,99.8,181.6,100,181.5,100.3L181.5,100.3z"/>
						<path class="st52" d="M181.6,99.5l-0.8,0.1c0-0.3-0.1-0.6-0.2-0.9l0.8-0.1C181.5,98.9,181.6,99.2,181.6,99.5L181.6,99.5z"/>
					</g>
				</g>
				<g>
					<polygon class="st53" points="181.4,98.6 180.6,98.6 178.9,94.2 179.7,94.2 					"/>
				</g>
				<g class="st47">
					<defs>
						<path id="SVGID_3_" class="st47" d="M176.9,92.7l0.8-0.1c0.8-0.1,1.6,0.5,2,1.5l-0.8,0.1C178.5,93.2,177.7,92.6,176.9,92.7z"
							/>
					</defs>
					<clipPath id="SVGID_4_">
						<use xlink:href="#SVGID_3_"  style="overflow:visible;"/>
					</clipPath>
					<g class="st54">
						<path class="st52" d="M179.7,94.2l-0.8,0.1c-0.4-1-1.2-1.6-2-1.5l0.8-0.1C178.5,92.6,179.3,93.1,179.7,94.2L179.7,94.2z"/>
					</g>
				</g>
				<g class="st47">
					<defs>
						<path id="SVGID_5_" class="st47" d="M177.4,91l0.8-0.1c-0.2,0-0.5,0.1-0.7,0.2l-0.8,0.1C177,91.1,177.2,91,177.4,91z"/>
					</defs>
					<clipPath id="SVGID_6_">
						<use xlink:href="#SVGID_5_"  style="overflow:visible;"/>
					</clipPath>
					<g class="st55">
						<path class="st49" d="M177.5,91.2l-0.8,0.1c0.1,0,0.1-0.1,0.2-0.1l0.8-0.1C177.7,91.1,177.6,91.1,177.5,91.2L177.5,91.2z"/>
						<path class="st50" d="M177.7,91.1l-0.8,0.1c0.2-0.1,0.3-0.1,0.5-0.1l0.8-0.1C178.1,91,177.9,91,177.7,91.1L177.7,91.1z"/>
					</g>
				</g>
				<g class="st47">
					<defs>
						<path id="SVGID_7_" class="st47" d="M176.9,92.7l0.8-0.1c-0.2,0-0.5,0.1-0.7,0.2l-0.8,0.1C176.4,92.8,176.6,92.7,176.9,92.7z"
							/>
					</defs>
					<clipPath id="SVGID_8_">
						<use xlink:href="#SVGID_7_"  style="overflow:visible;"/>
					</clipPath>
					<g class="st56">
						<path class="st57" d="M177,92.9l-0.8,0.1c0.1,0,0.1-0.1,0.2-0.1l0.8-0.1C177.1,92.8,177,92.8,177,92.9L177,92.9z"/>
						<path class="st58" d="M177.2,92.7l-0.8,0.1c0.2-0.1,0.3-0.1,0.5-0.1l0.8-0.1C177.5,92.6,177.4,92.7,177.2,92.7L177.2,92.7z"/>
					</g>
				</g>
				<g>
					<polygon class="st59" points="172.9,106.4 172.1,106.4 179.6,102.1 180.4,102 					"/>
				</g>
				<g class="st47">
					<defs>
						<path id="SVGID_9_" class="st47" d="M172.1,106.4C172.1,106.4,172.1,106.4,172.1,106.4c0.2,0,0.3,0,0.5,0c0.1,0,0.2,0,0.3,0
							c-0.2,0.1-0.5,0.2-0.7,0.2l-0.8,0.1C171.6,106.7,171.8,106.6,172.1,106.4z"/>
					</defs>
					<clipPath id="SVGID_10_">
						<use xlink:href="#SVGID_9_"  style="overflow:visible;"/>
					</clipPath>
					<g class="st60">
						<path class="st50" d="M172.1,106.6l-0.8,0.1c0.2,0,0.3-0.1,0.5-0.1l0.8-0.1C172.5,106.6,172.3,106.6,172.1,106.6L172.1,106.6z
							"/>
						<path class="st49" d="M172.6,106.5l-0.8,0.1c0.1,0,0.2-0.1,0.2-0.1l0.8-0.1C172.8,106.4,172.7,106.5,172.6,106.5L172.6,106.5z
							"/>
					</g>
				</g>
				<g class="st47">
					<defs>
						<path id="SVGID_11_" class="st47" d="M172.1,106.6l-0.8,0.1c-0.8,0.1-1.6-0.5-2-1.5l0.8-0.1
							C170.5,106.1,171.3,106.7,172.1,106.6z"/>
					</defs>
					<clipPath id="SVGID_12_">
						<use xlink:href="#SVGID_11_"  style="overflow:visible;"/>
					</clipPath>
					<g class="st61">
						<path class="st62" d="M172.1,106.6l-0.8,0.1c-0.8,0.1-1.6-0.5-2-1.5l0.8-0.1C170.5,106.1,171.3,106.7,172.1,106.6L172.1,106.6
							z"/>
					</g>
				</g>
				<g>
					<polygon class="st63" points="169.4,97.2 168.6,97.3 176.2,92.9 177,92.9 					"/>
				</g>
				<g>
					<polygon class="st64" points="170.1,105.1 169.3,105.1 167.6,100.7 168.4,100.7 					"/>
				</g>
				<g>
					<path class="st65" d="M177,92.9c1-0.6,2.2,0,2.7,1.3l1.7,4.4c0.5,1.3,0.1,2.8-0.9,3.4l-7.6,4.4c-1,0.6-2.2,0-2.7-1.3l-1.7-4.4
						c-0.5-1.3-0.1-2.8,0.9-3.4L177,92.9z"/>
				</g>
				<g class="st47">
					<defs>
						<path id="SVGID_13_" class="st47" d="M168.4,100.7l-0.8,0.1c-0.5-1.3-0.1-2.8,0.9-3.4l0.8-0.1
							C168.4,97.8,167.9,99.3,168.4,100.7z"/>
					</defs>
					<clipPath id="SVGID_14_">
						<use xlink:href="#SVGID_13_"  style="overflow:visible;"/>
					</clipPath>
					<g class="st66">
						<path class="st62" d="M168.4,100.7l-0.8,0.1c-0.1-0.3-0.2-0.6-0.2-0.9l0.8-0.1C168.3,100,168.3,100.4,168.4,100.7L168.4,100.7
							z"/>
						<path class="st67" d="M168.2,99.7l-0.8,0.1c0-0.3,0-0.5,0-0.8l0.8-0.1C168.2,99.2,168.2,99.5,168.2,99.7L168.2,99.7z"/>
						<path class="st58" d="M168.3,99l-0.8,0.1c0.1-0.3,0.2-0.6,0.3-0.8l0.8-0.1C168.4,98.4,168.3,98.7,168.3,99L168.3,99z"/>
						<path class="st57" d="M168.6,98.1l-0.8,0.1c0.2-0.4,0.5-0.7,0.8-0.9l0.8-0.1C169,97.4,168.8,97.7,168.6,98.1L168.6,98.1z"/>
					</g>
				</g>
				<g>
					<path class="st68" d="M177.5,91.2c1-0.6,2.2,0,2.7,1.3l2.5,6.6c0.5,1.3,0.1,2.8-0.9,3.4l-9.5,5.5c-1,0.6-2.2,0-2.7-1.3
						l-2.5-6.6c-0.5-1.3-0.1-2.8,0.9-3.4L177.5,91.2z M181.4,98.6l-1.7-4.4c-0.5-1.3-1.7-1.9-2.7-1.3l-7.6,4.4
						c-1,0.6-1.4,2.1-0.9,3.4l1.7,4.4c0.5,1.3,1.7,1.9,2.7,1.3l7.6-4.4C181.5,101.4,181.9,99.9,181.4,98.6L181.4,98.6z"/>
				</g>
				<path class="st69" d="M169.6,106.7l-2.5-6.6c-0.1-0.3-0.2-0.6-0.2-0.9c0,0,0-0.1,0-0.1c0-0.2,0-0.5,0-0.7c0,0,0-0.1,0-0.1
					c0.1-0.3,0.1-0.5,0.3-0.7c0,0,0-0.1,0.1-0.1c0.1-0.1,0.1-0.2,0.2-0.3c0,0,0.1-0.1,0.1-0.1c0.1-0.1,0.3-0.2,0.4-0.3l9.5-5.5
					l-0.8,0.1l-9.5,5.5c-0.2,0.1-0.3,0.2-0.4,0.3c0,0-0.1,0.1-0.1,0.1c-0.1,0.1-0.2,0.2-0.2,0.3c0,0,0,0-0.1,0.1c0,0,0,0,0,0
					c-0.1,0.2-0.2,0.5-0.3,0.7c0,0,0,0,0,0.1c0,0,0,0,0,0.1c0,0.2,0,0.5,0,0.7c0,0,0,0,0,0c0,0,0,0,0,0.1c0,0.3,0.1,0.6,0.2,0.9
					l2.5,6.6c0.4,1,1.2,1.6,2,1.5l0.8-0.1C170.8,108.3,170,107.7,169.6,106.7z"/>
			</g>
			<g>
				<g class="st16">
					<path d="M206.9,162.2c8.5,4.9,8.6,12.9,0.1,17.8c-8.5,4.9-22.3,4.9-30.8,0c-8.5-4.9-8.6-12.9-0.1-17.8
						C184.6,157.3,198.4,157.3,206.9,162.2z"/>
				</g>
				<path class="st70" d="M195.7,125.7c0,0-2.1,3.3-4.2,2.9c-2.1-0.4-2.4-0.9-1.5-1.4c0.9-0.6,3.2-2.2,2.8-2.3
					c-0.4-0.2-1.4,0.1-1.3-0.4c0.1-0.4,3.1-1,3.1-1l2.1,1L195.7,125.7z"/>
				<path class="st71" d="M197,168.3c-0.1,0-6.7-0.2-5.2,2.3c0.9,1.6,2.3,1.9,3.2,1.9c1,0,2.8-0.5,3.2-0.3c0.4,0.3,2.7,1.8,3.9,0.3
					c0.3-0.3,0.4-1.2,0.3-1.8C202.2,170.1,197.7,168.2,197,168.3z"/>
				<path class="st72" d="M191.8,170.6c0.9,1.6,2.3,1.9,3.2,1.9c1,0,2.8-0.5,3.2-0.3c0.4,0.3,2.7,1.8,3.9,0.3
					c0.1-0.2,0.3-0.5,0.3-0.9c-0.9,1.3-3.1,1-3.7,0.5c-0.7-0.5-1.7-0.7-2.5-0.6c-0.9,0.2-2.7,0-3.6-0.9c-0.6-0.5-0.5-1.2-0.4-1.6
					C191.6,169.4,191.3,169.9,191.8,170.6z"/>
				<path class="st73" d="M197.8,113.9c0,0,7.9,10.1,3.9,21.8c-0.9,2.6-2.6,8-2,10.7c0.7,3.2,1.7,2.3,2.4,12.9
					c0.6,9.4,0.5,7.4,0.7,11.2c0.1,1.1-3.9,2.2-4.5,0.5c-2.6-7.4-6.3-22.8-5.5-31.3c0.7-8.5,1.2-16.5,1.2-16.5
					S195.2,116.3,197.8,113.9z"/>
				<path class="st71" d="M184.6,172.7c-0.1,0-6.9-1.5-5.8,1.3c0.7,1.8,2,2.4,3,2.6c1,0.2,3,0,3.4,0.4c0.4,0.4,2.5,2.4,4,1.1
					c0.3-0.3,0.7-1.2,0.6-1.8C189.8,175.6,185.4,172.7,184.6,172.7z"/>
				<path class="st72" d="M178.8,174c0.7,1.8,2,2.4,3,2.6c1,0.2,3,0,3.4,0.4c0.4,0.4,2.5,2.4,4,1.1c0.2-0.1,0.3-0.5,0.5-0.9
					c-1.1,1.2-3.3,0.4-3.9-0.2c-0.6-0.6-1.6-1.1-2.5-1.1c-0.9,0-2.8-0.6-3.6-1.7c-0.5-0.7-0.4-1.3-0.2-1.7
					C178.9,172.8,178.5,173.2,178.8,174z"/>
				<path class="st74" d="M198.3,123.6c0,0,4.5,4.8-3.5,16.8c0,0-3.9,8.6-3.8,11.3c0.2,3.3,1.5,3.6,0.2,14.3
					c-1.1,9.3-0.7,9.5-1.4,10.3c-0.8,0.8-4.6,0-4.7-1.6c-0.7-9.1-2.1-22.5-1.3-31c0.9-9.8,1.6-17.8,1.6-17.8
					S195.4,125.6,198.3,123.6z"/>
				<path class="st73" d="M183.8,143.8c-0.8,8.5,0.6,21.9,1.3,31c0.1,0.7,0.7,1.2,1.4,1.5c-0.1-3.2-0.6-21.8-0.6-26.1
					c0-4.7-0.5-13.6,2.6-16.2c3.2-2.6,4.6-7.3,4.6-7.3l-0.5-1.5c-3.5,0.6-7.2,0.7-7.2,0.7S184.8,134,183.8,143.8z"/>
				<g>
					<path class="st72" d="M197,102.4c0,0-0.4-3.7,3.2-3.8c3.8-0.1,2.9,7.8,2.9,7.8s-0.2,6.8-0.9,8.9c-0.9,2.8-5.9,10.1-5.9,10.1
						s-2.2-0.5-2.9-2.1c0,0,3.9-6.9,4.3-9.5C198.2,111.1,196.9,103.1,197,102.4z"/>
					<path class="st72" d="M196.4,125.5c0,0,5-7.3,5.9-10.1c0.7-2.1,0.9-8.9,0.9-8.9s1.3-7.6-2.9-7.9c-1.7-0.1-2,0.6-2.4,1.2
						c2.8,0.2,3,2,2.8,6.1c-0.3,4.4,0.3,5.7,0,9.5c-0.2,3.8-4.3,7.5-4.9,8.4c-0.4,0.6-1.4-0.1-2-0.7c-0.2,0.3-0.3,0.5-0.3,0.5
						C194.1,125,196.4,125.5,196.4,125.5z"/>
				</g>
				<g>
					<path class="st70" d="M191.2,95.7c0,0,1,2.9-0.4,4.8c-0.8,1,6.7,2.6,6-0.4c-0.6-2.5,0.4-4.8,2.3-6.7L191.2,95.7z"/>
					<path class="st75" d="M191.5,97.8c0,0,1.8-0.4,2.9-1l0.1,0.1l0.7,0.2l0.3,0.1c0,0-0.4,3.1-4.4,2.8
						C191.1,99.8,191.4,99,191.5,97.8z"/>
					<path class="st70" d="M191.1,83.8c0,0-1.2,2-2.8,5.3c-1.4,2.9-1.7,6.3,0.2,7.9c0.9,0.7,7.1,2.2,9.9-5
						C200.1,87.3,197,81.3,191.1,83.8z"/>
				</g>
				<path class="st76" d="M188.3,83.2c-0.7,0.7-0.6,3.4,1.3,4.2c2.7,1.2,0.6,4.8,1.6,5.5c0.5,0.4,0.5-0.3,1.9-1.3
					c0.5-0.4,1.2-0.1,1.3,1.4c0.1,1.5-2.2,3.8-1.6,4.3c0.7,0.5,4.1-1,5-1.6c2.7-1.8,5.2-6.6,1.6-10.9
					C196.4,81.2,189.5,82.1,188.3,83.2z"/>
				<path class="st71" d="M203.1,125.9c0-0.6-0.2-1.4-0.4-2.3c0,0,0-0.1,0-0.1c-0.5-2.5-1.1-3.9-1.1-3.9l0,0c-1-2.7-1.9-3.8-1.4-7.3
					c0.2-1.8,1.8-7,1.6-10.9c-0.2-3.9-4.4-3.8-11.2-1.1c-6.8,2.7-5.8,6.9-5.8,6.9c0.8,4.2,2.5,4.8,1.1,15.3
					c-0.1,0.5-3.1,12.7-3.4,17.6c-0.3,7.3,18.8,5.9,19.8,0.8C203.7,134.7,203.6,129.6,203.1,125.9z"/>
				<g>
					<path class="st70" d="M169.5,107.5c0,0-0.7-0.2-1.7-1.1c-1-1-0.9-0.9-1.2-1.8c-0.3-0.8,0-2,0.3-2.3c0.4-0.4,0.9,0,1.6,1.6
						c0.8,1.7,2.5,1.6,2.8,1.9C171.6,106.1,169.9,107.6,169.5,107.5z"/>
					<path class="st70" d="M169.4,105.8c-0.2-0.1,0.1-0.9-0.8-2.5c-0.7-1.3,0.8,0,1,0.3c0.2,0.3,1.7,2.3,1.7,2.3
						S170.2,106.1,169.4,105.8z"/>
					<path class="st77" d="M190.6,105.9c0.1-0.8-0.5-3.4-2.9-3.6c-1.6-0.1-9,8.2-10.1,8.2c-0.6,0-6.4-5.4-6.4-5.4s0.3,1.6-2.1,2.6
						c0,0,6.1,8.6,8.5,7.9C181.8,114.3,190.3,109.7,190.6,105.9z"/>
				</g>
			</g>
		</g>
		<g class="st19">
			<path class="st20" d="M206.9,162.2c7.7,4.5,7.8,11.7,0.1,16.2c-7.7,4.5-20.2,4.5-27.9,0c-7.7-4.5-7.8-11.7-0.1-16.2
				C186.7,157.7,199.2,157.7,206.9,162.2z"/>
			<g class="st21">
				<path class="st22" d="M207.1,154c7.8,4.5,7.9,11.9,0.1,16.4c-7.8,4.5-20.5,4.5-28.3,0c-7.8-4.5-7.9-11.9-0.1-16.4
					C186.6,149.5,199.2,149.5,207.1,154z"/>
			</g>
			<g class="st23">
				<path class="st24" d="M207.3,145.9c8,4.6,8,12,0.1,16.6c-7.9,4.6-20.8,4.6-28.7,0c-8-4.6-8-12-0.1-16.6
					C186.5,141.3,199.3,141.3,207.3,145.9z"/>
			</g>
			<g class="st19">
				<path class="st25" d="M207.5,137.7c8.1,4.7,8.1,12.2,0.1,16.9c-8,4.7-21,4.7-29.1,0c-8.1-4.7-8.1-12.2-0.1-16.9
					C186.4,133.1,199.4,133.1,207.5,137.7z"/>
			</g>
			<g class="st26">
				<path class="st27" d="M207.7,129.6c8.2,4.7,8.2,12.4,0.1,17.1c-8.1,4.7-21.3,4.7-29.5,0c-8.2-4.7-8.2-12.4-0.1-17.1
					C186.3,124.9,199.5,124.9,207.7,129.6z"/>
			</g>
			<g class="st28">
				<path class="st29" d="M207.9,121.4c8.3,4.8,8.3,12.5,0.1,17.3c-8.2,4.8-21.6,4.8-29.9,0c-8.3-4.8-8.3-12.5-0.1-17.3
					C186.2,116.7,199.6,116.7,207.9,121.4z"/>
			</g>
			<g class="st30">
				<path class="st31" d="M208.1,113.3c8.4,4.8,8.4,12.7,0.1,17.5c-8.3,4.8-21.9,4.8-30.3,0c-8.4-4.8-8.4-12.7-0.1-17.5
					C186.1,108.4,199.7,108.4,208.1,113.3z"/>
			</g>
		</g>
	</g>
</g>
</svg>
