<?xml version="1.0" encoding="utf-8"?>
<!-- Generator: Adobe Illustrator 24.2.0, SVG Export Plug-In . SVG Version: 6.00 Build 0)  -->
<svg version="1.1" id="Layer_1" xmlns="http://www.w3.org/2000/svg" xmlns:xlink="http://www.w3.org/1999/xlink" x="0px" y="0px"
	 viewBox="0 0 320 306.2" style="enable-background:new 0 0 320 306.2;" xml:space="preserve">
<style type="text/css">
	.st0{fill:#94D7EB;}
	.st1{fill:#1A6F7F;}
	.st2{fill:#084C59;}
	.st3{fill:#582D0F;}
	.st4{fill:#0C5D6D;}
	.st5{fill:#033D47;}
	.st6{fill:#207E91;}
	.st7{fill:#2994A9;}
	.st8{fill:#187282;}
	.st9{fill:#278292;}
	.st10{fill:#115C68;}
	.st11{fill:#094E5B;}
	.st12{fill:#238192;}
	.st13{fill:#47BFB9;}
	.st14{fill:#4C6FB5;}
	.st15{fill:#95D4CE;}
	.st16{fill:#1C949C;}
	.st17{fill:#36B1B0;}
	.st18{fill:#92B73E;}
	.st19{opacity:0.1;}
	.st20{fill:#D5ECE6;}
	.st21{fill:#AAD7CD;}
	.st22{fill:#EDF6F3;}
	.st23{enable-background:new    ;}
	.st24{fill:#78451C;}
	.st25{fill:#B3D234;}
	.st26{fill:#93C43D;}
	.st27{fill:#78CFE7;}
	.st28{fill:#CB303D;}
	.st29{fill:#A91E30;}
	.st30{fill:#BFE5F1;}
	.st31{fill:#F2F3F3;}
	.st32{opacity:0.4;}
	.st33{opacity:0;fill:#FCFDFF;}
	.st34{opacity:0.1667;fill:#FDFDFF;}
	.st35{opacity:0.3333;fill:#FDFEFF;}
	.st36{opacity:0.5;fill:#FEFEFF;}
	.st37{opacity:0.6667;fill:#FEFEFF;}
	.st38{opacity:0.8333;fill:#FEFFFF;}
	.st39{fill:#FFFFFF;}
	.st40{opacity:0;fill:url(#SVGID_1_);}
	.st41{opacity:5.000000e-02;fill:url(#SVGID_2_);}
	.st42{opacity:0.1;fill:url(#SVGID_3_);}
	.st43{opacity:0.15;fill:url(#SVGID_4_);}
	.st44{opacity:0.2;fill:url(#SVGID_5_);}
	.st45{opacity:0.25;fill:url(#SVGID_6_);}
	.st46{opacity:0.3;fill:#FFFFFF;}
	.st47{opacity:0;fill:url(#SVGID_7_);}
	.st48{opacity:5.000000e-02;fill:url(#SVGID_8_);}
	.st49{opacity:0.1;fill:url(#SVGID_9_);}
	.st50{opacity:0.15;fill:url(#SVGID_10_);}
	.st51{opacity:0.2;fill:url(#SVGID_11_);}
	.st52{opacity:0.25;fill:url(#SVGID_12_);}
	.st53{fill:#A183B6;}
	.st54{fill:#B8A1C5;}
	.st55{fill:#131315;}
	.st56{fill:#EEB083;}
	.st57{fill:#E6A376;}
	.st58{fill:#91D8F7;}
	.st59{fill:#7ECEF3;}
	.st60{fill:#CA953C;}
	.st61{fill:#E06BA8;}
	.st62{fill:#E186B7;}
</style>
<path class="st0" d="M163,164.4c-0.4,1.5-0.8,3-1.3,4.5C162.3,167.4,162.7,165.9,163,164.4z"/>
<g>
	<g>
		<g>
			<path class="st1" d="M25.4,188.8C25.4,188.8,25.4,188.8,25.4,188.8l-0.2,0.1C25.2,188.9,25.3,188.9,25.4,188.8z"/>
			<path class="st2" d="M294.9,186.5c-0.5,1.7,0.4,5.2-0.2,6.9c0.6-0.5,1.1-1.1,1.4-1.6c2.9-3.9,2.7-7,5-11.2c2.3-4.3,4.7-4.2,7.9-8
				c3.3-3.9-3.2-17.6-3.2-17.6c0-0.1-0.5,0-1.4,0.3c-1.6,3.2-3.6,6.3-6.4,8.4c1.9,3.5,3.9,8,3.5,8.9
				C299,178.7,296.5,182.2,294.9,186.5z"/>
			<g>
				<path class="st3" d="M82.7,95.7c-0.2,1.5-0.1,3.1-0.5,4.5l-0.2,0.1c0.8,0.4,2.9-0.5,3.9-0.5c1.4-0.1,3.2,0.6,2.9-1.1
					c-0.5-2.8-3.7-4.5-5.2-6.8C83.3,93.1,82.9,94.4,82.7,95.7z"/>
				<path class="st3" d="M251.7,117.6h0.5c-0.2-0.1-0.3-0.2-0.5-0.3C251.7,117.4,251.7,117.5,251.7,117.6z"/>
				<path class="st3" d="M246.4,117.1c1.9,0.1,3.7-0.4,5.3,0.5c0-3.8,0.7-7.5,0.6-11.1c-1.1-0.3-4,1.8-5.1,2.3
					c-2.1,1-4.3,1.7-5.9,3.3c-1.5,1.5-2.3,2.8,0,3.9C242.9,116.8,244.6,117,246.4,117.1z"/>
				<path class="st4" d="M305.1,134.7l-3.6-1.1c-9.8-2.5-21-2.5-31.3-3c-22.9-1.1-44.8,2.4-65.2,11.3c-21.4,9.4-45.6,26.6-53.4,48.1
					c-5.5,15.1-9.6,32.6-6.9,48.5c2.8,16.9,12.7,33.6,12.5,50.7c10.4-2.1,18.5-13.5,29.4-16.8c0,0,8.4,5,19.2-3.5
					c14.6-11.4,29.3-24.6,46.6-29c19.2-4.8,26.9-23.2,37.1-28.8c8.3-17.4-2.3-21.1,5.7-34.1C305.1,160.7,299.6,148.6,305.1,134.7z"
					/>
				<path class="st2" d="M205.5,268.9c5.1-4,10.2-8.2,15.4-12.1c0.4-6.4,1.6-12.9,2.7-19.4c1.3-7.6,3.1-16.6-0.3-23.9
					c-1.5-3.2-10.5-9.3-10.5-9.3c-3,8-3.3,24-5.6,32.1c-2.2,7.9-4.2,15.8-5.6,23.8c-0.5,2.9-1,5.8-1.2,8.7c-0.1,1.8,0.1,2.4,0.1,2.5
					c0.1,0.1,0.2,0.3,0.3,0.4C202.4,271.1,203.9,270.2,205.5,268.9z"/>
				<path class="st5" d="M213.4,211.3c-0.1,19-0.7,40.8-6.5,56.5c3.6-2.8,7.2-5.7,10.9-8.6c0.8-5.5,1.8-10.9,2.7-16.4
					C221.9,234.2,215.3,218.9,213.4,211.3z"/>
				<path class="st2" d="M272.2,200.2c-2.5,10.2-2.8,20.6-3.7,31c8.5-7.2,14.1-16.4,20.8-20c8.3-17.4-2.3-21.1,5.7-34.1
					c10.1-16.4,4.6-28.5,10.1-42.4l-3.6-1.1c-0.3-0.1-0.6-0.1-0.9-0.2c-6.1,3.1-11.9,6.5-17.7,10.1c4.2,0.1,8,1,12,2.2
					c4.4,1.3,5.4,5.9,3.3,8.7C293.7,171.6,276.4,182.8,272.2,200.2z"/>
				<path class="st5" d="M299.9,166.2c-5.1,8-10.9,15.7-16.8,23.3c-3.2,10.9-6.7,21.7-9.7,32.7c5.4-8.5,11.8-16.1,19.1-23.1
					c0.4-8.2-3.3-12.7,2.4-22C297.3,173.2,298.9,169.7,299.9,166.2z"/>
				<path class="st2" d="M155.6,205.8c-0.4,0-0.8,0.1-1.2,0c-0.9,20-1.2,40.1-1.9,60.1c2.5,7.7,4.5,15.4,4.4,23.2
					c4.9-1,9.3-4,13.7-7.3c-0.1-1.3-0.2-2.5-0.3-3.8c-0.4-5.9-0.7-12.1-2.9-17.8c-1.8-4.7-5.1-9.4-6.1-14.4
					c-3.3-16.7,3.6-30.3,14.6-42.5C169.4,204.5,162.6,204.9,155.6,205.8z"/>
				<path class="st2" d="M230.5,250c3.9-2.5,7.9-4.8,12-6.6c0.3-4.3,0.7-8.6,1.3-12.8c1.5-10.3,5-18.7,8.8-28.5
					c3.4-8.7,1-18,4.3-26.5c2.6-6.8,6.1-12.8,8-19.5c-4.4,2.3-10,3.8-14.6,3.7c-5.6-0.1-11.3-0.8-16.7,0.9
					c0.3-0.1-15.9,3.4-11.8,5.1c1,0.1,5.4,1.2,6.3,1.5c0.5,0.2,13-0.3,13-0.3c-9.1,19.5-7.2,48.2-8.9,68.9
					C231.7,240.7,231.2,245.4,230.5,250z"/>
				<path class="st5" d="M230.5,250c1-0.6,2-1.3,3-1.9c0.5-8.3,1.8-16.5,2.8-24.8c1.1-8.9,1.5-17.9,3.5-26.8
					c3.4-15.1,7.3-25.9,20.7-36c1.1-0.8,2.2-1.2,3.4-1.3c0.4-1,0.7-2.1,1.1-3.2c-4.4,2.3-10,3.8-14.6,3.7
					c-5.6-0.1-11.3-0.8-16.7,0.9c0.3-0.1-15.9,3.4-11.8,5.1c1,0.1,5.4,1.2,6.3,1.5c0.5,0.2,13-0.3,13-0.3
					c-9.1,19.5-7.2,48.2-8.9,68.9C231.7,240.7,231.2,245.4,230.5,250z"/>
				<path class="st2" d="M193.7,224.6c4.7-11,3.3-22,11.8-33c1.9-2.5,15.1-16.2,15.6-19.1c-9.5,3.1-37,19.7-42.3,27.7
					c1,8.9,1.9,17.8,1.6,26.7c-0.2,9-1.6,17.9-0.5,26.9c0.8,6.6,2.1,13.3,3,19.9c0.9-0.4,1.8-0.8,2.8-1.1c-0.5-7,1.4-13.9,2.7-21
					C190.1,242.3,189.9,233.6,193.7,224.6z"/>
				<path class="st5" d="M202.9,184.2c0.1-0.4,0.1-0.9,0.2-1.3c-9.5,3.1-19,9.4-24.3,17.3c1,8.9,1.9,17.8,1.6,26.7
					c-0.2,9-1.6,17.9-0.5,26.9c0.8,6.6,2.1,13.3,3,19.9c0.8-0.4,1.6-0.7,2.5-1c-0.7-16.6-1-33.3-0.3-49.9
					C185.7,206.9,194,197.1,202.9,184.2z"/>
				<path class="st6" d="M154.5,191.1c-7.9-19.5-40.3-36.9-60.1-45.3c-19.9-8.4-46.8-8.3-68.3-9.3c-5.8-0.3-10.5-0.5-15.6-2
					c0,15.6,0.6,32.2,8.7,45.5c3.3,5.5,6.9,26.3,13.9,38.1c4.7,8,9.5,6.2,17,8.9c11.8,4.3,17.6,19.3,37.5,29.1
					c7.1,3.5,11.6,12.5,26.3,16.9c8.5,2.5,18.8,0.8,18.8,0.8c8.6,3.1,8.9,10.3,24.3,15.1c0.5-15.5-1-31.4-1-47.9
					C155.9,226.3,160.1,204.9,154.5,191.1z"/>
				<path class="st4" d="M74.9,248.1c3.5,2.9,7.6,5.7,12.6,8.2c4.3,2.1,7.6,6.2,12.8,10.1c-3.8-8.4-7.3-16.8-9.7-25.5
					c-3.1-11.4-4.2-23.4-7.7-34.8c0,0.1,0,0.2-0.1,0.3c1.8,5.7,2.6,12.9,1.8,19.8C84.7,235.8,82.5,244.7,74.9,248.1z"/>
				<path class="st7" d="M155.5,208c-2.6-1.8-6.7-4.7-10.1-5.4c0,0.2,0.1,0.5,0.1,0.9c0.1,0.4,0.3,0.8,0.4,1.2
					c0.5,0.4,0.9,0.7,1.3,1.2c10,12.6,6,27.9,6.5,42.3c0.5,12.4,2.3,24.8,3.2,37.1c0.2-14.3-1.1-28.9-1.1-44.1
					c0-9.4,1.6-21.3,1.5-32.3C156.8,208.7,156.1,208.4,155.5,208z"/>
				<path class="st7" d="M144.2,282.7c-1-10.3-2.3-20.6-2.8-30.9c-0.2-4.7,0.3-9.9,0.5-15c-2.9-8.6-6-17.1-7.2-26
					c-2.5-6.3-4.6-13.3,0.3-16.8c1.3-0.9,2.7-1.6,4.1-2c-0.9-0.5-1.8-0.9-2.9-1.2c-3.7,1.9-7.7,3.2-11.9,3.9
					c7.2,18,10.4,36.9,10,55.8c0.1,0.2,0.2,0.4,0.2,0.5c1.1,3.3,0.3,7.1-0.5,10.4c0.1,0.3,0.1,0.6,0.1,0.9c0,4.2-0.2,8.3-0.8,12.2
					C138,276.2,140.2,279.4,144.2,282.7z"/>
				<path class="st7" d="M12.4,135.1c-0.6-0.2-1.3-0.3-2-0.5c0,15.6,0.6,32.2,8.7,45.5c3.3,5.5,6.9,26.3,13.9,38.1
					c2.7,4.6,5.5,6,8.8,6.8c-7.1-13.2-19.9-33.4-12.1-46.7c-4.5-2.8-11.2-10.1-11.2-10.1c0,1.2-3.2-7.8-3.8-17.5
					c-0.2-4.5-0.2-8.9,0.4-13.3C14.1,136.7,13.2,135.9,12.4,135.1z"/>
				<path class="st7" d="M64,237.9c0.3-6.9,0.9-13.9,0.9-20.8c0.1-15.8-7.6-31.2-1.1-46.5c-1.5-1.3-2.6-2.6-3.7-3.9
					c-3.8-2-7.2-4.6-11.1-6.2c-0.1,2.2-0.3,4.4-0.6,6.6c0,0.2,0.1,0.5,0.1,0.7c3.5,8.8,5.2,17.9,6.9,27.3c0.2,0.4,0.4,0.9,0.5,1.4
					c0.5,2.2,0.9,4.4,1.3,6.6c0.5,0.8,0.9,1.7,0.9,2.7c0.6,9.2,1.7,18.2,1,27.4C60.8,234.7,62.4,236.3,64,237.9z"/>
				<path class="st1" d="M56.1,149.6c-5.5-0.8-19.1-2.4-20.4-2.4c1,8.9,1.9,18,4.5,26.6c2.8,9.2,8,17.3,11.4,26.2
					c4,10.8,6.1,21.9,7.7,33.1c1,0.9,1.9,1.8,2.9,2.8c-0.5-18.1-1.5-36.2-5.8-53.9c-2.4-10.1-3.6-13.4-4.5-19.9
					C52.9,161.1,57.1,149.8,56.1,149.6z"/>
				<path class="st2" d="M56.1,149.6c-5.5-0.8-36.4-9.6-37.7-9.5c4.1,6.4,14.9,11.2,18.8,12.2c10,3.2,9.9,9.1,11.7,16
					c2.4,9.2,4.7,18.5,6.8,27.8c2.7,12.1,5.6,25.7,5.4,38.9c0.3,0.3,0.7,0.7,1.1,1c-0.5-18.1-1.5-36.2-5.8-53.9
					C54,172,53,168.4,52.1,162C53.1,160.8,57.1,149.8,56.1,149.6z"/>
				<path class="st1" d="M148.7,186.3c-10.2,0.3-41.7-4-39.3,1.8c7.1,9.3,14.5,23.1,19.3,49.3c2.2,12.3,2.4,24.3,3.9,36.7
					c0.6,0.3,2.2,1,2.7,1.3c0.7-6.6,1.7-13.2,2.3-19.8c1.7-18.8-5.2-39.8-7.1-58.4C130.6,197,145.4,190.1,148.7,186.3z"/>
				<path class="st2" d="M148.7,186.3c-10.2,0.3-58.5-16.8-68.1-13.7l11.7,7.5c10.4,3.6,27,16.6,26.9,17
					c2.4,1.3,11.2,19.9,12.9,27.5c3.5,15.8,5.1,33.8,1.8,49.9c0.5,0.2,0.9,0.5,1.4,0.7c0.7-6.6,1.7-13.2,2.3-19.8
					c1.7-18.8-5.2-39.8-7.1-58.4C130.6,197,145.4,190.1,148.7,186.3z"/>
				<path class="st8" d="M245.9,188.6c-0.8,5.9,2.4,36.1,0.6,41.7c6.2-0.2,4.7-1.5,10.9-2c5-0.4,16.2-23.8,21.1-25.4
					c4.9-1.7,14.6-7,17.6-11c2.9-3.9,2.7-7,5-11.2c2.3-4.3,4.7-4.2,7.9-8c3.3-3.9-3.2-17.6-3.2-17.6l-24.6,8c-2.6,1-5.3,1.8-8,2.8
					c-1.4,0.5-2.9,1-4.3,1.6c-5.7,2.2-11.5,4.2-17.5,5.8c-0.2,0-0.4,0.1-0.5,0.1c-0.5,0.2-0.9,0.2-1.3,0.1l-0.5,0.2
					c0,0,0.2,6-0.1,7.5C248.4,183.8,246.3,185.8,245.9,188.6z"/>
				<path class="st9" d="M258.5,214.4c-1.4,4.7-2.6,9.4-3.3,14.2c0.6-0.1,1.3-0.2,2.2-0.3c0.6,0,1.2-0.4,1.9-0.9
					c2.3-8.9,7-16.9,11.8-25.2c3.5-6.2,6.3-12.4,8.8-19c1.1-3,3.1-4.6-2.6-5.1c-3-0.2-6-0.4-9-0.5c4,4.7,7.5,8.3,3.9,15.1
					C268.2,200.1,260.9,206.5,258.5,214.4z"/>
				<path class="st10" d="M257.9,228.2c5.2-1.8,15.9-23.7,20.6-25.3c4.9-1.7,14.6-7,17.6-11c2.9-3.9,2.7-7,5-11.2
					c2.3-4.3,4.7-4.2,7.9-8c3.3-3.9-3.2-17.6-3.2-17.6c0-0.7-16.1,5.2-28.6,14.4c-2.6,2.6-0.3,9.6-0.3,10.4c0.5,8.7-1.3,13.3-8.6,23
					C262.4,210.5,259.5,219.1,257.9,228.2z"/>
				<path class="st2" d="M257.9,228.2c2.3-0.8,5.7-5.6,9.2-10.8c-2.6-9,4.7-17.4,10.9-24.7c1.9-5.7,3.5-11.4,6.5-16.6
					c-0.1,0-0.2-0.1-0.2-0.2c-0.6-0.4-1.2-0.8-1.8-1.2c-1.9-0.5-4.2,0.3-6.3,0.7c0.3,2.1,0.8,3.9,0.8,4.2c0.5,8.7-1.3,13.3-8.6,23
					C262.4,210.5,259.5,219.1,257.9,228.2z"/>
				<path class="st10" d="M231.1,256.3c3.3-2.1,5-15.6,7.6-25.1c2.2-8.4,15.6-20.2,15.9-28.8l-0.4,0.4c-6.2-4.7-13.3,0.5-18.8,2.4
					c-7.4,2.6-15.4,0.3-22.4-0.9c-0.5,5,0.9,12.3,1.4,17.8c0.6,6,3.2,31.5,3.4,37.3C222.7,260.9,226.4,259.4,231.1,256.3z"/>
				<path class="st2" d="M232.1,223.8c3.8-8.7,14.5-11.3,21.6-17.4c0.5-1.2,0.8-2.4,0.9-3.5c-6.3,5-14.8,8.5-23,9.3
					c0,0.2-0.1,0.4-0.1,0.6c-5,15.3-6.2,30.9-6.6,46.7c1.5-0.4,3.1-1.2,4.7-2.1c0-7,0.5-13.9,0.9-20.8
					C230.7,232.5,230.4,227.5,232.1,223.8z"/>
				<path class="st8" d="M226.4,258.9c0.1-18.1,3.2-38.4,9.8-55.5c-7,1.8-16.8,2-23.3,0.9c-0.5,5,0.9,12.3,1.4,17.8
					c0.6,6,3.2,31.5,3.4,37.3C221,260.3,223.6,260,226.4,258.9z"/>
				<path class="st9" d="M224.6,259.5c0.6-0.2,1.2-0.4,1.9-0.6c0.1-14.6,2.2-30.6,6.5-45.3c-3.2,0.3-6.5,0-9.2-1
					c4.7,6.1,4.3,12.2,3,19.3C224.9,241.1,224.8,250.3,224.6,259.5z"/>
				<path class="st4" d="M41.4,193.8c0.6,6.2,5,14.7,7.9,20.7c2.8,5.6,5.6,11.4,8.8,19.9c0.7,0,2.2,0.6,2.9,0.6
					c-0.1-7.4,0.2-13.4-1.2-20.7c-3-15.7-4.7-21.4-6.8-29.2C49.5,187.2,45.5,192.4,41.4,193.8z"/>
				<path class="st11" d="M53.4,186.1c-0.1-0.4-0.2-0.7-0.3-1.1c-3.7,2.2-7.6,7.3-11.7,8.8c0.6,6.2,5,14.7,7.9,20.7
					c2.8,5.6,5.6,11.4,8.8,19.9c0.2,0,0.4,0,0.7,0.1c-2.3-8.6-4.3-17.2-7-25.8c-1-3.2-2.8-7.5-1.9-11
					C51,193.8,53.1,190.3,53.4,186.1z"/>
				<path class="st1" d="M25.4,188.8c6.1,7.5,13.3,14.6,17.2,23c3.2,6.8,7.2,20.4,15.6,22.6c-3.2-11.7-9.7-27.1-12.3-35.8
					C44.4,194,35.1,179.9,25.4,188.8z"/>
				<path class="st12" d="M25.4,188.8c0.1,0.2,0.3,0.3,0.4,0.5c0.4,0,0.8,0,1.2,0.2c13.2,5.2,18.3,11.7,22.2,23.9
					c2,6.2,4.7,11.8,7.8,17.6c0.2,0.4,0.4,0.8,0.6,1.3c-3.4-11.4-9.2-25.5-11.7-33.6C44.4,194,35.1,179.9,25.4,188.8z"/>
				<path class="st1" d="M144.9,271.3c-0.4-11.6,4.8-25,7.5-35.8c-6.7,0.2-7.8-7.4-9.8-12.3c-2-4.7-3.2-10.9-4.9-14.9L137,208
					c2,5.4,2.1,11.9,3.9,17.7c0.8,2.5,1.5,5,2.6,7.4c0.4,0.9,0.8,1.9,1.5,2.7c0.8,0.8,2.6,0.9,3,1.7c0.7,1.3-1.2,5-1.7,6.5
					c-0.9,3-1.4,5-1.4,8.2c0,3.5,0.2,7,0,10.5C144.8,265.3,143.7,268.9,144.9,271.3z"/>
				<path class="st4" d="M79.5,188.1c-0.5-2.3-1.1-13.3-1.8-15.5c-2-1.2-5.7-0.9-7.9-1.6c-1.4-0.4-6.4-1-5.7-0.3l-0.4-0.3
					c0.8,2.2,0,15.8,0,18.1c1.6-0.3,4.4-8.7,6.1-8.6c0.2,4.2,0.9,8.3-0.4,11.9c4.8,2.5,3,6.3,2.6,10.5c-0.5,4.8,3.2,2.1,2.8,6.9
					c-0.3,4-3.9,15.3-3.3,19.3c0,0,3.4,8.1,3.3,10.5c0,0.3,0.1,0.1,0.4-0.5c-3.1-10.5,0.6-21,4.1-31.2c-0.1-2.1-0.1-4.1,0-6.2
					c0.1-1.5,0.1-2.9,0.2-4.4C78.5,191.3,79.7,193.4,79.5,188.1z"/>
				<path class="st13" d="M252.3,106.4c-16.2-15.7-37.7-16-51-26.5c-6.6-5.2-36.4-18.2-44.3-22.9c-18.1,9.7-31.4,9.6-39.2,19.1
					c-7.8,9.3-23.4,10.4-34.3,16.1c0.6,1.3,2,4.5,2.7,5.9c-13.8-2.2-31,11-44.3,18.9C30.2,124,10,134,10,134
					c15.2,14.9,28.3,17.5,43.7,19.5c1.1,2.6-3,6.6-0.9,10.9c6.5,13.2,55.1,18.8,66.6,30.7c2.8,2.9,17.3-3.7,17.3-3.7
					c0,2.4-6.1,5.6-6.1,5.6c14.3,7.4,21.1,14.9,27.2,14.1c6-0.8,22.4-9.7,27.7-12.6c10.4-5.8,13.7-11.9,24.8-15.7
					c13.6-4.6,20.8-4.9,30.7-15.8c-5.6-0.5-10.6-1.6-16.4-1.5c14.1-5.9,30.8-1.7,45-9.4c11.2-6,22.6-19.3,35.4-21.5
					c-4.4-4.2-15.7-11.9-43.8-24.1l-17.6,2.8C245.7,111.9,250.6,108.2,252.3,106.4z"/>
				<path class="st14" d="M87,179.3c-3.1-0.4-6.1-0.8-9.2-1.4c-0.3,0-0.7,0-1,0c3.9,1.3,8.1,2.6,12.2,3.9c-0.2-0.1-0.4-0.2-0.7-0.4
					C87.4,180.9,87,180.1,87,179.3z"/>
				<path class="st15" d="M193.5,190.8c-5.2,4.6-28.8,16.8-36,18c-5.3,0.9-7.2-4.6-21.1-10.9c-3.3-1.5,3.9-7.4,4.4-8.8
					c-5,0.7-9.7,2-14.6,3.8c-2,0.8-6.5,0.6-8-0.6c-11.9-10.5-43.7-16.4-52.2-19.6c-4.7-1.8-11.6-5.6-12.2-10.5
					c-0.4-2.9,1.4-5.3,2.3-8c1.4-4-6-3.2-8.2-3.6c-8.2-1.6-29.9-7.9-38-16.5l0,0c15.2,14.9,28.3,17.5,43.7,19.5
					c1.1,2.6-3,6.6-0.9,10.9c6.5,13.2,55.1,18.8,66.6,30.7c2.8,2.9,17.3-3.7,17.3-3.7c0,2.4-6.1,5.6-6.1,5.6
					c14.3,7.4,21.1,14.9,27.2,14.1c6-0.8,22.4-9.7,27.7-12.6c10.4-5.8,13.7-11.9,24.8-15.7c13.6-4.6,20.8-4.9,30.7-15.8
					c-5.6-0.5-10.6-1.6-16.4-1.5c14.1-5.9,30.8-1.7,45-9.4c9-4.8,18.1-14.3,27.9-19c-7,1.4-13.3,7.1-19.1,10.8
					c-8.3,5.3-14.9,9.9-25.2,11.2c-6.5,0.8-24.3,2.7-27.3,4.3c-2.7,1.5-5.2,2.8-2.1,3c7.8,0.6,14.1,2,14.1,2
					c-13.8,10.9-28.7,10.3-32.8,12.7C200.5,183.8,197.3,187.4,193.5,190.8z"/>
				<path class="st5" d="M282.4,196.8c5.1-9,10.3-18,12.5-28c-5,1.1-12.5-0.8-17.7,0c-1.7,1.8,8.2,3.5,9,5.5c0,0-0.5,4.3-0.8,5.8
					C284.4,185.6,283.4,191.2,282.4,196.8z"/>
				<path class="st16" d="M280.6,170.1c1.1-0.5,13.3,0.1,14.5-0.5c8.4-3.5,8.6-7.5,10.7-10.7c3-4.6-3.5-6.6-11.8-5.9
					c-9.5,9.8-30,16.4-45,20.6c4.5,4.1,12,0.8,15.8,3.1c5.7,3.6,12.2,3.1,12.2,3.1s6.7-3.5,9.2-5.5
					C287.5,173.2,278.5,171.1,280.6,170.1z"/>
				<path class="st13" d="M277,178.5c-2.7,0.3-9.4-2.9-12.2-3.2c-5.2-0.5-3.4,0.4-8.6-0.5c-1.7-0.3-4.2-1.3-5.9-1.5
					c-0.4,0.1-0.8,0.2-1.2,0.3c4.5,4.1,12,0.8,15.8,3.1c5.7,3.6,12.2,3.1,12.2,3.1s6.7-3.5,9.2-5.5c1.3-1-7.7-3.2-5.6-4.2
					c1.1-0.5,13.3,0.1,14.5-0.5c7-2.9,8.3-6.2,9.8-9c-3.5,4.8-7.6,8.1-20.2,6.6c0,0,0,0-0.1,0c-2.5,0.4-4.8,0.9-7.3,1.8
					c-0.1,0-0.2,0-0.3,0.1c1.4,1.2,2.4,3,4.4,3.6C286.7,174.2,279,178.3,277,178.5z"/>
				<path class="st16" d="M235.8,214c3.9-1.4,16.9-7.3,18.6-10.7c2.3-4.8-15.9-6.8-20.2-5.3c0,0-5.9,2.9-8.9,4.1
					c-3.5,1.4-8.5,2.9-12.4,2.2c0.3,0.9,1.1,2.5,2,3.4C219.2,212.2,229.8,216.2,235.8,214z"/>
				<path class="st13" d="M235.8,214c3.4-1.2,13.6-5.8,17.3-9.2c-11.2,7.7-29.8,10-38.9-0.4c-0.4,0-0.9-0.1-1.3-0.2
					c0.3,0.9,1.1,2.5,2,3.4C219.2,212.2,229.8,216.2,235.8,214z"/>
				<path class="st17" d="M30,190.6c5.7,1.2,11.1,5,15.8,8.1c3.2-3.7,7.3-8.1,7.3-13.6c-4.1-1.5-8.9-3.7-11.4-6.9
					C32.8,181.7,17.3,188.9,30,190.6z"/>
				<path class="st15" d="M43.8,195.5c-2.7-2.2-9.6-4.9-15.5-6c-3-0.6-2.6-1.6-2.8-2.1c-0.7,1.4,0.4,2.6,4.6,3.2
					c5.7,1.2,11.1,5,15.8,8.1c3.1-3.6,7.1-7.9,7.2-13.2c-1.3,3.5-2.2,4.5-4.1,7.6C48.1,194.4,45.1,196.6,43.8,195.5z"/>
				<path class="st4" d="M108.4,206.1c-2.3,2.2-3.6,4-5,6.8c-3.4,6.7-5.1,11.6-3.2,19.4c2.3,9.3,5.9,18.1,9.3,27.1
					c2.3,6.2,5.8,17.7,12,21.6c2.5-2.1,5.7-4.2,7.9-6.6c-4-10.4-6.2-23.6-7.4-34.9c-1.3-11.6-3.4-23.6-4.4-34.9
					C114.7,203.4,110.1,204.4,108.4,206.1z"/>
				<path class="st11" d="M117.6,205.8c0-0.5-0.1-0.9-0.2-1.4c-2.8-1-7.4,0-9.1,1.6c-2.3,2.2-3.6,4-5,6.8
					c-3.4,6.7-5.1,11.6-3.2,19.4c2.3,9.3,5.9,18.1,9.3,27.1c2.3,6.2,5.8,17.7,12,21.6c2.1-1.7,4.7-3.6,6.8-5.5
					c-8.1-5.6-8.6-15.8-12.2-24.9c-3-7.5-5.4-14.8-5.3-22.9c0.1-7.7,4-13.4,6.3-20.6C117.2,206.6,117.4,206.2,117.6,205.8z"/>
				<path class="st1" d="M103.2,210.2c-3.6-2-9.3-2.9-13.3-5.2c-3.5-2-20-8.6-24.2-8.2c0.7,11.1,12.3,24.9,17.5,36.7
					c5.6,12.8,10,21.1,14,34.3c1.4,4.7,12.2,3.7,17.2,12.6l7.1,0.5c0,0-1.5-8.7-2.6-12.2c-1.4-4.4-9.2-30.5-11.2-39
					C106.3,224.1,108.8,213.2,103.2,210.2z"/>
				<path class="st12" d="M106.3,214.3c-3,0.8-6.2,0.9-9.4,0.8c9.7,8,11.9,22.2,14.1,33.5c2.2,11.1,7,21.5,9.8,32.3l0.7,0
					c0,0-1.5-8.7-2.6-12.2c-1.4-4.4-9.2-30.5-11.2-39C106.7,225.7,107.7,218.9,106.3,214.3z"/>
				<path class="st17" d="M66.7,194.3c-4.5,3.7,7.2,16.2,13.9,19.2c7,3.2,16.4,3.8,24.1,3c7-0.7,13.1-12.6,13.1-12.6
					c-4.1-2.5-13.1-3.5-19.5-7.3c-8.3-5-18.6-10.1-18.6-10.1C75.1,190.5,71.1,190.7,66.7,194.3z"/>
				<path class="st15" d="M66.7,194.3c-4.5,3.7,7.2,16.2,13.9,19.2c7,3.2,16.4,3.8,24.1,3c5.5-0.6,10.5-8.1,12.4-11.2
					c-9.3,10.2-17.7,11.5-35,5.9c-5.2-1.7-17.1-8.6-14.1-17.8C67.5,193.6,67.1,193.9,66.7,194.3z"/>
				<path class="st18" d="M192.7,81.3c0.2-0.1,0.5-0.2,0.8-0.2c-0.2-0.5-0.4-1-0.8-1.6V81.3z"/>
			</g>
		</g>
	</g>
</g>
<g>
	<g>
		<g class="st19">
			<polygon points="76.4,160.4 134,193.9 261,120.6 203.4,87.1 			"/>
		</g>
		<g>
			<polygon class="st20" points="87,148.5 87,157.4 138,187.1 138,178.1 			"/>
		</g>
		<g>
			<polygon class="st21" points="138,178.1 138,187.1 250.4,122.2 250.4,113.2 			"/>
		</g>
		<g>
			<polygon class="st22" points="87,148.5 138,178.1 250.4,113.2 199.4,83.6 			"/>
		</g>
		<g>
			<g class="st23">
				<g>
					<polygon class="st21" points="171.1,130.5 171.1,150.9 139.9,169 139.9,148.6 					"/>
				</g>
				<g>
					<polygon class="st20" points="139.9,148.6 139.9,169 105.5,149.2 105.6,128.8 					"/>
				</g>
				<g>
					<polygon class="st22" points="171.1,130.5 139.9,148.6 105.6,128.8 136.8,110.7 					"/>
				</g>
			</g>
		</g>
		<g>
			<polygon class="st24" points="164.4,130.3 139.6,144.7 112.3,129 137.1,114.6 			"/>
		</g>
		<path class="st25" d="M136,126.2c0,0-11.5-38.3,18-47.2c4.7-1.4,9.1-2.7,19.5-2.9c0,0-50.3,7.2-31.8,51.1L136,126.2z"/>
		<path class="st26" d="M136.6,133.4c0,0-8.6-36.1,18.1-45.5c0,0-22.7,16.2-12.3,45.2L136.6,133.4z"/>
		<path class="st26" d="M136,126.9c0,0-7.4-39.3-37.6-33.7c-4.8,0.9-9.4,1.8-18.6,6.4c0,0,48-16.7,51.7,30.8L136,126.9z"/>
		<path class="st25" d="M136.4,128.6c0,0-17.1-32.9-43.5-22.5c0,0,26.1-2.7,37.3,26.1L136.4,128.6z"/>
		<path class="st26" d="M144.1,132.2c0,2.3-3.1,4.1-6.9,4.1c-3.8,0-6.9-1.8-6.9-4.1c0-2.3,3.1-4.1,6.9-4.1
			C141,128.1,144.1,129.9,144.1,132.2z"/>
		<g>
			<path class="st25" d="M136.4,131.6c0,0,8.2-39.1-21.9-45.5c-4.8-1-9.3-1.9-19.7-1.2c0,0,51.1,1.6,36.4,47L136.4,131.6z"/>
			<path class="st26" d="M136.4,131.6c0,0-3.2-36.9-31.6-37.4c0,0,26.1,7.2,25.5,38L136.4,131.6z"/>
			<path class="st26" d="M136.4,132.2c0,0,4-39.8,34.7-36.7c4.9,0.5,9.5,1,19.1,4.8c0,0-49.2-12.6-48.9,35.1L136.4,132.2z"/>
			<path class="st26" d="M136.4,132.2c0,0,14.3-34.2,41.5-26.1c0,0-28.4,1.2-33.9,26.6L136.4,132.2z"/>
		</g>
		<path class="st25" d="M194.2,96.2c0,0-11.5-38.3,18-47.2c4.7-1.4,9.1-2.7,19.5-2.9c0,0-50.3,7.2-31.8,51.1L194.2,96.2z"/>
		<path class="st26" d="M194.8,103.4c0,0-8.6-36.1,18.1-45.5c0,0-22.7,16.2-12.3,45.2L194.8,103.4z"/>
		<path class="st26" d="M194.2,96.9c0,0-7.4-39.3-37.6-33.7c-4.8,0.9-9.4,1.8-18.6,6.4c0,0,48-16.7,51.7,30.8L194.2,96.9z"/>
		<path class="st26" d="M202.2,102.2c0,2.3-3.1,4.1-6.9,4.1c-3.8,0-6.9-1.8-6.9-4.1s3.1-4.1,6.9-4.1
			C199.1,98.1,202.2,99.9,202.2,102.2z"/>
		<g>
			<g>
				<polygon class="st21" points="223.5,101.8 223.4,122.2 192.2,140.3 192.3,119.9 				"/>
			</g>
			<g>
				<polygon class="st20" points="192.3,119.9 192.2,140.3 157.9,120.5 158,100 				"/>
			</g>
			<g>
				<polygon class="st22" points="223.5,101.8 192.3,119.9 158,100 189.1,81.9 				"/>
			</g>
			<g>
				<polygon class="st24" points="216.7,101.6 192,116 164.7,100.2 189.5,85.8 				"/>
			</g>
			<path class="st25" d="M192.2,101.4c0,0-17.1-32.9-43.5-22.5c0,0,26.1-2.7,37.3,26.1L192.2,101.4z"/>
			<g>
				<path class="st25" d="M192.1,104.4c0,0,8.2-39.1-21.9-45.5c-4.8-1-9.3-1.9-19.7-1.2c0,0,51.1,1.6,36.4,47L192.1,104.4z"/>
				<path class="st26" d="M192.1,104.4c0,0-3.2-36.9-31.6-37.4c0,0,26.1,7.2,25.5,38L192.1,104.4z"/>
				<path class="st26" d="M192.2,105.1c0,0,4-39.8,34.7-36.7c4.9,0.5,9.5,1,19.1,4.8c0,0-49.2-12.6-48.9,35.1L192.2,105.1z"/>
				<path class="st26" d="M192.2,105.1c0,0,14.3-34.2,41.5-26.1c0,0-28.4,1.2-33.9,26.6L192.2,105.1z"/>
			</g>
		</g>
		<g>
			<g>
				<g>
					<path class="st27" d="M240.2,110.1c3.7,2.1,3.7,5.5,0,7.7c-3.6,2.1-9.6,2.1-13.2,0c-3.7-2.1-3.7-5.5,0-7.7
						C230.7,108,236.6,108,240.2,110.1z"/>
				</g>
				<path class="st21" d="M227.1,108l-2.4,4.5c0,0,6.5,5.1,10.4,3.8c4-1.3,7.6-3.8,7.6-3.8l-2.1-4.1L227.1,108z"/>
				<g>
					<path class="st21" d="M240.2,110.1c3.7,2.1,3.7,5.5,0,7.7c-3.6,2.1-9.6,2.1-13.2,0c-3.7-2.1-3.7-5.5,0-7.7
						C230.7,108,236.6,108,240.2,110.1z"/>
				</g>
				<g>
					<path class="st20" d="M238.7,106.6c2.8,1.6,2.8,4.2,0,5.8c-2.8,1.6-7.2,1.6-10,0c-2.8-1.6-2.8-4.2,0-5.8
						C231.4,105,235.9,105,238.7,106.6z"/>
				</g>
			</g>
			<g>
				<path class="st22" d="M233.8,111.7h1.1c2.3,0,4.2-1.9,4.2-4.2V69.7h-9.5v37.8C229.6,109.8,231.5,111.7,233.8,111.7z"/>
				<path class="st28" d="M233.9,110.4h0.8c1.7,0,3.1-1.4,3.1-3.1V79.4h-7v27.9C230.8,109,232.2,110.4,233.9,110.4z"/>
				<g>
					<path class="st29" d="M236.9,78c1.3,0.8,1.3,2.1-0.1,2.9c-1.4,0.8-3.6,0.8-5-0.1c-1.3-0.8-1.3-2.1,0.1-2.9
						C233.3,77.2,235.5,77.2,236.9,78z"/>
				</g>
				<g>
					<g>
						<g>
							<path class="st21" d="M229,69.7v-1c0,0.7,0.5,1,1.5,1.6c2,1.2,5.3,1.2,7.4,0.1c1.1-0.6,1.6-0.8,1.6-1.6v0.9
								c0,0.8-0.5,1.6-1.6,2.2c-2.1,1.2-5.4,1.1-7.4-0.1C229.5,71.2,229,70.5,229,69.7z"/>
						</g>
						<g>
							<path class="st30" d="M238,66.9c2,1.2,1.9,3.1-0.2,4.3c-2.1,1.2-5.4,1.1-7.4-0.1c-2-1.2-1.9-3.1,0.2-4.3
								C232.7,65.7,236,65.7,238,66.9z"/>
							<path class="st21" d="M234.2,71.3c-1.3,0-2.5-0.3-3.4-0.8c-0.7-0.4-1.1-1-1.1-1.5c0-0.5,0.5-1.1,1.2-1.5
								c0.9-0.5,2-0.8,3.3-0.8c1.3,0,2.5,0.3,3.4,0.8c0.7,0.4,1.1,1,1.1,1.5c0,0.5-0.5,1.1-1.2,1.5C236.6,71,235.5,71.3,234.2,71.3z
								"/>
							<path class="st21" d="M231,68.1c0.9-0.5,2-0.8,3.3-0.8c1.3,0,2.5,0.3,3.4,0.8c0.6,0.3,0.9,0.7,1,1.1c0-0.1,0.1-0.2,0.1-0.3
								c0-0.5-0.4-1-1.1-1.5c-0.9-0.5-2.1-0.8-3.4-0.8c-1.2,0-2.4,0.3-3.3,0.8c-0.8,0.4-1.2,1-1.2,1.5c0,0.1,0,0.2,0.1,0.3
								C230,68.9,230.4,68.4,231,68.1z"/>
						</g>
					</g>
					<path class="st21" d="M227.9,69.7c0,0,1,0.8,1.8,1.5c0.8,0.7-0.2-1.1-0.2-1.1L227.9,69.7z"/>
					<path class="st30" d="M229.2,68.7c0,0-1.9,0.9-1.3,1c0.6,0.2,2.2,0.5,2.2,0.5S229.2,69.3,229.2,68.7z"/>
					<path class="st21" d="M230.4,68.9c0,0-2.2,0.6-1.9,0.7c0.6,0.3,1.7,0.3,1.9,0.2L230.4,68.9z"/>
				</g>
				<g>
					<path class="st31" d="M238.7,75c0.1-0.1,0.2,0,0.2,0.1c0,0.2-0.1,0.3-0.2,0.4l-2,1.2c-0.1,0.1-0.2,0-0.2-0.1
						c0-0.2,0.1-0.3,0.2-0.4L238.7,75z"/>
				</g>
				<g>
					<path class="st31" d="M238.7,77.6c0.1-0.1,0.2,0,0.2,0.1c0,0.2-0.1,0.3-0.2,0.4l-2,1.2c-0.1,0.1-0.2,0-0.2-0.1
						c0-0.2,0.1-0.3,0.2-0.4L238.7,77.6z"/>
				</g>
				<g>
					<path class="st31" d="M238.7,81.6c0.1-0.1,0.2,0,0.2,0.1c0,0.2-0.1,0.3-0.2,0.4l-2,1.2c-0.1,0.1-0.2,0-0.2-0.1
						c0-0.2,0.1-0.3,0.2-0.4L238.7,81.6z"/>
				</g>
				<g>
					<path class="st31" d="M238.7,84.2c0.1-0.1,0.2,0,0.2,0.1c0,0.2-0.1,0.3-0.2,0.4l-2,1.2c-0.1,0.1-0.2,0-0.2-0.1
						c0-0.2,0.1-0.3,0.2-0.4L238.7,84.2z"/>
				</g>
				<g>
					<path class="st31" d="M238.7,89.5c0.1-0.1,0.2,0,0.2,0.1c0,0.2-0.1,0.3-0.2,0.4l-2,1.2c-0.1,0.1-0.2,0-0.2-0.1
						c0-0.2,0.1-0.3,0.2-0.4L238.7,89.5z"/>
				</g>
				<g>
					<path class="st31" d="M238.7,92.2c0.1-0.1,0.2,0,0.2,0.1c0,0.2-0.1,0.3-0.2,0.4l-2,1.2c-0.1,0.1-0.2,0-0.2-0.1
						c0-0.2,0.1-0.3,0.2-0.4L238.7,92.2z"/>
				</g>
				<g>
					<path class="st31" d="M238.7,96.1c0.1-0.1,0.2,0,0.2,0.1c0,0.2-0.1,0.3-0.2,0.4l-2,1.2c-0.1,0.1-0.2,0-0.2-0.1
						c0-0.2,0.1-0.3,0.2-0.4L238.7,96.1z"/>
				</g>
				<g>
					<path class="st31" d="M238.7,98.8c0.1-0.1,0.2,0,0.2,0.1c0,0.2-0.1,0.3-0.2,0.4l-2,1.2c-0.1,0.1-0.2,0-0.2-0.1
						c0-0.2,0.1-0.3,0.2-0.4L238.7,98.8z"/>
				</g>
			</g>
		</g>
		<g>
			<g>
				<g>
					<path class="st27" d="M187.8,140.3c3.7,2.1,3.7,5.5,0,7.7c-3.6,2.1-9.5,2.1-13.2,0c-3.7-2.1-3.7-5.5,0-7.6
						C178.2,138.2,184.1,138.2,187.8,140.3z"/>
				</g>
				<path class="st21" d="M174.6,138.2l-2.4,4.5c0,0,6.5,5.1,10.4,3.8c4-1.3,7.6-3.8,7.6-3.8l-2.1-4L174.6,138.2z"/>
				<g>
					<path class="st21" d="M187.8,140.3c3.7,2.1,3.7,5.5,0,7.7c-3.6,2.1-9.5,2.1-13.2,0c-3.7-2.1-3.7-5.5,0-7.6
						C178.2,138.2,184.1,138.2,187.8,140.3z"/>
				</g>
				<g>
					<path class="st20" d="M186.2,136.7c2.8,1.6,2.8,4.2,0,5.8c-2.8,1.6-7.2,1.6-10,0c-2.8-1.6-2.8-4.2,0-5.8
						C179,135.1,183.4,135.1,186.2,136.7z"/>
				</g>
			</g>
			<g>
				<path class="st22" d="M181.3,141.9h1.1c2.3,0,4.2-1.9,4.2-4.2V99.9h-9.5v37.8C177.1,140,179,141.9,181.3,141.9z"/>
				<path class="st28" d="M181.5,140.6h0.8c1.7,0,3.1-1.4,3.1-3.1v-27.9h-7v27.9C178.3,139.2,179.7,140.6,181.5,140.6z"/>
				<g>
					<path class="st29" d="M184.4,108.1c1.3,0.8,1.3,2.1-0.1,2.9c-1.4,0.8-3.6,0.8-5-0.1c-1.3-0.8-1.3-2.1,0.1-2.9
						C180.8,107.3,183.1,107.3,184.4,108.1z"/>
				</g>
				<g>
					<g>
						<g>
							<path class="st21" d="M176.6,99.9v-1c0,0.8,0.5,1,1.4,1.6c2,1.2,5.3,1.2,7.4,0.1c1.1-0.6,1.6-0.8,1.6-1.6v0.9
								c0,0.8-0.5,1.6-1.6,2.2c-2.1,1.2-5.4,1.1-7.4-0.1C177.1,101.4,176.6,100.6,176.6,99.9z"/>
						</g>
						<g>
							<path class="st30" d="M185.5,97c2,1.2,1.9,3.1-0.2,4.3c-2.1,1.2-5.4,1.1-7.4-0.1c-2-1.2-1.9-3.1,0.2-4.3
								C180.2,95.8,183.5,95.8,185.5,97z"/>
							<path class="st21" d="M181.8,101.4c-1.3,0-2.5-0.3-3.4-0.8c-0.7-0.4-1.1-1-1.1-1.5c0-0.5,0.5-1.1,1.2-1.5
								c0.9-0.5,2-0.8,3.3-0.8c1.3,0,2.5,0.3,3.4,0.8c0.7,0.4,1.1,1,1.1,1.5c0,0.5-0.5,1.1-1.2,1.5
								C184.2,101.2,183,101.4,181.8,101.4z"/>
							<path class="st21" d="M178.5,98.2c0.9-0.5,2-0.8,3.3-0.8c1.3,0,2.5,0.3,3.4,0.8c0.6,0.3,0.9,0.7,1,1.1c0-0.1,0-0.2,0-0.3
								c0-0.5-0.4-1-1.1-1.5c-0.9-0.5-2.1-0.8-3.4-0.8c-1.2,0-2.4,0.3-3.3,0.8c-0.8,0.4-1.2,1-1.2,1.5c0,0.1,0,0.2,0.1,0.3
								C177.5,99,177.9,98.6,178.5,98.2z"/>
						</g>
					</g>
					<path class="st21" d="M175.4,99.8c0,0,1,0.8,1.8,1.5c0.8,0.7-0.2-1.1-0.2-1.1L175.4,99.8z"/>
					<path class="st30" d="M176.8,98.8c0,0-1.9,0.9-1.3,1c0.6,0.2,2.2,0.5,2.2,0.5S176.8,99.5,176.8,98.8z"/>
					<path class="st21" d="M177.9,99.1c0,0-2.2,0.6-1.9,0.7c0.6,0.3,1.7,0.3,1.9,0.2L177.9,99.1z"/>
				</g>
				<g>
					<path class="st31" d="M186.2,105.1c0.1-0.1,0.2,0,0.2,0.1c0,0.2-0.1,0.3-0.2,0.4l-2,1.2c-0.1,0.1-0.2,0-0.2-0.1
						c0-0.2,0.1-0.3,0.2-0.4L186.2,105.1z"/>
				</g>
				<g>
					<path class="st31" d="M186.2,107.8c0.1-0.1,0.2,0,0.2,0.1c0,0.2-0.1,0.3-0.2,0.4l-2,1.2c-0.1,0.1-0.2,0-0.2-0.1
						c0-0.2,0.1-0.3,0.2-0.4L186.2,107.8z"/>
				</g>
				<g>
					<path class="st31" d="M186.2,111.7c0.1-0.1,0.2,0,0.2,0.1c0,0.2-0.1,0.3-0.2,0.4l-2,1.2c-0.1,0.1-0.2,0-0.2-0.1
						c0-0.2,0.1-0.3,0.2-0.4L186.2,111.7z"/>
				</g>
				<g>
					<path class="st31" d="M186.2,114.4c0.1-0.1,0.2,0,0.2,0.1c0,0.2-0.1,0.3-0.2,0.4l-2,1.2c-0.1,0.1-0.2,0-0.2-0.1
						c0-0.2,0.1-0.3,0.2-0.4L186.2,114.4z"/>
				</g>
				<g>
					<path class="st31" d="M186.2,119.7c0.1-0.1,0.2,0,0.2,0.1c0,0.2-0.1,0.3-0.2,0.4l-2,1.2c-0.1,0.1-0.2,0-0.2-0.1
						c0-0.2,0.1-0.3,0.2-0.4L186.2,119.7z"/>
				</g>
				<g>
					<path class="st31" d="M186.2,122.3c0.1-0.1,0.2,0,0.2,0.1c0,0.2-0.1,0.4-0.2,0.4l-2,1.2c-0.1,0.1-0.2,0-0.2-0.1
						c0-0.2,0.1-0.3,0.2-0.4L186.2,122.3z"/>
				</g>
				<g>
					<path class="st31" d="M186.2,126.3c0.1-0.1,0.2,0,0.2,0.1c0,0.2-0.1,0.3-0.2,0.4l-2,1.2c-0.1,0.1-0.2,0-0.2-0.1
						c0-0.2,0.1-0.3,0.2-0.4L186.2,126.3z"/>
				</g>
				<g>
					<path class="st31" d="M186.2,128.9c0.1-0.1,0.2,0,0.2,0.1c0,0.2-0.1,0.3-0.2,0.4l-2,1.2c-0.1,0.1-0.2,0-0.2-0.1
						c0-0.2,0.1-0.3,0.2-0.4L186.2,128.9z"/>
				</g>
			</g>
		</g>
		<g>
			<g>
				<path class="st21" d="M162.4,48.5c12,7.2,11.5,18.7-0.9,25.6c-12.4,6.9-32.2,6.7-44.2-0.4c-11.9-7.2-11.5-18.7,0.9-25.6
					C130.7,41.1,150.5,41.3,162.4,48.5z"/>
				<rect x="108.7" y="52.8" class="st21" width="62.3" height="8.8"/>
				<path class="st22" d="M162.4,41.7c12,7.2,11.5,18.7-0.9,25.6c-12.4,6.9-32.2,6.7-44.2-0.5c-11.9-7.2-11.5-18.6,0.9-25.6
					C130.7,34.3,150.5,34.5,162.4,41.7z"/>
				<path class="st21" d="M150.2,47c5.5,3.3,5.3,8.6-0.4,11.8c-5.7,3.2-14.8,3.1-20.3-0.2c-5.5-3.3-5.3-8.6,0.4-11.8
					C135.6,43.6,144.7,43.7,150.2,47z"/>
			</g>
			<g class="st32">
				<path class="st33" d="M171.2,101.8c-17.3-8.7-45.3-8.9-62.6-0.4c-17.3,8.4-17.3,22.3,0,31c17.3,8.7,45.3,8.9,62.6,0.4
					C188.4,124.4,188.4,110.5,171.2,101.8"/>
				<path class="st34" d="M169.3,92.1c-16.2-8.3-42.6-8.5-58.8-0.4c-16.2,8.1-16.3,21.4,0,29.7c16.2,8.3,42.6,8.5,58.8,0.4
					C185.6,113.7,185.6,100.4,169.3,92.1"/>
				<path class="st35" d="M167.5,82.3c-15.2-8-39.8-8.1-55-0.4c-15.2,7.7-15.2,20.5,0,28.4c15.2,8,39.8,8.1,55,0.4
					C182.7,103,182.7,90.3,167.5,82.3"/>
				<path class="st36" d="M165.7,72.6c-14.2-7.6-37.1-7.7-51.3-0.4c-14.2,7.4-14.2,19.5,0,27.1c14.2,7.6,37.1,7.7,51.3,0.4
					C179.9,92.3,179.9,80.1,165.7,72.6"/>
				<path class="st37" d="M163.9,62.8c-13.1-7.2-34.4-7.4-47.5-0.3c-13.1,7-13.1,18.6,0,25.8c13.1,7.2,34.4,7.4,47.5,0.3
					C177,81.5,177,70,163.9,62.8"/>
				<path class="st38" d="M162.1,53c-12.1-6.8-31.7-7-43.7-0.3c-12.1,6.7-12.1,17.6,0,24.5c12.1,6.8,31.7,7,43.7,0.3
					C174.2,70.8,174.2,59.9,162.1,53"/>
				<path class="st39" d="M160.3,43.3c-11-6.5-28.9-6.6-40-0.3c-11,6.3-11.1,16.7,0,23.2c11,6.5,28.9,6.6,40,0.3
					C171.3,60.1,171.3,49.7,160.3,43.3"/>
			</g>
		</g>
		<g>
			<g>
				<path class="st21" d="M216,18.5c12,7.2,11.5,18.7-0.9,25.6c-12.5,6.9-32.2,6.7-44.2-0.4c-11.9-7.2-11.5-18.7,0.9-25.6
					C184.2,11.1,204,11.3,216,18.5z"/>
				<rect x="162.3" y="22.8" class="st21" width="62.3" height="8.8"/>
				<path class="st22" d="M216,11.7c12,7.2,11.5,18.7-0.9,25.6c-12.5,6.9-32.2,6.7-44.2-0.5c-11.9-7.2-11.5-18.6,0.9-25.6
					C184.2,4.3,204,4.5,216,11.7z"/>
				<path class="st21" d="M203.8,17c5.5,3.3,5.3,8.6-0.4,11.8c-5.7,3.2-14.8,3.1-20.3-0.2c-5.5-3.3-5.3-8.6,0.4-11.8
					C189.2,13.6,198.3,13.7,203.8,17z"/>
			</g>
			<g class="st32">
				<path class="st33" d="M224.7,71.8c-17.3-8.7-45.3-8.9-62.6-0.4c-17.3,8.4-17.3,22.3,0,31c17.3,8.7,45.3,8.9,62.6,0.4
					C242,94.4,242,80.5,224.7,71.8"/>
				<path class="st34" d="M222.9,62.1c-16.2-8.3-42.6-8.5-58.8-0.4c-16.2,8.1-16.3,21.4,0,29.7c16.2,8.3,42.6,8.5,58.8,0.4
					C239.1,83.7,239.1,70.4,222.9,62.1"/>
				<path class="st35" d="M221.1,52.3c-15.2-8-39.8-8.1-55-0.4c-15.2,7.7-15.2,20.5,0,28.4c15.2,8,39.8,8.1,55,0.4
					C236.3,73,236.3,60.3,221.1,52.3"/>
				<path class="st36" d="M219.3,42.5c-14.1-7.6-37.1-7.7-51.3-0.4c-14.2,7.4-14.2,19.5,0,27.1c14.1,7.6,37.1,7.7,51.3,0.4
					C233.4,62.3,233.4,50.1,219.3,42.5"/>
				<path class="st37" d="M217.5,32.8c-13.1-7.2-34.4-7.4-47.5-0.3c-13.1,7-13.1,18.6,0,25.8c13.1,7.2,34.4,7.4,47.5,0.3
					C230.6,51.5,230.6,40,217.5,32.8"/>
				<path class="st38" d="M215.7,23c-12.1-6.8-31.7-7-43.7-0.3c-12.1,6.7-12.1,17.6,0,24.5c12.1,6.8,31.7,7,43.7,0.3
					C227.7,40.8,227.7,29.9,215.7,23"/>
				<path class="st39" d="M213.9,13.3c-11-6.5-28.9-6.6-40-0.3c-11,6.3-11.1,16.7,0,23.2c11,6.5,28.9,6.6,40,0.3
					C224.9,30.1,224.9,19.7,213.9,13.3"/>
			</g>
		</g>
		<g>
			<linearGradient id="SVGID_1_" gradientUnits="userSpaceOnUse" x1="165.4719" y1="99.8215" x2="202.437" y2="99.8215">
				<stop  offset="0" style="stop-color:#391753"/>
				<stop  offset="0.1926" style="stop-color:#3F1A58"/>
				<stop  offset="0.4503" style="stop-color:#502266"/>
				<stop  offset="0.7433" style="stop-color:#6C307E"/>
				<stop  offset="1" style="stop-color:#8A3F97"/>
			</linearGradient>
			<path class="st40" d="M202.4,99.8c0,10.2-8.3,18.5-18.5,18.5c-10.2,0-18.5-8.3-18.5-18.5c0-10.2,8.3-18.5,18.5-18.5
				C194.2,81.3,202.4,89.6,202.4,99.8z"/>
			<linearGradient id="SVGID_2_" gradientUnits="userSpaceOnUse" x1="168.3556" y1="100.0175" x2="199.553" y2="100.0175">
				<stop  offset="0" style="stop-color:#5A3E70"/>
				<stop  offset="0.2151" style="stop-color:#604175"/>
				<stop  offset="0.5029" style="stop-color:#714983"/>
				<stop  offset="0.8302" style="stop-color:#8D579A"/>
				<stop  offset="1" style="stop-color:#9E5FA8"/>
			</linearGradient>
			<path class="st41" d="M199.6,100c0,8.6-7,15.6-15.6,15.6c-8.6,0-15.6-7-15.6-15.6c0-8.6,7-15.6,15.6-15.6
				C192.6,84.4,199.6,91.4,199.6,100z"/>
			<linearGradient id="SVGID_3_" gradientUnits="userSpaceOnUse" x1="171.2392" y1="100.2136" x2="196.669" y2="100.2136">
				<stop  offset="0" style="stop-color:#7B648C"/>
				<stop  offset="0.2489" style="stop-color:#816791"/>
				<stop  offset="0.5817" style="stop-color:#926FA0"/>
				<stop  offset="0.9605" style="stop-color:#AE7DB7"/>
				<stop  offset="1" style="stop-color:#B17FBA"/>
			</linearGradient>
			<path class="st42" d="M196.7,100.2c0,7-5.7,12.7-12.7,12.7c-7,0-12.7-5.7-12.7-12.7c0-7,5.7-12.7,12.7-12.7
				C191,87.5,196.7,93.2,196.7,100.2z"/>
			<linearGradient id="SVGID_4_" gradientUnits="userSpaceOnUse" x1="174.1229" y1="100.4097" x2="193.785" y2="100.4097">
				<stop  offset="0" style="stop-color:#9C8BA9"/>
				<stop  offset="0.3009" style="stop-color:#A28EAE"/>
				<stop  offset="0.7023" style="stop-color:#B396BC"/>
				<stop  offset="1" style="stop-color:#C49FCB"/>
			</linearGradient>
			<path class="st43" d="M193.8,100.4c0,5.4-4.4,9.8-9.8,9.8c-5.4,0-9.8-4.4-9.8-9.8c0-5.4,4.4-9.8,9.8-9.8
				C189.4,90.6,193.8,95,193.8,100.4z"/>
			<linearGradient id="SVGID_5_" gradientUnits="userSpaceOnUse" x1="177.0065" y1="100.6057" x2="190.901" y2="100.6057">
				<stop  offset="0" style="stop-color:#BDB2C6"/>
				<stop  offset="0.3857" style="stop-color:#C3B5CB"/>
				<stop  offset="0.9005" style="stop-color:#D4BDD9"/>
				<stop  offset="1" style="stop-color:#D8BFDC"/>
			</linearGradient>
			<path class="st44" d="M190.9,100.6c0,3.8-3.1,6.9-6.9,6.9c-3.8,0-6.9-3.1-6.9-6.9c0-3.8,3.1-6.9,6.9-6.9
				C187.8,93.7,190.9,96.8,190.9,100.6z"/>
			<linearGradient id="SVGID_6_" gradientUnits="userSpaceOnUse" x1="179.8902" y1="100.8018" x2="188.017" y2="100.8018">
				<stop  offset="0" style="stop-color:#DED8E2"/>
				<stop  offset="0.6119" style="stop-color:#E4DBE8"/>
				<stop  offset="1" style="stop-color:#EBDFEE"/>
			</linearGradient>
			<path class="st45" d="M188,100.8c0,2.2-1.8,4.1-4.1,4.1c-2.2,0-4.1-1.8-4.1-4.1c0-2.2,1.8-4.1,4.1-4.1
				C186.2,96.7,188,98.6,188,100.8z"/>
			<path class="st46" d="M185.1,101c0,0.7-0.5,1.2-1.2,1.2c-0.6,0-1.2-0.5-1.2-1.2c0-0.7,0.5-1.2,1.2-1.2
				C184.6,99.8,185.1,100.3,185.1,101z"/>
		</g>
		<g>
			<linearGradient id="SVGID_7_" gradientUnits="userSpaceOnUse" x1="219.3808" y1="69.5139" x2="256.3457" y2="69.5139">
				<stop  offset="0" style="stop-color:#391753"/>
				<stop  offset="0.1926" style="stop-color:#3F1A58"/>
				<stop  offset="0.4503" style="stop-color:#502266"/>
				<stop  offset="0.7433" style="stop-color:#6C307E"/>
				<stop  offset="1" style="stop-color:#8A3F97"/>
			</linearGradient>
			<path class="st47" d="M256.3,69.5c0,10.2-8.3,18.5-18.5,18.5c-10.2,0-18.5-8.3-18.5-18.5c0-10.2,8.3-18.5,18.5-18.5
				C248.1,51,256.3,59.3,256.3,69.5z"/>
			<linearGradient id="SVGID_8_" gradientUnits="userSpaceOnUse" x1="222.2645" y1="69.7099" x2="253.462" y2="69.7099">
				<stop  offset="0" style="stop-color:#5A3E70"/>
				<stop  offset="0.2151" style="stop-color:#604175"/>
				<stop  offset="0.5029" style="stop-color:#714983"/>
				<stop  offset="0.8302" style="stop-color:#8D579A"/>
				<stop  offset="1" style="stop-color:#9E5FA8"/>
			</linearGradient>
			<path class="st48" d="M253.5,69.7c0,8.6-7,15.6-15.6,15.6c-8.6,0-15.6-7-15.6-15.6c0-8.6,7-15.6,15.6-15.6
				C246.5,54.1,253.5,61.1,253.5,69.7z"/>
			<linearGradient id="SVGID_9_" gradientUnits="userSpaceOnUse" x1="225.1481" y1="69.906" x2="250.5784" y2="69.906">
				<stop  offset="0" style="stop-color:#7B648C"/>
				<stop  offset="0.2489" style="stop-color:#816791"/>
				<stop  offset="0.5817" style="stop-color:#926FA0"/>
				<stop  offset="0.9605" style="stop-color:#AE7DB7"/>
				<stop  offset="1" style="stop-color:#B17FBA"/>
			</linearGradient>
			<path class="st49" d="M250.6,69.9c0,7-5.7,12.7-12.7,12.7c-7,0-12.7-5.7-12.7-12.7c0-7,5.7-12.7,12.7-12.7
				C244.9,57.2,250.6,62.9,250.6,69.9z"/>
			<linearGradient id="SVGID_10_" gradientUnits="userSpaceOnUse" x1="228.0317" y1="70.102" x2="247.6947" y2="70.102">
				<stop  offset="0" style="stop-color:#9C8BA9"/>
				<stop  offset="0.3009" style="stop-color:#A28EAE"/>
				<stop  offset="0.7023" style="stop-color:#B396BC"/>
				<stop  offset="1" style="stop-color:#C49FCB"/>
			</linearGradient>
			<path class="st50" d="M247.7,70.1c0,5.4-4.4,9.8-9.8,9.8c-5.4,0-9.8-4.4-9.8-9.8c0-5.4,4.4-9.8,9.8-9.8
				C243.3,60.3,247.7,64.7,247.7,70.1z"/>
			<linearGradient id="SVGID_11_" gradientUnits="userSpaceOnUse" x1="230.9154" y1="70.2981" x2="244.8111" y2="70.2981">
				<stop  offset="0" style="stop-color:#BDB2C6"/>
				<stop  offset="0.3857" style="stop-color:#C3B5CB"/>
				<stop  offset="0.9005" style="stop-color:#D4BDD9"/>
				<stop  offset="1" style="stop-color:#D8BFDC"/>
			</linearGradient>
			<path class="st51" d="M244.8,70.3c0,3.8-3.1,6.9-6.9,6.9c-3.8,0-6.9-3.1-6.9-6.9c0-3.8,3.1-6.9,6.9-6.9
				C241.7,63.4,244.8,66.5,244.8,70.3z"/>
			<linearGradient id="SVGID_12_" gradientUnits="userSpaceOnUse" x1="233.799" y1="70.4941" x2="241.9274" y2="70.4941">
				<stop  offset="0" style="stop-color:#DED8E2"/>
				<stop  offset="0.6119" style="stop-color:#E4DBE8"/>
				<stop  offset="1" style="stop-color:#EBDFEE"/>
			</linearGradient>
			<path class="st52" d="M241.9,70.5c0,2.2-1.8,4.1-4.1,4.1c-2.2,0-4.1-1.8-4.1-4.1c0-2.2,1.8-4.1,4.1-4.1
				C240.1,66.4,241.9,68.3,241.9,70.5z"/>
			<path class="st46" d="M239,70.7c0,0.7-0.5,1.2-1.2,1.2c-0.7,0-1.2-0.5-1.2-1.2c0-0.7,0.5-1.2,1.2-1.2C238.5,69.5,239,70,239,70.7
				z"/>
		</g>
	</g>
	<g>
		<g>
			<g>
				<g class="st23">
					<g>
						<polygon class="st53" points="106.1,103.1 107.3,102.4 90.4,187 89.2,187.7 						"/>
					</g>
					<g>
						<polygon class="st54" points="104.2,102 105.4,101.3 107.3,102.4 106.1,103.1 						"/>
					</g>
					<g>
						<polygon class="st54" points="106.1,103.1 89.2,187.7 87.3,186.6 104.2,102 						"/>
					</g>
				</g>
				<g>
					<g class="st23">
						<g>
							<polygon class="st53" points="105.1,186.3 92,178.7 90.8,179.4 105.1,187.7 							"/>
						</g>
						<g>
							<polygon class="st54" points="105.1,187.7 90.8,179.4 90.6,180.4 105.1,188.8 							"/>
						</g>
					</g>
				</g>
				<g>
					<g class="st23">
						<g>
							<polygon class="st53" points="107,176.9 93.9,169.4 92.7,170.1 107,178.3 							"/>
						</g>
						<g>
							<polygon class="st54" points="107,178.3 92.7,170.1 92.5,171 107,179.4 							"/>
						</g>
					</g>
				</g>
				<g>
					<g class="st23">
						<g>
							<polygon class="st53" points="108.8,167.8 95.7,160.2 94.5,160.9 108.8,169.2 							"/>
						</g>
						<g>
							<polygon class="st54" points="108.8,169.2 94.5,160.9 94.3,161.9 108.8,170.3 							"/>
						</g>
					</g>
				</g>
				<g>
					<g class="st23">
						<g>
							<polygon class="st53" points="110.6,158.8 97.5,151.2 96.3,151.9 110.6,160.2 							"/>
						</g>
						<g>
							<polygon class="st54" points="110.6,160.2 96.3,151.9 96.1,152.9 110.6,161.2 							"/>
						</g>
					</g>
				</g>
				<g>
					<g class="st23">
						<g>
							<polygon class="st53" points="112.4,149.9 99.3,142.3 98.1,143 112.4,151.3 							"/>
						</g>
						<g>
							<polygon class="st54" points="112.4,151.3 98.1,143 97.9,144 112.4,152.4 							"/>
						</g>
					</g>
				</g>
				<g>
					<g class="st23">
						<g>
							<polygon class="st53" points="114.2,140.9 101.1,133.3 99.9,134 114.2,142.3 							"/>
						</g>
						<g>
							<polygon class="st54" points="114.2,142.3 99.9,134 99.7,135 114.2,143.4 							"/>
						</g>
					</g>
				</g>
				<g>
					<g class="st23">
						<g>
							<polygon class="st53" points="115.9,131.9 102.8,124.3 101.6,125 115.9,133.3 							"/>
						</g>
						<g>
							<polygon class="st54" points="115.9,133.3 101.6,125 101.4,126 115.9,134.4 							"/>
						</g>
					</g>
				</g>
				<g>
					<g class="st23">
						<g>
							<polygon class="st53" points="117.7,122.9 104.6,115.3 103.4,116.1 117.7,124.3 							"/>
						</g>
						<g>
							<polygon class="st54" points="117.7,124.3 103.4,116.1 103.2,117 117.7,125.4 							"/>
						</g>
					</g>
				</g>
				<g class="st23">
					<g>
						<polygon class="st53" points="121,111.7 122.2,111 105.3,195.6 104.1,196.3 						"/>
					</g>
					<g>
						<polygon class="st54" points="119.1,110.6 120.3,109.9 122.2,111 121,111.7 						"/>
					</g>
					<g>
						<polygon class="st54" points="121,111.7 104.1,196.3 102.2,195.2 119.1,110.6 						"/>
					</g>
				</g>
			</g>
		</g>
		<g>
			<path class="st55" d="M93.6,172.1c0,0-1.4,2.3,0.6,2.8c2,0.5,1.4-0.7,5.7,0.4c4.3,1.1,3.8-1.3,3.7-1.8c-0.1-0.5-2-1.2-2.9-1.4
				c-0.9-0.2-4.7-1.1-4.7-1.1l-2.3,0.4L93.6,172.1z"/>
			<path class="st55" d="M91,165.8c0,0,1.7,0.2,1.3,1.2c-0.4,1-2.3,2.4-2.5,3c-0.3,0.6-1.8,2.5-2.3,2.5c-0.9,0.1-1.8,0.1-1.6-2.3
				C85.9,167.7,88.8,165.7,91,165.8z"/>
			<path class="st56" d="M84,124.1c0,0-3.2,4.7-1.1,12.7c0,0,3.6,12.1,2.9,14.4c-0.6,2.4-2.8,8.1-1.4,13c0,0,1.4,4.5,1.4,5.8
				c0,2,2,2.4,2.4,1c0.7-2.9,0.4-8.6,0.8-10.9c1.5-7.4,2.3-11.3,1.8-16.3c-0.5-5,0.1-16.4,0.1-16.4S85.2,127.9,84,124.1z"/>
			<path class="st56" d="M87.5,126.9c0,0-2.7,5,0.1,12.8c0,0,4.7,11.7,4.3,14.1c-0.4,2.4-2.1,8.3-0.2,13c0,0,1.8,4.4,2,5.6
				c0.2,2,2.2,2.2,2.4,0.8c0.4-3-0.4-8.6-0.2-10.9c0.8-7.5,1.3-11.4,0.3-16.4c-0.9-5-1.4-16.4-1.4-16.4S89.2,130.7,87.5,126.9z"/>
			<g>
				<g>
					<path class="st56" d="M103.3,105.3c0,0,1.2-2.3,1.7-2.7c0.4-0.4,2.3-1.9,4.2-1.5c1,0.2,0.1,1-1.3,1.8c-0.6,0.4-1.1,0.5-1.5,1.6
						c-0.2,0.8-0.9,2-1.3,2.5C104.7,107.6,103.3,105.3,103.3,105.3z"/>
					<path class="st57" d="M105.2,107c0.4-0.5,1-1.7,1.7-2.1c0.9-0.6,0.4-1.6,1-1.9c1.1-0.6,1.9-1.3,1.7-1.6
						c-0.8,0.5-1.8-0.2-3.3,1.8c-0.5,0.7-1.5,2.6-1.7,3.6C105,107,105.1,107.2,105.2,107z"/>
					<path class="st56" d="M104.5,106.6c0,0,2.6-1.5,3.3-2.1c0.7-0.6,1-1.3,0.8-1.3c-0.2,0-2.4,1.6-2.8,0.7
						C105.6,103.4,104.9,106.3,104.5,106.6z"/>
				</g>
				<path class="st58" d="M83.6,110.2c0,0-1,3.2,3.3,3.6c4.3,0.5,12.4,0.4,14.1-1.1c1.6-1.5,4.6-6.2,4.6-6.2s-2.1-0.1-2.2-1.9
					l-5.6,5C97.7,109.6,84.3,108,83.6,110.2z"/>
				<path class="st58" d="M83.6,110.2c0.7-2.2,14.1-0.6,14.1-0.6l5.6-5c0,0.7,0.4,1.1,0.7,1.4c-1,1.5-2.7,4.1-3.9,5.1
					c-1.6,1.5-9.8,1.6-14.1,1.1c-1.2-0.1-2-0.5-2.6-1C83.5,110.7,83.6,110.2,83.6,110.2z"/>
			</g>
			<path class="st59" d="M95.5,110.4c0,0-8.1-8.1-11.1-5.5c0,0-3.6,1.4-2.5,8.6c1.1,7.2,2.9,8.5,1.1,12.8c0,0,3.5,7,12.5,3.8
				c0,0-0.2-6.6,1.3-8.3c1.4-1.8,3.7-5.8,1.8-8C96.6,111.5,95.5,110.4,95.5,110.4z"/>
			<path class="st56" d="M94.1,105.8v3.4c0,0-2.8,1.5-5-0.4v-3.4C89.1,105.4,91.7,106.3,94.1,105.8z"/>
			<path class="st56" d="M94.9,94.9c0,0,1.9,2.5,1.6,4.9c-0.2,2.6,0.1,3.1,0,4.3c-0.1,0.5-0.1,1.2-0.6,1.7c-0.8,0.8-2.5,1.1-4.7,0.2
				c-2.7-1-5.6-4.7-4.4-8.1C88,94.5,90.8,92.1,94.9,94.9z"/>
			<path class="st57" d="M86.9,101.6c1.1-3,3.8-6.7,3.8-6.9c0-0.1,0.9-0.7,1.9-1.3c1,0.1,2,0.4,3,1.1c0,0,0.3,0.7,0.6,1.8
				c-0.6,0.7-2,1.6-2.2,2.2c-0.5,1.5-0.2,3.7,0.2,4.6c0.4,1-1.3,2.4-0.9,3.3c0,0,0,0.1,0,0.1c-0.6,0-1.3-0.2-2.1-0.5
				C89.5,105.4,87.7,103.6,86.9,101.6z"/>
			<path class="st60" d="M93.6,93.4c0,0,3.9,1.1,2.8,3.8c-1.1,2.7-2.4,3.5-3.6,4.8c-1.5,1.6-0.2,2.7,0.4,4c5,11.5-11.1,8.8-12,1.8
				c-0.5-3.7,2.4-6.7,3.2-10.2C85.1,94.5,89.6,92.4,93.6,93.4z"/>
			<path class="st61" d="M95.5,130.1c0,0-4.8,1.4-9.7-1.9l-2.8-2c0,0-5.6,3.4-0.9,15.8c0,0,2.6,5.2,2.6,9.1c0,3.9-3.3,10.7,0.8,16.8
				c0,0,1.8,2.3,3.6,0c0,0,3.6-13,1.9-20C89.3,140.9,89.1,130.7,95.5,130.1z"/>
			<path class="st62" d="M95.5,130.1c0,0-3.4,0.9-9-1.5l0,0c0,0-3.1,4.6,1.4,15.5c0,0,2.2,5.5,2.6,9.4c0.3,3.9-2.3,10.9,2.3,16.6
				c0,0,1.8,1.7,3.6-0.3c0,0,3.1-13.5,0.8-20.3C94.7,142.7,97.4,133.7,95.5,130.1z"/>
			<path class="st56" d="M111.2,120.5c0,0,3.2-2.3,4.3-1.6c1.2,0.7,1.5,2.3,1.5,2.3s0.4,1.2-2.7,0.3c-1.1-0.3-3.2,0.9-3.2,0.9
				S110.5,121.2,111.2,120.5z"/>
			<g>
				<g>
					<path class="st58" d="M93.8,112.7c0.8-0.7,2.5-1.2,4,1.1c1.5,2.3,5.7,8.7,5.7,8.7s7-2.3,7.9-2.5c0,0-0.9,1.1,0.2,2.1
						c0,0-6.5,5.1-8.9,4.3C100.4,125.8,90.6,115.5,93.8,112.7z"/>
				</g>
			</g>
			<path class="st55" d="M93.6,173.3c0,0,2.4-0.3,2.6-2.3c0.2-2,2.2,2.3,2.2,2.3S95.3,176.3,93.6,173.3z"/>
		</g>
	</g>
</g>
</svg>
