<?xml version="1.0" encoding="utf-8"?>
<!-- Generator: Adobe Illustrator 24.2.0, SVG Export Plug-In . SVG Version: 6.00 Build 0)  -->
<svg version="1.1" id="Layer_1" xmlns="http://www.w3.org/2000/svg" xmlns:xlink="http://www.w3.org/1999/xlink" x="0px" y="0px"
	 viewBox="0 0 320 306.2" style="enable-background:new 0 0 320 306.2;" xml:space="preserve">
<style type="text/css">
	.st0{fill:#94D7EB;}
	.st1{fill:#582D0F;}
	.st2{fill:#6C3B17;}
	.st3{fill:#45220F;}
	.st4{fill:#905A24;}
	.st5{fill:#A9692C;}
	.st6{fill:#7F4A1E;}
	.st7{fill:#814C1F;}
	.st8{fill:#93562B;}
	.st9{fill:#683515;}
	.st10{fill:#5A2D0F;}
	.st11{fill:#935627;}
	.st12{fill:#E29D2A;}
	.st13{fill:#F8CA80;}
	.st14{fill:#BB7731;}
	.st15{fill:#D19046;}
	.st16{fill:#B8874C;}
	.st17{opacity:0.48;fill:#74441C;}
	.st18{opacity:0.15;fill:#1A50B2;}
	.st19{fill:#FFFFFF;}
	.st20{fill:url(#SVGID_1_);}
	.st21{opacity:0.3;}
	.st22{fill:url(#SVGID_2_);}
	.st23{opacity:0.2;}
	.st24{fill:url(#SVGID_3_);}
	.st25{fill:url(#SVGID_4_);}
	.st26{fill:url(#SVGID_5_);}
	.st27{fill:url(#SVGID_6_);}
	.st28{fill:url(#SVGID_7_);}
	.st29{opacity:0.5;}
	.st30{fill:url(#SVGID_8_);}
	.st31{opacity:0.2;fill:url(#SVGID_9_);}
	.st32{fill:url(#SVGID_10_);}
	.st33{fill:url(#SVGID_11_);}
	.st34{fill:url(#SVGID_12_);}
	.st35{fill:#C8CDF0;}
	.st36{fill:url(#SVGID_13_);}
	.st37{fill:url(#SVGID_14_);}
	.st38{fill:#EDEDEF;}
	.st39{fill:url(#SVGID_15_);}
	.st40{fill:url(#SVGID_16_);}
	.st41{fill:url(#SVGID_17_);}
	.st42{fill:url(#SVGID_18_);}
	.st43{fill:url(#SVGID_19_);}
	.st44{fill:url(#SVGID_20_);}
	.st45{opacity:0.5;fill:#FFFFFF;}
	.st46{fill:url(#SVGID_21_);}
	.st47{fill:url(#SVGID_22_);}
	.st48{fill:url(#SVGID_23_);}
	.st49{fill:url(#SVGID_24_);}
	.st50{fill:#FBFAFF;}
	.st51{fill:url(#SVGID_25_);}
	.st52{fill:url(#SVGID_26_);}
	.st53{fill:url(#SVGID_27_);}
	.st54{fill:url(#SVGID_28_);}
	.st55{fill:url(#SVGID_29_);}
	.st56{fill:url(#SVGID_30_);}
	.st57{fill:url(#SVGID_31_);}
	.st58{fill:url(#SVGID_32_);}
	.st59{fill:url(#SVGID_33_);}
	.st60{fill:url(#SVGID_34_);}
	.st61{fill:url(#SVGID_35_);}
	.st62{fill:url(#SVGID_36_);}
	.st63{fill:url(#SVGID_37_);}
	.st64{fill:url(#SVGID_38_);}
	.st65{fill:url(#SVGID_39_);}
	.st66{opacity:0.4;}
	.st67{fill:url(#SVGID_40_);}
	.st68{fill:url(#SVGID_41_);}
	.st69{fill:#F7B6B2;}
	.st70{fill:url(#SVGID_42_);}
	.st71{fill:url(#SVGID_43_);}
	.st72{fill:url(#SVGID_44_);}
	.st73{fill:url(#SVGID_45_);}
	.st74{fill-rule:evenodd;clip-rule:evenodd;fill:#F7B6B2;}
	.st75{fill-rule:evenodd;clip-rule:evenodd;fill:url(#SVGID_46_);}
	.st76{fill:url(#SVGID_47_);}
	.st77{fill:url(#SVGID_48_);}
	.st78{fill:url(#SVGID_49_);}
	.st79{fill:url(#SVGID_50_);}
	.st80{fill:url(#SVGID_51_);}
	.st81{fill:url(#SVGID_52_);}
	.st82{fill:url(#SVGID_53_);}
	.st83{fill:url(#SVGID_54_);}
	.st84{fill:url(#SVGID_55_);}
	.st85{fill:url(#SVGID_56_);}
	.st86{fill:url(#SVGID_57_);}
	.st87{fill:url(#SVGID_58_);}
	.st88{fill:url(#SVGID_59_);}
	.st89{fill:url(#SVGID_60_);}
	.st90{fill:url(#SVGID_61_);}
	.st91{fill:url(#SVGID_62_);}
</style>
<g>
	<path class="st1" d="M83.4,91.6c-0.2,1.2-0.7,2.5-0.8,3.8c-0.2,1.5-0.1,3.1-0.5,4.5l-0.2,0.1c0.8,0.4,2.9-0.5,3.9-0.5
		c1.4-0.1,3.2,0.6,2.8-1.1C88.1,95.6,85,93.9,83.4,91.6z"/>
	<path class="st1" d="M247.2,108.5c-2.1,1-4.3,1.7-5.9,3.3c-1.5,1.5-2.3,2.8,0,3.9c1.6,0.8,3.3,1,5.1,1.1c1.9,0.1,3.7-0.4,5.3,0.5
		c0-3.8,0.7-7.7,0.6-11.3C251.1,105.7,248.2,108,247.2,108.5z"/>
	<g>
		<path class="st2" d="M305.9,134.3l-4.5-1c-9.8-2.5-21-2.5-31.3-3c-22.9-1.1-44.8,2.4-65.2,11.4c-21.4,9.4-45.6,26.8-53.4,48.4
			c-5.5,15.2-9.6,32.8-6.9,48.9c2.8,17,12.7,33.8,12.5,51.1c10.4-2.1,18.5-13.6,29.4-16.9c0,0,8.3,5,19.2-3.5
			c14.6-11.5,29.3-24.8,46.6-29.2c19.2-4.9,26.9-23.3,37.1-29c8.3-17.6-2.3-21.3,5.7-34.3C305.1,160.6,300.4,148.3,305.9,134.3z"/>
		<path class="st1" d="M212.9,204.4c-3,8-3.3,24.1-5.6,32.4c-2.2,7.9-4.2,15.9-5.6,24c-0.5,2.9-1,5.8-1.2,8.8
			c-0.1,1.8,0.1,2.5,0.1,2.5c0.1,0.1,0.2,0.3,0.3,0.4c1.5-0.7,3-1.7,4.6-2.9c5.1-4,10.2-8.2,15.4-12.2c0.4-6.5,1.6-13,2.7-19.5
			c1.3-7.6,3.1-16.7-0.3-24C221.9,210.6,212.9,204.4,212.9,204.4z"/>
		<path class="st3" d="M217.7,259.9c0.8-5.5,1.8-11,2.7-16.5c1.4-8.7-5.1-24.2-7.1-31.8c-0.1,19.2-0.7,41-6.5,56.9
			C210.5,265.6,214.1,262.7,217.7,259.9z"/>
		<path class="st1" d="M305.9,134.3l-4.5-1c-0.3-0.1-0.6-0.1-0.9-0.2c-6.1,3.1-11.9,6.5-17.7,10.1c4.2,0.1,8,1,12,2.2
			c4.4,1.3,5.4,6,3.3,8.8c-4.5,17.4-21.8,28.7-26,46.2c-2.5,10.2-2.8,20.8-3.7,31.2c8.5-7.3,14.1-16.5,20.8-20.1
			c8.3-17.6-2.3-21.3,5.7-34.3C305.1,160.6,300.4,148.3,305.9,134.3z"/>
		<path class="st3" d="M299.9,166.2c-5.1,8.1-10.9,15.8-16.8,23.5c-3.3,11-6.7,21.9-9.7,32.9c5.4-8.6,11.8-16.2,19.1-23.3
			c0.4-8.2-3.3-12.8,2.4-22.2C297.3,173.3,298.9,169.6,299.9,166.2z"/>
		<path class="st1" d="M155.6,206c-0.4,0.1-0.8,0.1-1.2,0c-0.9,20.2-1.2,40.3-1.9,60.5c2.5,7.8,4.5,15.5,4.4,23.4
			c4.9-1,9.3-4.1,13.7-7.4c-0.1-1.3-0.2-2.6-0.3-3.8c-0.4-6-0.7-12.2-2.9-17.9c-1.8-4.8-5.1-9.4-6.1-14.4
			c-3.3-16.8,3.6-30.5,14.6-42.8C169.4,204.7,162.6,205.1,155.6,206z"/>
		<path class="st1" d="M230.5,250.5c3.9-2.5,7.9-4.8,12-6.7c0.3-4.3,0.7-8.6,1.3-12.9c1.5-10.4,5-18.9,8.8-28.7
			c3.4-8.7,1-18.1,4.3-26.7c2.6-6.8,6.1-12.9,8-19.6c-4.4,2.3-10,3.8-14.6,3.7c-5.6-0.1-11.3-0.8-16.7,0.9
			c0.3-0.1-15.9,3.5-11.8,5.1c1,0.1,5.4,1.2,6.3,1.5c0.5,0.2,13-0.3,13-0.3c-9.1,19.7-7.2,48.5-8.9,69.4
			C231.7,241.2,231.2,245.9,230.5,250.5z"/>
		<path class="st3" d="M230.5,250.5c1-0.6,2-1.3,3-1.9c0.5-8.4,1.8-16.6,2.8-25c1.1-9,1.5-18,3.5-26.9c3.4-15.2,7.3-26,20.7-36.2
			c1.1-0.8,2.2-1.2,3.4-1.4c0.4-1.1,0.7-2.1,1.1-3.2c-4.4,2.3-10,3.8-14.6,3.7c-5.6-0.1-11.3-0.8-16.7,0.9
			c0.3-0.1-15.9,3.5-11.8,5.1c1,0.1,5.4,1.2,6.3,1.5c0.5,0.2,13-0.3,13-0.3c-9.1,19.7-7.2,48.5-8.9,69.4
			C231.7,241.2,231.2,245.9,230.5,250.5z"/>
		<path class="st1" d="M193.7,225c4.7-11.1,3.3-22.2,11.8-33.2c1.9-2.5,15.1-16.3,15.6-19.2c-9.5,3.1-37.1,19.8-42.3,27.8
			c1,8.9,1.9,17.9,1.6,26.9c-0.2,9.1-1.6,18-0.5,27c0.8,6.7,2.1,13.4,3,20c0.9-0.4,1.8-0.8,2.8-1.1c-0.5-7.1,1.4-14,2.7-21.1
			C190.1,242.8,189.9,234,193.7,225z"/>
		<path class="st3" d="M202.9,184.3c0.1-0.4,0.1-0.9,0.2-1.3c-9.5,3.1-19,9.4-24.3,17.5c1,8.9,1.9,17.9,1.6,26.9
			c-0.2,9.1-1.6,18-0.5,27c0.8,6.7,2.1,13.4,3,20c0.8-0.4,1.6-0.7,2.5-1c-0.7-16.7-1-33.5-0.3-50.3
			C185.7,207.1,194,197.3,202.9,184.3z"/>
		<path class="st4" d="M154.5,191.2c-7.9-19.6-40.3-37.1-60.1-45.6c-19.9-8.4-46.8-8.4-68.3-9.3c-5.8-0.3-10.4-0.5-15.6-2
			c0,15.7,0.6,32.4,8.7,45.8c3.3,5.5,6.9,26.5,13.9,38.4c4.7,8.1,9.5,6.2,17,9c11.8,4.3,17.6,19.4,37.5,29.3
			c7.1,3.5,11.6,12.6,26.3,17c8.5,2.5,18.8,0.8,18.8,0.8c8.6,3.1,8.9,10.4,24.3,15.2c0.5-15.6-1-31.6-1-48.2
			C155.9,226.7,160.1,205.1,154.5,191.2z"/>
		<path class="st2" d="M74.9,248.6c3.5,2.9,7.6,5.7,12.6,8.2c4.3,2.1,7.6,6.3,12.8,10.2c-3.8-8.4-7.3-16.9-9.7-25.7
			c-3.1-11.5-4.2-23.6-7.7-35c0,0.1,0,0.2-0.1,0.4c1.8,5.8,2.6,12.9,1.8,19.9C84.7,236.3,82.5,245.2,74.9,248.6z"/>
		<path class="st5" d="M155.5,208.2c-2.6-1.8-6.7-4.7-10.1-5.4c0,0.2,0.1,0.5,0.1,0.9c0.1,0.4,0.3,0.8,0.4,1.2
			c0.4,0.4,0.9,0.7,1.3,1.2c10,12.7,6,28.1,6.5,42.6c0.5,12.5,2.3,24.9,3.2,37.4c0.2-14.4-1.1-29.1-1.1-44.4
			c0-9.4,1.6-21.5,1.5-32.6C156.8,208.9,156.1,208.6,155.5,208.2z"/>
		<path class="st5" d="M144.2,283.4c-0.9-10.4-2.3-20.7-2.8-31.1c-0.2-4.8,0.3-9.9,0.5-15.1c-3-8.6-6-17.2-7.2-26.2
			c-2.5-6.3-4.6-13.4,0.3-17c1.3-0.9,2.7-1.6,4.1-2c-0.9-0.5-1.8-0.9-2.9-1.2c-3.7,1.9-7.7,3.2-11.9,3.9c7.2,18.1,10.4,37.1,10,56.2
			c0.1,0.2,0.2,0.4,0.2,0.5c1.1,3.3,0.3,7.1-0.5,10.5c0.1,0.3,0.1,0.6,0.1,0.9c0,4.2-0.2,8.3-0.8,12.3
			C138,276.9,140.2,280.1,144.2,283.4z"/>
		<path class="st5" d="M12.4,134.8c-0.7-0.2-1.3-0.3-2-0.5c0,15.7,0.6,32.4,8.7,45.8c3.3,5.5,6.9,26.5,13.9,38.4
			c2.7,4.7,5.5,6,8.8,6.9c-7.1-13.3-19.9-33.6-12.1-47c-4.5-2.8-11.2-10.1-11.2-10.1c0,1.2-3.2-7.8-3.8-17.6
			c-0.2-4.5-0.2-8.9,0.4-13.4C14.1,136.5,13.2,135.7,12.4,134.8z"/>
		<path class="st5" d="M64,238.4c0.4-7,0.9-14,0.9-21c0.1-15.9-7.6-31.4-1.1-46.8c-1.4-1.3-2.7-2.6-3.7-4c-3.8-2-7.2-4.6-11.1-6.2
			c-0.1,2.2-0.3,4.4-0.6,6.6c0,0.2,0.1,0.5,0.1,0.7c3.5,8.9,5.2,18,6.9,27.5c0.2,0.4,0.4,0.9,0.5,1.4c0.5,2.2,0.9,4.5,1.4,6.7
			c0.5,0.8,0.9,1.7,0.9,2.8c0.6,9.3,1.7,18.4,1,27.6C60.8,235.1,62.4,236.7,64,238.4z"/>
		<path class="st6" d="M56.1,149.5c-5.5-0.8-19.1-2.4-20.4-2.4c1,9,1.9,18.1,4.5,26.8c2.8,9.2,8,17.4,11.4,26.4
			c4,10.9,6.1,22.1,7.7,33.4c1,0.9,1.9,1.8,2.9,2.8c-0.5-18.2-1.5-36.5-5.8-54.2c-2.4-10.2-3.6-13.5-4.5-20
			C52.9,161,57.1,149.7,56.1,149.5z"/>
		<path class="st1" d="M56.1,149.5c-5.5-0.8-36.4-9.6-37.7-9.6c4.1,6.4,14.9,11.3,18.8,12.3c10,3.2,9.9,9.1,11.7,16.2
			c2.4,9.2,4.7,18.6,6.8,27.9c2.7,12.2,5.6,25.9,5.4,39.1c0.4,0.3,0.7,0.7,1.1,1c-0.5-18.2-1.5-36.5-5.8-54.2
			C54,172,53,168.4,52.1,161.9C53.1,160.7,57.1,149.7,56.1,149.5z"/>
		<path class="st6" d="M148.7,186.4c-10.2,0.3-41.7-4-39.3,1.8c7.1,9.4,14.5,23.3,19.3,49.6c2.2,12.4,2.4,24.4,3.9,36.9
			c0.6,0.3,2.2,1,2.7,1.3c0.7-6.6,1.7-13.2,2.3-20c1.7-18.9-5.2-40-7.1-58.8C130.6,197.2,145.4,190.2,148.7,186.4z"/>
		<path class="st1" d="M148.7,186.4c-10.2,0.3-58.5-16.9-68.1-13.8c0,0,11.7,7.6,11.7,7.6c10.4,3.6,27,16.8,26.9,17.2
			c2.4,1.3,11.2,20,12.9,27.7c3.5,15.9,5.1,34,1.8,50.2c0.5,0.2,0.9,0.5,1.4,0.7c0.7-6.6,1.7-13.2,2.3-20c1.7-18.9-5.2-40-7.1-58.8
			C130.6,197.2,145.4,190.2,148.7,186.4z"/>
		<path class="st7" d="M257.4,228.7c5-0.4,16.2-23.9,21.1-25.6c4.9-1.7,14.6-7.1,17.6-11.1c2.9-3.9,2.7-7.1,5-11.3
			c2.3-4.3,4.7-4.2,7.9-8.1c3.3-4-3.2-17.7-3.2-17.7l-24.6,8.1c-2.6,1-5.3,1.9-8,2.8c-1.4,0.5-2.9,1-4.3,1.6
			c-5.7,2.2-11.5,4.2-17.5,5.9c-0.2,0-0.4,0.1-0.6,0.1c-0.5,0.2-0.9,0.2-1.3,0.1l-0.5,0.2c0,0,0.2,6-0.1,7.6c-0.5,2.7-2.7,4.7-3,7.6
			c-0.8,6,2.4,36.4,0.6,42C252.8,230.5,251.2,229.2,257.4,228.7z"/>
		<path class="st8" d="M258.5,214.7c-1.4,4.7-2.6,9.5-3.3,14.3c0.6-0.1,1.3-0.2,2.2-0.3c0.6-0.1,1.2-0.4,1.9-0.9
			c2.3-8.9,7-17,11.8-25.4c3.5-6.2,6.3-12.5,8.8-19.1c1.1-3,3.1-4.6-2.6-5.1c-3-0.2-6-0.4-9-0.5c4,4.8,7.5,8.4,3.9,15.2
			C268.2,200.2,260.9,206.7,258.5,214.7z"/>
		<path class="st9" d="M257.9,228.6c5.2-1.8,15.9-23.9,20.6-25.5c4.9-1.7,14.6-7.1,17.6-11.1c2.9-3.9,2.7-7.1,5-11.3
			c2.3-4.3,4.7-4.2,7.9-8.1c3.3-4-3.2-17.7-3.2-17.7c0-0.7-16.1,5.2-28.6,14.5c-2.6,2.7-0.3,9.7-0.3,10.4c0.5,8.8-1.3,13.4-8.6,23.1
			C262.4,210.7,259.5,219.4,257.9,228.6z"/>
		<path class="st1" d="M284.5,176.2c-0.1,0-0.2-0.1-0.2-0.2c-0.6-0.4-1.2-0.8-1.8-1.2c-1.9-0.6-4.2,0.3-6.3,0.7
			c0.3,2.1,0.8,3.9,0.8,4.3c0.5,8.8-1.3,13.4-8.6,23.1c-5.9,7.8-8.9,16.5-10.4,25.7c2.3-0.8,5.7-5.6,9.2-10.8
			c-2.6-9,4.7-17.5,10.9-24.9C279.9,187.2,281.5,181.4,284.5,176.2z"/>
		<path class="st9" d="M235.3,205.3c-7.4,2.6-15.4,0.3-22.4-0.9c-0.5,5.1,0.9,12.3,1.4,17.9c0.6,6,3.2,31.7,3.4,37.5
			c4.9,1.6,8.6,0.1,13.3-3c3.3-2.1,5-15.7,7.6-25.3c2.2-8.4,15.6-20.3,15.9-29l-0.5,0.4C247.8,198.2,240.8,203.4,235.3,205.3z"/>
		<path class="st1" d="M224.8,260c1.5-0.4,3.1-1.2,4.7-2.1c0-7,0.5-14,0.9-21c0.3-4,0-9,1.7-12.8c3.8-8.7,14.5-11.4,21.6-17.5
			c0.5-1.2,0.8-2.4,0.9-3.6c-6.3,5-14.8,8.6-23,9.4c0,0.2-0.1,0.4-0.1,0.6C226.3,228.4,225.2,244.1,224.8,260z"/>
		<path class="st7" d="M214.3,222.3c0.6,6,3.2,31.7,3.4,37.5c3.2,1,5.9,0.7,8.7-0.4c0.1-18.2,3.2-38.6,9.8-55.9
			c-7,1.8-16.8,2-23.3,0.9C212.4,209.5,213.8,216.8,214.3,222.3z"/>
		<path class="st8" d="M224.6,260.1c0.6-0.2,1.2-0.4,1.9-0.6c0.1-14.7,2.2-30.8,6.5-45.5c-3.2,0.3-6.5,0-9.2-1
			c4.7,6.2,4.3,12.3,3,19.4C224.9,241.5,224.8,250.8,224.6,260.1z"/>
		<path class="st2" d="M41.4,194c0.7,6.3,5,14.8,8,20.8c2.8,5.7,5.6,11.5,8.8,20.1c0.7,0,2.2,0.7,2.9,0.6
			c-0.1-7.4,0.2-13.5-1.2-20.9c-3-15.8-4.7-21.6-6.8-29.4C49.5,187.3,45.5,192.5,41.4,194z"/>
		<path class="st10" d="M53.4,186.2c-0.1-0.4-0.2-0.7-0.3-1.1c-3.7,2.2-7.6,7.3-11.7,8.8c0.7,6.3,5,14.8,8,20.8
			c2.8,5.7,5.6,11.5,8.8,20.1c0.2,0,0.4,0,0.7,0.1c-2.3-8.7-4.3-17.3-7-26c-1-3.3-2.8-7.5-1.9-11C51,193.9,53.1,190.4,53.4,186.2z"
			/>
		<path class="st6" d="M25.4,188.9c6.1,7.5,13.3,14.7,17.2,23.2c3.2,6.9,7.2,20.5,15.6,22.7c-3.2-11.8-9.7-27.3-12.3-36
			C44.4,194.2,35.1,180,25.4,188.9z"/>
		<path class="st6" d="M25.2,189.1c0.1-0.1,0.1-0.1,0.2-0.1c0,0,0,0,0,0L25.2,189.1z"/>
		<path class="st11" d="M25.4,188.9c0.1,0.2,0.3,0.3,0.4,0.5c0.4,0,0.8,0,1.2,0.2c13.2,5.2,18.3,11.8,22.2,24
			c2,6.2,4.7,11.9,7.8,17.7c0.2,0.4,0.4,0.8,0.6,1.3c-3.4-11.5-9.2-25.6-11.7-33.8C44.4,194.2,35.1,180,25.4,188.9z"/>
		<path class="st6" d="M144.9,272c-0.4-11.7,4.8-25.2,7.5-36c-6.7,0.2-7.8-7.5-9.8-12.4c-2-4.7-3.2-11-4.9-15l-0.8-0.3
			c2,5.4,2.1,12,3.9,17.8c0.8,2.5,1.5,5,2.6,7.4c0.4,0.9,0.8,2,1.5,2.7c0.8,0.8,2.6,0.9,3,1.7c0.7,1.4-1.2,5-1.7,6.6
			c-0.9,3-1.4,5.1-1.4,8.3c0,3.5,0.2,7.1,0,10.6C144.8,265.9,143.7,269.5,144.9,272z"/>
		<path class="st2" d="M79.5,188.2c-0.5-2.3-1.1-13.4-1.8-15.6c-2-1.2-5.7-0.9-7.9-1.6c-1.3-0.4-6.4-1-5.7-0.3l-0.4-0.3
			c0.8,2.2,0,15.9,0,18.2c1.6-0.3,4.4-8.8,6.1-8.7c0.2,4.2,0.9,8.3-0.4,11.9c4.8,2.5,3,6.4,2.6,10.6c-0.5,4.9,3.2,2.1,2.8,7
			c-0.3,4-3.9,15.4-3.3,19.4c0,0,3.4,8.2,3.3,10.6c0,0.4,0.1,0.1,0.4-0.5c-3.1-10.6,0.6-21.1,4.1-31.4c-0.1-2.1-0.1-4.2,0-6.3
			c0.1-1.5,0.1-3,0.2-4.4C78.5,191.4,79.7,193.5,79.5,188.2z"/>
		<path class="st12" d="M305.1,134.4c-9.3-8.9-35.8-20.8-43.8-24.3l-17.6,2.8c2.1-1.5,6.9-5.2,8.6-7c-16.2-15.8-37.7-16.1-51-26.6
			c-6.6-5.2-36.4-18.3-44.3-23.1c-18.1,9.8-31.4,9.7-39.2,19.2c-7.8,9.4-23.4,10.5-34.3,16.2c0.6,1.4,2,4.6,2.7,6
			c-13.8-2.2-31,11-44.3,19.1c-11.6,7-31.8,17.1-31.8,17.1c15.2,15,28.3,17.6,43.7,19.7c1.1,2.6-3,6.7-0.9,10.9
			c6.5,13.2,55.1,18.9,66.6,30.9c2.8,2.9,17.3-3.7,17.3-3.7c0,2.4-6.1,5.7-6.1,5.7c14.3,7.5,21.1,15,27.2,14.2
			c6-0.8,22.4-9.7,27.7-12.7c10.4-5.8,13.7-12,24.8-15.8c13.6-4.6,20.8-4.9,30.7-15.9c-5.6-0.5-10.6-1.6-16.4-1.5
			c14.1-5.9,30.8-1.8,45-9.4C280.9,150,292.2,136.7,305.1,134.4z"/>
		<path class="st13" d="M297.6,136.9c-7,1.4-13.3,7.1-19.1,10.8c-8.3,5.3-14.9,10-25.2,11.3c-6.5,0.8-24.3,2.7-27.3,4.4
			c-2.7,1.5-5.2,2.8-2.1,3c7.9,0.6,14.1,2.1,14.1,2.1c-13.8,11-28.7,10.4-32.8,12.8c-4.6,2.6-7.8,6.3-11.6,9.7
			c-5.2,4.6-28.8,16.9-35.9,18.1c-5.3,0.9-7.2-4.7-21.1-11c-3.3-1.5,3.9-7.5,4.4-8.9c-5,0.7-9.7,2-14.6,3.9c-2,0.8-6.5,0.6-8-0.6
			c-11.9-10.6-43.7-16.5-52.2-19.8c-4.7-1.8-11.6-5.7-12.2-10.5c-0.4-2.9,1.4-5.3,2.3-8.1c1.4-4-6-3.2-8.2-3.6
			c-8.2-1.6-29.9-8-38-16.6c0,0,0,0,0,0c15.2,15,28.3,17.6,43.7,19.7c1.1,2.6-3,6.7-0.9,10.9c6.5,13.2,55.1,18.9,66.6,30.9
			c2.8,2.9,17.3-3.7,17.3-3.7c0,2.4-6.1,5.7-6.1,5.7c14.3,7.5,21.1,15,27.2,14.2c6-0.8,22.4-9.7,27.7-12.7
			c10.4-5.8,13.7-12,24.8-15.8c13.6-4.6,20.8-4.9,30.7-15.9c-5.6-0.5-10.6-1.6-16.4-1.5c14.1-5.9,30.8-1.8,45-9.4
			C278.6,151.2,287.7,141.7,297.6,136.9z"/>
		<path class="st1" d="M296.2,192c2.9-3.9,2.7-7.1,5-11.3c2.3-4.3,4.7-4.2,7.9-8.1c3.3-4-3.2-17.7-3.2-17.7c0-0.1-0.5,0-1.4,0.3
			c-1.6,3.2-3.6,6.3-6.4,8.5c1.9,3.5,3.9,8.1,3.5,8.9c-2.6,6.2-5.1,9.6-6.8,14c-0.5,1.7,0.4,5.3-0.2,7
			C295.3,193,295.8,192.5,296.2,192z"/>
		<path class="st3" d="M282.4,196.9c5.1-9.1,10.3-18.1,12.5-28.2c-5,1.1-12.5-0.8-17.7,0c-1.7,1.8,8.2,3.6,9,5.5
			c0,0-0.5,4.3-0.8,5.8C284.4,185.7,283.4,191.3,282.4,196.9z"/>
		<path class="st14" d="M280.6,170.1c1.1-0.5,13.3,0.1,14.5-0.5c8.4-3.5,8.6-7.6,10.7-10.8c3-4.7-3.5-6.6-11.8-5.9
			c-9.5,9.9-30,16.5-45,20.7c4.5,4.1,12,0.8,15.8,3.1c5.7,3.6,12.2,3.1,12.2,3.1s6.7-3.5,9.2-5.5
			C287.5,173.2,278.5,171.1,280.6,170.1z"/>
		<path class="st15" d="M280.6,170.1c1.1-0.5,13.3,0.1,14.5-0.5c7-2.9,8.3-6.2,9.8-9.1c-3.5,4.9-7.6,8.1-20.2,6.7c0,0,0,0-0.1,0
			c-2.5,0.4-4.8,0.9-7.3,1.8c-0.1,0-0.2,0-0.3,0.1c1.4,1.2,2.4,3,4.4,3.6c5.3,1.6-2.4,5.7-4.4,5.9c-2.7,0.3-9.4-3-12.2-3.2
			c-5.2-0.5-3.4,0.4-8.6-0.5c-1.7-0.3-4.2-1.3-5.9-1.5c-0.4,0.1-0.8,0.2-1.2,0.3c4.5,4.1,12,0.8,15.8,3.1c5.7,3.6,12.2,3.1,12.2,3.1
			s6.7-3.5,9.2-5.5C287.5,173.2,278.5,171.1,280.6,170.1z"/>
		<path class="st14" d="M234.2,198.2c0,0-5.9,3-8.9,4.1c-3.5,1.4-8.5,2.9-12.4,2.2c0.3,0.9,1.1,2.5,2,3.4c4.3,4.6,14.9,8.6,20.9,6.4
			c3.9-1.4,16.9-7.3,18.6-10.7C256.6,198.7,238.4,196.7,234.2,198.2z"/>
		<path class="st15" d="M214.2,204.6c-0.4,0-0.9-0.1-1.3-0.2c0.3,0.9,1.1,2.5,2,3.4c4.3,4.6,14.9,8.6,20.9,6.4
			c3.4-1.2,13.6-5.8,17.3-9.2C241.9,212.7,223.3,215.1,214.2,204.6z"/>
		<path class="st12" d="M30,190.7c5.7,1.2,11.1,5.1,15.8,8.1c3.2-3.7,7.3-8.1,7.3-13.7c-4.1-1.5-9-3.7-11.4-7
			C32.8,181.7,17.3,189.1,30,190.7z"/>
		<path class="st13" d="M43.8,195.7c-2.7-2.2-9.6-4.9-15.5-6.1c-3-0.6-2.6-1.6-2.8-2.1c-0.7,1.5,0.4,2.6,4.6,3.2
			c5.7,1.2,11.1,5.1,15.8,8.1c3.1-3.6,7.1-7.9,7.2-13.3c-1.3,3.5-2.2,4.5-4.1,7.6C48.1,194.5,45.1,196.8,43.8,195.7z"/>
		<path class="st2" d="M108.4,206.3c-2.3,2.2-3.6,4.1-5,6.8c-3.4,6.8-5.1,11.7-3.2,19.5c2.3,9.3,5.9,18.2,9.3,27.3
			c2.3,6.2,5.7,17.8,12,21.8c2.5-2.1,5.7-4.2,7.9-6.6c-4-10.4-6.2-23.7-7.4-35.2c-1.3-11.6-3.4-23.7-4.4-35.2
			C114.7,203.6,110.1,204.6,108.4,206.3z"/>
		<path class="st10" d="M117.6,206c0-0.5-0.1-0.9-0.2-1.4c-2.8-1.1-7.4,0-9.1,1.6c-2.3,2.2-3.6,4.1-5,6.8
			c-3.4,6.8-5.1,11.7-3.2,19.5c2.3,9.3,5.9,18.2,9.3,27.3c2.3,6.2,5.7,17.8,12,21.8c2.1-1.8,4.7-3.6,6.8-5.5
			c-8.1-5.6-8.6-15.9-12.2-25c-3-7.5-5.4-14.9-5.3-23c0.1-7.8,4-13.5,6.3-20.8C117.2,206.8,117.4,206.4,117.6,206z"/>
		<path class="st6" d="M103.2,210.4c-3.6-2-9.3-2.9-13.3-5.2c-3.5-2-20-8.7-24.2-8.3c0.7,11.2,12.3,25,17.5,37
			c5.6,12.9,10,21.2,13.9,34.5c1.4,4.7,12.2,3.7,17.2,12.7l7.1,0.5c0,0-1.5-8.8-2.6-12.3c-1.4-4.4-9.2-30.7-11.2-39.3
			C106.3,224.5,108.8,213.5,103.2,210.4z"/>
		<path class="st11" d="M106.3,214.6c-3,0.8-6.2,0.9-9.4,0.8c9.7,8.1,11.9,22.4,14.1,33.7c2.2,11.2,7,21.6,9.8,32.5l0.7,0.1
			c0,0-1.5-8.8-2.6-12.3c-1.4-4.4-9.2-30.7-11.2-39.3C106.7,226,107.7,219.2,106.3,214.6z"/>
		<path class="st12" d="M66.7,194.4c-4.5,3.7,7.2,16.3,13.9,19.3c7,3.2,16.4,3.8,24.1,3c7-0.7,13.1-12.6,13.1-12.6
			c-4.1-2.5-13.1-3.5-19.5-7.3c-8.3-5-18.6-10.2-18.6-10.2C75.1,190.7,71.1,190.8,66.7,194.4z"/>
		<path class="st13" d="M66.7,194.4c-4.5,3.7,7.2,16.3,13.9,19.3c7,3.2,16.4,3.8,24.1,3c5.5-0.6,10.5-8.2,12.4-11.3
			c-9.3,10.3-17.7,11.6-35,6c-5.2-1.7-17.1-8.7-14.1-18C67.5,193.8,67.1,194.1,66.7,194.4z"/>
	</g>
	<path class="st16" d="M162.7,141.9c0.2-0.1,0.5-0.2,0.8-0.3c-0.1-0.1-0.3-0.1-0.4-0.2L162.7,141.9z"/>
	<path class="st16" d="M240.1,147.9c-0.1,0.2-0.2,0.4-0.4,0.5C240,148.2,240,148,240.1,147.9z"/>
	<path class="st17" d="M136.6,118.4c0.2,0.1,0.3,0.1,0.5,0.1c-0.2-0.3-0.4-0.6-0.5-0.9V118.4z"/>
</g>
<g>
	<path class="st18" d="M88.7,195.9l2.5-1.3c5.3-3.1,13.9-3.1,19.3,0c5.3,3.1,5.3,8.1,0,11.1c0,0,0,0,0,0l0,0L108,207
		c-5.3,3.1-13.9,3.1-19.3,0C83.4,203.9,83.4,198.9,88.7,195.9z"/>
	<path class="st18" d="M73.9,194.9l2.5-1.3c5.3-3.1,13.9-3.1,19.3,0c5.3,3.1,5.3,8.1,0,11.1c0,0,0,0,0,0l0,0l-2.5,1.3
		c-5.3,3.1-13.9,3.1-19.3,0C68.6,202.9,68.5,198,73.9,194.9z"/>
	<g>
		<path class="st19" d="M98.2,190.3c-7.5,0-13.5,3.5-13.5,7.8v3.4c0,4.3,6,7.8,13.5,7.8c7.5,0,13.5-3.5,13.5-7.8v-3.4
			C111.7,193.8,105.7,190.3,98.2,190.3z"/>
		<linearGradient id="SVGID_1_" gradientUnits="userSpaceOnUse" x1="110.2437" y1="198.1189" x2="86.2381" y2="198.1189">
			<stop  offset="0" style="stop-color:#F0F2FE"/>
			<stop  offset="1" style="stop-color:#C8CDF0"/>
		</linearGradient>
		<path class="st20" d="M98.2,205.1c6.6,0,12-3.1,12-6.9c0-3.8-5.4-6.9-12-6.9c-6.6,0-12,3.1-12,6.9
			C86.2,201.9,91.6,205.1,98.2,205.1z"/>
		<path class="st21" d="M98.2,192.9c6.1,0,11.2,2.7,11.9,6.1c0.1-0.3,0.1-0.6,0.1-0.8c0-3.8-5.4-6.9-12-6.9c-6.6,0-12,3.1-12,6.9
			c0,0.3,0,0.6,0.1,0.8C87.1,195.5,92.1,192.9,98.2,192.9z"/>
		<linearGradient id="SVGID_2_" gradientUnits="userSpaceOnUse" x1="110.2438" y1="198.9635" x2="86.2379" y2="198.9635">
			<stop  offset="0" style="stop-color:#4BD6ED"/>
			<stop  offset="1" style="stop-color:#1A50B2"/>
		</linearGradient>
		<path class="st22" d="M98.2,205.1c6.1,0,11.2-2.7,11.9-6.1c-0.7-3.4-5.8-6.1-11.9-6.1c-6.1,0-11.2,2.7-11.9,6.1
			C87.1,202.4,92.1,205.1,98.2,205.1z"/>
		<path class="st23" d="M100.3,199c0.1-0.3,0.1-0.6,0.1-0.8c0-2.1-1.6-3.9-4-5.2c-5.3,0.5-9.4,2.9-10.1,6c0.5,2.4,3.2,4.5,7,5.5
			C97.1,203.5,99.8,201.4,100.3,199z"/>
		<linearGradient id="SVGID_3_" gradientUnits="userSpaceOnUse" x1="84.7458" y1="203.7037" x2="111.7345" y2="203.7037">
			<stop  offset="0" style="stop-color:#F0F2FE"/>
			<stop  offset="1" style="stop-color:#C8CDF0"/>
		</linearGradient>
		<path class="st24" d="M98.2,205.9c-7.5,0-13.5-3.5-13.5-7.8v3.4c0,4.3,6,7.8,13.5,7.8c7.5,0,13.5-3.5,13.5-7.8v-3.4
			C111.7,202.4,105.7,205.9,98.2,205.9z"/>
		<path class="st21" d="M98.2,205.9c-7.5,0-13.5-3.5-13.5-7.8v3.4c0,4.3,6,7.8,13.5,7.8c7.5,0,13.5-3.5,13.5-7.8v-3.4
			C111.7,202.4,105.7,205.9,98.2,205.9z"/>
	</g>
	<g>
		
			<linearGradient id="SVGID_4_" gradientUnits="userSpaceOnUse" x1="1.1162" y1="306.6773" x2="17.5456" y2="290.248" gradientTransform="matrix(0.9342 -0.3567 0.3567 0.9342 -32.8758 -77.3765)">
			<stop  offset="0.25" style="stop-color:#FFFFFF"/>
			<stop  offset="0.7" style="stop-color:#DEE4F7"/>
		</linearGradient>
		<path class="st25" d="M79.2,190.1c-7,2.7-11.4,8.1-9.8,12.1l0.6,1.6c1.5,4,8.4,5.1,15.4,2.5c7-2.7,11.4-8.1,9.8-12.1l-0.6-1.6
			C93.1,188.5,86.2,187.4,79.2,190.1z"/>
		
			<linearGradient id="SVGID_5_" gradientUnits="userSpaceOnUse" x1="2.3997" y1="304.5499" x2="16.2628" y2="290.6868" gradientTransform="matrix(0.9342 -0.3567 0.3567 0.9342 -32.8758 -77.3765)">
			<stop  offset="0" style="stop-color:#F0F2FE"/>
			<stop  offset="1" style="stop-color:#C8CDF0"/>
		</linearGradient>
		<path class="st26" d="M84.5,203.8c6.2-2.4,10.1-7.2,8.7-10.8c-1.4-3.6-7.5-4.6-13.7-2.2c-6.2,2.4-10.1,7.2-8.7,10.8
			C72.2,205.2,78.3,206.2,84.5,203.8z"/>
		
			<linearGradient id="SVGID_6_" gradientUnits="userSpaceOnUse" x1="-4.1638" y1="302.3584" x2="22.8252" y2="302.3584" gradientTransform="matrix(0.9342 -0.3567 0.3567 0.9342 -32.8758 -77.3765)">
			<stop  offset="0.25" style="stop-color:#FFFFFF"/>
			<stop  offset="0.7" style="stop-color:#DEE4F7"/>
		</linearGradient>
		<path class="st27" d="M84.8,204.6c-7,2.7-13.9,1.6-15.4-2.5l0.6,1.6c1.5,4,8.4,5.1,15.4,2.5c7-2.7,11.4-8.1,9.8-12.1l-0.6-1.6
			C96.1,196.5,91.7,202,84.8,204.6z"/>
		<path class="st21" d="M84.8,204.6c-7,2.7-13.9,1.6-15.4-2.5l0.6,1.6c1.5,4,8.4,5.1,15.4,2.5c7-2.7,11.4-8.1,9.8-12.1l-0.6-1.6
			C96.1,196.5,91.7,202,84.8,204.6z"/>
	</g>
</g>
<g>
	<path class="st18" d="M102.3,119.2l20.6-11.8c1.8-1.1,4.8-1.1,6.7,0c1.8,1.1,1.8,2.8,0,3.9c0,0,0,0,0,0l0,0L109,123.1
		c-1.8,1.1-4.8,1.1-6.7,0C100.4,122,100.4,120.3,102.3,119.2z"/>
	
		<linearGradient id="SVGID_7_" gradientUnits="userSpaceOnUse" x1="95.3721" y1="104.0663" x2="106.0657" y2="104.0663" gradientTransform="matrix(1 0 0 1 4.2623 -3.9933)">
		<stop  offset="0" style="stop-color:#F0F2FE"/>
		<stop  offset="1" style="stop-color:#C8CDF0"/>
	</linearGradient>
	<path class="st28" d="M99.6,80.7L99.6,80.7c0-0.8,0.5-1.6,1.6-2.2c2.1-1.2,5.5-1.2,7.6,0c1,0.6,1.6,1.4,1.6,2.2l0,0c0,0,0,0,0,0
		s0,36.4,0,36.5c0,3-2.4,5.3-5.3,5.3c-3,0-5.3-2.4-5.3-5.3C99.6,117.1,99.6,80.7,99.6,80.7z"/>
	<path class="st29" d="M103.6,121.1c2.2,0,4-1.8,4-4c0,0,0-38.8,0-39c0.4,0.1,0.8,0.3,1.1,0.5c0.1,0.1,0.3,0.2,0.4,0.3
		c0,0,0.1,0,0.1,0.1c0.1,0.1,0.2,0.2,0.3,0.2c0,0,0,0,0.1,0.1c0.1,0.1,0.2,0.2,0.2,0.3c0,0,0,0,0,0c0.1,0.1,0.2,0.2,0.2,0.3l0,0l0,0
		c0.2,0.3,0.3,0.6,0.3,1l0,0c0,0,0,0,0,0s0,36.4,0,36.5c0,3-2.4,5.3-5.3,5.3c-3,0-5.3-2.4-5.3-5.3c0,0,0-0.1,0-0.1
		C99.6,119.3,101.4,121.1,103.6,121.1z"/>
	
		<linearGradient id="SVGID_8_" gradientUnits="userSpaceOnUse" x1="96.2404" y1="112.9329" x2="105.1983" y2="112.9329" gradientTransform="matrix(1 0 0 1 4.2623 -3.9933)">
		<stop  offset="0" style="stop-color:#82E3FC"/>
		<stop  offset="1" style="stop-color:#3665FC"/>
	</linearGradient>
	<path class="st30" d="M101.8,97c1.7-1,4.6-1,6.3,0c0.9,0.5,1.3,1.2,1.3,1.8l0,0c0,0,0,0,0,0c0,0,0,0,0,0l0,18.4
		c0,2.5-2,4.5-4.5,4.5c-2.5,0-4.5-2-4.5-4.5V98.8C100.5,98.1,100.9,97.5,101.8,97z"/>
	<path class="st21" d="M109.5,98.8L109.5,98.8C109.5,98.8,109.5,98.8,109.5,98.8C109.5,98.8,109.5,98.8,109.5,98.8l0,18.4
		c0,2.5-2,4.5-4.5,4.5c-0.9,0-1.8-0.3-2.5-0.8c0.4,0.1,0.8,0.2,1.2,0.2c2.2,0,4-1.8,4-4c0,0,0-13.9,0-20.3c0.2,0.1,0.3,0.1,0.5,0.2
		C109,97.5,109.5,98.1,109.5,98.8z"/>
	
		<linearGradient id="SVGID_9_" gradientUnits="userSpaceOnUse" x1="105.1983" y1="102.8" x2="96.2404" y2="102.8" gradientTransform="matrix(1 0 0 1 4.2623 -3.9933)">
		<stop  offset="0.25" style="stop-color:#FFFFFF"/>
		<stop  offset="0.7" style="stop-color:#DEE4F7"/>
	</linearGradient>
	<path class="st31" d="M108.1,100.6c-1.7,1-4.6,1-6.3,0c-0.9-0.5-1.3-1.2-1.3-1.8c0-0.7,0.4-1.3,1.3-1.8c1.7-1,4.6-1,6.3,0
		c0.9,0.5,1.3,1.2,1.3,1.8l0,0c0,0,0,0,0,0C109.5,99.5,109,100.1,108.1,100.6z"/>
	<path class="st19" d="M108.8,78.5c-2.1-1.2-5.5-1.2-7.6,0c-1,0.6-1.6,1.4-1.6,2.2c0,0.8,0.5,1.6,1.6,2.2c2.1,1.2,5.5,1.2,7.6,0
		c1-0.6,1.6-1.4,1.6-2.2c0,0,0,0,0,0C110.3,79.9,109.8,79.1,108.8,78.5z"/>
	
		<linearGradient id="SVGID_10_" gradientUnits="userSpaceOnUse" x1="105.1983" y1="84.6998" x2="96.2395" y2="84.6998" gradientTransform="matrix(1 0 0 1 4.2623 -3.9933)">
		<stop  offset="0.25" style="stop-color:#FFFFFF"/>
		<stop  offset="0.7" style="stop-color:#DEE4F7"/>
	</linearGradient>
	<path class="st32" d="M108.1,78.9c-1.8-1-4.6-1-6.3,0c-0.9,0.5-1.3,1.2-1.3,1.8c0,0.7,0.4,1.3,1.3,1.8c1.8,1,4.6,1,6.3,0
		c0.9-0.5,1.3-1.2,1.3-1.8c0,0,0,0,0,0C109.5,80,109,79.4,108.1,78.9z"/>
</g>
<g>
	<path class="st18" d="M200.6,126.6l-18.4-10.6c-5.9-3.4-15.5-3.4-21.4,0l-32,18.5c-2.9,1.7-4.4,3.9-4.4,6.2v0.1l0,0
		c0,2.2,1.5,4.5,4.4,6.2l18.4,10.6c5.9,3.4,15.5,3.4,21.4,0l32-18.5c2.9-1.7,4.4-3.9,4.4-6.1l0,0l0-0.1h0
		C205,130.5,203.5,128.3,200.6,126.6z"/>
	<g>
		<linearGradient id="SVGID_11_" gradientUnits="userSpaceOnUse" x1="104.7618" y1="142.1389" x2="185.3857" y2="142.1389">
			<stop  offset="0" style="stop-color:#FFFFFF"/>
			<stop  offset="0.7" style="stop-color:#DEE4F7"/>
		</linearGradient>
		<path class="st33" d="M185.4,132.3L185.4,132.3c0-2.2-1.5-4.5-4.4-6.2l-18.4-10.6c-5.9-3.4-15.5-3.4-21.4,0l-32,18.5
			c-2.9,1.7-4.4,3.9-4.4,6.2l0,0V152h0c0,2.2,1.5,4.5,4.4,6.2l18.4,10.6c5.9,3.4,15.5,3.4,21.4,0l32-18.5c2.9-1.7,4.4-3.9,4.4-6.2
			l0,0L185.4,132.3z"/>
		<linearGradient id="SVGID_12_" gradientUnits="userSpaceOnUse" x1="104.7618" y1="151.8163" x2="185.3857" y2="151.8163">
			<stop  offset="0.3333" style="stop-color:#F0F2FE"/>
			<stop  offset="0.5161" style="stop-color:#C8CDF0"/>
		</linearGradient>
		<path class="st34" d="M185.4,132.4c0,2.2-1.5,4.5-4.4,6.1l-32,18.5c-5.9,3.4-15.5,3.4-21.4,0l-18.4-10.6c-3-1.7-4.4-3.9-4.4-6.2
			l0,0V152h0c0,2.2,1.5,4.5,4.4,6.2l18.4,10.6c5.9,3.4,15.5,3.4,21.4,0l32-18.5c2.9-1.7,4.4-3.9,4.4-6.2V132.4L185.4,132.4z"/>
		<path class="st21" d="M185.4,132.4c0,2.2-1.5,4.5-4.4,6.1l-32,18.5c-5.9,3.4-15.5,3.4-21.4,0l-18.4-10.6c-3-1.7-4.4-3.9-4.4-6.2
			l0,0V152h0c0,2.2,1.5,4.5,4.4,6.2l18.4,10.6c5.9,3.4,15.5,3.4,21.4,0l32-18.5c2.9-1.7,4.4-3.9,4.4-6.2V132.4L185.4,132.4z"/>
		<g>
			<path class="st21" d="M158.3,157.8c0-0.9,0.6-2,1.4-2.4l8.9-5.1c0.8-0.4,1.4-0.1,1.4,0.8l0,0c0,0.9-0.6,2-1.4,2.4l-8.9,5.1
				C158.9,159.1,158.3,158.7,158.3,157.8L158.3,157.8z"/>
			<path class="st29" d="M168.9,150.2c0.1,0.1,0.1,0.3,0.1,0.5c0,0.9-0.6,2-1.4,2.4l-8.9,5.1c-0.2,0.1-0.3,0.1-0.4,0.2
				c0.2,0.5,0.7,0.6,1.3,0.3l8.9-5.1c0.8-0.4,1.4-1.5,1.4-2.4C169.9,150.4,169.5,150,168.9,150.2z"/>
			<path class="st21" d="M155.4,160.3c-0.4,0.2-0.7,0-0.7-0.4c0-0.4,0.3-1,0.7-1.2c0.4-0.2,0.7,0,0.7,0.4
				C156,159.5,155.7,160.1,155.4,160.3z M154,160.3c0-0.4-0.3-0.6-0.7-0.4c-0.4,0.2-0.7,0.7-0.7,1.2c0,0.4,0.3,0.6,0.7,0.4
				C153.6,161.3,154,160.8,154,160.3z M151.9,161.5c0-0.4-0.3-0.6-0.7-0.4c-0.4,0.2-0.7,0.7-0.7,1.2c0,0.4,0.3,0.6,0.7,0.4
				C151.6,162.5,151.9,162,151.9,161.5z M149.8,162.7c0-0.4-0.3-0.6-0.7-0.4c-0.4,0.2-0.7,0.7-0.7,1.2c0,0.4,0.3,0.6,0.7,0.4
				C149.5,163.7,149.8,163.2,149.8,162.7z M179.7,145.4c0-0.4-0.3-0.6-0.7-0.4c-0.4,0.2-0.7,0.7-0.7,1.2c0,0.4,0.3,0.6,0.7,0.4
				C179.4,146.4,179.7,145.9,179.7,145.4z M177.6,146.6c0-0.4-0.3-0.6-0.7-0.4c-0.4,0.2-0.7,0.7-0.7,1.2c0,0.4,0.3,0.6,0.7,0.4
				C177.3,147.6,177.6,147.1,177.6,146.6z M175.6,147.8c0-0.4-0.3-0.6-0.7-0.4c-0.4,0.2-0.7,0.7-0.7,1.2c0,0.4,0.3,0.6,0.7,0.4
				C175.3,148.8,175.6,148.3,175.6,147.8z M173.5,149c0-0.4-0.3-0.6-0.7-0.4c-0.4,0.2-0.7,0.7-0.7,1.2c0,0.4,0.3,0.6,0.7,0.4
				C173.2,150,173.5,149.5,173.5,149z"/>
		</g>
		<path class="st21" d="M185.4,143.1c0,2.2-1.5,4.5-4.4,6.2l-32,18.5c-5.9,3.4-15.5,3.4-21.4,0l-18.4-10.6c-3-1.7-4.4-3.9-4.4-6.2h0
			v1h0c0,2.2,1.5,4.5,4.4,6.2l18.4,10.6c5.9,3.4,15.5,3.4,21.4,0l32-18.5c2.9-1.7,4.4-3.9,4.4-6.2l0-11.8v0L185.4,143.1z"/>
		<path class="st35" d="M185.4,132.4L185.4,132.4L185.4,132.4L185.4,132.4c0-2.3-1.5-4.6-4.4-6.3l-18.4-10.6
			c-5.9-3.4-15.5-3.4-21.4,0l-17.5,10.1c-2.9,1.7-4.4,3.9-4.4,6.2v0.1h0c0,2.2,1.5,4.5,4.4,6.2l18.4,10.6c5.9,3.4,15.5,3.4,21.4,0
			l17.5-10.1C183.9,136.9,185.4,134.6,185.4,132.4z"/>
	</g>
	<g>
		<linearGradient id="SVGID_13_" gradientUnits="userSpaceOnUse" x1="110.5612" y1="128.9521" x2="181.7605" y2="128.9521">
			<stop  offset="0" style="stop-color:#4BD6ED"/>
			<stop  offset="1" style="stop-color:#1A50B2"/>
		</linearGradient>
		<path class="st36" d="M181.8,124.4L181.8,124.4c0-2.2-1.5-4.5-4.4-6.2l-15.5-8.9c-5.9-3.4-15.5-3.4-21.4,0L115,124
			c-2.9,1.7-4.4,3.9-4.4,6.2l0,0v3.4l0,0c0,2.2,1.5,4.5,4.4,6.2l15.5,8.9c5.9,3.4,15.5,3.4,21.4,0l25.5-14.7
			c2.9-1.7,4.4-3.9,4.4-6.1l0,0L181.8,124.4z"/>
		<path class="st21" d="M181.8,124.4L181.8,124.4L181.8,124.4c0,2.3-1.5,4.5-4.4,6.2l-25.5,14.7c-5.9,3.4-15.5,3.4-21.4,0l-15.5-8.9
			c-3-1.7-4.4-3.9-4.4-6.2l0,0v3.3l0,0c0,2.2,1.5,4.5,4.4,6.2l15.5,8.9c5.9,3.4,15.5,3.4,21.4,0l25.5-14.7c2.9-1.7,4.4-3.9,4.4-6.1
			l0,0L181.8,124.4z"/>
		<path class="st21" d="M181.8,124.4L181.8,124.4L181.8,124.4L181.8,124.4c0-2.3-1.5-4.6-4.4-6.3l-15.5-8.9
			c-5.9-3.4-15.5-3.4-21.4,0l-3.8,2.2c-2.9,1.7-4.4,3.9-4.4,6.2l0,0.1v0c0,2.2,1.5,4.5,4.4,6.2l15.5,8.9c5.9,3.4,15.5,3.4,21.4,0
			l3.8-2.2C180.3,128.9,181.8,126.7,181.8,124.4z"/>
	</g>
	<linearGradient id="SVGID_14_" gradientUnits="userSpaceOnUse" x1="154.8351" y1="115.4034" x2="165.4229" y2="115.4034">
		<stop  offset="0" style="stop-color:#F0F2FE"/>
		<stop  offset="1" style="stop-color:#C8CDF0"/>
	</linearGradient>
	<path class="st37" d="M165.4,109.4C165.4,109.4,165.4,109.4,165.4,109.4L165.4,109.4L165.4,109.4c0-0.8-0.5-1.6-1.5-2.2
		c-2.1-1.2-5.4-1.2-7.5,0c-1,0.6-1.5,1.4-1.5,2.2l0,0v12l0,0c0,0.8,0.5,1.6,1.6,2.2c2.1,1.2,5.4,1.2,7.5,0c1-0.6,1.5-1.4,1.5-2.2
		L165.4,109.4z"/>
	<g>
		<path class="st38" d="M148.1,130.3C148.1,130.3,148.1,130.3,148.1,130.3L148.1,130.3L148.1,130.3c0-1.8-1.2-3.5-3.5-4.9
			c-4.6-2.7-12.2-2.7-16.8,0c-2.3,1.3-3.5,3.1-3.5,4.9l0,0v2.5l0,0c0,1.7,1.2,3.5,3.5,4.8c4.6,2.7,12.2,2.7,16.8,0
			c2.3-1.3,3.5-3.1,3.5-4.8V130.3z"/>
		<linearGradient id="SVGID_15_" gradientUnits="userSpaceOnUse" x1="124.3884" y1="131.5588" x2="148.1374" y2="131.5588">
			<stop  offset="0" style="stop-color:#F0F2FE"/>
			<stop  offset="1" style="stop-color:#C8CDF0"/>
		</linearGradient>
		<path class="st39" d="M148.1,130.3C148.1,130.3,148.1,130.3,148.1,130.3L148.1,130.3L148.1,130.3c0-1.8-1.2-3.5-3.5-4.9
			c-4.6-2.7-12.2-2.7-16.8,0c-2.3,1.3-3.5,3.1-3.5,4.9l0,0v2.5l0,0c0,1.7,1.2,3.5,3.5,4.8c4.6,2.7,12.2,2.7,16.8,0
			c2.3-1.3,3.5-3.1,3.5-4.8V130.3z"/>
		<path class="st19" d="M127.9,125.5c-4.6,2.7-4.6,7,0,9.7c4.6,2.7,12.2,2.7,16.8,0c4.6-2.7,4.6-7,0-9.7
			C140,122.8,132.5,122.8,127.9,125.5z"/>
		<linearGradient id="SVGID_16_" gradientUnits="userSpaceOnUse" x1="125.0587" y1="127.4434" x2="147.4671" y2="127.4434">
			<stop  offset="0" style="stop-color:#F0F2FE"/>
			<stop  offset="1" style="stop-color:#C8CDF0"/>
		</linearGradient>
		<path class="st40" d="M128.3,127.1c4.4-2.5,11.5-2.5,15.9,0c1.9,1.1,3,2.5,3.2,3.9c0.3-1.9-0.7-3.8-3.2-5.3
			c-4.4-2.5-11.5-2.5-15.9,0c-2.5,1.4-3.6,3.4-3.2,5.3C125.4,129.6,126.5,128.2,128.3,127.1z"/>
		<linearGradient id="SVGID_17_" gradientUnits="userSpaceOnUse" x1="130.1559" y1="131.4185" x2="144.051" y2="131.4185">
			<stop  offset="0" style="stop-color:#F0F2FE"/>
			<stop  offset="1" style="stop-color:#C8CDF0"/>
		</linearGradient>
		<path class="st41" d="M142,131.6c-0.9,0.2,0.7-2,0.7-2s1.9,0.5,1.1,0.7C142.9,130.6,143,131.3,142,131.6z M136.5,129
			c-1.4-0.5-5.5,0.9-3.1,0.9c2.4,0,3.4,1.2,3.4,1.7C136.9,132.1,138.1,129.5,136.5,129z M131,132.1c-1,0.7-1.4,1.4,0.3,1.2
			c1.7-0.2,3-1.9,1.8-1.5C132,132.2,132.4,131.1,131,132.1z M137.6,134c0.8,0.2,0.2-0.5,0.7-1.2c0.5-0.7-0.7,0.5-1.6,0.5
			C135.6,133.4,136.4,133.7,137.6,134z"/>
	</g>
	<g>
		<g>
			<linearGradient id="SVGID_18_" gradientUnits="userSpaceOnUse" x1="117.8452" y1="108.4723" x2="174.4735" y2="108.4723">
				<stop  offset="0" style="stop-color:#4BD6ED"/>
				<stop  offset="1" style="stop-color:#1A50B2"/>
			</linearGradient>
			<path class="st42" d="M174.5,104.8L174.5,104.8c0-1.8-1.2-3.6-3.5-4.9l-12.3-7.1c-4.7-2.7-12.3-2.7-17,0l-20.3,11.7
				c-2.3,1.4-3.5,3.1-3.5,4.9l0,0l0,2.7h0c0,1.8,1.2,3.6,3.5,4.9l12.3,7.1c4.7,2.7,12.3,2.7,17,0l20.3-11.7c2.3-1.3,3.5-3.1,3.5-4.9
				l0,0V104.8z"/>
			<path class="st21" d="M171,111.4l-20.3,11.7c-4.7,2.7-12.3,2.7-17,0l-12.3-7.1c-2.3-1.4-3.5-3.1-3.5-4.9h0l0,1h0
				c0,1.8,1.2,3.6,3.5,4.9l12.3,7.1c4.7,2.7,12.3,2.7,17,0l20.3-11.7c2.3-1.3,3.5-3.1,3.5-4.9l0,0v-1l0,0
				C174.5,108.3,173.3,110,171,111.4z"/>
			<linearGradient id="SVGID_19_" gradientUnits="userSpaceOnUse" x1="127.5837" y1="121.0053" x2="167.4079" y2="81.1811">
				<stop  offset="0" style="stop-color:#FFFFFF"/>
				<stop  offset="0.7" style="stop-color:#DEE4F7"/>
			</linearGradient>
			<path class="st43" d="M174.5,90.1L174.5,90.1L174.5,90.1c0-1.1-0.4-2.1-1.3-3.1c0,0-0.1-0.1-0.1-0.1c-0.1-0.1-0.2-0.2-0.3-0.3
				c-0.5-0.5-1.1-1-1.9-1.4l-12.3-7.1c-4.7-2.7-12.3-2.7-17,0l-8.8,5.1l-11.5,13.3c-2.3,1.4-3.5,3.1-3.5,4.9v8h0
				c0,1.8,1.2,3.6,3.5,4.9l12.3,7.1c4.7,2.7,12.3,2.7,17,0l20.3-11.7c2.3-1.3,3.5-3.1,3.5-4.9v0V90.1z"/>
			<linearGradient id="SVGID_20_" gradientUnits="userSpaceOnUse" x1="117.8464" y1="106.7835" x2="174.4735" y2="106.7835">
				<stop  offset="0" style="stop-color:#F0F2FE"/>
				<stop  offset="1" style="stop-color:#C8CDF0"/>
			</linearGradient>
			<path class="st44" d="M174.5,90.1L174.5,90.1L174.5,90.1c0,1.8-1.2,3.5-3.5,4.9l-8.8,5.1l-11.5,13.3c-4.7,2.7-12.3,2.7-17,0
				l-12.3-7.1c-3.3-1.9-4.3-4.7-2.9-7.1c-0.4,0.7-0.6,1.5-0.6,2.2v8h0c0,1.8,1.2,3.6,3.5,4.9l12.3,7.1c4.7,2.7,12.3,2.7,17,0
				l20.3-11.7c2.3-1.3,3.5-3.1,3.5-4.9v0V90.1z"/>
			<path class="st21" d="M174.5,90.1L174.5,90.1L174.5,90.1c0,1.8-1.2,3.5-3.5,4.9l-8.8,5.1l-11.5,13.3c-4.7,2.7-12.3,2.7-17,0
				l-12.3-7.1c-3.3-1.9-4.3-4.7-2.9-7.1c-0.4,0.7-0.6,1.5-0.6,2.2v8h0c0,1.8,1.2,3.6,3.5,4.9l12.3,7.1c4.7,2.7,12.3,2.7,17,0
				l20.3-11.7c2.3-1.3,3.5-3.1,3.5-4.9v0V90.1z"/>
			<path class="st45" d="M171,85.2l-12.3-7.1c-4.7-2.7-12.3-2.7-17,0l-8.8,5.1l-11.5,13.3l29.3,16.9l11.5-13.3L171,95
				C175.6,92.3,175.6,87.9,171,85.2z"/>
		</g>
		<g>
			<linearGradient id="SVGID_21_" gradientUnits="userSpaceOnUse" x1="129.3811" y1="85.6744" x2="174.4753" y2="85.6744">
				<stop  offset="0" style="stop-color:#FFFFFF"/>
				<stop  offset="0.7" style="stop-color:#DEE4F7"/>
			</linearGradient>
			<path class="st46" d="M174.5,78.1L174.5,78.1c0-1.8-1.2-3.6-3.5-4.9L158.6,66c-4.7-2.7-12.3-2.7-17,0l-8.8,5.1
				c-2.3,1.4-3.5,3.1-3.5,4.9l0,0v18.7l0,0c0,1.8,1.2,3.6,3.5,4.9l12.3,7.1c4.7,2.7,12.3-3.9,17-6.7L171,95c2.3-1.3,3.5-3.1,3.5-4.9
				v0L174.5,78.1z"/>
			<linearGradient id="SVGID_22_" gradientUnits="userSpaceOnUse" x1="129.3811" y1="89.2156" x2="174.4753" y2="89.2156">
				<stop  offset="0" style="stop-color:#F0F2FE"/>
				<stop  offset="1" style="stop-color:#C8CDF0"/>
			</linearGradient>
			<path class="st47" d="M174.5,78.1L174.5,78.1c0,1.8-1.2,3.5-3.5,4.9l-8.8,5.1c-4.7,2.7-12.3,2.7-17,0l-12.3-7.1
				c-4.7-2.7-4.7-7.1,0-9.8c-2.3,1.4-3.5,3.1-3.5,4.9v18.7l0,0c0,1.8,1.2,3.6,3.5,4.9l12.3,7.1c4.7,2.7,12.3-3.9,17-6.7L171,95
				c2.3-1.3,3.5-3.1,3.5-4.9v0L174.5,78.1z"/>
			<path class="st21" d="M174.5,78.1L174.5,78.1c0,1.8-1.2,3.5-3.5,4.9l-8.8,5.1c-4.7,2.7-12.3,2.7-17,0l-12.3-7.1
				c-4.7-2.7-4.7-7.1,0-9.8c-2.3,1.4-3.5,3.1-3.5,4.9v18.7l0,0c0,1.8,1.2,3.6,3.5,4.9l12.3,7.1c4.7,2.7,12.3-3.9,17-6.7L171,95
				c2.3-1.3,3.5-3.1,3.5-4.9v0L174.5,78.1z"/>
		</g>
		<path d="M171,73.1L158.6,66c-4.7-2.7-12.3-2.7-17,0c-4.7,2.7-4.7,7.1,0,9.8l12.3,7.1c4.7,2.7,12.3,2.7,17,0
			C175.6,80.3,175.6,75.9,171,73.1z"/>
		<linearGradient id="SVGID_23_" gradientUnits="userSpaceOnUse" x1="139.6816" y1="71.4792" x2="172.9302" y2="71.4792">
			<stop  offset="0" style="stop-color:#FDD2A7"/>
			<stop  offset="1" style="stop-color:#F83F76"/>
		</linearGradient>
		<path class="st48" d="M172.9,72L172.9,72c0-1.5-1-3.1-3.1-4.3l-12.3-7.1c-4.1-2.4-10.7-2.4-14.8,0c-2,1.2-3.1,2.7-3.1,4.3v6
			c0,0,0,0,0,0l0,0h0c0,1.5,1,3.1,3.1,4.2l12.3,7.1c4.1,2.4,10.7,2.4,14.8,0c2-1.2,3.1-2.7,3.1-4.3h0L172.9,72z"/>
		<path class="st21" d="M172.9,72c0,1.5-1,3.1-3.1,4.3c-4.1,2.4-10.7,2.4-14.8,0l-12.3-7.1c-2-1.2-3.1-2.7-3.1-4.3v0v6c0,0,0,0,0,0
			l0,0h0c0,1.5,1,3.1,3.1,4.2l12.3,7.1c4.1,2.4,10.7,2.4,14.8,0c2-1.2,3.1-2.7,3.1-4.3h0L172.9,72z"/>
		<path class="st21" d="M169.9,67.8l-5-2.9l-7.4,4.3c-2.7,1.6-2.7,4.2,0,5.7c2.7,1.6,7.1,1.6,9.9,0l0,0l5.5-3.2
			C172.8,70.3,171.8,68.9,169.9,67.8z"/>
		<g>
			<linearGradient id="SVGID_24_" gradientUnits="userSpaceOnUse" x1="143.1075" y1="60.9188" x2="157.1874" y2="60.9188">
				<stop  offset="0" style="stop-color:#F0F2FE"/>
				<stop  offset="1" style="stop-color:#C8CDF0"/>
			</linearGradient>
			<path class="st49" d="M157.2,52.9h-14.1v12h0c0,1,0.7,2.1,2.1,2.9c2.8,1.6,7.2,1.6,10,0c1.4-0.8,2.1-1.8,2.1-2.9l0,0V52.9z"/>
			<path class="st50" d="M145.2,50c-2.7,1.6-2.7,4.2,0,5.7c2.8,1.6,7.2,1.6,10,0c2.7-1.6,2.7-4.2,0-5.7
				C152.4,48.4,147.9,48.4,145.2,50z"/>
			<linearGradient id="SVGID_25_" gradientUnits="userSpaceOnUse" x1="144.8542" y1="52.3666" x2="157.1783" y2="52.3666">
				<stop  offset="0" style="stop-color:#F0F2FE"/>
				<stop  offset="1" style="stop-color:#C8CDF0"/>
			</linearGradient>
			<path class="st51" d="M155.1,50c-1.5-0.9-3.5-1.2-5.4-1.2l-3.3,1.9c-2.1,1.2-2.1,3.1,0,4.3c2,1.2,5.3,1.2,7.4,0l0,0l3.3-1.9
				C157.3,52,156.6,50.9,155.1,50z"/>
			<linearGradient id="SVGID_26_" gradientUnits="userSpaceOnUse" x1="144.8537" y1="46.838" x2="155.4411" y2="46.838">
				<stop  offset="0" style="stop-color:#4BD6ED"/>
				<stop  offset="1" style="stop-color:#1A50B2"/>
			</linearGradient>
			<path class="st52" d="M155.4,40.8C155.4,40.8,155.4,40.8,155.4,40.8L155.4,40.8L155.4,40.8c0-0.8-0.5-1.6-1.5-2.2
				c-2.1-1.2-5.4-1.2-7.5,0c-1,0.6-1.5,1.4-1.5,2.2l0,0v12.1l0,0c0,0.8,0.5,1.6,1.6,2.2c2.1,1.2,5.4,1.2,7.5,0
				c1-0.6,1.5-1.4,1.5-2.2L155.4,40.8z"/>
			<path class="st50" d="M155.4,39.1C155.4,39.1,155.4,39.1,155.4,39.1L155.4,39.1L155.4,39.1c0-0.8-0.5-1.6-1.6-2.2
				c-2.1-1.2-5.4-1.2-7.5,0c-1,0.6-1.5,1.4-1.5,2.2l0,0v1.7l0,0c0,0.8,0.5,1.6,1.6,2.2c2.1,1.2,5.4,1.2,7.5,0c1-0.6,1.5-1.4,1.5-2.2
				V39.1z"/>
			<linearGradient id="SVGID_27_" gradientUnits="userSpaceOnUse" x1="144.8537" y1="41.479" x2="155.4411" y2="41.479">
				<stop  offset="0" style="stop-color:#F0F2FE"/>
				<stop  offset="1" style="stop-color:#C8CDF0"/>
			</linearGradient>
			<path class="st53" d="M150.1,42.1c-2.9,0-5.3-1.4-5.3-3.1l0,0v1.7c0,0.8,0.5,1.6,1.6,2.2c2.1,1.2,5.4,1.2,7.5,0
				c1-0.6,1.5-1.4,1.5-2.2v-1.7l0,0C155.4,40.8,153.1,42.1,150.1,42.1z"/>
			<linearGradient id="SVGID_28_" gradientUnits="userSpaceOnUse" x1="153.725" y1="39.0879" x2="146.5686" y2="39.0879">
				<stop  offset="0" style="stop-color:#4BD6ED"/>
				<stop  offset="1" style="stop-color:#1A50B2"/>
			</linearGradient>
			<path class="st54" d="M152.7,37.6c-1.4-0.8-3.7-0.8-5.1,0c-1.3,0.7-1.4,1.9-0.4,2.7c0.1,0.1,0.2,0.2,0.4,0.3
				c1.4,0.8,3.7,0.8,5.1,0c0.1-0.1,0.3-0.2,0.4-0.3C154.1,39.5,153.9,38.4,152.7,37.6z"/>
			<path class="st21" d="M147.2,40.3c0.1-0.1,0.2-0.2,0.4-0.3c1.4-0.8,3.7-0.8,5.1,0c0.1,0.1,0.3,0.2,0.4,0.3c1-0.8,0.9-1.9-0.4-2.7
				c-1.4-0.8-3.7-0.8-5.1,0C146.4,38.4,146.2,39.5,147.2,40.3z"/>
		</g>
		<g>
			<linearGradient id="SVGID_29_" gradientUnits="userSpaceOnUse" x1="155.4261" y1="68.0314" x2="169.5058" y2="68.0314">
				<stop  offset="0" style="stop-color:#F0F2FE"/>
				<stop  offset="1" style="stop-color:#C8CDF0"/>
			</linearGradient>
			<path class="st55" d="M169.5,60h-14.1v12h0c0,1,0.7,2.1,2.1,2.9c2.8,1.6,7.2,1.6,10,0c1.4-0.8,2.1-1.8,2.1-2.9l0,0V60z"/>
			<path class="st50" d="M157.5,57.1c-2.7,1.6-2.7,4.2,0,5.7c2.8,1.6,7.2,1.6,10,0c2.7-1.6,2.7-4.2,0-5.7
				C164.7,55.5,160.2,55.5,157.5,57.1z"/>
			<linearGradient id="SVGID_30_" gradientUnits="userSpaceOnUse" x1="157.1725" y1="59.4788" x2="169.4969" y2="59.4788">
				<stop  offset="0" style="stop-color:#F0F2FE"/>
				<stop  offset="1" style="stop-color:#C8CDF0"/>
			</linearGradient>
			<path class="st56" d="M167.4,57.1c-1.5-0.9-3.5-1.2-5.4-1.2l-3.3,1.9c-2.1,1.2-2.1,3.1,0,4.3c2,1.2,5.3,1.2,7.4,0l0,0l3.4-1.9
				C169.6,59.1,168.9,58,167.4,57.1z"/>
			<linearGradient id="SVGID_31_" gradientUnits="userSpaceOnUse" x1="157.1721" y1="53.9506" x2="167.7595" y2="53.9506">
				<stop  offset="0" style="stop-color:#4BD6ED"/>
				<stop  offset="1" style="stop-color:#1A50B2"/>
			</linearGradient>
			<path class="st57" d="M167.8,47.9C167.8,47.9,167.8,47.9,167.8,47.9L167.8,47.9L167.8,47.9c0-0.8-0.5-1.6-1.6-2.2
				c-2.1-1.2-5.4-1.2-7.5,0c-1,0.6-1.5,1.4-1.5,2.2l0,0V60l0,0c0,0.8,0.5,1.6,1.6,2.2c2.1,1.2,5.4,1.2,7.5,0c1-0.6,1.5-1.4,1.5-2.2
				L167.8,47.9z"/>
			<path class="st50" d="M167.8,46.2C167.8,46.2,167.8,46.2,167.8,46.2L167.8,46.2L167.8,46.2c0-0.8-0.5-1.6-1.6-2.2
				c-2.1-1.2-5.4-1.2-7.5,0c-1,0.6-1.5,1.4-1.5,2.2l0,0v1.7l0,0c0,0.8,0.5,1.6,1.6,2.2c2.1,1.2,5.4,1.2,7.5,0c1-0.6,1.5-1.4,1.5-2.2
				V46.2z"/>
			<linearGradient id="SVGID_32_" gradientUnits="userSpaceOnUse" x1="157.1721" y1="48.5914" x2="167.7595" y2="48.5914">
				<stop  offset="0" style="stop-color:#F0F2FE"/>
				<stop  offset="1" style="stop-color:#C8CDF0"/>
			</linearGradient>
			<path class="st58" d="M162.5,49.3c-2.9,0-5.3-1.4-5.3-3.1c0,0,0,0,0,0v1.7c0,0.8,0.5,1.6,1.6,2.2c2.1,1.2,5.4,1.2,7.5,0
				c1-0.6,1.5-1.4,1.5-2.2v-1.7l0,0C167.8,47.9,165.4,49.3,162.5,49.3z"/>
			<linearGradient id="SVGID_33_" gradientUnits="userSpaceOnUse" x1="166.0436" y1="46.1996" x2="158.887" y2="46.1996">
				<stop  offset="0" style="stop-color:#4BD6ED"/>
				<stop  offset="1" style="stop-color:#1A50B2"/>
			</linearGradient>
			<path class="st59" d="M165,44.7c-1.4-0.8-3.7-0.8-5.1,0c-1.3,0.7-1.4,1.9-0.4,2.7c0.1,0.1,0.2,0.2,0.4,0.3c1.4,0.8,3.7,0.8,5.1,0
				c0.1-0.1,0.3-0.2,0.4-0.3C166.4,46.6,166.3,45.5,165,44.7z"/>
			<path class="st21" d="M159.6,47.4c0.1-0.1,0.2-0.2,0.4-0.3c1.4-0.8,3.7-0.8,5.1,0c0.1,0.1,0.3,0.2,0.4,0.3c1-0.8,0.9-1.9-0.4-2.7
				c-1.4-0.8-3.7-0.8-5.1,0C158.7,45.5,158.6,46.6,159.6,47.4z"/>
		</g>
		<g>
			<linearGradient id="SVGID_34_" gradientUnits="userSpaceOnUse" x1="165.5841" y1="108.1408" x2="169.7181" y2="100.9805">
				<stop  offset="0" style="stop-color:#F0F2FE"/>
				<stop  offset="1" style="stop-color:#C8CDF0"/>
			</linearGradient>
			<path class="st60" d="M166.3,108.5C166.3,108.5,166.3,108.5,166.3,108.5L166.3,108.5L166.3,108.5c0.5,0.3,1.3,0.3,2.1-0.2
				c1.6-0.9,2.9-3.2,2.9-5.1c0-0.9-0.3-1.6-0.9-1.9l0,0l-1.4-0.8l0,0c-0.5-0.3-1.3-0.3-2.1,0.2c-1.6,0.9-2.9,3.2-2.9,5.1
				c0,0.9,0.3,1.6,0.9,1.9L166.3,108.5z"/>
			<linearGradient id="SVGID_35_" gradientUnits="userSpaceOnUse" x1="166.8638" y1="108.8798" x2="170.9976" y2="101.7199">
				<stop  offset="0" style="stop-color:#FDD2A7"/>
				<stop  offset="1" style="stop-color:#F83F76"/>
			</linearGradient>
			<path class="st61" d="M167.4,109.2C167.4,109.2,167.4,109.2,167.4,109.2L167.4,109.2L167.4,109.2c0.5,0.3,1.3,0.3,2.1-0.2
				c1.6-0.9,2.9-3.2,2.9-5.1c0-0.9-0.3-1.6-0.9-1.9l0,0l-1.2-0.7l0,0c-0.5-0.3-1.3-0.3-2.1,0.2c-1.6,0.9-2.9,3.2-2.9,5.1
				c0,0.9,0.3,1.6,0.9,1.9L167.4,109.2z"/>
			<path class="st21" d="M172.4,103.9c0-1.9-1.3-2.6-2.9-1.7c-1.6,0.9-2.9,3.2-2.9,5.1c0,1.9,1.3,2.6,2.9,1.7
				C171.1,108.1,172.4,105.8,172.4,103.9z"/>
			<linearGradient id="SVGID_36_" gradientUnits="userSpaceOnUse" x1="167.1907" y1="105.8959" x2="172.7405" y2="105.8959">
				<stop  offset="0" style="stop-color:#F0F2FE"/>
				<stop  offset="1" style="stop-color:#C8CDF0"/>
			</linearGradient>
			<path class="st62" d="M168.8,109c0.4,0.2,1,0.2,1.7-0.2c1.3-0.7,2.3-2.5,2.3-4c0-0.7-0.3-1.3-0.7-1.5v0l-0.9-0.5
				c-0.4-0.2-1-0.2-1.6,0.2c-1.3,0.7-2.3,2.5-2.3,4c0,0.7,0.3,1.3,0.7,1.5L168.8,109z"/>
			<path d="M172.7,104.8c0-1.5-1-2.1-2.3-1.3c-1.3,0.7-2.3,2.5-2.3,4c0,1.5,1,2.1,2.3,1.3C171.7,108.1,172.7,106.3,172.7,104.8z"/>
		</g>
		<linearGradient id="SVGID_37_" gradientUnits="userSpaceOnUse" x1="140.2643" y1="110.6754" x2="134.7638" y2="110.6754">
			<stop  offset="0" style="stop-color:#4BD6ED"/>
			<stop  offset="1" style="stop-color:#1A50B2"/>
		</linearGradient>
		<path class="st63" d="M135.6,109.6c-1.1,0.6-1.1,1.6,0,2.2c1.1,0.6,2.8,0.6,3.9,0c1.1-0.6,1.1-1.6,0-2.2
			C138.4,108.9,136.6,108.9,135.6,109.6z"/>
		<linearGradient id="SVGID_38_" gradientUnits="userSpaceOnUse" x1="128.5528" y1="103.9136" x2="123.0521" y2="103.9136">
			<stop  offset="0" style="stop-color:#4BD6ED"/>
			<stop  offset="1" style="stop-color:#1A50B2"/>
		</linearGradient>
		<path class="st64" d="M123.9,102.8c-1.1,0.6-1.1,1.6,0,2.2c1.1,0.6,2.8,0.6,3.9,0c1.1-0.6,1.1-1.6,0-2.2
			C126.7,102.2,124.9,102.2,123.9,102.8z"/>
	</g>
</g>
<g>
	
		<linearGradient id="SVGID_39_" gradientUnits="userSpaceOnUse" x1="-435.7513" y1="30.4522" x2="-410.4833" y2="45.0407" gradientTransform="matrix(-1 0 0 1 -315.1914 0)">
		<stop  offset="0" style="stop-color:#59D8BC"/>
		<stop  offset="1" style="stop-color:#4584EC"/>
	</linearGradient>
	<path class="st65" d="M77.5,11.7l46,26.5c1.2,0.7,2.2,2.4,2.2,3.8v29c0,0.8-0.4,1.4-0.9,1.5c0.1,0,0.2-0.1,0.3-0.1l0.7-0.4l0,0
		c0.4-0.2,0.6-0.7,0.6-1.4v-29c0-1.4-1-3.1-2.2-3.8l-46-26.5c-0.6-0.3-1.2-0.4-1.5-0.2l0,0l0,0l0,0L76,11.6
		C76.4,11.4,76.9,11.4,77.5,11.7z"/>
	<path class="st66" d="M77.5,11.7l46,26.5c1.2,0.7,2.2,2.4,2.2,3.8v29c0,0.8-0.4,1.4-0.9,1.5c0.1,0,0.2-0.1,0.3-0.1l0.7-0.4l0,0
		c0.4-0.2,0.6-0.7,0.6-1.4v-29c0-1.4-1-3.1-2.2-3.8l-46-26.5c-0.6-0.3-1.2-0.4-1.5-0.2l0,0l0,0l0,0L76,11.6
		C76.4,11.4,76.9,11.4,77.5,11.7z"/>
	
		<linearGradient id="SVGID_40_" gradientUnits="userSpaceOnUse" x1="-435.02" y1="30.8746" x2="-396.3957" y2="53.1743" gradientTransform="matrix(-1 0 0 1 -315.1914 0)">
		<stop  offset="0" style="stop-color:#59D8BC"/>
		<stop  offset="1" style="stop-color:#4584EC"/>
	</linearGradient>
	<path class="st67" d="M123.5,38.3c1.2,0.7,2.2,2.4,2.2,3.8v29c0,1.4-1,2-2.2,1.3l-46-26.5c-1.2-0.7-2.2-2.4-2.2-3.8l0-29
		c0-1.4,1-2,2.2-1.3L123.5,38.3z"/>
	
		<linearGradient id="SVGID_41_" gradientUnits="userSpaceOnUse" x1="-426.0774" y1="43.2419" x2="-404.1989" y2="55.8734" gradientTransform="matrix(-1 0 0 1 -315.1914 0)">
		<stop  offset="0" style="stop-color:#59D8BC"/>
		<stop  offset="1" style="stop-color:#4584EC"/>
	</linearGradient>
	<path class="st68" d="M94.4,42.7c1-0.6,1.6-2.5,2.2-4.3c0.7-2.2,1.5-4.4,2.7-4.2c-0.1,0-0.2,0-0.3,0c-0.7,0.7-1.2,2.3-1.7,3.8
		c-0.6,1.8-1.3,3.7-2.3,4.3h0L94.4,42.7z M82.7,36.6c-0.6,1.2-1.1,2.4-2,2.8l0,0l0.7-0.4c0,0,0,0,0,0l0,0v0c0.8-0.5,1.4-1.7,1.9-2.8
		c0.4-0.9,0.9-1.8,1.4-2.4c0.1,0,0.3,0,0.5,0C84.2,33.5,83.5,35,82.7,36.6z M79.7,38l-0.7,0.4c1.5,0.9,2.3-0.8,3.1-2.6
		c-0.4,0.9-0.9,1.8-1.4,2.4C80.4,38.3,80,38.2,79.7,38z M84,33c0.5-0.3,1.1-0.3,1.9,0.1c1.9,1.1,2.9,3,3.8,4.6
		c0.8,1.6,1.6,3.1,3.2,4c0.7,0.4,1.2,0.1,1.6-0.6c-0.1,0.1-0.1,0.2-0.2,0.3c-0.2,0-0.4,0-0.7-0.2c-1.6-0.9-2.4-2.4-3.2-4
		c-0.9-1.7-1.8-3.5-3.8-4.6c-0.7-0.4-1.3-0.4-1.8-0.2l0,0L84,33L84,33z M99.8,33.6c2,1.2,2.9,4.9,3.8,8.6c0.8,3.3,1.7,6.8,3.1,7.6
		c1.4,0.8,2.3,0.7,3.3,0.6c1-0.1,2.1-0.2,3.7,0.7c2,1.1,2.9,3.6,3.8,6c0.8,2.2,1.6,4.4,3.2,5.2l0,0.8l0.7-0.4v-0.8
		c-1.5-0.9-2.3-3-3.2-5.2c-0.9-2.4-1.8-4.9-3.8-6c-1.6-0.9-2.7-0.8-3.7-0.7c-1,0.1-1.9,0.2-3.3-0.6c-1.5-0.8-2.3-4.3-3.1-7.6
		c-0.9-3.7-1.8-7.5-3.8-8.6c-0.6-0.3-1-0.3-1.5-0.1l0,0l-0.1,0.1c0,0,0,0,0,0l-0.7,0.4C98.6,33.2,99.2,33.2,99.8,33.6z"/>
	<path class="st66" d="M94.4,42.7c1-0.6,1.6-2.5,2.2-4.3c0.7-2.2,1.5-4.4,2.7-4.2c-0.1,0-0.2,0-0.3,0c-0.7,0.7-1.2,2.3-1.7,3.8
		c-0.6,1.8-1.3,3.7-2.3,4.3h0L94.4,42.7z M82.7,36.6c-0.6,1.2-1.1,2.4-2,2.8l0,0l0.7-0.4c0,0,0,0,0,0l0,0v0c0.8-0.5,1.4-1.7,1.9-2.8
		c0.4-0.9,0.9-1.8,1.4-2.4c0.1,0,0.3,0,0.5,0C84.2,33.5,83.5,35,82.7,36.6z M79.7,38l-0.7,0.4c1.5,0.9,2.3-0.8,3.1-2.6
		c-0.4,0.9-0.9,1.8-1.4,2.4C80.4,38.3,80,38.2,79.7,38z M84,33c0.5-0.3,1.1-0.3,1.9,0.1c1.9,1.1,2.9,3,3.8,4.6
		c0.8,1.6,1.6,3.1,3.2,4c0.7,0.4,1.2,0.1,1.6-0.6c-0.1,0.1-0.1,0.2-0.2,0.3c-0.2,0-0.4,0-0.7-0.2c-1.6-0.9-2.4-2.4-3.2-4
		c-0.9-1.7-1.8-3.5-3.8-4.6c-0.7-0.4-1.3-0.4-1.8-0.2l0,0L84,33L84,33z M99.8,33.6c2,1.2,2.9,4.9,3.8,8.6c0.8,3.3,1.7,6.8,3.1,7.6
		c1.4,0.8,2.3,0.7,3.3,0.6c1-0.1,2.1-0.2,3.7,0.7c2,1.1,2.9,3.6,3.8,6c0.8,2.2,1.6,4.4,3.2,5.2l0,0.8l0.7-0.4v-0.8
		c-1.5-0.9-2.3-3-3.2-5.2c-0.9-2.4-1.8-4.9-3.8-6c-1.6-0.9-2.7-0.8-3.7-0.7c-1,0.1-1.9,0.2-3.3-0.6c-1.5-0.8-2.3-4.3-3.1-7.6
		c-0.9-3.7-1.8-7.5-3.8-8.6c-0.6-0.3-1-0.3-1.5-0.1l0,0l-0.1,0.1c0,0,0,0,0,0l-0.7,0.4C98.6,33.2,99.2,33.2,99.8,33.6z"/>
	<path class="st19" d="M120.6,63.3c-2-1.1-2.9-3.6-3.8-6c-0.8-2.2-1.6-4.4-3.2-5.2c-1.4-0.8-2.3-0.7-3.3-0.6c-1,0.1-2,0.2-3.6-0.7
		c-2-1.2-2.9-4.9-3.8-8.6c-0.8-3.3-1.7-6.8-3.1-7.6c-1.5-0.9-2.3,1.6-3.1,4c-0.9,2.6-1.8,5.4-3.8,4.2c-1.9-1.1-2.9-3-3.8-4.6
		c-0.8-1.6-1.6-3.1-3.2-4c-1.5-0.9-2.3,0.8-3.1,2.6c-0.9,1.9-1.8,3.8-3.8,2.7l0-0.8c1.5,0.9,2.3-0.8,3.1-2.6
		c0.9-1.9,1.8-3.8,3.8-2.7c1.9,1.1,2.9,3,3.8,4.6c0.8,1.6,1.6,3.1,3.2,4c1.5,0.9,2.3-1.6,3.1-4c0.9-2.6,1.8-5.4,3.8-4.2
		c2,1.2,2.9,4.9,3.8,8.6c0.8,3.3,1.7,6.8,3.1,7.6c1.4,0.8,2.3,0.7,3.3,0.6c1-0.1,2.1-0.2,3.7,0.7c2,1.1,2.9,3.6,3.8,6
		c0.8,2.2,1.6,4.4,3.2,5.2L120.6,63.3z"/>
	<path class="st23" d="M95.8,41.7v9.6L95,50.9v-8.6l0.1-0.1h0c0.1,0,0.1-0.1,0.2-0.2c0,0,0.1,0,0.1-0.1C95.5,42,95.6,41.9,95.8,41.7
		C95.7,41.7,95.7,41.7,95.8,41.7z M100.1,34.7l0,19.2l0.7,0.4V35.7C100.7,35.3,100.4,35,100.1,34.7z M110.4,51.4l0,8.4l0.7,0.4v-8.9
		C110.9,51.4,110.6,51.4,110.4,51.4z M105.3,49.1l0,7.7l0.7,0.4v-7.2C105.7,49.8,105.5,49.5,105.3,49.1z M79.7,39.5v2.5l0.7,0.4
		v-2.9C80.2,39.6,79.9,39.6,79.7,39.5z M85,33.8C85,33.8,85,33.8,85,33.8c0.1,0,0.1,0,0.1,0C85.1,33.8,85,33.8,85,33.8z M115.5,54.2
		v8.6l0.7,0.4v-7.4C116,55.2,115.8,54.7,115.5,54.2z M85.4,33.8c-0.1,0-0.3,0-0.4,0c0,0,0,0-0.1,0c0,0,0,0,0,0c0,0,0,0,0,0
		c0,0,0,0,0,0c0,0,0,0.1-0.1,0.1V45l0.7,0.4V33.8C85.5,33.8,85.4,33.8,85.4,33.8z M89.9,39.5V48l0.7,0.4v-7.8
		C90.4,40.3,90.1,39.9,89.9,39.5z M100.5,33.2c0.1,0.1,0.3,0.2,0.4,0.3c0,0,0,0,0,0v-3.3l-0.7-0.4V33
		C100.3,33,100.4,33.1,100.5,33.2z M95.8,38.4V27.2L95,26.8v13.5C95.3,39.7,95.5,39,95.8,38.4z M89.9,36.5c0.2,0.3,0.3,0.6,0.4,0.8
		c0.1,0.2,0.2,0.3,0.3,0.5V24.2l-0.7-0.4L89.9,36.5C89.9,36.5,89.9,36.5,89.9,36.5z M84.8,32.6L84.8,32.6
		C84.8,32.6,84.8,32.6,84.8,32.6c0.1-0.1,0.2-0.1,0.4-0.1c0.1,0,0.1,0,0.2,0c0.1,0,0.1,0,0.2,0V21.3l-0.7-0.4L84.8,32.6L84.8,32.6z
		 M79.7,38c0.1,0.1,0.2,0.1,0.4,0.2c0,0,0,0,0.1,0c0.1,0,0.2,0.1,0.3,0.1l0-19.9l-0.7-0.4V38z M105.3,45.4c0.1,0.2,0.1,0.4,0.2,0.7
		c0,0.1,0.1,0.3,0.1,0.4c0.1,0.3,0.2,0.5,0.3,0.7c0,0.1,0.1,0.2,0.1,0.2V33.1l-0.7-0.4L105.3,45.4C105.3,45.4,105.3,45.4,105.3,45.4
		z M115.9,52.1c0.1,0.1,0.2,0.3,0.3,0.4c0,0,0.1,0.1,0.1,0.1c0,0,0,0,0,0V39l-0.7-0.4v13.1C115.6,51.8,115.7,51.9,115.9,52.1z
		 M120.9,61.8c0.1,0.1,0.3,0.2,0.4,0.3V42l-0.7-0.4l0,19.9C120.7,61.6,120.8,61.7,120.9,61.8z M120.6,65.7l0.7,0.4v-3.2l-0.7,0.4
		V65.7z M110.7,50c0.1,0,0.3,0,0.4,0V36.1l-0.7-0.4l0,14.4C110.5,50.1,110.6,50.1,110.7,50z"/>
</g>
<g>
	<path class="st18" d="M64.4,159.7c-3.2-4.2-9.6-5.7-8.1-8.6c1.1-2.9,8.1-5.8,14.1-6.6c6.1-0.8,8.5,3.4,13.9,2.7
		c6.6-0.8,11.5,4.6,14.5,7.2c6.9,5.2-5.1,13.6-11.9,11.3C79.5,163.2,69.9,167,64.4,159.7z"/>
	<g>
		<path class="st69" d="M77.9,49.9c-0.7-0.2-1.2,3.6,0.7,4.6c1.9,1-9.8,0.8-9-0.2c0.8-1,0.5-2.1,1.2-2.1c0.7,0,3.6-2.8,2-5.7
			c-1.7-2.9,3.4-2.6,4-1.8c0.6,0.8,2.8,1.3,2.3,2.3C78.6,48,78.9,50.2,77.9,49.9z"/>
		<path class="st23" d="M77.9,49.9c-0.7-0.2-1.2,3.6,0.7,4.6c1.9,1-9.8,0.8-9-0.2c0.8-1,0.5-2.1,1.2-2.1c0.7,0,3.6-2.8,2-5.7
			c-1.7-2.9,3.4-2.6,4-1.8c0.6,0.8,2.8,1.3,2.3,2.3C78.6,48,78.9,50.2,77.9,49.9z"/>
		<path class="st69" d="M81.8,39c-0.3-1.1-2.2-1.9-3.4-0.5c-1.6,2-1.7,2.9-3.6,5c-0.2,0.2-0.3,0.4-0.5,0.5c0-0.2,0-0.3-0.1-0.5
			c-0.3-1.1-1.2-1.9-2-1.7c-0.8,0.2-1.1,1.3-0.8,2.4c0.2,0.6,0.5,1.1,0.9,1.4c1.3,2,1.6,2.8,3.8,3.7c1.8,0.7,4.1,1.1,4.5-0.4
			c0.4-1.2,1.5-2.1,1.5-3.8c0-1.1-0.6-3.2-0.4-4.2C81.9,40.4,81.9,39.5,81.8,39z"/>
		<path class="st23" d="M81.8,39c-0.3-1.1-2.2-1.9-3.4-0.5c-1.6,2-1.7,2.9-3.6,5c-0.2,0.2-0.3,0.4-0.5,0.5c0-0.2,0-0.3-0.1-0.5
			c-0.3-1.1-1.2-1.9-2-1.7c-0.8,0.2-1.1,1.3-0.8,2.4c0.2,0.6,0.5,1.1,0.9,1.4c1.3,2,1.6,2.8,3.8,3.7c1.8,0.7,4.1,1.1,4.5-0.4
			c0.4-1.2,1.5-2.1,1.5-3.8c0-1.1-0.6-3.2-0.4-4.2C81.9,40.4,81.9,39.5,81.8,39z"/>
		<path class="st23" d="M77.6,49c1.2-0.5,1.1,0.5,2.4-1.6c1.3-2.1,0.8-4.2,0.9-5.9c0.1-1.8,0.1-1.8-0.9-3.2
			c-0.1-0.1-0.2-0.3-0.3-0.4c0.9-0.1,1.8,0.5,2,1.2c0.1,0.5,0.1,1.4,0,2c-0.2,1,0.4,3,0.4,4.2c0,1.7-1.2,2.6-1.5,3.8
			c-0.3,0.9-1.4,1.1-2.6,0.9c-0.1,0-0.1,0-0.2,0c-0.7-0.2-1.2,3.6,0.7,4.6c0.7,0.3-0.3,0.5-1.8,0.5c-0.1-1.3-0.1-2.4-0.2-2.9
			C76.4,50.7,76.4,49.5,77.6,49z"/>
		<g>
			<g>
				<path class="st69" d="M93.8,52.5c0,0,2.1-2.2,3-2.2c0.9,0,3.3,0.3,4.6,0.3c1.3,0,1.7,0.7,2.2,0.2c0.5-0.5-0.7-1.5-1.8-1.5
					c-1.1,0-1.1-0.4-1.1-1c0-0.6,3.7-3.2,3.1-3.8c-0.6-0.6-2.1,1.4-2.9,1.3c-0.5,0-0.4-0.5-0.8-0.5c-0.4,0-0.4,0.1-0.5,0.1
					c-0.2,0-0.1-0.1-0.4-0.1c-0.3,0-0.4,0.2-0.5,0.2c-0.1,0-0.2-0.1-0.4-0.1c-0.2,0-1.1,0.3-1.7,0.9c-0.6,0.6-1.7,1-2.7,1.7
					c-0.9,0.7-1.4,2.1-1.5,3.2C92.5,52.5,93.1,53.2,93.8,52.5z"/>
				<path class="st21" d="M93.8,52.5c0,0,2.1-2.2,3-2.2c0.9,0,3.3,0.3,4.6,0.3c1.3,0,1.7,0.7,2.2,0.2c0.5-0.5-0.7-1.5-1.8-1.5
					c-1.1,0-1.1-0.4-1.1-1c0-0.6,3.7-3.2,3.1-3.8c0,0-0.1-0.1-0.2-0.1c-1.1,1-3.3,3.2-4.7,3.4c-1.7,0.3-3,0.4-5.3,2.5
					c-0.5,0.4-0.9,0.8-1.2,1.1C92.5,52.6,93.1,53.2,93.8,52.5z"/>
			</g>
			<path class="st69" d="M83.9,54.9c-0.2-0.1-0.5-0.2-0.7-0.2c0.2-0.1,0.5-0.2,0.7-0.3L94,48.1l0.6,3.7l-7.3,6.3
				c-0.5,0.4-1.1,0.8-1.7,1c0.1-0.2,0.2-0.5,0.2-0.9C85.8,57,84.9,55.5,83.9,54.9z"/>
			
				<linearGradient id="SVGID_42_" gradientUnits="userSpaceOnUse" x1="-390.9682" y1="52.2284" x2="-390.9682" y2="59.7345" gradientTransform="matrix(-1 0 0 1 -315.1914 0)">
				<stop  offset="0" style="stop-color:#F0F2FE"/>
				<stop  offset="1" style="stop-color:#C8CDF0"/>
			</linearGradient>
			<path class="st70" d="M65.8,54.7c0.3-1.7,1.9-2.7,3.6-2.4l13,2.4c0.3,0.1,0.6,0,0.8,0c0.2,0,0.4,0.1,0.7,0.2
				c1.1,0.6,1.9,2.1,1.9,3.4c0,0.4-0.1,0.7-0.2,0.9c-1,0.4-2.1,0.6-3.2,0.5l-13.7-1.2C66.8,58.3,65.5,56.6,65.8,54.7z"/>
			<path class="st21" d="M86.9,55.3c-1,0.8-1.8,0.5-2.1,0.5l0,0c0.3,0.4,0.5,0.8,0.7,1.2c0,0,0,0,0,0.1c0.1,0.2,0.1,0.4,0.2,0.5
				c0,0,0,0.1,0,0.1c0,0.2,0.1,0.4,0.1,0.6c0,0.4-0.1,0.7-0.2,0.9c0.6-0.3,1.2-0.6,1.7-1l7.3-6.3l-0.3-1.9
				C93.9,50.2,86.9,55.3,86.9,55.3z"/>
			<path class="st66" d="M69,52.3c1.5,1.2,13.8,4.1,15.8,3.5c0.6,0.7,1,1.7,1,2.6c0,0.4-0.1,0.7-0.2,0.9c-1,0.4-2.1,0.6-3.2,0.5
				l-13.7-1.2c-1.9-0.2-3.2-1.9-2.9-3.8C66.1,53.2,67.5,52.1,69,52.3z"/>
		</g>
		<path class="st69" d="M70.7,139.3c-0.1,2.6,0.1,3.1,1,6c1.3,4.1,1.2,3.2,2.8,3.6c1.6,0.5,1,1.7,0.1,3.4c-0.9,1.7-4.3,0.3-6.4-0.3
			c-2.1-0.6-1.1-2.4-2-4.3c-0.9-1.9,1-1.4,0.8-7.5c0-0.1,0-0.2,0-0.3C68,140.7,70,140.2,70.7,139.3z"/>
		
			<linearGradient id="SVGID_43_" gradientUnits="userSpaceOnUse" x1="-385.9289" y1="153.2263" x2="-385.9289" y2="145.9046" gradientTransform="matrix(-1 0 0 1 -315.1914 0)">
			<stop  offset="0" style="stop-color:#242748"/>
			<stop  offset="1" style="stop-color:#203A5F"/>
		</linearGradient>
		<path class="st71" d="M74.6,152.4c-0.9,1.7-4.3,0.3-6.4-0.3c-2.1-0.6-1.1-2.5-2-4.3c-0.5-0.9-0.3-1.2,0-1.8
			c0.7-0.2,1.2-0.2,2.2,0.1c1.4,0.3,2.1,0.8,3,2.2c0.8,1.4,1.9,2.7,2.5,2c0.5-0.6-0.2-1.1-0.7-1.6c0.3,0.2,0.7,0.1,1.3,0.3
			C76.1,149.4,75.5,150.7,74.6,152.4z"/>
		
			<linearGradient id="SVGID_44_" gradientUnits="userSpaceOnUse" x1="-385.9357" y1="153.2263" x2="-385.9357" y2="145.1924" gradientTransform="matrix(-1 0 0 1 -315.1914 0)">
			<stop  offset="0" style="stop-color:#242748"/>
			<stop  offset="1" style="stop-color:#203A5F"/>
		</linearGradient>
		<path class="st72" d="M66,146.6c0.1-0.5,0.2-0.9,0.4-1.1c0.5-0.5,2.2-0.2,3.2,0.4c0.5,0.3,1.1,1.1,1.8,2.4c0,0,0,0,0,0.1
			c0.8,1.4,1.9,2.7,2.5,2c0.5-0.6-0.2-1.1-0.7-1.6c0.3,0.2,0.7,0.1,1.3,0.3c1.6,0.5,1,1.7,0.1,3.4c-0.9,1.7-4.3,0.3-6.4-0.3
			c-1.5-0.4-1.4-1.5-1.6-2.8c-0.1-0.5-0.2-1-0.4-1.5c-0.2-0.3-0.2-0.6-0.3-0.8C66,146.9,66,146.7,66,146.6z"/>
		<path class="st69" d="M65.5,120.8c0-0.2,0.1-0.4,0.1-0.6c0-0.3,0.1-0.5,0.2-0.8c0-0.1,0.1-0.3,0.1-0.4c0.1-0.4,0.3-2,0.3-2
			c0.9-7,0.3-14.9-0.6-19.4c0-0.1,0-0.2,0-0.2c-0.4-1.6,1.4-3.3,1.4-5.3c0-0.4,0.3-0.7,0.3-1.1c0,0,0,0,0,0c0-2.6,0.3-4.3,0.9-5.8
			c0.2-0.6,0.1,1,0.4,0.5c0.3-0.5,0.1-1.5,0.3-2c0.1,0.1-0.4-0.4-0.3-0.3c0.4-0.4-0.3-1.9,0.1-2c0.3-1.1,0.5-1.8,0.7-2
			c2.7-3,3.3-0.9,5,0.7c1.8,3.7,3.6,10.3,4,12.3c0.7,3.6-7,36.1-7.4,42.9c-0.1,1.9-0.2,3.1-0.3,4.1c-0.7,0.9-2.7,1.4-3.7,0.6
			c0-0.6-2.5-11.9-1.6-18.4C65.4,121.3,65.5,121,65.5,120.8z"/>
		<path class="st23" d="M71,135.2c-0.4,6.8-0.5,6.1,0.8,10.1c1.3,4.1,1.2,3.2,2.8,3.6c1.6,0.5,1,1.7,0.1,3.4
			c-0.9,1.7-4.3,0.3-6.4-0.3c-2.1-0.6-1.1-2.4-2-4.3c-0.2-0.3-0.2-0.6-0.2-0.8c1.2-0.1,3.2,0.5,3.7,0.7c0.7,0.3-0.4-2.7-0.5-3.3
			c-0.1-0.6,0.4-18.3,0.6-23.9c0.3-5.6,3.1-17.6,2-20.2c-3.3-8.1-0.4-10.6,4-17.1c0.9,3.3,2.4,7.8,2.6,9.2
			C79.1,95.8,71.4,128.4,71,135.2z"/>
		
			<linearGradient id="SVGID_45_" gradientUnits="userSpaceOnUse" x1="-385.9224" y1="153.2263" x2="-385.9224" y2="147.2522" gradientTransform="matrix(-1 0 0 1 -315.1914 0)">
			<stop  offset="0" style="stop-color:#242748"/>
			<stop  offset="1" style="stop-color:#203A5F"/>
		</linearGradient>
		<path class="st73" d="M70.6,148.7c1.2,1.8,2.5,4.4,3.6,3.3c0.4-0.5,0.8-1,1.2-1.4c-0.1,0.5-0.4,1.1-0.8,1.8
			c-0.9,1.7-4.3,0.3-6.4-0.3c-2.1-0.6-1.1-2.4-2-4.3c-0.1-0.2-0.2-0.4-0.2-0.5C67.7,147.3,69.9,147.6,70.6,148.7z"/>
		<path class="st21" d="M70.6,148.7c1.2,1.8,2.5,4.4,3.6,3.3c0.4-0.5,0.8-1,1.2-1.4c-0.1,0.5-0.4,1.1-0.8,1.8
			c-0.9,1.7-4.3,0.3-6.4-0.3c-2.1-0.6-1.1-2.4-2-4.3c-0.1-0.2-0.2-0.4-0.2-0.5C67.7,147.3,69.9,147.6,70.6,148.7z"/>
		<path class="st69" d="M82.4,143.6c-0.1,1.8,0,3.6,0.7,5.7c1.4,4.3,2.7,7.3,4.1,7.4c1.4,0.2,3.8,1.6,2,3c-1.8,1.4-3,1.4-5.3,0.2
			c-2.3-1.2-2.9-4.8-5.9-5.2c-1.6-0.2-2.4-1.4-1.7-2.9c0.6-1.5,1.5-2.8,1.4-7c0,0,0-0.1,0-0.1C78.7,145.7,81.6,144.7,82.4,143.6z"/>
		<path class="st74" d="M74,100.9c-0.8-1.5-6-8.1-2.3-15.7c4.4-9.1,7.8-9.5,10.8-4.1c2.1,3.7,3.3,7.7,3.5,15.7
			c0.3,9.1-3.5,44.8-3.6,46.8c-0.8,1.1-3.8,2.1-4.7,1.1c0,0,0-0.1,0-0.1l0,0.1c-1-5.3-2.6-14.6-1.4-22.3c-0.1-1.4-0.1-2.8-0.2-3.9
			C76.1,115.6,74.5,101.9,74,100.9z"/>
		
			<linearGradient id="SVGID_46_" gradientUnits="userSpaceOnUse" x1="-398.2007" y1="160.8224" x2="-398.2007" y2="150.2313" gradientTransform="matrix(-1 0 0 1 -315.1914 0)">
			<stop  offset="0" style="stop-color:#242748"/>
			<stop  offset="1" style="stop-color:#203A5F"/>
		</linearGradient>
		<path class="st75" d="M76.1,152.9c0-0.8,0.4-2,0.8-2.7c2.5-0.1,5.2,3,6.5,5.2l0.3,0.5l0,0c0.1,0.2,0.2,0.3,0.3,0.5
			c1,1.6,2,2.8,3.5,1.9c1.3-0.8,0.6-1.1-0.3-1.6c0,0,0,0,0.1,0c1.4,0.2,3.8,1.6,2,3c-1.8,1.4-3,1.4-5.3,0.2
			c-2.3-1.2-2.9-4.8-5.9-5.2C76.9,154.6,76.2,153.9,76.1,152.9L76.1,152.9z"/>
		<path class="st23" d="M82.5,81.2c2.1,3.7,3.3,7.7,3.6,15.7c0.3,9.1-3.5,44.8-3.7,46.8c-0.1,1.8,0,3.6,0.7,5.7
			c1.4,4.3,2.7,7.3,4.1,7.4c1.4,0.2,3.8,1.6,2,3c-1.8,1.4-3,1.4-5.3,0.2c-2.3-1.2-2.9-4.8-5.9-5.2c-1.1-0.1-1.8-0.8-1.9-1.6
			c0,0,0,0,0,0c0.6-0.2,2.2,0.6,3.2,1c1.5,0.5,0.9-2.4,1.3-6.2c0.4-3.8-0.4-20,0.9-46.9c0.5-9.7-2.5-12.1-2.6-14.6
			c0-2.5-0.3-5.5-0.8-8.6c0.3-0.1,0.6-0.1,1,0h0C80.3,78.1,81.4,79.3,82.5,81.2z"/>
		
			<linearGradient id="SVGID_47_" gradientUnits="userSpaceOnUse" x1="-398.2238" y1="160.8224" x2="-398.2238" y2="153.3179" gradientTransform="matrix(-1 0 0 1 -315.1914 0)">
			<stop  offset="0" style="stop-color:#242748"/>
			<stop  offset="1" style="stop-color:#203A5F"/>
		</linearGradient>
		<path class="st76" d="M82.5,156.5c1.9,2.4,2.7,5,5.6,3.3c0.7-0.4,1.3-0.9,1.8-1.3c0.1,0.4-0.1,0.8-0.6,1.2c-1.8,1.4-3,1.4-5.3,0.2
			c-2.3-1.2-2.9-4.8-5.9-5.2c-1.1-0.1-1.7-0.7-1.9-1.4C77.8,153.9,80.8,154.4,82.5,156.5z"/>
		<path class="st21" d="M82.5,156.5c1.9,2.4,2.7,5,5.6,3.3c0.7-0.4,1.3-0.9,1.8-1.3c0.1,0.4-0.1,0.8-0.6,1.2c-1.8,1.4-3,1.4-5.3,0.2
			c-2.3-1.2-2.9-4.8-5.9-5.2c-1.1-0.1-1.7-0.7-1.9-1.4C77.8,153.9,80.8,154.4,82.5,156.5z"/>
		
			<linearGradient id="SVGID_48_" gradientUnits="userSpaceOnUse" x1="-392.987" y1="161.7343" x2="-392.987" y2="154.0415" gradientTransform="matrix(-1 0 0 1 -315.1914 0)">
			<stop  offset="0" style="stop-color:#242748"/>
			<stop  offset="1" style="stop-color:#203A5F"/>
		</linearGradient>
		<path class="st77" d="M77.8,154.3c1,0.5,1.4,0,1,1.1c-0.4,1.2,0.2,5.8,0,6.1c-0.2,0.3-0.5,0.3-0.8,0c-0.3-0.3-0.4-5.4-1.1-6.5
			C76.2,153.9,76.9,153.9,77.8,154.3z"/>
		
			<linearGradient id="SVGID_49_" gradientUnits="userSpaceOnUse" x1="-383.1748" y1="155.475" x2="-383.1748" y2="147.7822" gradientTransform="matrix(-1 0 0 1 -315.1914 0)">
			<stop  offset="0" style="stop-color:#242748"/>
			<stop  offset="1" style="stop-color:#203A5F"/>
		</linearGradient>
		<path class="st78" d="M68,148c1,0.5,1.4,0,1,1.1c-0.4,1.2,0.2,5.8,0,6.1c-0.2,0.3-0.5,0.3-0.8,0c-0.3-0.3-0.4-5.4-1.1-6.5
			C66.4,147.6,67,147.6,68,148z"/>
		<g>
			<g>
				<path class="st69" d="M108.2,55c0.8-0.5,3.3-2.1,3.6-2.5c0.4-0.4,0.1-1.2,0.1-1.9c0-0.7,0.4-1.2,0.4-1.7c0-0.6-0.8-1.2-0.6-1.5
					c0.3-0.5,1.1,0.3,1.1,0.3s0.3-1.3,0.3-2.3c0-1,0-1.7,0.2-1.9c0.2-0.2,0.6,0,0.6,0s-0.1-0.9,0.5-0.9c0.6,0,0.5,0.8,0.5,0.8
					s0.6-0.1,0.7,0.6c0.1,0.7,0.1,1.1,0.1,1.1s0.6,0.2,0.7,0.9c0.1,0.7,0.1,2.5,0.2,3c0.2,0.5,0.2,1.6-0.2,2.7
					c-0.4,1.1-0.5,2-1.2,2.3c-0.6,0.3-5.1,4.1-5.9,4.7c-0.9,0.8-1.2-0.8-1.7-1.4C107.2,56.7,107.7,55.4,108.2,55z"/>
				<path class="st21" d="M109.4,58.8c0.7-0.7,5.2-4.5,5.9-4.7c0.6-0.3,0.8-1.1,1.2-2.3c0.4-1.1,0.4-2.2,0.2-2.7
					c-0.2-0.5-0.2-2.3-0.2-3c0-0.5-0.3-0.7-0.5-0.8l0,0c0.1,1.9,0.1,6.3-1,7.4c-1.1,1.1-3.5,2.3-5.7,4.3c0.2,0.2,0,1.1-0.2,2.2
					C109.1,59,109.2,59,109.4,58.8z"/>
			</g>
			<path class="st69" d="M100.3,60.9c-0.2-0.1-0.5-0.2-0.7-0.2c0.2-0.1,0.5-0.2,0.7-0.3l8.8-5.9l0.6,4.1l-6.1,5.6
				c-0.5,0.4-1.1,0.8-1.7,1c0.1-0.2,0.2-0.5,0.2-0.9C102.3,63,101.4,61.5,100.3,60.9z"/>
			
				<linearGradient id="SVGID_50_" gradientUnits="userSpaceOnUse" x1="-397.601" y1="52.0977" x2="-397.601" y2="116.7561" gradientTransform="matrix(-1 0 0 1 -315.1914 0)">
				<stop  offset="0" style="stop-color:#F0F2FE"/>
				<stop  offset="1" style="stop-color:#C8CDF0"/>
			</linearGradient>
			<path class="st79" d="M64.6,90.9c0-2.6,0.5-4.3,1.1-5.8c0.2-0.6,0.5-1.1,0.7-1.6c0.3-0.5,0.5-1.1,0.7-1.6
				c0.4-0.9,0.7-1.9,0.7-3.1c0-4-0.4-4.7-1.4-8.6c0-0.1-0.1-0.2-0.1-0.3c-0.1-0.2-0.1-0.4-0.2-0.6c-0.3-0.7-0.6-1.4-0.9-2
				c-2.3-4.2-2.7-8.1-2.7-11.7c0-3.4,5.2-3.6,6.7-3.6c3.5,0.1,6.2,0.7,8.7,1.8c0.8,0.4,1.6,0.8,2.5,1.3c4.8,2.4,7.6,3.4,11.1,4.1
				l7.2,1.3c0.3,0.1,0.6,0,0.8,0c0.2,0,0.4,0.1,0.7,0.2c1.1,0.6,1.9,2.1,1.9,3.4c0,0.4-0.1,0.7-0.2,0.9c-1,0.4-2.1,0.6-3.2,0.5
				l-5.4-0.5c0,0,0,0,0,0c-1.3-0.1-3.3,0.1-5,1.1c0,0.4-0.1,0.8-0.2,1.3c-0.9,2.6-2.8,2.3-3.3,5.3c0,0.4-0.1,0.7-0.1,1
				c-0.3,3.3-0.2,9.8-0.5,11c0.1,0.3,0.3,0.7,0.4,1.1c0,0,0,0.1,0,0.1c0.1,0.4,0.2,0.7,0.3,1.1c0,0,0,0,0,0c0.1,0.4,0.2,0.8,0.3,1.3
				c0,0,0,0.1,0,0.1c0.1,0.4,0.2,0.8,0.3,1.2c0,0.1,0,0.2,0,0.3c0.1,0.4,0.2,0.9,0.2,1.4c0,0,0,0,0,0.1c0.1,0.5,0.1,1,0.2,1.5
				c0,0.1,0,0.2,0,0.3c0,0.4,0.1,0.9,0.1,1.4c0,0.1,0,0.3,0,0.4c0,0.6,0.1,1.2,0.1,1.8c0,0.3,0,0.6,0,1c0,0,0,0.1,0,0.1
				c0,3.7-0.5,10.1-1.1,17.1c-5.2,4.5-14.6-0.8-18.8-4.3c0-2.5-0.2-4.9-0.4-7.1c0-0.2,0-0.3,0-0.5c0-0.4-0.1-0.8-0.1-1.2
				c0-0.2,0-0.3-0.1-0.5c0-0.3-0.1-0.6-0.1-1c0-0.2,0-0.3-0.1-0.5c-0.1-0.4-0.1-0.7-0.2-1c0-0.1,0-0.3-0.1-0.4
				c0-0.3-0.1-0.6-0.2-0.8c0-0.1,0-0.1,0-0.2c0-0.1,0-0.2,0-0.2c-0.4-1.6-0.6-3.3-0.6-5.3C64.6,91.7,64.6,91.3,64.6,90.9
				C64.6,90.9,64.6,90.9,64.6,90.9z"/>
			<path class="st21" d="M103.4,61.2c-1,0.8-1.8,0.5-2.1,0.5l0,0c0.3,0.4,0.5,0.8,0.7,1.2c0,0,0,0,0,0.1c0.1,0.2,0.1,0.4,0.2,0.5
				c0,0,0,0.1,0,0.1c0,0.2,0.1,0.4,0.1,0.6c0,0.4-0.1,0.7-0.2,0.9c0.6-0.3,1.2-0.6,1.7-1l6.1-5.6l-0.3-1.9
				C109.1,56.9,103.4,61.2,103.4,61.2z"/>
		</g>
		<path class="st66" d="M63.7,53.4c0.1-0.1,0.2-0.1,0.3-0.2c0.1,0,0.1-0.1,0.2-0.1c0.8-0.4,1.7-0.7,2.5-0.8c0,0,0,0,0,0
			c0.2,0,0.3,0,0.5-0.1c0,0,0,0,0.1,0c0.1,0,0.3,0,0.4,0c0,0,0.1,0,0.1,0c0.1,0,0.3,0,0.4,0c0,0,0.1,0,0.1,0c0.1,0,0.2,0,0.3,0
			c0.1,0,0.1,0,0.2,0c0.1,0,0.1,0,0.2,0c0.1,0,0.2,0,0.3,0c3.5,0.1,6.2,0.7,8.7,1.8c0.8,0.4,1.6,0.8,2.5,1.3
			c0.8,0.4,1.6,0.8,2.3,1.1c1.2,0.7,2,1.3,2.7,1.9c0,0,0,0,0,0c1.5,1.2,13.8,4.1,15.8,3.5c0.6,0.7,1,1.7,1,2.6
			c0,0.4-0.1,0.7-0.2,0.9c-1,0.4-2.1,0.6-3.2,0.5l-5.4-0.5c0,0,0,0,0,0c-1.3-0.1-3.3,0.1-5,1.1c0,0.4-0.1,0.8-0.2,1.2
			c-0.9,2.6-2.8,2.3-3.3,5.3c0,0.5-0.1,1-0.2,1.4c0,0.1,0,0.3,0,0.4c0,0.1,0,0.2,0,0.3c0,0.2,0,0.3,0,0.5c0,0.1,0,0.2,0,0.3
			c0,0.1,0,0.2,0,0.3c-0.1,1.9-0.1,4.2-0.2,6c0,0,0,0.1,0,0.1c0,0.2,0,0.4,0,0.6c0,0.1,0,0.1,0,0.2c0,0.2,0,0.3,0,0.5
			c0,0.1,0,0.1,0,0.2c0,0.1,0,0.3,0,0.4c0,0.1,0,0.1,0,0.2c0,0.1,0,0.2,0,0.3c0,0,0,0.1,0,0.1c0,0.1,0,0.1,0,0.2c0,0,0,0.1,0,0.1
			c1.1,2.9,1.9,6.5,2.1,12c0,0.3,0,0.6,0,1c0,0,0,0,0,0.1c0,0.3,0,0.7,0,1.1c0,0,0,0.1,0,0.1c0,0.4,0,0.8,0,1.2c0,0,0,0.1,0,0.1
			c0,0.4,0,0.9-0.1,1.3c0,0,0,0.1,0,0.1c0,0.5-0.1,1-0.1,1.5c0,0,0,0,0,0.1c-0.1,1.6-0.7,9.7-0.9,11.6c-1.3,1.1-2.6,1.6-4.4,1.7
			c0.1-3.2,0.4-12.2,0.6-15.7C82,91.3,79,89,79,86.4c0-0.2,0-0.4,0-0.6c0.2-2.7,1.4-3,1.4-7.4c0-3.3-0.9-7.2-0.9-9.4
			c0-2.2,0.4-3.4,0.9-4.8c0.3-0.8,0.8-1.7,1.3-2.7c0.1-0.1,0.1-0.3,0.2-0.4c0-0.1,0.1-0.2,0.1-0.2c0,0,0,0,0-0.1c0,0,0,0,0,0
			c0.5-1.1,0.6-1.8,0-2.3c-0.1-0.1-0.2-0.2-0.4-0.3c-0.2-0.1-0.3-0.2-0.5-0.3c-0.1,0-0.1-0.1-0.2-0.1c-0.2-0.1-0.4-0.2-0.6-0.4
			c0,0,0,0-0.1,0c-0.3-0.2-0.6-0.3-0.9-0.5c0,0,0,0,0,0c-0.3-0.2-0.5-0.3-0.8-0.4c0,0-0.1,0-0.1-0.1c-0.2-0.1-0.4-0.2-0.7-0.3
			c-0.1,0-0.2-0.1-0.2-0.1c-0.2-0.1-0.4-0.2-0.6-0.3c-0.1,0-0.2-0.1-0.2-0.1c-2.5-1.2-5.2-1.7-8.7-1.8c-0.7,0-2.3,0-3.7,0.4
			c-0.6,0.2-1.3,0.4-1.8,0.8v0C62.8,54.3,63.2,53.8,63.7,53.4z"/>
		
			<linearGradient id="SVGID_51_" gradientUnits="userSpaceOnUse" x1="-389.5569" y1="56.7519" x2="-389.5569" y2="32.1616" gradientTransform="matrix(-1 0 0 1 -315.1914 0)">
			<stop  offset="0" style="stop-color:#242748"/>
			<stop  offset="1" style="stop-color:#203A5F"/>
		</linearGradient>
		<path class="st80" d="M67.6,35.5c0.3-0.5,0.7-0.9,1.1-1.3c0.1-0.1,0.1-0.1,0.2-0.2c0,0,0.1-0.1,0.1-0.1c0.1,0,0.1-0.1,0.2-0.1l0,0
			c1.3-1,3.1-1.6,5.1-1.6c4.2,0,7.6,2.8,7.6,6.3c0,0.8-0.2,1.5-0.5,2.2c0,0,0,0,0,0c-1.1,3.4-1.6,2.6-2,5.8c-1,7.7,3.1,6.6,3.5,10.3
			c-1.1-0.7-2.3-1.4-3.4-2c0,0,0,0,0,0c-1.6-0.8-2.2,0.1-5.3-0.6c-3.1-0.7-5.2-1.4-7.5-6.7C65.3,44,65.3,38.8,67.6,35.5z"/>
		<path class="st23" d="M81.9,38.4c0,0.8-0.2,1.5-0.5,2.2c0,0,0,0,0,0c-1.1,3.4-1.6,2.6-2,5.8c-1,7.7,3.1,6.6,3.5,10.3
			c-1.1-0.7-2.3-1.4-3.4-2c0,0,0,0,0,0c-1.6-0.8-2.2,0.1-5.3-0.6c-3.1-0.7-5.2-1.4-7.5-6.7c0-0.1-0.1-0.2-0.1-0.3
			c2.4,4.1,8.6,5.6,8.2,1.7c-0.8-7.1,2.1-9.5,2.9-12.5c0.7-2.7-3.9-3.5-6.3-3.6c0.9-0.3,1.9-0.5,2.9-0.5
			C78.5,32.2,81.9,35,81.9,38.4z"/>
	</g>
</g>
<g>
	<path class="st18" d="M230.6,165c3.2-4.2,9.6-5.7,8.1-8.6c-1.1-2.9-8.1-5.8-14.1-6.6c-6.1-0.8-8.5,3.4-13.9,2.7
		c-6.6-0.8-11.5,4.6-14.5,7.2c-6.9,5.2,5.1,13.6,11.9,11.3C215.5,168.4,225.1,172.2,230.6,165z"/>
	<g>
		<g>
			
				<linearGradient id="SVGID_52_" gradientUnits="userSpaceOnUse" x1="-543.6227" y1="162.7028" x2="-543.6227" y2="148.4441" gradientTransform="matrix(-1 0 0 1 -315.1914 0)">
				<stop  offset="0" style="stop-color:#242748"/>
				<stop  offset="1" style="stop-color:#203A5F"/>
			</linearGradient>
			<path class="st81" d="M229.1,162.7L229.1,162.7c-1.5,0.1-2.8-1-3-2.5l-0.8-8.8c-0.1-1.5,1-2.8,2.5-3c1.5-0.1,2.8,1,3,2.5l0.8,8.8
				C231.7,161.2,230.6,162.6,229.1,162.7z"/>
			<path class="st21" d="M225.4,152l0.7,8.2c0.1,1.3,1.1,2.3,2.4,2.5l-0.7-8.2C227.6,153.1,226.6,152.1,225.4,152z"/>
			<path class="st21" d="M229,161.9c-1.2,0.1-2.2-0.5-2.8-1.4c0.3,1.4,1.5,2.3,2.9,2.2c1.4-0.1,2.5-1.3,2.5-2.7
				C231.1,161,230.2,161.7,229,161.9z"/>
			<path class="st21" d="M227.8,148.5c-1.5,0.1-2.6,1.5-2.5,3l0.5,5.8c0.7,0.7,1.6,1.1,2.6,1c1.2-0.1,2.2-0.7,2.8-1.7l-0.5-5.6
				C230.6,149.4,229.3,148.3,227.8,148.5z"/>
			<g>
				
					<linearGradient id="SVGID_53_" gradientUnits="userSpaceOnUse" x1="-522.4881" y1="166.8178" x2="-522.4881" y2="158.3398" gradientTransform="matrix(-1 0 0 1 -315.1914 0)">
					<stop  offset="0" style="stop-color:#242748"/>
					<stop  offset="1" style="stop-color:#203A5F"/>
				</linearGradient>
				<path class="st82" d="M214.1,159.4c0,0,2.8,5.5,0.8,6.8c-2,1.3-3.9,0.3-6.3-0.5c-2.4-0.7-6.3-2.2-7.1-2.4c-0.8-0.3-2.5-1-2.5-3
					c0.1-1.9,3.1-2.3,7.2-1.7C210.3,159.2,214.1,159.4,214.1,159.4z"/>
				<path class="st21" d="M208.3,158.9l0.1,1.3c0.1,1.6,1.3,3,2.9,3.1c1.5,0.1,2.9-0.7,3.6-2c-0.4-1.1-0.8-1.9-0.8-1.9
					S211.5,159.3,208.3,158.9z"/>
				<path class="st21" d="M210.5,160.2c0,0-0.5-0.5-1.2-1.2c-1-0.1-2-0.2-3.1-0.4c-4.1-0.6-7.1-0.2-7.2,1.7c-0.1,2,1.7,2.7,2.5,3
					c0.8,0.3,4.7,1.7,7.1,2.4c1.1,0.3,2.1,0.7,3.1,0.9C212.9,165,210.5,160.2,210.5,160.2z"/>
				<path class="st21" d="M214.8,165.6c-2,1.3-3.9,0.3-6.3-0.5c-2.4-0.7-6.3-2.2-7.1-2.4c-0.7-0.2-2.1-0.8-2.4-2.3
					c0,1.9,1.7,2.6,2.5,2.9c0.8,0.3,4.7,1.7,7.1,2.4c2.4,0.7,4.3,1.8,6.3,0.5c0.7-0.4,0.8-1.4,0.6-2.5
					C215.6,164.6,215.4,165.3,214.8,165.6z"/>
			</g>
			
				<linearGradient id="SVGID_54_" gradientUnits="userSpaceOnUse" x1="-537.3614" y1="157.4141" x2="-537.3614" y2="88.5185" gradientTransform="matrix(-1 0 0 1 -315.1914 0)">
				<stop  offset="0" style="stop-color:#242748"/>
				<stop  offset="1" style="stop-color:#203A5F"/>
			</linearGradient>
			<path class="st83" d="M223.3,90c-4.1-4.7-11.8,2.8-8.9,7.8c0.1,0.2,0.2,0.4,0.3,0.6l-2.2,0.6l12.4,55.9c0.3,1.6,1.8,2.7,3.4,2.6
				c2-0.2,3.6-1.9,3.4-4l-3.8-48.9v0c0-0.2,0-0.5-0.1-0.7C227.6,100.7,227.1,94.4,223.3,90z"/>
			<path class="st23" d="M220.5,111.4c0.4-1.2,0.5-2.6,0.4-4c-0.2-2-0.9-3.8-2-5.2l-0.8-4.7l-5.6,1.5l0.1,0.5
				c-3.7,0.6-6.3,4.6-5.9,9.3c0.4,4.8,4,8.4,7.9,8.1c0.6-0.1,1.2-0.2,1.8-0.5l8.6,38.5c0.3,1.6,1.8,2.7,3.4,2.6c0,0,0,0,0.1,0
				L220.5,111.4z"/>
			
				<linearGradient id="SVGID_55_" gradientUnits="userSpaceOnUse" x1="-528.259" y1="162.4725" x2="-528.259" y2="96.2922" gradientTransform="matrix(-1 0 0 1 -315.1914 0)">
				<stop  offset="0" style="stop-color:#242748"/>
				<stop  offset="1" style="stop-color:#203A5F"/>
			</linearGradient>
			<path class="st84" d="M221.2,104.4c-0.2-1.7-0.7-3.2-1.5-4.5l0.3-3.4l-3.7,0.3c-0.9-0.4-1.9-0.6-3-0.5c-1.1,0.1-2,0.5-2.9,1.1
				l-5.6,0.5l3.4,61.5c0.1,1.6,1.3,3,2.9,3.1c2,0.2,3.8-1.3,4-3.3l3.6-47.3C220.5,110,221.5,107.3,221.2,104.4z"/>
			<path class="st23" d="M211.2,161.8l-0.8-61.5l9.3-0.5l0.3-3.3l-15.1,1.4l3.4,61.5c0.1,1.6,1.3,3,2.9,3.1c0,0,0.1,0,0.1,0
				C211.3,162.2,211.2,162,211.2,161.8z"/>
		</g>
		<path class="st21" d="M217.8,96.9c-3.5-3.3-6.5,2.4-11.7,4.3c-0.7,0.3-1.2,0.5-1.9,0.8l0.2,0.9c1.2,1.8,3.5,2.6,5.9,2.2
			c4.6-0.6,14.3-5.7,15.7-10.7l-0.7-2L217.8,96.9z"/>
		
			<linearGradient id="SVGID_56_" gradientUnits="userSpaceOnUse" x1="-532.1954" y1="59.1654" x2="-532.1954" y2="84.3543" gradientTransform="matrix(-1 0 0 1 -315.1914 0)">
			<stop  offset="0" style="stop-color:#F0F2FE"/>
			<stop  offset="1" style="stop-color:#C8CDF0"/>
		</linearGradient>
		<path class="st85" d="M210.3,61.2c-0.6,3,1.6,6.2,3.2,11c1.6,4.8,3.5,9.2,5,10.6c3.1,2.8,4.7,1.3,5.2-1.8
			c0.9-5.9-2.4-20.1-9.4-21.7C212.6,58.9,211,59.4,210.3,61.2z"/>
		<path class="st66" d="M210.3,61.2c-0.6,3,1.6,6.2,3.2,11c1.6,4.8,3.5,9.2,5,10.6c3.1,2.8,4.7,1.3,5.2-1.8
			c0.9-5.9-2.4-20.1-9.4-21.7C212.6,58.9,211,59.4,210.3,61.2z"/>
		<g>
			<path class="st69" d="M198.2,58.4c1.2,2.1,2.4,6.9,0.6,8.5c-1.8,1.7,3.3,1.3,5.2,0.4c1.9-0.9,8.3-4.8,6.8-5.8
				c-1.5-1.1-0.7-1.9-1.5-1.5c-0.8,0.4-3.1-0.9-5.4-6.9C201.5,47.1,196.9,56.2,198.2,58.4z"/>
			<path class="st69" d="M194.9,45.4c-2.3,0.8-2.5,0.6-3.1,2.9c-0.2,0.8-0.1,2.8,0.5,3.6c1.2,1.6,0.4,3.1,1.2,4.7
				c1,2.3,3.8,7.9,9.7,0.8c2.9-3.5-2.8-2.7-5.3-4.9C195.5,50.3,196.4,44.8,194.9,45.4z"/>
			
				<linearGradient id="SVGID_57_" gradientUnits="userSpaceOnUse" x1="-511.3118" y1="62.4235" x2="-511.3118" y2="52.7117" gradientTransform="matrix(-1 0 0 1 -315.1914 0)">
				<stop  offset="0" style="stop-color:#242748"/>
				<stop  offset="1" style="stop-color:#203A5F"/>
			</linearGradient>
			<path class="st86" d="M196.1,54.8c0.2,1.2,0.2,5-1.4,2.9c-1.6-2.1-1.6-1.2-1.3-0.6c0.3,0.6,0.2,0.1,0.6,0.8
				c0.4,0.7,0.3,0.8,0.7,1.3c0.4,0.5-0.1,3.3,1.1,3.2c1.3,0,3.5-0.7,3-2.2c-0.5-1.5-1.9-3.7-2-5.3c-0.2-1.6-0.4-2.3-0.7-2.2
				C195.8,52.8,196,54.2,196.1,54.8z"/>
			<path class="st23" d="M204.6,67C204.6,67,204.6,67,204.6,67c0.1-0.1,0.2-0.1,0.4-0.2c0,0,0.1,0,0.1-0.1c0.1-0.1,0.3-0.1,0.4-0.2
				c0,0,0,0,0,0c0.1-0.1,0.3-0.2,0.4-0.2c0,0,0.1,0,0.1,0c0.1-0.1,0.3-0.2,0.4-0.3c0,0,0,0,0,0c0.2-0.1,0.3-0.2,0.5-0.3c0,0,0,0,0,0
				c0.2-0.1,0.3-0.2,0.5-0.3c-3.9-2-5-6.5-6.1-9.8c-0.3-1-0.7-2.3-1-3.7c-0.2,0.2-0.4,0.4-0.6,0.7c0,0,0,0,0,0
				c-0.2,0.2-0.3,0.5-0.5,0.8c0,0,0,0,0,0l0,0l0,0c-0.2-0.1-0.4-0.2-0.6-0.3c-0.3-0.2-0.6-0.3-0.8-0.6c-2.4-2.2-1.5-7.6-2.9-7.1
				c-2.3,0.8-2.5,0.6-3.1,2.9c-0.2,0.8-0.1,2.8,0.5,3.6c1.2,1.6,0.5,2.9,1.1,4.5c-0.1,0.1,0,0.4,0.1,0.7c0.3,0.6,0.2,0.1,0.6,0.8
				c0.1,0.1,0.1,0.2,0.2,0.3c0.2,0.4,0.2,0.6,0.5,1c0.4,0.5-0.1,3.3,1.1,3.2c1.1,0,3-0.6,3.1-1.7c0,0,0.1,0,0.1,0c0,0,0,0,0,0v0
				c0.5,1.5,0.8,3.4,0.5,4.7c0,0,0,0,0,0c0,0.1,0,0.1,0,0.2c-0.1,0.6-0.4,1-0.8,1.4c-1.8,1.7,3.3,1.3,5.2,0.4c0.1,0,0.2-0.1,0.3-0.1
				c0,0,0.1,0,0.1,0C204.4,67.1,204.5,67.1,204.6,67z"/>
			<path class="st23" d="M199.9,59.4c-0.6-1.9-2.3,0.9-4.5-1.4c-2.1-2.3-1.1-4.2-2.1-5.8c-0.9-1.6-0.4-3-0.1-5
				c0.1-0.3,0.2-0.8,0.5-1.3c-0.1,0.1-0.3,0.1-0.4,0.1c0,0,0,0,0,0c-0.1,0-0.2,0.1-0.3,0.1c0,0,0,0,0,0c-0.1,0.1-0.2,0.1-0.2,0.2
				c0,0,0,0,0,0c-0.1,0.1-0.1,0.1-0.2,0.2c0,0,0,0,0,0c-0.1,0.1-0.1,0.2-0.2,0.3c0,0,0,0,0,0c-0.1,0.1-0.1,0.2-0.2,0.4c0,0,0,0,0,0
				c0,0.1-0.1,0.3-0.1,0.4c0,0,0,0.1,0,0.1c0,0.2-0.1,0.3-0.2,0.5c-0.2,0.8-0.1,2.8,0.5,3.6c0.1,0.1,0.2,0.2,0.2,0.4
				c0.8,1.4,0.3,2.7,0.9,4.1c-0.1,0.1,0,0.4,0.1,0.7c0.3,0.6,0.2,0.1,0.6,0.8c0.1,0.1,0.1,0.2,0.2,0.3c0.2,0.4,0.2,0.6,0.5,1
				c0.4,0.5-0.1,3.3,1.1,3.2c1.1,0,3-0.6,3.1-1.7c0,0,0.1,0,0.1,0c0,0,0,0,0,0v0c0.5,1.5,0.8,3.4,0.5,4.7c0,0,0,0,0,0
				c0,0.1,0,0.1,0,0.2c-0.1,0.6-0.4,1-0.8,1.4c-0.1,0.1-0.2,0.2-0.2,0.3c0,0,0,0,0,0.1c0,0.1-0.1,0.1-0.1,0.2c0,0,0,0,0,0.1
				c0,0.1,0,0.1,0,0.2c0,0,0,0,0,0c0,0.1,0.1,0.1,0.1,0.1c0,0,0,0,0.1,0c0,0,0.1,0.1,0.2,0.1c0,0,0.1,0,0.1,0c0.1,0,0.1,0,0.2,0.1
				c0,0,0,0,0.1,0c0.1,0,0.2,0,0.3,0c0,0,0.1,0,0.2,0c0.1,0,0.2,0,0.2,0c0.1,0,0.1,0,0.2,0c0.1,0,0.2,0,0.2,0c0.1,0,0.2,0,0.2,0
				c0.1,0,0.1,0,0.2,0c0.2,0,0.3,0,0.5-0.1c0.1,0,0.1,0,0.2,0c0.1,0,0.2,0,0.3,0c0.1,0,0.1,0,0.2,0c0.1,0,0.2,0,0.3-0.1
				C201.6,64.5,200.2,60.5,199.9,59.4z"/>
			
				<linearGradient id="SVGID_58_" gradientUnits="userSpaceOnUse" x1="-514.3763" y1="58.325" x2="-514.3763" y2="42.2799" gradientTransform="matrix(-1 0 0 1 -315.1914 0)">
				<stop  offset="0" style="stop-color:#242748"/>
				<stop  offset="1" style="stop-color:#203A5F"/>
			</linearGradient>
			<path class="st87" d="M195.8,43.1c4.2-1.5,8.4-1.4,10.5,4.2c2,5.6-0.9,6.6-0.6,8.2c0.5,3-3.9,3.4-4.9,2c-1-1.4-1.7-3.8-2.9-3.9
				c-2.2-0.2-0.5,1.7-1.3,1.9c-0.8,0.2-0.2-2-1.6-2.5c-2-0.9-1.6-3-2-3.8c-0.2-0.3-0.6-0.5-1.1-0.7
				C190.5,48.1,191.5,44.7,195.8,43.1z"/>
			<path class="st23" d="M192,48.6c0.5,0.1,0.9,0.4,1.1,0.7c0.4,0.7,0.1,2.9,2,3.8c1.3,0.6,0.8,2.7,1.6,2.5c0.8-0.2-0.9-2.1,1.3-1.9
				c1.2,0.1,2,2.5,2.9,3.9c1,1.4,5.3,1,4.9-2c-0.2-1.2,1.3-2.1,1.3-4.6c-0.4,3.3-4.3,5.6-5.9,3c-3-4.9-1.1-5.1-6.5-7.6
				c-1.5-0.7,0.9-2.8,3.3-3.9c-0.7,0.1-1.4,0.4-2.2,0.6C191.5,44.7,190.5,48.1,192,48.6z"/>
		</g>
		
			<linearGradient id="SVGID_59_" gradientUnits="userSpaceOnUse" x1="-525.0303" y1="59.1206" x2="-525.0303" y2="104.4005" gradientTransform="matrix(-1 0 0 1 -315.1914 0)">
			<stop  offset="0" style="stop-color:#F0F2FE"/>
			<stop  offset="1" style="stop-color:#C8CDF0"/>
		</linearGradient>
		<path class="st88" d="M219.3,64.9c-1.1-3.1-2.6-4.8-4.3-5.5c-4.4-1.6-11.8,3.9-15.1,6.6c-3,2.3-5.6,5-6.2,7.3l6.6,18.1l3.5,9.7
			c0.9,2.5,3.6,3.6,6.4,3.2c5.4-0.7,17.7-7.5,15.6-13.3c-1.9-3.4-5.1-8.1-5.2-15C220.4,71,220.2,67.3,219.3,64.9z"/>
		
			<linearGradient id="SVGID_60_" gradientUnits="userSpaceOnUse" x1="-521.6304" y1="59.1206" x2="-521.6304" y2="104.4006" gradientTransform="matrix(-1 0 0 1 -315.1914 0)">
			<stop  offset="0" style="stop-color:#F0F2FE"/>
			<stop  offset="1" style="stop-color:#C8CDF0"/>
		</linearGradient>
		<path class="st89" d="M219.3,64.9c-1.1-3.1-2.6-4.8-4.3-5.5c-4.4-1.6-11.8,3.9-15.1,6.6c-1.1,0.9-2.1,1.8-3.1,2.7
			c-0.1,0.1-0.3,0.2-0.4,0.3c-1.7,1.6-3.5,3.5-6,4.9c-6.2,3.6-2.8,11.1,0.6,9.4c3.4-1.7,5.9,1.6,7.6,5.2c1.2,2.6,2.4,5.2,3.3,7.6
			c0.8,2.1,1.5,4.8,2.4,5.9c1.2,1.9,3.5,2.6,6,2.3c5.4-0.7,17.7-7.5,15.6-13.3c-1.9-3.4-5.1-8.1-5.2-15
			C220.4,71,220.2,67.3,219.3,64.9z"/>
		<path class="st66" d="M215,59.4c-4.4-1.6-11.8,3.9-15.1,6.6c-1.1,0.9-2.1,1.8-3.1,2.7c-0.1,0.1-0.3,0.2-0.4,0.3
			c-1.7,1.6-3.5,3.5-6,4.9c-6.2,3.6-2.8,11.1,0.6,9.4c3.4-1.7,5.9,1.6,7.6,5.2c1.2,2.6,2.4,5.2,3.3,7.6c0.8,2.1,1.5,4.8,2.4,5.9
			c1.2,1.9,3.5,2.6,6,2.3c0.3,0,0.7-0.1,1-0.2l0,0c0,0,0,0,0,0c-1.9-3.4-4.8-7.9-5-14.5c-0.1-3.4-2.3-10.6-5.4-14.3c0,0,0,0,0,0
			s0,0,0,0c-0.4-0.5-0.8-0.9-1.2-1.2c-1.4-1.4-2.6-2.8-1.4-4c1-1.1,2.2-2.1,3.5-3.1c3.3-2.6,10.5-8,14.9-6.6
			C216,60,215.5,59.6,215,59.4z"/>
		
			<linearGradient id="SVGID_61_" gradientUnits="userSpaceOnUse" x1="-519.3763" y1="58.3942" x2="-519.3763" y2="66.6901" gradientTransform="matrix(-1 0 0 1 -315.1914 0)">
			<stop  offset="0" style="stop-color:#F0F2FE"/>
			<stop  offset="1" style="stop-color:#C8CDF0"/>
		</linearGradient>
		<path class="st90" d="M206.7,58.4c0.7,0.7,1.9,1.5,2.7,1.6c0.9,2.8-6,6.7-10.5,6.7c0.5-1.1,0.8-2.5,0.6-4.1
			C203.9,62.4,206.9,59.3,206.7,58.4z"/>
		<g>
			<g>
				<path class="st69" d="M175,74.8c-1.3-0.8-3.7-1.5-4-2.3c-0.6-1.4-0.3-0.8-0.7-1.5c-0.4-0.7-0.9-1.3-1.8-1.9
					c-0.9-0.6-1.4-1.6-1.9-1.4c-0.5,0.2-0.2,0.8-0.1,1.1c0.1,0.3,1.2,1.6,1.2,1.7c-0.1,0.1-0.8,0-1.4-0.1c-0.6-0.1-1.3-0.3-1.8-0.6
					c-0.6-0.3-2.8-1.3-3.1-1c-0.3,0.3,0.1,0.8,0.1,0.8s-0.7,0.2-0.1,1c0.6,0.8,1.2,1.4,1.2,1.4s-0.1,0.4,0.4,0.9
					c0.5,0.5,0.6,0.5,0.6,0.5s-0.2,0.4,1.1,1.4c1.3,1,4.3,1.4,5.4,2.3c1.1,0.9,1.9,1.5,2.6,1.8C173.3,79.3,176.5,75.7,175,74.8z"/>
				<path class="st21" d="M172.6,78.9c-0.8-0.3-1.6-0.9-2.7-1.8c-1-0.9-4.1-1.3-5.4-2.3c-1.3-1-1.1-1.4-1.1-1.4s-0.1,0-0.6-0.5
					c-0.5-0.5-0.4-0.9-0.4-0.9s-0.5-0.5-1.2-1.4c-0.6-0.8,0.1-1,0.1-1s0,0-0.1-0.1c1.1,1.3,3.1,2.6,3.7,3.4c0.9,1.1,3.5,1.6,5.6,2.6
					c1,0.5,2.4,1.2,4.1,2.1C174,78.4,173,79.1,172.6,78.9z"/>
			</g>
			
				<linearGradient id="SVGID_62_" gradientUnits="userSpaceOnUse" x1="-500.7778" y1="70.9752" x2="-500.7778" y2="86.0963" gradientTransform="matrix(-1 0 0 1 -315.1914 0)">
				<stop  offset="0" style="stop-color:#F0F2FE"/>
				<stop  offset="1" style="stop-color:#C8CDF0"/>
			</linearGradient>
			<path class="st91" d="M200.4,73.3L200.4,73.3c1,2,0.2,4.4-1.7,5.5l-11.1,6.3c-2.2,1.3-5,1.2-7.2-0.2l-8.6-5.7
				c-1.7-1.2-2.1-3.5-0.8-5.1c0.6-0.8,1.7-1.1,2.6-0.6l8.1,4.4c0.4,0.2,1,0.2,1.4,0l11.5-6.4C196.7,70.3,199.4,71.1,200.4,73.3z"/>
			<path class="st66" d="M199.6,74.1c-1.1-1-2-2.1-1.9-3c-0.1,0-0.2,0-0.3-0.1c0,0,0,0,0,0c0,0-0.1,0-0.1,0c-0.1,0-0.2,0-0.4,0
				c-0.1,0-0.2,0-0.3,0c-0.1,0-0.2,0-0.3,0c-0.1,0-0.2,0-0.4,0.1c-0.1,0-0.2,0-0.3,0.1c-0.1,0-0.3,0.1-0.4,0.1c0,0,0,0,0,0
				c0,0,0,0,0,0c-0.2,0.1-0.4,0.1-0.5,0.2l-10.9,6.1c-1.5,0.8-4.1,2.8-7.1,1c-2.7-1.7-3.6-2.5-6.1-3.3c-0.4,1.4,0.2,3,1.4,3.9
				l8.6,5.7c2.1,1.5,4.9,1.6,7.2,0.2l11.1-6.3c1.3-0.8,2-2.1,2.1-3.5C200.4,74.9,200,74.5,199.6,74.1z"/>
		</g>
	</g>
</g>
</svg>
