<?xml version="1.0" encoding="utf-8"?>
<!-- Generator: Adobe Illustrator 24.2.0, SVG Export Plug-In . SVG Version: 6.00 Build 0)  -->
<svg version="1.1" id="Layer_1" xmlns="http://www.w3.org/2000/svg" xmlns:xlink="http://www.w3.org/1999/xlink" x="0px" y="0px"
	 viewBox="0 0 2239.9 241.8" style="enable-background:new 0 0 2239.9 241.8;" xml:space="preserve">
<style type="text/css">
	.st0{opacity:0.5;}
	.st1{fill:#FFFFFF;}
	.st2{fill:url(#SVGID_1_);}
	.st3{opacity:0.66;fill:url(#SVGID_2_);enable-background:new    ;}
	.st4{fill:#D8EAFB;}
	.st5{fill:url(#SVGID_3_);}
	.st6{opacity:0.66;fill:url(#SVGID_4_);enable-background:new    ;}
	.st7{fill:url(#SVGID_5_);}
	.st8{opacity:0.66;fill:url(#SVGID_6_);enable-background:new    ;}
	.st9{opacity:0.66;fill:url(#SVGID_7_);enable-background:new    ;}
</style>
<g class="st0">
	<g class="st0">
		<path class="st1" d="M2138.9,290.3c0,0,0,0-13.5,10.8s-43.4,6.8-43.4,6.8s8.1,1.4-32.6,24.2c-40.7,22.8-146.6-17.4-146.6-17.4
			s23,32.6-73.3,52.9c-96.3,20.4-176.4-52.9-176.4-52.9l-46.1,14.9l-61.2-14.9c0,0-4,9.5-32.6,19.4c-28.5,9.8-80.1-13-80.1-13
			c-48.8,36.2-90.9-14-90.9-14s-23,7.8-43.4,12.7c-20.4,5.1-39.4-6.4-39.4-6.4s-9.5-1.4-63.9,5.4c-54.2,6.8-89.5-25.9-89.5-25.9
			h-103.2l1.5-0.5c0.7-0.2,1.5-0.5,2.4-0.8l1.7-0.5c14.9-4.9,55.7-19.6,68.4-36.2c15.5-20.4,72.6-17.7,72.6-17.7s2.7-9.5,2.7-17.6
			c0-8.1,20.3-12.3,20.3-12.3s-5.4-8.1,8.1-27.2c13.5-19.1,72-6.8,72-6.8s-1.4-40.7,70.6-34c68.2,6.4,84,70.1,85.5,76.9
			c-0.3-2.4-0.5-11.8,13.7-13c16.2-1.4,23.2,20.3,23.2,20.3l10.8-36.7c29.9-84.1,92.4-38,92.4-38c61.2-84.1,150.7-40.7,150.7-40.7
			c19.1-25.9,48.8,6.8,48.8,6.8s6.8-27.2,40.7-37.2c34-10,50.2,26.4,50.2,26.4s55.6-39.4,105.9-21.8c50.2,17.7,51.5,70.6,51.5,70.6
			c42.1,20.3,21.8,59.6,21.8,59.6c50.2-12.2,62.3,38,62.3,38s128.6-27,154.2-2.2c0.7,0.7,1.3,1.4,1.9,2.2
			C2257,279.5,2138.9,290.3,2138.9,290.3z"/>
		
			<linearGradient id="SVGID_1_" gradientUnits="userSpaceOnUse" x1="1684.4631" y1="344.4241" x2="1640.8732" y2="101.3261" gradientTransform="matrix(1 0 0 -1 0 265.6854)">
			<stop  offset="7.449020e-03" style="stop-color:#1CA2FF"/>
			<stop  offset="1" style="stop-color:#1CA2FF;stop-opacity:0"/>
		</linearGradient>
		<path class="st2" d="M2138.9,290.3c0,0,0,0-13.5,10.8s-43.4,6.8-43.4,6.8s8.1,1.4-32.6,24.2c-40.7,22.8-146.6-17.4-146.6-17.4
			s23,32.6-73.3,52.9c-96.3,20.4-176.4-52.9-176.4-52.9l-46.1,14.9l-61.2-14.9c0,0-4,9.5-32.6,19.4c-28.5,9.8-80.1-13-80.1-13
			c-48.8,36.2-90.9-14-90.9-14s-23,7.8-43.4,12.7c-20.4,5.1-39.4-6.4-39.4-6.4s-9.5-1.4-63.9,5.4c-54.2,6.8-89.5-25.9-89.5-25.9
			h-103.2l1.5-0.5c0.7-0.2,1.5-0.5,2.4-0.8l1.7-0.5c14.9-4.9,55.7-19.6,68.4-36.2c15.5-20.4,72.6-17.7,72.6-17.7s2.7-9.5,2.7-17.6
			c0-8.1,20.3-12.3,20.3-12.3s-5.4-8.1,8.1-27.2c13.5-19.1,72-6.8,72-6.8s-1.4-40.7,70.6-34c68.2,6.4,84,70.1,85.5,76.9
			c-0.3-2.4-0.5-11.8,13.7-13c16.2-1.4,23.2,20.3,23.2,20.3l10.8-36.7c29.9-84.1,92.4-38,92.4-38c61.2-84.1,150.7-40.7,150.7-40.7
			c19.1-25.9,48.8,6.8,48.8,6.8s6.8-27.2,40.7-37.2c34-10,50.2,26.4,50.2,26.4s55.6-39.4,105.9-21.8c50.2,17.7,51.5,70.6,51.5,70.6
			c42.1,20.3,21.8,59.6,21.8,59.6c50.2-12.2,62.3,38,62.3,38s128.6-27,154.2-2.2c0.7,0.7,1.3,1.4,1.9,2.2
			C2257,279.5,2138.9,290.3,2138.9,290.3z"/>
		
			<linearGradient id="SVGID_2_" gradientUnits="userSpaceOnUse" x1="1553.9056" y1="230.1539" x2="1590.0757" y2="101.4096" gradientTransform="matrix(1 0 0 -1 0 265.6854)">
			<stop  offset="7.449020e-03" style="stop-color:#841CFF;stop-opacity:0.31"/>
			<stop  offset="1" style="stop-color:#841CFF;stop-opacity:0"/>
		</linearGradient>
		<path class="st3" d="M2138.9,290.3c0,0,0,0-13.5,10.8s-43.4,6.8-43.4,6.8s8.1,1.4-32.6,24.2c-40.7,22.8-146.6-17.4-146.6-17.4
			s23,32.6-73.3,52.9c-96.3,20.4-176.4-52.9-176.4-52.9l-46.1,14.9l-61.2-14.9c0,0-4,9.5-32.6,19.4c-28.5,9.8-80.1-13-80.1-13
			c-48.8,36.2-90.9-14-90.9-14s-23,7.8-43.4,12.7c-20.4,5.1-39.4-6.4-39.4-6.4s-9.5-1.4-63.9,5.4c-54.2,6.8-89.5-25.9-89.5-25.9
			h-103.2l1.5-0.5c0.7-0.2,1.5-0.5,2.4-0.8l1.7-0.5c14.9-4.9,55.7-19.6,68.4-36.2c15.5-20.4,72.6-17.7,72.6-17.7s2.7-9.5,2.7-17.6
			c0-8.1,20.3-12.3,20.3-12.3s-5.4-8.1,8.1-27.2c13.5-19.1,72-6.8,72-6.8s-1.4-40.7,70.6-34c68.2,6.4,84,70.1,85.5,76.9
			c-0.3-2.4-0.5-11.8,13.7-13c16.2-1.4,23.2,20.3,23.2,20.3l10.8-36.7c29.9-84.1,92.4-38,92.4-38c61.2-84.1,150.7-40.7,150.7-40.7
			c19.1-25.9,48.8,6.8,48.8,6.8s6.8-27.2,40.7-37.2c34-10,50.2,26.4,50.2,26.4s55.6-39.4,105.9-21.8c50.2,17.7,51.5,70.6,51.5,70.6
			c42.1,20.3,21.8,59.6,21.8,59.6c50.2-12.2,62.3,38,62.3,38s128.6-27,154.2-2.2c0.7,0.7,1.3,1.4,1.9,2.2
			C2257,279.5,2138.9,290.3,2138.9,290.3z"/>
		<path class="st4" d="M2138.9,290.3c0,0,0,0-13.5,10.8s-43.4,6.8-43.4,6.8s8.1,1.4-32.6,24.2c-40.7,22.8-146.6-17.4-146.6-17.4
			s23,32.6-73.3,52.9c-96.3,20.4-176.4-52.9-176.4-52.9l-46.1,14.9l-61.2-14.9c0,0-4,9.5-32.6,19.4c-28.5,9.8-80.1-13-80.1-13
			c-48.8,36.2-90.9-14-90.9-14s-23,7.8-43.4,12.7c-20.4,5.1-39.4-6.4-39.4-6.4s-9.5-1.4-63.9,5.4c-54.2,6.8-89.5-25.9-89.5-25.9
			h-103.2l1.5-0.5l2.4-0.8l1.7-0.5l91.7-29.4c0,0,35,11.7,50,0c15-11.7,28.4,15,56.6-16.6c0,0,25,46.6,76.5,21.6
			c46.8-22.6,47.1-39.7,46.6-42.6c0.8,5.6,10.5,57.6,61.7,29.4c53.9-29.9,53.9-29.9,53.9-29.9s44.3,36.5,99.3,29.9
			c54.9-6.8,76.2-29.9,76.2-29.9s100.3,68.1,188.5,38c88.3-29.9,93.3-38,93.3-38s5.1,28,36.7,11.5c0,0,50,40,76.5,33.3
			c26.7-6.8,26.7,6.8,26.7,6.8s21.6,1.7,44.9,0c16.9-1.4,83.8-27,147.3-26.5c0.7,0.7,1.3,1.4,1.9,2.2
			C2257,279.5,2138.9,290.3,2138.9,290.3z"/>
	</g>
	<g class="st0">
		<path class="st1" d="M1221.4,245.5c0,0,0,0-15.4,12.3c-15.4,12.3-49.3,7.7-49.3,7.7s9.2,1.5-37,27.4
			c-46.2,25.9-166.6-19.8-166.6-19.8s26.1,37-83.3,60.1c-109.4,23.2-200.3-60.1-200.3-60.1L617.1,290l-69.5-16.9
			c0,0-4.6,10.7-37,22.1c-32.4,11.1-91-14.8-91-14.8c-55.5,41.1-103.2-15.9-103.2-15.9s-26.1,8.8-49.3,14.4
			c-23.2,5.8-44.7-7.3-44.7-7.3s-10.7-1.5-72.5,6.1c-61.6,7.7-101.7-29.4-101.7-29.4H-69.1l1.7-0.6c0.8-0.2,1.7-0.6,2.7-1l1.9-0.6
			c16.9-5.6,63.3-22.3,77.7-41.1C32.6,181.9,97.4,185,97.4,185s3.1-10.7,3.1-20c0-9.2,23-14,23-14s-6.1-9.2,9.2-30.9
			c15.4-21.7,81.8-7.7,81.8-7.7s-1.5-46.3,80.2-38.6c77.5,7.3,95.4,79.7,97.1,87.3c-0.4-2.7-0.6-13.4,15.5-14.8
			c18.4-1.5,26.3,23,26.3,23l12.3-41.7c34-95.6,105-43.2,105-43.2C620.4-11,722.1,38.4,722.1,38.4C743.8,9,777.5,46,777.5,46
			s7.7-30.9,46.2-42.2c38.6-11.3,57,29.9,57,29.9S943.9-11,1001.1,9c57,20.2,58.5,80.2,58.5,80.2c47.8,23,24.8,67.8,24.8,67.8
			c57-13.8,70.8,43.2,70.8,43.2s146-30.7,175.2-2.5c0.8,0.8,1.5,1.5,2.1,2.5C1355.6,233.2,1221.4,245.5,1221.4,245.5z"/>
		
			<linearGradient id="SVGID_3_" gradientUnits="userSpaceOnUse" x1="705.1328" y1="439.446" x2="655.6232" y2="163.2915" gradientTransform="matrix(1 0 0 -1 0 265.6854)">
			<stop  offset="7.449020e-03" style="stop-color:#1CA2FF"/>
			<stop  offset="1" style="stop-color:#1CA2FF;stop-opacity:0"/>
		</linearGradient>
		<path class="st5" d="M1221.4,245.5c0,0,0,0-15.4,12.3c-15.4,12.3-49.3,7.7-49.3,7.7s9.2,1.5-37,27.4
			c-46.2,25.9-166.6-19.8-166.6-19.8s26.1,37-83.3,60.1c-109.4,23.2-200.3-60.1-200.3-60.1L617.1,290l-69.5-16.9
			c0,0-4.6,10.7-37,22.1c-32.4,11.1-91-14.8-91-14.8c-55.5,41.1-103.2-15.9-103.2-15.9s-26.1,8.8-49.3,14.4
			c-23.2,5.8-44.7-7.3-44.7-7.3s-10.7-1.5-72.5,6.1c-61.6,7.7-101.7-29.4-101.7-29.4H-69.1l1.7-0.6c0.8-0.2,1.7-0.6,2.7-1l1.9-0.6
			c16.9-5.6,63.3-22.3,77.7-41.1C32.6,181.9,97.4,185,97.4,185s3.1-10.7,3.1-20c0-9.2,23-14,23-14s-6.1-9.2,9.2-30.9
			c15.4-21.7,81.8-7.7,81.8-7.7s-1.5-46.3,80.2-38.6c77.5,7.3,95.4,79.7,97.1,87.3c-0.4-2.7-0.6-13.4,15.5-14.8
			c18.4-1.5,26.3,23,26.3,23l12.3-41.7c34-95.6,105-43.2,105-43.2C620.4-11,722.1,38.4,722.1,38.4C743.8,9,777.5,46,777.5,46
			s7.7-30.9,46.2-42.2c38.6-11.3,57,29.9,57,29.9S943.9-11,1001.1,9c57,20.2,58.5,80.2,58.5,80.2c47.8,23,24.8,67.8,24.8,67.8
			c57-13.8,70.8,43.2,70.8,43.2s146-30.7,175.2-2.5c0.8,0.8,1.5,1.5,2.1,2.5C1355.6,233.2,1221.4,245.5,1221.4,245.5z"/>
		
			<linearGradient id="SVGID_4_" gradientUnits="userSpaceOnUse" x1="556.8289" y1="309.6343" x2="597.9196" y2="163.3833" gradientTransform="matrix(1 0 0 -1 0 265.6854)">
			<stop  offset="7.449020e-03" style="stop-color:#841CFF;stop-opacity:0.31"/>
			<stop  offset="1" style="stop-color:#841CFF;stop-opacity:0"/>
		</linearGradient>
		<path class="st6" d="M1221.4,245.5c0,0,0,0-15.4,12.3c-15.4,12.3-49.3,7.7-49.3,7.7s9.2,1.5-37,27.4
			c-46.2,25.9-166.6-19.8-166.6-19.8s26.1,37-83.3,60.1c-109.4,23.2-200.3-60.1-200.3-60.1L617.1,290l-69.5-16.9
			c0,0-4.6,10.7-37,22.1c-32.4,11.1-91-14.8-91-14.8c-55.5,41.1-103.2-15.9-103.2-15.9s-26.1,8.8-49.3,14.4
			c-23.2,5.8-44.7-7.3-44.7-7.3s-10.7-1.5-72.5,6.1c-61.6,7.7-101.7-29.4-101.7-29.4H-69.1l1.7-0.6c0.8-0.2,1.7-0.6,2.7-1l1.9-0.6
			c16.9-5.6,63.3-22.3,77.7-41.1C32.6,181.9,97.4,185,97.4,185s3.1-10.7,3.1-20c0-9.2,23-14,23-14s-6.1-9.2,9.2-30.9
			c15.4-21.7,81.8-7.7,81.8-7.7s-1.5-46.3,80.2-38.6c77.5,7.3,95.4,79.7,97.1,87.3c-0.4-2.7-0.6-13.4,15.5-14.8
			c18.4-1.5,26.3,23,26.3,23l12.3-41.7c34-95.6,105-43.2,105-43.2C620.4-11,722.1,38.4,722.1,38.4C743.8,9,777.5,46,777.5,46
			s7.7-30.9,46.2-42.2c38.6-11.3,57,29.9,57,29.9S943.9-11,1001.1,9c57,20.2,58.5,80.2,58.5,80.2c47.8,23,24.8,67.8,24.8,67.8
			c57-13.8,70.8,43.2,70.8,43.2s146-30.7,175.2-2.5c0.8,0.8,1.5,1.5,2.1,2.5C1355.6,233.2,1221.4,245.5,1221.4,245.5z"/>
		<path class="st4" d="M1221.4,245.5c0,0,0,0-15.4,12.3c-15.4,12.3-49.3,7.7-49.3,7.7s9.2,1.5-37,27.4
			c-46.2,25.9-166.6-19.8-166.6-19.8s26.1,37-83.3,60.1c-109.4,23.2-200.3-60.1-200.3-60.1L617.1,290l-69.5-16.9
			c0,0-4.6,10.7-37,22.1c-32.4,11.1-91-14.8-91-14.8c-55.5,41.1-103.2-15.9-103.2-15.9s-26.1,8.8-49.3,14.4
			c-23.2,5.8-44.7-7.3-44.7-7.3s-10.7-1.5-72.5,6.1c-61.6,7.7-101.7-29.4-101.7-29.4H-69.1l1.7-0.6l2.7-1l1.9-0.6l104.2-33.4
			c0,0,39.7,13.2,56.8,0c17.1-13.2,32.2,17.1,64.3-18.8c0,0,28.4,53,86.9,24.6c53.2-25.7,53.5-45.1,53-48.4c1,6.3,11.9,65.5,70,33.4
			c61.2-34,61.2-34,61.2-34s50.3,41.5,112.8,34c62.4-7.7,86.5-34,86.5-34s114,77.4,214.2,43.2c100.4-34,105.9-43.2,105.9-43.2
			s5.8,31.9,41.6,13.1c0,0,56.8,45.5,86.9,37.8c30.3-7.7,30.3,7.7,30.3,7.7s24.6,1.9,51,0c19.2-1.5,95.2-30.7,167.3-30.1
			c0.8,0.8,1.5,1.5,2.1,2.5C1355.6,233.2,1221.4,245.5,1221.4,245.5z"/>
	</g>
	<path class="st1" d="M2140.7,292.6c-55.8,13.9-86.7-16.2-86.7-16.2c-10.1,13.9-25.5,2.4-25.5,2.4c-61.2,42.6-102.2,5.2-102.2,5.2
		c-12.3,8.3-24,0-24,0c-20.9,13-48.8,9.5-48.8,9.5c-47.1,17.7-62-6.6-62-6.6c-23.1,6.6-43.3-9.5-43.3-9.5s-16.2,7.6-20.9,9.1
		c-4.6,1.5-19.4-1.5-30.2-6.3c-10.8-4.6-30.1-8.6-33.3-12.3c-5.4-6.3,33.3-4.6,33.3-4.6s0,0,0.2,0c0.3,0.2,1.7,0.5,3.4,0.5
		c2.7,0,6.3-1.2,8.8-5.9c4.6-8.4,32.4-10,32.4-10c14.7-38.7,66.6-27.9,66.6-27.9c-1.5-19.3,16.2-20.1,16.2-20.1s3.9-31.8,44.1-30.2
		c40.2,1.5,36.3,43.4,36.3,43.4c6.9-15.5,24-1.5,24-1.5c-10.1-27.9,20.9-29.4,20.9-29.4c12.3-48,78.9-29.4,78.9-29.4
		c60.3-17.1,56.4,24,56.4,24c13.2-1.5,11.7,12.3,11.7,12.3c6.3-10.1,18.6-3.9,18.6-3.9c22.5-25.5,47.1-2.4,47.1-2.4
		c49.5-13.2,40.2,31.8,40.2,31.8s8.6-0.8,13.2,20.1C2221.3,255.6,2196.5,278.8,2140.7,292.6z"/>
	
		<linearGradient id="SVGID_5_" gradientUnits="userSpaceOnUse" x1="1826.4669" y1="304.1795" x2="1940.5669" y2="14.3126" gradientTransform="matrix(1 0 0 -1 0 265.6854)">
		<stop  offset="7.449020e-03" style="stop-color:#1CA2FF"/>
		<stop  offset="1" style="stop-color:#1CA2FF;stop-opacity:0"/>
	</linearGradient>
	<path class="st7" d="M2140.7,292.6c-55.8,13.9-86.7-16.2-86.7-16.2c-10.1,13.9-25.5,2.4-25.5,2.4c-61.2,42.6-102.2,5.2-102.2,5.2
		c-12.3,8.3-24,0-24,0c-20.9,13-48.8,9.5-48.8,9.5c-47.1,17.7-62-6.6-62-6.6c-23.1,6.6-43.3-9.5-43.3-9.5s-16.2,7.6-20.9,9.1
		c-4.6,1.5-19.4-1.5-30.2-6.3c-10.8-4.6-30.1-8.6-33.3-12.3c-5.4-6.3,33.3-4.6,33.3-4.6s0,0,0.2,0c0.3,0.2,1.7,0.5,3.4,0.5
		c2.7,0,6.3-1.2,8.8-5.9c4.6-8.4,32.4-10,32.4-10c14.7-38.7,66.6-27.9,66.6-27.9c-1.5-19.3,16.2-20.1,16.2-20.1s3.9-31.8,44.1-30.2
		c40.2,1.5,36.3,43.4,36.3,43.4c6.9-15.5,24-1.5,24-1.5c-10.1-27.9,20.9-29.4,20.9-29.4c12.3-48,78.9-29.4,78.9-29.4
		c60.3-17.1,56.4,24,56.4,24c13.2-1.5,11.7,12.3,11.7,12.3c6.3-10.1,18.6-3.9,18.6-3.9c22.5-25.5,47.1-2.4,47.1-2.4
		c49.5-13.2,40.2,31.8,40.2,31.8s8.6-0.8,13.2,20.1C2221.3,255.6,2196.5,278.8,2140.7,292.6z"/>
	
		<linearGradient id="SVGID_6_" gradientUnits="userSpaceOnUse" x1="1910.723" y1="145.2011" x2="1930.973" y2="54.0671" gradientTransform="matrix(1 0 0 -1 0 265.6854)">
		<stop  offset="7.449020e-03" style="stop-color:#841CFF;stop-opacity:0.31"/>
		<stop  offset="1" style="stop-color:#841CFF;stop-opacity:0"/>
	</linearGradient>
	<path class="st8" d="M2140.7,292.6c-55.8,13.9-86.7-16.2-86.7-16.2c-10.1,13.9-25.5,2.4-25.5,2.4c-61.2,42.6-102.2,5.2-102.2,5.2
		c-12.3,8.3-24,0-24,0c-20.9,13-48.8,9.5-48.8,9.5c-47.1,17.7-62-6.6-62-6.6c-23.1,6.6-43.3-9.5-43.3-9.5s-16.2,7.6-20.9,9.1
		c-4.6,1.5-19.4-1.5-30.2-6.3c-10.8-4.6-30.1-8.6-33.3-12.3c-5.4-6.3,33.3-4.6,33.3-4.6s0,0,0.2,0c0.3,0.2,1.7,0.5,3.4,0.5
		c2.7,0,6.3-1.2,8.8-5.9c4.6-8.4,32.4-10,32.4-10c14.7-38.7,66.6-27.9,66.6-27.9c-1.5-19.3,16.2-20.1,16.2-20.1s3.9-31.8,44.1-30.2
		c40.2,1.5,36.3,43.4,36.3,43.4c6.9-15.5,24-1.5,24-1.5c-10.1-27.9,20.9-29.4,20.9-29.4c12.3-48,78.9-29.4,78.9-29.4
		c60.3-17.1,56.4,24,56.4,24c13.2-1.5,11.7,12.3,11.7,12.3c6.3-10.1,18.6-3.9,18.6-3.9c22.5-25.5,47.1-2.4,47.1-2.4
		c49.5-13.2,40.2,31.8,40.2,31.8s8.6-0.8,13.2,20.1C2221.3,255.6,2196.5,278.8,2140.7,292.6z"/>
	<path class="st4" d="M2140.7,292.6c-55.8,13.9-86.7-16.2-86.7-16.2c-10.1,13.9-25.5,2.4-25.5,2.4c-61.2,42.6-102.2,5.2-102.2,5.2
		c-12.3,8.3-24,0-24,0c-20.9,13-48.8,9.5-48.8,9.5c-47.1,17.7-62-6.6-62-6.6c-23.1,6.6-43.3-9.5-43.3-9.5s-16.2,7.6-20.9,9.1
		c-4.6,1.5-19.4-1.5-30.2-6.3c-10.8-4.6-30.1-8.6-33.3-12.3c-5.4-6.3,33.3-4.6,33.3-4.6s0,0,0.2,0c0.3,0,1.5,0.2,3.4,0.5
		c6.1,0.8,18.8,1.9,27.5-0.5c12-3.4,22-5.4,30.4-3.4c8.5,2.2,10,10,12.7,11.3c2.9,1.4,21.3,9.1,27.5-13.3c0,0,10,20.1,27.5-3.4
		c0,0,46,53.9,91.9,0c0,0,57.3,41.6,101.9-12.8c0,0,0.7,29.7,34.6,7.8c0,0,20.4,8.4,34.6,0c14.2-8.4,30.4-12,49.5-14.2
		c19.1-2.2,49.8-1.7,64.2-20.6c0,0,8.6-0.8,13.2,20.1C2221.3,255.6,2196.5,278.8,2140.7,292.6z"/>
	
		<linearGradient id="SVGID_7_" gradientUnits="userSpaceOnUse" x1="1859.2374" y1="56.3187" x2="2104.2473" y2="-49.5533" gradientTransform="matrix(1 0 0 -1 0 265.6854)">
		<stop  offset="7.449020e-03" style="stop-color:#1CA2FF"/>
		<stop  offset="1" style="stop-color:#1CA2FF;stop-opacity:0"/>
	</linearGradient>
	<path class="st9" d="M2140.7,292.6c-55.8,13.9-86.7-16.2-86.7-16.2c-10.1,13.9-25.5,2.4-25.5,2.4c-61.2,42.6-102.2,5.2-102.2,5.2
		c-12.3,8.3-24,0-24,0c-20.9,13-48.8,9.5-48.8,9.5c-47.1,17.7-62-6.6-62-6.6c-23.1,6.6-43.3-9.5-43.3-9.5s-16.2,7.6-20.9,9.1
		c-4.6,1.5-19.4-1.5-30.2-6.3c-10.8-4.6-30.1-8.6-33.3-12.3c-5.4-6.3,33.3-4.6,33.3-4.6s0,0,0.2,0c0.3,0,1.5,0.2,3.4,0.5
		c6.1,0.8,18.8,1.9,27.5-0.5c12-3.4,22-5.4,30.4-3.4c8.5,2.2,10,10,12.7,11.3c2.9,1.4,21.3,9.1,27.5-13.3c0,0,10,20.1,27.5-3.4
		c0,0,46,53.9,91.9,0c0,0,57.3,41.6,101.9-12.8c0,0,0.7,29.7,34.6,7.8c0,0,20.4,8.4,34.6,0c14.2-8.4,30.4-12,49.5-14.2
		c19.1-2.2,49.8-1.7,64.2-20.6c0,0,8.6-0.8,13.2,20.1C2221.3,255.6,2196.5,278.8,2140.7,292.6z"/>
</g>
</svg>
