<svg width="472" height="95" viewBox="0 0 472 95" fill="none" xmlns="http://www.w3.org/2000/svg">
<g opacity="0.3">
<path d="M471.351 75.2792C471.351 75.2792 447.451 78.1792 441.951 76.7792C436.451 75.2792 425.051 75.8792 423.651 75.5792C422.151 75.2792 415.451 78.4792 400.051 79.0792C385.151 79.6792 391.451 73.1792 391.851 72.7792C391.451 73.0792 384.551 78.3792 372.951 82.2792C361.051 86.3792 353.151 78.1792 353.151 78.1792C353.151 78.1792 334.251 87.4792 323.451 88.3792C312.651 89.2792 304.251 81.3792 302.551 83.5792C300.851 85.6792 287.451 83.5792 287.451 83.5792C287.451 83.5792 285.451 84.5792 275.851 85.7792C266.251 86.9792 259.851 79.3792 259.851 79.3792L251.951 83.5792C251.951 83.5792 241.451 84.8792 217.051 87.4792C192.651 90.0792 170.751 79.6792 170.751 79.6792C170.751 79.6792 160.551 86.3792 148.951 87.7792C137.651 89.1792 119.751 75.2792 118.751 74.4792C119.651 75.2792 134.151 89.0792 126.851 93.0792C119.251 97.1792 107.651 88.9792 107.651 88.9792C107.651 88.9792 107.951 93.6792 103.851 94.2792C99.7511 94.8792 92.4511 88.0792 92.4511 88.0792C92.4511 88.0792 90.7511 92.4792 85.1511 94.0792C79.6511 95.6792 77.2511 86.8792 77.2511 86.8792C77.2511 86.8792 76.6511 92.0792 67.0511 93.8792C57.4511 95.5792 43.4511 84.8792 43.4511 84.8792C43.4511 84.8792 1.75108 83.9792 0.0510778 77.2792C-1.64892 70.5792 39.6511 73.1792 39.6511 73.1792C32.6511 59.4792 58.2511 67.3792 58.2511 67.3792C58.2511 67.3792 43.9511 57.4792 48.3511 50.1792C52.6511 42.9792 73.9511 47.1792 73.9511 47.1792C73.9511 47.1792 84.7511 12.6792 104.751 2.77916C124.851 -7.12084 141.451 12.6792 141.451 12.6792C141.451 12.6792 146.151 4.77916 152.751 5.07916C159.451 5.37916 163.551 16.4792 163.551 16.4792C163.551 16.4792 189.751 -4.22084 209.851 0.77916C229.851 5.67916 226.351 28.9792 226.351 28.9792C226.351 28.9792 243.251 21.0792 256.051 26.3792C268.851 31.5792 266.851 48.7792 266.851 48.7792C279.351 46.4792 286.351 64.1792 286.351 64.1792C286.351 64.1792 292.151 54.2792 293.651 48.7792C295.151 43.2792 302.951 45.8792 302.951 45.8792C302.951 45.8792 308.751 30.4792 325.051 29.2792C341.351 28.0792 347.151 46.4792 347.151 46.4792C347.151 46.4792 357.051 43.2792 365.751 46.4792C374.451 49.6792 366.351 63.6792 366.351 63.6792C366.351 63.6792 370.151 61.0792 374.751 59.8792C379.451 58.6792 382.351 61.5792 382.351 61.5792C382.351 61.5792 393.951 52.2792 402.751 52.5792C411.151 52.8792 402.051 61.5792 401.351 62.1792C401.651 61.9792 404.351 60.7792 410.051 60.7792C416.151 60.7792 410.351 66.5792 410.351 66.5792C410.351 66.5792 410.351 66.5792 418.751 66.5792C427.151 66.5792 429.551 72.3792 438.551 72.7792C442.651 72.9792 449.751 73.4792 456.351 73.9792C456.551 73.9792 456.651 73.9792 456.651 73.9792C464.451 74.5792 471.351 75.2792 471.351 75.2792Z" fill="white"/>
<path opacity="0.66" d="M471.351 75.2792C471.351 75.2792 447.451 78.1792 441.951 76.7792C436.451 75.2792 425.051 75.8792 423.651 75.5792C422.151 75.2792 415.451 78.4792 400.051 79.0792C385.151 79.6792 391.451 73.1792 391.851 72.7792C391.451 73.0792 384.551 78.3792 372.951 82.2792C361.051 86.3792 353.151 78.1792 353.151 78.1792C353.151 78.1792 334.251 87.4792 323.451 88.3792C312.651 89.2792 304.251 81.3792 302.551 83.5792C300.851 85.6792 287.451 83.5792 287.451 83.5792C287.451 83.5792 285.451 84.5792 275.851 85.7792C266.251 86.9792 259.851 79.3792 259.851 79.3792L251.951 83.5792C251.951 83.5792 241.451 84.8792 217.051 87.4792C192.651 90.0792 170.751 79.6792 170.751 79.6792C170.751 79.6792 160.551 86.3792 148.951 87.7792C137.651 89.1792 119.751 75.2792 118.751 74.4792C119.651 75.2792 134.151 89.0792 126.851 93.0792C119.251 97.1792 107.651 88.9792 107.651 88.9792C107.651 88.9792 107.951 93.6792 103.851 94.2792C99.7511 94.8792 92.4511 88.0792 92.4511 88.0792C92.4511 88.0792 90.7511 92.4792 85.1511 94.0792C79.6511 95.6792 77.2511 86.8792 77.2511 86.8792C77.2511 86.8792 76.6511 92.0792 67.0511 93.8792C57.4511 95.5792 43.4511 84.8792 43.4511 84.8792C43.4511 84.8792 1.75108 83.9792 0.0510778 77.2792C-1.64892 70.5792 39.6511 73.1792 39.6511 73.1792C32.6511 59.4792 58.2511 67.3792 58.2511 67.3792C58.2511 67.3792 43.9511 57.4792 48.3511 50.1792C52.6511 42.9792 73.9511 47.1792 73.9511 47.1792C73.9511 47.1792 84.7511 12.6792 104.751 2.77916C124.851 -7.12084 141.451 12.6792 141.451 12.6792C141.451 12.6792 146.151 4.77916 152.751 5.07916C159.451 5.37916 163.551 16.4792 163.551 16.4792C163.551 16.4792 189.751 -4.22084 209.851 0.77916C229.851 5.67916 226.351 28.9792 226.351 28.9792C226.351 28.9792 243.251 21.0792 256.051 26.3792C268.851 31.5792 266.851 48.7792 266.851 48.7792C279.351 46.4792 286.351 64.1792 286.351 64.1792C286.351 64.1792 292.151 54.2792 293.651 48.7792C295.151 43.2792 302.951 45.8792 302.951 45.8792C302.951 45.8792 308.751 30.4792 325.051 29.2792C341.351 28.0792 347.151 46.4792 347.151 46.4792C347.151 46.4792 357.051 43.2792 365.751 46.4792C374.451 49.6792 366.351 63.6792 366.351 63.6792C366.351 63.6792 370.151 61.0792 374.751 59.8792C379.451 58.6792 382.351 61.5792 382.351 61.5792C382.351 61.5792 393.951 52.2792 402.751 52.5792C411.151 52.8792 402.051 61.5792 401.351 62.1792C401.651 61.9792 404.351 60.7792 410.051 60.7792C416.151 60.7792 410.351 66.5792 410.351 66.5792C410.351 66.5792 410.351 66.5792 418.751 66.5792C427.151 66.5792 429.551 72.3792 438.551 72.7792C442.651 72.9792 449.751 73.4792 456.351 73.9792C456.551 73.9792 456.651 73.9792 456.651 73.9792C464.451 74.5792 471.351 75.2792 471.351 75.2792Z" fill="url(#paint0_linear)"/>
<path d="M471.351 75.2792C471.351 75.2792 447.451 78.1792 441.951 76.7792C436.451 75.2792 425.051 75.8792 423.651 75.5792C422.151 75.2792 415.451 78.4792 400.051 79.0792C385.151 79.6792 391.451 73.1792 391.851 72.7792C391.451 73.0792 384.551 78.3792 372.951 82.2792C361.051 86.3792 353.151 78.1792 353.151 78.1792C353.151 78.1792 334.251 87.4792 323.451 88.3792C312.651 89.2792 304.251 81.3792 302.551 83.5792C300.851 85.6792 287.451 83.5792 287.451 83.5792C287.451 83.5792 285.451 84.5792 275.851 85.7792C266.251 86.9792 259.851 79.3792 259.851 79.3792L251.951 83.5792C251.951 83.5792 241.451 84.8792 217.051 87.4792C192.651 90.0792 170.751 79.6792 170.751 79.6792C170.751 79.6792 160.551 86.3792 148.951 87.7792C137.651 89.1792 119.751 75.2792 118.751 74.4792C119.651 75.2792 134.151 89.0792 126.851 93.0792C119.251 97.1792 107.651 88.9792 107.651 88.9792C107.651 88.9792 107.951 93.6792 103.851 94.2792C99.7511 94.8792 92.4511 88.0792 92.4511 88.0792C92.4511 88.0792 90.7511 92.4792 85.1511 94.0792C79.6511 95.6792 77.2511 86.8792 77.2511 86.8792C77.2511 86.8792 76.6511 92.0792 67.0511 93.8792C57.4511 95.5792 43.4511 84.8792 43.4511 84.8792C43.4511 84.8792 1.75108 83.9792 0.0510778 77.2792C-1.64892 70.5792 39.6511 73.1792 39.6511 73.1792C39.6511 73.1792 53.5511 88.7792 75.5511 75.6792C75.5511 75.6792 85.7511 87.0792 102.451 64.6792C102.451 64.6792 146.051 76.0792 165.551 58.1792C165.551 58.1792 203.451 76.8792 215.251 71.5792C225.551 66.9792 227.151 61.7792 227.451 60.4792C227.251 62.1792 226.651 70.5792 235.751 69.4792C245.851 68.2792 245.451 60.1792 245.451 60.1792C245.451 60.1792 256.451 73.9792 262.551 71.1792C268.651 68.2792 271.951 64.6792 271.951 64.6792C271.951 64.6792 289.451 78.4792 300.051 66.2792C300.051 66.2792 322.051 84.9792 341.551 67.0792C341.551 67.0792 342.751 72.6792 351.351 69.4792C359.951 66.2792 359.551 63.3792 359.551 63.3792C359.551 63.3792 368.151 70.1792 374.251 69.4792C380.351 68.6792 387.651 67.0792 387.651 67.0792C387.651 67.0792 394.551 72.3792 401.851 71.9792C408.851 71.5792 452.651 73.6792 456.451 73.8792C456.651 73.8792 456.751 73.8792 456.751 73.8792C464.451 74.5792 471.351 75.2792 471.351 75.2792Z" fill="#D8EAFB"/>
<path opacity="0.66" d="M471.351 75.2792C471.351 75.2792 447.451 78.1792 441.951 76.7792C436.451 75.2792 425.051 75.8792 423.651 75.5792C422.151 75.2792 415.451 78.4792 400.051 79.0792C385.151 79.6792 391.451 73.1792 391.851 72.7792C391.451 73.0792 384.551 78.3792 372.951 82.2792C361.051 86.3792 353.151 78.1792 353.151 78.1792C353.151 78.1792 334.251 87.4792 323.451 88.3792C312.651 89.2792 304.251 81.3792 302.551 83.5792C300.851 85.6792 287.451 83.5792 287.451 83.5792C287.451 83.5792 285.451 84.5792 275.851 85.7792C266.251 86.9792 259.851 79.3792 259.851 79.3792L251.951 83.5792C251.951 83.5792 241.451 84.8792 217.051 87.4792C192.651 90.0792 170.751 79.6792 170.751 79.6792C170.751 79.6792 160.551 86.3792 148.951 87.7792C137.651 89.1792 119.751 75.2792 118.751 74.4792C119.651 75.2792 134.151 89.0792 126.851 93.0792C119.251 97.1792 107.651 88.9792 107.651 88.9792C107.651 88.9792 107.951 93.6792 103.851 94.2792C99.7511 94.8792 92.4511 88.0792 92.4511 88.0792C92.4511 88.0792 90.7511 92.4792 85.1511 94.0792C79.6511 95.6792 77.2511 86.8792 77.2511 86.8792C77.2511 86.8792 76.6511 92.0792 67.0511 93.8792C57.4511 95.5792 43.4511 84.8792 43.4511 84.8792C43.4511 84.8792 1.75108 83.9792 0.0510778 77.2792C-1.64892 70.5792 39.6511 73.1792 39.6511 73.1792C39.6511 73.1792 53.5511 88.7792 75.5511 75.6792C75.5511 75.6792 85.7511 87.0792 102.451 64.6792C102.451 64.6792 146.051 76.0792 165.551 58.1792C165.551 58.1792 203.451 76.8792 215.251 71.5792C225.551 66.9792 227.151 61.7792 227.451 60.4792C227.251 62.1792 226.651 70.5792 235.751 69.4792C245.851 68.2792 245.451 60.1792 245.451 60.1792C245.451 60.1792 256.451 73.9792 262.551 71.1792C268.651 68.2792 271.951 64.6792 271.951 64.6792C271.951 64.6792 289.451 78.4792 300.051 66.2792C300.051 66.2792 322.051 84.9792 341.551 67.0792C341.551 67.0792 342.751 72.6792 351.351 69.4792C359.951 66.2792 359.551 63.3792 359.551 63.3792C359.551 63.3792 368.151 70.1792 374.251 69.4792C380.351 68.6792 387.651 67.0792 387.651 67.0792C387.651 67.0792 394.551 72.3792 401.851 71.9792C408.851 71.5792 452.651 73.6792 456.451 73.8792C456.651 73.8792 456.751 73.8792 456.751 73.8792C464.451 74.5792 471.351 75.2792 471.351 75.2792Z" fill="url(#paint1_linear)"/>
</g>
<defs>
<linearGradient id="paint0_linear" x1="386.351" y1="232.53" x2="161.671" y2="-0.238516" gradientUnits="userSpaceOnUse">
<stop offset="0.00744902" stop-color="#841CFF" stop-opacity="0.09"/>
<stop offset="1" stop-color="#841CFF" stop-opacity="0"/>
</linearGradient>
<linearGradient id="paint1_linear" x1="-0.0489222" y1="76.268" x2="471.396" y2="76.268" gradientUnits="userSpaceOnUse">
<stop offset="0.00744902" stop-color="#841CFF" stop-opacity="0.09"/>
<stop offset="1" stop-color="#841CFF" stop-opacity="0"/>
</linearGradient>
</defs>
</svg>
