<?xml version="1.0" encoding="utf-8"?>
<!-- Generator: Adobe Illustrator 24.2.0, SVG Export Plug-In . SVG Version: 6.00 Build 0)  -->
<svg version="1.1" id="Layer_1" xmlns="http://www.w3.org/2000/svg" xmlns:xlink="http://www.w3.org/1999/xlink" x="0px" y="0px"
	 viewBox="0 0 320 306.2" style="enable-background:new 0 0 320 306.2;" xml:space="preserve">
<style type="text/css">
	.st0{fill:#245984;}
	.st1{fill:#3A6E2A;}
	.st2{fill:#2A699E;}
	.st3{fill:#29475F;}
	.st4{fill:#4897D3;}
	.st5{fill:#2B5B7D;}
	.st6{fill:#3C7DAE;}
	.st7{fill:#4078B5;}
	.st8{fill:#3073AA;}
	.st9{fill:#4086CC;}
	.st10{fill:#2E5A7A;}
	.st11{fill:#2A526F;}
	.st12{fill:#4390DD;}
	.st13{fill:#97D3FF;}
	.st14{opacity:0.47;fill:#F7FFAE;}
	.st15{opacity:0.3;fill:#FC88A4;}
	.st16{opacity:0.5;fill:#DE6EF9;}
	.st17{fill:#476FE6;}
	.st18{fill:#57A9D5;}
	.st19{fill:#75C5F2;}
	.st20{fill:#69B8ED;}
	.st21{fill:#ABEDFF;}
	.st22{fill:#30B850;}
	.st23{fill:#D7F7FF;}
	.st24{opacity:0.4;fill:#084B82;}
	.st25{fill:url(#SVGID_1_);}
	.st26{opacity:0.36;fill:#F1C5FC;}
	.st27{fill:#EE59F7;}
	.st28{fill:#D82EE5;}
	.st29{fill:url(#SVGID_2_);}
	.st30{opacity:0.54;fill:#DA48ED;}
	.st31{opacity:0.54;fill:#F9E6FF;}
	.st32{fill:url(#SVGID_3_);}
	.st33{opacity:0.54;fill:#F1C5FC;}
	.st34{fill:#F354FC;}
	.st35{fill:url(#SVGID_4_);}
	.st36{fill:#AE05C6;}
	.st37{fill:#FFFFFD;}
	.st38{fill:url(#SVGID_5_);}
	.st39{opacity:0.36;fill:#FCC5EB;}
	.st40{fill:#F759A1;}
	.st41{fill:#EF3F8F;}
	.st42{fill:url(#SVGID_6_);}
	.st43{opacity:0.54;fill:#ED48A3;}
	.st44{opacity:0.54;fill:#FFE6F9;}
	.st45{fill:url(#SVGID_7_);}
	.st46{opacity:0.54;fill:#FCC5EB;}
	.st47{fill:#FC54A0;}
	.st48{fill:url(#SVGID_8_);}
	.st49{fill:#D80E73;}
	.st50{fill:#EA1C83;}
	.st51{fill:#62F438;}
	.st52{fill:#3BC41E;}
	.st53{fill:#9CFC86;}
	.st54{fill:#92FC86;}
	.st55{fill:#5CD845;}
	.st56{fill:#B4FFB0;}
	.st57{fill:#FFFFFF;}
	.st58{fill:#C4FFAB;}
	.st59{fill:#55FF4D;}
	.st60{fill:#28C606;}
	.st61{fill:#1CA004;}
	.st62{fill:#22F41E;}
	.st63{fill:#06E005;}
	.st64{fill:#4BE03B;}
	.st65{fill:#15B708;}
	.st66{fill:#05CE09;}
	.st67{opacity:0.25;fill:#3BFC32;}
	.st68{opacity:0.7;fill:#017512;}
	.st69{fill:#24C418;}
	.st70{opacity:0.36;fill:#22F41E;}
	.st71{fill:#07BF06;}
	.st72{fill:#20DD17;}
	.st73{fill:#12C911;}
	.st74{fill:#02BC09;}
	.st75{fill:#04B212;}
	.st76{fill:#EF3026;}
	.st77{opacity:0.44;fill:#A02200;}
	.st78{fill:#FC6363;}
	.st79{fill:#EA2D55;}
	.st80{fill:url(#SVGID_9_);}
	.st81{fill:url(#SVGID_10_);}
	.st82{fill:url(#SVGID_11_);}
	.st83{fill:url(#SVGID_12_);}
	.st84{opacity:0.17;fill:url(#SVGID_13_);}
	.st85{opacity:0.17;fill:url(#SVGID_14_);}
	.st86{opacity:0.44;fill:#ED4C5C;}
	.st87{fill:#FCE9E6;}
	.st88{opacity:0.47;fill:#FFFFFF;}
	.st89{opacity:0.28;fill:url(#SVGID_15_);}
	.st90{opacity:0.75;fill:#FFFFFF;}
	.st91{opacity:0.63;fill:#FCC8D4;}
	.st92{fill:url(#SVGID_16_);}
	.st93{fill:#0A4D9E;}
	.st94{opacity:0.65;fill:#12AAFF;}
	.st95{fill:#1050E0;}
	.st96{fill:url(#SVGID_17_);}
	.st97{opacity:0.54;fill:#66CCFF;}
	.st98{opacity:0.75;fill:#97D0FF;}
	.st99{fill:url(#SVGID_18_);}
	.st100{opacity:0.26;fill:#22E5FF;}
	.st101{fill:url(#SVGID_19_);}
	.st102{opacity:0.59;fill:#A4E5FF;}
	.st103{opacity:0.57;fill:#FFFFFD;}
	.st104{opacity:0.48;fill:#22E5FF;}
	.st105{opacity:0.25;fill:#8ADEFF;}
	.st106{opacity:0.57;fill:#E1F9FF;}
	.st107{fill:#BBFFD2;}
	.st108{fill:#86FCAA;}
	.st109{fill:#7AFCA3;}
	.st110{fill:#33E570;}
	.st111{fill:#02CC59;}
	.st112{fill:#ABFFCD;}
	.st113{fill:#3DC979;}
	.st114{fill:#1EF48E;}
	.st115{fill:#3BE07F;}
	.st116{opacity:0.4;fill:#86FCB6;}
	.st117{fill:#0AC66C;}
	.st118{fill:#05C174;}
	.st119{opacity:0.58;fill:#ABFFCD;}
	.st120{opacity:0.15;fill:#32FC94;}
	.st121{opacity:0.25;fill:#32FC94;}
	.st122{opacity:0.91;fill:#059B5E;}
	.st123{fill:#05A35F;}
	.st124{opacity:0.36;fill:#08BF79;}
	.st125{fill:#017C4D;}
	.st126{fill:#17DD76;}
	.st127{opacity:0.44;fill:#02C676;}
	.st128{fill:#11C974;}
	.st129{fill:#0AC47B;}
	.st130{fill:#02BC70;}
	.st131{fill:#04B275;}
	.st132{fill:url(#SVGID_20_);}
	.st133{fill:url(#SVGID_21_);}
	.st134{fill:url(#SVGID_22_);}
	.st135{fill:url(#SVGID_23_);}
	.st136{fill:url(#SVGID_24_);}
	.st137{fill:url(#SVGID_25_);}
	.st138{fill:url(#SVGID_26_);}
	.st139{fill:url(#SVGID_27_);}
	.st140{fill:url(#SVGID_28_);}
	.st141{opacity:0.68;fill:#FF4B00;}
	.st142{fill:url(#SVGID_29_);}
	.st143{fill:url(#SVGID_30_);}
	.st144{fill:url(#SVGID_31_);}
	.st145{fill:#DB3C05;}
	.st146{opacity:0.72;fill:#B23708;}
	.st147{fill:url(#SVGID_32_);}
	.st148{fill:url(#SVGID_33_);}
	.st149{opacity:0.74;fill:url(#SVGID_34_);}
	.st150{fill:url(#SVGID_35_);}
	.st151{fill:url(#SVGID_36_);}
	.st152{fill:url(#SVGID_37_);}
	.st153{fill:url(#SVGID_38_);}
	.st154{fill:url(#SVGID_39_);}
	.st155{fill:url(#SVGID_40_);}
	.st156{opacity:0.47;fill:url(#SVGID_41_);}
	.st157{fill:#FF6000;}
	.st158{opacity:0.47;fill:url(#SVGID_42_);}
	.st159{fill:url(#SVGID_43_);}
	.st160{opacity:0.43;fill:url(#SVGID_44_);}
	.st161{fill:#FCF6E3;}
	.st162{opacity:0.6;fill:url(#SVGID_45_);}
	.st163{fill:#86F1FC;}
	.st164{fill:url(#SVGID_46_);}
	.st165{fill:url(#SVGID_47_);}
	.st166{fill:url(#SVGID_48_);}
	.st167{fill:url(#SVGID_49_);}
	.st168{fill:#0591CE;}
	.st169{fill:#33E5E5;}
	.st170{fill:url(#SVGID_50_);}
	.st171{fill:url(#SVGID_51_);}
	.st172{fill:url(#SVGID_52_);}
	.st173{fill:url(#SVGID_53_);}
	.st174{fill:url(#SVGID_54_);}
	.st175{fill:url(#SVGID_55_);}
	.st176{opacity:0.52;fill:#86F1FC;}
	.st177{fill:url(#SVGID_56_);}
	.st178{fill:url(#SVGID_57_);}
	.st179{fill:url(#SVGID_58_);}
	.st180{fill:url(#SVGID_59_);}
	.st181{fill:url(#SVGID_60_);}
	.st182{fill:url(#SVGID_61_);}
	.st183{fill:url(#SVGID_62_);}
	.st184{fill:url(#SVGID_63_);}
	.st185{fill:url(#SVGID_64_);}
	.st186{fill:url(#SVGID_65_);}
	.st187{fill:url(#SVGID_66_);}
	.st188{fill:url(#SVGID_67_);}
	.st189{fill:url(#SVGID_68_);}
	.st190{fill:url(#SVGID_69_);}
</style>
<g>
	<g>
		<path class="st0" d="M83,87.8c-0.2,1.3-0.7,2.6-0.8,4c-0.2,1.5-0.1,3.2-0.5,4.6l-0.2,0.1c0.8,0.4,2.9-0.5,3.9-0.6
			c1.4-0.1,3.2,0.6,2.9-1.1C87.7,91.9,84.5,90.2,83,87.8z"/>
		<path class="st1" d="M251.6,114.7h0.5c-0.2-0.1-0.3-0.2-0.5-0.3C251.6,114.5,251.6,114.6,251.6,114.7z"/>
		<path class="st2" d="M270,127.7c-22.9-1.1-44.9,2.3-65.4,11c-21.5,9.1-45.7,26-53.6,46.9c-5.5,14.7-9.6,31.8-7,47.4
			c2.8,16.5,12.7,32.8,12.5,49.5c10.5-2,18.6-13.1,29.5-16.4c0,0,8.4,4.9,19.2-3.4c14.6-11.1,29.4-24,46.8-28.3
			c19.3-4.7,27-22.6,37.2-28.1c8.3-17-2.3-20.6,5.7-33.3c10.1-16,4.6-27.8,10.1-41.4l-3.7-1.1C291.6,128.3,280.3,128.2,270,127.7z"
			/>
		<path class="st0" d="M212.7,199.7c-3,7.8-3.4,23.4-5.6,31.4c-2.2,7.7-4.2,15.4-5.6,23.2c-0.5,2.8-1,5.7-1.2,8.5
			c-0.1,1.7,0.1,2.4,0.1,2.4c0.1,0.1,0.2,0.3,0.3,0.4c1.5-0.7,3-1.6,4.7-2.8c5.1-3.9,10.2-8,15.5-11.8c0.4-6.3,1.6-12.6,2.7-18.9
			c1.3-7.4,3.1-16.2-0.3-23.3C221.7,205.6,212.7,199.7,212.7,199.7z"/>
		<path class="st3" d="M206.6,261.7c3.6-2.8,7.2-5.6,10.9-8.3c0.8-5.3,1.8-10.6,2.8-16c1.4-8.5-5.1-23.5-7.2-30.8
			C213,225.2,212.4,246.4,206.6,261.7z"/>
		<path class="st0" d="M300.5,130.5c-6.1,3-12,6.3-17.7,9.8c4.2,0.1,8,1,12.1,2.1c4.5,1.3,5.4,5.8,3.3,8.5
			c-4.5,16.9-21.8,27.8-26.1,44.7c-2.5,9.9-2.8,20.1-3.7,30.3c8.5-7.1,14.1-16,20.8-19.5c8.3-17-2.3-20.6,5.7-33.3
			c10.1-16,4.6-27.8,10.1-41.4l-3.7-1.1C301.1,130.6,300.8,130.6,300.5,130.5z"/>
		<path class="st3" d="M273.4,222.8c5.4-8.8,11.8-16.7,19.2-23.9c0.4-8.5-3.3-13.2,2.4-22.8c2.4-4,3.9-7.7,5-11.3
			c-5.1,8.3-10.9,16.3-16.8,24.2C279.8,200.2,276.3,211.4,273.4,222.8z"/>
		<path class="st0" d="M155.2,201.2c-0.4,0-0.8,0.1-1.2,0c-0.9,19.5-1.2,39.1-1.9,58.6c2.5,7.5,4.5,15.1,4.4,22.7
			c4.9-1,9.3-3.9,13.8-7.1c-0.1-1.2-0.2-2.5-0.3-3.7c-0.4-5.8-0.7-11.8-2.9-17.3c-1.8-4.6-5.2-9.1-6.1-14
			c-3.3-16.3,3.7-29.5,14.7-41.5C169,199.9,162.2,200.3,155.2,201.2z"/>
		<path class="st0" d="M233.4,157.2c0.3-0.1-15.9,3.4-11.9,4.9c1.1,0.1,5.4,1.2,6.3,1.5c0.5,0.2,13-0.3,13-0.3
			c-9.2,19.1-7.2,47-8.9,67.2c-0.4,4.6-0.9,9.2-1.6,13.7c3.9-2.5,7.9-4.7,12-6.5c0.3-4.2,0.7-8.4,1.3-12.5c1.5-10.1,5-18.3,8.8-27.8
			c3.4-8.5,1-17.5,4.3-25.9c2.6-6.6,6.1-12.5,8-19c-4.4,2.3-10,3.7-14.6,3.6C244.5,156.3,238.8,155.6,233.4,157.2z"/>
		<path class="st3" d="M233.4,157.2c0.3-0.1-15.9,3.4-11.9,4.9c1.1,0.1,5.4,1.2,6.3,1.5c0.5,0.2,13-0.3,13-0.3
			c-9.2,19.1-7.2,47-8.9,67.2c-0.4,4.6-0.9,9.2-1.6,13.7c1-0.6,2-1.2,3-1.8c0.5-8.1,1.8-16.1,2.8-24.2c1.1-8.7,1.5-17.5,3.5-26.1
			c3.4-14.8,7.3-25.2,20.7-35.1c1.1-0.8,2.3-1.2,3.4-1.3c0.4-1,0.7-2,1.1-3.1c-4.4,2.3-10,3.7-14.6,3.6
			C244.5,156.3,238.8,155.6,233.4,157.2z"/>
		<path class="st0" d="M178.5,195.8c1,8.7,1.9,17.4,1.6,26.1c-0.2,8.8-1.6,17.4-0.5,26.2c0.8,6.5,2.1,12.9,3,19.4
			c0.9-0.4,1.8-0.8,2.8-1.1c-0.5-6.9,1.5-13.5,2.7-20.4c1.7-9.1,1.5-17.6,5.3-26.4c4.7-10.8,3.3-21.5,11.8-32.1
			c1.9-2.4,15.1-15.8,15.7-18.6C211.4,171.8,183.8,188,178.5,195.8z"/>
		<path class="st3" d="M178.5,195.8c1,8.7,1.9,17.4,1.6,26.1c-0.2,8.8-1.6,17.4-0.5,26.2c0.8,6.5,2.1,12.9,3,19.4
			c0.8-0.4,1.6-0.7,2.5-1c-0.7-16.2-1-32.5-0.3-48.7c0.6-15.5,9-25.1,17.8-37.7c0.1-0.4,0.1-0.8,0.2-1.3
			C193.3,181.9,183.8,188,178.5,195.8z"/>
		<path class="st4" d="M154.1,186.9c-7.9-19-40.4-36-60.3-44.2c-19.9-8.2-46.9-8.1-68.5-9.1c-5.8-0.2-10.5-0.5-15.7-2
			c0,15.2,0.6,31.4,8.7,44.4c3.3,5.4,6.9,25.6,13.9,37.2c4.7,7.8,9.5,6,17.1,8.7c11.8,4.2,17.7,18.8,37.6,28.4
			c7.1,3.4,11.6,12.2,26.4,16.5c8.5,2.5,18.9,0.8,18.9,0.8c8.6,3,8.9,10.1,24.4,14.7c0.5-15.1-1-30.7-1-46.8
			C155.5,221.2,159.7,200.3,154.1,186.9z"/>
		<path class="st5" d="M82.4,201.5c0,0.1,0,0.2-0.1,0.3c1.8,5.6,2.6,12.5,1.8,19.3c0.1,9.4-2.2,18.1-9.8,21.4
			c3.5,2.8,7.6,5.5,12.7,8c4.3,2.1,7.6,6.1,12.8,9.9c-3.8-8.2-7.3-16.4-9.7-24.9C87,224.3,85.9,212.5,82.4,201.5z"/>
		<path class="st6" d="M155.2,203.3c-2.6-1.8-6.7-4.6-10.2-5.3c0,0.2,0.1,0.5,0.1,0.8c0.1,0.4,0.3,0.8,0.4,1.1
			c0.5,0.3,0.9,0.7,1.3,1.2c10,12.3,6,27.2,6.5,41.3c0.5,12.1,2.3,24.2,3.2,36.2c0.2-13.9-1.1-28.2-1.1-43c0-9.2,1.6-20.8,1.5-31.6
			C156.4,204,155.8,203.7,155.2,203.3z"/>
		<path class="st6" d="M141.6,231.3c-3-8.4-6-16.7-7.3-25.4c-2.5-6.1-4.7-13,0.3-16.4c1.3-0.9,2.7-1.6,4.1-2
			c-0.9-0.5-1.8-0.9-2.9-1.2c-3.7,1.9-7.7,3.1-12,3.8c7.2,17.6,10.4,36,10.1,54.5c0.1,0.2,0.2,0.3,0.2,0.5c1.1,3.2,0.3,6.9-0.5,10.1
			c0.1,0.3,0.1,0.6,0.1,0.9c0,4.1-0.2,8.1-0.8,11.9c4.7,1.9,6.9,5,10.9,8.1c-1-10-2.4-20.1-2.8-30.2
			C140.9,241.4,141.3,236.4,141.6,231.3z"/>
		<path class="st6" d="M28.9,174.4c-4.5-2.8-11.2-9.8-11.2-9.8c0,1.2-3.2-7.6-3.8-17.1c-0.2-4.3-0.2-8.7,0.4-13
			c-1-0.7-1.9-1.5-2.7-2.3c-0.7-0.2-1.3-0.3-2-0.5c0,15.2,0.6,31.4,8.7,44.4c3.3,5.4,6.9,25.6,13.9,37.2c2.7,4.5,5.5,5.8,8.8,6.6
			C34,207.1,21.2,187.4,28.9,174.4z"/>
		<path class="st6" d="M63.3,166.9c-1.5-1.2-2.7-2.5-3.7-3.8c-3.8-1.9-7.2-4.5-11.2-6c-0.1,2.1-0.3,4.3-0.6,6.4
			c0,0.2,0.1,0.5,0.1,0.7c3.6,8.6,5.2,17.5,7,26.6c0.2,0.4,0.4,0.9,0.5,1.4c0.5,2.2,0.9,4.3,1.4,6.5c0.5,0.7,0.9,1.6,0.9,2.7
			c0.6,9,1.7,17.8,1,26.7c1.6,1.4,3.2,2.9,4.8,4.5c0.4-6.8,0.9-13.5,0.9-20.3C64.5,196.8,56.7,181.8,63.3,166.9z"/>
		<path class="st7" d="M51.3,158.8c1-1.2,5.2-12.2,4.2-12.4c-5.6-0.8-19.2-2.3-20.4-2.3c1,8.7,1.9,17.5,4.5,26
			c2.8,9,8.1,16.9,11.4,25.6c4,10.5,6.1,21.4,7.7,32.3c1,0.9,1.9,1.8,2.9,2.7c-0.5-17.7-1.5-35.4-5.8-52.6
			C53.3,168.3,52.2,165,51.3,158.8z"/>
		<path class="st0" d="M51.5,158.4c0.9-1.2,4.9-11.8,4-12c-5.6-0.8-36.5-9.3-37.7-9.3c4.2,6.3,14.9,11,18.8,11.9
			c10,3.1,9.9,8.8,11.7,15.7c2.4,9,4.7,18.1,6.8,27.1c2.7,11.8,5.6,25.1,5.4,37.9c0.3,0.3,0.7,0.6,1.1,1
			c-0.5-17.7-1.5-35.4-5.8-52.6C53.3,168.3,52.4,164.7,51.5,158.4z"/>
		<path class="st7" d="M109,183.9c7.1,9.1,14.6,22.5,19.3,48.1c2.2,12,2.4,23.7,4,35.8c0.6,0.2,2.2,0.9,2.7,1.2
			c0.7-6.4,1.7-12.8,2.3-19.4c1.7-18.3-5.2-38.8-7.1-57c0,0,14.9-6.7,18.2-10.4C138.2,182.5,106.6,178.3,109,183.9z"/>
		<path class="st0" d="M80.1,168.8l11.7,7.3c10.4,3.5,27,16.2,27,16.6c2.4,1.3,11.3,19.4,12.9,26.9c3.5,15.5,5.1,33,1.8,48.7
			c0.5,0.2,0.9,0.4,1.4,0.7c0.7-6.4,1.7-12.8,2.3-19.4c1.7-18.3-5.2-38.8-7.1-57c0,0,14.9-6.7,18.2-10.4
			C138.2,182.5,89.7,165.8,80.1,168.8z"/>
		<path class="st8" d="M281.2,159.5c-2.6,1-5.3,1.8-8,2.7c-1.4,0.5-2.9,1-4.3,1.5c-5.7,2.1-11.6,4.1-17.6,5.7
			c-0.2,0-0.4,0.1-0.6,0.1c-0.5,0.2-0.9,0.2-1.3,0.1l-0.5,0.2c0,0,0.2,5.8-0.1,7.4c-0.5,2.6-2.7,4.6-3.1,7.3
			c-0.8,5.8,2.4,35.3,0.6,40.7c6.3-0.2,4.7-1.5,10.9-2c5-0.4,16.3-23.2,21.2-24.8c4.9-1.6,14.7-6.9,17.7-10.7c2.9-3.8,2.7-6.9,5-11
			c2.3-4.2,4.7-4.1,7.9-7.8c3.3-3.8-3.2-17.1-3.2-17.1L281.2,159.5z"/>
		<path class="st9" d="M277.2,174.2c-3-0.2-6-0.4-9-0.5c4,4.6,7.6,8.1,3.9,14.7c-3.9,7.1-11.3,13.4-13.7,21.1
			c-1.4,4.6-2.6,9.2-3.3,13.9c0.6-0.1,1.3-0.2,2.2-0.3c0.6,0,1.2-0.4,1.9-0.9c2.3-8.7,7-16.5,11.8-24.6c3.5-6,6.3-12.1,8.8-18.5
			C280.9,176.2,282.9,174.6,277.2,174.2z"/>
		<path class="st10" d="M277.2,165.7c-2.7,2.6-0.3,9.4-0.3,10.1c0.5,8.5-1.3,13-8.7,22.4c-5.9,7.6-8.9,16-10.5,24.9
			c5.3-1.7,15.9-23.1,20.7-24.7c4.9-1.6,14.7-6.9,17.7-10.7c2.9-3.8,2.7-6.9,5-11c2.3-4.2,4.7-4.1,7.9-7.8
			c3.3-3.8-3.2-17.1-3.2-17.1C305.9,151,289.7,156.7,277.2,165.7z"/>
		<path class="st0" d="M282.4,171c-1.9-0.5-4.2,0.3-6.3,0.7c0.3,2,0.8,3.8,0.8,4.1c0.5,8.5-1.3,13-8.7,22.4
			c-5.9,7.6-8.9,16-10.5,24.9c2.3-0.8,5.7-5.4,9.2-10.5c-2.6-8.7,4.7-16.9,10.9-24.1c1.9-5.5,3.5-11.1,6.5-16.2
			c-0.1,0-0.2-0.1-0.2-0.1C283.6,171.7,283,171.3,282.4,171z"/>
		<path class="st10" d="M235.1,200.5c-7.4,2.5-15.5,0.3-22.4-0.9c-0.5,4.9,0.9,12,1.5,17.4c0.6,5.9,3.2,30.7,3.4,36.4
			c4.9,1.5,8.7,0.1,13.4-2.9c3.3-2.1,5-15.2,7.6-24.5c2.2-8.2,15.6-19.7,15.9-28.1l-0.5,0.4C247.7,193.6,240.6,198.7,235.1,200.5z"
			/>
		<path class="st0" d="M231.1,207.9c-5,14.9-6.2,30.2-6.6,45.6c1.6-0.4,3.1-1.1,4.7-2.1c0-6.8,0.5-13.5,0.9-20.3
			c0.3-3.9,0-8.8,1.7-12.4c3.9-8.4,14.5-11.1,21.6-17c0.5-1.2,0.8-2.3,0.9-3.4c-6.4,4.9-14.8,8.3-23.1,9.1
			C231.3,207.6,231.2,207.8,231.1,207.9z"/>
		<path class="st8" d="M212.7,199.7c-0.5,4.9,0.9,12,1.5,17.4c0.6,5.9,3.2,30.7,3.4,36.4c3.2,1,5.9,0.7,8.7-0.4
			c0.1-17.6,3.2-37.4,9.8-54.1C229.1,200.6,219.2,200.8,212.7,199.7z"/>
		<path class="st9" d="M223.5,207.8c4.7,6,4.3,11.9,3,18.8c-1.8,8.9-1.9,17.9-2.1,26.9c0.6-0.2,1.2-0.4,1.9-0.6
			c0.1-14.2,2.2-29.9,6.5-44.1C229.5,209.1,226.2,208.8,223.5,207.8z"/>
		<path class="st5" d="M52.5,181c-3.7,2.1-7.6,7.1-11.8,8.6c0.6,6.1,5,14.4,8,20.2c2.8,5.5,5.6,11.1,8.8,19.4c0.7,0,2.2,0.6,3,0.6
			c-0.1-7.2,0.2-13.1-1.2-20.2C56.3,194.2,54.6,188.6,52.5,181z"/>
		<path class="st11" d="M49.4,193.4c1-3.9,3.1-7.3,3.4-11.4c-0.1-0.3-0.2-0.7-0.3-1c-3.7,2.1-7.6,7.1-11.8,8.6
			c0.6,6.1,5,14.4,8,20.2c2.8,5.5,5.6,11.1,8.8,19.4c0.2,0,0.4,0,0.7,0.1c-2.3-8.4-4.4-16.8-7-25.2
			C50.3,200.9,48.5,196.8,49.4,193.4z"/>
		<path class="st7" d="M24.7,184.6c6.1,7.3,13.3,14.3,17.3,22.5c3.2,6.7,7.2,19.9,15.6,22c-3.2-11.4-9.7-26.5-12.4-34.9
			C43.8,189.7,34.4,176,24.7,184.6z"/>
		<path class="st7" d="M24.5,188.3c0.1-0.1,0.1-0.1,0.2-0.1c0,0,0,0,0,0L24.5,188.3z"/>
		<path class="st12" d="M24.7,184.6c0.1,0.2,0.3,0.3,0.4,0.5c0.4,0,0.8,0,1.2,0.2c13.2,5,18.3,11.5,22.3,23.3c2,6,4.7,11.5,7.8,17.2
			c0.2,0.4,0.4,0.8,0.6,1.3c-3.4-11.1-9.2-24.8-11.7-32.8C43.8,189.7,34.4,176,24.7,184.6z"/>
		<path class="st7" d="M142.2,218.2c-2-4.6-3.2-10.6-4.9-14.6l-0.8-0.3c2,5.2,2.1,11.6,3.9,17.2c0.8,2.4,1.5,4.9,2.6,7.2
			c0.4,0.8,0.8,1.9,1.5,2.6c0.8,0.8,2.6,0.9,3,1.7c0.7,1.3-1.2,4.9-1.7,6.4c-0.9,2.9-1.4,4.9-1.4,8c0,3.4,0.2,6.9,0,10.3
			c-0.1,2.5-1.2,6,0,8.4c-0.4-11.3,4.8-24.4,7.5-34.9C145.3,230.4,144.2,223,142.2,218.2z"/>
		<path class="st5" d="M78.9,183.9c-0.5-2.2-1.1-13-1.8-15.1c-2-1.1-5.7-0.9-7.9-1.6c-1.4-0.4-6.4-1-5.7-0.3l-0.4-0.3
			c0.8,2.1,0,15.5,0,17.6c1.6-0.3,4.4-8.5,6.2-8.4c0.2,4.1,0.9,8.1-0.4,11.6c4.8,2.5,3.1,6.2,2.6,10.3c-0.5,4.7,3.2,2,2.8,6.7
			c-0.3,3.9-3.9,14.9-3.3,18.8c0,0,3.4,7.9,3.3,10.3c0,0.3,0.1,0.1,0.4-0.5c-3.1-10.3,0.6-20.4,4.1-30.4c-0.1-2-0.1-4,0-6.1
			c0.1-1.4,0.1-2.9,0.2-4.3C77.9,187.1,79.1,189.1,78.9,183.9z"/>
		<path class="st13" d="M261.1,107.1l-17.6,2.9c2.1-1.5,6.9-5.4,8.6-7.2c-16.3-16.3-37.8-16.6-51.1-27.4
			c-6.6-5.4-36.5-18.9-44.4-23.8c-18.1,10.1-31.4,9.9-39.3,19.7C109.5,81,93.8,82.1,82.9,88c0.6,1.4,2,4.7,2.7,6.2
			c-13.8-2.2-31.1,11.4-44.4,19.6C29.5,121,9.3,131.4,9.3,131.4c15.2,15.4,28.3,18.1,43.8,20.3c1.1,2.7-3,6.9-0.9,11.3
			c6.5,13.6,55.2,19.5,66.8,31.8c2.8,3,17.3-3.8,17.3-3.8c0,2.4-6.1,5.8-6.1,5.8c14.3,7.7,21.1,15.4,27.3,14.6
			c6-0.8,22.5-10,27.8-13.1c10.4-6,13.7-12.3,24.8-16.2c13.6-4.8,20.8-5,30.8-16.4c-5.6-0.5-10.7-1.7-16.4-1.6
			c14.2-6.1,30.9-1.8,45.1-9.7c11.3-6.3,22.6-19.9,35.5-22.3C300.7,127.7,289.3,119.7,261.1,107.1z"/>
		<path class="st14" d="M299.1,127.2c-9.7,5.4-20.6,9.4-31.6,12.4c-21.5,5.9-43.9,9.1-66.4,10.9c-14.2,2.1-28.5,3.6-42.4,3.9
			c-14.5,0.3-29.4-0.2-43.9-2.6c-32.5-2.6-64.6-10.8-82.3-33c-10.9,6.2-23.3,12.6-23.3,12.6c15.2,15.4,28.3,18.1,43.8,20.3
			c1.1,2.7-3,6.9-0.9,11.3c6.5,13.6,55.2,19.5,66.8,31.8c2.8,3,17.3-3.8,17.3-3.8c0,2.4-6.1,5.8-6.1,5.8
			c14.3,7.7,21.1,15.4,27.3,14.6c6-0.8,22.5-10,27.8-13.1c10.4-6,13.7-12.3,24.8-16.2c13.6-4.8,20.8-5,30.8-16.4
			c-5.6-0.5-10.7-1.7-16.4-1.6c14.2-6.1,30.9-1.8,45.1-9.7c11.3-6.3,22.6-19.9,35.5-22.3C303.8,130.8,301.8,129.2,299.1,127.2z"/>
		<path class="st15" d="M156.6,51.6c-18.1,10.1-31.4,9.9-39.3,19.7C109.5,81,93.8,82.1,82.9,88c0.6,1.4,2,4.7,2.7,6.2
			c-13.8-2.2-31.1,11.4-44.4,19.6C29.5,121,9.3,131.4,9.3,131.4c6.2,6.2,12,10.4,17.7,13.2c0.8-0.5,1.7-1,2.5-1.5
			c15.3-15.8,39.1-23,60.9-27.4c24.3-4.9,49-7.1,73.7-8.6c28-1.7,56.2-2.4,84.2-0.9c1.5-1.3,3-2.6,3.8-3.4
			c-16.3-16.3-37.8-16.6-51.1-27.4C194.4,70,164.5,56.5,156.6,51.6z"/>
		<path class="st16" d="M261.1,107.1l-17.6,2.9c2.1-1.5,6.9-5.4,8.6-7.2c-16.3-16.3-37.8-16.6-51.1-27.4
			c-6.6-5.4-36.5-18.9-44.4-23.8c-18.1,10.1-31.4,9.9-39.3,19.7C109.5,81,93.8,82.1,82.9,88c0.6,1.4,2,4.7,2.7,6.2
			C76.5,92.7,66,98,56,104.2c33.5-4.6,70.5,1.8,102.1,5.8c41.9,5.3,89.8,11.4,126,33.8c6.7-5.3,13.5-10.3,20.9-11.7
			C300.7,127.7,289.3,119.7,261.1,107.1z"/>
		<path class="st17" d="M86.4,178.3c-3.1-0.4-6.1-0.8-9.2-1.4c-0.3,0-0.7,0-1,0c4,1.4,8.1,2.7,12.2,4c-0.2-0.1-0.4-0.2-0.7-0.4
			C86.9,180,86.5,179.2,86.4,178.3z"/>
		<path class="st0" d="M304.4,153.4c-1.6,3.3-3.6,6.5-6.4,8.7c1.9,3.6,3.9,8.3,3.6,9.2c-2.7,6.4-5.1,9.9-6.8,14.4
			c-0.5,1.8,0.4,5.4-0.2,7.2c0.6-0.6,1.1-1.1,1.5-1.6c2.9-4,2.7-7.3,5-11.6c2.3-4.4,4.7-4.4,7.9-8.3c3.3-4.1-3.2-18.2-3.2-18.2
			C305.9,153.1,305.3,153.2,304.4,153.4z"/>
		<path class="st3" d="M277.1,167.4c-1.7,1.8,8.3,3.7,9,5.7c0,0-0.5,4.5-0.8,6c-1,5.8-2,11.6-3,17.3c5.1-9.4,10.3-18.6,12.6-29
			C289.8,168.6,282.3,166.7,277.1,167.4z"/>
		<path class="st18" d="M294.1,151.1c-9.5,10.2-30.1,17-45.1,21.3c4.5,4.3,12.1,0.8,15.8,3.2c5.7,3.7,12.2,3.2,12.2,3.2
			s6.7-3.6,9.2-5.7c1.3-1.1-7.8-3.3-5.6-4.3c1.1-0.6,13.3,0.1,14.6-0.5c8.4-3.6,8.7-7.8,10.7-11.1
			C308.9,152.3,302.4,150.4,294.1,151.1z"/>
		<path class="st19" d="M284.7,165.8C284.7,165.8,284.6,165.8,284.7,165.8c-2.6,0.4-4.9,1-7.4,1.8c-0.1,0-0.2,0.1-0.3,0.1
			c1.4,1.2,2.4,3.1,4.4,3.7c5.3,1.7-2.4,5.9-4.4,6.1c-2.7,0.3-9.4-3-12.2-3.3c-5.2-0.5-3.4,0.4-8.6-0.5c-1.7-0.3-4.2-1.4-5.9-1.6
			c-0.4,0.1-0.8,0.2-1.2,0.4c4.5,4.3,12.1,0.8,15.8,3.2c5.7,3.7,12.2,3.2,12.2,3.2s6.7-3.6,9.2-5.7c1.3-1.1-7.8-3.3-5.6-4.3
			c1.1-0.6,13.3,0.1,14.6-0.5c7-3,8.3-6.4,9.8-9.4C301.4,163.9,297.3,167.3,284.7,165.8z"/>
		<path class="st18" d="M234,197.7c0,0-6,3-8.9,4.2c-3.6,1.4-8.5,3-12.4,2.3c0.3,0.9,1.1,2.6,2,3.5c4.4,4.7,14.9,8.8,21,6.6
			c3.9-1.5,17-7.5,18.6-11.1C256.5,198.3,238.3,196.2,234,197.7z"/>
		<path class="st19" d="M214,204.3c-0.4,0-0.9-0.1-1.3-0.2c0.3,0.9,1.1,2.6,2,3.5c4.4,4.7,14.9,8.8,21,6.6c3.4-1.3,13.6-6,17.4-9.5
			C241.8,212.7,223.1,215.1,214,204.3z"/>
		<path class="st20" d="M41.1,177.1c-9,3.6-24.5,11.2-11.7,12.9c5.7,1.3,11.1,5.2,15.8,8.3c3.2-3.8,7.3-8.4,7.3-14.1
			C48.4,182.7,43.5,180.5,41.1,177.1z"/>
		<path class="st21" d="M43.1,195.1c-2.7-2.3-9.6-5.1-15.6-6.3c-3-0.6-2.6-1.7-2.8-2.2c-0.7,1.5,0.4,2.7,4.6,3.3
			c5.7,1.3,11.1,5.2,15.8,8.3c3.1-3.7,7.1-8.1,7.3-13.7c-1.3,3.6-2.2,4.7-4.1,7.8C47.4,194,44.5,196.3,43.1,195.1z"/>
		<path class="st5" d="M117,199.9c-2.8-1-7.4,0-9.2,1.6c-2.3,2.1-3.6,3.9-5,6.6c-3.4,6.6-5.1,11.4-3.2,18.9c2.3,9,5.9,17.7,9.4,26.4
			c2.3,6,5.8,17.3,12,21.1c2.5-2,5.8-4.1,7.9-6.4c-4-10.1-6.2-23-7.4-34.1C120.2,222.7,118,211,117,199.9z"/>
		<path class="st11" d="M115.6,244.8c-3-7.3-5.4-14.5-5.3-22.3c0.1-7.5,4-13.1,6.3-20.1c0.1-0.4,0.3-0.8,0.5-1.2
			c0-0.4-0.1-0.9-0.2-1.4c-2.8-1-7.4,0-9.2,1.6c-2.3,2.1-3.6,3.9-5,6.6c-3.4,6.6-5.1,11.4-3.2,18.9c2.3,9,5.9,17.7,9.4,26.4
			c2.3,6,5.8,17.3,12,21.1c2.1-1.7,4.7-3.5,6.8-5.4C119.7,263.7,119.2,253.7,115.6,244.8z"/>
		<path class="st7" d="M107.2,224.5c-1.3-5.4,1.2-16-4.4-19c-3.6-1.9-9.3-2.8-13.3-5.1c-3.5-2-20.1-8.4-24.3-8
			c0.7,10.9,12.3,24.3,17.5,35.8c5.6,12.5,10,20.6,14,33.5c1.4,4.5,12.2,3.6,17.3,12.3l7.1,0.5c0,0-1.5-8.5-2.6-11.9
			C117,258.3,109.2,232.8,107.2,224.5z"/>
		<path class="st12" d="M107.2,224.5c-0.9-3.9,0.1-10.5-1.4-15c-3,0.8-6.2,0.9-9.5,0.8c9.7,7.8,11.9,21.7,14.2,32.6
			c2.2,10.9,7,20.9,9.8,31.5l0.7,0c0,0-1.5-8.5-2.6-11.9C117,258.3,109.2,232.8,107.2,224.5z"/>
		<path class="st20" d="M79.2,185.8c-4.7,4.1-8.7,4.3-13.1,8c-4.5,3.8,7.3,16.7,14,19.9c7,3.3,16.5,3.9,24.1,3.1
			c7-0.7,13.1-13,13.1-13c-4.1-2.6-13.1-3.6-19.6-7.6C89.5,191.1,79.2,185.8,79.2,185.8z"/>
		<path class="st21" d="M81.5,211.4c-5.2-1.7-17.1-8.9-14.1-18.5c-0.4,0.3-0.8,0.6-1.3,1c-4.5,3.8,7.3,16.7,14,19.9
			c7,3.3,16.5,3.9,24.1,3.1c5.6-0.6,10.6-8.4,12.4-11.6C107.3,215.8,98.9,217.2,81.5,211.4z"/>
		<path class="st22" d="M192.7,76.7c0.2-0.1,0.5-0.2,0.8-0.3c-0.2-0.5-0.4-1.1-0.8-1.6V76.7z"/>
		<path class="st23" d="M253.2,157.4c-6.5,0.8-24.4,2.8-27.4,4.5c-2.7,1.6-5.2,2.9-2.1,3.1c7.9,0.6,14.1,2.1,14.1,2.1
			c-13.9,11.3-28.8,10.7-32.9,13.1c-4.6,2.7-7.8,6.5-11.6,10c-5.2,4.8-28.9,17.4-36,18.6c-5.3,0.9-7.2-4.8-21.2-11.3
			c-3.3-1.5,3.9-7.7,4.4-9.1c-5,0.7-9.8,2.1-14.6,4c-2,0.8-6.6,0.7-8-0.6c-11.9-10.9-43.8-17-52.3-20.3c-4.7-1.9-11.6-5.8-12.2-10.8
			c-0.4-3,1.4-5.5,2.4-8.3c1.4-4.1-6-3.3-8.2-3.7c-8.2-1.6-30-8.2-38.1-17.1c0,0,0,0,0,0c15.2,15.4,28.3,18.1,43.8,20.3
			c1.1,2.7-3,6.9-0.9,11.3c6.5,13.6,55.2,19.5,66.8,31.8c2.8,3,17.3-3.8,17.3-3.8c0,2.4-6.1,5.8-6.1,5.8
			c14.3,7.7,21.1,15.4,27.3,14.6c6-0.8,22.5-10,27.8-13.1c10.4-6,13.7-12.3,24.8-16.2c13.6-4.8,20.8-5,30.8-16.4
			c-5.6-0.5-10.7-1.7-16.4-1.6c14.2-6.1,30.9-1.8,45.1-9.7c9-5,18.1-14.8,28-19.7c-7,1.5-13.3,7.3-19.1,11.1
			C270.1,151.3,263.5,156.1,253.2,157.4z"/>
		<path class="st24" d="M82.4,165.9h-4.7c-3.5-0.4-7.1-0.1-10.1,1c-0.6,6.1,20.8,11.2,26.8,9.2c3.5-1.1,9.7-6.4,6.1-10.5
			C98.2,163.1,85.4,165.3,82.4,165.9z"/>
		<g>
			<g>
				<linearGradient id="SVGID_1_" gradientUnits="userSpaceOnUse" x1="73.7398" y1="158.8145" x2="94.8668" y2="158.8145">
					<stop  offset="0" style="stop-color:#F286FD"/>
					<stop  offset="1" style="stop-color:#F459F7"/>
				</linearGradient>
				<path class="st25" d="M74,155.7l9.6,18.2c0.1,0,0.1,0,0.2,0.1c3.8-1.5,7.5-3.1,11.1-4.9l-7.5-25.4L74,155.7z"/>
				<path class="st26" d="M86.1,148.4c-3,2.8-5,6.1-4.4,10c0.7,4.5,2.4,8.9,4.4,13.1c0.2,0.4,0.4,0.9,0.6,1.4c0,0,0.1,0,0.1,0
					c-0.1-0.2-0.1-0.3-0.2-0.5C83.5,164.4,83.8,156.4,86.1,148.4z"/>
				<path class="st26" d="M92.5,170.2c0.8-0.4,1.6-0.8,2.4-1.1l-4.3-14.5C90.2,159.8,90.9,165.1,92.5,170.2z"/>
				<path class="st27" d="M89,149.1l-0.3-1.1c-2.5,8.2-2.3,15.9,0.4,23.8c0.4-0.2,0.9-0.4,1.3-0.6C88.1,164,87.4,156.5,89,149.1z"/>
				<path class="st28" d="M74,155.7l9.6,18.2c0.1,0,0.1,0,0.2,0.1c0.3-0.1,0.5-0.2,0.8-0.3c-0.8-1.6-1.5-3.2-2.2-4.9
					c-1.7-4.1-4.1-9.6-3-14.1c1.1-4.1,4.4-7.4,8.1-10.2l-0.2-0.8L74,155.7z"/>
				<linearGradient id="SVGID_2_" gradientUnits="userSpaceOnUse" x1="54.7053" y1="145.0181" x2="84.6239" y2="135.297">
					<stop  offset="0" style="stop-color:#F1C5FC"/>
					<stop  offset="1" style="stop-color:#F158F4"/>
				</linearGradient>
				<path class="st29" d="M61,126.9l-4.4,24.3l17.3,4.6l13.4-12c0,0-20.4-17.8-22.6-18.4C62.6,124.7,61,126.9,61,126.9z"/>
				<path class="st30" d="M56.7,151.1l12.5,3.3c-2.6-7.8-6.4-15.4-8.9-23.2L56.7,151.1z"/>
				<path class="st31" d="M61,126.9l0,0.2c1.8,0.5,4.2,3.9,4.7,5.5c1.2,3.3,5.6,17.9,7.6,23l0.6,0.2l13.4-12
					c0,0-20.4-17.8-22.6-18.4C62.6,124.7,61,126.9,61,126.9z"/>
				<linearGradient id="SVGID_3_" gradientUnits="userSpaceOnUse" x1="87.3476" y1="140.4511" x2="61.6861" y2="140.4511">
					<stop  offset="0" style="stop-color:#F1C5FC"/>
					<stop  offset="1" style="stop-color:#F158F4"/>
				</linearGradient>
				<path class="st32" d="M61.7,126.2c5.1,2.4,6.6,9.6,7.8,13.7c1.4,5.1,4.5,15.8,4.5,15.8l13.4-12c0,0-20.4-17.8-22.6-18.4
					C63.4,124.9,62.3,125.6,61.7,126.2z"/>
				<path class="st33" d="M71.6,134.1c2.2,6.8,2.7,14.2,2.3,21.4c0,0.1,0,0.2,0,0.2l13.4-12c0,0-10.4-9.1-17.1-14.5
					C70.8,130.8,71.3,132.4,71.6,134.1z"/>
				<path class="st34" d="M56.7,151.1c0,0,5.9,8.3,12.7,18c4.8,1.5,9.5,3.1,14.2,4.7L74,155.7L56.7,151.1z"/>
				<linearGradient id="SVGID_4_" gradientUnits="userSpaceOnUse" x1="54.2613" y1="162.4947" x2="83.6051" y2="162.4947">
					<stop  offset="0" style="stop-color:#DD21E8"/>
					<stop  offset="1" style="stop-color:#EE59FC"/>
				</linearGradient>
				<path class="st35" d="M56.7,151.1c0,0,5.9,8.3,12.7,18c4.8,1.5,9.5,3.1,14.2,4.7L74,155.7L56.7,151.1z"/>
				<path class="st36" d="M56.7,151.1c0,0,0.4,0.5,1,1.5c8,2.7,15.7,6.4,20.1,12.8c1.8,2.7,3.7,5.3,5.6,8L74,155.7L56.7,151.1z"/>
			</g>
			<path class="st37" d="M62.3,127c-0.2,1.4,2.8,5.7,3.6,7.6c0.9,2.2,3.2,5.4,2.8,7.8C69.2,138.3,66.3,129.1,62.3,127z"/>
		</g>
		<path class="st24" d="M169.5,188.1c-6.6-0.6-12.4-1.5-19.3-1.5h-0.8c-3.4-0.1-6.2,1.4-8.9,2.9c0.2,2.5,19,12.6,21.6,12.4
			c8.4-0.6,25.4-7.7,26.4-12.6C183.8,187.6,174.9,188.6,169.5,188.1z"/>
		<path class="st24" d="M281.3,137.6c-5.4,2.2-11.1,1.8-16.3,3.6l2.3-0.7c-3.6,0.3-7.6,1.6-7.4,5.5c12.7,3.2,27,0.2,35.2-10.4
			C290.4,132,285.9,135.7,281.3,137.6z"/>
		<g>
			<g>
				<g>
					<linearGradient id="SVGID_5_" gradientUnits="userSpaceOnUse" x1="134.6771" y1="178.9224" x2="158.3733" y2="178.9224">
						<stop  offset="0" style="stop-color:#FD86C3"/>
						<stop  offset="1" style="stop-color:#F75999"/>
					</linearGradient>
					<path class="st38" d="M134.7,162.9l10.1,28.6c4.5,0.9,8.8,2.3,13.2,3.5c0.1-0.1,0.2-0.3,0.4-0.4l-4-28.3L134.7,162.9z"/>
					<path class="st39" d="M149.2,173c-1.9-3.8-5.9-5.6-10.3-6.5c7.2,5.9,12.6,13,14.9,21.7c0.3,1.3,0.6,2.7,0.9,4
						c-0.3-1.7-0.7-3.4-1-5.1C152.8,182.3,151.4,177.4,149.2,173z"/>
					<path class="st39" d="M144.8,191.5c1.1,0.2,2.1,0.4,3.1,0.7c-1.9-6.5-4.9-12.5-9.2-17.7L144.8,191.5z"/>
					<path class="st40" d="M136.3,167.5l0.4,1.2c7.1,6.6,11.6,15.1,14.1,24.2c0.5,0.1,1,0.3,1.5,0.4
						C150.2,182.8,145,174.5,136.3,167.5z"/>
					<path class="st41" d="M134.7,162.9l0.3,0.8c5.2,0.5,10.3,1.6,13.9,4.7c4,3.4,5.3,9.6,6.4,14.3c1,4,1.6,8,2.1,12.1
						c0.2,0.1,0.4,0.1,0.6,0.2c0.1-0.1,0.2-0.3,0.4-0.4l-4-28.3L134.7,162.9z"/>
					<linearGradient id="SVGID_6_" gradientUnits="userSpaceOnUse" x1="132.1929" y1="155.2635" x2="164.465" y2="144.7776">
						<stop  offset="0" style="stop-color:#FCC5EB"/>
						<stop  offset="1" style="stop-color:#F45897"/>
					</linearGradient>
					<path class="st42" d="M143.2,133.9c-1.6,1.7-8.5,29-8.5,29l19.7,3.4l12.6-13.7l-19.5-19.4C147.5,133.2,144.8,132.1,143.2,133.9
						z"/>
					<path class="st43" d="M157.9,162.5l9.1-9.9l-16-15.9C153.8,145.1,155.2,154,157.9,162.5z"/>
					<path class="st44" d="M147.6,133.3l-0.1-0.1c0,0-2.7-1.1-4.3,0.7c-1.6,1.7-8.5,29-8.5,29l19.7,3.4l0.4-0.5
						c-1.4-5.7-6.8-21.3-7.9-24.9C146.4,139.2,146.4,134.8,147.6,133.3z"/>
					<linearGradient id="SVGID_7_" gradientUnits="userSpaceOnUse" x1="154.4009" y1="149.5762" x2="134.6771" y2="149.5762">
						<stop  offset="0" style="stop-color:#FCC5EB"/>
						<stop  offset="1" style="stop-color:#F45897"/>
					</linearGradient>
					<path class="st45" d="M146.5,132.9c-0.9-0.1-2.3-0.1-3.3,0.9c-1.6,1.7-8.5,29-8.5,29l19.7,3.4c0,0-4.1-11.3-6.1-16.7
						C146.7,145.2,143.5,137.9,146.5,132.9z"/>
					<path class="st46" d="M142.6,145.6c-0.8-1.7-1.4-3.4-1.9-5.2c-2.6,8.6-6.1,22.5-6.1,22.5l19.7,3.4c0,0,0-0.1-0.1-0.2
						C149.4,159.8,145,153,142.6,145.6z"/>
					<path class="st47" d="M154.4,166.3l4,28.3c2.8-3,5.8-5.9,8.9-8.8c-0.1-16.2-0.2-33.2-0.2-33.2L154.4,166.3z"/>
					<linearGradient id="SVGID_8_" gradientUnits="userSpaceOnUse" x1="154.4009" y1="173.5577" x2="167.1606" y2="173.5577">
						<stop  offset="0" style="stop-color:#E8217C"/>
						<stop  offset="1" style="stop-color:#FC59AB"/>
					</linearGradient>
					<path class="st48" d="M154.4,166.3l4,28.3c0.5-0.5,1-1.1,1.6-1.6c2.1-5.7,4.5-11.3,7.2-16.9c-0.1-12.6-0.2-23.5-0.2-23.5
						L154.4,166.3z"/>
					<path class="st49" d="M167,152.6l-12.6,13.7l3,21.1c-0.1-3.5-0.1-6.9-0.2-10.3c-0.2-8.1,4.3-15.7,9.8-22.6
						C167,153.2,167,152.6,167,152.6z"/>
					<path class="st50" d="M164,188.8c1-1,2.1-2,3.2-3c0-1.5,0-2.9,0-4.4C166.1,183.9,165,186.3,164,188.8z"/>
				</g>
				<path class="st37" d="M146.4,134.1c-2.2,4.1,1.1,14,4.1,17.4c-1.9-2-1.9-6-2.5-8.6C147.6,140.7,147.6,135.2,146.4,134.1z"/>
			</g>
			<g>
				<polygon class="st51" points="171.5,158.5 160.8,159.2 168.6,167.2 175.8,170.5 185.4,168.6 177.9,161.3 				"/>
				<polygon class="st52" points="177.3,162.4 177.9,161.3 171.5,158.5 160.8,159.2 168.6,167.2 175.8,170.5 185.4,168.6 181,166 
									"/>
				<path class="st53" d="M160.8,159.2l7.8,8l2.1,1c0.4-1.2,0.8-2.4,1.3-3.5c0.6-1.5,1.8-3.2,2.3-4.9l-2.8-1.2L160.8,159.2z"/>
				<polygon class="st54" points="171.7,160.6 176.4,162.8 177.9,161.3 171.5,158.5 				"/>
				<polygon class="st55" points="172.1,159.9 171.5,158.5 171.7,160.6 176.4,162.8 177.9,161.3 176.8,162 				"/>
				<polygon class="st56" points="171.7,160.1 166.3,160.7 169.6,165.8 175.7,168.2 180.8,166.2 176.9,162.3 				"/>
				<path class="st57" d="M171.7,160.1l-5.4,0.6l1.7,2.6c0.1,0,0.1,0,0.2,0c2.1-1.7,5.5-1.3,8.1-0.3c0.7,0.3,1.4,0.6,2.2,0.9
					l-1.5-1.5L171.7,160.1z"/>
				<polygon class="st58" points="160.8,159.2 165.9,169.1 169.6,165.8 166.3,160.7 				"/>
				<polygon class="st59" points="160.8,159.2 166,161 169.6,165.8 166.3,160.7 				"/>
				<polygon class="st60" points="175.7,168.2 175.6,172.9 185.4,168.6 180.8,166.2 				"/>
				<polygon class="st61" points="175.7,168.2 180.8,166.8 185.4,168.6 180.8,166.2 				"/>
				<polygon class="st62" points="169.6,165.8 166,168.8 175.8,172.5 175.7,168.2 				"/>
				<polygon class="st63" points="169.6,165.8 166,168.8 170,166.5 175.1,169 175.8,172.5 175.7,168.2 				"/>
				<polygon class="st64" points="152.9,190.1 155.2,194.5 166,168.8 160.8,159.2 				"/>
				<path class="st54" d="M154.4,192.9c1.1-2.7,2.1-5.5,3-8.3c2.2-7,1.8-13.8,2.2-20.9l-6.7,26.4L154.4,192.9z"/>
				<polygon class="st65" points="164.6,169.4 159.2,185 166,168.8 160.8,159.2 				"/>
				<polygon class="st66" points="155.2,194.5 165,198.3 175.8,172.5 166,168.8 				"/>
				<path class="st67" d="M163.5,174.7c3.6-1.5,7.7-1.7,11.8-1l0.5-1.2l-9.8-3.7L163.5,174.7z"/>
				<path class="st67" d="M162.3,177.6l-3.6,8.5c4.2-2.7,8.9-4.8,13.5-5l1.2-2.9c-1-0.3-1.9-0.5-2.9-0.6
					C168.1,177.4,165.1,177.2,162.3,177.6z"/>
				<path class="st67" d="M165,198.3l5.3-12.6c-5.2,1.5-10.3,5.1-14.6,9L165,198.3z"/>
				<path class="st67" d="M162.3,177.6l-1.4,3.4c3.7-1.7,7.8-2.5,12.1-1.9l0.4-1c-1-0.3-1.9-0.5-2.9-0.6
					C168.1,177.4,165.1,177.2,162.3,177.6z"/>
				<path class="st67" d="M160.3,196.5l4.6,1.8l4.6-10.9C165.9,190,163,193.1,160.3,196.5z"/>
				<polygon class="st64" points="155.2,194.5 165,198.3 175.8,172.5 164.5,197 				"/>
				<polygon class="st68" points="155.2,194.5 166.8,171.3 174.8,172.9 165,198.3 175.8,172.5 166,168.8 				"/>
				<polygon class="st69" points="165,198.3 170.2,195.8 185.4,168.6 175.8,172.5 				"/>
				<path class="st70" d="M166.9,193.6c1.3-1.9,2.5-3.8,3.7-5.8c2.5-4.2,7.7-10.7,11.7-13.8l3.1-5.5l-9.7,4L166.9,193.6z"/>
				<polygon class="st71" points="165.6,196.8 176.8,173.4 185.4,168.6 175.8,172.5 				"/>
				<polygon class="st72" points="152.9,190.1 154.4,195.1 158.2,200.8 155.2,194.5 				"/>
				<polygon class="st73" points="158.2,200.8 165.6,198.7 170.2,195.8 165,198.3 				"/>
				<polygon class="st74" points="158.2,200.8 165,198.3 155.2,194.5 				"/>
				<path class="st75" d="M163.2,197.6c-0.6,0.5-1.3,0.9-2,1.3c-1,0.5-1.9,1-2.9,1.6l-0.1,0.2l0,0.1l6.8-2.5L163.2,197.6
					C163.2,197.6,163.2,197.6,163.2,197.6z"/>
				<polygon class="st75" points="155.2,194.5 156.7,197.8 156.4,195.5 160.1,196.4 				"/>
				<polygon class="st57" points="169.9,165.5 166.3,160.7 169.6,165.8 175.7,168.2 180.8,166.2 175.7,167.8 				"/>
			</g>
		</g>
	</g>
	<g>
		<path class="st24" d="M177.8,117.3c-7.1-0.8-21.6,5.4-28.3,3.3c-1.1,0-2.6,5.3-3.7,5.3c-2.8,0.6-6.2,1.3-7.4,3.1
			c-0.9,1.5-1.8,3.1-3,4.3c-1.5,1.6-3.3,3-5.7,2.3c-3.2-0.9-5-4.6-8.5-5.7c-3.3-1.1-6.4-2.1-8.7-4.8c-0.1-0.1-0.1-0.1-0.1-0.2
			c-3.5-0.2-7.6,0.5-10.9-0.4c-3-0.4-5.9-1.2-8.7-2.8c-0.1,0-0.3,0.1-0.4,0.1c-0.4,0.1-1.3,0.4-1.3,0.4c-2.7,1.6,3.9,4.8,8.2,5.8
			c4.4,1,12,2.1,17.3,5c3.8,2.1,7.3,4.9,11,7.1c1.6,0.4,3.3,0.2,4.9,0.4c4.6-2.2,5.3-4.2,9.7-6.7c3.7-2.1,8.6-2,11.4,0
			c5,3.4,9.8,6.7,16.3,5.2c3.3-0.8,7-1.4,10.2-2.5c3.5-1.3,14.6-9.4,15.2-13.7C194.3,117.3,184.5,118,177.8,117.3z"/>
		<g>
			<polygon class="st76" points="204.5,82.3 189.4,107.9 190.4,119.8 207.9,106.9 205.1,83.1 			"/>
			<path class="st77" d="M204.5,86.3c-0.4,6.5-4.9,25.5-9.7,30.3l13-9.7l-1.1-9.2C206,98.4,205.4,85.6,204.5,86.3z"/>
			<polygon class="st78" points="190.4,119.8 195.6,119.5 222.4,102.4 207.9,106.9 			"/>
			<path class="st79" d="M190.4,119.8l0.4,0c3.7-2.9,8-5.1,11.8-7.9c4.1-3,8.4-3.5,12.9-5.2l6.9-4.4l-14.5,4.5L190.4,119.8z"/>
			<linearGradient id="SVGID_9_" gradientUnits="userSpaceOnUse" x1="207.8696" y1="88.847" x2="238.5381" y2="88.847">
				<stop  offset="0" style="stop-color:#FF5900"/>
				<stop  offset="1" style="stop-color:#FFA600"/>
			</linearGradient>
			<path class="st80" d="M229.8,70.8c0,0-3.8,19.2-8,23.4l-13.9,12.7c20-2.7,30.7-17.6,30.7-17.6S238.7,78.3,229.8,70.8z"/>
			<linearGradient id="SVGID_10_" gradientUnits="userSpaceOnUse" x1="233.1971" y1="97.8345" x2="218.5855" y2="88.7042">
				<stop  offset="0.2242" style="stop-color:#FF8871"/>
				<stop  offset="1" style="stop-color:#FCB5A4"/>
			</linearGradient>
			<path class="st81" d="M229.8,70.8c0,0-3.8,19.2-8,23.4l-13.9,12.7c20-2.7,30.7-17.6,30.7-17.6S238.7,78.3,229.8,70.8z"/>
			<linearGradient id="SVGID_11_" gradientUnits="userSpaceOnUse" x1="207.8696" y1="97.8663" x2="238.5378" y2="97.8663">
				<stop  offset="0" style="stop-color:#FF5900"/>
				<stop  offset="1" style="stop-color:#F95850"/>
			</linearGradient>
			<path class="st82" d="M224.8,88.9c-0.9,2.4-1.9,4.3-3,5.3l-13.9,12.7c20-2.7,30.7-17.6,30.7-17.6s0-0.1,0-0.3
				C234.5,89.7,229,90.2,224.8,88.9z"/>
			<linearGradient id="SVGID_12_" gradientUnits="userSpaceOnUse" x1="215.8788" y1="73.247" x2="221.3872" y2="104.4867">
				<stop  offset="0" style="stop-color:#FC9595"/>
				<stop  offset="1" style="stop-color:#F95850"/>
			</linearGradient>
			<path class="st83" d="M204.5,82.3c-0.1,11.7,3.4,24.5,3.4,24.5c3.6-2.3,13.9-12.7,13.9-12.7c8.2-9.6,8-23.4,8-23.4
				C220.4,72,204.5,82.3,204.5,82.3z"/>
			<linearGradient id="SVGID_13_" gradientUnits="userSpaceOnUse" x1="204.0502" y1="97.6857" x2="227.0747" y2="97.6857">
				<stop  offset="0" style="stop-color:#FFDD99"/>
				<stop  offset="1" style="stop-color:#F9A300"/>
			</linearGradient>
			<path class="st84" d="M204.7,88.5c0.8,9.6,3.2,18.4,3.2,18.4c3.6-2.3,13.9-12.7,13.9-12.7c1.2-1.4,2.2-2.8,3-4.3
				C217.9,89.9,211.2,90,204.7,88.5z"/>
			<linearGradient id="SVGID_14_" gradientUnits="userSpaceOnUse" x1="221.7982" y1="78.4623" x2="241.8628" y2="78.4623">
				<stop  offset="0" style="stop-color:#FFDD99"/>
				<stop  offset="1" style="stop-color:#F9A300"/>
			</linearGradient>
			<path class="st85" d="M221.8,73.1c2.7,3.4,4.6,8.5,4.9,13c0.2,0,0.2-1,0.3-0.9c2.8-7.4,2.7-14.3,2.7-14.3
				C227.4,71.1,224.6,72,221.8,73.1z"/>
			<path class="st86" d="M207.9,106.9c0.3-0.2,0.6-0.4,0.9-0.6c-4.3-21.5,2-25,12.6-32.9c-8.3,3.4-16.9,9-16.9,9
				C204.3,94,207.9,106.9,207.9,106.9z"/>
			<path class="st87" d="M226.5,88.4c3.3-5.9,3.2-16.5,3.2-16.5s-1.3,8.6-2.8,13.5c-1.5,4.9-12.4,15.9-12.4,15.9
				c6-3.6,9.7-11.2,11.5-11.2c5.1,0,11.4-1.2,11.4-1.2C232.8,89.6,226.5,88.4,226.5,88.4z"/>
			<path class="st88" d="M208.9,85.9c-0.8,2.2-1.1,5.1-1.5,8.3c4.3-0.6,13.8-2.3,16.1-4.3C219.2,90.7,213.1,87.5,208.9,85.9z"/>
			<linearGradient id="SVGID_15_" gradientUnits="userSpaceOnUse" x1="226.4973" y1="84.8718" x2="226.5038" y2="84.8718">
				<stop  offset="0" style="stop-color:#FFF2D9"/>
				<stop  offset="1" style="stop-color:#FEE8BF"/>
			</linearGradient>
			<path class="st89" d="M226.5,84.8C226.5,84.9,226.5,84.9,226.5,84.8C226.5,84.9,226.5,84.9,226.5,84.8z"/>
			<path class="st90" d="M219.7,75.7c2.4-0.7,4.5,0.7,5.1,2.6c0.2,0.7,1.6,5.7,1.7,6.5c0.3-3.6-1.1-8.6-3.7-11.1
				C221.5,74.2,220.4,74.5,219.7,75.7z"/>
			<path class="st91" d="M222.5,98.5c-1.6,1.6-2.8,3.7-6.5,5.4c3.5-0.6,7.5-2.6,10.6-4.3c4-2.1,1.8-6-0.3-8.8
				C225.9,94.6,224.8,96.2,222.5,98.5z"/>
		</g>
		<g>
			<g>
				<linearGradient id="SVGID_16_" gradientUnits="userSpaceOnUse" x1="164.1888" y1="93.5125" x2="182.3959" y2="105.7934">
					<stop  offset="0" style="stop-color:#053CCE"/>
					<stop  offset="1" style="stop-color:#129EFC"/>
				</linearGradient>
				<polygon class="st92" points="143.6,132.2 154.4,131.7 206.8,69.6 182.2,66.8 				"/>
				<path class="st93" d="M184.4,77.3c-5,4.9-9.4,10.6-13.1,16.5c-1.3,2-2.6,4.1-4,6.2c1.1-1.6,2.2-3.2,3.3-4.8
					c7.5-10.4,17.8-17.5,29.4-22.5C194.4,72.2,188.8,73.1,184.4,77.3z"/>
				<path class="st94" d="M163.3,121.2l32.3-38.2C181.6,92,170.8,105.9,163.3,121.2z"/>
				<path class="st95" d="M168.7,103.1c-5.9,9.2-10.8,18.9-15.4,28.7l1.1,0l2.1-2.5c8.5-22,23.7-42.5,44.7-52.9l1.1-1.4
					C188,80.9,177.2,89.8,168.7,103.1z"/>
				<path class="st93" d="M143.6,132.2l6-0.3c1.1-6.8,3.8-13.2,7.2-19.2c4.8-8.6,9.5-17.2,15.2-25.2c3.9-5.6,8.9-13,15.4-16
					c5.9-2.7,12.4-2.2,18.6-1l0.8-0.9l-24.6-2.8L143.6,132.2z"/>
				<linearGradient id="SVGID_17_" gradientUnits="userSpaceOnUse" x1="218.0736" y1="34.556" x2="181.1167" y2="65.5665">
					<stop  offset="0" style="stop-color:#6EBEFF"/>
					<stop  offset="1" style="stop-color:#0092FE"/>
				</linearGradient>
				<path class="st96" d="M208.8,27l-33.4,17.8l6.7,22.1l24.6,2.8c0,0,7.5-37.4,6.6-40.2C212.6,26.6,208.8,27,208.8,27z"/>
				<path class="st97" d="M180.3,60.7c7.8-9.9,14.5-20.7,22.5-30.5l-27.4,14.6L180.3,60.7z"/>
				<path class="st98" d="M208.8,27l-0.2,0.1c0.6,2.3-1.9,8-3.4,10c-3.3,4.2-18.3,22.2-23.2,29l0.2,0.8l24.6,2.8
					c0,0,7.5-37.4,6.6-40.2C212.6,26.6,208.8,27,208.8,27z"/>
				<linearGradient id="SVGID_18_" gradientUnits="userSpaceOnUse" x1="196.7473" y1="27.7064" x2="198.9661" y2="70.0447">
					<stop  offset="0.2242" style="stop-color:#009CFF"/>
					<stop  offset="1" style="stop-color:#0258B5"/>
				</linearGradient>
				<path class="st99" d="M210.1,27c0.7,7.5-7.2,15.7-11.5,20.7c-5.3,6.1-16.4,19.2-16.4,19.2l24.6,2.8c0,0,7.5-37.4,6.6-40.2
					C212.9,27.7,211.3,27.2,210.1,27z"/>
				<path class="st100" d="M207.9,35.5c-2.5,3.9-6.6,9.1-9.3,12.2c-5.3,6.1-16.4,19.2-16.4,19.2l24.6,2.8l-20-4.9
					c0,0,8.6-10.6,14.6-18.5C207.3,38.3,207.9,35.5,207.9,35.5z"/>
				<linearGradient id="SVGID_19_" gradientUnits="userSpaceOnUse" x1="185.8163" y1="52.2574" x2="133.1989" y2="124.679">
					<stop  offset="0" style="stop-color:#009CFF"/>
					<stop  offset="1" style="stop-color:#129EFC"/>
				</linearGradient>
				<path class="st101" d="M139.7,124l3.8,8.2l38.6-65.4l-6.7-22.1C175.4,44.7,140.7,122.2,139.7,124z"/>
				<path class="st100" d="M162,74.7c0,9.8-0.5,19.6-1.8,29.3l22-37.2l-6.7-22.1C175.4,44.7,169.2,58.6,162,74.7z"/>
				<path class="st102" d="M174.4,47.1c2.4,10.8,3.3,22.2-1.5,32.5c-2,4.3-4,8.7-6,13.2l15.3-26l-6.7-22.1
					C175.4,44.7,175.1,45.6,174.4,47.1z"/>
				<path class="st103" d="M180.9,66.8c-2,4.3-12,21.5-14.1,26l15.3-26l-6.7-22.1L180.9,66.8z"/>
				<path class="st104" d="M143.6,132.2l0.3-0.5c3.3-10.6,6.2-21.2,7-32.2c-6,13.3-10.8,23.9-11.1,24.5L143.6,132.2z"/>
				<path class="st105" d="M155.2,107.8c-0.4,2.6-1,5.2-1.7,7.7l2.6-4.4c0-0.2,0.1-0.4,0.1-0.6c1.8-9.6,2.6-19.3,2.8-29
					c-1.5,3.4-3.1,6.8-4.6,10.2C154.5,97.1,156,102.4,155.2,107.8z"/>
			</g>
			<path class="st106" d="M188.6,40c2.1,1.3,8.7-4.8,11.4-4.6c0.9,3.7-8,19.6-11,22.3c4.4-3.6,9.9-11.3,13.4-15.5
				c2.7-3.3,7-8,5.6-12.9C201.3,30.3,194,36.5,188.6,40z"/>
			<path class="st103" d="M205.1,30c-0.5,5.9-3.6,11.2-6.8,16.1c-1,1.5-1.9,3.1-2.8,4.6c2.6-3.1,5-6.4,6.9-8.7c2.7-3.3,7-8,5.6-12.9
				C207.1,29.4,206.1,29.7,205.1,30z"/>
		</g>
		<g>
			<polygon class="st107" points="130.4,25.6 122,29 129.7,34.3 141.7,35.3 149.4,30.9 142.4,26.6 			"/>
			<path class="st108" d="M130.4,25.6L122,29l7.6,5.3c0.5-1.2,1-2.4,1.2-3.6c0,0,0,0,0-0.1c0-0.1,0-0.1,0-0.1c0.3-1.7,0-3.3,0.4-4.8
				L130.4,25.6z"/>
			<path class="st109" d="M141.8,26.6c-0.1,1.6-0.2,3.2-0.8,4.8c0,0.1,0.1,0.2,0.1,0.3c0.1,1.2,0.6,2.4,0.8,3.6l7.6-4.3l-7-4.3
				L141.8,26.6z"/>
			<polygon class="st57" points="129.7,33.6 122,29 129.7,34.3 141.7,35.3 149.4,30.9 141.7,34.7 			"/>
			<polygon class="st110" points="131,25.6 125.3,28.1 130.5,31.5 141.4,32.5 147.2,30 142,26.6 			"/>
			<path class="st111" d="M141.6,26.6c-0.4,1.8-2.5,3.5-4.1,4.1c-1.4,0.5-2.9,0.9-4.5,1.1l8.4,0.7l5.7-2.5l-5.2-3.4L141.6,26.6z"/>
			<polygon class="st112" points="116.9,36 125.2,41.4 129.7,34.3 122,29 			"/>
			<polygon class="st113" points="141.7,35.3 144.3,43.4 153.8,38.3 149.4,30.9 			"/>
			<polygon class="st114" points="129.7,34.3 125.2,41.4 144.3,43.4 141.7,35.3 			"/>
			<polygon class="st57" points="125.2,41.4 130.2,34.3 129.3,33.9 			"/>
			<polygon class="st57" points="141,35.1 144.3,43.4 142,34.9 			"/>
			<polygon class="st115" points="114.2,90 120.5,94.6 125.2,41.4 116.9,36 			"/>
			<path class="st116" d="M115.8,58.3c0.1,0.4,0.2,0.7,0.3,1.1c1.8,5.8,4.2,11.6,5.5,17.6c0.1,0.4,0.2,0.9,0.3,1.3l3.3-36.9
				l-8.3-5.4L115.8,58.3z"/>
			<polygon class="st117" points="123.1,43.2 122.2,74.8 125.2,41.4 116.9,36 			"/>
			<polygon class="st118" points="120.5,94.6 139.6,96.7 144.3,43.4 125.2,41.4 			"/>
			<path class="st119" d="M124.1,53.6c5.5-4.5,12.6-7.1,20-7.8l0.2-2.5l-19.1-2L124.1,53.6z"/>
			<path class="st120" d="M123.6,59.6L122,77.1c5.8-7.2,12.9-13.4,20.7-16.1l0.5-5.9c-1.8,0-3.6,0.1-5.5,0.4
				C133.6,56.2,128.3,57.5,123.6,59.6z"/>
			<path class="st119" d="M121.4,94.7l18.2,2l2.3-26.1C133.6,75.9,126.7,85.2,121.4,94.7z"/>
			<path class="st119" d="M123.6,59.6l-0.6,7c5.4-5.1,12.3-8.5,20.1-9.6l0.2-2c-1.8,0-3.6,0.1-5.5,0.4
				C133.6,56.2,128.3,57.5,123.6,59.6z"/>
			<path class="st121" d="M139.6,96.7l2-22.5c-4.9,6.6-8.2,13.9-11,21.5L139.6,96.7z"/>
			<polygon class="st115" points="120.5,94.6 139.6,96.7 144.3,43.4 138,94.5 			"/>
			<polygon class="st122" points="120.5,94.6 127.9,45.7 142.8,44.6 139.6,96.7 144.3,43.4 125.2,41.4 			"/>
			<polygon class="st123" points="139.6,96.7 146.8,92.6 153.8,38.3 144.3,43.4 			"/>
			<path class="st124" d="M140.4,87c1.2-4.2,2.3-8.3,3.3-12.6c2.1-9,3.4-18.7,8.8-26.4l1.2-9.7l-9.5,5L140.4,87z"/>
			<polygon class="st125" points="139.8,93.6 146.5,44.6 153.8,38.3 144.3,43.4 			"/>
			<polygon class="st126" points="114.2,90 117.8,95.6 129.1,104.8 120.5,94.6 			"/>
			<path class="st127" d="M114.2,90l1.7,2.7c0.1,0,0.2,0.1,0.2,0.1c3.2,1.7,6.2,4.7,8.1,8.1l4.8,3.9l-8.6-10.2L114.2,90z"/>
			<polygon class="st128" points="129.1,104.8 142.2,97.9 146.8,92.6 139.6,96.7 			"/>
			<path class="st129" d="M129.1,104.8l7.6-4.1c2.5-2.2,5.2-4.2,8.1-5.9l2-2.3l-7.2,4.1L129.1,104.8z"/>
			<polygon class="st130" points="129.1,104.8 139.6,96.7 120.5,94.6 			"/>
			<path class="st131" d="M136.1,96.4c-0.7,1.3-1.8,2.4-2.8,3.5c-1.4,1.5-2.8,2.9-4.2,4.4l-0.1,0.5l0.1,0.1l10.5-8.2L136.1,96.4
				C136.2,96.3,136.2,96.4,136.1,96.4z"/>
			<polygon class="st131" points="120.5,94.6 125,100 123.1,95.8 130,95.6 			"/>
		</g>
		<g>
			<polygon class="st51" points="65.8,72.8 57.8,87.4 75.7,84.3 86.5,77.8 91.8,63.5 75.2,66.8 			"/>
			<polygon class="st52" points="76.2,68.6 75.2,66.8 65.8,72.8 57.8,87.4 75.7,84.3 86.5,77.8 91.8,63.5 84.4,67.1 			"/>
			<path class="st53" d="M69.9,70.1l-4.1,2.7l-8,14.6l17.9-3.1l3.2-1.9c-1.4-1.6-2.7-3.2-3.9-4.9C73.4,75.3,71.9,72.2,69.9,70.1z"/>
			<polygon class="st54" points="65.8,72.8 69,74.3 76,70.1 75.2,66.8 			"/>
			<polygon class="st55" points="75.2,69 68.3,73.1 65.8,72.8 69,74.3 76,70.1 75.2,66.8 			"/>
			<polygon class="st56" points="68.2,73.9 64.6,81.5 74.7,81.7 83.2,75.9 84.6,67.5 75.8,69.1 			"/>
			<path class="st57" d="M68.2,73.9l-3.6,7.6l5.1,0.1c0-0.1,0.1-0.1,0.1-0.2c-0.7-4.3,2.8-8.3,6.3-10.9c0.9-0.7,2-1.4,3.2-2.1
				l-3.5,0.6L68.2,73.9z"/>
			<polygon class="st58" points="64.6,81.5 57.8,87.4 76.2,89.6 74.7,81.7 			"/>
			<polygon class="st59" points="57.8,87.4 64.8,82.2 74.7,81.7 64.6,81.5 			"/>
			<polygon class="st60" points="83.2,75.9 89.8,80.2 91.8,63.5 84.6,67.5 			"/>
			<polygon class="st61" points="83.2,75.9 85.4,68 91.8,63.5 84.6,67.5 			"/>
			<polygon class="st62" points="74.7,81.7 75.9,89.2 89.4,79.7 83.1,75.9 			"/>
			<polygon class="st63" points="74.7,81.7 75.9,89.2 75.9,81.8 83.7,77.4 89.4,79.7 83.1,75.9 			"/>
			<polygon class="st64" points="57.8,87.4 95,125.2 103.3,126.2 75.9,89.1 			"/>
			<path class="st54" d="M63.2,92.9L95,125.2l5.2,0.7c-2.9-3.9-6-7.7-9.2-11.4C83,105.3,72.9,99.8,63.2,92.9z"/>
			<polygon class="st65" points="57.8,87.4 75.6,91.5 93.1,112.4 75.9,89.1 			"/>
			<polygon class="st66" points="75.9,89.1 103.3,126.2 116.8,116.8 89.4,79.7 			"/>
			<path class="st67" d="M75.9,89.1l6.3,8.5c1-6,4.1-11.6,8.5-16.2l-1.3-1.7L75.9,89.1z"/>
			<path class="st67" d="M95.4,87.8c-1.2,1-2.3,2.1-3.3,3.3c-2.3,2.9-5,6.6-6.8,10.7l9,12.2c-0.4-7.9,0.7-15.9,4.2-22.1L95.4,87.8z"
				/>
			<path class="st67" d="M103.9,125.8l12.9-8.9l-13.4-18.2C101,106.8,101.9,116.7,103.9,125.8z"/>
			<path class="st67" d="M92.1,91.2c-2.3,2.9-5,6.6-6.8,10.7l3.6,4.9c0.6-6.3,3.1-12.4,7.5-17.5l-1-1.4
				C94.2,88.9,93.1,89.9,92.1,91.2z"/>
			<path class="st67" d="M110.4,121.3l6.4-4.4l-11.6-15.7C105.8,108.1,107.9,114.8,110.4,121.3z"/>
			<polygon class="st64" points="114.6,116.3 103.3,126.2 116.8,116.8 89.4,79.7 			"/>
			<polygon class="st68" points="75.9,89.1 103.3,126.2 80.1,90.4 89.1,81.3 116.8,116.8 89.4,79.7 			"/>
			<polygon class="st69" points="89.4,79.7 116.8,116.8 117.7,107.8 91.8,63.5 			"/>
			<path class="st70" d="M97.1,72.5l-5.2-8.9l-2.5,16.2l22.4,30.4c-1.6-3.3-3.3-6.7-5.1-10C102.9,93.1,97.9,80.5,97.1,72.5z"/>
			<polygon class="st71" points="91.8,63.5 89.4,79.7 115.2,114.7 91.5,79.2 			"/>
			<polygon class="st72" points="95,125.2 103.4,127.7 114.7,128 103.3,126.2 			"/>
			<polygon class="st73" points="116.8,116.8 114.7,128 118,116.4 117.7,107.8 			"/>
			<polygon class="st74" points="114.7,128 116.8,116.8 103.3,126.2 			"/>
			<path class="st75" d="M114.4,118.6c0.3,1.3,0.2,2.6,0.2,3.8c-0.1,1.7-0.2,3.5-0.2,5.2l0.2,0.4l0.1,0l2.1-11.2L114.4,118.6
				C114.4,118.5,114.4,118.5,114.4,118.6z"/>
			<polygon class="st75" points="103.3,126.2 109.2,127.2 105.6,125.6 110,121.5 			"/>
			<polygon class="st57" points="74.5,81.2 64.6,81.5 74.7,81.7 83.2,75.9 84.6,67.5 82.6,75.6 			"/>
		</g>
		<g>
			<g>
				<linearGradient id="SVGID_20_" gradientUnits="userSpaceOnUse" x1="125.5656" y1="116.972" x2="146.2957" y2="116.972">
					<stop  offset="0" style="stop-color:#FD86C3"/>
					<stop  offset="1" style="stop-color:#F75999"/>
				</linearGradient>
				<path class="st132" d="M125.6,128.5c3.7,2.8,7,6.1,10.4,9.1c0.2-0.1,0.3-0.1,0.5-0.2l9.8-29.2L130,96.3L125.6,128.5z"/>
				<path class="st39" d="M132.1,101.6c3.7,8.9,5.3,18.1,3.2,27.6c-0.3,1.4-0.7,2.9-1.1,4.3c0.5-1.8,1-3.6,1.5-5.4
					c1.5-5.1,2.6-10.4,2.7-15.7C138.4,107.9,135.7,104.4,132.1,101.6z"/>
				<path class="st39" d="M125.6,128.5c0.9,0.7,1.7,1.3,2.5,2c1.3-7.1,1.5-14.3,0.1-21.2L125.6,128.5z"/>
				<path class="st40" d="M129.1,102.8c3.3,9.5,3.4,19.7,1.3,29.7c0.4,0.4,0.8,0.7,1.2,1.1c3.1-11.2,2.3-21.5-2.3-32.1L129.1,102.8z
					"/>
				<path class="st41" d="M129.8,97.2c4.5,2.7,8.6,6,10.4,10.6c2,5,0.2,11.7-1,16.7c-1,4.3-2.4,8.5-3.8,12.6
					c0.2,0.2,0.3,0.3,0.5,0.5c0.2-0.1,0.3-0.1,0.5-0.2l9.8-29.2L130,96.3L129.8,97.2z"/>
				<linearGradient id="SVGID_21_" gradientUnits="userSpaceOnUse" x1="129.916" y1="96.2134" x2="160.0926" y2="86.4084">
					<stop  offset="0" style="stop-color:#FCC5EB"/>
					<stop  offset="1" style="stop-color:#F45897"/>
				</linearGradient>
				<path class="st133" d="M151.5,71.9c-2.3,1-21.5,24.5-21.5,24.5l16.3,11.9l18-7.8l-8.5-27.3C155.8,73.1,153.8,70.9,151.5,71.9z"
					/>
				<path class="st43" d="M151.3,106.1l13-5.6l-7-22.4C155.8,87.5,152.9,96.7,151.3,106.1z"/>
				<path class="st44" d="M151.5,71.9c-2.3,1-21.5,24.5-21.5,24.5l16.3,11.9l0.6-0.3c1.4-6.2,3.9-23.7,4.6-27.6
					c0.3-1.9,2.4-6.2,4.3-7l-0.1-0.2C155.8,73.1,153.8,70.9,151.5,71.9z"/>
				<linearGradient id="SVGID_22_" gradientUnits="userSpaceOnUse" x1="154.9597" y1="89.9269" x2="129.9508" y2="89.9269">
					<stop  offset="0" style="stop-color:#FCC5EB"/>
					<stop  offset="1" style="stop-color:#F45897"/>
				</linearGradient>
				<path class="st134" d="M151.5,71.9c-2.3,1-21.5,24.5-21.5,24.5l16.3,11.9c0,0,1.7-12.8,2.4-18.9c0.6-5,1.1-13.5,6.3-17
					C154.2,71.9,152.9,71.3,151.5,71.9z"/>
				<path class="st46" d="M145.4,83c0.1-2,0.4-3.9,0.8-5.8c-6.5,7.2-16.3,19.2-16.3,19.2l16.3,11.9c0,0,0-0.1,0-0.2
					C144.8,99.8,144.1,91.2,145.4,83z"/>
				<path class="st47" d="M136.5,137.4c4-1.7,8.1-3.2,12.2-4.6c7.6-15.8,15.6-32.4,15.6-32.4l-18,7.8L136.5,137.4z"/>
				<linearGradient id="SVGID_23_" gradientUnits="userSpaceOnUse" x1="136.4512" y1="118.9299" x2="164.2954" y2="118.9299">
					<stop  offset="0" style="stop-color:#E8217C"/>
					<stop  offset="1" style="stop-color:#FC59AB"/>
				</linearGradient>
				<path class="st135" d="M136.5,137.4c0.7-0.3,1.5-0.6,2.2-0.9c4.6-4.6,9.5-9,14.6-13.2c5.9-12.3,11-22.9,11-22.9l-18,7.8
					L136.5,137.4z"/>
				<path class="st49" d="M138.9,130c1.6-3.4,3.2-6.8,4.8-10.1c3.7-8,11.4-13.3,19.7-17.7c0.6-1.2,0.9-1.8,0.9-1.8l-18,7.8
					L138.9,130z"/>
				<path class="st50" d="M148.7,132.8c0.7-1.4,1.4-2.9,2.1-4.3c-2.2,1.9-4.3,3.8-6.4,5.8C145.8,133.8,147.2,133.3,148.7,132.8z"/>
			</g>
			<path class="st37" d="M149.9,92.1c-0.8-2.7,1.1-6.7,1.8-9.4c0.6-2.3,3.2-7.7,2.7-9.3C150.4,76.5,148.8,87.5,149.9,92.1z"/>
		</g>
		<g>
			<g>
				<linearGradient id="SVGID_24_" gradientUnits="userSpaceOnUse" x1="152.9993" y1="120.5629" x2="178.314" y2="120.5629">
					<stop  offset="0" style="stop-color:#F286FD"/>
					<stop  offset="1" style="stop-color:#F459F7"/>
				</linearGradient>
				<path class="st136" d="M153.3,130.7c3.5,2.7,7.2,5.2,11,7.5c0.1,0,0.2,0,0.2,0l13.8-19.2l-12.1-16.1L153.3,130.7z"/>
				<path class="st26" d="M161.6,135.8c-0.1,0.2-0.2,0.3-0.3,0.5c0,0,0.1,0,0.1,0.1c0.3-0.5,0.6-1,0.9-1.4c2.9-4.4,5.5-9.2,7.1-14.2
					c1.4-4.3-0.2-8.5-2.9-12.2C167.6,118.1,166.4,127.4,161.6,135.8z"/>
				<path class="st26" d="M155.6,132.5c2.6-5.6,4.4-11.6,5-17.7l-7.4,16C154.1,131.3,154.9,131.9,155.6,132.5z"/>
				<path class="st27" d="M163.4,108.8c0.3,8.7-1.9,17.2-5.7,25.1c0.4,0.3,0.9,0.6,1.3,0.9c4.4-8.5,6-17.4,4.9-27.2L163.4,108.8z"/>
				<path class="st28" d="M165.8,103.7c3.5,3.9,6.5,8.3,6.8,13.2c0.4,5.4-3.2,11.2-5.8,15.7c-1,1.8-2.2,3.5-3.3,5.2
					c0.3,0.2,0.5,0.3,0.8,0.5c0.1,0,0.2,0,0.2,0l13.8-19.2l-12.1-16.1L165.8,103.7z"/>
				<linearGradient id="SVGID_25_" gradientUnits="userSpaceOnUse" x1="168.5161" y1="110.0807" x2="201.3639" y2="99.4078">
					<stop  offset="0" style="stop-color:#F1C5FC"/>
					<stop  offset="1" style="stop-color:#F158F4"/>
				</linearGradient>
				<path class="st137" d="M194,85.7c-2.5,0.3-27.8,17.2-27.8,17.2l12.1,16.1l19.5-2.3l-0.1-28.6C197.7,88.1,196.5,85.4,194,85.7z"
					/>
				<path class="st30" d="M183.7,118.4l14.1-1.6l-0.1-23.5C193.5,101.8,188,109.8,183.7,118.4z"/>
				<path class="st31" d="M194,85.7c-2.5,0.3-27.8,17.2-27.8,17.2l12.1,16.1l0.7-0.1c3.1-5.5,10.7-21.5,12.5-25.1
					c0.9-1.7,4.1-5.2,6.1-5.5v-0.2C197.7,88.1,196.5,85.4,194,85.7z"/>
				<linearGradient id="SVGID_26_" gradientUnits="userSpaceOnUse" x1="197.1192" y1="102.3244" x2="166.1743" y2="102.3244">
					<stop  offset="0" style="stop-color:#F1C5FC"/>
					<stop  offset="1" style="stop-color:#F158F4"/>
				</linearGradient>
				<path class="st138" d="M194,85.7c-2.5,0.3-27.8,17.2-27.8,17.2l12.1,16.1c0,0,5.4-11.8,7.8-17.4c2-4.6,5-12.6,11-14.4
					C196.5,86.4,195.5,85.5,194,85.7z"/>
				<path class="st33" d="M178.3,119c0,0,0-0.1,0.1-0.2c1-8.4,2.8-16.8,6.5-24.2c0.7-1.9,1.5-3.7,2.4-5.4
					c-8.3,5-21.2,13.6-21.2,13.6L178.3,119z"/>
				<path class="st34" d="M164.5,138.2c5.4-1.1,10.8-2.1,16.2-3c9.2-10,17.1-18.5,17.1-18.5l-19.5,2.3L164.5,138.2z"/>
				<linearGradient id="SVGID_27_" gradientUnits="userSpaceOnUse" x1="161.5348" y1="127.4613" x2="197.8208" y2="127.4613">
					<stop  offset="0" style="stop-color:#DD21E8"/>
					<stop  offset="1" style="stop-color:#EE59FC"/>
				</linearGradient>
				<path class="st139" d="M164.5,138.2c5.4-1.1,10.8-2.1,16.2-3c9.2-10,17.1-18.5,17.1-18.5l-19.5,2.3L164.5,138.2z"/>
				<path class="st36" d="M164.9,137.7c2.5-2.8,5.1-5.5,7.5-8.3c5.9-6.5,14.8-9.5,24-11.2c0.9-1,1.4-1.5,1.4-1.5l-19.5,2.3
					L164.9,137.7z"/>
			</g>
			<path class="st37" d="M186.5,104.6c0.1-2.8,3.1-6.1,4.5-8.5c1.2-2,5.3-6.4,5.3-8.1C191.6,89.8,186.8,99.9,186.5,104.6z"/>
		</g>
		<g>
			<linearGradient id="SVGID_28_" gradientUnits="userSpaceOnUse" x1="55.8146" y1="108.316" x2="126.2727" y2="108.316">
				<stop  offset="0" style="stop-color:#FF6D00"/>
				<stop  offset="1" style="stop-color:#FC8112"/>
			</linearGradient>
			<path class="st140" d="M94.2,85.1l-7.3-2.8l28,46.6c0,0,8.1,5.2,11.4,5.5l-14-46L94.2,85.1z"/>
			<path class="st141" d="M98.6,85.9C98.6,85.9,98.6,85.9,98.6,85.9c1,3.3,2.2,4.9,5.3,6.3c1.3,0.6,2.8,1.2,3.8,2.2
				c3.5,3.2,5.3,8.4,7.2,12.6c2.4,5.4,4.5,11,6.7,16.5c1.4,3.5,2.8,7,3.7,10.7c0.3,0.1,0.6,0.1,0.9,0.2l-14-46L98.6,85.9z"/>
			<linearGradient id="SVGID_29_" gradientUnits="userSpaceOnUse" x1="86.8741" y1="106.8412" x2="119.1576" y2="106.8412">
				<stop  offset="0.2061" style="stop-color:#FCB300"/>
				<stop  offset="1" style="stop-color:#F9BF00"/>
			</linearGradient>
			<path class="st142" d="M99.6,86.1l-5.4-1l-7.3-2.8l28,46.6c0,0,1.9,1.2,4.3,2.5c-1.2-2.9-2.4-5.9-3.6-8.8
				C110.2,110.4,104.5,98.5,99.6,86.1z"/>
			<linearGradient id="SVGID_30_" gradientUnits="userSpaceOnUse" x1="1.4369" y1="108.3634" x2="167.062" y2="108.3634">
				<stop  offset="0" style="stop-color:#FFE999"/>
				<stop  offset="1" style="stop-color:#F9BF00"/>
			</linearGradient>
			<path class="st143" d="M99.6,86.1l-4.2-0.8c2.2,4.1,4.4,8.3,6.4,12.5c3.2,4.4,5,9.7,7.6,14.6c3.1,6,5.7,12.2,8.5,18.3
				c0.4,0.2,0.8,0.5,1.2,0.7c-1.2-2.9-2.4-5.9-3.6-8.8C110.2,110.4,104.5,98.5,99.6,86.1z"/>
			<linearGradient id="SVGID_31_" gradientUnits="userSpaceOnUse" x1="94.2838" y1="99.5326" x2="134.0005" y2="99.5326">
				<stop  offset="0" style="stop-color:#F04800"/>
				<stop  offset="1" style="stop-color:#ED5A0E"/>
			</linearGradient>
			<path class="st144" d="M111.8,88l14.5,46.4l5.4-4.6l2.2-6.2c0.9-9.6-6.7-58.9-6.7-58.9L111.8,88z"/>
			<path class="st145" d="M116.3,88c0.4-3.3,1.5-6.6,2-9.9l-6.5,9.8l14.5,46.4l1.9-1.6c-3.9-9.8-6.6-20-9.2-30.2
				C117.7,98.1,115.7,92.8,116.3,88z"/>
			<path class="st145" d="M121,74.2c1.7,10.3,3,20.7,5.1,30.9c1.8,8.4,3.8,16.7,5.2,25.1l0.5-0.4l2.2-6.2c0.9-9.6-6.7-58.9-6.7-58.9
				L121,74.2z"/>
			<path class="st146" d="M125.1,80.5c0.3-4.1,1.5-8,2.7-12c-0.4-2.4-0.6-3.9-0.6-3.9l-6.3,9.5c1.7,10.3,3,20.7,5.1,30.9
				c1.8,8.4,3.8,16.7,5.2,25.1l0.5-0.4l1.4-4C128.3,109.6,124.8,85.7,125.1,80.5z"/>
			<linearGradient id="SVGID_32_" gradientUnits="userSpaceOnUse" x1="128.0765" y1="94.0627" x2="133.4693" y2="94.0627">
				<stop  offset="0" style="stop-color:#FF5000"/>
				<stop  offset="1" style="stop-color:#FC6612"/>
			</linearGradient>
			<path class="st147" d="M128.1,82.9c0.4,6.1,2.1,12.2,3.2,18.2c0.7,3.8,1.4,7.6,2.1,11.3c-1-10.9-3.1-26.5-4.6-36.9
				C128.3,78,127.9,80.5,128.1,82.9z"/>
			<linearGradient id="SVGID_33_" gradientUnits="userSpaceOnUse" x1="86.2669" y1="73.7581" x2="127.3524" y2="73.7581">
				<stop  offset="0" style="stop-color:#FF6000"/>
				<stop  offset="1" style="stop-color:#FC8112"/>
			</linearGradient>
			<path class="st148" d="M100.9,58.7c-3.6,1.6-14.4,14.7-14.7,22.9c4.5,5.6,19.8,10.4,26.5,6.5c3.4-1.9,15.9-19.3,14.5-23.4
				C125.1,58.6,104.9,56.9,100.9,58.7z"/>
			<linearGradient id="SVGID_34_" gradientUnits="userSpaceOnUse" x1="96.782" y1="75.0311" x2="127.3527" y2="75.0311">
				<stop  offset="0" style="stop-color:#FF5000"/>
				<stop  offset="1" style="stop-color:#FC6612"/>
			</linearGradient>
			<path class="st149" d="M124.2,61.6c-1.7,0.4-3.4,0.6-5.1,0.6c0.6,0.7,1.1,1.4,1.5,2.2c3.7,7.7-2.6,15.8-10.3,17.5
				c0.7,1.5,0.9,3.2,1.3,4.8c0.2,0.6,0.3,1.1,0.5,1.6c0.3-0.1,0.5-0.2,0.7-0.4c3.4-1.9,15.9-19.3,14.5-23.4
				C126.8,63.5,125.7,62.5,124.2,61.6z"/>
			<linearGradient id="SVGID_35_" gradientUnits="userSpaceOnUse" x1="102.8699" y1="58.9325" x2="92.5517" y2="84.471">
				<stop  offset="0.2061" style="stop-color:#FCB300"/>
				<stop  offset="1" style="stop-color:#F9BF00"/>
			</linearGradient>
			<path class="st150" d="M101.7,58.4c-0.3,0.1-0.5,0.2-0.7,0.2c-3.6,1.6-14.4,14.7-14.7,22.9c0.1,0.2,0.3,0.4,0.5,0.5
				c3.2-3.2,7.1-5.8,11.2-7.7c2.9-1.3,7.8-3,9.4-6C109.4,64.6,104.6,60.5,101.7,58.4z"/>
			<linearGradient id="SVGID_36_" gradientUnits="userSpaceOnUse" x1="86.2669" y1="70.0875" x2="102.2795" y2="70.0875">
				<stop  offset="0" style="stop-color:#FFE999"/>
				<stop  offset="1" style="stop-color:#F9BF00"/>
			</linearGradient>
			<path class="st151" d="M100.9,58.7c-3.6,1.6-14.4,14.7-14.7,22.9c0,0,0.1,0.1,0.1,0.1c0.1,0,0.1-0.1,0.2-0.1
				c0.3-0.2,0.5-0.4,0.8-0.6c1-0.7,2-1.4,3-2.1c2.3-1.8,4.9-3.3,7.6-4.6c0,0,0.1,0,0.1-0.1c-0.1-5.4,1.2-10.8,4.2-15.4
				c-0.2-0.2-0.4-0.3-0.6-0.4C101.4,58.5,101.1,58.6,100.9,58.7z"/>
			<linearGradient id="SVGID_37_" gradientUnits="userSpaceOnUse" x1="105.2996" y1="93.1159" x2="93.9433" y2="76.2795">
				<stop  offset="0" style="stop-color:#FF6000"/>
				<stop  offset="1" style="stop-color:#FFC300"/>
			</linearGradient>
			<path class="st152" d="M86.7,81.1c-0.3,0.3-0.5,0.4-0.5,0.4c4.5,5.6,19.8,10.4,26.5,6.5c-0.1-0.4-0.2-0.7-0.3-1
				C103.6,89.1,94.4,86.1,86.7,81.1z"/>
			<linearGradient id="SVGID_38_" gradientUnits="userSpaceOnUse" x1="86.2669" y1="77.8721" x2="131.0357" y2="77.8721">
				<stop  offset="0" style="stop-color:#F54D00"/>
				<stop  offset="1" style="stop-color:#F26210"/>
			</linearGradient>
			<path class="st153" d="M86.3,81.6C86.3,81.6,86.3,81.6,86.3,81.6c1.3-1,2.7-1.8,4.1-2.7c1.1-0.8,10.1-5.7,13-5.6
				c6.1,0.3,6.4,8.7,8.9,15c0.2-0.1,0.3-0.2,0.5-0.3c-3.2-10.4-3.9-14.3-4.9-20.7C97.2,72.2,86.3,81.4,86.3,81.6z"/>
			<linearGradient id="SVGID_39_" gradientUnits="userSpaceOnUse" x1="77.2068" y1="62.7213" x2="126.8876" y2="62.7213">
				<stop  offset="0" style="stop-color:#FF6000"/>
				<stop  offset="1" style="stop-color:#FFC300"/>
			</linearGradient>
			<path class="st154" d="M100.9,58.7c-0.1,0.1,4.8,4.3,7,8.7c5.9-2.2,11.9-2.8,19-3.5C123.4,58.5,104.7,57,100.9,58.7z"/>
			<linearGradient id="SVGID_40_" gradientUnits="userSpaceOnUse" x1="117.3399" y1="56.5757" x2="108.927" y2="68.1551">
				<stop  offset="0" style="stop-color:#FF6E00"/>
				<stop  offset="1" style="stop-color:#F3A100"/>
			</linearGradient>
			<path class="st155" d="M125.3,62.4c-8.9,3.5-19.7,4.9-20.4-4.3c-1.8,0.1-3.2,0.3-4,0.6c-0.1,0.1,4.8,4.3,7,8.7
				c5.9-2.2,11.9-2.8,19-3.5C126.5,63.4,126,62.9,125.3,62.4z"/>
			<linearGradient id="SVGID_41_" gradientUnits="userSpaceOnUse" x1="100.6625" y1="59.8071" x2="112.7684" y2="62.602">
				<stop  offset="0" style="stop-color:#FF8C00"/>
				<stop  offset="1" style="stop-color:#FFC300"/>
			</linearGradient>
			<path class="st156" d="M100.9,58.7c-0.1,0.1,3.5,3.1,5.8,6.8c2.8-1.9,5.4-3.9,6.9-6.9C108.2,57.8,102.8,57.9,100.9,58.7z"/>
			<path class="st157" d="M120.9,98.1c-0.8-4-0.7-8.7-2-12.4l-0.6-1.1c-2.2,2.4-1,7.5-0.5,10.3c0.7,3.8,1.3,7.7,2.4,11.4
				c2,7.1,3.3,16.2,7.7,22.5c0.1-6.1-2.2-13.3-4-19.4C122.8,105.7,121.6,102,120.9,98.1z"/>
			<linearGradient id="SVGID_42_" gradientUnits="userSpaceOnUse" x1="104.313" y1="113.3635" x2="121.5553" y2="113.3635">
				<stop  offset="0" style="stop-color:#FF9900"/>
				<stop  offset="1" style="stop-color:#FFCF00"/>
			</linearGradient>
			<path class="st158" d="M114.8,112.4c-1.7-4.2-5.1-17.1-10.4-17.7l-0.1,0.4c6.6,12.2,10.7,25.1,17.2,37.1c0-3.3-1.7-7-3-10.1
				C117.2,118.8,116.2,115.6,114.8,112.4z"/>
			<linearGradient id="SVGID_43_" gradientUnits="userSpaceOnUse" x1="88.328" y1="69.9372" x2="99.7777" y2="69.9372">
				<stop  offset="0" style="stop-color:#FFF7D9"/>
				<stop  offset="1" style="stop-color:#FEEFBF"/>
			</linearGradient>
			<path class="st159" d="M94.3,67.6c-2.3,3-5.5,7.4-5.9,10.5c0.7-1.1,4.9-3.7,6-4.4c-0.2-1.5,0.8-3.8,1.4-5.1
				c1.1-2.4,2.9-4.5,4.1-6.8C97.5,63,95.8,65.5,94.3,67.6z"/>
			<linearGradient id="SVGID_44_" gradientUnits="userSpaceOnUse" x1="99.7827" y1="67.5991" x2="99.1751" y2="102.4105">
				<stop  offset="0" style="stop-color:#FFE999"/>
				<stop  offset="1" style="stop-color:#F9BF00"/>
			</linearGradient>
			<path class="st160" d="M86.4,80.5c0,0.4-0.1,0.7-0.1,1.1c0.2,0.3,9.6-2.4,17.3,1c3.1,1.4,6.5,2.9,9.1,5.1
				c-1.6-6.7-3.4-13.3-5.3-20C102.3,69.2,89.9,78,86.4,80.5z"/>
			<path class="st161" d="M87.6,80.5c0,0,16-10.4,20.6-12.5c4.7-2.2,18.7-4,18.7-4s-13,0.1-19,2.2C101.9,68.1,88,80.1,87.6,80.5z"/>
			<path class="st161" d="M102,59.8c-0.1-0.1-0.2-0.1-0.2-0.1C101.9,59.7,101.9,59.7,102,59.8z"/>
			<path class="st161" d="M102,59.8c0.8,0.8,4.7,4.5,5.1,8.7c0.5,4.8,5.1,17.8,5.1,17.8s-3.6-15.1-4-18.3
				C107.8,64.8,103.7,61.3,102,59.8z"/>
			<linearGradient id="SVGID_45_" gradientUnits="userSpaceOnUse" x1="89.8951" y1="79.383" x2="107.4517" y2="79.383">
				<stop  offset="0" style="stop-color:#FFF7D9"/>
				<stop  offset="1" style="stop-color:#FEEFBF"/>
			</linearGradient>
			<path class="st162" d="M98.5,80.7c0-1.6,1.4-3.5,2.3-4.8c0.9-1.6,2.7-2.6,3.6-4c-2.7,1.2-13.2,8.4-14.4,9.9l0.1,0.2
				c5.2,2.8,11.3,4.2,17.4,4.8c-1.3-1.2-3.7-1.4-5.2-2.5C101,83.4,98.4,82.2,98.5,80.7z"/>
		</g>
		<g>
			<polygon class="st163" points="138.2,103.7 123.4,103.6 114,107.8 112.8,113.7 123.2,118 138,118 148.5,113.8 147.7,108.1 			"/>
			<linearGradient id="SVGID_46_" gradientUnits="userSpaceOnUse" x1="130.0483" y1="107.211" x2="147.8905" y2="107.211">
				<stop  offset="0" style="stop-color:#47DAEA"/>
				<stop  offset="1" style="stop-color:#06A0C9"/>
			</linearGradient>
			<path class="st164" d="M138.2,103.7l-8,0c-0.1,0.8-0.2,1.6-0.1,2.4c0.1,0,0.2,0.1,0.2,0.1c1.1,0.6,2.1,1.1,3.2,1.7
				c2.1,1,4.3,1.9,6.3,3c0.1,0,0.1,0,0.1,0c2.7-0.3,5.2-0.8,7.9-1.2l-0.2-1.5L138.2,103.7z"/>
			<linearGradient id="SVGID_47_" gradientUnits="userSpaceOnUse" x1="112.8016" y1="114.7698" x2="148.4884" y2="114.7698">
				<stop  offset="0" style="stop-color:#02ACD5"/>
				<stop  offset="0.9455" style="stop-color:#019DCC"/>
			</linearGradient>
			<polygon class="st165" points="119.8,110.9 112.8,113.7 123.4,118.8 138,118.8 148.5,113.8 141.4,110.7 			"/>
			<linearGradient id="SVGID_48_" gradientUnits="userSpaceOnUse" x1="114.7691" y1="114.7698" x2="148.4893" y2="114.7698">
				<stop  offset="0" style="stop-color:#048FB1"/>
				<stop  offset="0.9455" style="stop-color:#027CA1"/>
			</linearGradient>
			<path class="st166" d="M138.4,110.7c-1.8,0.5-3.5,1.1-5.3,1.6c-0.4,0.2-0.9,0.4-1.3,0.6c-0.4,0.2-0.9,0.3-1.4,0.2v4.1
				c0,0.5,0,1,0.1,1.5h7.5l10.5-5l-7.1-3.1L138.4,110.7z"/>
			<linearGradient id="SVGID_49_" gradientUnits="userSpaceOnUse" x1="126.1891" y1="100.054" x2="135.3848" y2="107.2384">
				<stop  offset="0" style="stop-color:#C7F7F9"/>
				<stop  offset="1" style="stop-color:#84E4F4"/>
			</linearGradient>
			<polygon class="st167" points="128.9,105.7 131.7,105.7 138.2,103.7 123.4,103.6 			"/>
			<polygon class="st168" points="141.4,109.6 141.4,110.7 148.5,113.8 147.7,108.1 			"/>
			<polygon class="st169" points="114,107.8 112.8,113.7 119.8,110.9 119.8,109.4 			"/>
			<linearGradient id="SVGID_50_" gradientUnits="userSpaceOnUse" x1="123.3951" y1="116.574" x2="137.9848" y2="116.574">
				<stop  offset="0" style="stop-color:#006487"/>
				<stop  offset="0.9455" style="stop-color:#037193"/>
			</linearGradient>
			<polygon class="st170" points="128.8,114.3 123.4,118.8 138,118.8 132.3,114.3 			"/>
			<linearGradient id="SVGID_51_" gradientUnits="userSpaceOnUse" x1="129.1888" y1="105.6483" x2="131.8834" y2="114.462">
				<stop  offset="0" style="stop-color:#C7F7F9"/>
				<stop  offset="0.9455" style="stop-color:#84E4F4"/>
			</linearGradient>
			<polygon class="st171" points="128.9,105.7 119.8,109.4 119.8,110.9 128.8,114.3 132.3,114.3 141.4,110.7 141.4,109.6 
				131.7,105.7 			"/>
			<polygon class="st57" points="132.2,114.1 129,114 120.3,110.7 120.2,109.4 128.9,105.7 119.8,109.4 119.8,110.9 128.8,114.3 
				132.3,114.3 141.4,110.7 141.4,109.6 141,110.6 			"/>
			<linearGradient id="SVGID_52_" gradientUnits="userSpaceOnUse" x1="136.8101" y1="113.4219" x2="124.113" y2="106.4742">
				<stop  offset="0" style="stop-color:#0DBFD1"/>
				<stop  offset="0.9455" style="stop-color:#84E4F4"/>
			</linearGradient>
			<polygon class="st172" points="129.3,106.6 122.5,109.3 122.5,110.4 129.3,112.8 131.8,112.8 138.5,110.3 138.5,109.6 
				131.4,106.6 			"/>
			<linearGradient id="SVGID_53_" gradientUnits="userSpaceOnUse" x1="131.4235" y1="139.8148" x2="130.681" y2="118.5541">
				<stop  offset="0" style="stop-color:#47DAEA"/>
				<stop  offset="0.5758" style="stop-color:#06A0C9"/>
			</linearGradient>
			<polygon class="st173" points="128.2,139.8 132.7,139.8 138,118.8 123.4,118.8 			"/>
			<linearGradient id="SVGID_54_" gradientUnits="userSpaceOnUse" x1="123.3951" y1="126.9378" x2="137.9848" y2="126.9378">
				<stop  offset="0" style="stop-color:#048FB1"/>
				<stop  offset="0.9455" style="stop-color:#027CA1"/>
			</linearGradient>
			<path class="st174" d="M123.6,119.5c0.3,0.1,0.5,0.2,0.7,0.4c4.5,4.8,7.8,9.9,9.6,15.1l4.1-16.3h-14.6L123.6,119.5z"/>
			<linearGradient id="SVGID_55_" gradientUnits="userSpaceOnUse" x1="112.8016" y1="126.7542" x2="128.1851" y2="126.7542">
				<stop  offset="0" style="stop-color:#0DBFD1"/>
				<stop  offset="0.9455" style="stop-color:#84E4F4"/>
			</linearGradient>
			<polygon class="st175" points="112.8,113.7 125.4,135.2 128.2,139.8 123.4,118.8 			"/>
			<path class="st176" d="M112.8,113.7l1.6,2.7c5.4,3.8,9.1,8.3,11.5,13l-2.4-10.6L112.8,113.7z"/>
			<linearGradient id="SVGID_56_" gradientUnits="userSpaceOnUse" x1="132.6916" y1="126.7542" x2="148.4884" y2="126.7542">
				<stop  offset="0" style="stop-color:#47DAEA"/>
				<stop  offset="0.5758" style="stop-color:#06A0C9"/>
			</linearGradient>
			<polygon class="st177" points="132.7,139.8 135.9,135.2 148.5,113.7 138,118.8 			"/>
			<linearGradient id="SVGID_57_" gradientUnits="userSpaceOnUse" x1="132.6916" y1="126.7542" x2="148.4884" y2="126.7542">
				<stop  offset="0" style="stop-color:#006487"/>
				<stop  offset="0.9455" style="stop-color:#037193"/>
			</linearGradient>
			<path class="st178" d="M132.7,139.8c0.8-2.7,3.7-8.8,4.9-11.4c2.5-5.1,4-9.3,10.1-13.4l0.7-1.3l-10.5,5.1L132.7,139.8z"/>
		</g>
		<g>
			<g>
				<polygon class="st163" points="258.5,102.2 240.6,102.2 229.1,107.3 227.7,114.5 240.3,119.6 258.3,119.6 271,114.6 270,107.6 
									"/>
				<linearGradient id="SVGID_58_" gradientUnits="userSpaceOnUse" x1="248.6351" y1="106.5577" x2="270.3" y2="106.5577">
					<stop  offset="0" style="stop-color:#47DAEA"/>
					<stop  offset="1" style="stop-color:#06A0C9"/>
				</linearGradient>
				<path class="st179" d="M258.5,102.2l-9.7,0c-0.2,0.9-0.3,1.9-0.1,2.9c0.1,0,0.2,0.1,0.3,0.1c1.3,0.7,2.6,1.4,3.9,2
					c2.6,1.2,5.2,2.4,7.7,3.6c0.1,0,0.1,0,0.2,0c3.2-0.4,6.4-1,9.5-1.4l-0.3-1.8L258.5,102.2z"/>
				<linearGradient id="SVGID_59_" gradientUnits="userSpaceOnUse" x1="227.6905" y1="115.7353" x2="271.027" y2="115.7353">
					<stop  offset="0" style="stop-color:#02ACD5"/>
					<stop  offset="0.9455" style="stop-color:#019DCC"/>
				</linearGradient>
				<polygon class="st180" points="236.2,111 227.7,114.5 240.6,120.6 258.3,120.6 271,114.6 262.4,110.8 				"/>
				<linearGradient id="SVGID_60_" gradientUnits="userSpaceOnUse" x1="230.0804" y1="115.7353" x2="271.028" y2="115.7353">
					<stop  offset="0" style="stop-color:#048FB1"/>
					<stop  offset="0.9455" style="stop-color:#027CA1"/>
				</linearGradient>
				<path class="st181" d="M258.8,110.9c-2.2,0.7-4.3,1.4-6.5,2c-0.5,0.2-1,0.4-1.5,0.7c-0.5,0.2-1.1,0.3-1.7,0.3v5
					c0,0.6,0.1,1.2,0.1,1.8h9.1l12.8-6.1l-8.6-3.8L258.8,110.9z"/>
				<linearGradient id="SVGID_61_" gradientUnits="userSpaceOnUse" x1="243.9476" y1="97.8667" x2="255.1135" y2="106.5904">
					<stop  offset="0" style="stop-color:#C7F7F9"/>
					<stop  offset="1" style="stop-color:#84E4F4"/>
				</linearGradient>
				<polygon class="st182" points="247.3,104.8 250.6,104.8 258.5,102.2 240.6,102.2 				"/>
				<polygon class="st168" points="262.4,109.4 262.4,110.8 271,114.6 270,107.6 				"/>
				<polygon class="st169" points="229.1,107.3 227.7,114.5 236.2,111 236.2,109.2 				"/>
				<linearGradient id="SVGID_62_" gradientUnits="userSpaceOnUse" x1="240.5549" y1="117.927" x2="258.2708" y2="117.927">
					<stop  offset="0" style="stop-color:#006487"/>
					<stop  offset="0.9455" style="stop-color:#037193"/>
				</linearGradient>
				<polygon class="st183" points="247.1,115.2 240.6,120.6 258.3,120.6 251.3,115.2 				"/>
				<linearGradient id="SVGID_63_" gradientUnits="userSpaceOnUse" x1="247.5913" y1="104.6592" x2="250.8636" y2="115.3625">
					<stop  offset="0" style="stop-color:#C7F7F9"/>
					<stop  offset="0.9455" style="stop-color:#84E4F4"/>
				</linearGradient>
				<polygon class="st184" points="247.3,104.8 236.2,109.2 236.2,111 247.1,115.2 251.3,115.2 262.4,110.8 262.4,109.4 
					250.6,104.8 				"/>
				<polygon class="st57" points="251.3,114.9 247.4,114.8 236.8,110.8 236.7,109.3 247.3,104.8 236.2,109.2 236.2,111 247.1,115.2 
					251.3,115.2 262.4,110.8 262.4,109.4 262,110.7 				"/>
				<linearGradient id="SVGID_64_" gradientUnits="userSpaceOnUse" x1="256.8457" y1="114.0989" x2="241.4274" y2="105.6621">
					<stop  offset="0" style="stop-color:#0DBFD1"/>
					<stop  offset="0.9455" style="stop-color:#84E4F4"/>
				</linearGradient>
				<polygon class="st185" points="247.7,105.8 239.5,109.1 239.5,110.4 247.8,113.4 250.7,113.4 258.9,110.4 258.9,109.4 
					250.2,105.8 				"/>
				<linearGradient id="SVGID_65_" gradientUnits="userSpaceOnUse" x1="250.3037" y1="146.1491" x2="249.4021" y2="120.3311">
					<stop  offset="0" style="stop-color:#47DAEA"/>
					<stop  offset="0.5758" style="stop-color:#06A0C9"/>
				</linearGradient>
				<polygon class="st186" points="246.4,146.1 251.8,146.1 258.3,120.6 240.6,120.6 				"/>
				<linearGradient id="SVGID_66_" gradientUnits="userSpaceOnUse" x1="240.5549" y1="130.5117" x2="258.2708" y2="130.5117">
					<stop  offset="0" style="stop-color:#048FB1"/>
					<stop  offset="0.9455" style="stop-color:#027CA1"/>
				</linearGradient>
				<path class="st187" d="M240.7,121.5c0.3,0.1,0.7,0.3,0.9,0.5c5.5,5.9,9.4,12,11.6,18.4l5-19.7h-17.7L240.7,121.5z"/>
				<linearGradient id="SVGID_67_" gradientUnits="userSpaceOnUse" x1="227.6905" y1="130.2899" x2="246.3711" y2="130.2899">
					<stop  offset="0" style="stop-color:#0DBFD1"/>
					<stop  offset="0.9455" style="stop-color:#84E4F4"/>
				</linearGradient>
				<polygon class="st188" points="227.7,114.5 243,140.6 246.4,146.1 240.6,120.6 				"/>
				<path class="st176" d="M227.7,114.5l1.9,3.2c6.6,4.7,11.1,10.1,13.9,15.8l-3-12.9L227.7,114.5z"/>
				<linearGradient id="SVGID_68_" gradientUnits="userSpaceOnUse" x1="251.8456" y1="130.2899" x2="271.027" y2="130.2899">
					<stop  offset="0" style="stop-color:#47DAEA"/>
					<stop  offset="0.5758" style="stop-color:#06A0C9"/>
				</linearGradient>
				<polygon class="st189" points="251.8,146.1 255.8,140.6 271,114.5 258.3,120.6 				"/>
				<linearGradient id="SVGID_69_" gradientUnits="userSpaceOnUse" x1="251.8456" y1="130.2899" x2="271.027" y2="130.2899">
					<stop  offset="0" style="stop-color:#006487"/>
					<stop  offset="0.9455" style="stop-color:#037193"/>
				</linearGradient>
				<path class="st190" d="M251.8,146.1c1-3.2,4.4-10.7,6-13.9c3-6.2,4.8-11.3,12.3-16.2l0.9-1.5l-12.8,6.2L251.8,146.1z"/>
			</g>
		</g>
	</g>
</g>
</svg>
