<?xml version="1.0" encoding="utf-8"?>
<!-- Generator: Adobe Illustrator 24.2.0, SVG Export Plug-In . SVG Version: 6.00 Build 0)  -->
<svg version="1.1" id="Layer_1" xmlns="http://www.w3.org/2000/svg" xmlns:xlink="http://www.w3.org/1999/xlink" x="0px" y="0px"
	 viewBox="0 0 383.2 243.3" style="enable-background:new 0 0 383.2 243.3;" xml:space="preserve">
<style type="text/css">
	.st0{fill:#F4F7FA;}
	.st1{fill:#BFC8D6;}
	.st2{fill:#FFFFFF;}
	.st3{fill:url(#SVGID_1_);}
	.st4{fill:url(#SVGID_2_);}
	.st5{fill:url(#SVGID_3_);}
	.st6{fill:url(#SVGID_4_);}
	.st7{fill:url(#SVGID_5_);}
	.st8{fill:url(#SVGID_6_);}
	.st9{fill:url(#SVGID_7_);}
	.st10{fill:url(#SVGID_8_);}
	.st11{fill:url(#SVGID_9_);}
	.st12{fill:url(#SVGID_10_);}
	.st13{fill:url(#SVGID_11_);}
	.st14{fill:url(#SVGID_12_);}
	.st15{fill:url(#SVGID_13_);}
	.st16{fill:url(#SVGID_14_);}
	.st17{fill:url(#SVGID_15_);}
	.st18{fill:#F090CB;}
	.st19{fill:url(#SVGID_16_);}
	.st20{fill:url(#SVGID_17_);}
	.st21{fill:#8E1CB8;}
</style>
<g>
	<path class="st0" d="M281.1,163.2c-5.9,22.6-22.4,43.5-62.5,54.3c-14.5,3.9-31.3,5.8-46.3,4.6c-22.1-1.7-45.3-11.7-63.7-23
		c-12.7-7.8-17.8-18.4-19.6-30.3c-1.1-7.4-1-15.3-0.6-23.4c0.5-12.2-1.4-24.5-4.3-36.4c-4.4-18.3-0.8-37.5,10.1-53.2
		s28.2-26.7,47.8-30.4c33.1-6.2,66.7-2.1,66.7-2.1c44.3,4.6,66.7,48.5,72.1,84.3C283.4,124,286,144.2,281.1,163.2z"/>
	<g>
		<g>
			<path class="st1" d="M184.3,163.6c-26,0-47.1-21.1-47.1-47.1s21.1-47.1,47.1-47.1s47.1,21.1,47.1,47.1S210.3,163.6,184.3,163.6z
				 M184.3,70.5c-25.4,0-46,20.6-46,46s20.6,46,46,46s46-20.6,46-46S209.6,70.5,184.3,70.5z"/>
		</g>
		<g>
			<path class="st1" d="M184.3,183.6c-17.9,0-34.7-7-47.4-19.6c-12.7-12.7-19.6-29.5-19.6-47.4s7-34.7,19.6-47.4
				c12.7-12.7,29.5-19.6,47.4-19.6s34.7,7,47.4,19.6c12.7,12.7,19.6,29.5,19.6,47.4s-7,34.7-19.6,47.4
				C219,176.6,202.2,183.6,184.3,183.6z M184.3,50.6c-36.4,0-65.9,29.6-65.9,65.9s29.6,65.9,65.9,65.9s65.9-29.6,65.9-65.9
				S220.6,50.6,184.3,50.6z"/>
		</g>
		<g>
			<path class="st1" d="M184.3,202.6c-23,0-44.6-8.9-60.8-25.2c-16.2-16.2-25.2-37.8-25.2-60.8s8.9-44.6,25.2-60.8
				c16.2-16.2,37.8-25.2,60.8-25.2s44.6,8.9,60.8,25.2c16.2,16.2,25.2,37.8,25.2,60.8s-8.9,44.6-25.2,60.8
				C228.9,193.6,207.3,202.6,184.3,202.6z M184.3,31.6c-46.8,0-84.9,38.1-84.9,84.9s38.1,84.9,84.9,84.9s84.9-38.1,84.9-84.9
				S231.1,31.6,184.3,31.6z"/>
		</g>
	</g>
	<g>
		<g>
			<g>
				<g>
					<circle class="st2" cx="91.7" cy="141.2" r="33.3"/>
					
						<linearGradient id="SVGID_1_" gradientUnits="userSpaceOnUse" x1="70.3506" y1="141.3942" x2="145.0124" y2="6.0397" gradientTransform="matrix(1 0 0 -1 0 243.8898)">
						<stop  offset="3.597120e-03" style="stop-color:#E38DDD"/>
						<stop  offset="1" style="stop-color:#9571F6"/>
					</linearGradient>
					<circle class="st3" cx="91.7" cy="141.2" r="29.6"/>
				</g>
			</g>
		</g>
	</g>
	<g>
		<path class="st2" d="M105.6,151.3l0,0.3c0,0.5-0.4,1-1,1H77.2c-0.5,0-1-0.4-1-1v-0.3c0-0.5,0.4-1,1-1h27.4
			C105.1,150.3,105.6,150.8,105.6,151.3z"/>
		<polygon class="st2" points="104,153.5 100.8,163.5 81.1,163.5 77.8,153.5 		"/>
		<path class="st2" d="M91.1,138.7c-0.3,0-0.5,0.2-0.5,0.5l-0.1,9.5c0,0.3,0.2,0.5,0.5,0.5c0,0,0,0,0,0c0.3,0,0.5-0.2,0.5-0.5
			l0.1-9.5C91.6,138.9,91.3,138.7,91.1,138.7C91.1,138.7,91.1,138.7,91.1,138.7z"/>
		<path class="st2" d="M81.6,140.9l6,3.5c-2.7,0.7-5,0.5-6.8-0.7c-2.7-1.7-3.5-5-3.8-6.1c1.1-0.3,4.4-1.2,7.2,0.3
			c1.9,1,3.1,2.9,3.8,5.6l-5.9-3.5c-0.2-0.1-0.5-0.1-0.7,0.2C81.3,140.5,81.4,140.8,81.6,140.9z"/>
		<path class="st2" d="M105.1,137.6c-0.2,1.1-1.1,4.4-3.8,6.1c-1.8,1.1-4.1,1.4-6.8,0.7l5.9-3.5c0.2-0.1,0.3-0.4,0.2-0.7
			s-0.4-0.3-0.7-0.2l-5.9,3.5c0.7-2.7,2-4.6,3.8-5.6C100.7,136.4,104,137.3,105.1,137.6z"/>
		<path class="st2" d="M91.6,136.6l0-10.5c0-0.3-0.2-0.5-0.5-0.5c-0.1,0-0.3,0.1-0.3,0.1c-0.1,0.1-0.1,0.2-0.1,0.4l0,10.5
			c-3.1-3-4.7-6.2-4.6-9.4c0.2-4.8,4-8.5,5.1-9.4c1.1,1,4.9,4.6,5.1,9.4C96.2,130.5,94.7,133.6,91.6,136.6z"/>
	</g>
</g>
<g>
	<g>
		<g>
			<circle class="st2" cx="266.9" cy="130.9" r="31"/>
			
				<linearGradient id="SVGID_2_" gradientUnits="userSpaceOnUse" x1="247.0339" y1="149.0051" x2="316.4838" y2="23.0992" gradientTransform="matrix(1 0 0 -1 0 243.8898)">
				<stop  offset="0" style="stop-color:#FF9085"/>
				<stop  offset="1" style="stop-color:#FB6FBB"/>
			</linearGradient>
			<circle class="st4" cx="266.9" cy="130.9" r="27.5"/>
		</g>
	</g>
</g>
<g>
	<g>
		<g>
			<circle class="st2" cx="157.6" cy="51.8" r="31.5"/>
			
				<linearGradient id="SVGID_3_" gradientUnits="userSpaceOnUse" x1="137.4436" y1="228.6314" x2="207.9826" y2="100.7511" gradientTransform="matrix(1 0 0 -1 0 243.8898)">
				<stop  offset="0" style="stop-color:#FFC444"/>
				<stop  offset="0.9964" style="stop-color:#F36F56"/>
			</linearGradient>
			<circle class="st5" cx="157.6" cy="51.8" r="28"/>
		</g>
	</g>
</g>
<g>
	<linearGradient id="SVGID_4_" gradientUnits="userSpaceOnUse" x1="225.6271" y1="346.7102" x2="193.5399" y2="257.1086">
		<stop  offset="0" style="stop-color:#AA80F9"/>
		<stop  offset="1" style="stop-color:#9571F6"/>
	</linearGradient>
	<path class="st6" d="M221.2,232c-25.1,3.5-51.1,3.5-78-0.3c-3.3-0.5-5.4-3.7-4.5-6.9l1.5-5.4c0.5-1.7,1.9-2.9,3.7-3
		c26.4-2,52.2-2.9,76.3-0.6c1.6,0.2,3,1.2,3.7,2.7l2.1,5.2C227.5,227.4,225.1,231.5,221.2,232z"/>
	<linearGradient id="SVGID_5_" gradientUnits="userSpaceOnUse" x1="182.3854" y1="142.9234" x2="196.5206" y2="142.9234">
		<stop  offset="0" style="stop-color:#AA80F9"/>
		<stop  offset="1" style="stop-color:#9571F6"/>
	</linearGradient>
	<path class="st7" d="M182.4,124.9l7.3,36.4c0.1,0.5,0.5,0.8,0.9,0.9c1.1,0.2,3.1,0.4,5.4-1c0.4-0.3,0.7-0.8,0.6-1.3l-7.2-36.7
		L182.4,124.9z"/>
	<linearGradient id="SVGID_6_" gradientUnits="userSpaceOnUse" x1="204.7581" y1="189.9845" x2="203.0521" y2="184.1839">
		<stop  offset="0" style="stop-color:#C95DB2"/>
		<stop  offset="1" style="stop-color:#6165D7"/>
	</linearGradient>
	<path class="st8" d="M175.7,101.2l11.2,56.4c0.1,0.7,0.7,1.3,1.4,1.4c1.6,0.3,4.8,0.6,8.3-1.5c0.7-0.4,1-1.2,0.9-1.9l-11.2-56.8
		L175.7,101.2z"/>
	<linearGradient id="SVGID_7_" gradientUnits="userSpaceOnUse" x1="189.2595" y1="110.822" x2="220.3344" y2="52.3042">
		<stop  offset="0" style="stop-color:#C95DB2"/>
		<stop  offset="1" style="stop-color:#6165D7"/>
	</linearGradient>
	<path class="st9" d="M170.8,87.7l13.3,65.3c0.2,1,0.9,1.7,1.9,1.9c2.2,0.5,6.5,0.8,11.2-2c0.9-0.5,1.4-1.6,1.2-2.6l-13.3-65.8
		L170.8,87.7z"/>
	<linearGradient id="SVGID_8_" gradientUnits="userSpaceOnUse" x1="174.6716" y1="106.0203" x2="181.1546" y2="63.7105">
		<stop  offset="0" style="stop-color:#AA80F9"/>
		<stop  offset="1" style="stop-color:#9571F6"/>
	</linearGradient>
	<path class="st10" d="M169.5,87.5l0.4,0.8c0.3,0.5,0.9,0.8,1.5,0.7l13.7-2.8c0.6-0.1,1.1-0.7,1.1-1.3v-1.1c0-0.9-0.8-1.5-1.7-1.3
		l-14.2,3.2C169.5,85.7,169.1,86.7,169.5,87.5z"/>
	<linearGradient id="SVGID_9_" gradientUnits="userSpaceOnUse" x1="182.7472" y1="176.469" x2="181.3347" y2="119.3639">
		<stop  offset="0" style="stop-color:#C95DB2"/>
		<stop  offset="1" style="stop-color:#6165D7"/>
	</linearGradient>
	<path class="st11" d="M173.5,99.4l14.4-2.9l1.1,0.1c0.5,0,1,0.4,1.2,0.8l0,0c0,0.6-0.3,1.3-0.7,1.7l-0.9,0.9l-14.4,2.9l-1.9-0.7
		c-0.3-0.1-0.5-0.3-0.6-0.6l0,0c-0.3-0.6-0.1-1.3,0.5-1.6L173.5,99.4z"/>
	<linearGradient id="SVGID_10_" gradientUnits="userSpaceOnUse" x1="268.1453" y1="92.6655" x2="225.1609" y2="124.7525">
		<stop  offset="0" style="stop-color:#AA80F9"/>
		<stop  offset="1" style="stop-color:#9571F6"/>
	</linearGradient>
	<path class="st12" d="M174.9,127.7l-1.9-16.2c-0.1-1.2,0.7-2.3,1.8-2.5l15.3-2.8c1.1-0.2,2.2,0.5,2.4,1.7l5.7,32.8
		c0,0-9.3,3.9-21.2,3.9c0,0-2.2-4.7-5.4-4.3c-3.2,0.4-13.3,4.7-11.5,24.8c1.8,20.1,16.1,17.6,16.1,17.6l6.1,27.6
		c0,0-31-5.4-34.1-39.8c-1.9-21.3,11.2-34.8,16.3-39.3c1.2-1,2.6-1.8,4.2-2.1L174.9,127.7z"/>
	<linearGradient id="SVGID_11_" gradientUnits="userSpaceOnUse" x1="164.2043" y1="226.8284" x2="183.312" y2="192.7075">
		<stop  offset="0" style="stop-color:#C95DB2"/>
		<stop  offset="1" style="stop-color:#6165D7"/>
	</linearGradient>
	<path class="st13" d="M160,215.7l5.5-20.8c0.8-2.9,3.4-4.9,6.3-4.9h3.3c2.9,0,5.5,2,6.2,4.8l5.3,20.9c0.3,1.3-0.7,2.6-2,2.6H162
		C160.7,218.3,159.6,217,160,215.7z"/>
	<linearGradient id="SVGID_12_" gradientUnits="userSpaceOnUse" x1="184.6085" y1="184.1021" x2="151.8525" y2="228.8003">
		<stop  offset="0" style="stop-color:#AA80F9"/>
		<stop  offset="1" style="stop-color:#9571F6"/>
	</linearGradient>
	<path class="st14" d="M178.7,198.6c0,2.6-2.1,4.7-4.7,4.7c-2.6,0-4.7-2.1-4.7-4.7c0-2.6,2.1-4.7,4.7-4.7
		C176.6,193.9,178.7,196,178.7,198.6z"/>
	<linearGradient id="SVGID_13_" gradientUnits="userSpaceOnUse" x1="235.6773" y1="35.5976" x2="210.2498" y2="133.0695">
		<stop  offset="0" style="stop-color:#AA80F9"/>
		<stop  offset="1" style="stop-color:#9571F6"/>
	</linearGradient>
	<path class="st15" d="M218.7,180.3c-4.2-3.4-12.3-5.7-21.5-5.7c-9.3,0-17.3,2.3-21.5,5.7h-3.1v5.4c0,6.1,11,11.1,24.6,11.1
		c13.6,0,24.6-5,24.6-11.1v-5.4H218.7z"/>
	<linearGradient id="SVGID_14_" gradientUnits="userSpaceOnUse" x1="196.1758" y1="192.2818" x2="197.8441" y2="171.6565">
		<stop  offset="0" style="stop-color:#AA80F9"/>
		<stop  offset="1" style="stop-color:#9571F6"/>
	</linearGradient>
	<ellipse class="st16" cx="197.1" cy="180.3" rx="24.6" ry="11.1"/>
	<linearGradient id="SVGID_15_" gradientUnits="userSpaceOnUse" x1="176.5154" y1="180.0944" x2="217.7788" y2="180.0944">
		<stop  offset="0" style="stop-color:#C95DB2"/>
		<stop  offset="1" style="stop-color:#6165D7"/>
	</linearGradient>
	<ellipse class="st17" cx="197.1" cy="180.1" rx="20.6" ry="8.4"/>
	<path class="st18" d="M197.1,173.1c10.8,0,19.7,3.4,20.6,7.7c0-0.2,0.1-0.5,0.1-0.7c0-4.7-9.2-8.4-20.6-8.4
		c-11.4,0-20.6,3.8-20.6,8.4c0,0.2,0,0.5,0.1,0.7C177.5,176.5,186.3,173.1,197.1,173.1z"/>
	<linearGradient id="SVGID_16_" gradientUnits="userSpaceOnUse" x1="166.6481" y1="122.6844" x2="184.2299" y2="122.6844">
		<stop  offset="0" style="stop-color:#C95DB2"/>
		<stop  offset="1" style="stop-color:#6165D7"/>
	</linearGradient>
	<ellipse class="st19" cx="175.4" cy="122.7" rx="8.8" ry="8.3"/>
	<linearGradient id="SVGID_17_" gradientUnits="userSpaceOnUse" x1="169.5186" y1="123.2226" x2="181.3593" y2="123.2226">
		<stop  offset="0" style="stop-color:#AA80F9"/>
		<stop  offset="1" style="stop-color:#9571F6"/>
	</linearGradient>
	<circle class="st20" cx="175.4" cy="123.2" r="5.9"/>
	<path class="st21" d="M206.9,223.5c-0.2,0-0.5-0.2-0.5-0.4c-0.1-0.3,0.1-0.5,0.4-0.6c1.4-0.3,2.8-0.5,4.2-0.9
		c0.3-0.1,0.5,0.1,0.6,0.4c0.1,0.3-0.1,0.5-0.4,0.6C209.8,222.9,208.4,223.2,206.9,223.5C206.9,223.5,206.9,223.5,206.9,223.5z"/>
	<path class="st21" d="M183.9,225.4c-21.9,0-40.3-4.6-40.5-4.6c-0.3-0.1-0.4-0.3-0.4-0.6c0.1-0.3,0.3-0.4,0.6-0.4
		c0.3,0.1,30,7.5,59,3.4c0.3,0,0.5,0.2,0.6,0.4c0,0.3-0.2,0.5-0.4,0.6C196.4,225.1,190,225.4,183.9,225.4z"/>
	<path class="st21" d="M195.5,138.1c-0.2,0-0.5-0.2-0.5-0.4l-0.4-2.6c0-0.3,0.1-0.5,0.4-0.6c0.3,0,0.5,0.1,0.6,0.4l0.4,2.6
		C196,137.8,195.8,138.1,195.5,138.1C195.5,138.1,195.5,138.1,195.5,138.1z"/>
	<path class="st21" d="M194.3,131.2c-0.2,0-0.5-0.2-0.5-0.4l-3.7-21.9c0-0.3-0.3-0.5-0.6-0.4l-1.5,0.2c-0.3,0-0.5-0.2-0.6-0.4
		c0-0.3,0.2-0.5,0.4-0.6l1.5-0.2c0.8-0.1,1.6,0.4,1.7,1.3l3.7,21.9C194.9,130.9,194.7,131.2,194.3,131.2
		C194.4,131.2,194.3,131.2,194.3,131.2z"/>
</g>
<path class="st2" d="M161.5,53C161.4,53,161.4,53,161.5,53L161.5,53l-0.4,0.1c-0.9,0.3-1.8,0.8-2.6,1.2c0.9,4.4,0,9-2.5,12.7
	c-0.1,0.2-0.3,0.3-0.5,0.3c-0.1,0-0.3,0-0.4-0.1c-0.3-0.2-0.4-0.6-0.2-0.9c0,0,0,0,0,0c2.2-3.3,3-7.3,2.4-11.2
	c-2.8,1.8-4.7,4.6-5.3,7.8c-0.1,0.3-0.3,0.5-0.7,0.5h-0.1c-0.4-0.1-0.6-0.4-0.5-0.8c0.9-4.9,4.2-7.8,6.9-9.4
	c-4.1-0.5-7.9-3.5-8.1-3.6c-0.3-0.2-0.3-0.6-0.1-0.9s0.6-0.3,0.9-0.1c0.1,0.1,5.9,4.5,10.3,3.3c0.3-0.1,0.4-0.2,0.5-0.2
	c4.6-1.8,4.9-8,4.9-9.1c-0.8-1.2-1.9-2.2-3.1-3c-2.5,0.9-4.6,2.4-6.2,4.6c-0.1,0.2-0.3,0.3-0.5,0.3c-0.4,0-0.7-0.3-0.6-0.7
	c0-0.1,0-0.3,0.1-0.4c1.8-2.4,4.3-4.3,7.1-5.2l0,0c2.4-0.8,4.9-1.3,7.4-1.3l-1.7-4.6c-0.9-0.1-1.9-0.2-2.8-0.2
	c-7.1,0-12.7,3.2-17.2,9.8c-0.1,0.1-0.2,0.2-0.4,0.3c-5,1.5-7.6,4.6-7.6,9c0,6.6,6,15,12.9,18.6c1.7,0.9,3.8,0.8,5.4-0.3
	c5.7-3.9,9.3-10.2,9.8-17.2c0.2-2.7-0.3-5.3-1.4-7.8C166.7,47.2,165.5,51.4,161.5,53z"/>
<g>
	<g>
		<path class="st2" d="M276.6,125.1V117c0-1-0.9-1.8-2-1.8c-1.1,0-2,0.8-2,1.8v8.1c0,0.9-0.6,1.7-1.6,2.4c-1.2,0.8-2.8,1.2-4.5,1.2
			c-1.7,0-3.3-0.4-4.5-1.2c-1-0.7-1.6-1.5-1.6-2.4V117c0-1-0.9-1.8-2-1.8c-1.1,0-2,0.8-2,1.8v8.1c0,2,1.1,3.9,3.2,5.3
			c0.1,0,0.1,0.1,0.2,0.1c-0.1,0-0.2,0.1-0.2,0.1c-2,1.4-3.2,3.2-3.2,5.3v8.1c0,1,0.9,1.8,2,1.8c1.1,0,2-0.8,2-1.8v-8.1
			c0-0.9,0.6-1.7,1.6-2.4c1.2-0.8,2.8-1.2,4.5-1.2c1.7,0,3.3,0.4,4.5,1.2c1,0.7,1.6,1.5,1.6,2.4v8.1c0,1,0.9,1.8,2,1.8
			c1.1,0,2-0.8,2-1.8v-8.1c0-2-1.1-3.9-3.2-5.3c-0.1,0-0.1-0.1-0.2-0.1c0.1,0,0.2-0.1,0.2-0.1C275.4,129,276.6,127.1,276.6,125.1z"
			/>
		<path class="st2" d="M262.6,117.8h7.8c0.2,0,0.3-0.1,0.3-0.3s-0.1-0.3-0.3-0.3h-7.8c-0.2,0-0.3,0.1-0.3,0.3
			S262.4,117.8,262.6,117.8z"/>
		<path class="st2" d="M262.6,120.4h7.8c0.2,0,0.3-0.1,0.3-0.3c0-0.2-0.1-0.3-0.3-0.3h-7.8c-0.2,0-0.3,0.1-0.3,0.3
			C262.2,120.3,262.4,120.4,262.6,120.4z"/>
		<path class="st2" d="M262.6,123h7.8c0.2,0,0.3-0.1,0.3-0.3s-0.1-0.3-0.3-0.3h-7.8c-0.2,0-0.3,0.1-0.3,0.3S262.4,123,262.6,123z"/>
		<path class="st2" d="M262.6,125.6h7.8c0.2,0,0.3-0.1,0.3-0.3s-0.1-0.3-0.3-0.3h-7.8c-0.2,0-0.3,0.1-0.3,0.3
			S262.4,125.6,262.6,125.6z"/>
		<path class="st2" d="M270.4,135.4h-7.8c-0.2,0-0.3,0.1-0.3,0.3c0,0.2,0.1,0.3,0.3,0.3h7.8c0.2,0,0.3-0.1,0.3-0.3
			C270.7,135.6,270.6,135.4,270.4,135.4z"/>
		<path class="st2" d="M270.4,138h-7.8c-0.2,0-0.3,0.1-0.3,0.3c0,0.2,0.1,0.3,0.3,0.3h7.8c0.2,0,0.3-0.1,0.3-0.3
			C270.7,138.2,270.6,138,270.4,138z"/>
		<path class="st2" d="M270.4,140.6h-7.8c-0.2,0-0.3,0.1-0.3,0.3s0.1,0.3,0.3,0.3h7.8c0.2,0,0.3-0.1,0.3-0.3
			S270.6,140.6,270.4,140.6z"/>
		<path class="st2" d="M270.4,143.2h-7.8c-0.2,0-0.3,0.1-0.3,0.3c0,0.2,0.1,0.3,0.3,0.3h7.8c0.2,0,0.3-0.1,0.3-0.3
			C270.7,143.4,270.6,143.2,270.4,143.2z"/>
	</g>
</g>
</svg>
