<?xml version="1.0" encoding="utf-8"?>
<!-- Generator: Adobe Illustrator 24.2.0, SVG Export Plug-In . SVG Version: 6.00 Build 0)  -->
<svg version="1.1" id="Layer_1" xmlns="http://www.w3.org/2000/svg" xmlns:xlink="http://www.w3.org/1999/xlink" x="0px" y="0px"
	 viewBox="0 0 226.7 304.9" style="enable-background:new 0 0 226.7 304.9;" xml:space="preserve">
<style type="text/css">
	.st0{fill:#2D335F;}
	.st1{fill:url(#SVGID_1_);}
	.st2{fill:#FFFFFF;}
	.st3{fill:#202A5B;}
	.st4{opacity:0.6;fill:#FFFFFF;}
	.st5{fill:url(#SVGID_2_);}
	.st6{fill:url(#SVGID_3_);}
	.st7{fill:url(#SVGID_4_);}
	.st8{fill:#736DB2;}
	.st9{fill:url(#SVGID_5_);}
	.st10{fill:#F27F9E;}
	.st11{fill:#DFE2F2;}
	.st12{fill:url(#SVGID_6_);}
	.st13{fill:#EAEBF6;}
	.st14{fill:url(#SVGID_7_);}
	.st15{fill:url(#SVGID_8_);}
</style>
<g>
	<g>
		<path class="st0" d="M165.8,304.9H52.4c-6.4,0-11.6-5.2-11.6-11.6V67.7c0-6.4,5.2-11.6,11.6-11.6h113.4c6.4,0,11.6,5.2,11.6,11.6
			v225.6C177.4,299.7,172.2,304.9,165.8,304.9z"/>
		
			<linearGradient id="SVGID_1_" gradientUnits="userSpaceOnUse" x1="-6925.6147" y1="325.4191" x2="-6925.6147" y2="-21.1426" gradientTransform="matrix(-1 0 0 1 -6816.5469 0)">
			<stop  offset="0" style="stop-color:#F9F398"/>
			<stop  offset="0.999" style="stop-color:#C58EBF"/>
		</linearGradient>
		<path class="st1" d="M45.5,67.6v219.5c0,3.2,2.6,5.8,5.8,5.8h115.5c3.2,0,5.8-2.6,5.8-5.8V67.6c0-3-2.4-5.5-5.5-5.5H51
			C48,62.2,45.5,64.6,45.5,67.6z"/>
	</g>
	<circle class="st2" cx="109.1" cy="59.1" r="1.8"/>
</g>
<g>
	<path class="st0" d="M183.5,86.8c-50.1-6.5-98.5-6.7-148.3,0l0-36.5h148.3L183.5,86.8z"/>
	<polygon class="st3" points="109.3,73.7 0,39 109.3,0 226.7,36.9 	"/>
	<rect x="201.9" y="39.9" class="st0" width="4" height="56.7"/>
	<ellipse class="st0" cx="203.9" cy="101.1" rx="6.4" ry="6.4"/>
</g>
<g>
	<g>
		<path class="st4" d="M141.1,214.1H52.8c-0.8,0-1.5-0.7-1.5-1.5v-20.2c0-0.8,0.7-1.5,1.5-1.5h88.3V214.1z"/>
		<linearGradient id="SVGID_2_" gradientUnits="userSpaceOnUse" x1="50.2316" y1="202.8182" x2="144.2137" y2="202.8182">
			<stop  offset="0" style="stop-color:#6367AF"/>
			<stop  offset="0.999" style="stop-color:#9882BC"/>
		</linearGradient>
		<path class="st5" d="M144.2,214.1H54.8c-1.6,0-2.8-1.6-2.8-3.6v-15.3c0-2,1.3-3.6,2.8-3.6h89.4v-2.2H54.8c-2.5,0-4.5,2.6-4.5,5.8
			v15.3c0,3.2,2,5.8,4.5,5.8h89.4V214.1z"/>
	</g>
	<g>
		<path class="st4" d="M158.9,187.2H52.8c-0.8,0-1.4-0.6-1.4-1.4v-10.2c0-0.8,0.6-1.4,1.4-1.4h106.1V187.2z"/>
		<linearGradient id="SVGID_3_" gradientUnits="userSpaceOnUse" x1="50.2316" y1="181.0051" x2="160.3811" y2="181.0051">
			<stop  offset="0" style="stop-color:#6156A5"/>
			<stop  offset="1" style="stop-color:#8A65AC"/>
		</linearGradient>
		<path class="st6" d="M160.4,187.2H55.5c-1.8,0-3.3-1.6-3.3-3.6v-5.1c0-2,1.5-3.6,3.3-3.6h104.8v-2.2H55.5c-2.9,0-5.3,2.6-5.3,5.8
			v5.1c0,3.2,2.4,5.8,5.3,5.8h104.8V187.2z"/>
	</g>
	<g>
		<linearGradient id="SVGID_4_" gradientUnits="userSpaceOnUse" x1="56.4551" y1="203.9316" x2="64.8477" y2="203.9316">
			<stop  offset="0" style="stop-color:#6367AF"/>
			<stop  offset="0.999" style="stop-color:#9882BC"/>
		</linearGradient>
		<polygon class="st7" points="56.5,212.6 60.7,205.9 64.8,212.6 64.8,195.3 56.5,195.3 		"/>
		<rect x="54.8" y="194.9" class="st8" width="13.3" height="0.4"/>
	</g>
	<g>
		<g>
			<path class="st4" d="M165.2,251.2H53c-1.1,0-2.1-0.9-2.1-2.1v-28.8c0-1.1,0.9-2.1,2.1-2.1h112.1c0.3,0,0.5,0.2,0.5,0.5v31.8
				C165.7,251,165.5,251.2,165.2,251.2z"/>
			<linearGradient id="SVGID_5_" gradientUnits="userSpaceOnUse" x1="49.5696" y1="235.2993" x2="167.1557" y2="235.2993">
				<stop  offset="0" style="stop-color:#E2529D"/>
				<stop  offset="1" style="stop-color:#B6489B"/>
			</linearGradient>
			<path class="st9" d="M167.2,251.2H56c-2.2,0-4-2.3-4-5.1v-21.7c0-2.8,1.8-5.1,4-5.1h111.2v-3.1H56c-3.5,0-6.4,3.7-6.4,8.2v21.7
				c0,4.5,2.9,8.2,6.4,8.2h111.2V251.2z"/>
			<polygon class="st10" points="70.2,249.1 64.3,239.6 58.4,249.1 58.4,224.6 70.2,224.6 			"/>
		</g>
		<rect x="56" y="224" class="st10" width="18.8" height="0.6"/>
	</g>
	<g>
		<rect x="76.6" y="226.7" class="st2" width="82.1" height="0.6"/>
		<rect x="76.6" y="229" class="st2" width="82.1" height="0.6"/>
		<rect x="76.6" y="231.4" class="st2" width="82.1" height="0.6"/>
		<rect x="76.6" y="233.7" class="st2" width="82.1" height="0.6"/>
		<rect x="76.6" y="236.1" class="st2" width="82.1" height="0.6"/>
		<rect x="76.6" y="238.4" class="st2" width="82.1" height="0.6"/>
		<rect x="76.6" y="240.8" class="st2" width="82.1" height="0.6"/>
		<rect x="76.6" y="243.1" class="st2" width="82.1" height="0.6"/>
		<rect x="76.6" y="224.4" class="st2" width="82.1" height="0.6"/>
		<rect x="76.6" y="245.5" class="st2" width="82.1" height="0.6"/>
	</g>
	<g>
		<rect x="68.9" y="196.7" class="st11" width="71.4" height="0.5"/>
		<rect x="68.9" y="198.7" class="st11" width="71.4" height="0.5"/>
		<rect x="68.9" y="200.6" class="st11" width="71.4" height="0.5"/>
		<rect x="68.9" y="202.5" class="st11" width="71.4" height="0.5"/>
		<rect x="68.9" y="204.4" class="st11" width="71.4" height="0.5"/>
		<rect x="68.9" y="206.3" class="st11" width="71.4" height="0.5"/>
		<rect x="68.9" y="208.3" class="st11" width="71.4" height="0.5"/>
		<rect x="68.9" y="210.2" class="st11" width="71.4" height="0.5"/>
		<rect x="68.9" y="194.8" class="st11" width="71.4" height="0.5"/>
		<rect x="68.9" y="212.1" class="st11" width="71.4" height="0.5"/>
	</g>
	<g>
		<rect x="53.9" y="176.8" class="st2" width="101.9" height="0.3"/>
		<rect x="53.9" y="177.9" class="st2" width="101.9" height="0.3"/>
		<rect x="53.9" y="178.9" class="st2" width="101.9" height="0.3"/>
		<rect x="53.9" y="180" class="st2" width="101.9" height="0.3"/>
		<rect x="53.9" y="181.1" class="st2" width="101.9" height="0.3"/>
		<rect x="53.9" y="182.2" class="st2" width="101.9" height="0.3"/>
		<rect x="53.9" y="183.3" class="st2" width="101.9" height="0.3"/>
		<rect x="53.9" y="184.4" class="st2" width="101.9" height="0.3"/>
		<rect x="53.9" y="175.7" class="st2" width="101.9" height="0.3"/>
		<rect x="53.9" y="185.5" class="st2" width="101.9" height="0.3"/>
	</g>
	<g>
		<g>
			<path class="st4" d="M55.7,170.1h101c0.8,0,1.5-0.7,1.5-1.5v-21.2c0-0.8-0.7-1.5-1.5-1.5h-101V170.1z"/>
			<linearGradient id="SVGID_6_" gradientUnits="userSpaceOnUse" x1="52.1349" y1="158.3257" x2="159.3273" y2="158.3257">
				<stop  offset="0" style="stop-color:#A9D591"/>
				<stop  offset="1" style="stop-color:#6BC6B3"/>
			</linearGradient>
			<path class="st12" d="M154.2,144.3h-102v2.3H110v23.5H52.1v2.3h102c1.3,0,2.4-0.5,3.3-1.4h0.1v-0.1c1.1-1.1,1.8-2.7,1.8-4.5v-16
				C159.3,147,157,144.3,154.2,144.3z"/>
			<polygon class="st11" points="142.7,168.5 147.4,161.5 152.2,168.5 152.2,150.5 142.7,150.5 			"/>
		</g>
		<g>
			<rect x="57.6" y="149.4" class="st13" width="52.1" height="0.6"/>
			<rect x="57.6" y="151.8" class="st13" width="52.1" height="0.6"/>
			<rect x="57.6" y="154.1" class="st13" width="52.1" height="0.6"/>
			<rect x="57.6" y="156.5" class="st13" width="52.1" height="0.6"/>
			<rect x="57.6" y="158.8" class="st13" width="52.1" height="0.6"/>
			<rect x="57.6" y="161.2" class="st13" width="52.1" height="0.6"/>
			<rect x="57.6" y="163.5" class="st13" width="52.1" height="0.6"/>
			<rect x="57.6" y="165.9" class="st13" width="52.1" height="0.6"/>
			<rect x="57.6" y="147.1" class="st13" width="52.1" height="0.6"/>
			<rect x="57.6" y="168.2" class="st13" width="52.1" height="0.6"/>
		</g>
	</g>
	<g>
		<g>
			<path class="st4" d="M130.1,142.7H59.2c-0.8,0-1.5-0.7-1.5-1.5v-14.1c0-0.8,0.7-1.5,1.5-1.5h70.9V142.7z"/>
			<linearGradient id="SVGID_7_" gradientUnits="userSpaceOnUse" x1="56.8298" y1="134.3784" x2="132.5931" y2="134.3784">
				<stop  offset="0" style="stop-color:#4C8ECC"/>
				<stop  offset="0.9985" style="stop-color:#37BEE0"/>
			</linearGradient>
			<path class="st14" d="M132.6,142.7H60.5c-1.3,0-2.3-1.2-2.3-2.6v-11.3c0-1.5,1-2.6,2.3-2.6h72.1v-1.6H60.5c-2,0-3.7,1.9-3.7,4.3
				V140c0,2.4,1.6,4.3,3.7,4.3h72.1V142.7z"/>
			<linearGradient id="SVGID_8_" gradientUnits="userSpaceOnUse" x1="58.0796" y1="134.4144" x2="91.7119" y2="134.4144">
				<stop  offset="0" style="stop-color:#4C8ECC"/>
				<stop  offset="0.9985" style="stop-color:#37BEE0"/>
			</linearGradient>
			<rect x="58.1" y="125.5" class="st15" width="33.6" height="17.8"/>
			<polygon class="st11" points="68.6,141.6 65.2,136.6 61.8,141.6 61.8,128.8 68.6,128.8 			"/>
		</g>
		<rect x="91.7" y="128.2" class="st11" width="38.4" height="0.4"/>
		<rect x="91.7" y="129.8" class="st11" width="38.4" height="0.4"/>
		<rect x="91.7" y="131.5" class="st11" width="38.4" height="0.4"/>
		<rect x="91.7" y="133.1" class="st11" width="38.4" height="0.4"/>
		<rect x="91.7" y="134.8" class="st11" width="38.4" height="0.4"/>
		<rect x="91.7" y="136.5" class="st11" width="38.4" height="0.4"/>
		<rect x="91.7" y="138.1" class="st11" width="38.4" height="0.4"/>
		<rect x="91.7" y="139.8" class="st11" width="38.4" height="0.4"/>
		<rect x="91.7" y="126.5" class="st11" width="38.4" height="0.4"/>
		<rect x="91.7" y="141.4" class="st11" width="38.4" height="0.4"/>
	</g>
</g>
</svg>
