<?xml version="1.0" encoding="utf-8"?>
<!-- Generator: Adobe Illustrator 24.2.0, SVG Export Plug-In . SVG Version: 6.00 Build 0)  -->
<svg version="1.1" id="Layer_1" xmlns="http://www.w3.org/2000/svg" xmlns:xlink="http://www.w3.org/1999/xlink" x="0px" y="0px"
	 viewBox="0 0 383.2 243.3" style="enable-background:new 0 0 383.2 243.3;" xml:space="preserve">
<style type="text/css">
	.st0{fill:#F4F7FA;}
	.st1{fill:#BFC8D6;}
	.st2{fill:#FFFFFF;}
	.st3{fill:url(#SVGID_1_);}
	.st4{fill:url(#SVGID_2_);}
	.st5{fill:url(#SVGID_3_);}
	.st6{fill:url(#SVGID_4_);}
	.st7{opacity:0.3;}
	.st8{fill:url(#SVGID_5_);}
	.st9{fill:url(#SVGID_6_);}
	.st10{fill:url(#SVGID_7_);}
</style>
<g>
	<path class="st0" d="M281.1,163.2c-5.9,22.6-22.4,43.5-62.5,54.3c-14.5,3.9-31.3,5.8-46.3,4.6c-22.1-1.7-45.3-11.7-63.7-23
		c-12.7-7.8-17.8-18.4-19.6-30.3c-1.1-7.4-1-15.3-0.6-23.4c0.5-12.2-1.4-24.5-4.3-36.4c-4.4-18.3-0.8-37.5,10.1-53.2
		c10.9-15.7,28.2-26.7,47.8-30.4c33.1-6.2,66.7-2.1,66.7-2.1c44.3,4.6,66.7,48.5,72.1,84.3C283.4,124,286,144.2,281.1,163.2z"/>
	<g>
		<g>
			<path class="st1" d="M184.3,163.6c-26,0-47.1-21.1-47.1-47.1s21.1-47.1,47.1-47.1s47.1,21.1,47.1,47.1S210.3,163.6,184.3,163.6z
				 M184.3,70.5c-25.4,0-46,20.6-46,46s20.6,46,46,46s46-20.6,46-46S209.6,70.5,184.3,70.5z"/>
		</g>
		<g>
			<path class="st1" d="M184.3,183.6c-17.9,0-34.7-7-47.4-19.6c-12.7-12.7-19.6-29.5-19.6-47.4s7-34.7,19.6-47.4
				c12.7-12.7,29.5-19.6,47.4-19.6s34.7,7,47.4,19.6c12.7,12.7,19.6,29.5,19.6,47.4s-7,34.7-19.6,47.4
				C219,176.6,202.2,183.6,184.3,183.6z M184.3,50.6c-36.4,0-65.9,29.6-65.9,65.9s29.6,65.9,65.9,65.9s65.9-29.6,65.9-65.9
				S220.6,50.6,184.3,50.6z"/>
		</g>
		<g>
			<path class="st1" d="M184.3,202.6c-23,0-44.6-8.9-60.8-25.2c-16.2-16.2-25.2-37.8-25.2-60.8s8.9-44.6,25.2-60.8
				c16.2-16.2,37.8-25.2,60.8-25.2s44.6,8.9,60.8,25.2c16.2,16.2,25.2,37.8,25.2,60.8s-8.9,44.6-25.2,60.8
				C228.9,193.6,207.3,202.6,184.3,202.6z M184.3,31.6c-46.8,0-84.9,38.1-84.9,84.9s38.1,84.9,84.9,84.9s84.9-38.1,84.9-84.9
				S231.1,31.6,184.3,31.6z"/>
		</g>
	</g>
	<g>
		<g>
			<g>
				<g>
					<circle class="st2" cx="91.7" cy="141.2" r="33.3"/>
					<linearGradient id="SVGID_1_" gradientUnits="userSpaceOnUse" x1="70.3442" y1="102.4991" x2="145.006" y2="237.8536">
						<stop  offset="3.597120e-03" style="stop-color:#E38DDD"/>
						<stop  offset="1" style="stop-color:#9571F6"/>
					</linearGradient>
					<circle class="st3" cx="91.7" cy="141.2" r="29.6"/>
				</g>
			</g>
		</g>
	</g>
	<g>
		<path class="st2" d="M95.7,122.6H77c-0.4,0-0.7,0.3-0.7,0.7v3.9c0,0.4,0.3,0.7,0.7,0.7h0.8c0.4,0,0.7,0.3,0.7,0.7v22.4
			c0,4.3,3.5,7.8,7.8,7.8s7.8-3.5,7.8-7.8v-22.4c0-0.4,0.3-0.7,0.7-0.7h0.8c0.4,0,0.7-0.3,0.7-0.7v-3.9
			C96.4,122.9,96,122.6,95.7,122.6z M84.5,150.4h-3.1c-0.4,0-0.8-0.4-0.8-0.8s0.4-0.8,0.8-0.8h3.1c0.4,0,0.8,0.4,0.8,0.8
			S84.9,150.4,84.5,150.4z M86.4,146.5h-5c-0.4,0-0.8-0.4-0.8-0.8c0-0.4,0.4-0.8,0.8-0.8h5c0.4,0,0.8,0.4,0.8,0.8
			C87.2,146.2,86.9,146.5,86.4,146.5z M80.6,141.8c0-0.4,0.4-0.8,0.8-0.8h3.1c0.4,0,0.8,0.4,0.8,0.8s-0.4,0.8-0.8,0.8h-3.1
			C81,142.6,80.6,142.3,80.6,141.8z M86.4,138.7h-5c-0.4,0-0.8-0.4-0.8-0.8c0-0.4,0.4-0.8,0.8-0.8h5c0.4,0,0.8,0.4,0.8,0.8
			C87.2,138.4,86.9,138.7,86.4,138.7z M80.6,134c0-0.4,0.4-0.8,0.8-0.8h3.1c0.4,0,0.8,0.4,0.8,0.8s-0.4,0.8-0.8,0.8h-3.1
			C81,134.8,80.6,134.4,80.6,134z M86.4,130.9h-5c-0.4,0-0.8-0.4-0.8-0.8s0.4-0.8,0.8-0.8h5c0.4,0,0.8,0.4,0.8,0.8
			S86.9,130.9,86.4,130.9z"/>
		<path class="st2" d="M113,155.3l-11-22.1c-0.1-0.1-0.1-0.2-0.1-0.3v-6.3c0-0.4,0.3-0.7,0.6-0.7l0,0c0.4,0,0.6-0.3,0.6-0.7v-2
			c0-0.4-0.3-0.7-0.6-0.7h-3.8c-0.3,0-0.4,0.2-0.4,0.5c0,0.1,0,0.2,0,0.4v3.9c0,1.2-0.8,2.2-1.9,2.6c-0.3,0.1-0.4,0.3-0.4,0.6v20.7
			c0,2.5-0.9,4.7-2.4,6.5c-0.4,0.5-0.1,1.3,0.6,1.3h16.7C112.7,158.9,113.7,156.9,113,155.3z"/>
	</g>
</g>
<g>
	<linearGradient id="SVGID_2_" gradientUnits="userSpaceOnUse" x1="223.3385" y1="95.3771" x2="123.7217" y2="319.9518">
		<stop  offset="3.597120e-03" style="stop-color:#E38DDD"/>
		<stop  offset="1" style="stop-color:#9571F6"/>
	</linearGradient>
	<path class="st4" d="M194.8,129.8V92.9h-23.9v36.9c0,3.6-2.3,6.8-5.6,8c-22,7.9-37.9,29.7-37.9,49.7c0,25.1,24.8,38,55.5,38
		s55.5-12.9,55.5-38c0-20-15.9-41.8-37.9-49.7C197.1,136.6,194.8,133.4,194.8,129.8z"/>
	<linearGradient id="SVGID_3_" gradientUnits="userSpaceOnUse" x1="131.3369" y1="196.2905" x2="234.3892" y2="196.2905">
		<stop  offset="0" style="stop-color:#AA80F9"/>
		<stop  offset="0.9964" style="stop-color:#6165D7"/>
	</linearGradient>
	<path class="st5" d="M136.9,170.2c-3.5,4.9-5.5,10.4-5.5,16.2c0,19.9,23.1,36,51.5,36s51.5-16.1,51.5-36c0-5.8-2-11.4-5.5-16.2
		H136.9z"/>
	<linearGradient id="SVGID_4_" gradientUnits="userSpaceOnUse" x1="181.1874" y1="172.4139" x2="205.3114" y2="140.1276">
		<stop  offset="0" style="stop-color:#AA80F9"/>
		<stop  offset="0.9964" style="stop-color:#6165D7"/>
	</linearGradient>
	<ellipse class="st6" cx="182.9" cy="170.2" rx="46" ry="4"/>
	<g class="st7">
		<path class="st2" d="M187.7,209c-6.2,0-19-0.1-28.8-9.6c-6-5.8-13.4-17.5-9.8-27.2c5.4-14.7,31.9-13,33.7-25.2
			c0.8-5.5-4.5-6.5-5.8-16.1c-1.4-10.6,4.4-14.8,4.4-24.5c0-3.5-0.8-8-3.9-13.4h-6.5v36.9c0,3.6-2.3,6.8-5.6,8
			c-22,7.9-37.9,29.7-37.9,49.7c0,25.1,24.8,38,55.5,38s55.5-12.9,55.5-38c0-1.4-0.1-2.9-0.2-4.3C229.5,192.8,211.5,209.1,187.7,209
			z"/>
	</g>
	<linearGradient id="SVGID_5_" gradientUnits="userSpaceOnUse" x1="186.6777" y1="85.0277" x2="174.3724" y2="112.7688">
		<stop  offset="3.597120e-03" style="stop-color:#E38DDD"/>
		<stop  offset="1" style="stop-color:#9571F6"/>
	</linearGradient>
	<path class="st8" d="M193.8,97.4h-21.9c-2.1,0-3.8-1.7-3.8-3.8l0,0c0-2.1,1.7-3.8,3.8-3.8h21.9c2.1,0,3.8,1.7,3.8,3.8l0,0
		C197.6,95.7,195.9,97.4,193.8,97.4z"/>
</g>
<g>
	<g>
		<g>
			<circle class="st2" cx="266.9" cy="130.9" r="31"/>
			<linearGradient id="SVGID_6_" gradientUnits="userSpaceOnUse" x1="247.0694" y1="94.8652" x2="316.5193" y2="220.7711">
				<stop  offset="0" style="stop-color:#FF9085"/>
				<stop  offset="1" style="stop-color:#FB6FBB"/>
			</linearGradient>
			<circle class="st9" cx="266.9" cy="130.9" r="27.5"/>
		</g>
	</g>
</g>
<g>
	<polygon class="st2" points="272.1,119.1 266.1,115.6 260.1,119.1 260.1,126 266.1,129.5 272.1,126 	"/>
	<circle class="st2" cx="253.3" cy="115.1" r="1.6"/>
	<circle class="st2" cx="285.4" cy="126.2" r="1.6"/>
	<path class="st2" d="M273,118.8v0.2l4.2-2.4c-0.2-0.2-0.3-0.4-0.4-0.7l-4.2,2.4l0.2,0.1C272.9,118.5,273,118.7,273,118.8z"/>
	<path class="st2" d="M259.3,118.8c0-0.1,0.1-0.3,0.2-0.4l0.2-0.1l-4.2-2.4c-0.1,0.3-0.2,0.5-0.4,0.7l4.2,2.4L259.3,118.8z"/>
	<circle class="st2" cx="279" cy="115.1" r="1.6"/>
	<circle class="st2" cx="285.4" cy="141.1" r="1.6"/>
	<path class="st2" d="M279,129.5l0.2,0.1c0.1,0.1,0.2,0.2,0.2,0.4v0.2l4.2-2.4c-0.2-0.2-0.3-0.4-0.4-0.7L279,129.5z"/>
	<path class="st2" d="M248.7,127.8l4.2,2.4v-0.2c0-0.1,0.1-0.3,0.2-0.4l0.2-0.1l-4.2-2.4C249,127.3,248.9,127.6,248.7,127.8z"/>
	<path class="st2" d="M259.7,141.5c-0.1,0-0.1,0-0.2-0.1l-0.2-0.1v6.6c0,0.2,0.2,0.4,0.4,0.4s0.4-0.2,0.4-0.4v-6.6l-0.2,0.1
		C259.8,141.5,259.8,141.5,259.7,141.5z"/>
	<path class="st2" d="M266.3,114.8l0.2,0.1v-6.6c0-0.2-0.2-0.4-0.4-0.4s-0.4,0.2-0.4,0.4v6.6l0.2-0.1
		C266,114.7,266.2,114.7,266.3,114.8z"/>
	<path class="st2" d="M272.5,141.5c-0.1,0-0.1,0-0.2-0.1l-0.2-0.1v6.6c0,0.2,0.2,0.4,0.4,0.4s0.4-0.2,0.4-0.4v-6.6l-0.2,0.1
		C272.7,141.5,272.6,141.5,272.5,141.5z"/>
	<path class="st2" d="M279.4,137.4c0,0.1-0.1,0.3-0.2,0.4l-0.2,0.1l4.2,2.4c0.1-0.3,0.2-0.5,0.4-0.7l-4.2-2.4L279.4,137.4z"/>
	<path class="st2" d="M252.9,137.4v-0.2l-4.2,2.4c0.2,0.2,0.3,0.4,0.4,0.7l4.2-2.4l-0.2-0.1C252.9,137.7,252.9,137.5,252.9,137.4z"
		/>
	<circle class="st2" cx="246.8" cy="126.2" r="1.6"/>
	<polygon class="st2" points="266.5,130.2 266.5,137.1 272.5,140.6 278.6,137.1 278.6,130.2 272.5,126.7 	"/>
	<circle class="st2" cx="246.8" cy="141.1" r="1.6"/>
	<polygon class="st2" points="253.7,130.2 253.7,137.1 259.7,140.6 265.7,137.1 265.7,130.2 259.7,126.7 	"/>
</g>
<g>
	<g>
		<g>
			<circle class="st2" cx="157.6" cy="51.8" r="31.5"/>
			<linearGradient id="SVGID_7_" gradientUnits="userSpaceOnUse" x1="137.4207" y1="15.2711" x2="207.9597" y2="143.1514">
				<stop  offset="0" style="stop-color:#FFC444"/>
				<stop  offset="0.9964" style="stop-color:#F36F56"/>
			</linearGradient>
			<circle class="st10" cx="157.6" cy="51.8" r="28"/>
		</g>
	</g>
</g>
<g>
	<g>
		<path class="st2" d="M174.2,35.3c-1.8-1.6-4.6-1.6-6.4,0l-6,5.5l-0.8-0.7c-0.4-0.4-1.1-0.4-1.5,0l-0.8,0.7c-0.4,0.4-0.4,1,0,1.4
			l4,3.6l-3.2-2.9l-7.4,6.8c2.3,0.2,3.9-0.2,5.3-0.6c2-0.6,4-1.1,7.3,0.2c0.1,0,0.2,0.1,0.3,0.2l0.9-0.8l0.8,0.7
			c0.4,0.4,1.1,0.4,1.5,0l0.8-0.7c0.4-0.4,0.4-1,0-1.4l-0.8-0.7l6-5.4C176,39.5,176,36.9,174.2,35.3z"/>
		<path class="st2" d="M163.7,50.6c-2.4-0.9-3.9-0.5-5.7,0c-1.3,0.3-2.7,0.7-4.6,0.7c-0.7,0-1.4,0-2.3-0.2c-0.2,0-0.4-0.1-0.5-0.3
			l-0.9,0.9l-4,8.3c-0.3,0.6,0.4,1.2,1,1l9.3-3.5L163.7,50.6z"/>
		<path class="st2" d="M144.2,68c0,1.3,1.1,2.4,2.6,2.4c1.4,0,2.6-1,2.6-2.4c0-1.3-2.6-4.3-2.6-4.3S144.2,66.7,144.2,68z"/>
	</g>
</g>
</svg>
