<?xml version="1.0" encoding="utf-8"?>
<!-- Generator: Adobe Illustrator 24.2.0, SVG Export Plug-In . SVG Version: 6.00 Build 0)  -->
<svg version="1.1" id="Layer_1" xmlns="http://www.w3.org/2000/svg" xmlns:xlink="http://www.w3.org/1999/xlink" x="0px" y="0px"
	 viewBox="0 0 383.2 243.3" style="enable-background:new 0 0 383.2 243.3;" xml:space="preserve">
<style type="text/css">
	.st0{fill:#F4F7FA;}
	.st1{fill:#BFC8D6;}
	.st2{fill:#FFFFFF;}
	.st3{fill:url(#SVGID_1_);}
	.st4{fill:url(#SVGID_2_);}
	.st5{fill:url(#SVGID_3_);}
	.st6{fill:#D8DEE8;}
	.st7{fill:url(#SVGID_4_);}
	.st8{fill:url(#SVGID_5_);}
	.st9{fill:url(#SVGID_6_);}
	.st10{opacity:0.3;fill:url(#SVGID_7_);}
	.st11{fill:url(#SVGID_8_);}
	.st12{opacity:0.3;fill:url(#SVGID_9_);}
	.st13{fill:url(#SVGID_10_);}
	.st14{fill:url(#SVGID_11_);}
	.st15{fill:url(#SVGID_12_);}
	.st16{fill:url(#SVGID_13_);}
	.st17{opacity:0.3;fill:url(#SVGID_14_);}
	.st18{fill:url(#SVGID_15_);}
	.st19{fill:url(#SVGID_16_);}
	.st20{fill:url(#SVGID_17_);}
	.st21{fill:url(#SVGID_18_);}
	.st22{fill:url(#SVGID_19_);}
	.st23{fill:url(#SVGID_20_);}
	.st24{fill:url(#SVGID_21_);}
	.st25{fill:url(#SVGID_22_);}
	.st26{fill:url(#SVGID_23_);}
	.st27{clip-path:url(#SVGID_25_);}
	.st28{fill:#AABBCC;}
	.st29{clip-path:url(#SVGID_27_);}
	.st30{opacity:0.6;fill:#D8DEE8;}
	.st31{opacity:0.8;fill:#FFFFFF;}
	.st32{fill:url(#SVGID_28_);}
	.st33{opacity:0.7;}
	.st34{fill:url(#SVGID_29_);}
	.st35{clip-path:url(#SVGID_31_);}
	.st36{opacity:0.5;}
	.st37{fill:url(#SVGID_32_);}
</style>
<g>
	<path class="st0" d="M281.1,163.2c-5.9,22.6-22.4,43.5-62.5,54.3c-14.5,3.9-31.3,5.8-46.3,4.6c-22.1-1.7-45.3-11.7-63.7-23
		c-12.7-7.8-17.8-18.4-19.6-30.3c-1.1-7.4-1-15.3-0.6-23.4c0.5-12.2-1.4-24.5-4.3-36.4c-4.4-18.3-0.8-37.5,10.1-53.2
		s28.2-26.7,47.8-30.4c33.1-6.2,66.7-2.1,66.7-2.1c44.3,4.6,66.7,48.5,72.1,84.3C283.4,124,286,144.2,281.1,163.2z"/>
	<g>
		<g>
			<path class="st1" d="M184.3,163.6c-26,0-47.1-21.1-47.1-47.1s21.1-47.1,47.1-47.1s47.1,21.1,47.1,47.1S210.3,163.6,184.3,163.6z
				 M184.3,70.5c-25.4,0-46,20.6-46,46s20.6,46,46,46s46-20.6,46-46S209.6,70.5,184.3,70.5z"/>
		</g>
		<g>
			<path class="st1" d="M184.3,183.6c-17.9,0-34.7-7-47.4-19.6c-12.7-12.7-19.6-29.5-19.6-47.4s7-34.7,19.6-47.4
				c12.7-12.7,29.5-19.6,47.4-19.6s34.7,7,47.4,19.6c12.7,12.7,19.6,29.5,19.6,47.4s-7,34.7-19.6,47.4
				C219,176.6,202.2,183.6,184.3,183.6z M184.3,50.6c-36.4,0-65.9,29.6-65.9,65.9s29.6,65.9,65.9,65.9s65.9-29.6,65.9-65.9
				S220.6,50.6,184.3,50.6z"/>
		</g>
		<g>
			<path class="st1" d="M184.3,202.6c-23,0-44.6-8.9-60.8-25.2c-16.2-16.2-25.2-37.8-25.2-60.8s8.9-44.6,25.2-60.8
				c16.2-16.2,37.8-25.2,60.8-25.2s44.6,8.9,60.8,25.2c16.2,16.2,25.2,37.8,25.2,60.8s-8.9,44.6-25.2,60.8
				C228.9,193.6,207.3,202.6,184.3,202.6z M184.3,31.6c-46.8,0-84.9,38.1-84.9,84.9s38.1,84.9,84.9,84.9s84.9-38.1,84.9-84.9
				S231.1,31.6,184.3,31.6z"/>
		</g>
	</g>
</g>
<g>
	<g>
		<g>
			<circle class="st2" cx="266.9" cy="130.9" r="31"/>
			
				<linearGradient id="SVGID_1_" gradientUnits="userSpaceOnUse" x1="247.0339" y1="149.0051" x2="316.4838" y2="23.0992" gradientTransform="matrix(1 0 0 -1 0 243.8898)">
				<stop  offset="0" style="stop-color:#FF9085"/>
				<stop  offset="1" style="stop-color:#FB6FBB"/>
			</linearGradient>
			<circle class="st3" cx="266.9" cy="130.9" r="27.5"/>
		</g>
	</g>
</g>
<g>
	<g>
		<g>
			<circle class="st2" cx="157.6" cy="51.8" r="31.5"/>
			
				<linearGradient id="SVGID_2_" gradientUnits="userSpaceOnUse" x1="137.4436" y1="228.6314" x2="207.9826" y2="100.7511" gradientTransform="matrix(1 0 0 -1 0 243.8898)">
				<stop  offset="0" style="stop-color:#FFC444"/>
				<stop  offset="0.9964" style="stop-color:#F36F56"/>
			</linearGradient>
			<circle class="st4" cx="157.6" cy="51.8" r="28"/>
		</g>
	</g>
</g>
<g>
	<g>
		<g>
			<g>
				<circle class="st2" cx="91.7" cy="141.2" r="33.3"/>
				
					<linearGradient id="SVGID_3_" gradientUnits="userSpaceOnUse" x1="70.3506" y1="141.3942" x2="145.0124" y2="6.0397" gradientTransform="matrix(1 0 0 -1 0 243.8898)">
					<stop  offset="3.597120e-03" style="stop-color:#E38DDD"/>
					<stop  offset="1" style="stop-color:#9571F6"/>
				</linearGradient>
				<circle class="st5" cx="91.7" cy="141.2" r="29.6"/>
			</g>
		</g>
	</g>
</g>
<g>
	<path class="st6" d="M144.2,212.2c7.3-0.3,14.3-0.5,21-0.7c7.2-0.2,14.5-0.8,20.7,1.1c2.2,0.7,2.3,2.5,3.7,3.7
		c1.6,1.3,3.9,1.3,6,1.2c9.5-0.3,40.3-7.4,36.5-1.5c-3.8,5.9-10.1,8.2-21.3,8.1c-6.1-0.1-12.6,0.3-19.5,0.5
		c-2.7,0.1-5.4,0.3-8.2,0.1c-3.8-0.2-7.3-1.6-11.4-2c-11.8-1.1-25.3-2.3-39.2-5.6c-2.5-0.6-8.6-1.4-5.9-3.5c2.3-1.8,11.1-1.3,14-1.5
		C141.8,212.3,143,212.2,144.2,212.2z"/>
	<g>
		<linearGradient id="SVGID_4_" gradientUnits="userSpaceOnUse" x1="215.9297" y1="136.5368" x2="240.5498" y2="156.6248">
			<stop  offset="0" style="stop-color:#311944"/>
			<stop  offset="1" style="stop-color:#893976"/>
		</linearGradient>
		<path class="st7" d="M237.1,144.1c0,0-0.3,0.8-0.8,2.1c-1.2,2.9-3.7,7.9-6.4,10.2c-3.8,3.3-16.7-6.7-16.7-6.7l3.1-8.6
			c0,0,11.2,9.3,11.4,9.3c0.1,0,3.6-4.2,5-6.4c0.4-0.6,0.6-1.1,0.6-1.3c0-0.1,0-0.1,0-0.2c-0.1-0.7,0.3-1.4,0.7-1.7
			c0.1-0.1,0.1-0.1,0.2-0.1c0.5-0.2,0.5-1.4,1.2-2.3c0.8-0.9,2.7,0.3,4.3,2C241.2,142.3,237.1,144.1,237.1,144.1z"/>
		<path class="st6" d="M237.1,144.1c0,0-0.3,0.8-0.8,2.1l-3.8-1.6c0,0,0.1-0.2,0.2-0.5c0.1-0.3,0.3-0.9,0.5-1.4
			c0.2-0.5,0.4-1.1,0.7-1.7c0.1-0.1,0.1-0.1,0.2-0.1c0.5-0.2,0.5-1.4,1.2-2.3c0.8-0.9,2.7,0.3,4.3,2
			C241.2,142.3,237.1,144.1,237.1,144.1z"/>
		<linearGradient id="SVGID_5_" gradientUnits="userSpaceOnUse" x1="229.3167" y1="125.3612" x2="199.7047" y2="161.3235">
			<stop  offset="0" style="stop-color:#AA80F9"/>
			<stop  offset="0.9964" style="stop-color:#6165D7"/>
		</linearGradient>
		<path class="st8" d="M212.2,137.2c0,0,3.4,1.3,6.7,4.2l2.3,1.8c0,0-4.9,7.9-6.8,7.9c-1.9,0.1-4.8-1.7-4.8-1.7L212.2,137.2z"/>
		<g>
			
				<linearGradient id="SVGID_6_" gradientUnits="userSpaceOnUse" x1="74.6289" y1="132.7938" x2="141.047" y2="186.9857" gradientTransform="matrix(0.9989 -4.740000e-02 4.740000e-02 0.9989 107.4103 -26.048)">
				<stop  offset="0" style="stop-color:#FFC444"/>
				<stop  offset="0.9964" style="stop-color:#F36F56"/>
			</linearGradient>
			<path class="st9" d="M238,141.2c-4.5-4.1-32-30.2-38.2-36.1c-0.7-0.7-1.8-0.6-2.4,0l0,0c-0.7,0.7-0.8,1.7-0.3,2.5l6.5,10.7
				c1,1.6,2.1,3,3.4,4.3l2.9,2.8c1.7,1.7,3.7,3,5.9,4l7.8,3.6c0.3,0.1,0.5,0.3,0.8,0.5l12.1,9.6c0.4,0.3,0.9,0.2,1.2-0.1l0.5-0.6
				C238.3,142,238.3,141.5,238,141.2z"/>
			
				<linearGradient id="SVGID_7_" gradientUnits="userSpaceOnUse" x1="124.6976" y1="140.7664" x2="101.5351" y2="155.9224" gradientTransform="matrix(0.9989 -4.740000e-02 4.740000e-02 0.9989 107.4103 -26.048)">
				<stop  offset="0" style="stop-color:#FFC444"/>
				<stop  offset="0.9964" style="stop-color:#F36F56"/>
			</linearGradient>
			<path class="st10" d="M237.3,141.3l-12.1-9.6c-0.2-0.2-0.5-0.3-0.8-0.5l-7.8-3.6c-2.2-1-4.2-2.4-5.9-4l-2.9-2.8
				c-1.3-1.3-2.5-2.7-3.4-4.3l-6.5-10.7c-0.2-0.3-0.3-0.7-0.3-1c-0.1,0.1-0.2,0.2-0.3,0.3l0,0c-0.7,0.7-0.8,1.7-0.3,2.5l6.5,10.7
				c1,1.6,2.1,3,3.4,4.3l2.9,2.8c1.7,1.7,3.7,3,5.9,4l7.8,3.6c0.3,0.1,0.5,0.3,0.8,0.5l12.1,9.6c0.4,0.3,0.9,0.2,1.2-0.1l0.5-0.6
				c0.2-0.3,0.3-0.6,0.1-0.9C237.9,141.6,237.5,141.5,237.3,141.3z"/>
		</g>
		<linearGradient id="SVGID_8_" gradientUnits="userSpaceOnUse" x1="208.0544" y1="131.5275" x2="184.7594" y2="279.3727">
			<stop  offset="0" style="stop-color:#444B8C"/>
			<stop  offset="0.9964" style="stop-color:#26264F"/>
		</linearGradient>
		<path class="st11" d="M217.2,193.5c-1.1,5-3.6,9.8-6.2,14.2c-0.8,1.4-1.7,2.9-2.8,4.1c-1.6-0.3-3.2-0.6-4.8-0.8
			c-0.1-0.5-0.2-1-0.2-1.5c-0.4-3-0.3-6.7,1.2-10.5c1.3-3.2,3.7-7,3.3-8.3c-1.3-4.2-16.9-0.9-21.2-8.4c-0.2-0.4-0.5-0.9-0.6-1.4
			c-1.1-3.5-5.6-1.3-3.8-3.4c1.7-2,6-8.5,12.9-5.4c5.7,2.5,11,5.7,16.3,9c2.1,1.4,4.3,2.8,5.5,5.1
			C217.9,188.4,217.8,191.1,217.2,193.5z"/>
		<linearGradient id="SVGID_9_" gradientUnits="userSpaceOnUse" x1="198.4509" y1="185.5782" x2="196.5309" y2="197.764">
			<stop  offset="0" style="stop-color:#444B8C"/>
			<stop  offset="0.9964" style="stop-color:#26264F"/>
		</linearGradient>
		<path class="st12" d="M208.3,193.8c-3.7,4.7-4.2,15.8-4.2,15.8l-0.9-0.2c-0.4-3-0.3-6.7,1.2-10.5c1.3-3.2,3.7-7,3.3-8.3
			c-1.3-4.2-16.9-0.9-21.2-8.4c1.5-1,6.9-4.4,10.3-1.2c3.9,3.7,7.2,2.2,10.1,3.7C209.9,186.2,212,189.1,208.3,193.8z"/>
		<linearGradient id="SVGID_10_" gradientUnits="userSpaceOnUse" x1="211.9375" y1="201.946" x2="205.6264" y2="219.3845">
			<stop  offset="0" style="stop-color:#FFC444"/>
			<stop  offset="0.9964" style="stop-color:#F36F56"/>
		</linearGradient>
		<path class="st13" d="M202.3,208.3c0,0,6.1,0.2,8.3,0.7l-1.9,4.9c0,0,4.4,0.8,4.6,3.9c0.3,3-12.2,0-12.2,0L202.3,208.3z"/>
		<linearGradient id="SVGID_11_" gradientUnits="userSpaceOnUse" x1="177.1951" y1="126.6658" x2="153.9001" y2="274.5115">
			<stop  offset="0" style="stop-color:#444B8C"/>
			<stop  offset="0.9964" style="stop-color:#26264F"/>
		</linearGradient>
		<path class="st14" d="M191.1,171.8c0,0,2.4,7,0,10S176.9,198.2,171,200c-5.8,1.8-23.2,13.8-25.7,12.6c-2.4-1.2-6.5-2.1-3-4.4
			c3.5-2.4,19.3-14.9,22.8-14.9c3.5,0,5.4-21.7,11.8-23.5C183.4,167.9,191.1,171.8,191.1,171.8z"/>
		<linearGradient id="SVGID_12_" gradientUnits="userSpaceOnUse" x1="222.686" y1="119.9014" x2="193.074" y2="155.8637">
			<stop  offset="0" style="stop-color:#AA80F9"/>
			<stop  offset="0.9964" style="stop-color:#6165D7"/>
		</linearGradient>
		<path class="st15" d="M206.8,158.9c-4,4.8-5.1,9.7-6.5,12c-0.7,1.1-1.4,1.7-2.7,1.3c-3.7-1.2-17,4.8-23.2,1.4
			c-4.7-2.5,4.6-21.2,10.8-31.4c2.1-3.4,3.8-5.9,4.6-6.5c3.1-2.5,21.6,1,22.6,1.6C220.4,141.8,212.8,151.8,206.8,158.9z"/>
		<linearGradient id="SVGID_13_" gradientUnits="userSpaceOnUse" x1="147.6206" y1="201.6068" x2="141.0812" y2="219.6762">
			<stop  offset="0" style="stop-color:#FFC444"/>
			<stop  offset="0.9964" style="stop-color:#F36F56"/>
		</linearGradient>
		<path class="st16" d="M142.9,207.7c0,0-14,9.8-6.9,10s14.1,1.6,13.8,0.5c-0.3-1.1-1.9-3.4-4.9-3.6c0,0,4.7-2,4.3-2.5
			C148.8,211.7,142.9,207.7,142.9,207.7z"/>
		<linearGradient id="SVGID_14_" gradientUnits="userSpaceOnUse" x1="232.3959" y1="130.981" x2="183.5232" y2="162.9602">
			<stop  offset="0" style="stop-color:#AA80F9"/>
			<stop  offset="0.9964" style="stop-color:#6165D7"/>
		</linearGradient>
		<path class="st17" d="M200.6,165c-3.4,4.9-3.3,5.3-0.2,6c-0.7,1.1-1.4,1.7-2.7,1.3c-3.7-1.2-17,4.8-23.2,1.4
			c-4.7-2.5,4.6-21.2,10.8-31.4c1.2-0.1,2.5,0.3,3.9,1.1c0,0,7.9,4.1,4.8,10.9C190.9,161,205,158.5,200.6,165z"/>
		<g>
			<linearGradient id="SVGID_15_" gradientUnits="userSpaceOnUse" x1="194.6836" y1="122.7095" x2="198.1003" y2="135.8244">
				<stop  offset="0" style="stop-color:#AA80F9"/>
				<stop  offset="0.9964" style="stop-color:#6165D7"/>
			</linearGradient>
			<path class="st18" d="M195.2,128.8c0,0.1-0.1,2.7,0.5,2.8c0.3,0.1,0.8,0,1.2,0c0.3,0,0.6-0.3,0.6-0.6l0.4-2L195.2,128.8z"/>
			<linearGradient id="SVGID_16_" gradientUnits="userSpaceOnUse" x1="200.72" y1="141.8696" x2="200.5475" y2="127.2017">
				<stop  offset="0" style="stop-color:#311944"/>
				<stop  offset="1" style="stop-color:#893976"/>
			</linearGradient>
			<path class="st19" d="M193.4,137.4c0-0.7,1.2-1.3,3-1.6c0.2-0.2,0.4-0.4,0.5-0.6c0.7-1,1.7-2.8,1.6-3.7l2.7-1.4
				c0,0.3,0,0.5,0,0.7c0.1,1.1,0.3,2.2,0.8,3.1c0.5,0.9,1.3,1.4,2.2,1.8c2.2,0.3,3.7,1,3.7,1.8c0,1.1-3.3,2-7.3,2
				c-2.5,0-4.6-0.3-5.9-0.9c-0.3-0.1-0.6-0.2-0.8-0.4c0,0,0,0-0.1-0.1C193.6,137.9,193.4,137.7,193.4,137.4z"/>
			<g>
				
					<linearGradient id="SVGID_17_" gradientUnits="userSpaceOnUse" x1="-1744.1493" y1="552.0625" x2="-1749.6183" y2="538.1721" gradientTransform="matrix(0.9941 -0.1093 0.1093 0.9941 1878.4845 -600.5272)">
					<stop  offset="0" style="stop-color:#444B8C"/>
					<stop  offset="0.9964" style="stop-color:#26264F"/>
				</linearGradient>
				<path class="st20" d="M195.9,129.9c-0.7-0.8-0.9-2.4-0.3-3.5c0.6-1,1.6-1.2,2.2-1.4c1.8-0.5,4.1,0,5,1.6c0.6,1-0.2,3.2-0.4,3.6
					c-0.1,0.5-0.4,0.6-0.7,1c-0.4,0.5-0.9,1.3-1.9,2.7c-0.1-0.3-0.3-0.8-0.5-1.2c-0.1-0.2-0.5-0.8-1-1.4
					C197.3,130.2,196.6,130.6,195.9,129.9z"/>
				<linearGradient id="SVGID_18_" gradientUnits="userSpaceOnUse" x1="202.9099" y1="177.7129" x2="198.9755" y2="129.2569">
					<stop  offset="0" style="stop-color:#311944"/>
					<stop  offset="1" style="stop-color:#893976"/>
				</linearGradient>
				<path class="st21" d="M201.3,132.6c0,0-1,2.2-3.3,2.3c-2.1,0.1-2.9-4.7-1.6-6c0.4-0.4,1.3-0.7,2-0.6c0.4,0.1,0.6,0.2,1.3,0.3
					c0.7,0.1,0.8,0,1,0.1c0.3,0.2,0.5,0.7,0.2,2.2c0.4-0.5,0.8-0.7,1.2-0.6c0.1,0,0.2,0.1,0.3,0.2
					C202.8,131.3,202.3,132.1,201.3,132.6z"/>
			</g>
			<g>
				<g>
					<path class="st6" d="M195.2,132.3c-0.1,0-0.1,0-0.1-0.1c0-0.1,0-0.1,0.1-0.1l4.6-0.4l1.8-1.3c0,0,0.1,0,0.1,0c0,0,0,0.1,0,0.1
						l-1.8,1.3c0,0,0,0-0.1,0L195.2,132.3C195.2,132.3,195.2,132.3,195.2,132.3z"/>
				</g>
				<g>
					<path class="st6" d="M199.3,134.7C199.3,134.7,199.3,134.7,199.3,134.7c-0.1,0-0.1-0.1-0.1-0.1l0.7-2.8c0-0.1,0.1-0.1,0.1-0.1
						c0.1,0,0.1,0.1,0.1,0.1l-0.7,2.8C199.4,134.6,199.3,134.7,199.3,134.7z"/>
				</g>
				<g>
					<path class="st6" d="M197.5,134.8c-0.1,0-0.1,0-0.1-0.1l-0.2-2.6c0-0.1,0-0.1,0.1-0.1c0.1,0,0.1,0,0.1,0.1l0.2,2.6
						C197.6,134.7,197.6,134.8,197.5,134.8C197.5,134.8,197.5,134.8,197.5,134.8z"/>
				</g>
				<g>
					<path class="st6" d="M196.2,134.8c0,0-0.1,0-0.1-0.1l-0.6-2.5c0-0.1,0-0.1,0.1-0.1c0.1,0,0.1,0,0.1,0.1l0.6,2.5
						C196.3,134.7,196.3,134.8,196.2,134.8C196.2,134.8,196.2,134.8,196.2,134.8z"/>
				</g>
				<g>
					<path class="st6" d="M195.8,135c-0.1,0-0.1-0.1-0.1-0.2c0-0.1,0-0.1,0.1-0.1l3.1-0.1l1.8-0.5l1.2-3c0-0.1,0.1-0.1,0.1-0.1
						c0.1,0,0.1,0.1,0.1,0.1l-1.2,3c0,0,0,0.1-0.1,0.1l-1.9,0.6c0,0,0,0.1,0,0.1L195.8,135C195.8,135,195.8,135,195.8,135z"/>
				</g>
				<g>
					<path class="st6" d="M195.5,133.6c-0.1,0-0.1,0-0.1-0.1c0-0.1,0-0.1,0.1-0.1l4.1-0.2l2.2-2.6c0,0,0.1,0,0.1,0c0,0,0,0.1,0,0.1
						l-2.3,2.6c0,0,0,0-0.1,0L195.5,133.6C195.5,133.6,195.5,133.6,195.5,133.6z"/>
				</g>
				<g>
					<path class="st6" d="M200.7,134.2C200.7,134.2,200.7,134.2,200.7,134.2c-0.1,0-0.1-0.1-0.1-0.1l0.6-3.3c0-0.1,0.1-0.1,0.1-0.1
						c0.1,0,0.1,0.1,0.1,0.1l-0.6,3.3C200.8,134.2,200.7,134.2,200.7,134.2z"/>
				</g>
			</g>
			<g>
				<linearGradient id="SVGID_19_" gradientUnits="userSpaceOnUse" x1="197.9356" y1="123.1658" x2="201.3524" y2="136.2806">
					<stop  offset="0" style="stop-color:#AA80F9"/>
					<stop  offset="0.9964" style="stop-color:#6165D7"/>
				</linearGradient>
				<path class="st22" d="M203.7,128.9c0,0,0.7-4.7-3.8-5.1c-3.8-0.3-5.4,1.7-5.3,4.5C202.3,129.1,203.7,128.9,203.7,128.9z"/>
				<linearGradient id="SVGID_20_" gradientUnits="userSpaceOnUse" x1="195.9363" y1="121.3849" x2="197.4203" y2="131.7388">
					<stop  offset="0" style="stop-color:#AA80F9"/>
					<stop  offset="0.9964" style="stop-color:#6165D7"/>
				</linearGradient>
				<path class="st23" d="M200.8,128.8c0-0.2-4-2.1-6.2-1c-2.2,1.1-1.5,1.5,0,1.4C196.1,129.1,200.8,128.8,200.8,128.8z"/>
			</g>
			<linearGradient id="SVGID_21_" gradientUnits="userSpaceOnUse" x1="200.4817" y1="122.5024" x2="203.8985" y2="135.6173">
				<stop  offset="0" style="stop-color:#AA80F9"/>
				<stop  offset="0.9964" style="stop-color:#6165D7"/>
			</linearGradient>
			<path class="st24" d="M201,128.6c0,0.1-0.1,2.7,0.5,2.8c0.3,0.1,0.8,0,1.2,0c0.3,0,0.6-0.3,0.6-0.6l0.4-2L201,128.6z"/>
		</g>
		<path class="st6" d="M235.3,138.5c0,0-0.5,1.8,0.9,3.1s2.1,1.1,2.7,0.6C239.6,141.6,236.6,138.4,235.3,138.5z"/>
		<g>
			<linearGradient id="SVGID_22_" gradientUnits="userSpaceOnUse" x1="199.1222" y1="178.5982" x2="213.8811" y2="131.934">
				<stop  offset="0" style="stop-color:#311944"/>
				<stop  offset="1" style="stop-color:#893976"/>
			</linearGradient>
			<path class="st25" d="M234.1,143.5c-0.6,0.4-1.7,1.3-3.2,2.5c-5.3,4.2-15.2,11.7-23.7,10.5c-11-1.5-24.8-6.1-22-11.5
				c2.8-5.4,4-7.5,8.1-5.9c0,0,13.5,10.7,19.5,8.9c5-1.4,12.9-4.4,15.5-5.4c0.6-0.2,1.3-0.1,1.3-0.1s-0.4-4,1.6-4.3
				c2-0.3,1.9-3.2,2.8-1.9C234.9,137.6,236.9,141.7,234.1,143.5z"/>
			<linearGradient id="SVGID_23_" gradientUnits="userSpaceOnUse" x1="183.7845" y1="167.6794" x2="193.3245" y2="137.5162">
				<stop  offset="0" style="stop-color:#AA80F9"/>
				<stop  offset="0.9964" style="stop-color:#6165D7"/>
			</linearGradient>
			<path class="st26" d="M198.7,140.9c0,0-6.4-8.8-12.1-4c-5.7,4.8-6.4,11.3-0.3,15c6.1,3.7,8.3,3.9,8.3,3.9l6.4-13L198.7,140.9z"/>
			<path class="st2" d="M234.1,143.5c-0.6,0.4-1.7,1.3-3.2,2.5l-2.6-3.5c0.6-0.2,0.9-0.3,0.9-0.3s-0.4-4.3,1.7-4.6
				c2-0.3,2.5-2.7,3.5-1.4C235.2,137.5,236.9,141.7,234.1,143.5z"/>
		</g>
		<path class="st6" d="M172.5,195.7l-1.2-0.8c-2.1-1.4-4.8-1.5-7.1-0.2L139.7,209l8.7,3.5c0.8,0.4,1.8,0.4,2.6-0.1l21.4-11.8
			c0.9-0.5,1.5-1.4,1.5-2.4C173.9,197.3,173.4,196.3,172.5,195.7z"/>
		<path class="st2" d="M174.2,198.9c0,0.2,0,0.4-0.1,0.5c-0.2,0.8-0.7,1.5-1.4,1.9l-21.4,11.8c-0.8,0.4-1.8,0.5-2.6,0.1l-7.2-3.4
			l-1.2-0.6l24.3-13.8c2.2-1.3,4.9-1.2,7.1,0.2l1.2,0.8C173.8,196.9,174.3,197.9,174.2,198.9z"/>
		<g>
			<defs>
				<path id="SVGID_24_" d="M174.2,199.4c-0.2,0.8-0.7,1.5-1.4,1.9l-21.4,11.8c-0.8,0.4-1.8,0.5-2.6,0.1l-7.2-3.4l23.1-13.2
					c2.2-1.3,4.9-1.2,7.1,0.2l1.2,0.8C173.6,198,174,198.7,174.2,199.4z"/>
			</defs>
			<clipPath id="SVGID_25_">
				<use xlink:href="#SVGID_24_"  style="overflow:visible;"/>
			</clipPath>
			<g class="st27">
				<g>
					
						<rect x="141.1" y="202.4" transform="matrix(0.8588 -0.5124 0.5124 0.8588 -81.7008 109.1386)" class="st28" width="31.9" height="0.6"/>
				</g>
				<g>
					
						<rect x="143.4" y="204.1" transform="matrix(0.8588 -0.5124 0.5124 0.8588 -82.2278 110.5397)" class="st28" width="31.9" height="0.6"/>
				</g>
				<g>
					
						<rect x="144.9" y="206.2" transform="matrix(0.8588 -0.5124 0.5124 0.8588 -83.0845 111.5759)" class="st28" width="31.9" height="0.6"/>
				</g>
			</g>
		</g>
		<g>
			<path class="st6" d="M164.4,205.9l-6.2-9.5c-0.2-0.2-0.5-0.3-0.7-0.1l-3,1.9c-0.2,0.2-0.3,0.5-0.1,0.7l6.2,9.5
				c0.2,0.2,0.5,0.3,0.7,0.1l3-1.9C164.5,206.4,164.6,206.1,164.4,205.9z"/>
			<g>
				
					<rect x="159.9" y="195.6" transform="matrix(0.8368 -0.5476 0.5476 0.8368 -84.3706 120.6434)" class="st28" width="0.6" height="12.4"/>
				
					<rect x="158.5" y="196.5" transform="matrix(0.8368 -0.5476 0.5476 0.8368 -85.0935 120.0323)" class="st28" width="0.6" height="12.4"/>
			</g>
		</g>
		<path class="st6" d="M203.9,202.4c-0.5-0.1-1,0.1-1.1,0.6l-0.3,0.8c-0.1,0.5,0.1,1,0.6,1.1l5.5,1.7l0.8-2.6L203.9,202.4z"/>
		<g>
			<path class="st2" d="M218.3,179.6v14.7c0,0.2,0,0.4,0,0.5l-8,19.6l-5-1l-1.5-0.3l8.3-18.4v-9.8c0-1.5,0.8-3,2-3.8l3.1-2.1
				c0.3-0.2,0.5-0.2,0.8,0C218.2,179,218.3,179.3,218.3,179.6z"/>
			<g>
				<defs>
					<path id="SVGID_26_" d="M218.3,179.7v14.6c0,0.2,0,0.4,0,0.5l-8,19.6l-5.1-1l8-17.9v-9.8c0-1.5,0.8-3,2.1-3.8L218.3,179.7
						C218.3,179.8,218.3,179.8,218.3,179.7z"/>
				</defs>
				<clipPath id="SVGID_27_">
					<use xlink:href="#SVGID_26_"  style="overflow:visible;"/>
				</clipPath>
				<g class="st29">
					<g>
						<path class="st28" d="M207.1,214.6l-0.6-0.2l8.3-18.9c0.2-0.5,0.3-1.1,0.3-1.7l-1.1-12.2l0.6-0.1l1.1,12.2
							c0.1,0.7-0.1,1.4-0.3,2L207.1,214.6z"/>
					</g>
					<g>
						<path class="st28" d="M209.4,214.6l-0.6-0.2l8.3-18.9c0.2-0.5,0.3-1.1,0.3-1.6l-1-13.7l0.6,0l1,13.7c0,0.7-0.1,1.3-0.3,1.9
							L209.4,214.6z"/>
					</g>
				</g>
			</g>
		</g>
		<g>
			<path class="st6" d="M218.8,192.8l-11.3-1.7c-0.2,0-0.5,0.1-0.6,0.3l-1.4,3.6c-0.1,0.1,0,0.3,0,0.4c0.1,0.1,0.2,0.2,0.4,0.2
				l12.2,1.6c0.3,0,0.5-0.2,0.6-0.4l0.5-3.5C219.3,193.2,219.1,192.9,218.8,192.8z"/>
			<g>
				<polygon class="st28" points="219.1,194.5 206.5,192.7 206.7,192.1 219.1,193.9 				"/>
				<polygon class="st28" points="218.8,196.1 205.8,194.3 206.1,193.7 218.9,195.5 				"/>
			</g>
		</g>
	</g>
	<g>
		<path class="st30" d="M236.7,162.7c-3.5,3.2-8.8,7.7-15.5,11.9c-18.2,11.5-46.7,21.6-78.1,3c0,0-9.3-8.3,4.2-5.5
			c-1-2.1-3.2-4-4.7-5.7c-4.8-5.2-9.8-10.1-13.1-16.4c-1.9-3.6-2.5-7,0.6-9.1c0.5-0.4,1.1-0.7,1.9-1c4-1.6,8-0.2,10.9,2.9
			c0.8,0.9,1.6,1.7,2.4,2.6c5.5,6,10.8,12.1,17.6,16.8c7.2,4.9,15.4,8.2,23.9,10c17,3.7,34.8-1.5,49.7-9.9c0.1,0,0.1,0,0.2,0
			C236.7,162.6,236.7,162.7,236.7,162.7z"/>
		<path class="st31" d="M221.1,174.7c-18.2,11.5-46.7,21.6-78.1,3c0,0-9.3-8.3,4.2-5.5c-1-2.1-3.2-4-4.7-5.7
			c-4.8-5.2-9.8-10.1-13.1-16.4c-1.9-3.6-2.5-7,0.6-9.1c3.4,6.6,10.6,18.6,18.8,22.7c11.6,5.8,22.1,14.9,15.6,16.1
			c-6.5,1.1,2.7,9.3,27.7,4.2C203,181.8,213.1,178.1,221.1,174.7z"/>
	</g>
	<g>
		<g>
			
				<linearGradient id="SVGID_28_" gradientUnits="userSpaceOnUse" x1="-330.3478" y1="359.1613" x2="-334.6381" y2="412.1768" gradientTransform="matrix(0.9574 -0.2888 0.2888 0.9574 349.7985 -362.701)">
				<stop  offset="0" style="stop-color:#FF9085"/>
				<stop  offset="1" style="stop-color:#FB6FBB"/>
			</linearGradient>
			<path class="st32" d="M168,120.8c0.1,3.4-0.7,6.8-2.3,9.9c-1.5,2.9-3.7,5.5-6.5,7.6c-1.1,0.8-2.3,1.5-3.6,2.1
				c-3.7,1.7-7.7,2.2-11.5,1.7c-0.6-0.1-1.1-0.2-1.7-0.3c-3.9-0.9-7.6-2.8-10.6-5.8c-0.8-0.8-1.5-1.6-2.1-2.5
				c-1.9-2.7-3.1-5.7-3.7-8.7c-1.1-6.2,0.7-12.6,4.9-17.4c1.1-1.2,2.3-2.3,3.6-3.3c1.9-1.4,3.9-2.4,6-3c4.6-1.4,9.5-1.2,13.9,0.4
				c0.8,0.3,1.6,0.7,2.4,1.1c2.4,1.3,4.5,3,6.3,5.2c0.3,0.4,0.6,0.8,0.9,1.2C166.6,112.4,167.9,116.6,168,120.8z"/>
		</g>
		<g class="st33">
			
				<linearGradient id="SVGID_29_" gradientUnits="userSpaceOnUse" x1="-342.7574" y1="407.8143" x2="-312.8978" y2="407.8143" gradientTransform="matrix(0.9574 -0.2888 0.2888 0.9574 349.7985 -362.701)">
				<stop  offset="0" style="stop-color:#FF9085"/>
				<stop  offset="1" style="stop-color:#FB6FBB"/>
			</linearGradient>
			<path class="st34" d="M168,120.9c0.1,3.4-0.7,6.8-2.3,9.9c-1.5,2.9-3.7,5.5-6.5,7.6c-1.1,0.8-2.3,1.5-3.6,2.1
				c-3.7,1.7-7.7,2.2-11.5,1.7c5.3-5.2,7.1-9.8,7.4-13.7c0.6-7.2-3.7-11.6-1.6-18c1.1-3.3,3.7-5.9,6.9-7.9c2.4,1.3,4.5,3,6.3,5.2
				c0.3,0.4,0.6,0.8,0.9,1.2C166.7,112.6,167.9,116.8,168,120.9z"/>
		</g>
		<g>
			<defs>
				<path id="SVGID_30_" d="M168,120.8c0.1,3.4-0.7,6.8-2.3,9.9c-1.5,2.9-3.7,5.5-6.5,7.6c-1.1,0.8-2.3,1.5-3.6,2.1
					c-3.7,1.7-7.7,2.2-11.5,1.7c-0.6-0.1-1.1-0.2-1.7-0.3c-3.9-0.9-7.6-2.8-10.6-5.8c-0.8-0.8-1.5-1.6-2.1-2.5
					c-1.9-2.7-3.1-5.7-3.7-8.7c-1.1-6.2,0.7-12.6,4.9-17.4c1.1-1.2,2.3-2.3,3.6-3.3c1.9-1.4,3.9-2.4,6-3c4.6-1.4,9.5-1.2,13.9,0.4
					c0.8,0.3,1.6,0.7,2.4,1.1c2.4,1.3,4.5,3,6.3,5.2c0.3,0.4,0.6,0.8,0.9,1.2C166.6,112.4,167.9,116.6,168,120.8z"/>
			</defs>
			<clipPath id="SVGID_31_">
				<use xlink:href="#SVGID_30_"  style="overflow:visible;"/>
			</clipPath>
			<g class="st35">
				<g>
					<g>
						<g>
							<path class="st2" d="M170.1,109.8c-17.2,2.4-34.3,7.6-49.9,15.1c-0.1-0.2-0.2-0.4-0.2-0.7c15.6-7.8,32.7-12.9,50-15.1
								C170,109.3,170.1,109.6,170.1,109.8z"/>
						</g>
						<g>
							<path class="st2" d="M173.3,121.9c-15.3,7.6-32.1,12.7-49,14.8c-0.1-0.2-0.2-0.4-0.2-0.7c16.9-2.4,33.7-7.5,49-14.8
								C173.2,121.4,173.2,121.6,173.3,121.9z"/>
						</g>
					</g>
					<g class="st36">
						
							<linearGradient id="SVGID_32_" gradientUnits="userSpaceOnUse" x1="-360.3799" y1="406.3428" x2="-308.6682" y2="406.3428" gradientTransform="matrix(0.9574 -0.2888 0.2888 0.9574 349.7985 -362.701)">
							<stop  offset="0" style="stop-color:#311944"/>
							<stop  offset="1" style="stop-color:#893976"/>
						</linearGradient>
						<path class="st37" d="M171.7,115.8c-16.2,5-33.2,10.1-49.5,14.9c-0.1-0.2-0.2-0.4-0.2-0.7c16.2-5.1,33.2-10.2,49.5-14.9
							C171.6,115.4,171.7,115.6,171.7,115.8z"/>
					</g>
				</g>
				<g>
					<g>
						<g>
							<g>
								<path class="st2" d="M122.1,126.8c-0.4,0.1-0.7,0.3-1.1,0.4c-0.2,0.1-0.5,0-0.5-0.1c-0.1-0.2,0.1-0.4,0.3-0.5
									c0.3-0.1,0.7-0.3,1-0.4c0.2-0.1,0.5,0,0.6,0.2C122.5,126.5,122.3,126.7,122.1,126.8z"/>
							</g>
							<g>
								<path class="st2" d="M168.6,112.7c-0.2,0-0.4,0.1-0.6,0.1c-0.3,0.1-0.5-0.1-0.6-0.3c-0.1-0.2,0.1-0.4,0.4-0.5
									c0.2,0,0.4-0.1,0.6-0.1c0.3-0.1,0.5,0.1,0.6,0.3C169,112.4,168.8,112.6,168.6,112.7z M165.8,113.3c-0.7,0.2-1.5,0.3-2.2,0.5
									c-0.3,0.1-0.5-0.1-0.6-0.3c-0.1-0.2,0.1-0.4,0.4-0.5c0.7-0.2,1.5-0.3,2.2-0.5c0.3-0.1,0.5,0.1,0.6,0.3
									C166.2,113,166,113.2,165.8,113.3z M161.3,114.3c-0.7,0.2-1.5,0.4-2.2,0.5c-0.3,0.1-0.5-0.1-0.6-0.3
									c-0.1-0.2,0.1-0.5,0.3-0.5c0.7-0.2,1.5-0.4,2.2-0.5c0.3-0.1,0.5,0.1,0.6,0.3C161.8,114,161.6,114.3,161.3,114.3z
									 M156.9,115.4c-0.7,0.2-1.5,0.4-2.2,0.6c-0.3,0.1-0.5-0.1-0.6-0.3c-0.1-0.2,0.1-0.5,0.3-0.6c0.7-0.2,1.5-0.4,2.2-0.6
									c0.3-0.1,0.5,0.1,0.6,0.3C157.3,115.1,157.2,115.4,156.9,115.4z M152.5,116.6c-0.7,0.2-1.5,0.4-2.2,0.6
									c-0.3,0.1-0.5-0.1-0.6-0.3c-0.1-0.2,0.1-0.5,0.3-0.6c0.7-0.2,1.5-0.4,2.2-0.6c0.3-0.1,0.5,0.1,0.6,0.3
									C152.9,116.3,152.7,116.6,152.5,116.6z M148.1,117.9c-0.7,0.2-1.5,0.4-2.2,0.7c-0.3,0.1-0.5-0.1-0.6-0.3
									c-0.1-0.2,0.1-0.5,0.3-0.6c0.7-0.2,1.5-0.4,2.2-0.7c0.3-0.1,0.5,0.1,0.6,0.3C148.5,117.6,148.3,117.8,148.1,117.9z
									 M143.6,119.2c-0.7,0.2-1.5,0.5-2.2,0.7c-0.3,0.1-0.5-0.1-0.6-0.3c-0.1-0.2,0.1-0.5,0.3-0.6c0.7-0.2,1.5-0.5,2.2-0.7
									c0.3-0.1,0.5,0.1,0.6,0.3C144,118.9,143.9,119.1,143.6,119.2z M139.3,120.6c-0.7,0.2-1.5,0.5-2.2,0.7
									c-0.3,0.1-0.5,0-0.6-0.3c-0.1-0.2,0.1-0.5,0.3-0.6c0.7-0.2,1.5-0.5,2.2-0.7c0.3-0.1,0.5,0,0.6,0.3
									C139.7,120.3,139.5,120.5,139.3,120.6z M134.9,122.1c-0.7,0.2-1.4,0.5-2.2,0.8c-0.2,0.1-0.5,0-0.6-0.2
									c-0.1-0.2,0.1-0.5,0.3-0.6c0.7-0.3,1.4-0.5,2.2-0.8c0.2-0.1,0.5,0,0.6,0.3C135.3,121.7,135.2,122,134.9,122.1z M130.6,123.6
									c-0.7,0.3-1.4,0.5-2.1,0.8c-0.2,0.1-0.5,0-0.6-0.2c-0.1-0.2,0.1-0.5,0.3-0.6c0.7-0.3,1.4-0.5,2.1-0.8c0.2-0.1,0.5,0,0.6,0.2
									C131,123.2,130.8,123.5,130.6,123.6z M126.3,125.2c-0.7,0.3-1.4,0.5-2.1,0.8c-0.2,0.1-0.5,0-0.6-0.2
									c-0.1-0.2,0.1-0.4,0.3-0.5c0.7-0.3,1.4-0.6,2.1-0.8c0.2-0.1,0.5,0,0.6,0.2C126.7,124.8,126.6,125.1,126.3,125.2z"/>
							</g>
							<g>
								<path class="st2" d="M170.8,112.2c-0.4,0.1-0.7,0.2-1.1,0.2c-0.3,0.1-0.5-0.1-0.6-0.3c-0.1-0.2,0.1-0.4,0.4-0.4
									c0.4-0.1,0.7-0.1,1.1-0.2c0.3,0,0.5,0.1,0.5,0.2C171.2,112,171,112.2,170.8,112.2z"/>
							</g>
						</g>
						<g>
							<g>
								<path class="st2" d="M122.6,128.4c-0.4,0.1-0.7,0.2-1.1,0.4c-0.2,0.1-0.5,0-0.6-0.2c-0.1-0.2,0.1-0.4,0.3-0.5
									c0.4-0.1,0.7-0.3,1.1-0.4c0.2-0.1,0.5,0,0.6,0.2C123,128.1,122.9,128.3,122.6,128.4z"/>
							</g>
							<g>
								<path class="st2" d="M169,114.4c-0.2,0-0.4,0.1-0.5,0.1c-0.3,0.1-0.5,0-0.6-0.2c-0.1-0.2,0.1-0.4,0.4-0.5
									c0.2,0,0.4-0.1,0.5-0.1c0.3-0.1,0.5,0,0.6,0.2C169.4,114.1,169.3,114.3,169,114.4z M166.3,115.1c-0.7,0.2-1.5,0.4-2.2,0.6
									c-0.3,0.1-0.5-0.1-0.6-0.3c-0.1-0.2,0.1-0.4,0.4-0.5c0.7-0.2,1.5-0.4,2.2-0.6c0.3-0.1,0.5,0.1,0.6,0.3
									C166.7,114.8,166.5,115,166.3,115.1z M161.9,116.3c-0.7,0.2-1.5,0.4-2.2,0.6c-0.3,0.1-0.5-0.1-0.6-0.3
									c-0.1-0.2,0.1-0.5,0.3-0.5c0.7-0.2,1.5-0.4,2.2-0.6c0.3-0.1,0.5,0.1,0.6,0.3C162.3,116,162.1,116.2,161.9,116.3z
									 M157.5,117.5c-0.7,0.2-1.5,0.4-2.2,0.6c-0.3,0.1-0.5-0.1-0.6-0.3c-0.1-0.2,0.1-0.5,0.3-0.6c0.7-0.2,1.5-0.4,2.2-0.6
									c0.3-0.1,0.5,0.1,0.6,0.3C157.9,117.1,157.7,117.4,157.5,117.5z M153.1,118.7c-0.7,0.2-1.5,0.4-2.2,0.6
									c-0.3,0.1-0.5-0.1-0.6-0.3c-0.1-0.2,0.1-0.5,0.3-0.6c0.7-0.2,1.5-0.4,2.2-0.6c0.3-0.1,0.5,0.1,0.6,0.3
									C153.5,118.4,153.3,118.6,153.1,118.7z M148.7,120c-0.7,0.2-1.5,0.4-2.2,0.7c-0.3,0.1-0.5-0.1-0.6-0.3
									c-0.1-0.2,0.1-0.5,0.3-0.6c0.7-0.2,1.5-0.4,2.2-0.7c0.3-0.1,0.5,0.1,0.6,0.3C149.1,119.7,148.9,119.9,148.7,120z
									 M144.3,121.3c-0.7,0.2-1.5,0.4-2.2,0.7c-0.3,0.1-0.5-0.1-0.6-0.3c-0.1-0.2,0.1-0.5,0.3-0.6c0.7-0.2,1.5-0.5,2.2-0.7
									c0.3-0.1,0.5,0.1,0.6,0.3C144.7,121,144.5,121.2,144.3,121.3z M139.9,122.7c-0.7,0.2-1.5,0.5-2.2,0.7
									c-0.3,0.1-0.5,0-0.6-0.3c-0.1-0.2,0.1-0.5,0.3-0.6c0.7-0.2,1.5-0.5,2.2-0.7c0.3-0.1,0.5,0,0.6,0.3
									C140.3,122.3,140.2,122.6,139.9,122.7z M135.6,124.1c-0.7,0.2-1.4,0.5-2.2,0.7c-0.2,0.1-0.5,0-0.6-0.3
									c-0.1-0.2,0.1-0.5,0.3-0.6c0.7-0.2,1.4-0.5,2.2-0.7c0.3-0.1,0.5,0,0.6,0.3C135.9,123.7,135.8,124,135.6,124.1z M131.2,125.5
									c-0.7,0.2-1.4,0.5-2.2,0.7c-0.2,0.1-0.5,0-0.6-0.2c-0.1-0.2,0.1-0.5,0.3-0.5c0.7-0.3,1.4-0.5,2.2-0.7c0.2-0.1,0.5,0,0.6,0.2
									C131.6,125.2,131.5,125.4,131.2,125.5z M126.9,126.9c-0.7,0.2-1.4,0.5-2.1,0.7c-0.2,0.1-0.5,0-0.6-0.2
									c-0.1-0.2,0.1-0.4,0.3-0.5c0.7-0.3,1.4-0.5,2.1-0.8c0.2-0.1,0.5,0,0.6,0.2C127.3,126.6,127.2,126.9,126.9,126.9z"/>
							</g>
							<g>
								<path class="st2" d="M171.2,113.8c-0.4,0.1-0.7,0.2-1.1,0.3c-0.3,0.1-0.5,0-0.5-0.2c-0.1-0.2,0.1-0.4,0.4-0.5
									c0.4-0.1,0.7-0.2,1.1-0.3c0.3-0.1,0.5,0,0.5,0.2C171.6,113.6,171.4,113.8,171.2,113.8z"/>
							</g>
						</g>
					</g>
					<g>
						<g>
							<g>
								<path class="st2" d="M124,132.3c-0.4,0.1-0.7,0.2-1.1,0.3c-0.3,0.1-0.5,0-0.6-0.2c-0.1-0.2,0.1-0.4,0.3-0.4
									c0.4-0.1,0.7-0.2,1.1-0.3c0.2-0.1,0.5,0,0.6,0.2C124.4,132.1,124.2,132.3,124,132.3z"/>
							</g>
							<g>
								<path class="st2" d="M170.1,118.5c-0.2,0.1-0.4,0.1-0.5,0.2c-0.2,0.1-0.5,0-0.5-0.2c-0.1-0.2,0.1-0.4,0.3-0.5
									c0.2-0.1,0.4-0.1,0.5-0.2c0.2-0.1,0.5,0,0.5,0.2C170.5,118.2,170.3,118.4,170.1,118.5z M167.4,119.4
									c-0.7,0.2-1.4,0.5-2.1,0.7c-0.2,0.1-0.5,0-0.6-0.2c-0.1-0.2,0.1-0.5,0.3-0.5c0.7-0.2,1.4-0.5,2.1-0.7c0.2-0.1,0.5,0,0.5,0.2
									C167.8,119.1,167.7,119.3,167.4,119.4z M163.2,120.9c-0.7,0.2-1.4,0.5-2.1,0.7c-0.2,0.1-0.5,0-0.6-0.3
									c-0.1-0.2,0.1-0.5,0.3-0.6c0.7-0.2,1.4-0.5,2.2-0.7c0.2-0.1,0.5,0,0.6,0.3C163.6,120.6,163.4,120.8,163.2,120.9z
									 M158.9,122.3c-0.7,0.2-1.4,0.5-2.2,0.7c-0.2,0.1-0.5,0-0.6-0.3c-0.1-0.2,0.1-0.5,0.3-0.6c0.7-0.2,1.4-0.5,2.2-0.7
									c0.2-0.1,0.5,0,0.6,0.3C159.3,122,159.1,122.3,158.9,122.3z M154.6,123.7c-0.7,0.2-1.4,0.5-2.2,0.7
									c-0.3,0.1-0.5-0.1-0.6-0.3c-0.1-0.2,0.1-0.5,0.3-0.6c0.7-0.2,1.5-0.5,2.2-0.7c0.3-0.1,0.5,0.1,0.6,0.3
									C154.9,123.4,154.8,123.7,154.6,123.7z M150.2,125.1c-0.7,0.2-1.5,0.4-2.2,0.7c-0.3,0.1-0.5-0.1-0.6-0.3
									c-0.1-0.2,0.1-0.5,0.3-0.6c0.7-0.2,1.5-0.4,2.2-0.7c0.3-0.1,0.5,0.1,0.6,0.3C150.6,124.8,150.5,125,150.2,125.1z
									 M145.8,126.4c-0.7,0.2-1.5,0.4-2.2,0.6c-0.3,0.1-0.5-0.1-0.6-0.3c-0.1-0.2,0.1-0.5,0.3-0.6c0.7-0.2,1.5-0.4,2.2-0.6
									c0.3-0.1,0.5,0.1,0.6,0.3C146.2,126.1,146.1,126.3,145.8,126.4z M141.5,127.7c-0.7,0.2-1.5,0.4-2.2,0.6
									c-0.3,0.1-0.5-0.1-0.6-0.3c-0.1-0.2,0.1-0.5,0.3-0.6c0.7-0.2,1.5-0.4,2.2-0.6c0.3-0.1,0.5,0.1,0.6,0.3
									C141.9,127.4,141.7,127.6,141.5,127.7z M137.1,128.9c-0.7,0.2-1.5,0.4-2.2,0.6c-0.3,0.1-0.5-0.1-0.6-0.3
									c-0.1-0.2,0.1-0.5,0.3-0.5c0.7-0.2,1.5-0.4,2.2-0.6c0.3-0.1,0.5,0.1,0.6,0.3C137.5,128.6,137.3,128.9,137.1,128.9z
									 M132.7,130.1c-0.7,0.2-1.5,0.4-2.2,0.6c-0.3,0.1-0.5-0.1-0.6-0.3c-0.1-0.2,0.1-0.4,0.3-0.5c0.7-0.2,1.5-0.4,2.2-0.6
									c0.3-0.1,0.5,0.1,0.6,0.3C133.1,129.8,133,130,132.7,130.1z M128.3,131.2c-0.7,0.2-1.5,0.4-2.2,0.5c-0.3,0.1-0.5,0-0.6-0.2
									c-0.1-0.2,0.1-0.4,0.3-0.5c0.7-0.2,1.4-0.4,2.2-0.6c0.3-0.1,0.5,0,0.6,0.3C128.7,131,128.6,131.2,128.3,131.2z"/>
							</g>
							<g>
								<path class="st2" d="M172.2,117.7c-0.4,0.1-0.7,0.3-1.1,0.4c-0.2,0.1-0.5,0-0.5-0.2c-0.1-0.2,0.1-0.4,0.4-0.5
									c0.4-0.1,0.7-0.2,1.1-0.4c0.2-0.1,0.5,0,0.5,0.2C172.6,117.4,172.4,117.6,172.2,117.7z"/>
							</g>
						</g>
						<g>
							<g>
								<path class="st2" d="M124.5,133.9c-0.4,0.1-0.7,0.1-1.1,0.2c-0.3,0-0.5-0.1-0.6-0.2c-0.1-0.2,0.1-0.4,0.3-0.4
									c0.4-0.1,0.7-0.2,1.1-0.2c0.3-0.1,0.5,0.1,0.6,0.2C124.9,133.7,124.8,133.9,124.5,133.9z"/>
							</g>
							<g>
								<path class="st2" d="M170.5,120.2c-0.2,0.1-0.3,0.1-0.5,0.2c-0.2,0.1-0.5,0-0.5-0.2c-0.1-0.2,0.1-0.4,0.3-0.5
									c0.2-0.1,0.3-0.1,0.5-0.2c0.2-0.1,0.5,0,0.5,0.2C170.9,119.8,170.8,120.1,170.5,120.2z M167.9,121.2
									c-0.7,0.3-1.4,0.5-2.1,0.8c-0.2,0.1-0.5,0-0.5-0.2c-0.1-0.2,0.1-0.5,0.3-0.6c0.7-0.3,1.4-0.5,2.1-0.8c0.2-0.1,0.5,0,0.5,0.2
									C168.3,120.9,168.2,121.1,167.9,121.2z M163.7,122.8c-0.7,0.3-1.4,0.5-2.1,0.8c-0.2,0.1-0.5,0-0.6-0.3
									c-0.1-0.2,0.1-0.5,0.3-0.6c0.7-0.2,1.4-0.5,2.1-0.8c0.2-0.1,0.5,0,0.6,0.2C164.1,122.5,164,122.7,163.7,122.8z M159.5,124.4
									c-0.7,0.3-1.4,0.5-2.1,0.7c-0.2,0.1-0.5,0-0.6-0.3c-0.1-0.2,0.1-0.5,0.3-0.6c0.7-0.2,1.4-0.5,2.1-0.7c0.2-0.1,0.5,0,0.6,0.3
									C159.8,124,159.7,124.3,159.5,124.4z M155.2,125.8c-0.7,0.2-1.4,0.5-2.2,0.7c-0.2,0.1-0.5-0.1-0.6-0.3
									c-0.1-0.2,0.1-0.5,0.3-0.6c0.7-0.2,1.4-0.5,2.2-0.7c0.2-0.1,0.5,0,0.6,0.3C155.6,125.5,155.4,125.7,155.2,125.8z
									 M150.8,127.2c-0.7,0.2-1.4,0.4-2.2,0.7c-0.2,0.1-0.5-0.1-0.6-0.3c-0.1-0.2,0.1-0.5,0.3-0.6c0.7-0.2,1.5-0.4,2.2-0.7
									c0.3-0.1,0.5,0.1,0.6,0.3C151.2,126.9,151.1,127.1,150.8,127.2z M146.5,128.5c-0.7,0.2-1.5,0.4-2.2,0.6
									c-0.3,0.1-0.5-0.1-0.6-0.3c-0.1-0.2,0.1-0.5,0.3-0.6c0.7-0.2,1.5-0.4,2.2-0.6c0.3-0.1,0.5,0.1,0.6,0.3
									C146.9,128.2,146.7,128.5,146.5,128.5z M142.1,129.8c-0.7,0.2-1.5,0.4-2.2,0.6c-0.3,0.1-0.5-0.1-0.6-0.3
									c-0.1-0.2,0.1-0.5,0.3-0.5c0.7-0.2,1.5-0.4,2.2-0.6c0.3-0.1,0.5,0.1,0.6,0.3C142.5,129.5,142.4,129.7,142.1,129.8z
									 M137.7,130.9c-0.7,0.2-1.5,0.4-2.2,0.6c-0.3,0.1-0.5-0.1-0.6-0.3c-0.1-0.2,0.1-0.5,0.3-0.5c0.7-0.2,1.5-0.4,2.2-0.6
									c0.3-0.1,0.5,0.1,0.6,0.3C138.1,130.6,138,130.9,137.7,130.9z M133.3,132c-0.7,0.2-1.5,0.3-2.2,0.5
									c-0.3,0.1-0.5-0.1-0.6-0.3c-0.1-0.2,0.1-0.4,0.3-0.5c0.7-0.2,1.5-0.4,2.2-0.5c0.3-0.1,0.5,0.1,0.6,0.3
									C133.7,131.7,133.6,132,133.3,132z M128.9,133c-0.7,0.2-1.5,0.3-2.2,0.5c-0.3,0.1-0.5-0.1-0.6-0.3c-0.1-0.2,0.1-0.4,0.3-0.5
									c0.7-0.2,1.5-0.3,2.2-0.5c0.3-0.1,0.5,0.1,0.6,0.3C129.3,132.8,129.2,133,128.9,133z"/>
							</g>
							<g>
								<path class="st2" d="M172.6,119.3c-0.3,0.1-0.7,0.3-1,0.4c-0.2,0.1-0.5,0-0.5-0.2c-0.1-0.2,0.1-0.4,0.3-0.5
									c0.3-0.1,0.7-0.3,1-0.4c0.2-0.1,0.5,0,0.5,0.2C173,119,172.9,119.2,172.6,119.3z"/>
							</g>
						</g>
					</g>
				</g>
			</g>
		</g>
	</g>
</g>
<g>
	<path class="st2" d="M256.3,144.1c10.9-2.5,19.5-11.1,22-22c-1-1.2-2.2-2.1-3.5-3c-2.9,10.3-11.1,18.5-21.4,21.4
		C254.2,141.8,255.2,143,256.3,144.1z"/>
	<path class="st2" d="M282.3,132.4c0-3.3-1-6.3-2.7-8.8c-2.9,10.5-11.2,18.8-21.7,21.7c2.5,1.7,5.5,2.7,8.8,2.7
		C275.3,148,282.3,141,282.3,132.4z"/>
	<path class="st2" d="M266.7,116.8c-8.6,0-15.6,7-15.6,15.6c0,2.4,0.6,4.7,1.6,6.7c10.1-2.7,18.1-10.7,20.8-20.8
		C271.4,117.4,269.1,116.8,266.7,116.8z"/>
</g>
<g>
	<path class="st2" d="M159.5,43.9c-1.4,0.5-3,0.5-4.4-0.1c-0.1,2.1,0.1,6.9,1.1,17.1h2.3C159.1,55,159.5,49.3,159.5,43.9L159.5,43.9
		z"/>
	<path class="st2" d="M151.7,36.7h11.4C162.1,30.3,152.8,30.3,151.7,36.7z"/>
	<path class="st2" d="M152.2,40c0,0.1,0,0.1,0,0.2c1.9,4.1,7.8,4.4,10.2,0.5c0-0.2,0-0.5,0.1-0.6H152.2z"/>
	<path class="st2" d="M162.8,40c-0.1,0.2-0.2,0.5-0.3,0.6c-0.4,6.5-1.5,14.2-3.8,20.2c0.9,0,0.9,0,1.2,0c1.2-2.7,4.9-12.1,5-20.9
		C164.4,40.1,164.3,40,162.8,40z"/>
	<path class="st2" d="M150,40c0,8.8,3.8,18.3,5,20.9c0.1,0,0.1,0,0.2,0h1c-2.8-7.2-3.6-16.4-3.8-20.8c-0.1-0.1-0.1-0.1-0.1-0.2
		C150.3,40,150.3,40.1,150,40z"/>
	<path class="st2" d="M164.4,37.5h-14c-1.2,0-1.2,1.7,0,1.7h14C165.5,39.2,165.5,37.5,164.4,37.5z"/>
	<path class="st2" d="M159.9,62.9c0,0,0-0.1,0-0.2V62c0-0.2-0.2-0.3-0.3-0.3h-4.5c-0.2,0-0.3,0.2-0.3,0.3v0.8c0,0.1,0,0.1,0,0.2
		c-0.8,0.5-3.5,2.2-4.7,5c-0.1,0.2,0.1,0.5,0.3,0.5c0.9,0.2,3,0.7,6.9,0.7c3.9,0.1,6.1-0.4,6.9-0.7c0.2-0.1,0.4-0.3,0.3-0.5
		C163.4,65.1,160.7,63.4,159.9,62.9z M151.2,67.4c-0.5,0-0.5-0.5-0.2-1c0.2-0.3,0.5-0.6,0.8-0.7s0.5,0.1,0.5,0.4
		C152.4,66.7,151.7,67.4,151.2,67.4z M153.4,67.6c-0.5,0-0.8-0.5-0.7-0.9c0.1-0.5,0.5-0.8,0.9-0.9c0.5-0.1,0.9,0.2,0.9,0.7
		C154.5,67.1,153.9,67.6,153.4,67.6z M156,67.8c-0.5,0-0.9-0.5-0.9-0.9c0-0.5,0.5-0.9,0.9-0.9c0.5,0,0.9,0.5,0.9,0.9
		C157,67.3,156.5,67.8,156,67.8z M158.8,67.8c-0.5,0-0.9-0.5-0.9-0.9c0-0.5,0.5-0.9,0.9-0.9c0.5,0,0.9,0.5,0.9,0.9
		C159.7,67.3,159.3,67.8,158.8,67.8z M161.4,67.6c-0.5,0-1.1-0.5-1.1-1.1c0-0.5,0.4-0.8,0.9-0.7c0.4,0.1,0.8,0.5,0.9,0.9
		C162.2,67.2,161.9,67.6,161.4,67.6z M163.5,67.4c-0.5,0-1.2-0.7-1.2-1.3c0-0.4,0.3-0.5,0.5-0.4c0.3,0.1,0.6,0.4,0.8,0.7
		C164,66.9,164,67.4,163.5,67.4z"/>
</g>
<path class="st2" d="M100.6,156.1l0.5-14.2h-1.4v12.4c0.2,0.1,0.3,0.3,0.3,0.5l0.1,0.5C100.3,155.6,100.4,155.9,100.6,156.1z"/>
<path class="st2" d="M98.1,154.8c0.1-0.2,0.2-0.4,0.3-0.5v-12.4H97l0.5,14.2c0.2-0.2,0.4-0.5,0.5-0.8L98.1,154.8z"/>
<path class="st2" d="M96.1,156.7C96.2,156.7,96.2,156.7,96.1,156.7l-0.5-14.8h-2.5l1.1,13.1C94.4,155.9,95.2,156.7,96.1,156.7z"/>
<path class="st2" d="M103.8,155l1.1-13.1h-2.5l-0.5,14.8c0,0,0,0,0,0C103,156.7,103.7,155.9,103.8,155z"/>
<path class="st2" d="M92.3,131.1h3l-0.2-5.4C93.4,127,92.3,129,92.3,131.1z"/>
<path class="st2" d="M98.4,131.1v-6.7c-0.7,0.1-1.3,0.2-2,0.5l0.2,6.2H98.4z"/>
<path class="st2" d="M101.5,131.1l0.2-6.2c-0.6-0.3-1.3-0.4-2-0.5v6.7H101.5z"/>
<path class="st2" d="M103,125.7l-0.2,5.4h3C105.8,129,104.8,127,103,125.7z"/>
<path class="st2" d="M106.1,134.8c0.2-0.2,0.4-0.6,0.4-0.9c0-0.5-0.3-1-0.7-1.2c-0.2-0.1-0.3-0.1-0.5-0.1H92.9c-0.2,0-0.4,0-0.5,0.1
	c-0.1,0.1-0.2,0.2-0.3,0.3c-0.2,0.2-0.4,0.6-0.4,0.9c0,0.6,0.4,1.2,0.9,1.3c0.1,0,0.2,0,0.3,0c-0.1,0-0.2,0-0.3,0
	c-0.2,0.1-0.4,0.2-0.6,0.4c-0.2,0.2-0.4,0.6-0.4,0.9c0,0.7,0.5,1.3,1.2,1.3c0,0,0,0,0.1,0H93c-0.4,0-0.7,0.1-0.9,0.4
	c-0.2,0.2-0.4,0.6-0.4,0.9c0,0.7,0.6,1.3,1.3,1.3h12.1c0.4,0,0.7-0.1,0.9-0.4c0.2-0.2,0.4-0.6,0.4-0.9c0-0.7-0.6-1.3-1.3-1.3h0.1
	c0,0,0,0,0.1,0c0.3,0,0.6-0.2,0.8-0.4c0.2-0.2,0.4-0.6,0.4-0.9c0-0.6-0.4-1.2-0.9-1.3c-0.1,0-0.2,0-0.3,0c0.1,0,0.2,0,0.3,0
	C105.8,135.1,106,134.9,106.1,134.8z"/>
<path class="st2" d="M83.2,156.1l0.5-14.2h-1.4v12.4c0.2,0.1,0.3,0.3,0.3,0.5l0.1,0.5C82.8,155.5,83,155.8,83.2,156.1z"/>
<path class="st2" d="M80.6,154.7c0.1-0.2,0.2-0.4,0.3-0.5v-12.4h-1.4l0.5,14.2c0.2-0.2,0.4-0.5,0.5-0.8L80.6,154.7z"/>
<path class="st2" d="M78.7,156.6C78.7,156.6,78.7,156.6,78.7,156.6l-0.5-14.8h-2.5l1.1,13.1C76.9,155.9,77.7,156.6,78.7,156.6z"/>
<path class="st2" d="M86.4,154.9l1.1-13.1H85l-0.5,14.8c0,0,0,0,0,0C85.5,156.6,86.3,155.9,86.4,154.9z"/>
<path class="st2" d="M77.6,125.7c-1.7,1.3-2.8,3.3-2.8,5.4h3L77.6,125.7z"/>
<path class="st2" d="M80.9,124.4c-0.7,0.1-1.3,0.2-2,0.5l0.2,6.2h1.8V124.4z"/>
<path class="st2" d="M82.3,124.4v6.7H84l0.2-6.2C83.6,124.7,82.9,124.5,82.3,124.4z"/>
<path class="st2" d="M85.5,125.7l-0.2,5.4h3C88.3,128.9,87.3,126.9,85.5,125.7z"/>
<path class="st2" d="M88.6,134.7c0.2-0.2,0.4-0.6,0.4-0.9c0-0.5-0.3-1-0.7-1.2c-0.2-0.1-0.3-0.1-0.5-0.1H75.4c-0.2,0-0.4,0-0.5,0.1
	c-0.1,0.1-0.2,0.2-0.3,0.3c-0.2,0.2-0.4,0.6-0.4,0.9c0,0.6,0.4,1.2,0.9,1.3c0.1,0,0.2,0,0.3,0c-0.1,0-0.2,0-0.3,0
	c-0.2,0.1-0.4,0.2-0.6,0.4c-0.2,0.2-0.4,0.6-0.4,0.9c0,0.7,0.5,1.3,1.2,1.3c0,0,0,0,0.1,0h0.1c-0.4,0-0.7,0.1-0.9,0.4
	c-0.2,0.2-0.4,0.6-0.4,0.9c0,0.7,0.6,1.3,1.3,1.3h12.1c0.4,0,0.7-0.1,0.9-0.4c0.2-0.2,0.4-0.6,0.4-0.9c0-0.7-0.6-1.3-1.3-1.3h0.1
	c0,0,0,0,0.1,0c0.3,0,0.6-0.2,0.8-0.4c0.2-0.2,0.4-0.6,0.4-0.9c0-0.6-0.4-1.2-0.9-1.3c-0.1,0-0.2,0-0.3,0c0.1,0,0.2,0,0.3,0
	C88.3,135,88.5,134.9,88.6,134.7z"/>
</svg>
