<?xml version="1.0" encoding="utf-8"?>
<!-- Generator: Adobe Illustrator 24.2.0, SVG Export Plug-In . SVG Version: 6.00 Build 0)  -->
<svg version="1.1" id="Layer_1" xmlns="http://www.w3.org/2000/svg" xmlns:xlink="http://www.w3.org/1999/xlink" x="0px" y="0px"
	 viewBox="0 0 383.2 243.3" style="enable-background:new 0 0 383.2 243.3;" xml:space="preserve">
<style type="text/css">
	.st0{fill:#F4F7FA;}
	.st1{fill:#BFC8D6;}
	.st2{fill:#FFFFFF;}
	.st3{fill:url(#SVGID_1_);}
	.st4{fill:url(#SVGID_2_);}
	.st5{fill:url(#SVGID_3_);}
	.st6{clip-path:url(#SVGID_6_);}
	.st7{fill:#FCFDFE;}
	.st8{clip-path:url(#SVGID_9_);}
	.st9{fill:url(#SVGID_10_);}
	.st10{fill:url(#SVGID_11_);}
	.st11{fill:url(#SVGID_12_);}
	.st12{fill:url(#SVGID_13_);}
	.st13{fill:url(#SVGID_14_);}
	.st14{fill:url(#SVGID_15_);}
	.st15{fill:url(#SVGID_16_);}
	.st16{opacity:0.6;fill:#FFFFFF;}
	.st17{filter:url(#Adobe_OpacityMaskFilter);}
	.st18{fill:url(#SVGID_18_);}
	.st19{opacity:0.56;mask:url(#SVGID_17_);fill:#FFFFFF;}
	.st20{fill:#97A6B7;}
	.st21{fill:#D8DEE8;}
	.st22{fill:url(#SVGID_19_);}
	.st23{opacity:0.3;fill:#FFFFFF;}
	.st24{opacity:0.4;fill:#D8DEE8;}
	.st25{fill:url(#SVGID_20_);}
	.st26{fill:url(#SVGID_21_);}
	.st27{fill:url(#SVGID_22_);}
	.st28{fill:url(#SVGID_23_);}
</style>
<g>
	<path class="st0" d="M281.1,163.2c-5.9,22.6-22.4,43.5-62.5,54.3c-14.5,3.9-31.3,5.8-46.3,4.6c-22.1-1.7-45.3-11.7-63.7-23
		c-12.7-7.8-17.8-18.4-19.6-30.3c-1.1-7.4-1-15.3-0.6-23.4c0.5-12.2-1.4-24.5-4.3-36.4c-4.4-18.3-0.8-37.5,10.1-53.2
		s28.2-26.7,47.8-30.4c33.1-6.2,66.7-2.1,66.7-2.1c44.3,4.6,66.7,48.5,72.1,84.3C283.4,124,286,144.2,281.1,163.2z"/>
	<g>
		<g>
			<path class="st1" d="M184.3,163.6c-26,0-47.1-21.1-47.1-47.1s21.1-47.1,47.1-47.1s47.1,21.1,47.1,47.1S210.3,163.6,184.3,163.6z
				 M184.3,70.5c-25.4,0-46,20.6-46,46s20.6,46,46,46s46-20.6,46-46S209.6,70.5,184.3,70.5z"/>
		</g>
		<g>
			<path class="st1" d="M184.3,183.6c-17.9,0-34.7-7-47.4-19.6c-12.7-12.7-19.6-29.5-19.6-47.4s7-34.7,19.6-47.4
				c12.7-12.7,29.5-19.6,47.4-19.6s34.7,7,47.4,19.6c12.7,12.7,19.6,29.5,19.6,47.4s-7,34.7-19.6,47.4
				C219,176.6,202.2,183.6,184.3,183.6z M184.3,50.6c-36.4,0-65.9,29.6-65.9,65.9s29.6,65.9,65.9,65.9s65.9-29.6,65.9-65.9
				S220.6,50.6,184.3,50.6z"/>
		</g>
		<g>
			<path class="st1" d="M184.3,202.6c-23,0-44.6-8.9-60.8-25.2c-16.2-16.2-25.2-37.8-25.2-60.8s8.9-44.6,25.2-60.8
				c16.2-16.2,37.8-25.2,60.8-25.2s44.6,8.9,60.8,25.2c16.2,16.2,25.2,37.8,25.2,60.8s-8.9,44.6-25.2,60.8
				C228.9,193.6,207.3,202.6,184.3,202.6z M184.3,31.6c-46.8,0-84.9,38.1-84.9,84.9s38.1,84.9,84.9,84.9s84.9-38.1,84.9-84.9
				S231.1,31.6,184.3,31.6z"/>
		</g>
	</g>
	<g>
		<g>
			<g>
				<g>
					<circle class="st2" cx="91.7" cy="141.2" r="33.3"/>
					
						<linearGradient id="SVGID_1_" gradientUnits="userSpaceOnUse" x1="70.3506" y1="141.3942" x2="145.0124" y2="6.0397" gradientTransform="matrix(1 0 0 -1 0 243.8898)">
						<stop  offset="3.597120e-03" style="stop-color:#E38DDD"/>
						<stop  offset="1" style="stop-color:#9571F6"/>
					</linearGradient>
					<circle class="st3" cx="91.7" cy="141.2" r="29.6"/>
				</g>
			</g>
		</g>
	</g>
	<g>
		<g>
			<path class="st2" d="M81.9,141.4c0,1.9-1.6,3.5-3.6,3.4c-2,0-3.7-1.7-3.7-3.6s1.6-3.5,3.7-3.4C80.3,137.9,81.9,139.5,81.9,141.4z
				"/>
			<path class="st2" d="M94.1,141.7c0,1.9-1.6,3.4-3.5,3.4c-2,0-3.6-1.6-3.6-3.6c0-1.9,1.6-3.4,3.6-3.4
				C92.5,138.2,94.1,139.8,94.1,141.7z"/>
			<path class="st2" d="M106,142c0,1.9-1.5,3.4-3.5,3.3c-1.9,0-3.5-1.6-3.5-3.5c0-1.9,1.6-3.4,3.5-3.3
				C104.5,138.6,106,140.2,106,142z"/>
		</g>
	</g>
</g>
<g>
	<g>
		<g>
			<circle class="st2" cx="266.9" cy="130.9" r="31"/>
			
				<linearGradient id="SVGID_2_" gradientUnits="userSpaceOnUse" x1="247.0339" y1="149.0051" x2="316.4838" y2="23.0992" gradientTransform="matrix(1 0 0 -1 0 243.8898)">
				<stop  offset="0" style="stop-color:#FF9085"/>
				<stop  offset="1" style="stop-color:#FB6FBB"/>
			</linearGradient>
			<circle class="st4" cx="266.9" cy="130.9" r="27.5"/>
		</g>
	</g>
</g>
<g>
	<g>
		<g>
			<circle class="st2" cx="157.6" cy="51.8" r="31.5"/>
			
				<linearGradient id="SVGID_3_" gradientUnits="userSpaceOnUse" x1="137.4436" y1="228.6314" x2="207.9826" y2="100.7511" gradientTransform="matrix(1 0 0 -1 0 243.8898)">
				<stop  offset="0" style="stop-color:#FFC444"/>
				<stop  offset="0.9964" style="stop-color:#F36F56"/>
			</linearGradient>
			<circle class="st5" cx="157.6" cy="51.8" r="28"/>
		</g>
	</g>
</g>
<g>
	<g>
		<g>
			<g>
				<g>
					<g>
						<defs>
							<path id="SVGID_4_" d="M158.8,218.1c-0.9,2.2-2.7,5.3-4.6,8.9h39.8c-6.1-11.2-14-22.8-7.8-44.8c2.9-10.3,11.9-29,5.5-39.6
								c-7.2-12.1-17.1-5-21.2-14.6c-6.5-15-21.4-24-34.5-14.1c-13,9.7-8.5,37.7,14.6,65.6C164.9,201.4,163.8,206.4,158.8,218.1z"/>
						</defs>
						<linearGradient id="SVGID_5_" gradientUnits="userSpaceOnUse" x1="170.2936" y1="115.6837" x2="154.4871" y2="227.065">
							<stop  offset="0" style="stop-color:#FFC444"/>
							<stop  offset="0.9964" style="stop-color:#F36F56"/>
						</linearGradient>
						<use xlink:href="#SVGID_4_"  style="overflow:visible;fill:url(#SVGID_5_);"/>
						<clipPath id="SVGID_6_">
							<use xlink:href="#SVGID_4_"  style="overflow:visible;"/>
						</clipPath>
						<g class="st6">
							<g>
								<path class="st7" d="M174.9,224.7c-0.5-5.2-1.2-10-1.9-15.1l-0.2-1.7c-0.5-2.4-0.9-4.9-1.4-7.2c-0.9-5.3-1.8-10.3-3.5-15.5
									c-0.1-0.3-0.1-0.6-0.2-0.9c-0.2-1.1-0.3-2.3-1.2-3.4l0,0c-6.8-27.9-19.4-54.8-37.5-80l0.2-0.1
									c18.1,25.3,30.8,52.2,37.6,80.1c0.9,1.1,1,2.3,1.2,3.5c0,0.3,0.1,0.6,0.2,0.9c1.7,5.2,2.6,10.2,3.5,15.5
									c0.4,2.3,0.9,4.8,1.4,7.2l0.2,1.7c0.7,5.1,1.4,10,1.9,15.1L174.9,224.7z"/>
								<path class="st7" d="M171,199.7c-2.2-13.3,2.6-30.2,6.9-42c4.7-12.8,10-22.6,10.1-22.7l0.2,0.1c-0.1,0.1-5.4,9.9-10.1,22.6
									c-4.4,11.8-9.1,28.6-6.9,41.9L171,199.7z"/>
								<path class="st7" d="M153.6,142.9c-3.1-14-3.1-29.4-3.1-34.5c0-1,0-1.6,0-1.7l0.2,0c0,0.1,0,0.6,0,1.8
									c0,5.1,0,20.5,3.1,34.4L153.6,142.9z"/>
								<path class="st7" d="M162,164.8c-6.5-11.5-33.1-18.7-33.4-18.8l0.1-0.2c0.3,0.1,26.9,7.3,33.5,18.9L162,164.8z"/>
							</g>
						</g>
					</g>
				</g>
				<g>
					<g>
						<defs>
							<path id="SVGID_7_" d="M152,173.6c0.2,18.3,9,12.3,17.2,14.1c9.4,13.6,10.3,26.2-3.7,37.1l-15.6-2.3
								c-5.8-0.3-12.6-2-12.2-9.8c0.4-8.7,2.5-14.3-7.3-18.5c-9.8-4.3-14.1-12.1-10.1-21c4.2-9.4-5.6-22,1.5-28.2
								C134.2,134,151.8,154.6,152,173.6z"/>
						</defs>
						<linearGradient id="SVGID_8_" gradientUnits="userSpaceOnUse" x1="126.1601" y1="156.8793" x2="185.3862" y2="254.3807">
							<stop  offset="3.597120e-03" style="stop-color:#E38DDD"/>
							<stop  offset="1" style="stop-color:#9571F6"/>
						</linearGradient>
						<use xlink:href="#SVGID_7_"  style="overflow:visible;fill:url(#SVGID_8_);"/>
						<clipPath id="SVGID_9_">
							<use xlink:href="#SVGID_7_"  style="overflow:visible;"/>
						</clipPath>
						<g class="st8">
							<g>
								<path class="st7" d="M155.9,206.4c-6.5-7.1-12.2-15.1-16.8-23.6c-4.7-8.6-8.2-17.6-10.6-26.9c-1.3-5.3-2.3-10.7-2.8-16.1
									l0.2,0c0.5,5.3,1.5,10.7,2.8,16c2.3,9.2,5.9,18.3,10.5,26.8c4.6,8.5,10.2,16.4,16.8,23.5L155.9,206.4z"/>
								<path class="st7" d="M139.1,216.4l-0.1-0.2c2.9-1.5,6.3-2.6,10.2-3.4c1.8-0.4,3.7-0.6,5.4-0.7l0,0.2
									c-1.7,0.1-3.6,0.4-5.4,0.7C145.4,213.8,142,214.9,139.1,216.4z"/>
								<path class="st7" d="M142.1,188c-8.1-7.8-25.2-7.1-25.4-7.1l0-0.2c0.2,0,17.4-0.7,25.6,7.1L142.1,188z"/>
								<path class="st7" d="M132.2,167.7c-2.4-12.4,6.9-26.8,7-27l0.2,0.1c-0.1,0.1-9.4,14.4-7,26.8L132.2,167.7z"/>
							</g>
						</g>
					</g>
				</g>
			</g>
		</g>
	</g>
	<g>
		<g>
			
				<linearGradient id="SVGID_10_" gradientUnits="userSpaceOnUse" x1="771.4879" y1="217.7254" x2="771.571" y2="223.1295" gradientTransform="matrix(-1 0 0 1 957.5015 0)">
				<stop  offset="0" style="stop-color:#444B8C"/>
				<stop  offset="0.9964" style="stop-color:#26264F"/>
			</linearGradient>
			<path class="st9" d="M229.9,226.1l-54.9-3.8c-0.1,0-0.1,0-0.2,0l-32.7,1.5c-0.8,0.1-0.7,2.1,0.1,2.2l51.3,6.9c0.2,0,0.4,0,0.6,0
				l35.5-5C230.2,227.8,230.4,226.1,229.9,226.1z"/>
			
				<linearGradient id="SVGID_11_" gradientUnits="userSpaceOnUse" x1="770.5496" y1="228.4496" x2="779.1799" y2="202.3189" gradientTransform="matrix(-1 0 0 1 957.5015 0)">
				<stop  offset="0" style="stop-color:#444B8C"/>
				<stop  offset="0.9964" style="stop-color:#26264F"/>
			</linearGradient>
			<path class="st10" d="M229.7,226l-54.7-5.2c-0.1,0-0.1,0-0.2,0l-32.5,2.9c-0.6,0.1-0.6,0.9,0,1l51.3,6.3c0.2,0,0.4,0,0.6,0
				l35.5-4.6C230,226.4,230,226,229.7,226z"/>
			
				<linearGradient id="SVGID_12_" gradientUnits="userSpaceOnUse" x1="732.2917" y1="225.9494" x2="812.506" y2="225.9494" gradientTransform="matrix(-1 0 0 1 957.5015 0)">
				<stop  offset="0" style="stop-color:#FF9085"/>
				<stop  offset="1" style="stop-color:#FB6FBB"/>
			</linearGradient>
			<path class="st11" d="M193.1,230.4c0.1,0,0.2,0,0.2,0l31.8-4.1c0.1,0,0.1-0.2,0-0.2l-48.9-4.6c0,0,0,0,0,0c0,0,0,0,0,0l-31.1,2.7
				c-0.1,0-0.1,0.2,0,0.2l47.7,5.9C192.9,230.4,193,230.4,193.1,230.4z"/>
			
				<linearGradient id="SVGID_13_" gradientUnits="userSpaceOnUse" x1="1051.531" y1="-122.5366" x2="1052.8363" y2="-122.5366" gradientTransform="matrix(-0.9927 0.1207 0.1207 0.9927 1271.115 222.9992)">
				<stop  offset="0" style="stop-color:#FF9085"/>
				<stop  offset="1" style="stop-color:#FB6FBB"/>
			</linearGradient>
			<path class="st12" d="M211.2,228.4c0,0.1,0.3,0.1,0.7,0.1c0.4,0,0.6-0.2,0.6-0.3c0-0.1-0.3-0.1-0.7-0.1
				C211.4,228.2,211.2,228.3,211.2,228.4z"/>
			<g>
				
					<linearGradient id="SVGID_14_" gradientUnits="userSpaceOnUse" x1="769.6863" y1="230.9996" x2="769.7751" y2="233.2904" gradientTransform="matrix(-1 0 0 1 957.5015 0)">
					<stop  offset="0" style="stop-color:#444B8C"/>
					<stop  offset="0.9964" style="stop-color:#26264F"/>
				</linearGradient>
				<path class="st13" d="M185.3,231.4l4.9,0.6c0.4,0,0.7-0.1,0.7-0.4l0,0c0-0.3-0.3-0.5-0.7-0.6l-4.9-0.6c-0.3,0-0.5,0.1-0.5,0.4
					l0,0C184.7,231.1,185,231.3,185.3,231.4z"/>
				
					<linearGradient id="SVGID_15_" gradientUnits="userSpaceOnUse" x1="775.5356" y1="230.7728" x2="775.6244" y2="233.0637" gradientTransform="matrix(-1 0 0 1 957.5015 0)">
					<stop  offset="0" style="stop-color:#444B8C"/>
					<stop  offset="0.9964" style="stop-color:#26264F"/>
				</linearGradient>
				<path class="st14" d="M179.9,230.7l4.1,0.5c0.3,0,0.5-0.1,0.5-0.4l0,0c0-0.2-0.2-0.5-0.5-0.5l-4.1-0.5c-0.3,0-0.5,0.1-0.5,0.3
					l0,0C179.5,230.4,179.7,230.6,179.9,230.7z"/>
				
					<linearGradient id="SVGID_16_" gradientUnits="userSpaceOnUse" x1="782.8585" y1="230.489" x2="782.9473" y2="232.7799" gradientTransform="matrix(-1 0 0 1 957.5015 0)">
					<stop  offset="0" style="stop-color:#444B8C"/>
					<stop  offset="0.9964" style="stop-color:#26264F"/>
				</linearGradient>
				<path class="st15" d="M173.1,229.8l3.1,0.4c0.2,0,0.4-0.1,0.4-0.3l0,0c0-0.2-0.2-0.4-0.4-0.4l-3.1-0.4c-0.2,0-0.4,0.1-0.4,0.3
					l0,0C172.8,229.6,172.9,229.7,173.1,229.8z"/>
			</g>
			<path class="st16" d="M167.4,224c4.8,0.8,7.9,2.6,14.8,2.7c5.9,0.1,6-1.2,12.9-1.7c9-0.6,11.4,1.6,20.6,1.4c2.4,0,5.6-0.3,9.3-1
				l4.8,0.5c0.3,0,0.3,0.4,0,0.4l-35.5,4.6c-0.2,0-0.4,0-0.6,0l-43.4-5.4C157.6,223.2,163.3,223.3,167.4,224z"/>
		</g>
		<g>
			<path class="st2" d="M178.7,226.5c-2.5,0-6.3-0.4-6.3-1.7s3.8-1.7,6.3-1.7c2.5,0,6.3,0.4,6.3,1.7S181.2,226.5,178.7,226.5z
				 M178.7,223.7c-3.8,0-5.8,0.8-5.8,1.2s2,1.2,5.8,1.2c3.8,0,5.8-0.8,5.8-1.2S182.5,223.7,178.7,223.7z"/>
			<ellipse class="st16" cx="178.7" cy="224.9" rx="2.8" ry="0.6"/>
			<defs>
				<filter id="Adobe_OpacityMaskFilter" filterUnits="userSpaceOnUse" x="144.1" y="157.3" width="73.6" height="68.6">
					<feColorMatrix  type="matrix" values="1 0 0 0 0  0 1 0 0 0  0 0 1 0 0  0 0 0 1 0"/>
				</filter>
			</defs>
			<mask maskUnits="userSpaceOnUse" x="144.1" y="157.3" width="73.6" height="68.6" id="SVGID_17_">
				<g class="st17">
					<linearGradient id="SVGID_18_" gradientUnits="userSpaceOnUse" x1="183.1587" y1="221.8076" x2="180.8552" y2="167.2912">
						<stop  offset="0" style="stop-color:#FFFFFF"/>
						<stop  offset="1" style="stop-color:#000000"/>
					</linearGradient>
					<path class="st18" d="M217.7,168.3L185,221.8l-0.3,0.5l-0.4,0.6l-0.7,1.1l-0.5,0.8c0,0.6-1.9,1-4.2,1c-0.1,0-0.2,0-0.2,0
						c-2.4,0-4.4-0.5-4.4-1l-0.5-0.8l-0.9-1.7l-0.3-0.6l-0.4-0.7l-1.9-3.5l-3.4-6.1l-3.8-6.9l-0.4-0.7l-4.2-7.6l-2.7-4.8l-11.7-21.3
						c2.7-2.1,9.1-6.6,18.3-9.7c1.4-0.5,2.8-0.9,4.3-1.3c0.3-0.1,0.7-0.2,1.1-0.3c0.3-0.1,0.5-0.1,0.8-0.2c0.2,0,0.4-0.1,0.6-0.1
						c0,0,0,0,0,0c3.2-0.7,6.7-1.2,10.3-1.3c0.4,0,0.9,0,1.3,0c7-0.1,13.3,0.9,18.6,2.4c0.2,0.1,0.4,0.1,0.5,0.2c0.1,0,0.1,0,0.2,0
						c0.6,0.2,1.1,0.3,1.7,0.5c1.5,0.5,2.9,1,4.2,1.6C211.7,164.3,215.7,166.9,217.7,168.3z"/>
				</g>
			</mask>
			<path class="st19" d="M217.7,168.3L185,221.8l-0.3,0.5l-0.4,0.6l-0.7,1.1l-0.5,0.8c0,0.6-1.9,1-4.2,1c-0.1,0-0.2,0-0.2,0
				c-2.4,0-4.4-0.5-4.4-1l-0.5-0.8l-0.9-1.7l-0.3-0.6l-0.4-0.7l-1.9-3.5l-3.4-6.1l-3.8-6.9l-0.4-0.7l-4.2-7.6l-2.7-4.8l-11.7-21.3
				c2.7-2.1,9.1-6.6,18.3-9.7c1.4-0.5,2.8-0.9,4.3-1.3c0.3-0.1,0.7-0.2,1.1-0.3c0.3-0.1,0.5-0.1,0.8-0.2c0.2,0,0.4-0.1,0.6-0.1
				c0,0,0,0,0,0c3.2-0.7,6.7-1.2,10.3-1.3c0.4,0,0.9,0,1.3,0c7-0.1,13.3,0.9,18.6,2.4c0.2,0.1,0.4,0.1,0.5,0.2c0.1,0,0.1,0,0.2,0
				c0.6,0.2,1.1,0.3,1.7,0.5c1.5,0.5,2.9,1,4.2,1.6C211.7,164.3,215.7,166.9,217.7,168.3z"/>
		</g>
	</g>
	<g>
		<g>
			<g>
				<path class="st20" d="M238,149.1l-3.2-0.6c0.2-2.2,0-4.3-0.4-6.4l3-1.1c0.8-0.3,1.3-1.2,1-2.1l-0.8-2.3c-0.3-0.9-1.2-1.3-2-1
					l-3,1c-0.9-2-2.1-3.8-3.5-5.5l2-2.4c0.6-0.7,0.5-1.7-0.2-2.3l-1.8-1.7c-0.7-0.6-1.7-0.6-2.3,0.1l-2,2.3c-1.8-1.3-3.8-2.4-6-3.2
					l0.6-3.1c0.2-0.9-0.4-1.8-1.4-2.1l-2.5-0.6c-0.9-0.2-1.8,0.4-2,1.3l-0.6,3.1c-2.4-0.2-4.7-0.1-7,0.3l-1.1-3.2
					c-0.3-0.9-1.4-1.5-2.3-1.2l-2.5,0.7c-0.9,0.3-1.4,1.3-1.1,2.2l1.2,3.2c-2.1,1-4.1,2.3-5.9,3.8l-2.8-2.4c-0.8-0.7-2-0.6-2.7,0.1
					l-1.8,1.9c-0.7,0.7-0.6,1.9,0.2,2.5l2.9,2.4c-1.3,1.9-2.3,4-3,6.3l-3.9-0.7c-1-0.2-2,0.4-2.2,1.4l-0.5,2.6
					c-0.2,1,0.5,1.9,1.6,2.1l4,0.7c-0.1,2.3,0.2,4.6,0.7,6.8l-3.9,1.3c-1,0.3-1.5,1.4-1.1,2.3l1,2.4c0.4,0.9,1.5,1.4,2.4,1l3.9-1.4
					c1.1,1.9,2.5,3.7,4.1,5.3l-2.7,3.1c-0.7,0.8-0.6,1.9,0.2,2.4l2.1,1.6c0.8,0.6,1.9,0.5,2.6-0.3l2.7-3.1c1.9,1.1,3.9,1.9,6.1,2.5
					l-0.7,3.9c-0.2,0.9,0.5,1.8,1.4,1.9l2.5,0.3c0.9,0.1,1.8-0.5,2-1.4l0.7-3.9c2.2,0,4.4-0.2,6.4-0.7l1.3,3.5
					c0.3,0.8,1.3,1.2,2.1,0.9l2.3-0.9c0.9-0.3,1.3-1.3,1-2.1l-1.2-3.5c1.9-1,3.6-2.2,5.2-3.6l2.7,2.3c0.7,0.6,1.7,0.4,2.3-0.3
					l1.5-1.9c0.6-0.7,0.5-1.7-0.2-2.3l-2.6-2.2c1.2-1.7,2.1-3.6,2.8-5.7l3.3,0.6c0.9,0.1,1.7-0.4,1.8-1.3l0.4-2.3
					C239.5,150.1,238.9,149.3,238,149.1z M208.4,163.4c-9.6-1.4-16.2-10.3-14.4-19.8c1.8-9.5,11.1-15.5,20.6-13.4
					c9.1,1.9,15,10.7,13.3,19.6C226.3,158.7,217.7,164.8,208.4,163.4z"/>
				<polygon class="st20" points="205.7,119.2 203.4,118.7 202.2,120.6 				"/>
				<polygon class="st20" points="228.2,124.4 230.9,125 230.5,126.9 				"/>
				<polygon class="st20" points="236.5,135.7 239.1,136.3 238.2,137.7 				"/>
				<polygon class="st20" points="238.3,149.2 240.9,149.9 239.8,151 				"/>
				<polygon class="st20" points="230.4,166.6 232.9,167.5 233.6,165.4 				"/>
				<polygon class="st20" points="218.8,174.3 221,175.1 221.5,173.4 				"/>
				<polygon class="st20" points="206.4,176.2 204.4,175.4 206.7,173.1 				"/>
				<polygon class="st20" points="195.6,171.8 193.2,170.9 195.5,169 				"/>
				<polygon class="st20" points="190.1,125.9 192.6,126.5 191.3,128.1 				"/>
				<polygon class="st20" points="181.4,144.8 183.6,145.6 183.8,143.6 				"/>
				<polygon class="st20" points="183.7,159.6 185.9,160.4 186.4,158.9 				"/>
			</g>
			<path class="st21" d="M240.6,149.8l-3.2-0.6c0.2-2.2,0-4.3-0.4-6.4l3-1.1c0.8-0.3,1.3-1.2,1-2.1l-0.8-2.3c-0.3-0.9-1.2-1.3-2-1
				l-3,1c-0.9-2-2.1-3.9-3.6-5.6l2.1-2.4c0.6-0.7,0.5-1.7-0.2-2.4l-1.8-1.7c-0.7-0.6-1.7-0.6-2.3,0.1l-2.1,2.4
				c-1.8-1.3-3.9-2.4-6.1-3.2l0.6-3.1c0.2-0.9-0.4-1.9-1.4-2.1l-2.5-0.6c-0.9-0.2-1.9,0.4-2,1.3l-0.6,3.2c-2.4-0.2-4.8-0.1-7.1,0.3
				l-1.1-3.2c-0.3-0.9-1.4-1.5-2.3-1.2l-2.5,0.7c-1,0.3-1.5,1.3-1.1,2.2l1.2,3.3c-2.2,1-4.2,2.3-6,3.8l-2.8-2.4
				c-0.8-0.7-2-0.6-2.7,0.1l-1.8,2c-0.7,0.7-0.6,1.9,0.2,2.6l2.9,2.4c-1.3,1.9-2.3,4-3,6.3l-3.9-0.7c-1.1-0.2-2.1,0.4-2.2,1.4
				l-0.5,2.6c-0.2,1,0.5,1.9,1.6,2.1l4,0.7c-0.1,2.3,0.2,4.6,0.7,6.8l-3.9,1.3c-1,0.3-1.5,1.4-1.1,2.3l1,2.5c0.4,0.9,1.5,1.4,2.5,1
				l4-1.4c1.1,2,2.5,3.8,4.1,5.4l-2.7,3.1c-0.7,0.8-0.6,1.9,0.2,2.5l2.1,1.6c0.8,0.6,1.9,0.5,2.6-0.3l2.7-3.1c1.9,1.1,4,2,6.1,2.5
				l-0.7,3.9c-0.2,0.9,0.5,1.8,1.4,1.9l2.6,0.3c1,0.1,1.9-0.5,2-1.5l0.7-3.9c2.2,0,4.4-0.2,6.5-0.7l1.3,3.6c0.3,0.9,1.3,1.3,2.2,0.9
				l2.3-0.9c0.9-0.3,1.3-1.3,1-2.2l-1.3-3.5c1.9-1,3.7-2.2,5.2-3.7l2.8,2.3c0.7,0.6,1.7,0.4,2.3-0.3l1.5-1.9
				c0.6-0.7,0.5-1.7-0.2-2.3l-2.7-2.2c1.2-1.7,2.1-3.7,2.8-5.7l3.3,0.6c0.9,0.2,1.7-0.4,1.9-1.3l0.4-2.3
				C242,150.8,241.5,150,240.6,149.8z M210.7,164.2c-9.7-1.4-16.3-10.4-14.5-19.9c1.8-9.5,11.2-15.6,20.8-13.6
				c9.2,2,15.1,10.8,13.4,19.8C228.8,159.5,220.1,165.6,210.7,164.2z"/>
		</g>
	</g>
	<g>
		<g>
			<g>
				<path class="st20" d="M229.2,204.3l-1.7-0.3c0.1-1.2,0-2.3-0.2-3.4l1.6-0.6c0.4-0.2,0.7-0.6,0.5-1.1l-0.4-1.2
					c-0.2-0.5-0.6-0.7-1.1-0.6l-1.6,0.5c-0.5-1.1-1.1-2-1.9-2.9l1.1-1.3c0.3-0.4,0.3-0.9-0.1-1.3l-1-0.9c-0.4-0.3-0.9-0.3-1.2,0
					l-1.1,1.2c-1-0.7-2-1.3-3.2-1.7l0.3-1.7c0.1-0.5-0.2-1-0.7-1.1l-1.3-0.3c-0.5-0.1-1,0.2-1.1,0.7l-0.3,1.7
					c-1.3-0.1-2.5-0.1-3.7,0.1l-0.6-1.7c-0.2-0.5-0.7-0.8-1.2-0.6l-1.3,0.4c-0.5,0.2-0.8,0.7-0.6,1.2l0.6,1.7
					c-1.1,0.5-2.2,1.2-3.2,2l-1.5-1.3c-0.4-0.4-1.1-0.3-1.4,0.1l-1,1c-0.4,0.4-0.3,1,0.1,1.4l1.5,1.3c-0.7,1-1.2,2.1-1.6,3.3
					l-2.1-0.4c-0.6-0.1-1.1,0.2-1.2,0.8l-0.3,1.4c-0.1,0.5,0.3,1,0.8,1.1l2.1,0.4c0,1.2,0.1,2.5,0.4,3.6l-2.1,0.7
					c-0.5,0.2-0.8,0.7-0.6,1.2l0.5,1.3c0.2,0.5,0.8,0.7,1.3,0.5l2.1-0.7c0.6,1,1.3,2,2.2,2.8l-1.4,1.7c-0.4,0.4-0.3,1,0.1,1.3
					l1.1,0.8c0.4,0.3,1,0.2,1.4-0.2l1.4-1.7c1,0.6,2.1,1,3.2,1.3l-0.4,2.1c-0.1,0.5,0.2,0.9,0.8,1l1.3,0.2c0.5,0.1,1-0.3,1.1-0.8
					l0.4-2.1c1.2,0,2.3-0.1,3.4-0.4l0.7,1.9c0.2,0.4,0.7,0.7,1.1,0.5l1.2-0.5c0.5-0.2,0.7-0.7,0.5-1.1l-0.7-1.8
					c1-0.5,1.9-1.2,2.8-1.9l1.5,1.2c0.4,0.3,0.9,0.2,1.2-0.1l0.8-1c0.3-0.4,0.3-0.9-0.1-1.2l-1.4-1.2c0.6-0.9,1.1-1.9,1.5-3l1.8,0.3
					c0.5,0.1,0.9-0.2,1-0.7l0.2-1.2C230,204.9,229.7,204.4,229.2,204.3z M213.5,211.9c-5.1-0.8-8.6-5.5-7.7-10.5
					c0.9-5.1,5.9-8.2,11-7.2c4.9,1,8,5.7,7.1,10.4C223,209.4,218.4,212.7,213.5,211.9z"/>
				<polygon class="st20" points="212,188.4 210.8,188.1 210.2,189.1 				"/>
				<polygon class="st20" points="224,191.2 225.4,191.4 225.2,192.5 				"/>
				<polygon class="st20" points="228.4,197.2 229.8,197.5 229.3,198.2 				"/>
				<polygon class="st20" points="229.4,204.4 230.8,204.7 230.2,205.3 				"/>
				<polygon class="st20" points="225.2,213.6 226.5,214.1 226.9,213 				"/>
				<polygon class="st20" points="219,217.7 220.2,218.2 220.4,217.3 				"/>
				<polygon class="st20" points="212.4,218.7 211.3,218.3 212.5,217.1 				"/>
				<polygon class="st20" points="206.6,216.4 205.4,215.9 206.6,214.9 				"/>
				<polygon class="st20" points="203.7,191.9 205,192.2 204.3,193.1 				"/>
				<polygon class="st20" points="199,202 200.2,202.4 200.3,201.4 				"/>
				<polygon class="st20" points="200.3,209.9 201.5,210.3 201.7,209.5 				"/>
			</g>
			<path class="st21" d="M230.6,204.7l-1.7-0.3c0.1-1.2,0-2.3-0.2-3.4l1.6-0.6c0.4-0.2,0.7-0.7,0.5-1.1l-0.4-1.2
				c-0.2-0.5-0.6-0.7-1.1-0.6l-1.6,0.5c-0.5-1.1-1.1-2.1-1.9-3l1.1-1.3c0.3-0.4,0.3-0.9-0.1-1.3l-1-0.9c-0.4-0.3-0.9-0.3-1.2,0.1
				l-1.1,1.3c-1-0.7-2.1-1.3-3.2-1.7l0.3-1.7c0.1-0.5-0.2-1-0.7-1.1l-1.3-0.3c-0.5-0.1-1,0.2-1.1,0.7l-0.3,1.7
				c-1.3-0.1-2.5-0.1-3.8,0.1l-0.6-1.7c-0.2-0.5-0.7-0.8-1.2-0.6l-1.3,0.4c-0.5,0.2-0.8,0.7-0.6,1.2l0.6,1.7
				c-1.2,0.5-2.2,1.2-3.2,2.1l-1.5-1.3c-0.4-0.4-1.1-0.3-1.4,0.1l-1,1c-0.4,0.4-0.3,1,0.1,1.4l1.6,1.3c-0.7,1-1.2,2.2-1.6,3.4
				l-2.1-0.4c-0.6-0.1-1.1,0.2-1.2,0.8l-0.3,1.4c-0.1,0.5,0.3,1,0.8,1.1l2.1,0.4c0,1.3,0.1,2.5,0.4,3.6l-2.1,0.7
				c-0.5,0.2-0.8,0.7-0.6,1.2l0.5,1.3c0.2,0.5,0.8,0.7,1.3,0.6l2.1-0.8c0.6,1,1.3,2,2.2,2.9l-1.5,1.7c-0.4,0.4-0.3,1,0.1,1.3
				l1.1,0.8c0.4,0.3,1,0.2,1.4-0.2l1.4-1.7c1,0.6,2.1,1,3.3,1.3l-0.4,2.1c-0.1,0.5,0.2,1,0.8,1l1.4,0.2c0.5,0.1,1-0.3,1.1-0.8
				l0.4-2.1c1.2,0,2.3-0.1,3.4-0.4l0.7,1.9c0.2,0.5,0.7,0.7,1.1,0.5l1.2-0.5c0.5-0.2,0.7-0.7,0.5-1.1l-0.7-1.9c1-0.5,2-1.2,2.8-2
				l1.5,1.2c0.4,0.3,0.9,0.2,1.2-0.1l0.8-1c0.3-0.4,0.3-0.9-0.1-1.2l-1.4-1.2c0.6-0.9,1.1-1.9,1.5-3l1.8,0.3c0.5,0.1,0.9-0.2,1-0.7
				l0.2-1.3C231.4,205.2,231.1,204.8,230.6,204.7z M214.7,212.4c-5.1-0.8-8.7-5.5-7.7-10.6c1-5.1,6-8.3,11.1-7.2
				c4.9,1,8.1,5.7,7.2,10.5C224.3,209.8,219.7,213.1,214.7,212.4z"/>
		</g>
	</g>
	<g>
		<ellipse class="st21" cx="211.2" cy="158.8" rx="7.9" ry="11.1"/>
		<path class="st2" d="M187,131.8H172c-15.3,0-27.7,12.4-27.7,27.7v0c0,8.2,6.6,14.8,14.8,14.8h40.8c8.2,0,14.8-6.6,14.8-14.8v0
			C214.7,144.2,202.3,131.8,187,131.8z"/>
		<path class="st2" d="M184.3,204.6h-9.7c-9.9,0-18-8-18-18v0c0-5.3,4.3-9.6,9.6-9.6h26.4c5.3,0,9.6,4.3,9.6,9.6v0
			C202.3,196.5,194.3,204.6,184.3,204.6z"/>
		<g>
			<linearGradient id="SVGID_19_" gradientUnits="userSpaceOnUse" x1="165.1444" y1="159.0398" x2="206.6857" y2="159.0398">
				<stop  offset="0" style="stop-color:#444B8C"/>
				<stop  offset="0.9964" style="stop-color:#26264F"/>
			</linearGradient>
			<path class="st22" d="M200.5,168.3h-28.4c-3.8,0-7-2.9-7-6.6v-5.6c0-3.6,3.2-6.5,7-6.4l28.4,0.9c3.4,0.1,6.2,2.9,6.2,6.3v5.2
				C206.7,165.6,203.9,168.3,200.5,168.3z"/>
			<g>
				<g>
					<path class="st2" d="M181.2,158.6c0,2.4-2.1,4.4-4.6,4.3c-2.6,0-4.7-2.1-4.7-4.5c0-2.5,2.1-4.4,4.7-4.3
						C179.2,154.2,181.2,156.2,181.2,158.6z"/>
					<path class="st2" d="M200.4,159c0,2.3-1.9,4.2-4.3,4.2c-2.4,0-4.4-2-4.4-4.4s2-4.3,4.4-4.2C198.5,154.7,200.4,156.7,200.4,159z
						"/>
				</g>
			</g>
		</g>
		<path class="st23" d="M189.8,170.4c-4.2-5-2.3-8.9-7.9-15.6c-7.6-9.2-16.4-8.2-18.5-14.5c-0.6-1.7-0.6-4.1,0.9-7.4
			c-11.6,3.3-20,14-20,26.6v0c0,8.2,6.6,14.8,14.8,14.8h35.5C192.5,173.1,191,171.8,189.8,170.4z"/>
		<ellipse class="st21" cx="148.3" cy="158.7" rx="7.9" ry="11.1"/>
		<ellipse class="st1" cx="142.1" cy="158.7" rx="3.5" ry="4.9"/>
		<path class="st24" d="M186.7,194.7c-1.3-6.2-16-6.1-16.4-10.2c-0.3-3.1,8.1-6.3,9.2-6.6c0.9-0.3,1.8-0.6,2.7-0.9h-15.9
			c-5.3,0-9.6,4.3-9.6,9.6v0c0,9.9,8,18,18,18h9.7c0.9,0,1.8-0.1,2.7-0.2c-0.8-1-1.4-2.2-1.5-3.4
			C185.3,198.2,187.2,197.1,186.7,194.7z"/>
		<ellipse class="st21" cx="179.7" cy="177.5" rx="15.3" ry="1.9"/>
	</g>
	<g>
		<linearGradient id="SVGID_20_" gradientUnits="userSpaceOnUse" x1="186.7083" y1="181.929" x2="236.0532" y2="181.929">
			<stop  offset="0" style="stop-color:#40447E"/>
			<stop  offset="0.9964" style="stop-color:#3C3B6B"/>
		</linearGradient>
		<path class="st25" d="M230.7,176c-2.6-1-5.5-0.5-7.8,1.1c-0.8-4.2-3.5-7.8-7.5-9.3c-6.5-2.5-14.1,1.4-16.9,8.7
			c-0.7,1.9-1.1,3.8-1,5.7c-0.3-0.2-0.7-0.4-1.1-0.5c-3.6-1.4-7.7,0.8-9.2,4.8c-1.5,4,0.1,8.5,3.7,9.7c1.9,0.7,5,0.7,5,0.7
			s29.7-2.2,30.6-2.2c3.7,0,7.3-2.5,8.8-6.5C237.3,183.1,235.2,177.7,230.7,176z"/>
		<linearGradient id="SVGID_21_" gradientUnits="userSpaceOnUse" x1="222.6223" y1="175.6116" x2="201.2392" y2="199.7537">
			<stop  offset="0" style="stop-color:#AA80F9"/>
			<stop  offset="0.9964" style="stop-color:#6165D7"/>
		</linearGradient>
		<path class="st26" d="M231.6,176c-2.6-1-5.5-0.5-7.8,1.1c-0.8-4.2-3.5-7.8-7.5-9.3c-6.5-2.5-14.1,1.4-16.9,8.7
			c-0.7,1.9-1.1,3.8-1,5.7c-0.3-0.2-0.7-0.4-1.1-0.5c-3.6-1.4-7.7,0.8-9.2,4.8c-1.5,4,0.1,8.3,3.7,9.7c0.8,0.3,5,0.7,5,0.7
			s29.7-2.2,30.6-2.2c3.7,0,7.3-2.5,8.8-6.5C238.1,183.1,236.1,177.7,231.6,176z"/>
	</g>
	<g>
		<path class="st2" d="M161.3,182.5c-1.1,0.9-1.3,2.6-0.4,3.7l7.7,9.4l4.1-3.4l-7.7-9.4C164.2,181.8,162.5,181.6,161.3,182.5z"/>
		<path class="st2" d="M185.4,191.4c-0.2-1.5-1.5-2.5-2.9-2.3l-12,1.4l0.6,5.3l12-1.4C184.5,194.2,185.6,192.8,185.4,191.4z"/>
		<linearGradient id="SVGID_22_" gradientUnits="userSpaceOnUse" x1="173.579" y1="189.5563" x2="164.9585" y2="200.4454">
			<stop  offset="0" style="stop-color:#444B8C"/>
			<stop  offset="0.9964" style="stop-color:#26264F"/>
		</linearGradient>
		<circle class="st27" cx="170.4" cy="193.5" r="3.9"/>
	</g>
	
		<linearGradient id="SVGID_23_" gradientUnits="userSpaceOnUse" x1="4638.5708" y1="-2261.8513" x2="4629.4038" y2="-2250.2722" gradientTransform="matrix(0.2225 0.7493 -0.9777 0.2903 -3052.9138 -2626.3096)">
		<stop  offset="0" style="stop-color:#444B8C"/>
		<stop  offset="0.9964" style="stop-color:#26264F"/>
	</linearGradient>
	<path class="st28" d="M182.9,189.5l2,4.9c0.3,0.7,1.4,0.9,2.3,0.4c1.3-0.8,2.6-2,2.1-3.9c-0.7-2.4-2.8-3-4.5-3.2
		C183.6,187.7,182.6,188.7,182.9,189.5z"/>
</g>
<g>
	<polygon class="st2" points="276.2,145.3 280.7,145.4 280.7,120.6 276.2,120.5 	"/>
	<polygon class="st2" points="268.1,145.2 272.6,145.3 272.6,132.9 268.1,132.8 	"/>
	<polygon class="st2" points="260,145.1 264.6,145.2 264.6,117.9 260,117.8 	"/>
	<polygon class="st2" points="251.8,145 256.4,145.1 256.4,121.7 251.8,121.6 	"/>
</g>
<g>
	<path class="st2" d="M153.5,56.2v-1.7c0-1.5,0.3-2.7,0.9-3.8s1.8-2.2,3.4-3.5c1.6-1.1,2.7-2.1,3.2-2.8c0.5-0.7,0.8-1.5,0.8-2.4
		c0-1-0.4-1.8-1.1-2.3c-0.7-0.5-1.8-0.8-3.1-0.8c-2.3,0-4.9,0.7-7.8,2.2l-2.5-5c3.4-1.9,7-2.9,10.9-2.9c3.2,0,5.7,0.8,7.5,2.3
		c1.9,1.5,2.8,3.5,2.8,6.1c0,1.7-0.4,3.1-1.1,4.4c-0.8,1.2-2.2,2.6-4.4,4.1c-1.5,1.1-2.4,1.9-2.8,2.5c-0.4,0.6-0.6,1.3-0.6,2.2v1.4
		H153.5z M152.7,64.1c0-1.3,0.3-2.3,1-2.9c0.7-0.7,1.7-1,3-1c1.3,0,2.3,0.3,2.9,1c0.7,0.7,1,1.6,1,2.9c0,1.2-0.4,2.2-1.1,2.9
		c-0.7,0.7-1.7,1-2.9,1c-1.3,0-2.3-0.3-3-1C153.1,66.3,152.7,65.3,152.7,64.1z"/>
</g>
</svg>
