<?xml version="1.0" encoding="utf-8"?>
<!-- Generator: Adobe Illustrator 24.2.0, SVG Export Plug-In . SVG Version: 6.00 Build 0)  -->
<svg version="1.1" id="Layer_1" xmlns="http://www.w3.org/2000/svg" xmlns:xlink="http://www.w3.org/1999/xlink" x="0px" y="0px"
	 viewBox="0 0 383.2 243.3" style="enable-background:new 0 0 383.2 243.3;" xml:space="preserve">
<style type="text/css">
	.st0{fill:#F4F7FA;}
	.st1{fill:#BFC8D6;}
	.st2{fill:#FFFFFF;}
	.st3{fill:url(#SVGID_1_);}
	.st4{fill:url(#SVGID_2_);}
	.st5{fill:url(#SVGID_3_);}
	.st6{opacity:0.5;clip-path:url(#SVGID_6_);fill:#FFFFFF;}
	.st7{opacity:0.5;clip-path:url(#SVGID_9_);fill:#FFFFFF;}
	.st8{clip-path:url(#SVGID_12_);}
	.st9{opacity:0.5;fill:#FFFFFF;}
	.st10{fill:url(#SVGID_13_);}
	.st11{fill:url(#SVGID_14_);}
	.st12{fill:url(#SVGID_15_);}
	.st13{fill:url(#SVGID_16_);}
	.st14{fill:url(#SVGID_17_);}
	.st15{fill:url(#SVGID_18_);}
	.st16{fill:url(#SVGID_19_);}
	.st17{fill:url(#SVGID_20_);}
	.st18{fill:url(#SVGID_21_);}
	.st19{fill:url(#SVGID_22_);}
	.st20{fill:url(#SVGID_23_);}
	.st21{opacity:0.48;fill:#FFFFFF;}
	.st22{fill:url(#SVGID_24_);}
	.st23{opacity:0.3;fill:url(#SVGID_25_);}
	.st24{fill:url(#SVGID_26_);}
	.st25{fill:url(#SVGID_27_);}
	.st26{opacity:0.3;fill:url(#SVGID_28_);}
	.st27{fill:url(#SVGID_29_);}
	.st28{fill:url(#SVGID_30_);}
	.st29{opacity:0.3;fill:url(#SVGID_31_);}
</style>
<g>
	<path class="st0" d="M281.1,163.2c-5.9,22.6-22.4,43.5-62.5,54.3c-14.5,3.9-31.3,5.8-46.3,4.6c-22.1-1.7-45.3-11.7-63.7-23
		c-12.7-7.8-17.8-18.4-19.6-30.3c-1.1-7.4-1-15.3-0.6-23.4c0.5-12.2-1.4-24.5-4.3-36.4c-4.4-18.3-0.8-37.5,10.1-53.2
		s28.2-26.7,47.8-30.4c33.1-6.2,66.7-2.1,66.7-2.1c44.3,4.6,66.7,48.5,72.1,84.3C283.4,124,286,144.2,281.1,163.2z"/>
	<g>
		<g>
			<path class="st1" d="M184.3,163.6c-26,0-47.1-21.1-47.1-47.1s21.1-47.1,47.1-47.1s47.1,21.1,47.1,47.1S210.3,163.6,184.3,163.6z
				 M184.3,70.5c-25.4,0-46,20.6-46,46s20.6,46,46,46s46-20.6,46-46S209.6,70.5,184.3,70.5z"/>
		</g>
		<g>
			<path class="st1" d="M184.3,183.6c-17.9,0-34.7-7-47.4-19.6c-12.7-12.7-19.6-29.5-19.6-47.4s7-34.7,19.6-47.4
				c12.7-12.7,29.5-19.6,47.4-19.6s34.7,7,47.4,19.6c12.7,12.7,19.6,29.5,19.6,47.4s-7,34.7-19.6,47.4
				C219,176.6,202.2,183.6,184.3,183.6z M184.3,50.6c-36.4,0-65.9,29.6-65.9,65.9s29.6,65.9,65.9,65.9s65.9-29.6,65.9-65.9
				S220.6,50.6,184.3,50.6z"/>
		</g>
		<g>
			<path class="st1" d="M184.3,202.6c-23,0-44.6-8.9-60.8-25.2c-16.2-16.2-25.2-37.8-25.2-60.8s8.9-44.6,25.2-60.8
				c16.2-16.2,37.8-25.2,60.8-25.2s44.6,8.9,60.8,25.2c16.2,16.2,25.2,37.8,25.2,60.8s-8.9,44.6-25.2,60.8
				C228.9,193.6,207.3,202.6,184.3,202.6z M184.3,31.6c-46.8,0-84.9,38.1-84.9,84.9s38.1,84.9,84.9,84.9s84.9-38.1,84.9-84.9
				S231.1,31.6,184.3,31.6z"/>
		</g>
	</g>
	<g>
		<g>
			<g>
				<g>
					<circle class="st2" cx="91.7" cy="141.2" r="33.3"/>
					
						<linearGradient id="SVGID_1_" gradientUnits="userSpaceOnUse" x1="70.3506" y1="700.4957" x2="145.0124" y2="835.8502" gradientTransform="matrix(1 0 0 1 0 -598)">
						<stop  offset="3.597120e-03" style="stop-color:#E38DDD"/>
						<stop  offset="1" style="stop-color:#9571F6"/>
					</linearGradient>
					<circle class="st3" cx="91.7" cy="141.2" r="29.6"/>
				</g>
			</g>
		</g>
	</g>
	<g>
		<path class="st2" d="M105.6,151.3v0.3c0,0.5-0.4,1-1,1H77.2c-0.5,0-1-0.4-1-1v-0.3c0-0.5,0.4-1,1-1h27.4
			C105.1,150.3,105.6,150.8,105.6,151.3z"/>
		<polygon class="st2" points="104,153.5 100.8,163.5 81.1,163.5 77.8,153.5 		"/>
		<path class="st2" d="M91.1,138.7c-0.3,0-0.5,0.2-0.5,0.5l-0.1,9.5c0,0.3,0.2,0.5,0.5,0.5l0,0c0.3,0,0.5-0.2,0.5-0.5l0.1-9.5
			C91.6,138.9,91.3,138.7,91.1,138.7L91.1,138.7z"/>
		<path class="st2" d="M81.6,140.9l6,3.5c-2.7,0.7-5,0.5-6.8-0.7c-2.7-1.7-3.5-5-3.8-6.1c1.1-0.3,4.4-1.2,7.2,0.3
			c1.9,1,3.1,2.9,3.8,5.6l-5.9-3.5c-0.2-0.1-0.5-0.1-0.7,0.2C81.3,140.5,81.4,140.8,81.6,140.9z"/>
		<path class="st2" d="M105.1,137.6c-0.2,1.1-1.1,4.4-3.8,6.1c-1.8,1.1-4.1,1.4-6.8,0.7l5.9-3.5c0.2-0.1,0.3-0.4,0.2-0.7
			s-0.4-0.3-0.7-0.2l-5.9,3.5c0.7-2.7,2-4.6,3.8-5.6C100.7,136.4,104,137.3,105.1,137.6z"/>
		<path class="st2" d="M91.6,136.6v-10.5c0-0.3-0.2-0.5-0.5-0.5c-0.1,0-0.3,0.1-0.3,0.1c-0.1,0.1-0.1,0.2-0.1,0.4v10.5
			c-3.1-3-4.7-6.2-4.6-9.4c0.2-4.8,4-8.5,5.1-9.4c1.1,1,4.9,4.6,5.1,9.4C96.2,130.5,94.7,133.6,91.6,136.6z"/>
	</g>
</g>
<g>
	<g>
		<g>
			<circle class="st2" cx="266.9" cy="130.9" r="31"/>
			
				<linearGradient id="SVGID_2_" gradientUnits="userSpaceOnUse" x1="247.0339" y1="692.8848" x2="316.4838" y2="818.7906" gradientTransform="matrix(1 0 0 1 0 -598)">
				<stop  offset="0" style="stop-color:#FF9085"/>
				<stop  offset="1" style="stop-color:#FB6FBB"/>
			</linearGradient>
			<circle class="st4" cx="266.9" cy="130.9" r="27.5"/>
		</g>
	</g>
</g>
<g>
	<g>
		<g>
			<circle class="st2" cx="157.6" cy="51.8" r="31.5"/>
			
				<linearGradient id="SVGID_3_" gradientUnits="userSpaceOnUse" x1="137.4436" y1="613.2584" x2="207.9826" y2="741.1387" gradientTransform="matrix(1 0 0 1 0 -598)">
				<stop  offset="0" style="stop-color:#FFC444"/>
				<stop  offset="0.9964" style="stop-color:#F36F56"/>
			</linearGradient>
			<circle class="st5" cx="157.6" cy="51.8" r="28"/>
		</g>
	</g>
</g>
<path class="st2" d="M161.5,53C161.4,53,161.4,53,161.5,53L161.5,53l-0.4,0.1c-0.9,0.3-1.8,0.8-2.6,1.2c0.9,4.4,0,9-2.5,12.7
	c-0.1,0.2-0.3,0.3-0.5,0.3c-0.1,0-0.3,0-0.4-0.1c-0.3-0.2-0.4-0.6-0.2-0.9l0,0c2.2-3.3,3-7.3,2.4-11.2c-2.8,1.8-4.7,4.6-5.3,7.8
	c-0.1,0.3-0.3,0.5-0.7,0.5h-0.1c-0.4-0.1-0.6-0.4-0.5-0.8c0.9-4.9,4.2-7.8,6.9-9.4c-4.1-0.5-7.9-3.5-8.1-3.6
	c-0.3-0.2-0.3-0.6-0.1-0.9s0.6-0.3,0.9-0.1c0.1,0.1,5.9,4.5,10.3,3.3c0.3-0.1,0.4-0.2,0.5-0.2c4.6-1.8,4.9-8,4.9-9.1
	c-0.8-1.2-1.9-2.2-3.1-3c-2.5,0.9-4.6,2.4-6.2,4.6c-0.1,0.2-0.3,0.3-0.5,0.3c-0.4,0-0.7-0.3-0.6-0.7c0-0.1,0-0.3,0.1-0.4
	c1.8-2.4,4.3-4.3,7.1-5.2l0,0c2.4-0.8,4.9-1.3,7.4-1.3l-1.7-4.6c-0.9-0.1-1.9-0.2-2.8-0.2c-7.1,0-12.7,3.2-17.2,9.8
	c-0.1,0.1-0.2,0.2-0.4,0.3c-5,1.5-7.6,4.6-7.6,9c0,6.6,6,15,12.9,18.6c1.7,0.9,3.8,0.8,5.4-0.3c5.7-3.9,9.3-10.2,9.8-17.2
	c0.2-2.7-0.3-5.3-1.4-7.8C166.7,47.2,165.5,51.4,161.5,53z"/>
<g>
	<g>
		<g>
			<g>
				<defs>
					<path id="SVGID_4_" d="M193.7,166.3c-2.2-6.4-4.5-16.2-2.2-27.1c2.7-12.6,9-15.2,14.6-28.6c8.9-21.6,1.7-37.3,6.8-38.9
						c5.3-1.6,18.6,13.7,18.5,30.2c-0.1,15.4-11.6,26.2-12.8,27.2c-8.8,8-15.8,6.4-21.3,14C192,150.4,192.6,159.8,193.7,166.3z"/>
				</defs>
				<linearGradient id="SVGID_5_" gradientUnits="userSpaceOnUse" x1="224.5374" y1="87.1098" x2="196.1037" y2="132.8965">
					<stop  offset="0" style="stop-color:#FCB148"/>
					<stop  offset="5.207239e-02" style="stop-color:#FDBA46"/>
					<stop  offset="0.1424" style="stop-color:#FFC244"/>
					<stop  offset="0.3183" style="stop-color:#FFC444"/>
					<stop  offset="0.4849" style="stop-color:#FDB946"/>
					<stop  offset="0.7754" style="stop-color:#F99C4D"/>
					<stop  offset="0.8658" style="stop-color:#F8924F"/>
					<stop  offset="1" style="stop-color:#F8924F"/>
				</linearGradient>
				<use xlink:href="#SVGID_4_"  style="overflow:visible;fill:url(#SVGID_5_);"/>
				<clipPath id="SVGID_6_">
					<use xlink:href="#SVGID_4_"  style="overflow:visible;"/>
				</clipPath>
				<path class="st6" d="M194,180.7c-4.3-17.4-3.5-32.5,2.4-44.7c3.6-7.4,8.3-12.2,12.5-16.5c5-5.2,9.4-9.6,11.1-17.2
					c2.4-10.7-1.7-23-12.2-36.5l0.2-0.1c10.6,13.5,14.7,25.8,12.3,36.6c-1.7,7.6-6.1,12.1-11.1,17.3c-4.1,4.2-8.8,9.1-12.4,16.4
					c-5.9,12.1-6.7,27.1-2.4,44.5L194,180.7z"/>
				<path class="st6" d="M219.2,105.1l0-0.2c-0.5-3.5-1.8-6.9-3.6-9.8c-3-4.7-6.9-7.3-9.7-8.8l0.1-0.2c2.8,1.4,6.7,4.1,9.8,8.8
					c1.9,2.9,3.1,6.3,3.6,9.7c2.7-2.8,4.8-6.1,6.1-9.7c2.2-6.2,1.7-11.8,0.8-15.4l0.2,0c0.9,3.6,1.4,9.3-0.8,15.5
					c-1.3,3.7-3.5,7.1-6.3,9.9L219.2,105.1z"/>
				<path class="st6" d="M206.4,122.4l0.1-0.2c1.4-1.9,3.6-5.9,3.3-11.3c-0.3-4.9-2.6-8.4-3.9-10.1l0.2-0.1c1.4,1.7,3.7,5.2,4,10.2
					c0.3,5.3-1.8,9.2-3.2,11.2c5.4-0.6,10.6-2.4,15.1-5.2c10.2-6.6,13.8-16.8,14.9-21l0.2,0.1c-1.1,4.1-4.7,14.5-15,21.1
					c-4.5,2.9-9.9,4.7-15.4,5.3L206.4,122.4z"/>
				<path class="st6" d="M195.4,138.6l0-0.1c-0.1-2.5-0.1-5.1,0-7.6c0.3-5.4,1.1-10.9,2.5-16.2l0.2,0.1c-1.4,5.3-2.3,10.7-2.5,16.1
					c-0.1,2.5-0.1,5,0,7.5c6-0.3,11.8-1.7,17.1-4.2c12.1-5.6,18.7-15.2,21.6-20.5l0.2,0.1c-2.9,5.3-9.5,15-21.7,20.6
					c-5.4,2.5-11.2,3.9-17.3,4.2L195.4,138.6z"/>
			</g>
		</g>
		<g>
			<g>
				<defs>
					<path id="SVGID_7_" d="M194,163.5c-1.3-4.6-2.5-11.7,0.6-18.6c5.4-12,17.8-9.6,27.9-22.9c8.2-10.8,4.5-18,14-25.6
						c6.9-5.5,15.9-7.4,17.2-5.4c1.4,2.1-7.7,6.5-11.8,17.1c-5.4,13.9,4.1,21.9-1.6,30.6c-4.3,6.6-11.4,4.5-26.8,12
						C204.6,155,198,160,194,163.5z"/>
				</defs>
				<linearGradient id="SVGID_8_" gradientUnits="userSpaceOnUse" x1="233.0194" y1="95.7807" x2="210.2749" y2="163.6413">
					<stop  offset="0" style="stop-color:#AA80F9"/>
					<stop  offset="0.9964" style="stop-color:#6165D7"/>
				</linearGradient>
				<use xlink:href="#SVGID_7_"  style="overflow:visible;fill:url(#SVGID_8_);"/>
				<clipPath id="SVGID_9_">
					<use xlink:href="#SVGID_7_"  style="overflow:visible;"/>
				</clipPath>
				<path class="st7" d="M191.9,179.3l-0.2,0c0-16.6,4.1-28.6,12.2-35.5c3.8-3.3,7.5-4.6,11.1-5.9c4.4-1.6,8.6-3.1,12.4-8.1
					c3.4-4.5,4.1-8.4,4.7-12.6c0.6-3.9,1.3-7.8,4.1-12.7c4.2-7.2,11.3-12.8,21.1-16.5l0.1,0.2c-9.7,3.7-16.8,9.3-21,16.4
					c-2.8,4.8-3.4,8.7-4,12.6c-0.7,4.2-1.3,8.2-4.8,12.7c-3.9,5-8.1,6.6-12.5,8.2c-3.6,1.3-7.3,2.6-11.1,5.9
					C196,150.9,191.9,162.8,191.9,179.3z"/>
				<path class="st7" d="M232.9,114.1l-0.1-0.3c-0.9-2.6-1.4-5.4-1.3-8.1c0.2-6.5,3.4-11.2,5.2-13.5l0.2,0.1
					c-1.8,2.2-4.9,6.9-5.2,13.3c-0.1,2.6,0.3,5.2,1.2,7.7c1.5-4,3.7-6.9,6.6-8.6c3-1.8,5.8-1.7,8.7-1.6c1.8,0.1,3.7,0.1,5.6-0.3
					c6-1.3,11.3-6.8,15.7-16.3l0.2,0.1c-4.4,9.6-9.8,15.1-15.8,16.4c-2,0.4-3.9,0.4-5.7,0.3c-2.9-0.1-5.6-0.2-8.6,1.6
					c-2.9,1.7-5.1,4.6-6.6,8.7L232.9,114.1z"/>
				<path class="st7" d="M226.2,131.5l0-0.1c-0.4-2.5-0.6-5-0.7-7.5c-0.2-5.3,0.3-10.7,1.5-16l0.2,0c-1.2,5.2-1.7,10.6-1.5,15.9
					c0.1,2.4,0.3,4.9,0.7,7.3c3.6-0.8,7-2.2,9.9-4.3c4.6-3.2,7.2-7.2,8.6-9.9l0.2,0.1c-1.4,2.8-4.1,6.8-8.7,10
					c-3.1,2.1-6.5,3.6-10.1,4.4L226.2,131.5z"/>
				<path class="st7" d="M228.6,142.5c-0.9,0-1.8,0-2.8-0.1c-4.5-0.3-9-1.4-13.2-3.2l-0.2-0.1l0.1-0.1c2.2-2,3.9-4.6,4.9-7.4
					c0.8-2.3,1.2-4.7,1.2-7.1l0.2,0c0.1,2.5-0.3,4.9-1.2,7.2c-1,2.8-2.7,5.3-4.8,7.3c4.2,1.8,8.5,2.8,13,3.1
					c9.9,0.7,17.9-2.5,22.9-5.2l0.1,0.2C244.3,139.7,237.3,142.5,228.6,142.5z"/>
				<path class="st7" d="M219.2,152.1c-1.2-1.5-3.8-4-7.9-5c-7.1-1.6-12.7,3.2-13.3,3.7l-0.2,0.2l0-0.3c0.2-2.6,0.6-5.1,1.4-7.5
					c1.3-4.1,3.5-7.8,6.5-11l0.2,0.1c-3,3.2-5.1,6.9-6.5,11c-0.8,2.3-1.2,4.7-1.4,7.2c1.2-1,6.6-5.1,13.3-3.6c4.1,0.9,6.8,3.6,8,5
					L219.2,152.1z"/>
			</g>
		</g>
		<g>
			<g>
				<defs>
					<path id="SVGID_10_" d="M193.4,159.6c2.5-2.2,6.5-5.2,11.8-7.9c12.3-6.3,18.5-3.9,25.3-9.7c8.3-7.2,6.7-17.5,9.4-17.4
						c4,0.1,12,22.5,2.2,31.9c-6.3,6-17.6,4.5-19.9,4.1c-5.5-0.9-7-2.8-12.5-3.5C202.9,156.1,197.2,158,193.4,159.6z"/>
				</defs>
				<linearGradient id="SVGID_11_" gradientUnits="userSpaceOnUse" x1="248.0448" y1="133.095" x2="181.2079" y2="187.9968">
					<stop  offset="3.597120e-03" style="stop-color:#E38DDD"/>
					<stop  offset="1" style="stop-color:#9571F6"/>
				</linearGradient>
				<use xlink:href="#SVGID_10_"  style="overflow:visible;fill:url(#SVGID_11_);"/>
				<clipPath id="SVGID_12_">
					<use xlink:href="#SVGID_10_"  style="overflow:visible;"/>
				</clipPath>
				<g class="st8">
					<path class="st9" d="M190.4,161.5l-0.1-0.2c7.3-5.6,14.6-8.4,21.7-8.3c3.8,0.1,6.8,0.9,9.4,1.7c3.4,1,6.4,1.9,10,0.4
						c4.6-1.9,8.1-6.8,9.9-13.8c2.8-11.2-3.5-20.5-5.5-23.1l0.2-0.1c2,2.6,8.4,12,5.5,23.3c-1.8,7.1-5.3,12-10,13.9
						c-3.7,1.5-6.7,0.6-10.2-0.4c-2.6-0.8-5.6-1.6-9.3-1.7C204.9,153.1,197.7,155.9,190.4,161.5z"/>
					<path class="st9" d="M238.8,147.8l0-0.2c0.6-3.2,0.6-6.5,0-9.6c-0.7-3.5-2.1-6.9-4.2-9.9l0.2-0.1c2.1,3,3.5,6.4,4.2,10
						c0.6,3.1,0.6,6.3,0,9.5c1.7-0.9,4-2.5,5.7-5.2c3.6-5.8,1.5-12.3,1.1-13.5l0.2-0.1c0.5,1.2,2.6,7.8-1.1,13.7
						c-1.8,2.9-4.3,4.5-6,5.4L238.8,147.8z"/>
					<path class="st9" d="M234.2,160c-2.3,0-4.7-0.3-7.2-1.1c-3-1-5.8-2.6-8.3-4.8l-0.2-0.2l0.3,0c4.8,0.4,9.3-1.7,11.7-5.6
						c2.6-4.1,1.7-8.4,1.4-9.7l0.2-0.1c0.3,1.3,1.2,5.7-1.4,9.9c-2.4,3.8-6.8,6-11.6,5.7c2.4,2,5.1,3.6,8,4.5
						c8.3,2.7,15.8-0.2,18.6-1.5l0.1,0.2C243.8,158.3,239.5,160,234.2,160z"/>
					<path class="st9" d="M222.1,165.4c-1.2-2.5-3.9-7.1-9.4-9.7c-2.3-1.1-4.8-1.7-7.4-1.8l0-0.2c4.4-0.4,7.6-1.7,9.5-3.7
						c0.2-0.2,0.4-0.4,0.7-0.8c0.5-0.5,1.1-1.3,2.2-2.4c1-1.2,2.1-2.3,3.1-3.4l0.2,0.1c-1,1.1-2.1,2.2-3.1,3.4
						c-1,1.2-1.7,1.9-2.2,2.4c-0.3,0.4-0.6,0.6-0.7,0.8c-1.8,1.9-4.6,3.1-8.4,3.6c2.2,0.2,4.3,0.8,6.3,1.7c5.5,2.6,8.4,7.2,9.5,9.8
						L222.1,165.4z"/>
				</g>
			</g>
		</g>
	</g>
	<g>
		<linearGradient id="SVGID_13_" gradientUnits="userSpaceOnUse" x1="119.0245" y1="172.2074" x2="240.5151" y2="172.2074">
			<stop  offset="0" style="stop-color:#AA80F9"/>
			<stop  offset="0.9964" style="stop-color:#6165D7"/>
		</linearGradient>
		<polygon class="st10" points="119,162.4 176.6,165.9 240.5,162.2 177.5,182.2 		"/>
		<g>
			<linearGradient id="SVGID_14_" gradientUnits="userSpaceOnUse" x1="134.4163" y1="216.0972" x2="142.5448" y2="197.6089">
				<stop  offset="0" style="stop-color:#FFC444"/>
				<stop  offset="0.9964" style="stop-color:#F36F56"/>
			</linearGradient>
			<path class="st11" d="M165.6,222.7l-46.8-18.3c-4.6-1.2-8.2-5.8-8.2-10.2v0c0-4.4,3.6-7.4,8.2-6.6l50.2,14L165.6,222.7z"/>
			<g>
				<linearGradient id="SVGID_15_" gradientUnits="userSpaceOnUse" x1="159.399" y1="206.3136" x2="240.5934" y2="206.3136">
					<stop  offset="0.494" style="stop-color:#EAEDF3"/>
					<stop  offset="1" style="stop-color:#FFFFFF"/>
				</linearGradient>
				<path class="st12" d="M240.6,207.5l-72.8,14.2c-4.6,0.5-8.4-2.7-8.4-7.2v-3.1c0-4.5,3.8-8.5,8.4-8.8l72.8-11.8
					C237.3,196.9,236.6,202.6,240.6,207.5z"/>
				<linearGradient id="SVGID_16_" gradientUnits="userSpaceOnUse" x1="157.4125" y1="206.3525" x2="242.0411" y2="206.3525">
					<stop  offset="0" style="stop-color:#FFC444"/>
					<stop  offset="0.9964" style="stop-color:#F36F56"/>
				</linearGradient>
				<path class="st13" d="M241.2,208.4l-72.8,14.3c-6,0.7-11-3.5-11-9.4v-0.1c0-5.9,5-11.1,11-11.5l72.8-11.7c0.4,0,0.8,0.3,0.8,0.8
					c0,0.5-0.4,0.9-0.8,1l-72.8,12c-4.9,0.4-8.9,4.6-8.9,9.3v0.1c0,4.7,4,8.1,8.9,7.6l72.8-14.1c0.4,0,0.8,0.3,0.8,0.8
					C242,207.9,241.7,208.3,241.2,208.4z"/>
			</g>
		</g>
		<g>
			<linearGradient id="SVGID_17_" gradientUnits="userSpaceOnUse" x1="146.5659" y1="161.3527" x2="131.7438" y2="211.28">
				<stop  offset="0" style="stop-color:#AA80F9"/>
				<stop  offset="0.9964" style="stop-color:#6165D7"/>
			</linearGradient>
			<path class="st14" d="M167.5,201.7l-48.8-14c-4.6-0.8-8.2-6.8-8.2-13.5v-0.1c0-6.6,3.6-11.9,8.2-11.7l51.7,7.8L167.5,201.7z"/>
			<g>
				<linearGradient id="SVGID_18_" gradientUnits="userSpaceOnUse" x1="159.399" y1="181.7093" x2="240.5934" y2="181.7093">
					<stop  offset="0.494" style="stop-color:#EAEDF3"/>
					<stop  offset="1" style="stop-color:#FFFFFF"/>
				</linearGradient>
				<path class="st15" d="M240.6,188.6L172,199.9c-6.9,0.5-12.6-4.5-12.6-11.3V184c0-6.8,5.7-12.4,12.6-12.6l68.6-7.9
					C237.3,172.6,236.6,181.2,240.6,188.6z"/>
				<linearGradient id="SVGID_19_" gradientUnits="userSpaceOnUse" x1="157.4125" y1="181.9632" x2="242.0411" y2="181.9632">
					<stop  offset="0" style="stop-color:#AA80F9"/>
					<stop  offset="0.9964" style="stop-color:#6165D7"/>
				</linearGradient>
				<path class="st16" d="M241.2,189.9l-72.8,11.7c-6,0.5-11-6.3-11-15.2v-0.1c0-8.8,5-16.2,11-16.3l72.8-7.8c0.4,0,0.8,0.6,0.8,1.3
					c0,0.7-0.4,1.3-0.8,1.4l-72.8,8.2c-4.9,0.1-8.9,6-8.9,13.2v0.1c0,7.1,4,12.6,8.9,12.2l72.8-11.3c0.4,0,0.8,0.5,0.8,1.3
					C242,189.3,241.7,189.9,241.2,189.9z"/>
			</g>
		</g>
		<path class="st9" d="M152.8,195l-11.3-3.1c-2.4-6.5-2.2-12.5,0-19.6l11.3,2C150.7,181.9,151,188.7,152.8,195z"/>
	</g>
	<g>
		<linearGradient id="SVGID_20_" gradientUnits="userSpaceOnUse" x1="170.751" y1="163.4109" x2="162.0068" y2="167.0835">
			<stop  offset="0" style="stop-color:#40447E"/>
			<stop  offset="0.9964" style="stop-color:#3C3B6B"/>
		</linearGradient>
		<path class="st17" d="M242.6,158.5l-124.3-1.2v3.5c0,1,0.5,1.8,1.3,1.9l35.2,7c0.4,0.1,0.8,0.1,1.3,0.1l85.3-8
			c0.8-0.1,1.4-0.9,1.4-1.9V158.5z"/>
		<g>
			<linearGradient id="SVGID_21_" gradientUnits="userSpaceOnUse" x1="158.9897" y1="121.1496" x2="149.2772" y2="125.2289">
				<stop  offset="0" style="stop-color:#40447E"/>
				<stop  offset="0.9964" style="stop-color:#3C3B6B"/>
			</linearGradient>
			<path class="st18" d="M202.6,152.8l-82.9,6.5c-1.5,0.1-2.7-1.1-2.7-2.8V90.8c0-1.6,1.2-3,2.7-3h82.9c1.2,0,2.2,1.2,2.2,2.7v59.4
				C204.8,151.4,203.8,152.7,202.6,152.8z"/>
			<linearGradient id="SVGID_22_" gradientUnits="userSpaceOnUse" x1="118.2581" y1="123.564" x2="206.1097" y2="123.564">
				<stop  offset="0" style="stop-color:#40447E"/>
				<stop  offset="0.9964" style="stop-color:#3C3B6B"/>
			</linearGradient>
			<path class="st19" d="M203.9,152.8l-82.9,6.5c-1.5,0.1-2.7-1.1-2.7-2.8V90.8c0-1.6,1.2-3,2.7-3h82.9c1.2,0,2.2,1.2,2.2,2.7v59.4
				C206.1,151.4,205.1,152.7,203.9,152.8z"/>
			<linearGradient id="SVGID_23_" gradientUnits="userSpaceOnUse" x1="180.1579" y1="106.0041" x2="130.7978" y2="146.1267">
				<stop  offset="0" style="stop-color:#FF9085"/>
				<stop  offset="1" style="stop-color:#FB6FBB"/>
			</linearGradient>
			<path class="st20" d="M201.3,148.6l-77.3,5.6c-1.2,0.1-2.2-0.9-2.2-2.3V94.5c0-1.3,1-2.4,2.2-2.4l77.3-0.4c1,0,1.8,1,1.8,2.2
				v52.4C203.1,147.5,202.3,148.5,201.3,148.6z"/>
			<path class="st2" d="M165.4,89.7c0,0.6-0.4,1.1-1,1.1c-0.5,0-1-0.5-1-1.1c0-0.6,0.4-1.1,1-1.1C164.9,88.6,165.4,89,165.4,89.7z"
				/>
			<path class="st21" d="M183.9,134.8c-6.4-3.8-11.4,1-16.3-3.7c-2.9-2.9-1.5-5-5.1-9.4c-4-4.8-6.6-3.2-10.6-7.5
				c-5.1-5.4-2.5-9.7-6.9-13.6c-5.3-4.7-11.1-0.4-16.1-4.9c-2.2-2-3.4-4.8-4-7.8h-5c-0.9,0-1.6,0.8-1.6,1.7v68.1
				c0,1,0.7,1.7,1.6,1.6l84.5-6.6c0.4,0,0.8-0.3,1-0.7c-6.2-0.2-10-2.5-12.4-4.9C188.2,142.4,189,137.8,183.9,134.8z"/>
		</g>
		<linearGradient id="SVGID_24_" gradientUnits="userSpaceOnUse" x1="118.2581" y1="159.5413" x2="242.6041" y2="159.5413">
			<stop  offset="0" style="stop-color:#40447E"/>
			<stop  offset="0.9964" style="stop-color:#3C3B6B"/>
		</linearGradient>
		<path class="st22" d="M201.8,152.5l-83.6,6.8l36.4,7.2c0.4,0.1,0.8,0.1,1.3,0.1l86.6-8.1l-39.4-6
			C202.7,152.5,202.3,152.4,201.8,152.5z"/>
		<linearGradient id="SVGID_25_" gradientUnits="userSpaceOnUse" x1="130.4523" y1="158.413" x2="221.5598" y2="158.413">
			<stop  offset="0" style="stop-color:#40447E"/>
			<stop  offset="0.9964" style="stop-color:#3C3B6B"/>
		</linearGradient>
		<polygon class="st23" points="130.5,159.5 200,153.7 221.6,157 152.6,163.1 		"/>
		<g>
			<polygon class="st2" points="197,113.8 181.6,105.9 165.5,97.6 131.1,115.3 131.2,115.4 131.2,116 165.5,132.2 197,114.5 
				197,113.9 197,113.9 			"/>
			<path class="st2" d="M185.5,123l-20,11.3l-22-10.3v14.9c0,2.4,1.9,4.5,4.3,4.7c3.9,0.4,10.2,0.7,17.2,0.3
				c6.8-0.4,12.8-1.5,16.5-2.3c2.3-0.5,4-2.6,4-4.9V123z"/>
			<g>
				<path class="st2" d="M197,137c-0.2,0-0.2-0.2-0.2-0.4v-21.3c0-0.5-0.4-0.8-0.9-0.8l-30.2,0.7c-0.2,0-0.4-0.2-0.4-0.5
					c0-0.3,0.2-0.5,0.4-0.5l30.2-0.7c0.9,0,1.3,0.7,1.3,1.7v21.3C197.2,136.8,197.2,137,197,137z"/>
			</g>
			<linearGradient id="SVGID_26_" gradientUnits="userSpaceOnUse" x1="186.2023" y1="110.4436" x2="138.043" y2="149.5901">
				<stop  offset="0" style="stop-color:#FF9085"/>
				<stop  offset="1" style="stop-color:#FB6FBB"/>
			</linearGradient>
			<path class="st24" d="M197.6,114.1c-0.2-0.4,0.1-0.6-0.4-0.6l-31.5,0.7c-0.2,0-0.4,0.2-0.4,0.5c0,0.3,0.2,0.5,0.4,0.5l30.2-0.7
				c0.2,0,0.5,0.1,0.7,0.3l0.4-0.2L197.6,114.1z"/>
			<path class="st2" d="M197.9,132.5l-0.4-0.6c-0.1-0.2-0.4-0.4-0.7-0.4c-0.3,0-0.5,0.2-0.6,0.5l-0.3,0.7c-0.1,0.2-0.1,0.4-0.1,0.5
				v5.8c0,0.1,0.6,0.2,1.2,0.2c0.6,0,1.2-0.2,1.2-0.3v-5.8C198.2,132.9,198,132.7,197.9,132.5z"/>
		</g>
	</g>
	<g>
		<linearGradient id="SVGID_27_" gradientUnits="userSpaceOnUse" x1="231.6482" y1="192.2309" x2="208.9193" y2="223.1015">
			<stop  offset="0" style="stop-color:#FF9085"/>
			<stop  offset="1" style="stop-color:#FB6FBB"/>
		</linearGradient>
		<path class="st25" d="M228.9,188c-1.9,1.6-4.6,1.5-6.4-0.3c-2.1-2.2-6.2-3.7-13.4,0.9c-12.9,8.2,1.4,31.2,9.5,31.9
			c8.1,0.7,10.9-1.4,14.9,0c4.1,1.4,9.8-7.7,12.2-15.9c2.4-8.2-3.7-17.9-9.8-19C232.9,185.1,230.6,186.4,228.9,188z"/>
		<linearGradient id="SVGID_28_" gradientUnits="userSpaceOnUse" x1="231.6482" y1="192.2309" x2="208.9192" y2="223.1015">
			<stop  offset="0" style="stop-color:#FF9085"/>
			<stop  offset="1" style="stop-color:#FB6FBB"/>
		</linearGradient>
		<path class="st26" d="M239.5,212.7c0,0,0,0-3.1,1.9c-3.1,1.9-4.4-5.5-10.1-10.2c-5.7-4.7-16.9-1.3-16.3-9.4c0.3-4,2.3-7,4.3-8.9
			c-1.5,0.5-3.2,1.2-5.2,2.5c-12.9,8.2,1.4,31.2,9.5,31.9c8.1,0.7,10.9-1.4,14.9,0c3.5,1.2,8.2-5.3,11-12.4L239.5,212.7z"/>
		<linearGradient id="SVGID_29_" gradientUnits="userSpaceOnUse" x1="216.8197" y1="168.2758" x2="222.9254" y2="197.3342">
			<stop  offset="0" style="stop-color:#A1F094"/>
			<stop  offset="1" style="stop-color:#4FC3BA"/>
		</linearGradient>
		<path class="st27" d="M226.8,189.3c0,0,5.8-9.5-4-12.2c-9.8-2.7-14-6.4-14-6.4s2.5,7.9,4.3,13.9
			C214.8,190.6,223.5,191.9,226.8,189.3z"/>
		<linearGradient id="SVGID_30_" gradientUnits="userSpaceOnUse" x1="232.6067" y1="175.4606" x2="220.899" y2="191.362">
			<stop  offset="0" style="stop-color:#311944"/>
			<stop  offset="1" style="stop-color:#6B3976"/>
		</linearGradient>
		<path class="st28" d="M229.5,178.3c-1.7,0.2-1-2.5-2.6-0.7c-1.4,1.5-1.7,10-1.7,12.2c0,0.3,0.2,0.5,0.5,0.5l0,0
			c0.3,0,0.5-0.2,0.5-0.5c0-4.7,5-10,5.6-11C232.3,177.7,231.2,178.1,229.5,178.3z"/>
		<linearGradient id="SVGID_31_" gradientUnits="userSpaceOnUse" x1="214.7418" y1="168.7124" x2="220.8475" y2="197.7707">
			<stop  offset="0" style="stop-color:#38E8C7"/>
			<stop  offset="1" style="stop-color:#425F63"/>
		</linearGradient>
		<path class="st29" d="M222.6,183.8c-0.8-4.3-4.1-3.5-10.7-9.2c-1.1-0.9-2-1.8-2.7-2.6c0.8,2.4,2.5,8.1,3.9,12.7
			c1.6,5.3,8.7,6.9,12.5,5.4C224.3,188.9,223.1,187,222.6,183.8z"/>
	</g>
</g>
<g>
	<path class="st2" d="M268.8,115.2h-15.2c-0.3,0-0.6,0.2-0.6,0.6v3.2c0,0.3,0.2,0.6,0.6,0.6h0.6c0.3,0,0.6,0.2,0.6,0.6v18.2
		c0,3.5,2.8,6.3,6.3,6.3c3.5,0,6.3-2.8,6.3-6.3V120c0-0.3,0.2-0.6,0.6-0.6h0.6c0.3,0,0.6-0.2,0.6-0.6v-3.2
		C269.4,115.4,269,115.2,268.8,115.2z M259.7,137.7h-2.5c-0.3,0-0.6-0.3-0.6-0.6c0-0.3,0.3-0.6,0.6-0.6h2.5c0.3,0,0.6,0.3,0.6,0.6
		C260.4,137.4,260,137.7,259.7,137.7z M261.3,134.5h-4.1c-0.3,0-0.6-0.3-0.6-0.6c0-0.3,0.3-0.6,0.6-0.6h4.1c0.3,0,0.6,0.3,0.6,0.6
		C261.9,134.3,261.7,134.5,261.3,134.5z M256.6,130.7c0-0.3,0.3-0.6,0.6-0.6h2.5c0.3,0,0.6,0.3,0.6,0.6c0,0.3-0.3,0.6-0.6,0.6h-2.5
		C256.9,131.4,256.6,131.1,256.6,130.7z M261.3,128.2h-4.1c-0.3,0-0.6-0.3-0.6-0.6c0-0.3,0.3-0.6,0.6-0.6h4.1c0.3,0,0.6,0.3,0.6,0.6
		C261.9,128,261.7,128.2,261.3,128.2z M256.6,124.4c0-0.3,0.3-0.6,0.6-0.6h2.5c0.3,0,0.6,0.3,0.6,0.6s-0.3,0.6-0.6,0.6h-2.5
		C256.9,125.1,256.6,124.7,256.6,124.4z M261.3,121.9h-4.1c-0.3,0-0.6-0.3-0.6-0.6s0.3-0.6,0.6-0.6h4.1c0.3,0,0.6,0.3,0.6,0.6
		S261.7,121.9,261.3,121.9z"/>
	<path class="st2" d="M282.8,141.7l-8.9-17.9c-0.1-0.1-0.1-0.2-0.1-0.2v-5.1c0-0.3,0.2-0.6,0.5-0.6l0,0c0.3,0,0.5-0.2,0.5-0.6v-1.6
		c0-0.3-0.2-0.6-0.5-0.6h-3.1c-0.2,0-0.3,0.2-0.3,0.4c0,0.1,0,0.2,0,0.3v3.2c0,1-0.6,1.8-1.5,2.1c-0.2,0.1-0.3,0.2-0.3,0.5v16.8
		c0,2-0.7,3.8-1.9,5.3c-0.3,0.4-0.1,1.1,0.5,1.1h13.5C282.6,144.6,283.4,143,282.8,141.7z"/>
</g>
</svg>
