<?xml version="1.0" encoding="utf-8"?>
<!-- Generator: Adobe Illustrator 24.2.0, SVG Export Plug-In . SVG Version: 6.00 Build 0)  -->
<svg version="1.1" id="Layer_1" xmlns="http://www.w3.org/2000/svg" xmlns:xlink="http://www.w3.org/1999/xlink" x="0px" y="0px"
	 viewBox="0 0 383.2 243.3" style="enable-background:new 0 0 383.2 243.3;" xml:space="preserve">
<style type="text/css">
	.st0{fill:#F4F7FA;}
	.st1{opacity:0.5;}
	.st2{fill:#BFC8D6;}
	.st3{fill:#FFFFFF;}
	.st4{fill:url(#SVGID_1_);}
	.st5{fill:url(#SVGID_2_);}
	.st6{fill:url(#SVGID_3_);}
	.st7{fill:#D8DEE8;}
	.st8{fill:url(#SVGID_4_);}
	.st9{fill:url(#SVGID_5_);}
	.st10{fill:url(#SVGID_6_);}
	.st11{fill:#FCB048;}
	.st12{fill:url(#SVGID_7_);}
	.st13{fill:url(#SVGID_8_);}
	.st14{fill:url(#SVGID_9_);}
	.st15{fill:url(#SVGID_10_);}
	.st16{fill:url(#SVGID_11_);}
	.st17{fill:url(#SVGID_12_);}
	.st18{fill:url(#SVGID_13_);}
	.st19{fill:url(#SVGID_14_);}
	.st20{fill:url(#SVGID_15_);}
	.st21{fill:url(#SVGID_16_);}
	.st22{fill:url(#SVGID_17_);}
	.st23{fill:url(#SVGID_18_);}
	.st24{fill:url(#SVGID_19_);}
	.st25{fill:url(#SVGID_20_);}
	.st26{fill:url(#SVGID_21_);}
	.st27{fill:url(#SVGID_22_);}
	.st28{fill:url(#SVGID_23_);}
	.st29{fill:url(#SVGID_24_);}
	.st30{fill:url(#SVGID_25_);}
	.st31{fill:url(#SVGID_26_);}
	.st32{fill:url(#SVGID_27_);}
	.st33{fill:url(#SVGID_28_);}
	.st34{fill:url(#SVGID_29_);}
	.st35{fill:url(#SVGID_30_);}
	.st36{fill:url(#SVGID_31_);}
	.st37{fill:url(#SVGID_32_);}
	.st38{fill:url(#SVGID_33_);}
	.st39{fill:url(#SVGID_34_);}
	.st40{fill:url(#SVGID_35_);}
	.st41{fill:url(#SVGID_36_);}
	.st42{fill:url(#SVGID_37_);}
	.st43{fill:url(#SVGID_38_);}
	.st44{fill:url(#SVGID_39_);}
	.st45{fill:url(#SVGID_40_);}
	.st46{display:none;}
	.st47{display:inline;fill:url(#SVGID_41_);}
	.st48{opacity:0.3;fill:url(#SVGID_42_);}
	.st49{fill:url(#SVGID_43_);}
	.st50{fill:url(#SVGID_44_);}
	.st51{fill:url(#SVGID_45_);}
	.st52{fill:url(#SVGID_46_);}
	.st53{fill:url(#SVGID_47_);}
	.st54{opacity:0.2;fill:#FFFFFF;}
	.st55{fill:url(#SVGID_48_);}
</style>
<g>
	<path class="st0" d="M281.1,163.2c-5.9,22.6-22.4,43.5-62.5,54.3c-14.5,3.9-31.3,5.8-46.3,4.6c-22.1-1.7-45.3-11.7-63.7-23
		c-12.7-7.8-17.8-18.4-19.6-30.3c-1.1-7.4-1-15.3-0.6-23.4c0.5-12.2-1.4-24.5-4.3-36.4c-4.4-18.3-0.8-37.5,10.1-53.2
		s28.2-26.7,47.8-30.4c33.1-6.2,66.7-2.1,66.7-2.1c44.3,4.6,66.7,48.5,72.1,84.3C283.4,124,286,144.2,281.1,163.2z"/>
	<g class="st1">
		<g>
			<path class="st2" d="M184.3,163.6c-26,0-47.1-21.1-47.1-47.1s21.1-47.1,47.1-47.1s47.1,21.1,47.1,47.1S210.3,163.6,184.3,163.6z
				 M184.3,70.5c-25.4,0-46,20.6-46,46s20.6,46,46,46s46-20.6,46-46S209.6,70.5,184.3,70.5z"/>
		</g>
		<g>
			<path class="st2" d="M184.3,183.6c-17.9,0-34.7-7-47.4-19.6c-12.7-12.7-19.6-29.5-19.6-47.4s7-34.7,19.6-47.4
				c12.7-12.7,29.5-19.6,47.4-19.6s34.7,7,47.4,19.6c12.7,12.7,19.6,29.5,19.6,47.4s-7,34.7-19.6,47.4
				C219,176.6,202.2,183.6,184.3,183.6z M184.3,50.6c-36.4,0-65.9,29.6-65.9,65.9s29.6,65.9,65.9,65.9s65.9-29.6,65.9-65.9
				S220.6,50.6,184.3,50.6z"/>
		</g>
		<g>
			<path class="st2" d="M184.3,202.6c-23,0-44.6-8.9-60.8-25.2c-16.2-16.2-25.2-37.8-25.2-60.8s8.9-44.6,25.2-60.8
				c16.2-16.2,37.8-25.2,60.8-25.2s44.6,8.9,60.8,25.2c16.2,16.2,25.2,37.8,25.2,60.8s-8.9,44.6-25.2,60.8
				C228.9,193.6,207.3,202.6,184.3,202.6z M184.3,31.6c-46.8,0-84.9,38.1-84.9,84.9s38.1,84.9,84.9,84.9s84.9-38.1,84.9-84.9
				S231.1,31.6,184.3,31.6z"/>
		</g>
	</g>
	<g>
		<g>
			<g>
				<g>
					<circle class="st3" cx="91.7" cy="141.2" r="33.3"/>
					
						<linearGradient id="SVGID_1_" gradientUnits="userSpaceOnUse" x1="70.3506" y1="141.3942" x2="145.0124" y2="6.0397" gradientTransform="matrix(1 0 0 -1 0 243.8898)">
						<stop  offset="0" style="stop-color:#FF9085"/>
						<stop  offset="1" style="stop-color:#FB6FBB"/>
					</linearGradient>
					<circle class="st4" cx="91.7" cy="141.2" r="29.6"/>
				</g>
			</g>
		</g>
	</g>
</g>
<g>
	<g>
		<g>
			<circle class="st3" cx="266.9" cy="130.9" r="31"/>
			
				<linearGradient id="SVGID_2_" gradientUnits="userSpaceOnUse" x1="247.0339" y1="149.0051" x2="316.4838" y2="23.0992" gradientTransform="matrix(1 0 0 -1 0 243.8898)">
				<stop  offset="3.597120e-03" style="stop-color:#E38DDD"/>
				<stop  offset="1" style="stop-color:#9571F6"/>
			</linearGradient>
			<circle class="st5" cx="266.9" cy="130.9" r="27.5"/>
		</g>
	</g>
</g>
<g>
	<g>
		<g>
			<circle class="st3" cx="157.6" cy="51.8" r="31.5"/>
			
				<linearGradient id="SVGID_3_" gradientUnits="userSpaceOnUse" x1="137.4436" y1="228.6314" x2="207.9826" y2="100.7511" gradientTransform="matrix(1 0 0 -1 0 243.8898)">
				<stop  offset="0" style="stop-color:#FFC444"/>
				<stop  offset="0.9964" style="stop-color:#F36F56"/>
			</linearGradient>
			<circle class="st6" cx="157.6" cy="51.8" r="28"/>
		</g>
	</g>
</g>
<g>
	<g>
		<polygon class="st2" points="156,170.7 135,171.5 135,115 156,115.5 		"/>
		<polygon class="st7" points="149.4,171 141.8,171.3 141.8,115.2 149.4,115.4 		"/>
		<polygon class="st7" points="232.9,112.3 125.9,109.1 125.9,103.1 232.9,106.9 		"/>
		<polygon class="st7" points="231.1,176.9 128.2,181.7 128.2,175.9 231.1,171.8 		"/>
		<polygon class="st2" points="237.5,184.1 120,190.6 120,183.9 237.5,178.3 		"/>
		<polygon class="st2" points="229.7,105.9 129.9,102.2 182.6,86.1 		"/>
		<g>
			<path class="st7" d="M158.1,113.3l-25.3-0.7c-1.1,0-2,0.9-2,2v0.7c0,1.1,0.9,2.1,2,2.1l25.3,0.5c1.1,0,1.9-0.8,1.9-1.9v-0.7
				C160,114.2,159.1,113.3,158.1,113.3z"/>
			<path class="st7" d="M158.1,168.3l-25.3,0.8c-1.1,0-2,1-2,2.1v0.7c0,1.1,0.9,2,2,2l25.3-1c1.1,0,1.9-1,1.9-2.1v-0.7
				C160,169.2,159.1,168.3,158.1,168.3z"/>
		</g>
		<polygon class="st2" points="192.2,169.5 172.8,170.1 172.8,115.9 192.2,116.4 		"/>
		<polygon class="st7" points="186.1,169.7 179.1,169.9 179.1,116.1 186.1,116.3 		"/>
		<g>
			<path class="st7" d="M194.1,114.2l-23.3-0.6c-1,0-1.9,0.8-1.9,1.9v0.7c0,1.1,0.8,2,1.9,2l23.3,0.5c1,0,1.8-0.8,1.8-1.9v-0.7
				C195.8,115.1,195.1,114.2,194.1,114.2z"/>
			<path class="st7" d="M194.1,167.1l-23.3,0.8c-1,0-1.9,0.9-1.9,2v0.7c0,1.1,0.8,1.9,1.9,1.9l23.3-0.9c1,0,1.8-0.9,1.8-2V169
				C195.8,167.9,195.1,167.1,194.1,167.1z"/>
		</g>
		<polygon class="st2" points="225.6,168.3 207.7,168.9 207.7,116.8 225.6,117.2 		"/>
		<polygon class="st7" points="220,168.5 213.5,168.7 213.5,116.9 220,117.1 		"/>
		<g>
			<path class="st7" d="M227.4,115.1l-21.6-0.6c-0.9,0-1.7,0.8-1.7,1.8v0.7c0,1,0.8,1.9,1.7,1.9l21.6,0.5c0.9,0,1.6-0.8,1.6-1.8V117
				C229,116,228.3,115.1,227.4,115.1z"/>
			<path class="st7" d="M227.4,166l-21.6,0.7c-0.9,0-1.7,0.9-1.7,1.9v0.7c0,1,0.8,1.9,1.7,1.8l21.6-0.8c0.9,0,1.6-0.9,1.6-1.9v-0.6
				C229,166.8,228.3,166,227.4,166z"/>
		</g>
	</g>
	<g>
		<g>
			<linearGradient id="SVGID_4_" gradientUnits="userSpaceOnUse" x1="181.2744" y1="215.7425" x2="240.69" y2="215.7425">
				<stop  offset="0" style="stop-color:#FCB148"/>
				<stop  offset="5.207239e-02" style="stop-color:#FDBA46"/>
				<stop  offset="0.1424" style="stop-color:#FFC244"/>
				<stop  offset="0.3183" style="stop-color:#FFC444"/>
				<stop  offset="0.4849" style="stop-color:#FDB946"/>
				<stop  offset="0.7754" style="stop-color:#F99C4D"/>
				<stop  offset="0.8658" style="stop-color:#F8924F"/>
				<stop  offset="1" style="stop-color:#F8924F"/>
			</linearGradient>
			<path class="st8" d="M185.7,211.2v5.7c0,1.9,11.6,3.4,25.8,3.4s25.8-1.5,25.8-3.4v-5.7H185.7z"/>
			<linearGradient id="SVGID_5_" gradientUnits="userSpaceOnUse" x1="211.2552" y1="209.0496" x2="214.3875" y2="235.2717">
				<stop  offset="0" style="stop-color:#FFDB44"/>
				<stop  offset="1" style="stop-color:#FEEF06"/>
			</linearGradient>
			<path class="st9" d="M237.3,211.2c0,1.9-11.6,3.4-25.8,3.4s-25.8-1.5-25.8-3.4c0-1.9,11.6-3.4,25.8-3.4S237.3,209.4,237.3,211.2z
				"/>
			<linearGradient id="SVGID_6_" gradientUnits="userSpaceOnUse" x1="211.119" y1="207.8802" x2="212.081" y2="215.9334">
				<stop  offset="0" style="stop-color:#FFDB44"/>
				<stop  offset="1" style="stop-color:#FEEF06"/>
			</linearGradient>
			<path class="st10" d="M211.5,214.8c-12.6,0-25.8-1.2-25.8-3.5c0-0.1,0-0.4,0.2-0.4c0.1,0,0.1,0.2,0.1,0.3
				c0,1.5,10.5,3.1,25.6,3.1c15.1,0,25.6-1.6,25.6-3.1c0-0.1,0-0.2,0.1-0.2s0.1,0.2,0.1,0.3C237.4,213.6,224.1,214.8,211.5,214.8z"
				/>
			<g>
				<path class="st11" d="M209.1,211.4c0.3-0.2,0.5-0.3,0.8-0.5c0.3-0.2,0.7-0.3,1.1-0.5c0.5-0.1,1-0.2,1.7-0.3
					c0.7-0.1,1.5-0.1,2.5-0.1c1,0,1.9,0,2.8,0.1c0.9,0.1,1.6,0.2,2.3,0.3c0.7,0.1,1.2,0.3,1.6,0.5c0.4,0.2,0.7,0.4,0.7,0.7l2.9,0
					c0.2,0,0.4,0,0.6,0.1c0.2,0,0.2,0.1,0.2,0.1l0,0.2l-3.7,0c-0.1,0.3-0.5,0.6-1,0.8c-0.5,0.2-1.2,0.5-2,0.6l-1.4-0.2
					c-0.1,0-0.2,0-0.3-0.1c-0.1,0-0.1-0.1-0.1-0.1c0,0,0.1-0.1,0.3-0.2c0.2-0.1,0.4-0.1,0.7-0.2c0.3-0.1,0.5-0.2,0.8-0.3
					c0.3-0.1,0.4-0.3,0.5-0.4l-8.8-0.1c-0.2,0.2-0.5,0.3-0.8,0.5c-0.3,0.2-0.7,0.3-1.1,0.4c-0.5,0.1-1.1,0.2-1.8,0.3
					c-0.7,0.1-1.6,0.1-2.7,0.1c-0.8,0-1.6,0-2.4-0.1c-0.8-0.1-1.5-0.2-2.1-0.3c-0.6-0.1-1.1-0.3-1.5-0.5c-0.4-0.2-0.6-0.4-0.6-0.7
					l-2.4,0c-0.2,0-0.4,0-0.6,0c-0.2,0-0.2-0.1-0.2-0.1l0-0.2l3.3,0c0.1-0.3,0.4-0.5,0.9-0.7c0.5-0.2,1-0.4,1.7-0.5l1.1,0.2
					c0.3,0,0.5,0.1,0.5,0.2c0,0-0.1,0.1-0.2,0.1c-0.1,0.1-0.3,0.1-0.5,0.2c-0.2,0.1-0.4,0.2-0.5,0.2c-0.2,0.1-0.3,0.2-0.4,0.3
					L209.1,211.4z M201,211.7c0.1,0.2,0.2,0.3,0.4,0.4c0.2,0.1,0.5,0.2,0.8,0.3c0.3,0.1,0.7,0.1,1.1,0.2c0.4,0,0.9,0.1,1.3,0
					c0.5,0,1,0,1.4-0.1c0.4,0,0.7-0.1,1-0.2c0.3-0.1,0.6-0.2,0.8-0.3c0.2-0.1,0.4-0.2,0.6-0.3L201,211.7z M220.2,211.5
					c-0.1-0.2-0.2-0.3-0.5-0.4c-0.2-0.1-0.6-0.2-1-0.3c-0.4-0.1-0.8-0.1-1.4-0.2c-0.5,0-1.1-0.1-1.7-0.1c-0.6,0-1,0-1.4,0.1
					c-0.4,0-0.7,0.1-1,0.2c-0.3,0.1-0.5,0.2-0.7,0.3c-0.2,0.1-0.4,0.2-0.6,0.3L220.2,211.5z"/>
			</g>
			
				<linearGradient id="SVGID_7_" gradientUnits="userSpaceOnUse" x1="-1868.7743" y1="446.5293" x2="-1867.8158" y2="454.554" gradientTransform="matrix(-1 0 0 -1 -1656.751 661.6185)">
				<stop  offset="3.597120e-03" style="stop-color:#F36F56"/>
				<stop  offset="0.3059" style="stop-color:#F99C4C"/>
				<stop  offset="0.545" style="stop-color:#FDB946"/>
				<stop  offset="0.6817" style="stop-color:#FFC444"/>
				<stop  offset="0.8038" style="stop-color:#FFC244"/>
				<stop  offset="0.8667" style="stop-color:#FEBA46"/>
				<stop  offset="0.916" style="stop-color:#FCAD49"/>
				<stop  offset="0.958" style="stop-color:#F99A4D"/>
				<stop  offset="0.9955" style="stop-color:#F58152"/>
				<stop  offset="1" style="stop-color:#F57E53"/>
			</linearGradient>
			<path class="st12" d="M211.5,208.2c-11.5,0-23.5,1-25.4,3c0.1,0.1,0.1,0.1,0.2,0.2c1.6-1.4,11.5-2.7,25.2-2.7
				c14,0,24.1,1.4,25.3,2.8c0.1-0.1,0.1-0.1,0.2-0.2C235.4,209.3,223.2,208.2,211.5,208.2z"/>
		</g>
		<g>
			<linearGradient id="SVGID_8_" gradientUnits="userSpaceOnUse" x1="174.0957" y1="209.7263" x2="233.5113" y2="209.7263">
				<stop  offset="0" style="stop-color:#FCB148"/>
				<stop  offset="5.207239e-02" style="stop-color:#FDBA46"/>
				<stop  offset="0.1424" style="stop-color:#FFC244"/>
				<stop  offset="0.3183" style="stop-color:#FFC444"/>
				<stop  offset="0.4849" style="stop-color:#FDB946"/>
				<stop  offset="0.7754" style="stop-color:#F99C4D"/>
				<stop  offset="0.8658" style="stop-color:#F8924F"/>
				<stop  offset="1" style="stop-color:#F8924F"/>
			</linearGradient>
			<path class="st13" d="M178.5,205.2v5.7c0,1.9,11.6,3.4,25.8,3.4c14.3,0,25.8-1.5,25.8-3.4v-5.7H178.5z"/>
			<linearGradient id="SVGID_9_" gradientUnits="userSpaceOnUse" x1="204.0766" y1="203.0334" x2="207.2089" y2="229.2555">
				<stop  offset="0" style="stop-color:#FFDB44"/>
				<stop  offset="1" style="stop-color:#FEEF06"/>
			</linearGradient>
			<path class="st14" d="M230.2,205.2c0,1.9-11.6,3.4-25.8,3.4c-14.3,0-25.8-1.5-25.8-3.4c0-1.9,11.6-3.4,25.8-3.4
				C218.6,201.8,230.2,203.3,230.2,205.2z"/>
			<linearGradient id="SVGID_10_" gradientUnits="userSpaceOnUse" x1="203.9404" y1="201.864" x2="204.9024" y2="209.9172">
				<stop  offset="0" style="stop-color:#FFDB44"/>
				<stop  offset="1" style="stop-color:#FEEF06"/>
			</linearGradient>
			<path class="st15" d="M204.3,208.8c-12.6,0-25.8-1.2-25.8-3.5c0-0.1,0-0.4,0.2-0.4c0.1,0,0.1,0.2,0.1,0.3
				c0,1.5,10.5,3.1,25.6,3.1s25.6-1.6,25.6-3.1c0-0.1,0-0.2,0.1-0.2c0.1,0,0.1,0.2,0.1,0.3C230.2,207.6,217,208.8,204.3,208.8z"/>
			<g>
				<path class="st11" d="M201.9,205.4c0.3-0.2,0.5-0.3,0.8-0.5c0.3-0.2,0.7-0.3,1.1-0.5c0.5-0.1,1-0.2,1.7-0.3
					c0.7-0.1,1.5-0.1,2.5-0.1c1,0,1.9,0,2.8,0.1c0.9,0.1,1.6,0.2,2.3,0.3c0.7,0.1,1.2,0.3,1.6,0.5c0.4,0.2,0.7,0.4,0.7,0.7l2.9,0
					c0.2,0,0.4,0,0.6,0.1c0.2,0,0.2,0.1,0.2,0.1l0,0.2l-3.7,0c-0.1,0.3-0.5,0.6-1,0.8c-0.5,0.2-1.2,0.5-2,0.6l-1.4-0.2
					c-0.1,0-0.2,0-0.3-0.1c-0.1,0-0.1-0.1-0.1-0.1c0,0,0.1-0.1,0.3-0.2c0.2-0.1,0.4-0.1,0.7-0.2c0.3-0.1,0.5-0.2,0.8-0.3
					c0.3-0.1,0.4-0.3,0.5-0.4l-8.8-0.1c-0.2,0.2-0.5,0.3-0.8,0.5c-0.3,0.2-0.7,0.3-1.1,0.4c-0.5,0.1-1.1,0.2-1.8,0.3
					c-0.7,0.1-1.6,0.1-2.7,0.1c-0.8,0-1.6,0-2.4-0.1c-0.8-0.1-1.5-0.2-2.1-0.3c-0.6-0.1-1.1-0.3-1.5-0.5c-0.4-0.2-0.6-0.4-0.6-0.7
					l-2.4,0c-0.2,0-0.4,0-0.6,0c-0.2,0-0.2-0.1-0.2-0.1l0-0.2l3.3,0c0.1-0.3,0.4-0.5,0.9-0.7c0.5-0.2,1-0.4,1.7-0.5l1.1,0.2
					c0.3,0,0.5,0.1,0.5,0.2c0,0-0.1,0.1-0.2,0.1c-0.1,0.1-0.3,0.1-0.5,0.2c-0.2,0.1-0.4,0.2-0.5,0.2c-0.2,0.1-0.3,0.2-0.4,0.3
					L201.9,205.4z M193.8,205.7c0.1,0.2,0.2,0.3,0.4,0.4c0.2,0.1,0.5,0.2,0.8,0.3c0.3,0.1,0.7,0.1,1.1,0.2c0.4,0,0.9,0.1,1.3,0
					c0.5,0,1,0,1.4-0.1c0.4,0,0.7-0.1,1-0.2c0.3-0.1,0.6-0.2,0.8-0.3c0.2-0.1,0.4-0.2,0.6-0.3L193.8,205.7z M213,205.5
					c-0.1-0.2-0.2-0.3-0.5-0.4c-0.2-0.1-0.6-0.2-1-0.3c-0.4-0.1-0.8-0.1-1.4-0.2c-0.5,0-1.1-0.1-1.7-0.1c-0.6,0-1,0-1.4,0.1
					c-0.4,0-0.7,0.1-1,0.2c-0.3,0.1-0.5,0.2-0.7,0.3c-0.2,0.1-0.4,0.2-0.6,0.3L213,205.5z"/>
			</g>
			
				<linearGradient id="SVGID_11_" gradientUnits="userSpaceOnUse" x1="-1861.5957" y1="452.5455" x2="-1860.6371" y2="460.5702" gradientTransform="matrix(-1 0 0 -1 -1656.751 661.6185)">
				<stop  offset="3.597120e-03" style="stop-color:#F36F56"/>
				<stop  offset="0.3059" style="stop-color:#F99C4C"/>
				<stop  offset="0.545" style="stop-color:#FDB946"/>
				<stop  offset="0.6817" style="stop-color:#FFC444"/>
				<stop  offset="0.8038" style="stop-color:#FFC244"/>
				<stop  offset="0.8667" style="stop-color:#FEBA46"/>
				<stop  offset="0.916" style="stop-color:#FCAD49"/>
				<stop  offset="0.958" style="stop-color:#F99A4D"/>
				<stop  offset="0.9955" style="stop-color:#F58152"/>
				<stop  offset="1" style="stop-color:#F57E53"/>
			</linearGradient>
			<path class="st16" d="M204.3,202.2c-11.5,0-23.5,1-25.4,3c0.1,0.1,0.1,0.1,0.2,0.2c1.6-1.4,11.5-2.7,25.2-2.7
				c14,0,24.1,1.4,25.3,2.8c0.1-0.1,0.1-0.1,0.2-0.2C228.3,203.2,216.1,202.2,204.3,202.2z"/>
		</g>
		<g>
			<linearGradient id="SVGID_12_" gradientUnits="userSpaceOnUse" x1="180.2899" y1="203.7277" x2="239.7055" y2="203.7277">
				<stop  offset="0" style="stop-color:#FCB148"/>
				<stop  offset="5.207239e-02" style="stop-color:#FDBA46"/>
				<stop  offset="0.1424" style="stop-color:#FFC244"/>
				<stop  offset="0.3183" style="stop-color:#FFC444"/>
				<stop  offset="0.4849" style="stop-color:#FDB946"/>
				<stop  offset="0.7754" style="stop-color:#F99C4D"/>
				<stop  offset="0.8658" style="stop-color:#F8924F"/>
				<stop  offset="1" style="stop-color:#F8924F"/>
			</linearGradient>
			<path class="st17" d="M184.7,199.2v5.7c0,1.9,11.6,3.4,25.8,3.4c14.3,0,25.8-1.5,25.8-3.4v-5.7H184.7z"/>
			<linearGradient id="SVGID_13_" gradientUnits="userSpaceOnUse" x1="210.2707" y1="197.0348" x2="213.4031" y2="223.2569">
				<stop  offset="0" style="stop-color:#FFDB44"/>
				<stop  offset="1" style="stop-color:#FEEF06"/>
			</linearGradient>
			<path class="st18" d="M236.4,199.2c0,1.9-11.6,3.4-25.8,3.4c-14.3,0-25.8-1.5-25.8-3.4c0-1.9,11.6-3.4,25.8-3.4
				C224.8,195.8,236.4,197.3,236.4,199.2z"/>
			<linearGradient id="SVGID_14_" gradientUnits="userSpaceOnUse" x1="210.1346" y1="195.8654" x2="211.0966" y2="203.9186">
				<stop  offset="0" style="stop-color:#FFDB44"/>
				<stop  offset="1" style="stop-color:#FEEF06"/>
			</linearGradient>
			<path class="st19" d="M210.5,202.8c-12.6,0-25.8-1.2-25.8-3.5c0-0.1,0-0.4,0.2-0.4c0.1,0,0.1,0.2,0.1,0.3
				c0,1.5,10.5,3.1,25.6,3.1c15.1,0,25.6-1.6,25.6-3.1c0-0.1,0-0.2,0.1-0.2c0.1,0,0.1,0.2,0.1,0.3
				C236.4,201.6,223.2,202.8,210.5,202.8z"/>
			<g>
				<path class="st11" d="M208.1,199.4c0.3-0.2,0.5-0.3,0.8-0.5c0.3-0.2,0.7-0.3,1.1-0.5c0.5-0.1,1-0.2,1.7-0.3
					c0.7-0.1,1.5-0.1,2.5-0.1c1,0,1.9,0,2.8,0.1c0.9,0.1,1.6,0.2,2.3,0.3c0.7,0.1,1.2,0.3,1.6,0.5c0.4,0.2,0.7,0.4,0.7,0.7l2.9,0
					c0.2,0,0.4,0,0.6,0.1c0.2,0,0.2,0.1,0.2,0.1l0,0.2l-3.7,0c-0.1,0.3-0.5,0.6-1,0.8c-0.5,0.2-1.2,0.5-2,0.6l-1.4-0.2
					c-0.1,0-0.2,0-0.3-0.1c-0.1,0-0.1-0.1-0.1-0.1c0,0,0.1-0.1,0.3-0.2c0.2-0.1,0.4-0.1,0.7-0.2c0.3-0.1,0.5-0.2,0.8-0.3
					c0.3-0.1,0.4-0.3,0.5-0.4l-8.8-0.1c-0.2,0.2-0.5,0.3-0.8,0.5c-0.3,0.2-0.7,0.3-1.1,0.4c-0.5,0.1-1.1,0.2-1.8,0.3
					c-0.7,0.1-1.6,0.1-2.7,0.1c-0.8,0-1.6,0-2.4-0.1c-0.8-0.1-1.5-0.2-2.1-0.3c-0.6-0.1-1.1-0.3-1.5-0.5c-0.4-0.2-0.6-0.4-0.6-0.7
					l-2.4,0c-0.2,0-0.4,0-0.6,0c-0.2,0-0.2-0.1-0.2-0.1l0-0.2l3.3,0c0.1-0.3,0.4-0.5,0.9-0.7c0.5-0.2,1-0.4,1.7-0.5l1.1,0.2
					c0.3,0,0.5,0.1,0.5,0.2c0,0-0.1,0.1-0.2,0.1c-0.1,0.1-0.3,0.1-0.5,0.2c-0.2,0.1-0.4,0.2-0.5,0.2c-0.2,0.1-0.3,0.2-0.4,0.3
					L208.1,199.4z M200,199.7c0.1,0.2,0.2,0.3,0.4,0.4c0.2,0.1,0.5,0.2,0.8,0.3s0.7,0.1,1.1,0.2c0.4,0,0.9,0.1,1.3,0
					c0.5,0,1,0,1.4-0.1c0.4,0,0.7-0.1,1-0.2c0.3-0.1,0.6-0.2,0.8-0.3c0.2-0.1,0.4-0.2,0.6-0.3L200,199.7z M219.2,199.5
					c-0.1-0.2-0.2-0.3-0.5-0.4c-0.2-0.1-0.6-0.2-1-0.3c-0.4-0.1-0.8-0.1-1.4-0.2c-0.5,0-1.1-0.1-1.7-0.1c-0.6,0-1,0-1.4,0.1
					c-0.4,0-0.7,0.1-1,0.2c-0.3,0.1-0.5,0.2-0.7,0.3c-0.2,0.1-0.4,0.2-0.6,0.3L219.2,199.5z"/>
			</g>
			
				<linearGradient id="SVGID_15_" gradientUnits="userSpaceOnUse" x1="-1867.7899" y1="458.5441" x2="-1866.8313" y2="466.5688" gradientTransform="matrix(-1 0 0 -1 -1656.751 661.6185)">
				<stop  offset="3.597120e-03" style="stop-color:#F36F56"/>
				<stop  offset="0.3059" style="stop-color:#F99C4C"/>
				<stop  offset="0.545" style="stop-color:#FDB946"/>
				<stop  offset="0.6817" style="stop-color:#FFC444"/>
				<stop  offset="0.8038" style="stop-color:#FFC244"/>
				<stop  offset="0.8667" style="stop-color:#FEBA46"/>
				<stop  offset="0.916" style="stop-color:#FCAD49"/>
				<stop  offset="0.958" style="stop-color:#F99A4D"/>
				<stop  offset="0.9955" style="stop-color:#F58152"/>
				<stop  offset="1" style="stop-color:#F57E53"/>
			</linearGradient>
			<path class="st20" d="M210.5,196.2c-11.5,0-23.5,1-25.4,3c0.1,0.1,0.1,0.1,0.2,0.2c1.6-1.4,11.5-2.7,25.2-2.7
				c14,0,24.1,1.4,25.3,2.8c0.1-0.1,0.1-0.1,0.2-0.2C234.5,197.3,222.3,196.2,210.5,196.2z"/>
		</g>
		<g>
			<linearGradient id="SVGID_16_" gradientUnits="userSpaceOnUse" x1="184.0488" y1="197.7115" x2="243.4643" y2="197.7115">
				<stop  offset="0" style="stop-color:#FCB148"/>
				<stop  offset="5.207239e-02" style="stop-color:#FDBA46"/>
				<stop  offset="0.1424" style="stop-color:#FFC244"/>
				<stop  offset="0.3183" style="stop-color:#FFC444"/>
				<stop  offset="0.4849" style="stop-color:#FDB946"/>
				<stop  offset="0.7754" style="stop-color:#F99C4D"/>
				<stop  offset="0.8658" style="stop-color:#F8924F"/>
				<stop  offset="1" style="stop-color:#F8924F"/>
			</linearGradient>
			<path class="st21" d="M188.5,193.2v5.7c0,1.9,11.6,3.4,25.8,3.4c14.3,0,25.8-1.5,25.8-3.4v-5.7H188.5z"/>
			<linearGradient id="SVGID_17_" gradientUnits="userSpaceOnUse" x1="214.0296" y1="191.0186" x2="217.1619" y2="217.2407">
				<stop  offset="0" style="stop-color:#FFDB44"/>
				<stop  offset="1" style="stop-color:#FEEF06"/>
			</linearGradient>
			<ellipse class="st22" cx="214.3" cy="193.2" rx="25.8" ry="3.4"/>
			<linearGradient id="SVGID_18_" gradientUnits="userSpaceOnUse" x1="213.8934" y1="189.8492" x2="214.8553" y2="197.9024">
				<stop  offset="0" style="stop-color:#FFDB44"/>
				<stop  offset="1" style="stop-color:#FEEF06"/>
			</linearGradient>
			<path class="st23" d="M214.3,196.8c-12.6,0-25.8-1.2-25.8-3.5c0-0.1,0-0.4,0.2-0.4s0.1,0.2,0.1,0.3c0,1.5,10.5,3.1,25.6,3.1
				c15.1,0,25.6-1.6,25.6-3.1c0-0.1,0-0.2,0.1-0.2c0.1,0,0.1,0.2,0.1,0.3C240.1,195.5,226.9,196.8,214.3,196.8z"/>
			<g>
				<path class="st11" d="M211.8,193.4c0.3-0.2,0.5-0.3,0.8-0.5c0.3-0.2,0.7-0.3,1.1-0.5c0.5-0.1,1-0.2,1.7-0.3
					c0.7-0.1,1.5-0.1,2.5-0.1c1,0,1.9,0,2.8,0.1c0.9,0.1,1.6,0.2,2.3,0.3c0.7,0.1,1.2,0.3,1.6,0.5c0.4,0.2,0.7,0.4,0.7,0.7l2.9,0
					c0.2,0,0.4,0,0.6,0.1c0.2,0,0.2,0.1,0.2,0.1l0,0.2l-3.7,0c-0.1,0.3-0.5,0.6-1,0.8c-0.5,0.2-1.2,0.5-2,0.6l-1.4-0.2
					c-0.1,0-0.2,0-0.3-0.1c-0.1,0-0.1-0.1-0.1-0.1c0,0,0.1-0.1,0.3-0.2c0.2-0.1,0.4-0.1,0.7-0.2c0.3-0.1,0.5-0.2,0.8-0.3
					c0.3-0.1,0.4-0.3,0.5-0.4l-8.8-0.1c-0.2,0.2-0.5,0.3-0.8,0.5c-0.3,0.2-0.7,0.3-1.1,0.4c-0.5,0.1-1.1,0.2-1.8,0.3
					c-0.7,0.1-1.6,0.1-2.7,0.1c-0.8,0-1.6,0-2.4-0.1c-0.8-0.1-1.5-0.2-2.1-0.3c-0.6-0.1-1.1-0.3-1.5-0.5c-0.4-0.2-0.6-0.4-0.6-0.7
					l-2.4,0c-0.2,0-0.4,0-0.6,0c-0.2,0-0.2-0.1-0.2-0.1l0-0.2l3.3,0c0.1-0.3,0.4-0.5,0.9-0.7c0.5-0.2,1-0.4,1.7-0.5l1.1,0.2
					c0.3,0,0.5,0.1,0.5,0.2c0,0-0.1,0.1-0.2,0.1c-0.1,0.1-0.3,0.1-0.5,0.2c-0.2,0.1-0.4,0.2-0.5,0.2c-0.2,0.1-0.3,0.2-0.4,0.3
					L211.8,193.4z M203.8,193.7c0.1,0.2,0.2,0.3,0.4,0.4c0.2,0.1,0.5,0.2,0.8,0.3c0.3,0.1,0.7,0.1,1.1,0.2c0.4,0,0.9,0.1,1.3,0
					c0.5,0,1,0,1.4-0.1c0.4,0,0.7-0.1,1-0.2c0.3-0.1,0.6-0.2,0.8-0.3c0.2-0.1,0.4-0.2,0.6-0.3L203.8,193.7z M223,193.5
					c-0.1-0.2-0.2-0.3-0.5-0.4c-0.2-0.1-0.6-0.2-1-0.3c-0.4-0.1-0.8-0.1-1.4-0.2c-0.5,0-1.1-0.1-1.7-0.1c-0.6,0-1,0-1.4,0.1
					c-0.4,0-0.7,0.1-1,0.2c-0.3,0.1-0.5,0.2-0.7,0.3c-0.2,0.1-0.4,0.2-0.6,0.3L223,193.5z"/>
			</g>
			
				<linearGradient id="SVGID_19_" gradientUnits="userSpaceOnUse" x1="-1871.5487" y1="464.5603" x2="-1870.5901" y2="472.585" gradientTransform="matrix(-1 0 0 -1 -1656.751 661.6185)">
				<stop  offset="3.597120e-03" style="stop-color:#F36F56"/>
				<stop  offset="0.3059" style="stop-color:#F99C4C"/>
				<stop  offset="0.545" style="stop-color:#FDB946"/>
				<stop  offset="0.6817" style="stop-color:#FFC444"/>
				<stop  offset="0.8038" style="stop-color:#FFC244"/>
				<stop  offset="0.8667" style="stop-color:#FEBA46"/>
				<stop  offset="0.916" style="stop-color:#FCAD49"/>
				<stop  offset="0.958" style="stop-color:#F99A4D"/>
				<stop  offset="0.9955" style="stop-color:#F58152"/>
				<stop  offset="1" style="stop-color:#F57E53"/>
			</linearGradient>
			<path class="st24" d="M214.3,190.2c-11.5,0-23.5,1-25.4,3c0.1,0.1,0.1,0.1,0.2,0.2c1.6-1.4,11.5-2.7,25.2-2.7
				c14,0,24.1,1.4,25.3,2.8c0.1-0.1,0.1-0.1,0.2-0.2C238.2,191.2,226,190.2,214.3,190.2z"/>
		</g>
		<g>
			<linearGradient id="SVGID_20_" gradientUnits="userSpaceOnUse" x1="181.2744" y1="191.2207" x2="240.69" y2="191.2207">
				<stop  offset="0" style="stop-color:#FCB148"/>
				<stop  offset="5.207239e-02" style="stop-color:#FDBA46"/>
				<stop  offset="0.1424" style="stop-color:#FFC244"/>
				<stop  offset="0.3183" style="stop-color:#FFC444"/>
				<stop  offset="0.4849" style="stop-color:#FDB946"/>
				<stop  offset="0.7754" style="stop-color:#F99C4D"/>
				<stop  offset="0.8658" style="stop-color:#F8924F"/>
				<stop  offset="1" style="stop-color:#F8924F"/>
			</linearGradient>
			<path class="st25" d="M185.7,186.7v5.7c0,1.9,11.6,3.4,25.8,3.4s25.8-1.5,25.8-3.4v-5.7H185.7z"/>
			<linearGradient id="SVGID_21_" gradientUnits="userSpaceOnUse" x1="211.2552" y1="184.5278" x2="214.3875" y2="210.7499">
				<stop  offset="0" style="stop-color:#FFDB44"/>
				<stop  offset="1" style="stop-color:#FEEF06"/>
			</linearGradient>
			<path class="st26" d="M237.3,186.7c0,1.9-11.6,3.4-25.8,3.4s-25.8-1.5-25.8-3.4c0-1.9,11.6-3.4,25.8-3.4S237.3,184.8,237.3,186.7
				z"/>
			<linearGradient id="SVGID_22_" gradientUnits="userSpaceOnUse" x1="211.119" y1="183.3584" x2="212.081" y2="191.4116">
				<stop  offset="0" style="stop-color:#FFDB44"/>
				<stop  offset="1" style="stop-color:#FEEF06"/>
			</linearGradient>
			<path class="st27" d="M211.5,190.3c-12.6,0-25.8-1.2-25.8-3.5c0-0.1,0-0.4,0.2-0.4c0.1,0,0.1,0.2,0.1,0.3
				c0,1.5,10.5,3.1,25.6,3.1c15.1,0,25.6-1.6,25.6-3.1c0-0.1,0-0.2,0.1-0.2s0.1,0.2,0.1,0.3C237.4,189.1,224.1,190.3,211.5,190.3z"
				/>
			<g>
				<path class="st11" d="M209.1,186.9c0.3-0.2,0.5-0.3,0.8-0.5c0.3-0.2,0.7-0.3,1.1-0.5c0.5-0.1,1-0.2,1.7-0.3
					c0.7-0.1,1.5-0.1,2.5-0.1c1,0,1.9,0,2.8,0.1c0.9,0.1,1.6,0.2,2.3,0.3c0.7,0.1,1.2,0.3,1.6,0.5c0.4,0.2,0.7,0.4,0.7,0.7l2.9,0
					c0.2,0,0.4,0,0.6,0.1c0.2,0,0.2,0.1,0.2,0.1l0,0.2l-3.7,0c-0.1,0.3-0.5,0.6-1,0.8c-0.5,0.2-1.2,0.5-2,0.6l-1.4-0.2
					c-0.1,0-0.2,0-0.3-0.1c-0.1,0-0.1-0.1-0.1-0.1c0,0,0.1-0.1,0.3-0.2c0.2-0.1,0.4-0.1,0.7-0.2c0.3-0.1,0.5-0.2,0.8-0.3
					c0.3-0.1,0.4-0.3,0.5-0.4l-8.8-0.1c-0.2,0.2-0.5,0.3-0.8,0.5c-0.3,0.2-0.7,0.3-1.1,0.4c-0.5,0.1-1.1,0.2-1.8,0.3
					c-0.7,0.1-1.6,0.1-2.7,0.1c-0.8,0-1.6,0-2.4-0.1c-0.8-0.1-1.5-0.2-2.1-0.3c-0.6-0.1-1.1-0.3-1.5-0.5c-0.4-0.2-0.6-0.4-0.6-0.7
					l-2.4,0c-0.2,0-0.4,0-0.6,0c-0.2,0-0.2-0.1-0.2-0.1l0-0.2l3.3,0c0.1-0.3,0.4-0.5,0.9-0.7c0.5-0.2,1-0.4,1.7-0.5l1.1,0.2
					c0.3,0,0.5,0.1,0.5,0.2c0,0-0.1,0.1-0.2,0.1c-0.1,0.1-0.3,0.1-0.5,0.2c-0.2,0.1-0.4,0.2-0.5,0.2c-0.2,0.1-0.3,0.2-0.4,0.3
					L209.1,186.9z M201,187.2c0.1,0.2,0.2,0.3,0.4,0.4c0.2,0.1,0.5,0.2,0.8,0.3c0.3,0.1,0.7,0.1,1.1,0.2c0.4,0,0.9,0.1,1.3,0
					c0.5,0,1,0,1.4-0.1c0.4,0,0.7-0.1,1-0.2c0.3-0.1,0.6-0.2,0.8-0.3c0.2-0.1,0.4-0.2,0.6-0.3L201,187.2z M220.2,187
					c-0.1-0.2-0.2-0.3-0.5-0.4c-0.2-0.1-0.6-0.2-1-0.3c-0.4-0.1-0.8-0.1-1.4-0.2c-0.5,0-1.1-0.1-1.7-0.1c-0.6,0-1,0-1.4,0.1
					c-0.4,0-0.7,0.1-1,0.2c-0.3,0.1-0.5,0.2-0.7,0.3c-0.2,0.1-0.4,0.2-0.6,0.3L220.2,187z"/>
			</g>
			
				<linearGradient id="SVGID_23_" gradientUnits="userSpaceOnUse" x1="-1868.7743" y1="471.0511" x2="-1867.8158" y2="479.0758" gradientTransform="matrix(-1 0 0 -1 -1656.751 661.6185)">
				<stop  offset="3.597120e-03" style="stop-color:#F36F56"/>
				<stop  offset="0.3059" style="stop-color:#F99C4C"/>
				<stop  offset="0.545" style="stop-color:#FDB946"/>
				<stop  offset="0.6817" style="stop-color:#FFC444"/>
				<stop  offset="0.8038" style="stop-color:#FFC244"/>
				<stop  offset="0.8667" style="stop-color:#FEBA46"/>
				<stop  offset="0.916" style="stop-color:#FCAD49"/>
				<stop  offset="0.958" style="stop-color:#F99A4D"/>
				<stop  offset="0.9955" style="stop-color:#F58152"/>
				<stop  offset="1" style="stop-color:#F57E53"/>
			</linearGradient>
			<path class="st28" d="M211.5,183.7c-11.5,0-23.5,1-25.4,3c0.1,0.1,0.1,0.1,0.2,0.2c1.6-1.4,11.5-2.7,25.2-2.7
				c14,0,24.1,1.4,25.3,2.8c0.1-0.1,0.1-0.1,0.2-0.2C235.4,184.7,223.2,183.7,211.5,183.7z"/>
		</g>
		<g>
			<linearGradient id="SVGID_24_" gradientUnits="userSpaceOnUse" x1="174.0957" y1="185.2045" x2="233.5113" y2="185.2045">
				<stop  offset="0" style="stop-color:#FCB148"/>
				<stop  offset="5.207239e-02" style="stop-color:#FDBA46"/>
				<stop  offset="0.1424" style="stop-color:#FFC244"/>
				<stop  offset="0.3183" style="stop-color:#FFC444"/>
				<stop  offset="0.4849" style="stop-color:#FDB946"/>
				<stop  offset="0.7754" style="stop-color:#F99C4D"/>
				<stop  offset="0.8658" style="stop-color:#F8924F"/>
				<stop  offset="1" style="stop-color:#F8924F"/>
			</linearGradient>
			<path class="st29" d="M178.5,180.7v5.7c0,1.9,11.6,3.4,25.8,3.4c14.3,0,25.8-1.5,25.8-3.4v-5.7H178.5z"/>
			<linearGradient id="SVGID_25_" gradientUnits="userSpaceOnUse" x1="204.0766" y1="178.5116" x2="207.2089" y2="204.7338">
				<stop  offset="0" style="stop-color:#FFDB44"/>
				<stop  offset="1" style="stop-color:#FEEF06"/>
			</linearGradient>
			<ellipse class="st30" cx="204.3" cy="180.7" rx="25.8" ry="3.4"/>
			<linearGradient id="SVGID_26_" gradientUnits="userSpaceOnUse" x1="203.9404" y1="177.3422" x2="204.9024" y2="185.3954">
				<stop  offset="0" style="stop-color:#FFDB44"/>
				<stop  offset="1" style="stop-color:#FEEF06"/>
			</linearGradient>
			<path class="st31" d="M204.3,184.2c-12.6,0-25.8-1.2-25.8-3.5c0-0.1,0-0.4,0.2-0.4c0.1,0,0.1,0.2,0.1,0.3
				c0,1.5,10.5,3.1,25.6,3.1s25.6-1.6,25.6-3.1c0-0.1,0-0.2,0.1-0.2c0.1,0,0.1,0.2,0.1,0.3C230.2,183,217,184.2,204.3,184.2z"/>
			<g>
				<path class="st11" d="M201.9,180.9c0.3-0.2,0.5-0.3,0.8-0.5c0.3-0.2,0.7-0.3,1.1-0.5c0.5-0.1,1-0.2,1.7-0.3
					c0.7-0.1,1.5-0.1,2.5-0.1c1,0,1.9,0,2.8,0.1c0.9,0.1,1.6,0.2,2.3,0.3c0.7,0.1,1.2,0.3,1.6,0.5c0.4,0.2,0.7,0.4,0.7,0.7l2.9,0
					c0.2,0,0.4,0,0.6,0.1c0.2,0,0.2,0.1,0.2,0.1l0,0.2l-3.7,0c-0.1,0.3-0.5,0.6-1,0.8c-0.5,0.2-1.2,0.5-2,0.6l-1.4-0.2
					c-0.1,0-0.2,0-0.3-0.1c-0.1,0-0.1-0.1-0.1-0.1c0,0,0.1-0.1,0.3-0.2c0.2-0.1,0.4-0.1,0.7-0.2c0.3-0.1,0.5-0.2,0.8-0.3
					c0.3-0.1,0.4-0.3,0.5-0.4l-8.8-0.1c-0.2,0.2-0.5,0.3-0.8,0.5c-0.3,0.2-0.7,0.3-1.1,0.4c-0.5,0.1-1.1,0.2-1.8,0.3
					c-0.7,0.1-1.6,0.1-2.7,0.1c-0.8,0-1.6,0-2.4-0.1c-0.8-0.1-1.5-0.2-2.1-0.3c-0.6-0.1-1.1-0.3-1.5-0.5c-0.4-0.2-0.6-0.4-0.6-0.7
					l-2.4,0c-0.2,0-0.4,0-0.6,0c-0.2,0-0.2-0.1-0.2-0.1l0-0.2l3.3,0c0.1-0.3,0.4-0.5,0.9-0.7c0.5-0.2,1-0.4,1.7-0.5l1.1,0.2
					c0.3,0,0.5,0.1,0.5,0.2c0,0-0.1,0.1-0.2,0.1c-0.1,0.1-0.3,0.1-0.5,0.2c-0.2,0.1-0.4,0.2-0.5,0.2c-0.2,0.1-0.3,0.2-0.4,0.3
					L201.9,180.9z M193.8,181.2c0.1,0.2,0.2,0.3,0.4,0.4c0.2,0.1,0.5,0.2,0.8,0.3c0.3,0.1,0.7,0.1,1.1,0.2c0.4,0,0.9,0.1,1.3,0
					c0.5,0,1,0,1.4-0.1c0.4,0,0.7-0.1,1-0.2c0.3-0.1,0.6-0.2,0.8-0.3c0.2-0.1,0.4-0.2,0.6-0.3L193.8,181.2z M213,181
					c-0.1-0.2-0.2-0.3-0.5-0.4c-0.2-0.1-0.6-0.2-1-0.3c-0.4-0.1-0.8-0.1-1.4-0.2c-0.5,0-1.1-0.1-1.7-0.1c-0.6,0-1,0-1.4,0.1
					c-0.4,0-0.7,0.1-1,0.2c-0.3,0.1-0.5,0.2-0.7,0.3c-0.2,0.1-0.4,0.2-0.6,0.3L213,181z"/>
			</g>
			
				<linearGradient id="SVGID_27_" gradientUnits="userSpaceOnUse" x1="-1861.5957" y1="477.0674" x2="-1860.6371" y2="485.092" gradientTransform="matrix(-1 0 0 -1 -1656.751 661.6185)">
				<stop  offset="3.597120e-03" style="stop-color:#F36F56"/>
				<stop  offset="0.3059" style="stop-color:#F99C4C"/>
				<stop  offset="0.545" style="stop-color:#FDB946"/>
				<stop  offset="0.6817" style="stop-color:#FFC444"/>
				<stop  offset="0.8038" style="stop-color:#FFC244"/>
				<stop  offset="0.8667" style="stop-color:#FEBA46"/>
				<stop  offset="0.916" style="stop-color:#FCAD49"/>
				<stop  offset="0.958" style="stop-color:#F99A4D"/>
				<stop  offset="0.9955" style="stop-color:#F58152"/>
				<stop  offset="1" style="stop-color:#F57E53"/>
			</linearGradient>
			<path class="st32" d="M204.3,177.7c-11.5,0-23.5,1-25.4,3c0.1,0.1,0.1,0.1,0.2,0.2c1.6-1.4,11.5-2.7,25.2-2.7
				c14,0,24.1,1.4,25.3,2.8c0.1-0.1,0.1-0.1,0.2-0.2C228.3,178.7,216.1,177.7,204.3,177.7z"/>
		</g>
		<g>
			<linearGradient id="SVGID_28_" gradientUnits="userSpaceOnUse" x1="180.2899" y1="179.206" x2="239.7055" y2="179.206">
				<stop  offset="0" style="stop-color:#FCB148"/>
				<stop  offset="5.207239e-02" style="stop-color:#FDBA46"/>
				<stop  offset="0.1424" style="stop-color:#FFC244"/>
				<stop  offset="0.3183" style="stop-color:#FFC444"/>
				<stop  offset="0.4849" style="stop-color:#FDB946"/>
				<stop  offset="0.7754" style="stop-color:#F99C4D"/>
				<stop  offset="0.8658" style="stop-color:#F8924F"/>
				<stop  offset="1" style="stop-color:#F8924F"/>
			</linearGradient>
			<path class="st33" d="M184.7,174.7v5.7c0,1.9,11.6,3.4,25.8,3.4c14.3,0,25.8-1.5,25.8-3.4v-5.7H184.7z"/>
			<linearGradient id="SVGID_29_" gradientUnits="userSpaceOnUse" x1="210.2707" y1="172.513" x2="213.4031" y2="198.7352">
				<stop  offset="0" style="stop-color:#FFDB44"/>
				<stop  offset="1" style="stop-color:#FEEF06"/>
			</linearGradient>
			<ellipse class="st34" cx="210.5" cy="174.7" rx="25.8" ry="3.4"/>
			<linearGradient id="SVGID_30_" gradientUnits="userSpaceOnUse" x1="210.1346" y1="171.3436" x2="211.0966" y2="179.3969">
				<stop  offset="0" style="stop-color:#FFDB44"/>
				<stop  offset="1" style="stop-color:#FEEF06"/>
			</linearGradient>
			<path class="st35" d="M210.5,178.2c-12.6,0-25.8-1.2-25.8-3.5c0-0.1,0-0.4,0.2-0.4c0.1,0,0.1,0.2,0.1,0.3
				c0,1.5,10.5,3.1,25.6,3.1c15.1,0,25.6-1.6,25.6-3.1c0-0.1,0-0.2,0.1-0.2c0.1,0,0.1,0.2,0.1,0.3
				C236.4,177,223.2,178.2,210.5,178.2z"/>
			<g>
				<path class="st11" d="M208.1,174.9c0.3-0.2,0.5-0.3,0.8-0.5c0.3-0.2,0.7-0.3,1.1-0.5c0.5-0.1,1-0.2,1.7-0.3
					c0.7-0.1,1.5-0.1,2.5-0.1c1,0,1.9,0,2.8,0.1c0.9,0.1,1.6,0.2,2.3,0.3c0.7,0.1,1.2,0.3,1.6,0.5c0.4,0.2,0.7,0.4,0.7,0.7l2.9,0
					c0.2,0,0.4,0,0.6,0.1c0.2,0,0.2,0.1,0.2,0.1l0,0.2l-3.7,0c-0.1,0.3-0.5,0.6-1,0.8c-0.5,0.2-1.2,0.5-2,0.6l-1.4-0.2
					c-0.1,0-0.2,0-0.3-0.1c-0.1,0-0.1-0.1-0.1-0.1c0,0,0.1-0.1,0.3-0.2c0.2-0.1,0.4-0.1,0.7-0.2c0.3-0.1,0.5-0.2,0.8-0.3
					c0.3-0.1,0.4-0.3,0.5-0.4l-8.8-0.1c-0.2,0.2-0.5,0.3-0.8,0.5c-0.3,0.2-0.7,0.3-1.1,0.4c-0.5,0.1-1.1,0.2-1.8,0.3
					c-0.7,0.1-1.6,0.1-2.7,0.1c-0.8,0-1.6,0-2.4-0.1c-0.8-0.1-1.5-0.2-2.1-0.3c-0.6-0.1-1.1-0.3-1.5-0.5c-0.4-0.2-0.6-0.4-0.6-0.7
					l-2.4,0c-0.2,0-0.4,0-0.6,0c-0.2,0-0.2-0.1-0.2-0.1l0-0.2l3.3,0c0.1-0.3,0.4-0.5,0.9-0.7c0.5-0.2,1-0.4,1.7-0.5l1.1,0.2
					c0.3,0,0.5,0.1,0.5,0.2c0,0-0.1,0.1-0.2,0.1c-0.1,0.1-0.3,0.1-0.5,0.2c-0.2,0.1-0.4,0.2-0.5,0.2c-0.2,0.1-0.3,0.2-0.4,0.3
					L208.1,174.9z M200,175.2c0.1,0.2,0.2,0.3,0.4,0.4c0.2,0.1,0.5,0.2,0.8,0.3c0.3,0.1,0.7,0.1,1.1,0.2c0.4,0,0.9,0.1,1.3,0
					c0.5,0,1,0,1.4-0.1c0.4,0,0.7-0.1,1-0.2c0.3-0.1,0.6-0.2,0.8-0.3c0.2-0.1,0.4-0.2,0.6-0.3L200,175.2z M219.2,175
					c-0.1-0.2-0.2-0.3-0.5-0.4c-0.2-0.1-0.6-0.2-1-0.3c-0.4-0.1-0.8-0.1-1.4-0.2c-0.5,0-1.1-0.1-1.7-0.1c-0.6,0-1,0-1.4,0.1
					c-0.4,0-0.7,0.1-1,0.2c-0.3,0.1-0.5,0.2-0.7,0.3c-0.2,0.1-0.4,0.2-0.6,0.3L219.2,175z"/>
			</g>
			
				<linearGradient id="SVGID_31_" gradientUnits="userSpaceOnUse" x1="-1867.7899" y1="483.0659" x2="-1866.8313" y2="491.0906" gradientTransform="matrix(-1 0 0 -1 -1656.751 661.6185)">
				<stop  offset="3.597120e-03" style="stop-color:#F36F56"/>
				<stop  offset="0.3059" style="stop-color:#F99C4C"/>
				<stop  offset="0.545" style="stop-color:#FDB946"/>
				<stop  offset="0.6817" style="stop-color:#FFC444"/>
				<stop  offset="0.8038" style="stop-color:#FFC244"/>
				<stop  offset="0.8667" style="stop-color:#FEBA46"/>
				<stop  offset="0.916" style="stop-color:#FCAD49"/>
				<stop  offset="0.958" style="stop-color:#F99A4D"/>
				<stop  offset="0.9955" style="stop-color:#F58152"/>
				<stop  offset="1" style="stop-color:#F57E53"/>
			</linearGradient>
			<path class="st36" d="M210.5,171.7c-11.5,0-23.5,1-25.4,3c0.1,0.1,0.1,0.1,0.2,0.2c1.6-1.4,11.5-2.7,25.2-2.7
				c14,0,24.1,1.4,25.3,2.8c0.1-0.1,0.1-0.1,0.2-0.2C234.5,172.7,222.3,171.7,210.5,171.7z"/>
		</g>
		<g>
			<linearGradient id="SVGID_32_" gradientUnits="userSpaceOnUse" x1="177.0681" y1="173.1898" x2="236.4836" y2="173.1898">
				<stop  offset="0" style="stop-color:#FCB148"/>
				<stop  offset="5.207239e-02" style="stop-color:#FDBA46"/>
				<stop  offset="0.1424" style="stop-color:#FFC244"/>
				<stop  offset="0.3183" style="stop-color:#FFC444"/>
				<stop  offset="0.4849" style="stop-color:#FDB946"/>
				<stop  offset="0.7754" style="stop-color:#F99C4D"/>
				<stop  offset="0.8658" style="stop-color:#F8924F"/>
				<stop  offset="1" style="stop-color:#F8924F"/>
			</linearGradient>
			<path class="st37" d="M181.5,168.7v5.7c0,1.9,11.6,3.4,25.8,3.4c14.3,0,25.8-1.5,25.8-3.4v-5.7H181.5z"/>
			<linearGradient id="SVGID_33_" gradientUnits="userSpaceOnUse" x1="207.0489" y1="166.4968" x2="210.1813" y2="192.7191">
				<stop  offset="0" style="stop-color:#FFDB44"/>
				<stop  offset="1" style="stop-color:#FEEF06"/>
			</linearGradient>
			<ellipse class="st38" cx="207.3" cy="168.7" rx="25.8" ry="3.4"/>
			<linearGradient id="SVGID_34_" gradientUnits="userSpaceOnUse" x1="206.9127" y1="165.3274" x2="207.8747" y2="173.3806">
				<stop  offset="0" style="stop-color:#FFDB44"/>
				<stop  offset="1" style="stop-color:#FEEF06"/>
			</linearGradient>
			<path class="st39" d="M207.3,172.2c-12.6,0-25.8-1.2-25.8-3.5c0-0.1,0-0.4,0.2-0.4c0.1,0,0.1,0.2,0.1,0.3
				c0,1.5,10.5,3.1,25.6,3.1c15.1,0,25.6-1.6,25.6-3.1c0-0.1,0-0.2,0.1-0.2c0.1,0,0.1,0.2,0.1,0.3
				C233.1,171,219.9,172.2,207.3,172.2z"/>
			
				<linearGradient id="SVGID_35_" gradientUnits="userSpaceOnUse" x1="-1864.568" y1="489.0821" x2="-1863.6095" y2="497.1068" gradientTransform="matrix(-1 0 0 -1 -1656.751 661.6185)">
				<stop  offset="3.597120e-03" style="stop-color:#F36F56"/>
				<stop  offset="0.3059" style="stop-color:#F99C4C"/>
				<stop  offset="0.545" style="stop-color:#FDB946"/>
				<stop  offset="0.6817" style="stop-color:#FFC444"/>
				<stop  offset="0.8038" style="stop-color:#FFC244"/>
				<stop  offset="0.8667" style="stop-color:#FEBA46"/>
				<stop  offset="0.916" style="stop-color:#FCAD49"/>
				<stop  offset="0.958" style="stop-color:#F99A4D"/>
				<stop  offset="0.9955" style="stop-color:#F58152"/>
				<stop  offset="1" style="stop-color:#F57E53"/>
			</linearGradient>
			<path class="st40" d="M207.3,165.7c-11.5,0-23.5,1-25.4,3c0.1,0.1,0.1,0.1,0.2,0.2c1.6-1.4,11.5-2.7,25.2-2.7
				c14,0,24.1,1.4,25.3,2.8c0.1-0.1,0.1-0.1,0.2-0.2C231.2,166.7,219,165.7,207.3,165.7z"/>
		</g>
	</g>
	<g>
		<linearGradient id="SVGID_36_" gradientUnits="userSpaceOnUse" x1="185.9525" y1="141.3719" x2="151.2412" y2="152.5119">
			<stop  offset="0" style="stop-color:#FCB148"/>
			<stop  offset="5.207239e-02" style="stop-color:#FDBA46"/>
			<stop  offset="0.1424" style="stop-color:#FFC244"/>
			<stop  offset="0.3183" style="stop-color:#FFC444"/>
			<stop  offset="0.4849" style="stop-color:#FDB946"/>
			<stop  offset="0.7754" style="stop-color:#F99C4D"/>
			<stop  offset="0.8658" style="stop-color:#F8924F"/>
			<stop  offset="1" style="stop-color:#F8924F"/>
		</linearGradient>
		<path class="st41" d="M225.9,140.1c0,16.1-12.6,28.8-28.7,28.3c-16.7-0.5-30.8-15-30.8-32.3c0-17.3,14.1-29.9,30.8-28.1
			C213.3,109.6,225.9,124,225.9,140.1z"/>
		<linearGradient id="SVGID_37_" gradientUnits="userSpaceOnUse" x1="214.032" y1="106.8203" x2="183.0438" y2="175.1859">
			<stop  offset="0" style="stop-color:#FFDB44"/>
			<stop  offset="1" style="stop-color:#FEEF06"/>
		</linearGradient>
		<path class="st42" d="M230.3,138.7c0,16.1-12.6,28.8-28.7,28.3c-16.7-0.5-30.8-15-30.8-32.3c0-17.3,14.1-29.9,30.8-28.1
			C217.7,108.3,230.3,122.6,230.3,138.7z"/>
		<linearGradient id="SVGID_38_" gradientUnits="userSpaceOnUse" x1="208.3317" y1="179.0069" x2="202.3525" y2="146.3426">
			<stop  offset="0" style="stop-color:#FCB148"/>
			<stop  offset="5.207239e-02" style="stop-color:#FDBA46"/>
			<stop  offset="0.1424" style="stop-color:#FFC244"/>
			<stop  offset="0.3183" style="stop-color:#FFC444"/>
			<stop  offset="0.4849" style="stop-color:#FDB946"/>
			<stop  offset="0.7754" style="stop-color:#F99C4D"/>
			<stop  offset="0.8658" style="stop-color:#F8924F"/>
			<stop  offset="1" style="stop-color:#F8924F"/>
		</linearGradient>
		<path class="st43" d="M229,138.6c0,15.4-12,27.5-27.4,27c-16-0.5-29.4-14.3-29.4-30.8s13.4-28.5,29.4-26.9
			C217,109.5,229,123.2,229,138.6z"/>
		<linearGradient id="SVGID_39_" gradientUnits="userSpaceOnUse" x1="195.6546" y1="126.1361" x2="220.2958" y2="178.4447">
			<stop  offset="0" style="stop-color:#FCB148"/>
			<stop  offset="5.207239e-02" style="stop-color:#FDBA46"/>
			<stop  offset="0.1424" style="stop-color:#FFC244"/>
			<stop  offset="0.3183" style="stop-color:#FFC444"/>
			<stop  offset="0.4849" style="stop-color:#FDB946"/>
			<stop  offset="0.7754" style="stop-color:#F99C4D"/>
			<stop  offset="0.8658" style="stop-color:#F8924F"/>
			<stop  offset="1" style="stop-color:#F8924F"/>
		</linearGradient>
		<path class="st44" d="M228.1,138.6c0,14.9-11.7,26.6-26.5,26.1c-15.4-0.5-28.3-13.9-28.3-29.8c0-15.9,12.9-27.5,28.3-25.9
			C216.4,110.4,228.1,123.7,228.1,138.6z"/>
		<g>
			<linearGradient id="SVGID_40_" gradientUnits="userSpaceOnUse" x1="186.7524" y1="141.1694" x2="215.9017" y2="141.1694">
				<stop  offset="0" style="stop-color:#FFDB44"/>
				<stop  offset="1" style="stop-color:#FEEF06"/>
			</linearGradient>
			<path class="st45" d="M189.4,120.6h26.5v0.1c-1.6,2.4-2.4,3.7-2.6,3.9h-7.1c1,1.1,1.6,2.5,2,4.2h7.5c0.1,0,0.1,0.1,0.1,0.1
				c-1.7,2.5-2.6,3.8-2.6,3.8h-4.9c-0.1,1.3-0.7,2.9-1.9,4.7c-1.5,1.9-2.9,3.1-4.3,3.6c-2.6,1.2-5,1.8-7.4,1.8v0.1
				c0,0.2,0.6,0.9,1.7,2.3l13.1,15.8v0.7c0,0.1,0,0.1-0.1,0.1h-5.8c-10.3-12.1-15.5-18.1-15.5-18.2v-3.7l0.1-0.1
				c0.9,0.1,2,0.2,3.2,0.2c5.8,0,9.4-1.9,10.8-5.6c0.2-0.6,0.3-1.1,0.3-1.7h-15.7c-0.1,0-0.1,0-0.1-0.1c1.7-2.5,2.6-3.8,2.7-3.8
				h12.5v-0.1c-0.7-1.4-2.1-2.6-4.2-3.4c-1.5-0.5-2.8-0.7-4-0.7h-7v-0.1C188.5,121.9,189.4,120.6,189.4,120.6z"/>
		</g>
		<g class="st46">
			<linearGradient id="SVGID_41_" gradientUnits="userSpaceOnUse" x1="194.6729" y1="114.88" x2="207.0633" y2="161.3172">
				<stop  offset="0" style="stop-color:#FFDB44"/>
				<stop  offset="1" style="stop-color:#FEEF06"/>
			</linearGradient>
			<path class="st47" d="M201.4,114L201.4,114c0.8,0.1,1.4,0.8,1.4,1.6v2.7c1.6,0.2,3.2,0.5,4.8,0.8c1.2,0.3,2.3,0.6,3.5,1
				c0.7,0.2,1.2,0.9,1.1,1.6l-0.3,3.4c-0.1,0.9-1,1.4-1.8,1.1c-0.8-0.3-1.5-0.6-2.3-0.9c-1.4-0.4-2.9-0.7-4.4-0.8l-0.4,0v7.8
				c4.1,1.2,7.2,2.7,9.1,4.7c1.9,1.9,2.9,4.4,2.9,7.3c0,3.1-1.1,5.7-3.2,7.6c-2.2,1.9-5.2,3-9.1,3.2v3c0,0.8-0.6,1.4-1.4,1.4l0,0
				c-0.8,0-1.4-0.7-1.4-1.5v-3l-0.6,0c-1.8-0.1-3.6-0.3-5.3-0.6c-1.2-0.2-2.5-0.5-3.7-0.8c-0.7-0.2-1.2-0.9-1.1-1.6l0.4-4.4
				c0.1-1,1-1.5,2-1.2c1.1,0.4,2.1,0.8,3.2,1.1c1.7,0.4,3.4,0.7,5.1,0.9l0-8.7c-4-1-6.9-2.4-8.9-4.4c-2-1.9-2.9-4.4-2.9-7.4
				c0-3.1,1.1-5.5,3.2-7.2c2.1-1.7,5.1-2.5,9-2.5v-2.8C200,114.5,200.6,113.9,201.4,114z M200,124.5c-1.2,0.1-2.2,0.4-2.9,1
				c-0.7,0.6-1,1.4-1,2.4c0,0.9,0.3,1.7,0.9,2.3c0.6,0.6,1.6,1.1,2.9,1.5V124.5z M202.5,140.3v8c1.3,0,2.4-0.3,3.1-1
				c0.7-0.6,1.1-1.5,1.1-2.7c0-1.1-0.3-1.9-1-2.6C205,141.3,204,140.7,202.5,140.3z"/>
		</g>
		<linearGradient id="SVGID_42_" gradientUnits="userSpaceOnUse" x1="188.4052" y1="129.5213" x2="212.9967" y2="181.7243">
			<stop  offset="0" style="stop-color:#FCB148"/>
			<stop  offset="5.207239e-02" style="stop-color:#FDBA46"/>
			<stop  offset="0.1424" style="stop-color:#FFC244"/>
			<stop  offset="0.3183" style="stop-color:#FFC444"/>
			<stop  offset="0.4849" style="stop-color:#FDB946"/>
			<stop  offset="0.7754" style="stop-color:#F99C4D"/>
			<stop  offset="0.8658" style="stop-color:#F8924F"/>
			<stop  offset="1" style="stop-color:#F8924F"/>
		</linearGradient>
		<path class="st48" d="M196.8,142.2c0.9-8.8,9-12.6,8-20.7c-0.7-5-4.5-9.2-8.7-12.5c-12.9,1.3-22.8,12-22.8,25.9
			c0,15.9,12.9,29.2,28.3,29.8c1.5,0.1,3,0,4.4-0.2C199.8,158.3,196,149.8,196.8,142.2z"/>
	</g>
	<g>
		<g>
			<linearGradient id="SVGID_43_" gradientUnits="userSpaceOnUse" x1="204.4447" y1="170.5259" x2="193.0029" y2="181.5235">
				<stop  offset="0" style="stop-color:#FF9085"/>
				<stop  offset="1" style="stop-color:#FB6FBB"/>
			</linearGradient>
			<path class="st49" d="M181.6,221.9c-1,0-2-0.2-2.8-0.7c-2.6-1.6-6.4-4.1-9.9-7.5c-4.4-4.3-6.9-8.6-7.5-12.9l0-0.1l-0.1-18.2
				c0-3.6,2.3-6.5,6.7-8.4c3.6-1.6,8.5-2.4,13.6-2.2c5,0.1,9.7,1.2,13.1,2.9c4.1,2.1,6.3,4.9,6.3,8.4l-0.1,17.4l0,0.1
				c-0.5,4.1-2.8,8.3-6.9,12.6c-3.3,3.4-7,6.1-9.5,7.8C183.6,221.6,182.6,221.9,181.6,221.9z"/>
			<linearGradient id="SVGID_44_" gradientUnits="userSpaceOnUse" x1="173.2401" y1="206.7253" x2="153.6924" y2="239.3047">
				<stop  offset="0" style="stop-color:#FF9085"/>
				<stop  offset="1" style="stop-color:#FB6FBB"/>
			</linearGradient>
			<path class="st50" d="M201.8,183.2l-0.1,17.4l0,0.1c-0.5,4.1-2.8,8.3-6.8,12.6c-3.1,3.2-6.5,5.9-9,7.6c-0.1,0.1-0.3,0.2-0.4,0.3
				c-0.8,0.6-1.8,0.9-2.8,0.9c-1,0-2-0.2-2.8-0.7c-2.6-1.6-6.4-4.1-9.8-7.5c-4.3-4.3-6.8-8.6-7.4-12.9l0-0.1l-0.1-18.2
				c0-3.6,2.3-6.5,6.7-8.4c2.8-1.3,6.4-2,10.2-2.2c1-0.1,2.1-0.1,3.1,0c5,0.1,9.6,1.2,13,2.9C199.6,176.9,201.8,179.8,201.8,183.2z"
				/>
			<linearGradient id="SVGID_45_" gradientUnits="userSpaceOnUse" x1="191.0614" y1="209.2507" x2="159.4741" y2="145.7351">
				<stop  offset="0" style="stop-color:#FF9085"/>
				<stop  offset="1" style="stop-color:#FB6FBB"/>
			</linearGradient>
			<path class="st51" d="M163.8,182.6l0.1,18.1c1.2,9.2,12,16.7,16.8,19.6c1.4,0.8,3.1,0.8,4.4-0.1c4.6-3,14.9-10.7,16-19.6
				l0.1-17.3C201.2,170.3,163.8,169.2,163.8,182.6z"/>
			<linearGradient id="SVGID_46_" gradientUnits="userSpaceOnUse" x1="167.3636" y1="196.9288" x2="197.8628" y2="196.9288">
				<stop  offset="0" style="stop-color:#311944"/>
				<stop  offset="1" style="stop-color:#893976"/>
			</linearGradient>
			<path class="st52" d="M182.9,217.5c-0.1,0-0.2,0-0.4-0.1c-1.9-1.2-5.7-3.6-9-6.9c-3.5-3.5-5.6-6.9-6.1-10.1l-0.1-17.8
				c0-1.7,1.4-3.2,4-4.3c3-1.3,7.2-2,11.5-1.9c4.3,0.1,8.4,1,11.2,2.4c2.5,1.2,3.8,2.7,3.8,4.4l-0.1,17.2c-0.4,3.1-2.4,6.4-5.7,9.9
				c-3.2,3.3-6.9,5.9-8.8,7.1C183.1,217.4,183,217.5,182.9,217.5z"/>
			<linearGradient id="SVGID_47_" gradientUnits="userSpaceOnUse" x1="168.1078" y1="196.8822" x2="196.308" y2="196.8822">
				<stop  offset="0" style="stop-color:#FF9085"/>
				<stop  offset="1" style="stop-color:#FB6FBB"/>
			</linearGradient>
			<path class="st53" d="M182.4,216.2c-2-1.2-5.5-3.5-8.5-6.6c-3.3-3.3-5.3-6.4-5.7-9.3l-0.1-17.7c0-1.2,1.1-2.3,3.3-3.3
				c2.8-1.2,6.8-1.9,11-1.8c4.1,0.1,8,0.9,10.7,2.2c2.1,1,3.1,2.2,3.1,3.3l-0.1,17.1c-0.4,2.8-2.2,5.9-5.4,9.2
				C187.8,212.5,184.4,214.9,182.4,216.2z"/>
			<path class="st54" d="M185.8,220.8c-0.1,0.1-0.3,0.2-0.4,0.3c-0.8,0.6-1.8,0.9-2.8,0.9c-1,0-2-0.2-2.8-0.7
				c-2.6-1.6-6.4-4.1-9.8-7.5c-4.3-4.3-6.8-8.6-7.4-12.9l0-0.1l-0.1-18.2c0-3.6,2.3-6.5,6.7-8.4c2.8-1.3,6.4-2,10.2-2.2
				c0.2,0.3,0.5,0.7,0.7,1.1c0.6,1,1.3,2.1,1.9,3.4c0.2,0.4,0.4,0.8,0.6,1.1c1.7,3.6,3,7.9,1.9,11.4c-1.9,6.4-6.1,18-1.9,27.1
				c0.2,0.4,0.4,0.8,0.6,1.2c0.5,1,1.2,1.9,1.9,2.8C185.4,220.3,185.6,220.6,185.8,220.8z"/>
		</g>
		<g>
			<g>
				<path class="st3" d="M189.4,194.6l-3.4-0.1v-5.1c0-1.8-1.5-3.4-3.2-3.4c-1.8,0-3.2,1.4-3.2,3.2v5l-3.4-0.1v-5
					c0-1.8,0.7-3.5,1.9-4.7c1.2-1.3,2.9-1.9,4.7-1.9c1.8,0,3.4,0.8,4.7,2.1c1.3,1.3,2,3,2,4.9V194.6z"/>
			</g>
			<path class="st3" d="M190,191.1l-14.4-0.2c-1.1,0-2,0.8-2,1.9v9.4c0,1.1,0.9,1.9,2,1.9L190,204c1,0,1.9-0.8,1.9-1.9l0-9.1
				C191.9,192,191.1,191.1,190,191.1z"/>
			<linearGradient id="SVGID_48_" gradientUnits="userSpaceOnUse" x1="181.0591" y1="198.1" x2="184.7728" y2="198.1">
				<stop  offset="0" style="stop-color:#FF9085"/>
				<stop  offset="1" style="stop-color:#FB6FBB"/>
			</linearGradient>
			<path class="st55" d="M184.8,196.4c0-1-0.9-1.9-1.9-1.9c-0.9,0-1.7,0.8-1.8,1.7c0,0.7,0.3,1.4,0.9,1.7c0.2,0.1,0.4,0.4,0.3,0.7
				l-0.4,2.4c-0.1,0.3,0.2,0.6,0.5,0.6l1.1,0c0.3,0,0.5-0.3,0.5-0.6l-0.4-2.4c0-0.3,0.1-0.6,0.3-0.7
				C184.4,197.7,184.8,197.1,184.8,196.4z"/>
		</g>
	</g>
</g>
<g>
	<path class="st3" d="M74.5,146.7v8.8c0,0.5,0.4,0.9,0.9,0.9h2c0.5,0,0.9-0.4,0.9-0.9v-11.8l-3,2.5
		C75.2,146.4,74.9,146.6,74.5,146.7"/>
	<path class="st3" d="M77.5,156.7h-2c-0.6,0-1.1-0.5-1.1-1.1v-9l0.2,0c0.3-0.1,0.6-0.2,0.8-0.4l3.3-2.8v12.2
		C78.6,156.2,78.1,156.7,77.5,156.7z M74.8,146.9v8.7c0,0.4,0.3,0.7,0.7,0.7h2c0.4,0,0.7-0.3,0.7-0.7v-11.4l-2.6,2.2
		C75.3,146.6,75.1,146.7,74.8,146.9z"/>
</g>
<g>
	<path class="st3" d="M79.6,142.7v12.8c0,0.5,0.4,0.9,0.9,0.9h2c0.5,0,0.9-0.4,0.9-0.9v-13.8l-1.3-1.1L79.6,142.7z"/>
	<path class="st3" d="M82.6,156.7h-2c-0.6,0-1.1-0.5-1.1-1.1v-12.9l2.8-2.3l1.5,1.3v13.9C83.7,156.2,83.2,156.7,82.6,156.7z
		 M79.8,142.8v12.7c0,0.4,0.3,0.7,0.7,0.7h2c0.4,0,0.7-0.3,0.7-0.7v-13.7l-1.1-1L79.8,142.8z"/>
</g>
<g>
	<path class="st3" d="M86.6,144.4l-1.9-1.6v12.8c0,0.5,0.4,0.9,0.9,0.9h2c0.5,0,0.9-0.4,0.9-0.9V145c-0.1,0-0.2,0-0.4,0
		C87.6,145,87.1,144.8,86.6,144.4"/>
	<path class="st3" d="M87.7,156.7h-2c-0.6,0-1.1-0.5-1.1-1.1v-13.2l2.2,1.9c0.4,0.4,0.9,0.5,1.5,0.5c0.1,0,0.2,0,0.3,0l0.2,0v10.8
		C88.8,156.2,88.3,156.7,87.7,156.7z M84.9,143.2v12.3c0,0.4,0.3,0.7,0.7,0.7h2c0.4,0,0.7-0.3,0.7-0.7v-10.3c-0.7,0-1.4-0.2-1.9-0.6
		L84.9,143.2z"/>
</g>
<g>
	<path class="st3" d="M89.8,144.4v11.1c0,0.5,0.4,0.9,0.9,0.9h2c0.5,0,0.9-0.4,0.9-0.9v-14.7L89.8,144.4
		C89.9,144.4,89.9,144.4,89.8,144.4"/>
	<path class="st3" d="M92.8,156.7h-2c-0.6,0-1.1-0.5-1.1-1.1v-11.2l0.1-0.1c0,0,0,0,0.1-0.1l4.1-3.8v15.1
		C93.9,156.2,93.4,156.7,92.8,156.7z M90,144.5v11c0,0.4,0.3,0.7,0.7,0.7h2c0.4,0,0.7-0.3,0.7-0.7v-14.2L90,144.5z"/>
</g>
<g>
	<path class="st3" d="M94.9,155.5c0,0.5,0.4,0.9,0.9,0.9h2c0.5,0,0.9-0.4,0.9-0.9v-19.3l-3.9,3.6V155.5L94.9,155.5z"/>
	<path class="st3" d="M97.9,156.7h-2c-0.6,0-1.1-0.5-1.1-1.1v-15.9l4.3-3.9v19.8C99,156.2,98.5,156.7,97.9,156.7z M95.1,139.8v15.7
		c0,0.4,0.3,0.7,0.7,0.7h2c0.4,0,0.7-0.3,0.7-0.7v-18.9L95.1,139.8z"/>
</g>
<g>
	<path class="st3" d="M100.6,134.5l-0.6,0.6v20.5c0,0.5,0.4,0.9,0.9,0.9h2c0.5,0,0.9-0.4,0.9-0.9v-17.8L100.6,134.5z"/>
	<path class="st3" d="M103,156.7h-2c-0.6,0-1.1-0.5-1.1-1.1V135l0.8-0.8l3.5,3.5v17.8C104.1,156.2,103.6,156.7,103,156.7z
		 M100.2,135.2v20.4c0,0.4,0.3,0.7,0.7,0.7h2c0.4,0,0.7-0.3,0.7-0.7v-17.7l-3-3.1L100.2,135.2z"/>
</g>
<g>
	<path class="st3" d="M73.9,144.4c-0.5,0-1.1-0.2-1.4-0.7c-0.3-0.4-0.5-0.9-0.4-1.3c0-0.5,0.3-0.9,0.7-1.3l8.3-7
		c0.3-0.3,0.8-0.4,1.2-0.4c0.4,0,0.9,0.2,1.2,0.5l4.8,4.1l9.9-9l-3.3-3.3l9.5,0l0,9.6l-3.6-3.6l-11.2,10.3c-0.3,0.3-0.8,0.5-1.2,0.5
		c-0.4,0-0.9-0.2-1.2-0.5l-4.8-4.2l-7.1,6C74.7,144.3,74.3,144.4,73.9,144.4"/>
	<path class="st3" d="M73.9,144.6c-0.6,0-1.2-0.3-1.6-0.7c-0.4-0.4-0.5-1-0.5-1.5c0-0.5,0.3-1,0.7-1.4l8.3-7
		c0.4-0.3,0.8-0.5,1.3-0.5c0.5,0,1,0.2,1.3,0.5l4.6,4l9.6-8.8l-3.5-3.5l10.2,0l0,10.3l-3.8-3.8l-11,10.1c-0.4,0.3-0.9,0.5-1.4,0.5
		c-0.5,0-1-0.2-1.3-0.5l-4.7-4.1l-7,5.9C74.8,144.4,74.4,144.6,73.9,144.6z M82.2,133.9c-0.4,0-0.8,0.1-1.1,0.4l-8.3,7
		c-0.3,0.3-0.5,0.7-0.6,1.1c0,0.4,0.1,0.9,0.4,1.2c0.3,0.4,0.8,0.6,1.3,0.6c0.4,0,0.8-0.1,1.1-0.4l7.3-6.1l5,4.3
		c0.3,0.3,0.7,0.4,1.1,0.4c0.4,0,0.8-0.2,1.1-0.4l11.3-10.4l3.4,3.4l0-8.9l-8.8,0l3.1,3.1l-10.2,9.3l-4.9-4.3
		C83,134.1,82.6,133.9,82.2,133.9z"/>
</g>
<path class="st3" d="M165.1,32.8c-1.7,0.2-2.7,1-3.3,1.8c-0.8-0.2-1.6-0.3-2.5-0.3h-2.7c-5.2,0-9.4,4.2-9.4,9.4
	c0,3.3,1.6,6.1,4.1,7.8V54c0,0.3,0.3,0.6,0.6,0.6h3.8c0.3,0,0.6-0.3,0.6-0.6v-0.8c0.1,0,0.2,0,0.3,0h2.7V54c0,0.3,0.3,0.6,0.6,0.6
	h3.7c0.3,0,0.6-0.3,0.6-0.6v-2.2c2.1-1.3,3.6-3.2,4.2-5.6h0.7c0.6,0,1.1-0.5,1.1-1.1v-2.8c0-0.6-0.5-1.1-1.1-1.1h-0.8
	c-0.5-1.9-1.7-3.6-3.2-4.8c-0.2-1,0.2-1.8,0.6-2.4C166.1,33.4,165.7,32.7,165.1,32.8z M156.7,38.6c-2.8,0-5.1,2.3-5.1,5.1
	c0,0.5-0.4,1-1,1s-1-0.4-1-1c0-3.9,3.2-7,7-7c0.5,0,1,0.4,1,1C157.6,38.2,157.2,38.6,156.7,38.6z M165.4,40.3c0,0.5-0.4,0.9-0.9,0.9
	s-0.9-0.4-0.9-0.9c0-0.5,0.4-0.9,0.9-0.9S165.4,39.8,165.4,40.3z M174.9,56.4c-0.7,0-2.1,0.7-2.6,0.9c-1.4,0.7-3.4,1.8-4.6,2.7
	c-0.1,0.1-0.2,0.2-0.3,0.2c-0.6,0.4-1.2,0.6-1.9,0.8c-3.7,0.8-9.2,0.9-9.2,0.9H156c-0.2,0-0.5-0.2-0.5-0.4c0-0.3,0.2-0.5,0.4-0.5
	l8.1-0.8c0.9-0.1,1.6-0.9,1.5-1.9c-0.1-1-1-1.6-1.9-1.5l-7.2-0.1c-0.5,0-1.3-0.1-1.8-0.3c-4.6-1.4-7.2-0.1-8.6,0.5
	c-0.3-0.5-0.9-0.8-1.6-0.8l-3.1,0.2c-1,0.1-1.8,0.9-1.8,1.9l0.5,6.9c0.1,1,1,1.8,2,1.7l3.1-0.2c0.6,0,1.2-0.5,1.4-1l13.6,0.6
	c1.5,0.2,2.9,0,4.3-0.7l0.4-0.2l10.3-6c0.5-0.3,0.9-0.8,0.9-1.4C176.3,57.2,175.8,56.5,174.9,56.4z M143.4,65.3
	c-0.6,0-1.1-0.5-1.1-1s0.5-1,1.1-1c0.6,0,1.1,0.5,1.1,1S143.9,65.3,143.4,65.3z M167.2,58.8c0-0.2,0-0.4,0-0.6
	c0-0.2-0.1-0.5-0.2-0.7v0c1.1-0.6,3.2-1.6,4.4-2.1c0.6-0.2,1.1-0.2,1.7,0.2c-0.4,0.2-0.8,0.3-1.2,0.5c-1.2,0.6-3.4,1.8-4.4,2.5
	C167.4,58.6,167.3,58.7,167.2,58.8z M167.1,56l-0.5,0.3c0,0-0.1,0.1-0.2,0.1c-0.2-0.3-0.5-0.5-0.8-0.7c0.7-0.4,2.3-0.9,3-1.2
	c0.6-0.2,1.1-0.2,1.7,0.1C169.5,55.1,167.9,55.6,167.1,56z"/>
<path class="st3" d="M302.9,157c0,0.2,0,0.3,0,0.3S302.9,157.1,302.9,157c0-0.2,0-0.3,0-0.3S302.9,156.8,302.9,157z"/>
<g>
	<polygon class="st3" points="277.6,144.2 282.2,144.2 282.2,119.3 277.6,119.2 	"/>
	<polygon class="st3" points="269.5,144.1 274.1,144.1 274.1,131.6 269.5,131.5 	"/>
	<polygon class="st3" points="261.3,144 265.9,144 265.9,116.5 261.3,116.4 	"/>
	<polygon class="st3" points="253.1,143.9 257.7,143.9 257.7,120.4 253.1,120.3 	"/>
</g>
</svg>
