<?xml version="1.0" encoding="utf-8"?>
<!-- Generator: Adobe Illustrator 24.2.0, SVG Export Plug-In . SVG Version: 6.00 Build 0)  -->
<svg version="1.1" id="Layer_1" xmlns="http://www.w3.org/2000/svg" xmlns:xlink="http://www.w3.org/1999/xlink" x="0px" y="0px"
	 viewBox="0 0 383.2 243.3" style="enable-background:new 0 0 383.2 243.3;" xml:space="preserve">
<style type="text/css">
	.st0{fill:#F4F7FA;}
	.st1{fill:#BFC8D6;}
	.st2{fill:#FFFFFF;}
	.st3{fill:url(#SVGID_1_);}
	.st4{fill:url(#SVGID_2_);}
	.st5{fill:url(#SVGID_3_);}
	.st6{opacity:0.8;clip-path:url(#SVGID_5_);}
	.st7{opacity:0.8;clip-path:url(#SVGID_7_);}
	.st8{fill:url(#SVGID_8_);}
	.st9{fill:url(#SVGID_9_);}
	.st10{fill:url(#SVGID_10_);}
	.st11{fill:#E7EBF2;}
	.st12{fill:url(#SVGID_11_);}
	.st13{opacity:0.3;}
	.st14{fill:url(#SVGID_12_);}
	.st15{fill:url(#SVGID_13_);}
	.st16{fill:url(#SVGID_14_);}
	.st17{fill:url(#SVGID_15_);}
	.st18{opacity:0.2;fill:url(#SVGID_16_);}
	.st19{fill:url(#SVGID_17_);}
	.st20{fill:url(#SVGID_18_);}
	.st21{fill:url(#SVGID_19_);}
	.st22{fill:url(#SVGID_20_);}
	.st23{fill:url(#SVGID_21_);}
	.st24{fill:url(#SVGID_22_);}
	.st25{opacity:0.3;fill:url(#SVGID_23_);}
	.st26{fill:url(#SVGID_24_);}
	.st27{fill:url(#SVGID_25_);}
	.st28{fill:url(#SVGID_26_);}
	.st29{fill:url(#SVGID_27_);}
	.st30{opacity:0.3;fill:url(#SVGID_28_);}
	.st31{fill:url(#SVGID_29_);}
	.st32{fill:url(#SVGID_30_);}
	.st33{fill:url(#SVGID_31_);}
	.st34{fill:url(#SVGID_32_);}
	.st35{fill:url(#SVGID_33_);}
	.st36{fill:url(#SVGID_34_);}
	.st37{fill:url(#SVGID_35_);}
	.st38{fill:url(#SVGID_36_);}
	.st39{fill:url(#SVGID_37_);}
	.st40{fill:url(#SVGID_38_);}
	.st41{fill:url(#SVGID_39_);}
	.st42{fill:url(#SVGID_40_);}
	.st43{fill:url(#SVGID_41_);}
	.st44{fill:url(#SVGID_42_);}
	.st45{opacity:0.2;fill:url(#SVGID_43_);}
	.st46{fill:url(#SVGID_44_);}
	.st47{fill:url(#SVGID_45_);}
	.st48{opacity:0.2;fill:url(#SVGID_46_);}
</style>
<g>
	<path class="st0" d="M281.1,163.2c-5.9,22.6-22.4,43.5-62.5,54.3c-14.5,3.9-31.3,5.8-46.3,4.6c-22.1-1.7-45.3-11.7-63.7-23
		c-12.7-7.8-17.8-18.4-19.6-30.3c-1.1-7.4-1-15.3-0.6-23.4c0.5-12.2-1.4-24.5-4.3-36.4c-4.4-18.3-0.8-37.5,10.1-53.2
		s28.2-26.7,47.8-30.4c33.1-6.2,66.7-2.1,66.7-2.1c44.3,4.6,66.7,48.5,72.1,84.3C283.4,124,286,144.2,281.1,163.2z"/>
	<g>
		<g>
			<path class="st1" d="M184.3,163.6c-26,0-47.1-21.1-47.1-47.1s21.1-47.1,47.1-47.1s47.1,21.1,47.1,47.1S210.3,163.6,184.3,163.6z
				 M184.3,70.5c-25.4,0-46,20.6-46,46s20.6,46,46,46s46-20.6,46-46S209.6,70.5,184.3,70.5z"/>
		</g>
		<g>
			<path class="st1" d="M184.3,183.6c-17.9,0-34.7-7-47.4-19.6c-12.7-12.7-19.6-29.5-19.6-47.4s7-34.7,19.6-47.4
				c12.7-12.7,29.5-19.6,47.4-19.6s34.7,7,47.4,19.6c12.7,12.7,19.6,29.5,19.6,47.4s-7,34.7-19.6,47.4
				C219,176.6,202.2,183.6,184.3,183.6z M184.3,50.6c-36.4,0-65.9,29.6-65.9,65.9s29.6,65.9,65.9,65.9s65.9-29.6,65.9-65.9
				S220.6,50.6,184.3,50.6z"/>
		</g>
		<g>
			<path class="st1" d="M184.3,202.6c-23,0-44.6-8.9-60.8-25.2c-16.2-16.2-25.2-37.8-25.2-60.8s8.9-44.6,25.2-60.8
				c16.2-16.2,37.8-25.2,60.8-25.2s44.6,8.9,60.8,25.2c16.2,16.2,25.2,37.8,25.2,60.8s-8.9,44.6-25.2,60.8
				C228.9,193.6,207.3,202.6,184.3,202.6z M184.3,31.6c-46.8,0-84.9,38.1-84.9,84.9s38.1,84.9,84.9,84.9s84.9-38.1,84.9-84.9
				S231.1,31.6,184.3,31.6z"/>
		</g>
	</g>
	<g>
		<g>
			<g>
				<g>
					<circle class="st2" cx="91.7" cy="141.2" r="33.3"/>
					
						<linearGradient id="SVGID_1_" gradientUnits="userSpaceOnUse" x1="70.3506" y1="141.3942" x2="145.0124" y2="6.0397" gradientTransform="matrix(1 0 0 -1 0 243.8898)">
						<stop  offset="0" style="stop-color:#FF9085"/>
						<stop  offset="1" style="stop-color:#FB6FBB"/>
					</linearGradient>
					<circle class="st3" cx="91.7" cy="141.2" r="29.6"/>
				</g>
			</g>
		</g>
	</g>
</g>
<g>
	<g>
		<g>
			<circle class="st2" cx="266.9" cy="130.9" r="31"/>
			
				<linearGradient id="SVGID_2_" gradientUnits="userSpaceOnUse" x1="247.0339" y1="149.0051" x2="316.4838" y2="23.0992" gradientTransform="matrix(1 0 0 -1 0 243.8898)">
				<stop  offset="3.597120e-03" style="stop-color:#E38DDD"/>
				<stop  offset="1" style="stop-color:#9571F6"/>
			</linearGradient>
			<circle class="st4" cx="266.9" cy="130.9" r="27.5"/>
		</g>
	</g>
</g>
<g>
	<g>
		<g>
			<circle class="st2" cx="157.6" cy="51.8" r="31.5"/>
			
				<linearGradient id="SVGID_3_" gradientUnits="userSpaceOnUse" x1="137.4436" y1="228.6314" x2="207.9826" y2="100.7511" gradientTransform="matrix(1 0 0 -1 0 243.8898)">
				<stop  offset="0" style="stop-color:#FFC444"/>
				<stop  offset="0.9964" style="stop-color:#F36F56"/>
			</linearGradient>
			<circle class="st5" cx="157.6" cy="51.8" r="28"/>
		</g>
	</g>
</g>
<g>
	<g>
		<g>
			<g>
				<defs>
					<path id="SVGID_4_" d="M194.8,87.8c-2.1-1.5-5.2-2.1-7.8-2.1c-18.1,0.2-17.7,38.1-14.2,46.3c3.5,8.2,1.9,11.1-12,16.7
						c-13.8,5.6-6.3,13.5-4.2,18.3c2.1,4.8,5.9,8.7-4,14.5c-10,5.8-6.1,8.5-6.1,8.5s20.7,18,19.1,11.8c-1.6-6.2-0.4-15.8,16.6-17.9
						c7.4-0.9,18.4-5.4,20.2-13.5c0.4-1.9,0.6-4.7,0-6.6c-0.8-2.6-2.7-4.5-3.9-6.9c-2.7-5.6,2.6-10.3,5.5-14.4
						c1.5-2.2,3-4.4,4.1-6.8c2.3-5,0.9-10.1-2.4-14.2c-1.6-2-3.7-4.1-4.5-6.6c-0.9-2.7-0.6-6.4-0.7-9.2c-0.1-2.2,0-4.4-0.3-6.6
						C199.7,95.1,198.4,90.2,194.8,87.8z"/>
				</defs>
				<use xlink:href="#SVGID_4_"  style="overflow:visible;fill:#D8DEE8;"/>
				<clipPath id="SVGID_5_">
					<use xlink:href="#SVGID_4_"  style="overflow:visible;"/>
				</clipPath>
				<g class="st6">
					<g>
						<path class="st2" d="M145.9,201.2c-0.1,0.1-0.3,0-0.3-0.1c-0.1-0.1,0-0.3,0.1-0.4c0.1,0,7.8-4.9,16.2-12.6
							c7.7-7.1,17.7-18.1,21.1-30.2c2.8-10.1,4.8-26.6,5.4-45.3c0.6-16.7-0.1-29-1.1-31.2c-0.1-0.1,0-0.3,0.1-0.4
							c0.1-0.1,0.3,0,0.4,0.1c1.2,2.6,1.7,16.4,1.2,31.5c-0.6,18.7-2.6,35.3-5.5,45.4c-3.4,12.2-13.4,23.3-21.2,30.5
							C153.8,196.2,146.1,201.1,145.9,201.2C146,201.1,146,201.1,145.9,201.2z"/>
					</g>
					<g>
						<path class="st2" d="M188.6,115.7c-0.1,0.1-0.3,0-0.3-0.1c-0.1-0.2-8.3-17.7-17.3-21.1c-0.1-0.1-0.2-0.2-0.2-0.3
							c0.1-0.1,0.2-0.2,0.3-0.2c9.2,3.4,17.3,20.6,17.6,21.4C188.8,115.5,188.7,115.7,188.6,115.7
							C188.6,115.7,188.6,115.7,188.6,115.7z"/>
					</g>
					<g>
						<path class="st2" d="M187.1,137c-0.1,0-0.2,0-0.3-0.1c-0.1-0.1-0.1-0.3,0-0.4c0,0,4.7-4.5,10.5-8.4c7.9-5.3,14.1-7.1,18.5-5.4
							c0.1,0.1,0.2,0.2,0.2,0.3c-0.1,0.1-0.2,0.2-0.3,0.2C205.4,119.3,187.3,136.7,187.1,137C187.1,136.9,187.1,137,187.1,137z"/>
					</g>
					<g>
						<path class="st2" d="M169,181.6C169,181.6,169,181.6,169,181.6c-0.2,0-0.4-0.1-0.4-0.2c0-0.1-0.8-7.8-3.1-15.9
							c-2.1-7.4-6-16.5-12.3-18.2c-0.1,0-0.2-0.2-0.2-0.3c0-0.1,0.2-0.2,0.3-0.2c5.3,1.4,9.6,7.6,12.7,18.6c2.3,8.1,3.1,15.9,3.1,16
							C169.2,181.5,169.1,181.6,169,181.6z"/>
					</g>
					<g>
						<path class="st2" d="M179,168.2c-0.1,0-0.2,0-0.3-0.1c-0.1-0.1-0.1-0.3,0-0.4c0.8-0.7,19.8-17.3,27.9-16.5
							c0.1,0,0.3,0.1,0.2,0.3c0,0.1-0.1,0.3-0.3,0.2C198.7,151,179.3,168,179,168.2C179.1,168.2,179,168.2,179,168.2z"/>
					</g>
				</g>
			</g>
		</g>
		<g>
			<g>
				<defs>
					<path id="SVGID_6_" d="M230.7,113.8c-1.3-2.2-3.9-4.1-6.2-5.1c-16.6-7.3-31.9,27.4-32.1,36.3s-2.9,10.9-17.8,10.2
						c-14.9-0.7-11.4,9.7-11.4,14.9c-0.1,5.3,1.8,10.4-9.7,11.5c-11.5,1.1-9.1,5.2-9.1,5.2s11.4,24.9,12.5,18.7
						c1.1-6.3,6.1-14.5,22.6-9.4c7.1,2.2,18.9,2.7,24-3.9c1.2-1.5,2.5-4.1,2.7-6c0.3-2.7-0.6-5.3-0.7-7.9c-0.2-6.2,6.6-8.3,11-10.9
						c2.3-1.3,4.6-2.7,6.6-4.5c4.2-3.6,5-8.8,3.7-13.9c-0.6-2.5-1.7-5.3-1.4-7.8c0.3-2.8,2.1-6.1,3.2-8.7c0.9-2,1.8-4,2.4-6.1
						C232.1,122.6,232.9,117.5,230.7,113.8z"/>
				</defs>
				<use xlink:href="#SVGID_6_"  style="overflow:visible;fill:#BFC8D6;"/>
				<clipPath id="SVGID_7_">
					<use xlink:href="#SVGID_6_"  style="overflow:visible;"/>
				</clipPath>
				<g class="st7">
					<g>
						<path class="st2" d="M139.2,196.8c-0.1,0-0.2-0.1-0.3-0.2c0-0.1,0.1-0.3,0.2-0.3c0.1,0,9.1-1.3,20-4.8
							c10-3.3,23.6-9.2,31.7-18.8c6.8-8,15.4-22.3,23.7-39c7.5-15,11.9-26.5,11.9-28.9c0-0.1,0.1-0.3,0.3-0.3s0.3,0.1,0.3,0.3
							c0,2.8-5.3,15.6-12,29.2c-8.3,16.8-17,31-23.8,39.1c-8.2,9.7-21.9,15.7-31.9,19C148.4,195.5,139.4,196.8,139.2,196.8
							C139.3,196.8,139.2,196.8,139.2,196.8z"/>
					</g>
					<g>
						<path class="st2" d="M213.5,136.7c-0.1,0-0.3-0.1-0.3-0.2c0-0.2-0.2-19.6-7-26.4c-0.1-0.1-0.1-0.3,0-0.4
							c0.1-0.1,0.3-0.1,0.4,0c7,7,7.2,25.9,7.2,26.7C213.7,136.6,213.6,136.7,213.5,136.7C213.5,136.7,213.5,136.7,213.5,136.7z"/>
					</g>
					<g>
						<path class="st2" d="M203.2,155.4c-0.1,0-0.2-0.1-0.3-0.2c0-0.1,0-0.3,0.2-0.3c0.1,0,6.1-2.2,13-3.3c9.4-1.5,15.8-0.6,19,2.8
							c0.1,0.1,0.1,0.3,0,0.4c-0.1,0.1-0.3,0.1-0.4,0C227.3,146.9,203.6,155.3,203.2,155.4C203.3,155.4,203.3,155.4,203.2,155.4z"/>
					</g>
					<g>
						<path class="st2" d="M168.3,188.6C168.3,188.6,168.3,188.5,168.3,188.6c-0.2-0.1-0.3-0.2-0.3-0.4c0-0.1,2.5-7.4,3.8-15.7
							c1.1-7.6,1.4-17.5-3.7-21.6c-0.1-0.1-0.1-0.3,0-0.4c0.1-0.1,0.3-0.1,0.4,0c4.3,3.5,5.6,10.9,3.9,22.1
							c-1.3,8.3-3.8,15.7-3.8,15.8C168.5,188.5,168.4,188.6,168.3,188.6z"/>
					</g>
					<g>
						<path class="st2" d="M183,180.5c-0.1,0-0.2-0.1-0.3-0.2c0-0.1,0-0.3,0.2-0.3c1-0.3,25.2-7.5,32.2-3.5c0.1,0.1,0.2,0.2,0.1,0.4
							c-0.1,0.1-0.2,0.2-0.4,0.1C208.1,173,183.3,180.4,183,180.5C183,180.4,183,180.5,183,180.5z"/>
					</g>
				</g>
			</g>
		</g>
	</g>
	<g>
		<g>
			<g>
				
					<linearGradient id="SVGID_8_" gradientUnits="userSpaceOnUse" x1="213.3588" y1="3808.0442" x2="138.1531" y2="3876.2925" gradientTransform="matrix(0 -1 1 0 -3685.6919 342.4962)">
					<stop  offset="3.597000e-03" style="stop-color:#26264F"/>
					<stop  offset="1" style="stop-color:#444B8C"/>
				</linearGradient>
				<path class="st8" d="M195.4,211.8c0,2.1-1.5,3.9-3.3,4l-70.4,4.1c-2.1,0.1-3.8-1.6-3.8-3.8V115c0-2.2,1.7-4,3.8-3.9l70.4,2.9
					c1.8,0.1,3.3,1.8,3.3,3.9V211.8z"/>
				<linearGradient id="SVGID_9_" gradientUnits="userSpaceOnUse" x1="121.4647" y1="165.5504" x2="207.234" y2="163.1606">
					<stop  offset="0" style="stop-color:#444B8C"/>
					<stop  offset="0.9964" style="stop-color:#26264F"/>
				</linearGradient>
				<path class="st9" d="M197.5,211.8c0,2.1-1.5,3.9-3.3,4l-70.4,4.1c-2.1,0.1-3.8-1.6-3.8-3.8V115c0-2.2,1.7-4,3.8-3.9l70.4,2.9
					c1.8,0.1,3.3,1.8,3.3,3.9V211.8z"/>
				
					<linearGradient id="SVGID_10_" gradientUnits="userSpaceOnUse" x1="156.5453" y1="3867.8567" x2="199.0322" y2="3815.9285" gradientTransform="matrix(0 -1 1 0 -3685.6919 342.4962)">
					<stop  offset="0" style="stop-color:#444B8C"/>
					<stop  offset="0.9964" style="stop-color:#26264F"/>
				</linearGradient>
				<path class="st10" d="M121.7,115.1v100.8c0,1.2,0.9,2.1,2,2.1l55.7-3.2l14.7-0.8c1-0.1,1.8-1,1.8-2.1v-94c0-1.1-0.8-2.1-1.8-2.1
					l-15.3-0.6l-55.1-2.1C122.6,113,121.7,113.9,121.7,115.1z"/>
				<path class="st11" d="M194.9,207.5c0,0.4-0.3,0.8-0.7,0.8l-70.5,3.6c-0.5,0-0.9-0.3-0.9-0.8v-96c0-0.4,0.4-0.8,0.9-0.8l70.5,2.7
					c0.4,0,0.7,0.4,0.7,0.8V207.5z"/>
				<linearGradient id="SVGID_11_" gradientUnits="userSpaceOnUse" x1="160.7436" y1="207.5876" x2="159.3254" y2="218.388">
					<stop  offset="0" style="stop-color:#444B8C"/>
					<stop  offset="0.9964" style="stop-color:#26264F"/>
				</linearGradient>
				<path class="st12" d="M167.2,213.8l-14.3,0.8c-0.8,0-1.4-0.5-1.4-1.2v-0.1c0-0.7,0.6-1.3,1.4-1.3l14.3-0.8
					c0.7,0,1.3,0.5,1.3,1.2v0.1C168.6,213.1,168,213.7,167.2,213.8z"/>
				<path class="st2" d="M160.8,114.4c0,0.4-0.3,0.7-0.7,0.6c-0.4,0-0.7-0.3-0.7-0.7c0-0.4,0.3-0.7,0.7-0.6
					C160.5,113.8,160.8,114.1,160.8,114.4z"/>
			</g>
			<g class="st13">
				<path class="st2" d="M178.8,205.2c-0.3-6.2,6.6-9.8,5.9-18.4c-0.1-0.8-0.7-7.5-6.1-12.1c-4.9-4.1-8.9-2.6-17.9-5.8
					c-6.3-2.3-13.4-4.9-16.2-10c-5.7-10.2,10.6-20.5,7.2-33.7c-1-3.8-3.6-8.5-10.8-13.3l-17.2-0.7c-2.1-0.1-3.8,1.7-3.8,3.9v101
					c0,2.2,1.7,4,3.8,3.8l64.1-3.7C181.1,212.2,179,208.4,178.8,205.2z"/>
			</g>
		</g>
	</g>
	<g>
		<g>
			
				<linearGradient id="SVGID_12_" gradientUnits="userSpaceOnUse" x1="723.8079" y1="170.8683" x2="709.4248" y2="155.8068" gradientTransform="matrix(-1 0 0 1 940.1673 0)">
				<stop  offset="0" style="stop-color:#FFC444"/>
				<stop  offset="0.9964" style="stop-color:#F36F56"/>
			</linearGradient>
			<path class="st14" d="M223.5,165.1c0.1-0.2,0.3-0.5,0.4-0.9c0.1-0.9-0.5-1.8-0.9-1.7c-0.3,0-0.5,0.9-0.5,1.2
				c-0.1,0.8,0.2,1.4,0.4,1.7L223.5,165.1z"/>
			<g>
				
					<linearGradient id="SVGID_13_" gradientUnits="userSpaceOnUse" x1="729.9835" y1="205.4876" x2="705.0045" y2="150.7671" gradientTransform="matrix(-1 0 0 1 940.1673 0)">
					<stop  offset="0" style="stop-color:#FFC444"/>
					<stop  offset="0.9964" style="stop-color:#F36F56"/>
				</linearGradient>
				<path class="st15" d="M224.1,165.1c-0.2,1-0.4,2.3-0.5,4c0,1.5-0.1,4.6,1.2,8.1c1.2,3.2,2.5,4,2.1,5.8c-0.3,1.6-1.6,2.8-2.8,3.5
					c-0.6-1.3-1.4-2.9-2.1-4.9c-0.3-0.9-0.9-2.4-1.3-4.5c-0.4-2.1-0.8-3.7-0.6-5.8c0.1-1.3,0.5-3.6,1.9-6.2
					C222.6,165.1,223.4,165.1,224.1,165.1z"/>
			</g>
		</g>
		<g>
			<g>
				<g>
					<g>
						
							<linearGradient id="SVGID_14_" gradientUnits="userSpaceOnUse" x1="-892.2148" y1="224.6991" x2="-902.5753" y2="268.9991" gradientTransform="matrix(0.9179 0.3969 -0.3969 0.9179 1167.5394 260.0232)">
							<stop  offset="0" style="stop-color:#311944"/>
							<stop  offset="1" style="stop-color:#A03976"/>
						</linearGradient>
						<path class="st16" d="M249.7,146.7l-8.9,20.7c-1,2.3-3.6,3.2-5.9,2.2l-20.7-8.9c-2.3-1-3.4-3.6-2.4-5.8l8.9-20.7
							c1-2.3,3.7-3.3,5.9-2.3l20.7,8.9C249.6,141.8,250.7,144.5,249.7,146.7z"/>
					</g>
				</g>
			</g>
			<g>
				<g>
					<g>
						
							<linearGradient id="SVGID_15_" gradientUnits="userSpaceOnUse" x1="-903.2941" y1="248.1153" x2="-870.9322" y2="331.1493" gradientTransform="matrix(0.9179 0.3969 -0.3969 0.9179 1167.5394 260.0232)">
							<stop  offset="0" style="stop-color:#FF9085"/>
							<stop  offset="1" style="stop-color:#FB6FBB"/>
						</linearGradient>
						<path class="st17" d="M258,150.4l-8.9,20.7c-1,2.3-3.6,3.2-5.9,2.2l-20.7-8.9c-2.3-1-3.4-3.6-2.4-5.8l8.9-20.7
							c1-2.3,3.7-3.3,5.9-2.3l20.7,8.9C257.9,145.5,258.9,148.1,258,150.4z"/>
					</g>
					<g>
						<path class="st2" d="M245.4,146.4l-4.8-2.1l-0.4,0.4L226,160l4.2,1.8l3.3-4l6.8,2.9l-0.7,5.2l4.2,1.8L245.4,146.4z
							 M235.9,155.2c1.6-1.8,2.9-3.5,3.9-4.6c1-1.1,1.6-2,2-2.5c-0.1,0.3-0.2,0.8-0.2,1.4c-0.1,0.6-0.3,3.1-0.9,7.8L235.9,155.2z"/>
					</g>
				</g>
				
					<linearGradient id="SVGID_16_" gradientUnits="userSpaceOnUse" x1="-909.932" y1="271.577" x2="-894.347" y2="271.577" gradientTransform="matrix(0.9179 0.3969 -0.3969 0.9179 1167.5394 260.0232)">
					<stop  offset="0" style="stop-color:#FF9085"/>
					<stop  offset="1" style="stop-color:#FB6FBB"/>
				</linearGradient>
				<path class="st18" d="M220,158.5l8.9-20.7c1-2.3,3.7-3.3,5.9-2.3l3.9,1.7c0.7,2.2,1.2,4.8,1.4,7.4c0.1,1.9,0,3.9-0.4,5.9
					c-0.3,1.8-0.9,3.7-1.7,5.5c-0.5,1.1-1,2.1-1.7,3.2c-0.6,1-1.3,2-2.1,2.9c-1.5,1.8-2.9,3.6-4.4,5.5l-7.5-3.3
					C220.2,163.4,219.1,160.8,220,158.5z"/>
			</g>
		</g>
		
			<linearGradient id="SVGID_17_" gradientUnits="userSpaceOnUse" x1="715.2654" y1="179.9059" x2="700.1228" y2="164.049" gradientTransform="matrix(-1 0 0 1 940.1673 0)">
			<stop  offset="0" style="stop-color:#311944"/>
			<stop  offset="1" style="stop-color:#A03976"/>
		</linearGradient>
		<path class="st19" d="M238.8,166.4c-0.2-0.2-0.4-0.6-0.6-1c-0.2-1,0.4-2.2,0.8-2.2c0.4,0,0.7,1,0.8,1.4c0.2,0.9-0.1,1.7-0.2,2.1
			L238.8,166.4z"/>
		
			<linearGradient id="SVGID_18_" gradientUnits="userSpaceOnUse" x1="703.5342" y1="203.6932" x2="694.4678" y2="208.3026" gradientTransform="matrix(-1 0 0 1 940.1673 0)">
			<stop  offset="3.597120e-03" style="stop-color:#E38DDD"/>
			<stop  offset="1" style="stop-color:#9571F6"/>
		</linearGradient>
		<path class="st20" d="M238.4,205c0,0,0.3-0.6,0.6-0.6c0.3,0,0.6,0.1,1.4,0.5c0.7,0.5,1.1,0.6,1,0.9
			C241.4,206.2,239.1,206.1,238.4,205z"/>
		
			<linearGradient id="SVGID_19_" gradientUnits="userSpaceOnUse" x1="-10314.0889" y1="-639.7725" x2="-10313.8838" y2="-637.0989" gradientTransform="matrix(0.3082 -0.9513 0.9513 0.3082 4024.2112 -9409.4141)">
			<stop  offset="0" style="stop-color:#311944"/>
			<stop  offset="1" style="stop-color:#A03976"/>
		</linearGradient>
		<path class="st21" d="M237.6,205.4c0.1,0,0.7-0.4,1-0.6c0.1-0.1,0.3-0.1,0.4,0l0,0c0.2,0.2,0.2,0.4,0,0.6c-0.3,0.3-0.7,0.8-0.9,1
			L237.6,205.4z"/>
		
			<linearGradient id="SVGID_20_" gradientUnits="userSpaceOnUse" x1="705.4932" y1="216.3899" x2="714.3311" y2="227.9325" gradientTransform="matrix(-1 0 0 1 940.1673 0)">
			<stop  offset="3.597120e-03" style="stop-color:#E38DDD"/>
			<stop  offset="1" style="stop-color:#9571F6"/>
		</linearGradient>
		<path class="st22" d="M232.6,220.6C232.5,220.6,232.6,220.6,232.6,220.6c0,0.3,0.1,0.7-0.3,1c-0.4,0.4-1.4,0.5-2.7,0.5
			c-1.2,0.1-0.3-0.7-0.1-0.8c0.2-0.1,2.6-1.2,2.6-1.2L232.6,220.6z"/>
		
			<linearGradient id="SVGID_21_" gradientUnits="userSpaceOnUse" x1="-7595.0557" y1="1932.3627" x2="-7596.1201" y2="1937.2861" gradientTransform="matrix(0.4133 0.9106 -0.9106 0.4133 5137.1567 6336.1382)">
			<stop  offset="0" style="stop-color:#311944"/>
			<stop  offset="1" style="stop-color:#A03976"/>
		</linearGradient>
		<path class="st23" d="M231.6,219.4l0.2,1.4c0,0,0.3,0.2,0.5-0.2l0.5-1L231.6,219.4z"/>
		<g>
			
				<linearGradient id="SVGID_22_" gradientUnits="userSpaceOnUse" x1="713.6081" y1="190.6244" x2="709.6082" y2="211.3097" gradientTransform="matrix(-1 0 0 1 940.1673 0)">
				<stop  offset="0" style="stop-color:#444B8C"/>
				<stop  offset="0.9964" style="stop-color:#26264F"/>
			</linearGradient>
			<path class="st24" d="M226.8,191.5c-1.7-0.1-2.4,1.8-3.4,3.5c-1.9,3.3-4.7,10.3-2,13.8c2.2,3,8.8,1.6,10.7,0.9
				c4-1.3,3.9-1.7,6.7-3.5c-0.5-0.4-0.6-0.9-1.1-1.3c-1-0.1-2.9-0.1-3.8-0.1c-1.3,0-3.6,0.1-4.3,0.1c-1.1,0.1-3.2,0.6-3.6,0.1
				c-0.8-1.1,1.5-6.6,1.5-8.4C227.7,195.9,228.3,191.6,226.8,191.5z"/>
			
				<linearGradient id="SVGID_23_" gradientUnits="userSpaceOnUse" x1="-9751.4287" y1="2465.2041" x2="-9738.7168" y2="2475.2615" gradientTransform="matrix(0.9513 0.3082 -0.3082 0.9513 10254.8428 848.0485)">
				<stop  offset="0" style="stop-color:#444B8C"/>
				<stop  offset="0.9964" style="stop-color:#26264F"/>
			</linearGradient>
			<path class="st25" d="M223.4,194.9c-0.4,0.7-0.9,1.8-1.2,2.6c0.4,0.2,0.8,0.5,1,0.9c0.6,1.8-0.7,3.5-0.5,5.8
				c0,0.6,0.3,2.7,1.4,3.2c1.3,0.6,4-0.3,5.7-0.1c0.9,0.1,1.8,0.8,2.7,0.7c1.5-0.2,2.4-1.3,4-1.5c0.4-0.1,1.1,0.1,1.5,0.3
				c0.3-0.2,0.5-0.4,0.7-0.6c-0.3-0.4-0.6-0.9-1-1.3c-1-0.1-2.9-0.1-3.8-0.1c-1.3,0-3.6,0.1-4.3,0.1c-1.1,0.1-3.2,0.6-3.6,0.1
				c-0.8-1.1,1.5-6.6,1.5-8.4c0-0.8,0.6-4.9-0.9-5.2C225.2,191.2,224.2,193.7,223.4,194.9z"/>
		</g>
		<g>
			
				<linearGradient id="SVGID_24_" gradientUnits="userSpaceOnUse" x1="705.6682" y1="191.8834" x2="713.8395" y2="218.2829" gradientTransform="matrix(-1 0 0 1 940.1673 0)">
				<stop  offset="0" style="stop-color:#444B8C"/>
				<stop  offset="0.9964" style="stop-color:#26264F"/>
			</linearGradient>
			<path class="st26" d="M225.9,196.1c-0.2,3,1.7,7.2,1.5,10.7c0,0.4,0.1,2.1,0.3,2.5c0.5,1.5,3.5,10.5,3.6,10.6
				c0.6-0.1,1.2-0.2,1.7-0.3c0.8-1.4,1.4-3.3,1.7-4.7c0.5-2-0.5-4.2-0.7-5.6c-0.3-1.5-0.2-3.9-0.4-4.5c-1.1-3.8,0.3-5.2-0.3-8.4
				c-0.3-1.6-1.3-2.4-2.5-3.4C229.2,194.9,227.3,194.2,225.9,196.1z"/>
		</g>
		<g>
			
				<linearGradient id="SVGID_25_" gradientUnits="userSpaceOnUse" x1="718.1304" y1="209.4242" x2="693.7172" y2="155.9432" gradientTransform="matrix(-1 0 0 1 940.1673 0)">
				<stop  offset="0" style="stop-color:#FFC444"/>
				<stop  offset="0.9964" style="stop-color:#F36F56"/>
			</linearGradient>
			<path class="st27" d="M237.9,165.7c-0.1,0.9-0.3,2.3-0.6,3.9c-0.8,4.1-1.2,6.1-2.5,7.9c-2.1,3-4.4,2.9-4.5,4.8
				c-0.1,1.7,1.9,3.7,4.2,4.1c1.2,0.2,2.2-0.1,2.7-0.4c0.3-1.2,0.8-2.7,1.2-4.6c0.4-1.8,1.2-4.8,1.4-8.8c0.1-2.6,0.2-4.8,0.2-6.4
				C239.3,166,238.5,165.8,237.9,165.7z"/>
		</g>
		
			<linearGradient id="SVGID_26_" gradientUnits="userSpaceOnUse" x1="720.4934" y1="208.8615" x2="695.8456" y2="154.8666" gradientTransform="matrix(-1 0 0 1 940.1673 0)">
			<stop  offset="0" style="stop-color:#FFC444"/>
			<stop  offset="0.9964" style="stop-color:#F36F56"/>
		</linearGradient>
		<path class="st28" d="M223.8,189.2c-0.6,2.4-1.2,3.4-0.8,5.1c0.3,1.4,2.1,2,3.9,2.7c1.2,0.5,4.9,1.9,7,0.3c0.9-0.7,1-1.5,1.7-4.4
			c1.6-7.5,2.3-8.1,1.6-9.7c-1.1-2.5-3.8-3.7-4.7-4c-0.1,0-0.2-0.1-0.2-0.1c-2.3-0.8-6.6-1.3-8.3,0.4
			C222.1,181.3,225.2,183.7,223.8,189.2z"/>
		
			<linearGradient id="SVGID_27_" gradientUnits="userSpaceOnUse" x1="-12481.1211" y1="-749.5526" x2="-12487.1084" y2="-764.7596" gradientTransform="matrix(0.9435 0.3313 -0.3313 0.9435 11759.1758 5028.6558)">
			<stop  offset="0" style="stop-color:#311944"/>
			<stop  offset="1" style="stop-color:#6B3976"/>
		</linearGradient>
		<path class="st29" d="M226.3,172.6c0-0.7-0.5-0.8-0.5-1.4c0-0.8,0.8-1.6,1.6-1.9c0.8-0.3,1.1,0.2,2.7,0.4c1.7,0.3,2.1-0.2,3.4,0.3
			c0.4,0.1,1,0.3,1.7,0.9c0.5,0.4,1.6,1.3,1.6,2.6c-0.1,1.4-1.4,2.2-1.6,2.3c0.2,1.6-0.1,2.3-0.5,2.5c0,0-0.4,0.3-2.2-0.1l0,0
			c0,0-0.6,0.6-0.9,0.7c-0.4,0.2-1.1,0.2-2.4-0.7c0-0.3,0-0.8,0-1.3c-0.1-1-0.1-1.5-0.3-1.6c-0.6-0.3-1.9,1.9-2.8,1.6
			c-0.6-0.2-0.8-1.4-0.6-2.3C225.7,173.6,226.3,173.4,226.3,172.6z"/>
		
			<linearGradient id="SVGID_28_" gradientUnits="userSpaceOnUse" x1="722.7216" y1="219.1159" x2="679.5949" y2="124.6399" gradientTransform="matrix(-1 0 0 1 940.1673 0)">
			<stop  offset="0" style="stop-color:#FFC444"/>
			<stop  offset="0.9964" style="stop-color:#F36F56"/>
		</linearGradient>
		<path class="st30" d="M225.8,192.8c2.7,0.3,4.6-2.2,4.8-2.3c1.4-1.9,0.4-2.9,1.6-5.4c1.2-2.4,2.4-1.8,4-4.2c2.2-3.4,2.1-8,2.1-8.2
			c0-0.7-0.1-2.1,0.5-3.7c0.3-0.9,0.8-1.5,1.1-1.9c0,1.5,0,3.4-0.2,5.6c-0.2,4-1,7-1.4,8.8c-0.3,1.4-0.6,2.6-0.9,3.7
			c-0.2,1.2-0.8,3.3-1.8,7.9c-0.6,2.9-0.7,3.7-1.7,4.4c-2.2,1.6-5.9,0.2-7-0.3c-1.8-0.7-3.5-1.3-3.9-2.7c-0.2-1-0.1-1.8,0.2-2.7
			C223.6,192,224.5,192.6,225.8,192.8z"/>
		<linearGradient id="SVGID_29_" gradientUnits="userSpaceOnUse" x1="229.7809" y1="173.7746" x2="228.8114" y2="182.0411">
			<stop  offset="0" style="stop-color:#311944"/>
			<stop  offset="1" style="stop-color:#A03976"/>
		</linearGradient>
		<path class="st31" d="M230,177.9c-0.7,0.4-1.9,0.1-1.9,0.1s0.4,1.6-0.1,1.6s-2.5,0.4-1.8,1c0.6,0.7,5.1,0.8,5.8-0.1
			C232.6,179.5,230.3,179.8,230,177.9z"/>
		
			<linearGradient id="SVGID_30_" gradientUnits="userSpaceOnUse" x1="-10542.2334" y1="4486.5479" x2="-10544.624" y2="4492.5229" gradientTransform="matrix(0.6713 0.7413 -0.7413 0.6713 10640.6484 4975.3657)">
			<stop  offset="0" style="stop-color:#311944"/>
			<stop  offset="1" style="stop-color:#A03976"/>
		</linearGradient>
		<path class="st32" d="M230.5,178c0,0-1.7,1.4-3.9,0.5c-1.9-0.8-0.7-5.3,0.9-5.8c0.5-0.2,1.4,0,2,0.4c0.4,0.3,0.4,0.5,1,0.9
			c0.6,0.4,0.7,0.4,0.9,0.6c0.2,0.3,0.2,0.8-0.7,2c0.5-0.2,1-0.2,1.3,0c0,0,0.1,0.2,0.2,0.3C232.3,177.5,231.6,178,230.5,178z"/>
	</g>
	<g>
		<g>
			<g>
				<linearGradient id="SVGID_31_" gradientUnits="userSpaceOnUse" x1="153.5427" y1="104.1361" x2="165.1347" y2="192.6315">
					<stop  offset="3.597120e-03" style="stop-color:#E38DDD"/>
					<stop  offset="1" style="stop-color:#9571F6"/>
				</linearGradient>
				<path class="st33" d="M166.4,154.7L166.4,154.7l-15.9-0.1c-3,0-5.4-2.4-5.4-5.3l0.1-16.1c0-2.9,2.5-5.3,5.5-5.2l15.9,0.5
					c2.9,0.1,5.2,2.5,5.1,5.4l-0.2,15.8C171.5,152.4,169.2,154.7,166.4,154.7z M150.5,128.5c-2.6,0-4.7,2.1-4.7,4.6l-0.1,16.1
					c0,2.6,2.1,4.7,4.8,4.8l15.9,0.1c2.6,0,4.6-2,4.6-4.6l0.2-15.8c0-2.6-2-4.7-4.6-4.8l-15.9-0.5
					C150.6,128.5,150.6,128.5,150.5,128.5z"/>
			</g>
			<linearGradient id="SVGID_32_" gradientUnits="userSpaceOnUse" x1="153.7415" y1="104.1102" x2="165.3336" y2="192.6055">
				<stop  offset="3.597120e-03" style="stop-color:#E38DDD"/>
				<stop  offset="1" style="stop-color:#9571F6"/>
			</linearGradient>
			<path class="st34" d="M169.7,133.7c0-1.6-1.2-3-2.9-3l-16.1-0.4c-1.7,0-3.1,1.3-3.1,2.9l-0.1,16.2c0,1.6,1.4,3,3.1,3l15.9,0.2
				c1.6,0,2.9-1.3,2.9-2.9L169.7,133.7z M162.4,148.4l-1.1-3.4l-5.5-0.1l-1.1,3.3l-3.5,0l5.4-14.9l3.9,0.1l5.1,15L162.4,148.4z"/>
			<linearGradient id="SVGID_33_" gradientUnits="userSpaceOnUse" x1="153.7213" y1="104.1127" x2="165.3134" y2="192.6082">
				<stop  offset="3.597120e-03" style="stop-color:#E38DDD"/>
				<stop  offset="1" style="stop-color:#9571F6"/>
			</linearGradient>
			<path class="st35" d="M158.7,135.7c-0.2,0.9-0.9,3-2,6.4l3.9,0.1c-1-3.2-1.5-5-1.7-5.5C158.9,136.3,158.8,136,158.7,135.7z"/>
		</g>
		<g>
			<linearGradient id="SVGID_34_" gradientUnits="userSpaceOnUse" x1="135.9536" y1="106.4401" x2="147.5456" y2="194.9355">
				<stop  offset="3.597120e-03" style="stop-color:#E38DDD"/>
				<stop  offset="1" style="stop-color:#9571F6"/>
			</linearGradient>
			<path class="st36" d="M144.3,170.3l-1.8,0l0,3.7l1.9,0c0.9,0,1.6-0.1,2-0.5c0.4-0.3,0.6-0.8,0.6-1.5
				C147,170.9,146.1,170.3,144.3,170.3z"/>
			<linearGradient id="SVGID_35_" gradientUnits="userSpaceOnUse" x1="136.5934" y1="106.3563" x2="148.1855" y2="194.8516">
				<stop  offset="3.597120e-03" style="stop-color:#E38DDD"/>
				<stop  offset="1" style="stop-color:#9571F6"/>
			</linearGradient>
			<path class="st37" d="M146.1,167.5c0.4-0.3,0.6-0.7,0.6-1.3c0-0.6-0.2-1-0.6-1.3c-0.4-0.2-1.1-0.4-2-0.4l-1.5,0l0,3.5l1.7,0
				C145,167.9,145.7,167.7,146.1,167.5z"/>
			<g>
				<linearGradient id="SVGID_36_" gradientUnits="userSpaceOnUse" x1="136.2562" y1="106.4006" x2="147.8483" y2="194.896">
					<stop  offset="3.597120e-03" style="stop-color:#E38DDD"/>
					<stop  offset="1" style="stop-color:#9571F6"/>
				</linearGradient>
				<path class="st38" d="M136.4,182.9c-3,0-5.4-2.3-5.4-5.2v-16c0-2.9,2.4-5.3,5.5-5.3l16.2,0.1c1.4,0,2.8,0.6,3.8,1.6
					c1,1,1.5,2.3,1.5,3.7l-0.1,15.7c0,2.8-2.4,5.2-5.3,5.2L136.4,182.9z M136.5,156.9c-2.7,0-4.9,2.1-4.9,4.7v16
					c0,2.5,2.2,4.6,4.8,4.6l0.1,0l16.1-0.3c2.6,0,4.8-2.1,4.8-4.7l0.1-15.7c0-1.2-0.5-2.4-1.3-3.3c-0.9-0.9-2.1-1.4-3.4-1.4
					L136.5,156.9z"/>
			</g>
			<linearGradient id="SVGID_37_" gradientUnits="userSpaceOnUse" x1="136.2699" y1="106.3988" x2="147.8619" y2="194.894">
				<stop  offset="3.597120e-03" style="stop-color:#E38DDD"/>
				<stop  offset="1" style="stop-color:#9571F6"/>
			</linearGradient>
			<path class="st39" d="M155.8,161.6c0-1.6-1.3-3-3-3l-16.3-0.1c-1.7,0-3.1,1.3-3.1,3l0,16.1c0,1.6,1.4,2.9,3.1,2.9l16.2-0.2
				c1.6,0,3-1.3,3-3L155.8,161.6z M148.8,175.5c-1,0.8-2.3,1.1-4.1,1.1l-5.9,0.1l0-14.9l5,0c2.2,0,3.7,0.4,4.7,1
				c1,0.6,1.4,1.6,1.4,2.9c0,0.9-0.3,1.6-0.7,2.2c-0.4,0.6-1,0.9-1.8,1l0,0.1c0.9,0.2,1.7,0.6,2.1,1.2c0.4,0.6,0.7,1.3,0.6,2.2
				C150.3,173.7,149.8,174.8,148.8,175.5z"/>
		</g>
		<g>
			<linearGradient id="SVGID_38_" gradientUnits="userSpaceOnUse" x1="163.8887" y1="102.598" x2="175.5065" y2="191.2898">
				<stop  offset="3.597120e-03" style="stop-color:#E38DDD"/>
				<stop  offset="1" style="stop-color:#9571F6"/>
			</linearGradient>
			<path class="st40" d="M164.8,182.4c-1.4,0-2.7-0.5-3.6-1.5c-0.9-1-1.5-2.2-1.4-3.6l0.1-15.7c0-2.9,2.4-5.2,5.2-5.2h0l15.4,0.1
				c1.3,0,2.6,0.5,3.5,1.5c1,1,1.5,2.3,1.4,3.6l-0.2,15.3c0,2.8-2.3,5.1-5.1,5.1L164.8,182.4z M165.1,157.1c-2.6,0-4.7,2.1-4.7,4.6
				l-0.1,15.7c0,1.2,0.4,2.3,1.3,3.2c0.8,0.9,2,1.3,3.2,1.3l0.1,0l15.3-0.2c2.5,0,4.5-2.1,4.6-4.6l0.2-15.3c0-1.2-0.4-2.4-1.3-3.2
				c-0.8-0.9-2-1.3-3.1-1.3L165.1,157.1z"/>
		</g>
		<linearGradient id="SVGID_39_" gradientUnits="userSpaceOnUse" x1="164.1064" y1="102.7525" x2="175.6984" y2="191.2478">
			<stop  offset="3.597120e-03" style="stop-color:#E38DDD"/>
			<stop  offset="1" style="stop-color:#9571F6"/>
		</linearGradient>
		<path class="st41" d="M183.5,161.7c0-1.6-1.2-2.9-2.8-2.9l-15.5-0.1c-1.6,0-2.9,1.3-2.9,2.9l-0.1,15.7c0,1.6,1.3,2.9,2.9,2.9
			l15.4-0.2c1.6,0,2.8-1.3,2.9-2.9L183.5,161.7z M174.2,174.1c1,0,2.1-0.3,3.7-0.8l0,2.6c-1.1,0.5-2.5,0.8-4,0.8
			c-2.1,0-3.7-0.6-4.8-1.9c-1.1-1.3-1.7-3.1-1.6-5.5c0-1.5,0.3-2.8,0.9-4c0.6-1.1,1.4-2,2.4-2.6c1-0.6,2.3-0.9,3.6-0.9
			c1.4,0,2.8,0.3,4.2,1l-1,2.5c-0.5-0.3-1.1-0.5-1.6-0.7c-0.5-0.2-1.1-0.3-1.6-0.3c-1.2,0-2.1,0.4-2.7,1.3c-0.6,0.9-1,2.1-1,3.6
			C170.5,172.5,171.7,174.1,174.2,174.1z"/>
	</g>
	<linearGradient id="SVGID_40_" gradientUnits="userSpaceOnUse" x1="147.3633" y1="104.9456" x2="158.9554" y2="193.4409">
		<stop  offset="3.597120e-03" style="stop-color:#E38DDD"/>
		<stop  offset="1" style="stop-color:#9571F6"/>
	</linearGradient>
	<path class="st42" d="M173.3,188.8c0-1.5-1.2-2.7-2.7-2.7l-23.9,0.5c-1.6,0-2.9,1.3-2.9,2.9l0,1.1c0,1.6,1.3,2.8,2.9,2.7l23.9-0.6
		c1.5,0,2.8-1.3,2.8-2.8L173.3,188.8z"/>
	<g>
		<linearGradient id="SVGID_41_" gradientUnits="userSpaceOnUse" x1="221.5361" y1="135.1888" x2="189.2246" y2="206.3174">
			<stop  offset="0" style="stop-color:#FFC444"/>
			<stop  offset="0.9964" style="stop-color:#F36F56"/>
		</linearGradient>
		<path class="st43" d="M211.2,197l-8.4-5c-0.1-0.1-0.2-0.1-0.3-0.2l0,0l0,0c-0.6-0.3-1.3-0.5-2.1-0.5l-12.7,0.3l-8.9,0.2
			c-2.4,0.1-4.3,1.9-4.3,4.1v20.6c0,1.5,0.8,2.7,2,3.4l0,0l9.1,5l4.6-5.1l2.2-0.1l8.1-0.4c2.3-0.1,4.3-2,4.3-4.2v-11.1L211.2,197z"
			/>
		<g>
			<g>
				<linearGradient id="SVGID_42_" gradientUnits="userSpaceOnUse" x1="193.6599" y1="202.1947" x2="231.3343" y2="277.2582">
					<stop  offset="0" style="stop-color:#FFC444"/>
					<stop  offset="0.9964" style="stop-color:#F36F56"/>
				</linearGradient>
				<path class="st44" d="M213,200.3v19.9c0,2.2-1.8,4.1-4.1,4.2l-21.4,1.1c-2.4,0.1-4.5-1.6-4.5-3.9v-20.5c0-2.2,2.1-4.2,4.4-4.2
					l21.4-0.6C211.2,196.3,213,198.1,213,200.3z"/>
				<g>
					<path class="st2" d="M200.1,216.9c-3.2,0.1-4.8-1.8-4.8-5.9c0-1.9,0.4-3.5,1.3-4.6c0.7-1,1.8-1.6,3-1.7c0.2,0,0.3,0,0.5,0
						c0.7,0,1.4,0.1,2.1,0.3c0.7,0.2,1.4,0.5,2.1,0.8l1.3-3.1c-1.8-0.8-3.7-1.2-5.5-1.1c-0.6,0-1.1,0.1-1.7,0.2
						c-1.1,0.2-2.2,0.6-3.1,1.1c-1.4,0.8-2.4,1.9-3.1,3.4c-0.7,1.4-1.1,3.1-1.1,5c0,3,0.7,5.3,2.2,6.8c1.5,1.5,3.6,2.2,6.4,2.1
						c0.9,0,1.8-0.2,2.6-0.3c1-0.2,1.5-0.5,2.8-0.9v-3.2c-1.3,0.4-1.9,0.6-2.7,0.8C201.6,216.7,200.7,216.8,200.1,216.9z"/>
				</g>
			</g>
			<linearGradient id="SVGID_43_" gradientUnits="userSpaceOnUse" x1="183.0764" y1="211.1105" x2="202.3002" y2="211.1105">
				<stop  offset="0" style="stop-color:#FFC444"/>
				<stop  offset="0.9964" style="stop-color:#F36F56"/>
			</linearGradient>
			<path class="st45" d="M183.1,221.6v-20.5c0-2.2,2.1-4.2,4.4-4.2l8.9-0.2c0.6,1.7,1.3,3.3,1.9,4.9c0.4,1,0.8,2.1,1.2,3.1
				c1.4,3.9,2.6,7.8,2.7,11.8c0,1.1,0,2.2-0.1,3.2c-0.2,1.5-0.5,3-1,4.5c-0.1,0.2-0.1,0.2-0.2,0.5l-13.5,0.7
				C185.1,225.6,183.1,223.9,183.1,221.6z"/>
		</g>
	</g>
	<g>
		<linearGradient id="SVGID_44_" gradientUnits="userSpaceOnUse" x1="201.7971" y1="167.8054" x2="140.9592" y2="234.6638">
			<stop  offset="0" style="stop-color:#444B8C"/>
			<stop  offset="0.9964" style="stop-color:#26264F"/>
		</linearGradient>
		<path class="st46" d="M211.7,165.8l-7.7-1.2c-0.3-0.1-0.8-0.1-1.1-0.1h-14.3h-8.1c-2.5,0-4.3,1.7-4.3,4.1v21.4
			c0,2,1.4,3.9,3.4,4.1h0l0,0c0.1,0,0.2,0,0.3,0l8.5,1.2l1.1-1.3l0.2,0l13.4-0.3c2.4-0.1,4.5-2,4.5-4.3v-18L211.7,165.8z"/>
		<g>
			<g>
				<linearGradient id="SVGID_45_" gradientUnits="userSpaceOnUse" x1="186.8948" y1="146.6008" x2="242.4337" y2="297.3489">
					<stop  offset="0" style="stop-color:#AA80F9"/>
					<stop  offset="0.9964" style="stop-color:#6165D7"/>
				</linearGradient>
				<path class="st47" d="M210.6,165.6l-22.2,0c-2.5,0-4.6,1.8-4.6,4.2v21.3c0,2.3,2.2,4.1,4.7,4.1l22.1-0.6
					c2.4-0.1,4.3-1.9,4.3-4.2v-20.7C214.9,167.4,213,165.6,210.6,165.6z"/>
				<g>
					<path class="st2" d="M206.2,181.2c-0.6-0.7-1.3-1.2-2.7-1.4v-0.1c1.2-0.2,1.6-0.6,2.2-1.3c0.6-0.7,0.8-1.6,0.8-2.8
						c0-1.6-0.6-2.8-1.9-3.6c-1.3-0.7-3.2-1.1-6-1.1l-6.1,0V190l7.4-0.2c2.2,0,4-0.7,5.3-1.6c1.3-1,1.9-2.4,1.9-4.1
						C207,182.9,206.7,181.9,206.2,181.2z M196.5,174l2.2,0c1.2,0,2.1,0.2,2.6,0.5c0.6,0.3,0.8,0.9,0.8,1.6c0,0.8-0.3,1.3-0.8,1.7
						c-0.5,0.3-1.3,0.5-2.5,0.5l-2.5,0V174z M201.8,185.6c-0.5,0.4-1.4,0.6-2.5,0.6l-2.8,0.1v-4.9l2.6,0c2.3,0,3.5,0.7,3.5,2.3
						C202.6,184.5,202.4,185.2,201.8,185.6z"/>
				</g>
			</g>
			<linearGradient id="SVGID_46_" gradientUnits="userSpaceOnUse" x1="183.7597" y1="180.4009" x2="197.4859" y2="180.4009">
				<stop  offset="0" style="stop-color:#AA80F9"/>
				<stop  offset="0.9964" style="stop-color:#6165D7"/>
			</linearGradient>
			<path class="st48" d="M183.8,191.1v-21.3c0-2.3,2.2-4.2,4.7-4.2l8.1,0c-0.5,1.4-0.9,3.5-1.2,5.2c-0.9,4.1-1.3,8.3-0.9,12.5
				c0.2,2.1,0.7,4.3,1.3,6.4c0.5,1.7,1.1,3.4,1.8,5.2l-9.1,0.2C185.9,195.2,183.8,193.4,183.8,191.1z"/>
		</g>
	</g>
</g>
<g>
	<path class="st2" d="M255.8,134.7v6.5h6.5V138v-3.2H259c0-1.8,1.5-3.2,3.2-3.2v-3.2C258.7,128.3,255.8,131.2,255.8,134.7z"/>
	<path class="st2" d="M265.5,134.7v6.5h6.5V138v-3.2h-3.2c0-1.8,1.5-3.2,3.2-3.2v-3.2C268.4,128.3,265.5,131.2,265.5,134.7z"/>
	<path class="st2" d="M275.2,115.3v3.2v3.2h3.2c0,1.8-1.5,3.2-3.2,3.2v3.2c3.6,0,6.5-2.9,6.5-6.5v-6.5H275.2z"/>
	<path class="st2" d="M265.5,118.5v3.2h3.2c0,1.8-1.5,3.2-3.2,3.2v3.2c3.6,0,6.5-2.9,6.5-6.5v-6.5h-6.5V118.5z"/>
</g>
<path class="st2" d="M77.5,133.9c-1.8,0-3.6,0-5.4,0c-4,0-7.2,3.3-7.2,7.2c0,0.3,0,0.6,0,1c0,4,3.2,7.2,7.2,7.2h3.1
	c0.1,0,0.1,0,0.2,0.1c0.5,0.4,3.3,2.5,3.4,2.2c0.1-0.4-0.2-1.4-0.4-1.9c-0.1-0.2,0-0.4,0.2-0.4c0,0,0,0,0,0c3.5-0.6,6-3.7,5.9-7.2
	v-0.8C84.7,137.2,81.5,133.9,77.5,133.9z M72.5,142c-0.5,0-0.9-0.4-0.9-0.9c0-0.5,0.4-0.9,0.9-0.9s0.9,0.4,0.9,0.9c0,0,0,0,0,0
	C73.4,141.6,73,142,72.5,142z M77.4,142.7c-0.1,0.8-0.8,1.4-1.5,1.3c-0.8,0-1.5-0.5-1.5-1.3c0-0.3,0.1-0.6,0.4-0.6
	c0.3,0,0.6,0.1,0.6,0.4c0,0.3,0.3,0.5,0.6,0.4c0.2,0,0.4-0.2,0.4-0.4c0-0.3,0.3-0.5,0.6-0.4C77.3,142.2,77.5,142.5,77.4,142.7z
	 M79,142c-0.5,0-0.9-0.4-0.9-0.9s0.4-0.9,0.9-0.9c0.5,0,0.9,0.4,0.9,0.9c0,0,0,0,0,0C79.9,141.6,79.5,142,79,142L79,142z"/>
<path class="st2" d="M92.3,145.4c-4.8,0.3-8.4,4.4-8.1,9.2c0.2,3.2,2.2,6,5.1,7.3c0.1,0.1,0.2,0.2,0.2,0.4c-0.1,0.7-0.5,2.4-0.4,2.8
	c0,0.3,3.1-1.9,3.7-2.3c0.1,0,0.1-0.1,0.2-0.1c4.8-0.1,8.6-4,8.5-8.8c-0.1-4.8-4-8.6-8.8-8.5C92.6,145.4,92.4,145.4,92.3,145.4
	L92.3,145.4z M88.2,152.7c-0.5,0-1-0.4-1-1c0-0.5,0.4-1,1-1c0.5,0,1,0.4,1,1c0,0,0,0,0,0C89.2,152.2,88.8,152.7,88.2,152.7z
	 M91.1,156.1c-0.8,0.1-1.4-0.5-1.5-1.3c0-0.2,0.1-0.4,0.3-0.4c0,0,0,0,0.1,0h2.3c0.2,0,0.3,0.2,0.3,0.4c0,0,0,0,0,0.1
	C92.6,155.6,91.9,156.2,91.1,156.1z M94.2,152.7c-0.5,0-1-0.4-1-1c0-0.5,0.4-1,1-1c0.5,0,1,0.4,1,1c0,0,0,0,0,0
	C95.2,152.2,94.7,152.7,94.2,152.7L94.2,152.7z"/>
<path class="st2" d="M100.9,123.1H90.4c-2.8,0-5.1,2.3-5.1,5.1c0,0.2,0,0.3,0,0.5l0.6,6.2c0.2,2.4,2,4.2,4.4,4.6
	c0.2,0,0.3,0.2,0.3,0.4c0,0,0,0,0,0c-0.1,0.7-0.4,2.3-0.3,2.8c0.1,0.4,3.8-2.5,4.4-3c0.1,0,0.1-0.1,0.2-0.1l5.1-0.1
	c2.5,0,4.7-1.8,5.1-4.3l1-6.2c0.4-2.8-1.5-5.4-4.3-5.8C101.5,123.1,101.2,123.1,100.9,123.1z M90.2,128.5c-0.2-0.2-0.1-0.6,0.1-0.7
	c0.6-0.5,2-0.6,2.8,0.3c0.2,0.2,0.2,0.5,0,0.7c-0.2,0.2-0.5,0.2-0.7,0c-0.4-0.3-1-0.4-1.4-0.1C90.7,128.8,90.4,128.8,90.2,128.5
	C90.2,128.5,90.2,128.5,90.2,128.5z M97.3,132c-0.2,1.3-1.1,2.5-2.9,2.5s-2.6-1.1-2.9-2.5c-0.1-0.4,0.2-0.7,0.5-0.8c0,0,0.1,0,0.1,0
	h4.4c0.4,0,0.7,0.3,0.7,0.7C97.3,132,97.3,132,97.3,132z M99.1,128.5c-0.2,0.2-0.5,0.3-0.7,0.1c-0.5-0.2-1-0.2-1.4,0.1
	c-0.2,0.2-0.5,0.2-0.7,0c-0.2-0.2-0.2-0.5,0-0.7c0.8-0.8,2.2-0.7,2.8-0.3C99.2,128,99.3,128.3,99.1,128.5z"/>
<path class="st2" d="M146.3,34.1c-1.5,0-2.8,1.3-2.8,2.8v25.2c0,1.5,1.3,2.8,2.8,2.8h2.8v2.8l3.5-2.8l3.5,2.8v-2.8h9.8
	c1.5,0,2.8-1.3,2.8-2.8v-1.4c0,1.5-1.3,2.8-2.8,2.8h-9.8v-2.8h-7v2.8H147c-1.2,0-2.1-1-2.1-2.1c0-1.3,0.9-2.1,2.1-2.1h18.9
	c1.5,0,2.8-1.3,2.8-2.8V36.9c0-1.5-1.3-2.8-2.8-2.8H146.3L146.3,34.1z"/>
</svg>
