<?xml version="1.0" encoding="utf-8"?>
<!-- Generator: Adobe Illustrator 24.2.0, SVG Export Plug-In . SVG Version: 6.00 Build 0)  -->
<svg version="1.1" id="Layer_1" xmlns="http://www.w3.org/2000/svg" xmlns:xlink="http://www.w3.org/1999/xlink" x="0px" y="0px"
	 viewBox="0 0 383.2 243.3" style="enable-background:new 0 0 383.2 243.3;" xml:space="preserve">
<style type="text/css">
	.st0{fill:#F4F7FA;}
	.st1{fill:#BFC8D6;}
	.st2{fill:url(#SVGID_1_);}
	.st3{fill:#7D97F4;}
	.st4{opacity:0.19;fill:#91B3FA;}
	.st5{opacity:0.68;}
	.st6{fill:#FFFFFF;}
	.st7{fill:url(#SVGID_2_);}
	.st8{fill:url(#SVGID_3_);}
	.st9{opacity:0.5;clip-path:url(#SVGID_6_);}
	.st10{opacity:0.5;clip-path:url(#SVGID_9_);}
	.st11{fill:#D8DEE8;}
	.st12{fill:url(#SVGID_10_);}
	.st13{fill:url(#SVGID_11_);}
	.st14{fill:url(#SVGID_12_);}
	.st15{fill:url(#SVGID_13_);}
	.st16{opacity:0.5;fill:#D8DEE8;}
	.st17{fill:url(#SVGID_14_);}
	.st18{fill:url(#SVGID_15_);}
	.st19{fill:url(#SVGID_16_);}
	.st20{opacity:0.2;fill:url(#SVGID_17_);}
	.st21{opacity:0.3;fill:#FFFFFF;}
	.st22{fill:url(#SVGID_18_);}
	.st23{fill:url(#SVGID_19_);}
	.st24{opacity:0.3;fill:url(#SVGID_20_);}
	.st25{opacity:0.3;fill:url(#SVGID_21_);}
	.st26{fill:url(#SVGID_22_);}
	.st27{fill-rule:evenodd;clip-rule:evenodd;fill:#FFFFFF;}
</style>
<g>
	<path class="st0" d="M281.1,163.2c-5.9,22.6-22.4,43.5-62.5,54.3c-14.5,3.9-31.3,5.8-46.3,4.6c-22.1-1.7-45.3-11.7-63.7-23
		c-12.7-7.8-17.8-18.4-19.6-30.3c-1.1-7.4-1-15.3-0.6-23.4c0.5-12.2-1.4-24.5-4.3-36.4c-4.4-18.3-0.8-37.5,10.1-53.2
		s28.2-26.7,47.8-30.4c33.1-6.2,66.7-2.1,66.7-2.1c44.3,4.6,66.7,48.5,72.1,84.3C283.4,124,286,144.2,281.1,163.2z"/>
	<g>
		<g>
			<path class="st1" d="M184.3,163.6c-26,0-47.1-21.1-47.1-47.1s21.1-47.1,47.1-47.1s47.1,21.1,47.1,47.1S210.3,163.6,184.3,163.6z
				 M184.3,70.5c-25.4,0-46,20.6-46,46s20.6,46,46,46s46-20.6,46-46S209.6,70.5,184.3,70.5z"/>
		</g>
		<g>
			<path class="st1" d="M184.3,183.6c-17.9,0-34.7-7-47.4-19.6c-12.7-12.7-19.6-29.5-19.6-47.4s7-34.7,19.6-47.4
				c12.7-12.7,29.5-19.6,47.4-19.6s34.7,7,47.4,19.6c12.7,12.7,19.6,29.5,19.6,47.4s-7,34.7-19.6,47.4
				C219,176.6,202.2,183.6,184.3,183.6z M184.3,50.6c-36.4,0-65.9,29.6-65.9,65.9s29.6,65.9,65.9,65.9s65.9-29.6,65.9-65.9
				S220.6,50.6,184.3,50.6z"/>
		</g>
		<g>
			<path class="st1" d="M184.3,202.6c-23,0-44.6-8.9-60.8-25.2c-16.2-16.2-25.2-37.8-25.2-60.8s8.9-44.6,25.2-60.8
				c16.2-16.2,37.8-25.2,60.8-25.2s44.6,8.9,60.8,25.2c16.2,16.2,25.2,37.8,25.2,60.8s-8.9,44.6-25.2,60.8
				C228.9,193.6,207.3,202.6,184.3,202.6z M184.3,31.6c-46.8,0-84.9,38.1-84.9,84.9s38.1,84.9,84.9,84.9s84.9-38.1,84.9-84.9
				S231.1,31.6,184.3,31.6z"/>
		</g>
	</g>
</g>
<g>
	
		<linearGradient id="SVGID_1_" gradientUnits="userSpaceOnUse" x1="-6281.3452" y1="114.3261" x2="-6311.5542" y2="45.3411" gradientTransform="matrix(-1 0 0 1 -6098.2197 0)">
		<stop  offset="0" style="stop-color:#4F52FF"/>
		<stop  offset="1" style="stop-color:#4042E2"/>
	</linearGradient>
	<path class="st2" d="M106.2,124.4c1.7,37.8,36.1,67,76.9,65.2s72.6-33.9,70.9-71.7c-1.7-37.8-36.1-67-76.9-65.2
		C136.3,54.5,104.5,86.6,106.2,124.4z"/>
	<path class="st3" d="M235.9,75.8c1.6,2.6,2.9,5.5,2.6,8.6c-0.3,3.5-2.1,6.9-2.2,10.4c-0.2,6,4.5,11.1,6,16.9
		c1.6,6.5-4.5,14-6.9,17.7c-2.4,3.7-1.4-3-2.9-5.5c-1.5-2.6-4.7,10.9-9.6,13.8c-2.7,1.6-5.8,2.6-7.7,5.1c-2.8,3.6-2,8.6-1.6,13.1
		c0.4,4.5-0.2,10-4.3,12c-2.4,1.2-5.4,0.8-7.6,2.3c-3.8,2.8-2,8.8-3.5,13.2c-1.6,4.8-4.9,4.9-9.9,5.9c-5,1,0.6-10-1.7-13.8
		c-1.2-2-3.1-3.6-4.1-5.8c-1.3-3-1-7-3.6-9c-2-1.5-4.7-1.1-7.2-1.1c-2.5,0-5.5-1.1-5.7-3.5c-0.2-2.2,1.9-3.9,4.1-4.4
		c2.1-0.5,4.4-0.3,6.5-0.9c6-1.8,8.8-10.2,15-10.6c5.3-0.3,9.8,5.6,15,4.6c2.9-0.6,4.9-3.2,7.1-5.2c2.8-2.6,6.2-4.6,8.5-7.7
		c2.2-3.1,2.6-8.1-0.6-10.3c-2.3-1.6-5.7-1-8,0.7c-2.3,1.7-3.9,4.1-5.6,6.4c-0.5,0.7-1.1,1.4-2,1.7c-2.3,0.7-3.9-2.5-3.4-4.8
		c0.5-2.3,2.2-4.3,2.2-6.7c0.1-4.2-4.3-6.8-8.3-8.2c-3.9-1.4-8.6-3-9.7-7c-0.4-1.4-0.3-3-0.9-4.3c-2.1-4.4-13-6.6-10.4-9.2
		s10.9-3.1,12.5-8.3c0.6-1.8,1.2-4.3,3.1-4.5c3.1-0.3,4.9,3.6,7.6,4.3c1.2,0.3,1.4,2.4,1.3,5c0,1.9,1.5,3.5,3.4,3.5
		c1.9,0,3.5-1.5,3.5-3.4c0-0.7-0.1-1.4-0.4-2.1c-0.5-1.2-1.5-2.2-2.4-3.2c-4-3.9-16.1-8.1-13.6-9.7c2.5-1.6,14.7-6.2,16.5-3.7
		c1.8,2.5-1.2,0.4-1.9,3.4c-0.7,3,9,2.6,13.5,3.9c0.7,0.2,1.6,0.4,2.3,0.1c0.8-0.4,1.1-1.3,1.5-2c2.3-4,9.7-1.4,9.7-1.4
		S234.5,73.4,235.9,75.8z"/>
	<path class="st3" d="M202,57.5c1.1,2-2.2,2-2.5,4.3c-2.9,0.3-4.1-4.3-7-4.8c-1.6-0.3-3.2,0.9-4.1,2.3c-0.9,1.4-1.3,3-2,4.5
		c-1.7,3.3-5.1,5.6-8.8,5.9c-0.8,0.1-1.7,0-2.3-0.5c-1.8-1.5,0.8-4.5,0.1-6.7c-0.7-2.6-4.5-2.2-7-3.1c-0.7-0.3-6-1.7-6.1-2.4
		c-0.2-1.3,2.3-2.1,5.1-2.8c4.7-1.2,12.9-1.2,16.9-0.8C189.7,53.8,198.6,53.4,202,57.5L202,57.5z"/>
	<g>
		<path class="st3" d="M112.9,144.8c-1.2-7.6-1.1-15.4,0.3-22.9c0.4-2,1.3-4.4,3.3-4.7c2.3-0.3,5.2,2.4,6.7,0.5c0.6-0.8,0.4-2,0-3
			c-1-2.6-2.5-5-4.4-6.9c-1.2-1.2-2.6-2.3-3.5-3.7c-2-3.1-0.6-7.6,2.2-10c2.8-2.4,6.4,1.9,9.4,0.2c2.9-1.7,3-5.8,3.6-9.1
			c0.4-2.5,2.2-9.2,4.3-5.9c2,3.3-2.7,16.3-8,22.5c-0.6,0.8-1.3,1.6-1.3,2.6c0.1,2.4,3.6,2.3,5.9,2.7c2.9,0.6,7.2-0.9,4.8,4
			c-1.3,2.6-7.4,6.2-5.7,8c1.6,1.8,6.7,6.8,9,11c2.4,4.1,3.5,9.2,1.7,13.6s-7.1,7.4-11.5,5.6c-2-0.9-4.3-2.7-6.2-1.5
			c-1.7,1-1.5,3.5-1.4,5.5c0.1,2-1.1,4.7-3,4.2c-0.6-0.2-1.1-0.6-1.6-1.1C114.7,153.2,113.5,149,112.9,144.8z"/>
	</g>
	<ellipse class="st4" cx="184.1" cy="116.2" rx="58.1" ry="54.9"/>
	<g class="st5">
		<path class="st6" d="M160.3,122.4c0,6,0.2,12.1,0.7,18.1c0.5,6,1.1,12,2.2,17.9c0.5,3,1.1,5.9,1.8,8.8c0.7,2.9,1.6,5.8,2.6,8.6
			c1,2.8,2.2,5.6,3.9,8.1c0.8,1.2,1.7,2.4,2.9,3.4c0.6,0.5,1.2,0.9,1.8,1.2c0.7,0.3,1.4,0.5,2.1,0.5c0.7,0,1.4-0.1,2.1-0.4
			c0.7-0.3,1.3-0.7,1.9-1.1c1.1-0.9,2.1-2.1,2.9-3.3c1.6-2.5,2.9-5.3,3.9-8.1c1-2.8,1.9-5.7,2.6-8.6c0.7-2.9,1.3-5.9,1.8-8.8
			c1-5.9,1.7-11.9,2.2-17.9c0.4-6,0.6-12,0.6-18.1c0-6-0.1-12.1-0.5-18.1c-0.4-6-1-12-1.9-18c-0.5-3-1-5.9-1.7-8.9
			c-0.7-2.9-1.4-5.8-2.4-8.7c-0.5-1.4-1-2.8-1.6-4.2c-0.6-1.4-1.3-2.7-2.1-4c-0.8-1.3-1.7-2.5-2.9-3.4c-0.6-0.5-1.2-0.9-1.9-1.2
			c-0.7-0.3-1.4-0.4-2.2-0.4c-0.7,0-1.5,0.2-2.1,0.5c-0.7,0.3-1.3,0.7-1.9,1.2c-1.1,1-2.1,2.1-2.9,3.4c-1.7,2.5-3,5.2-4.1,8
			c-1.1,2.8-2,5.7-2.8,8.6c-0.8,2.9-1.4,5.9-2,8.8c-1.1,5.9-1.9,11.9-2.4,17.9C160.5,110.3,160.3,116.3,160.3,122.4z M159.4,122.4
			c0-12.1,1-24.2,3.3-36.1c0.6-3,1.3-5.9,2.1-8.8c0.8-2.9,1.7-5.8,2.9-8.6c1.1-2.8,2.4-5.6,4.2-8.1c0.9-1.2,1.9-2.4,3-3.4
			c0.6-0.5,1.2-0.9,1.9-1.2c0.7-0.3,1.5-0.5,2.2-0.5c0.8,0,1.6,0.1,2.3,0.4c0.7,0.3,1.4,0.7,2,1.2c1.2,1,2.2,2.2,3,3.5
			c0.8,1.3,1.5,2.6,2.2,4c0.6,1.4,1.2,2.8,1.7,4.2c1,2.9,1.8,5.8,2.5,8.7c0.7,2.9,1.3,5.9,1.8,8.9c1,6,1.7,12,2.1,18
			c0.2,3,0.4,6,0.5,9.1c0.1,3,0.2,6,0.2,9.1c0,6-0.3,12.1-0.8,18.1c-0.5,6-1.2,12-2.3,18c-0.5,3-1.2,5.9-1.9,8.9
			c-0.8,2.9-1.6,5.8-2.7,8.7c-1.1,2.8-2.3,5.6-4,8.2c-0.9,1.3-1.8,2.5-3.1,3.4c-0.6,0.5-1.3,0.9-2,1.2c-0.7,0.3-1.5,0.4-2.3,0.4
			c-0.8,0-1.6-0.2-2.3-0.5c-0.7-0.3-1.4-0.8-2-1.3c-1.2-1-2.1-2.2-3-3.5c-1.7-2.6-2.9-5.4-4-8.2c-1.1-2.8-1.9-5.8-2.7-8.7
			c-0.7-2.9-1.4-5.9-1.9-8.9C160.2,146.6,159.4,134.5,159.4,122.4z"/>
		<path class="st6" d="M129.9,122.4c0,7.7,1,15.4,3,22.8c2,7.4,5.1,14.6,9.4,21c2.1,3.2,4.5,6.2,7.2,9c2.7,2.7,5.7,5.2,8.9,7.3
			c3.3,2.1,6.8,3.7,10.5,4.8c3.7,1.1,7.5,1.7,11.4,1.7c3.8,0,7.7-0.6,11.4-1.7c3.7-1.1,7.2-2.8,10.4-4.8c3.2-2.1,6.2-4.6,8.9-7.3
			c2.7-2.8,5.1-5.8,7.2-9c4.2-6.4,7.3-13.6,9.3-21c1-3.7,1.8-7.5,2.3-11.3c0.5-3.8,0.7-7.7,0.8-11.5c0-3.8-0.3-7.7-0.8-11.5
			c-0.5-3.8-1.2-7.6-2.2-11.3c-2-7.4-5.1-14.6-9.3-21c-2.1-3.2-4.5-6.3-7.2-9c-2.7-2.8-5.7-5.2-8.9-7.3c-3.3-2.1-6.8-3.7-10.5-4.8
			c-3.7-1.1-7.5-1.7-11.4-1.7c-3.9,0-7.7,0.6-11.4,1.7c-3.7,1.1-7.2,2.8-10.5,4.8c-3.3,2.1-6.2,4.6-8.9,7.3c-2.7,2.8-5.1,5.8-7.2,9
			c-4.2,6.4-7.3,13.6-9.4,21C130.9,107,129.9,114.7,129.9,122.4z M128.9,122.4c0-7.8,1.1-15.6,3.1-23.1c2.1-7.5,5.3-14.7,9.7-21.2
			c2.2-3.2,4.6-6.3,7.4-9c2.7-2.8,5.8-5.2,9.1-7.3c3.3-2.1,6.9-3.7,10.6-4.8c3.7-1.1,7.6-1.7,11.5-1.7c3.9,0,7.8,0.6,11.5,1.7
			c3.7,1.1,7.3,2.8,10.6,4.8c3.3,2.1,6.3,4.5,9.1,7.3c2.8,2.8,5.2,5.8,7.4,9c4.4,6.5,7.6,13.7,9.7,21.2c1.1,3.8,1.8,7.6,2.4,11.4
			c0.5,3.9,0.8,7.8,0.8,11.7c0,3.9-0.3,7.8-0.8,11.7c-0.5,3.9-1.3,7.7-2.3,11.4c-2.1,7.5-5.3,14.7-9.7,21.2c-2.2,3.2-4.6,6.3-7.4,9
			c-2.8,2.8-5.8,5.2-9.1,7.3c-3.3,2.1-6.9,3.7-10.6,4.8c-3.7,1.1-7.6,1.7-11.5,1.7c-3.9,0-7.8-0.6-11.5-1.7
			c-3.7-1.1-7.3-2.8-10.6-4.8c-3.3-2.1-6.3-4.6-9.1-7.3c-2.7-2.8-5.2-5.8-7.4-9c-4.3-6.5-7.5-13.7-9.7-21.2
			C129.9,137.9,128.9,130.2,128.9,122.4z"/>
		<path class="st6" d="M240.2,95.9l-15.4,0.1l-15.4,0.1l-30.8,0.1l-30.8-0.1L132.2,96l-15.4-0.1c0,0,0,0,0,0c0,0,0,0,0,0l15.4-0.1
			l15.4-0.1l30.8-0.1l30.8,0.1l15.4,0.1l15.4,0.1C240.2,95.8,240.2,95.8,240.2,95.9C240.2,95.9,240.2,95.9,240.2,95.9z"/>
		<path class="st6" d="M222.3,70.1c-3.7,0.1-7.3,0.1-11,0.1l-11,0.1c-3.7,0-7.3,0-11,0l-11,0l-21.9-0.1l-11-0.1
			c-3.7,0-7.3-0.1-11-0.1c0,0,0,0,0,0c0,0,0,0,0,0c3.7-0.1,7.3-0.1,11-0.1l11-0.1l21.9-0.1l11,0c3.7,0,7.3,0,11,0l11,0.1
			c3.7,0,7.3,0.1,11,0.1C222.3,70,222.3,70,222.3,70.1C222.3,70.1,222.3,70.1,222.3,70.1z"/>
		<path class="st6" d="M245.5,121.8l-16.8,0.1L212,122l-33.5,0.1l-33.5-0.1l-16.8-0.1l-16.8-0.1c0,0,0,0,0,0c0,0,0,0,0,0l16.8-0.1
			l16.8-0.1l33.5-0.1l33.5,0.1l16.8,0.1l16.8,0.1C245.6,121.6,245.6,121.7,245.5,121.8C245.6,121.7,245.6,121.8,245.5,121.8z"/>
		<path class="st6" d="M240.2,147.6l-15.4,0.1l-15.4,0.1l-30.8,0.1l-30.8-0.1l-15.4-0.1l-15.4-0.1c0,0,0,0,0,0c0,0,0,0,0,0l15.4-0.1
			l15.4-0.1l30.8-0.1l30.8,0.1l15.4,0.1l15.4,0.1C240.2,147.5,240.2,147.5,240.2,147.6C240.2,147.6,240.2,147.6,240.2,147.6z"/>
		<path class="st6" d="M220.1,173.6h-87.6c-0.1,0-0.2-0.1-0.2-0.2s0.1-0.2,0.2-0.2h87.6c0.1,0,0.2,0.1,0.2,0.2
			S220.2,173.6,220.1,173.6z"/>
	</g>
</g>
<g>
	<g>
		<g>
			<circle class="st6" cx="266.9" cy="130.9" r="31"/>
			
				<linearGradient id="SVGID_2_" gradientUnits="userSpaceOnUse" x1="247.0339" y1="149.0051" x2="316.4838" y2="23.0992" gradientTransform="matrix(1 0 0 -1 0 243.8898)">
				<stop  offset="0" style="stop-color:#FF9085"/>
				<stop  offset="1" style="stop-color:#FB6FBB"/>
			</linearGradient>
			<circle class="st7" cx="266.9" cy="130.9" r="27.5"/>
		</g>
	</g>
</g>
<g>
	<g>
		<g>
			<circle class="st6" cx="157.6" cy="51.8" r="31.5"/>
			
				<linearGradient id="SVGID_3_" gradientUnits="userSpaceOnUse" x1="137.4436" y1="228.6314" x2="207.9826" y2="100.7511" gradientTransform="matrix(1 0 0 -1 0 243.8898)">
				<stop  offset="0" style="stop-color:#FFC444"/>
				<stop  offset="0.9964" style="stop-color:#F36F56"/>
			</linearGradient>
			<circle class="st8" cx="157.6" cy="51.8" r="28"/>
		</g>
	</g>
</g>
<g>
	<g>
		<g>
			<g>
				<g>
					<g>
						<defs>
							<path id="SVGID_4_" d="M191.3,181.7c2.1-3.1,4.7-7.9,5-14c0.4-8-3.5-11.1-6-23.8c-1.6-8.1-2.6-13.7,0.8-17.6
								c2.6-3.1,7.7-4.7,11.3-3.2c3,1.2,5.3,4.7,6.4,7.4c0.9,2.2,0.9,3.8,2.5,4.7c1.6,0.9,2.9-0.1,4.3,0.5c2.9,1.2,2.8,7.6,2.8,8.6
								c-0.2,11.3-8.5,20.8-12.1,24.9C203.1,172.6,198.3,177.3,191.3,181.7z"/>
						</defs>
						<linearGradient id="SVGID_5_" gradientUnits="userSpaceOnUse" x1="188.8184" y1="152.1375" x2="218.2938" y2="152.1375">
							<stop  offset="0" style="stop-color:#FF9085"/>
							<stop  offset="1" style="stop-color:#FB6FBB"/>
						</linearGradient>
						<use xlink:href="#SVGID_4_"  style="overflow:visible;fill:url(#SVGID_5_);"/>
						<clipPath id="SVGID_6_">
							<use xlink:href="#SVGID_4_"  style="overflow:visible;"/>
						</clipPath>
						<g class="st9">
							<g>
								<path class="st6" d="M188.7,184.4c7.5-4.9,16.4-12.9,16.6-22.9c0.1-3.7-1.1-7.4-2.6-12.1c-1.2-3.9-2.4-6.5-3.5-8.9
									c-1.4-3-2.5-5.4-2.9-9.1c-0.4-3.8-0.1-7.7,1.2-11.6l-0.3-0.1c-1.2,4-1.6,8-1.2,11.8c0.4,3.7,1.5,6.1,2.9,9.2
									c1.1,2.3,2.3,5,3.5,8.8c1.5,4.8,2.6,8.3,2.5,12c-0.2,9.9-9,17.7-16.4,22.6L188.7,184.4z"/>
							</g>
							<g>
								<path class="st6" d="M201.8,146.8l0-0.2c0.5-7.6,3.3-12.9,5.6-16.1c2.5-3.4,4.8-5,4.8-5l-0.2-0.3c0,0-2.4,1.6-4.9,5.1
									c-2.3,3.1-5.1,8.5-5.7,16c-0.7-0.2-3.2-0.8-5.9-2.6c-2.9-1.9-6.8-5.6-8.4-12l-0.3,0.1c1.6,6.5,5.5,10.3,8.5,12.2
									c3.2,2.1,6.1,2.7,6.2,2.7L201.8,146.8z"/>
							</g>
							<g>
								<path class="st6" d="M204.7,157.4l0.1-0.1c3.3-1.8,6.3-6.7,9.1-14.6c2.1-5.8,3.2-11.2,3.2-11.3l-0.3-0.1
									c0,0.2-4.5,21.2-12,25.5c-0.6-0.5-3.8-3.4-7.5-5.7c-4.1-2.6-12-2-12.3-1.9l0,0.3c0.1,0,8.1-0.6,12.1,1.9
									C201.2,154.1,204.6,157.3,204.7,157.4L204.7,157.4z"/>
							</g>
							<g>
								<path class="st6" d="M200.1,174.3l0.3-0.1c0,0,3.9-1.4,8.6-4.3c4.4-2.7,10.4-7.3,14.5-14.1l7.8-13l-0.3-0.2l-7.8,13
									c-7.1,11.7-20.3,17.3-22.5,18.1c1.1-4-0.1-7.9-3.6-11.1c-2.7-2.5-5.8-3.8-5.9-3.8l-0.1,0.3c0,0,3.1,1.3,5.8,3.7
									c3.5,3.3,4.7,7,3.4,11.1L200.1,174.3z"/>
							</g>
						</g>
					</g>
				</g>
			</g>
			<g>
				<g>
					<g>
						<defs>
							<path id="SVGID_7_" d="M186.2,193c3.4-2.1,8-5.6,11-11.4c3.9-7.6,1.4-12.3,4.6-25.8c2-8.5,3.5-14.5,8.4-16.8
								c3.9-1.8,9.5-1.2,12.4,1.8c2.4,2.5,3.1,6.9,3,10c-0.1,2.5-0.8,4.1,0.4,5.7c1.1,1.6,2.8,1.2,3.9,2.4c2.3,2.5-0.6,8.6-1,9.6
								c-5.1,11-17.4,16.6-22.7,18.9C201.7,189.4,195,191.8,186.2,193z"/>
						</defs>
						<linearGradient id="SVGID_8_" gradientUnits="userSpaceOnUse" x1="207.391" y1="178.9071" x2="145.3528" y2="323.3291">
							<stop  offset="3.597120e-03" style="stop-color:#E38DDD"/>
							<stop  offset="1" style="stop-color:#9571F6"/>
						</linearGradient>
						<use xlink:href="#SVGID_7_"  style="overflow:visible;fill:url(#SVGID_8_);"/>
						<clipPath id="SVGID_9_">
							<use xlink:href="#SVGID_7_"  style="overflow:visible;"/>
						</clipPath>
						<g class="st10">
							<g>
								<path class="st6" d="M182.6,194.6c9.4-1.5,21.6-5.4,26.2-15c1.7-3.5,2.2-7.7,2.8-12.9c0.5-4.3,0.5-7.4,0.5-10.2
									c0-3.5-0.1-6.3,1.1-10.1c1.2-3.8,3.3-7.5,6.2-10.8l-0.3-0.2c-3,3.4-5.1,7.1-6.3,11c-1.2,3.8-1.2,6.7-1.2,10.2
									c0,2.7,0,5.8-0.5,10.1c-0.6,5.4-1.1,9.3-2.8,12.8c-4.5,9.5-16.6,13.3-25.9,14.8L182.6,194.6z"/>
							</g>
							<g>
								<path class="st6" d="M211.7,163.7l0.1-0.2c3.8-7.2,8.9-11.1,12.5-13.2c3.9-2.2,6.9-2.7,6.9-2.8l-0.1-0.4c0,0-3.1,0.5-7,2.8
									c-3.6,2.1-8.7,6-12.5,13.1c-0.6-0.5-2.7-2.2-4.6-5.1c-2-3.2-4.1-8.4-2.9-15.3l-0.4-0.1c-1.3,7.1,0.9,12.4,3,15.6
									c2.2,3.5,4.8,5.3,4.8,5.3L211.7,163.7z"/>
							</g>
							<g>
								<path class="st6" d="M209.9,175.3l0.1,0c4-0.3,9.1-3.8,15.2-10.2c4.6-4.8,8-9.5,8-9.6l-0.3-0.2
									c-0.1,0.2-13.6,18.7-22.9,19.6c-0.3-0.8-2.2-5-4.8-8.8c-2.9-4.3-10.8-7.2-11.2-7.3l-0.1,0.3c0.1,0,8.2,2.9,11,7.1
									c2.9,4.2,4.8,8.9,4.8,8.9L209.9,175.3z"/>
							</g>
							<g>
								<path class="st6" d="M198,189.7l0.4,0c0,0,4.3,0.3,10.2-0.4c5.4-0.7,13.3-2.6,20.2-7.4l13.3-9.2l-0.2-0.3l-13.3,9.2
									c-12,8.3-27.3,7.9-29.9,7.8c2.9-3.4,3.3-7.7,1.3-12.4c-1.5-3.6-4-6.2-4-6.2l-0.3,0.3c0,0,2.5,2.6,4,6.1
									c2,4.7,1.5,8.8-1.5,12.3L198,189.7z"/>
							</g>
						</g>
					</g>
				</g>
			</g>
		</g>
		<g>
			<path class="st11" d="M220.3,181.5h-94.5l9.5-10.9h4.6c0.7,0,14.1-26.2,15.4-29.2v0c0.1-0.2,0.2-0.4,0.2-0.4h6.7l8.6-18.5l8.4-9
				l0,0l17.6,12l2.3,23.7l13.2,4.6L220.3,181.5z"/>
			<linearGradient id="SVGID_10_" gradientUnits="userSpaceOnUse" x1="179.2941" y1="147.5758" x2="220.332" y2="147.5758">
				<stop  offset="0" style="stop-color:#FFFFFF"/>
				<stop  offset="0.9964" style="stop-color:#EBEFF2"/>
			</linearGradient>
			<polygon class="st12" points="220.3,181.5 198.6,181.5 196.8,163 181.2,150.4 183.1,131 179.3,113.6 196.9,125.6 199.2,149.3 
				212.4,153.9 			"/>
			<linearGradient id="SVGID_11_" gradientUnits="userSpaceOnUse" x1="162.4548" y1="166.0913" x2="180.999" y2="166.0913">
				<stop  offset="0" style="stop-color:#FFFFFF"/>
				<stop  offset="0.9964" style="stop-color:#EBEFF2"/>
			</linearGradient>
			<polygon class="st13" points="162.5,150.6 175.1,160.6 181,175.5 181,181.5 171.8,181.5 171.8,172.7 164.5,162.1 			"/>
			<linearGradient id="SVGID_12_" gradientUnits="userSpaceOnUse" x1="234.9146" y1="103.389" x2="174.1074" y2="154.4485">
				<stop  offset="0" style="stop-color:#FFFFFF"/>
				<stop  offset="0.9964" style="stop-color:#EBEFF2"/>
			</linearGradient>
			<polygon class="st14" points="183.1,131 196.9,125.6 199.2,149.3 181.2,150.4 			"/>
			<linearGradient id="SVGID_13_" gradientUnits="userSpaceOnUse" x1="258.1022" y1="131.0031" x2="197.295" y2="182.0626">
				<stop  offset="0" style="stop-color:#FFFFFF"/>
				<stop  offset="0.9964" style="stop-color:#EBEFF2"/>
			</linearGradient>
			<path class="st15" d="M196.8,163c0.9,0,15.6-9,15.6-9l7.9,28.2l-21.8-1.2L196.8,163z"/>
			<path class="st16" d="M159.2,181.5h-33.3l9.5-10.9h4.6c0.7,0,13.9-26.2,15.4-29.2l-3.2,18.4l2.2,0.9L159.2,181.5z"/>
		</g>
		<path class="st6" d="M121.8,175.7c0,0-1.5-4.4,7-3.4s13.5,5.4,20.3,2.8c6.8-2.6,18.8-3,30.5,0.3s17-3.9,20.5-4.4
			c3.5-0.5,5.8,1.1,12.3,1.9c6.5,0.8,19.8-2.3,16.3,4C225.3,183.3,127,182.8,121.8,175.7z"/>
		<g>
			<g>
				<linearGradient id="SVGID_14_" gradientUnits="userSpaceOnUse" x1="140.4569" y1="163.7198" x2="143.0551" y2="118.0644">
					<stop  offset="0" style="stop-color:#FFC444"/>
					<stop  offset="0.9964" style="stop-color:#F36F56"/>
				</linearGradient>
				<polygon class="st17" points="142.5,117.2 143.9,114.4 144.8,117.4 146.8,115 147.1,118.1 149.6,116.2 149.1,119.3 152,118 
					150.9,120.9 153.9,120.2 152.3,122.8 155.4,122.7 153.3,125 156.3,125.6 153.8,127.3 156.7,128.5 153.8,129.7 156.3,131.5 
					153.3,132 155.4,134.3 152.3,134.2 153.9,136.9 150.9,136.1 152,139.1 149.1,137.7 149.6,140.8 147.1,138.9 146.8,142 
					144.8,139.6 143.9,142.6 142.5,139.9 141,142.6 140.1,139.6 138.1,142 137.8,138.9 135.4,140.8 135.8,137.7 133,139.1 
					134,136.1 131,136.9 132.6,134.2 129.5,134.3 131.7,132 128.6,131.5 131.2,129.7 128.3,128.5 131.2,127.3 128.6,125.6 
					131.7,125 129.5,122.7 132.6,122.8 131,120.2 134,120.9 133,118 135.8,119.3 135.4,116.2 137.8,118.1 138.1,115 140.1,117.4 
					141,114.4 				"/>
				
					<linearGradient id="SVGID_15_" gradientUnits="userSpaceOnUse" x1="161.0334" y1="156.3214" x2="163.4346" y2="114.1289" gradientTransform="matrix(1 5.600000e-03 -5.600000e-03 1 -19.7313 3.8163)">
					<stop  offset="0" style="stop-color:#FFC444"/>
					<stop  offset="0.9964" style="stop-color:#F36F56"/>
				</linearGradient>
				<polygon class="st18" points="152.7,130.7 155.5,129.9 153,128.5 155.5,127.1 152.7,126.3 154.9,124.4 152,124.2 153.8,121.9 
					150.9,122.3 152.2,119.7 149.5,120.7 150.2,117.9 147.7,119.4 147.8,116.5 145.7,118.5 145.2,115.7 143.5,118.1 142.4,115.4 
					141.3,118.1 139.7,115.7 139.2,118.5 137.1,116.5 137.2,119.4 134.7,117.9 135.4,120.7 132.7,119.8 133.9,122.4 131.1,122 
					132.9,124.3 130,124.5 132.2,126.4 129.4,127.2 132,128.5 129.4,129.9 132.2,130.7 130,132.6 132.9,132.8 131.1,135.1 
					134,134.7 132.7,137.3 135.4,136.3 134.8,139.2 137.2,137.6 137.1,140.5 139.2,138.5 139.8,141.4 141.4,139 142.5,141.7 
					143.6,139 145.2,141.4 145.7,138.5 147.8,140.5 147.7,137.6 150.2,139.1 149.5,136.3 152.2,137.3 151,134.7 153.8,135.1 
					152.1,132.8 155,132.5 				"/>
			</g>
			<g>
				<linearGradient id="SVGID_16_" gradientUnits="userSpaceOnUse" x1="150.0222" y1="109.9566" x2="133.6888" y2="150.0479">
					<stop  offset="0" style="stop-color:#FCB148"/>
					<stop  offset="5.207239e-02" style="stop-color:#FDBA46"/>
					<stop  offset="0.1424" style="stop-color:#FFC244"/>
					<stop  offset="0.3183" style="stop-color:#FFC444"/>
					<stop  offset="0.4849" style="stop-color:#FDB946"/>
					<stop  offset="0.7754" style="stop-color:#F99C4D"/>
					<stop  offset="0.8658" style="stop-color:#F8924F"/>
					<stop  offset="1" style="stop-color:#F8924F"/>
				</linearGradient>
				<path class="st19" d="M153.8,128.5c0,5.8-4.4,10.6-10,11.2c-0.4,0.1-0.9,0.1-1.4,0.1c-6.3,0-11.3-5.1-11.3-11.3
					c0-2.8,1.1-5.4,2.8-7.4c2.1-2.4,5.1-3.9,8.5-3.9C148.7,117.2,153.8,122.3,153.8,128.5z"/>
				<linearGradient id="SVGID_17_" gradientUnits="userSpaceOnUse" x1="131.1398" y1="130.4592" x2="147.963" y2="130.4592">
					<stop  offset="0" style="stop-color:#FCB148"/>
					<stop  offset="5.207239e-02" style="stop-color:#FDBA46"/>
					<stop  offset="0.1424" style="stop-color:#FFC244"/>
					<stop  offset="0.3183" style="stop-color:#FFC444"/>
					<stop  offset="0.4849" style="stop-color:#FDB946"/>
					<stop  offset="0.7754" style="stop-color:#F99C4D"/>
					<stop  offset="0.8658" style="stop-color:#F8924F"/>
					<stop  offset="1" style="stop-color:#F8924F"/>
				</linearGradient>
				<path class="st20" d="M147.7,135.2c-0.6,1.6-1.9,3.2-3.8,4.6c-0.4,0.1-0.9,0.1-1.4,0.1c-6.3,0-11.3-5.1-11.3-11.3
					c0-2.8,1.1-5.4,2.8-7.4c0.1,0.8,0.5,1.7,1.5,2.7c1,1,2.7,2,5.3,2.9C147,128.9,148.8,132.1,147.7,135.2z"/>
				<circle class="st21" cx="142.5" cy="128.5" r="8.5"/>
			</g>
		</g>
		<linearGradient id="SVGID_18_" gradientUnits="userSpaceOnUse" x1="119.5647" y1="198.2199" x2="231.5131" y2="198.2199">
			<stop  offset="0" style="stop-color:#AA80F9"/>
			<stop  offset="0.9964" style="stop-color:#6165D7"/>
		</linearGradient>
		<path class="st22" d="M219.4,176.7c-11.4-0.7-13.6-3.9-21.2-1c-7.6,2.9-12.5,4.4-23.2,1.4c-10.7-3-16.4-2.9-22.1,0
			c-5.7,2.9-13.6-0.4-21.7-1.9c-4.8-0.9-7.7-0.2-9.3,0.5c1.7,4.4,4.2,8.5,7.5,12.2c0.2,0.2,0.4,0.5,0.7,0.7c1.7,1.8,3.5,3.4,5.5,5
			c1.9,1.5,3.5,3.4,4.5,5.6c1.3,2.7,2.6,6.2,2.4,9.5c-0.3,6.5,4.8,7.4,4.9,0c0.1-7.4,3.5-5.8,3.9-4.3c0.6,2.1,1.4,4.2,2.4,6.2
			c1,2.2,2.5,6,5.2,6.5c2,0.4,3.9-1.8,5.4-2.6c2.9-1.5,3.6,2,4.9,3.8c1.7,2.3,4,4.1,7,3.5c2.3-0.5,4-2.7,5.2-4.6
			c7.3-11.2,11.4-7.5,13.6-5.3c2.2,2.1,5-4,6.9-6.9c1.8-2.9,4.3-2.9,5.6-1.8c1.4,1.1-0.6,9,2.2,8.2c2.8-0.8,2.1-8.8,3.5-12.1
			c0.8-2,1.8-4,3.1-5.7c1.4-1.9,3.2-3.2,4.8-4.8c0.7-0.7,1.3-1.4,1.9-2.2c2.7-3.3,4.8-6.8,6.3-10.6
			C227.3,176.3,224.4,177,219.4,176.7z"/>
		<linearGradient id="SVGID_19_" gradientUnits="userSpaceOnUse" x1="201.6887" y1="214.893" x2="205.688" y2="214.893">
			<stop  offset="0" style="stop-color:#AA80F9"/>
			<stop  offset="0.9964" style="stop-color:#6165D7"/>
		</linearGradient>
		<path class="st23" d="M203.2,219.7c-3.6-0.9,0.6-9.7,0.6-9.7C206.1,213.2,206.8,220.6,203.2,219.7z"/>
		<linearGradient id="SVGID_20_" gradientUnits="userSpaceOnUse" x1="201.6887" y1="214.893" x2="205.688" y2="214.893">
			<stop  offset="0" style="stop-color:#AA80F9"/>
			<stop  offset="0.9964" style="stop-color:#6165D7"/>
		</linearGradient>
		<path class="st24" d="M203.8,210c2.3,3.2,3,10.6-0.6,9.7S203.8,210,203.8,210z"/>
		<linearGradient id="SVGID_21_" gradientUnits="userSpaceOnUse" x1="130.0173" y1="204.2077" x2="222.9232" y2="204.2077">
			<stop  offset="0" style="stop-color:#AA80F9"/>
			<stop  offset="0.9964" style="stop-color:#6165D7"/>
		</linearGradient>
		<path class="st25" d="M222.9,186.5c-0.6,0.7-1.3,1.5-1.9,2.2c-1.4,1.5-3.1,3-4.4,4.6c-1.5,1.8-2.5,3.8-3.4,6
			c-1.4,3.3-0.7,11.3-3.5,12.1c-2.8,0.8-0.8-7.2-2.2-8.2c-1.4-1.1-3.8-1.1-5.6,1.8c-1.8,2.9-4.7,9-6.9,6.9
			c-2.2-2.1-6.3-5.9-13.6,5.3c-1.2,1.9-2.9,4.1-5.2,4.6c-2.9,0.7-5.3-1.2-7-3.5c-1.3-1.8-2-5.4-4.9-3.8c-1.5,0.8-3.5,3-5.4,2.6
			c-2.7-0.5-4.2-4.3-5.2-6.5c-0.9-2-1.8-4.1-2.4-6.2c-0.4-1.5-3.7-3.1-3.9,4.3c-0.1,7.4-5.2,6.5-4.9,0c0.2-5.5-3.5-11.7-4.6-13.4
			c-2.9-2-5.5-4.3-7.8-6.7c0.7,0.1,1.4,0.4,2.2,1.1c0,0,8.9,3.9,10.1,9.7c1.2,5.8,3.4-0.2,5.5-3c2.1-2.8,4.3-0.6,6.6,4.3
			c2.3,4.8,4.9,9.2,10.1,3.9c5.2-5.3,8.6,8.1,13.5,3.7c4.9-4.5,6.7-10.8,17-10c10.3,0.7,10.5,0.5,13.2-3.4c2.7-4,9.4-5.1,13.4-7.9
			C222.1,186.5,222.6,186.4,222.9,186.5z"/>
		<g>
			<path class="st6" d="M186.2,182.7c-2,0-4-0.3-5.7-0.6c-0.1,0-0.1-0.1-0.1-0.1c0-0.1,0.1-0.1,0.1-0.1c4.6,0.9,11,1.3,15.6-2.6
				c0,0,0.1,0,0.2,0c0,0,0,0.1,0,0.2C193.4,182,189.7,182.7,186.2,182.7z"/>
		</g>
		<g>
			<path class="st6" d="M150.3,181.8c-0.1,0-0.1,0-0.1-0.1c0-0.1,0-0.1,0.1-0.1c1.8-0.3,3.4-0.9,4.7-1.7c4.7-3,11.4-3.1,18.3-0.2
				c1.1,0.4,2.2,0.9,3.3,1.2c0.1,0,0.1,0.1,0.1,0.1c0,0.1-0.1,0.1-0.1,0.1c-1.1-0.4-2.2-0.8-3.3-1.2c-6.8-2.8-13.5-2.8-18.1,0.2
				C153.7,180.9,152.1,181.5,150.3,181.8C150.3,181.8,150.3,181.8,150.3,181.8z"/>
		</g>
		<g>
			<path class="st6" d="M144.7,181.9C144.7,181.9,144.7,181.9,144.7,181.9c-2.6-0.3-5-1.1-6.7-2.2c-4.2-2.7-9.3-1.8-9.3-1.8
				c-0.1,0-0.1,0-0.1-0.1c0-0.1,0-0.1,0.1-0.1c0.1,0,5.2-0.8,9.5,1.9c1.7,1.1,4.1,1.9,6.6,2.2c0.1,0,0.1,0.1,0.1,0.1
				C144.8,181.8,144.7,181.9,144.7,181.9z"/>
		</g>
		<g>
			<path class="st6" d="M154.4,183.8C154.3,183.8,154.3,183.7,154.4,183.8c-0.1-0.1-0.1-0.2-0.1-0.2c0,0,2-1.3,4.8-2.1
				c2.6-0.7,6.3-1.1,9.7,1.1c0.1,0,0.1,0.1,0,0.2c0,0.1-0.1,0.1-0.2,0C162.4,178.5,154.5,183.7,154.4,183.8
				C154.4,183.8,154.4,183.8,154.4,183.8z"/>
		</g>
	</g>
</g>
<g>
	<g>
		<g>
			<g>
				<circle class="st6" cx="91.7" cy="141.2" r="33.3"/>
				
					<linearGradient id="SVGID_22_" gradientUnits="userSpaceOnUse" x1="70.3506" y1="141.3942" x2="145.0124" y2="6.0397" gradientTransform="matrix(1 0 0 -1 0 243.8898)">
					<stop  offset="3.597120e-03" style="stop-color:#E38DDD"/>
					<stop  offset="1" style="stop-color:#9571F6"/>
				</linearGradient>
				<circle class="st26" cx="91.7" cy="141.2" r="29.6"/>
			</g>
		</g>
	</g>
</g>
<g>
	<path class="st27" d="M141,54c-1.9,0-3.5-1.6-3.5-3.5c0-1.9,1.6-3.5,3.5-3.5c-0.1-0.3-0.1-0.6-0.1-1c0-1.9,1.6-3.5,3.5-3.5
		c0.4,0,0.7,0.1,1,0.2c-1.3,0.8-2.1,2.3-2.1,3.9c0,2.6,2.1,4.6,4.6,4.6h21.8c-0.3,1.6-1.7,2.8-3.4,2.8C157.5,54,152.5,54,141,54
		L141,54z M147.9,50c-1.9,0-3.5-1.6-3.5-3.5c0-1.9,1.6-3.5,3.5-3.5c-0.1-0.3-0.1-0.6-0.1-1c0-1.9,1.6-3.5,3.5-3.5
		c0.9,0,1.8,0.4,2.4,0.9c0.3-1.7,1.7-3,3.5-3c1.9,0,3.4,1.5,3.5,3.4c0.6-0.8,1.6-1.3,2.7-1.3c1.9,0,3.5,1.6,3.5,3.5
		c0,0.1,0,0.2,0,0.3c0.2,0,0.4,0,0.5,0c1.3,0,2.5,0.8,3.1,1.9c0.6-0.7,1.6-1.2,2.7-1.2c1.9,0,3.5,1.6,3.5,3.5s-1.6,3.5-3.5,3.5
		C164.4,50,159.4,50,147.9,50L147.9,50z M158.5,54.9c0,0,1.5,3.4,1.5,4.3s-0.7,1.5-1.5,1.5c-0.8,0-1.5-0.7-1.5-1.5
		C157.1,58.3,158.5,54.9,158.5,54.9z M154.5,58.5c0,0,1.5,3.4,1.5,4.3c0,0.8-0.7,1.5-1.5,1.5c-0.8,0-1.5-0.7-1.5-1.5
		C153,62,154.5,58.5,154.5,58.5z M148.4,55.1c0,0,1.5,3.4,1.5,4.3c0,0.8-0.7,1.5-1.5,1.5c-0.8,0-1.5-0.7-1.5-1.5
		C146.9,58.6,148.4,55.1,148.4,55.1L148.4,55.1z"/>
</g>
<g>
	<polygon class="st6" points="99.5,151.6 99.3,151.7 100.3,152.7 103.1,149.9 102.2,148.9 	"/>
	<path class="st6" d="M99.8,145c-0.7,0-1,0-1.7,0l-2.7,2.7c0,0.7,0,1,0,1.7L96,150l4.4-4.4L99.8,145z"/>
	<path class="st6" d="M102.1,145.8L102.1,145.8l-5.8,5.8l0,0c0.1,0.5,0.6,0.6,1,0.3l1.3-1.4l3.8-3.8
		C102.7,146.5,102.5,145.9,102.1,145.8z"/>
	
		<rect x="98.9" y="129.1" transform="matrix(0.7071 -0.7071 0.7071 0.7071 -62.9066 109.2102)" class="st6" width="2.9" height="2.9"/>
	<rect x="96" y="132" transform="matrix(0.7071 -0.7071 0.7071 0.7071 -65.8837 107.9771)" class="st6" width="2.9" height="2.9"/>
	
		<rect x="101.9" y="132.1" transform="matrix(0.7071 -0.7071 0.7071 0.7071 -64.1534 112.2171)" class="st6" width="2.9" height="2.9"/>
	
		<rect x="99" y="135.1" transform="matrix(0.7071 -0.7071 0.7071 0.7071 -67.1299 110.9803)" class="st6" width="2.9" height="2.9"/>
	<path class="st6" d="M95.2,141.9l1.3-1.3l0.9,0.9l2-2l-2.1-2.1l-2,2l0.4,0.4l-1.3,1.3l-1.8-1.8l1.3-1.3l0.4,0.4l2-2l-2.1-2.1l-2,2
		l0.9,0.9l-1.3,1.3l-1.7-1.7c-0.3,0.4-0.6,0.8-0.9,1.2c-0.6,0.6-1.2,1.2-1.9,1.7l1.6,1.6l-1.2,1.2l-0.8-0.8l-2,2L87,146l2-2
		l-0.3-0.3l1.2-1.2l1.6,1.6l-1.2,1.2l-0.3-0.3l-2,2L90,149l2-2l-0.8-0.8l1.2-1.2l1.9,1.9l2.9-2.9L95.2,141.9z"/>
	
		<rect x="85.6" y="148.5" transform="matrix(0.7071 -0.7071 0.7071 0.7071 -80.5385 105.4247)" class="st6" width="2.9" height="2.9"/>
	
		<rect x="82.5" y="145.5" transform="matrix(0.7071 -0.7071 0.7071 0.7071 -79.2908 102.4125)" class="st6" width="2.9" height="2.9"/>
	
		<rect x="79.6" y="148.4" transform="matrix(0.7071 -0.7071 0.7071 0.7071 -82.2674 101.1885)" class="st6" width="2.9" height="2.9"/>
	
		<rect x="82.6" y="151.4" transform="matrix(0.7066 -0.7076 0.7076 0.7066 -83.5508 104.3188)" class="st6" width="2.9" height="2.9"/>
	<path class="st6" d="M80.5,140.7c6.2,0,11.2-5.3,10.6-11.6c-0.1-0.6-0.5-1-1.1-1c-0.3,0-0.6,0.1-0.8,0.3l-4.6,4.6l-0.4-0.4
		c0.9-2.1-1.8-4-3.5-2.3c-1.7,1.8,0.4,4.5,2.4,3.5l0.4,0.4l-4.6,4.6c-0.3,0.3-0.4,0.8-0.3,1.2c0.2,0.4,0.5,0.7,1,0.7
		C79.8,140.7,80.2,140.7,80.5,140.7z"/>
	<path class="st6" d="M79.3,131.8c0-0.8,0.3-1.5,0.9-2.1c1.4-1.4,2.7-0.4,2.7-1.5c0-0.4-0.3-0.7-0.7-0.7c-1.1,0-2.2,0.4-3,1.2
		c-0.8,0.8-1.2,1.9-1.2,3c0,0.4,0.3,0.7,0.7,0.7C79,132.5,79.3,132.2,79.3,131.8z"/>
	<path class="st6" d="M80.1,126.8c0.7-0.3,1.4-0.4,2.1-0.4c0.4,0,0.7-0.3,0.7-0.7c0-0.4-0.3-0.7-0.7-0.7c-1.8,0-3.5,0.7-4.8,2
		c-1.3,1.3-2,3-2,4.8c0,0.4,0.3,0.7,0.7,0.7c0.4,0,0.7-0.3,0.7-0.7c0-1.5,0.6-2.8,1.6-3.9C78.9,127.4,79.5,127,80.1,126.8z"/>
</g>
<path class="st6" d="M278.4,127c0-4.2-2-8.1-5.4-10.7c0.7-0.6,0.7-1.6,0.1-2.3s-1.6-0.7-2.3-0.1c-0.7,0.6-0.7,1.6-0.1,2.3
	c0.2,0.3,0.6,0.4,0.9,0.5c5.7,3.6,7.3,11.1,3.7,16.8c-3.4,5.3-10.3,7.2-15.9,4.3c-0.6-0.7-1.6-0.8-2.3-0.2s-0.8,1.6-0.2,2.3
	s1.6,0.8,2.3,0.2c0.3-0.2,0.5-0.6,0.5-0.9c1.4,0.6,3,1,4.5,1.1v0.7c0,1.8-1.5,3.3-3.3,3.3c0,0,0,0,0,0h-2.2c-0.8,0-1.4,0.6-1.4,1.4
	v0.6h15.3v-0.6c0-0.8-0.6-1.4-1.4-1.4h-2.2c-1.8,0-3.3-1.5-3.3-3.3c0,0,0,0,0,0v-0.7C272.8,139.8,278.3,134,278.4,127z"/>
<path class="st6" d="M268.5,122.1c1,0.5,1.9,1,2.9,1.4c0.4-2.3,0.2-4.2-0.8-5.2L268.5,122.1z"/>
<path class="st6" d="M264.9,119.8c0.9,0.7,1.8,1.3,2.7,1.8l2.2-3.8C268.5,117.5,266.7,118.2,264.9,119.8z"/>
<path class="st6" d="M259,129.4c1.1,0.5,2.2,1,3.2,1.6l2.2-3.7l-3.7-2.1C260,126.4,259.4,127.9,259,129.4z"/>
<path class="st6" d="M261.2,124.2l3.7,2.1l2.2-3.7c-1-0.6-2-1.3-3-2C263,121.6,262,122.8,261.2,124.2z"/>
<path class="st6" d="M273.7,132.6l-3.9-2.2c-0.8,1.4-1.8,2.6-2.9,3.8c0.8,0.7,1.5,1.5,2.1,2.4C270.9,135.7,272.6,134.3,273.7,132.6z
	"/>
<path class="st6" d="M271.2,124.6c-1.1-0.5-2.2-1-3.2-1.6l-2.2,3.7l3.7,2.1C270.2,127.5,270.8,126.1,271.2,124.6z"/>
<path class="st6" d="M254.9,128.3c1.1,0,2.1,0.3,3.1,0.6c0.4-1.5,1.1-3,1.8-4.4l-3.9-2.2C255,124.2,254.6,126.3,254.9,128.3z"/>
<path class="st6" d="M260.3,123.6c0.8-1.4,1.8-2.6,2.9-3.8c-0.8-0.7-1.5-1.5-2.1-2.4c-1.9,0.8-3.6,2.2-4.7,3.9L260.3,123.6z"/>
<path class="st6" d="M257.7,130c-0.9-0.3-1.8-0.5-2.7-0.6c0.4,1.8,1.3,3.4,2.6,4.8C257.4,132.8,257.4,131.4,257.7,130z"/>
<path class="st6" d="M259.5,135.6l2.2-3.8c-1-0.5-1.9-1-2.9-1.4C258.3,132.7,258.5,134.6,259.5,135.6z"/>
<path class="st6" d="M262.2,117.1c0.5,0.7,1.2,1.4,1.9,2c1-1,2.2-1.7,3.6-2.2C265.8,116.5,263.9,116.6,262.2,117.1z"/>
<path class="st6" d="M268,136.8c-0.5-0.7-1.2-1.4-1.9-2c-1,1-2.2,1.7-3.6,2.2C264.4,137.4,266.2,137.4,268,136.8z"/>
<path class="st6" d="M275.1,124.6c-0.4-1.8-1.3-3.4-2.6-4.8c0.3,1.4,0.2,2.8-0.1,4.1C273.3,124.3,274.2,124.5,275.1,124.6z"/>
<path class="st6" d="M270.4,129.4l3.9,2.2c1-1.9,1.3-4,1.1-6c-1.1,0-2.1-0.3-3.1-0.6C271.8,126.5,271.1,128,270.4,129.4z"/>
<path class="st6" d="M265.3,134.2c-0.9-0.7-1.8-1.3-2.7-1.8l-2.2,3.8C261.7,136.5,263.5,135.7,265.3,134.2z"/>
<path class="st6" d="M263.1,131.4c1,0.6,2,1.3,3,2c1.1-1.1,2-2.3,2.9-3.6l-3.7-2.1L263.1,131.4z"/>
</svg>
