<?xml version="1.0" encoding="utf-8"?>
<!-- Generator: Adobe Illustrator 24.2.0, SVG Export Plug-In . SVG Version: 6.00 Build 0)  -->
<svg version="1.1" id="Isolation_Mode" xmlns="http://www.w3.org/2000/svg" xmlns:xlink="http://www.w3.org/1999/xlink" x="0px"
	 y="0px" viewBox="0 0 460.7 323.8" style="enable-background:new 0 0 460.7 323.8;" xml:space="preserve">
<style type="text/css">
	.st0{fill:url(#SVGID_1_);}
	.st1{fill:#91B3FA;}
	.st2{fill:#BDD0FB;}
	.st3{fill:#DCE5FE;}
	.st4{fill:#7D97F4;}
	.st5{fill:url(#SVGID_2_);}
	.st6{opacity:0.45;fill:#FFFFFF;}
	.st7{fill:url(#SVGID_3_);}
	.st8{fill:url(#SVGID_4_);}
	.st9{fill:url(#SVGID_5_);}
	.st10{opacity:0.51;}
	.st11{fill:url(#SVGID_6_);}
	.st12{fill:url(#SVGID_7_);}
	.st13{fill:url(#SVGID_8_);}
	.st14{fill:url(#SVGID_9_);}
	.st15{fill:url(#SVGID_10_);}
	.st16{fill:url(#SVGID_11_);}
	.st17{fill:url(#SVGID_12_);}
	.st18{fill:url(#SVGID_13_);}
	.st19{fill:url(#SVGID_14_);}
	.st20{fill:url(#SVGID_15_);}
	.st21{fill:url(#SVGID_16_);}
	.st22{fill:url(#SVGID_17_);}
	.st23{fill:url(#SVGID_18_);}
	.st24{fill:url(#SVGID_19_);}
	.st25{fill:url(#SVGID_20_);}
	.st26{fill:url(#SVGID_21_);}
	.st27{fill:url(#SVGID_22_);}
	.st28{fill:url(#SVGID_23_);}
	.st29{fill:#FFFFFF;}
	.st30{fill:url(#SVGID_24_);}
	.st31{fill:url(#SVGID_25_);}
	.st32{fill:url(#SVGID_26_);}
	.st33{fill:url(#SVGID_27_);}
	.st34{fill:url(#SVGID_28_);}
	.st35{fill:url(#SVGID_29_);}
	.st36{fill:url(#SVGID_30_);}
	.st37{fill:url(#SVGID_31_);}
	.st38{fill:url(#SVGID_32_);}
	.st39{fill:url(#SVGID_33_);}
	.st40{fill:url(#SVGID_34_);}
	.st41{fill:url(#SVGID_35_);}
	.st42{fill:url(#SVGID_36_);}
	.st43{fill:url(#SVGID_37_);}
	.st44{fill:url(#SVGID_38_);}
	.st45{fill:url(#SVGID_39_);}
	.st46{fill:url(#SVGID_40_);}
	.st47{fill:url(#SVGID_41_);}
	.st48{fill:url(#SVGID_42_);}
	.st49{fill:url(#SVGID_43_);}
	.st50{fill:url(#SVGID_44_);}
	.st51{fill:url(#SVGID_45_);}
	.st52{fill:url(#SVGID_46_);}
	.st53{fill:url(#SVGID_47_);}
	.st54{fill:url(#SVGID_48_);}
	.st55{fill:url(#SVGID_49_);}
	.st56{fill:url(#SVGID_50_);}
	.st57{fill:url(#SVGID_51_);}
	.st58{fill:url(#SVGID_52_);}
	.st59{opacity:0.69;fill:#FFFFFF;}
	.st60{fill:url(#SVGID_53_);}
	.st61{fill:url(#SVGID_54_);}
	.st62{fill:url(#SVGID_55_);}
	.st63{fill:url(#SVGID_56_);}
	.st64{fill:url(#SVGID_57_);}
	.st65{fill:url(#SVGID_58_);}
	.st66{fill:url(#SVGID_59_);}
	.st67{fill:url(#SVGID_60_);}
	.st68{fill:url(#SVGID_61_);}
	.st69{fill:url(#SVGID_62_);}
	.st70{fill:url(#SVGID_63_);}
	.st71{fill:url(#SVGID_64_);}
	.st72{fill:url(#SVGID_65_);}
	.st73{clip-path:url(#SVGID_67_);}
	.st74{fill:url(#SVGID_68_);}
	.st75{fill:url(#SVGID_69_);}
	.st76{fill:url(#SVGID_70_);}
	.st77{fill:url(#SVGID_71_);}
	.st78{fill:url(#SVGID_72_);}
	.st79{fill:url(#SVGID_73_);}
	.st80{fill:url(#SVGID_74_);}
	.st81{fill:url(#SVGID_75_);}
	.st82{fill:url(#SVGID_76_);}
	.st83{fill:url(#SVGID_77_);}
	.st84{fill:url(#SVGID_78_);}
	.st85{fill:url(#SVGID_79_);}
	.st86{fill:url(#SVGID_80_);}
	.st87{fill:url(#SVGID_81_);}
	.st88{fill:url(#SVGID_82_);}
	.st89{fill:url(#SVGID_83_);}
	.st90{fill:url(#SVGID_84_);}
	.st91{fill:url(#SVGID_85_);}
	.st92{fill:url(#SVGID_86_);}
</style>
<g>
	<linearGradient id="SVGID_1_" gradientUnits="userSpaceOnUse" x1="10.4338" y1="171.242" x2="453.3225" y2="171.242">
		<stop  offset="0" style="stop-color:#DAE3FE"/>
		<stop  offset="1" style="stop-color:#E9EFFD"/>
	</linearGradient>
	<path class="st0" d="M123.8,305.4c0,0-39.3-5.1-58-1.1c-18.7,4-64.9-17.5-49.6-51.3s32.7-54.6,12.6-73.1
		c-20-18.4-26.4-53.6-5.7-73.3c20.7-19.7,26.9,0.6,43.4-6.7C83,92.7,62.1,54.8,108.6,44c46.5-10.7,82.7,21.7,103.8,18
		c21.2-3.7,53.7-26.1,76.5-25.1s20,34,50.3,32c30.3-1.9,54.1-5.2,73.7,22.9s14.9,63.7-3.8,77.8s-15.1,33,19.4,34.1
		c34.5,1.1,30.6,40.4,2.5,69.4c-28.1,29-52.3,29.3-80.4,31.2C322.5,306.2,123.8,305.4,123.8,305.4z"/>
	<g>
		<g>
			<g>
				<path class="st1" d="M93.9,139.2c-0.2,0-0.3-0.1-0.4-0.3c-0.1-0.2,0-0.5,0.2-0.5c0.5-0.2,1-0.4,1.5-0.7c0.2-0.1,0.5,0,0.5,0.2
					c0.1,0.2,0,0.5-0.2,0.5c-0.5,0.2-1,0.5-1.5,0.7C94,139.2,94,139.2,93.9,139.2z"/>
				<path class="st1" d="M78.5,142.2c-0.8,0-1.5,0-2.3-0.1c-0.2,0-0.4-0.2-0.4-0.4c0-0.2,0.2-0.4,0.4-0.4c1.1,0.1,2.3,0.1,3.4,0
					c0.2,0,0.4,0.2,0.4,0.4c0,0.2-0.2,0.4-0.4,0.4C79.3,142.2,78.9,142.2,78.5,142.2z M85.2,141.7c-0.2,0-0.4-0.1-0.4-0.3
					c0-0.2,0.1-0.4,0.3-0.5c1.1-0.2,2.2-0.4,3.3-0.7c0.2-0.1,0.4,0.1,0.5,0.3c0.1,0.2-0.1,0.4-0.3,0.5
					C87.6,141.2,86.5,141.5,85.2,141.7C85.3,141.7,85.3,141.7,85.2,141.7z M70.7,141.5C70.7,141.5,70.7,141.5,70.7,141.5
					c-1.2-0.2-2.3-0.5-3.5-0.8c-0.2-0.1-0.3-0.3-0.3-0.5c0.1-0.2,0.3-0.3,0.5-0.3c1.1,0.3,2.2,0.6,3.3,0.8c0.2,0,0.4,0.3,0.3,0.5
					C71.1,141.3,70.9,141.5,70.7,141.5z M62.1,138.7c-0.1,0-0.1,0-0.2,0c-1.1-0.5-2.1-1-3.1-1.6c-0.2-0.1-0.3-0.4-0.2-0.6
					c0.1-0.2,0.4-0.3,0.6-0.2c1,0.5,2,1.1,3,1.5c0.2,0.1,0.3,0.3,0.2,0.5C62.5,138.6,62.3,138.7,62.1,138.7z M54.4,134.1
					c-0.1,0-0.2,0-0.2-0.1c-0.9-0.7-1.8-1.4-2.7-2.2c-0.2-0.2-0.2-0.4,0-0.6c0.2-0.2,0.4-0.2,0.6,0c0.8,0.8,1.7,1.5,2.6,2.2
					c0.2,0.1,0.2,0.4,0.1,0.6C54.6,134.1,54.5,134.1,54.4,134.1z M47.8,128c-0.1,0-0.2,0-0.3-0.1c-0.7-0.9-1.5-1.8-2.1-2.7
					c-0.1-0.2-0.1-0.4,0.1-0.6c0.2-0.1,0.4-0.1,0.6,0.1c0.7,0.9,1.4,1.8,2.1,2.7c0.1,0.2,0.1,0.4,0,0.6C48,127.9,47.9,128,47.8,128z
					 M42.8,120.5c-0.1,0-0.3-0.1-0.4-0.2c-0.5-1-1-2.1-1.5-3.1c-0.1-0.2,0-0.5,0.2-0.5c0.2-0.1,0.5,0,0.5,0.2c0.4,1,0.9,2.1,1.4,3.1
					c0.1,0.2,0,0.5-0.2,0.6C43,120.5,42.9,120.5,42.8,120.5z M39.6,112.1c-0.2,0-0.4-0.1-0.4-0.3c-0.3-1.1-0.5-2.3-0.7-3.4
					c0-0.2,0.1-0.4,0.3-0.5c0.2,0,0.4,0.1,0.5,0.3c0.2,1.1,0.4,2.2,0.7,3.3c0.1,0.2-0.1,0.4-0.3,0.5
					C39.7,112.1,39.7,112.1,39.6,112.1z M38.4,103.2c-0.2,0-0.4-0.2-0.4-0.4c0-0.4,0-0.8,0-1.3c0-0.7,0-1.5,0.1-2.2
					c0-0.2,0.2-0.4,0.4-0.4c0.2,0,0.4,0.2,0.4,0.4c0,0.7-0.1,1.5-0.1,2.2c0,0.4,0,0.8,0,1.2C38.8,103,38.6,103.2,38.4,103.2
					C38.4,103.2,38.4,103.2,38.4,103.2z M39.1,94.2C39.1,94.2,39,94.2,39.1,94.2c-0.3-0.1-0.4-0.3-0.4-0.5c0.2-1.1,0.5-2.3,0.8-3.4
					c0.1-0.2,0.3-0.3,0.5-0.3c0.2,0.1,0.3,0.3,0.3,0.5c-0.3,1.1-0.6,2.2-0.8,3.3C39.5,94.1,39.3,94.2,39.1,94.2z"/>
				<path class="st1" d="M41.8,85.6c-0.1,0-0.1,0-0.2,0c-0.2-0.1-0.3-0.3-0.2-0.5c0.2-0.5,0.5-1,0.7-1.5c0.1-0.2,0.3-0.3,0.6-0.2
					c0.2,0.1,0.3,0.3,0.2,0.6c-0.2,0.5-0.5,1-0.7,1.5C42.1,85.5,42,85.6,41.8,85.6z"/>
			</g>
			<g>
				<path class="st1" d="M64.9,64.1c-0.2,0-0.3-0.1-0.4-0.3c-0.1-0.2,0-0.5,0.2-0.5c0.5-0.2,1-0.4,1.6-0.5c0.2-0.1,0.4,0.1,0.5,0.3
					c0.1,0.2-0.1,0.4-0.3,0.5c-0.5,0.2-1,0.3-1.5,0.5C65,64.1,64.9,64.1,64.9,64.1z"/>
				<path class="st1" d="M116.7,115c0,0-0.1,0-0.1,0c-0.2-0.1-0.3-0.3-0.3-0.5c0.4-1.1,0.7-2.1,0.9-3.2c0.1-0.2,0.3-0.4,0.5-0.3
					c0.2,0.1,0.4,0.3,0.3,0.5c-0.3,1.1-0.6,2.2-1,3.3C117,114.9,116.8,115,116.7,115z M118.6,106.3
					C118.6,106.3,118.5,106.3,118.6,106.3c-0.3,0-0.4-0.2-0.4-0.5c0.1-1.1,0.2-2.2,0.2-3.3c0-0.2,0.2-0.4,0.4-0.4
					c0.2,0,0.4,0.2,0.4,0.4c0,1.1-0.1,2.3-0.2,3.4C119,106.2,118.8,106.3,118.6,106.3z M118.5,97.5c-0.2,0-0.4-0.2-0.4-0.4
					c-0.1-1.1-0.3-2.2-0.5-3.3c0-0.2,0.1-0.4,0.3-0.5c0.2,0,0.4,0.1,0.5,0.3c0.2,1.1,0.4,2.2,0.5,3.4
					C119,97.2,118.8,97.4,118.5,97.5C118.6,97.5,118.6,97.5,118.5,97.5z M116.6,88.8c-0.2,0-0.3-0.1-0.4-0.3c-0.4-1-0.8-2.1-1.2-3.1
					c-0.1-0.2,0-0.5,0.2-0.5c0.2-0.1,0.5,0,0.5,0.2c0.5,1,0.9,2.1,1.2,3.2c0.1,0.2,0,0.4-0.3,0.5C116.7,88.8,116.6,88.8,116.6,88.8z
					 M112.8,80.8c-0.1,0-0.3-0.1-0.4-0.2c-0.6-0.9-1.2-1.9-1.9-2.8c-0.1-0.2-0.1-0.4,0.1-0.6c0.2-0.1,0.4-0.1,0.6,0.1
					c0.7,0.9,1.3,1.9,1.9,2.8c0.1,0.2,0.1,0.4-0.1,0.6C113,80.8,112.9,80.8,112.8,80.8z M107.3,73.9c-0.1,0-0.2,0-0.3-0.1
					c-0.8-0.8-1.6-1.6-2.4-2.3c-0.2-0.1-0.2-0.4,0-0.6c0.1-0.2,0.4-0.2,0.6,0c0.9,0.7,1.7,1.5,2.5,2.3c0.2,0.2,0.2,0.4,0,0.6
					C107.5,73.8,107.4,73.9,107.3,73.9z M100.5,68.3c-0.1,0-0.2,0-0.2-0.1c-0.9-0.6-1.9-1.2-2.9-1.7c-0.2-0.1-0.3-0.4-0.2-0.6
					c0.1-0.2,0.4-0.3,0.6-0.2c1,0.5,2,1.1,2.9,1.7c0.2,0.1,0.2,0.4,0.1,0.6C100.8,68.2,100.6,68.3,100.5,68.3z M92.6,64.3
					c0,0-0.1,0-0.1,0c-1-0.4-2.1-0.7-3.2-1c-0.2-0.1-0.3-0.3-0.3-0.5c0.1-0.2,0.3-0.3,0.5-0.3c1.1,0.3,2.2,0.7,3.2,1.1
					c0.2,0.1,0.3,0.3,0.2,0.5C92.9,64.2,92.7,64.3,92.6,64.3z M71.8,62.3c-0.2,0-0.4-0.1-0.4-0.3c0-0.2,0.1-0.4,0.3-0.5
					c1.1-0.2,2.3-0.3,3.4-0.4c0.2,0,0.4,0.1,0.4,0.4c0,0.2-0.1,0.4-0.4,0.4C74.1,62,72.9,62.1,71.8,62.3
					C71.8,62.3,71.8,62.3,71.8,62.3z M84,62.1C84,62.1,83.9,62.1,84,62.1c-1.2-0.2-2.3-0.3-3.4-0.3c-0.2,0-0.4-0.2-0.4-0.4
					c0-0.2,0.2-0.4,0.4-0.4c1.1,0.1,2.3,0.2,3.4,0.3c0.2,0,0.4,0.2,0.4,0.5C84.4,62,84.2,62.1,84,62.1z"/>
				<path class="st1" d="M113.7,121.5c-0.1,0-0.1,0-0.2-0.1c-0.2-0.1-0.3-0.4-0.2-0.6c0.3-0.5,0.5-1,0.8-1.4
					c0.1-0.2,0.4-0.3,0.6-0.2c0.2,0.1,0.3,0.4,0.2,0.6c-0.2,0.5-0.5,1-0.8,1.5C114,121.4,113.9,121.5,113.7,121.5z"/>
			</g>
			<g>
				<g>
					<path class="st1" d="M103.5,119.9c0.1-0.2,0.2-0.4,0.1-0.6l-2.8-5.2c1.3-2.4,2.3-5,2.8-7.8l5.5-2.2c0.2-0.1,0.3-0.3,0.3-0.5
						l-0.3-7c0-0.2-0.1-0.4-0.3-0.4l-5.6-1.7c-0.8-2.7-2-5.2-3.5-7.5l2.3-5.4c0.1-0.2,0-0.4-0.1-0.5l-5.2-4.8
						c-0.2-0.1-0.4-0.2-0.6-0.1l-5.2,2.8c-2.4-1.3-5-2.3-7.8-2.8l-2.2-5.5c-0.1-0.2-0.3-0.3-0.5-0.3l-7,0.3c-0.2,0-0.4,0.1-0.4,0.3
						l-1.7,5.6c-2.7,0.8-5.2,2-7.5,3.5L58.3,78c-0.2-0.1-0.4,0-0.5,0.1L53,83.3c-0.1,0.2-0.2,0.4-0.1,0.6l2.8,5.2
						c-1.3,2.4-2.3,5-2.8,7.8L47.5,99c-0.2,0.1-0.3,0.3-0.3,0.5l0.3,7c0,0.2,0.1,0.4,0.3,0.4l5.6,1.7c0.8,2.7,2,5.2,3.5,7.5
						l-2.3,5.4c-0.1,0.2,0,0.4,0.1,0.5l5.2,4.8c0.2,0.1,0.4,0.2,0.6,0.1l5.2-2.8c2.4,1.3,5,2.3,7.8,2.8l2.2,5.5
						c0.1,0.2,0.3,0.3,0.5,0.3l7-0.3c0.2,0,0.4-0.1,0.4-0.3l1.7-5.6c2.7-0.8,5.2-2,7.5-3.5l5.4,2.3c0.2,0.1,0.4,0,0.5-0.1
						L103.5,119.9z"/>
				</g>
				<g>
					<path class="st2" d="M78.3,108.5c-3,0-5.7-1.9-6.6-4.9c-1.1-3.6,1-7.5,4.6-8.6c1.8-0.5,3.6-0.3,5.2,0.5
						c1.6,0.9,2.8,2.3,3.3,4.1l0,0c1.1,3.6-1,7.5-4.6,8.6C79.6,108.4,78.9,108.5,78.3,108.5z M78.3,96c-0.5,0-1.1,0.1-1.6,0.2
						c-3,0.9-4.7,4.1-3.8,7c0.9,3,4,4.7,7,3.8c3-0.9,4.7-4.1,3.8-7c-0.4-1.4-1.4-2.6-2.7-3.3C80.1,96.2,79.2,96,78.3,96z"/>
				</g>
				<path class="st2" d="M78.1,119.1c-9.4,0-17.2-7.4-17.6-16.8c0-0.3,0-0.5,0-0.8c0-9.4,7.4-17.2,16.8-17.6
					c4.7-0.2,9.2,1.4,12.7,4.6s5.5,7.5,5.7,12.2v0c0,0.3,0,0.5,0,0.8c0,0.9-0.1,1.7-0.2,2.6c0,0.1,0,0.2-0.1,0.4l-1.2-0.2
					c0.2-0.9,0.2-1.8,0.2-2.7c0-0.3,0-0.5,0-0.8v0c-0.1-1.5-0.3-3-0.8-4.4c-0.9-2.7-2.4-5.1-4.5-7c-3.2-3-7.4-4.5-11.8-4.3
					c-8.8,0.4-15.6,7.7-15.6,16.4c0,0.2,0,0.5,0,0.8c0.4,9,8.1,16,17.1,15.6c3-0.1,5.8-1.1,8.3-2.7l0.7,1c-2.6,1.8-5.7,2.8-8.9,2.9
					C78.7,119.1,78.4,119.1,78.1,119.1z"/>
			</g>
		</g>
		<g>
			<path class="st1" d="M55.4,73.2l-1.8-2.8c0.6-1.4,1.1-2.9,1.2-4.5l3-1.5c0.1-0.1,0.2-0.2,0.1-0.3l-0.5-3.9c0-0.1-0.1-0.2-0.2-0.2
				L54,59.4c-0.5-1.5-1.3-2.8-2.3-4l1.1-3.1c0-0.1,0-0.2-0.1-0.3l-3.1-2.4c-0.1-0.1-0.2-0.1-0.3,0l-2.8,1.8C45,50.6,43.5,50.2,42,50
				l-1.5-3c-0.1-0.1-0.2-0.2-0.3-0.1l-3.9,0.5c-0.1,0-0.2,0.1-0.2,0.2l-0.7,3.2c-1.5,0.5-2.8,1.3-4,2.3l-3.1-1.1
				c-0.1,0-0.2,0-0.3,0.1l-2.4,3.1c-0.1,0.1-0.1,0.2,0,0.3l1.8,2.8c-0.6,1.4-1.1,2.9-1.2,4.5l-3,1.5C23,64.4,23,64.5,23,64.6
				l0.5,3.9c0,0.1,0.1,0.2,0.2,0.2l3.2,0.7c0.5,1.5,1.3,2.8,2.3,4l-1.1,3.1c0,0.1,0,0.2,0.1,0.3l3.1,2.4c0.1,0.1,0.2,0.1,0.3,0
				l2.8-1.8c1.4,0.6,2.9,1.1,4.5,1.2l1.5,3c0.1,0.1,0.2,0.2,0.3,0.1l3.9-0.5c0.1,0,0.2-0.1,0.2-0.2l0.7-3.2c1.5-0.5,2.8-1.3,4-2.3
				l3.1,1.1c0.1,0,0.2,0,0.3-0.1l2.4-3.1C55.4,73.4,55.4,73.2,55.4,73.2z"/>
		</g>
		<g>
			<path class="st2" d="M40.4,68.5c-0.6,0-1.1-0.1-1.7-0.3c-1-0.4-1.8-1.3-2.2-2.3c-0.8-2.1,0.2-4.5,2.3-5.3c1-0.4,2.1-0.4,3.2,0.1
				c1,0.4,1.8,1.3,2.2,2.3c0.8,2.1-0.2,4.5-2.3,5.3C41.4,68.4,40.9,68.5,40.4,68.5z M40.4,61.5c-0.4,0-0.7,0.1-1.1,0.2
				c-1.5,0.6-2.2,2.3-1.6,3.7c0.3,0.7,0.8,1.3,1.5,1.6c0.7,0.3,1.5,0.3,2.2,0c1.5-0.6,2.2-2.3,1.6-3.7c-0.3-0.7-0.8-1.3-1.5-1.6
				C41.2,61.6,40.8,61.5,40.4,61.5z"/>
		</g>
		<g>
			<path class="st1" d="M53.2,81.7c-0.1,0-0.2-0.1-0.3-0.2c-0.1-0.2-0.1-0.4,0.1-0.6c0.4-0.3,0.8-0.7,1.2-1c0.2-0.2,0.4-0.1,0.6,0
				c0.2,0.2,0.1,0.4,0,0.6c-0.4,0.4-0.9,0.7-1.3,1.1C53.4,81.6,53.3,81.7,53.2,81.7z"/>
			<path class="st1" d="M40.1,86C40.1,86,40.1,86,40.1,86c-1.1,0-2.3-0.1-3.4-0.3c-0.2,0-0.4-0.3-0.3-0.5c0-0.2,0.3-0.4,0.5-0.3
				c1.1,0.2,2.2,0.3,3.2,0.3c0.2,0,0.4,0.2,0.4,0.4C40.5,85.8,40.3,86,40.1,86z M45.4,85.4c-0.2,0-0.4-0.1-0.4-0.3
				c-0.1-0.2,0.1-0.4,0.3-0.5c0.9-0.2,1.8-0.5,2.6-0.8c0.1-0.1,0.3-0.1,0.4-0.2c0.2-0.1,0.5,0,0.5,0.2c0.1,0.2,0,0.5-0.2,0.5
				c-0.1,0.1-0.3,0.1-0.5,0.2C47.4,84.8,46.4,85.1,45.4,85.4C45.5,85.4,45.5,85.4,45.4,85.4z M31.7,84.1c-0.1,0-0.1,0-0.2,0
				c-1-0.5-2-1-3-1.6c-0.2-0.1-0.2-0.4-0.1-0.6c0.1-0.2,0.4-0.2,0.6-0.1c0.9,0.6,1.9,1.1,2.8,1.6c0.2,0.1,0.3,0.3,0.2,0.5
				C32,84,31.8,84.1,31.7,84.1z M24.7,79c-0.1,0-0.2,0-0.3-0.1c-0.8-0.8-1.4-1.7-2.1-2.7c-0.1-0.2-0.1-0.4,0.1-0.6
				c0.2-0.1,0.4-0.1,0.6,0.1c0.6,0.9,1.3,1.8,2,2.6c0.2,0.2,0.1,0.4,0,0.6C24.9,78.9,24.8,79,24.7,79z M20.4,71.5
				c-0.2,0-0.3-0.1-0.4-0.3c-0.4-1.1-0.6-2.2-0.8-3.3c0-0.2,0.1-0.4,0.3-0.5c0.2,0,0.4,0.1,0.5,0.3c0.2,1.1,0.4,2.1,0.8,3.1
				c0.1,0.2,0,0.4-0.3,0.5C20.4,71.5,20.4,71.5,20.4,71.5z"/>
			<path class="st1" d="M19.3,62.9C19.3,62.9,19.3,62.9,19.3,62.9c-0.3,0-0.4-0.2-0.4-0.4c0-0.6,0.1-1.1,0.2-1.7
				c0-0.2,0.2-0.4,0.5-0.3c0.2,0,0.4,0.3,0.3,0.5c-0.1,0.5-0.2,1.1-0.2,1.6C19.7,62.8,19.5,62.9,19.3,62.9z"/>
		</g>
		<g>
			<path class="st1" d="M27.7,47.8c-0.1,0-0.2-0.1-0.3-0.2c-0.1-0.2-0.1-0.4,0.1-0.6c0.4-0.3,0.9-0.7,1.4-1c0.2-0.1,0.4-0.1,0.6,0.1
				c0.1,0.2,0.1,0.4-0.1,0.6c-0.5,0.3-0.9,0.6-1.3,0.9C27.9,47.8,27.8,47.8,27.7,47.8z"/>
			<path class="st1" d="M61.5,62.3c-0.2,0-0.4-0.2-0.4-0.4c-0.1-1.1-0.3-2.1-0.6-3.1c-0.1-0.2,0.1-0.4,0.3-0.5
				c0.2-0.1,0.4,0.1,0.5,0.3c0.3,1.1,0.5,2.2,0.6,3.3C61.9,62.1,61.7,62.3,61.5,62.3C61.5,62.3,61.5,62.3,61.5,62.3z M58.8,54.3
				c-0.1,0-0.3-0.1-0.4-0.2c-0.5-0.9-1.1-1.8-1.8-2.6c-0.1-0.2-0.1-0.4,0.1-0.6c0.2-0.1,0.4-0.1,0.6,0.1c0.7,0.9,1.3,1.8,1.9,2.7
				c0.1,0.2,0,0.4-0.2,0.6C58.9,54.2,58.9,54.3,58.8,54.3z M53.2,47.9c-0.1,0-0.2,0-0.2-0.1c-0.8-0.6-1.8-1.2-2.7-1.7
				c-0.2-0.1-0.3-0.4-0.2-0.6c0.1-0.2,0.4-0.3,0.6-0.2c1,0.5,1.9,1.1,2.8,1.8c0.2,0.1,0.2,0.4,0.1,0.6
				C53.4,47.8,53.3,47.9,53.2,47.9z M33.9,44.7c-0.2,0-0.3-0.1-0.4-0.3c-0.1-0.2,0-0.4,0.3-0.5c1.1-0.3,2.1-0.6,3.2-0.8
				c0.2,0,0.4,0.1,0.5,0.3c0,0.2-0.1,0.4-0.3,0.5c-1,0.2-2.1,0.4-3.1,0.8C34,44.6,33.9,44.7,33.9,44.7z M45.5,44.2c0,0-0.1,0-0.1,0
				c-1-0.3-2.1-0.4-3.1-0.5c-0.2,0-0.4-0.2-0.4-0.4c0-0.2,0.2-0.4,0.4-0.4c1.1,0.1,2.2,0.3,3.3,0.6c0.2,0.1,0.4,0.3,0.3,0.5
				C45.9,44.1,45.7,44.2,45.5,44.2z"/>
			<path class="st1" d="M61.1,69.3C61.1,69.3,61.1,69.2,61.1,69.3c-0.3-0.1-0.5-0.3-0.4-0.5c0.1-0.5,0.2-1.1,0.3-1.6
				c0-0.2,0.2-0.4,0.5-0.4c0.2,0,0.4,0.2,0.4,0.5c-0.1,0.6-0.2,1.1-0.3,1.7C61.5,69.1,61.3,69.3,61.1,69.3z"/>
		</g>
		<path class="st2" d="M40.4,74.5c-5,0-9.4-3.8-10.1-8.9c-0.1-0.4-0.1-0.9-0.1-1.3c0-5,3.8-9.4,8.9-10.1c2.7-0.3,5.3,0.4,7.5,2.1
			c2.1,1.7,3.5,4.1,3.8,6.8c0.1,0.4,0.1,0.9,0.1,1.3c0,0.3,0,0.6,0,0.9l-1.2-0.1c0-0.3,0-0.5,0-0.8c0-0.4,0-0.7-0.1-1.1
			c-0.3-2.1-1.2-3.9-2.6-5.2c0,0-0.1-0.1-0.1-0.1c0,0,0,0,0,0c-1.9-1.8-4.5-2.7-7.2-2.3c-4.5,0.6-7.8,4.4-7.8,8.8
			c0,0.4,0,0.7,0.1,1.1c0.6,4.9,5.1,8.3,10,7.7c1.6-0.2,3.1-0.8,4.4-1.8l0.8,1c-1.4,1.1-3.2,1.8-5,2.1
			C41.2,74.5,40.8,74.5,40.4,74.5z"/>
	</g>
	<g>
		<path class="st2" d="M393.9,75.9c1.6,23.9,5.1,163.6-125.4,190.4c0,0-26-91.3,122.2-191.9C392.1,73.5,393.8,74.3,393.9,75.9z"/>
		<path class="st3" d="M380.9,96.1c-2.5,7.2-5.2,14.4-7.9,21.6c-2.7,7.2-5.5,14.3-8.4,21.4c-5.8,14.2-11.9,28.2-18.5,42.1
			c-6.6,13.9-13.5,27.5-21.2,40.8c-3.8,6.6-7.9,13.2-12.2,19.5c-4.3,6.3-8.9,12.5-14,18.3c-0.3,0.3-0.8,0.4-1.2,0.1
			c-0.3-0.3-0.4-0.8-0.1-1.2l0,0l0,0c5-5.7,9.6-11.8,14-18.1c4.3-6.3,8.4-12.8,12.3-19.4c7.7-13.2,14.8-26.8,21.4-40.6
			c6.6-13.8,12.8-27.8,18.7-42c2.9-7.1,5.8-14.2,8.6-21.3c2.8-7.1,5.5-14.3,8-21.5l0,0c0.1-0.2,0.3-0.3,0.4-0.2
			C380.8,95.8,380.9,96,380.9,96.1z"/>
	</g>
	<g>
		<path class="st2" d="M278.1,277.5c0,0,7.4-26.6,41.3-46.8c31.4-18.7,107.8-61.2,130.2-89.7c1-1.3,3-0.3,2.6,1.3
			c-4.1,16.8-17.7,57.9-57.3,92.2C344,278.6,278.1,277.5,278.1,277.5z"/>
		<path class="st3" d="M432.2,168.4c-1.4,3.5-3.3,6.9-5.3,10.1c-0.3,0.4-0.5,0.8-0.8,1.2l-0.8,1.2l-1.6,2.4l-1.7,2.3
			c-0.6,0.8-1.1,1.6-1.7,2.3c-4.7,6-10,11.6-15.7,16.7c-1.4,1.3-2.9,2.5-4.3,3.8l-2.2,1.8c-0.4,0.3-0.7,0.6-1.1,0.9l-1.1,0.9
			l-4.6,3.5c-0.7,0.6-1.6,1.1-2.3,1.7l-2.4,1.6l-2.4,1.6l-1.2,0.8l-1.2,0.7l-4.9,3c-0.8,0.5-1.6,1-2.5,1.5l-2.5,1.4l-5,2.8l-5,2.8
			c-1.7,0.9-3.3,1.8-5,2.7c-3.4,1.8-6.7,3.6-10.1,5.3c-3.4,1.8-6.8,3.5-10.2,5.2l-10.2,5.1c-6.8,3.4-13.7,6.7-20.4,10.3
			c-1.7,0.9-3.3,1.8-5,2.8c-0.8,0.5-1.6,1-2.5,1.4c-0.8,0.5-1.6,1-2.4,1.5c-1.6,1.1-3.2,2.1-4.7,3.2l-1.1,0.8
			c-0.2,0.1-0.4,0.3-0.6,0.4l-0.5,0.5l-2.2,1.8l0,0c-0.1,0.1-0.2,0.1-0.3,0c-0.1-0.1-0.1-0.2,0-0.3c2.8-2.7,5.8-5,9-7.1
			c0.8-0.5,1.6-1,2.4-1.6c0.8-0.5,1.6-1,2.4-1.5c1.6-1,3.3-2,5-2.9l2.5-1.4c0.8-0.5,1.7-0.9,2.5-1.3l2.5-1.3l2.5-1.3
			c3.4-1.8,6.8-3.5,10.2-5.2c6.8-3.5,13.6-6.9,20.3-10.5c6.7-3.5,13.4-7.2,20.1-10.8l5-2.8l2.5-1.4c0.8-0.5,1.6-1,2.4-1.5l4.9-2.9
			l1.2-0.7l1.2-0.8l2.4-1.6c6.4-4.2,12.3-8.8,18.1-13.8c5.8-5,11.1-10.4,15.9-16.3c0.6-0.7,1.2-1.5,1.8-2.2l1.8-2.2l1.7-2.3l0.8-1.2
			c0.3-0.4,0.5-0.8,0.8-1.2c0.5-0.8,1.1-1.6,1.6-2.4l1.5-2.4C430.5,171.8,431.4,170.1,432.2,168.4
			C432.2,168.4,432.2,168.4,432.2,168.4C432.2,168.4,432.2,168.4,432.2,168.4z"/>
	</g>
	<g>
		<g>
			<g>
				<path class="st2" d="M336.9,259.2l97.3,0v-19.5l-97.3,0C338.9,239.7,338.9,259.2,336.9,259.2z"/>
				<path class="st4" d="M434.1,254.3v-8.9c0-3.1-1.9-5.7-4.3-5.7h-92.6c-1.9,0-3.4-1.5-3.4-3.4c0-0.6,0.5-1,1-1h101.2
					c2.3,0,6,3.6,6,8.1v12.4c0,4.2-3.6,7.7-5.8,7.7H335.4c-0.9,0-1.6-0.7-1.6-1.6c0-1.6,1.3-2.8,2.8-2.8h93.7
					C432.5,259.2,434.1,257,434.1,254.3z"/>
			</g>
			<path class="st4" d="M431.4,244.1h-91.2c-0.2,0-0.4-0.2-0.4-0.4c0-0.2,0.2-0.4,0.4-0.4h91.2c0.2,0,0.4,0.2,0.4,0.4
				C431.8,243.9,431.7,244.1,431.4,244.1z"/>
			<path class="st4" d="M431.4,247h-91.2c-0.2,0-0.4-0.2-0.4-0.4s0.2-0.4,0.4-0.4h91.2c0.2,0,0.4,0.2,0.4,0.4S431.7,247,431.4,247z"
				/>
			<path class="st4" d="M431.4,249.9h-91.2c-0.2,0-0.4-0.2-0.4-0.4s0.2-0.4,0.4-0.4h91.2c0.2,0,0.4,0.2,0.4,0.4
				S431.7,249.9,431.4,249.9z"/>
			<path class="st4" d="M431.4,252.8h-91.2c-0.2,0-0.4-0.2-0.4-0.4s0.2-0.4,0.4-0.4h91.2c0.2,0,0.4,0.2,0.4,0.4
				S431.7,252.8,431.4,252.8z"/>
			<path class="st4" d="M431.4,255.7h-91.2c-0.2,0-0.4-0.2-0.4-0.4s0.2-0.4,0.4-0.4h91.2c0.2,0,0.4,0.2,0.4,0.4
				S431.7,255.7,431.4,255.7z"/>
		</g>
		<g>
			<linearGradient id="SVGID_2_" gradientUnits="userSpaceOnUse" x1="345.3472" y1="295.5874" x2="371.5493" y2="216.9808">
				<stop  offset="0" style="stop-color:#4042E2"/>
				<stop  offset="1" style="stop-color:#4F52FF"/>
			</linearGradient>
			<path class="st5" d="M265.6,305.7h166.9c2.4,0,4.4-2,4.4-4.4v-33.6c0-2.4-2-4.4-4.4-4.4H265.6c-2.4,0-4.4,2-4.4,4.4v33.6
				C261.2,303.7,263.2,305.7,265.6,305.7z"/>
			<path class="st4" d="M397.9,300.8h17.7c0.8,0,1.5-0.7,1.5-1.5v-29.7c0-0.8-0.7-1.5-1.5-1.5h-17.7c-0.8,0-1.5,0.7-1.5,1.5v29.7
				C396.4,300.2,397,300.8,397.9,300.8z"/>
			<path class="st4" d="M386.8,300.8h5.3c0.7,0,1.2-0.5,1.2-1.2v-30.2c0-0.7-0.5-1.2-1.2-1.2h-5.3c-0.7,0-1.2,0.5-1.2,1.2v30.2
				C385.6,300.3,386.1,300.8,386.8,300.8z"/>
		</g>
	</g>
	<g>
		<path class="st2" d="M27.2,72.8c-2.6,29.7-12,202.2,112.6,215.9c0,0,29-116.4-109.5-218.2C29.1,69.6,27.4,70.9,27.2,72.8z"/>
		<path class="st3" d="M39.6,95.6c2.1,8.2,4.3,16.4,6.6,24.5c2.3,8.1,4.7,16.3,7.1,24.4c4.9,16.2,10.2,32.3,15.8,48.2
			c2.9,8,5.8,15.9,8.9,23.8c3.1,7.9,6.4,15.7,9.8,23.4c3.5,7.7,7.2,15.3,11.2,22.7c4,7.4,8.4,14.7,13.3,21.5
			c0.3,0.4,0.2,0.9-0.2,1.2c-0.4,0.3-0.9,0.2-1.2-0.2l0,0c-5-6.9-9.3-14.2-13.4-21.7c-4-7.5-7.7-15.1-11.1-22.9
			c-3.4-7.8-6.7-15.6-9.8-23.5c-3.1-7.9-6-15.8-8.8-23.8c-5.6-16-10.8-32.1-15.6-48.4c-2.4-8.1-4.8-16.3-7-24.4
			c-2.2-8.2-4.4-16.3-6.5-24.6c0-0.2,0.1-0.4,0.3-0.4C39.3,95.3,39.5,95.4,39.6,95.6L39.6,95.6z"/>
	</g>
	<g>
		<path class="st2" d="M0.4,202.9c-0.3-1,0.9-1.6,1.6-0.9c6.5,7,24.1,24.7,40.2,30.7c26.2,9.7,52.6,33.7,49.9,54.6
			C92,287.3,28.4,306.6,0.4,202.9z"/>
		<path class="st3" d="M8.3,213.5c0.1,0.2,0.3,0.4,0.5,0.6l0.5,0.6l1,1.2l2,2.4c1.3,1.6,2.7,3.2,4.1,4.8c2.7,3.2,5.5,6.3,8.4,9.4
			c5.7,6.2,11.6,12.2,17.8,17.8c3.1,2.8,6.2,5.6,9.5,8.3c3.2,2.7,6.5,5.3,9.9,7.8c6.8,5,13.9,9.4,21.5,13.1c0.1,0,0.1,0.2,0.1,0.3
			c0,0.1-0.2,0.1-0.3,0.1c-3.9-1.6-7.7-3.6-11.3-5.7c-3.7-2.1-7.2-4.4-10.7-6.9c-6.9-4.9-13.4-10.3-19.6-16.1
			c-3.1-2.9-6.1-5.8-9.1-8.8c-3-3-5.9-6.1-8.7-9.2c-2.8-3.1-5.6-6.3-8.2-9.6c-1.3-1.6-2.6-3.3-3.9-4.9c-0.6-0.8-1.3-1.7-1.9-2.5
			L8.9,215l-0.5-0.6c-0.2-0.2-0.3-0.4-0.5-0.7c-0.1-0.1,0-0.2,0.1-0.3C8.1,213.4,8.2,213.4,8.3,213.5L8.3,213.5z"/>
	</g>
	<g>
		<path class="st2" d="M86,291.8c0,0-7.1-8.8-23-10.9c-14.8-2-50.3-5.6-63.3-12.7c-0.6-0.3-1.2,0.4-0.8,0.9
			c4.2,5.6,16,18.9,36.3,25.4C61.4,302.9,86,291.8,86,291.8z"/>
		<path class="st6" d="M10.6,275.7c1.2,1,2.5,1.9,3.8,2.7c0.6,0.4,1.3,0.8,2,1.2c0.7,0.4,1.4,0.7,2.1,1.1c0.7,0.3,1.4,0.7,2.1,1
			c0.7,0.3,1.4,0.6,2.1,0.9l2.2,0.8c0.7,0.3,1.5,0.5,2.2,0.7c2.9,0.9,5.9,1.7,9,2.2c1.5,0.3,3,0.5,4.6,0.7c1.5,0.2,3.1,0.4,4.6,0.5
			c3.1,0.3,6.2,0.6,9.3,0.8c3.1,0.3,6.2,0.5,9.3,0.7c1.6,0.1,3.1,0.2,4.7,0.4c0.8,0.1,1.6,0.1,2.3,0.2c0.8,0.1,1.6,0.2,2.3,0.3
			c3.1,0.4,6.2,0.9,9.2,2.1c0.1,0,0.2,0.2,0.1,0.3c0,0.1-0.2,0.2-0.3,0.1l0,0c-1.5-0.5-3-0.8-4.5-1c-1.5-0.2-3.1-0.4-4.6-0.5
			c-3.1-0.2-6.2-0.3-9.3-0.5l-4.7-0.2c-1.6-0.1-3.1-0.2-4.7-0.3c-3.1-0.2-6.2-0.5-9.3-0.8c-3.1-0.3-6.2-0.7-9.3-1.3
			c-0.8-0.2-1.5-0.3-2.3-0.5l-2.3-0.6c-0.8-0.2-1.5-0.4-2.3-0.7c-0.7-0.2-1.5-0.4-2.2-0.7c-3-1-5.8-2.3-8.6-3.9
			c-0.7-0.4-1.3-0.8-2-1.2c-0.6-0.4-1.3-0.9-1.9-1.3C12.8,277.8,11.6,276.8,10.6,275.7C10.5,275.7,10.5,275.7,10.6,275.7
			C10.6,275.7,10.6,275.7,10.6,275.7z"/>
	</g>
	<g>
		<linearGradient id="SVGID_3_" gradientUnits="userSpaceOnUse" x1="190.128" y1="312.1163" x2="218.7864" y2="9.9723">
			<stop  offset="0" style="stop-color:#09005D"/>
			<stop  offset="1" style="stop-color:#1A0F91"/>
		</linearGradient>
		<path class="st7" d="M123.6,76.8c-1,38.4-4,171-2.6,218c0.2,5,4.1,9,9.1,9.1c24.6,0.8,95.4,2.8,135.7,1.2
			c8.4-0.4,15.1-7.1,15.2-15.5c0.8-40.3,2.7-153.8-1.7-205.8c-0.5-6.2-5.4-11.2-11.6-11.8c-26.8-2.7-98-9.2-132.8-7
			C128.7,65.4,123.8,70.5,123.6,76.8z"/>
		<linearGradient id="SVGID_4_" gradientUnits="userSpaceOnUse" x1="242.1657" y1="123.8443" x2="-83.4391" y2="540.3732">
			<stop  offset="0" style="stop-color:#4042E2"/>
			<stop  offset="1" style="stop-color:#4F52FF"/>
		</linearGradient>
		<path class="st8" d="M133.6,88.7c-1.3,31.5-5.6,136.2-4.2,174.9c0.2,5.7,4.7,10.2,10.3,10.6c23.3,1.4,83,4.4,117.1,1.6
			c6.1-0.5,11-5.5,11.3-11.6c1.7-32.1,6.7-129.6,5.4-167.9c-0.2-6.1-4.9-11.1-11-11.6c-25.2-2.3-89.8-7.6-118.9-6.1
			C138.2,78.9,133.9,83.3,133.6,88.7z"/>
		<linearGradient id="SVGID_5_" gradientUnits="userSpaceOnUse" x1="184.4527" y1="72.4486" x2="218.4004" y2="72.4486">
			<stop  offset="0" style="stop-color:#4042E2"/>
			<stop  offset="1" style="stop-color:#4F52FF"/>
		</linearGradient>
		<path class="st9" d="M184.5,71.7L184.5,71.7c0,1.2,0.9,2.2,2.1,2.2c5.8,0.3,22.2,1.2,29.5,1.6c1.4,0.1,2.6-1.2,2.3-2.6l0-0.2
			c-0.2-1-1-1.7-2-1.8c-4.9-0.5-19.9-1.7-29.8-1.4C185.4,69.5,184.5,70.5,184.5,71.7z"/>
		<g class="st10">
			<path class="st1" d="M147.5,107.5l-1.8,70.6c-0.1,4,3.1,7.2,7.1,7.2l98.6-0.7c3.8,0,6.8-3,7-6.8l2.6-69.9c0.1-4-3-7.3-7-7.3
				h-99.5C150.7,100.6,147.6,103.7,147.5,107.5z"/>
		</g>
	</g>
	<g>
		<g>
			<linearGradient id="SVGID_6_" gradientUnits="userSpaceOnUse" x1="413.8918" y1="221.6078" x2="420.2557" y2="221.6078">
				<stop  offset="0" style="stop-color:#4042E2"/>
				<stop  offset="1" style="stop-color:#4F52FF"/>
			</linearGradient>
			<path class="st11" d="M416.8,206.3c0.6,0.9,3.1,21.9,3.5,29.6c0,0.5-0.4,1-0.9,1l0,0c-0.5,0-0.8-0.3-0.9-0.8l-4.5-29.1
				L416.8,206.3z"/>
			<linearGradient id="SVGID_7_" gradientUnits="userSpaceOnUse" x1="393.2945" y1="221.6078" x2="399.6584" y2="221.6078">
				<stop  offset="0" style="stop-color:#4042E2"/>
				<stop  offset="1" style="stop-color:#4F52FF"/>
			</linearGradient>
			<path class="st12" d="M396.8,206.3c-0.6,0.9-3.1,21.9-3.5,29.6c0,0.5,0.4,1,0.9,1l0,0c0.5,0,0.8-0.3,0.9-0.8l4.5-29.1
				L396.8,206.3z"/>
			<linearGradient id="SVGID_8_" gradientUnits="userSpaceOnUse" x1="393.0498" y1="205.0182" x2="420.5165" y2="205.0182">
				<stop  offset="0" style="stop-color:#4042E2"/>
				<stop  offset="1" style="stop-color:#4F52FF"/>
			</linearGradient>
			<path class="st13" d="M420.5,204.7l0,0.2c0,1.6-1.4,3-3.2,3l-21,0.4c-1.7,0-3.2-1.2-3.3-2.8l0-0.2c-0.1-1.7,1.3-3.1,3.2-3.1
				l21-0.4C419,201.7,420.5,203,420.5,204.7z"/>
		</g>
		<g>
			<g>
				<path class="st4" d="M379.7,235.2c3.7,0,5.4-0.3,6.1-0.6c-0.1,0.6-0.7,1.1-1.4,1.1h-13.2c-0.4,0-0.7-0.4-0.6-0.8
					C372.1,235,375.3,235.2,379.7,235.2z"/>
				
					<linearGradient id="SVGID_9_" gradientUnits="userSpaceOnUse" x1="5149.0703" y1="205.8258" x2="5144.9106" y2="234.5639" gradientTransform="matrix(-1 0 0 1 5523.1343 0)">
					<stop  offset="0" style="stop-color:#4042E2"/>
					<stop  offset="1" style="stop-color:#4F52FF"/>
				</linearGradient>
				<path class="st14" d="M370.6,234.8c0-0.1,0.1-0.2,0.1-0.2c1-1.3,3-3.3,5.8-3.3c4,0.1,5.4,0.5,8.6,0l0.7,2.4
					c0.1,0.2,0.1,0.5,0,0.7c-0.7,0.3-2.4,0.6-6.1,0.6C375.3,235.2,372.1,235,370.6,234.8z"/>
			</g>
			
				<linearGradient id="SVGID_10_" gradientUnits="userSpaceOnUse" x1="5138.1016" y1="230.5111" x2="5142.2207" y2="230.5111" gradientTransform="matrix(-1 0 0 1 5523.1343 0)">
				<stop  offset="0" style="stop-color:#FF928E"/>
				<stop  offset="1" style="stop-color:#FEB3B1"/>
			</linearGradient>
			<path class="st15" d="M384.1,228.7l0.9,3.1c0,0-2,0.9-3.8,0.2l-0.3-2.7L384.1,228.7z"/>
			<g>
				<path class="st4" d="M356.8,233.2c2.9,2.3,4.4,3.1,5.2,3.4c-0.5,0.4-1.2,0.4-1.8,0l-10.3-8.3c-0.3-0.3-0.3-0.8,0-1
					C351,228.3,353.3,230.5,356.8,233.2z"/>
				
					<linearGradient id="SVGID_11_" gradientUnits="userSpaceOnUse" x1="5169.6729" y1="208.8077" x2="5165.5132" y2="237.5458" gradientTransform="matrix(-1 0 0 1 5523.1343 0)">
					<stop  offset="0" style="stop-color:#4042E2"/>
					<stop  offset="1" style="stop-color:#4F52FF"/>
				</linearGradient>
				<path class="st16" d="M349.9,227.3c0.1,0,0.1-0.1,0.2-0.1c1.6-0.4,4.4-0.7,6.5,1.1c3.1,2.6,3.9,3.8,6.7,5.4l-0.9,2.4
					c-0.1,0.2-0.3,0.4-0.4,0.6c-0.8-0.2-2.2-1-5.2-3.4C353.3,230.5,351,228.3,349.9,227.3z"/>
			</g>
			<linearGradient id="SVGID_12_" gradientUnits="userSpaceOnUse" x1="386.3127" y1="220.1617" x2="379.9669" y2="245.3404">
				<stop  offset="0" style="stop-color:#09005D"/>
				<stop  offset="1" style="stop-color:#1A0F91"/>
			</linearGradient>
			<path class="st17" d="M403.5,193.6c0,0-22.3,1.8-26.9,4c-4.6,2.2,3.7,32.4,3.7,32.4s1.2,0.6,4-0.3c0,0-2.8-22.3-0.7-27.2l24.2-4
				L403.5,193.6z"/>
			
				<linearGradient id="SVGID_13_" gradientUnits="userSpaceOnUse" x1="5157.6113" y1="230.8577" x2="5162.5288" y2="230.8577" gradientTransform="matrix(-1 0 0 1 5523.1343 0)">
				<stop  offset="0" style="stop-color:#FF928E"/>
				<stop  offset="1" style="stop-color:#FEB3B1"/>
			</linearGradient>
			<path class="st18" d="M365.5,229.4c-0.2,0.2-2.2,4.2-2.2,4.2s-2.2-0.5-2.7-1.9l2-3.7L365.5,229.4z"/>
			<linearGradient id="SVGID_14_" gradientUnits="userSpaceOnUse" x1="398.4672" y1="199.1418" x2="374.5168" y2="236.8075">
				<stop  offset="0" style="stop-color:#09005D"/>
				<stop  offset="1" style="stop-color:#1A0F91"/>
			</linearGradient>
			<path class="st19" d="M417,193.4c0,0,0.7,1.8,0.7,4.1c0,3.2-2.6,5.8-5.8,6l-26.4,1.2c-0.6,0-1,0.4-1.2,1
				c-0.6,2.4-3.7,9.8-18.5,24.5c-0.4,0.4-1,0.5-1.5,0.2l-2.1-1.3c-0.2-0.1-0.3-0.4-0.2-0.7l15.4-26.3c0.8-1.3,2.1-2.3,3.6-2.7
				l22.5-5.8L417,193.4z"/>
			<linearGradient id="SVGID_15_" gradientUnits="userSpaceOnUse" x1="388.5681" y1="148.5342" x2="395.3233" y2="170.8471">
				<stop  offset="0" style="stop-color:#FF928E"/>
				<stop  offset="1" style="stop-color:#FEB3B1"/>
			</linearGradient>
			<path class="st20" d="M390.9,152.4c0,0,2.8,5,5.7,7.4l-6,3.3c0,0-1.3-5.3-4.4-6.8L390.9,152.4z"/>
			
				<linearGradient id="SVGID_16_" gradientUnits="userSpaceOnUse" x1="5120.2681" y1="175.4564" x2="5146.9702" y2="219.2924" gradientTransform="matrix(-1 0 0 1 5523.1343 0)">
				<stop  offset="0" style="stop-color:#FE7062"/>
				<stop  offset="1" style="stop-color:#FF928E"/>
			</linearGradient>
			<path class="st21" d="M417.4,193.6c0,0-7.1,1.7-13.9,0c0,0-9.5-12.8-13.2-16.3c0,0-5.9,9.3-19,10.6l-0.7-1.6
				c0,0,10.4-4.8,13.6-12.2c3.2-7.4,4.5-10.5,7.4-12.4c1.8-1.2,2.9-2,3.5-2.5c0.3-0.2,0.7-0.3,1.1-0.1
				C399.3,161,413.8,171,417.4,193.6z"/>
			
				<linearGradient id="SVGID_17_" gradientUnits="userSpaceOnUse" x1="5151.0083" y1="185.3386" x2="5162.3677" y2="185.3386" gradientTransform="matrix(-1 0 0 1 5523.1343 0)">
				<stop  offset="0" style="stop-color:#FF928E"/>
				<stop  offset="1" style="stop-color:#FEB3B1"/>
			</linearGradient>
			<path class="st22" d="M372.1,185.5l-1.5-0.4l-4.5-1c-0.5-0.1-1.1,0-1.6,0.3l-3.8,2.4l10.6,0L372.1,185.5z"/>
			<g>
				
					<linearGradient id="SVGID_18_" gradientUnits="userSpaceOnUse" x1="6778.769" y1="1858.7354" x2="6785.9336" y2="1843.3826" gradientTransform="matrix(-0.9914 -0.1306 -0.1306 0.9914 7514.9878 -288.1681)">
					<stop  offset="0" style="stop-color:#FF928E"/>
					<stop  offset="1" style="stop-color:#FEB3B1"/>
				</linearGradient>
				<path class="st23" d="M386.4,144.9c0,0-2.7,4.6-3.2,7.1c-0.5,2.5-1.2,4.1,1.6,5c2.9,0.9,5.5-0.2,7.2-2.6c0,0,2.6-3.6,2.4-5.3
					C394.2,147.5,386.4,144.9,386.4,144.9z"/>
				
					<linearGradient id="SVGID_19_" gradientUnits="userSpaceOnUse" x1="7003.063" y1="1357.3981" x2="7014.0859" y2="1371.5898" gradientTransform="matrix(-0.9914 -0.1306 -0.1306 0.9914 7514.9878 -288.1681)">
					<stop  offset="0" style="stop-color:#09005D"/>
					<stop  offset="1" style="stop-color:#1A0F91"/>
				</linearGradient>
				<path class="st24" d="M391.3,152.5l-0.4,0c0,0,1.9-2.9,0.7-3.7c-1.3-0.7-6.5-2.5-7.4-4.6c-0.9-2,0.4-4.2,2-4.7
					c0.1,0,0.2,0,0.2,0.1l0.1,0.2c0.1,0.2,0.3,0.2,0.4,0l0,0c0.1-0.2,0.3-0.2,0.4,0c0.3,0.6,1.1,1.7,3.6,2.5
					c3.5,1.1,5.7,2.9,5.5,5.5c0,0.2,0.1,0.3,0.3,0.2c0.3-0.1,0.7-0.1,1.2,0.4c0.9,1,0.2,3.1-2.2,4.6c-0.1,0.1-0.1,0.2,0,0.3
					c0.4,0.3,0.9,1-0.8,1.6c-1.7,0.6-2.6,0.4-2.9,0.3c-0.1,0-0.1-0.1-0.1-0.2l0.4-2.2c0-0.1-0.1-0.2-0.2-0.2L391.3,152.5z"/>
				
					<linearGradient id="SVGID_20_" gradientUnits="userSpaceOnUse" x1="6775.4683" y1="1857.1954" x2="6782.6328" y2="1841.8425" gradientTransform="matrix(-0.9914 -0.1306 -0.1306 0.9914 7514.9878 -288.1681)">
					<stop  offset="0" style="stop-color:#FF928E"/>
					<stop  offset="1" style="stop-color:#FEB3B1"/>
				</linearGradient>
				<path class="st25" d="M391.2,152.9c0,0,1.2-3,2.5-1.9c1.3,1.1-1.2,3.4-2.3,3.3L391.2,152.9z"/>
			</g>
		</g>
		<g>
			<g>
				
					<linearGradient id="SVGID_21_" gradientUnits="userSpaceOnUse" x1="-8111.0439" y1="-2122.1089" x2="-8141.4224" y2="-2092.7388" gradientTransform="matrix(1.388 -6.860000e-02 6.850000e-02 1.3855 14209.7861 -29.3981)">
					<stop  offset="0" style="stop-color:#4042E2"/>
					<stop  offset="1" style="stop-color:#4F52FF"/>
				</linearGradient>
				<path class="st26" d="M376.2,188.8C376.2,188.8,376.2,188.8,376.2,188.8l-22.7,0c-0.6,0-1-0.5-1-1c0-0.6,0.5-1,1-1l22.7,0
					c0.6,0,1,0.5,1,1C377.2,188.3,376.8,188.8,376.2,188.8z"/>
			</g>
			<g>
				
					<linearGradient id="SVGID_22_" gradientUnits="userSpaceOnUse" x1="-5115.9224" y1="-4683.8975" x2="-5146.2998" y2="-4654.5288" gradientTransform="matrix(-0.6475 -1.2297 1.2274 -0.6463 -601.9005 -10257.8311)">
					<stop  offset="0" style="stop-color:#4042E2"/>
					<stop  offset="1" style="stop-color:#4F52FF"/>
				</linearGradient>
				<path class="st27" d="M344.7,166.6C344.7,166.6,344.7,166.6,344.7,166.6l9.6,20.6c0.2,0.5,0,1.1-0.5,1.3c-0.5,0.2-1.1,0-1.3-0.5
					l-9.5-20.6c-0.2-0.5,0-1.1,0.5-1.3C343.9,165.9,344.5,166.1,344.7,166.6z"/>
			</g>
		</g>
		<g>
			<path class="st4" d="M366.1,189.9c0.1,0.4,9.6,35.9,12,44.9c0.3,1-0.5,2.1-1.6,2.1l0,0c-0.7,0-1.4-0.5-1.6-1.2l-10.5-42.6
				L366.1,189.9z"/>
			<path class="st4" d="M360.9,189.9c-0.1,0.4-9.6,35.9-12,44.9c-0.3,1,0.5,2.1,1.6,2.1l0,0c0.7,0,1.4-0.5,1.6-1.2l10.5-42.6
				L360.9,189.9z"/>
			<path class="st4" d="M360.6,188.8h5.9v4.7c0,0.7-0.5,1.2-1.2,1.2h-0.8v10.6c0,0.5-0.4,0.9-0.9,0.9l0,0c-0.5,0-0.9-0.4-0.9-0.9
				v-10.6h-0.4c-0.9,0-1.6-0.7-1.6-1.6V188.8z"/>
			<linearGradient id="SVGID_23_" gradientUnits="userSpaceOnUse" x1="366.7882" y1="163.1179" x2="364.946" y2="184.6108">
				<stop  offset="0" style="stop-color:#09005D"/>
				<stop  offset="1" style="stop-color:#1A0F91"/>
			</linearGradient>
			<path class="st28" d="M380.9,187.6H348c-0.5,0-0.9,0.3-1,0.8l-0.5,1.8c-0.2,0.6,0.3,1.3,1,1.3l33.8-0.2c0.7,0,1.1-0.6,1-1.3
				l-0.4-1.6C381.8,187.9,381.4,187.6,380.9,187.6z"/>
		</g>
	</g>
	<g>
		<rect x="23" y="188.1" class="st1" width="4.5" height="63.5"/>
		<rect x="30.5" y="210" class="st1" width="4.5" height="41.7"/>
		<rect x="38" y="156" class="st1" width="4.5" height="95.7"/>
		<rect x="45.5" y="228.7" class="st1" width="4.5" height="23"/>
		<rect x="53" y="168.8" class="st1" width="4.5" height="82.9"/>
		<rect x="60.5" y="183.2" class="st1" width="4.5" height="68.5"/>
		<rect x="68" y="198.8" class="st1" width="4.5" height="52.9"/>
		<rect x="75.5" y="136.7" class="st1" width="4.5" height="115"/>
		<rect x="83" y="148.8" class="st1" width="4.5" height="102.8"/>
		<rect x="90.5" y="167.3" class="st1" width="4.5" height="84.4"/>
		<rect x="98" y="230.8" class="st1" width="4.5" height="20.8"/>
		<rect x="105.5" y="190.3" class="st1" width="4.5" height="61.3"/>
	</g>
	<g>
		<path class="st29" d="M313.4,226.4l-1.1-0.6c-0.1-0.1-0.2-0.2-0.1-0.3c0.1-0.1,0.2-0.2,0.3-0.1l0,0l0,0l1.1,0.6l0,0
			c0.1,0.1,0.2,0.2,0.1,0.3C313.6,226.4,313.5,226.4,313.4,226.4z"/>
		<path class="st29" d="M309.8,224.3l-1-0.7c-0.1-0.1-0.1-0.2-0.1-0.3c0.1-0.1,0.2-0.1,0.3-0.1l0,0l0,0l1,0.7l0,0
			c0.1,0.1,0.1,0.2,0.1,0.3C310.1,224.4,309.9,224.4,309.8,224.3z"/>
		<path class="st29" d="M306.4,221.9l-1-0.8c-0.1-0.1-0.1-0.3,0-0.4c0.1-0.1,0.3-0.1,0.4,0l0,0l0,0l0.9,0.8l0,0
			c0.1,0.1,0.1,0.2,0,0.4C306.7,222,306.5,222,306.4,221.9z"/>
		<path class="st29" d="M303.3,219.2l-0.9-0.9c-0.1-0.1-0.1-0.3,0-0.4c0.1-0.1,0.3-0.1,0.4,0l0,0l0,0l0.9,0.9l0,0
			c0.1,0.1,0.1,0.3,0,0.4C303.6,219.3,303.4,219.3,303.3,219.2z"/>
		<path class="st29" d="M300.5,216.2l-0.8-1c-0.1-0.1-0.1-0.3,0-0.4c0.1-0.1,0.3-0.1,0.4,0l0,0l0,0l0.8,0.9l0,0
			c0.1,0.1,0.1,0.3,0,0.4C300.7,216.3,300.6,216.3,300.5,216.2z"/>
		<path class="st29" d="M297.9,212.9l-0.7-1c-0.1-0.1-0.1-0.3,0.1-0.4c0.1-0.1,0.3-0.1,0.4,0.1l0,0l0,0l0.7,1l0,0
			c0.1,0.1,0.1,0.3-0.1,0.4C298.2,213.1,298,213,297.9,212.9z"/>
		<path class="st29" d="M295.6,209.4l-0.6-1.1c-0.1-0.2,0-0.3,0.1-0.4c0.2-0.1,0.3,0,0.4,0.1l0,0l0,0l0.6,1.1l0,0
			c0.1,0.1,0,0.3-0.1,0.4C295.9,209.6,295.7,209.6,295.6,209.4z"/>
		<path class="st29" d="M293.7,205.7l-0.5-1.1c-0.1-0.2,0-0.4,0.2-0.4c0.2-0.1,0.4,0,0.4,0.2l0,0l0,0l0.5,1.1l0,0
			c0.1,0.2,0,0.4-0.2,0.4C294,206,293.8,205.9,293.7,205.7z"/>
		<path class="st29" d="M292.1,201.9l-0.4-1.2c-0.1-0.2,0-0.4,0.2-0.4s0.4,0,0.4,0.2l0,0l0,0l0.4,1.2l0,0c0.1,0.2,0,0.4-0.2,0.4
			C292.3,202.2,292.2,202.1,292.1,201.9z"/>
		<path class="st29" d="M290.8,198l-0.3-1.2c0-0.2,0.1-0.4,0.3-0.4c0.2,0,0.4,0.1,0.4,0.3l0,0l0,0l0.3,1.2l0,0
			c0,0.2-0.1,0.4-0.3,0.4C291,198.3,290.9,198.2,290.8,198z"/>
		<path class="st29" d="M289.9,193.9l-0.2-1.2c0-0.2,0.1-0.4,0.3-0.4c0.2,0,0.4,0.1,0.4,0.3l0,0l0,0l0.2,1.2l0,0
			c0,0.2-0.1,0.4-0.3,0.4C290.1,194.3,289.9,194.1,289.9,193.9z"/>
		<path class="st29" d="M289.3,189.8l-0.1-1.2c0-0.2,0.1-0.4,0.3-0.4c0.2,0,0.4,0.1,0.4,0.3l0,0l0,0l0.1,1.2l0,0
			c0,0.2-0.1,0.4-0.3,0.4C289.5,190.2,289.3,190,289.3,189.8z"/>
		<path class="st29" d="M289.1,185.7l0-1.2c0-0.2,0.2-0.4,0.4-0.4c0.2,0,0.4,0.2,0.4,0.4l0,0l0,0l0,1.2l0,0c0,0.2-0.2,0.4-0.4,0.4
			C289.3,186,289.1,185.9,289.1,185.7z"/>
		<path class="st29" d="M289.3,181.5l0.1-1.2c0-0.2,0.2-0.4,0.4-0.4c0.2,0,0.4,0.2,0.4,0.4l0,0l0,0l-0.1,1.2l0,0
			c0,0.2-0.2,0.4-0.4,0.4C289.4,181.9,289.3,181.7,289.3,181.5z"/>
		<path class="st29" d="M289.9,177.4l0.2-1.2c0-0.2,0.3-0.4,0.5-0.3c0.2,0,0.4,0.3,0.3,0.5l0,0l0,0l-0.2,1.2l0,0
			c0,0.2-0.3,0.4-0.5,0.3C290,177.8,289.8,177.6,289.9,177.4z"/>
		<path class="st29" d="M290.8,173.3l0.3-1.2c0.1-0.2,0.3-0.4,0.5-0.3c0.2,0.1,0.4,0.3,0.3,0.5l0,0l0,0l-0.3,1.2l0,0
			c-0.1,0.2-0.3,0.4-0.5,0.3C290.8,173.8,290.7,173.6,290.8,173.3z"/>
		<path class="st29" d="M292,169.4l0.4-1.2c0.1-0.2,0.3-0.3,0.6-0.3c0.2,0.1,0.3,0.3,0.3,0.6l0,0l0,0l-0.4,1.1l0,0
			c-0.1,0.2-0.3,0.3-0.6,0.3C292.1,169.9,292,169.6,292,169.4z"/>
		<path class="st29" d="M293.6,165.5l0.5-1.1c0.1-0.2,0.4-0.3,0.6-0.2c0.2,0.1,0.3,0.4,0.2,0.6l0,0l0,0l-0.5,1.1l0,0
			c-0.1,0.2-0.4,0.3-0.6,0.2C293.6,166,293.5,165.7,293.6,165.5z"/>
		<path class="st29" d="M295.5,161.8l0.6-1.1c0.1-0.2,0.4-0.3,0.6-0.2c0.2,0.1,0.3,0.4,0.2,0.6l0,0l0,0l-0.6,1.1l0,0
			c-0.1,0.2-0.4,0.3-0.6,0.2C295.4,162.3,295.4,162,295.5,161.8z"/>
		<path class="st29" d="M297.7,158.3l0.7-1c0.2-0.2,0.5-0.3,0.7-0.1c0.2,0.2,0.3,0.5,0.1,0.7l0,0l0,0l-0.7,1l0,0
			c-0.2,0.2-0.5,0.3-0.7,0.1C297.6,158.8,297.5,158.5,297.7,158.3z"/>
		<path class="st29" d="M300.1,154.9l0.8-1c0.2-0.2,0.5-0.3,0.7-0.1c0.2,0.2,0.3,0.5,0.1,0.7l0,0l0,0l-0.8,1l0,0
			c-0.2,0.2-0.5,0.2-0.7,0.1C299.9,155.4,299.9,155.1,300.1,154.9z"/>
		<path class="st29" d="M302.7,151.7l0.8-0.9c0.2-0.2,0.5-0.2,0.7,0c0.2,0.2,0.2,0.5,0,0.7l0,0l0,0l-0.8,0.9l0,0
			c-0.2,0.2-0.5,0.2-0.7,0C302.6,152.2,302.6,151.9,302.7,151.7z"/>
		<path class="st29" d="M305.6,148.7l0.9-0.9c0.2-0.2,0.5-0.2,0.7,0c0.2,0.2,0.2,0.5,0,0.7l0,0l0,0l-0.9,0.8l0,0
			c-0.2,0.2-0.5,0.2-0.7,0C305.4,149.2,305.4,148.9,305.6,148.7z"/>
		<path class="st29" d="M308.8,145.9l1-0.8c0.2-0.2,0.6-0.1,0.8,0.1c0.2,0.2,0.1,0.6-0.1,0.8l0,0l0,0l-1,0.8l0,0
			c-0.2,0.2-0.6,0.1-0.8-0.1C308.5,146.5,308.5,146.1,308.8,145.9z"/>
		<path class="st29" d="M312.1,143.4l1-0.7c0.3-0.2,0.6-0.1,0.8,0.1c0.2,0.3,0.1,0.6-0.1,0.8l0,0l0,0l-1,0.7l0,0
			c-0.3,0.2-0.6,0.1-0.8-0.1C311.8,143.9,311.8,143.6,312.1,143.4z"/>
		<path class="st29" d="M315.6,141.2l1.1-0.6c0.3-0.2,0.6-0.1,0.8,0.2c0.2,0.3,0.1,0.6-0.2,0.8l0,0l0,0l-1.1,0.6l0,0
			c-0.3,0.2-0.6,0.1-0.8-0.2C315.2,141.7,315.3,141.3,315.6,141.2z"/>
		<path class="st29" d="M319.3,139.2l1.1-0.5c0.3-0.1,0.6,0,0.8,0.3c0.1,0.3,0,0.6-0.3,0.8l0,0l0,0l-1.1,0.5l0,0
			c-0.3,0.1-0.6,0-0.8-0.3C318.8,139.7,319,139.3,319.3,139.2z"/>
		<path class="st29" d="M323.1,137.5l1.2-0.4c0.3-0.1,0.7,0,0.8,0.3c0.1,0.3,0,0.7-0.3,0.8l0,0l0,0l-1.1,0.4l0,0
			c-0.3,0.1-0.6,0-0.8-0.4C322.6,138,322.8,137.6,323.1,137.5z"/>
		<path class="st29" d="M327,136.2l1.2-0.3c0.3-0.1,0.7,0.1,0.8,0.4s-0.1,0.7-0.4,0.8l0,0l0,0l-1.2,0.3l0,0
			c-0.3,0.1-0.7-0.1-0.7-0.4C326.5,136.6,326.7,136.3,327,136.2z"/>
		<path class="st29" d="M331.1,135.2l1.2-0.2c0.3-0.1,0.7,0.2,0.7,0.5c0.1,0.3-0.2,0.7-0.5,0.7l0,0l0,0l-1.2,0.2l0,0
			c-0.3,0.1-0.7-0.2-0.7-0.5C330.5,135.6,330.7,135.2,331.1,135.2z"/>
		<path class="st29" d="M335.2,134.6l1.3-0.1c0.4,0,0.7,0.2,0.7,0.6c0,0.4-0.2,0.7-0.6,0.7l0,0l0,0l-1.2,0.1l0,0
			c-0.3,0-0.6-0.2-0.7-0.6C334.6,134.9,334.9,134.6,335.2,134.6z"/>
		<path class="st29" d="M339.4,134.5l1.3,0.1c0.4,0,0.6,0.3,0.6,0.7c0,0.4-0.3,0.6-0.7,0.6l0,0l0,0l-1.2-0.1l0,0
			c-0.4,0-0.6-0.3-0.6-0.7C338.8,134.7,339.1,134.5,339.4,134.5z"/>
		<path class="st29" d="M343.6,134.9l1.2,0.2c0.4,0.1,0.6,0.4,0.5,0.8c-0.1,0.4-0.4,0.6-0.8,0.5l0,0l0,0l-1.2-0.2l0,0
			c-0.4-0.1-0.6-0.4-0.5-0.8C342.9,135,343.2,134.8,343.6,134.9z"/>
		<path class="st29" d="M347.7,135.8l1.2,0.4c0.4,0.1,0.6,0.5,0.4,0.9c-0.1,0.4-0.5,0.6-0.9,0.4l0,0l0,0l-1.1-0.4l0,0
			c-0.4-0.1-0.5-0.5-0.4-0.9C347,135.9,347.4,135.7,347.7,135.8z"/>
		<path class="st29" d="M351.7,137.3l1.1,0.5c0.3,0.2,0.5,0.6,0.3,0.9c-0.2,0.3-0.6,0.5-0.9,0.3l0,0l0,0l-1.1-0.5l0,0
			c-0.3-0.2-0.5-0.6-0.3-0.9C350.9,137.3,351.3,137.1,351.7,137.3z"/>
		<path class="st29" d="M355.4,139.3l1.1,0.7c0.3,0.2,0.4,0.7,0.2,1c-0.2,0.3-0.7,0.4-1,0.2l0,0l0,0l-1-0.7l0,0
			c-0.3-0.2-0.4-0.7-0.2-1C354.6,139.2,355,139.1,355.4,139.3z"/>
		<path class="st29" d="M358.8,141.8l0.9,0.9c0.3,0.3,0.3,0.7,0,1c-0.3,0.3-0.7,0.3-1,0l0,0l0,0l-0.9-0.8l0,0c-0.3-0.3-0.3-0.7,0-1
			C358,141.6,358.5,141.5,358.8,141.8z"/>
		<path class="st29" d="M361.7,144.8l0.8,1c0.2,0.3,0.2,0.8-0.1,1c-0.3,0.2-0.8,0.2-1-0.1l0,0l0,0l-0.7-0.9l0,0
			c-0.2-0.3-0.2-0.8,0.1-1C361,144.5,361.5,144.5,361.7,144.8z"/>
		<path class="st29" d="M364.1,148.3l0.6,1.1c0.2,0.4,0,0.8-0.3,1c-0.4,0.2-0.8,0-1-0.3l0,0l0,0l-0.5-1.1l0,0c-0.2-0.4,0-0.8,0.3-1
			C363.5,147.8,363.9,148,364.1,148.3z"/>
		<path class="st29" d="M365.8,152.2l0.4,1.2c0.1,0.4-0.1,0.8-0.5,0.9c-0.4,0.1-0.8-0.1-0.9-0.5l0,0l0,0l-0.3-1.1l0,0
			c-0.1-0.4,0.1-0.8,0.5-0.9C365.3,151.6,365.7,151.9,365.8,152.2z"/>
		<path class="st29" d="M366.8,156.4l0.1,1.3c0,0.4-0.3,0.8-0.7,0.9c-0.4,0-0.8-0.3-0.9-0.7l0,0l0,0l-0.1-1.2l0,0
			c0-0.4,0.3-0.8,0.7-0.8C366.4,155.7,366.7,156,366.8,156.4z"/>
		<path class="st29" d="M367,160.6l-0.1,1.3c0,0.4-0.4,0.8-0.8,0.7c-0.4,0-0.8-0.4-0.7-0.8l0,0l0,0l0.1-1.2l0,0
			c0-0.4,0.4-0.8,0.8-0.7C366.7,159.8,367,160.2,367,160.6z"/>
		<path class="st29" d="M366.4,164.9l-0.3,1.2c-0.1,0.4-0.6,0.7-1,0.6c-0.4-0.1-0.7-0.6-0.6-1l0,0l0,0l0.3-1.1l0,0
			c0.1-0.4,0.6-0.7,1-0.5C366.3,164,366.5,164.5,366.4,164.9z"/>
		<path class="st29" d="M364.9,168.9l-0.6,1.1c-0.2,0.4-0.7,0.5-1.1,0.3c-0.4-0.2-0.5-0.7-0.3-1.1l0,0l0,0l0.6-1l0,0
			c0.2-0.4,0.7-0.5,1.1-0.3C365,168,365.1,168.5,364.9,168.9z"/>
		<path class="st29" d="M362.6,172.5l-0.1,0.2c-0.3,0.4-0.8,0.4-1.2,0.1c-0.4-0.3-0.4-0.8-0.1-1.2l0,0l0,0l0.1-0.2l0,0
			c0.3-0.3,0.8-0.4,1.2-0.1C362.9,171.7,362.9,172.2,362.6,172.5z"/>
	</g>
	<g>
		<linearGradient id="SVGID_24_" gradientUnits="userSpaceOnUse" x1="66.8641" y1="305.2179" x2="101.258" y2="224.7608">
			<stop  offset="0" style="stop-color:#4042E2"/>
			<stop  offset="1" style="stop-color:#4F52FF"/>
		</linearGradient>
		<path class="st30" d="M46.3,231.1c0,0-9.8,5.5-10.7,14.7c-0.8,9.2-0.1,47.5,19.7,57c19.7,9.4,45.9,7.3,55.9,6.2
			s15.5-7.8,16.8-12.5c1.2-4.7,3.2-22.1-7.3-27.7c-10.5-5.6-21.6-14.2-32.6-22.6C77,237.7,58.1,224,46.3,231.1z"/>
		<path class="st1" d="M117.5,271.9c0,0-2.7,0.1-3,5.6c0,0,6.2,5.5,14.5,6.8c0.6,0.1-0.9-4.3-1.1-4.9
			C126.9,276.7,123.5,274.9,117.5,271.9z"/>
		
			<linearGradient id="SVGID_25_" gradientUnits="userSpaceOnUse" x1="210.6587" y1="267.1261" x2="220.685" y2="229.3606" gradientTransform="matrix(1 0 0 1 -105.3078 0)">
			<stop  offset="0" style="stop-color:#09005D"/>
			<stop  offset="1" style="stop-color:#1A0F91"/>
		</linearGradient>
		<path class="st31" d="M87.6,265.5h5.6c0,0,17.2-19,28.5-20.9c0,0,7.9,10-0.4,28.8c-0.7,1.5-2.5,2.2-3.9,1.3
			c-0.4-0.3-0.7-0.6-0.9-1.1l0.7-16c0,0-14.7,12.8-17.2,15.3C97.4,275.3,84.4,273.8,87.6,265.5z"/>
		<path class="st1" d="M141.8,305.4c-2.3-2.1-6.1-4.4-11.5-5l-1.8,1.1c0,0,1.2,1.7,3.3,3.5c2,1.1,5,2.7,7.5,3
			C141.7,308.3,142.1,306.9,141.8,305.4z"/>
		<path class="st4" d="M127.9,279.5c-1.4,0.5-2.1,2.5-5.8,1.2c-3.6-1.3-6.2-3-7.6-4c0,0.3-0.1,0.5-0.1,0.8c0,0,6.5,6.2,14.8,7.5
			c0.6,0.1,1.1-0.5,0.9-1.1C129.9,282.8,129.1,281.2,127.9,279.5z"/>
		<path class="st4" d="M143.6,307.1c-0.5-0.5-1.1-1.1-1.8-1.8c0.2,1.5-0.1,3-2.5,2.6c-2.5-0.3-5.5-1.9-7.5-3
			c2.5,2.1,6.2,4.3,10.9,4.2C143.7,309.1,144.3,307.9,143.6,307.1z"/>
		
			<linearGradient id="SVGID_26_" gradientUnits="userSpaceOnUse" x1="238.5569" y1="276.9908" x2="200.4571" y2="291.3617" gradientTransform="matrix(1 0 0 1 -105.3078 0)">
			<stop  offset="0" style="stop-color:#09005D"/>
			<stop  offset="1" style="stop-color:#1A0F91"/>
		</linearGradient>
		<path class="st32" d="M87.8,269.5l26.2,0.3c0,0,15,12.4,17.7,31.3c0,0,0.5,1.4-2.3,1.6c0,0-9.1-5.9-15-16.4
			c-7.2-12.8-21.6-7.1-21.6-7.1c-4.7-3.4-11.4-4.1-16.4-5.2L87.8,269.5z"/>
		
			<linearGradient id="SVGID_27_" gradientUnits="userSpaceOnUse" x1="208.8679" y1="252.9399" x2="196.5022" y2="267.6451" gradientTransform="matrix(1 0 0 1 -105.3078 0)">
			<stop  offset="0" style="stop-color:#FF928E"/>
			<stop  offset="1" style="stop-color:#FEB3B1"/>
		</linearGradient>
		<path class="st33" d="M88.4,248.4c0,0,2.8,14.2,16.7,19.8l4.9-0.6l1.2,1.9l-11.6,0.4c0,0-9.9-3.9-15.1-14.6
			C84.4,254.9,81.5,248.9,88.4,248.4z"/>
		
			<linearGradient id="SVGID_28_" gradientUnits="userSpaceOnUse" x1="183.6503" y1="259.2242" x2="203.4627" y2="328.7326" gradientTransform="matrix(1 0 0 1 -105.3078 0)">
			<stop  offset="0" style="stop-color:#FE7062"/>
			<stop  offset="1" style="stop-color:#FF928E"/>
		</linearGradient>
		<path class="st34" d="M90,269.3c0,0-3.2-8.7-3.9-17.2c0,0,2.4-2,3.8-2.9c0.5-0.3,0.7-0.9,0.4-1.4c-1.1-2.2-7.6-11-8.1-11.1
			c-2.7-0.7-13.6-5.9-21.3,4.7c-3.3,4.5,0.7,18.4,15.6,32.8l3.1,0.6L90,269.3z"/>
		<linearGradient id="SVGID_29_" gradientUnits="userSpaceOnUse" x1="95.2042" y1="218.1593" x2="89.4724" y2="275.886">
			<stop  offset="0" style="stop-color:#FF928E"/>
			<stop  offset="1" style="stop-color:#FEB3B1"/>
		</linearGradient>
		<path class="st35" d="M77.6,254c0,0,8.9,10.6,20.3,12.1c0,0,2.9-2.7,5.1-1.7c2.2,1,5.2,5.2,5.2,5.2H93.6c0,0-13.9-0.5-20.8-8.9
			C73.4,257.8,75,256,77.6,254z"/>
		<linearGradient id="SVGID_30_" gradientUnits="userSpaceOnUse" x1="74.4926" y1="220.1306" x2="74.4926" y2="260.6622">
			<stop  offset="0" style="stop-color:#FF928E"/>
			<stop  offset="1" style="stop-color:#FEB3B1"/>
		</linearGradient>
		<path class="st36" d="M72.4,229.3l-2,6.5c-0.1,0.3,0,0.6,0.3,0.8c0.9,0.6,3.4,1.9,6.8,0.7c0.4-0.1,0.6-0.5,0.7-0.9l0.5-5.7
			L72.4,229.3z"/>
		<g>
			
				<linearGradient id="SVGID_31_" gradientUnits="userSpaceOnUse" x1="482.207" y1="-1115.83" x2="478.5224" y2="-1132.2063" gradientTransform="matrix(0.776 -0.6308 0.6308 0.776 951.7289 1823.334)">
				<stop  offset="0" style="stop-color:#FF928E"/>
				<stop  offset="1" style="stop-color:#FEB3B1"/>
			</linearGradient>
			<path class="st37" d="M80.6,218.4c0,0,3.5,5.8,2.8,9.1c-0.7,3.2-5.6,5.2-10.1,2.3l-2.9-8.9L80.6,218.4z"/>
			
				<linearGradient id="SVGID_32_" gradientUnits="userSpaceOnUse" x1="327.8263" y1="-1811.9286" x2="331.557" y2="-1790.6495" gradientTransform="matrix(0.776 -0.6308 0.6308 0.776 951.7289 1823.334)">
				<stop  offset="0" style="stop-color:#09005D"/>
				<stop  offset="1" style="stop-color:#1A0F91"/>
			</linearGradient>
			<path class="st38" d="M73.7,225.5c0.2-0.1,0.3-0.3,0.2-0.5c-0.3-0.5-0.9-1.6-1.1-2.6c0,0-0.8-0.5,2-1.1c2.8-0.5,6.9-1.4,7.9-3.7
				c0.9-2.2-1-8.1-4.7-3.7c-0.1,0.2-0.4,0.2-0.5,0c-0.5-0.8-2-2.4-4.1-1.6c-2,0.8-2.3,2.2-2.3,3c0,0.2-0.2,0.4-0.4,0.3
				c-1-0.2-3.4-0.5-4.6,1.9c-1,2-0.5,3.1,0.1,3.7c0.2,0.2,0.1,0.5-0.2,0.5c-0.7,0.2-1.5,0.7-1.5,2.2c0,2.1,2.4,2,3.1,2
				c0.1,0,0.2,0,0.3,0.1c0.5,0.7,3,3.5,5.8,4c0.2,0,0.4-0.2,0.4-0.4l-1.1-3.6c0-0.2,0-0.3,0.2-0.4L73.7,225.5z"/>
			
				<linearGradient id="SVGID_33_" gradientUnits="userSpaceOnUse" x1="477.8373" y1="-1114.8474" x2="474.1526" y2="-1131.2239" gradientTransform="matrix(0.776 -0.6308 0.6308 0.776 951.7289 1823.334)">
				<stop  offset="0" style="stop-color:#FF928E"/>
				<stop  offset="1" style="stop-color:#FEB3B1"/>
			</linearGradient>
			<path class="st39" d="M74.1,226.1c0,0-3-2.2-3.3-0.5c-0.3,1.8,2.6,2.7,4.2,2.1L74.1,226.1z"/>
		</g>
		<path class="st2" d="M107.5,270.4l6.6-21.9c0.3-0.9,1.1-1.5,2-1.6l8.9-0.6c0.9-0.1,1.6,0.8,1.3,1.7l-7.4,21
			c-0.2,0.7-0.8,1.2-1.6,1.2l-8.7,1L107.5,270.4z"/>
		<path class="st1" d="M119.7,255.9c-0.5,1-1.3,1.6-1.9,1.3c-0.6-0.3-0.6-1.3-0.1-2.3c0.5-1,1.3-1.6,1.9-1.3
			C120.1,253.9,120.1,254.9,119.7,255.9z"/>
		<path class="st2" d="M108.6,271.1C108.6,271.1,108.6,271.1,108.6,271.1l-18.7-0.9c-0.5,0-0.8-0.4-0.8-0.9c0-0.5,0.4-0.8,0.9-0.8
			l18.6,0.9c0.5,0,0.8,0.4,0.8,0.9C109.4,270.7,109,271.1,108.6,271.1z"/>
		<linearGradient id="SVGID_34_" gradientUnits="userSpaceOnUse" x1="84.3326" y1="247.5057" x2="86.2562" y2="247.5057">
			<stop  offset="0" style="stop-color:#E1473D"/>
			<stop  offset="1" style="stop-color:#E9605A"/>
		</linearGradient>
		<path class="st40" d="M86.1,252.3L86.1,252.3c-0.1,0-0.2-0.1-0.2-0.2c0-3.9-1.5-9-1.5-9.1c0-0.1,0-0.2,0.1-0.3
			c0.1,0,0.2,0,0.3,0.1c0,0.1,1.5,5.3,1.5,9.2C86.3,252.2,86.2,252.3,86.1,252.3z"/>
		<linearGradient id="SVGID_35_" gradientUnits="userSpaceOnUse" x1="71.8676" y1="249.6235" x2="77.7782" y2="249.6235">
			<stop  offset="0" style="stop-color:#E1473D"/>
			<stop  offset="1" style="stop-color:#E9605A"/>
		</linearGradient>
		<path class="st41" d="M77.6,254.2c-0.1,0-0.1,0-0.2-0.1c0-0.1-4.1-5.2-5.5-8.8c0-0.1,0-0.2,0.1-0.3c0.1,0,0.2,0,0.3,0.1
			c1.4,3.5,5.4,8.6,5.5,8.7c0.1,0.1,0.1,0.2,0,0.3C77.7,254.2,77.6,254.2,77.6,254.2z"/>
		<linearGradient id="SVGID_36_" gradientUnits="userSpaceOnUse" x1="62.0722" y1="257.1276" x2="72.6661" y2="257.1276">
			<stop  offset="0" style="stop-color:#E1473D"/>
			<stop  offset="1" style="stop-color:#E9605A"/>
		</linearGradient>
		<path class="st42" d="M71.9,262.1l-0.2-0.1c-5.9-2.5-9.6-9.6-9.6-9.7c-0.1-0.1,0-0.2,0.1-0.3c0.1-0.1,0.2,0,0.3,0.1
			c0,0.1,3.6,6.9,9.2,9.4l0.6-0.8c0.1-0.1,0.2-0.1,0.3,0c0.1,0.1,0.1,0.2,0,0.3L71.9,262.1z"/>
	</g>
	<g>
		<g>
			<rect x="335.3" y="280.7" class="st1" width="2.2" height="24.2"/>
			<path class="st1" d="M346.2,305.3h-19.6v-0.8c0-0.4,0.3-0.7,0.7-0.7h18.2c0.4,0,0.7,0.3,0.7,0.7V305.3z"/>
			<path class="st1" d="M349.1,279.8c0,1.3-1.1,2.4-2.4,2.4h-19.8c-1.3,0-2.4-1.1-2.4-2.4v-2.2c0-1.3,1.1-2.4,2.4-2.4h19.8
				c1.3,0,2.4,1.1,2.4,2.4V279.8z"/>
		</g>
		<g>
			<linearGradient id="SVGID_37_" gradientUnits="userSpaceOnUse" x1="319.8384" y1="278.2213" x2="310.013" y2="239.8408">
				<stop  offset="0" style="stop-color:#FF928E"/>
				<stop  offset="1" style="stop-color:#FEB3B1"/>
			</linearGradient>
			<path class="st43" d="M319.8,264.5c0,0-3.3,0.5-7.1,3c-0.6,0.4-0.9,1.1-0.8,1.8c0.4,3.5,2.3,15,8.4,26.2c0.3,0.6,0.4,1.3,0.3,1.9
				l-1.1,4.9l-2,1.8h5l3.4-9.1l-1.4-0.5c-1.1-0.4-1.9-1.4-1.9-2.5l-0.2-9.7c0.1-4.3-2.7-7.3-2.7-7.3l8-0.4L319.8,264.5z"/>
			<linearGradient id="SVGID_38_" gradientUnits="userSpaceOnUse" x1="321.6819" y1="294.7554" x2="319.3403" y2="330.6596">
				<stop  offset="0" style="stop-color:#09005D"/>
				<stop  offset="1" style="stop-color:#1A0F91"/>
			</linearGradient>
			<path class="st44" d="M315.6,305.1c-0.5,0.6,4.9,1.4,7.7,0.1c0,0,3.8-6.6,3.8-10c0,0-0.3-0.7-2.5-0.5c0,0-1.3,7.8-2.6,8.7
				c-1.3,0.9-3.8,0.1-3.8,0.1S316.3,304.2,315.6,305.1z"/>
			<linearGradient id="SVGID_39_" gradientUnits="userSpaceOnUse" x1="295.1969" y1="318.4348" x2="318.225" y2="274.2207">
				<stop  offset="0" style="stop-color:#FF928E"/>
				<stop  offset="1" style="stop-color:#FEB3B1"/>
			</linearGradient>
			<path class="st45" d="M326.8,275.2c0-0.1-8.7-1-8.7-1s0.3,2.6-0.6,6.2c-0.9,3.6-13.5,19.2-13.5,19.2l1.3,4.2
				c-4.1,1.4-8.1,1.7-12.1,0.7l8.2-4.9c0,0,7.7-26.2,12.4-30.9l8.6-3L326.8,275.2z"/>
			<linearGradient id="SVGID_40_" gradientUnits="userSpaceOnUse" x1="334.5134" y1="262.6712" x2="340.5486" y2="240.4163">
				<stop  offset="0" style="stop-color:#FE7062"/>
				<stop  offset="1" style="stop-color:#FF928E"/>
			</linearGradient>
			<path class="st46" d="M346.2,260c0,0,5,7.4,5.4,10.8c0.4,3.4-1.4,4.7-6.6,5c-5.2,0.2-19.1,0.2-19.1,0.2L314,265.8
				c0,0,8.7-3.1,10.9-4C327.1,260.9,346.2,260,346.2,260z"/>
			<linearGradient id="SVGID_41_" gradientUnits="userSpaceOnUse" x1="299.0859" y1="293.2817" x2="296.7443" y2="329.1859">
				<stop  offset="0" style="stop-color:#09005D"/>
				<stop  offset="1" style="stop-color:#1A0F91"/>
			</linearGradient>
			<path class="st47" d="M304.9,302.5c0,0,1.4,1.4,0.5,2.9c0,0-11.3,2-14.4,1.1c0,0,0.6-1.5,4.1-3.1l-0.3,0.2
				c-0.3,0.2-0.1,0.8,0.3,0.7C297.3,304.2,302,303.8,304.9,302.5z"/>
		</g>
		<g>
			<linearGradient id="SVGID_42_" gradientUnits="userSpaceOnUse" x1="334.2225" y1="244.7711" x2="352.0733" y2="283.6228">
				<stop  offset="0" style="stop-color:#FE7062"/>
				<stop  offset="1" style="stop-color:#FF928E"/>
			</linearGradient>
			<path class="st48" d="M332.7,259c0,0-5.8-5.5-8.6-9.2c-1.5-2-2-4.6-1.3-7c1.3-4.4,3.6-8.9,3.8-9.6c0.3-1.1,6.8-1,6.8-1
				s12.8,8.3,17.8,22.3l-5.6,1.8c0,0-3.3-5.6-6.6-9.1c0,0,5.7,7.5,5.9,10.6L332.7,259z"/>
			<linearGradient id="SVGID_43_" gradientUnits="userSpaceOnUse" x1="328.9656" y1="220.2897" x2="330.1938" y2="242.7038">
				<stop  offset="0" style="stop-color:#FF928E"/>
				<stop  offset="1" style="stop-color:#FEB3B1"/>
			</linearGradient>
			<path class="st49" d="M325.8,227.2c0.1,0.2,1.8,5.8,1.9,6c0.1,0.1,3.7,0.3,5.4-0.8l-2.9-6L325.8,227.2z"/>
			<linearGradient id="SVGID_44_" gradientUnits="userSpaceOnUse" x1="333.224" y1="214.1397" x2="325.8547" y2="227.5137">
				<stop  offset="0" style="stop-color:#FF928E"/>
				<stop  offset="1" style="stop-color:#FEB3B1"/>
			</linearGradient>
			<path class="st50" d="M328.6,215.4c0,0-3.1,1.3-5.1,5.7c-2.1,4.4-0.5,6.5,1.4,6.7c1.9,0.3,4.9,0.2,7.9-2.6
				C335.9,222.4,332.6,213.9,328.6,215.4z"/>
			<linearGradient id="SVGID_45_" gradientUnits="userSpaceOnUse" x1="349.623" y1="200.1021" x2="324.7276" y2="226.0033">
				<stop  offset="0" style="stop-color:#09005D"/>
				<stop  offset="1" style="stop-color:#1A0F91"/>
			</linearGradient>
			<path class="st51" d="M330.8,222.9c0,0,2.3-6.5-3.4-6.5l-1.3,0.9c0,0-2.1-3.6,1.3-5.3c3.5-1.7,8.6-0.2,10.1,4.5
				c1.5,4.6,0.6,7.6-1.8,9.9c-2.4,2.2-3.4-0.3-3.4-0.3s1.3-2.1,0.8-3.2c-0.5-1.1-1.8,0.2-1.8,0.2L330.8,222.9z"/>
			<linearGradient id="SVGID_46_" gradientUnits="userSpaceOnUse" x1="336.8497" y1="216.1376" x2="329.4804" y2="229.5116">
				<stop  offset="0" style="stop-color:#FF928E"/>
				<stop  offset="1" style="stop-color:#FEB3B1"/>
			</linearGradient>
			<path class="st52" d="M331.4,223.6c0,0,1.2-3.3,2.7-2c1.6,1.3-1.3,3.1-2.4,3.6L331.4,223.6z"/>
			<linearGradient id="SVGID_47_" gradientUnits="userSpaceOnUse" x1="359.8088" y1="247.9493" x2="332.7891" y2="260.538">
				<stop  offset="0" style="stop-color:#FF928E"/>
				<stop  offset="1" style="stop-color:#FEB3B1"/>
			</linearGradient>
			<path class="st53" d="M321,259.4l4.3-4.1l5.9,2.5c0,0,5.9,0.9,9.2,0c3.3-0.9,3.3-0.9,3.3-0.9l7.6-2.4l1.2,3.4
				c0.3,0.9,0,1.8-0.7,2.3c-0.7,0.5-1.4,1-1.9,1.2c-1,0.4-24.6-0.3-24.6-0.3L321,259.4z"/>
			<linearGradient id="SVGID_48_" gradientUnits="userSpaceOnUse" x1="360.6881" y1="210.7375" x2="335.7928" y2="236.6387">
				<stop  offset="0" style="stop-color:#09005D"/>
				<stop  offset="1" style="stop-color:#1A0F91"/>
			</linearGradient>
			<path class="st54" d="M337,217.2c-0.7-0.8-0.3-2,0.8-2.2c3.4-0.5,8.5,0,10.6,7.2c2.4,8.1,4,12.1,5.6,12.9
				c1.1,0.5,1.1,1.9,0.1,2.4c-0.8,0.4-1.9,0.5-3.5,0.1C338.2,234.9,341.3,221.6,337,217.2z"/>
		</g>
		<g>
			
				<linearGradient id="SVGID_49_" gradientUnits="userSpaceOnUse" x1="281.2636" y1="406.503" x2="261.3976" y2="411.9478" gradientTransform="matrix(0.9988 -4.940000e-02 4.940000e-02 0.9988 40.2206 -137.3395)">
				<stop  offset="0" style="stop-color:#09005D"/>
				<stop  offset="1" style="stop-color:#1A0F91"/>
			</linearGradient>
			<path class="st55" d="M337,261.3C337,261.3,337,261.3,337,261.3l-24.7,0c-0.6,0-1.1-0.5-1.1-1.1c0-0.6,0.5-1.1,1.1-1.1l24.7,0
				c0.6,0,1.1,0.5,1.1,1.1C338.1,260.8,337.6,261.3,337,261.3z"/>
			<linearGradient id="SVGID_50_" gradientUnits="userSpaceOnUse" x1="297.5407" y1="262.6778" x2="310.6418" y2="244.3909">
				<stop  offset="0" style="stop-color:#09005D"/>
				<stop  offset="1" style="stop-color:#1A0F91"/>
			</linearGradient>
			<path class="st56" d="M290.2,238.9h20.5c1.5,0,2.9,0.9,3.5,2.2l9.5,20.1h-25.5c-1,0-1.9-0.6-2.2-1.5l-7.4-18.6
				C288.2,240.1,289,238.9,290.2,238.9z"/>
			<linearGradient id="SVGID_51_" gradientUnits="userSpaceOnUse" x1="305.8188" y1="245.6573" x2="299.423" y2="255.2886">
				<stop  offset="0" style="stop-color:#4042E2"/>
				<stop  offset="1" style="stop-color:#4F52FF"/>
			</linearGradient>
			<path class="st57" d="M304.6,249.3c0.4,1.4,0.1,2.7-0.7,3c-0.9,0.3-1.9-0.6-2.3-2c-0.4-1.4-0.1-2.7,0.7-3
				C303.1,247,304.2,247.9,304.6,249.3z"/>
		</g>
		<g>
			<g>
				<path class="st1" d="M273.4,309.9c-0.1,0-0.2,0-0.4-0.1c-0.5-0.2-0.7-0.7-0.5-1.2l18.9-45c0.2-0.5,0.7-0.7,1.2-0.5
					c0.5,0.2,0.7,0.7,0.5,1.2l-18.9,45C274.1,309.7,273.7,309.9,273.4,309.9z"/>
				<path class="st1" d="M294.7,309.9c-0.3,0-0.7-0.2-0.8-0.6l-18.9-45c-0.2-0.5,0-1,0.5-1.2c0.5-0.2,1,0,1.2,0.5l18.9,45
					c0.2,0.5,0,1-0.5,1.2C295,309.9,294.8,309.9,294.7,309.9z"/>
				<path class="st1" d="M348,309.9c-0.1,0-0.2,0-0.4-0.1c-0.5-0.2-0.7-0.7-0.5-1.2l18.9-45c0.2-0.5,0.7-0.7,1.2-0.5
					c0.5,0.2,0.7,0.7,0.5,1.2l-18.9,45C348.6,309.7,348.3,309.9,348,309.9z"/>
				<path class="st1" d="M369.3,309.9c-0.3,0-0.7-0.2-0.8-0.6l-18.9-45c-0.2-0.5,0-1,0.5-1.2c0.5-0.2,1,0,1.2,0.5l18.9,45
					c0.2,0.5,0,1-0.5,1.2C369.5,309.9,369.4,309.9,369.3,309.9z"/>
			</g>
			<path class="st2" d="M371.5,262.2c0.1-0.3,0-0.6-0.2-0.8c-0.2-0.2-0.5-0.3-0.8-0.3H267.6c-0.4,0-0.8,0.2-1,0.5
				c-0.2,0.3-0.2,0.7-0.1,1.1l1.1,2.3c0.3,0.5,0.8,0.8,1.4,0.8h100.7c0.6,0,1.1-0.4,1.2-0.9L371.5,262.2z"/>
		</g>
	</g>
	<g>
		<linearGradient id="SVGID_52_" gradientUnits="userSpaceOnUse" x1="197.5831" y1="237.5672" x2="179.9784" y2="294.4751">
			<stop  offset="0" style="stop-color:#FE7062"/>
			<stop  offset="1" style="stop-color:#FF928E"/>
		</linearGradient>
		<path class="st58" d="M213.5,229.3c0,7.1-5.8,12.9-12.9,12.9c-7.1,0-14.1-5.4-14.1-12.5c0-7.1,7-13.3,14.1-13.3
			C207.8,216.5,213.5,222.2,213.5,229.3z"/>
		<path class="st59" d="M198.3,237.3L198.3,237.3c-0.9,0-1.6-0.7-1.7-1.5l-1.2-10.8c-0.1-1.1,0.8-2,1.8-1.9l1.2,0.1
			c0.9,0.1,1.6,0.8,1.6,1.7v10.8C200,236.5,199.3,237.3,198.3,237.3z"/>
		<path class="st59" d="M202,224.6v10.9c0,0.9,0.8,1.7,1.7,1.7l0.3,0c0.9,0,1.7-0.7,1.7-1.6l0.4-10.9c0-1-0.7-1.8-1.7-1.8h-0.7
			C202.8,222.9,202,223.7,202,224.6z"/>
		<g>
			<linearGradient id="SVGID_53_" gradientUnits="userSpaceOnUse" x1="225.2431" y1="246.124" x2="207.6384" y2="303.032">
				<stop  offset="0" style="stop-color:#FE7062"/>
				<stop  offset="1" style="stop-color:#FF928E"/>
			</linearGradient>
			<path class="st60" d="M240.6,229.3c0,5.4-4.4,9.8-9.8,9.8s-10.8-4.1-10.8-9.5c0-5.4,5.3-10.1,10.8-10.1S240.6,223.9,240.6,229.3z
				"/>
			<path class="st59" d="M226.8,225.1v8.7c0,0.7,0.6,1.4,1.4,1.4l0.2,0c0.7,0,1.4-0.6,1.4-1.3l0.3-8.7c0-0.8-0.6-1.4-1.4-1.4h-0.5
				C227.4,223.7,226.8,224.4,226.8,225.1z"/>
			<path class="st59" d="M232,224.8l-0.5,9.1c0,0.7,0.8,1,1.3,0.5l4.4-4.6c0.3-0.3,0.3-0.7,0-1l-4-4.6
				C232.9,223.9,232.1,224.2,232,224.8z"/>
		</g>
		<g>
			<linearGradient id="SVGID_54_" gradientUnits="userSpaceOnUse" x1="172.3125" y1="226.3257" x2="157.5737" y2="272.589">
				<stop  offset="0" style="stop-color:#FE7062"/>
				<stop  offset="1" style="stop-color:#FF928E"/>
			</linearGradient>
			<path class="st61" d="M161.1,229.3c0,5.4,4.4,9.8,9.8,9.8c5.4,0,10.8-4.1,10.8-9.5c0-5.4-5.3-10.1-10.8-10.1
				C165.5,219.5,161.1,223.9,161.1,229.3z"/>
			<path class="st59" d="M174.9,225.1v8.7c0,0.7-0.6,1.4-1.4,1.4l-0.2,0c-0.7,0-1.4-0.6-1.4-1.3l-0.3-8.7c0-0.8,0.6-1.4,1.4-1.4h0.5
				C174.3,223.7,174.9,224.4,174.9,225.1z"/>
			<path class="st59" d="M169.7,224.8l0.5,9.1c0,0.7-0.8,1-1.3,0.5l-4.4-4.6c-0.3-0.3-0.3-0.7,0-1l4-4.6
				C168.8,223.9,169.6,224.2,169.7,224.8z"/>
		</g>
		<path class="st1" d="M142.5,204.1l0.1,1.1c0.1,1,1,1.8,2,1.8h110.1c1.1,0,2-0.9,2-2l0,0c0-1.1-0.9-2-2-2l-110.2-1.1
			C143.3,201.8,142.4,202.9,142.5,204.1z"/>
		<path class="st1" d="M142.5,249.8l0.1,1.1c0.1,1,1,1.8,2,1.8h110.1c1.1,0,2-0.9,2-2l0,0c0-1.1-0.9-2-2-2l-110.2-1.1
			C143.3,247.5,142.4,248.6,142.5,249.8z"/>
		<path class="st1" d="M142.5,260.7l0.1,1.1c0.1,1,1,1.8,2,1.8h110.1c1.1,0,2-0.9,2-2l0,0c0-1.1-0.9-2-2-2l-110.2-1.1
			C143.3,258.5,142.4,259.5,142.5,260.7z"/>
		<linearGradient id="SVGID_55_" gradientUnits="userSpaceOnUse" x1="178.8124" y1="188.8338" x2="175.742" y2="239.8028">
			<stop  offset="0" style="stop-color:#FE7062"/>
			<stop  offset="1" style="stop-color:#FF928E"/>
		</linearGradient>
		<path class="st62" d="M213,205.7c-0.1-1.1-0.3-2.1-0.4-3.2l-68-0.7c-1.2,0-2.2,1-2,2.2l0.1,1.1c0.1,1,1,1.8,2,1.8h68.5
			C213.1,206.6,213,206.1,213,205.7z"/>
		<linearGradient id="SVGID_56_" gradientUnits="userSpaceOnUse" x1="209.818" y1="204.6847" x2="217.1862" y2="204.6847">
			<stop  offset="0" style="stop-color:#DAE3FE"/>
			<stop  offset="1" style="stop-color:#E9EFFD"/>
		</linearGradient>
		<circle class="st63" cx="213.5" cy="204.7" r="3.7"/>
	</g>
	<g>
		<linearGradient id="SVGID_57_" gradientUnits="userSpaceOnUse" x1="292.7835" y1="131.3806" x2="313.0482" y2="31.5922">
			<stop  offset="0" style="stop-color:#E1473D"/>
			<stop  offset="1" style="stop-color:#E9605A"/>
		</linearGradient>
		<path class="st64" d="M244.9,50.2l114.4-1.9c4.6-0.1,8.3,3.9,8,8.6l-3.9,67.7c-0.2,3.7-3.2,6.6-6.8,6.6l-110,1.1
			c-2.7,0-5-2.2-5.1-4.9l-2.6-70.7C238.7,53.2,241.4,50.2,244.9,50.2z"/>
		<linearGradient id="SVGID_58_" gradientUnits="userSpaceOnUse" x1="352.295" y1="5.7641" x2="260.7972" y2="157.5167">
			<stop  offset="0" style="stop-color:#FF928E"/>
			<stop  offset="1" style="stop-color:#FEB3B1"/>
		</linearGradient>
		<path class="st65" d="M246.6,51.9L358,50.1c4.5-0.1,8.1,3.7,7.8,8.2l-3.8,64.4c-0.2,3.5-3.1,6.3-6.6,6.3l-107.1,1
			c-2.6,0-4.8-2.1-4.9-4.7l-2.6-67.2C240.7,54.7,243.3,52,246.6,51.9z"/>
		<linearGradient id="SVGID_59_" gradientUnits="userSpaceOnUse" x1="243.1377" y1="90.4413" x2="362.2664" y2="90.4413">
			<stop  offset="0" style="stop-color:#FE7062"/>
			<stop  offset="1" style="stop-color:#FF928E"/>
		</linearGradient>
		<path class="st66" d="M248.7,54.1l106.1-1.8c4.3-0.1,7.7,3.5,7.4,7.8l-3.7,61.4c-0.2,3.4-3,6-6.3,6l-102,1c-2.5,0-4.6-2-4.7-4.5
			l-2.4-64C243,56.8,245.5,54.2,248.7,54.1z"/>
		<g>
			<path class="st2" d="M356.7,124.8L255.1,124c-2,0-3.6-1.6-3.6-3.7V68.2c0-2,1.6-3.7,3.7-3.7h101.7c2,0,3.7,1.6,3.7,3.7v53
				C360.4,123.2,358.8,124.8,356.7,124.8z"/>
			<linearGradient id="SVGID_60_" gradientUnits="userSpaceOnUse" x1="255.2633" y1="97.4211" x2="356.5952" y2="97.4211">
				<stop  offset="0" style="stop-color:#DAE3FE"/>
				<stop  offset="1" style="stop-color:#E9EFFD"/>
			</linearGradient>
			<path class="st67" d="M341,88.1l-13.1-13.8l-18.7,20.4l-13.2-14.3l-12.4,14L274,82.8l-18.7,19.5v14.1c0,1.9,1.5,3.4,3.4,3.4
				l94.5,0.7c1.9,0,3.4-1.5,3.4-3.4V78.8L341,88.1z"/>
			<rect x="341" y="87.7" class="st2" width="0.4" height="32.9"/>
			<rect x="327.7" y="74.3" class="st2" width="0.4" height="46.1"/>
			<rect x="308.9" y="94.4" class="st2" width="0.4" height="25.8"/>
			<rect x="296.1" y="80.9" class="st2" width="0.4" height="39.4"/>
			<rect x="283.3" y="94" class="st2" width="0.4" height="26.3"/>
			<rect x="274" y="81.9" class="st2" width="0.4" height="38.1"/>
			<linearGradient id="SVGID_61_" gradientUnits="userSpaceOnUse" x1="276.6115" y1="74.6029" x2="264.5601" y2="111.0375">
				<stop  offset="0" style="stop-color:#FE7062"/>
				<stop  offset="1" style="stop-color:#FF928E"/>
			</linearGradient>
			<path class="st68" d="M277.1,81.9c0,1.6-1.3,2.9-2.9,2.9s-2.9-1.3-2.9-2.9c0-1.6,1.3-2.9,2.9-2.9S277.1,80.3,277.1,81.9z"/>
			<linearGradient id="SVGID_62_" gradientUnits="userSpaceOnUse" x1="285.1014" y1="89.1974" x2="277.1624" y2="113.199">
				<stop  offset="0" style="stop-color:#FE7062"/>
				<stop  offset="1" style="stop-color:#FF928E"/>
			</linearGradient>
			<circle class="st69" cx="283.5" cy="94" r="1.9"/>
			<linearGradient id="SVGID_63_" gradientUnits="userSpaceOnUse" x1="297.8557" y1="76.1009" x2="289.9167" y2="100.1028">
				<stop  offset="0" style="stop-color:#FE7062"/>
				<stop  offset="1" style="stop-color:#FF928E"/>
			</linearGradient>
			<path class="st70" d="M298.2,80.9c0,1-0.8,1.9-1.9,1.9c-1,0-1.9-0.8-1.9-1.9c0-1,0.8-1.9,1.9-1.9C297.3,79,298.2,79.8,298.2,80.9
				z"/>
			<linearGradient id="SVGID_64_" gradientUnits="userSpaceOnUse" x1="310.7292" y1="89.6162" x2="302.7901" y2="113.6181">
				<stop  offset="0" style="stop-color:#FE7062"/>
				<stop  offset="1" style="stop-color:#FF928E"/>
			</linearGradient>
			<path class="st71" d="M311,94.4c0,1-0.8,1.9-1.9,1.9c-1,0-1.9-0.8-1.9-1.9c0-1,0.8-1.9,1.9-1.9C310.2,92.5,311,93.4,311,94.4z"/>
			<linearGradient id="SVGID_65_" gradientUnits="userSpaceOnUse" x1="329.4713" y1="69.4799" x2="321.5322" y2="93.4819">
				<stop  offset="0" style="stop-color:#FE7062"/>
				<stop  offset="1" style="stop-color:#FF928E"/>
			</linearGradient>
			<path class="st72" d="M329.8,74.3c0,1-0.8,1.9-1.9,1.9c-1,0-1.9-0.8-1.9-1.9c0-1,0.8-1.9,1.9-1.9
				C328.9,72.4,329.8,73.2,329.8,74.3z"/>
			<path class="st4" d="M343.1,87.7c0,1-0.8,1.9-1.9,1.9c-1,0-1.9-0.8-1.9-1.9c0-1,0.8-1.9,1.9-1.9
				C342.3,85.8,343.1,86.7,343.1,87.7z"/>
		</g>
	</g>
	<g>
		<defs>
			<path id="SVGID_66_" d="M147.5,86.9l-1.8,91.2c-0.1,4,3.1,7.2,7.1,7.2l98.6-0.7c3.8,0,6.8-3,7-6.8L298,81.6
				c0.1-4-40.1-1.5-44.1-1.5h-99.5C150.7,80.1,147.6,83.1,147.5,86.9z"/>
		</defs>
		<clipPath id="SVGID_67_">
			<use xlink:href="#SVGID_66_"  style="overflow:visible;"/>
		</clipPath>
		<g class="st73">
			<linearGradient id="SVGID_68_" gradientUnits="userSpaceOnUse" x1="181.2611" y1="299.4408" x2="205.2554" y2="299.4408">
				<stop  offset="0" style="stop-color:#53D8FF"/>
				<stop  offset="1" style="stop-color:#3840F7"/>
			</linearGradient>
			<path class="st74" d="M204.6,298.3c-4.1,0.4-11.2,0.9-16.9,1.2c-3.4,0.1-5.3-0.2-6.4-0.6c0,0.1,0,0.2,0,0.4
				c0,0.6,0.5,1.1,1.1,1.1c10.6,0.6,19.1,0.2,22.1,0c0.6,0,1-0.7,0.7-1.2C205,298.8,204.8,298.5,204.6,298.3z"/>
			<linearGradient id="SVGID_69_" gradientUnits="userSpaceOnUse" x1="181.2597" y1="294.7383" x2="204.5778" y2="294.7383">
				<stop  offset="0" style="stop-color:#2B3582"/>
				<stop  offset="1" style="stop-color:#150E42"/>
			</linearGradient>
			<path class="st75" d="M187.7,299.5c5.6-0.2,12.8-0.8,16.9-1.2c-4-5-16.9-8.3-16.9-8.3h-3.6c-2.5,3.6-2.9,7-2.8,8.8
				C182.4,299.3,184.3,299.6,187.7,299.5z"/>
			<linearGradient id="SVGID_70_" gradientUnits="userSpaceOnUse" x1="183.4763" y1="288.1729" x2="190.235" y2="288.1729">
				<stop  offset="0" style="stop-color:#F9B776"/>
				<stop  offset="1" style="stop-color:#F47960"/>
			</linearGradient>
			<path class="st76" d="M183.5,284.1l0.3,6.7c0,0.7,0.6,1.3,1.3,1.4c0.7,0.1,1.7,0.1,2.7-0.2c0.6-0.2,1.1-0.7,1.2-1.4l1.2-6.5
				H183.5z"/>
			<g>
				<linearGradient id="SVGID_71_" gradientUnits="userSpaceOnUse" x1="138.4344" y1="305.3907" x2="147.6295" y2="305.3907">
					<stop  offset="0" style="stop-color:#53D8FF"/>
					<stop  offset="1" style="stop-color:#3840F7"/>
				</linearGradient>
				<path class="st77" d="M141.4,306c-1.8-0.3-2.6-1.5-2.9-2.8c0,0,0,0,0,0c-0.3,1.3,0.3,2.7,1.6,3.4c1.5,0.8,3.1,0.9,4.3,0.9
					c1.3-0.1,2.6-0.8,3.2-1.9l0,0C146.3,306.5,144.4,306.6,141.4,306z"/>
				<linearGradient id="SVGID_72_" gradientUnits="userSpaceOnUse" x1="138.5013" y1="296.2405" x2="151.9978" y2="296.2405">
					<stop  offset="0" style="stop-color:#2B3582"/>
					<stop  offset="1" style="stop-color:#150E42"/>
				</linearGradient>
				<path class="st78" d="M149.8,286.1h-3c-4.6-0.1-7.4,12.3-8.3,17.1c0.3,1.3,1.1,2.5,2.9,2.8c3,0.5,4.9,0.4,6.2-0.4
					c2.5-4.2,3.7-10.3,4.3-13.9C152.6,287.7,149.8,286.1,149.8,286.1z"/>
			</g>
			<linearGradient id="SVGID_73_" gradientUnits="userSpaceOnUse" x1="145.5166" y1="284.6485" x2="153.5939" y2="284.6485">
				<stop  offset="0" style="stop-color:#F9B776"/>
				<stop  offset="1" style="stop-color:#F47960"/>
			</linearGradient>
			<path class="st79" d="M147.2,279.9l-1.7,6.6c-0.2,0.8,0.2,1.6,0.9,2c0.9,0.5,2.2,1,3.4,0.8c0.6-0.1,1-0.5,1.2-1l2.4-6.9
				L147.2,279.9z"/>
			<linearGradient id="SVGID_74_" gradientUnits="userSpaceOnUse" x1="152.8676" y1="295.0187" x2="226.17" y2="169.201">
				<stop  offset="0" style="stop-color:#FDF53F"/>
				<stop  offset="1" style="stop-color:#D93C65"/>
			</linearGradient>
			<path class="st80" d="M205.6,193c0,0-14.8,92.7-14.6,93.2c0,0-4.1,1.9-8.6,0.2c0,0,1.3-49.5,4.5-68.5c0,0-25.3,44.3-33.3,66.3
				c0,0-4.2-0.5-7.7-2.8c0,0,27.2-79.7,34.5-90.3L205.6,193z"/>
			<g>
				<linearGradient id="SVGID_75_" gradientUnits="userSpaceOnUse" x1="172.9497" y1="245.1949" x2="200.8443" y2="197.61">
					<stop  offset="0" style="stop-color:#FDF53F"/>
					<stop  offset="1" style="stop-color:#D93C65"/>
				</linearGradient>
				<path class="st81" d="M187.5,217.3c-0.1,0-0.1,0-0.2-0.1c-0.2-0.1-0.2-0.3-0.1-0.5l5.5-8.8c0.1-0.1,0.1-0.1,0.2-0.2l4.1-0.8
					c0.2,0,0.4,0.1,0.4,0.3c0,0.2-0.1,0.4-0.3,0.4l-3.9,0.8l-5.5,8.7C187.8,217.3,187.6,217.3,187.5,217.3z"/>
			</g>
			<linearGradient id="SVGID_76_" gradientUnits="userSpaceOnUse" x1="271.6329" y1="90.9251" x2="242.4641" y2="136.06">
				<stop  offset="0" style="stop-color:#FF928E"/>
				<stop  offset="1" style="stop-color:#FEB3B1"/>
			</linearGradient>
			<path class="st82" d="M273.6,102.3c0,0-10,2.2-16.1,5c-1.2,0.6-2.2,1.5-2.7,2.7c-1.8,4-7.3,14-17.8,18.8c1.5,2,4,6.2,5,13.3
				c6.3-4.7,11.8-12.6,14.4-25.5c0,0,2,1.1,4.5-0.1c1.3-0.6,2.8-1.5,4-2.3c1.1-0.7,2-1.8,2.3-3.1c0.4-1.7,0.2-3.2,0.2-4.8l5.1-1.6
				C272.6,104.6,274.1,104,273.6,102.3z"/>
			<linearGradient id="SVGID_77_" gradientUnits="userSpaceOnUse" x1="178.7281" y1="170.0038" x2="127.1424" y2="215.8576">
				<stop  offset="0" style="stop-color:#FE7062"/>
				<stop  offset="1" style="stop-color:#FF928E"/>
			</linearGradient>
			<path class="st83" d="M242,142c-1.1-7.1-3.5-11.3-5-13.3c-6.6,3-15.1,3.9-26,0.1c-1-0.3-2-0.6-3.1-0.6c-5.8-0.3-24.8-1-40.6,4.3
				c-3.3,1.1-6,3.6-7.4,6.7c-4.3,9.8-11.2,32.1,8,43.3c1.5-3.7,3.2-6.6,4.6-8.8c-3.1-5.2-4-12.3,1.5-21.6c4,10.8,5.9,26.5,6.3,33.5
				c0.1,2.3-0.3,4.6-1.2,6.7l-0.1,0.2c-0.2,0.5,0.1,1,0.6,1.1c10.8,2.4,22,1.8,25.4,1.5c0.6,0,1.1-0.5,1.2-1.1
				c5.2-22.1,5.3-37.2,4-46.7C215.1,148.6,230.1,150.9,242,142z"/>
			<g>
				<linearGradient id="SVGID_78_" gradientUnits="userSpaceOnUse" x1="225.9374" y1="104.7993" x2="205.0575" y2="147.3779">
					<stop  offset="0" style="stop-color:#E1473D"/>
					<stop  offset="1" style="stop-color:#E9605A"/>
				</linearGradient>
				<path class="st84" d="M210.2,148c-0.2,0-0.3-0.1-0.4-0.3c-1.2-9.4-3.8-13.4-3.8-13.4c-0.1-0.2-0.1-0.4,0.1-0.5
					c0.2-0.1,0.4-0.1,0.5,0.1c0.1,0.2,2.6,4.2,3.9,13.7C210.6,147.8,210.4,148,210.2,148C210.2,148,210.2,148,210.2,148z"/>
			</g>
			<linearGradient id="SVGID_79_" gradientUnits="userSpaceOnUse" x1="187.8637" y1="105.8251" x2="187.8637" y2="150.0391">
				<stop  offset="0" style="stop-color:#FF928E"/>
				<stop  offset="1" style="stop-color:#FEB3B1"/>
			</linearGradient>
			<path class="st85" d="M183.5,115.4c0,0-1.1,11.5-2.1,15c-0.1,0.5,0.1,1.1,0.6,1.3c1.6,0.9,5.5,2.5,10.9-0.2
				c0.9-0.4,1.4-1.3,1.3-2.3l-0.5-11.2L183.5,115.4z"/>
			<g>
				<linearGradient id="SVGID_80_" gradientUnits="userSpaceOnUse" x1="183.6436" y1="92.1597" x2="191.6266" y2="118.5652">
					<stop  offset="0" style="stop-color:#FF928E"/>
					<stop  offset="1" style="stop-color:#FEB3B1"/>
				</linearGradient>
				<path class="st86" d="M194,100.6c0,0,3.5,8,3.7,12.2c0.2,4.2,1.1,6.9-3.7,7.8c-4.9,0.8-9-1.6-11.2-5.8c0,0-3.5-6.5-2.7-9.1
					C180.9,103.1,194,100.6,194,100.6z"/>
				<linearGradient id="SVGID_81_" gradientUnits="userSpaceOnUse" x1="180.7229" y1="95.5986" x2="199.3206" y2="119.5431">
					<stop  offset="0" style="stop-color:#09005D"/>
					<stop  offset="1" style="stop-color:#1A0F91"/>
				</linearGradient>
				<path class="st87" d="M184.5,111.9l0.3-0.1c0.4-0.2,0.5-0.6,0.3-0.9c-0.7-1.3-2-4.4-0.3-5.1c2.2-0.9,11.1-2.7,13-5.8
					c1.8-3,0.2-6.9-2.2-8c-0.2-0.1-0.4,0-0.4,0.1l-0.2,0.4c-0.1,0.3-0.5,0.2-0.6-0.1l0,0c-0.1-0.3-0.4-0.3-0.6-0.1
					c-0.6,0.9-2.2,2.5-6.4,3.2c-6,1.1-10,3.5-10.1,7.7c0,0.3-0.3,0.4-0.5,0.3c-0.4-0.3-1.2-0.4-2.1,0.4c-1.6,1.4-1,5,2.6,7.9
					c0.2,0.1,0.2,0.4,0,0.5c-0.7,0.4-1.6,1.4,0.9,2.8c2.6,1.4,4.6,1.3,5.3,1.2c0.2,0,0.3-0.2,0.3-0.4l-0.8-3.6
					c0-0.2,0.1-0.4,0.3-0.4H184.5z"/>
				<linearGradient id="SVGID_82_" gradientUnits="userSpaceOnUse" x1="177.1676" y1="94.1175" x2="185.1507" y2="120.5231">
					<stop  offset="0" style="stop-color:#FF928E"/>
					<stop  offset="1" style="stop-color:#FEB3B1"/>
				</linearGradient>
				<path class="st88" d="M184.7,112.6c0,0-1.3-5.1-3.6-3.7c-2.3,1.4,1.2,5.7,3,5.9L184.7,112.6z"/>
			</g>
			<linearGradient id="SVGID_83_" gradientUnits="userSpaceOnUse" x1="261.1479" y1="114.2172" x2="257.7705" y2="149.5269">
				<stop  offset="0" style="stop-color:#FF928E"/>
				<stop  offset="1" style="stop-color:#FEB3B1"/>
			</linearGradient>
			<path class="st89" d="M259.1,115.3c-0.1,0-0.2,0-0.3-0.1c-0.2-0.1-0.2-0.4-0.1-0.6c0.4-0.5,3.7-4.6,5-5.3
				c0.5-0.3,0.8-0.5,0.8-0.8c0-0.1,0-0.3-0.1-0.4l-4,0.8l-2.2,1.9c-0.2,0.1-0.4,0.1-0.6,0c-0.1-0.2-0.1-0.4,0-0.6l2.3-2
				c0.1,0,0.1-0.1,0.2-0.1l4.4-0.9c0.2,0,0.3,0,0.4,0.2c0.3,0.5,0.4,0.9,0.3,1.3c-0.1,0.5-0.5,0.9-1.2,1.3c-1,0.6-3.8,3.9-4.8,5.1
				C259.4,115.2,259.3,115.3,259.1,115.3z"/>
			<linearGradient id="SVGID_84_" gradientUnits="userSpaceOnUse" x1="203.2106" y1="168.9171" x2="194.6488" y2="181.7598">
				<stop  offset="0" style="stop-color:#F9B776"/>
				<stop  offset="1" style="stop-color:#F47960"/>
			</linearGradient>
			<path class="st90" d="M198.1,187c0,0,0.2,4.8-6,4.1c-3.4-0.4-8.9-3.6-8.9-3.6S197.5,187.5,198.1,187z"/>
			<linearGradient id="SVGID_85_" gradientUnits="userSpaceOnUse" x1="205.5548" y1="169.8682" x2="196.8687" y2="182.8973">
				<stop  offset="0" style="stop-color:#F9B776"/>
				<stop  offset="1" style="stop-color:#F47960"/>
			</linearGradient>
			<path class="st91" d="M186.2,186.8c0,0,5.2-0.6,7-1.5c1.8-0.9,2.5,0.2,0.9,1.3c-1.6,1.1-1.9,1.1-1.9,1.1s5.4,1.4,6.6,1.5
				c1.2,0,4.5,0.2,3.6,0.8c-1,0.5-4.8,0.9-7.3,0.9c-2.5,0-4.9,1-11.5-3.1C184.5,186.4,186.2,186.8,186.2,186.8z"/>
			<linearGradient id="SVGID_86_" gradientUnits="userSpaceOnUse" x1="193.5805" y1="163.1389" x2="183.7876" y2="177.8281">
				<stop  offset="0" style="stop-color:#FF928E"/>
				<stop  offset="1" style="stop-color:#FEB3B1"/>
			</linearGradient>
			<path class="st92" d="M184.5,188.2l7.4-1.6c0,0-14.6-4.8-19.3-12.7c-1.5,2.2-3.2,5.1-4.6,8.8C172.1,185.1,177.5,187,184.5,188.2z
				"/>
		</g>
	</g>
</g>
</svg>
