<?xml version="1.0" encoding="utf-8"?>
<!-- Generator: Adobe Illustrator 24.2.0, SVG Export Plug-In . SVG Version: 6.00 Build 0)  -->
<svg version="1.1" id="Layer_1" xmlns="http://www.w3.org/2000/svg" xmlns:xlink="http://www.w3.org/1999/xlink" x="0px" y="0px"
	 viewBox="0 0 383.2 243.3" style="enable-background:new 0 0 383.2 243.3;" xml:space="preserve">
<style type="text/css">
	.st0{fill:#F4F7FA;}
	.st1{fill:#BFC8D6;}
	.st2{fill:#FFFFFF;}
	.st3{fill:url(#SVGID_1_);}
	.st4{fill:url(#SVGID_2_);}
	.st5{fill:url(#SVGID_3_);}
	.st6{fill:url(#SVGID_4_);}
	.st7{fill:url(#SVGID_5_);}
	.st8{fill:url(#SVGID_6_);}
	.st9{fill:url(#SVGID_7_);}
	.st10{opacity:0.3;fill:#FFFFFF;}
	.st11{fill:url(#SVGID_8_);}
	.st12{fill:url(#SVGID_9_);}
	.st13{opacity:0.3;}
	.st14{fill:url(#SVGID_10_);}
	.st15{fill:url(#SVGID_11_);}
	.st16{fill:url(#SVGID_12_);}
	.st17{fill:url(#SVGID_13_);}
	.st18{fill:#FDFFFF;}
</style>
<g>
	<path class="st0" d="M281.1,163.2c-5.9,22.6-22.4,43.5-62.5,54.3c-14.5,3.9-31.3,5.8-46.3,4.6c-22.1-1.7-45.3-11.7-63.7-23
		c-12.7-7.8-17.8-18.4-19.6-30.3c-1.1-7.4-1-15.3-0.6-23.4c0.5-12.2-1.4-24.5-4.3-36.4c-4.4-18.3-0.8-37.5,10.1-53.2
		s28.2-26.7,47.8-30.4c33.1-6.2,66.7-2.1,66.7-2.1c44.3,4.6,66.7,48.5,72.1,84.3C283.4,124,286,144.2,281.1,163.2z"/>
	<g>
		<g>
			<path class="st1" d="M184.3,163.6c-26,0-47.1-21.1-47.1-47.1s21.1-47.1,47.1-47.1s47.1,21.1,47.1,47.1S210.3,163.6,184.3,163.6z
				 M184.3,70.5c-25.4,0-46,20.6-46,46s20.6,46,46,46s46-20.6,46-46S209.6,70.5,184.3,70.5z"/>
		</g>
		<g>
			<path class="st1" d="M184.3,183.6c-17.9,0-34.7-7-47.4-19.6c-12.7-12.7-19.6-29.5-19.6-47.4s7-34.7,19.6-47.4
				c12.7-12.7,29.5-19.6,47.4-19.6s34.7,7,47.4,19.6c12.7,12.7,19.6,29.5,19.6,47.4s-7,34.7-19.6,47.4
				C219,176.6,202.2,183.6,184.3,183.6z M184.3,50.6c-36.4,0-65.9,29.6-65.9,65.9s29.6,65.9,65.9,65.9s65.9-29.6,65.9-65.9
				S220.6,50.6,184.3,50.6z"/>
		</g>
		<g>
			<path class="st1" d="M184.3,202.6c-23,0-44.6-8.9-60.8-25.2c-16.2-16.2-25.2-37.8-25.2-60.8s8.9-44.6,25.2-60.8
				c16.2-16.2,37.8-25.2,60.8-25.2s44.6,8.9,60.8,25.2c16.2,16.2,25.2,37.8,25.2,60.8s-8.9,44.6-25.2,60.8
				C228.9,193.6,207.3,202.6,184.3,202.6z M184.3,31.6c-46.8,0-84.9,38.1-84.9,84.9s38.1,84.9,84.9,84.9s84.9-38.1,84.9-84.9
				S231.1,31.6,184.3,31.6z"/>
		</g>
	</g>
	<g>
		<g>
			<g>
				<g>
					<circle class="st2" cx="91.7" cy="141.2" r="33.3"/>
					
						<linearGradient id="SVGID_1_" gradientUnits="userSpaceOnUse" x1="70.3506" y1="141.3942" x2="145.0124" y2="6.0397" gradientTransform="matrix(1 0 0 -1 0 243.8898)">
						<stop  offset="3.597120e-03" style="stop-color:#E38DDD"/>
						<stop  offset="1" style="stop-color:#9571F6"/>
					</linearGradient>
					<circle class="st3" cx="91.7" cy="141.2" r="29.6"/>
				</g>
			</g>
		</g>
	</g>
</g>
<g>
	<g>
		<g>
			<circle class="st2" cx="266.9" cy="130.9" r="31"/>
			
				<linearGradient id="SVGID_2_" gradientUnits="userSpaceOnUse" x1="247.0339" y1="149.0051" x2="316.4838" y2="23.0992" gradientTransform="matrix(1 0 0 -1 0 243.8898)">
				<stop  offset="0" style="stop-color:#FF9085"/>
				<stop  offset="1" style="stop-color:#FB6FBB"/>
			</linearGradient>
			<circle class="st4" cx="266.9" cy="130.9" r="27.5"/>
		</g>
	</g>
</g>
<g>
	<g>
		<g>
			<circle class="st2" cx="157.6" cy="51.8" r="31.5"/>
			
				<linearGradient id="SVGID_3_" gradientUnits="userSpaceOnUse" x1="137.4436" y1="228.6314" x2="207.9826" y2="100.7511" gradientTransform="matrix(1 0 0 -1 0 243.8898)">
				<stop  offset="0" style="stop-color:#FFC444"/>
				<stop  offset="0.9964" style="stop-color:#F36F56"/>
			</linearGradient>
			<circle class="st5" cx="157.6" cy="51.8" r="28"/>
		</g>
	</g>
</g>
<g>
	<g>
		<g>
			<linearGradient id="SVGID_4_" gradientUnits="userSpaceOnUse" x1="274.3995" y1="45.4874" x2="114.5752" y2="323.1958">
				<stop  offset="0" style="stop-color:#444B8C"/>
				<stop  offset="0.9964" style="stop-color:#3E4177"/>
			</linearGradient>
			<path class="st6" d="M218.5,152.1l-12.2,0.5c-1.3,0.1-2.1,2.2-1.4,3.8c3.9,7.9-0.6,15.6-4.2,16.1c-4.2,0.6-8.4-2.4-8-9.3
				c0.2-3,0.8-5.4,1.4-7.1c0.6-1.6-0.3-3.5-1.5-3.4l-14.4,0.5v17.2c0,1.3,1,2.1,1.8,1.5c1.2-0.9,3-1.8,5.4-1.6
				c4.9,0.4,7.6,5.9,5.9,10.6c-3.4,9.1-7.9,7-10.4,4.7c-0.8-0.7-2,0.2-2,1.6v19.8l37.7-3.2c1.3-0.1,2.2-1.5,2.2-3.2l0.5-47.9
				L218.5,152.1z"/>
			<linearGradient id="SVGID_5_" gradientUnits="userSpaceOnUse" x1="168.515" y1="166.3925" x2="103.8296" y2="253.0146">
				<stop  offset="0" style="stop-color:#444B8C"/>
				<stop  offset="0.9964" style="stop-color:#3E4177"/>
			</linearGradient>
			<path class="st7" d="M180.9,185.4c2.5,2.3,7,4.4,10.4-4.7c1.8-4.7-1-10.2-5.9-10.6c-2.4-0.2-4.2,0.7-5.4,1.6
				c-0.8,0.6-1.8-0.2-1.8-1.5V153l-13.7,0.5c-1.4,0.1-2.2-2-1.5-3.7c4.7-11.5-2.9-16.2-4.9-15.9c-2.1,0.3-8.8,2-8.8,8.9
				c0,3.1,0.7,5.7,1.4,7.6c0.6,1.7-0.2,3.7-1.6,3.7l-12.4,0.5v17c0,1.6,0,26.3,0,35.4c0,1.8,1.2,3.3,2.5,3.2l39.7-3.4V187
				C178.9,185.6,180.1,184.7,180.9,185.4z"/>
			<linearGradient id="SVGID_6_" gradientUnits="userSpaceOnUse" x1="228.5664" y1="5.3527" x2="64.935" y2="289.6763">
				<stop  offset="0" style="stop-color:#444B8C"/>
				<stop  offset="0.9964" style="stop-color:#3E4177"/>
			</linearGradient>
			<path class="st8" d="M136.7,154.6l12.4-0.5c1.4-0.1,2.2-2.1,1.6-3.7c-0.7-1.9-1.4-4.5-1.4-7.6c0-6.8,6.7-8.6,8.8-8.9
				c1.9-0.2,9.6,4.4,4.9,15.9c-0.7,1.7,0.2,3.7,1.5,3.7l13.7-0.5v-17.5c0-1.5,1.2-2.3,2-1.5c4,3.9,9.5,0.3,10.5-2.7
				c1.1-3.6,1.4-10.9-4.3-13c-3-1.1-5.2,0-6.6,1.2c-0.8,0.8-1.9-0.1-1.9-1.5l0.9-16.1l-0.9-0.5l-37.5-0.3c-2,0-3.7,2.2-3.7,4.8
				L136.7,154.6z"/>
			<linearGradient id="SVGID_7_" gradientUnits="userSpaceOnUse" x1="275.2186" y1="46.0238" x2="115.4692" y2="323.6021">
				<stop  offset="0" style="stop-color:#FFC444"/>
				<stop  offset="0.9964" style="stop-color:#F36F56"/>
			</linearGradient>
			<path class="st9" d="M219.4,152.5l-12.2,0.5c-1.3,0.1-2.1,2.2-1.4,3.8c3.9,7.9-0.6,15.6-4.2,16.1c-4.2,0.6-8.4-2.4-8-9.3
				c0.2-3,0.8-5.4,1.4-7.1c0.6-1.6-0.3-3.5-1.5-3.4l-14.4,0.5v17.2c0,1.3,1,2.1,1.8,1.5c1.2-0.9,3-1.8,5.4-1.6
				c4.9,0.4,7.6,5.9,5.9,10.6c-3.4,9.1-7.9,7-10.4,4.7c-0.8-0.7-2,0.2-2,1.6v19.8l37.7-3.2c1.3-0.1,2.2-1.5,2.2-3.2L219.4,152.5z"/>
			<path class="st10" d="M217.7,155.1l-10.3,0.4c1.9,4,2.2,8.7,0.9,12.8c-1.3,3.9-3.9,6.7-6.5,7.1c-0.2,0-0.5,0.1-0.7,0.1
				c-2.9,0.2-5.6-1.2-7.3-3.7c-1.5-2.2-2.1-5-1.9-8.4c0.2-2.8,0.7-5.4,1.5-7.9l-12.5,0.5v13.3c1.3-0.8,2.8-1.3,4.3-1.3
				c0.4,0,0.8,0,1.3,0c3.2,0.3,6,2.5,7.3,5.9c1,2.7,1,5.7,0,8.4c-2.4,6.4-5.4,8-7.5,8.1c-1.5,0.1-3.1-0.4-4.6-1.6v15.7l34.5-2.8
				c1.1-0.1,1.9-1.3,1.9-2.7L217.7,155.1z"/>
			<linearGradient id="SVGID_8_" gradientUnits="userSpaceOnUse" x1="169.3779" y1="166.8528" x2="104.6925" y2="253.4749">
				<stop  offset="3.597120e-03" style="stop-color:#E38DDD"/>
				<stop  offset="1" style="stop-color:#9571F6"/>
			</linearGradient>
			<path class="st11" d="M181.8,185.9c2.5,2.3,7,4.4,10.4-4.7c1.8-4.7-1-10.2-5.9-10.6c-2.4-0.2-4.2,0.7-5.4,1.6
				c-0.8,0.6-1.8-0.2-1.8-1.5v-17.2l-13.7,0.5c-1.4,0.1-2.2-2-1.5-3.7c4.7-11.5-2.9-16.2-4.9-15.9c-2.1,0.3-8.8,2-8.8,8.9
				c0,3.1,0.7,5.7,1.4,7.6c0.6,1.7-0.2,3.7-1.6,3.7l-12.4,0.5v17c0,1.6,0,26.3,0,35.4c0,1.8,1.2,3.3,2.5,3.2l39.7-3.4v-19.8
				C179.8,186.1,180.9,185.1,181.8,185.9z"/>
			<path class="st10" d="M190.6,176.4c-0.7-1.9-2.4-3.2-4.4-3.3c-0.3,0-0.6,0-0.9,0c-1.3,0.1-2.5,0.5-3.5,1.3
				c-0.4,0.3-0.9,0.5-1.4,0.6c-0.8,0-1.6-0.4-2.2-1.1c-0.6-0.8-0.9-1.9-0.9-3.1v-14.6l-11.8,0.5c-1.3,0.1-2.5-0.8-3.2-2.4
				c-0.7-1.6-0.7-3.5,0-5.1c1.4-3.4,1.7-6.3,0.7-8.5c-1.1-2.5-3.3-3.5-3.8-3.5c-0.3,0-7,1.1-7,6.2c0,2.2,0.4,4.3,1.2,6.4
				c0.6,1.6,0.6,3.5-0.1,5.1c-0.7,1.6-1.9,2.5-3.2,2.6l-10.4,0.4l-0.2,48c0,1.6,1,2.9,2.3,2.8l36.4-3.7v-17.2c0-2.4,1.4-4.4,3.1-4.5
				c0.6,0,1.2,0.2,1.7,0.7c0.9,0.8,2.1,1.7,3.4,1.6c1.6-0.1,3.1-1.9,4.4-5.2C191.2,178.6,190.9,177.3,190.6,176.4z"/>
			<linearGradient id="SVGID_9_" gradientUnits="userSpaceOnUse" x1="229.388" y1="5.8848" x2="65.834" y2="290.074">
				<stop  offset="0" style="stop-color:#AA80F9"/>
				<stop  offset="0.9964" style="stop-color:#6165D7"/>
			</linearGradient>
			<path class="st12" d="M137.6,155.1l12.4-0.5c1.4-0.1,2.2-2.1,1.6-3.7c-0.7-1.9-1.4-4.5-1.4-7.6c0-6.8,6.7-8.6,8.8-8.9
				c1.9-0.2,9.6,4.4,4.9,15.9c-0.7,1.7,0.2,3.7,1.5,3.7l13.7-0.5V136c0-1.5,1.2-2.3,2-1.5c4,3.9,9.5,0.3,10.5-2.7
				c1.1-3.6,1.4-10.9-4.3-13c-3-1.1-5.2,0-6.6,1.2c-0.8,0.8-1.9-0.1-1.9-1.5V102l-37.5-0.3c-2,0-3.7,2.2-3.7,4.8L137.6,155.1z"/>
			<path class="st10" d="M139.4,106.6c0-1.4,0.9-2.5,1.9-2.5l35.8,0.3v14.3c0,1.1,0.3,2.1,0.9,2.9c0.6,0.7,1.3,1.2,2.1,1.2
				c0.6,0,1.1-0.2,1.6-0.7c1-0.9,2-1.3,3.2-1.3c0.6,0,1.3,0.1,2,0.4c1.6,0.6,2.6,1.6,3.2,3.2c0.8,2.1,0.5,4.9,0,6.7
				c-0.3,1.1-2.4,3-4.9,3c-1.1,0-2.1-0.4-2.9-1.3c-0.5-0.5-1.1-0.8-1.8-0.8c-1.7,0-3,1.8-3,4.1v15.2l-12,0.5c0,0,0-0.1,0-0.2
				c2.6-6.4,1.8-10.9,0.6-13.6c-1.7-3.9-5.1-5.8-6.8-5.8c-0.1,0-0.2,0-0.3,0c-3.9,0.5-10.4,3.4-10.4,11.2c0,3,0.5,5.9,1.6,8.6
				c0,0.1,0,0.2,0,0.3c0,0.1-0.1,0.1-0.1,0.1l-10.6,0.4L139.4,106.6z"/>
			<g class="st13">
				<linearGradient id="SVGID_10_" gradientUnits="userSpaceOnUse" x1="230.8791" y1="2.9169" x2="64.2283" y2="292.4871">
					<stop  offset="0" style="stop-color:#AA80F9"/>
					<stop  offset="0.9964" style="stop-color:#6165D7"/>
				</linearGradient>
				<path class="st14" d="M167.4,129.6c-1.6-11.4,0.9-19.3,3.3-27.6l-29.5-0.2c-2,0-3.5,2.1-3.5,4.7l-0.1,48.7l12.4-0.5
					c1.4-0.1,2.2-2.1,1.6-3.7c-0.7-1.9-1.4-4.5-1.4-7.6c0-6.8,6.7-8.6,8.8-8.9c1.9-0.2,9.6,4.4,4.9,15.9c-0.7,1.7,0.2,3.7,1.5,3.7
					l13.4-0.5C173.4,147.4,169,140.8,167.4,129.6z"/>
			</g>
			<g class="st13">
				<linearGradient id="SVGID_11_" gradientUnits="userSpaceOnUse" x1="281.2297" y1="24.4116" x2="102.9485" y2="334.1906">
					<stop  offset="0" style="stop-color:#FFC444"/>
					<stop  offset="0.9964" style="stop-color:#F36F56"/>
				</linearGradient>
				<path class="st15" d="M179.1,153.8v16.8c0,1.3,1,2.1,1.8,1.5c1.2-0.9,3-1.8,5.4-1.6c4.9,0.4,7.6,5.9,5.9,10.6
					c-3.4,9.1-7.9,7-10.4,4.7c-0.8-0.7-2,0.2-2,1.6v19.8l25.1-2.1c-1.1-9.2-3.2-16.4-5.5-22.1C193.7,168.4,185.7,161.3,179.1,153.8z
					"/>
			</g>
		</g>
		<g>
			<linearGradient id="SVGID_12_" gradientUnits="userSpaceOnUse" x1="247.628" y1="53.2188" x2="197.9738" y2="122.5277">
				<stop  offset="0" style="stop-color:#444B8C"/>
				<stop  offset="0.9964" style="stop-color:#3E4177"/>
			</linearGradient>
			<path class="st16" d="M189.2,102c1.4-1.3,3.6-2.3,6.6-1.2c5.7,2.1,5.4,9.4,4.3,13c-0.9,3-6.5,6.7-10.5,2.7c-0.8-0.8-2,0-2,1.5
				v17.5l14.4-0.5c1.3,0,2.1,1.8,1.5,3.4c-0.6,1.8-1.2,4.2-1.4,7.1c-0.4,6.9,3.8,9.9,8,9.3c3.6-0.5,8.1-8.2,4.2-16.1
				c-0.8-1.5,0-3.7,1.4-3.8l12.2-0.5l-0.3-47.3c0-1.7-1.1-3.1-2.4-3.1l-38-0.1v16.6C187.2,101.9,188.3,102.7,189.2,102z"/>
			<linearGradient id="SVGID_13_" gradientUnits="userSpaceOnUse" x1="248.3183" y1="53.1969" x2="198.6642" y2="122.5059">
				<stop  offset="0" style="stop-color:#FF9085"/>
				<stop  offset="1" style="stop-color:#FB6FBB"/>
			</linearGradient>
			<path class="st17" d="M189.9,101.9c1.4-1.3,3.6-2.3,6.6-1.2c5.7,2.1,5.4,9.4,4.3,13c-0.9,3-6.5,6.7-10.5,2.7c-0.8-0.8-2,0-2,1.5
				v17.5l14.4-0.5c1.3,0,2.1,1.8,1.5,3.4c-0.6,1.8-1.2,4.2-1.4,7.1c-0.4,6.9,3.8,9.9,8,9.3c3.6-0.5,8.1-8.2,4.2-16.1
				c-0.8-1.5,0-3.7,1.4-3.8l12.2-0.5l-0.3-47.3c0-1.7-1.1-3.1-2.4-3.1l-38-0.1v16.6C187.9,101.9,189,102.7,189.9,101.9z"/>
			<path class="st10" d="M216.4,132.4l10.4-0.4l-0.3-42.9c0-1.5-0.9-2.6-2-2.6l-34.8,0v12.6c1.3-0.9,2.7-1.4,4.2-1.4
				c1,0,1.9,0.2,2.9,0.6c3.3,1.2,4.8,3.9,5.5,5.9c1.2,3.7,0.8,7.8,0,10.5c-1,3.2-4.6,5.9-8,6c-1.5,0-3-0.4-4.3-1.4v13.4l12.6-0.4
				c1.2,0,2.3,0.8,3,2.2c0.6,1.4,0.7,3.2,0.2,4.8c-0.7,1.9-1.1,4-1.2,6.2c-0.1,1.9,0.2,3.4,1,4.5c1,1.5,2.7,2.3,4.6,2.2
				c0.2,0,0.3,0,0.5,0c1.1-0.1,2.7-1.6,3.5-4.1c0.6-1.8,1-4.6-0.7-8c-0.7-1.5-0.8-3.4-0.2-5C214,133.5,215.1,132.4,216.4,132.4z"/>
		</g>
		<g>
			<g>
				<g>
					<path class="st2" d="M150.7,192.3l2.1-0.2c0.6-0.1,1.1-0.7,1.1-1.5v-5.6c0-0.8-0.5-1.4-1.1-1.3l-2.2,0.2
						c-0.6,0.1-1.2,0.7-1.2,1.5v5.6C149.5,191.8,150.1,192.4,150.7,192.3z"/>
				</g>
				<g>
					<path class="st2" d="M156.8,191.8l2.1-0.2c0.6-0.1,1.1-0.7,1.1-1.5v-9.3c0-0.8-0.5-1.4-1.1-1.3l-2.1,0.2
						c-0.6,0-1.1,0.7-1.1,1.5v9.4C155.8,191.2,156.2,191.8,156.8,191.8z"/>
				</g>
				<g>
					<path class="st2" d="M162.6,191.2l2-0.2c0.6-0.1,1-0.7,1-1.5v-12.5c0-0.8-0.4-1.3-1-1.3l-2,0.2c-0.6,0-1.1,0.7-1.1,1.5v12.5
						C161.6,190.7,162,191.3,162.6,191.2z"/>
				</g>
				<g>
					<path class="st2" d="M166,192.3l-16.9,1.6c-0.3,0-0.5,0.3-0.5,0.7v0.4c0,0.4,0.2,0.6,0.5,0.6l16.9-1.7c0.3,0,0.5-0.3,0.5-0.7
						v-0.4C166.5,192.6,166.3,192.3,166,192.3z"/>
				</g>
			</g>
			<g>
				<g>
					<path class="st2" d="M149.8,180.3c-0.2,0-0.4-0.1-0.6-0.4c-0.2-0.4-0.1-0.9,0.2-1.1l13.3-10.6c0.3-0.2,0.7-0.1,0.9,0.2
						c0.2,0.4,0.1,0.9-0.2,1.1l-13.2,10.6C150,180.2,149.9,180.3,149.8,180.3z"/>
				</g>
				<g>
					<path class="st2" d="M162.4,172.8c0,0-0.1,0-0.1,0c-0.3-0.1-0.6-0.5-0.5-0.9l0.4-2.4l-2-0.7c-0.3-0.1-0.5-0.6-0.4-1
						c0.1-0.4,0.5-0.7,0.8-0.6l2.6,0.9c0.3,0.1,0.5,0.5,0.4,0.9l-0.6,3.2C163,172.5,162.7,172.8,162.4,172.8z"/>
				</g>
			</g>
		</g>
		<g>
			<g>
				<path class="st2" d="M215.3,116.2c-5.2,0-9.4-5.6-9.4-12.5s4.2-12.5,9.4-12.5s9.4,5.6,9.4,12.5S220.5,116.2,215.3,116.2z
					 M215.3,92.9c-4.5,0-8.1,4.8-8.1,10.8s3.6,10.8,8.1,10.8c4.5,0,8.1-4.8,8.1-10.8S219.7,92.9,215.3,92.9z"/>
			</g>
			<g>
				<path class="st2" d="M221,103.8c0,0.8-0.3,1.5-0.7,1.5h-10c-0.4,0-0.7-0.7-0.7-1.5l0,0c0-0.8,0.3-1.5,0.7-1.5h10
					C220.7,102.3,221,103,221,103.8L221,103.8z"/>
			</g>
		</g>
	</g>
</g>
<g>
	<g>
		<path class="st2" d="M259.6,127.5c0,0.8-0.4,1.4-1.2,1.4l0,0c-0.7,0-1.2-0.6-1.2-1.4V118c0-0.8,0.4-1.7,1.2-1.7h0.2
			c0.7,0,1,1,1,1.7V127.5z"/>
		<path class="st2" d="M264,122.9c0,0.8-0.6,1.4-1.3,1.4l-9.2-0.1c-0.7,0-1.3-0.6-1.3-1.4v-0.2c0-0.8,0.6-1.4,1.4-1.4l9.2,0.1
			c0.8,0,1.3,0.6,1.3,1.4V122.9z"/>
	</g>
	<g>
		<path class="st2" d="M255.9,145.6c-0.5,0.5-1.4,0.5-1.9-0.1l0,0c-0.5-0.6-0.5-1.4,0-2l6.5-6.5c0.5-0.5,1.4-0.5,1.9,0.1l0,0
			c0.5,0.6,0.5,1.4,0,2L255.9,145.6z"/>
		<path class="st2" d="M262.4,145.9c-0.5,0.5-1.4,0.5-1.9-0.1l-6.5-7c-0.5-0.6-0.5-1.4,0-2l0,0c0.5-0.5,1.4-0.5,1.9,0.1l6.5,7
			C262.9,144.5,262.9,145.4,262.4,145.9L262.4,145.9z"/>
	</g>
	<path class="st2" d="M284.2,123.1c0,0.8-0.6,1.4-1.4,1.4l-9.6-0.1c-0.8,0-1.3-0.6-1.3-1.4v-0.2c0-0.8,0.5-1.4,1.3-1.4l9.7,0.1
		c0.8,0,1.4,0.7,1.4,1.5V123.1z"/>
	<g>
		<path class="st2" d="M284.2,141.2c0,0.8-0.6,1.4-1.4,1.4l-9.6-0.3c-0.8,0-1.3-0.7-1.3-1.5v-0.2c0-0.8,0.5-1.4,1.3-1.4l9.7,0.3
			c0.8,0,1.4,0.7,1.4,1.5V141.2z"/>
		<g>
			<path class="st2" d="M279.8,136.4c0,0.9-0.8,1.7-1.7,1.6c-0.9,0-1.7-0.8-1.7-1.7s0.7-1.7,1.7-1.6
				C279,134.7,279.8,135.5,279.8,136.4z"/>
			<path class="st2" d="M279.8,145c0,0.9-0.8,1.7-1.7,1.6c-0.9,0-1.7-0.8-1.7-1.8s0.7-1.7,1.7-1.6C279,143.3,279.8,144.1,279.8,145z
				"/>
		</g>
	</g>
</g>
<g>
	<path class="st2" d="M71.2,156.1c0.4,0.2,0.9,0.3,1.4,0.3c0.4,0,0.9-0.1,1.3-0.2c1-0.3,1.7-1,2-1.7l3.9-8.6H83v0.5
		c0,0.2,0.2,0.4,0.4,0.4c0.2,0,0.4-0.2,0.4-0.4v-0.5h3.3l3.9,8.6c0.3,0.8,1.1,1.4,2,1.7c0.4,0.1,0.9,0.2,1.3,0.2
		c0.5,0,1-0.1,1.4-0.3c0.1,0,0.2-0.1,0.2-0.2c0-0.1,0-0.2,0-0.3l-4.4-9.7h1.7c0.2,0,0.4-0.2,0.4-0.4s-0.2-0.4-0.4-0.4h-2l-3.9-8.7
		c0.6-0.8,0.9-1.8,0.9-2.9c0-2.5-2-4.6-4.4-4.8v-1h1.3c0.2,0,0.4-0.2,0.4-0.4v-2.6c0-0.7-0.6-1.3-1.3-1.3h-1.6
		c-0.7,0-1.3,0.6-1.3,1.3v2.6c0,0.2,0.2,0.4,0.4,0.4h1.3v1c-2.4,0.2-4.3,2.3-4.3,4.8c0,1.1,0.4,2.2,1,3l-3.8,8.5h-2
		c-0.2,0-0.4,0.2-0.4,0.4s0.2,0.4,0.4,0.4h1.6l-4.4,9.7c0,0.1,0,0.2,0,0.3C71.1,156,71.1,156,71.2,156.1z M83.8,145v-0.5
		c0-0.2-0.2-0.4-0.4-0.4c-0.2,0-0.4,0.2-0.4,0.4v0.5h-2.7l3-6.7c0,0,0.1,0,0.1,0c0.1,0,0.2,0,0.3,0l3,6.7H83.8z M83.4,129.5
		c2.2,0,4,1.8,4,4s-1.8,4-4,4s-4-1.8-4-4S81.2,129.5,83.4,129.5z"/>
	<path class="st2" d="M103.6,127.2v-1.8c0-1.1-0.9-2-2-2h-3.1c-1.1,0-2,0.9-2,2v1.8c-0.2,0-0.4,0.2-0.4,0.4V150c0,0.3,0.1,0.7,0.2,1
		l2.4,4.5c0.2,0.5,0.7,0.8,1.3,0.8c0.6,0,1.1-0.3,1.3-0.8l2.4-4.6c0.1-0.3,0.2-0.6,0.2-1v-22.4C104,127.4,103.8,127.2,103.6,127.2z
		 M98.6,124.2h3.1c0.6,0,1.1,0.5,1.1,1.1v1.8h-5.4v-1.8C97.4,124.7,97.9,124.2,98.6,124.2z M101.9,152.8h-3.6l-1.1-2.1
		c0-0.1-0.1-0.2-0.1-0.2h6c0,0.1,0,0.1-0.1,0.2L101.9,152.8z"/>
</g>
<g>
	<path class="st18" d="M158,51.4V37.4c0,0,0,0-0.1,0c-7.7,0-14,6.3-14,14c0,7.7,6.3,13.9,14,13.9c7.7,0,14-6,14-14
		C172,51.4,158,51.4,158,51.4z"/>
	<path class="st18" d="M174,49.4C174,49.4,174,49.4,174,49.4c0-7.7-5.9-13.9-13.9-13.9v13.9L174,49.4L174,49.4z"/>
</g>
</svg>
