<?xml version="1.0" encoding="utf-8"?>
<!-- Generator: Adobe Illustrator 24.2.0, SVG Export Plug-In . SVG Version: 6.00 Build 0)  -->
<svg version="1.1" id="Layer_1" xmlns="http://www.w3.org/2000/svg" xmlns:xlink="http://www.w3.org/1999/xlink" x="0px" y="0px"
	 viewBox="0 0 383.2 243.3" style="enable-background:new 0 0 383.2 243.3;" xml:space="preserve">
<style type="text/css">
	.st0{fill:#F4F7FA;}
	.st1{fill:#BFC8D6;}
	.st2{fill:#FFFFFF;}
	.st3{fill:url(#SVGID_1_);}
	.st4{fill:url(#SVGID_2_);}
	.st5{fill:url(#SVGID_3_);}
	.st6{opacity:0.75;fill:#F4F7FA;}
	.st7{fill:url(#SVGID_4_);}
	.st8{fill:url(#SVGID_5_);}
	.st9{opacity:0.3;fill:url(#SVGID_6_);}
	.st10{fill:url(#SVGID_7_);}
	.st11{opacity:0.3;fill:url(#SVGID_8_);}
	.st12{fill:url(#SVGID_9_);}
	.st13{fill:url(#SVGID_10_);}
	.st14{fill:url(#SVGID_11_);}
	.st15{opacity:0.5;fill:#F4F7FA;}
	.st16{fill:url(#SVGID_12_);}
	.st17{fill:url(#SVGID_13_);}
	.st18{fill:url(#SVGID_14_);}
	.st19{opacity:0.3;fill:url(#SVGID_15_);}
	.st20{opacity:0.44;fill:#F4F7FA;}
	.st21{fill:#FDFFFF;}
</style>
<g>
	<path class="st0" d="M281.1,163.2c-5.9,22.6-22.4,43.5-62.5,54.3c-14.5,3.9-31.3,5.8-46.3,4.6c-22.1-1.7-45.3-11.7-63.7-23
		c-12.7-7.8-17.8-18.4-19.6-30.3c-1.1-7.4-1-15.3-0.6-23.4c0.5-12.2-1.4-24.5-4.3-36.4c-4.4-18.3-0.8-37.5,10.1-53.2
		s28.2-26.7,47.8-30.4c33.1-6.2,66.7-2.1,66.7-2.1c44.3,4.6,66.7,48.5,72.1,84.3C283.4,124,286,144.2,281.1,163.2z"/>
	<g>
		<g>
			<path class="st1" d="M184.3,163.6c-26,0-47.1-21.1-47.1-47.1s21.1-47.1,47.1-47.1s47.1,21.1,47.1,47.1S210.3,163.6,184.3,163.6z
				 M184.3,70.5c-25.4,0-46,20.6-46,46s20.6,46,46,46s46-20.6,46-46S209.6,70.5,184.3,70.5z"/>
		</g>
		<g>
			<path class="st1" d="M184.3,183.6c-17.9,0-34.7-7-47.4-19.6c-12.7-12.7-19.6-29.5-19.6-47.4s7-34.7,19.6-47.4
				c12.7-12.7,29.5-19.6,47.4-19.6s34.7,7,47.4,19.6c12.7,12.7,19.6,29.5,19.6,47.4s-7,34.7-19.6,47.4
				C219,176.6,202.2,183.6,184.3,183.6z M184.3,50.6c-36.4,0-65.9,29.6-65.9,65.9s29.6,65.9,65.9,65.9s65.9-29.6,65.9-65.9
				S220.6,50.6,184.3,50.6z"/>
		</g>
		<g>
			<path class="st1" d="M184.3,202.6c-23,0-44.6-8.9-60.8-25.2c-16.2-16.2-25.2-37.8-25.2-60.8s8.9-44.6,25.2-60.8
				c16.2-16.2,37.8-25.2,60.8-25.2s44.6,8.9,60.8,25.2c16.2,16.2,25.2,37.8,25.2,60.8s-8.9,44.6-25.2,60.8
				C228.9,193.6,207.3,202.6,184.3,202.6z M184.3,31.6c-46.8,0-84.9,38.1-84.9,84.9s38.1,84.9,84.9,84.9s84.9-38.1,84.9-84.9
				S231.1,31.6,184.3,31.6z"/>
		</g>
	</g>
	<g>
		<g>
			<g>
				<g>
					<circle class="st2" cx="91.7" cy="141.2" r="33.3"/>
					
						<linearGradient id="SVGID_1_" gradientUnits="userSpaceOnUse" x1="70.3506" y1="141.3942" x2="145.0124" y2="6.0397" gradientTransform="matrix(1 0 0 -1 0 243.8898)">
						<stop  offset="3.597120e-03" style="stop-color:#E38DDD"/>
						<stop  offset="1" style="stop-color:#9571F6"/>
					</linearGradient>
					<circle class="st3" cx="91.7" cy="141.2" r="29.6"/>
				</g>
			</g>
		</g>
	</g>
</g>
<g>
	<g>
		<g>
			<circle class="st2" cx="266.9" cy="130.9" r="31"/>
			
				<linearGradient id="SVGID_2_" gradientUnits="userSpaceOnUse" x1="247.0339" y1="149.0051" x2="316.4838" y2="23.0992" gradientTransform="matrix(1 0 0 -1 0 243.8898)">
				<stop  offset="0" style="stop-color:#FF9085"/>
				<stop  offset="1" style="stop-color:#FB6FBB"/>
			</linearGradient>
			<circle class="st4" cx="266.9" cy="130.9" r="27.5"/>
		</g>
	</g>
</g>
<g>
	<g>
		<g>
			<circle class="st2" cx="157.6" cy="51.8" r="31.5"/>
			
				<linearGradient id="SVGID_3_" gradientUnits="userSpaceOnUse" x1="137.4436" y1="228.6314" x2="207.9826" y2="100.7511" gradientTransform="matrix(1 0 0 -1 0 243.8898)">
				<stop  offset="0" style="stop-color:#FFC444"/>
				<stop  offset="0.9964" style="stop-color:#F36F56"/>
			</linearGradient>
			<circle class="st5" cx="157.6" cy="51.8" r="28"/>
		</g>
	</g>
</g>
<g>
	<path class="st6" d="M232,136.2c0-27.5-23.4-49.8-52.3-49.8c-28.9,0-52.3,22.3-52.3,49.8c0,16.7,8.6,31.4,21.9,40.5
		c5.6,3.8,9,10.1,9,16.9v3.8c0,8.3,6.7,15,15,15h12.8c8.3,0,15-6.7,15-15v-3.8c0-6.8,3.4-13.1,9-16.9
		C223.4,167.7,232,152.9,232,136.2z"/>
	<linearGradient id="SVGID_4_" gradientUnits="userSpaceOnUse" x1="178.6326" y1="243.3506" x2="179.561" y2="235.923">
		<stop  offset="3.597000e-03" style="stop-color:#26264F"/>
		<stop  offset="1" style="stop-color:#444B8C"/>
	</linearGradient>
	<ellipse class="st7" cx="179.7" cy="234.6" rx="11.6" ry="6.1"/>
	<linearGradient id="SVGID_5_" gradientUnits="userSpaceOnUse" x1="174.8141" y1="236.581" x2="184.0986" y2="219.8689">
		<stop  offset="3.597000e-03" style="stop-color:#26264F"/>
		<stop  offset="1" style="stop-color:#444B8C"/>
	</linearGradient>
	<path class="st8" d="M164.3,223.7v6.3c0,2.1,1.2,4.1,3.1,5c2.7,1.3,7.1,2.7,13.5,2.5c5.2-0.1,8.6-1,10.8-1.9
		c2.1-0.9,3.4-2.9,3.4-5.2v-3.5L164.3,223.7z"/>
	<linearGradient id="SVGID_6_" gradientUnits="userSpaceOnUse" x1="164.314" y1="228.6611" x2="195.1289" y2="228.6611">
		<stop  offset="3.597000e-03" style="stop-color:#26264F"/>
		<stop  offset="1" style="stop-color:#444B8C"/>
	</linearGradient>
	<path class="st9" d="M164.3,229.2c0.5,0.5,1,0.8,1.6,1.1c3,1.4,22.5,4.6,27.2,2.8c0.6-0.2,1.2-0.5,1.6-0.9c0.2-0.6,0.3-1.2,0.3-1.9
		v-3.5l-30.8-3.2V229.2z"/>
	<linearGradient id="SVGID_7_" gradientUnits="userSpaceOnUse" x1="175.6979" y1="232.0142" x2="184.8664" y2="214.3736">
		<stop  offset="3.597000e-03" style="stop-color:#26264F"/>
		<stop  offset="1" style="stop-color:#444B8C"/>
	</linearGradient>
	<path class="st10" d="M165.7,219.4c-1.7-0.2-3.2,1.2-3.2,2.9v0.2c0,2.4,1.4,4.6,3.5,5.6c3,1.4,22.5,4.6,27.2,2.8
		c2.4-0.9,3.8-2.9,3.8-5.5v-0.1c0-1.5-1.1-2.8-2.6-2.9L165.7,219.4z"/>
	<linearGradient id="SVGID_8_" gradientUnits="userSpaceOnUse" x1="162.9334" y1="223.4677" x2="196.4943" y2="223.4677">
		<stop  offset="3.597000e-03" style="stop-color:#26264F"/>
		<stop  offset="1" style="stop-color:#444B8C"/>
	</linearGradient>
	<path class="st11" d="M194.4,222.4l-28.7-3c-1.1-0.1-2.2,0.4-2.7,1.3c0.6,1.4,1.6,2.5,3,3.2c3,1.4,23.3,5,27.2,3.2
		c1.5-0.7,2.7-1.9,3.3-3.4C196,223,195.3,222.5,194.4,222.4z"/>
	<linearGradient id="SVGID_9_" gradientUnits="userSpaceOnUse" x1="162.4362" y1="217.4038" x2="197.0067" y2="217.4038">
		<stop  offset="3.597000e-03" style="stop-color:#26264F"/>
		<stop  offset="1" style="stop-color:#444B8C"/>
	</linearGradient>
	<path class="st12" d="M164.6,209.2c-1.2,0-2.1,1-2.1,2.1v4.9c0,2.4,1.4,4.6,3.5,5.6c3,1.4,23.3,5,27.2,3.2c2.3-1.1,3.8-3.3,3.8-5.8
		v-7.9c0-1.2-1-2.1-2.1-2.1H164.6z"/>
	<linearGradient id="SVGID_10_" gradientUnits="userSpaceOnUse" x1="178.8629" y1="214.7961" x2="182.2673" y2="198.8577">
		<stop  offset="3.597000e-03" style="stop-color:#26264F"/>
		<stop  offset="1" style="stop-color:#444B8C"/>
	</linearGradient>
	<ellipse class="st13" cx="179.7" cy="210.8" rx="16.9" ry="4"/>
	<linearGradient id="SVGID_11_" gradientUnits="userSpaceOnUse" x1="172.3253" y1="125.862" x2="239.8664" y2="233.0923">
		<stop  offset="0" style="stop-color:#FCB148"/>
		<stop  offset="5.207239e-02" style="stop-color:#FDBA46"/>
		<stop  offset="0.1424" style="stop-color:#FFC244"/>
		<stop  offset="0.3183" style="stop-color:#FFC444"/>
		<stop  offset="0.4849" style="stop-color:#FDB946"/>
		<stop  offset="0.7754" style="stop-color:#F99C4D"/>
		<stop  offset="0.8658" style="stop-color:#F8924F"/>
		<stop  offset="1" style="stop-color:#F8924F"/>
	</linearGradient>
	<path class="st14" d="M232,136.2c0-27.5-23.4-49.8-52.3-49.8c-28.9,0-52.3,22.3-52.3,49.8c0,16.7,8.6,31.4,21.9,40.5
		c5.6,3.8,9,10.1,9,16.9v3.8c0,8.3,6.7,15,15,15h12.8c8.3,0,15-6.7,15-15v-3.8c0-6.8,3.4-13.1,9-16.9
		C223.4,167.7,232,152.9,232,136.2z"/>
	<ellipse class="st15" cx="179.7" cy="207.6" rx="12.3" ry="2.9"/>
	<g>
		<linearGradient id="SVGID_12_" gradientUnits="userSpaceOnUse" x1="159.9864" y1="208.428" x2="173.7584" y2="168.1952">
			<stop  offset="0.494" style="stop-color:#EBEFF2"/>
			<stop  offset="1" style="stop-color:#FFFFFF"/>
		</linearGradient>
		<path class="st16" d="M176.5,209.4c-0.4,0-0.7-0.3-0.7-0.6l-9.1-70.6c-0.1-0.4,0.2-0.7,0.6-0.8c0.4-0.1,0.7,0.2,0.8,0.6l9.1,70.6
			C177.3,209,177,209.4,176.5,209.4C176.6,209.4,176.5,209.4,176.5,209.4z"/>
		<linearGradient id="SVGID_13_" gradientUnits="userSpaceOnUse" x1="173.1528" y1="212.935" x2="186.9248" y2="172.7022">
			<stop  offset="0.494" style="stop-color:#EBEFF2"/>
			<stop  offset="1" style="stop-color:#FFFFFF"/>
		</linearGradient>
		<path class="st17" d="M182.1,209.4C182.1,209.4,182.1,209.4,182.1,209.4c-0.5-0.1-0.8-0.4-0.7-0.8l9.1-70.6
			c0.1-0.4,0.4-0.7,0.8-0.6c0.4,0.1,0.7,0.4,0.6,0.8l-9.1,70.6C182.8,209.2,182.5,209.4,182.1,209.4z"/>
		<linearGradient id="SVGID_14_" gradientUnits="userSpaceOnUse" x1="155.1906" y1="206.7865" x2="168.9626" y2="166.5536">
			<stop  offset="0.494" style="stop-color:#EBEFF2"/>
			<stop  offset="1" style="stop-color:#FFFFFF"/>
		</linearGradient>
		<path class="st18" d="M189.5,138.2c-0.2,0-0.5-0.1-0.6-0.3l-2.5-3.8c0,0-0.1-0.1-0.1-0.1c-0.1,0-0.1,0-0.1,0.1l-1.7,2.8
			c-0.3,0.5-0.8,0.7-1.3,0.8c-0.5,0-1-0.2-1.3-0.7l-2.3-3.4c0,0-0.1-0.1-0.1-0.1c0,0-0.1,0-0.1,0.1l-2,2.9c-0.3,0.4-0.8,0.7-1.3,0.7
			h0c-0.5,0-1-0.2-1.3-0.7l-2.9-4.1c0,0-0.1-0.1-0.1-0.1c0,0-0.1,0-0.1,0.1l-2.6,4.5c-0.2,0.3-0.6,0.5-1,0.3c-0.3-0.2-0.5-0.6-0.3-1
			l2.6-4.5c0.3-0.5,0.7-0.7,1.3-0.8c0.5,0,1,0.2,1.3,0.7l2.9,4.1c0,0,0.1,0.1,0.1,0.1h0c0,0,0.1,0,0.1-0.1l2-2.9
			c0.3-0.4,0.8-0.7,1.3-0.7c0.5,0,1,0.3,1.3,0.7l2.3,3.4c0,0,0.1,0.1,0.1,0.1c0.1,0,0.1,0,0.1-0.1l1.7-2.8c0.3-0.5,0.8-0.7,1.3-0.8
			c0.5,0,1,0.2,1.3,0.7l2.5,3.8c0.2,0.3,0.1,0.8-0.2,1C189.8,138.1,189.7,138.2,189.5,138.2z"/>
	</g>
	<linearGradient id="SVGID_15_" gradientUnits="userSpaceOnUse" x1="174.6954" y1="101.6914" x2="161.2329" y2="212.6411">
		<stop  offset="0" style="stop-color:#FCB148"/>
		<stop  offset="5.207239e-02" style="stop-color:#FDBA46"/>
		<stop  offset="0.1424" style="stop-color:#FFC244"/>
		<stop  offset="0.3183" style="stop-color:#FFC444"/>
		<stop  offset="0.4849" style="stop-color:#FDB946"/>
		<stop  offset="0.7754" style="stop-color:#F99C4D"/>
		<stop  offset="0.8658" style="stop-color:#F8924F"/>
		<stop  offset="1" style="stop-color:#F8924F"/>
	</linearGradient>
	<path class="st19" d="M180.7,175.5c1.1-19.2,33.5-23.7,33.3-40.8c-0.1-10.6-12.9-18.4-15.7-20c-20.2-11.6-45.1,1.8-50.3-7.7
		c-1.3-2.4-0.7-4.9-0.3-6.4c0.5-2.2,1.7-4.3,3.4-6.1c-14.3,8.9-23.7,24.2-23.7,41.7c0,16.7,8.6,31.4,21.9,40.5
		c5.6,3.8,9,10.1,9,16.9v3.8c0,8.3,6.7,15,15,15h12.8c8.3,0,15-6.7,15-15v-3c-1.8,1.4-3.8,2.3-6,2.3
		C187.4,196.6,180.1,185,180.7,175.5z"/>
	<ellipse class="st20" cx="180.6" cy="138.2" rx="45" ry="43.4"/>
</g>
<g>
	<path class="st2" d="M103.2,130.7c2.3,0,4.1-1.8,4.1-4.1s-1.8-4.1-4.1-4.1c-2.3,0-4.1,1.8-4.1,4.1
		C99.2,128.9,101,130.7,103.2,130.7z M101.8,126.3h1.1v-1.1c0-0.2,0.2-0.4,0.4-0.4c0.2,0,0.4,0.2,0.4,0.4v1.1h1.1
		c0.2,0,0.4,0.2,0.4,0.4c0,0.2-0.2,0.4-0.4,0.4h-1.1v1.1c0,0.2-0.2,0.4-0.4,0.4c-0.2,0-0.4-0.2-0.4-0.4V127h-1.1
		c-0.2,0-0.4-0.2-0.4-0.4C101.4,126.4,101.6,126.3,101.8,126.3z"/>
	<path class="st2" d="M103.2,150.8c-2.3,0-4.1,1.8-4.1,4.1c0,2.3,1.8,4.1,4.1,4.1c2.3,0,4.1-1.8,4.1-4.1
		C107.3,152.6,105.5,150.8,103.2,150.8z M104.7,155.2h-3c-0.2,0-0.4-0.2-0.4-0.4c0-0.2,0.2-0.4,0.4-0.4h3c0.2,0,0.4,0.2,0.4,0.4
		C105.1,155.1,104.9,155.2,104.7,155.2z"/>
	<path class="st2" d="M76.1,140.8c0-3.5,2.8-6.3,6.3-6.3H91v-5.2h-8.5c-6.4,0-11.5,5.2-11.5,11.5s5.2,11.5,11.5,11.5H91v-5.2h-8.5
		C79,147.1,76.1,144.2,76.1,140.8z"/>
	<path class="st2" d="M98.4,134.1v-4.5c0-0.2-0.2-0.4-0.4-0.4c0,0,0,0,0,0h-6.3v5.2h6.3C98.3,134.4,98.4,134.3,98.4,134.1
		C98.4,134.1,98.4,134.1,98.4,134.1z"/>
	<path class="st2" d="M98.1,147.1h-6.3v5.2h6.3c0.2,0,0.4-0.2,0.4-0.4c0,0,0,0,0,0v-4.5C98.4,147.2,98.3,147.1,98.1,147.1
		C98.1,147.1,98.1,147.1,98.1,147.1z"/>
	<path class="st2" d="M99.2,141.9h4.8c0.2,0,0.4-0.2,0.4-0.4c0-0.1-0.1-0.3-0.2-0.3l-7.4-3.7c-0.2-0.1-0.4,0-0.5,0.2
		c0,0.1,0,0.1,0,0.2v1.9h-5.6c-0.2,0-0.4,0.2-0.4,0.4c0,0.1,0.1,0.3,0.2,0.3l8.2,3.7c0,0,0.1,0,0.2,0c0.1,0,0.1,0,0.2-0.1
		c0.1-0.1,0.2-0.2,0.2-0.3V141.9z"/>
</g>
<path class="st2" d="M267.5,139.8c-0.3-0.3-0.8-0.3-1.1,0l-5.1,5.5c-0.2,0.2-0.3,0.5-0.1,0.8c0.1,0.3,0.4,0.4,0.7,0.4h10.3
	c0.3,0,0.6-0.2,0.7-0.4c0.1-0.3,0.1-0.6-0.1-0.8L267.5,139.8L267.5,139.8z"/>
<path class="st2" d="M284.5,131.6c-0.1-0.4-0.6-0.6-0.9-0.4l-22.7,8.3c0.6-0.9,0.9-2,0.9-3.2c0-3.2-2.6-5.9-5.9-5.9
	c-3.2,0-5.9,2.6-5.9,5.9c0,2.6,1.8,4.8,4.1,5.6l-2.9,1.1c-0.4,0.1-0.6,0.6-0.4,0.9c0.1,0.3,0.4,0.5,0.7,0.5c0.1,0,0.2,0,0.3,0
	l32.3-11.7C284.5,132.4,284.7,132,284.5,131.6L284.5,131.6z"/>
<path class="st2" d="M277.3,123.1c2.8,0,5.1-2.3,5.1-5.1s-2.3-5.1-5.1-5.1c-2.8,0-5.1,2.3-5.1,5.1S274.4,123.1,277.3,123.1z"/>
<g>
	<path class="st21" d="M148.8,49.9c-0.4,0-0.6-0.3-0.6-0.7c0,0,0,0,0,0c0-0.4,0.4-0.6,0.7-0.6c0,0,0,0,0,0c0.9,0.1,1.7,0.1,2.6,0
		c0.4,0,0.7,0.2,0.7,0.6c0,0.4-0.2,0.7-0.6,0.7c-0.4,0-0.7,0-1.1,0C149.9,50,149.3,50,148.8,49.9z M145.4,49.2
		c0.3,0.1,0.5,0.2,0.8,0.2c0.1,0,0.1,0,0.2,0c0.4,0,0.7-0.2,0.7-0.6c0-0.4-0.2-0.7-0.6-0.7c-0.3-0.1-0.5-0.1-0.8-0.2
		c-0.3-0.1-0.7,0.1-0.8,0.4c0,0,0,0,0,0C144.8,48.7,145,49.1,145.4,49.2C145.4,49.2,145.4,49.2,145.4,49.2z M152.3,51.9
		c0-0.4-0.3-0.6-0.7-0.6c-1,0.1-2,0.1-3,0c-1.2-0.1-2.5-0.4-3.6-0.8c-0.3-0.1-0.7,0.1-0.8,0.4c0,0,0,0,0,0c-0.1,0.3,0.1,0.7,0.4,0.8
		c0,0,0,0,0,0c1.3,0.4,2.6,0.7,3.9,0.8c0.6,0.1,1.3,0.1,1.9,0.1c0.4,0,0.9,0,1.3,0C152.1,52.5,152.3,52.2,152.3,51.9z M171.5,36.4
		h-27.7c-1.8,0-3.2,1.4-3.2,3.2v7c0,0.4,0.3,0.6,0.6,0.6c0.4,0,0.6-0.3,0.6-0.6v-7c0-1.1,0.9-1.9,1.9-1.9h2.5L141,52.6
		c-0.1,0-0.3,0-0.4,0c-1.7,0-3.1,1.4-3.1,3.1c0,1.7,1.4,3.1,3.1,3.1c1.7,0,3.1-1.4,3.1-3.1c0-0.5-0.1-0.9-0.3-1.3
		c-0.3-0.5-0.7-1-1.2-1.3l5.4-15.2c0,0,0-0.1,0.1-0.1h5.7v16.1c-1.7,0.4-2.7,2-2.3,3.6c0.4,1.7,2,2.7,3.6,2.3c1.7-0.4,2.7-2,2.3-3.6
		c-0.3-1.2-1.2-2.1-2.3-2.3V37.7h5.7v16.1c-1.7,0.4-2.7,2-2.4,3.6c0.4,1.7,2,2.7,3.6,2.4c1.7-0.4,2.7-2,2.4-3.6
		c-0.3-1.2-1.2-2.1-2.4-2.4V37.7h5.7v16.1c-1.7,0.4-2.7,2-2.4,3.6c0.4,1.7,2,2.7,3.6,2.4s2.7-2,2.4-3.6c-0.3-1.2-1.2-2.1-2.4-2.4
		V37.7h2.8c1.1,0,1.9,0.9,1.9,1.9v22.1c0,0.4,0.3,0.6,0.6,0.6c0.4,0,0.6-0.3,0.6-0.6V39.6C174.8,37.9,173.3,36.4,171.5,36.4
		C171.5,36.4,171.5,36.4,171.5,36.4L171.5,36.4z"/>
</g>
</svg>
