<?xml version="1.0" encoding="utf-8"?>
<!-- Generator: Adobe Illustrator 24.2.0, SVG Export Plug-In . SVG Version: 6.00 Build 0)  -->
<svg version="1.1" id="Layer_1" xmlns="http://www.w3.org/2000/svg" xmlns:xlink="http://www.w3.org/1999/xlink" x="0px" y="0px"
	 viewBox="0 0 383.2 243.3" style="enable-background:new 0 0 383.2 243.3;" xml:space="preserve">
<style type="text/css">
	.st0{fill:#F4F7FA;}
	.st1{fill:#BFC8D6;}
	.st2{fill:#FFFFFF;}
	.st3{fill:url(#SVGID_1_);}
	.st4{fill:url(#SVGID_2_);}
	.st5{fill:url(#SVGID_3_);}
	.st6{fill:#91B3FA;}
	.st7{fill:#BDD0FB;}
	.st8{fill:url(#SVGID_4_);}
	.st9{fill:url(#SVGID_5_);}
	.st10{fill:url(#SVGID_6_);}
	.st11{fill:url(#SVGID_7_);}
	.st12{fill:url(#SVGID_8_);}
	.st13{fill:url(#SVGID_9_);}
	.st14{fill:url(#SVGID_10_);}
	.st15{fill:url(#SVGID_11_);}
	.st16{fill:url(#SVGID_12_);}
	.st17{fill:url(#SVGID_13_);}
	.st18{fill:url(#SVGID_14_);}
	.st19{fill:url(#SVGID_15_);}
	.st20{fill:url(#SVGID_16_);}
	.st21{fill:url(#SVGID_17_);}
	.st22{fill:url(#SVGID_18_);}
	.st23{fill:url(#SVGID_19_);}
	.st24{fill:url(#SVGID_20_);}
	.st25{fill:url(#SVGID_21_);}
	.st26{fill:url(#SVGID_22_);}
	.st27{fill:url(#SVGID_23_);}
	.st28{fill:url(#SVGID_24_);}
	.st29{fill:url(#SVGID_25_);}
	.st30{fill:url(#SVGID_26_);}
	.st31{fill:url(#SVGID_27_);}
	.st32{fill:url(#SVGID_28_);}
	.st33{opacity:0.68;}
	.st34{fill:url(#SVGID_29_);}
	.st35{opacity:0.64;fill:#FFFFFF;}
</style>
<g>
	<path class="st0" d="M281.1,163.2c-5.9,22.6-22.4,43.5-62.5,54.3c-14.5,3.9-31.3,5.8-46.3,4.6c-22.1-1.7-45.3-11.7-63.7-23
		c-12.7-7.8-17.8-18.4-19.6-30.3c-1.1-7.4-1-15.3-0.6-23.4c0.5-12.2-1.4-24.5-4.3-36.4c-4.4-18.3-0.8-37.5,10.1-53.2
		s28.2-26.7,47.8-30.4c33.1-6.2,66.7-2.1,66.7-2.1c44.3,4.6,66.7,48.5,72.1,84.3C283.4,124,286,144.2,281.1,163.2z"/>
	<g>
		<g>
			<path class="st1" d="M184.3,163.6c-26,0-47.1-21.1-47.1-47.1s21.1-47.1,47.1-47.1s47.1,21.1,47.1,47.1S210.3,163.6,184.3,163.6z
				 M184.3,70.5c-25.4,0-46,20.6-46,46s20.6,46,46,46s46-20.6,46-46S209.6,70.5,184.3,70.5z"/>
		</g>
		<g>
			<path class="st1" d="M184.3,183.6c-17.9,0-34.7-7-47.4-19.6c-12.7-12.7-19.6-29.5-19.6-47.4s7-34.7,19.6-47.4
				c12.7-12.7,29.5-19.6,47.4-19.6s34.7,7,47.4,19.6c12.7,12.7,19.6,29.5,19.6,47.4s-7,34.7-19.6,47.4
				C219,176.6,202.2,183.6,184.3,183.6z M184.3,50.6c-36.4,0-65.9,29.6-65.9,65.9s29.6,65.9,65.9,65.9s65.9-29.6,65.9-65.9
				S220.6,50.6,184.3,50.6z"/>
		</g>
		<g>
			<path class="st1" d="M184.3,202.6c-23,0-44.6-8.9-60.8-25.2c-16.2-16.2-25.2-37.8-25.2-60.8s8.9-44.6,25.2-60.8
				c16.2-16.2,37.8-25.2,60.8-25.2s44.6,8.9,60.8,25.2c16.2,16.2,25.2,37.8,25.2,60.8s-8.9,44.6-25.2,60.8
				C228.9,193.6,207.3,202.6,184.3,202.6z M184.3,31.6c-46.8,0-84.9,38.1-84.9,84.9s38.1,84.9,84.9,84.9s84.9-38.1,84.9-84.9
				S231.1,31.6,184.3,31.6z"/>
		</g>
	</g>
</g>
<g>
	<g>
		<g>
			<circle class="st2" cx="266.9" cy="130.9" r="31"/>
			
				<linearGradient id="SVGID_1_" gradientUnits="userSpaceOnUse" x1="247.0339" y1="149.0051" x2="316.4838" y2="23.0992" gradientTransform="matrix(1 0 0 -1 0 243.8898)">
				<stop  offset="0" style="stop-color:#FF9085"/>
				<stop  offset="1" style="stop-color:#FB6FBB"/>
			</linearGradient>
			<circle class="st3" cx="266.9" cy="130.9" r="27.5"/>
		</g>
	</g>
</g>
<g>
	<g>
		<g>
			<circle class="st2" cx="157.6" cy="51.8" r="31.5"/>
			
				<linearGradient id="SVGID_2_" gradientUnits="userSpaceOnUse" x1="137.4436" y1="228.6314" x2="207.9826" y2="100.7511" gradientTransform="matrix(1 0 0 -1 0 243.8898)">
				<stop  offset="0" style="stop-color:#FFC444"/>
				<stop  offset="0.9964" style="stop-color:#F36F56"/>
			</linearGradient>
			<circle class="st4" cx="157.6" cy="51.8" r="28"/>
		</g>
	</g>
</g>
<g>
	<g>
		<g>
			<g>
				<circle class="st2" cx="91.7" cy="141.2" r="33.3"/>
				
					<linearGradient id="SVGID_3_" gradientUnits="userSpaceOnUse" x1="70.3506" y1="141.3942" x2="145.0124" y2="6.0397" gradientTransform="matrix(1 0 0 -1 0 243.8898)">
					<stop  offset="3.597120e-03" style="stop-color:#E38DDD"/>
					<stop  offset="1" style="stop-color:#9571F6"/>
				</linearGradient>
				<circle class="st5" cx="91.7" cy="141.2" r="29.6"/>
			</g>
		</g>
	</g>
</g>
<g>
	<g>
		<path class="st6" d="M168.3,153.3c-2.3-7.3-6.9-13.1-12.2-16.5c-4.8-3-8.2-7.8-9.5-13.3c-0.1-0.6-0.3-1.2-0.5-1.7
			c-2.8-8.8-10.5-14.1-17.1-12c-6.6,2.1-9.7,11-6.9,19.7c0.6,1.8,1.4,3.4,2.3,4.9c3,4.7,4.2,10.3,3.1,15.8
			c-0.9,4.9-0.7,10.4,1.1,15.8c2.6,8.1,7.9,14.4,14.1,17.6c2.3,1.2,4.4,2.8,6.2,4.7c2.9,3.2,6.9,4.7,10.7,3.5
			c4-1.3,6.5-5.4,6.7-10.1c0.1-2.7,0.7-5.3,1.7-7.8C170.4,168,170.7,160.6,168.3,153.3z"/>
		<path class="st7" d="M134.4,118.4c2.7,5.5,5.3,11.1,7.8,16.7c0.6,1.4,1.2,2.8,1.8,4.2l0.9,2.1l0.9,2.1c0.6,1.4,1.2,2.8,1.8,4.3
			l1.7,4.3c1.1,2.9,2.2,5.7,3.3,8.6c0.5,1.4,1.1,2.9,1.6,4.3l1.5,4.4c2,5.8,3.8,11.7,5.3,17.7l-0.3,0.1l-1.3-4.4l-0.3-1.1l-0.4-1.1
			l-0.7-2.2l-0.7-2.2c-0.2-0.7-0.5-1.5-0.7-2.2c-0.5-1.5-1-2.9-1.5-4.4c-2.1-5.8-4.2-11.5-6.5-17.2c-1.2-2.8-2.3-5.7-3.5-8.5
			l-0.9-2.1l-0.9-2.1c-0.6-1.4-1.2-2.8-1.8-4.2c-1.2-2.8-2.4-5.6-3.7-8.5c-1.2-2.8-2.5-5.6-3.7-8.4L134.4,118.4z"/>
	</g>
	<g>
		<path class="st7" d="M161.9,190.4c-2.9-5.7-7.4-9.9-12.3-12c-4.3-1.9-7.8-5.3-9.6-9.7c-0.2-0.5-0.4-0.9-0.6-1.4
			c-3.5-6.8-10.6-10.3-15.7-7.6c-5.2,2.7-6.5,10.4-3,17.2c0.7,1.4,1.6,2.7,2.6,3.7c3.1,3.5,4.8,8,4.7,12.6
			c-0.1,4.2,0.9,8.6,3.1,12.9c3.3,6.4,8.5,10.8,14,12.6c2.1,0.7,4,1.7,5.7,3.1c2.8,2.3,6.4,3,9.3,1.5c3.1-1.6,4.6-5.3,4.1-9.3
			c-0.3-2.2-0.1-4.5,0.4-6.7C165.7,202.3,164.9,196.1,161.9,190.4z"/>
		<linearGradient id="SVGID_4_" gradientUnits="userSpaceOnUse" x1="129.0602" y1="192.7196" x2="160.5131" y2="192.7196">
			<stop  offset="0" style="stop-color:#DAE3FE"/>
			<stop  offset="1" style="stop-color:#E9EFFD"/>
		</linearGradient>
		<path class="st8" d="M129.2,166.1c3,4.2,5.9,8.5,8.7,12.8c0.7,1.1,1.4,2.2,2.1,3.2l1,1.6l1,1.6c0.7,1.1,1.4,2.2,2,3.3l2,3.3
			c1.3,2.2,2.6,4.4,3.9,6.7c0.6,1.1,1.3,2.2,1.9,3.4l1.8,3.4c2.4,4.5,4.7,9.2,6.8,13.9l-0.2,0.1l-1.7-3.5l-0.4-0.9l-0.4-0.9
			l-0.9-1.7l-0.9-1.7c-0.3-0.6-0.6-1.1-0.9-1.7c-0.6-1.1-1.2-2.3-1.8-3.4c-2.5-4.5-5.1-8.9-7.7-13.3c-1.3-2.2-2.7-4.4-4-6.6l-1-1.6
			l-1-1.6c-0.7-1.1-1.4-2.2-2.1-3.3c-1.4-2.2-2.8-4.3-4.2-6.5c-1.4-2.2-2.8-4.3-4.2-6.4L129.2,166.1z"/>
	</g>
	<g>
		<path class="st6" d="M185.2,164.9c2.1-7.8,6.5-14.1,11.9-18c4.8-3.5,8.2-8.6,9.2-14.5c0.1-0.6,0.2-1.2,0.4-1.8
			c2.5-9.4,10.3-15.4,17.3-13.5c7.1,1.9,10.8,11,8.3,20.4c-0.5,1.9-1.2,3.7-2.1,5.3c-2.9,5.1-3.8,11.1-2.4,16.8
			c1.3,5.1,1.3,10.9-0.3,16.7c-2.3,8.7-7.6,15.6-13.9,19.3c-2.4,1.4-4.5,3.2-6.2,5.3c-2.9,3.6-7.1,5.4-11,4.3
			c-4.3-1.1-7.1-5.3-7.6-10.3c-0.2-2.8-1-5.6-2.2-8.1C183.8,180.5,183.1,172.7,185.2,164.9z"/>
		<path class="st7" d="M218.9,126.3c-2.6,5.9-5,12-7.3,18c-0.6,1.5-1.1,3-1.7,4.6l-0.8,2.3l-0.8,2.3c-0.5,1.5-1.1,3-1.6,4.6
			l-1.6,4.6c-1,3.1-2,6.1-3,9.2c-0.5,1.5-1,3.1-1.4,4.6l-1.4,4.7c-1.8,6.2-3.4,12.5-4.6,18.9l0.3,0.1l1.1-4.7l0.3-1.2l0.3-1.2
			l0.6-2.3l0.6-2.3c0.2-0.8,0.4-1.6,0.7-2.3c0.4-1.6,0.9-3.1,1.3-4.7c1.9-6.2,3.8-12.4,5.9-18.5c1.1-3.1,2.1-6.1,3.2-9.2l0.8-2.3
			l0.8-2.3c0.6-1.5,1.1-3,1.7-4.6c1.1-3,2.2-6.1,3.4-9.1c1.1-3,2.3-6,3.5-9.1L218.9,126.3z"/>
	</g>
	<g>
		<path class="st7" d="M200,190.8c3.2-5.4,7.9-9.2,12.8-11c4.4-1.6,8-4.8,10-8.9c0.2-0.4,0.4-0.9,0.7-1.3c3.9-6.5,11-9.4,15.9-6.5
			c4.9,2.9,5.7,10.6,1.9,17.1c-0.8,1.3-1.7,2.5-2.7,3.5c-3.2,3.2-5.2,7.5-5.4,12.1c-0.1,4.1-1.4,8.4-3.8,12.5
			c-3.6,6-9,10.1-14.5,11.5c-2.1,0.5-4,1.4-5.8,2.7c-2.9,2.1-6.4,2.5-9.2,0.9c-3-1.8-4.2-5.5-3.5-9.3c0.4-2.2,0.4-4.4,0.1-6.6
			C195.6,202.3,196.7,196.3,200,190.8z"/>
		<linearGradient id="SVGID_5_" gradientUnits="userSpaceOnUse" x1="199.6044" y1="194.1887" x2="233.6582" y2="194.1887">
			<stop  offset="0" style="stop-color:#DAE3FE"/>
			<stop  offset="1" style="stop-color:#E9EFFD"/>
		</linearGradient>
		<path class="st9" d="M233.5,169c-3.2,3.9-6.3,7.9-9.3,12c-0.8,1-1.5,2-2.2,3.1l-1.1,1.5l-1.1,1.5c-0.7,1-1.5,2.1-2.2,3.1l-2.2,3.1
			c-1.4,2.1-2.8,4.2-4.2,6.3c-0.7,1.1-1.4,2.1-2.1,3.2l-2,3.2c-2.6,4.3-5.2,8.7-7.5,13.2l0.2,0.1l1.9-3.3l0.5-0.8l0.5-0.8l1-1.6
			l1-1.6c0.3-0.5,0.7-1.1,1-1.6c0.7-1.1,1.3-2.1,2-3.2c2.7-4.3,5.5-8.5,8.4-12.6c1.4-2.1,2.9-4.1,4.3-6.2l1.1-1.5l1.1-1.5
			c0.7-1,1.5-2.1,2.2-3.1c1.5-2,3-4.1,4.5-6.1c1.5-2,3-4.1,4.5-6.1L233.5,169z"/>
	</g>
	<g>
		<g>
			<g>
				<path class="st2" d="M196.1,165l-4.3-45.5c-10.4-3.9-23.6,0.5-23.6,0.5l-2,45H196.1z"/>
				<linearGradient id="SVGID_6_" gradientUnits="userSpaceOnUse" x1="178.9167" y1="128.2717" x2="180.4477" y2="115.1736">
					<stop  offset="0" style="stop-color:#FEBBBA"/>
					<stop  offset="1" style="stop-color:#FF928E"/>
				</linearGradient>
				<path class="st10" d="M175.4,111.8l-0.2,6.5c0,0.6,0.4,1.2,1,1.4c1.7,0.6,5.1,1.5,8.3,0.3c0.7-0.2,1-0.9,0.9-1.6l-1-6.6H175.4z"
					/>
				<linearGradient id="SVGID_7_" gradientUnits="userSpaceOnUse" x1="121.8056" y1="185.9017" x2="201.9366" y2="112.7997">
					<stop  offset="0" style="stop-color:#4F52FF"/>
					<stop  offset="1" style="stop-color:#4042E2"/>
				</linearGradient>
				<path class="st11" d="M177.3,165c1.1-1.1,1.8-2,1.8-2l-1.4-3.9c0,0-11.1,6.3-14.7,3.2c-3.6-3.2,2.5-21.8,2.5-21.8l-8.8-16.1
					c0,0-7.4,24.7-4.9,38.2c0.2,1.3,1.4,2.2,2.7,2.2H177.3z"/>
				<polygon class="st2" points="175.3,115.7 180.3,120.5 176.7,123 173.5,118.7 				"/>
				<polygon class="st2" points="185,115.7 179.9,120.5 183.6,123 186.8,118.7 				"/>
				<g>
					<linearGradient id="SVGID_8_" gradientUnits="userSpaceOnUse" x1="180.3435" y1="113.6106" x2="179.7579" y2="96.735">
						<stop  offset="0" style="stop-color:#FEBBBA"/>
						<stop  offset="1" style="stop-color:#FF928E"/>
					</linearGradient>
					<path class="st12" d="M172.1,100c0,0,1.1,11.6,3.6,14.5c0,0,7.5,0.7,10.2-0.9c0,0,1.9-5.8,1.7-13.5c0,0,0.4-7-7.4-7.6
						C171.2,91.9,172.1,100,172.1,100z"/>
					<linearGradient id="SVGID_9_" gradientUnits="userSpaceOnUse" x1="188.2529" y1="113.3362" x2="187.6673" y2="96.4606">
						<stop  offset="0" style="stop-color:#FEBBBA"/>
						<stop  offset="1" style="stop-color:#FF928E"/>
					</linearGradient>
					<path class="st13" d="M186.8,103.6c0,0,0.7-2,1.8-2c1.1,0-0.2,5.4-1.8,5.4V103.6z"/>
					<linearGradient id="SVGID_10_" gradientUnits="userSpaceOnUse" x1="172.4761" y1="113.8836" x2="171.8905" y2="97.0081">
						<stop  offset="0" style="stop-color:#FEBBBA"/>
						<stop  offset="1" style="stop-color:#FF928E"/>
					</linearGradient>
					<path class="st14" d="M173.1,104.2c0,0-0.9-1.9-2.1-1.8c-1.1,0.2,1,5.4,2.5,5.1L173.1,104.2z"/>
					<linearGradient id="SVGID_11_" gradientUnits="userSpaceOnUse" x1="167.3329" y1="82.9141" x2="188.4362" y2="124.5504">
						<stop  offset="0" style="stop-color:#09005D"/>
						<stop  offset="1" style="stop-color:#1A0F91"/>
					</linearGradient>
					<path class="st15" d="M172.9,106.1c0,0,0.3,6.9,3.3,10.4c0.3,0.3,0.7,0.5,1.1,0.5c1.5,0.1,5.5,0.2,7.7-0.2c0.6-0.1,1-0.5,1.2-1
						c0.5-1.6,1.5-4.1,1.2-10l-1.8,4.3c-1.3,3.6-2.1-0.8-2.7-0.7h-4.1c-0.4,0-0.9,2.7-2.5,1.9L172.9,106.1z"/>
					<linearGradient id="SVGID_12_" gradientUnits="userSpaceOnUse" x1="171.2338" y1="80.937" x2="192.3371" y2="122.5732">
						<stop  offset="0" style="stop-color:#09005D"/>
						<stop  offset="1" style="stop-color:#1A0F91"/>
					</linearGradient>
					<path class="st16" d="M184.6,97.3c0,0-5.8,5.9-12.1,5.9c0,0-3.6-9.5,3.5-11.1c7-1.6,7.3,0.5,7.3,0.5s8.1-2,4.4,9.6L184.6,97.3z
						"/>
				</g>
				<linearGradient id="SVGID_13_" gradientUnits="userSpaceOnUse" x1="140.3652" y1="206.2455" x2="220.4961" y2="133.1436">
					<stop  offset="0" style="stop-color:#4F52FF"/>
					<stop  offset="1" style="stop-color:#4042E2"/>
				</linearGradient>
				<path class="st17" d="M186.5,165h21c0.9,0,1.8-0.5,2.3-1.3l0,0c9.1-14.5-3.9-38.3-3.9-38.3l-6.8,17.9c0,0,5.9,5.9,2.7,15.2
					c-3.2,9.3-16.1,2-16.1,2l0.5,4.3C186.3,164.8,186.4,164.9,186.5,165z"/>
				<linearGradient id="SVGID_14_" gradientUnits="userSpaceOnUse" x1="181.8862" y1="118.876" x2="172.5727" y2="137.6786">
					<stop  offset="0" style="stop-color:#FF928E"/>
					<stop  offset="1" style="stop-color:#FE7062"/>
				</linearGradient>
				<polygon class="st18" points="179.6,120.9 177.7,122.2 179,124.8 181.2,124.8 182.6,122.4 180.2,120.7 				"/>
				<linearGradient id="SVGID_15_" gradientUnits="userSpaceOnUse" x1="189.2879" y1="122.5422" x2="179.9744" y2="141.3449">
					<stop  offset="0" style="stop-color:#FF928E"/>
					<stop  offset="1" style="stop-color:#FE7062"/>
				</linearGradient>
				<polygon class="st19" points="179,124.8 177.6,149.3 181.3,156 185.1,149.5 181.2,124.8 				"/>
				<linearGradient id="SVGID_16_" gradientUnits="userSpaceOnUse" x1="122.9227" y1="187.1261" x2="203.0536" y2="114.0242">
					<stop  offset="0" style="stop-color:#4F52FF"/>
					<stop  offset="1" style="stop-color:#4042E2"/>
				</linearGradient>
				<path class="st20" d="M163.2,140.6c1.6,3.9,2.4,8.1,2.3,12.3l-0.4,12.1h17l-0.9-17.3l-7.8-29c-7.3,1.1-16.9,5.8-16.9,5.8
					L163.2,140.6z"/>
				<linearGradient id="SVGID_17_" gradientUnits="userSpaceOnUse" x1="131.693" y1="196.7394" x2="211.824" y2="123.6374">
					<stop  offset="0" style="stop-color:#4F52FF"/>
					<stop  offset="1" style="stop-color:#4042E2"/>
				</linearGradient>
				<path class="st21" d="M197.8,165l0.5-10.1c0-5.1,0.9-10.3,2.6-15.1l5.1-14.4c-6.6-5.9-19.5-7.2-19.5-7.2l-5.2,29.5V165H197.8z"
					/>
				<path class="st6" d="M179.9,146.7C179.8,146.7,179.8,146.7,179.9,146.7l-7.1-8.1c0,0,0,0,0-0.1l-0.7-4.3l-2.6-0.5
					c-0.1,0-0.1-0.1-0.1-0.1l-0.6-13.6c0-0.1,0.1-0.1,0.1-0.1c0.1,0,0.1,0.1,0.1,0.1l0.6,13.5l2.6,0.5c0.1,0,0.1,0.1,0.1,0.1
					l0.7,4.4l7,8C180,146.5,180,146.6,179.9,146.7C179.9,146.7,179.9,146.7,179.9,146.7z"/>
				<path class="st6" d="M182.2,146.7C182.2,146.7,182.2,146.7,182.2,146.7c-0.1-0.1-0.1-0.2-0.1-0.2l7-8.1l0.7-4.4
					c0-0.1,0-0.1,0.1-0.1l2.6-0.5l0.6-13.7c0-0.1,0.1-0.1,0.1-0.1c0.1,0,0.1,0.1,0.1,0.1l-0.6,13.8c0,0.1,0,0.1-0.1,0.1l-2.6,0.5
					l-0.7,4.3c0,0,0,0,0,0.1L182.2,146.7C182.3,146.7,182.2,146.7,182.2,146.7z"/>
			</g>
		</g>
		<linearGradient id="SVGID_18_" gradientUnits="userSpaceOnUse" x1="181.1983" y1="156.095" x2="181.4608" y2="180.7699">
			<stop  offset="0" style="stop-color:#09005D"/>
			<stop  offset="1" style="stop-color:#1A0F91"/>
		</linearGradient>
		<polygon class="st22" points="145.9,168 147.8,172.3 214.1,172.3 216.7,168 		"/>
		<linearGradient id="SVGID_19_" gradientUnits="userSpaceOnUse" x1="181.5081" y1="169.5089" x2="177.7058" y2="227.2348">
			<stop  offset="0" style="stop-color:#09005D"/>
			<stop  offset="1" style="stop-color:#1A0F91"/>
		</linearGradient>
		<polygon class="st23" points="152.9,172.3 157.9,224.7 204.6,224.7 209.8,172.3 		"/>
		<g>
			<g>
				<g>
					<linearGradient id="SVGID_20_" gradientUnits="userSpaceOnUse" x1="202.8852" y1="143.1616" x2="202.9401" y2="154.961">
						<stop  offset="0" style="stop-color:#FF928E"/>
						<stop  offset="1" style="stop-color:#FE7062"/>
					</linearGradient>
					<path class="st24" d="M204.4,155c-0.3,0-0.7-0.3-0.7-0.6v-6.6c0-1-0.4-1.9-1.2-2.4l-1.6-1c-0.3-0.2-0.3-0.6-0.2-0.8
						c0.2-0.3,0.6-0.4,0.8-0.2l1.6,1c1.2,0.8,1.9,2,1.9,3.4v6.6C205.1,154.7,204.8,155,204.4,155z"/>
				</g>
				
					<linearGradient id="SVGID_21_" gradientUnits="userSpaceOnUse" x1="1310.3231" y1="1363.6954" x2="1310.4307" y2="1386.83" gradientTransform="matrix(0.6531 -0.7573 0.7573 0.6531 -1703.3376 232.3269)">
					<stop  offset="0" style="stop-color:#FF928E"/>
					<stop  offset="1" style="stop-color:#FE7062"/>
				</linearGradient>
				<path class="st25" d="M201.2,140.1c1.4,1.2,1.5,3.3,0.3,4.6l0,0c-1.2,1.4-3.3,1.5-4.6,0.3l-5.8-5c-1.4-1.2-1.5-3.3-0.3-4.6l0,0
					c1.2-1.4,3.3-1.5,4.6-0.3L201.2,140.1z"/>
				<linearGradient id="SVGID_22_" gradientUnits="userSpaceOnUse" x1="204.5738" y1="149.4025" x2="204.6173" y2="158.7445">
					<stop  offset="0" style="stop-color:#FF928E"/>
					<stop  offset="1" style="stop-color:#FE7062"/>
				</linearGradient>
				<path class="st26" d="M205.7,152.4h-2.3c-0.3,0-0.6,0.2-0.6,0.6v5.1h3.8V153C206.5,152.6,206,152.4,205.7,152.4z"/>
				<linearGradient id="SVGID_23_" gradientUnits="userSpaceOnUse" x1="204.1577" y1="156.316" x2="204.1736" y2="159.7441">
					<stop  offset="0" style="stop-color:#FF928E"/>
					<stop  offset="1" style="stop-color:#FE7062"/>
				</linearGradient>
				<path class="st27" d="M206.5,157.4h-4.3c-0.6,0-1.2,0.6-1.2,1.2v0.9h6.4v-0.9C207.4,158,207,157.4,206.5,157.4z"/>
			</g>
			<g>
				<g>
					<linearGradient id="SVGID_24_" gradientUnits="userSpaceOnUse" x1="166.1108" y1="137.4492" x2="157.5844" y2="151.7367">
						<stop  offset="0" style="stop-color:#FF928E"/>
						<stop  offset="1" style="stop-color:#FE7062"/>
					</linearGradient>
					<path class="st28" d="M158.3,155c0.3,0,0.7-0.3,0.7-0.6v-6.6c0-1,0.4-1.9,1.3-2.4l1.6-1c0.3-0.2,0.3-0.6,0.2-0.8
						c-0.2-0.3-0.6-0.4-0.8-0.2l-1.7,1c-1.2,0.8-1.9,2-1.9,3.4v6.6C157.6,154.7,158,155,158.3,155z"/>
				</g>
				
					<linearGradient id="SVGID_25_" gradientUnits="userSpaceOnUse" x1="330.4266" y1="227.4597" x2="330.5342" y2="250.5941" gradientTransform="matrix(-0.6531 -0.7573 -0.7573 0.6531 565.6835 232.3269)">
					<stop  offset="0" style="stop-color:#FF928E"/>
					<stop  offset="1" style="stop-color:#FE7062"/>
				</linearGradient>
				<path class="st29" d="M161.6,140.1c-1.4,1.2-1.5,3.3-0.3,4.6l0,0c1.2,1.4,3.3,1.5,4.6,0.3l5.8-5c1.4-1.2,1.5-3.3,0.3-4.6l0,0
					c-1.2-1.4-3.3-1.5-4.6-0.3L161.6,140.1z"/>
				
					<linearGradient id="SVGID_26_" gradientUnits="userSpaceOnUse" x1="-1295.6205" y1="149.4008" x2="-1295.577" y2="158.7447" gradientTransform="matrix(-1 0 0 1 -1137.6542 0)">
					<stop  offset="0" style="stop-color:#FF928E"/>
					<stop  offset="1" style="stop-color:#FE7062"/>
				</linearGradient>
				<path class="st30" d="M157.1,152.4h2.3c0.3,0,0.4,0.2,0.4,0.6v5.1H156V153C156,152.6,156.8,152.4,157.1,152.4z"/>
				
					<linearGradient id="SVGID_27_" gradientUnits="userSpaceOnUse" x1="-1295.9502" y1="156.3134" x2="-1295.9342" y2="159.7447" gradientTransform="matrix(-1 0 0 1 -1137.6542 0)">
					<stop  offset="0" style="stop-color:#FF928E"/>
					<stop  offset="1" style="stop-color:#FE7062"/>
				</linearGradient>
				<path class="st31" d="M156.3,157.4h4.3c0.6,0,0.9,0.6,0.9,1.2v0.9H155v-0.9C155,158,155.8,157.4,156.3,157.4z"/>
			</g>
		</g>
		<linearGradient id="SVGID_28_" gradientUnits="userSpaceOnUse" x1="188.489" y1="109.652" x2="180.193" y2="167.3781">
			<stop  offset="0" style="stop-color:#09005D"/>
			<stop  offset="1" style="stop-color:#1A0F91"/>
		</linearGradient>
		<polygon class="st32" points="145.8,168.3 143.9,159.5 218.8,159.5 217.2,168.3 		"/>
	</g>
	<g>
		<g>
			<path class="st6" d="M212.4,89.1c-9.2,0-16.6,5.7-16.6,12.7c0,1.9,0.6,3.8,1.6,5.4c0.5,0.8,0.7,1.8,0.4,2.7
				c-0.5,1.8-0.2,4.1,1.8,6.9c0.4,0.5,1.2,0.3,1.3-0.3c0.2-0.8,0.4-1.8,0.9-2.8c0.4-0.9,1.5-1.3,2.4-0.9c2.4,1,5.2,1.6,8.2,1.6
				c9.2,0,16.6-5.7,16.6-12.7S221.6,89.1,212.4,89.1z"/>
			<g class="st33">
				
					<ellipse transform="matrix(0.1602 -0.9871 0.9871 0.1602 70.2635 291.9843)" class="st2" cx="206.7" cy="104.7" rx="1.6" ry="1.6"/>
				<g>
					<circle class="st2" cx="212.4" cy="104.7" r="1.6"/>
				</g>
				<circle class="st2" cx="218" cy="104.7" r="1.6"/>
			</g>
			<linearGradient id="SVGID_29_" gradientUnits="userSpaceOnUse" x1="236.5731" y1="68.822" x2="210.9939" y2="124.4741">
				<stop  offset="0" style="stop-color:#FEBBBA"/>
				<stop  offset="1" style="stop-color:#FF928E"/>
			</linearGradient>
			<ellipse class="st34" cx="225.2" cy="93.7" rx="16.6" ry="12.7"/>
			<path class="st35" d="M232.8,103.1c-2.2,1.1-4.6,1.7-7.1,1.8c-2.5,0.1-5-0.3-7.3-1.2c-0.3-0.1-0.6-0.2-0.9-0.4
				c-0.1-0.1-0.3-0.1-0.4-0.2c-0.1-0.1-0.3-0.1-0.4-0.2c-0.6-0.3-1.1-0.6-1.6-1c-1-0.7-1.9-1.6-2.7-2.6c-0.8-1-1.3-2.1-1.6-3.3
				c-0.3-1.2-0.4-2.5-0.1-3.7l0.2,0c-0.1,0.6-0.1,1.2,0,1.8c0.1,0.6,0.2,1.2,0.4,1.7c0.2,0.6,0.4,1.1,0.7,1.6c0.3,0.5,0.6,1,1,1.5
				c0.7,0.9,1.6,1.7,2.6,2.4c1,0.7,2,1.2,3.1,1.7c2.2,0.9,4.6,1.3,7,1.2c2.4,0,4.8-0.5,7-1.4L232.8,103.1z"/>
		</g>
		<g class="st33">
			<ellipse transform="matrix(0.2298 -0.9732 0.9732 0.2298 78.5148 287.28)" class="st2" cx="220.8" cy="94" rx="1.6" ry="1.6"/>
			<g>
				<circle class="st2" cx="226.4" cy="94" r="1.6"/>
			</g>
			<circle class="st2" cx="232.1" cy="94" r="1.6"/>
		</g>
	</g>
</g>
<g>
	<path class="st2" d="M161.9,53.4c0.6-0.9,0.9-1.8,0.9-2.8c0-0.8,0-1.6,0-2.5c0-2,0-3.9,0-5.9c0-0.7-0.7-1.1-1.3-0.9
		c-0.5,0.1-0.7,0.5-0.7,1.1c0,1.3,0,2.6,0,3.9c0,0.1,0,0.2,0,0.3c0,0.1-0.1,0.2-0.2,0.2c-0.1,0-0.1-0.1-0.2-0.2c0-0.1,0-0.2,0-0.3
		c0-1.6,0-3.2,0-4.8c0-0.7,0-1.3,0-2c0-0.5-0.3-0.9-0.7-1c-0.7-0.2-1.3,0.3-1.3,1.1c0,2,0,4,0,6.1c0,0.1,0,0.2,0,0.3
		c0,0.1-0.1,0.1-0.2,0.1c-0.1,0-0.2-0.1-0.2-0.1c0-0.1,0-0.2,0-0.3c0-1.2,0-2.3,0-3.5c0-1.3,0-2.6,0-3.8c0-0.5-0.3-0.9-0.7-1.1
		c-0.7-0.2-1.3,0.3-1.3,1.1c0,2.4,0,4.8,0,7.2c0,0.1,0,0.2,0,0.3c0,0.1-0.1,0.1-0.2,0.1c0,0-0.1-0.1-0.2-0.1c0-0.1,0-0.2,0-0.3
		c0-0.9,0-1.8,0-2.6c0-1.2,0-2.3,0-3.5c0-0.8-0.8-1.3-1.5-0.9c-0.4,0.2-0.6,0.6-0.6,1c0,2.5,0,5,0,7.5c0,0.1,0,0.3-0.1,0.4
		c-0.1,0.1-0.3-0.1-0.4-0.2c-0.3-0.3-0.6-0.7-1-1c-0.2-0.2-0.5-0.4-0.8-0.5c-0.5-0.2-1,0-1.2,0.3c-0.2,0.3-0.2,0.6,0,1.1
		c0.8,1.4,1.6,2.8,2.3,4.2c0.6,1,1.1,2,1.9,2.9c0.3,0.3,0.4,0.7,0.4,1.1c0,0.9,0,4.8,0,12h7c0-7.4,0-11.4,0-12.5
		C161.5,54.4,161.6,53.9,161.9,53.4z"/>
	<path class="st2" d="M151.2,60.2c0.4-0.6,0.6-1.2,0.6-1.9c0-0.5,0-1.1,0-1.6c0-1.3,0-2.6,0-3.9c0-0.5-0.5-0.8-0.9-0.6
		c-0.3,0.1-0.5,0.4-0.5,0.7c0,0.9,0,1.7,0,2.6c0,0.1,0,0.1,0,0.2s0,0.1-0.1,0.1s-0.1-0.1-0.1-0.1c0-0.1,0-0.1,0-0.2
		c0-1.1,0-2.1,0-3.2c0-0.4,0-0.9,0-1.3c0-0.3-0.2-0.6-0.5-0.7c-0.5-0.1-0.9,0.2-0.9,0.7c0,1.3,0,2.7,0,4c0,0.1,0,0.1,0,0.2
		c0,0-0.1,0.1-0.1,0.1c0,0-0.1,0-0.1-0.1c0-0.1,0-0.1,0-0.2c0-0.8,0-1.5,0-2.3c0-0.9,0-1.7,0-2.5c0-0.4-0.2-0.6-0.5-0.7
		c-0.5-0.1-0.9,0.2-0.9,0.7c0,1.6,0,3.2,0,4.8c0,0.1,0,0.1,0,0.2c0,0-0.1,0.1-0.1,0.1c0,0-0.1,0-0.1-0.1c0-0.1,0-0.1,0-0.2
		c0-0.6,0-1.2,0-1.7c0-0.8,0-1.6,0-2.3c0-0.5-0.5-0.9-1-0.6c-0.3,0.1-0.4,0.4-0.4,0.7c0,1.7,0,3.3,0,5c0,0.1,0,0.2-0.1,0.3
		c-0.1,0-0.2-0.1-0.3-0.1c-0.2-0.2-0.4-0.5-0.6-0.7c-0.2-0.1-0.3-0.3-0.5-0.3c-0.3-0.1-0.6,0-0.8,0.2c-0.2,0.2-0.1,0.4,0,0.7
		c0.5,0.9,1,1.8,1.5,2.7c0.4,0.7,0.7,1.3,1.3,1.9c0.2,0.2,0.3,0.5,0.2,0.7c0,0.5,0,3.5,0,5.8h4.6c0-2.5,0-5.6,0-6.2
		C150.9,60.8,151,60.5,151.2,60.2z"/>
	<path class="st2" d="M168.6,62.9c0-0.3,0-0.5,0.2-0.8c0.3-0.4,0.5-0.9,0.4-1.5c0-0.4,0-0.9,0-1.3c0-1,0-2.1,0-3.1
		c0-0.4-0.4-0.6-0.7-0.5c-0.2,0.1-0.4,0.3-0.4,0.6c0,0.7,0,1.4,0,2.1c0,0,0,0.1,0,0.1c0,0,0,0.1-0.1,0.1c-0.1,0-0.1,0-0.1-0.1
		c0,0,0-0.1,0-0.2c0-0.8,0-1.7,0-2.5c0-0.4,0-0.7,0-1c0-0.3-0.2-0.4-0.4-0.5c-0.4-0.1-0.7,0.2-0.7,0.6c0,1.1,0,2.1,0,3.2
		c0,0.1,0,0.1,0,0.2c0,0-0.1,0.1-0.1,0.1c0,0-0.1,0-0.1-0.1c0,0,0-0.1,0-0.2c0-0.6,0-1.2,0-1.8c0-0.7,0-1.3,0-2
		c0-0.3-0.1-0.5-0.4-0.5c-0.4-0.1-0.7,0.2-0.7,0.6c0,1.3,0,2.5,0,3.8c0,0.1,0,0.1,0,0.2c0,0-0.1,0.1-0.1,0.1c0,0-0.1,0-0.1-0.1
		c0,0,0-0.1,0-0.2c0-0.5,0-0.9,0-1.4c0-0.6,0-1.2,0-1.8c0-0.4-0.4-0.7-0.8-0.5c-0.2,0.1-0.3,0.3-0.3,0.5c0,1.3,0,2.6,0,4
		c0,0.1,0,0.2,0,0.2c-0.1,0-0.2-0.1-0.2-0.1c-0.2-0.2-0.3-0.4-0.5-0.5c-0.1-0.1-0.3-0.2-0.4-0.3c-0.2-0.1-0.5,0-0.6,0.2
		c-0.1,0.2-0.1,0.3,0,0.6c0.4,0.7,0.8,1.4,1.2,2.2c0.3,0.5,0.6,1.1,1,1.5c0.2,0.2,0.2,0.4,0.2,0.6c0,0.3,0,3.1,0,4.2h3.7
		C168.6,66.1,168.6,63.3,168.6,62.9z"/>
</g>
<g>
	<path class="st2" d="M109.6,151.7l-3.1-7.7c-0.1-0.3-0.4-0.6-0.8-0.6h-5.3v3.5h2.4c0.1,0,0.2,0.1,0.2,0.2l0.4,1.5
		c0,0.1-0.1,0.3-0.2,0.3H84.3c-0.2,0-0.3-0.1-0.2-0.3l0.4-1.5c0-0.1,0.1-0.2,0.2-0.2h2.4v-3.5h-5.3c-0.4,0-0.7,0.2-0.8,0.6l-3.1,7.7
		c-0.2,0.6,0.2,1.2,0.8,1.2h30C109.4,152.9,109.8,152.3,109.6,151.7z"/>
	<path class="st2" d="M81.2,135.9c0.9,0.4,10.5,4.5,10.5,4.5c0.9,0.4,2,0,2.4-1c0.4-0.9,0-2-1-2.4l-3.5-1.5c-0.8-0.3-1.2-1-1.3-1.8
		c-0.1-0.6,0.4-1.1,0.9-1.1l0,0h8.7c-0.3-0.5-0.7-1.1-1.3-1.8c-1.6-1.9-3.5-3.2-3.5-3.2c-1.7-1.3-8.8-1.2-8.8-1.2l-1.7-1.1
		c-0.4-0.3-0.9-0.2-1.2,0.1l-4.2,4.1c-0.3,0.3-0.4,0.9-0.1,1.3c0.6,0.7,1.5,2,2.1,3.2C79.6,134.8,80.9,135.7,81.2,135.9z"/>
	<path class="st2" d="M90.2,134.2l3.5,1.5c0.8,0.3,1.4,1,1.7,1.8c0,0.1,0.1,0.2,0.1,0.3c0.2,0.9,0.1,1.9-0.5,2.7
		c-0.5,0.7-1.3,1.2-2.2,1.3c-0.6,0.1-1.1,0-1.7-0.2l-2.7-1.1v7.5h10.5v-13.2c0-0.2-0.1-0.4-0.3-0.6c-0.1-0.1-0.3-0.2-0.5-0.2h-8.3
		C89.9,134.1,90,134.2,90.2,134.2z"/>
</g>
<path class="st2" d="M280,132.4l-3.7-8.7h2.1c0.3,0,0.5-0.2,0.5-0.5v-2.5c0-0.3-0.2-0.5-0.5-0.5h-23.8c-0.3,0-0.5,0.2-0.5,0.5v2.5
	c0,0.3,0.2,0.5,0.5,0.5h2.1l-3.7,8.7c0,0,0,0.1,0,0.1c0,0,0,0.1,0,0.1c0,1.3,0.5,2.4,1.3,3.2c0.8,0.8,2,1.3,3.2,1.3
	c2.5,0,4.6-2,4.6-4.6c0,0,0-0.1,0-0.1c0,0,0-0.1,0-0.1l-3.7-8.7h6.2V143h-3c-1.5,0-2.8,1.2-2.8,2.8v0.4c0,0.3,0.2,0.5,0.5,0.5h14.4
	c0.3,0,0.5-0.2,0.5-0.5v-0.4c0-1.5-1.2-2.8-2.8-2.8h-3v-19.3h6.2l-3.7,8.7c0,0,0,0.1,0,0.1c0,0,0,0.1,0,0.1c0,1.3,0.5,2.4,1.3,3.2
	c0.8,0.8,2,1.3,3.2,1.3c2.5,0,4.6-2,4.6-4.6c0,0,0-0.1,0-0.1C280,132.5,280,132.5,280,132.4z M254.2,132.1l3.2-7.5l3.2,7.5H254.2z
	 M272.2,132.1l3.2-7.5l3.2,7.5H272.2z"/>
</svg>
