<?xml version="1.0" encoding="utf-8"?>
<!-- Generator: Adobe Illustrator 24.2.0, SVG Export Plug-In . SVG Version: 6.00 Build 0)  -->
<svg version="1.1" id="Layer_1" xmlns="http://www.w3.org/2000/svg" xmlns:xlink="http://www.w3.org/1999/xlink" x="0px" y="0px"
	 viewBox="0 0 383.2 243.3" style="enable-background:new 0 0 383.2 243.3;" xml:space="preserve">
<style type="text/css">
	.st0{fill:#F4F7FA;}
	.st1{fill:#BFC8D6;}
	.st2{fill:#FFFFFF;}
	.st3{fill:url(#SVGID_1_);}
	.st4{fill:url(#SVGID_2_);}
	.st5{fill:url(#SVGID_3_);}
	.st6{fill:#BDD0FB;}
	.st7{fill:#91B3FA;}
	.st8{fill:url(#SVGID_4_);}
	.st9{fill:url(#SVGID_5_);}
	.st10{fill:url(#SVGID_6_);}
	.st11{fill:url(#SVGID_7_);}
	.st12{fill:url(#SVGID_8_);}
	.st13{fill:url(#SVGID_9_);}
	.st14{fill:url(#SVGID_10_);}
	.st15{fill:url(#SVGID_11_);}
	.st16{fill:url(#SVGID_12_);}
	.st17{fill:url(#SVGID_13_);}
	.st18{fill:url(#SVGID_14_);}
	.st19{fill:url(#SVGID_15_);}
	.st20{fill:#7D97F4;}
	.st21{fill:url(#SVGID_16_);}
	.st22{fill:url(#SVGID_17_);}
	.st23{opacity:0.49;fill:#FFFFFF;}
	.st24{fill:url(#SVGID_18_);}
	.st25{fill:url(#SVGID_19_);}
	.st26{fill:url(#SVGID_20_);}
	.st27{fill:url(#SVGID_21_);}
	.st28{fill:url(#SVGID_22_);}
	.st29{fill:url(#SVGID_23_);}
	.st30{fill:url(#SVGID_24_);}
	.st31{fill:url(#SVGID_25_);}
	.st32{fill:url(#SVGID_26_);}
	.st33{fill:url(#SVGID_27_);}
	.st34{fill:url(#SVGID_28_);}
	.st35{fill:url(#SVGID_29_);}
	.st36{fill:url(#SVGID_30_);}
	.st37{fill:url(#SVGID_31_);}
	.st38{fill:url(#SVGID_32_);}
	.st39{fill:url(#SVGID_33_);}
	.st40{fill:url(#SVGID_34_);}
	.st41{fill:url(#SVGID_35_);}
	.st42{fill:#FDFFFF;}
</style>
<g>
	<path class="st0" d="M281.1,163.2c-5.9,22.6-22.4,43.5-62.5,54.3c-14.5,3.9-31.3,5.8-46.3,4.6c-22.1-1.7-45.3-11.7-63.7-23
		c-12.7-7.8-17.8-18.4-19.6-30.3c-1.1-7.4-1-15.3-0.6-23.4c0.5-12.2-1.4-24.5-4.3-36.4c-4.4-18.3-0.8-37.5,10.1-53.2
		s28.2-26.7,47.8-30.4c33.1-6.2,66.7-2.1,66.7-2.1c44.3,4.6,66.7,48.5,72.1,84.3C283.4,124,286,144.2,281.1,163.2z"/>
	<g>
		<g>
			<path class="st1" d="M184.3,163.6c-26,0-47.1-21.1-47.1-47.1s21.1-47.1,47.1-47.1s47.1,21.1,47.1,47.1S210.3,163.6,184.3,163.6z
				 M184.3,70.5c-25.4,0-46,20.6-46,46s20.6,46,46,46s46-20.6,46-46S209.6,70.5,184.3,70.5z"/>
		</g>
		<g>
			<path class="st1" d="M184.3,183.6c-17.9,0-34.7-7-47.4-19.6c-12.7-12.7-19.6-29.5-19.6-47.4s7-34.7,19.6-47.4
				c12.7-12.7,29.5-19.6,47.4-19.6s34.7,7,47.4,19.6c12.7,12.7,19.6,29.5,19.6,47.4s-7,34.7-19.6,47.4
				C219,176.6,202.2,183.6,184.3,183.6z M184.3,50.6c-36.4,0-65.9,29.6-65.9,65.9s29.6,65.9,65.9,65.9s65.9-29.6,65.9-65.9
				S220.6,50.6,184.3,50.6z"/>
		</g>
		<g>
			<path class="st1" d="M184.3,202.6c-23,0-44.6-8.9-60.8-25.2c-16.2-16.2-25.2-37.8-25.2-60.8s8.9-44.6,25.2-60.8
				c16.2-16.2,37.8-25.2,60.8-25.2s44.6,8.9,60.8,25.2c16.2,16.2,25.2,37.8,25.2,60.8s-8.9,44.6-25.2,60.8
				C228.9,193.6,207.3,202.6,184.3,202.6z M184.3,31.6c-46.8,0-84.9,38.1-84.9,84.9s38.1,84.9,84.9,84.9s84.9-38.1,84.9-84.9
				S231.1,31.6,184.3,31.6z"/>
		</g>
	</g>
	<g>
		<g>
			<g>
				<g>
					<circle class="st2" cx="91.7" cy="141.2" r="33.3"/>
					
						<linearGradient id="SVGID_1_" gradientUnits="userSpaceOnUse" x1="70.3506" y1="141.3942" x2="145.0124" y2="6.0397" gradientTransform="matrix(1 0 0 -1 0 243.8898)">
						<stop  offset="3.597120e-03" style="stop-color:#E38DDD"/>
						<stop  offset="1" style="stop-color:#9571F6"/>
					</linearGradient>
					<circle class="st3" cx="91.7" cy="141.2" r="29.6"/>
				</g>
			</g>
		</g>
	</g>
	<g>
		<path class="st2" d="M92.7,125.6H77.9c-0.3,0-0.6,0.3-0.6,0.6v3.3c0,0.3,0.2,0.6,0.6,0.6h0.6c0.3,0,0.6,0.3,0.6,0.6v18.8
			c0,3.6,2.8,6.5,6.2,6.5s6.2-2.9,6.2-6.5v-18.8c0-0.3,0.2-0.6,0.6-0.6h0.6c0.3,0,0.6-0.3,0.6-0.6v-3.3
			C93.2,125.8,92.9,125.6,92.7,125.6z M83.8,148.9h-2.5c-0.3,0-0.6-0.3-0.6-0.7c0-0.3,0.3-0.7,0.6-0.7h2.5c0.3,0,0.6,0.3,0.6,0.7
			C84.4,148.6,84.1,148.9,83.8,148.9z M85.3,145.6h-4c-0.3,0-0.6-0.3-0.6-0.7s0.3-0.7,0.6-0.7h4c0.3,0,0.6,0.3,0.6,0.7
			C85.9,145.4,85.7,145.6,85.3,145.6z M80.7,141.7c0-0.3,0.3-0.7,0.6-0.7h2.5c0.3,0,0.6,0.3,0.6,0.7s-0.3,0.7-0.6,0.7h-2.5
			C81,142.4,80.7,142.1,80.7,141.7z M85.3,139.1h-4c-0.3,0-0.6-0.3-0.6-0.7c0-0.3,0.3-0.7,0.6-0.7h4c0.3,0,0.6,0.3,0.6,0.7
			C85.9,138.8,85.7,139.1,85.3,139.1z M80.7,135.1c0-0.3,0.3-0.7,0.6-0.7h2.5c0.3,0,0.6,0.3,0.6,0.7c0,0.3-0.3,0.7-0.6,0.7h-2.5
			C81,135.8,80.7,135.5,80.7,135.1z M85.3,132.5h-4c-0.3,0-0.6-0.3-0.6-0.7s0.3-0.7,0.6-0.7h4c0.3,0,0.6,0.3,0.6,0.7
			S85.7,132.5,85.3,132.5z"/>
		<path class="st2" d="M106.4,153l-8.7-18.5c-0.1-0.1-0.1-0.2-0.1-0.3v-5.3c0-0.3,0.2-0.6,0.5-0.6l0,0c0.3,0,0.5-0.3,0.5-0.6v-1.7
			c0-0.3-0.2-0.6-0.5-0.6h-3c-0.2,0-0.3,0.2-0.3,0.4c0,0.1,0,0.2,0,0.3v3.3c0,1-0.6,1.8-1.5,2.2c-0.2,0.1-0.3,0.3-0.3,0.5v17.4
			c0,2.1-0.7,3.9-1.9,5.5c-0.3,0.4-0.1,1.1,0.5,1.1h13.2C106.1,156,106.9,154.4,106.4,153z"/>
	</g>
</g>
<g>
	<g>
		<g>
			<circle class="st2" cx="266.9" cy="130.9" r="31"/>
			
				<linearGradient id="SVGID_2_" gradientUnits="userSpaceOnUse" x1="247.0339" y1="149.0051" x2="316.4838" y2="23.0992" gradientTransform="matrix(1 0 0 -1 0 243.8898)">
				<stop  offset="0" style="stop-color:#FF9085"/>
				<stop  offset="1" style="stop-color:#FB6FBB"/>
			</linearGradient>
			<circle class="st4" cx="266.9" cy="130.9" r="27.5"/>
		</g>
	</g>
</g>
<g>
	<g>
		<g>
			<circle class="st2" cx="157.6" cy="51.8" r="31.5"/>
			
				<linearGradient id="SVGID_3_" gradientUnits="userSpaceOnUse" x1="137.4436" y1="228.6314" x2="207.9826" y2="100.7511" gradientTransform="matrix(1 0 0 -1 0 243.8898)">
				<stop  offset="0" style="stop-color:#FFC444"/>
				<stop  offset="0.9964" style="stop-color:#F36F56"/>
			</linearGradient>
			<circle class="st5" cx="157.6" cy="51.8" r="28"/>
		</g>
	</g>
</g>
<g>
	<g>
		<path class="st6" d="M126.5,113.8c-0.2-0.7,0.8-1.2,1.4-0.7c6.2,5.1,21.2,20.2,17.5,46.6c-4.7,33.2,3.3,45.3,13.3,52.7
			c0,0-13.7-3.5-22.3-15.8C115.3,166.5,129.5,126.4,126.5,113.8z"/>
		<path class="st2" d="M131.3,124.1c0.8,3.7,1.5,7.4,2,11.1c0.6,3.7,1,7.5,1.3,11.2c0.3,3.7,0.5,7.5,0.5,11.2
			c0,3.7-0.1,7.5-0.3,11.2c-0.1,3.8-0.3,7.5,0,11.3c0.3,3.8,1.1,7.6,2.7,11.2c0.4,0.9,0.8,1.8,1.3,2.7c0.5,0.9,1,1.7,1.5,2.6
			c1,1.7,2.2,3.3,3.5,4.9c2.6,3.1,5.8,5.8,9.3,8.1c0.4,0.2,0.9,0.2,1.2-0.1c0.3-0.3,0.2-0.8-0.1-1l0,0c-0.8-0.6-1.7-1.2-2.4-1.8
			c-0.4-0.3-0.8-0.6-1.2-0.9c-0.4-0.3-0.8-0.6-1.1-1c-1.5-1.3-2.9-2.7-4.1-4.2c-2.5-3-4.5-6.3-6-9.7c-0.7-1.7-1.3-3.5-1.8-5.3
			c-0.4-1.8-0.7-3.6-0.9-5.5c-0.3-3.7-0.2-7.4,0-11.2c0.1-3.8,0.2-7.5,0.1-11.3c0-1.9-0.1-3.8-0.2-5.7c-0.1-0.9-0.1-1.9-0.2-2.8
			c-0.1-0.9-0.2-1.9-0.3-2.8c-0.4-3.8-0.9-7.5-1.6-11.2c-0.7-3.7-1.5-7.4-2.5-11.1c0-0.1-0.1-0.2-0.3-0.1
			C131.3,123.9,131.3,124,131.3,124.1z"/>
	</g>
	<g>
		<g>
			<path class="st7" d="M145.4,199.6c-0.7,1-2.2,1-2.8,0c-3.7-5.6-12.6-22.3-5.6-44.3c5.9-18.6,7.4-29.2,7.7-34c0.1-1,1.4-1.4,2-0.5
				C152.8,130.2,170.3,163.4,145.4,199.6z"/>
			<path class="st2" d="M143.8,199.2C143.8,199.2,143.8,199.2,143.8,199.2c-0.3,0.1-0.6-0.1-0.6-0.4c0-0.3-4-29.6,3.1-55.8
				c0.1-0.3,0.3-0.4,0.6-0.3c0.3,0.1,0.4,0.3,0.3,0.6c-7,26-3.1,55.1-3,55.4C144.2,198.9,144,199.1,143.8,199.2z"/>
		</g>
	</g>
	<g>
		<g>
			
				<rect x="195.4" y="101.3" transform="matrix(0.5332 -0.846 0.846 0.5332 7.3435 216.2684)" class="st6" width="8.5" height="0.3"/>
			<polygon class="st6" points="211.5,112.3 201.9,112.3 201.9,112 211.3,112 215.2,105 215.5,105.1 			"/>
			<circle class="st6" cx="201.9" cy="97.9" r="1.4"/>
			<circle class="st6" cx="211.4" cy="112.2" r="1.4"/>
			<circle class="st6" cx="215.4" cy="105.1" r="1.8"/>
		</g>
		<g>
			<path class="st6" d="M197.7,119H188l-4.6-7.3l4.6-7.3l9.7-0.6l4,7.9L197.7,119z M188.1,118.7h9.3l3.8-7l-3.8-7.6l-9.3,0.6l-4.4,7
				L188.1,118.7z"/>
			<circle class="st6" cx="197.5" cy="104.6" r="1.5"/>
			<path class="st6" d="M188.9,118.9c0,0.5-0.4,0.9-0.9,0.9c-0.5,0-0.9-0.4-0.9-0.9c0-0.5,0.4-0.9,0.9-0.9
				C188.5,118,188.9,118.4,188.9,118.9z"/>
			<path class="st6" d="M198.9,118.9c0,0.8-0.6,1.4-1.4,1.4c-0.8,0-1.4-0.6-1.4-1.4s0.6-1.4,1.4-1.4
				C198.3,117.5,198.9,118.1,198.9,118.9z"/>
			
				<ellipse transform="matrix(4.531487e-02 -0.999 0.999 4.531487e-02 80.7062 308.0175)" class="st6" cx="201.5" cy="111.8" rx="1.8" ry="1.8"/>
		</g>
		<g>
			<path class="st6" d="M183.7,111.9H174l-4.6-7.3l4.6-7.3l9.7-0.6l4.3,8.1L183.7,111.9z M174.2,111.6h9.3l4.1-6.8l-4.1-7.8
				l-9.3,0.6l-4.4,7L174.2,111.6z"/>
			<path class="st6" d="M175.5,97.5c0,0.8-0.6,1.4-1.4,1.4c-0.8,0-1.4-0.6-1.4-1.4c0-0.8,0.6-1.4,1.4-1.4
				C174.9,96.1,175.5,96.7,175.5,97.5z"/>
			<circle class="st7" cx="183.6" cy="97.5" r="1.5"/>
			<path class="st6" d="M175,111.8c0,0.5-0.4,0.9-0.9,0.9s-0.9-0.4-0.9-0.9c0-0.5,0.4-0.9,0.9-0.9S175,111.3,175,111.8z"/>
			<path class="st6" d="M185,111.8c0,0.8-0.6,1.4-1.4,1.4c-0.8,0-1.4-0.6-1.4-1.4s0.6-1.4,1.4-1.4C184.4,110.4,185,111,185,111.8z"
				/>
			<path class="st6" d="M169.6,103.3c0.8,0,1.4,0.6,1.4,1.4c0,0.8-0.6,1.4-1.4,1.4c-0.8,0-1.4-0.6-1.4-1.4
				C168.2,103.9,168.9,103.3,169.6,103.3z"/>
			<circle class="st6" cx="187.6" cy="104.7" r="1.8"/>
		</g>
	</g>
	<g>
		<linearGradient id="SVGID_4_" gradientUnits="userSpaceOnUse" x1="198.829" y1="313.1624" x2="171.4333" y2="236.6617">
			<stop  offset="0" style="stop-color:#09005D"/>
			<stop  offset="1" style="stop-color:#1A0F91"/>
		</linearGradient>
		<path class="st8" d="M195,215.3c-21.4,3-43.6,3-66.6-0.2c-2.8-0.4-4.6-3.2-3.9-5.9l1.3-4.6c0.4-1.4,1.7-2.5,3.1-2.6
			c22.6-1.7,44.6-2.5,65.1-0.5c1.4,0.1,2.6,1,3.1,2.3l1.8,4.4C200.4,211.3,198.4,214.8,195,215.3z"/>
		<linearGradient id="SVGID_5_" gradientUnits="userSpaceOnUse" x1="161.9097" y1="139.1717" x2="173.9782" y2="139.1717">
			<stop  offset="0" style="stop-color:#09005D"/>
			<stop  offset="1" style="stop-color:#1A0F91"/>
		</linearGradient>
		<path class="st9" d="M161.9,123.8l6.2,31.1c0.1,0.4,0.4,0.7,0.8,0.8c0.9,0.2,2.7,0.3,4.6-0.8c0.4-0.2,0.6-0.6,0.5-1.1l-6.2-31.3
			L161.9,123.8z"/>
		<linearGradient id="SVGID_6_" gradientUnits="userSpaceOnUse" x1="181.0113" y1="179.3519" x2="179.5547" y2="174.3994">
			<stop  offset="0" style="stop-color:#4F52FF"/>
			<stop  offset="1" style="stop-color:#4042E2"/>
		</linearGradient>
		<path class="st10" d="M156.2,103.6l9.6,48.2c0.1,0.6,0.6,1.1,1.2,1.2c1.4,0.3,4.1,0.5,7.1-1.3c0.6-0.3,0.9-1,0.8-1.7l-9.6-48.5
			L156.2,103.6z"/>
		<linearGradient id="SVGID_7_" gradientUnits="userSpaceOnUse" x1="167.7788" y1="111.7639" x2="194.3102" y2="61.802">
			<stop  offset="0" style="stop-color:#4F52FF"/>
			<stop  offset="1" style="stop-color:#4042E2"/>
		</linearGradient>
		<path class="st11" d="M152,92l11.4,55.7c0.2,0.8,0.8,1.5,1.6,1.6c1.9,0.4,5.5,0.7,9.6-1.7c0.8-0.5,1.2-1.3,1-2.2l-11.4-56.2
			L152,92z"/>
		<linearGradient id="SVGID_8_" gradientUnits="userSpaceOnUse" x1="155.3238" y1="107.6642" x2="160.8589" y2="71.5406">
			<stop  offset="0" style="stop-color:#09005D"/>
			<stop  offset="1" style="stop-color:#1A0F91"/>
		</linearGradient>
		<path class="st12" d="M150.9,91.8l0.4,0.7c0.2,0.4,0.7,0.7,1.2,0.6l11.7-2.4c0.5-0.1,0.9-0.6,0.9-1.1v-1c0-0.7-0.7-1.3-1.4-1.1
			l-12.1,2.7C150.9,90.3,150.5,91.2,150.9,91.8z"/>
		<linearGradient id="SVGID_9_" gradientUnits="userSpaceOnUse" x1="162.2186" y1="167.8125" x2="161.0127" y2="119.0569">
			<stop  offset="0" style="stop-color:#4F52FF"/>
			<stop  offset="1" style="stop-color:#4042E2"/>
		</linearGradient>
		<path class="st13" d="M154.3,102l12.3-2.5l0.9,0.1c0.5,0,0.8,0.3,1,0.7l0,0c0,0.6-0.2,1.1-0.6,1.5l-0.8,0.7l-12.3,2.5l-1.6-0.6
			c-0.2-0.1-0.4-0.3-0.5-0.5l0,0c-0.2-0.5-0.1-1.1,0.4-1.3L154.3,102z"/>
		<linearGradient id="SVGID_10_" gradientUnits="userSpaceOnUse" x1="235.1305" y1="96.2621" x2="198.4309" y2="123.6576">
			<stop  offset="0" style="stop-color:#09005D"/>
			<stop  offset="1" style="stop-color:#1A0F91"/>
		</linearGradient>
		<path class="st14" d="M155.5,126.2l-1.6-13.8c-0.1-1,0.6-1.9,1.6-2.1l13-2.4c1-0.2,1.9,0.5,2,1.4l4.9,28c0,0-8,3.4-18.1,3.4
			c0,0-1.8-4-4.6-3.7c-2.8,0.3-11.3,4-9.8,21.1c1.5,17.2,13.8,15,13.8,15l5.2,23.6c0,0-26.5-4.6-29.1-34
			c-1.6-18.1,9.5-29.7,13.9-33.5c1-0.9,2.3-1.5,3.6-1.8L155.5,126.2z"/>
		<linearGradient id="SVGID_11_" gradientUnits="userSpaceOnUse" x1="146.3869" y1="210.8088" x2="162.7009" y2="181.6767">
			<stop  offset="0" style="stop-color:#4F52FF"/>
			<stop  offset="1" style="stop-color:#4042E2"/>
		</linearGradient>
		<path class="st15" d="M142.8,201.3l4.7-17.8c0.6-2.4,2.9-4.1,5.4-4.1h2.8c2.5,0,4.7,1.7,5.3,4.1l4.5,17.8c0.3,1.1-0.6,2.2-1.7,2.2
			h-19.2C143.4,203.5,142.5,202.4,142.8,201.3z"/>
		<linearGradient id="SVGID_12_" gradientUnits="userSpaceOnUse" x1="163.8078" y1="174.3295" x2="135.8411" y2="212.4924">
			<stop  offset="0" style="stop-color:#09005D"/>
			<stop  offset="1" style="stop-color:#1A0F91"/>
		</linearGradient>
		<path class="st16" d="M158.7,186.7c0,2.2-1.8,4-4,4c-2.2,0-4-1.8-4-4c0-2.2,1.8-4,4-4C157,182.7,158.7,184.5,158.7,186.7z"/>
		<linearGradient id="SVGID_13_" gradientUnits="userSpaceOnUse" x1="207.4098" y1="47.5382" x2="185.7001" y2="130.7585">
			<stop  offset="0" style="stop-color:#09005D"/>
			<stop  offset="1" style="stop-color:#1A0F91"/>
		</linearGradient>
		<path class="st17" d="M192.9,171.1c-3.6-2.9-10.5-4.9-18.4-4.9c-7.9,0-14.8,2-18.4,4.9h-2.6v4.6c0,5.2,9.4,9.5,21,9.5
			c11.6,0,21-4.3,21-9.5v-4.6H192.9z"/>
		<linearGradient id="SVGID_14_" gradientUnits="userSpaceOnUse" x1="173.6839" y1="181.3133" x2="175.1082" y2="163.7036">
			<stop  offset="0" style="stop-color:#09005D"/>
			<stop  offset="1" style="stop-color:#1A0F91"/>
		</linearGradient>
		<ellipse class="st18" cx="174.5" cy="171.1" rx="21" ry="9.5"/>
		<linearGradient id="SVGID_15_" gradientUnits="userSpaceOnUse" x1="156.898" y1="170.9078" x2="192.1282" y2="170.9078">
			<stop  offset="0" style="stop-color:#4F52FF"/>
			<stop  offset="1" style="stop-color:#4042E2"/>
		</linearGradient>
		<ellipse class="st19" cx="174.5" cy="170.9" rx="17.6" ry="7.2"/>
		<path class="st20" d="M174.5,164.9c9.2,0,16.8,2.9,17.5,6.6c0-0.2,0.1-0.4,0.1-0.6c0-4-7.9-7.2-17.6-7.2s-17.6,3.2-17.6,7.2
			c0,0.2,0,0.4,0.1,0.6C157.7,167.8,165.3,164.9,174.5,164.9z"/>
		<linearGradient id="SVGID_16_" gradientUnits="userSpaceOnUse" x1="148.4734" y1="121.8919" x2="163.4845" y2="121.8919">
			<stop  offset="0" style="stop-color:#4F52FF"/>
			<stop  offset="1" style="stop-color:#4042E2"/>
		</linearGradient>
		<ellipse class="st21" cx="156" cy="121.9" rx="7.5" ry="7"/>
		<linearGradient id="SVGID_17_" gradientUnits="userSpaceOnUse" x1="150.9242" y1="122.3514" x2="161.0337" y2="122.3514">
			<stop  offset="0" style="stop-color:#09005D"/>
			<stop  offset="1" style="stop-color:#1A0F91"/>
		</linearGradient>
		<circle class="st22" cx="156" cy="122.4" r="5.1"/>
		<path class="st6" d="M182.8,208c-0.2,0-0.4-0.1-0.4-0.4c0-0.2,0.1-0.5,0.4-0.5c1.2-0.2,2.4-0.5,3.6-0.7c0.2-0.1,0.5,0.1,0.5,0.3
			c0.1,0.2-0.1,0.5-0.3,0.5C185.3,207.5,184.1,207.7,182.8,208C182.9,208,182.8,208,182.8,208z"/>
		<path class="st6" d="M163.2,209.6c-18.7,0-34.4-3.9-34.6-4c-0.2-0.1-0.4-0.3-0.3-0.5c0.1-0.2,0.3-0.4,0.5-0.3
			c0.3,0.1,25.6,6.4,50.4,2.9c0.2,0,0.5,0.1,0.5,0.4c0,0.2-0.1,0.5-0.4,0.5C173.9,209.3,168.4,209.6,163.2,209.6z"/>
		<path class="st6" d="M173.1,135.1c-0.2,0-0.4-0.2-0.4-0.4l-0.4-2.2c0-0.2,0.1-0.5,0.4-0.5c0.2,0,0.5,0.1,0.5,0.4l0.4,2.2
			C173.6,134.8,173.4,135,173.1,135.1C173.1,135.1,173.1,135.1,173.1,135.1z"/>
		<path class="st6" d="M172.1,129.2c-0.2,0-0.4-0.2-0.4-0.4l-3.1-18.7c0-0.2-0.3-0.4-0.5-0.4l-1.3,0.2c-0.2,0-0.5-0.1-0.5-0.4
			c0-0.2,0.1-0.5,0.4-0.5l1.3-0.2c0.7-0.1,1.4,0.4,1.5,1.1l3.1,18.7C172.6,128.9,172.4,129.1,172.1,129.2
			C172.1,129.2,172.1,129.2,172.1,129.2z"/>
	</g>
	<g>
		<g>
			<path class="st7" d="M214.7,184.1l0-8.9h-8.1l0,8.3c0,4.5-1.4,8.8-4.1,12.4L192,210.2c-0.6,0.7-0.9,1.7-0.9,2.6v0
				c0,2.4,1.9,4.3,4.3,4.3h30.6c2.4,0,4.3-1.9,4.3-4.3l0,0c0-0.9-0.3-1.8-0.9-2.6l-11-14.8C216.1,192.2,214.7,188.2,214.7,184.1z"/>
			<path class="st23" d="M195.4,216.1c-1.8,0-3.3-1.5-3.3-3.3c0-0.7,0.2-1.4,0.6-1.9l10.6-14.3c2.8-3.7,4.3-8.4,4.3-13l0-7.2h5.9
				l0,7.8c0,4.3,1.4,8.6,4,12.1l11,14.8c0.4,0.6,0.6,1.3,0.6,1.9c0,1.8-1.5,3.3-3.3,3.3H195.4z"/>
			<path class="st7" d="M215,176.8h-8.5c-0.7,0-1.2-0.6-1.2-1.2l0,0c0-0.7,0.5-1.2,1.2-1.2l8.5-0.5c0.7,0,1.3,0.5,1.3,1.2v0.5
				C216.2,176.2,215.7,176.8,215,176.8z"/>
			<linearGradient id="SVGID_18_" gradientUnits="userSpaceOnUse" x1="221.5102" y1="135.2676" x2="215.3084" y2="179.9723">
				<stop  offset="0" style="stop-color:#FF928E"/>
				<stop  offset="1" style="stop-color:#FE7062"/>
			</linearGradient>
			<path class="st24" d="M192.8,210.9c-0.4,0.6-0.6,1.2-0.6,1.9c0,1.8,1.5,3.3,3.3,3.3h30.6c1.8,0,3.3-1.5,3.3-3.3
				c0-0.7-0.2-1.4-0.6-1.9l-4.9-6.6h-26L192.8,210.9z"/>
		</g>
		<g>
			<path class="st7" d="M198.1,217.2L198.1,217.2c-1.7,0-3.1-1.4-3.1-3.1v-22h6.8l-0.7,22C201.2,215.8,199.8,217.2,198.1,217.2z"/>
			<path class="st23" d="M198.1,216.5c-1.3,0-2.4-1.1-2.4-2.4v-22h5.4l-0.7,22v0C200.5,215.4,199.4,216.5,198.1,216.5z"/>
			<path class="st7" d="M201.8,192.6h-6.9c-0.6,0-1-0.5-1-1l0,0c0-0.5,0.4-1,1-1l6.9-0.4c0.6,0,1.1,0.4,1.1,1v0.4
				C202.9,192.2,202.4,192.6,201.8,192.6z"/>
			<linearGradient id="SVGID_19_" gradientUnits="userSpaceOnUse" x1="200.1511" y1="203.1703" x2="222.6327" y2="146.5787">
				<stop  offset="0" style="stop-color:#FF928E"/>
				<stop  offset="1" style="stop-color:#FE7062"/>
			</linearGradient>
			<path class="st25" d="M195.7,202.1v12c0,1.3,1.1,2.4,2.4,2.4c1.3,0,2.4-1.1,2.4-2.4v0l0.4-12H195.7z"/>
		</g>
		<g>
			<path class="st7" d="M188.7,217.4L188.7,217.4c-1.7,0-3.1-1.4-3.1-3.1v-22h6.8l-0.7,22C191.8,216,190.4,217.4,188.7,217.4z"/>
			<path class="st23" d="M188.7,216.7c-1.3,0-2.4-1.1-2.4-2.4v-22h5.4l-0.7,22v0C191.1,215.6,190,216.7,188.7,216.7z"/>
			<path class="st7" d="M192.5,192.8h-6.9c-0.6,0-1-0.5-1-1l0,0c0-0.5,0.4-1,1-1l6.9-0.4c0.6,0,1.1,0.4,1.1,1v0.4
				C193.5,192.4,193,192.8,192.5,192.8z"/>
			<linearGradient id="SVGID_20_" gradientUnits="userSpaceOnUse" x1="199.8183" y1="195.3309" x2="235.4788" y2="152.1765">
				<stop  offset="0" style="stop-color:#FF928E"/>
				<stop  offset="1" style="stop-color:#FE7062"/>
			</linearGradient>
			<path class="st26" d="M186.4,202.4v12c0,1.3,1.1,2.4,2.4,2.4c1.3,0,2.4-1.1,2.4-2.4v0l0.4-12H186.4z"/>
		</g>
	</g>
	<g>
		<g>
			<linearGradient id="SVGID_21_" gradientUnits="userSpaceOnUse" x1="186.537" y1="182.1695" x2="245.285" y2="83.452">
				<stop  offset="0" style="stop-color:#E1473D"/>
				<stop  offset="1" style="stop-color:#E9605A"/>
			</linearGradient>
			<path class="st27" d="M248,75c-1.3,0-2.6,0.2-3.9,0.3c-1.3,0.2-2.6,0.4-3.8,0.6c-2.5,0.5-5.1,1.2-7.5,2.1c-1.2,0.5-2.4,1-3.6,1.6
				c-1.2,0.6-2.3,1.2-3.5,2c-2.2,1.5-4.3,3.3-5.9,5.5l-0.3,0.4l-0.3,0.4c-0.2,0.3-0.4,0.6-0.6,0.9c-0.3,0.6-0.7,1.2-1,1.9l-0.2,0.5
				l-0.1,0.2l-0.1,0.2l-0.3,1c-0.1,0.3-0.2,0.7-0.3,1c-0.1,0.3-0.2,0.7-0.2,1c-0.5,2.7-0.5,5.5-0.3,8.1c0.2,2.7,0.7,5.3,1.2,7.9
				c0.6,2.6,1.2,5.1,2,7.6c1.4,5,3,9.9,4.2,14.7c0.3,1.2,0.6,2.4,0.8,3.6l0.1,0.9l0.1,0.9c0,0.3,0.1,0.6,0.1,0.9
				c0,0.3,0.1,0.6,0.1,0.9c0.2,2.4,0.1,4.7-0.4,6.9c-0.3,1.1-0.6,2.1-1.1,3.1c-0.5,1-1,1.9-1.7,2.8c-1.3,1.7-3.1,3.2-5.1,4.5
				c-1,0.6-2.1,1.2-3.2,1.8l-0.8,0.4c-0.3,0.1-0.6,0.3-0.8,0.4l-0.9,0.4c-0.3,0.1-0.6,0.2-0.9,0.4c-0.6,0.2-1.2,0.5-1.8,0.7
				c-0.6,0.2-1.2,0.4-1.8,0.7l-1.8,0.7c-0.6,0.2-1.2,0.4-1.8,0.7l0,0c-0.1,0-0.1,0.1-0.1,0.2c0,0,0.1,0.1,0.1,0.1
				c0.7,0,1.3,0.1,2,0.1c0.7,0,1.3,0,2-0.1c1.3-0.1,2.6-0.2,3.9-0.4c1.3-0.2,2.6-0.5,3.9-0.9c1.3-0.4,2.6-0.8,3.8-1.4
				c1.3-0.6,2.5-1.3,3.6-2.1c0.3-0.2,0.6-0.4,0.9-0.7l0.8-0.7c0.5-0.5,1.1-1,1.5-1.6c1.9-2.2,3.2-5,3.9-7.8c0.6-2.8,0.7-5.6,0.5-8.4
				c0-0.3-0.1-0.7-0.1-1c0-0.3-0.1-0.7-0.1-1l-0.1-1l-0.2-1c-0.3-1.3-0.6-2.6-0.9-3.9c-0.7-2.6-1.4-5.1-2.2-7.5l-2.4-7.3
				c-0.8-2.4-1.5-4.8-2.1-7.3c-0.6-2.4-1.2-4.9-1.5-7.3c-0.3-2.4-0.4-4.9-0.1-7.2c0-0.3,0.1-0.6,0.1-0.9c0.1-0.3,0.1-0.6,0.2-0.9
				l0.2-0.8l0.1-0.2l0.1-0.2l0.1-0.4c0.2-0.6,0.4-1.1,0.7-1.6c0.1-0.3,0.3-0.5,0.4-0.8l0.2-0.4l0.2-0.4c0.6-1,1.4-1.9,2.2-2.8
				c0.8-0.9,1.7-1.7,2.7-2.4c1-0.8,2-1.4,3-2.1c1.1-0.6,2.2-1.2,3.3-1.8c1.1-0.5,2.3-1,3.5-1.5c1.2-0.5,2.4-0.9,3.6-1.2
				c2.4-0.7,4.9-1.4,7.4-1.8l0,0c0.1,0,0.1-0.1,0.1-0.2C248.1,75,248.1,75,248,75z"/>
			<path class="st2" d="M202.3,163.8c0-0.1,0-0.2,0-0.4c0-0.1,0.1-0.2,0.3-0.2c0.5-0.2,1-0.4,1.4-0.5l2.2-0.8
				c0.3-0.1,0.5-0.2,0.8-0.3c0.3-0.1,0.7-0.2,1-0.4l0,0c0.6-0.2,1.2-0.4,1.7-0.7c0.1,0,0.2-0.1,0.3-0.1c0.2-0.1,0.4-0.1,0.5-0.2
				l0.9-0.4c0.3-0.1,0.6-0.3,0.8-0.4l0.8-0.4c1.1-0.6,2.2-1.1,3.1-1.7c2.2-1.4,3.8-2.9,5-4.4c0.6-0.8,1.1-1.7,1.6-2.7
				c0.4-0.9,0.8-1.9,1-3.1c0.5-2,0.6-4.3,0.4-6.8c0-0.2,0-0.4,0-0.6c0-0.1,0-0.2,0-0.3c0-0.3-0.1-0.6-0.1-0.9l-0.1-0.9l-0.1-0.9
				c-0.2-1.1-0.5-2.3-0.8-3.6c-0.8-3.1-1.8-6.4-2.7-9.5c-0.5-1.7-1-3.5-1.5-5.2c-0.6-2.1-1.3-4.8-2-7.6c-0.6-2.9-1-5.5-1.2-7.9
				c-0.3-2.9-0.2-5.7,0.3-8.2c0-0.3,0.1-0.6,0.2-0.8l0.1-0.2c0-0.1,0.1-0.2,0.1-0.3c0.1-0.2,0.1-0.5,0.2-0.7l0.4-1.3l0.3-0.7
				c0.2-0.5,0.5-1.1,0.8-1.6c0.1-0.1,0.1-0.3,0.2-0.4c0.1-0.2,0.3-0.4,0.4-0.6c0.1-0.1,0.1-0.2,0.2-0.3l0.3-0.5l0.3-0.4
				c1.5-2.1,3.6-4,6-5.6c1.1-0.7,2.2-1.3,3.5-2c1.2-0.6,2.4-1.1,3.7-1.6c2.3-0.9,4.7-1.6,7.6-2.1c1.2-0.3,2.5-0.5,3.9-0.6
				c1.6-0.2,2.8-0.3,3.9-0.3c0.2,0,0.4,0.2,0.5,0.4c0,0.1,0,0.2-0.1,0.3c-0.1,0.1-0.2,0.2-0.3,0.2c-2.3,0.4-4.7,1-7.4,1.8
				c-1.2,0.4-2.4,0.8-3.6,1.2c-1.1,0.4-2.3,0.9-3.4,1.5c-1.1,0.5-2.2,1.1-3.3,1.7c-1.1,0.7-2.1,1.4-3,2.1c-0.8,0.7-1.8,1.5-2.7,2.4
				c-1,1.1-1.6,1.9-2.2,2.8l-0.2,0.4l-0.2,0.4c-0.1,0.1-0.1,0.2-0.2,0.3c-0.1,0.2-0.2,0.3-0.3,0.5c-0.1,0.1-0.1,0.3-0.2,0.4
				c-0.2,0.4-0.3,0.7-0.5,1.1l-0.2,0.6l-0.3,1c0,0.2-0.1,0.3-0.1,0.5c0,0.1,0,0.2-0.1,0.3c0,0.1,0,0.1,0,0.2c0,0.2-0.1,0.4-0.1,0.6
				c-0.3,2.1-0.2,4.5,0.1,7.1c0.3,2.2,0.8,4.5,1.5,7.3c0.5,2.1,1.2,4.3,2.1,7.3l2.4,7.3c1,3,1.7,5.3,2.2,7.5
				c0.4,1.4,0.7,2.7,0.9,3.9l0.2,1l0.1,1c0.1,0.3,0.1,0.7,0.1,1l0,0.1c0,0.1,0,0.2,0,0.3c0,0.2,0,0.5,0.1,0.7c0.2,3.1,0,5.9-0.5,8.5
				c-0.7,3-2.1,5.8-3.9,7.9c-0.5,0.5-0.9,1-1.6,1.6l-0.8,0.7l-0.3,0.2c-0.2,0.2-0.4,0.3-0.6,0.5c-1.2,0.8-2.4,1.6-3.7,2.1
				c-1.1,0.5-2.3,1-3.9,1.4c-1.6,0.4-2.8,0.7-4,0.9c-1.2,0.2-2.5,0.3-4,0.4c-0.6,0-1.1,0-1.7,0l-0.3,0c-0.7,0-1.4,0-2-0.1
				c0,0,0,0,0,0C202.6,164.1,202.4,164,202.3,163.8z M244.2,75.6c-1.4,0.2-2.6,0.4-3.8,0.6c-2.8,0.6-5.3,1.3-7.5,2.1
				c-1.2,0.5-2.4,1-3.6,1.6c-1.3,0.6-2.4,1.3-3.4,2c-2.4,1.6-4.4,3.4-5.9,5.4l-0.3,0.4l-0.3,0.4c-0.1,0.1-0.1,0.2-0.2,0.3
				c-0.1,0.2-0.2,0.4-0.4,0.6c-0.1,0.1-0.1,0.3-0.2,0.4c-0.3,0.5-0.5,1-0.7,1.5l-0.3,0.7l-0.4,1.2c-0.1,0.2-0.1,0.4-0.2,0.6
				c0,0.1-0.1,0.2-0.1,0.3l-0.1,0.2c-0.1,0.3-0.1,0.5-0.2,0.8c-0.5,2.5-0.6,5.2-0.3,8.1c0.2,2.4,0.6,5,1.2,7.8
				c0.6,2.8,1.4,5.5,2,7.6c0.5,1.7,1,3.5,1.5,5.2c0.9,3.1,1.9,6.4,2.7,9.5c0.3,1.3,0.6,2.5,0.8,3.6l0.1,0.9l0.1,0.9
				c0,0.3,0.1,0.6,0.1,0.9c0,0.1,0,0.2,0,0.3c0,0.2,0,0.4,0,0.6c0.2,2.6,0,5-0.5,7c-0.3,1.2-0.6,2.2-1.1,3.2c-0.5,1.1-1.1,2-1.7,2.8
				c-1.2,1.6-2.9,3.1-5.2,4.6c-1,0.6-2,1.2-3.2,1.8l-0.8,0.4c-0.2,0.1-0.5,0.3-0.9,0.4l-0.9,0.4c-0.2,0.1-0.4,0.2-0.6,0.2
				c-0.1,0-0.2,0.1-0.3,0.1c-0.6,0.2-1.2,0.5-1.7,0.7l0,0c-0.3,0.1-0.7,0.3-1,0.4c-0.3,0.1-0.5,0.2-0.8,0.3l-1.8,0.7l-0.4,0.1
				c-0.2,0.1-0.4,0.1-0.5,0.2c0.3,0,0.6,0,1,0l0.3,0c0.5,0,1.1,0,1.6,0c1.5-0.1,2.7-0.2,3.9-0.4c1.1-0.2,2.3-0.4,3.9-0.8
				c1.6-0.5,2.7-0.9,3.8-1.4c1.2-0.6,2.4-1.3,3.6-2.1c0.2-0.1,0.4-0.3,0.6-0.4l0.2-0.2l0.8-0.7c0.6-0.5,1.1-1,1.5-1.5
				c1.8-2.1,3.2-4.8,3.8-7.6c0.6-2.5,0.7-5.2,0.5-8.3c0-0.2,0-0.4-0.1-0.7c0-0.1,0-0.2,0-0.3l0-0.1c0-0.3-0.1-0.6-0.1-0.9l-0.1-1
				l-0.2-1c-0.2-1.3-0.5-2.5-0.9-3.9c-0.6-2.2-1.3-4.5-2.2-7.5l-2.4-7.3c-0.9-2.9-1.6-5.2-2.1-7.3c-0.7-2.7-1.2-5.1-1.5-7.3
				c-0.4-2.7-0.4-5.1-0.1-7.3c0-0.2,0.1-0.5,0.1-0.7c0-0.1,0-0.1,0-0.2c0-0.1,0-0.2,0.1-0.3c0-0.2,0.1-0.4,0.1-0.6l0.3-1l0.2-0.6
				c0.1-0.4,0.3-0.8,0.5-1.2c0.1-0.1,0.1-0.3,0.2-0.4c0.1-0.2,0.2-0.3,0.3-0.5c0.1-0.1,0.1-0.2,0.2-0.3l0.2-0.4l0.3-0.4
				c0.6-0.9,1.2-1.8,2.2-2.8c0.9-0.9,1.9-1.8,2.7-2.5c0.9-0.7,1.9-1.4,3.1-2.1c1.1-0.7,2.2-1.3,3.3-1.8c1.2-0.5,2.3-1.1,3.5-1.5
				c1.2-0.4,2.4-0.9,3.6-1.3c1.5-0.5,3-0.9,4.4-1.2C244.6,75.6,244.4,75.6,244.2,75.6z M248,75.3C248,75.3,248,75.3,248,75.3
				C248,75.3,248,75.3,248,75.3L248,75.3z"/>
		</g>
		<g>
			
				<linearGradient id="SVGID_22_" gradientUnits="userSpaceOnUse" x1="340.705" y1="-2.9171" x2="291.011" y2="109.6809" gradientTransform="matrix(0.9981 6.190000e-02 -6.190000e-02 0.9981 -86.0864 40.9091)">
				<stop  offset="0" style="stop-color:#FEBBBA"/>
				<stop  offset="1" style="stop-color:#FF928E"/>
			</linearGradient>
			<path class="st28" d="M219.1,111.1C219.1,111.1,219.1,111.1,219.1,111.1l12.7,6.7c0.3,0.2,0.7,0,0.9-0.3c0.2-0.3,0-0.7-0.3-0.9
				l-12.7-6.7c-0.3-0.2-0.7,0-0.9,0.3C218.7,110.5,218.8,110.9,219.1,111.1z"/>
			<path class="st2" d="M231.7,118.1l-12.7-6.7c0,0-0.1,0-0.1-0.1l0,0c-0.4-0.3-0.6-0.8-0.3-1.3c0.1-0.2,0.3-0.4,0.6-0.5
				c0.3-0.1,0.5-0.1,0.8,0.1l12.7,6.7c0.5,0.3,0.7,0.9,0.4,1.3c-0.1,0.2-0.3,0.4-0.6,0.5c-0.1,0-0.2,0.1-0.4,0
				C231.9,118.2,231.8,118.1,231.7,118.1z M219.4,110.2c-0.1,0-0.1,0.1-0.2,0.2c-0.1,0.1,0,0.3,0.1,0.4c0,0,0,0,0,0l12.7,6.7
				c0.1,0,0.2,0.1,0.3,0c0.1,0,0.1-0.1,0.2-0.2c0.1-0.2,0-0.4-0.1-0.4l-12.7-6.7c0,0-0.1,0-0.1,0
				C219.4,110.2,219.4,110.2,219.4,110.2z"/>
		</g>
		<g>
			
				<linearGradient id="SVGID_23_" gradientUnits="userSpaceOnUse" x1="340.6751" y1="-2.9302" x2="290.9818" y2="109.6661" gradientTransform="matrix(0.9981 6.190000e-02 -6.190000e-02 0.9981 -86.0864 40.9091)">
				<stop  offset="0" style="stop-color:#FEBBBA"/>
				<stop  offset="1" style="stop-color:#FF928E"/>
			</linearGradient>
			<path class="st29" d="M217.7,102.9C217.7,102.9,217.7,102.9,217.7,102.9l21.2,12c0.3,0.2,0.7,0.1,0.9-0.2
				c0.2-0.3,0.1-0.7-0.3-0.9l-21.2-11.9c-0.3-0.2-0.7-0.1-0.9,0.2C217.3,102.4,217.4,102.7,217.7,102.9z"/>
			<path class="st2" d="M238.7,115.2l-21.2-11.9c0,0,0,0-0.1,0l0,0c-0.4-0.3-0.6-0.9-0.3-1.3c0.1-0.2,0.3-0.4,0.6-0.5
				c0.3-0.1,0.5,0,0.8,0.1l21.2,11.9c0.5,0.3,0.6,0.9,0.4,1.3c-0.1,0.2-0.3,0.4-0.6,0.5c-0.1,0-0.2,0-0.3,0
				C239,115.3,238.9,115.3,238.7,115.2z M217.9,102.1c-0.1,0-0.2,0.1-0.2,0.2c-0.1,0.1,0,0.3,0.1,0.4l21.2,12c0.1,0,0.2,0.1,0.3,0
				c0.1,0,0.2-0.1,0.2-0.2c0.1-0.2,0-0.4-0.1-0.4l-21.2-11.9c0,0-0.1,0-0.1,0C218,102.1,218,102.1,217.9,102.1z"/>
		</g>
		<g>
			
				<linearGradient id="SVGID_24_" gradientUnits="userSpaceOnUse" x1="341.9778" y1="-2.3594" x2="292.2815" y2="110.2435" gradientTransform="matrix(0.9981 6.190000e-02 -6.190000e-02 0.9981 -86.0864 40.9091)">
				<stop  offset="0" style="stop-color:#FEBBBA"/>
				<stop  offset="1" style="stop-color:#FF928E"/>
			</linearGradient>
			<path class="st30" d="M246.6,113.2c0.3,0.2,0.7,0.1,0.9-0.2c0.2-0.3,0.1-0.7-0.2-0.9l-28.2-18.9c0,0,0,0,0,0
				c-0.3-0.2-0.7-0.1-0.9,0.2c-0.2,0.3-0.1,0.7,0.2,0.9L246.6,113.2C246.6,113.2,246.6,113.2,246.6,113.2z"/>
			<path class="st2" d="M246.4,113.5l-28.2-18.9c-0.2-0.1-0.4-0.4-0.4-0.6c-0.1-0.3,0-0.5,0.1-0.7c0.3-0.4,0.9-0.6,1.4-0.3
				l28.2,18.9c0.2,0.1,0.4,0.4,0.4,0.6c0.1,0.3,0,0.5-0.1,0.7c-0.2,0.3-0.6,0.5-0.9,0.4C246.7,113.7,246.6,113.6,246.4,113.5z
				 M218.5,93.6c0,0.1-0.1,0.2,0,0.2c0,0.1,0.1,0.2,0.2,0.2l28.2,18.9l0,0c0.2,0.1,0.4,0.1,0.5-0.1c0-0.1,0.1-0.2,0-0.2
				c0-0.1-0.1-0.2-0.2-0.2L219,93.6l0,0C218.8,93.4,218.6,93.5,218.5,93.6z"/>
		</g>
		<g>
			
				<linearGradient id="SVGID_25_" gradientUnits="userSpaceOnUse" x1="343.0382" y1="-1.8923" x2="293.3416" y2="110.7116" gradientTransform="matrix(0.9981 6.190000e-02 -6.190000e-02 0.9981 -86.0864 40.9091)">
				<stop  offset="0" style="stop-color:#FEBBBA"/>
				<stop  offset="1" style="stop-color:#FF928E"/>
			</linearGradient>
			<path class="st31" d="M251.7,109.7c0.3,0.2,0.7,0.1,0.9-0.2c0.2-0.3,0.1-0.7-0.2-0.9l-30.9-21.5c-0.3-0.2-0.7-0.1-0.9,0.2
				c-0.2,0.3-0.1,0.7,0.2,0.9L251.7,109.7C251.7,109.7,251.7,109.7,251.7,109.7z"/>
			<path class="st2" d="M251.6,110l-30.9-21.5c-0.2-0.2-0.4-0.4-0.4-0.6c0-0.3,0-0.5,0.2-0.7c0.2-0.2,0.4-0.4,0.6-0.4
				c0.3,0,0.5,0,0.7,0.2l30.9,21.5c0.2,0.2,0.4,0.4,0.4,0.6c0,0.3,0,0.5-0.2,0.7c-0.2,0.3-0.6,0.4-0.9,0.4
				C251.9,110.2,251.7,110.1,251.6,110z M221.1,87.4c-0.1,0-0.2,0.1-0.2,0.1c0,0.1-0.1,0.2-0.1,0.2c0,0.1,0.1,0.2,0.1,0.2l30.9,21.5
				l0,0c0.1,0.1,0.4,0.1,0.5-0.1c0-0.1,0.1-0.2,0.1-0.2c0-0.1-0.1-0.2-0.1-0.2l-30.9-21.5C221.3,87.4,221.3,87.4,221.1,87.4
				C221.2,87.4,221.2,87.4,221.1,87.4z"/>
		</g>
		<g>
			
				<linearGradient id="SVGID_26_" gradientUnits="userSpaceOnUse" x1="344.4014" y1="-1.2901" x2="294.7062" y2="111.3106" gradientTransform="matrix(0.9981 6.190000e-02 -6.190000e-02 0.9981 -86.0864 40.9091)">
				<stop  offset="0" style="stop-color:#FEBBBA"/>
				<stop  offset="1" style="stop-color:#FF928E"/>
			</linearGradient>
			<path class="st32" d="M224.8,84.1C224.8,84.1,224.8,84.1,224.8,84.1l31.4,19.9c0.3,0.2,0.7,0.1,0.9-0.2c0.2-0.3,0.1-0.7-0.2-0.9
				L225.5,83c-0.3-0.2-0.7-0.1-0.9,0.2C224.4,83.5,224.5,83.9,224.8,84.1z"/>
			<path class="st2" d="M256,104.3l-31.4-19.9l0,0c-0.4-0.3-0.6-0.9-0.3-1.3c0.1-0.2,0.4-0.4,0.6-0.4c0.3-0.1,0.5,0,0.7,0.1
				l31.4,19.9c0.5,0.3,0.6,0.9,0.3,1.4c-0.1,0.2-0.4,0.4-0.6,0.4c-0.1,0-0.2,0-0.3,0C256.3,104.5,256.2,104.4,256,104.3z
				 M225.1,83.3c-0.1,0-0.2,0.1-0.2,0.1c-0.1,0.1,0,0.4,0.1,0.4l-0.2,0.3l0.2-0.3l31.4,19.9c0.1,0,0.2,0.1,0.3,0
				c0.1,0,0.2-0.1,0.2-0.1c0.1-0.2,0-0.4-0.1-0.5l-31.4-19.9C225.3,83.3,225.3,83.3,225.1,83.3C225.2,83.2,225.1,83.2,225.1,83.3z"
				/>
		</g>
		<g>
			
				<linearGradient id="SVGID_27_" gradientUnits="userSpaceOnUse" x1="345.5281" y1="-0.7935" x2="295.833" y2="111.807" gradientTransform="matrix(0.9981 6.190000e-02 -6.190000e-02 0.9981 -86.0864 40.9091)">
				<stop  offset="0" style="stop-color:#FEBBBA"/>
				<stop  offset="1" style="stop-color:#FF928E"/>
			</linearGradient>
			<path class="st33" d="M230.8,80.3C230.8,80.3,230.8,80.4,230.8,80.3l27.5,17.1c0.3,0.2,0.7,0.1,0.9-0.2c0.2-0.3,0.1-0.7-0.2-0.9
				l-27.5-17.1c-0.3-0.2-0.7-0.1-0.9,0.2C230.5,79.8,230.5,80.1,230.8,80.3z"/>
			<path class="st2" d="M258.2,97.8l-27.5-17.1l0,0c-0.4-0.3-0.6-0.9-0.3-1.3c0.1-0.2,0.4-0.4,0.6-0.4c0.3-0.1,0.5,0,0.7,0.1
				l27.5,17.1c0.5,0.3,0.6,0.9,0.3,1.4c-0.1,0.2-0.4,0.4-0.6,0.4c-0.1,0-0.2,0-0.3,0C258.4,97.9,258.3,97.8,258.2,97.8z M231.1,79.5
				c-0.1,0-0.2,0.1-0.2,0.1c-0.1,0.2,0,0.3,0.1,0.4l-0.2,0.3l0.2-0.3l27.5,17.1c0.1,0,0.2,0.1,0.3,0c0.1,0,0.2-0.1,0.2-0.1
				c0.1-0.2,0-0.4-0.1-0.5l-27.5-17.1c0,0-0.1,0-0.2-0.1C231.2,79.5,231.2,79.5,231.1,79.5z"/>
		</g>
		<g>
			
				<linearGradient id="SVGID_28_" gradientUnits="userSpaceOnUse" x1="346.294" y1="-0.4554" x2="296.6005" y2="112.1413" gradientTransform="matrix(0.9981 6.190000e-02 -6.190000e-02 0.9981 -86.0864 40.9091)">
				<stop  offset="0" style="stop-color:#FEBBBA"/>
				<stop  offset="1" style="stop-color:#FF928E"/>
			</linearGradient>
			<path class="st34" d="M237.5,78.3C237.5,78.3,237.5,78.3,237.5,78.3l20.9,11.8c0.3,0.2,0.7,0.1,0.9-0.3c0.2-0.3,0.1-0.7-0.2-0.9
				l-20.9-11.8c-0.3-0.2-0.7-0.1-0.9,0.3C237.2,77.7,237.2,78.1,237.5,78.3z"/>
			<path class="st2" d="M258.3,90.4l-20.9-11.8c0,0,0,0-0.1,0l0,0c-0.4-0.3-0.6-0.8-0.3-1.3c0.3-0.5,0.9-0.6,1.3-0.4l20.9,11.8
				c0.2,0.1,0.4,0.3,0.5,0.6c0.1,0.3,0,0.5-0.1,0.7c-0.2,0.3-0.6,0.5-0.9,0.5C258.5,90.5,258.4,90.5,258.3,90.4z M237.6,77.6
				c-0.1,0.1,0,0.3,0.1,0.4l20.9,11.8c0.2,0.1,0.3,0,0.4-0.1c0-0.1,0.1-0.2,0-0.2c0-0.1-0.1-0.1-0.1-0.2L238,77.5c0,0-0.1,0-0.1,0
				C237.8,77.4,237.7,77.5,237.6,77.6z"/>
		</g>
		<g>
			
				<linearGradient id="SVGID_29_" gradientUnits="userSpaceOnUse" x1="341.1562" y1="-2.7231" x2="291.4577" y2="109.8851" gradientTransform="matrix(0.9981 6.190000e-02 -6.190000e-02 0.9981 -86.0864 40.9091)">
				<stop  offset="0" style="stop-color:#FEBBBA"/>
				<stop  offset="1" style="stop-color:#FF928E"/>
			</linearGradient>
			<path class="st35" d="M226.6,139c0.3,0.2,0.6,0.1,0.8-0.1c0.2-0.3,0.2-0.7,0-0.9l-18-16.7c-0.3-0.2-0.7-0.2-0.9,0
				c-0.2,0.3-0.2,0.7,0,0.9L226.6,139C226.5,139,226.6,139,226.6,139z"/>
			<path class="st2" d="M226.4,139.3L226.4,139.3c0,0-0.1-0.1-0.1-0.1l-18-16.7c-0.2-0.2-0.3-0.4-0.3-0.7c0-0.3,0.1-0.5,0.3-0.7
				c0.4-0.4,1-0.4,1.4,0l18,16.7c0.2,0.2,0.3,0.4,0.3,0.7c0,0.3-0.1,0.5-0.3,0.7c-0.2,0.2-0.5,0.3-0.8,0.3
				C226.7,139.5,226.5,139.4,226.4,139.3z M208.7,121.6c-0.1,0.1-0.1,0.1-0.1,0.2c0,0.1,0,0.2,0.1,0.2l18,16.7c0,0,0,0,0,0l0,0
				c0.1,0.1,0.3,0.1,0.4,0c0.1-0.1,0.1-0.1,0.1-0.2c0-0.1,0-0.2-0.1-0.2l-18-16.7c-0.1-0.1-0.1-0.1-0.2-0.1
				C208.8,121.5,208.7,121.5,208.7,121.6z"/>
		</g>
		<g>
			
				<linearGradient id="SVGID_30_" gradientUnits="userSpaceOnUse" x1="339.9487" y1="-3.2533" x2="290.2516" y2="109.3517" gradientTransform="matrix(0.9981 6.190000e-02 -6.190000e-02 0.9981 -86.0864 40.9091)">
				<stop  offset="0" style="stop-color:#FEBBBA"/>
				<stop  offset="1" style="stop-color:#FF928E"/>
			</linearGradient>
			<path class="st36" d="M226.8,144.8c0.3,0.2,0.7,0.1,0.9-0.1c0.2-0.3,0.2-0.7-0.1-0.9l-26-19.4c-0.3-0.2-0.7-0.2-0.9,0.1
				c-0.2,0.3-0.2,0.7,0.1,0.9L226.8,144.8C226.8,144.8,226.8,144.8,226.8,144.8z"/>
			<path class="st2" d="M226.7,145L226.7,145C226.6,145,226.6,145,226.7,145l-26.1-19.5c-0.2-0.2-0.4-0.4-0.4-0.7
				c0-0.3,0-0.5,0.2-0.7c0.2-0.2,0.4-0.3,0.6-0.4c0.3,0,0.5,0,0.7,0.2l26,19.4c0.2,0.2,0.4,0.4,0.4,0.7c0,0.3,0,0.5-0.2,0.7
				c-0.2,0.3-0.5,0.4-0.9,0.4C227,145.2,226.8,145.1,226.7,145z M201.1,124.5c-0.1,0-0.2,0.1-0.2,0.1c-0.1,0.1-0.1,0.2-0.1,0.2
				c0,0.1,0.1,0.2,0.1,0.2l26.1,19.4c0.1,0.1,0.3,0.1,0.4-0.1c0.1-0.1,0.1-0.2,0.1-0.2c0-0.1-0.1-0.2-0.1-0.2l-26-19.4
				C201.3,124.5,201.2,124.5,201.1,124.5C201.2,124.5,201.1,124.5,201.1,124.5z"/>
		</g>
		<g>
			
				<linearGradient id="SVGID_31_" gradientUnits="userSpaceOnUse" x1="338.4377" y1="-3.9184" x2="288.7412" y2="108.6852" gradientTransform="matrix(0.9981 6.190000e-02 -6.190000e-02 0.9981 -86.0864 40.9091)">
				<stop  offset="0" style="stop-color:#FEBBBA"/>
				<stop  offset="1" style="stop-color:#FF928E"/>
			</linearGradient>
			<path class="st37" d="M225.6,150.8c0.3,0.2,0.7,0.1,0.9-0.2c0.2-0.3,0.1-0.7-0.2-0.9l-32-22.2c-0.3-0.2-0.7-0.1-0.9,0.2
				c-0.2,0.3-0.1,0.7,0.2,0.9L225.6,150.8C225.6,150.8,225.6,150.8,225.6,150.8z"/>
			<path class="st2" d="M225.4,151l-32-22.2c-0.2-0.1-0.4-0.4-0.4-0.6c0-0.3,0-0.5,0.2-0.7c0.2-0.2,0.4-0.4,0.6-0.4
				c0.3,0,0.5,0,0.7,0.2l32,22.2c0.2,0.1,0.4,0.4,0.4,0.6c0,0.3,0,0.5-0.2,0.7c-0.2,0.3-0.6,0.4-0.9,0.4
				C225.7,151.2,225.5,151.1,225.4,151z M225.8,150.5c0.1,0.1,0.4,0.1,0.5-0.1c0-0.1,0.1-0.2,0.1-0.2c0-0.1-0.1-0.2-0.1-0.2
				l-32-22.2c-0.1-0.1-0.2-0.1-0.2-0.1c-0.1,0-0.2,0.1-0.2,0.1c0,0.1-0.1,0.2-0.1,0.2c0,0.1,0.1,0.2,0.1,0.2L225.8,150.5l-0.2,0.3
				L225.8,150.5L225.8,150.5z"/>
		</g>
		<g>
			
				<linearGradient id="SVGID_32_" gradientUnits="userSpaceOnUse" x1="337.2846" y1="-4.4238" x2="287.5894" y2="108.1768" gradientTransform="matrix(0.9981 6.190000e-02 -6.190000e-02 0.9981 -86.0864 40.9091)">
				<stop  offset="0" style="stop-color:#FEBBBA"/>
				<stop  offset="1" style="stop-color:#FF928E"/>
			</linearGradient>
			<path class="st38" d="M188.2,133.4c0.2-0.3,0.6-0.4,0.9-0.2c9.1,5.8,32.7,20.9,33.9,21.5c0.1,0,0.1,0.1,0.2,0.1
				c0.3,0.2,0.3,0.7,0.1,0.9c-0.4,0.4-0.8,0.2-1.2-0.1c-0.3-0.2-0.6-0.4-1.1-0.7c-0.9-0.6-2.3-1.4-3.9-2.4
				c-2.8-1.8-6.8-4.3-11.7-7.4c-8.5-5.4-17-10.8-17-10.8c0,0,0,0,0,0C188,134.1,188,133.7,188.2,133.4z M222.2,154.9
				c0,0,0.1-0.1,0.1-0.1C222.3,154.8,222.3,154.8,222.2,154.9z M222.7,154.7c0.1,0,0.1,0,0.2,0C222.9,154.7,222.8,154.7,222.7,154.7
				z"/>
			<path class="st2" d="M221.8,155.9c-0.3-0.2-0.6-0.4-1.1-0.7c-0.9-0.6-2.3-1.4-3.9-2.4c-2.9-1.8-6.8-4.3-11.7-7.4
				c-8.4-5.3-16.9-10.8-17-10.8l0,0c-0.4-0.3-0.6-0.9-0.3-1.3c0.1-0.2,0.4-0.4,0.6-0.4c0.3-0.1,0.5,0,0.7,0.1
				c9,5.7,32.5,20.7,33.9,21.5c0.1,0,0.2,0.1,0.3,0.2c0.2,0.2,0.3,0.4,0.3,0.7c0,0.3-0.1,0.5-0.2,0.7c-0.2,0.3-0.5,0.3-0.7,0.3
				C222.4,156.3,222.1,156.1,221.8,155.9z M222.8,155c0,0-0.1,0-0.1,0l0,0c-0.1-0.1-0.2-0.1-0.4-0.2l0.2,0.3c0,0,0,0,0,0
				c0,0,0,0-0.1,0.1l-0.5-0.4c0,0,0.1-0.1,0.1-0.1c-4.3-2.6-24.9-15.8-33.2-21.1c-0.1,0-0.2-0.1-0.3,0c-0.1,0-0.2,0.1-0.2,0.1
				c-0.1,0.1-0.1,0.4,0.1,0.5l-0.2,0.3l0.2-0.3c0.1,0.1,8.6,5.5,17,10.8c4.9,3.1,8.8,5.6,11.7,7.4c1.6,1,2.9,1.9,3.9,2.4
				c0.5,0.3,0.8,0.5,1.1,0.7c0.5,0.3,0.7,0.3,0.8,0.2c0.1-0.1,0.1-0.1,0.1-0.2c0-0.1,0-0.2-0.1-0.2C222.9,155.1,222.9,155,222.8,155
				L222.8,155L222.8,155z"/>
		</g>
		<g>
			
				<linearGradient id="SVGID_33_" gradientUnits="userSpaceOnUse" x1="337.3127" y1="-4.3914" x2="287.626" y2="108.1899" gradientTransform="matrix(0.9981 6.190000e-02 -6.190000e-02 0.9981 -86.0864 40.9091)">
				<stop  offset="0" style="stop-color:#FEBBBA"/>
				<stop  offset="1" style="stop-color:#FF928E"/>
			</linearGradient>
			<path class="st39" d="M186.2,142C186.2,142,186.3,142,186.2,142l32.6,17.3c0.3,0.2,0.7,0.1,0.9-0.3c0.2-0.3,0-0.7-0.3-0.9
				l-32.6-17.3c-0.3-0.2-0.7-0.1-0.9,0.3C185.8,141.5,185.9,141.8,186.2,142z"/>
			<path class="st2" d="M218.7,159.6l-32.6-17.3c0,0-0.1,0-0.1-0.1c-0.4-0.3-0.6-0.8-0.3-1.3c0.1-0.2,0.3-0.4,0.6-0.5
				c0.3-0.1,0.5-0.1,0.8,0.1l32.6,17.3c0.5,0.3,0.7,0.9,0.4,1.3c-0.1,0.2-0.3,0.4-0.6,0.5c-0.1,0-0.2,0.1-0.4,0
				C219,159.7,218.8,159.7,218.7,159.6z M186.5,141.2c-0.1,0-0.2,0.1-0.2,0.2c-0.1,0.1,0,0.3,0.1,0.4l0,0c0,0,0,0,0,0L219,159
				c0.1,0,0.2,0.1,0.3,0c0.1,0,0.1-0.1,0.2-0.2c0.1-0.2,0-0.4-0.1-0.4l-32.6-17.3c0,0-0.1,0-0.1,0
				C186.6,141.1,186.5,141.1,186.5,141.2z"/>
		</g>
		<g>
			
				<linearGradient id="SVGID_34_" gradientUnits="userSpaceOnUse" x1="336.8889" y1="-4.6194" x2="287.1846" y2="108.0017" gradientTransform="matrix(0.9981 6.190000e-02 -6.190000e-02 0.9981 -86.0864 40.9091)">
				<stop  offset="0" style="stop-color:#FEBBBA"/>
				<stop  offset="1" style="stop-color:#FF928E"/>
			</linearGradient>
			<path class="st40" d="M185.6,152c0,0,0.1,0,0.1,0.1l26.1,10.2c0.3,0.1,0.7,0,0.8-0.4c0.1-0.3,0-0.7-0.4-0.8l-26.1-10.2
				c-0.3-0.1-0.7,0-0.8,0.4C185.3,151.5,185.4,151.8,185.6,152z"/>
			<path class="st2" d="M211.7,162.5l-26.1-10.2c-0.1,0-0.1-0.1-0.2-0.1c-0.4-0.3-0.5-0.7-0.4-1.2c0.1-0.2,0.3-0.4,0.5-0.5
				c0.2-0.1,0.5-0.1,0.8,0l26.1,10.2c0.5,0.2,0.8,0.8,0.6,1.3c-0.1,0.2-0.3,0.4-0.5,0.5c-0.2,0.1-0.3,0.1-0.5,0.1
				C211.9,162.6,211.8,162.5,211.7,162.5z M185.8,151.1c-0.1,0-0.1,0.1-0.2,0.2c-0.1,0.1,0,0.3,0.1,0.4l0,0c0,0,0,0,0.1,0l26.1,10.2
				c0.1,0,0.2,0,0.3,0c0.1,0,0.1-0.1,0.2-0.2c0.1-0.2,0-0.4-0.2-0.4l-26.1-10.2c0,0-0.1,0-0.1,0C186,151.1,185.9,151.1,185.8,151.1z
				"/>
		</g>
		<g>
			<linearGradient id="SVGID_35_" gradientUnits="userSpaceOnUse" x1="267.1004" y1="13.4092" x2="211.6259" y2="145.7209">
				<stop  offset="0" style="stop-color:#E1473D"/>
				<stop  offset="1" style="stop-color:#E9605A"/>
			</linearGradient>
			<path class="st41" d="M255.8,79.3c0.8,2.6,1.3,5.2,1.6,7.8c0.3,2.6,0.4,5.2,0.1,7.7c-0.1,1.3-0.4,2.5-0.7,3.7
				c-0.3,1.2-0.8,2.3-1.3,3.4c-0.5,1.1-1.2,2.1-1.9,3.1c-0.7,1-1.5,1.9-2.5,2.7c-1.8,1.7-3.9,3-6.2,4.1c-0.6,0.3-1.2,0.5-1.7,0.8
				c-0.6,0.2-1.2,0.5-1.8,0.7c-1.2,0.4-2.4,0.8-3.7,1.1c-0.6,0.1-1.3,0.3-1.9,0.4l-1,0.2l-1,0.2l-3.9,0.8l-7.9,1.5
				c-5.3,1-10.5,2.1-15.8,3.6c-2.6,0.8-5.2,1.7-7.7,2.8c-2.5,1.2-4.9,2.7-7,4.6c-2.1,1.9-3.7,4.3-4.8,6.8c-1.1,2.6-1.6,5.3-1.8,8
				c-0.2,2.7-0.1,5.4,0.1,8.1c0.1,1.3,0.3,2.7,0.5,4c0.2,1.3,0.4,2.6,0.7,4c0,0.1,0.1,0.1,0.2,0.1c0.1,0,0.1-0.1,0.1-0.1
				c-0.3-2.7-0.5-5.3-0.6-8c0-1.3,0-2.6,0-4c0.1-1.3,0.2-2.6,0.4-3.9c0.4-2.6,1-5.1,2.2-7.4c1.1-2.3,2.7-4.3,4.6-5.9
				c1.9-1.6,4.2-2.9,6.5-3.9c2.4-1,4.9-1.8,7.4-2.5c2.5-0.7,5.1-1.2,7.7-1.7c2.6-0.5,5.2-1,7.9-1.4l7.9-1.4c1.3-0.2,2.6-0.5,4-0.7
				l1-0.2l1-0.2c0.7-0.1,1.3-0.3,2-0.4c1.3-0.3,2.7-0.7,4-1.2c0.7-0.2,1.3-0.5,2-0.7c0.6-0.3,1.3-0.5,1.9-0.8c2.5-1.2,5-2.7,7.1-4.7
				c1.1-1,2-2.1,2.9-3.2c0.8-1.2,1.6-2.4,2.1-3.8c1.1-2.7,1.7-5.5,1.8-8.3c0.1-2.8-0.4-5.6-1.1-8.2c-0.4-1.3-0.8-2.6-1.4-3.9
				c-0.5-1.3-1.1-2.5-1.9-3.6c0-0.1-0.1-0.1-0.2,0C255.8,79.2,255.7,79.3,255.8,79.3L255.8,79.3z"/>
			<path class="st2" d="M186,159.4c-0.3-1.5-0.5-2.8-0.7-4c-0.2-1.3-0.4-2.6-0.5-4c-0.3-3.2-0.3-5.8-0.1-8.2
				c0.3-3.1,0.9-5.7,1.9-8.1c1.1-2.6,2.8-5,4.9-6.9c1.9-1.8,4.3-3.3,7-4.6c2.3-1.1,4.7-2,7.7-2.9c5.3-1.6,10.6-2.6,15.8-3.6l7.9-1.5
				l4.9-0.9l1-0.2c0.4-0.1,0.9-0.2,1.3-0.3c0.2,0,0.4-0.1,0.6-0.1c1-0.3,2.4-0.6,3.7-1.1c0.4-0.1,0.9-0.3,1.3-0.5
				c0.2-0.1,0.3-0.1,0.5-0.2c0.1-0.1,0.3-0.1,0.4-0.2c0.4-0.2,0.9-0.4,1.3-0.6c2.3-1.1,4.4-2.5,6.1-4c0.9-0.8,1.7-1.7,2.4-2.6
				c0.7-0.9,1.3-1.9,1.9-3c0.5-1,0.9-2.1,1.3-3.4c0.3-1.1,0.5-2.3,0.7-3.6c0.3-2.3,0.2-4.9-0.1-7.6c-0.3-2.6-0.8-5.2-1.6-7.7l0,0
				c-0.1-0.2,0-0.4,0.2-0.5c0.2-0.1,0.5-0.1,0.6,0.1c0.7,1,1.3,2.2,1.9,3.7c0.5,1.2,1,2.6,1.4,3.9c0.8,2.8,1.2,5.6,1.1,8.3
				c-0.1,2.9-0.7,5.9-1.8,8.5c-0.5,1.3-1.3,2.6-2.2,3.8c-0.8,1.1-1.8,2.2-2.9,3.3c-2,1.9-4.4,3.4-7.2,4.7c-0.5,0.2-1,0.5-1.5,0.7
				c-0.1,0.1-0.3,0.1-0.4,0.2c-0.2,0.1-0.3,0.1-0.5,0.2c-0.5,0.2-1,0.4-1.5,0.5c-1.5,0.5-2.9,0.9-4,1.2c-0.2,0-0.4,0.1-0.6,0.1
				c-0.5,0.1-1,0.2-1.4,0.3l-1,0.2l-1,0.2c-1.2,0.2-2.5,0.5-4,0.7l-7.9,1.4c-2.5,0.4-5.2,0.9-7.8,1.4c-2.5,0.5-5.1,1-7.7,1.7
				c-2.8,0.7-5.2,1.5-7.4,2.4c-2.7,1.1-4.8,2.4-6.5,3.8c-1.9,1.6-3.4,3.6-4.5,5.8c-1,2.1-1.7,4.5-2.1,7.3c-0.2,1.3-0.3,2.6-0.4,3.9
				c-0.1,1.3-0.1,2.7,0,3.9c0.1,2.4,0.2,5,0.6,7.9c0,0.2-0.1,0.5-0.4,0.5c0,0-0.1,0-0.1,0C186.2,159.7,186.1,159.6,186,159.4z
				 M257.7,87c0.3,2.8,0.4,5.4,0.1,7.8c-0.2,1.3-0.4,2.6-0.7,3.7c-0.4,1.3-0.8,2.4-1.3,3.5c-0.6,1.2-1.2,2.2-1.9,3.1
				c-0.7,1-1.6,1.9-2.5,2.7c-1.8,1.6-3.9,3-6.3,4.1c-0.4,0.2-0.9,0.4-1.3,0.6c-0.1,0.1-0.3,0.1-0.4,0.2c-0.2,0.1-0.3,0.1-0.5,0.2
				c-0.4,0.2-0.9,0.3-1.3,0.5c-1.3,0.5-2.7,0.8-3.7,1.1c-0.2,0-0.4,0.1-0.6,0.1c-0.4,0.1-0.9,0.2-1.3,0.3l-1,0.2l-4.9,0.9l-7.9,1.5
				c-5.1,1-10.5,2.1-15.7,3.6c-3,0.9-5.4,1.8-7.6,2.8c-2.7,1.2-5,2.8-6.9,4.5c-2,1.9-3.7,4.2-4.7,6.7c-1,2.3-1.6,4.9-1.8,7.9
				c-0.2,2.3-0.2,4.9,0.1,8c0.1,1.2,0.3,2.4,0.4,3.4c-0.1-1.2-0.1-2.3-0.2-3.4c0-1.3,0-2.6,0-4c0.1-1.3,0.2-2.7,0.4-3.9
				c0.4-2.8,1.1-5.4,2.2-7.5c1.1-2.3,2.7-4.4,4.7-6c1.7-1.5,3.9-2.8,6.6-3.9c2.1-0.9,4.6-1.7,7.4-2.5c2.6-0.7,5.3-1.2,7.7-1.7
				c2.7-0.5,5.4-1,7.9-1.4l7.9-1.4c1.4-0.2,2.7-0.5,4-0.7l1-0.2l1-0.2c0.5-0.1,0.9-0.2,1.4-0.3c0.2,0,0.4-0.1,0.6-0.1
				c1.1-0.3,2.5-0.7,4-1.2c0.5-0.2,1-0.3,1.4-0.5c0.2-0.1,0.3-0.1,0.5-0.2c0.1-0.1,0.3-0.1,0.4-0.2c0.5-0.2,1-0.4,1.5-0.7
				c2.7-1.2,5-2.8,7-4.6c1.1-1,2-2.1,2.8-3.2c0.9-1.2,1.6-2.5,2.1-3.7c1.1-2.5,1.7-5.3,1.7-8.2c0.1-2.6-0.3-5.4-1.1-8.2
				c-0.4-1.3-0.8-2.6-1.4-3.8c-0.4-0.9-0.7-1.6-1.1-2.3C257,82.8,257.4,84.9,257.7,87z"/>
		</g>
	</g>
</g>
<path class="st2" d="M271.6,134C271.5,134,271.5,134,271.6,134L271.6,134l-0.4,0.1c-0.9,0.3-1.8,0.8-2.6,1.2c0.9,4.4,0,9-2.5,12.7
	c-0.1,0.2-0.3,0.3-0.5,0.3c-0.1,0-0.3,0-0.4-0.1c-0.3-0.2-0.4-0.6-0.2-0.9l0,0c2.2-3.3,3-7.3,2.4-11.2c-2.8,1.8-4.7,4.6-5.3,7.8
	c-0.1,0.3-0.3,0.5-0.7,0.5h-0.1c-0.4-0.1-0.6-0.4-0.5-0.8c0.9-4.9,4.2-7.8,6.9-9.4c-4.1-0.5-7.9-3.5-8.1-3.6
	c-0.3-0.2-0.3-0.6-0.1-0.9c0.2-0.3,0.6-0.3,0.9-0.1c0.1,0.1,5.9,4.5,10.3,3.3c0.3-0.1,0.4-0.2,0.5-0.2c4.6-1.8,4.9-8,4.9-9.1
	c-0.8-1.2-1.9-2.2-3.1-3c-2.5,0.9-4.6,2.4-6.2,4.6c-0.1,0.2-0.3,0.3-0.5,0.3c-0.4,0-0.7-0.3-0.6-0.7c0-0.1,0-0.3,0.1-0.4
	c1.8-2.4,4.3-4.3,7.1-5.2l0,0c2.4-0.8,4.9-1.3,7.4-1.3l-1.7-4.6c-0.9-0.1-1.9-0.2-2.8-0.2c-7.1,0-12.7,3.2-17.2,9.8
	c-0.1,0.1-0.2,0.2-0.4,0.3c-5,1.5-7.6,4.6-7.6,9c0,6.6,6,15,12.9,18.6c1.7,0.9,3.8,0.8,5.4-0.3c5.7-3.9,9.3-10.2,9.8-17.2
	c0.2-2.7-0.3-5.3-1.4-7.8C276.8,128.2,275.6,132.4,271.6,134z"/>
<g>
	<path class="st42" d="M149.5,51.5c-0.4,0-0.6-0.3-0.6-0.7c0,0,0,0,0,0c0-0.4,0.4-0.6,0.7-0.6c0,0,0,0,0,0c0.9,0.1,1.7,0.1,2.6,0
		c0.4,0,0.7,0.2,0.7,0.6c0,0.4-0.2,0.7-0.6,0.7c-0.4,0-0.7,0-1.1,0C150.6,51.6,150.1,51.5,149.5,51.5z M146.2,50.8
		c0.3,0.1,0.5,0.2,0.8,0.2c0.1,0,0.1,0,0.2,0c0.4,0,0.7-0.2,0.7-0.6c0-0.4-0.2-0.7-0.6-0.7c-0.3-0.1-0.5-0.1-0.8-0.2
		c-0.3-0.1-0.7,0.1-0.8,0.4c0,0,0,0,0,0C145.6,50.3,145.8,50.6,146.2,50.8C146.1,50.8,146.1,50.8,146.2,50.8z M153.1,53.4
		c0-0.4-0.3-0.6-0.7-0.6c-1,0.1-2,0.1-3,0c-1.2-0.1-2.5-0.4-3.6-0.8c-0.3-0.1-0.7,0.1-0.8,0.4c0,0,0,0,0,0c-0.1,0.3,0.1,0.7,0.4,0.8
		c0,0,0,0,0,0c1.3,0.4,2.6,0.7,3.9,0.8c0.6,0.1,1.3,0.1,1.9,0.1c0.4,0,0.9,0,1.3,0C152.8,54.1,153.1,53.8,153.1,53.4z M172.3,37.9
		h-27.7c-1.8,0-3.2,1.4-3.2,3.2v7c0,0.4,0.3,0.6,0.6,0.6c0.4,0,0.6-0.3,0.6-0.6v-7c0-1.1,0.9-1.9,1.9-1.9h2.5l-5.3,14.9
		c-0.1,0-0.3,0-0.4,0c-1.7,0-3.1,1.4-3.1,3.1c0,1.7,1.4,3.1,3.1,3.1c1.7,0,3.1-1.4,3.1-3.1c0-0.5-0.1-0.9-0.3-1.3
		c-0.3-0.5-0.7-1-1.2-1.3l5.4-15.2c0,0,0-0.1,0.1-0.1h5.7v16.1c-1.7,0.4-2.7,2-2.3,3.6s2,2.7,3.6,2.3c1.7-0.4,2.7-2,2.3-3.6
		c-0.3-1.2-1.2-2.1-2.3-2.3V39.2h5.7v16.1c-1.7,0.4-2.7,2-2.4,3.6c0.4,1.7,2,2.7,3.6,2.4c1.7-0.4,2.7-2,2.4-3.6
		c-0.3-1.2-1.2-2.1-2.4-2.4V39.2h5.7v16.1c-1.7,0.4-2.7,2-2.4,3.6s2,2.7,3.6,2.4c1.7-0.4,2.7-2,2.4-3.6c-0.3-1.2-1.2-2.1-2.4-2.4
		V39.2h2.8c1.1,0,1.9,0.9,1.9,1.9v22.1c0,0.4,0.3,0.6,0.6,0.6c0.4,0,0.6-0.3,0.6-0.6V41.2C175.5,39.4,174.1,37.9,172.3,37.9
		C172.3,37.9,172.3,37.9,172.3,37.9L172.3,37.9z"/>
</g>
</svg>
