<?xml version="1.0" encoding="utf-8"?>
<!-- Generator: Adobe Illustrator 24.2.0, SVG Export Plug-In . SVG Version: 6.00 Build 0)  -->
<svg version="1.1" id="Layer_1" xmlns="http://www.w3.org/2000/svg" xmlns:xlink="http://www.w3.org/1999/xlink" x="0px" y="0px"
	 viewBox="0 0 100 100" style="enable-background:new 0 0 100 100;" xml:space="preserve">
<style type="text/css">
	.st0{fill:#2E1010;}
	.st1{fill:#F15D28;}
	.st2{opacity:5.000000e-02;fill:#131313;enable-background:new    ;}
	.st3{fill:#EC4E24;}
	.st4{fill:#F36E38;}
	.st5{fill:#F3744B;}
	.st6{fill:#FFFFFF;}
	.st7{fill:#FBCDC1;}
	.st8{fill:#E94F94;}
	.st9{enable-background:new    ;}
</style>
<g>
	<g>
		<g>
			<g>
				<g>
					<path class="st0" d="M60.1,53.9c0.4-0.2,0.8-0.4,1.2-0.6l0,0c0.5-0.3,1-0.7,1.4-1.2l0,0c0.7-0.8,1.2-1.8,1.4-2.9
						c0-0.1,0-0.3,0.1-0.4c0-0.1,0-0.1,0-0.2v-0.1l0,0v-0.1c0-0.2,0.1-0.3,0.3-0.3c0.1,0,0.3,0.1,0.3,0.3c0,0.5-0.1,1.1-0.3,1.6
						c-0.5,2.1-2.2,3.6-4.1,4.4c-0.2,0.1-0.4,0-0.4-0.1C59.9,54,59.9,53.9,60.1,53.9L60.1,53.9z"/>
				</g>
				<g>
					<g>
						<path class="st0" d="M64.3,48.1c0.1,0,0.2,0,0.2,0c0.1,0,0.1,0,0.2-0.1c0.4-0.2,0.7-0.5,0.7-1c0-0.1,0-0.1,0-0.2
							c0-0.5-0.4-0.8-0.9-0.8c-0.7,0-0.9,0.9-0.7,1.5c0,0.1,0.1,0.2,0.1,0.3S64,48,64.1,48C64.3,48,64.3,48.1,64.3,48.1z"/>
						<g>
							<path class="st0" d="M64.3,47.8c0.1,0,0.1,0,0.2,0l0,0h0.1c0,0,0.1,0,0,0c0,0,0,0,0.1,0c0,0,0.1,0,0.1-0.1c0,0,0,0,0.1,0
								c0,0,0.1-0.1,0,0l0.1-0.1c0,0,0-0.1,0.1-0.1c0,0,0,0,0-0.1c0,0.1,0,0,0,0s0-0.1,0.1-0.1l0,0c0,0.1,0,0,0,0v-0.1
								c0,0,0-0.1,0,0v-0.1V47c0,0,0,0,0-0.1c0,0.1,0,0,0,0v-0.1c0,0.1,0,0,0,0s0,0,0-0.1c0,0,0,0,0-0.1s0,0,0,0l-0.1-0.1
								c-0.1,0,0,0,0,0l0,0l0,0l0,0l0,0H65c-0.1,0,0.1,0,0,0c0,0,0,0-0.1,0c0,0,0,0-0.1,0s0.1,0,0,0h-0.1l0,0l0,0l0,0l0,0
								c-0.1,0,0,0,0,0l-0.1,0.1c0,0-0.1,0.1,0,0c0,0,0,0,0,0.1v0.1c0,0,0,0,0,0.1c0-0.1,0,0,0,0c0,0.1,0,0.2,0,0.2c0-0.1,0,0,0,0
								v0.1v0.1l0,0l0,0l0,0v0.1c0,0.1,0,0.1,0.1,0.2l0,0c0,0,0,0.1,0.1,0.1c0.1,0.1,0.1,0.2,0.2,0.3s0,0.3-0.1,0.4
								c-0.1,0.1-0.3,0-0.4-0.1l0,0l0,0c0,0,0-0.1-0.1-0.1c-0.1-0.1-0.1-0.1-0.1-0.2c-0.1-0.1-0.1-0.3-0.2-0.4
								C64,47.4,64,47.2,64,47c0-0.4,0.2-0.9,0.6-1.1c0.4-0.2,0.9-0.1,1.3,0.2c0.3,0.4,0.4,0.9,0.2,1.4c-0.2,0.5-0.8,0.9-1.3,0.9
								c-0.1,0-0.3-0.1-0.3-0.3C64.1,48,64.2,47.8,64.3,47.8z"/>
						</g>
					</g>
					<g>
						<path class="st0" d="M63.7,47.5C63.7,47.5,63.7,47.4,63.7,47.5L63.7,47.5L63.7,47.5L63.7,47.5L63.7,47.5L63.7,47.5L63.7,47.5
							L63.7,47.5L63.7,47.5L63.7,47.5L63.7,47.5L63.7,47.5C63.7,47.4,63.7,47.4,63.7,47.5c0-0.1,0-0.1,0-0.2l0,0l0,0c0,0,0,0,0,0.1
							l0,0C63.7,47.4,63.7,47.5,63.7,47.5L63.7,47.5L63.7,47.5l0.2,0.1l0,0l0,0c0,0,0.1,0,0.1,0.1c0.1,0.1,0.3,0.2,0.5,0.2
							c-0.1,0.2-0.2,0.3-0.3,0.5c-0.2-0.1-0.4-0.3-0.5-0.5c0-0.1-0.1-0.2-0.1-0.3C63.7,47.6,63.6,47.5,63.7,47.5c-0.1,0,0-0.1,0-0.2
							c0-0.1,0.2-0.2,0.3-0.2c0.2,0,0.2,0.2,0.2,0.3s0,0,0,0l0,0v0.1c0,0.1,0.1,0.2,0.1,0.2l0,0l0,0l0,0l0,0l0,0l0,0h0.1
							c0.1,0.1,0.2,0.2,0.1,0.4c-0.1,0.1-0.2,0.2-0.4,0.1c-0.2-0.1-0.4-0.2-0.6-0.3s-0.4-0.3-0.5-0.6c0-0.1-0.1-0.3,0-0.4
							c0.1-0.1,0.2-0.2,0.3-0.2c0.1,0,0.3-0.1,0.4,0s0.2,0.2,0.3,0.3c0.1,0.1,0.1,0.3-0.1,0.4C63.9,47.6,63.7,47.6,63.7,47.5z"/>
					</g>
				</g>
			</g>
			<g>
				<g>
					<path class="st0" d="M16.7,52.6c-0.5,0-0.9-0.1-1.3-0.2l0,0c-0.6-0.2-1.2-0.4-1.7-0.7l0,0c-0.9-0.5-1.7-1.3-2.2-2.3
						c-0.1-0.1-0.1-0.2-0.2-0.4c0-0.1-0.1-0.1-0.1-0.2v-0.1l0,0c0,0,0,0,0-0.1c-0.1-0.1-0.2-0.3-0.4-0.2c-0.1,0-0.3,0.2-0.2,0.4
						c0.2,0.5,0.5,1,0.8,1.4c1.1,1.8,3.3,2.7,5.3,2.8c0.2,0,0.4-0.1,0.4-0.3C17,52.7,16.9,52.6,16.7,52.6L16.7,52.6z"/>
				</g>
				<g>
					<g>
						<path class="st0" d="M10.9,48.5c-0.1,0-0.2,0-0.2,0.1c-0.1,0-0.2,0-0.2,0c-0.4-0.1-0.8-0.3-1-0.7c0-0.1,0-0.1-0.1-0.2
							c-0.1-0.4,0.2-0.9,0.6-1c0.7-0.2,1.1,0.5,1.1,1.2c0,0.1,0,0.2,0,0.3S11.1,48.4,10.9,48.5C10.9,48.4,10.9,48.4,10.9,48.5z"/>
						<g>
							<path class="st0" d="M10.8,48.2c-0.1,0-0.1,0-0.2,0l0,0h-0.1c0,0-0.1,0,0,0c0,0,0,0-0.1,0h-0.1c0,0,0,0-0.1,0c0,0-0.1,0,0,0
								c0,0-0.1,0-0.1-0.1c0,0-0.1,0-0.1-0.1c0,0,0,0-0.1,0c0.1,0,0,0,0,0l-0.1-0.1l0,0l0,0c0,0,0-0.1-0.1-0.1c0,0,0-0.1,0,0v-0.1
								v-0.1c0,0,0,0,0-0.1c0,0.1,0,0,0,0v-0.1c0,0.1,0,0,0,0s0,0,0-0.1c0,0,0,0,0-0.1s0,0,0,0s0-0.1,0.1-0.1c0-0.1,0,0,0,0l0,0l0,0
								l0,0l0,0c0,0,0.1,0,0.1-0.1c0.1,0-0.1,0,0,0c0,0,0,0,0.1,0c0,0,0,0,0.1,0s-0.1,0,0,0h0.1l0,0l0,0c0,0,0,0,0.1,0l0,0
								c0.1,0-0.1,0,0,0c0,0,0.1,0,0.1,0.1c0,0,0.1,0,0,0c0,0,0,0,0.1,0c0,0,0,0,0.1,0.1l0,0c0-0.1,0,0,0,0c0,0.1,0.1,0.1,0.1,0.2
								c0-0.1,0,0,0,0v0.1v0.1l0,0l0,0l0,0v0.1c0,0.1,0,0.1,0,0.2c0,0,0,0.1,0,0V48c0,0.1-0.1,0.2-0.1,0.4c-0.1,0.1,0.1,0.3,0.2,0.3
								c0.2,0,0.3-0.1,0.3-0.2l0,0l0,0v-0.1c0-0.1,0.1-0.1,0.1-0.2c0-0.1,0-0.3,0-0.4c0-0.2,0-0.4-0.1-0.6c-0.2-0.4-0.5-0.8-0.9-0.8
								c-0.5-0.1-0.9,0.2-1.1,0.6c-0.2,0.5-0.1,1,0.3,1.4s1,0.6,1.5,0.4c0.1,0,0.2-0.2,0.2-0.3C11.1,48.3,10.9,48.2,10.8,48.2z"/>
						</g>
					</g>
					<g>
						<path class="st0" d="M11.3,47.7L11.3,47.7L11.3,47.7L11.3,47.7C11.3,47.5,11.2,47.6,11.3,47.7C11.2,47.6,11.3,47.6,11.3,47.7
							C11.3,47.6,11.3,47.6,11.3,47.7C11.2,47.6,11.2,47.6,11.3,47.7C11.3,47.6,11.3,47.6,11.3,47.7C11.3,47.6,11.3,47.6,11.3,47.7
							C11.3,47.6,11.3,47.6,11.3,47.7C11.3,47.6,11.3,47.6,11.3,47.7C11.3,47.6,11.2,47.6,11.3,47.7C11.3,47.6,11.3,47.6,11.3,47.7
							c0-0.1-0.1-0.1-0.1-0.1l0,0l0,0C11.2,47.5,11.2,47.5,11.3,47.7C11.2,47.6,11.2,47.6,11.3,47.7c-0.1-0.1-0.1,0-0.1,0l0,0
							c0,0,0,0,0,0.1c0,0,0,0.1-0.1,0.1l0,0l0,0c0,0,0,0.1-0.1,0.1c-0.1,0.1-0.2,0.2-0.4,0.4c0.1,0.1,0.3,0.3,0.4,0.4
							c0.2-0.1,0.3-0.4,0.3-0.6c0-0.1,0-0.2,0-0.3C11.3,47.8,11.3,47.7,11.3,47.7c0-0.1,0-0.1,0-0.2c-0.1-0.1-0.3-0.2-0.4-0.1
							c-0.1,0.1-0.2,0.2-0.1,0.4c0,0.1,0,0,0,0s0,0,0,0.1V48c0,0.1,0,0.2,0,0.2l0,0c0,0,0,0,0,0.1l0,0l0,0l0,0c0,0.1,0,0,0,0
							l-0.1,0.1c-0.1,0.1-0.1,0.3,0,0.4c0.1,0.1,0.3,0.1,0.4,0c0.2-0.1,0.3-0.3,0.5-0.5s0.3-0.4,0.3-0.7c0-0.1,0-0.3-0.1-0.4
							c-0.1-0.1-0.2-0.1-0.3-0.1s-0.3,0-0.4,0.1s-0.1,0.2-0.2,0.4c0,0.1,0,0.3,0.2,0.3C11.1,47.9,11.3,47.8,11.3,47.7z"/>
					</g>
				</g>
			</g>
			<path class="st1" d="M61.1,34.1c-0.7-1.6-1.5-3.1-2.5-4.5c-0.2-0.3-0.4-0.5-0.6-0.8c-0.1-0.2-0.3-0.3-0.4-0.5
				c-0.2-0.3-0.5-0.6-0.7-0.8c-0.3-0.4-0.6-0.7-1-1c-2.2-2.2-4.8-3.9-7.7-5.2c-2.1-0.9-4.3-1.5-6.5-1.7h-0.1c-0.4,0-0.8-0.1-1.2-0.1
				l0,0c-0.5,0-1,0-1.5,0c-3.2,0-6.3,0.6-9.3,1.9h-0.1c-0.1,0-0.2,0.1-0.4,0.2c-0.1,0-0.1,0.1-0.2,0.1c-0.1,0.1-0.3,0.1-0.4,0.2
				c-2.5,1.2-4.7,2.8-6.7,4.7c-0.4,0.4-0.8,0.8-1.1,1.2c-0.1,0.1-0.3,0.3-0.4,0.5c-0.1,0.1-0.2,0.2-0.2,0.3
				c-0.1,0.1-0.2,0.3-0.3,0.4c-1.2,1.6-2.3,3.4-3.1,5.3c-1.3,3-1.9,6.1-1.9,9.4c0,0.5,0,1,0,1.5s0.1,0.9,0.1,1.4
				c0,0.2,0,0.4,0.1,0.6c0.1,0.4,0.1,0.9,0.2,1.3c0.3,1.6,0.8,3.1,1.4,4.6c1.2,2.9,3,5.4,5.2,7.7c1.1,1.1,2.2,2,3.4,2.8
				c0.3,0.2,0.7,0.5,1,0.7l0,0c0.4,0.2,0.7,0.4,1.1,0.6c0.7,0.4,1.4,0.7,2.2,1c3,1.3,6.1,1.9,9.4,1.9c2.7,0,5.3-0.4,7.8-1.3
				c0.2-0.1,0.4-0.2,0.7-0.2l0,0c0.2-0.1,0.4-0.2,0.6-0.3c0.1,0,0.2-0.1,0.3-0.1c2.9-1.2,5.4-3,7.7-5.2c2.2-2.2,3.9-4.8,5.2-7.7
				c0-0.1,0.1-0.2,0.1-0.3c0.2-0.4,0.3-0.8,0.4-1.1l0,0c0.1-0.4,0.3-0.8,0.4-1.2c0.6-2.2,1-4.5,1-6.8C63,40.2,62.4,37.1,61.1,34.1z"
				/>
			<path class="st2" d="M30.8,71.7c-0.1,0.7,1.1,0.8,1.6,0.9c1.6,0.3,3.3,0.1,4.9-0.1c0.2,0,0.4-0.1,0.6-0.1c1.7-0.3,3.4,0.2,5,0.3
				c1.4,0,2.8,0,4.2-0.2c0.2,0,0.6-0.1,0.8-0.4c0.1-0.3,0-0.5-0.2-0.6c-1-0.5-2.1-0.5-3.1-0.5c-2.1-0.1-4.2,0.6-6.3,0.4
				c-0.5,0-0.9-0.1-1.4-0.2c-0.2,0-0.3-0.1-0.5-0.1c-0.9-0.2-1.8-0.2-2.7-0.1c-0.5,0-0.9,0.1-1.4,0.1c-0.4,0.1-0.9,0.1-1.2,0.3
				C30.8,71.5,30.8,71.6,30.8,71.7z"/>
			<g>
				<g>
					<path class="st0" d="M43.1,62.8c0,0.2,0,0.5-0.1,0.7l0,0v0.1c0,0.3-0.1,0.6-0.1,0.8c-0.1,0.6-0.1,1.1-0.2,1.7
						c-0.2,1.1-0.4,2.2-0.6,3.3c-0.1,0.6-0.2,1.3-0.4,1.9c0,0.2,0,0.5,0.2,0.5s0.3-0.1,0.4-0.3c0.4-2.2,0.9-4.5,1.2-6.8
						c0-0.3,0.1-0.7,0.1-1s0.1-0.7,0.1-1c0-0.2-0.1-0.4-0.3-0.4C43.3,62.4,43.2,62.6,43.1,62.8L43.1,62.8z"/>
				</g>
				<g>
					<path class="st0" d="M42.1,71.7c0.1,0,0.1,0.1,0.2,0.1c0.1,0,0.1,0.1,0.2,0.1c0.3,0.1,0.6,0.1,0.9,0.1c0.1,0,0.2,0,0.2,0
						c0.1,0,0.1,0,0.2,0c0.1,0,0.1,0,0.2-0.1c0.2-0.1,0.2-0.3,0.1-0.4c-0.1-0.2-0.2-0.3-0.4-0.4c0,0-0.1,0-0.1-0.1
						c-0.4-0.1-0.9,0-1.2,0.3l-0.1,0.1C42.2,71.5,42.1,71.5,42.1,71.7C42.1,71.6,42.1,71.6,42.1,71.7z"/>
					<g>
						<path class="st0" d="M41.9,71.9c0.2,0.1,0.4,0.2,0.6,0.2c0.2,0,0.4,0.1,0.6,0.1c0.2,0,0.4,0,0.6,0c0.2-0.1,0.4-0.1,0.5-0.3
							c0.2-0.4-0.1-0.8-0.4-1c-0.3-0.2-0.8-0.2-1.1-0.1c-0.2,0.1-0.4,0.2-0.6,0.3L42,71.2l-0.1,0.1l0,0l0,0
							c-0.1,0.1-0.1,0.2-0.2,0.3C41.8,71.7,41.8,71.8,41.9,71.9c0.1,0.1,0.3,0,0.3-0.1c0,0,0-0.1,0.1-0.1c0,0,0-0.1,0,0l0,0l0.1-0.1
							c0,0,0-0.1,0,0l0,0l0,0l0.1-0.1l0,0c0,0,0.1,0,0,0l0,0l0,0c0,0,0.1,0,0.1-0.1c0,0,0,0,0.1,0l0,0h0.1h0.1l0,0l0,0l0,0
							c0.1,0,0.1,0,0.2,0c0,0,0.1,0,0,0l0,0h0.1c0,0,0.1,0,0,0l0,0c0,0,0.1,0,0.1,0.1l0,0l0,0l0,0c0,0,0.1,0.1,0,0l0,0l0,0
							c0,0,0,0,0,0.1l0,0v0.1l0,0l0,0l0,0l0,0l0,0l0,0l0,0l0,0l0,0l0,0l0,0c0,0-0.1,0,0,0h-0.1h-0.1c0,0-0.1,0,0,0c0,0,0,0-0.1,0
							s-0.2,0-0.3,0h-0.1c0,0,0.1,0,0,0c0,0,0,0-0.1,0s-0.2,0-0.3-0.1c-0.1,0-0.2,0-0.2-0.1c-0.1,0,0,0,0,0h-0.1c0,0-0.1,0-0.1-0.1
							c-0.1-0.1-0.3,0-0.3,0.1C41.8,71.7,41.8,71.8,41.9,71.9z"/>
					</g>
				</g>
			</g>
			<g>
				<g>
					<path class="st0" d="M35,62.8c0,0.1,0,0.3,0,0.4s0,0.1,0,0.2v0.1c0-0.1,0,0.1,0,0.1c0,0.3,0.1,0.6,0.1,0.8
						c0.1,0.6,0.1,1.1,0.2,1.7c0.2,1.1,0.4,2.2,0.6,3.3c0.1,0.6,0.2,1.3,0.4,1.9c0,0.2,0,0.5-0.2,0.5s-0.3-0.1-0.4-0.3
						c-0.4-2.2-0.9-4.5-1.2-6.8c0-0.3-0.1-0.7-0.1-1s-0.1-0.7-0.1-1c0-0.2,0.1-0.4,0.3-0.4C34.9,62.4,35,62.6,35,62.8L35,62.8z"/>
				</g>
				<g>
					<path class="st0" d="M36.1,71.7c-0.1,0-0.1,0.1-0.2,0.1c-0.1,0-0.1,0.1-0.2,0.1C35.4,72,35.1,72,34.8,72c-0.1,0-0.2,0-0.2,0
						c-0.1,0-0.1,0-0.2,0c-0.1,0-0.1,0-0.2-0.1c-0.2-0.1-0.2-0.3-0.1-0.4c0.1-0.2,0.2-0.3,0.4-0.4c0,0,0.1,0,0.1-0.1
						c0.4-0.1,0.9,0,1.2,0.3l0.1,0.1C36,71.5,36,71.5,36.1,71.7C36.1,71.6,36.1,71.6,36.1,71.7z"/>
					<g>
						<path class="st0" d="M36.3,71.9c-0.2,0.1-0.4,0.2-0.6,0.2c-0.2,0-0.4,0.1-0.6,0.1c-0.2,0-0.4,0-0.6,0
							c-0.2-0.1-0.4-0.1-0.5-0.3c-0.2-0.4,0.1-0.8,0.4-1c0.3-0.2,0.8-0.2,1.1-0.1c0.2,0.1,0.4,0.2,0.6,0.3l0.1,0.1l0.1,0.1l0,0l0,0
							c0.1,0.1,0.1,0.2,0.2,0.3C36.4,71.7,36.4,71.8,36.3,71.9c-0.1,0.1-0.3,0-0.3-0.1c0,0,0-0.1-0.1-0.1c0,0,0-0.1,0,0l0,0
							l-0.1-0.1c0,0,0-0.1,0,0l0,0l0,0l-0.1-0.1l0,0c0,0-0.1,0,0,0l0,0l0,0c0,0-0.1,0-0.1-0.1c0,0,0,0-0.1,0l0,0h-0.1h-0.1l0,0l0,0
							l0,0c-0.1,0-0.1,0-0.2,0c0,0-0.1,0,0,0l0,0H35c0,0-0.1,0,0,0l0,0c0,0-0.1,0-0.1,0.1l0,0l0,0l0,0c0,0-0.1,0.1,0,0l0,0l0,0
							c0,0,0,0,0,0.1l0,0v0.1l0,0l0,0l0,0l0,0l0,0l0,0l0,0l0,0l0,0l0,0l0,0c0,0,0.1,0,0,0H35h0.1c0,0,0.1,0,0,0c0,0,0,0,0.1,0
							s0.2,0,0.3,0h0.1c0,0-0.1,0,0,0c0,0,0,0,0.1,0s0.2,0,0.3-0.1c0.1,0,0.2,0,0.2-0.1c0.1,0,0,0,0,0h0.1c0,0,0.1,0,0.1-0.1
							c0.1-0.1,0.3,0,0.3,0.1C36.4,71.7,36.4,71.8,36.3,71.9z"/>
					</g>
				</g>
			</g>
			<path class="st3" d="M61.1,34.1c-0.7-1.6-1.5-3.1-2.5-4.5c-0.2-0.3-0.4-0.5-0.6-0.8c-0.1-0.2-0.3-0.3-0.4-0.5
				c-0.2-0.3-0.5-0.6-0.7-0.8c-0.3-0.4-0.6-0.7-1-1c-2.2-2.2-4.8-3.9-7.7-5.2c-0.4-0.2-0.9-0.4-1.3-0.5c1.9,0.7,3.8,3,5,4.6
				c1.3,1.8,2.8,4,2.6,6.3c-0.2,2.4-1.4,4.7-2,7c-0.5,1.6-0.9,3.4-0.8,5.1c0.1,0.9,0.3,1.8,0.8,2.5c0.5,0.8,1.5,1,2,1.8
				c0.7,1.2-0.1,2.9-0.7,4c-0.9,1.4-2,2.7-3.2,3.8c-0.3,0.3-0.6,0.6-1,0.8c-0.2,0.2-0.4,0.4-0.7,0.6c-3.6,2.9-8.2,4.6-12.9,4.6
				c-7.3,0-14.4-3.5-19.3-8.9c1.2,2.9,2.9,5.4,5.2,7.6c1.1,1.1,2.2,2,3.4,2.8c0.3,0.2,0.7,0.5,1,0.7c0.4,0.2,0.7,0.4,1.1,0.6
				c0.7,0.4,1.4,0.7,2.2,1c3,1.3,6.1,1.9,9.4,1.9c2.7,0,5.3-0.4,7.8-1.3c0.2-0.1,0.4-0.2,0.7-0.2l0,0c0.2-0.1,0.4-0.2,0.6-0.3
				c0.1,0,0.2-0.1,0.3-0.1c2.9-1.2,5.4-3,7.7-5.2c2.2-2.2,3.9-4.8,5.2-7.7c0-0.1,0.1-0.2,0.1-0.3c0.2-0.4,0.3-0.8,0.4-1.1l0,0
				c0.1-0.4,0.3-0.8,0.4-1.2c0.6-2.2,1-4.5,1-6.8C63,40.2,62.4,37.1,61.1,34.1z"/>
			<path class="st4" d="M26.2,63.9C26.3,63.9,26.3,64,26.2,63.9C26.3,64,26.3,63.9,26.2,63.9z"/>
			<path class="st4" d="M61.4,50.7c-0.2-0.6-0.4-1.3-0.7-1.9C61,49.5,61.2,50.1,61.4,50.7z"/>
			<path class="st4" d="M26,63.4L26,63.4L26,63.4z"/>
			<path class="st4" d="M26.1,63.6L26.1,63.6C26.2,63.7,26.1,63.7,26.1,63.6z"/>
			<path class="st5" d="M39.3,44.8c-0.5-0.3-0.9-0.8-1.1-1.4c-0.1-0.1-0.1-0.2-0.2-0.4c-0.1-0.2-0.2-0.5-0.3-0.7s-0.1-0.3-0.2-0.5
				c-0.2-0.5-0.4-1-0.6-1.4c-0.1-0.2-0.2-0.5-0.3-0.7c-0.2-0.5-0.4-0.9-0.5-1.4c-1.2-3.1-2.4-6.1-3.8-9.1c-0.2-0.4-0.4-0.8-0.5-1.2
				c-1.2,0.5-2.4,1.1-3.5,1.7c-0.8,0.4-1.6,0.9-2.3,1.4c0.1,0.2,0.2,0.3,0.2,0.5c0.4-0.3,0.8-0.6,1.3-0.8c1.3-0.8,2.7-1.5,4.2-2.2
				c0.1,0.3,0.2,0.5,0.3,0.8c1.3,3,2.5,6,3.7,9c0.1,0.2,0.2,0.4,0.2,0.6c0.1,0.2,0.2,0.4,0.2,0.6c0.3,0.7,0.6,1.5,0.9,2.3
				c0.1,0.2,0.1,0.3,0.2,0.5c0.2,0.4,0.3,0.7,0.5,1.1c0.1,0.1,0.1,0.2,0.2,0.4C38.1,44.4,38.6,45.6,39.3,44.8L39.3,44.8z"/>
			<path class="st5" d="M43.7,57.3c-0.1-0.2-0.1-0.4-0.2-0.7c0-0.1-0.1-0.2-0.1-0.4c-0.1-0.2-0.1-0.5-0.2-0.7
				c-0.2,0.2-0.3,0.4-0.3,0.6c0,0.1,0,0.2,0,0.3c0.1,1.7,1,3.3,1.7,4.9c0.1,0.2,0.1,0.4,0.2,0.6c0.1,0.2,0.2,0.4,0.3,0.6
				c0.5,1.1,1,2.1,1.4,3.2c0.1,0.2,0.1,0.3,0.2,0.5c0.2-0.1,0.4-0.2,0.7-0.2c-0.7-1.4-1.3-2.9-2-4.4c-0.1-0.1-0.1-0.2-0.2-0.4
				S45.1,61,45,60.8c-0.4-1.1-0.9-2.1-1.2-3.2C43.8,57.6,43.8,57.5,43.7,57.3z"/>
			<path class="st4" d="M41,19.9c-0.1,0.1-0.3,0.2-0.4,0.2l0.1-0.1c0.3-0.1,0.5-0.2,0.8-0.3c0.1,0,0.2-0.1,0.2-0.2h-0.1
				C41.4,19.7,41.2,19.8,41,19.9z"/>
			<path class="st5" d="M57.6,28.6c-3-1.6-6.3-2.5-9.7-2.9c-3-0.3-6-0.2-8.9,0.2c0.1,0.2,0.1,0.4,0.2,0.6c2.4-0.4,4.8-0.5,7.3-0.4
				c3.9,0.3,7.7,1.3,11.2,3c0.3,0.1,0.6,0.3,0.8,0.4c-0.2-0.3-0.4-0.5-0.6-0.8C57.9,28.8,57.7,28.7,57.6,28.6z"/>
			<path class="st5" d="M38,24.4c-0.1-0.8,0.1-1.7,0.4-2.4c0.4-1,1.1-1.8,1.9-2.4c-0.8,0.5-1.5,1.1-1.9,1.9
				c-0.7,1.2-0.9,2.5-0.7,3.9v0.1c0.1,0,0.3-0.1,0.4-0.1C38.1,25.1,38,24.7,38,24.4z"/>
			<path class="st5" d="M61.4,50.7c-0.2-0.6-0.4-1.3-0.7-1.9c-0.7-1.6-1.6-3-2.6-4.4c-1.8-2.4-4-4.4-6.3-6.3
				c-1.1-0.9-2.3-1.8-3.5-2.7c-0.7-0.5-1.5-1.1-2.2-1.6c-0.6-0.4-1.2-0.8-1.8-1.2c-2.3-1.6-4.6-3.4-5.7-6.1
				c-0.1-0.2-0.1-0.4-0.2-0.6c-0.2,0-0.4,0.1-0.6,0.1c-1.8,0.4-3.6,0.9-5.3,1.6c0.1,0.2,0.2,0.4,0.2,0.5c1.3-0.5,2.6-0.9,3.9-1.2
				c0.5-0.1,1-0.2,1.4-0.3c0.8,2.1,2.3,3.9,4.1,5.2c0.6,0.5,1.3,0.9,2,1.4s1.4,1,2.1,1.5c1.3,0.9,2.7,1.9,3.9,2.9
				c2.6,2,5.1,4.3,7.1,6.9c1.8,2.4,3.3,5.1,3.9,8l0,0c0.2-0.4,0.3-0.8,0.4-1.1C61.6,51.2,61.5,51,61.4,50.7z"/>
			<path class="st5" d="M31.5,27.4c-0.9-1.9-1.7-3.9-2.5-5.8c-0.1,0.1-0.3,0.1-0.4,0.2c0.9,1.9,1.7,3.9,2.5,5.8
				C31.2,27.5,31.4,27.4,31.5,27.4z"/>
			<path class="st5" d="M22.8,29.5c0.8,0.4,1.4,1.1,1.8,1.8c0.2-0.1,0.3-0.2,0.5-0.3c-0.1-0.1-0.1-0.2-0.2-0.3
				c-0.6-0.8-1.4-1.5-2.3-1.9c-0.8-0.3-1.6-0.4-2.4-0.3c-0.1,0.1-0.2,0.3-0.3,0.4C20.8,28.7,21.9,29,22.8,29.5z"/>
			<path class="st5" d="M26.3,64C26.3,64,26.3,63.9,26.3,64c-0.1-0.1-0.1-0.2-0.1-0.2v-0.1c0-0.1-0.1-0.1-0.1-0.2l0,0
				c-1-2.4-1.5-5.1-1.6-7.7c-0.1-3,0.3-5.9,0.6-8.8c0.4-2.9,0.8-5.8,0.9-8.8c0.1-1.5,0.1-3-0.1-4.4c-0.1-0.7-0.2-1.4-0.5-2
				c-1.8,1.3-3.5,2.9-5,4.6c-1.4,1.7-2.6,3.5-3.5,5.4c-0.8,1.7-1.4,3.5-1.8,5.3c0.1,0.4,0.1,0.9,0.2,1.3c0,0,0,0,0-0.1
				c0.7-3.8,2.1-7.6,4.5-10.6c1.5-1.9,3.3-3.6,5.3-5.1c0.5,1.5,0.5,3.2,0.4,4.8c-0.1,2.9-0.6,5.7-1,8.5c-0.4,3.1-0.8,6.2-0.8,9.4
				c0.1,2.8,0.5,5.6,1.5,8.2C25.6,63.6,25.9,63.8,26.3,64L26.3,64z"/>
			<path class="st0" d="M44.3,57.4c-0.1-0.1-0.1-0.3-0.2-0.4c-0.1-0.3-0.3-0.6-0.4-1c-0.1-0.2-0.3-0.6-0.6-0.5
				c-0.1,0-0.2,0.2-0.2,0.3c0,0.2,0.1,0.4,0.2,0.6c0.1,0.2,0.2,0.4,0.3,0.7c0.3,0.6,0.5,1.2,0.7,1.7c0.5,1.2,1,2.3,1.5,3.5
				c0.5,1.1,1,2.2,1.5,3.2c0.1,0.2,0.1,0.3,0.2,0.5c0.2-0.1,0.4-0.2,0.6-0.3c-1.1-2.3-2.1-4.6-3-6.9C44.7,58.4,44.5,57.9,44.3,57.4z
				"/>
			<path class="st0" d="M16.9,41.1c0.4-0.9,0.9-1.8,1.4-2.6c0.5-0.9,1.2-1.7,1.9-2.4c1.4-1.6,2.9-3,4.6-4.2c0-0.1-0.1-0.2-0.1-0.3
				s-0.1-0.1-0.1-0.2c-1.4,1-2.7,2.2-3.9,3.5c-1.5,1.6-2.8,3.3-3.8,5.2c-0.9,1.6-1.5,3.3-2.1,5.1c0,0.5,0.1,0.9,0.1,1.4
				C15.4,44.5,16.1,42.7,16.9,41.1z"/>
			<path class="st0" d="M29.2,21.5c0.9,2.1,1.9,4.2,2.8,6.4c1.8-0.7,3.8-1.3,5.7-1.7c0.1,0,0.1,0,0.2,0c-0.1-0.2-0.1-0.4-0.1-0.6
				c-1.9,0.4-3.8,0.9-5.6,1.6c-0.9-1.9-1.7-3.9-2.5-5.9h-0.1C29.4,21.4,29.3,21.4,29.2,21.5z"/>
			<path class="st0" d="M23.6,29.2c0.8,0.6,1.4,1.3,1.8,2.2c0.9-0.6,1.8-1.2,2.7-1.7c1-0.6,2.1-1.1,3.2-1.6
				c-0.1-0.2-0.2-0.4-0.2-0.5c-0.7,0.3-1.4,0.6-2.1,1c-1.2,0.6-2.3,1.3-3.4,2c-1-1.7-2.9-3-4.9-2.9c-0.1,0.1-0.3,0.3-0.4,0.5
				C21.5,28.1,22.7,28.5,23.6,29.2z"/>
			<path class="st0" d="M53.4,38.6c-1.1-1-2.3-1.9-3.5-2.7c-1.3-1-2.6-1.9-4-2.8c-2.2-1.5-4.7-3-6.1-5.4c-0.2-0.4-0.5-0.8-0.6-1.2
				c-0.2,0-0.3,0.1-0.5,0.1l0,0c0.4,1.2,1.2,2.3,2.1,3.2c1,1,2.1,1.9,3.3,2.7c2.7,1.8,5.4,3.7,7.9,5.8s4.8,4.3,6.7,7
				c0.8,1.1,1.5,2.3,2,3.6c0.3,0.6,0.5,1.2,0.7,1.9c0.1,0.2,0.1,0.5,0.2,0.7c0.1-0.4,0.3-0.8,0.4-1.2c-0.6-1.8-1.5-3.5-2.6-5.1
				C57.8,42.7,55.7,40.6,53.4,38.6z"/>
			<path class="st0" d="M38.9,25.3C38.8,25.3,38.8,25.3,38.9,25.3c-0.2-0.5-0.2-1.1-0.2-1.7c0.1-1.3,0.9-2.6,2-3.4
				c-1,0.6-1.8,1.6-2.1,2.7c-0.3,1-0.2,2.1,0,3.1c3.1-0.6,6.2-0.7,9.3-0.4c3.4,0.4,6.7,1.3,9.8,2.8c-0.2-0.3-0.5-0.6-0.7-0.8
				c-2.4-1.1-5-1.9-7.7-2.3C45.8,24.6,42.3,24.7,38.9,25.3z"/>
			<path class="st0" d="M25.7,47.3c0.4-3,0.8-5.9,0.9-8.9c0.1-1.5,0.1-3,0-4.5c0-0.6-0.1-1.2-0.3-1.8c0-0.2-0.1-0.3-0.2-0.5
				c-0.2,0.1-0.3,0.2-0.5,0.3c0.6,1.8,0.6,3.7,0.5,5.5c-0.2,3-0.6,5.9-1,8.9c-0.4,3.1-0.8,6.3-0.7,9.5c0.1,2.6,0.6,5.1,1.6,7.5l0,0
				c0,0.1,0.1,0.1,0.1,0.2v0.1c0,0.1,0,0.1,0.1,0.2c0,0,0,0,0,0.1l0,0c0.4,0.2,0.7,0.4,1.1,0.6c-1.3-2.6-2.1-5.5-2.2-8.4
				C24.9,53.3,25.3,50.3,25.7,47.3z"/>
			<path class="st0" d="M40.4,19.5L40.4,19.5c-0.1,0-0.1,0.1-0.1,0.1C40.3,19.5,40.4,19.5,40.4,19.5z"/>
			<path class="st0" d="M61.6,51.4L61.6,51.4c-0.1-0.2-0.1-0.5-0.2-0.7C61.5,51,61.6,51.2,61.6,51.4z"/>
			<path class="st0" d="M26.2,63.7c0,0.1,0,0.1,0.1,0.2C26.2,63.9,26.2,63.8,26.2,63.7z"/>
			<path class="st0" d="M58.7,45.3c-1.9-2.7-4.2-4.9-6.7-7s-5.2-4-7.9-5.8c-1.2-0.8-2.3-1.6-3.3-2.7c-0.9-0.9-1.6-2-2.1-3.2l0,0
				c0.2,0,0.3-0.1,0.5-0.1c-0.1-0.2-0.1-0.4-0.2-0.6c2.9-0.5,5.9-0.6,8.9-0.2c3.4,0.4,6.7,1.4,9.7,2.9c0.1,0.1,0.3,0.2,0.4,0.2
				c-0.1-0.2-0.3-0.3-0.4-0.5c-3.1-1.5-6.4-2.4-9.8-2.8c-3.1-0.3-6.2-0.2-9.3,0.4c-0.3-1-0.4-2,0-3.1c0.3-1.1,1.1-2.1,2.1-2.7
				c0.1-0.1,0.2-0.2,0.4-0.2c0.2-0.1,0.4-0.2,0.7-0.3c-0.4,0-0.8-0.1-1.2-0.1l-0.1,0.1c-0.9,0.6-1.5,1.5-1.9,2.4
				c-0.3,0.8-0.5,1.6-0.4,2.4c0,0.3,0.1,0.7,0.2,1c-0.1,0-0.3,0.1-0.4,0.1c0,0.2,0.1,0.4,0.1,0.6c-0.1,0-0.1,0-0.2,0
				c-1.9,0.4-3.9,1-5.7,1.7c-0.9-2.1-1.8-4.3-2.8-6.4c-0.1,0-0.1,0.1-0.2,0.1c0.8,2,1.7,3.9,2.5,5.8c-0.1,0.1-0.3,0.1-0.4,0.2
				c0.1,0.2,0.2,0.4,0.2,0.5c-1.1,0.5-2.2,1-3.2,1.6c-0.9,0.5-1.8,1.1-2.7,1.7c-0.4-0.9-1-1.7-1.8-2.2c-0.9-0.6-2.1-1-3.2-1
				c-0.1,0.1-0.2,0.2-0.2,0.3c0.8-0.1,1.7,0,2.4,0.3c0.9,0.4,1.7,1.1,2.3,1.9c0.1,0.1,0.1,0.2,0.2,0.3c-0.2,0.1-0.3,0.2-0.5,0.3
				c0,0.1,0.1,0.1,0.1,0.2c0.1,0.1,0.1,0.2,0.1,0.3c-1.7,1.2-3.2,2.7-4.6,4.2c-0.7,0.8-1.3,1.6-1.9,2.4c-0.5,0.8-1,1.7-1.4,2.6
				c-0.8,1.7-1.4,3.5-1.9,5.3c0,0.2,0,0.4,0.1,0.6c0.4-1.8,1-3.6,1.8-5.3c0.9-2,2.1-3.8,3.5-5.4c1.5-1.7,3.2-3.2,5-4.6
				c0.3,0.6,0.4,1.3,0.5,2c0.1,1.5,0.1,3,0.1,4.4c-0.1,2.9-0.5,5.9-0.9,8.8c-0.4,2.9-0.8,5.9-0.6,8.8c0.1,2.6,0.6,5.3,1.6,7.7
				c-1-2.4-1.4-4.9-1.6-7.5c-0.1-3.2,0.2-6.3,0.7-9.5c0.4-2.9,0.9-5.9,1-8.9c0.1-1.8,0.1-3.8-0.5-5.5c0.2-0.1,0.3-0.2,0.5-0.3
				c-0.1-0.2-0.1-0.3-0.2-0.5c0.7-0.5,1.5-1,2.3-1.4c1.1-0.6,2.3-1.2,3.5-1.7c0.2,0.4,0.4,0.8,0.5,1.2c1.3,3,2.6,6,3.8,9.1
				c0.3,0.9,0.7,1.8,1,2.7s1.3,3.4,1.5,3.8c0.1,0.1,0.2,0.3,0.3,0.3c0.2,0,0.3-0.1,0.3-0.3c0-0.1,0-0.2,0-0.2
				c-0.1-0.5-1-2.7-1.3-3.3c-0.1-0.3-0.3-0.7-0.4-1c-0.1-0.3-0.3-0.7-0.4-1c-1.2-3.1-2.4-6.1-3.7-9.1c-0.3-0.6-0.5-1.2-0.8-1.8
				c-0.1-0.2-0.2-0.4-0.2-0.5c1.7-0.7,3.5-1.2,5.3-1.6c0.2,0,0.4-0.1,0.6-0.1c0.1,0.2,0.1,0.4,0.2,0.6c1.1,2.7,3.4,4.5,5.7,6.1
				c0.6,0.4,1.2,0.8,1.8,1.2c0.8,0.5,1.5,1,2.2,1.6c1.2,0.9,2.4,1.7,3.5,2.7c2.3,1.9,4.5,3.9,6.3,6.3c1,1.4,1.9,2.8,2.6,4.4
				C60.2,47.6,59.5,46.4,58.7,45.3z M37.7,42.2c0,0.1,0.1,0.2,0.1,0.3s0,0.1,0.1,0.2C37.8,42.5,37.8,42.3,37.7,42.2
				C37.7,42.1,37.7,42.1,37.7,42.2z"/>
			<path class="st0" d="M26,63.4c0,0.1,0.1,0.1,0.1,0.2C26.1,63.6,26.1,63.5,26,63.4z"/>
			<path class="st0" d="M26.3,64L26.3,64L26.3,64L26.3,64z"/>
			<g>
				<g>
					<path class="st0" d="M30.3,48.2c0-0.9,0.7-1.7,1.6-1.9c0.7-0.1,1.3,0.1,1.8,0.7c0.4,0.6,0.5,1.3,0.3,1.9
						c-0.3,0.7-0.9,1.3-1.7,1.3s-1.6-0.5-1.8-1.3C30.3,48.7,30.2,48.5,30.3,48.2z"/>
				</g>
				<g>
					<path class="st6" d="M31.2,48c0-0.3,0.2-0.5,0.5-0.6c0.4-0.1,0.9,0.3,0.8,0.7c0,0.2-0.2,0.4-0.4,0.5s-0.5,0-0.7-0.2
						C31.2,48.3,31.2,48.2,31.2,48z"/>
				</g>
				<g>
					<path class="st0" d="M43.7,48.7c0-0.9,0.6-1.7,1.4-1.9c1-0.2,2,0.4,2.2,1.4c0.2,0.8,0,1.6-0.6,2.1s-1.3,0.6-1.9,0.3
						c-0.5-0.3-0.9-0.8-1.1-1.4C43.7,49.1,43.7,48.9,43.7,48.7z"/>
				</g>
				<g>
					<path class="st6" d="M44.6,48.6c0-0.3,0.2-0.5,0.4-0.6c0.3-0.1,0.7,0,0.8,0.3s0,0.7-0.3,0.8s-0.6,0.1-0.8-0.1
						C44.6,48.9,44.6,48.7,44.6,48.6z"/>
				</g>
				<path class="st7" d="M33.6,51.4c-0.3-0.7-1.1-0.9-1.8-0.9l0,0l0,0c-0.6,0.1-1.3,0.3-1.5,1c-0.2,0.6,0.4,1.1,1,1.3
					c0.5,0.2,1.2,0.1,1.7-0.1C33.4,52.4,33.9,52,33.6,51.4z"/>
				<path class="st7" d="M45.6,51.1L45.6,51.1L45.6,51.1c-0.6-0.1-1.3,0-1.7,0.5c-0.2,0.2-0.3,0.5-0.2,0.7c0.1,0.3,0.3,0.5,0.5,0.6
					c0.5,0.3,1.1,0.5,1.6,0.4s1.3-0.4,1.3-1C47.2,51.7,46.2,51.2,45.6,51.1z"/>
				<g>
					<g>
						<path class="st7" d="M38.9,51.5c-0.5-0.6-1.2-0.2-1.6,0.3c0.4,0.4,1,0.7,1.6,0.7s1.2-0.3,1.6-0.7C40,51.2,39.4,50.9,38.9,51.5
							z"/>
					</g>
					<g>
						<path class="st0" d="M41,50.3c0-0.2-0.2-0.3-0.5-0.3s-0.6,0.2-1,0.2c-0.6,0.1-1.1,0.1-1.7,0c-0.3-0.1-0.7-0.3-1-0.1
							c-0.4,0.2-0.3,0.7-0.2,1s0.3,0.5,0.5,0.7c0.4-0.5,1.1-0.9,1.6-0.3c0.5-0.5,1.1-0.2,1.5,0.2c0.3-0.3,0.5-0.7,0.6-1.1
							C41,50.5,41,50.4,41,50.3z"/>
					</g>
				</g>
			</g>
			<circle class="st3" cx="52" cy="34.6" r="0.4"/>
			<circle class="st3" cx="47.6" cy="31.6" r="0.4"/>
			<circle class="st3" cx="52.4" cy="28.7" r="0.4"/>
			<circle class="st3" cx="43.7" cy="28.6" r="0.4"/>
			<circle class="st3" cx="54.3" cy="36.5" r="0.4"/>
			<circle class="st3" cx="52.8" cy="48.4" r="0.4"/>
			<circle class="st3" cx="50.9" cy="41.4" r="0.4"/>
			<circle class="st3" cx="54" cy="44.2" r="0.4"/>
			<circle class="st3" cx="50.5" cy="30.9" r="0.4"/>
			<circle class="st3" cx="53.5" cy="32.3" r="0.4"/>
			<circle class="st3" cx="47.9" cy="28.4" r="0.4"/>
			<circle class="st3" cx="48.8" cy="23.3" r="0.4"/>
			<circle class="st3" cx="45" cy="22.9" r="0.4"/>
			<circle class="st3" cx="22.1" cy="55.1" r="0.4"/>
			<circle class="st3" cx="31.3" cy="59.2" r="0.4"/>
			<circle class="st3" cx="29" cy="56.3" r="0.4"/>
			<circle class="st3" cx="17.7" cy="51.7" r="0.4"/>
			<circle class="st3" cx="22.3" cy="50.1" r="0.4"/>
			<circle class="st3" cx="26.8" cy="57.7" r="0.4"/>
			<circle class="st3" cx="18.1" cy="48.7" r="0.4"/>
			<circle class="st3" cx="20.3" cy="51.9" r="0.4"/>
			<circle class="st3" cx="21" cy="47.3" r="0.4"/>
			<circle class="st3" cx="18.5" cy="45.4" r="0.4"/>
			<circle class="st3" cx="35.6" cy="24.1" r="0.4"/>
			<circle class="st3" cx="32.5" cy="25.2" r="0.4"/>
			<circle class="st3" cx="33.6" cy="22.3" r="0.4"/>
			<path class="st5" d="M17.8,35.6c-0.2-0.2-0.2-0.7-0.2-0.9c0-0.4,0.2-0.9,0.4-1.3c0.4-0.8,0.9-1.9,1.7-2.4
				c0.2-0.1,0.4-0.3,0.7-0.2c1.5,0.2-0.8,3.4-1.1,3.9c-0.1,0.2-0.3,0.5-0.5,0.7C18.6,35.6,18.1,36,17.8,35.6z"/>
			<path class="st5" d="M24.2,27.2c-0.1-0.1-0.1-0.3,0-0.5c0.1-0.6,0.7-1,1.2-1.4c0.4-0.3,0.8-0.5,1.3-0.7c0.3-0.1,0.5-0.2,0.8-0.2
				s0.6,0.2,0.7,0.4c0.1,0.2,0,0.4-0.1,0.6c-0.6,0.9-1.8,1.6-2.8,1.9C24.7,27.5,24.3,27.5,24.2,27.2z"/>
		</g>
	</g>
</g>
<g>
	<path class="st8" d="M90.4,13.6c0.4,0,0.8-0.3,0.9-0.7l0.3,0.1l-2.3,9.7l-0.4-0.1c0-0.1,0-0.1,0-0.2c0-0.5-0.4-0.9-0.9-0.9h-0.3
		l1.9-7.9H90.4z"/>
	<path class="st8" d="M87.4,23.3l0.4-1.8h0.3c0.5,0,0.9,0.4,0.9,0.9c0,0.1,0,0.1,0,0.2c-0.1,0.4-0.4,0.7-0.9,0.7
		C88.1,23.3,87.4,23.3,87.4,23.3z"/>
	<polygon class="st8" points="87.8,21.5 87.4,23.3 73.8,23.3 74.3,21.5 	"/>
	<path class="st8" d="M89.3,22.7L87,32.5l-0.5-0.1c0-0.1,0-0.2,0-0.3c0-0.5-0.4-0.9-0.9-0.9h-0.2l1.9-7.9H88c0.4,0,0.8-0.3,0.9-0.7
		L89.3,22.7z"/>
	<path class="st8" d="M85.7,31.2c0.5,0,0.9,0.4,0.9,0.9c0,0.1,0,0.2,0,0.3c-0.1,0.4-0.4,0.6-0.8,0.6h-0.6L85.7,31.2L85.7,31.2z"/>
	<polygon class="st8" points="85.5,31.2 85.1,33 71.6,33 72,31.2 	"/>
	<path class="st8" d="M85.7,33c0.4,0,0.7-0.3,0.8-0.6l0.5,0.1l-2.3,9.6L84.1,42c0-0.1,0-0.1,0-0.2c0-0.5-0.4-0.9-0.9-0.9h-0.1L85,33
		H85.7z"/>
	<path class="st8" d="M83.3,40.9c0.5,0,0.9,0.4,0.9,0.9c0,0.1,0,0.1,0,0.2c-0.1,0.4-0.4,0.7-0.9,0.7h-0.5L83.3,40.9L83.3,40.9z"/>
	<polygon class="st8" points="83.2,40.9 82.8,42.6 69.3,42.6 69.7,40.9 	"/>
	<path class="st8" d="M83.3,42.6c0.4,0,0.8-0.3,0.9-0.7l0.6,0.1l-2.3,9.7l-0.7-0.2c0-0.1,0-0.1,0-0.2c0-0.5-0.4-0.9-0.9-0.9l1.9-7.9
		h0.5V42.6z"/>
	<path class="st8" d="M81,50.6l-0.4,1.8H67l0.4-1.8H81C80.9,50.6,81,50.6,81,50.6z"/>
	<path class="st8" d="M80.5,52.3l0.4-1.8c0.5,0,0.9,0.4,0.9,0.9c0,0.1,0,0.1,0,0.2c-0.1,0.4-0.4,0.7-0.9,0.7
		C80.9,52.3,80.5,52.3,80.5,52.3z"/>
	<path class="st8" d="M80.9,52.3c0.4,0,0.8-0.3,0.9-0.7l0.7,0.2l-2.3,9.7l-0.8-0.2c0-0.1,0-0.1,0-0.2c0-0.4-0.3-0.8-0.8-0.9l1.9-7.9
		C80.5,52.3,80.9,52.3,80.9,52.3z"/>
	<path class="st8" d="M80.2,61.5l-2.4,10.1c-0.1,0.4-0.5,0.7-0.9,0.7c-0.1,0-0.1,0-0.2,0c-0.5-0.1-0.8-0.6-0.7-1.1l2.2-9.2h0.3
		c0.4,0,0.8-0.3,0.9-0.7L80.2,61.5z"/>
	<path class="st8" d="M78.7,60.2L78.3,62H64.7l0.4-1.8h13.4C78.6,60.2,78.6,60.2,78.7,60.2z"/>
	<path class="st8" d="M79.4,61.3C79.3,61.7,79,62,78.6,62h-0.3l0.4-1.8c0.4,0.1,0.8,0.4,0.8,0.9C79.4,61.2,79.4,61.2,79.4,61.3z"/>
	<path class="st8" d="M73.6,21.5c-0.4,0-0.8,0.3-0.9,0.7l-0.4-0.1l2.3-9.7l0.5,0.1c0,0.1,0,0.1,0,0.2c0,0.5,0.4,0.9,0.9,0.9h0.2
		l-1.9,7.9C74.3,21.5,73.6,21.5,73.6,21.5z"/>
	<path class="st8" d="M74.3,21.5l-0.4,1.8h-0.3c-0.5,0-0.9-0.4-0.9-0.9c0-0.1,0-0.1,0-0.2c0.1-0.4,0.4-0.7,0.9-0.7
		C73.6,21.5,74.3,21.5,74.3,21.5z"/>
	<path class="st8" d="M72.7,22.4c0,0.5,0.4,0.9,0.9,0.9h0.3L72,31.2h-0.8c-0.4,0-0.8,0.3-0.9,0.7L70,31.8l2.3-9.7l0.4,0.1
		C72.7,22.3,72.7,22.4,72.7,22.4z"/>
	<path class="st8" d="M72,31.2L71.6,33h-0.4c-0.5,0-0.9-0.4-0.9-0.9c0-0.1,0-0.1,0-0.2c0.1-0.4,0.4-0.7,0.9-0.7
		C71.2,31.2,72,31.2,72,31.2z"/>
	<path class="st8" d="M70.3,32.1c0,0.5,0.4,0.9,0.9,0.9h0.4l-1.9,7.9h-0.9c-0.4,0-0.8,0.3-0.9,0.7l-0.2-0.1l2.3-9.7l0.3,0.1
		C70.3,32,70.3,32,70.3,32.1z"/>
	<path class="st8" d="M69.7,40.9l-0.4,1.8h-0.4c-0.5,0-0.9-0.4-0.9-0.9c0-0.1,0-0.1,0-0.2c0.1-0.4,0.4-0.7,0.9-0.7
		C68.9,40.9,69.7,40.9,69.7,40.9z"/>
	<path class="st8" d="M67.4,50.6L67,52.3h-0.5c-0.5,0-0.9-0.4-0.9-0.9c0-0.1,0-0.1,0-0.2c0.1-0.4,0.4-0.7,0.9-0.7h0.9V50.6z"/>
	<path class="st8" d="M68,41.8c0,0.5,0.4,0.9,0.9,0.9h0.4l-1.9,7.9h-1c-0.4,0-0.8,0.3-0.9,0.7h-0.1l2.3-9.7L68,41.8
		C68,41.6,68,41.7,68,41.8z"/>
	<path class="st8" d="M65.2,60.2L64.7,62h-0.6c-0.5,0-0.9-0.4-0.9-0.9c0-0.1,0-0.1,0-0.2c0.1-0.4,0.4-0.7,0.9-0.7
		C64.1,60.2,65.2,60.2,65.2,60.2z"/>
	<path class="st8" d="M65.6,51.4c0,0.5,0.4,0.9,0.9,0.9H67l-1.9,7.9H64c-0.4,0-0.8,0.3-0.9,0.7l0,0l2.3-9.7h0.1
		C65.6,51.3,65.6,51.4,65.6,51.4z"/>
	<path class="st8" d="M63.2,61.1c0,0.5,0.4,0.9,0.9,0.9h0.6l-2.3,9.6c-0.1,0.4-0.5,0.7-0.9,0.7c-0.1,0-0.1,0-0.2,0
		c-0.5-0.1-0.8-0.6-0.7-1.1L63,61l0,0C63.2,61,63.2,61.1,63.2,61.1z"/>
</g>
<path class="st6" d="M78.7,88.8h-61c-4.6,0-8.3-3.7-8.3-8.3l0,0c0-4.6,3.7-8.3,8.3-8.3h61c4.6,0,8.3,3.7,8.3,8.3l0,0
	C87,85.1,83.3,88.8,78.7,88.8z"/>
<g class="st9">
	<path d="M26.7,81.3c0,0.7-0.2,1.2-0.5,1.6s-0.8,0.6-1.4,0.6s-1-0.2-1.4-0.6s-0.4-1-0.4-1.6v-1.6c0-0.7,0.2-1.2,0.5-1.6
		s0.8-0.6,1.4-0.6s1,0.2,1.4,0.6s0.5,0.9,0.5,1.6L26.7,81.3L26.7,81.3z M25.8,79.5c0-0.4-0.1-0.7-0.2-0.9s-0.4-0.3-0.7-0.3
		c-0.3,0-0.5,0.1-0.7,0.3S24,79.1,24,79.5v1.9c0,0.4,0.1,0.7,0.2,0.9s0.4,0.3,0.7,0.3s0.5-0.1,0.7-0.3s0.2-0.5,0.2-0.9
		C25.8,81.4,25.8,79.5,25.8,79.5z"/>
	<path d="M27.5,78.7c0-0.3,0.1-0.6,0.3-0.8s0.5-0.3,0.9-0.3s0.7,0.1,0.9,0.3s0.3,0.5,0.3,0.8V79c0,0.3-0.1,0.6-0.3,0.8
		s-0.5,0.3-0.9,0.3S28,80,27.8,79.8s-0.3-0.5-0.3-0.8V78.7z M28.2,79c0,0.2,0,0.3,0.1,0.4s0.2,0.2,0.4,0.2c0.2,0,0.3-0.1,0.4-0.2
		s0.1-0.3,0.1-0.4v-0.3c0-0.2,0-0.3-0.1-0.4s-0.2-0.2-0.4-0.2c-0.2,0-0.3,0.1-0.4,0.2s-0.1,0.3-0.1,0.4V79z M28.9,82.9l-0.5-0.3
		l2.8-4.4l0.5,0.3L28.9,82.9z M30.3,81.9c0-0.3,0.1-0.6,0.3-0.8s0.5-0.3,0.9-0.3s0.7,0.1,0.9,0.3s0.3,0.5,0.3,0.8v0.3
		c0,0.3-0.1,0.6-0.3,0.8s-0.5,0.3-0.9,0.3s-0.7-0.1-0.9-0.3s-0.3-0.5-0.3-0.8C30.3,82.2,30.3,81.9,30.3,81.9z M30.9,82.2
		c0,0.2,0,0.3,0.1,0.4c0.1,0.1,0.2,0.2,0.4,0.2s0.3-0.1,0.4-0.2s0.1-0.3,0.1-0.4v-0.3c0-0.2,0-0.3-0.1-0.4s-0.2-0.2-0.4-0.2
		s-0.3,0.1-0.4,0.2s-0.1,0.3-0.1,0.4V82.2z"/>
	<path d="M36.6,81.2v2.2h-0.9v-5.7h2.2c0.6,0,1.1,0.2,1.5,0.5s0.5,0.8,0.5,1.3s-0.2,1-0.5,1.3s-0.8,0.5-1.5,0.5h-1.3V81.2z
		 M36.6,80.4h1.2c0.4,0,0.6-0.1,0.8-0.3s0.3-0.4,0.3-0.7s-0.1-0.5-0.3-0.7s-0.4-0.3-0.8-0.3h-1.2V80.4z"/>
	<path d="M41.7,81v2.4h-0.9v-5.7h2c0.6,0,1.1,0.1,1.5,0.4s0.5,0.7,0.5,1.2c0,0.3-0.1,0.5-0.2,0.8s-0.4,0.4-0.7,0.5
		c0.3,0.1,0.6,0.3,0.7,0.5s0.2,0.5,0.2,0.9v0.5c0,0.2,0,0.3,0.1,0.5s0.1,0.3,0.2,0.4v0.1h-1c-0.1-0.1-0.2-0.2-0.2-0.4s0-0.4,0-0.5
		v-0.5c0-0.3-0.1-0.5-0.3-0.7S43.1,81,42.8,81H41.7z M41.7,80.2h1c0.4,0,0.7-0.1,0.8-0.2s0.3-0.4,0.3-0.7c0-0.3-0.1-0.5-0.3-0.7
		s-0.4-0.2-0.8-0.2h-1V80.2z"/>
	<path d="M50.3,81c0,0.7-0.2,1.3-0.7,1.7c-0.4,0.5-1,0.7-1.7,0.7s-1.2-0.2-1.7-0.7s-0.6-1-0.6-1.7v-1c0-0.7,0.2-1.3,0.6-1.7
		s1-0.7,1.7-0.7s1.3,0.2,1.7,0.7s0.7,1,0.7,1.7V81z M49.3,80c0-0.5-0.1-0.9-0.4-1.2c-0.3-0.3-0.6-0.5-1-0.5s-0.7,0.2-1,0.5
		s-0.4,0.7-0.4,1.2v1c0,0.5,0.1,0.9,0.4,1.2s0.6,0.5,1,0.5s0.8-0.2,1-0.5c0.3-0.3,0.4-0.7,0.4-1.2V80z"/>
	<path d="M55.5,82.6c-0.2,0.2-0.4,0.4-0.7,0.6s-0.8,0.3-1.3,0.3c-0.7,0-1.2-0.2-1.7-0.7s-0.7-1-0.7-1.7v-1.2c0-0.7,0.2-1.2,0.6-1.7
		c0.4-0.4,1-0.7,1.6-0.7c0.7,0,1.2,0.2,1.5,0.5c0.4,0.3,0.5,0.8,0.5,1.3l0,0h-0.9c0-0.3-0.1-0.6-0.3-0.8s-0.5-0.3-0.9-0.3
		s-0.7,0.1-1,0.4c-0.2,0.3-0.4,0.7-0.4,1.1v1.2c0,0.5,0.1,0.8,0.4,1.1c0.3,0.3,0.6,0.4,1,0.4c0.3,0,0.5,0,0.7-0.1s0.3-0.2,0.4-0.3
		v-1.2h-1.2v-0.7h2.1v2.5L55.5,82.6L55.5,82.6z"/>
	<path d="M57.6,81v2.4h-0.9v-5.7h2c0.6,0,1.1,0.1,1.5,0.4c0.3,0.3,0.5,0.7,0.5,1.2c0,0.3-0.1,0.5-0.2,0.8s-0.4,0.4-0.7,0.5
		c0.3,0.1,0.6,0.3,0.7,0.5c0.1,0.2,0.2,0.5,0.2,0.9v0.5c0,0.2,0,0.3,0.1,0.5c0,0.2,0.1,0.3,0.2,0.4v0.1h-1c-0.1-0.1-0.2-0.2-0.2-0.4
		c0-0.2,0-0.4,0-0.5v-0.5c0-0.3-0.1-0.5-0.3-0.7S59,81,58.7,81H57.6z M57.6,80.2h1c0.4,0,0.7-0.1,0.8-0.2c0.2-0.1,0.3-0.4,0.3-0.7
		c0-0.3-0.1-0.5-0.3-0.7s-0.4-0.2-0.8-0.2h-1V80.2z"/>
	<path d="M64.9,80.8h-2.2v1.8h2.6v0.8h-3.6v-5.7h3.5v0.8h-2.6V80h2.2L64.9,80.8L64.9,80.8z"/>
	<path d="M69.2,81.9c0-0.2-0.1-0.4-0.3-0.6S68.4,81,68,80.9c-0.6-0.2-1.1-0.4-1.4-0.7s-0.5-0.6-0.5-1.1s0.2-0.8,0.5-1.1
		c0.4-0.3,0.8-0.4,1.4-0.4s1.1,0.2,1.5,0.5s0.5,0.7,0.5,1.2l0,0h-0.9c0-0.3-0.1-0.5-0.3-0.7s-0.5-0.3-0.8-0.3s-0.6,0.1-0.7,0.2
		c-0.2,0.2-0.3,0.3-0.3,0.6c0,0.2,0.1,0.4,0.3,0.5c0.2,0.1,0.5,0.3,0.9,0.4c0.6,0.2,1.1,0.4,1.4,0.7s0.5,0.7,0.5,1.1
		c0,0.5-0.2,0.8-0.6,1.1c-0.4,0.3-0.9,0.4-1.5,0.4s-1.1-0.2-1.5-0.5s-0.6-0.7-0.6-1.3l0,0h0.9c0,0.3,0.1,0.6,0.4,0.8
		c0.2,0.2,0.5,0.3,0.9,0.3c0.3,0,0.6-0.1,0.8-0.2C69.1,82.3,69.2,82.1,69.2,81.9z"/>
	<path d="M74.1,81.9c0-0.2-0.1-0.4-0.3-0.6s-0.5-0.3-0.9-0.4c-0.6-0.2-1.1-0.4-1.4-0.7S71,79.6,71,79.1s0.2-0.8,0.5-1.1
		c0.4-0.3,0.8-0.4,1.4-0.4s1.1,0.2,1.5,0.5s0.5,0.7,0.5,1.2l0,0H74c0-0.3-0.1-0.5-0.3-0.7s-0.5-0.3-0.8-0.3s-0.6,0.1-0.7,0.2
		c-0.2,0.2-0.3,0.3-0.3,0.6c0,0.2,0.1,0.4,0.3,0.5c0.2,0.1,0.5,0.3,0.9,0.4c0.6,0.2,1.1,0.4,1.4,0.7s0.5,0.7,0.5,1.1
		c0,0.5-0.2,0.8-0.6,1.1s-0.9,0.4-1.5,0.4s-1.1-0.2-1.5-0.5s-0.6-0.7-0.6-1.3l0,0h0.9c0,0.3,0.1,0.6,0.4,0.8
		c0.2,0.2,0.5,0.3,0.9,0.3c0.3,0,0.6-0.1,0.8-0.2S74.1,82.1,74.1,81.9z"/>
</g>
</svg>
