<?xml version="1.0" encoding="utf-8"?>
<!-- Generator: Adobe Illustrator 24.2.0, SVG Export Plug-In . SVG Version: 6.00 Build 0)  -->
<svg version="1.1" id="Layer_1" xmlns="http://www.w3.org/2000/svg" xmlns:xlink="http://www.w3.org/1999/xlink" x="0px" y="0px"
	 viewBox="0 0 320 306.2" style="enable-background:new 0 0 320 306.2;" xml:space="preserve">
<style type="text/css">
	.st0{fill:#80411C;}
	.st1{fill:#6E3516;}
	.st2{fill:#5D2B0E;}
	.st3{fill:#9E5B25;}
	.st4{fill:#B36428;}
	.st5{fill:#8F4D21;}
	.st6{fill:#915022;}
	.st7{fill:#A05124;}
	.st8{fill:#7B3A1A;}
	.st9{fill:#6F3516;}
	.st10{fill:#A05324;}
	.st11{fill:#EF7722;}
	.st12{fill:#F9A53F;}
	.st13{fill:#CB6828;}
	.st14{fill:#ED7523;}
	.st15{opacity:0.1;}
	.st16{fill:#96D2DF;}
	.st17{fill:#7CC3CC;}
	.st18{fill:#AAD7CD;}
	.st19{fill:#CDE9E2;}
	.st20{enable-background:new    ;}
	.st21{fill:#95C5B8;}
	.st22{fill:#ABCBD2;}
	.st23{fill:#0F6080;}
	.st24{fill:#0A5073;}
	.st25{fill:#0B2F4C;}
	.st26{fill:#DDF1F8;}
	.st27{fill:#E5F4F7;}
	.st28{fill:#5CC3DB;}
	.st29{fill:#A5CE52;}
	.st30{fill:#8AC53F;}
	.st31{opacity:0.2;fill:#EAF6F8;}
	.st32{opacity:5.000000e-02;}
	.st33{fill:#7ED1EE;}
	.st34{fill:#A9DEF0;}
	.st35{opacity:0.5526;fill:#FFFFFF;}
	.st36{opacity:0.8333;}
	.st37{opacity:0.6271;fill:#FAFCFE;}
	.st38{opacity:0.6667;}
	.st39{opacity:0.7017;fill:#F6FAFD;}
	.st40{opacity:0.5;}
	.st41{opacity:0.7763;fill:#F1F7FC;}
	.st42{opacity:0.3333;}
	.st43{opacity:0.8509;fill:#ECF4FB;}
	.st44{opacity:0.1667;}
	.st45{opacity:0.9254;fill:#E8F2FA;}
	.st46{opacity:0;}
	.st47{fill:#E3EFF9;}
	.st48{fill:#FAE8F1;}
	.st49{fill:#DBB1D2;}
	.st50{fill:#0C7C92;}
	.st51{fill:#078FAA;}
	.st52{fill:#F8A883;}
	.st53{fill:#EED2E5;}
	.st54{fill:#F79F7C;}
	.st55{fill:#47140E;}
	.st56{fill:#B0CBEA;}
	.st57{fill:#141320;}
	.st58{fill:#32293A;}
	.st59{fill:#F29C79;}
	.st60{fill:#FFFFFF;}
	.st61{fill:#6FA9DB;}
	.st62{fill:#24160B;}
	.st63{fill:#EE4E72;}
	.st64{fill:#331D0F;}
	.st65{fill:#8AB4DF;}
	.st66{fill:#D7E7F6;}
	.st67{fill:#8DA5D5;}
	.st68{fill:#625B8E;}
	.st69{fill:#E6F5FC;}
	.st70{fill:#131010;}
	.st71{fill:#221D19;}
	.st72{fill:#C994C2;}
	.st73{fill:#79AA41;}
	.st74{fill:#ACD155;}
	.st75{fill:#E6B92A;}
	.st76{fill:#FFD545;}
	.st77{fill:#FFE180;}
</style>
<g>
	<path class="st0" d="M307.7,134.9l-4.5-1c-9.9-2.5-21.3-2.5-31.7-3c-23.1-1.1-45.3,2.3-66,11.2c-21.7,9.3-46.2,26.3-54.1,47.6
		c-5.5,14.9-9.7,32.2-7,48c2.8,16.7,12.8,33.3,12.6,50.2c10.6-2.1,18.7-13.3,29.8-16.6c0,0,8.5,4.9,19.4-3.4
		c14.8-11.3,29.7-24.4,47.2-28.7c19.4-4.8,27.2-23,37.5-28.5c8.4-17.3-2.3-20.9,5.8-33.8C306.8,160.8,302.1,148.7,307.7,134.9z"/>
	<path class="st1" d="M213.5,203.9c-3.1,7.9-3.4,23.7-5.7,31.8c-2.2,7.8-4.2,15.7-5.7,23.6c-0.5,2.9-1,5.7-1.2,8.6
		c-0.1,1.8,0.1,2.4,0.1,2.5c0.1,0.1,0.2,0.3,0.3,0.4c1.5-0.7,3.1-1.6,4.7-2.9c5.1-3.9,10.3-8.1,15.6-12c0.4-6.4,1.6-12.8,2.8-19.2
		c1.3-7.5,3.1-16.4-0.3-23.6C222.6,209.9,213.5,203.9,213.5,203.9z"/>
	<path class="st2" d="M218.4,258.4c0.8-5.4,1.9-10.8,2.8-16.2c1.4-8.6-5.2-23.8-7.2-31.2c-0.1,18.8-0.8,40.4-6.5,55.9
		C211.1,264.1,214.8,261.2,218.4,258.4z"/>
	<path class="st1" d="M273.5,199.9c-2.5,10.1-2.8,20.4-3.7,30.7c8.6-7.2,14.3-16.2,21-19.8c8.4-17.3-2.3-20.9,5.8-33.8
		c10.2-16.2,5.5-28.3,11-42.1l-4.5-1c-0.3-0.1-0.6-0.1-0.9-0.2c-6.1,3.1-12.1,6.4-17.9,10c4.2,0.1,8.1,1,12.2,2.2
		c4.5,1.3,5.5,5.9,3.3,8.7C295.3,171.7,277.8,182.7,273.5,199.9z"/>
	<path class="st2" d="M301.6,166.3c-5.2,8-11,15.5-17,23.1c-3.3,10.8-6.8,21.5-9.8,32.3c5.5-8.4,12-15.9,19.4-22.9
		c0.4-8.1-3.4-12.6,2.4-21.8C299,173.3,300.6,169.7,301.6,166.3z"/>
	<path class="st1" d="M155.6,205.4c-0.4,0.1-0.8,0.1-1.2,0c-0.9,19.8-1.2,39.7-1.9,59.5c2.5,7.6,4.5,15.3,4.4,23c5-1,9.4-4,13.9-7.2
		c-0.1-1.3-0.2-2.5-0.3-3.8c-0.4-5.9-0.7-12-2.9-17.6c-1.8-4.7-5.2-9.3-6.2-14.2c-3.3-16.5,3.7-30,14.8-42.1
		C169.5,204.1,162.6,204.6,155.6,205.4z"/>
	<path class="st1" d="M231.3,249.2c3.9-2.5,8-4.7,12.1-6.6c0.3-4.2,0.7-8.5,1.3-12.7c1.5-10.2,5.1-18.5,8.9-28.2
		c3.4-8.6,1.1-17.8,4.4-26.3c2.6-6.7,6.1-12.7,8.1-19.3c-4.5,2.3-10.1,3.7-14.7,3.7c-5.6-0.1-11.4-0.8-16.9,0.9c0.3-0.1-16,3.4-12,5
		c1.1,0.1,5.5,1.2,6.4,1.5c0.5,0.2,13.1-0.3,13.1-0.3c-9.2,19.3-7.2,47.7-9,68.2C232.6,240,232,244.6,231.3,249.2z"/>
	<path class="st2" d="M231.3,249.2c1-0.6,2-1.3,3-1.8c0.5-8.2,1.8-16.4,2.8-24.6c1.1-8.8,1.5-17.7,3.5-26.5
		c3.4-15,7.4-25.6,20.9-35.6c1.1-0.8,2.3-1.2,3.4-1.3c0.4-1,0.7-2.1,1.1-3.1c-4.5,2.3-10.1,3.7-14.7,3.7c-5.6-0.1-11.4-0.8-16.9,0.9
		c0.3-0.1-16,3.4-12,5c1.1,0.1,5.5,1.2,6.4,1.5c0.5,0.2,13.1-0.3,13.1-0.3c-9.2,19.3-7.2,47.7-9,68.2
		C232.6,240,232,244.6,231.3,249.2z"/>
	<path class="st1" d="M194.1,224.1c4.7-10.9,3.3-21.8,11.9-32.6c2-2.5,15.3-16,15.8-18.9c-9.6,3.1-37.5,19.5-42.9,27.4
		c1,8.8,1.9,17.6,1.7,26.5c-0.2,8.9-1.7,17.7-0.5,26.6c0.9,6.6,2.1,13.1,3,19.7c0.9-0.4,1.9-0.8,2.8-1.1c-0.5-7,1.5-13.7,2.8-20.7
		C190.5,241.6,190.3,233,194.1,224.1z"/>
	<path class="st2" d="M203.4,184.1c0.1-0.4,0.1-0.9,0.2-1.3c-9.6,3.1-19.3,9.3-24.6,17.2c1,8.8,1.9,17.6,1.7,26.5
		c-0.2,8.9-1.7,17.7-0.5,26.6c0.9,6.6,2.1,13.1,3,19.7c0.8-0.4,1.7-0.7,2.5-1c-0.8-16.5-1-32.9-0.3-49.4
		C186,206.5,194.4,196.9,203.4,184.1z"/>
	<path class="st3" d="M154.4,190.9c-8-19.3-40.8-36.5-60.9-44.8c-20.1-8.3-47.4-8.3-69.2-9.2c-5.9-0.2-10.6-0.5-15.8-2
		c0,15.4,0.6,31.9,8.8,45.1c3.4,5.4,7,26,14,37.7c4.8,7.9,9.6,6.1,17.2,8.8c11.9,4.2,17.8,19.1,38,28.8c7.2,3.5,11.7,12.4,26.7,16.7
		c8.6,2.5,19,0.8,19,0.8c8.7,3.1,9,10.2,24.6,15c0.5-15.3-1-31.1-1-47.4C155.9,225.8,160.1,204.6,154.4,190.9z"/>
	<path class="st0" d="M73.8,247.3c3.6,2.8,7.7,5.6,12.8,8.1c4.3,2.1,7.7,6.1,13,10c-3.8-8.3-7.4-16.6-9.8-25.3
		c-3.1-11.3-4.3-23.2-7.8-34.4c0,0.1,0,0.2-0.1,0.3c1.8,5.7,2.6,12.7,1.8,19.6C83.8,235.2,81.6,244,73.8,247.3z"/>
	<path class="st4" d="M155.5,207.6c-2.6-1.8-6.8-4.6-10.3-5.4c0,0.2,0.1,0.5,0.1,0.9c0.1,0.4,0.3,0.8,0.4,1.1
		c0.5,0.3,0.9,0.7,1.3,1.2c10.1,12.5,6,27.6,6.6,41.9c0.5,12.3,2.3,24.5,3.3,36.8c0.2-14.1-1.1-28.6-1.1-43.6c0-9.3,1.7-21.1,1.5-32
		C156.7,208.3,156.1,208,155.5,207.6z"/>
	<path class="st4" d="M144,281.5c-1-10.2-2.4-20.4-2.8-30.6c-0.2-4.7,0.3-9.8,0.5-14.9c-3-8.5-6-17-7.3-25.8
		c-2.5-6.2-4.7-13.2,0.3-16.7c1.3-0.9,2.7-1.6,4.1-2c-0.9-0.5-1.9-0.9-2.9-1.2c-3.7,1.9-7.8,3.1-12.1,3.8
		c7.3,17.8,10.5,36.5,10.2,55.3c0.1,0.2,0.2,0.4,0.2,0.5c1.1,3.2,0.3,7-0.5,10.3c0.1,0.3,0.1,0.6,0.1,0.9c0,4.2-0.2,8.2-0.8,12.1
		C137.7,275.2,139.9,278.3,144,281.5z"/>
	<path class="st4" d="M10.6,135.5c-0.7-0.2-1.3-0.3-2-0.5c0,15.4,0.6,31.9,8.8,45.1c3.4,5.4,7,26,14,37.7c2.8,4.6,5.6,5.9,8.9,6.7
		c-7.1-13-20.1-33-12.3-46.2c-4.5-2.8-11.3-10-11.3-10c0,1.2-3.2-7.7-3.8-17.3c-0.2-4.4-0.2-8.8,0.4-13.2
		C12.4,137.1,11.4,136.3,10.6,135.5z"/>
	<path class="st4" d="M62.9,237.3c0.4-6.9,0.9-13.7,1-20.6c0.1-15.7-7.7-30.8-1.1-46c-1.5-1.2-2.7-2.5-3.8-3.9
		c-3.9-2-7.3-4.5-11.3-6.1c-0.1,2.2-0.3,4.3-0.6,6.5c0,0.2,0.1,0.5,0.1,0.7c3.6,8.7,5.3,17.7,7,27c0.2,0.4,0.4,0.9,0.5,1.4
		c0.5,2.2,0.9,4.4,1.4,6.6c0.5,0.8,0.9,1.7,1,2.7c0.6,9.1,1.7,18.1,1,27.1C59.6,234.1,61.2,235.6,62.9,237.3z"/>
	<path class="st5" d="M54.9,149.9c-5.6-0.8-19.4-2.4-20.6-2.3c1,8.8,1.9,17.8,4.6,26.3c2.8,9.1,8.1,17.1,11.5,26
		c4,10.7,6.1,21.7,7.8,32.8c1,0.9,1.9,1.8,2.9,2.8c-0.5-17.9-1.6-35.9-5.8-53.3c-2.5-10-3.6-13.3-4.5-19.7
		C51.6,161.2,55.8,150.1,54.9,149.9z"/>
	<path class="st1" d="M54.9,149.9c-5.6-0.8-36.9-9.5-38.1-9.4c4.2,6.3,15.1,11.1,19,12.1c10.1,3.1,10,9,11.9,15.9
		c2.4,9.1,4.7,18.3,6.8,27.5c2.8,12,5.7,25.5,5.5,38.5c0.4,0.3,0.7,0.7,1.1,1c-0.5-17.9-1.6-35.9-5.8-53.3c-2.5-10-3.4-13.6-4.3-20
		C51.8,160.9,55.8,150.1,54.9,149.9z"/>
	<path class="st5" d="M148.6,186.2c-10.3,0.2-42.2-4-39.8,1.7c7.2,9.2,14.7,22.9,19.5,48.8c2.2,12.2,2.4,24,4,36.3
		c0.6,0.3,2.2,1,2.7,1.3c0.7-6.5,1.7-13,2.4-19.6c1.8-18.6-5.2-39.4-7.2-57.8C130.2,196.8,145.3,190,148.6,186.2z"/>
	<path class="st1" d="M148.6,186.2c-10.3,0.2-59.2-16.6-68.9-13.6c0,0,11.8,7.4,11.8,7.4c10.5,3.5,27.3,16.5,27.2,16.9
		c2.4,1.3,11.4,19.7,13.1,27.2c3.5,15.7,5.1,33.4,1.9,49.4c0.5,0.2,1,0.5,1.4,0.7c0.7-6.5,1.7-13,2.4-19.6
		c1.8-18.6-5.2-39.4-7.2-57.8C130.2,196.8,145.3,190,148.6,186.2z"/>
	<path class="st6" d="M258.6,227.8c5.1-0.4,16.4-23.5,21.4-25.2c4.9-1.6,14.8-6.9,17.9-10.9c3-3.8,2.7-7,5-11.1c2.3-4.2,4.8-4.2,8-8
		c3.3-3.9-3.2-17.4-3.2-17.4l-24.9,7.9c-2.6,1-5.4,1.8-8.1,2.8c-1.5,0.5-2.9,1-4.4,1.5c-5.8,2.2-11.7,4.2-17.7,5.8
		c-0.2,0.1-0.4,0.1-0.6,0.1c-0.5,0.2-0.9,0.2-1.3,0.1l-0.5,0.2c0,0,0.2,5.9-0.1,7.5c-0.5,2.7-2.7,4.7-3.1,7.4
		c-0.8,5.9,2.4,35.8,0.7,41.3C253.9,229.6,252.3,228.3,258.6,227.8z"/>
	<path class="st7" d="M259.7,214c-1.4,4.7-2.6,9.3-3.3,14.1c0.6-0.1,1.4-0.2,2.2-0.3c0.6-0.1,1.2-0.4,1.9-0.9
		c2.4-8.8,7.1-16.7,11.9-25c3.6-6.1,6.4-12.3,8.9-18.8c1.1-2.9,3.1-4.6-2.7-5c-3-0.2-6-0.4-9.1-0.5c4,4.7,7.6,8.3,3.9,14.9
		C269.5,199.8,262.2,206.1,259.7,214z"/>
	<path class="st8" d="M259.1,227.7c5.3-1.8,16.1-23.5,20.9-25.1c4.9-1.6,14.8-6.9,17.9-10.9c3-3.8,2.7-7,5-11.1c2.3-4.2,4.8-4.2,8-8
		c3.3-3.9-3.2-17.4-3.2-17.4c0-0.7-16.3,5.1-28.9,14.2c-2.7,2.6-0.3,9.5-0.3,10.3c0.6,8.6-1.3,13.2-8.8,22.7
		C263.7,210.1,260.7,218.7,259.1,227.7z"/>
	<path class="st1" d="M259.1,227.7c2.4-0.8,5.8-5.5,9.3-10.7c-2.6-8.9,4.8-17.2,11-24.4c1.9-5.6,3.5-11.3,6.6-16.4
		c-0.1,0-0.2-0.1-0.2-0.2c-0.6-0.4-1.2-0.8-1.9-1.2c-1.9-0.5-4.2,0.3-6.3,0.7c0.3,2.1,0.8,3.8,0.8,4.2c0.6,8.6-1.3,13.2-8.8,22.7
		C263.7,210.1,260.7,218.7,259.1,227.7z"/>
	<path class="st8" d="M213.5,203.9c-0.5,5,0.9,12.1,1.5,17.6c0.6,5.9,3.3,31.1,3.4,36.9c5,1.5,8.7,0.1,13.5-2.9
		c3.3-2.1,5.1-15.4,7.6-24.9c2.3-8.3,15.8-20,16.1-28.5l-0.5,0.4c-6.3-4.7-13.5,0.5-19,2.3C228.7,207.3,220.6,205.1,213.5,203.9z"/>
	<path class="st1" d="M232.2,212.3c-5.1,15.1-6.2,30.6-6.7,46.3c1.6-0.4,3.1-1.1,4.8-2.1c0-6.9,0.5-13.7,0.9-20.6
		c0.3-3.9,0-8.9,1.7-12.6c3.9-8.6,14.6-11.2,21.8-17.2c0.5-1.2,0.8-2.4,0.9-3.5c-6.4,4.9-14.9,8.4-23.3,9.2
		C232.3,211.9,232.3,212.1,232.2,212.3z"/>
	<path class="st6" d="M215,221.5c0.6,5.9,3.3,31.1,3.4,36.9c3.3,1,6,0.7,8.8-0.4c0.1-17.9,3.3-38,9.9-54.9c-7.1,1.8-17,1.9-23.6,0.8
		C213.1,208.9,214.5,216.1,215,221.5z"/>
	<path class="st7" d="M225.4,258.6c0.6-0.2,1.3-0.4,1.9-0.6c0.1-14.4,2.3-30.3,6.6-44.8c-3.2,0.3-6.6,0-9.3-1
		c4.8,6.1,4.4,12.1,3,19.1C225.7,240.4,225.6,249.5,225.4,258.6z"/>
	<path class="st0" d="M40,193.6c0.7,6.2,5.1,14.6,8,20.5c2.8,5.6,5.7,11.3,8.9,19.7c0.7,0,2.3,0.6,3,0.6c-0.1-7.3,0.2-13.2-1.2-20.5
		c-3-15.5-4.7-21.2-6.9-28.9C48.1,187.1,44.1,192.2,40,193.6z"/>
	<path class="st9" d="M52.1,186c-0.1-0.3-0.2-0.7-0.3-1.1c-3.7,2.1-7.7,7.2-11.9,8.7c0.7,6.2,5.1,14.6,8,20.5
		c2.8,5.6,5.7,11.3,8.9,19.7c0.2,0,0.4,0,0.7,0.1c-2.3-8.5-4.4-17-7-25.5c-1-3.2-2.8-7.4-1.9-10.9C49.7,193.6,51.8,190.1,52.1,186z"
		/>
	<path class="st5" d="M23.7,188.6c6.2,7.4,13.5,14.5,17.4,22.8c3.2,6.8,7.3,20.2,15.8,22.4c-3.3-11.6-9.8-26.9-12.5-35.4
		C43,193.8,33.5,179.9,23.7,188.6z"/>
	<path class="st5" d="M23.7,188.6C23.7,188.6,23.7,188.6,23.7,188.6l-0.2,0.1C23.6,188.7,23.7,188.7,23.7,188.6z"/>
	<path class="st10" d="M23.7,188.6c0.1,0.2,0.3,0.3,0.4,0.5c0.4,0,0.8,0,1.2,0.2c13.3,5.1,18.5,11.6,22.5,23.6
		c2,6.1,4.7,11.7,7.8,17.4c0.2,0.4,0.4,0.8,0.6,1.3c-3.4-11.3-9.3-25.2-11.8-33.2C43,193.8,33.5,179.9,23.7,188.6z"/>
	<path class="st5" d="M144.7,270.3c-0.4-11.5,4.8-24.7,7.6-35.4c-6.7,0.2-7.9-7.4-9.9-12.2c-2-4.7-3.3-10.8-5-14.8l-0.8-0.3
		c2,5.3,2.1,11.8,3.9,17.5c0.8,2.4,1.5,5,2.7,7.3c0.4,0.9,0.8,1.9,1.5,2.7c0.8,0.8,2.6,0.9,3.1,1.7c0.7,1.3-1.2,4.9-1.7,6.5
		c-0.9,3-1.4,5-1.4,8.1c0,3.5,0.2,7,0,10.4C144.6,264.4,143.5,267.9,144.7,270.3z"/>
	<path class="st0" d="M78.5,187.9c-0.5-2.2-1.1-13.1-1.8-15.3c-2-1.1-5.7-0.9-8-1.6c-1.4-0.4-6.5-1-5.7-0.3l-0.4-0.3
		c0.8,2.1,0,15.7,0,17.9c1.6-0.3,4.4-8.7,6.2-8.5c0.2,4.1,0.9,8.2-0.4,11.7c4.9,2.5,3.1,6.3,2.6,10.4c-0.5,4.8,3.2,2,2.9,6.8
		c-0.3,4-3.9,15.1-3.3,19.1c0,0,3.4,8,3.3,10.4c0,0.3,0.1,0.1,0.4-0.5c-3.2-10.4,0.6-20.7,4.1-30.8c-0.1-2-0.1-4.1,0-6.2
		c0.1-1.5,0.1-2.9,0.2-4.4C77.5,191.1,78.7,193.1,78.5,187.9z"/>
	<path class="st11" d="M306.8,135.1c-9.4-8.8-36.2-20.4-44.3-23.9l-17.8,2.8c2.1-1.4,7-5.1,8.7-6.9c-16.4-15.5-38.2-15.8-51.6-26.2
		c-6.7-5.1-36.8-18-44.8-22.7c-18.3,9.6-31.7,9.5-39.7,18.9c-7.9,9.2-23.7,10.3-34.7,15.9c0.6,1.3,2,4.5,2.7,5.9
		c-14-2.1-31.4,10.9-44.9,18.7c-11.7,6.9-32.2,16.8-32.2,16.8c15.4,14.7,28.6,17.3,44.2,19.3c1.1,2.6-3.1,6.6-1,10.8
		c6.6,13,55.7,18.6,67.4,30.4c2.8,2.8,17.5-3.7,17.5-3.7c0,2.3-6.1,5.6-6.1,5.6c14.5,7.3,21.3,14.7,27.6,13.9
		c6.1-0.8,22.7-9.6,28.1-12.5c10.5-5.7,13.8-11.8,25.1-15.5c13.8-4.6,21-4.8,31.1-15.6c-5.7-0.5-10.8-1.6-16.6-1.5
		c14.3-5.8,31.2-1.7,45.5-9.3C282.3,150.4,293.8,137.3,306.8,135.1z"/>
	<path class="st12" d="M299.2,137.6c-7,1.4-13.4,7-19.3,10.6c-8.4,5.2-15,9.8-25.5,11.1c-6.6,0.8-24.6,2.6-27.6,4.3
		c-2.8,1.5-5.2,2.7-2.2,2.9c7.9,0.6,14.3,2,14.3,2c-14,10.8-29.1,10.2-33.2,12.5c-4.6,2.6-7.9,6.2-11.8,9.5
		c-5.3,4.6-29.2,16.6-36.4,17.8c-5.3,0.9-7.3-4.6-21.4-10.8c-3.3-1.5,4-7.4,4.4-8.7c-5,0.6-9.9,2-14.7,3.8c-2,0.7-6.6,0.6-8.1-0.6
		c-12-10.4-44.2-16.2-52.8-19.4c-4.7-1.8-11.7-5.6-12.3-10.4c-0.4-2.9,1.4-5.2,2.4-7.9c1.5-3.9-6.1-3.1-8.3-3.6
		c-8.3-1.6-30.3-7.8-38.5-16.4c0,0,0,0,0,0c15.4,14.7,28.6,17.3,44.2,19.3c1.1,2.6-3.1,6.6-1,10.8c6.6,13,55.7,18.6,67.4,30.4
		c2.8,2.8,17.5-3.7,17.5-3.7c0,2.3-6.1,5.6-6.1,5.6c14.5,7.3,21.3,14.7,27.6,13.9c6.1-0.8,22.7-9.6,28.1-12.5
		c10.5-5.7,13.8-11.8,25.1-15.5c13.8-4.6,21-4.8,31.1-15.6c-5.7-0.5-10.8-1.6-16.6-1.5c14.3-5.8,31.2-1.7,45.5-9.3
		C280.1,151.6,289.2,142.2,299.2,137.6z"/>
	<path class="st1" d="M296.5,186.4c-0.5,1.7,0.4,5.2-0.2,6.9c0.6-0.5,1.1-1,1.5-1.5c3-3.8,2.7-7,5-11.1c2.3-4.2,4.8-4.2,8-8
		c3.3-3.9-3.2-17.4-3.2-17.4c0-0.1-0.5,0-1.4,0.2c-1.6,3.2-3.7,6.2-6.4,8.4c1.9,3.5,4,8,3.6,8.8
		C300.7,178.7,298.2,182.1,296.5,186.4z"/>
	<path class="st2" d="M283.8,196.5c5.2-8.9,10.4-17.8,12.7-27.7c-5.1,1.1-12.7-0.8-17.9,0c-1.7,1.8,8.3,3.5,9.1,5.4
		c0,0-0.6,4.3-0.8,5.7C285.9,185.5,284.9,191,283.8,196.5z"/>
	<path class="st13" d="M282.1,170.1c1.2-0.5,13.4,0,14.7-0.5c8.5-3.4,8.7-7.4,10.8-10.6c3-4.6-3.5-6.5-11.9-5.8
		c-9.6,9.7-30.4,16.2-45.6,20.4c4.6,4.1,12.2,0.8,15.9,3.1c5.7,3.5,12.3,3,12.3,3s6.8-3.4,9.3-5.4
		C289.1,173.2,279.9,171.1,282.1,170.1z"/>
	<path class="st14" d="M278.4,178.4c-2.7,0.3-9.5-2.9-12.3-3.2c-5.3-0.5-3.4,0.4-8.7-0.5c-1.8-0.3-4.3-1.3-6-1.5
		c-0.4,0.1-0.8,0.2-1.2,0.3c4.6,4.1,12.2,0.8,15.9,3.1c5.7,3.5,12.3,3,12.3,3s6.8-3.4,9.3-5.4c1.3-1-7.8-3.1-5.7-4.1
		c1.2-0.5,13.4,0,14.7-0.5c7.1-2.9,8.4-6.1,9.9-9c-3.6,4.8-7.7,8-20.4,6.6c0,0,0,0-0.1,0c-2.5,0.4-4.9,0.9-7.4,1.7
		c-0.1,0-0.2,0-0.3,0.1c1.4,1.2,2.5,3,4.4,3.5C288.2,174.2,280.4,178.2,278.4,178.4z"/>
	<path class="st13" d="M235.1,197.7c0,0-6,2.9-9,4c-3.6,1.4-8.6,2.9-12.6,2.2c0.3,0.9,1.1,2.5,2,3.4c4.4,4.5,15.1,8.4,21.2,6.3
		c3.9-1.4,17.1-7.2,18.8-10.6C257.8,198.3,239.4,196.3,235.1,197.7z"/>
	<path class="st14" d="M214.9,204.1c-0.4,0-0.9-0.1-1.3-0.2c0.3,0.9,1.1,2.5,2,3.4c4.4,4.5,15.1,8.4,21.2,6.3
		c3.4-1.2,13.7-5.7,17.5-9.1C242.9,212.1,224,214.4,214.9,204.1z"/>
	<path class="st11" d="M28.5,190.4c5.8,1.2,11.2,5,16,8c3.2-3.7,7.4-8,7.4-13.4c-4.1-1.5-9.1-3.6-11.5-6.8
		C31.3,181.6,15.5,188.8,28.5,190.4z"/>
	<path class="st12" d="M42.3,195.3c-2.7-2.2-9.7-4.8-15.7-6c-3.1-0.6-2.6-1.6-2.8-2.1c-0.7,1.4,0.4,2.6,4.7,3.1c5.8,1.2,11.2,5,16,8
		c3.1-3.6,7.1-7.8,7.3-13c-1.4,3.4-2.2,4.5-4.2,7.5C46.7,194.2,43.7,196.4,42.3,195.3z"/>
	<path class="st0" d="M107.7,205.7c-2.3,2.2-3.7,4-5.1,6.7c-3.4,6.7-5.1,11.5-3.2,19.2c2.3,9.2,6,17.9,9.4,26.8
		c2.4,6.1,5.8,17.5,12.1,21.4c2.6-2,5.8-4.2,8-6.5c-4.1-10.3-6.2-23.3-7.5-34.6c-1.3-11.4-3.5-23.3-4.5-34.6
		C114.1,203.1,109.5,204.1,107.7,205.7z"/>
	<path class="st9" d="M117.1,205.5c0-0.5-0.1-0.9-0.2-1.4c-2.8-1-7.5,0-9.3,1.6c-2.3,2.2-3.7,4-5.1,6.7c-3.4,6.7-5.1,11.5-3.2,19.2
		c2.3,9.2,6,17.9,9.4,26.8c2.4,6.1,5.8,17.5,12.1,21.4c2.2-1.7,4.8-3.5,6.9-5.5c-8.2-5.5-8.7-15.7-12.4-24.6
		c-3-7.4-5.5-14.7-5.3-22.6c0.1-7.6,4-13.3,6.4-20.4C116.7,206.2,116.9,205.8,117.1,205.5z"/>
	<path class="st5" d="M102.5,209.8c-3.7-2-9.4-2.8-13.5-5.1c-3.6-2-20.2-8.5-24.5-8.1c0.7,11,12.4,24.6,17.7,36.4
		c5.7,12.7,10.1,20.9,14.1,34c1.4,4.6,12.3,3.7,17.4,12.5l7.2,0.5c0,0-1.5-8.7-2.6-12.1c-1.4-4.3-9.3-30.2-11.3-38.6
		C105.7,223.6,108.2,212.8,102.5,209.8z"/>
	<path class="st10" d="M105.6,213.9c-3,0.8-6.3,0.9-9.6,0.8c9.8,7.9,12.1,22,14.3,33.1c2.2,11,7.1,21.2,9.9,31.9l0.7,0
		c0,0-1.5-8.7-2.6-12.1c-1.4-4.3-9.3-30.2-11.3-38.6C106.1,225.1,107.1,218.4,105.6,213.9z"/>
	<path class="st11" d="M78.8,186.4c-4.7,3.9-8.8,4.1-13.2,7.6c-4.6,3.7,7.3,16,14.1,19c7.1,3.2,16.6,3.7,24.4,3
		c7.1-0.7,13.3-12.4,13.3-12.4c-4.2-2.5-13.3-3.4-19.7-7.2C89.1,191.5,78.8,186.4,78.8,186.4z"/>
	<path class="st12" d="M65.6,194c-4.6,3.7,7.3,16,14.1,19c7.1,3.2,16.6,3.7,24.4,3c5.6-0.5,10.7-8,12.5-11.1
		c-9.4,10.1-17.9,11.4-35.4,5.9c-5.3-1.7-17.3-8.5-14.3-17.7C66.4,193.4,66,193.7,65.6,194z"/>
</g>
<g>
	<g>
		<g class="st15">
			<polygon points="242.3,113.3 199.9,137.9 101.1,80.9 143.5,56.2 			"/>
		</g>
		<g>
			<g>
				<polygon class="st16" points="195.7,129.1 195.7,130.7 114.5,83.8 114.5,82.2 				"/>
			</g>
			<g>
				<polygon class="st17" points="225.8,111.6 225.8,113.2 195.7,130.7 195.7,129.1 				"/>
			</g>
			<g>
				<path class="st18" d="M149.1,75.8c-0.3-0.2-0.5-0.3-0.8-0.4c-0.1,0-0.2-0.1-0.3-0.1c-0.2-0.1-0.3-0.2-0.5-0.2c0,0-0.1,0-0.1,0
					c-0.1,0-0.1,0-0.2-0.1c-0.2-0.1-0.4-0.2-0.7-0.2c-0.1,0-0.2,0-0.2-0.1c-0.1,0-0.1,0-0.2,0c-0.1,0-0.2,0-0.3-0.1
					c-0.2-0.1-0.5-0.1-0.7-0.2c-0.1,0-0.1,0-0.2,0c-0.1,0-0.2,0-0.3-0.1c-0.2,0-0.4-0.1-0.6-0.1c-0.1,0-0.2,0-0.2,0
					c-0.1,0-0.2,0-0.3,0c-0.2,0-0.4,0-0.6-0.1c-0.1,0-0.2,0-0.3,0c-0.1,0-0.2,0-0.3,0c-0.2,0-0.4,0-0.6,0c-0.1,0-0.2,0-0.3,0
					c-0.1,0-0.2,0-0.2,0c-0.2,0-0.4,0-0.6,0c-0.1,0-0.2,0-0.3,0c-0.1,0-0.1,0-0.2,0c-0.3,0-0.5,0-0.8,0c-0.1,0-0.2,0-0.3,0
					c0,0-0.1,0-0.1,0c-0.1,0-0.2,0-0.2,0c-0.3,0-0.5,0.1-0.8,0.1c-0.1,0-0.1,0-0.2,0c0,0-0.1,0-0.1,0c-0.1,0-0.2,0.1-0.4,0.1
					c-0.2,0-0.4,0.1-0.6,0.1c-0.2,0-0.3,0.1-0.4,0.1c-0.2,0.1-0.4,0.1-0.6,0.2c0,0-0.1,0-0.1,0c-0.2,0.1-0.5,0.2-0.7,0.2
					c0,0-0.1,0-0.1,0c-0.2,0.1-0.5,0.2-0.7,0.3c-0.1,0-0.1,0.1-0.2,0.1c-0.3,0.1-0.5,0.3-0.8,0.4c0,0-0.1,0.1-0.1,0.1
					c0,0-0.1,0-0.1,0.1c-0.1,0-0.1,0.1-0.2,0.1c-0.1,0-0.1,0.1-0.2,0.1c-0.1,0-0.1,0.1-0.2,0.1c-0.1,0-0.1,0.1-0.2,0.1
					c-0.1,0-0.1,0.1-0.2,0.1c-0.1,0-0.1,0.1-0.1,0.1c-0.1,0.1-0.1,0.1-0.2,0.1c0,0,0,0-0.1,0.1c0,0,0,0-0.1,0.1
					c-0.1,0.1-0.2,0.2-0.3,0.3c0,0-0.1,0.1-0.1,0.1c-0.1,0.1-0.2,0.2-0.3,0.3c0,0,0,0,0,0c0,0,0,0.1-0.1,0.1
					c-0.1,0.1-0.1,0.1-0.2,0.2c0,0-0.1,0.1-0.1,0.1c0,0.1-0.1,0.1-0.1,0.2c0,0,0,0,0,0.1c0,0,0,0.1,0,0.1c0,0.1-0.1,0.1-0.1,0.2
					c0,0,0,0.1-0.1,0.1c0,0.1,0,0.1-0.1,0.2c0,0,0,0.1,0,0.1c0,0,0,0,0,0.1c0,0.1,0,0.1-0.1,0.2c0,0.1,0,0.1,0,0.1
					c0,0.1,0,0.1,0,0.2c0,0,0,0.1,0,0.1c0,0,0,0,0,0.1c0,0.1,0,0.1,0,0.2c0,0.1,0,0.1,0,0.1c0,0.1,0,0.1,0,0.2c0,0,0,0.1,0,0.1
					c0,0,0,0.1,0,0.1c0,0.5,0,1.1,0,1.6c0-0.1,0-0.1,0-0.2c0-0.1,0-0.1,0-0.2c0,0,0-0.1,0-0.1c0-0.1,0-0.1,0-0.2c0,0,0-0.1,0-0.1
					c0-0.1,0-0.1,0-0.2c0,0,0-0.1,0-0.1c0-0.1,0-0.1,0.1-0.2c0,0,0-0.1,0.1-0.1c0-0.1,0-0.1,0.1-0.2c0-0.1,0-0.1,0.1-0.1
					c0-0.1,0.1-0.1,0.1-0.2c0,0,0-0.1,0.1-0.1c0-0.1,0.1-0.1,0.1-0.2c0,0,0-0.1,0.1-0.1c0-0.1,0.1-0.1,0.2-0.2c0,0,0-0.1,0.1-0.1
					c0.1-0.1,0.2-0.2,0.3-0.3c0,0,0.1-0.1,0.1-0.1c0.1-0.1,0.2-0.2,0.3-0.3c0,0,0.1-0.1,0.1-0.1c0.1-0.1,0.1-0.1,0.2-0.1
					c0,0,0.1-0.1,0.2-0.1c0.1,0,0.1-0.1,0.2-0.1c0.1,0,0.1-0.1,0.2-0.1c0.1,0,0.1-0.1,0.2-0.1c0.1,0,0.1-0.1,0.2-0.1
					c0.1,0,0.1-0.1,0.2-0.1c0.1-0.1,0.2-0.1,0.3-0.2c0.2-0.1,0.5-0.3,0.8-0.4c0.1,0,0.1-0.1,0.2-0.1c0.2-0.1,0.5-0.2,0.7-0.3
					c0,0,0.1,0,0.1,0c0.3-0.1,0.5-0.2,0.8-0.3c0.2-0.1,0.4-0.1,0.6-0.2c0.1,0,0.3-0.1,0.5-0.1c0.2,0,0.4-0.1,0.6-0.1
					c0.2,0,0.3-0.1,0.5-0.1c0.1,0,0.1,0,0.2,0c0.3,0,0.5-0.1,0.8-0.1c0.1,0,0.2,0,0.2,0c0.1,0,0.3,0,0.4,0c0.2,0,0.5,0,0.8-0.1
					c0.2,0,0.3,0,0.5,0c0.2,0,0.4,0,0.6,0c0.2,0,0.3,0,0.5,0c0.2,0,0.4,0,0.6,0c0.2,0,0.3,0,0.5,0c0.2,0,0.4,0,0.6,0.1
					c0.2,0,0.3,0,0.5,0.1c0.2,0,0.4,0.1,0.6,0.1c0.2,0,0.3,0.1,0.5,0.1c0.2,0.1,0.5,0.1,0.7,0.2c0.1,0,0.3,0.1,0.4,0.1
					c0.1,0,0.2,0,0.2,0.1c0.2,0.1,0.5,0.2,0.7,0.2c0.1,0,0.1,0,0.2,0.1c0.2,0.1,0.4,0.2,0.6,0.3c0.1,0,0.2,0.1,0.3,0.1
					c0.3,0.1,0.6,0.3,0.8,0.4c2.2,1.3,3.3,2.9,3.3,4.6c0-0.5,0-1.1,0-1.6C152.4,78.7,151.3,77,149.1,75.8z"/>
				<path class="st18" d="M168.2,86.8c-0.3-0.2-0.5-0.3-0.8-0.4c-0.1,0-0.2-0.1-0.3-0.1c-0.2-0.1-0.3-0.1-0.5-0.2c0,0-0.1,0-0.1,0
					c-0.1,0-0.1,0-0.2-0.1c-0.2-0.1-0.4-0.2-0.7-0.2c-0.1,0-0.1,0-0.2-0.1c-0.1,0-0.1,0-0.2-0.1c-0.1,0-0.2,0-0.3-0.1
					c-0.2-0.1-0.4-0.1-0.7-0.2c-0.1,0-0.1,0-0.2,0c-0.1,0-0.2,0-0.3,0c-0.2,0-0.4-0.1-0.6-0.1c-0.1,0-0.2,0-0.2,0
					c-0.1,0-0.2,0-0.3,0c-0.2,0-0.4,0-0.5-0.1c-0.1,0-0.2,0-0.3,0c-0.1,0-0.2,0-0.3,0c-0.2,0-0.4,0-0.6,0c-0.1,0-0.2,0-0.3,0
					c-0.1,0-0.1,0-0.2,0c-0.2,0-0.4,0-0.6,0c-0.1,0-0.2,0-0.3,0c-0.1,0-0.1,0-0.2,0c-0.3,0-0.5,0-0.8,0c-0.1,0-0.2,0-0.3,0
					c0,0-0.1,0-0.1,0c-0.1,0-0.2,0-0.2,0c-0.3,0-0.5,0.1-0.8,0.1c-0.1,0-0.1,0-0.2,0c0,0-0.1,0-0.1,0c-0.1,0-0.2,0.1-0.3,0.1
					c-0.2,0-0.4,0.1-0.6,0.1c-0.1,0-0.3,0.1-0.4,0.1c-0.2,0.1-0.4,0.1-0.6,0.2c0,0-0.1,0-0.1,0c-0.2,0.1-0.5,0.2-0.7,0.2
					c0,0-0.1,0-0.1,0c-0.2,0.1-0.5,0.2-0.7,0.3c-0.1,0-0.1,0.1-0.2,0.1c-0.3,0.1-0.5,0.3-0.8,0.4c0,0-0.1,0.1-0.1,0.1
					c0,0-0.1,0-0.1,0.1c-0.1,0-0.1,0.1-0.2,0.1c-0.1,0-0.1,0.1-0.2,0.1c-0.1,0-0.1,0.1-0.2,0.1c-0.1,0-0.1,0.1-0.2,0.1
					c-0.1,0-0.1,0.1-0.2,0.1c-0.1,0-0.1,0.1-0.1,0.1c-0.1,0-0.1,0.1-0.2,0.1c0,0,0,0-0.1,0.1c0,0,0,0-0.1,0.1
					c-0.1,0.1-0.2,0.2-0.3,0.3c0,0-0.1,0.1-0.1,0.1c-0.1,0.1-0.2,0.2-0.3,0.3c0,0,0,0,0,0v0l0,0v0c0,0,0,0.1-0.1,0.1
					c-0.1,0.1-0.1,0.1-0.2,0.2c0,0-0.1,0.1-0.1,0.1c0,0.1-0.1,0.1-0.1,0.2c0,0,0,0,0,0.1c0,0,0,0.1,0,0.1c0,0.1-0.1,0.1-0.1,0.2
					c0,0,0,0.1-0.1,0.1c0,0.1,0,0.1-0.1,0.2c0,0,0,0.1,0,0.1c0,0,0,0,0,0.1c0,0.1,0,0.1-0.1,0.2c0,0.1,0,0.1,0,0.2
					c0,0.1,0,0.1,0,0.2c0,0,0,0.1,0,0.1c0,0,0,0,0,0.1c0,0.1,0,0.1,0,0.2c0,0.1,0,0.1,0,0.1c0,0.1,0,0.1,0,0.2c0,0,0,0.1,0,0.1
					s0,0.1,0,0.1c0,0.5,0,1.1,0,1.6c0-0.1,0-0.1,0-0.2c0-0.1,0-0.1,0-0.2c0-0.1,0-0.1,0-0.1c0-0.1,0-0.1,0-0.2c0-0.1,0-0.1,0-0.1
					c0-0.1,0-0.1,0-0.2c0,0,0-0.1,0-0.1c0-0.1,0-0.1,0.1-0.2c0,0,0-0.1,0.1-0.1c0-0.1,0-0.1,0.1-0.2c0,0,0-0.1,0.1-0.1
					c0-0.1,0.1-0.1,0.1-0.2c0,0,0-0.1,0.1-0.1c0-0.1,0.1-0.1,0.1-0.2c0,0,0.1-0.1,0.1-0.1c0-0.1,0.1-0.1,0.1-0.2c0,0,0-0.1,0.1-0.1
					c0.1-0.1,0.2-0.2,0.3-0.3c0,0,0.1-0.1,0.1-0.1c0.1-0.1,0.2-0.2,0.3-0.3c0,0,0.1-0.1,0.1-0.1c0.1,0,0.1-0.1,0.2-0.1
					c0,0,0.1-0.1,0.1-0.1c0.1,0,0.1-0.1,0.2-0.1c0.1,0,0.1-0.1,0.2-0.1c0.1,0,0.1-0.1,0.2-0.1c0.1,0,0.1-0.1,0.2-0.1
					c0.1,0,0.1-0.1,0.2-0.1c0.1-0.1,0.2-0.1,0.3-0.2c0.2-0.1,0.5-0.3,0.8-0.4c0.1,0,0.1-0.1,0.2-0.1c0.2-0.1,0.5-0.2,0.7-0.3
					c0,0,0.1,0,0.1,0c0.3-0.1,0.5-0.2,0.8-0.3c0.2-0.1,0.4-0.1,0.6-0.2c0.1,0,0.3-0.1,0.4-0.1c0.2,0,0.4-0.1,0.6-0.1
					c0.1,0,0.3-0.1,0.5-0.1c0.1,0,0.1,0,0.2,0c0.3,0,0.5-0.1,0.8-0.1c0.1,0,0.2,0,0.2,0c0.1,0,0.3,0,0.4,0c0.2,0,0.5,0,0.8-0.1
					c0.2,0,0.3,0,0.5,0c0.2,0,0.4,0,0.6,0c0.2,0,0.3,0,0.5,0c0.2,0,0.4,0,0.6,0c0.2,0,0.3,0,0.5,0c0.2,0,0.4,0,0.6,0.1
					c0.2,0,0.3,0,0.5,0.1c0.2,0,0.4,0.1,0.6,0.1c0.2,0,0.3,0.1,0.5,0.1c0.2,0.1,0.5,0.1,0.7,0.2c0.1,0,0.3,0.1,0.4,0.1
					c0.1,0,0.2,0,0.2,0.1c0.2,0.1,0.5,0.1,0.7,0.2c0.1,0,0.1,0.1,0.2,0.1c0.2,0.1,0.4,0.2,0.6,0.2c0.1,0,0.2,0.1,0.3,0.1
					c0.3,0.1,0.6,0.3,0.8,0.4c2.2,1.3,3.3,2.9,3.3,4.6c0-0.5,0-1.1,0-1.6C171.5,89.7,170.4,88.1,168.2,86.8z"/>
				<path class="st18" d="M187.4,97.8c-0.3-0.2-0.5-0.3-0.8-0.4c-0.1,0-0.2-0.1-0.3-0.1c-0.2-0.1-0.3-0.2-0.5-0.2c0,0-0.1,0-0.1,0
					c-0.1,0-0.1,0-0.2-0.1c-0.2-0.1-0.5-0.2-0.7-0.2c-0.1,0-0.2-0.1-0.2-0.1c-0.1,0-0.1,0-0.2-0.1c-0.1,0-0.2,0-0.3-0.1
					c-0.2-0.1-0.5-0.1-0.7-0.2c-0.1,0-0.1,0-0.2,0c-0.1,0-0.2,0-0.3,0c-0.2,0-0.4-0.1-0.6-0.1c-0.1,0-0.2,0-0.2,0
					c-0.1,0-0.2,0-0.3,0c-0.2,0-0.4,0-0.6-0.1c-0.1,0-0.2,0-0.3,0c-0.1,0-0.2,0-0.2,0c-0.2,0-0.4,0-0.6,0c-0.1,0-0.2,0-0.3,0
					c-0.1,0-0.2,0-0.2,0c-0.2,0-0.4,0-0.6,0c-0.1,0-0.2,0-0.3,0c-0.1,0-0.1,0-0.2,0c-0.3,0-0.5,0-0.8,0.1c-0.1,0-0.2,0-0.3,0
					c0,0-0.1,0-0.1,0c-0.1,0-0.2,0-0.2,0c-0.3,0-0.5,0.1-0.8,0.1c-0.1,0-0.1,0-0.2,0c0,0-0.1,0-0.1,0c-0.1,0-0.2,0.1-0.4,0.1
					c-0.2,0-0.4,0.1-0.6,0.1c-0.1,0-0.3,0.1-0.4,0.1c-0.2,0.1-0.4,0.1-0.6,0.2c0,0-0.1,0-0.1,0c-0.2,0.1-0.5,0.2-0.7,0.2
					c0,0-0.1,0-0.1,0c-0.2,0.1-0.5,0.2-0.7,0.3c-0.1,0-0.1,0.1-0.2,0.1c-0.3,0.1-0.5,0.3-0.8,0.4c0,0-0.1,0.1-0.1,0.1
					c0,0-0.1,0.1-0.1,0.1c-0.1,0-0.1,0.1-0.2,0.1c-0.1,0-0.1,0.1-0.2,0.1c-0.1,0-0.1,0.1-0.2,0.1c-0.1,0-0.1,0.1-0.2,0.1
					c-0.1,0-0.1,0.1-0.2,0.1c-0.1,0-0.1,0.1-0.2,0.1c-0.1,0-0.1,0.1-0.2,0.1c0,0,0,0-0.1,0.1c0,0,0,0-0.1,0.1
					c-0.1,0.1-0.2,0.2-0.2,0.2c0,0-0.1,0.1-0.1,0.1c-0.1,0.1-0.2,0.2-0.3,0.3c0,0,0,0,0,0c0,0,0,0.1-0.1,0.1
					c-0.1,0.1-0.1,0.1-0.2,0.2c0,0-0.1,0.1-0.1,0.1c0,0.1-0.1,0.1-0.1,0.2c0,0,0,0,0,0.1c0,0,0,0.1,0,0.1c0,0.1-0.1,0.1-0.1,0.2
					c0,0,0,0.1-0.1,0.1c0,0.1,0,0.1-0.1,0.2c0,0,0,0,0,0.1c0,0,0,0,0,0.1c0,0.1,0,0.1-0.1,0.2c0,0,0,0.1,0,0.1c0,0.1,0,0.1,0,0.2
					c0,0,0,0.1,0,0.1c0,0,0,0,0,0.1c0,0.1,0,0.1,0,0.2c0,0.1,0,0.1,0,0.1c0,0.1,0,0.1,0,0.2c0,0,0,0.1,0,0.1c0,0,0,0.1,0,0.1l0,1.6
					c0-0.1,0-0.1,0-0.2c0-0.1,0-0.1,0-0.2c0-0.1,0-0.1,0-0.1c0-0.1,0-0.1,0-0.2c0-0.1,0-0.1,0-0.2c0-0.1,0-0.1,0-0.2
					c0-0.1,0-0.1,0-0.2c0-0.1,0-0.1,0.1-0.2c0,0,0-0.1,0.1-0.1c0-0.1,0-0.1,0.1-0.2c0,0,0-0.1,0.1-0.1c0-0.1,0.1-0.1,0.1-0.2
					c0,0,0-0.1,0.1-0.1c0-0.1,0.1-0.1,0.1-0.2c0,0,0-0.1,0.1-0.1c0-0.1,0.1-0.1,0.2-0.2c0,0,0-0.1,0.1-0.1c0.1-0.1,0.2-0.2,0.3-0.3
					c0,0,0.1-0.1,0.1-0.1c0.1-0.1,0.2-0.2,0.3-0.3c0,0,0.1-0.1,0.1-0.1c0.1-0.1,0.1-0.1,0.2-0.1c0,0,0.1-0.1,0.1-0.1
					c0.1,0,0.1-0.1,0.2-0.1c0,0,0.1-0.1,0.2-0.1c0.1,0,0.1-0.1,0.2-0.1c0.1,0,0.1-0.1,0.2-0.1c0.1,0,0.1-0.1,0.2-0.1
					c0.1,0,0.2-0.1,0.2-0.1c0.2-0.1,0.5-0.3,0.8-0.4c0.1,0,0.1-0.1,0.2-0.1c0.2-0.1,0.5-0.2,0.7-0.3c0,0,0.1,0,0.1,0
					c0.3-0.1,0.5-0.2,0.8-0.3c0.2-0.1,0.4-0.1,0.6-0.2c0.1,0,0.3-0.1,0.4-0.1c0.2-0.1,0.4-0.1,0.6-0.1c0.2,0,0.3-0.1,0.4-0.1
					c0.1,0,0.1,0,0.2,0c0.3,0,0.5-0.1,0.8-0.1c0.1,0,0.1,0,0.2,0c0.2,0,0.3,0,0.5,0c0.2,0,0.5,0,0.7-0.1c0.2,0,0.3,0,0.5,0
					c0.2,0,0.4,0,0.6,0c0.2,0,0.3,0,0.5,0c0.2,0,0.4,0,0.6,0c0.2,0,0.4,0,0.5,0c0.2,0,0.4,0,0.5,0.1c0.2,0,0.3,0,0.5,0.1
					c0.2,0,0.4,0.1,0.6,0.1c0.2,0,0.3,0.1,0.5,0.1c0.2,0.1,0.5,0.1,0.7,0.2c0.1,0,0.3,0.1,0.5,0.1c0.1,0,0.1,0,0.2,0.1
					c0.2,0.1,0.5,0.2,0.7,0.2c0.1,0,0.1,0,0.2,0.1c0.2,0.1,0.4,0.2,0.6,0.2c0.1,0,0.2,0.1,0.3,0.1c0.3,0.1,0.6,0.3,0.8,0.4
					c2.2,1.3,3.3,2.9,3.3,4.6c0-0.5,0-1.1,0-1.6C190.7,100.8,189.6,99.1,187.4,97.8z"/>
				<path class="st18" d="M206.5,108.9c-0.3-0.2-0.5-0.3-0.8-0.4c-0.1,0-0.2-0.1-0.3-0.1c-0.2-0.1-0.3-0.2-0.5-0.2c0,0-0.1,0-0.1,0
					c-0.1,0-0.1,0-0.2-0.1c-0.2-0.1-0.5-0.2-0.7-0.2c-0.1,0-0.2,0-0.2-0.1c-0.1,0-0.1,0-0.2,0c-0.1,0-0.2,0-0.3-0.1
					c-0.2-0.1-0.5-0.1-0.7-0.2c-0.1,0-0.1,0-0.2,0c-0.1,0-0.2,0-0.3,0c-0.2,0-0.4-0.1-0.6-0.1c-0.1,0-0.2,0-0.2,0
					c-0.1,0-0.2,0-0.3,0c-0.2,0-0.4,0-0.6-0.1c-0.1,0-0.2,0-0.3,0c-0.1,0-0.2,0-0.2,0c-0.2,0-0.4,0-0.6,0c-0.1,0-0.2,0-0.3,0
					c-0.1,0-0.2,0-0.2,0c-0.2,0-0.4,0-0.6,0c-0.1,0-0.2,0-0.3,0c-0.1,0-0.1,0-0.2,0c-0.3,0-0.5,0-0.8,0.1c-0.1,0-0.2,0-0.3,0
					c0,0-0.1,0-0.1,0c-0.1,0-0.2,0-0.2,0c-0.3,0-0.5,0.1-0.8,0.1c-0.1,0-0.1,0-0.2,0c0,0-0.1,0-0.1,0c-0.1,0-0.2,0.1-0.4,0.1
					c-0.2,0-0.4,0.1-0.6,0.1c-0.2,0-0.3,0.1-0.4,0.1c-0.2,0-0.4,0.1-0.6,0.2c0,0-0.1,0-0.1,0c-0.2,0.1-0.5,0.2-0.7,0.2
					c0,0-0.1,0-0.1,0c-0.2,0.1-0.5,0.2-0.7,0.3c-0.1,0-0.1,0.1-0.2,0.1c-0.3,0.1-0.5,0.3-0.8,0.4c0,0-0.1,0.1-0.1,0.1
					c0,0-0.1,0.1-0.1,0.1c-0.1,0-0.1,0.1-0.2,0.1c-0.1,0-0.1,0.1-0.2,0.1c-0.1,0-0.1,0.1-0.2,0.1c-0.1,0-0.1,0.1-0.2,0.1
					c-0.1,0-0.1,0.1-0.2,0.1c-0.1,0-0.1,0.1-0.2,0.1c-0.1,0-0.1,0.1-0.2,0.1c0,0,0,0-0.1,0.1c0,0,0,0-0.1,0.1
					c-0.1,0.1-0.2,0.2-0.2,0.2c0,0-0.1,0.1-0.1,0.1c-0.1,0.1-0.2,0.2-0.3,0.3c0,0,0,0,0,0c0,0,0,0-0.1,0.1c-0.1,0.1-0.1,0.1-0.2,0.2
					c0,0-0.1,0.1-0.1,0.1c0,0.1-0.1,0.1-0.1,0.2c0,0,0,0,0,0.1c0,0,0,0.1,0,0.1c0,0.1-0.1,0.1-0.1,0.2c0,0,0,0.1-0.1,0.1
					c0,0.1,0,0.1-0.1,0.2c0,0,0,0.1,0,0.1c0,0,0,0,0,0.1c0,0.1,0,0.1,0,0.2c0,0.1,0,0.1,0,0.2c0,0.1,0,0.1,0,0.2c0,0,0,0.1,0,0.1
					c0,0,0,0,0,0.1c0,0.1,0,0.1,0,0.2c0,0,0,0.1,0,0.1c0,0.1,0,0.1,0,0.2c0,0,0,0.1,0,0.1c0,0,0,0.1,0,0.1l0,1.6c0-0.1,0-0.1,0-0.2
					c0-0.1,0-0.1,0-0.2c0,0,0-0.1,0-0.1c0-0.1,0-0.1,0-0.2c0-0.1,0-0.1,0-0.2c0-0.1,0-0.1,0-0.2c0,0,0-0.1,0-0.1
					c0-0.1,0-0.1,0.1-0.2c0,0,0-0.1,0.1-0.1c0-0.1,0-0.1,0.1-0.2c0,0,0-0.1,0.1-0.1c0-0.1,0.1-0.1,0.1-0.2c0,0,0.1-0.1,0.1-0.1
					c0-0.1,0.1-0.1,0.1-0.2c0,0,0.1-0.1,0.1-0.1c0-0.1,0.1-0.1,0.1-0.2c0,0,0.1-0.1,0.1-0.1c0.1-0.1,0.2-0.2,0.3-0.3
					c0,0,0.1-0.1,0.1-0.1c0.1-0.1,0.2-0.2,0.2-0.2c0,0,0.1-0.1,0.1-0.1c0.1-0.1,0.1-0.1,0.2-0.1c0.1,0,0.1-0.1,0.2-0.1
					c0.1,0,0.1-0.1,0.2-0.1c0.1,0,0.1-0.1,0.2-0.1c0.1,0,0.1-0.1,0.2-0.1c0.1,0,0.1-0.1,0.2-0.1c0.1,0,0.1-0.1,0.2-0.1
					c0.1-0.1,0.2-0.1,0.2-0.2c0.2-0.1,0.5-0.3,0.8-0.4c0.1,0,0.1-0.1,0.2-0.1c0.2-0.1,0.5-0.2,0.7-0.3c0,0,0.1,0,0.1,0
					c0.3-0.1,0.5-0.2,0.8-0.3c0.2-0.1,0.4-0.1,0.6-0.2c0.1,0,0.3-0.1,0.4-0.1c0.2,0,0.4-0.1,0.6-0.1c0.1,0,0.3-0.1,0.4-0.1
					c0.1,0,0.1,0,0.2,0c0.3,0,0.5-0.1,0.8-0.1c0.1,0,0.1,0,0.2,0c0.1,0,0.3,0,0.5,0c0.2,0,0.5,0,0.8,0c0.2,0,0.3,0,0.5,0
					c0.2,0,0.4,0,0.6,0c0.2,0,0.3,0,0.5,0c0.2,0,0.4,0,0.6,0c0.2,0,0.3,0,0.5,0c0.2,0,0.4,0,0.6,0.1c0.2,0,0.3,0,0.5,0.1
					c0.2,0,0.4,0.1,0.6,0.1c0.2,0,0.3,0.1,0.5,0.1c0.2,0.1,0.5,0.1,0.7,0.2c0.1,0,0.3,0.1,0.4,0.1c0.1,0,0.2,0,0.2,0.1
					c0.2,0.1,0.5,0.2,0.7,0.2c0.1,0,0.1,0,0.2,0.1c0.2,0.1,0.4,0.2,0.6,0.2c0.1,0,0.2,0.1,0.3,0.1c0.3,0.1,0.6,0.3,0.8,0.4
					c2.2,1.3,3.3,2.9,3.3,4.6c0-0.5,0-1.1,0-1.6C209.8,111.8,208.7,110.1,206.5,108.9z"/>
				<g>
					<path class="st19" d="M144.6,64.7l81.3,46.9l-30.1,17.5l-81.3-46.9L144.6,64.7z M190.8,118c4.4,2.5,11.4,2.5,15.8,0
						c4.3-2.5,4.3-6.6-0.1-9.1c-4.4-2.5-11.4-2.5-15.8,0C186.4,111.4,186.4,115.5,190.8,118L190.8,118z M133.4,84.9
						c4.4,2.5,11.4,2.5,15.8,0c4.3-2.5,4.3-6.6-0.1-9.1c-4.4-2.5-11.4-2.5-15.8,0C129,78.3,129,82.4,133.4,84.9L133.4,84.9z
						 M171.6,107c4.4,2.5,11.4,2.5,15.8,0c4.3-2.5,4.3-6.6,0-9.1c-4.4-2.5-11.4-2.5-15.8,0C167.2,100.4,167.3,104.5,171.6,107
						L171.6,107z M152.5,95.9c4.4,2.5,11.4,2.5,15.8,0c4.3-2.5,4.3-6.6-0.1-9.1c-4.4-2.5-11.4-2.5-15.8,0
						C148.1,89.3,148.1,93.4,152.5,95.9L152.5,95.9z"/>
				</g>
			</g>
		</g>
		<g>
			<g class="st20">
				<g>
					<polygon class="st21" points="143.3,66.9 141.9,66.1 141.8,37.7 143.2,38.5 					"/>
				</g>
				<g>
					<polygon class="st22" points="143.2,38.5 141.8,37.7 144.6,36.1 146,36.9 					"/>
				</g>
				<g>
					<polygon class="st18" points="146,36.9 146,65.2 143.3,66.9 143.2,38.5 					"/>
				</g>
			</g>
		</g>
		<path class="st18" d="M149.1,47.1c-0.3-0.2-0.5-0.3-0.8-0.4c-0.1,0-0.2-0.1-0.3-0.1c-0.2-0.1-0.3-0.2-0.5-0.2c0,0-0.1,0-0.1,0
			c-0.1,0-0.1,0-0.2-0.1c-0.2-0.1-0.4-0.2-0.7-0.2c-0.1,0-0.2,0-0.2-0.1c-0.1,0-0.1,0-0.2,0c-0.1,0-0.2,0-0.3-0.1
			c-0.2-0.1-0.5-0.1-0.7-0.2c-0.1,0-0.1,0-0.2,0c-0.1,0-0.2,0-0.3,0c-0.2,0-0.4-0.1-0.6-0.1c-0.1,0-0.2,0-0.2,0c-0.1,0-0.2,0-0.3,0
			c-0.2,0-0.4,0-0.6-0.1c-0.1,0-0.2,0-0.3,0c-0.1,0-0.2,0-0.3,0c-0.2,0-0.4,0-0.6,0c-0.1,0-0.2,0-0.3,0c-0.1,0-0.2,0-0.2,0
			c-0.2,0-0.4,0-0.6,0c-0.1,0-0.2,0-0.3,0c-0.1,0-0.1,0-0.2,0c-0.3,0-0.5,0-0.8,0c-0.1,0-0.2,0-0.3,0c0,0-0.1,0-0.1,0
			c-0.1,0-0.2,0-0.2,0c-0.3,0-0.5,0.1-0.8,0.1c-0.1,0-0.1,0-0.2,0c0,0-0.1,0-0.1,0c-0.1,0-0.2,0.1-0.4,0.1c-0.2,0-0.4,0.1-0.6,0.1
			c-0.2,0-0.3,0.1-0.4,0.1c-0.2,0.1-0.4,0.1-0.6,0.2c0,0-0.1,0-0.1,0c-0.2,0.1-0.5,0.2-0.7,0.2c0,0-0.1,0-0.1,0
			c-0.2,0.1-0.5,0.2-0.7,0.3c-0.1,0-0.1,0.1-0.2,0.1c-0.3,0.1-0.5,0.3-0.8,0.4c0,0-0.1,0-0.1,0.1c0,0-0.1,0-0.1,0.1
			c-0.1,0-0.1,0.1-0.2,0.1c-0.1,0-0.1,0.1-0.2,0.1c-0.1,0-0.1,0.1-0.2,0.1c-0.1,0-0.1,0.1-0.2,0.1c-0.1,0-0.1,0.1-0.2,0.1
			c-0.1,0-0.1,0.1-0.1,0.1c-0.1,0-0.1,0.1-0.2,0.1c0,0,0,0-0.1,0.1c0,0,0,0-0.1,0.1c-0.1,0.1-0.2,0.2-0.3,0.3c0,0-0.1,0.1-0.1,0.1
			c-0.1,0.1-0.2,0.2-0.3,0.3c0,0,0,0,0,0c0,0,0,0.1-0.1,0.1c-0.1,0.1-0.1,0.1-0.2,0.2c0,0-0.1,0.1-0.1,0.1c0,0.1-0.1,0.1-0.1,0.2
			c0,0,0,0,0,0.1c0,0,0,0.1,0,0.1c0,0.1-0.1,0.1-0.1,0.2c0,0,0,0.1-0.1,0.1c0,0.1,0,0.1-0.1,0.2c0,0,0,0.1,0,0.1c0,0,0,0,0,0.1
			c0,0.1,0,0.1-0.1,0.2c0,0,0,0.1,0,0.1c0,0.1,0,0.1,0,0.2c0,0,0,0.1,0,0.1c0,0,0,0,0,0.1c0,0.1,0,0.1,0,0.2c0,0,0,0.1,0,0.1
			c0,0.1,0,0.1,0,0.2c0,0,0,0.1,0,0.1c0,0,0,0.1,0,0.1c0,0.5,0,1.1,0,1.6c0-0.1,0-0.1,0-0.2c0-0.1,0-0.1,0-0.2c0,0,0-0.1,0-0.1
			c0-0.1,0-0.1,0-0.2c0-0.1,0-0.1,0-0.1c0-0.1,0-0.1,0-0.2c0,0,0-0.1,0-0.1c0-0.1,0-0.1,0.1-0.2c0,0,0-0.1,0.1-0.1
			c0-0.1,0-0.1,0.1-0.2c0,0,0-0.1,0.1-0.1c0-0.1,0.1-0.1,0.1-0.2c0,0,0-0.1,0.1-0.1c0-0.1,0.1-0.1,0.1-0.2c0,0,0-0.1,0.1-0.1
			c0-0.1,0.1-0.1,0.2-0.2c0,0,0-0.1,0.1-0.1c0.1-0.1,0.2-0.2,0.3-0.3c0,0,0.1-0.1,0.1-0.1c0.1-0.1,0.2-0.2,0.3-0.3
			c0,0,0.1-0.1,0.1-0.1c0.1,0,0.1-0.1,0.2-0.1c0,0,0.1-0.1,0.2-0.1c0.1-0.1,0.1-0.1,0.2-0.1c0.1,0,0.1-0.1,0.2-0.1
			c0.1,0,0.1-0.1,0.2-0.1c0.1,0,0.1-0.1,0.2-0.1c0.1,0,0.1-0.1,0.2-0.1c0.1-0.1,0.2-0.1,0.3-0.2c0.2-0.1,0.5-0.3,0.8-0.4
			c0.1,0,0.1-0.1,0.2-0.1c0.2-0.1,0.5-0.2,0.7-0.3c0,0,0.1,0,0.1,0c0.3-0.1,0.5-0.2,0.8-0.3c0.2-0.1,0.4-0.1,0.6-0.2
			c0.1,0,0.3-0.1,0.5-0.1c0.2,0,0.4-0.1,0.6-0.1c0.2,0,0.3-0.1,0.5-0.1c0.1,0,0.1,0,0.2,0c0.3,0,0.5-0.1,0.8-0.1c0.1,0,0.2,0,0.2,0
			c0.1,0,0.3,0,0.4,0c0.2,0,0.5,0,0.8-0.1c0.2,0,0.3,0,0.5,0c0.2,0,0.4,0,0.6,0c0.2,0,0.3,0,0.5,0c0.2,0,0.4,0,0.6,0
			c0.2,0,0.3,0,0.5,0c0.2,0,0.4,0,0.6,0.1c0.2,0,0.3,0,0.5,0.1c0.2,0,0.4,0.1,0.6,0.1c0.2,0,0.3,0.1,0.5,0.1
			c0.2,0.1,0.5,0.1,0.7,0.2c0.1,0,0.3,0.1,0.4,0.1c0.1,0,0.2,0.1,0.2,0.1c0.2,0.1,0.5,0.1,0.7,0.2c0.1,0,0.1,0,0.2,0.1
			c0.2,0.1,0.4,0.2,0.6,0.3c0.1,0,0.2,0.1,0.3,0.1c0.3,0.1,0.6,0.3,0.8,0.4c2.2,1.3,3.3,2.9,3.3,4.6c0-0.5,0-1.1,0-1.6
			C152.4,50,151.3,48.4,149.1,47.1z"/>
		<path class="st18" d="M168.2,58.2c-0.3-0.2-0.5-0.3-0.8-0.4c-0.1,0-0.2-0.1-0.3-0.1c-0.2-0.1-0.3-0.1-0.5-0.2c0,0-0.1,0-0.1,0
			c-0.1,0-0.1,0-0.2-0.1c-0.2-0.1-0.4-0.2-0.7-0.2c-0.1,0-0.1-0.1-0.2-0.1c-0.1,0-0.1,0-0.2,0c-0.1,0-0.2,0-0.3-0.1
			c-0.2-0.1-0.4-0.1-0.7-0.2c-0.1,0-0.1,0-0.2,0c-0.1,0-0.2,0-0.3,0c-0.2,0-0.4-0.1-0.6-0.1c-0.1,0-0.2,0-0.2,0c-0.1,0-0.2,0-0.3,0
			c-0.2,0-0.4,0-0.5-0.1c-0.1,0-0.2,0-0.3,0c-0.1,0-0.2,0-0.3,0c-0.2,0-0.4,0-0.6,0c-0.1,0-0.2,0-0.3,0c-0.1,0-0.1,0-0.2,0
			c-0.2,0-0.4,0-0.6,0c-0.1,0-0.2,0-0.3,0c-0.1,0-0.1,0-0.2,0c-0.3,0-0.5,0-0.8,0.1c-0.1,0-0.2,0-0.3,0c0,0-0.1,0-0.1,0
			c-0.1,0-0.2,0-0.2,0c-0.3,0-0.5,0.1-0.8,0.1c-0.1,0-0.1,0-0.2,0c0,0-0.1,0-0.1,0c-0.1,0-0.2,0-0.3,0.1c-0.2,0-0.4,0.1-0.6,0.1
			c-0.1,0-0.3,0.1-0.4,0.1c-0.2,0.1-0.4,0.1-0.6,0.2c0,0-0.1,0-0.1,0c-0.2,0.1-0.5,0.2-0.7,0.2c0,0-0.1,0-0.1,0
			c-0.2,0.1-0.5,0.2-0.7,0.3c-0.1,0-0.1,0.1-0.2,0.1c-0.3,0.1-0.5,0.3-0.8,0.4c0,0-0.1,0.1-0.1,0.1c0,0-0.1,0-0.1,0.1
			c-0.1,0-0.1,0.1-0.2,0.1c-0.1,0-0.1,0.1-0.2,0.1c-0.1,0-0.1,0.1-0.2,0.1c-0.1,0-0.1,0.1-0.2,0.1c-0.1,0-0.1,0.1-0.2,0.1
			c-0.1,0-0.1,0.1-0.1,0.1c-0.1,0.1-0.1,0.1-0.2,0.1c0,0,0,0-0.1,0.1c0,0,0,0-0.1,0.1c-0.1,0.1-0.2,0.2-0.3,0.3c0,0-0.1,0.1-0.1,0.1
			c-0.1,0.1-0.2,0.2-0.3,0.3c0,0,0,0,0,0l0,0l0,0l0,0c0,0,0,0-0.1,0.1c-0.1,0.1-0.1,0.1-0.2,0.2c0,0-0.1,0.1-0.1,0.1
			c0,0.1-0.1,0.1-0.1,0.2c0,0,0,0,0,0.1c0,0,0,0.1,0,0.1c0,0.1-0.1,0.1-0.1,0.2c0,0,0,0.1-0.1,0.1c0,0.1,0,0.1-0.1,0.2
			c0,0,0,0.1,0,0.1c0,0,0,0,0,0.1c0,0.1,0,0.1-0.1,0.2c0,0,0,0.1,0,0.1c0,0.1,0,0.1,0,0.2c0,0,0,0.1,0,0.1c0,0,0,0,0,0.1
			c0,0.1,0,0.1,0,0.2c0,0,0,0.1,0,0.1c0,0.1,0,0.1,0,0.2c0,0,0,0.1,0,0.1c0,0,0,0.1,0,0.1c0,0.5,0,1.1,0,1.6c0-0.1,0-0.1,0-0.2
			c0-0.1,0-0.1,0-0.2c0,0,0-0.1,0-0.1c0-0.1,0-0.1,0-0.2c0,0,0-0.1,0-0.1c0-0.1,0-0.1,0-0.2c0,0,0-0.1,0-0.1c0-0.1,0-0.1,0.1-0.2
			c0,0,0-0.1,0.1-0.1c0-0.1,0-0.1,0.1-0.2c0,0,0-0.1,0.1-0.1c0-0.1,0.1-0.1,0.1-0.2c0,0,0-0.1,0.1-0.1c0-0.1,0.1-0.1,0.1-0.2
			c0,0,0.1-0.1,0.1-0.1c0-0.1,0.1-0.1,0.1-0.2c0,0,0-0.1,0.1-0.1c0.1-0.1,0.2-0.2,0.3-0.3c0,0,0.1-0.1,0.1-0.1
			c0.1-0.1,0.2-0.2,0.3-0.3c0,0,0.1-0.1,0.1-0.1c0.1,0,0.1-0.1,0.2-0.1c0,0,0.1-0.1,0.1-0.1c0.1,0,0.1-0.1,0.2-0.1
			c0.1,0,0.1-0.1,0.2-0.1c0.1,0,0.1-0.1,0.2-0.1c0.1,0,0.1-0.1,0.2-0.1c0.1,0,0.1-0.1,0.2-0.1c0.1-0.1,0.2-0.1,0.3-0.2
			c0.2-0.1,0.5-0.3,0.8-0.4c0.1,0,0.1-0.1,0.2-0.1c0.2-0.1,0.5-0.2,0.7-0.3c0,0,0.1,0,0.1,0c0.3-0.1,0.5-0.2,0.8-0.3
			c0.2-0.1,0.4-0.1,0.6-0.2c0.1,0,0.3-0.1,0.4-0.1c0.2-0.1,0.4-0.1,0.6-0.1c0.1,0,0.3-0.1,0.5-0.1c0.1,0,0.1,0,0.2,0
			c0.3,0,0.5-0.1,0.8-0.1c0.1,0,0.2,0,0.2,0c0.1,0,0.3,0,0.4,0c0.2,0,0.5,0,0.8-0.1c0.2,0,0.3,0,0.5,0c0.2,0,0.4,0,0.6,0
			c0.2,0,0.3,0,0.5,0c0.2,0,0.4,0,0.6,0c0.2,0,0.3,0,0.5,0c0.2,0,0.4,0,0.6,0.1c0.2,0,0.3,0,0.5,0.1c0.2,0,0.4,0.1,0.6,0.1
			c0.2,0,0.3,0.1,0.5,0.1c0.2,0.1,0.5,0.1,0.7,0.2c0.1,0,0.3,0.1,0.4,0.1c0.1,0,0.2,0,0.2,0.1c0.2,0.1,0.5,0.1,0.7,0.2
			c0.1,0,0.1,0,0.2,0.1c0.2,0.1,0.4,0.2,0.6,0.3c0.1,0,0.2,0.1,0.3,0.1c0.3,0.1,0.6,0.3,0.8,0.4c2.2,1.3,3.3,2.9,3.3,4.6
			c0-0.5,0-1.1,0-1.6C171.5,61.1,170.4,59.4,168.2,58.2z"/>
		<path class="st18" d="M187.4,69.2c-0.3-0.2-0.5-0.3-0.8-0.4c-0.1,0-0.2-0.1-0.3-0.1c-0.2-0.1-0.3-0.2-0.5-0.2c0,0-0.1,0-0.1,0
			c-0.1,0-0.1,0-0.2-0.1c-0.2-0.1-0.5-0.2-0.7-0.2c-0.1,0-0.2-0.1-0.2-0.1c-0.1,0-0.1,0-0.2,0c-0.1,0-0.2,0-0.3-0.1
			c-0.2-0.1-0.5-0.1-0.7-0.2c-0.1,0-0.1,0-0.2,0c-0.1,0-0.2,0-0.3,0c-0.2,0-0.4-0.1-0.6-0.1c-0.1,0-0.2,0-0.2,0c-0.1,0-0.2,0-0.3,0
			c-0.2,0-0.4,0-0.6-0.1c-0.1,0-0.2,0-0.3,0c-0.1,0-0.2,0-0.2,0c-0.2,0-0.4,0-0.6,0c-0.1,0-0.2,0-0.3,0c-0.1,0-0.2,0-0.2,0
			c-0.2,0-0.4,0-0.6,0c-0.1,0-0.2,0-0.3,0c-0.1,0-0.1,0-0.2,0c-0.3,0-0.5,0-0.8,0.1c-0.1,0-0.2,0-0.3,0c0,0-0.1,0-0.1,0
			c-0.1,0-0.2,0-0.2,0c-0.3,0-0.5,0.1-0.8,0.1c-0.1,0-0.1,0-0.2,0c0,0-0.1,0-0.1,0c-0.1,0-0.2,0-0.4,0.1c-0.2,0-0.4,0.1-0.6,0.1
			c-0.1,0-0.3,0.1-0.4,0.1c-0.2,0.1-0.4,0.1-0.6,0.2c0,0-0.1,0-0.1,0c-0.2,0.1-0.5,0.2-0.7,0.2c0,0-0.1,0-0.1,0
			c-0.2,0.1-0.5,0.2-0.7,0.3c-0.1,0-0.1,0.1-0.2,0.1c-0.3,0.1-0.5,0.3-0.8,0.4c0,0-0.1,0.1-0.1,0.1c0,0-0.1,0.1-0.1,0.1
			c-0.1,0-0.1,0.1-0.2,0.1c-0.1,0-0.1,0.1-0.2,0.1c-0.1,0-0.1,0.1-0.2,0.1c-0.1,0-0.1,0.1-0.2,0.1c-0.1,0-0.1,0.1-0.2,0.1
			c-0.1,0-0.1,0.1-0.2,0.1c-0.1,0-0.1,0.1-0.2,0.1c0,0,0,0-0.1,0.1c0,0,0,0-0.1,0.1c-0.1,0.1-0.2,0.2-0.2,0.2c0,0-0.1,0.1-0.1,0.1
			c-0.1,0.1-0.2,0.2-0.3,0.3c0,0,0,0,0,0c0,0,0,0.1-0.1,0.1c-0.1,0.1-0.1,0.1-0.2,0.2c0,0-0.1,0.1-0.1,0.1c0,0.1-0.1,0.1-0.1,0.2
			c0,0,0,0,0,0.1c0,0,0,0.1,0,0.1c0,0.1-0.1,0.1-0.1,0.2c0,0,0,0.1-0.1,0.1c0,0.1,0,0.1-0.1,0.2c0,0,0,0,0,0.1c0,0,0,0,0,0.1
			c0,0.1,0,0.1-0.1,0.2c0,0,0,0.1,0,0.1c0,0.1,0,0.1,0,0.2c0,0,0,0.1,0,0.1c0,0,0,0,0,0.1c0,0.1,0,0.1,0,0.2c0,0.1,0,0.1,0,0.1
			c0,0.1,0,0.1,0,0.2c0,0,0,0.1,0,0.1c0,0,0,0.1,0,0.1l0,1.6c0-0.1,0-0.1,0-0.2c0-0.1,0-0.1,0-0.2c0,0,0-0.1,0-0.1
			c0-0.1,0-0.1,0-0.2c0,0,0-0.1,0-0.1c0-0.1,0-0.1,0-0.2c0-0.1,0-0.1,0-0.1c0-0.1,0-0.1,0.1-0.2c0,0,0-0.1,0.1-0.1
			c0-0.1,0-0.1,0.1-0.2c0,0,0-0.1,0.1-0.1c0-0.1,0.1-0.1,0.1-0.2c0,0,0-0.1,0.1-0.1c0-0.1,0.1-0.1,0.1-0.2c0,0,0-0.1,0.1-0.1
			c0-0.1,0.1-0.1,0.2-0.2c0,0,0-0.1,0.1-0.1c0.1-0.1,0.2-0.2,0.3-0.3c0,0,0.1-0.1,0.1-0.1c0.1-0.1,0.2-0.2,0.3-0.3
			c0,0,0.1-0.1,0.1-0.1c0.1,0,0.1-0.1,0.2-0.1c0,0,0.1-0.1,0.1-0.1c0.1,0,0.1-0.1,0.2-0.1c0,0,0.1-0.1,0.2-0.1
			c0.1,0,0.1-0.1,0.2-0.1c0.1,0,0.1-0.1,0.2-0.1c0.1,0,0.1-0.1,0.2-0.1c0.1-0.1,0.2-0.1,0.2-0.1c0.2-0.1,0.5-0.3,0.8-0.4
			c0.1,0,0.1-0.1,0.2-0.1c0.2-0.1,0.5-0.2,0.7-0.3c0,0,0.1,0,0.1,0c0.3-0.1,0.5-0.2,0.8-0.3c0.2-0.1,0.4-0.1,0.6-0.2
			c0.1,0,0.3-0.1,0.4-0.1c0.2,0,0.4-0.1,0.6-0.1c0.2,0,0.3-0.1,0.4-0.1c0.1,0,0.1,0,0.2,0c0.3,0,0.5-0.1,0.8-0.1c0.1,0,0.1,0,0.2,0
			c0.2,0,0.3,0,0.5,0c0.2,0,0.5,0,0.7-0.1c0.2,0,0.3,0,0.5,0c0.2,0,0.4,0,0.6,0c0.2,0,0.3,0,0.5,0c0.2,0,0.4,0,0.6,0
			c0.2,0,0.4,0,0.5,0c0.2,0,0.4,0,0.5,0.1c0.2,0,0.3,0,0.5,0.1c0.2,0,0.4,0.1,0.6,0.1c0.2,0,0.3,0.1,0.5,0.1c0.2,0,0.5,0.1,0.7,0.2
			c0.1,0,0.3,0.1,0.5,0.1c0.1,0,0.1,0,0.2,0.1c0.2,0.1,0.5,0.1,0.7,0.2c0.1,0,0.1,0,0.2,0.1c0.2,0.1,0.4,0.2,0.6,0.2
			c0.1,0,0.2,0.1,0.3,0.1c0.3,0.1,0.6,0.3,0.8,0.4c2.2,1.3,3.3,2.9,3.3,4.6c0-0.5,0-1.1,0-1.6C190.7,72.1,189.6,70.5,187.4,69.2z"/>
		<path class="st18" d="M206.5,80.2c-0.3-0.2-0.5-0.3-0.8-0.4c-0.1,0-0.2-0.1-0.3-0.1c-0.2-0.1-0.3-0.1-0.5-0.2c0,0-0.1,0-0.1,0
			c-0.1,0-0.1,0-0.2-0.1c-0.2-0.1-0.5-0.2-0.7-0.2c-0.1,0-0.2,0-0.2-0.1c-0.1,0-0.1,0-0.2,0c-0.1,0-0.2,0-0.3-0.1
			c-0.2-0.1-0.5-0.1-0.7-0.2c-0.1,0-0.1,0-0.2,0c-0.1,0-0.2,0-0.3,0c-0.2,0-0.4-0.1-0.6-0.1c-0.1,0-0.2,0-0.2,0c-0.1,0-0.2,0-0.3,0
			c-0.2,0-0.4,0-0.6-0.1c-0.1,0-0.2,0-0.3,0c-0.1,0-0.2,0-0.2,0c-0.2,0-0.4,0-0.6,0c-0.1,0-0.2,0-0.3,0c-0.1,0-0.2,0-0.2,0
			c-0.2,0-0.4,0-0.6,0c-0.1,0-0.2,0-0.3,0c-0.1,0-0.1,0-0.2,0c-0.3,0-0.5,0-0.8,0c-0.1,0-0.2,0-0.3,0c0,0-0.1,0-0.1,0
			c-0.1,0-0.2,0-0.2,0c-0.3,0-0.5,0.1-0.8,0.1c-0.1,0-0.1,0-0.2,0c0,0-0.1,0-0.1,0c-0.1,0-0.2,0.1-0.4,0.1c-0.2,0-0.4,0.1-0.6,0.1
			c-0.2,0-0.3,0.1-0.4,0.1c-0.2,0.1-0.4,0.1-0.6,0.2c0,0-0.1,0-0.1,0c-0.2,0.1-0.5,0.2-0.7,0.2c0,0-0.1,0-0.1,0
			c-0.2,0.1-0.5,0.2-0.7,0.3c-0.1,0-0.1,0.1-0.2,0.1c-0.3,0.1-0.5,0.3-0.8,0.4c0,0-0.1,0.1-0.1,0.1c0,0-0.1,0.1-0.1,0.1
			c-0.1,0-0.1,0.1-0.2,0.1c-0.1,0-0.1,0.1-0.2,0.1c-0.1,0-0.1,0.1-0.2,0.1c-0.1,0-0.1,0.1-0.2,0.1c-0.1,0-0.1,0.1-0.2,0.1
			c-0.1,0-0.1,0.1-0.2,0.1c-0.1,0-0.1,0.1-0.2,0.1c0,0,0,0-0.1,0.1c0,0,0,0-0.1,0.1c-0.1,0.1-0.2,0.2-0.2,0.2c0,0-0.1,0.1-0.1,0.1
			c-0.1,0.1-0.2,0.2-0.3,0.3c0,0,0,0,0,0c0,0,0,0.1-0.1,0.1c-0.1,0.1-0.1,0.1-0.2,0.2c0,0-0.1,0.1-0.1,0.1c0,0.1-0.1,0.1-0.1,0.2
			c0,0,0,0,0,0.1c0,0,0,0.1,0,0.1c0,0.1-0.1,0.1-0.1,0.2c0,0,0,0.1-0.1,0.1c0,0.1,0,0.1-0.1,0.2c0,0,0,0.1,0,0.1c0,0,0,0,0,0.1
			c0,0.1,0,0.1,0,0.2c0,0.1,0,0.1,0,0.2c0,0.1,0,0.1,0,0.2c0,0,0,0.1,0,0.1c0,0,0,0,0,0.1c0,0.1,0,0.1,0,0.2c0,0,0,0.1,0,0.1
			c0,0.1,0,0.1,0,0.2c0,0,0,0.1,0,0.1c0,0,0,0.1,0,0.1l0,1.6c0-0.1,0-0.1,0-0.2c0-0.1,0-0.1,0-0.2c0,0,0-0.1,0-0.1
			c0-0.1,0-0.1,0-0.2c0,0,0-0.1,0-0.1c0-0.1,0-0.1,0-0.2c0,0,0-0.1,0-0.1c0-0.1,0-0.1,0.1-0.2c0,0,0-0.1,0.1-0.1
			c0-0.1,0-0.1,0.1-0.2c0,0,0-0.1,0.1-0.1c0-0.1,0.1-0.1,0.1-0.2c0,0,0.1-0.1,0.1-0.1c0-0.1,0.1-0.1,0.1-0.2c0,0,0.1-0.1,0.1-0.1
			c0-0.1,0.1-0.1,0.1-0.2c0,0,0.1-0.1,0.1-0.1c0.1-0.1,0.2-0.2,0.3-0.3c0,0,0.1-0.1,0.1-0.1c0.1-0.1,0.2-0.2,0.2-0.2
			c0,0,0.1-0.1,0.1-0.1c0.1,0,0.1-0.1,0.2-0.1c0.1,0,0.1-0.1,0.2-0.1c0.1,0,0.1-0.1,0.2-0.1c0.1,0,0.1-0.1,0.2-0.1
			c0.1,0,0.1-0.1,0.2-0.1c0.1,0,0.1-0.1,0.2-0.1c0.1,0,0.1-0.1,0.2-0.1c0.1-0.1,0.2-0.1,0.2-0.2c0.2-0.1,0.5-0.3,0.8-0.4
			c0.1,0,0.1-0.1,0.2-0.1c0.2-0.1,0.5-0.2,0.7-0.3c0,0,0.1,0,0.1,0c0.3-0.1,0.5-0.2,0.8-0.3c0.2-0.1,0.4-0.1,0.6-0.2
			c0.1,0,0.3-0.1,0.4-0.1c0.2,0,0.4-0.1,0.6-0.1c0.1,0,0.3-0.1,0.4-0.1c0.1,0,0.1,0,0.2,0c0.3,0,0.5-0.1,0.8-0.1c0.1,0,0.1,0,0.2,0
			c0.1,0,0.3,0,0.5,0c0.2,0,0.5,0,0.8,0c0.2,0,0.3,0,0.5,0c0.2,0,0.4,0,0.6,0c0.2,0,0.3,0,0.5,0c0.2,0,0.4,0,0.6,0
			c0.2,0,0.3,0,0.5,0c0.2,0,0.4,0,0.6,0.1c0.2,0,0.3,0,0.5,0.1c0.2,0,0.4,0.1,0.6,0.1c0.2,0,0.3,0.1,0.5,0.1
			c0.2,0.1,0.5,0.1,0.7,0.2c0.1,0,0.3,0.1,0.4,0.1c0.1,0,0.2,0.1,0.2,0.1c0.2,0.1,0.5,0.1,0.7,0.2c0.1,0,0.1,0,0.2,0.1
			c0.2,0.1,0.4,0.2,0.6,0.2c0.1,0,0.2,0.1,0.3,0.1c0.3,0.1,0.6,0.3,0.8,0.4c2.2,1.3,3.3,2.9,3.3,4.6c0-0.5,0-1.1,0-1.6
			C209.8,83.2,208.7,81.5,206.5,80.2z"/>
		<g>
			<path class="st19" d="M144.6,36.1L225.8,83l-30.1,17.5l-81.3-46.9L144.6,36.1z M190.8,89.4c4.4,2.5,11.4,2.5,15.8,0
				c4.3-2.5,4.3-6.6-0.1-9.1c-4.4-2.5-11.4-2.5-15.8,0C186.4,82.8,186.4,86.9,190.8,89.4L190.8,89.4z M133.4,56.3
				c4.4,2.5,11.4,2.5,15.8,0c4.3-2.5,4.3-6.6-0.1-9.1c-4.4-2.5-11.4-2.5-15.8,0C129,49.6,129,53.7,133.4,56.3L133.4,56.3z
				 M171.6,78.3c4.4,2.5,11.4,2.5,15.8,0c4.3-2.5,4.3-6.6,0-9.1c-4.4-2.5-11.4-2.5-15.8,0C167.2,71.7,167.3,75.8,171.6,78.3
				L171.6,78.3z M152.5,67.3c4.4,2.5,11.4,2.5,15.8,0c4.3-2.5,4.3-6.6-0.1-9.1c-4.4-2.5-11.4-2.5-15.8,0
				C148.1,60.7,148.1,64.8,152.5,67.3L152.5,67.3z"/>
		</g>
		<g>
			<g>
				<polygon class="st21" points="195.7,129.1 195.7,130.7 114.5,83.8 114.5,82.2 				"/>
			</g>
			<g>
				<polygon class="st18" points="225.8,111.6 225.8,113.2 195.7,130.7 195.7,129.1 				"/>
			</g>
			<path class="st19" d="M195.7,129.1l13.6-7.9l-4.3-2.5c-4.3,1.8-10.4,1.5-14.3-0.7c-1.8-1.1-2.9-2.4-3.2-3.8
				c-0.1-0.3-0.1-0.7-0.1-1c0-0.1,0-0.1,0-0.2c0,0,0-0.1,0-0.1c0-0.1,0-0.1,0-0.2c0,0,0-0.1,0-0.2c0-0.1,0-0.1,0-0.2
				c0,0,0-0.1,0-0.1c0-0.1,0-0.2,0.1-0.2c0-0.1,0-0.1,0.1-0.2c0-0.1,0-0.1,0.1-0.2c0,0,0,0,0-0.1c0-0.1,0.1-0.2,0.1-0.2
				c0,0,0.1-0.1,0.1-0.1c0.1-0.2,0.2-0.4,0.4-0.5c0,0,0-0.1,0.1-0.1c0.1-0.1,0.2-0.2,0.3-0.3c0,0,0.1-0.1,0.1-0.1
				c0.1-0.1,0.2-0.2,0.2-0.2c0,0,0.1-0.1,0.1-0.1c0,0,0.1-0.1,0.2-0.1c0,0,0,0,0.1,0l-3.6-2.1c-4.3,1.8-10.4,1.5-14.3-0.7
				c-1.8-1.1-2.9-2.4-3.2-3.8c-0.1-0.3-0.1-0.7-0.1-1c0-0.1,0-0.1,0-0.2c0,0,0-0.1,0-0.1c0-0.1,0-0.1,0-0.2c0-0.1,0-0.1,0-0.1
				c0-0.1,0-0.1,0-0.2c0,0,0-0.1,0-0.1c0-0.1,0-0.1,0.1-0.2c0,0,0-0.1,0.1-0.2c0-0.1,0-0.1,0.1-0.2c0,0,0,0,0-0.1
				c0-0.1,0.1-0.2,0.1-0.2c0,0,0.1-0.1,0.1-0.1c0-0.1,0.1-0.1,0.1-0.2c0,0,0,0,0-0.1c0.1-0.1,0.1-0.2,0.2-0.3c0,0,0-0.1,0.1-0.1
				c0.1-0.1,0.2-0.2,0.3-0.3c0,0,0.1-0.1,0.1-0.1c0.1-0.1,0.2-0.2,0.2-0.2c0,0,0.1-0.1,0.1-0.1c0.1,0,0.1-0.1,0.2-0.1
				c0,0,0,0,0.1-0.1l-3.6-2.1c-4.3,1.8-10.4,1.5-14.3-0.7c-1.8-1.1-2.9-2.4-3.2-3.8c-0.1-0.3-0.1-0.7-0.1-1c0-0.1,0-0.1,0-0.2
				c0,0,0-0.1,0-0.1c0-0.1,0-0.1,0-0.2c0,0,0-0.1,0-0.2c0-0.1,0-0.1,0-0.2c0,0,0-0.1,0-0.1c0-0.1,0-0.1,0.1-0.2c0-0.1,0-0.1,0.1-0.1
				c0-0.1,0-0.1,0.1-0.2c0,0,0,0,0-0.1c0-0.1,0.1-0.2,0.1-0.2c0,0,0-0.1,0.1-0.1c0-0.1,0.1-0.1,0.1-0.2c0,0,0,0,0,0
				c0.1-0.1,0.2-0.2,0.2-0.3c0,0,0,0,0.1-0.1c0.1-0.1,0.2-0.2,0.3-0.3c0,0,0,0,0.1-0.1c0.1-0.1,0.2-0.2,0.3-0.3c0,0,0.1-0.1,0.1-0.1
				c0.1,0,0.1-0.1,0.2-0.1c0,0,0,0,0.1,0l-3.6-2.1c-4.3,1.8-10.4,1.5-14.3-0.7c-1.8-1.1-2.9-2.4-3.2-3.8c-0.1-0.3-0.1-0.7-0.1-1
				c0-0.1,0-0.1,0-0.2c0,0,0-0.1,0-0.1c0-0.1,0-0.1,0-0.2c0,0,0-0.1,0-0.2c0-0.1,0-0.1,0-0.2c0,0,0,0,0-0.1c0-0.1,0-0.2,0.1-0.2
				c0,0,0-0.1,0.1-0.1c0-0.1,0-0.1,0.1-0.2c0,0,0,0,0-0.1c0-0.1,0.1-0.2,0.1-0.2c0,0,0-0.1,0.1-0.1c0.1-0.2,0.2-0.4,0.4-0.6
				c0,0,0-0.1,0.1-0.1c0.1-0.1,0.2-0.2,0.3-0.3c0,0,0.1-0.1,0.1-0.1c0.1-0.1,0.2-0.2,0.3-0.2c0,0,0.1-0.1,0.1-0.1
				c0.1-0.1,0.1-0.1,0.2-0.1c0,0,0,0,0.1-0.1l-4-2.3l-13.6,7.9L195.7,129.1z"/>
		</g>
		<g>
			<g class="st20">
				<g>
					<polygon class="st23" points="115.9,83 114.5,82.2 114.4,53.8 115.8,54.6 					"/>
				</g>
				<g>
					<polygon class="st22" points="115.8,54.6 114.4,53.8 117.2,52.2 118.6,53 					"/>
				</g>
				<g>
					<polygon class="st24" points="118.6,53 118.7,81.4 115.9,83 115.8,54.6 					"/>
				</g>
			</g>
		</g>
		<g>
			<g class="st20">
				<g>
					<polygon class="st24" points="223.1,113.2 221.7,112.4 221.6,85.5 223,84.9 					"/>
				</g>
				<g>
					<polygon class="st25" points="225.8,83.3 225.8,111.6 223.1,113.2 223,84.9 					"/>
				</g>
			</g>
		</g>
		<g>
			<path class="st26" d="M166.7,88.3c0,4.1-3.3,7.5-7.5,7.5h-0.3c-4.1,0-7.5-3.3-7.5-7.5V37.1c0-4.1,3.4-7.5,7.5-7.5h0.3
				c4.1,0,7.5,3.3,7.5,7.5V88.3z"/>
			<path class="st27" d="M166.7,88.3c0,4.1-3.3,7.5-7.5,7.5h-0.3c-4.1,0-7.5-3.3-7.5-7.5V37.1c0-4.1,3.4-7.5,7.5-7.5h0.3
				c4.1,0,7.5,3.3,7.5,7.5V88.3z"/>
			<rect x="150.6" y="32.3" class="st28" width="17" height="3.3"/>
			<g>
				<path class="st29" d="M163.7,51.5c2.6,1.5,2.6,3.9,0,5.4c-2.6,1.5-6.7,1.5-9.3,0c-2.6-1.5-2.6-3.9,0-5.4
					C157,50,161.1,50,163.7,51.5z"/>
			</g>
			<path class="st30" d="M163.7,56.9c-2.6,1.5-6.7,1.5-9.3,0c-1.1-0.7-1.8-1.5-1.9-2.3v33.2c0,3.5,2.9,6.4,6.4,6.4h0.3
				c3.6,0,6.4-2.9,6.4-6.4V54.6C165.5,55.5,164.9,56.3,163.7,56.9z"/>
			<path class="st30" d="M152.5,54.6v-0.8C152.5,54.1,152.5,54.4,152.5,54.6z"/>
			<path class="st30" d="M165.6,53.8v0.8C165.7,54.4,165.7,54.1,165.6,53.8z"/>
			<path class="st31" d="M151.4,37.1v51.2c0,1.5,0.5,2.9,1.2,4.1c4.1,0,7.5-3.3,7.5-7.5V33.7c0-1.5-0.5-2.9-1.2-4.1
				C154.8,29.6,151.4,32.9,151.4,37.1z"/>
			<path class="st32" d="M160,29.6c2.1,1.3,3.4,3.7,3.4,6.3v51.2c0,4.1-3.3,7.5-7.5,7.5h-0.3c-0.3,0-0.5,0-0.8,0
				c1.2,0.8,2.6,1.2,4.1,1.2h0.3c4.1,0,7.5-3.3,7.5-7.5V37.1C166.7,33.2,163.8,30,160,29.6z"/>
			<g>
				<path class="st28" d="M165.1,31.9c3.3,1.9,3.3,5,0,7c-3.3,1.9-8.7,1.9-12,0c-3.3-1.9-3.3-5,0-7C156.3,30,161.7,30,165.1,31.9z"
					/>
			</g>
			<g>
				<path class="st33" d="M165.1,28.7c3.3,1.9,3.3,5,0,7c-3.3,1.9-8.7,1.9-12,0c-3.3-1.9-3.3-5,0-7
					C156.3,26.8,161.7,26.8,165.1,28.7z"/>
			</g>
			<g>
				<path class="st34" d="M164.3,29.2c2.9,1.7,2.9,4.4,0,6.1c-2.9,1.7-7.6,1.7-10.5,0c-2.9-1.7-2.9-4.4,0-6.1
					C156.7,27.5,161.4,27.5,164.3,29.2z"/>
			</g>
			<path class="st27" d="M153.9,35.2c2.9,1.7,7.6,1.7,10.5,0c1.2-0.7,1.9-1.6,2.1-2.5c-0.4-0.6-1-1.1-1.8-1.6
				c-3.1-1.8-8.1-1.8-11.2,0c-0.8,0.4-1.3,0.9-1.7,1.5C151.9,33.6,152.6,34.5,153.9,35.2z"/>
		</g>
		<g>
			<path class="st26" d="M185.8,98.7c0,4.1-3.4,7.5-7.5,7.5H178c-4.1,0-7.5-3.3-7.5-7.5V47.5c0-4.1,3.3-7.5,7.5-7.5h0.3
				c4.1,0,7.5,3.4,7.5,7.5V98.7z"/>
			<path class="st27" d="M185.8,98.7c0,4.1-3.4,7.5-7.5,7.5H178c-4.1,0-7.5-3.3-7.5-7.5V47.5c0-4.1,3.3-7.5,7.5-7.5h0.3
				c4.1,0,7.5,3.4,7.5,7.5V98.7z"/>
			<rect x="169.6" y="42.7" class="st28" width="17" height="3.3"/>
			<g>
				<path class="st29" d="M182.8,62c2.6,1.5,2.6,3.9,0,5.4c-2.6,1.5-6.7,1.5-9.3,0c-2.6-1.5-2.6-3.9,0-5.4
					C176,60.5,180.2,60.5,182.8,62z"/>
			</g>
			<path class="st30" d="M182.8,67.4c-2.6,1.5-6.7,1.5-9.3,0c-1.1-0.6-1.8-1.5-1.9-2.3v33.2c0,3.5,2.9,6.4,6.4,6.4h0.3
				c3.6,0,6.4-2.9,6.4-6.4V65.1C184.5,65.9,183.9,66.7,182.8,67.4z"/>
			<path class="st30" d="M171.6,65v-0.8C171.5,64.5,171.5,64.8,171.6,65z"/>
			<path class="st30" d="M184.7,64.3v0.8C184.7,64.8,184.7,64.5,184.7,64.3z"/>
			<path class="st31" d="M170.5,47.5v51.2c0,1.5,0.5,2.9,1.2,4.1c4.1,0,7.5-3.3,7.5-7.5V44.1c0-1.5-0.5-2.9-1.2-4.1
				C173.8,40,170.5,43.4,170.5,47.5z"/>
			<path class="st32" d="M179.1,40.1c2.1,1.3,3.4,3.6,3.4,6.3v51.2c0,4.1-3.4,7.5-7.5,7.5h-0.3c-0.3,0-0.5,0-0.8,0
				c1.2,0.8,2.6,1.2,4,1.2h0.3c4.1,0,7.5-3.3,7.5-7.5V47.5C185.8,43.6,182.8,40.4,179.1,40.1z"/>
			<g>
				<path class="st28" d="M184.1,42.4c3.3,1.9,3.3,5,0,7c-3.3,1.9-8.7,1.9-12,0c-3.3-1.9-3.3-5,0-7
					C175.4,40.4,180.8,40.4,184.1,42.4z"/>
			</g>
			<g>
				<path class="st33" d="M184.1,39.1c3.3,1.9,3.3,5,0,7c-3.3,1.9-8.7,1.9-12,0c-3.3-1.9-3.3-5,0-7
					C175.4,37.2,180.8,37.2,184.1,39.1z"/>
			</g>
			<g>
				<path class="st34" d="M183.4,39.6c2.9,1.7,2.9,4.4,0,6.1c-2.9,1.7-7.6,1.7-10.5,0c-2.9-1.7-2.9-4.4,0-6.1
					C175.8,37.9,180.5,37.9,183.4,39.6z"/>
			</g>
			<path class="st27" d="M172.9,45.7c2.9,1.7,7.6,1.7,10.5,0c1.2-0.7,1.9-1.6,2.1-2.5c-0.4-0.6-1-1.1-1.8-1.6
				c-3.1-1.8-8.1-1.8-11.2,0c-0.8,0.4-1.3,1-1.7,1.5C171,44,171.7,44.9,172.9,45.7z"/>
		</g>
		<g>
			<path class="st35" d="M188.2,97.6c4.6,2.7,4.6,7,0.1,9.7c-4.6,2.7-12.1,2.7-16.7,0c-4.6-2.7-4.6-7-0.1-9.7
				C176.1,94.9,183.5,94.9,188.2,97.6z"/>
			<g class="st36">
				<path class="st37" d="M188.3,92.7c4.7,2.7,4.7,7.1,0.1,9.8c-4.7,2.7-12.2,2.7-16.9,0c-4.7-2.7-4.7-7.1-0.1-9.8
					C176,90,183.6,90,188.3,92.7z"/>
			</g>
			<g class="st38">
				<path class="st39" d="M188.4,87.8c4.7,2.7,4.8,7.2,0.1,9.9c-4.7,2.7-12.4,2.7-17.1,0c-4.7-2.7-4.8-7.2-0.1-9.9
					C176,85.1,183.6,85.1,188.4,87.8z"/>
			</g>
			<g class="st40">
				<path class="st41" d="M188.5,83c4.8,2.8,4.8,7.3,0.1,10.1c-4.8,2.8-12.6,2.8-17.4,0c-4.8-2.8-4.8-7.3-0.1-10.1
					C175.9,80.2,183.7,80.2,188.5,83z"/>
			</g>
			<g class="st42">
				<path class="st43" d="M188.6,78.1c4.9,2.8,4.9,7.4,0.1,10.2c-4.8,2.8-12.7,2.8-17.6,0c-4.9-2.8-4.9-7.4-0.1-10.2
					C175.9,75.3,183.7,75.3,188.6,78.1z"/>
			</g>
			<g class="st44">
				<path class="st45" d="M188.7,73.2c4.9,2.9,5,7.5,0.1,10.3c-4.9,2.9-12.9,2.9-17.8,0c-4.9-2.9-5-7.5-0.1-10.3
					C175.8,70.4,183.8,70.4,188.7,73.2z"/>
			</g>
			<g class="st46">
				<path class="st47" d="M188.8,68.4c5,2.9,5,7.6,0.1,10.5c-5,2.9-13.1,2.9-18.1,0c-5-2.9-5-7.6-0.1-10.5
					C175.7,65.5,183.8,65.5,188.8,68.4z"/>
			</g>
		</g>
		<g>
			<path class="st35" d="M169.1,86.8c4.6,2.7,4.6,7,0.1,9.7c-4.6,2.7-12.1,2.7-16.7,0c-4.6-2.7-4.6-7-0.1-9.7
				C157,84.1,164.5,84.1,169.1,86.8z"/>
			<g class="st36">
				<path class="st37" d="M169.2,81.9c4.7,2.7,4.7,7.1,0.1,9.8c-4.7,2.7-12.2,2.7-16.9,0c-4.7-2.7-4.7-7.1-0.1-9.8
					C157,79.2,164.5,79.2,169.2,81.9z"/>
			</g>
			<g class="st38">
				<path class="st39" d="M169.3,77c4.7,2.7,4.8,7.2,0.1,9.9c-4.7,2.7-12.4,2.7-17.1,0c-4.7-2.7-4.8-7.2-0.1-9.9
					C156.9,74.3,164.6,74.3,169.3,77z"/>
			</g>
			<g class="st40">
				<path class="st41" d="M169.4,72.2c4.8,2.8,4.8,7.3,0.1,10.1c-4.8,2.8-12.6,2.8-17.4,0c-4.8-2.8-4.8-7.3-0.1-10.1
					C156.8,69.4,164.6,69.4,169.4,72.2z"/>
			</g>
			<g class="st42">
				<path class="st43" d="M169.6,67.3c4.9,2.8,4.9,7.4,0.1,10.2c-4.8,2.8-12.7,2.8-17.6,0c-4.9-2.8-4.9-7.4-0.1-10.2
					C156.8,64.5,164.7,64.5,169.6,67.3z"/>
			</g>
			<g class="st44">
				<path class="st45" d="M169.7,62.4c4.9,2.9,5,7.5,0.1,10.3c-4.9,2.9-12.9,2.9-17.8,0c-4.9-2.9-5-7.5-0.1-10.3
					C156.7,59.6,164.7,59.6,169.7,62.4z"/>
			</g>
			<g class="st46">
				<path class="st47" d="M169.8,57.6c5,2.9,5,7.6,0.1,10.5c-5,2.9-13.1,2.9-18.1,0c-5-2.9-5-7.6-0.1-10.5
					C156.7,54.7,164.8,54.7,169.8,57.6z"/>
			</g>
		</g>
		<g>
			<g class="st20">
				<g>
					<polygon class="st21" points="195.8,129.2 194.4,128.4 194.3,100.1 195.7,100.9 					"/>
				</g>
				<g>
					<polygon class="st22" points="195.7,100.9 194.3,100.1 197.1,98.4 198.5,99.3 					"/>
				</g>
				<g>
					<polygon class="st18" points="198.5,99.3 198.6,127.6 195.8,129.2 195.7,100.9 					"/>
				</g>
			</g>
		</g>
		<g>
			<g>
				<polygon class="st21" points="195.7,100.5 195.7,102.1 114.5,55.2 114.5,53.6 				"/>
			</g>
			<g>
				<polygon class="st18" points="225.8,83 225.8,84.6 195.7,102.1 195.7,100.5 				"/>
			</g>
			<path class="st19" d="M195.7,100.5l13.6-7.9l-4.3-2.5c-4.3,1.8-10.4,1.5-14.3-0.7c-1.8-1.1-2.9-2.4-3.2-3.8
				c-0.1-0.3-0.1-0.7-0.1-1c0-0.1,0-0.1,0-0.2c0,0,0-0.1,0-0.1c0-0.1,0-0.1,0-0.2c0-0.1,0-0.1,0-0.2c0-0.1,0-0.1,0-0.2
				c0,0,0-0.1,0-0.1c0-0.1,0-0.2,0.1-0.2c0-0.1,0-0.1,0.1-0.2c0-0.1,0-0.1,0.1-0.2c0,0,0,0,0-0.1c0-0.1,0.1-0.2,0.1-0.3
				c0,0,0.1-0.1,0.1-0.1c0.1-0.2,0.2-0.4,0.4-0.5c0,0,0-0.1,0.1-0.1c0.1-0.1,0.2-0.2,0.3-0.3c0,0,0.1-0.1,0.1-0.1
				c0.1-0.1,0.2-0.2,0.2-0.2c0,0,0.1-0.1,0.1-0.1c0,0,0.1-0.1,0.2-0.1c0,0,0,0,0.1-0.1l-3.6-2c-4.3,1.8-10.4,1.5-14.3-0.7
				c-1.8-1.1-2.9-2.4-3.2-3.8c-0.1-0.3-0.1-0.7-0.1-1c0-0.1,0-0.1,0-0.2c0,0,0-0.1,0-0.1c0-0.1,0-0.1,0-0.2c0,0,0-0.1,0-0.1
				c0-0.1,0-0.1,0-0.2c0,0,0-0.1,0-0.1c0-0.1,0-0.1,0.1-0.2c0,0,0-0.1,0.1-0.1c0-0.1,0-0.1,0.1-0.2c0,0,0,0,0-0.1
				c0-0.1,0.1-0.2,0.1-0.2c0,0,0.1-0.1,0.1-0.1c0-0.1,0.1-0.1,0.1-0.2c0,0,0,0,0-0.1c0.1-0.1,0.1-0.2,0.2-0.3c0,0,0-0.1,0.1-0.1
				c0.1-0.1,0.2-0.2,0.3-0.3c0,0,0.1-0.1,0.1-0.1c0.1-0.1,0.2-0.2,0.2-0.2c0,0,0.1-0.1,0.1-0.1c0.1,0,0.1-0.1,0.2-0.1
				c0,0,0,0,0.1-0.1l-3.6-2.1c-4.3,1.8-10.4,1.5-14.3-0.7c-1.8-1.1-2.9-2.4-3.2-3.8c-0.1-0.3-0.1-0.7-0.1-1c0-0.1,0-0.1,0-0.2
				c0,0,0-0.1,0-0.1c0-0.1,0-0.1,0-0.2c0,0,0-0.1,0-0.1c0-0.1,0-0.1,0-0.2c0,0,0-0.1,0-0.1c0-0.1,0-0.1,0.1-0.2c0,0,0-0.1,0.1-0.1
				c0-0.1,0-0.1,0.1-0.2c0,0,0,0,0-0.1c0-0.1,0.1-0.2,0.1-0.2c0,0,0-0.1,0.1-0.1c0-0.1,0.1-0.1,0.1-0.2c0,0,0,0,0,0
				c0.1-0.1,0.2-0.2,0.2-0.3c0,0,0,0,0.1-0.1c0.1-0.1,0.2-0.2,0.3-0.3c0,0,0,0,0.1-0.1c0.1-0.1,0.2-0.2,0.3-0.3c0,0,0.1-0.1,0.1-0.1
				c0.1,0,0.1-0.1,0.2-0.1c0,0,0,0,0.1-0.1l-3.6-2.1c-4.3,1.8-10.4,1.5-14.3-0.7c-1.8-1.1-2.9-2.4-3.2-3.8c-0.1-0.3-0.1-0.7-0.1-1
				c0-0.1,0-0.1,0-0.2c0,0,0-0.1,0-0.1c0-0.1,0-0.1,0-0.2c0-0.1,0-0.1,0-0.2c0-0.1,0-0.1,0-0.2c0,0,0,0,0-0.1c0-0.1,0-0.2,0.1-0.2
				c0,0,0-0.1,0.1-0.1c0-0.1,0-0.1,0.1-0.2c0,0,0-0.1,0-0.1c0-0.1,0.1-0.2,0.1-0.2c0,0,0-0.1,0.1-0.1c0.1-0.2,0.2-0.4,0.4-0.6
				c0,0,0-0.1,0.1-0.1c0.1-0.1,0.2-0.2,0.3-0.3c0,0,0.1-0.1,0.1-0.1c0.1-0.1,0.2-0.2,0.3-0.2c0,0,0.1-0.1,0.1-0.1
				c0.1,0,0.1-0.1,0.2-0.1c0,0,0,0,0.1,0l-4-2.3l-13.6,7.9L195.7,100.5z"/>
		</g>
	</g>
	<g>
		<g class="st40">
			<path class="st35" d="M221.6,132.5c-6.2,3.6-6.2,9.3-0.1,12.9c6.1,3.6,16.1,3.6,22.3,0c6.2-3.6,6.2-9.3,0.1-12.9
				C237.8,128.9,227.8,128.9,221.6,132.5z"/>
			<g class="st36">
				<path class="st37" d="M221.4,126c-6.3,3.6-6.3,9.5-0.1,13.1c6.2,3.6,16.3,3.6,22.6,0c6.3-3.6,6.3-9.5,0.1-13.1
					C237.8,122.4,227.7,122.4,221.4,126z"/>
			</g>
			<g class="st38">
				<path class="st39" d="M221.3,119.5c-6.3,3.7-6.4,9.6-0.1,13.3c6.3,3.7,16.6,3.7,22.9,0c6.3-3.7,6.4-9.6,0.1-13.3
					C237.9,115.8,227.6,115.8,221.3,119.5z"/>
			</g>
			<g class="st40">
				<path class="st41" d="M221.1,113c-6.4,3.7-6.5,9.7-0.1,13.5c6.4,3.7,16.8,3.7,23.2,0c6.4-3.7,6.5-9.7,0.1-13.5
					C238,109.3,227.6,109.3,221.1,113z"/>
			</g>
			<g class="st42">
				<path class="st43" d="M221,106.5c-6.5,3.8-6.6,9.9-0.1,13.6c6.5,3.8,17,3.8,23.5,0c6.5-3.8,6.6-9.9,0.1-13.6
					C238,102.7,227.5,102.7,221,106.5z"/>
			</g>
			<g class="st44">
				<path class="st45" d="M220.8,100c-6.6,3.8-6.6,10-0.1,13.8c6.6,3.8,17.2,3.8,23.8,0c6.6-3.8,6.6-10,0.1-13.8
					C238.1,96.2,227.4,96.2,220.8,100z"/>
			</g>
			<g class="st46">
				<path class="st47" d="M220.7,93.5c-6.7,3.9-6.7,10.1-0.1,14c6.7,3.9,17.5,3.9,24.2,0c6.7-3.9,6.7-10.1,0.1-14
					C238.2,89.6,227.4,89.6,220.7,93.5z"/>
			</g>
		</g>
		<g>
			<g>
				<path class="st15" d="M243.5,132.2c6.3,3.6,6.3,9.5,0.1,13.1c-6.2,3.6-16.4,3.6-22.7,0c-6.3-3.6-6.3-9.5-0.1-13.1
					C227,128.6,237.2,128.6,243.5,132.2z"/>
			</g>
			<path class="st48" d="M236.1,135.8c-0.1,0-4.4-0.1-3.5,1.4c0.6,1,1.5,1.1,2.1,1.2c0.6,0,1.8-0.3,2.1-0.2c0.3,0.2,1.8,1.1,2.6,0.2
				c0.2-0.2,0.3-0.8,0.2-1.1C239.5,136.9,236.5,135.7,236.1,135.8z"/>
			<path class="st49" d="M232.6,137.2c0.6,1,1.5,1.1,2.1,1.2c0.6,0,1.8-0.3,2.1-0.2c0.3,0.2,1.8,1.1,2.6,0.2
				c0.1-0.1,0.2-0.3,0.2-0.5c-0.6,0.8-2,0.6-2.4,0.3c-0.5-0.3-1.1-0.5-1.7-0.3c-0.6,0.1-1.8,0-2.4-0.6c-0.4-0.3-0.4-0.7-0.3-1
				C232.5,136.4,232.3,136.7,232.6,137.2z"/>
			<path class="st48" d="M229.8,138.6c-3.1-0.4-6.4,0.1-5.2,1.7c0.8,1,1.9,1.2,2.7,1.2c0.8,0,2.3-0.4,2.7-0.2
				c0.4,0.2,2.2,1.2,3.3,0.1c0.2-0.2,0.6-1.1,0.4-1.5C233.7,139.6,230.4,138.7,229.8,138.6z"/>
			<path class="st50" d="M239.2,103.2c0,0,2.3,4.6-0.1,10.8c0,0-1.9,5.3-1.4,7.1c0.5,2.1,1.2,1.5,1.7,8.6c0.5,6.2,0.4,5.2,0.3,7.5
				c0,0.7-2.9,1.3-3.4-0.5c-1.2-4.7-4.1-14.4-3.6-20.1c0.5-5.6,0.9-10.9,0.9-10.9S237.4,104.8,239.2,103.2z"/>
			<path class="st51" d="M236.4,105.9c0,0,1.4,4.9-2.3,10.3c0,0-2.8,6-2.4,8c0.4,2.1,1.1,1.9,1.8,8.3c0.5,4.1,0.7,5.1,0.4,7.7
				c-0.1,1-3.8,1.1-4.1-0.3c-0.8-4.7-4.3-14.9-3.8-20.6c0.5-5.6,1.7-12,1.7-12S234,107.2,236.4,105.9z"/>
			<path class="st49" d="M224.7,140.3c0.8,1,1.9,1.2,2.7,1.2c0.8,0,2.3-0.4,2.7-0.2c0.4,0.2,2.2,1.2,3.3,0.1
				c0.1-0.1,0.3-0.5,0.4-0.7c-0.8,0.9-2.7,0.8-3.2,0.5c-0.6-0.3-1.4-0.5-2.1-0.3c-0.7,0.1-2.3,0-3.1-0.6c-0.5-0.4-0.6-1-0.5-1.3
				C224.4,139.2,224.3,139.8,224.7,140.3z"/>
			<path class="st50" d="M226.2,119.3c-0.5,5.6,3,15.8,3.8,20.6c0.1,0.5,0.5,0.7,1.1,0.9c-0.9-4.5-3.2-15.8-3.6-17.4
				c-0.4-1.9-0.5-10.3,1.7-11c2.2-0.6,5.2-4.5,5.2-4.5s-0.4-0.5-1-1.1c-2.6,0.5-5.5,0.5-5.5,0.5S226.7,113.6,226.2,119.3z"/>
			<g>
				<path class="st52" d="M221.4,85c0,0-2.4-1.4-3.7-0.5c-1.3,0.9-1.4,1.3-0.6,1.4c0.8,0.1,2.8,0.3,2.6,0.6c-0.3,0.2-1,0.4-0.8,0.7
					c0.2,0.2,2.4-0.4,2.4-0.4l1.1-1.3L221.4,85z"/>
				<g>
					<path class="st49" d="M237.4,86.9c0,0,2.6-0.4,2.9,2.2c0.3,2.8-5.3,2.4-5.3,2.4s-4.8,0.1-6.4-0.3c-2.1-0.6-7.6-4-7.6-4
						s0.2-1.7,1.3-2.2c0,0,5.2,2.7,7.1,2.9C231.3,88.1,236.9,86.9,237.4,86.9z"/>
				</g>
			</g>
			<path class="st48" d="M227.8,104.7c0,0,0-0.1,0-0.1c0,0,0,0,0-0.1c0.4-4.1,0.5-8.1-0.1-11.5c0,0-0.6-3,4.4-4.8
				c5-1.8,8.1-1.7,8.2,1.1c0.1,2.8-1.2,6.5-1.4,7.8c-0.1,0.9-1,1.8,0,4.4c0.3,0.4,4,6.1,1.4,14.7c0,0-8.2,3.7-13.9-0.2
				C225.5,115.5,227.5,107.6,227.8,104.7z"/>
			<g>
				<path class="st26" d="M211.6,108.6c0,3.8,3.1,6.8,6.8,6.8h0.3c3.8,0,6.8-3.1,6.8-6.8V62c0-3.8-3.1-6.8-6.8-6.8h-0.3
					c-3.8,0-6.8,3.1-6.8,6.8V108.6z"/>
				<path class="st27" d="M211.6,108.6c0,3.8,3.1,6.8,6.8,6.8h0.3c3.8,0,6.8-3.1,6.8-6.8V62c0-3.8-3.1-6.8-6.8-6.8h-0.3
					c-3.8,0-6.8,3.1-6.8,6.8V108.6z"/>
				<rect x="210.8" y="57.6" class="st28" width="15.5" height="3"/>
				<g>
					<path class="st29" d="M214.3,75.1c-2.4,1.4-2.4,3.6,0,4.9c2.3,1.4,6.2,1.4,8.5,0c2.4-1.4,2.4-3.6,0-4.9
						C220.5,73.8,216.7,73.8,214.3,75.1z"/>
				</g>
				<path class="st30" d="M214.3,80.1c2.3,1.4,6.2,1.4,8.5,0c1-0.6,1.6-1.3,1.7-2.1v30.3c0,3.2-2.6,5.9-5.9,5.9h-0.3
					c-3.2,0-5.9-2.6-5.9-5.9V78C212.7,78.7,213.3,79.5,214.3,80.1z"/>
				<path class="st30" d="M224.5,78v-0.7C224.6,77.5,224.6,77.7,224.5,78z"/>
				<path class="st30" d="M212.5,77.3V78C212.5,77.7,212.5,77.5,212.5,77.3z"/>
				<path class="st31" d="M225.5,62v46.7c0,1.4-0.4,2.7-1.1,3.8c-3.8,0-6.8-3.1-6.8-6.8V58.9c0-1.4,0.4-2.7,1.1-3.8
					C222.5,55.1,225.5,58.2,225.5,62z"/>
				<path class="st32" d="M217.7,55.2c-1.9,1.2-3.1,3.3-3.1,5.7v46.7c0,3.8,3.1,6.8,6.8,6.8h0.3c0.2,0,0.5,0,0.7,0
					c-1.1,0.7-2.3,1.1-3.7,1.1h-0.3c-3.8,0-6.8-3.1-6.8-6.8V62C211.6,58.4,214.3,55.5,217.7,55.2z"/>
				<g>
					<path class="st28" d="M213.1,57.3c-3,1.8-3,4.6,0,6.3c3,1.7,7.9,1.7,10.9,0c3-1.8,3-4.6,0-6.3C221,55.5,216.1,55.5,213.1,57.3z
						"/>
				</g>
				<g>
					<path class="st33" d="M213.1,54.3c-3,1.8-3,4.6,0,6.3c3,1.8,7.9,1.8,10.9,0c3-1.8,3-4.6,0-6.3C221,52.6,216.1,52.6,213.1,54.3z
						"/>
				</g>
				<g>
					<path class="st34" d="M213.7,54.7c-2.6,1.5-2.7,4,0,5.5c2.6,1.5,6.9,1.5,9.6,0c2.7-1.5,2.7-4,0-5.5
						C220.7,53.2,216.4,53.2,213.7,54.7z"/>
				</g>
				<path class="st27" d="M223.3,60.3c-2.6,1.5-6.9,1.5-9.6,0c-1.1-0.6-1.7-1.4-1.9-2.3c0.4-0.5,0.9-1,1.6-1.5
					c2.8-1.6,7.4-1.6,10.2,0c0.7,0.4,1.2,0.9,1.6,1.4C225.1,58.8,224.4,59.6,223.3,60.3z"/>
			</g>
			<g>
				<path class="st52" d="M216.9,101.2c0,0-2.7,0.6-3.7-0.7c-0.9-1.3-0.9-1.7-0.1-1.5c0.8,0.2,2.8,0.6,2.6,0.3
					c-0.2-0.3-0.8-0.7-0.5-0.9c0.3-0.2,2.1,1.1,2.1,1.1l0.6,1.6L216.9,101.2z"/>
				<g>
					<path class="st53" d="M229.1,90.2c0,0,1.6-2.1,3.6-0.2c2.1,2-2.2,5.5-2.2,5.5s-3.4,3.3-4.8,4c-1.9,0.9-8.1,2-8.1,2
						s-1-1.4-0.5-2.6c0,0,5.5-1.4,7-2.5C225.5,95.2,228.7,90.5,229.1,90.2z"/>
				</g>
			</g>
			<g>
				<path class="st52" d="M234.1,84.4c0,0,0.4,2.1-0.7,3.4c-0.6,0.7,1.6,1.5,3.4,0.7c0,0,0.4-3.6,1.8-4.8L234.1,84.4z"/>
				<path class="st54" d="M234.1,86c0,0,1.3-0.1,2-0.5l0.1,0.1l0.6-0.4l0,0.7c0,0-0.5,2.2-3.2,1.6C233.7,87.4,234,86.8,234.1,86z"/>
				<path class="st52" d="M234.1,76.5c0,0-1.7,0.3-2.3,2.9c-0.5,2.5-1.4,4.6-0.3,5.8c1.2,1.2,5.9,1.2,7.6-2
					C240.9,80.1,238.9,75.3,234.1,76.5z"/>
				<path class="st55" d="M231.3,79c0,0.4,0.2,1.3,1,1.6c1.1,0.5,2.6-0.1,2.7,0.7c0.1,0.8,0.2,1.3,1.9,4.5c0.9,1.8-0.5,3.4,1.6,0.8
					c0.7-0.9,2.9-5.3,1.5-8.6c0,0-1.1-2.5-4.2-2.3C235.7,75.8,231.2,75.8,231.3,79z"/>
				<path class="st52" d="M235.7,84c-0.6,0.5-1.3,0.6-1.7,0.2c-0.3-0.4-0.1-1.2,0.5-1.7c0.6-0.5,1.3-0.6,1.7-0.2
					C236.5,82.7,236.3,83.4,235.7,84z"/>
				<path class="st55" d="M237.1,86.6c0,0-0.6,1.6-1.2,3.1c-0.6,1.6-0.6,6,0.6,7.8c0,0,3.5-5,2.2-10.8L237.1,86.6z"/>
				<path class="st56" d="M239,86.4c0,0.3-0.5,0.4-1.1,0.4c-0.6,0-1.1-0.3-1-0.5c0-0.3,0.5-0.4,1.1-0.4
					C238.5,85.9,239,86.1,239,86.4z"/>
			</g>
		</g>
	</g>
	<g>
		<g>
			<path class="st34" d="M115.1,71.4c0,0,0.4,1.9-0.9,2.1c-1.3,0.2-1.2-0.6-3.8,0.8c-2.7,1.3-4.6,0.1-4.8-0.4
				c-0.2-0.3,0.2-2.2,5.8-3.6L115.1,71.4z"/>
			<path class="st28" d="M114.2,73.5c-1.3,0.2-1.2-0.6-3.8,0.8c-2.7,1.3-4.6,0.1-4.8-0.4c0-0.1,0-0.1,0-0.2c1.9,1.2,3.3,0.4,4.4-0.1
				c1.1-0.5,2-0.6,3.5-0.6c1.5,0,1.3-1.2,1.3-1.2c0.1-0.1,0.3-0.1,0.4,0C115.2,72.3,115.2,73.3,114.2,73.5z"/>
			<path class="st57" d="M130.9,51.8c0,0-2.1-0.9-3.1-2.6c0,0-11.6,4.6-12.8,6.5c-1.2,1.8-3.7,11-4.5,14.8c-0.3,1.3,4.7,3.3,5.1,1.6
				c1-3.8,3.9-12.6,3.9-12.6S131.3,58,130.9,51.8z"/>
		</g>
		<g>
			<path class="st34" d="M122.9,77.9c0,0,0.7,1.8-0.6,2.2c-1.3,0.4-1.2-0.4-3.7,1.2c-2.5,1.7-4.5,0.7-4.8,0.3
				c-0.2-0.3-0.1-2.2,5.3-4.3L122.9,77.9z"/>
			<path class="st28" d="M122.2,80.1c-1.3,0.4-1.2-0.4-3.7,1.3c-2.5,1.7-4.5,0.7-4.8,0.2c0,0-0.1-0.1-0.1-0.2c2.1,1,3.4,0,4.4-0.6
				c1.1-0.7,1.9-0.9,3.4-1c1.5-0.2,1.1-1.4,1.1-1.4c0.1-0.1,0.3-0.1,0.4-0.1C123.1,78.8,123.2,79.8,122.2,80.1z"/>
			<path class="st58" d="M137.1,50.7c0,0,1.4,4.9-2.3,7.2c-3.7,2.3-10.1,5.4-10.1,5.4s0,3.2-0.6,8.7c-0.6,4.9-0.3,4.6-0.9,6.5
				c-0.4,1.2-5,0.9-5-0.8c0-5,0.3-15.4,1.5-17.4c1.2-2,9-6.8,9-6.8l-0.7-3.3C127.8,50.2,133.5,52.3,137.1,50.7z"/>
			<path class="st57" d="M134.8,57.9c-3.7,2.3-10.1,5.4-10.1,5.4s0,3.2-0.6,8.7c-0.6,4.9-0.3,4.6-0.9,6.5c-0.1,0.3-0.6,0.6-1.1,0.7
				c0.2-3.6,0.5-11.1,0.4-14.1c-0.1-3.9,6.7-5.7,10.4-7.8c3.7-2.1,2.6-5,2.6-5l1.7-1.1C137.4,52.3,137.8,56,134.8,57.9z"/>
		</g>
		<g>
			<path class="st52" d="M116.7,43.7c0,0-0.6-0.3-1.7-0.2c-1.2,0.1-1.4,0.4-2,0.7c-0.6,0.4-1,0.7-0.9,1c0.2,0.3,1.8,0.6,2.6,0.2
				c0.5-0.2,2.1,0.3,2.4,0.3C117.4,45.7,117.1,43.9,116.7,43.7z"/>
			<path class="st59" d="M117.1,45.7c-0.3,0.1-1.8-0.5-2.4-0.3c-0.6,0.3-1.6,0.2-2.2,0c0,0,0,0,0-0.1c0.1-0.2,0.6-0.1,0.9-0.3
				c0.3-0.1,1.2-0.2,1.8-0.4c0.6-0.2,1.8,0.3,1.8,0.3l0.1,0.1C117.2,45.4,117.2,45.7,117.1,45.7z"/>
			<path class="st53" d="M128.9,31.7c0,0-2.2-2-3.6,0.8c-0.9,1.9-1.8,8.9-2.4,9.6c-0.3,0.3-6.6,1.1-6.6,1.1s1.1,0.8,0.2,2.7
				c0,0,8.5,1.2,9.6-0.6C127.9,42.2,130.5,34.4,128.9,31.7z"/>
		</g>
		<path class="st48" d="M136.9,34c-0.2-0.2-8.8-3.6-9.7-2.9c-0.6,0.5-0.8,1.5-1.8,4.4c-0.5,1.5-0.7,3.2,0,4.7
			c1.4,3.1,1.2,4.6,1.1,5.5c-0.1,1.2-1.1,4.4-1.1,4.4s6.1,4.5,11.8,1.6c0,0,0.1,0.2-0.5-3.7C135.6,40.5,140,36.2,136.9,34z"/>
		<path class="st60" d="M126.5,45.6c0.1-0.8,0.3-2.4-1.1-5.5c-0.7-1.6-0.5-3.2,0-4.7c1-2.9,1.2-3.9,1.8-4.4c0.9-0.7,9.5,2.8,9.7,2.9
			c3.1,2.2-1.2,6.3-0.2,14c0.4,3.2,3.6,7.9-4.5,13.5c0,0-3.6-0.6-7.7-3.3c0,0-3.7-3.5-5.1-5.4C119.4,52.8,125.6,49.9,126.5,45.6z"/>
		<path class="st61" d="M132.2,34.2c0,0-2.4,2.5-3,9.3c0,0-0.1-7.6,0.8-9.6L132.2,34.2z"/>
		<path class="st53" d="M133.7,32.7l1.8,0.7c0,0-3.1,3.2-3.2,4.3l-0.8-0.4l0.8,2.4c0,0-2.1,5.9-2.1,8.6c0,2.7-3.8,8.9-5.2,10
			c0,0,4.5-9.4,4.2-12.6C128.9,42.6,130.5,34.4,133.7,32.7z"/>
		<path class="st53" d="M130.4,32l-1.7-0.9l-1.1,5.1l1.1,0.2l-1.6,2.6c0,0,2.3,8.4,0.8,12.2c0,0,1.4-2.6,1.3-7.6
			c-0.2-5,0.6-8.8,1-9.4C130.6,33.5,130.4,32,130.4,32z"/>
		<g>
			<path class="st62" d="M132.5,21.8c0,0,0.3-2.4,3.4-1.6c2.5,0.6,3,4.3,1.7,7.2c-1.5,3.4-1.8,6.3-1.8,6.3s-1.4-0.8-2.1-3.4
				C133,27.8,131.8,23.7,132.5,21.8z"/>
			<path class="st63" d="M132.9,21.9c0,0,0.4-0.8,1.4-0.6c1.3,0.3,1.3,1,1.1,1.5C135.1,23.3,132.9,21.9,132.9,21.9z"/>
			<g>
				<path class="st54" d="M129.9,30.1c0,0,0.4,2,0,3.1c-0.5,1.1,1.2,1.4,2,1.1c0.8-0.3,2-0.8,1.8-1.5c-0.2-0.7-0.9-2.9-0.4-3.8
					C133.8,28.3,129.9,30.1,129.9,30.1z"/>
				<path class="st52" d="M133.9,23.8c0,0,2.3,2.3,1.7,4.8c-0.3,1.3-1.9,2.2-2.8,2.9c-0.9,0.7-3.1,2.3-4,0.7c-0.9-1.6-2-6.3,0-8.3
					C130.8,21.8,133.9,23.8,133.9,23.8z"/>
				<path class="st64" d="M130,25c0,0,0.1,0.4,2.1,2c0.7,0.5,0.7,2.8,1.4,2.1c0.3-0.3,0.9-0.8,1-0.4c0.4,1.8-2.2,2.7-1,2.5
					c1-0.2,3.5-2,3.3-5.3c-0.1-2-2.1-4.6-5.7-3.8c-3,0.7-3.5,4-3.5,4S129.4,25.8,130,25z"/>
			</g>
		</g>
		<g>
			<g>
				<g class="st20">
					<g>
						<polygon class="st65" points="134.1,55.1 134,56 126.4,60.5 126.4,59.6 						"/>
					</g>
					<g>
						<polygon class="st56" points="126.4,59.6 126.4,60.5 114.7,53.7 114.7,52.9 						"/>
					</g>
					<g>
						<polygon class="st66" points="134.1,55.1 126.4,59.6 114.7,52.9 122.4,48.4 						"/>
					</g>
				</g>
			</g>
			<g>
				<g>
					<polygon class="st67" points="120.4,51.5 119.7,51.9 118.9,51.4 119.5,51 					"/>
				</g>
				<g>
					<polygon class="st67" points="122,50.5 121.4,50.9 120.5,50.4 121.2,50 					"/>
				</g>
				<g>
					<polygon class="st67" points="121.2,51 120.6,51.4 119.7,50.9 120.3,50.5 					"/>
				</g>
				<g>
					<polygon class="st67" points="123.2,50.5 122.9,50.7 121.4,49.9 121.7,49.7 					"/>
				</g>
				<g>
					<polygon class="st67" points="124.9,51.5 124.5,51.7 123.1,50.9 123.4,50.7 					"/>
				</g>
				<g>
					<polygon class="st67" points="129.9,54.4 129.6,54.6 128.1,53.8 128.5,53.6 					"/>
				</g>
				<g class="st20">
					<g>
						<polygon class="st67" points="123.2,51.2 122.5,51.6 121.7,51.1 122.3,50.7 						"/>
					</g>
					<g>
						<polygon class="st67" points="122.3,51.7 121.7,52 120.8,51.5 121.5,51.2 						"/>
					</g>
					<g>
						<polygon class="st67" points="124.3,51.8 123.6,52.2 122.8,51.7 123.4,51.3 						"/>
					</g>
					<g>
						<polygon class="st67" points="121.5,52.2 120.9,52.5 120,52 120.6,51.7 						"/>
					</g>
					<g>
						<polygon class="st67" points="126.6,52.5 126.2,52.7 124.8,51.8 125.1,51.6 						"/>
					</g>
					<g>
						<polygon class="st67" points="123.4,52.3 122.8,52.7 121.9,52.2 122.6,51.8 						"/>
					</g>
					<g>
						<polygon class="st67" points="125.4,52.5 124.8,52.8 123.9,52.3 124.5,52 						"/>
					</g>
					<g>
						<polygon class="st67" points="120.7,52.6 120.1,53 119.2,52.4 119.9,52.1 						"/>
					</g>
					<g>
						<polygon class="st67" points="122.6,52.8 122,53.2 121.1,52.7 121.7,52.3 						"/>
					</g>
					<g>
						<polygon class="st67" points="124.6,53 123.9,53.3 123.1,52.8 123.7,52.5 						"/>
					</g>
					<g>
						<polygon class="st67" points="126.5,53.1 125.9,53.5 125,53 125.7,52.6 						"/>
					</g>
					<g>
						<polygon class="st67" points="128.3,53.4 127.9,53.7 126.4,52.8 126.8,52.6 						"/>
					</g>
					<g>
						<polygon class="st67" points="123.7,53.4 123.1,53.8 122.2,53.3 122.9,52.9 						"/>
					</g>
					<g>
						<polygon class="st67" points="125.7,53.6 125.1,54 124.2,53.5 124.8,53.1 						"/>
					</g>
					<g>
						<polygon class="st67" points="127.7,53.8 127,54.1 126.1,53.6 126.8,53.3 						"/>
					</g>
					<g>
						<polygon class="st67" points="124.9,54.1 124.2,54.5 123.3,54 124,53.6 						"/>
					</g>
					<g>
						<polygon class="st67" points="126.8,54.3 126.2,54.6 125.3,54.1 125.9,53.8 						"/>
					</g>
					<g>
						<polygon class="st67" points="126,54.7 125.3,55.1 124.5,54.6 125.1,54.2 						"/>
					</g>
					<g>
						<polygon class="st67" points="127.9,54.9 127.3,55.3 126.4,54.8 127.1,54.4 						"/>
					</g>
					<g>
						<polygon class="st67" points="127.1,55.4 126.5,55.8 125.6,55.3 126.2,54.9 						"/>
					</g>
					<g>
						<polygon class="st67" points="129.1,55.6 128.4,55.9 127.5,55.4 128.2,55.1 						"/>
					</g>
					<g>
						<polygon class="st67" points="131.1,55.8 130.5,56.1 128.7,55.1 129.3,54.7 						"/>
					</g>
					<g>
						<polygon class="st67" points="126.4,55.9 125.8,56.3 120.4,53.1 121,52.8 						"/>
					</g>
					<g>
						<polygon class="st67" points="128.2,56 127.6,56.4 126.8,55.9 126.7,55.9 127.4,55.5 						"/>
					</g>
					<g>
						<polygon class="st67" points="127.5,56.5 126.9,56.9 126,56.4 126.7,56 						"/>
					</g>
				</g>
				<g>
					<polygon class="st67" points="128.6,57.2 128,57.5 127.2,57 127.8,56.7 					"/>
				</g>
				<g>
					<polygon class="st67" points="119.6,52 119,52.3 118.1,51.8 118.7,51.4 					"/>
				</g>
				<g>
					<polygon class="st67" points="130.3,56.2 129.6,56.6 128.7,56.1 129.3,55.7 					"/>
				</g>
				<g>
					<polygon class="st67" points="129.4,56.7 128.8,57.1 126.8,55.9 127.6,56.4 128.2,56 					"/>
				</g>
				<g>
					<polygon class="st67" points="128.8,54.4 128.1,54.8 127.3,54.3 127.9,53.9 					"/>
				</g>
				<g>
					<polygon class="st67" points="131.6,55.4 131.3,55.6 129.8,54.8 130.2,54.6 					"/>
				</g>
			</g>
			<g>
				<g class="st20">
					<g>
						<polygon class="st65" points="126.3,59.6 127.1,59.2 125.7,51.1 125,51.7 						"/>
					</g>
					<g>
						<polygon class="st65" points="125,51.7 125.7,51.1 114,44.4 113.3,44.9 						"/>
					</g>
					<g>
						<polygon class="st56" points="113.3,44.9 114.7,52.9 126.3,59.6 125,51.7 						"/>
					</g>
				</g>
			</g>
		</g>
		<g>
			<path class="st52" d="M130.1,49.8c0,0-0.7-0.1-1.8,0.3c-1.1,0.4-1.3,0.8-1.7,1.4c-0.5,0.6-0.8,1-0.5,1.3c0.3,0.2,1.9,0,2.7-0.6
				c0.5-0.4,2.1-0.4,2.4-0.5C131.5,51.5,130.5,49.8,130.1,49.8z"/>
			<path class="st59" d="M131.2,51.7c-0.3,0.2-2,0.1-2.4,0.5c-0.5,0.5-1.5,0.7-2.1,0.7c0,0,0,0,0-0.1c0-0.2,0.5-0.4,0.8-0.6
				c0.2-0.2,1.1-0.6,1.6-1c0.5-0.4,1.9-0.3,1.9-0.3l0.1,0C131.2,51.3,131.3,51.6,131.2,51.7z"/>
			<path class="st53" d="M137.2,34.2c0,0-2.1-0.9-2.5,1.2c-0.4,2.1,2,9.9,1.6,10.8c-0.2,0.4-6.7,3.3-6.7,3.3s1.3,0.4,1.1,2.7
				c0,0,8.8-1.6,9.2-3.8C140.6,44.6,139.7,36.2,137.2,34.2z"/>
		</g>
	</g>
</g>
<g>
	<g class="st15">
		<polygon points="188,174.1 155,194.6 55.5,137.2 89.7,117.3 		"/>
	</g>
	<g>
		<path class="st52" d="M133.4,113.9c0,0-1.1,11.3-0.7,13.8c0.4,2.4,1.4,15.1,1.4,15.1s0.2,0.4,0.9,0.4c1.3,0.1,1.5-0.3,1.5-0.3
			s2.3-10.4,0.9-14l1.6-12.1v-1.7C138.8,115.1,134.8,114.6,133.4,113.9z"/>
		<path class="st68" d="M134.2,142.7c0,0,0.2-0.5,0.1-1.2c0,0,1.8,0.7,3,0.1c0,0-0.1,0.8,0.1,1.4
			C137.5,143.5,134.4,143.4,134.2,142.7z"/>
		<g>
			<path class="st69" d="M136.4,142.8c0,0,1,1.6-0.1,2.1c-1.1,0.5-1.1-0.3-3.2,1.5c-2.1,1.8-4,1.1-4.3,0.7c-0.7-0.9,0.4-1.9,5.1-4.4
				L136.4,142.8z"/>
			<path class="st49" d="M136.3,145c-1.1,0.6-1.1-0.3-3.2,1.5c-2.1,1.8-4,1-4.3,0.7c0,0-0.1-0.1-0.1-0.2c2,0.7,3-0.3,3.9-1
				c0.9-0.7,1.6-1,3-1.3c1.3-0.3,0.8-1.4,0.8-1.4c0-0.2,0-1.3,0.2-1.3C136.6,143.2,137.4,144.3,136.3,145z"/>
		</g>
		<path class="st57" d="M133.7,112.8c0,0-2.3,8.6-1.7,14.4c0.6,5.8,1.2,12.2,1,15.5c0,1.1,4.1,2.3,4.4,0c0.3-2.7,1.5-10.4-0.1-13.9
			l2.7-14.8C140,114.1,136.4,114.8,133.7,112.8z"/>
		<path class="st52" d="M139.3,114.8c0,0-1.1,12-0.7,14.6c0.4,2.6,1.4,16.1,1.4,16.1h2.2c0,0,2.4-11.7,0.9-14.9l1.5-12.8v-1.8
			C144.5,116.1,140.6,115.5,139.3,114.8z"/>
		<g>
			<path class="st69" d="M142.3,145.1c0,0,1,1.7-0.1,2.2c-1.1,0.5-1.1-0.3-3.3,1.5c-2.1,1.8-4,1.1-4.3,0.7c-0.7-0.9,0.5-2.4,5.2-4.9
				L142.3,145.1z"/>
			<path class="st49" d="M142.2,147.3c-1.1,0.6-1.1-0.3-3.3,1.5c-2.1,1.8-4,1.1-4.3,0.7c0,0-0.1-0.1-0.1-0.2c2,0.7,3.1-0.3,3.9-1
				c0.9-0.7,1.6-1,3-1.3c1.4-0.3,0.9-1.4,0.9-1.4c0-0.2,0-1.3,0.2-1.3C142.5,145.5,143.4,146.6,142.2,147.3z"/>
		</g>
		<path class="st58" d="M145,112.9c0,0,1.9,2.9,0.5,9.7c-1.4,6.9-1.9,8.9-1.9,8.9s0.3,0.9,0,6.4c-0.3,5.2-0.3,4.8-0.4,7.3
			c0,1-4,1.4-4.2-0.6c-0.4-4.4-0.7-15.9-0.7-15.9l-1-11l-4.1-5.5C133.2,112.2,142.4,114.8,145,112.9z"/>
		<path class="st57" d="M145.5,122.7c-1.4,6.9-1.9,8.9-1.9,8.9s0.3,0.9,0,6.4c-0.3,5.2-0.3,4.8-0.4,7.3c0,0.4-0.7,0.7-1.6,0.8
			c0.2-3.2,0.5-9.1,0.3-11.5c-0.3-3.4,1-7.5,2-12.9c0.6-3.5-0.3-6.4-1-8c0.9-0.1,1.6-0.3,2.1-0.6C145,112.9,147,115.8,145.5,122.7z"
			/>
		<g>
			<path class="st52" d="M122,99.1c0,0-0.4-0.5-1.4-0.9c-1-0.4-1.4-0.2-2-0.2c-0.7,0.1-1.2,0.2-1.2,0.5c0,0.3,1.3,1.2,2.2,1.3
				c0.5,0,1.6,1.1,1.9,1.2C121.8,101.1,122.3,99.4,122,99.1z"/>
			<path class="st59" d="M121.5,101c-0.3-0.1-1.4-1.2-1.9-1.2c-0.6,0-1.5-0.5-1.9-0.9c0,0,0,0,0,0c0.2-0.1,0.6,0.1,0.9,0.1
				c0.3,0,1.2,0.3,1.7,0.4c0.6,0.1,1.4,1,1.4,1l0.1,0.1C121.8,100.8,121.6,101.1,121.5,101z"/>
			<path class="st49" d="M137.4,93.9c0,0-1-2.7-3.4-0.7c-1.5,1.2-5.2,6.9-6,7.2c-0.4,0.2-6.1-1.7-6.1-1.7s0.6,1.1-1,2.4
				c0,0,6.8,4.6,8.5,3.4C132.2,102.4,137.7,96.8,137.4,93.9z"/>
		</g>
		<path class="st48" d="M145.2,95.6c-0.2-0.2-9.1-3.8-10.1-3c-0.6,0.5-0.8,1.5-1.9,4.5c-0.5,1.5-0.7,3.3,0,4.9
			c1.5,3.2,1.4,4.8,1.1,5.7c-1.8,6.3-3,15.6-3,15.6s9.1,6.7,15.1,3.7c0,0,0.6-11.8-1.5-16.9C141.9,102.9,148.4,97.9,145.2,95.6z"/>
		<g>
			<path class="st70" d="M140.7,82.9c0,0,0.4-2.5,3.6-1.7c2.5,0.6,3.1,4.5,1.8,7.5c-1.5,3.5-1.9,6.5-1.9,6.5s-1.5-0.9-2.2-3.5
				C141.2,89.2,139.9,85,140.7,82.9z"/>
			<path class="st63" d="M141,83c0,0,0.4-0.8,1.4-0.6c1.3,0.3,1.3,1,1.1,1.5C143.4,84.5,141,83,141,83z"/>
			<g>
				<path class="st54" d="M138,91.6c0,0,0.5,2.1,0,3.2c-0.5,1.1,1.2,1.5,2,1.2c0.8-0.3,2.1-0.8,1.9-1.6c-0.2-0.7-0.9-3.1-0.4-3.9
					C142,89.7,138,91.6,138,91.6z"/>
				<path class="st52" d="M142.1,85.1c0,0,2.4,2.4,1.8,4.9c-0.4,1.4-2,2.3-2.9,3c-0.9,0.7-3.2,2.3-4.2,0.7c-1-1.7-2.1-6.5,0-8.6
					C138.9,82.9,142.1,85.1,142.1,85.1z"/>
				<path class="st71" d="M138,86.2c0,0,0.1,0.4,2.2,2c0.7,0.6,0.7,2.9,1.5,2.2c0.3-0.3,1-0.8,1.1-0.4c0.4,1.9-2.3,2.8-1,2.6
					c1-0.2,3.6-2.1,3.4-5.5c-0.1-2.1-2.2-4.8-5.9-4c-3.1,0.7-3.6,4.2-3.6,4.2S137.4,87.1,138,86.2z"/>
			</g>
		</g>
		<g>
			<path class="st52" d="M140.2,112.1c0,0-0.7,0-1.7,0.6c-1,0.6-1.1,1-1.5,1.7c-0.4,0.6-0.6,1.1-0.3,1.3c0.3,0.2,1.9-0.3,2.5-1
				c0.4-0.5,2-0.7,2.3-0.9C141.8,113.5,140.6,112,140.2,112.1z"/>
			<path class="st59" d="M141.5,113.7c-0.3,0.2-1.9,0.4-2.3,0.9c-0.4,0.5-1.4,0.9-2,1c0,0,0,0,0-0.1c0-0.2,0.5-0.4,0.7-0.7
				c0.2-0.3,1-0.8,1.5-1.3c0.4-0.5,1.8-0.6,1.8-0.6l0.1,0C141.5,113.4,141.6,113.6,141.5,113.7z"/>
			<path class="st72" d="M144.8,95.5c-0.6-0.3-2.2-0.6-2.3,1.6c-0.1,2.2,3.5,9.5,3.2,10.5c-0.1,0.5-6.1,4.3-6.1,4.3s1.4,0.2,1.5,2.5
				c0,0,8.4-2.9,8.5-5.2C149.7,105.3,147.8,96.8,144.8,95.5z"/>
		</g>
	</g>
	<g>
		<g>
			<g>
				<polygon class="st69" points="87.3,127.1 88.4,127.1 88.1,108.3 87,108.4 				"/>
				
					<rect x="86.5" y="107.7" transform="matrix(0.9999 -1.288044e-02 1.288044e-02 0.9999 -1.5093 1.1393)" class="st69" width="2.4" height="20.1"/>
			</g>
		</g>
		<g>
			<g>
				
					<rect x="118.6" y="125.9" transform="matrix(0.9999 -1.255737e-02 1.255737e-02 0.9999 -1.6892 1.507)" class="st69" width="1.1" height="18.8"/>
				
					<rect x="118" y="125.2" transform="matrix(0.9999 -1.425085e-02 1.425085e-02 0.9999 -1.9155 1.7118)" class="st69" width="2.4" height="20.1"/>
			</g>
		</g>
		<g>
			<g>
				
					<rect x="153.9" y="146" transform="matrix(0.9999 -1.261627e-02 1.261627e-02 0.9999 -1.9479 1.961)" class="st69" width="1.1" height="18.8"/>
				
					<rect x="153.2" y="145.3" transform="matrix(0.9999 -1.280820e-02 1.280820e-02 0.9999 -1.9773 1.991)" class="st69" width="2.4" height="20.1"/>
			</g>
		</g>
		<g>
			<g>
				<polygon class="st69" points="104.7,107.6 104.6,106.6 85.9,108.4 86,109.5 				"/>
				
					<rect x="85.2" y="106.8" transform="matrix(0.9952 -9.835103e-02 9.835103e-02 0.9952 -10.1617 9.8947)" class="st69" width="20.1" height="2.4"/>
			</g>
		</g>
		<g>
			<g>
				<polygon class="st69" points="138.6,125.5 138.5,124.4 119.8,126.3 119.9,127.3 				"/>
				
					<rect x="119.2" y="124.7" transform="matrix(0.9952 -9.835103e-02 9.835103e-02 0.9952 -11.7533 13.3184)" class="st69" width="20.1" height="2.4"/>
			</g>
		</g>
		<g>
			<g>
				
					<rect x="111.5" y="107.6" transform="matrix(0.809 -0.5878 0.5878 0.809 -47.3731 88.2274)" class="st69" width="1.1" height="18.8"/>
				
					<rect x="110.9" y="107" transform="matrix(0.8092 -0.5876 0.5876 0.8092 -47.3661 88.1835)" class="st69" width="2.4" height="20.1"/>
			</g>
		</g>
		<g>
			<g>
				<polygon class="st69" points="86.1,109.7 86.9,109.1 76,93.9 75.1,94.5 				"/>
				
					<rect x="79.8" y="91.8" transform="matrix(0.8108 -0.5853 0.5853 0.8108 -44.2626 66.6795)" class="st69" width="2.4" height="20.1"/>
			</g>
		</g>
		<g>
			<g>
				<polygon class="st69" points="173.3,141.1 173.1,140 154.7,143.8 154.9,144.9 				"/>
				
					<rect x="153.9" y="141.2" transform="matrix(0.9788 -0.2049 0.2049 0.9788 -25.7074 36.6239)" class="st69" width="20.1" height="2.4"/>
			</g>
		</g>
		<g>
			<g>
				<polygon class="st69" points="152.1,143.2 153,142.6 142,127.3 141.1,128 				"/>
				
					<rect x="145.9" y="125.2" transform="matrix(0.8101 -0.5863 0.5863 0.8101 -51.3771 111.9121)" class="st69" width="2.4" height="20.1"/>
			</g>
		</g>
		<g>
			<g>
				
					<rect x="101.6" y="148.4" transform="matrix(0.9878 -0.1558 0.1558 0.9878 -21.8394 19.1104)" class="st69" width="18.8" height="1.1"/>
				
					<rect x="101" y="147.7" transform="matrix(0.988 -0.1547 0.1547 0.988 -21.7036 18.9714)" class="st69" width="20.1" height="2.4"/>
			</g>
		</g>
		<g>
			<g>
				<polygon class="st69" points="87,131.5 86.9,130.4 68.3,133.3 68.5,134.4 				"/>
				
					<rect x="67.6" y="131.2" transform="matrix(0.9879 -0.1549 0.1549 0.9879 -19.5689 13.6299)" class="st69" width="20.1" height="2.4"/>
			</g>
		</g>
		<g>
			<g>
				
					<rect x="136.5" y="166.2" transform="matrix(0.988 -0.1542 0.1542 0.988 -23.9656 24.4796)" class="st69" width="18.8" height="1.1"/>
				
					<rect x="135.8" y="165.5" transform="matrix(0.9879 -0.1549 0.1549 0.9879 -24.0716 24.6063)" class="st69" width="20.1" height="2.4"/>
			</g>
		</g>
		<g>
			<g>
				<polygon class="st69" points="100.7,148.9 101.7,148.2 89.1,132.4 88.1,133.1 				"/>
				<polygon class="st69" points="100.6,149.8 102.6,148.3 89.2,131.5 87.2,133 				"/>
			</g>
		</g>
		<g>
			<g>
				<polygon class="st69" points="132.1,166 133,165.3 120.5,149.5 119.5,150.2 				"/>
				<polygon class="st69" points="131.9,166.9 134,165.4 120.6,148.6 118.6,150.1 				"/>
			</g>
		</g>
		<g>
			<g>
				<g>
					<path class="st73" d="M111,107.1c0,2.9-2.4,5.3-5.3,5.3c-2.9,0-5.3-2.4-5.3-5.3c0-2.9,2.4-5.3,5.3-5.3
						C108.6,101.8,111,104.2,111,107.1z"/>
				</g>
			</g>
			<g>
				<g>
					<path class="st30" d="M105.7,101.8c-0.8,0-1.5,0.2-2.2,0.5c-0.7,0.9-1.1,2-1.1,3.2c0,2.9,2.4,5.3,5.3,5.3
						c0.8,0,1.5-0.2,2.2-0.5c0.7-0.9,1.1-2,1.1-3.2C111,104.2,108.6,101.8,105.7,101.8z"/>
				</g>
			</g>
			<g>
				<g>
					<path class="st74" d="M109.8,106.3c0,1.2-1.9,0.5-3.1,0.5c-1.2,0-2.1-1-2.1-2.1c0-1.2,1-2.1,2.1-2.1
						C107.9,102.5,109.8,105.1,109.8,106.3z"/>
				</g>
			</g>
		</g>
		<g>
			<g>
				<g>
					<path class="st75" d="M82.4,107.4c-0.9,2.5,0.4,5.3,2.9,6.2c2.5,0.9,5.3-0.4,6.2-2.9c0.9-2.5-0.4-5.3-2.9-6.2
						C86.1,103.6,83.3,104.8,82.4,107.4z"/>
				</g>
			</g>
			<g>
				<g>
					<path class="st76" d="M88.6,104.5c0.7,0.2,1.2,0.6,1.7,1.1c0.3,1,0.3,2.1,0,3.1c-0.9,2.5-3.7,3.8-6.2,2.9
						c-0.7-0.2-1.2-0.6-1.7-1.1c-0.3-1-0.3-2.1,0-3.1C83.3,104.8,86.1,103.6,88.6,104.5z"/>
				</g>
			</g>
			<g>
				<g>
					<path class="st77" d="M83.7,107.1c-0.4,1,1.5,1,2.5,1.4c1,0.4,2.1-0.2,2.5-1.2c0.4-1-0.2-2.1-1.2-2.5
						C86.5,104.4,84,106,83.7,107.1z"/>
				</g>
			</g>
		</g>
		<g>
			<g>
				<g>
					<path class="st75" d="M114.6,125.5c-0.9,2.5,0.4,5.3,2.9,6.2c2.5,0.9,5.3-0.4,6.2-2.9c0.9-2.5-0.4-5.3-2.9-6.2
						C118.3,121.7,115.5,123,114.6,125.5z"/>
				</g>
			</g>
			<g>
				<g>
					<path class="st76" d="M120.8,122.6c0.7,0.2,1.2,0.6,1.7,1.1c0.3,1,0.3,2.1,0,3.1c-0.9,2.5-3.7,3.8-6.2,2.9
						c-0.7-0.2-1.2-0.6-1.7-1.1c-0.3-1-0.3-2.1,0-3.1C115.5,123,118.3,121.7,120.8,122.6z"/>
				</g>
			</g>
			<g>
				<g>
					<path class="st77" d="M115.9,125.2c-0.4,1,1.5,1,2.5,1.4c1,0.4,2.1-0.2,2.5-1.2c0.4-1-0.2-2.1-1.2-2.5
						C118.7,122.5,116.3,124.2,115.9,125.2z"/>
				</g>
			</g>
		</g>
		<g>
			<g>
				<g>
					<path class="st75" d="M149.9,143c-0.9,2.5,0.4,5.3,2.9,6.2c2.5,0.9,5.3-0.4,6.2-2.9c0.9-2.5-0.4-5.3-2.9-6.2
						C153.6,139.2,150.8,140.5,149.9,143z"/>
				</g>
			</g>
			<g>
				<g>
					<path class="st76" d="M156.1,140.1c0.7,0.2,1.2,0.6,1.7,1.1c0.3,1,0.3,2.1,0,3.1c-0.9,2.5-3.7,3.8-6.2,2.9
						c-0.7-0.2-1.2-0.6-1.7-1.1c-0.3-1-0.3-2.1,0-3.1C150.8,140.5,153.6,139.2,156.1,140.1z"/>
				</g>
			</g>
			<g>
				<g>
					<path class="st77" d="M151.2,142.7c-0.4,1,1.5,1,2.5,1.4c1,0.4,2.1-0.2,2.5-1.2c0.4-1-0.2-2.1-1.2-2.5
						C154,140,151.5,141.7,151.2,142.7z"/>
				</g>
			</g>
		</g>
		<g>
			<g>
				<g>
					<path class="st75" d="M129.2,165.6c-0.9,2.5,0.4,5.3,2.9,6.2c2.5,0.9,5.3-0.4,6.2-2.9c0.9-2.5-0.4-5.3-2.9-6.2
						C132.9,161.8,130.1,163.1,129.2,165.6z"/>
				</g>
			</g>
			<g>
				<g>
					<path class="st76" d="M135.4,162.7c0.7,0.2,1.2,0.6,1.7,1.1c0.3,1,0.3,2.1,0,3.1c-0.9,2.5-3.7,3.8-6.2,2.9
						c-0.7-0.2-1.2-0.6-1.7-1.1c-0.3-1-0.3-2.1,0-3.1C130.1,163.1,132.9,161.8,135.4,162.7z"/>
				</g>
			</g>
			<g>
				<g>
					<path class="st77" d="M130.5,165.3c-0.4,1,1.5,1,2.5,1.4c1,0.4,2.1-0.2,2.5-1.2c0.4-1-0.2-2.1-1.2-2.5
						C133.3,162.6,130.8,164.3,130.5,165.3z"/>
				</g>
			</g>
		</g>
		<g>
			<g>
				<g>
					<path class="st75" d="M97.1,147.8c-0.9,2.5,0.4,5.3,2.9,6.2c2.5,0.9,5.3-0.4,6.2-2.9c0.9-2.5-0.4-5.3-2.9-6.2
						C100.8,144,98,145.3,97.1,147.8z"/>
				</g>
			</g>
			<g>
				<g>
					<path class="st76" d="M103.3,144.9c0.7,0.2,1.2,0.6,1.7,1.1c0.3,1,0.3,2.1,0,3.1c-0.9,2.5-3.7,3.8-6.2,2.9
						c-0.7-0.2-1.2-0.6-1.7-1.1c-0.3-1-0.3-2.1,0-3.1C98,145.3,100.8,144,103.3,144.9z"/>
				</g>
			</g>
			<g>
				<g>
					<path class="st77" d="M98.4,147.5c-0.4,1,1.5,1,2.5,1.4c1,0.4,2.1-0.2,2.5-1.2c0.4-1-0.2-2.1-1.2-2.5
						C101.2,144.8,98.8,146.4,98.4,147.5z"/>
				</g>
			</g>
		</g>
		<g>
			<g>
				<g>
					<path class="st73" d="M93,130c0,2.9-2.4,5.3-5.3,5.3c-2.9,0-5.3-2.4-5.3-5.3c0-2.9,2.4-5.3,5.3-5.3C90.6,124.7,93,127.1,93,130
						z"/>
				</g>
			</g>
			<g>
				<g>
					<path class="st30" d="M87.7,124.7c-0.8,0-1.5,0.2-2.2,0.5c-0.7,0.9-1.1,2-1.1,3.2c0,2.9,2.4,5.3,5.3,5.3c0.8,0,1.5-0.2,2.2-0.5
						c0.7-0.9,1.1-2,1.1-3.2C93,127.1,90.6,124.7,87.7,124.7z"/>
				</g>
			</g>
			<g>
				<g>
					<path class="st74" d="M91.8,129.2c0,1.2-1.9,0.5-3.1,0.5s-2.1-1-2.1-2.1c0-1.2,1-2.1,2.1-2.1S91.8,128,91.8,129.2z"/>
				</g>
			</g>
		</g>
		<g>
			<g>
				<g>
					<path class="st73" d="M124.4,147.5c0,2.9-2.4,5.3-5.3,5.3c-2.9,0-5.3-2.4-5.3-5.3c0-2.9,2.4-5.3,5.3-5.3
						C122.1,142.2,124.4,144.6,124.4,147.5z"/>
				</g>
			</g>
			<g>
				<g>
					<path class="st30" d="M119.2,142.2c-0.8,0-1.5,0.2-2.2,0.5c-0.7,0.9-1.1,2-1.1,3.2c0,2.9,2.4,5.3,5.3,5.3
						c0.8,0,1.5-0.2,2.2-0.5c0.7-0.9,1.1-2,1.1-3.2C124.4,144.6,122.1,142.2,119.2,142.2z"/>
				</g>
			</g>
			<g>
				<g>
					<path class="st74" d="M123.2,146.7c0,1.2-1.9,0.5-3.1,0.5c-1.2,0-2.1-1-2.1-2.1c0-1.2,1-2.1,2.1-2.1
						C121.3,142.9,123.2,145.5,123.2,146.7z"/>
				</g>
			</g>
		</g>
		<g>
			<g>
				<g>
					<path class="st73" d="M159,164.8c0,2.9-2.4,5.3-5.3,5.3c-2.9,0-5.3-2.4-5.3-5.3c0-2.9,2.4-5.3,5.3-5.3
						C156.6,159.5,159,161.9,159,164.8z"/>
				</g>
			</g>
			<g>
				<g>
					<path class="st30" d="M153.7,159.5c-0.8,0-1.5,0.2-2.2,0.5c-0.7,0.9-1.1,2-1.1,3.2c0,2.9,2.4,5.3,5.3,5.3
						c0.8,0,1.5-0.2,2.2-0.5c0.7-0.9,1.1-2,1.1-3.2C159,161.9,156.6,159.5,153.7,159.5z"/>
				</g>
			</g>
			<g>
				<g>
					<path class="st74" d="M157.8,164c0,1.2-1.9,0.5-3.1,0.5c-1.2,0-2.1-1-2.1-2.1c0-1.2,1-2.1,2.1-2.1
						C155.9,160.2,157.8,162.8,157.8,164z"/>
				</g>
			</g>
		</g>
		<g>
			<g>
				<g>
					<path class="st73" d="M145.4,125.4c0,2.9-2.4,5.3-5.3,5.3c-2.9,0-5.3-2.4-5.3-5.3c0-2.9,2.4-5.3,5.3-5.3
						C143,120.1,145.4,122.5,145.4,125.4z"/>
				</g>
			</g>
			<g>
				<g>
					<path class="st30" d="M140.1,120.1c-0.8,0-1.5,0.2-2.2,0.5c-0.7,0.9-1.1,2-1.1,3.2c0,2.9,2.4,5.3,5.3,5.3
						c0.8,0,1.5-0.2,2.2-0.5c0.7-0.9,1.1-2,1.1-3.2C145.4,122.5,143,120.1,140.1,120.1z"/>
				</g>
			</g>
			<g>
				<g>
					<path class="st74" d="M144.2,124.6c0,1.2-1.9,0.5-3.1,0.5c-1.2,0-2.1-1-2.1-2.1c0-1.2,1-2.1,2.1-2.1
						C142.3,120.8,144.2,123.4,144.2,124.6z"/>
				</g>
			</g>
		</g>
		<g>
			<g>
				
					<rect x="158.5" y="162.7" transform="matrix(0.843 -0.5379 0.5379 0.843 -67.6147 112.5611)" class="st69" width="1.1" height="18.8"/>
				
					<rect x="157.8" y="162.1" transform="matrix(0.8433 -0.5374 0.5374 0.8433 -67.5783 112.4236)" class="st69" width="2.4" height="20.1"/>
			</g>
		</g>
	</g>
</g>
</svg>
