<?xml version="1.0" encoding="utf-8"?>
<!-- Generator: Adobe Illustrator 24.2.0, SVG Export Plug-In . SVG Version: 6.00 Build 0)  -->
<svg version="1.1" id="Layer_1" xmlns="http://www.w3.org/2000/svg" xmlns:xlink="http://www.w3.org/1999/xlink" x="0px" y="0px"
	 viewBox="0 0 320 306.2" style="enable-background:new 0 0 320 306.2;" xml:space="preserve">
<style type="text/css">
	.st0{fill:#8D1E5A;}
	.st1{fill:#5E0E3E;}
	.st2{fill:#4A1425;}
	.st3{fill:#C31C6F;}
	.st4{fill:#671140;}
	.st5{fill:#9C2063;}
	.st6{fill:#791646;}
	.st7{fill:#A32167;}
	.st8{fill:#4C112E;}
	.st9{fill:#AF1F63;}
	.st10{fill:#ED3487;}
	.st11{fill:#EC5F2D;}
	.st12{fill:#F397BB;}
	.st13{fill:#D41674;}
	.st14{fill:#E66E9F;}
	.st15{fill:#88442E;}
	.st16{opacity:0.2;fill:#4E2C80;}
	.st17{fill:#DDD7EB;}
	.st18{fill:#EBE6F2;}
	.st19{fill:#A8D5E5;}
	.st20{fill:url(#SVGID_1_);}
	.st21{fill:#F0637A;}
	.st22{opacity:0.3;fill:#EBE6F2;}
	.st23{fill:#8BC2DD;}
	.st24{fill:#BEE6F4;}
	.st25{fill:#86BFD9;}
	.st26{fill:#62A7CA;}
	.st27{enable-background:new    ;}
	.st28{fill:#CCC1DF;}
	.st29{fill:url(#SVGID_2_);}
	.st30{fill:url(#SVGID_3_);}
	.st31{fill:url(#SVGID_4_);}
	.st32{opacity:0.2;}
	.st33{fill:#4E2C80;}
	.st34{fill:#E8B187;}
	.st35{opacity:0.2;fill:#FBC79F;}
	.st36{fill:#EAF0F4;}
	.st37{fill:#FBC79F;}
	.st38{fill:#0F304A;}
	.st39{opacity:0.3;fill:#0F304A;}
	.st40{fill:#ACBECE;}
	.st41{fill:#89C9C1;}
	.st42{fill:#114269;}
	.st43{fill:#F7F9FC;}
	.st44{fill:#BECCDC;}
	.st45{fill:#D6DFE8;}
	.st46{fill:#46140D;}
	.st47{opacity:0.6;fill:#EAF0F4;}
	.st48{fill:#FCFDFF;}
	.st49{fill:#5E1E12;}
	.st50{opacity:0.3;}
	.st51{fill:url(#SVGID_5_);}
	.st52{fill:url(#SVGID_6_);}
	.st53{fill:#E44332;}
	.st54{fill:#F0EFEF;}
</style>
<g>
	<path class="st0" d="M305.1,135.6l-3.6-1.1c-9.8-2.4-21-2.5-31.3-2.9c-22.9-1.1-44.8,2.3-65.2,11c-21.4,9.1-45.6,26-53.5,46.9
		c-5.5,14.7-9.6,31.8-6.9,47.3c2.8,16.5,12.7,32.8,12.5,49.5c10.4-2,18.5-13.1,29.4-16.3c0,0,8.3,4.9,19.2-3.4
		c14.6-11.1,29.3-24,46.6-28.3c19.2-4.7,26.9-22.6,37.1-28.1c8.3-17-2.3-20.6,5.7-33.3C305.1,161,299.6,149.2,305.1,135.6z"/>
	<path class="st1" d="M205.5,266.6c5.1-3.9,10.2-8,15.4-11.8c0.4-6.3,1.6-12.6,2.7-18.9c1.3-7.4,3.1-16.2-0.3-23.3
		c-1.5-3.1-10.5-9.1-10.5-9.1c-3,7.8-3.3,23.4-5.6,31.4c-2.2,7.7-4.2,15.4-5.6,23.2c-0.5,2.8-1,5.7-1.2,8.5
		c-0.1,1.7,0.1,2.4,0.1,2.4c0.1,0.1,0.2,0.3,0.3,0.4C202.4,268.7,203.9,267.8,205.5,266.6z"/>
	<path class="st2" d="M213.4,210.4c-0.1,18.6-0.7,39.8-6.5,55.1c3.6-2.8,7.2-5.6,10.8-8.4c0.8-5.3,1.8-10.6,2.7-16
		C221.9,232.7,215.4,217.7,213.4,210.4z"/>
	<path class="st1" d="M272.2,199.5c-2.5,9.9-2.8,20.1-3.7,30.3c8.5-7.1,14.1-16,20.8-19.5c8.3-17-2.3-20.6,5.7-33.3
		c10.1-16,4.6-27.8,10.1-41.4l-3.6-1.1c-0.3-0.1-0.6-0.1-0.9-0.2c-6.1,3-11.9,6.3-17.7,9.8c4.2,0.1,8,1,12,2.2
		c4.4,1.3,5.4,5.8,3.3,8.5C293.7,171.7,276.4,182.6,272.2,199.5z"/>
	<path class="st2" d="M299.9,166.4c-5.1,7.8-10.9,15.3-16.8,22.8c-3.2,10.6-6.7,21.2-9.7,31.9c5.4-8.3,11.8-15.7,19.1-22.5
		c0.4-8-3.3-12.4,2.4-21.5C297.3,173.3,298.9,169.7,299.9,166.4z"/>
	<path class="st1" d="M155.6,205c-0.4,0-0.8,0-1.2,0c-0.9,19.5-1.2,39.1-1.9,58.6c2.5,7.5,4.5,15.1,4.4,22.7c4.9-1,9.3-3.9,13.7-7.1
		c-0.1-1.2-0.2-2.5-0.3-3.7c-0.4-5.8-0.7-11.8-2.9-17.3c-1.8-4.6-5.1-9.1-6.1-14c-3.3-16.3,3.6-29.5,14.6-41.4
		C169.4,203.7,162.6,204.1,155.6,205z"/>
	<path class="st1" d="M230.5,248.1c3.9-2.5,7.9-4.7,12-6.5c0.3-4.2,0.7-8.3,1.3-12.5c1.5-10.1,5-18.3,8.8-27.8
		c3.4-8.5,1-17.5,4.3-25.9c2.6-6.6,6.1-12.5,8-19c-4.4,2.3-10,3.7-14.6,3.6c-5.6-0.1-11.3-0.8-16.7,0.9c0.3-0.1-15.8,3.3-11.8,4.9
		c1,0.1,5.4,1.2,6.3,1.5c0.5,0.2,13-0.2,13-0.2c-9.1,19-7.2,47-8.9,67.2C231.7,239.1,231.2,243.6,230.5,248.1z"/>
	<path class="st2" d="M230.5,248.1c1-0.6,2-1.2,3-1.8c0.5-8.1,1.8-16.1,2.8-24.2c1.1-8.7,1.5-17.5,3.5-26.1
		c3.4-14.8,7.3-25.2,20.7-35.1c1.1-0.8,2.2-1.2,3.4-1.3c0.4-1,0.7-2,1-3.1c-4.4,2.3-10,3.7-14.6,3.6c-5.6-0.1-11.3-0.8-16.7,0.9
		c0.3-0.1-15.8,3.3-11.8,4.9c1,0.1,5.4,1.2,6.3,1.5c0.5,0.2,13-0.2,13-0.2c-9.1,19-7.2,47-8.9,67.2
		C231.7,239.1,231.2,243.6,230.5,248.1z"/>
	<path class="st1" d="M193.7,223.5c4.5-10.8,2.9-21.6,11.2-32.3c1.9-2.5,14.8-16,15.3-18.8c-9.4,3.2-36.7,19.7-41.8,27.6
		c1.1,8.6,2.2,17.3,2.1,26.1c-0.1,8.8-1.3,17.4,0,26.2c1,6.5,2.3,12.9,3.4,19.4c0.9-0.4,1.8-0.8,2.8-1.2c-0.7-6.9,1.2-13.6,2.3-20.5
		C190.5,240.8,190.1,232.3,193.7,223.5z"/>
	<path class="st2" d="M202.9,183.9c0.1-0.4,0.1-0.8,0.2-1.3c-9.5,3-19,9.1-24.3,16.9c1,8.7,1.9,17.4,1.6,26.1
		c-0.2,8.8-1.6,17.4-0.5,26.2c0.8,6.5,2.1,12.9,3,19.4c0.8-0.4,1.6-0.7,2.5-1c-0.7-16.2-1-32.5-0.3-48.7
		C185.7,206.1,194,196.5,202.9,183.9z"/>
	<path class="st3" d="M154.5,190.7c-7.9-19-40.3-36-60.1-44.2c-19.9-8.2-46.8-8.1-68.3-9.1c-5.8-0.3-10.5-0.5-15.6-2
		c0,15.2,0.6,31.4,8.7,44.4c3.3,5.4,6.9,25.6,13.9,37.2c4.7,7.8,9.5,6,17,8.7c11.8,4.2,17.6,18.8,37.5,28.4
		c7.1,3.4,11.6,12.2,26.3,16.5c8.5,2.5,18.8,0.8,18.8,0.8c8.6,3,8.9,10.1,24.3,14.7c0.5-15.1-1-30.7-1-46.8
		C155.9,225,160.1,204.1,154.5,190.7z"/>
	<path class="st4" d="M74.9,246.3c3.5,2.8,7.6,5.5,12.6,8c4.3,2.1,7.6,6.1,12.8,9.9c-3.8-8.2-7.3-16.4-9.7-24.9
		c-3.1-11.1-4.2-22.9-7.7-33.9c0,0.1,0,0.2-0.1,0.3c1.8,5.6,2.6,12.5,1.8,19.3C84.7,234.3,82.5,243,74.9,246.3z"/>
	<path class="st5" d="M155.5,207.1c-2.6-1.8-6.7-4.5-10.1-5.3c0,0.2,0.1,0.5,0.1,0.8c0.1,0.4,0.3,0.8,0.4,1.1
		c0.5,0.3,0.9,0.7,1.3,1.2c10,12.3,6,27.2,6.5,41.3c0.5,12.1,2.3,24.2,3.2,36.2c0.2-13.9-1.1-28.2-1.1-43c0-9.2,1.6-20.8,1.5-31.6
		C156.8,207.8,156.1,207.5,155.5,207.1z"/>
	<path class="st5" d="M144.2,280c-1-10-2.3-20.1-2.8-30.2c-0.2-4.6,0.3-9.6,0.5-14.7c-2.9-8.4-6-16.7-7.2-25.4
		c-2.5-6.1-4.6-13,0.3-16.4c1.3-0.9,2.7-1.5,4.1-2c-0.9-0.5-1.8-0.9-2.9-1.2c-3.7,1.9-7.7,3.1-11.9,3.8c7.2,17.6,10.4,36,10,54.5
		c0.1,0.2,0.2,0.3,0.2,0.5c1.1,3.2,0.3,6.9-0.5,10.1c0.1,0.3,0.1,0.6,0.1,0.9c0,4.1-0.2,8.1-0.8,11.9
		C138,273.7,140.2,276.8,144.2,280z"/>
	<path class="st5" d="M12.4,136c-0.7-0.1-1.3-0.3-2-0.5c0,15.2,0.6,31.4,8.7,44.4c3.3,5.4,6.9,25.6,13.9,37.2
		c2.7,4.5,5.5,5.8,8.8,6.6c-7.1-12.9-19.9-32.5-12.1-45.5c-4.5-2.8-11.2-9.8-11.2-9.8c0,1.2-3.2-7.6-3.8-17.1
		c-0.2-4.3-0.2-8.7,0.4-13C14.1,137.6,13.2,136.8,12.4,136z"/>
	<path class="st5" d="M64,236.4c0.3-6.8,0.9-13.5,0.9-20.3c0.1-15.4-7.6-30.4-1.1-45.4c-1.5-1.2-2.6-2.5-3.7-3.8
		c-3.8-1.9-7.2-4.5-11.1-6c-0.1,2.2-0.3,4.3-0.6,6.4c0,0.2,0.1,0.5,0.1,0.7c3.5,8.6,5.2,17.5,6.9,26.6c0.2,0.4,0.4,0.9,0.5,1.4
		c0.5,2.2,0.9,4.3,1.3,6.5c0.5,0.7,0.9,1.6,0.9,2.7c0.6,9,1.7,17.8,1,26.7C60.8,233.2,62.4,234.7,64,236.4z"/>
	<path class="st6" d="M56.1,150.2c-5.5-0.8-19.1-2.3-20.4-2.3c1,8.7,1.9,17.5,4.5,26c2.8,9,8,16.9,11.4,25.6
		c4,10.5,6.1,21.4,7.7,32.3c1,0.9,1.9,1.8,2.9,2.7c-0.5-17.7-1.5-35.4-5.8-52.6c-2.4-9.9-3.6-13.1-4.5-19.4
		C52.9,161.4,57.1,150.4,56.1,150.2z"/>
	<path class="st1" d="M56.1,150.2c-5.5-0.8-36.4-9.3-37.7-9.3c4.1,6.3,14.9,11,18.8,11.9c10,3.1,9.9,8.8,11.7,15.7
		c2.4,9,4.7,18,6.8,27.1c2.7,11.8,5.6,25.1,5.4,37.9c0.4,0.3,0.7,0.6,1.1,1c-0.5-17.7-1.5-35.4-5.8-52.6c-2.4-9.9-3.3-13.4-4.2-19.7
		C53.1,161.1,57.1,150.4,56.1,150.2z"/>
	<path class="st6" d="M148.7,186c-10.2,0.3-41.7-3.9-39.3,1.7c7.1,9.1,14.5,22.5,19.3,48.1c2.2,12,2.4,23.7,3.9,35.8
		c0.6,0.2,2.2,1,2.7,1.2c0.7-6.4,1.7-12.8,2.3-19.4c1.7-18.3-5.2-38.8-7.1-57C130.6,196.5,145.4,189.7,148.7,186z"/>
	<path class="st1" d="M148.7,186c-10.2,0.3-58.5-16.4-68.1-13.4l11.7,7.3c10.4,3.5,27,16.2,26.9,16.6c2.4,1.3,11.2,19.4,12.9,26.9
		c3.5,15.5,5.1,33,1.8,48.7c0.5,0.2,0.9,0.4,1.4,0.7c0.7-6.4,1.7-12.8,2.3-19.4c1.7-18.3-5.2-38.8-7.1-57
		C130.6,196.5,145.4,189.7,148.7,186z"/>
	<path class="st7" d="M245.9,188.3c-0.8,5.8,2.4,35.2,0.6,40.7c6.2-0.2,4.7-1.5,10.9-2c5-0.4,16.2-23.2,21.1-24.8
		c4.9-1.6,14.6-6.8,17.6-10.7c2.9-3.8,2.7-6.9,5-11c2.3-4.2,4.7-4.1,7.9-7.8c3.3-3.8-3.2-17.1-3.2-17.1l-24.6,7.8
		c-2.6,1-5.3,1.8-8,2.7c-1.4,0.5-2.9,1-4.3,1.5c-5.7,2.1-11.5,4.1-17.5,5.7c-0.2,0.1-0.4,0.1-0.5,0.1c-0.5,0.2-0.9,0.2-1.3,0.1
		l-0.5,0.2c0,0,0.2,5.9-0.1,7.4C248.4,183.6,246.3,185.5,245.9,188.3z"/>
	<path class="st3" d="M258.5,213.4c-1.4,4.6-2.6,9.2-3.3,13.9c0.6-0.1,1.3-0.2,2.2-0.3c0.6,0,1.2-0.4,1.9-0.9
		c2.3-8.7,7-16.5,11.8-24.6c3.5-6,6.3-12.1,8.8-18.5c1.1-2.9,3.1-4.5-2.6-4.9c-3-0.2-6-0.4-9-0.5c4,4.6,7.5,8.1,3.9,14.7
		C268.2,199.4,260.9,205.6,258.5,213.4z"/>
	<path class="st6" d="M257.9,226.9c5.2-1.7,15.9-23.1,20.6-24.7c4.9-1.6,14.6-6.8,17.6-10.7c2.9-3.8,2.7-6.9,5-11
		c2.3-4.2,4.7-4.1,7.9-7.8c3.3-3.8-3.2-17.1-3.2-17.1c0-0.7-16.1,5.1-28.6,14c-2.6,2.6-0.3,9.4-0.3,10.1c0.5,8.5-1.3,13-8.6,22.4
		C262.4,209.6,259.5,218,257.9,226.9z"/>
	<path class="st1" d="M257.9,226.9c2.3-0.8,5.7-5.4,9.2-10.5c-2.6-8.7,4.7-16.9,10.9-24.1c1.9-5.5,3.5-11.1,6.5-16.2
		c-0.1,0-0.2-0.1-0.2-0.2c-0.6-0.4-1.2-0.8-1.9-1.2c-1.9-0.5-4.2,0.3-6.3,0.7c0.3,2,0.8,3.8,0.8,4.1c0.5,8.5-1.3,13-8.6,22.4
		C262.4,209.6,259.5,218,257.9,226.9z"/>
	<path class="st6" d="M231.1,254.3c3.3-2.1,5-15.2,7.6-24.5c2.2-8.2,15.6-19.7,15.9-28.1l-0.5,0.4c-6.3-4.6-13.3,0.5-18.8,2.3
		c-7.4,2.5-15.4,0.3-22.4-0.9c-0.5,4.9,0.9,12,1.5,17.3c0.6,5.9,3.2,30.7,3.4,36.4C222.7,258.7,226.4,257.3,231.1,254.3z"/>
	<path class="st1" d="M232.1,222.5c3.8-8.4,14.5-11.1,21.6-17c0.5-1.2,0.8-2.3,0.9-3.4c-6.3,4.9-14.8,8.3-23,9.1
		c0,0.2,0,0.4-0.1,0.6c-5,14.9-6.2,30.2-6.6,45.6c1.5-0.4,3.1-1.1,4.7-2.1c0-6.8,0.5-13.5,0.9-20.3
		C230.7,231.1,230.4,226.2,232.1,222.5z"/>
	<path class="st7" d="M226.4,256.8c0.1-17.6,3.2-37.4,9.8-54.1c-7,1.8-16.8,1.9-23.3,0.8c-0.5,4.9,0.9,12,1.5,17.3
		c0.6,5.9,3.2,30.7,3.4,36.4C221,258.2,223.7,257.9,226.4,256.8z"/>
	<path class="st3" d="M224.6,257.4c0.6-0.2,1.2-0.4,1.9-0.6c0.1-14.2,2.2-29.9,6.5-44.2c-3.2,0.3-6.5,0-9.2-1c4.7,6,4.3,11.9,3,18.8
		C224.9,239.4,224.8,248.4,224.6,257.4z"/>
	<path class="st4" d="M41.4,193.3c0.6,6.1,5,14.4,7.9,20.2c2.8,5.5,5.6,11.1,8.8,19.4c0.7,0,2.2,0.6,2.9,0.6
		c-0.1-7.2,0.2-13.1-1.2-20.2c-3-15.3-4.7-20.9-6.8-28.5C49.5,186.9,45.5,191.9,41.4,193.3z"/>
	<path class="st8" d="M53.4,185.8c-0.1-0.3-0.2-0.7-0.3-1c-3.7,2.1-7.6,7.1-11.7,8.6c0.6,6.1,5,14.4,7.9,20.2
		c2.8,5.5,5.6,11.1,8.8,19.4c0.2,0,0.4,0,0.7,0.1c-2.3-8.4-4.3-16.8-7-25.2c-1-3.2-2.8-7.3-1.9-10.7C51,193.3,53.1,189.8,53.4,185.8
		z"/>
	<path class="st6" d="M25.4,188.4c6.1,7.3,13.3,14.3,17.2,22.5c3.2,6.7,7.2,19.9,15.6,22c-3.2-11.4-9.7-26.5-12.3-34.9
		C44.4,193.5,35.1,179.8,25.4,188.4z"/>
	<path class="st9" d="M25.4,188.4c0.1,0.2,0.3,0.3,0.4,0.5c0.4,0,0.8,0,1.2,0.2c13.2,5,18.3,11.5,22.2,23.3c2,6,4.7,11.5,7.8,17.2
		c0.2,0.4,0.4,0.8,0.6,1.3c-3.4-11.1-9.2-24.8-11.7-32.8C44.4,193.5,35.1,179.8,25.4,188.4z"/>
	<path class="st6" d="M144.9,268.9c-0.4-11.3,4.8-24.4,7.5-34.9c-6.7,0.2-7.8-7.2-9.8-12c-1.9-4.6-3.2-10.6-4.9-14.6l-0.8-0.3
		c2,5.3,2.1,11.6,3.9,17.2c0.8,2.4,1.5,4.9,2.6,7.2c0.4,0.8,0.8,1.9,1.5,2.6c0.8,0.8,2.6,0.9,3,1.7c0.7,1.3-1.2,4.9-1.7,6.4
		c-0.9,2.9-1.4,4.9-1.4,8c0,3.4,0.2,6.9,0,10.3C144.8,263.1,143.7,266.5,144.9,268.9z"/>
	<path class="st4" d="M79.5,187.7c-0.5-2.2-1.1-13-1.8-15.1c-2-1.1-5.7-0.9-7.9-1.6c-1.4-0.4-6.4-1-5.7-0.3l-0.4-0.3
		c0.8,2.1,0,15.4,0,17.6c1.6-0.3,4.4-8.5,6.1-8.4c0.2,4.1,0.9,8.1-0.4,11.6c4.8,2.5,3,6.2,2.6,10.3c-0.5,4.7,3.2,2,2.8,6.7
		c-0.3,3.9-3.9,14.9-3.3,18.8c0,0,3.4,7.9,3.3,10.3c0,0.3,0.1,0.1,0.4-0.5c-3.1-10.3,0.6-20.4,4.1-30.4c-0.1-2-0.1-4,0-6.1
		c0.1-1.4,0.1-2.9,0.2-4.3C78.5,190.9,79.7,192.9,79.5,187.7z"/>
	<path class="st10" d="M252.3,108c-16.2-15.3-37.7-15.6-51-25.8c-6.6-5.1-36.4-17.8-44.3-22.4c-18.1,9.5-31.4,9.4-39.2,18.6
		c-7.8,9.1-23.4,10.2-34.3,15.7c0.6,1.3,2,4.4,2.7,5.8c-13.8-2.1-31,10.7-44.3,18.5C30.2,125.2,10,135,10,135
		c15.2,14.5,28.3,17.1,43.7,19.1c1.1,2.5-3,6.5-0.9,10.6c6.5,12.8,55.1,18.4,66.6,29.9c2.8,2.8,17.3-3.6,17.3-3.6
		c0,2.3-6.1,5.5-6.1,5.5c14.3,7.2,21.1,14.5,27.2,13.7c6-0.8,22.4-9.4,27.7-12.3c10.4-5.7,13.7-11.6,24.8-15.3
		c13.6-4.5,20.8-4.7,30.7-15.4c-5.6-0.5-10.6-1.6-16.4-1.5c14.1-5.7,30.8-1.7,45-9.1c11.2-5.9,22.6-18.8,35.4-21
		c-4.4-4.1-15.7-11.6-43.8-23.5l-17.6,2.7C245.7,113.4,250.6,109.8,252.3,108z"/>
	<path class="st11" d="M87,179.2c-3.1-0.4-6.1-0.8-9.2-1.3c-0.3,0-0.7,0-1,0c3.9,1.3,8.1,2.5,12.2,3.8c-0.2-0.1-0.4-0.2-0.7-0.3
		C87.4,180.7,87,180,87,179.2z"/>
	<path class="st12" d="M193.5,190.4c-5.2,4.5-28.8,16.4-35.9,17.5c-5.3,0.9-7.2-4.5-21.1-10.7c-3.3-1.4,3.9-7.2,4.4-8.6
		c-5,0.6-9.7,2-14.6,3.7c-2,0.7-6.5,0.6-8-0.6c-11.9-10.3-43.7-16-52.2-19.1c-4.7-1.8-11.6-5.5-12.2-10.2c-0.4-2.8,1.4-5.2,2.3-7.8
		c1.4-3.9-6-3.1-8.2-3.5c-8.2-1.5-29.9-7.7-38-16.1c0,0,0,0,0,0c15.2,14.5,28.3,17.1,43.7,19.1c1.1,2.5-3,6.5-0.9,10.6
		c6.5,12.8,55.1,18.4,66.6,29.9c2.8,2.8,17.3-3.6,17.3-3.6c0,2.3-6.1,5.5-6.1,5.5c14.3,7.2,21.1,14.5,27.2,13.7
		c6-0.8,22.4-9.4,27.7-12.3c10.4-5.7,13.7-11.6,24.8-15.3c13.6-4.5,20.8-4.7,30.7-15.4c-5.6-0.5-10.6-1.6-16.4-1.5
		c14.1-5.7,30.8-1.7,45-9.1c9-4.7,18.1-13.9,27.9-18.5c-7,1.4-13.3,6.9-19.1,10.5c-8.3,5.2-14.9,9.7-25.2,10.9
		c-6.5,0.8-24.3,2.6-27.3,4.2c-2.7,1.5-5.2,2.7-2.1,2.9c7.8,0.6,14.1,2,14.1,2c-13.8,10.7-28.7,10.1-32.8,12.4
		C200.5,183.5,197.3,187.1,193.5,190.4z"/>
	<path class="st2" d="M282.4,196.2c5.1-8.8,10.3-17.5,12.5-27.3c-5,1.1-12.5-0.8-17.7,0c-1.7,1.7,8.2,3.4,9,5.3c0,0-0.6,4.2-0.8,5.6
		C284.4,185.3,283.4,190.8,282.4,196.2z"/>
	<path class="st13" d="M235.8,213c3.9-1.4,16.9-7.1,18.6-10.4c2.3-4.7-15.9-6.6-20.2-5.2c0,0-6,2.9-8.9,4c-3.5,1.3-8.5,2.9-12.4,2.1
		c0.3,0.8,1.1,2.4,2,3.3C219.2,211.2,229.8,215.1,235.8,213z"/>
	<path class="st14" d="M235.8,213c3.4-1.2,13.6-5.6,17.3-8.9c-11.2,7.5-29.8,9.7-38.9-0.4c-0.4,0-0.9-0.1-1.3-0.2
		c0.3,0.8,1.1,2.4,2,3.3C219.2,211.2,229.8,215.1,235.8,213z"/>
	<path class="st10" d="M30,190.2c5.7,1.2,11.1,4.9,15.8,7.9c3.2-3.6,7.3-7.9,7.3-13.2c-4.1-1.5-8.9-3.6-11.4-6.7
		C32.8,181.5,17.3,188.6,30,190.2z"/>
	<path class="st12" d="M43.8,195c-2.7-2.1-9.6-4.8-15.5-5.9c-3-0.6-2.6-1.6-2.8-2c-0.7,1.4,0.4,2.5,4.6,3.1
		c5.7,1.2,11.1,4.9,15.8,7.9c3.1-3.5,7.1-7.7,7.2-12.9c-1.3,3.4-2.2,4.4-4.1,7.4C48.1,193.9,45.1,196.1,43.8,195z"/>
	<path class="st4" d="M108.4,205.3c-2.3,2.1-3.6,3.9-5,6.6c-3.4,6.6-5.1,11.4-3.2,18.9c2.3,9,5.9,17.7,9.3,26.4
		c2.3,6,5.7,17.3,12,21.1c2.5-2,5.7-4.1,7.9-6.4c-4-10.1-6.2-23-7.4-34.1c-1.3-11.3-3.4-23-4.4-34.1
		C114.7,202.6,110.1,203.7,108.4,205.3z"/>
	<path class="st8" d="M117.6,205c0-0.5-0.1-0.9-0.2-1.4c-2.8-1-7.4,0-9.1,1.6c-2.3,2.1-3.6,3.9-5,6.6c-3.4,6.6-5.1,11.4-3.2,18.9
		c2.3,9,5.9,17.7,9.3,26.4c2.3,6,5.7,17.3,12,21.1c2.1-1.7,4.7-3.5,6.8-5.4c-8.1-5.4-8.6-15.4-12.2-24.2c-3-7.3-5.4-14.5-5.3-22.3
		c0.1-7.5,4-13.1,6.3-20.1C117.2,205.8,117.4,205.4,117.6,205z"/>
	<path class="st6" d="M103.2,209.3c-3.6-1.9-9.3-2.8-13.3-5.1c-3.5-2-20-8.4-24.2-8c0.7,10.9,12.3,24.3,17.5,35.8
		c5.6,12.5,10,20.6,14,33.5c1.4,4.5,12.2,3.6,17.2,12.3l7.1,0.5c0,0-1.5-8.5-2.6-11.9c-1.4-4.3-9.2-29.8-11.2-38.1
		C106.3,222.9,108.8,212.3,103.2,209.3z"/>
	<path class="st9" d="M106.3,213.3c-3,0.8-6.2,0.9-9.4,0.8c9.7,7.8,11.9,21.7,14.1,32.6c2.2,10.9,7,20.9,9.8,31.5l0.7,0
		c0,0-1.5-8.5-2.6-11.9c-1.4-4.3-9.2-29.8-11.2-38.1C106.7,224.4,107.7,217.8,106.3,213.3z"/>
	<path class="st10" d="M66.7,193.8c-4.5,3.6,7.2,15.8,13.9,18.7c7,3.1,16.4,3.7,24.1,2.9c7-0.7,13.1-12.2,13.1-12.2
		c-4.1-2.4-13.1-3.4-19.5-7.1c-8.3-4.8-18.6-9.8-18.6-9.8C75.1,190.1,71.1,190.3,66.7,193.8z"/>
	<path class="st12" d="M66.7,193.8c-4.5,3.6,7.2,15.8,13.9,18.7c7,3.1,16.4,3.7,24.1,2.9c5.5-0.5,10.5-7.9,12.4-10.9
		c-9.3,9.9-17.7,11.2-35,5.8c-5.2-1.6-17.1-8.4-14.1-17.4C67.5,193.1,67.1,193.4,66.7,193.8z"/>
	<path class="st15" d="M175.1,192.6c0-0.1,0-0.2,0-0.2l-0.7,0.6C174.6,193,174.9,192.8,175.1,192.6z"/>
</g>
<g>
	<polygon class="st16" points="135.1,96.6 44.9,148 14.2,130.8 14.3,134.7 44.2,152.1 135.1,99.6 	"/>
	<g>
		<g>
			<g>
				<polygon class="st17" points="166.5,96.8 166.5,99.9 75.7,152.3 75.7,149.3 				"/>
			</g>
			<polygon class="st18" points="57,125.3 69.4,118.2 80,112 100.2,100.4 122,87.8 136.6,79.4 166.5,96.8 158.8,101.3 135.9,114.5 
				114.9,126.6 99.5,135.5 92.6,139.5 75.7,149.3 45.7,131.9 			"/>
		</g>
		<path class="st18" d="M129.8,48.8c4.6-2.5,11.8-2.5,16.2,0.2c2.5,1.5,3.5,3.5,3,5.4l9.8,6.1l7.7-4.4l-29.9-17.4L122,47l5.8,3.4
			C128.4,49.8,129,49.3,129.8,48.8z"/>
		<g>
			<g>
				<path class="st19" d="M129.1,11.5V94c0,5.3,4.2,9.6,9.5,9.6c5.2,0,9.5-4.3,9.5-9.6V11.5H129.1z"/>
				<linearGradient id="SVGID_1_" gradientUnits="userSpaceOnUse" x1="138.6413" y1="145.3112" x2="138.6413" y2="59.1934">
					<stop  offset="1.759300e-04" style="stop-color:#4A3292"/>
					<stop  offset="0.1262" style="stop-color:#503390"/>
					<stop  offset="0.2891" style="stop-color:#60358B"/>
					<stop  offset="0.4723" style="stop-color:#7A3884"/>
					<stop  offset="0.6703" style="stop-color:#A03D78"/>
					<stop  offset="0.878" style="stop-color:#CF436A"/>
					<stop  offset="1" style="stop-color:#EE4761"/>
				</linearGradient>
				<path class="st20" d="M130.8,46.5V94c0,4.4,3.5,8,7.9,8c4.3,0,7.9-3.6,7.9-8V46.5H130.8z"/>
				<g>
					<path class="st21" d="M144.3,43.3c3,1.8,2.9,4.7-0.2,6.5c-3.1,1.8-8.1,1.7-11.1-0.1c-3-1.8-2.9-4.7,0.2-6.5
						C136.3,41.5,141.3,41.5,144.3,43.3z"/>
				</g>
			</g>
			<path class="st22" d="M131.3,11.7v76.9c0,4.9,1.1,9,2.4,9c1.3,0,2.4-4,2.4-9V11.7H131.3z"/>
			<g>
				<g>
					<path class="st23" d="M127.2,15.3l0-5.1c0,1.7,1.1,3.3,3.2,4.6c4.4,2.7,11.6,2.7,16.2,0.2c2.3-1.3,3.5-3.1,3.5-4.9l0,5.1
						c0,1.8-1.2,3.5-3.5,4.9c-4.6,2.6-11.8,2.5-16.2-0.2C128.2,18.7,127.2,17,127.2,15.3z"/>
				</g>
			</g>
			<g>
				<path class="st24" d="M146.9,5.5c4.4,2.7,4.2,6.9-0.3,9.5c-4.6,2.6-11.8,2.5-16.2-0.2c-4.4-2.7-4.2-6.9,0.3-9.5
					C135.3,2.8,142.5,2.9,146.9,5.5z"/>
				<path class="st25" d="M138.6,15.3c-2.8,0-5.5-0.7-7.4-1.8c-1.6-1-2.4-2.1-2.4-3.3c0-1.2,1-2.4,2.7-3.4c1.9-1.1,4.5-1.7,7.2-1.7
					c2.8,0,5.5,0.7,7.4,1.8c1.6,1,2.4,2.1,2.4,3.3c0,1.2-1,2.4-2.7,3.4C143.9,14.7,141.3,15.3,138.6,15.3z"/>
				<path class="st26" d="M148.5,10.2c0,0.5-0.2,1-0.5,1.5c-0.4-0.6-1-1.2-1.9-1.7c-1.9-1.2-4.6-1.8-7.4-1.8c-2.7,0-5.3,0.6-7.2,1.7
					c-1,0.6-1.7,1.2-2.2,1.9c-0.3-0.5-0.5-1-0.5-1.6c0-1.2,1-2.4,2.7-3.4c1.9-1.1,4.5-1.7,7.2-1.7c2.8,0,5.5,0.7,7.4,1.8
					C147.6,7.9,148.5,9.1,148.5,10.2z"/>
			</g>
		</g>
		<g>
			<g class="st27">
				<g>
					<polygon class="st28" points="162.5,59 162.6,96.7 164.7,97.9 164.6,59 					"/>
				</g>
				<g>
					<polygon class="st17" points="164.6,59 164.7,97.9 166.5,96.8 166.5,59 					"/>
				</g>
			</g>
		</g>
		<path class="st18" d="M149,54.4c-0.3,1.5-1.4,2.9-3.4,4c-4.6,2.5-11.8,2.5-16.2-0.2c-3.6-2.2-4.1-5.4-1.6-7.8L122,47l-21.8,12.6
			l5.8,3.3c0.5-0.6,1.2-1.1,2.1-1.6c4.6-2.5,11.8-2.5,16.2,0.2c3,1.8,3.8,4.4,2.5,6.7l9.1,5.6l23-13.3L149,54.4z"/>
		<g>
			<g>
				<path class="st19" d="M106.9,20.7v82.5c0,5.3,4.2,9.6,9.5,9.6c5.2,0,9.5-4.3,9.5-9.6V20.7H106.9z"/>
				<linearGradient id="SVGID_2_" gradientUnits="userSpaceOnUse" x1="116.3689" y1="145.3117" x2="116.3689" y2="59.1933">
					<stop  offset="1.759300e-04" style="stop-color:#4A3292"/>
					<stop  offset="0.1262" style="stop-color:#503390"/>
					<stop  offset="0.2891" style="stop-color:#60358B"/>
					<stop  offset="0.4723" style="stop-color:#7A3884"/>
					<stop  offset="0.6703" style="stop-color:#A03D78"/>
					<stop  offset="0.878" style="stop-color:#CF436A"/>
					<stop  offset="1" style="stop-color:#EE4761"/>
				</linearGradient>
				<path class="st29" d="M108.5,55.7v47.5c0,4.4,3.5,8,7.9,8c4.3,0,7.9-3.6,7.9-8V55.7H108.5z"/>
				<g>
					<path class="st21" d="M122,52.5c3,1.8,2.9,4.7-0.2,6.5c-3.1,1.8-8.1,1.7-11.1-0.1c-3-1.8-2.9-4.7,0.2-6.5
						C114.1,50.6,119,50.6,122,52.5z"/>
				</g>
			</g>
			<path class="st22" d="M109,20.9v76.9c0,4.9,1.1,9,2.4,9c1.3,0,2.4-4,2.4-9V20.9H109z"/>
			<g>
				<g>
					<path class="st23" d="M104.9,24.5l0-5.1c0,1.7,1.1,3.3,3.2,4.6c4.4,2.7,11.6,2.7,16.2,0.2c2.3-1.3,3.5-3.1,3.5-4.9l0,5.1
						c0,1.8-1.2,3.5-3.5,4.9c-4.6,2.6-11.8,2.5-16.2-0.2C106,27.8,104.9,26.1,104.9,24.5z"/>
				</g>
			</g>
			<g>
				<path class="st24" d="M124.6,14.7c4.4,2.7,4.2,6.9-0.3,9.5c-4.6,2.6-11.8,2.5-16.2-0.2c-4.4-2.7-4.2-6.9,0.3-9.5
					C113,11.9,120.3,12,124.6,14.7z"/>
				<path class="st25" d="M116.3,24.4c-2.8,0-5.5-0.7-7.4-1.8c-1.6-1-2.4-2.1-2.4-3.3c0-1.2,1-2.4,2.7-3.4c1.9-1.1,4.5-1.7,7.2-1.7
					c2.8,0,5.5,0.7,7.4,1.8c1.6,1,2.4,2.1,2.4,3.3c0,1.2-1,2.4-2.7,3.4C121.6,23.8,119,24.4,116.3,24.4z"/>
				<path class="st26" d="M126.2,19.3c0,0.5-0.2,1-0.5,1.5c-0.4-0.6-1-1.2-1.9-1.7c-1.9-1.2-4.6-1.8-7.4-1.8c-2.7,0-5.3,0.6-7.2,1.7
					c-1,0.6-1.7,1.2-2.2,1.9c-0.3-0.5-0.5-1-0.5-1.6c0-1.2,1-2.4,2.7-3.4c1.9-1.1,4.5-1.7,7.2-1.7c2.8,0,5.5,0.7,7.4,1.8
					C125.4,17,126.2,18.2,126.2,19.3z"/>
			</g>
		</g>
		<path class="st18" d="M126.8,68.1c-0.6,1-1.5,1.9-2.9,2.7c-4.6,2.5-11.8,2.5-16.2-0.2c-3.5-2.1-4.1-5.3-1.7-7.7l-5.8-3.3L80,71.2
			l5.4,3.1c0.3-0.2,0.6-0.5,1-0.7c4.6-2.5,11.8-2.5,16.2,0.2c2.9,1.7,3.7,4.1,2.8,6.2l9.5,5.7l20.9-12.1L126.8,68.1z"/>
		<g>
			<g>
				<path class="st19" d="M85.6,33.2v82.5c0,5.3,4.2,9.6,9.5,9.6c5.2,0,9.5-4.3,9.5-9.6V33.2H85.6z"/>
				<linearGradient id="SVGID_3_" gradientUnits="userSpaceOnUse" x1="95.0863" y1="145.3115" x2="95.0863" y2="59.1932">
					<stop  offset="1.759300e-04" style="stop-color:#4A3292"/>
					<stop  offset="0.1262" style="stop-color:#503390"/>
					<stop  offset="0.2891" style="stop-color:#60358B"/>
					<stop  offset="0.4723" style="stop-color:#7A3884"/>
					<stop  offset="0.6703" style="stop-color:#A03D78"/>
					<stop  offset="0.878" style="stop-color:#CF436A"/>
					<stop  offset="1" style="stop-color:#EE4761"/>
				</linearGradient>
				<path class="st30" d="M87.2,68.2v47.5c0,4.4,3.5,8,7.9,8c4.3,0,7.9-3.6,7.9-8V68.2H87.2z"/>
				<g>
					<path class="st21" d="M100.8,65c3,1.8,2.9,4.7-0.2,6.5c-3.1,1.8-8.1,1.7-11.1-0.1c-3-1.8-2.9-4.7,0.2-6.5
						C92.8,63.1,97.8,63.2,100.8,65z"/>
				</g>
			</g>
			<path class="st22" d="M87.7,33.4v76.9c0,4.9,1.1,9,2.4,9c1.3,0,2.4-4,2.4-9V33.4H87.7z"/>
			<g>
				<g>
					<path class="st23" d="M83.6,37l0-5.1c0,1.7,1.1,3.3,3.2,4.6c4.4,2.7,11.6,2.7,16.2,0.2c2.3-1.3,3.5-3.1,3.5-4.9l0,5.1
						c0,1.8-1.2,3.5-3.5,4.9c-4.6,2.6-11.8,2.5-16.2-0.2C84.7,40.4,83.6,38.7,83.6,37z"/>
				</g>
			</g>
			<g>
				<path class="st24" d="M103.4,27.2c4.4,2.7,4.2,6.9-0.3,9.5c-4.6,2.6-11.8,2.5-16.2-0.2c-4.4-2.7-4.2-6.9,0.3-9.5
					C91.7,24.5,99,24.6,103.4,27.2z"/>
				<path class="st25" d="M95.1,36.9c-2.8,0-5.5-0.7-7.4-1.8c-1.6-1-2.4-2.1-2.4-3.3c0-1.2,1-2.4,2.7-3.4c1.9-1.1,4.5-1.7,7.2-1.7
					c2.8,0,5.5,0.7,7.4,1.8c1.6,1,2.4,2.1,2.4,3.3c0,1.2-1,2.4-2.7,3.4C100.3,36.3,97.8,36.9,95.1,36.9z"/>
				<path class="st26" d="M104.9,31.9c0,0.5-0.2,1-0.5,1.5c-0.4-0.6-1-1.2-1.9-1.7c-1.9-1.2-4.6-1.8-7.4-1.8c-2.7,0-5.3,0.6-7.2,1.7
					c-1,0.6-1.7,1.2-2.2,1.9c-0.3-0.5-0.5-1-0.5-1.6c0-1.2,1-2.4,2.7-3.4c1.9-1.1,4.5-1.7,7.2-1.7c2.8,0,5.5,0.7,7.4,1.8
					C104.1,29.6,104.9,30.7,104.9,31.9z"/>
			</g>
		</g>
		<path class="st18" d="M64.5,86.3c4.6-2.5,11.8-2.5,16.2,0.2c3,1.8,3.8,4.4,2.6,6.6l9.3,5.7l6.9-4l15.4-8.9l-9.5-5.7
			c-0.5,1.1-1.5,2.2-3.1,3.1c-4.6,2.5-11.8,2.5-16.2-0.2c-4-2.4-4.2-6.1-0.7-8.7L80,71.2l-10.6,6.1L57,84.5l5.6,3.2
			C63.1,87.2,63.7,86.7,64.5,86.3z"/>
		<g>
			<g>
				<path class="st19" d="M63,48v82.5c0,5.3,4.2,9.6,9.5,9.6c5.2,0,9.5-4.3,9.5-9.6V48H63z"/>
				<linearGradient id="SVGID_4_" gradientUnits="userSpaceOnUse" x1="72.551" y1="145.3112" x2="72.551" y2="59.1935">
					<stop  offset="1.759300e-04" style="stop-color:#4A3292"/>
					<stop  offset="0.1262" style="stop-color:#503390"/>
					<stop  offset="0.2891" style="stop-color:#60358B"/>
					<stop  offset="0.4723" style="stop-color:#7A3884"/>
					<stop  offset="0.6703" style="stop-color:#A03D78"/>
					<stop  offset="0.878" style="stop-color:#CF436A"/>
					<stop  offset="1" style="stop-color:#EE4761"/>
				</linearGradient>
				<path class="st31" d="M64.7,82.9v47.5c0,4.4,3.5,8,7.9,8c4.3,0,7.9-3.6,7.9-8V82.9H64.7z"/>
				<g>
					<path class="st21" d="M78.2,79.7c3,1.8,2.9,4.7-0.2,6.5c-3.1,1.8-8.1,1.7-11.1-0.1c-3-1.8-2.9-4.7,0.2-6.5
						C70.2,77.9,75.2,77.9,78.2,79.7z"/>
				</g>
			</g>
			<path class="st22" d="M65.2,48.2V125c0,4.9,1.1,9,2.4,9c1.3,0,2.4-4,2.4-9V48.2H65.2z"/>
			<g>
				<g>
					<path class="st23" d="M61.1,51.8l0-5.1c0,1.7,1.1,3.3,3.2,4.6c4.4,2.7,11.6,2.7,16.2,0.2c2.3-1.3,3.5-3.1,3.5-4.9l0,5.1
						c0,1.8-1.2,3.5-3.5,4.9c-4.6,2.6-11.8,2.5-16.2-0.2C62.2,55.1,61.1,53.4,61.1,51.8z"/>
				</g>
			</g>
			<g>
				<path class="st24" d="M80.8,41.9c4.4,2.7,4.2,6.9-0.3,9.5c-4.6,2.6-11.8,2.5-16.2-0.2c-4.4-2.7-4.2-6.9,0.3-9.5
					C69.2,39.2,76.4,39.3,80.8,41.9z"/>
				<path class="st25" d="M72.5,51.7c-2.8,0-5.5-0.7-7.4-1.8c-1.6-1-2.4-2.1-2.4-3.3c0-1.2,1-2.4,2.7-3.4c1.9-1.1,4.5-1.7,7.2-1.7
					c2.8,0,5.5,0.7,7.4,1.8c1.6,1,2.4,2.1,2.4,3.3c0,1.2-1,2.4-2.7,3.4C77.8,51.1,75.2,51.7,72.5,51.7z"/>
				<path class="st26" d="M82.4,46.6c0,0.5-0.2,1-0.5,1.5c-0.4-0.6-1-1.2-1.9-1.7c-1.9-1.2-4.6-1.8-7.4-1.8c-2.7,0-5.3,0.6-7.2,1.7
					c-1,0.6-1.7,1.2-2.2,1.9c-0.3-0.5-0.5-1-0.5-1.6c0-1.2,1-2.4,2.7-3.4c1.9-1.1,4.5-1.7,7.2-1.7c2.8,0,5.5,0.7,7.4,1.8
					C81.5,44.3,82.4,45.5,82.4,46.6z"/>
			</g>
		</g>
		<g>
			<g class="st27">
				<polygon class="st28" points="75.7,152.3 75.7,149.3 75.6,149.3 75.6,108.5 45.7,91 45.7,134.9 				"/>
				<g>
					<polygon class="st17" points="166.5,56 166.5,59 75.6,111.5 75.6,108.5 					"/>
				</g>
				<g>
					<polygon class="st18" points="162.6,71.8 164.6,73 75.6,128.3 75.6,121.5 					"/>
				</g>
				<g>
					<polygon class="st17" points="166.5,71.9 166.5,78.8 75.6,131.2 75.6,124.4 					"/>
				</g>
			</g>
		</g>
		<path class="st18" d="M83.2,93c-0.6,1-1.5,2-2.9,2.8c-4.6,2.5-11.8,2.5-16.2-0.2c-3.6-2.2-4.1-5.4-1.6-7.9L57,84.5L45.7,91
			l29.9,17.4l16.9-9.8L83.2,93z"/>
	</g>
	<g>
		<g class="st32">
			<path class="st33" d="M158.1,151.1c5.3,3.1,5.3,8,0.1,11.1c-5.3,3.1-13.8,3.1-19.1,0c-5.3-3.1-5.3-8-0.1-11.1
				C144.2,148,152.8,148,158.1,151.1z"/>
		</g>
		<g>
			<g>
				<g>
					<g>
						<g>
							<path class="st34" d="M139.7,131.5c0.2,3.1,1.8,7.8,1.9,10.9c-1.1,2.4-0.3,5.9,0,8.3c0.2,1,0.4,2,0.7,2.9
								c0.1,0.5,0.3,1,0.4,1.5c0.1,0.4,0.1,0.7,0.2,1.1c0,0.3,0.3,0.4,0.6,0.5c0.3,0,0.5,0,0.8-0.1c0.9-0.3,1.8-0.7,2.7-1.1
								c0.2-0.1,0.4-0.2,0.5-0.3c0.1-0.2,0.2-0.4,0.1-0.6c-0.1-0.2,0.1-0.4-0.1-0.4c-0.6-0.1-2.5,0.5-2.5-0.3
								c0.4-2.2,0.4-5.6,0.8-7.7c0.2-0.7,2.1-8.4,2.2-9.7c0.2-1.5,0.3-3,0.4-4.6c0-0.1,0-0.2,0-0.3c0-0.3,0-0.6,0-0.9
								C147.7,128.1,139.5,127.5,139.7,131.5z"/>
							<path class="st35" d="M139.7,131.5c0.2,3.1,1.8,7.8,1.9,10.9c0,0,0,0.1,0,0.1c1.5,0.7,3.9,0.2,3.6,2.1
								c-0.5,3-0.5,5.8-0.5,8.8c0,0.2,0.2,0.4,0.4,0.5c0-0.1-0.1-0.1-0.1-0.2c0.4-2.2,0.4-5.6,0.8-7.7c0.2-0.7,2.1-8.4,2.2-9.7
								c0.2-1.5,0.3-3,0.4-4.6c0-0.1,0-0.2,0-0.3c0-0.3,0-0.6,0-0.9C147.7,128.1,139.5,127.5,139.7,131.5z"/>
							<path class="st36" d="M142.7,157.1C142.7,157.1,142.7,157.1,142.7,157.1c0.2,0.4,0.5,0.7,0.9,0.7c0.1,0,0.3,0,0.4,0
								c0.2,0,0.3-0.1,0.5-0.1c0.2-0.1,0.3-0.2,0.4-0.3c0.2-0.1,0.3-0.3,0.4-0.4c0.4-0.4,0.9-0.5,1.4-0.6c0.5-0.1,1-0.2,1.4-0.4
								c0.2-0.1,1.6-0.9,1.8-1.7c0.1-0.3-1.8-1.1-2.1-1c-0.5,0.2-2,0.7-2.3,0.8c0.6,0,2.5-0.2,2.5-0.1c0.1,0.1,0.1,0.3,0,0.4
								c-0.1,0.1-0.2,0.2-0.4,0.3c-0.8,0.5-1.7,0.7-2.6,0.9c-0.3,0.1-0.6,0.1-1,0.1c-0.1,0-1-0.1-1.3-0.8c-0.2,0.3-0.3,0.7-0.3,1.1
								C142.5,156.4,142.6,156.8,142.7,157.1z"/>
							<path class="st37" d="M152.4,155.9c-0.8,0.3-1.8,0.4-2-0.5c-0.9-4.1,0.1-5.1,0.3-9.3c0-0.7,2.3-7.8,1.2-14l-8.1,0.6
								c0.2,4.8,1.1,8.3,2.4,10.9c-2.1,5.9,1.2,10.6,1.8,12.5c0,0.3-0.7,1.2,0,1.8c0.3,0.3,7.4-0.9,6.4-2
								C154,155.6,153.1,155.6,152.4,155.9z"/>
							<path class="st35" d="M150.1,143.7c0.7,3.8-2.1,8.1,0.3,11.6c0,0,0,0.1,0.1,0.1c0,0,0-0.1,0-0.1c-0.9-4.1,0.1-5.1,0.3-9.3
								c0-0.7,2.3-7.8,1.2-14l-8.1,0.6c0.2,4.4,1,7.7,2.1,10.2C147.5,143.5,149.8,142.4,150.1,143.7z"/>
						</g>
					</g>
				</g>
			</g>
			<path class="st38" d="M140,140.8c1.1,1.4,3.1,1.7,4.8,1.8c2.5,0.2,5,0,7.4-0.6c0.4-0.2,0.7-0.6,0.9-1c0.3-0.6,0.3-1.4,0.2-2.1
				c-0.1-2.3-0.5-4.5-1.1-6.6c-0.3-1-0.6-1.9-1.3-2.6c-0.9-0.9-2.2-0.9-3.4-0.8c-1.6,0.1-3.3,0.2-4.9,0.3c-1,0.1-2.3,0-2.9,1.3
				c-0.5,1.2-0.5,3.1-0.6,4.4c-0.1,1.1-0.2,2.1-0.2,3.2C139.2,139.1,139.5,140.1,140,140.8z"/>
			<path class="st39" d="M153.3,139c-0.1-2.3-0.5-4.5-1.1-6.6c-0.3-1-0.6-1.9-1.3-2.6c-0.9-0.9-2.2-0.9-3.4-0.8
				c-1.6,0.1-3.3,0.2-4.9,0.3c-1,0.1-2.3,0-2.9,1.3c-0.5,1.2-0.5,3.1-0.6,4.4c-0.1,1-0.2,2.1-0.2,3.2c3.8,2.9,9,0.7,13.5,1.2
				c0.7,1.2,0.1,2.1-0.8,2.8c0.2,0,0.4-0.1,0.5-0.1c0.4-0.2,0.7-0.6,0.9-1C153.4,140.4,153.4,139.7,153.3,139z"/>
			<g>
				<path class="st37" d="M154.3,109l3.3,0.3l1.3,0.8c0.1,0.1,0.8,0.5,0.7,0.9c0,0.3-0.3,1.9-0.8,1.7c-0.3-0.1-3.1-1.6-3.1-1.6
					c-0.2-0.1-0.8-0.1-0.9-0.2l-0.7-0.8L154.3,109z"/>
				<g>
					<path class="st40" d="M153.8,111.9c0,0.1,0.2,0.2,0.4,0.3l2.3,0.9l0-0.2c0,0,0,0,0-0.1l-1.7-0.7c0,0-0.1,0-0.1-0.1
						c0-0.2,0-0.3-0.1-0.5c0,0,0-0.1,0-0.1l4.9-3.9c0.1-0.1,0.2-0.1,0.3,0l5.3,2.1c0,0,0.1,0,0.1,0.1l0.1,0.4l0.1-0.1
						c0.1-0.1,0.2-0.2,0.2-0.3c0,0.2,0,0.3,0.1,0.5c0,0.1,0,0.2-0.2,0.3l-5.1,4c-0.3,0.2-0.8,0.3-1.1,0.2l-5-2
						c-0.2-0.1-0.4-0.2-0.4-0.3C153.9,112.3,153.9,112.1,153.8,111.9z"/>
					<g>
						<path class="st41" d="M154.7,111.5l4.9-3.9c0.1-0.1,0.2-0.1,0.3,0l5.3,2.1c0.1,0,0.1,0.1,0,0.2l-4.9,3.9
							c-0.1,0.1-0.2,0.1-0.3,0l-5.3-2.1C154.6,111.6,154.6,111.6,154.7,111.5z"/>
						<g>
							<path class="st42" d="M157,112.7c-0.1,0-0.3,0-0.4,0.1c-0.1,0.1-0.1,0.2,0,0.2l0.5,0.2c0.1,0,0.3,0,0.4-0.1
								c0.1-0.1,0.1-0.2,0-0.2L157,112.7z"/>
						</g>
						<g>
							<path class="st43" d="M165.3,109.5c0.3,0.1,0.4,0.4,0.1,0.6l-5.1,4c-0.3,0.2-0.8,0.3-1.1,0.2l-5-2c-0.3-0.1-0.5-0.3-0.3-0.5
								l5.2-4.1c0.3-0.2,0.8-0.3,1.1-0.2L165.3,109.5z M154.7,111.5c-0.1,0.1-0.1,0.1,0,0.2l5.3,2.1c0.1,0,0.2,0,0.3,0l4.9-3.9
								c0.1-0.1,0.1-0.1,0-0.2l-5.3-2.1c-0.1,0-0.2,0-0.3,0L154.7,111.5L154.7,111.5z M156.6,113l0.5,0.2c0.1,0,0.3,0,0.4-0.1
								c0.1-0.1,0.1-0.2,0-0.2l-0.5-0.2c-0.1,0-0.3,0-0.4,0.1C156.5,112.9,156.5,113,156.6,113L156.6,113z"/>
						</g>
					</g>
				</g>
				<path class="st44" d="M155,108.7c0.9,0.2,1,2.3-0.4,2.5l-5.3,0.9c-1.4,0.2-2.7-0.8-2.9-2.2l0,0c-0.2-1.4,0.8-2.7,2.2-2.9
					C148.5,107.2,153.4,108.4,155,108.7z"/>
				<path class="st45" d="M149.5,109c-0.3-0.4-2.7-1.3-4.8-1.3c-2.1,0-3.1-1.8-3.1,0.2c0,2.1,0.3,11.5,2.4,11.5
					C146,119.4,150.6,110.7,149.5,109z"/>
				<g>
					<path class="st37" d="M144.1,106.1c0,1.2,4.2,0.3,4.2,0.3v-2.3l-4.1-0.3l-0.1,1.7C144.1,105.5,144.1,106.1,144.1,106.1z"/>
					<path class="st46" d="M143.6,102.1c2,2.1,2.8,2.1,4.8,0.7c2-1.4,2.9-3.4,2.4-6.4c-0.5-3.2-4.3-4-6.7-2.5
						C139.5,96.7,141.1,99.5,143.6,102.1z"/>
					<path class="st37" d="M144.5,100.1c0.1,0.9-0.2,2.2,0.2,2.8c2,2.8,5.1,1.6,5.1,1.6c1.4-1.1,1.7-3.4,1.7-6.3
						c0-2.9-2.4-3.4-4-2.2C145.9,97.2,144.1,97.3,144.5,100.1z"/>
					<path class="st35" d="M149.8,95.4c1.1,1.9,1.2,4.1,0.9,6.2c-0.1,1.2-0.6,2.5-1.6,3c0.4-0.1,0.6-0.2,0.6-0.2
						c1.4-1.1,1.7-3.4,1.7-6.3C151.5,96.5,150.7,95.6,149.8,95.4z"/>
					<path class="st46" d="M141.2,97.2c0.2-1.2,3.2-1.4,3.2-1.4c0.2-0.2,1.5-5,6.5-1.1c1,0.8,0.4,3.9-0.6,5.6
						c-0.1,0.2-0.3,0.3-0.6,0.3c-0.9,0.1-2.5-0.7-2.7-0.5c-0.3,0.2,0.9,0.4,0.1,1.8c-0.1,0.2-0.2,0.4-0.3,0.6
						c-0.4,0.8-0.9,2.3-2.9,1C143.6,103.5,140.3,100.1,141.2,97.2z"/>
					<path class="st37" d="M146.6,100.9c0.4,0.6,0.8,0.9,1.2,0.8c0.4-0.2,0.5-0.6,0.3-1.3c-0.3-0.7-1-1-1.4-0.9
						C146.3,99.6,146.2,100.2,146.6,100.9z"/>
				</g>
				<path class="st36" d="M149.5,107.3c0-0.3-1-2.1-1.2-1.9c-0.9,0.7-3,0.5-3.6,0.2c-0.5-0.3-0.5-0.9-0.5-0.9s-3.7,3,1.1,3.9
					c1,0.2,2,0.1,2.9-0.3C148.9,108,150.2,108,149.5,107.3z"/>
				<path class="st36" d="M138.6,137.4c0.5,0.7,1.2,1.1,2.1,1.3c1.3,0.3,2.6,0.3,3.9,0.4c1.6,0.1,3.2,0.2,4.8-0.2
					c1.7-0.3,3.1-1.1,4.2-2.5c0,0,0,0,0,0c1.2-6-1.2-11.9-1.5-15.9c-0.1-1.7,0.6-3,0.9-3.7c2.2-5.8,0.7-7.7-3.5-9.9
					c0,0-1.3,1.5-4.2,0.8c-3-0.6-1.7-2.4-1.7-2.4c-4.3-0.5-4,3.9-3.4,6.4c0.2,0.9,1.6,5.2,0.8,8.8c-0.4,1.8-0.6,1.6-1.3,3.9
					c-1.6,5.2-1.5,9.6-1.1,12.8C138.5,137.2,138.5,137.3,138.6,137.4z"/>
				<path class="st47" d="M141.7,122.7c1.4-0.9,3.3-0.4,4.9-1.1c-0.9-0.8-2.1-0.7-3.2-0.8c-2.4-0.2-2.1-2.8-1.3-4.4
					c0.9-1.9,2.7-3.1,3-5.3c0.2-1.2,0.1-2.4-0.1-3.5c-2.8-0.7-1.6-2.4-1.6-2.4c-4.3-0.5-4,3.9-3.4,6.4c0.2,0.9,1.6,5.2,0.8,8.8
					c-0.4,1.8-0.6,1.6-1.3,3.9c-0.1,0.4-0.2,0.8-0.4,1.3C139.8,124.5,140.6,123.5,141.7,122.7z"/>
				<path class="st47" d="M153.5,136.5C153.5,136.5,153.5,136.5,153.5,136.5c1.2-6-1.2-11.9-1.5-16c-0.1-1.7,0.6-3,0.9-3.7
					c1.7-4.5,1.2-6.7-1.1-8.5c-1.5,0.1-3.1,0.5-3.2,2.1c-0.2,1.3-0.3,2.5,0.3,3.7c3.4,6.6,3.6,13.9,3.6,21c-0.1,0.5-0.4,1-0.8,1.4
					c-0.6,0.9-1.6,1.5-2.2,2.3C151,138.6,152.4,137.8,153.5,136.5z"/>
				<g>
					<path class="st37" d="M161.3,114.2c0,0.2-0.2,0.4-0.5,0.3l0,0c-0.2,0-0.4-0.2-0.3-0.5l0.3-2.1c0-0.2,0.2-0.4,0.5-0.3l0,0
						c0.2,0,0.4,0.2,0.3,0.5L161.3,114.2z"/>
					<path class="st37" d="M160.6,114.7l0.6-2l0.9-1.4c0.1-0.1,0.5-0.8,1-0.8c0.3,0,2,0.3,1.8,0.8c-0.1,0.4-1.5,2.9-1.5,2.9
						c0,0-0.5,0.2-1.1,1.1l-0.1,0.9L160.6,114.7z"/>
					<path class="st48" d="M160.5,113.2c0,0-2.6,2.9-3.5,2.9c-0.8,0-4-6.8-4-6.8c-0.8-1.2-2.5-1.5-3.7-0.6c-1.2,0.8-0.9,3.3,0,4.5
						l5.4,7.6c0.7,1,2,1.4,3.1,1c0.5-0.1,0.9-0.4,1.2-0.8c1.1-1.5,4-6.3,4-6.5C161.9,113.3,161.9,113.5,160.5,113.2z"/>
					<path class="st47" d="M157.5,116c-0.2,0.1-0.3,0.2-0.5,0.2c-0.1,0-0.1,0-0.2-0.1c0.1,0.7,0.1,1.4,0.1,2.1
						C157.3,117.5,157.4,116.8,157.5,116z"/>
					<path class="st47" d="M157.6,121c-0.2,0.2-0.9,0.2-1.2,0c-2.7-2.8-4.8-4.9-7.1-9.1c-0.2-1.1-0.2-2.1,0.3-3.1
						c0.1-0.1,0.1-0.2,0.2-0.3c-0.1,0.1-0.3,0.1-0.4,0.2c-1.2,0.8-0.9,3.3,0,4.5l5.4,7.6c0.7,1,2,1.4,3.1,1c0.5-0.1,0.9-0.4,1.2-0.8
						c1-1.3,3.2-5,3.9-6.2C161.2,116.9,159.6,119,157.6,121z"/>
				</g>
				<path class="st49" d="M142.8,95.9c-0.5-1-2,0.1-2.8,1c-1.1,1.4-1.5,3.2-1.7,4.9c-0.2,1.6-0.2,3.3,0,4.9c0.2,1.2,0.7,2.2,0.7,3.4
					c0,0.6,0.1,1.3-0.2,1.8c-0.5,1.1-1.4,1.9-2.6,2c0.4-0.1,0.8,0.2,1.2,0.3c0.7,0.2,1.3,0.3,1.9,0.3c0.7,0,1.4,0.2,2.1,0
					c1-0.3,1.8-1.4,2.4-2.2c0.9-1.2,1-2.6,1-4.1c0-1-0.1-2.4-0.8-3.3c-0.7-0.9-1.1-2.2-1.4-3.3c-0.1-0.5-0.3-1.1-0.3-1.6
					c0-0.3,0-0.7,0-1C142.2,98.1,143.4,97,142.8,95.9z"/>
				<g class="st32">
					<path class="st49" d="M136.3,114c0.1,0,0.2,0,0.2,0C136.4,114,136.4,114,136.3,114z"/>
				</g>
				<g class="st50">
					<path class="st49" d="M144.9,108.3c0-1-0.1-2.4-0.8-3.3c-0.7-0.9-1.1-2.2-1.4-3.3c-0.1-0.5-0.3-1.1-0.3-1.6c0-0.3,0-0.7,0-1
						c-0.1-1,1-2.1,0.5-3.2c0,0,0,0,0,0c-0.3,0.2-0.5,0.8-0.5,1.1c-0.4,2.2-0.8,4.3,0,6.4c0.7,2.1,2,3.9,1.6,6.2
						c-0.4,2.3-2,4.2-4.1,5.1c0.5,0.1,1.1,0.2,1.6,0c1-0.3,1.8-1.4,2.4-2.2C144.8,111.2,144.9,109.8,144.9,108.3z"/>
				</g>
				<g class="st32">
					<path class="st49" d="M139.8,111.3c0.3-3.3-0.7-6.5-0.5-9.8c0.1-2,0.7-5.4,2.9-6.1c-0.7,0.1-1.5,0.8-2,1.4
						c-1.1,1.4-1.5,3.2-1.7,4.9c-0.2,1.6-0.2,3.3,0,4.9c0.2,1.2,0.7,2.2,0.7,3.4c0,0.6,0.1,1.3-0.2,1.8c-0.5,1-1.3,1.8-2.4,2
						c0.3,0,0.6,0.2,0.9,0.3c0.2,0.1,0.4,0.1,0.5,0.1C138.9,113.7,139.6,112.6,139.8,111.3z"/>
				</g>
			</g>
			<path class="st36" d="M147.5,158.5C147.5,158.5,147.5,158.5,147.5,158.5c0.1,0.4,0.4,0.7,0.8,0.8c0.1,0,0.3,0,0.4,0
				c0.2,0,0.3,0,0.5-0.1c0.2,0,0.3-0.1,0.5-0.2c0.2-0.1,0.3-0.2,0.4-0.3c0.4-0.3,0.9-0.4,1.4-0.4c0.5,0,1,0,1.5-0.2
				c0.2-0.1,1.7-0.6,2-1.4c0.1-0.3,0.1-0.6-0.1-0.9c-0.1-0.3-0.5-0.5-0.8-0.5c-0.3,0-0.7,0.1-1,0.2c-0.5,0.2-0.9,0.3-1.4,0.5
				c-0.2,0-0.3,0.1-0.6,0.2c0.6,0.1,1.3,0,1.9,0c0.1,0,0.2,0,0.2,0.1c0.1,0.1,0,0.3-0.1,0.4c-0.1,0.1-0.3,0.2-0.4,0.3
				c-0.8,0.4-1.8,0.5-2.7,0.5c-0.3,0-2,0.3-2.1-0.9c-0.3,0.2-0.3,0.6-0.4,0.9C147.4,157.8,147.4,158.1,147.5,158.5z"/>
		</g>
	</g>
	<g>
		<path class="st19" d="M256.5,117.5c-1.8-7.3-6.6-12.7-11.1-18.4c0.2,0.3,0.4,0.6,0.6,0.9c-6.1-8.4-13-16.4-19.5-24.5h-20.3h-20.3
			c-6.5,8.1-13.4,16.1-19.5,24.5c0.2-0.3,0.4-0.6,0.6-0.9c-4.5,5.7-9.3,11.1-11.1,18.4c-2.3,9.3,1.6,18.3,8.5,24.6
			c11,10.1,27.1,13.8,41.7,13.9c14.7-0.1,30.8-3.8,41.7-13.9C254.9,135.8,258.8,126.7,256.5,117.5z"/>
		<g>
			<g>
				<rect x="186.1" y="29.1" class="st19" width="40.5" height="55.2"/>
			</g>
		</g>
		<g>
			<g>
				<path class="st19" d="M225.5,14.4c10.2,6.1,9.9,15.9-0.8,21.9c-10.6,5.9-27.6,5.8-37.8-0.4c-10.2-6.1-9.9-15.9,0.8-21.9
					C198.4,8,215.3,8.2,225.5,14.4z"/>
				<path class="st23" d="M206.2,36.9c-6.5,0-12.8-1.5-17.3-4.2c-3.7-2.2-5.7-4.9-5.6-7.6c0-2.8,2.4-5.6,6.3-7.8
					c4.5-2.5,10.4-3.9,16.8-3.9c6.6,0,12.8,1.5,17.3,4.2c3.7,2.2,5.7,4.9,5.6,7.6c0,2.8-2.3,5.6-6.3,7.8
					C218.4,35.5,212.5,36.9,206.2,36.9z"/>
				<path class="st26" d="M189.6,20.5c4.5-2.5,10.4-3.9,16.8-3.9c6.6,0,12.8,1.5,17.3,4.2c2.9,1.7,4.7,3.8,5.4,5.8
					c0.2-0.5,0.3-1,0.3-1.5c0.1-2.7-2-5.4-5.6-7.6c-4.4-2.7-10.7-4.2-17.3-4.2c-6.3,0-12.3,1.4-16.8,3.9c-4,2.2-6.3,5.1-6.3,7.8
					c0,0.6,0.1,1.2,0.3,1.7C184.2,24.6,186.3,22.3,189.6,20.5z"/>
			</g>
			<g>
				<path class="st23" d="M179.6,38.4l0-13.2c0,3.8,2.5,7.7,7.4,10.7c10.2,6.1,27.1,6.3,37.8,0.4c5.5-3.1,8.2-7.1,8.2-11.2l0,13.2
					c0,4.1-2.7,8.2-8.2,11.2c-10.6,5.9-27.6,5.8-37.8-0.4C182,46.1,179.6,42.3,179.6,38.4z"/>
			</g>
		</g>
		<linearGradient id="SVGID_5_" gradientUnits="userSpaceOnUse" x1="184.0976" y1="91.5656" x2="291.11" y2="240.1938">
			<stop  offset="0" style="stop-color:#74CEEA"/>
			<stop  offset="0.288" style="stop-color:#64CBEA"/>
			<stop  offset="1" style="stop-color:#3BBEED"/>
		</linearGradient>
		<path class="st51" d="M248.7,107.4C248.7,107.4,248.7,107.4,248.7,107.4c-3.7-4.5-7.3-9.1-11-13.7c-1.6-1.9-3.7-3.8-6.4-5.4
			c-13.2-7.9-35.1-8.2-48.8-0.5c-3.2,1.8-5.7,3.8-7.5,6.1c-0.3,0.4-0.8,1-1.1,1.4c-0.2,0.2-0.4,0.5-0.5,0.7c-0.3,0.4-0.8,1-1.1,1.4
			c-0.3,0.4-0.8,1-1.1,1.4c-0.2,0.2-0.4,0.5-0.5,0.7c-0.3,0.4-0.8,1-1.1,1.4c-0.3,0.4-0.8,1-1.1,1.4c-0.2,0.2-0.4,0.5-0.5,0.7
			c-0.3,0.4-0.8,1-1.1,1.4c-0.3,0.4-0.8,1-1.1,1.4c-0.2,0.2-0.4,0.5-0.5,0.7c-0.3,0.4-0.8,1-1.1,1.4l0,0c-0.8,1.1-2.8,3.6-4,6.5
			c-0.4,1-1.7,4.1-1.9,7.6c-0.1,1.9-0.4,7.8,4.6,14.2c4.5,5.8,10.6,9.1,14.8,11c4.3,2,8.8,3.1,10.2,3.5c4.4,1.1,8.9,1.6,10.4,1.8
			c2,0.2,7.5,0.7,14.3,0.1c6.5-0.5,10.5-1.5,13.7-2.4c2-0.5,12.3-3.4,19.8-10.1c6.4-5.7,8.2-11.6,8.5-15.5
			C255.1,118.7,253,112.8,248.7,107.4z"/>
		<g>
			<linearGradient id="SVGID_6_" gradientUnits="userSpaceOnUse" x1="158.1952" y1="123.1647" x2="254.6972" y2="123.1647">
				<stop  offset="0" style="stop-color:#58C8EA"/>
				<stop  offset="1" style="stop-color:#24B0E6"/>
			</linearGradient>
			<path class="st52" d="M253.6,116.1c-1.3-3.6-2.7-5.9-4.8-8.6c0,0,0,0,0-0.1c-3.7-4.6-7.4-9.1-11-13.7c6.1,7.5,3.5,16.8-7.4,22.9
				c-13.8,7.7-35.6,7.5-48.8-0.5c-10.1-6.1-12.2-15-6.4-22.2c-0.3,0.4-0.8,1-1.1,1.4c-0.2,0.2-0.4,0.5-0.5,0.7
				c-0.3,0.4-0.8,1-1.1,1.4c-0.3,0.4-0.8,1-1.1,1.4c-0.2,0.2-0.4,0.5-0.5,0.7c-0.3,0.4-0.8,1-1.1,1.4c-0.3,0.4-0.8,1-1.1,1.4
				c-0.2,0.2-0.4,0.5-0.5,0.7c-0.3,0.4-0.8,1-1.1,1.4c-0.3,0.4-0.8,1-1.1,1.4c-0.2,0.2-0.4,0.5-0.5,0.7c-0.3,0.4-0.8,1-1.1,1.4
				c0,0,0,0.1-0.1,0.1c-3.8,4.8-4.8,8.7-5.2,10.1c-0.6,2.4-0.6,4.6-0.6,5.5c0,1.8,0.4,3.5,0.6,4.5c0.2,1,0.7,2.6,2,4.9
				c0.3,0.6,1.2,2.1,2.8,4c3.2,3.8,7.3,6.4,8.8,7.3c2.1,1.3,6,3.3,9.2,4.3c3.4,1.1,3.9,1.3,6.5,2c2.2,0.6,4.4,1,6.8,1.3
				c9.3,1.4,19.4,1,28.3-1c6.7-1.5,11.1-3.5,13.2-4.5c2.2-1,3.7-2,5.8-3.3c1.1-0.7,2.4-1.7,3.3-2.5c1.2-1,4.3-3.7,6.4-7.5
				c2.2-4,2.5-7.2,2.7-8.5C254.8,122.4,254.6,119.2,253.6,116.1z"/>
			<polygon class="st53" points="237.7,93.7 237.7,93.7 237.7,93.7 			"/>
		</g>
		<path class="st54" d="M183.5,111.5c-3.4,4.6-9,6.3-12.4,3.8c-3.4-2.5-3.5-8.4,0-13c3.4-4.6,9-6.3,12.4-3.8
			C186.9,101.1,186.9,106.9,183.5,111.5z"/>
		<path class="st54" d="M179.8,126.2c-1,2.5-3.4,3.9-5.3,3.2c-1.9-0.8-2.7-3.4-1.7-5.9c1-2.5,3.4-3.9,5.3-3.2
			C180,121,180.8,123.7,179.8,126.2z"/>
	</g>
</g>
</svg>
