<?xml version="1.0" encoding="utf-8"?>
<!-- Generator: Adobe Illustrator 24.2.0, SVG Export Plug-In . SVG Version: 6.00 Build 0)  -->
<svg version="1.1" id="Layer_1" xmlns="http://www.w3.org/2000/svg" xmlns:xlink="http://www.w3.org/1999/xlink" x="0px" y="0px"
	 viewBox="0 0 320 306.2" style="enable-background:new 0 0 320 306.2;" xml:space="preserve">
<style type="text/css">
	.st0{fill:#4A573C;}
	.st1{fill:#504C3B;}
	.st2{fill:#566846;}
	.st3{fill:#3A4331;}
	.st4{fill:#7B9065;}
	.st5{fill:#4A563C;}
	.st6{fill:#667754;}
	.st7{fill:#667955;}
	.st8{fill:#5F714D;}
	.st9{fill:#71875D;}
	.st10{fill:#49543C;}
	.st11{fill:#434D38;}
	.st12{fill:#7A9264;}
	.st13{fill:#AABD98;}
	.st14{opacity:0.43;fill:#9FB38B;}
	.st15{fill:#6F8C5D;}
	.st16{fill:#DAE5C9;}
	.st17{fill:#94A57E;}
	.st18{fill:#B6C6A4;}
	.st19{fill:#C7D3B7;}
	.st20{opacity:0.1;}
	.st21{enable-background:new    ;}
	.st22{clip-path:url(#SVGID_2_);enable-background:new    ;}
	.st23{fill:#707984;}
	.st24{fill:#747E89;}
	.st25{fill:#79818E;}
	.st26{fill:#7E8693;}
	.st27{fill:#808B98;}
	.st28{fill:#848F9D;}
	.st29{fill:#8994A2;}
	.st30{fill:#8D99A7;}
	.st31{fill:#919DAC;}
	.st32{fill:#96A1B1;}
	.st33{fill:#99A7B7;}
	.st34{fill:#737D88;}
	.st35{clip-path:url(#SVGID_4_);enable-background:new    ;}
	.st36{clip-path:url(#SVGID_6_);enable-background:new    ;}
	.st37{fill:#71808D;}
	.st38{fill:#758591;}
	.st39{fill:#798996;}
	.st40{fill:#7D8E9B;}
	.st41{fill:#80929F;}
	.st42{fill:#8397A4;}
	.st43{fill:#889AA9;}
	.st44{fill:#8BA0AE;}
	.st45{fill:#A5B3C4;}
	.st46{clip-path:url(#SVGID_8_);enable-background:new    ;}
	.st47{clip-path:url(#SVGID_10_);enable-background:new    ;}
	.st48{fill:#65747F;}
	.st49{clip-path:url(#SVGID_12_);enable-background:new    ;}
	.st50{fill:#8DA5D5;}
	.st51{fill:#697882;}
	.st52{clip-path:url(#SVGID_14_);enable-background:new    ;}
	.st53{clip-path:url(#SVGID_16_);enable-background:new    ;}
	.st54{fill:#6D7E88;}
	.st55{fill:#697883;}
	.st56{fill:#527CBE;}
	.st57{fill:#95ACBC;}
	.st58{clip-path:url(#SVGID_18_);enable-background:new    ;}
	.st59{fill:#5376B9;}
	.st60{fill:#D7E7F6;}
	.st61{opacity:0.8;}
	.st62{opacity:0;fill:#9453A0;}
	.st63{opacity:0.1167;fill:#A670B0;}
	.st64{opacity:0.2333;fill:#B88CC0;}
	.st65{opacity:0.35;fill:#CAA9D0;}
	.st66{opacity:0.4667;fill:#DBC6DF;}
	.st67{opacity:0.5833;fill:#EDE2EF;}
	.st68{opacity:0.7;fill:#FFFFFF;}
	.st69{fill:#ADD2E7;}
	.st70{fill:#6A88C5;}
	.st71{fill:#DBDBDB;}
	.st72{fill:#ACDEE8;}
	.st73{fill:#5CC3DB;}
	.st74{fill:#7ED1EE;}
	.st75{fill:#A9DEF0;}
	.st76{fill:#E5F4F7;}
	.st77{fill:#EE4D91;}
	.st78{fill:#DB2679;}
	.st79{opacity:0.2;fill:#FFFFFF;}
	.st80{opacity:0.5;fill:#FFFFFF;}
	.st81{opacity:0.8333;}
	.st82{opacity:0.5833;fill:#FAFCFE;}
	.st83{opacity:0.6667;}
	.st84{opacity:0.6667;fill:#F6FAFD;}
	.st85{opacity:0.5;}
	.st86{opacity:0.75;fill:#F1F7FC;}
	.st87{opacity:0.3333;}
	.st88{opacity:0.8333;fill:#ECF4FB;}
	.st89{opacity:0.1667;}
	.st90{opacity:0.9167;fill:#E8F2FA;}
	.st91{opacity:0;}
	.st92{fill:#E3EFF9;}
	.st93{fill:#8AC53F;}
	.st94{fill:#ACD155;}
	.st95{fill:#625B8E;}
	.st96{fill:#494576;}
	.st97{fill:#0C7C92;}
	.st98{fill:#282528;}
	.st99{fill:#078FAA;}
	.st100{fill:#F8A883;}
	.st101{fill:#F29C79;}
	.st102{fill:#EAC8DF;}
	.st103{fill:#FFFFFF;}
	.st104{fill:#F79F7C;}
	.st105{fill:#221D19;}
	.st106{fill:#8AB4DF;}
	.st107{fill:#B0CBEA;}
	.st108{fill:#DBB1D2;}
	.st109{fill:#EB3C3C;}
	.st110{fill:#FF7066;}
	.st111{fill:#D9DEFF;}
	.st112{fill:#6F7182;}
	.st113{fill:#C70000;}
	.st114{fill:#E81E1E;}
	.st115{fill:#FF5E5E;}
	.st116{fill:#F21616;}
	.st117{clip-path:url(#SVGID_20_);}
	.st118{fill:#FF7575;}
	.st119{fill:#A6E2F0;}
	.st120{fill:#A1DBE8;}
	.st121{clip-path:url(#SVGID_22_);}
	.st122{fill:#BFF4FF;}
</style>
<g>
	<path class="st0" d="M83.5,92.7c-0.2,1.2-0.7,2.5-0.8,3.8c-0.2,1.5-0.1,3-0.5,4.4L82,101c0.8,0.4,2.9-0.5,3.9-0.5
		c1.4-0.1,3.2,0.6,2.9-1.1C88.2,96.6,85.1,95,83.5,92.7z"/>
	<path class="st1" d="M251.7,118.5h0.5c-0.2-0.1-0.3-0.2-0.5-0.3C251.7,118.2,251.7,118.3,251.7,118.5z"/>
	<path class="st2" d="M270.1,130.9c-22.9-1.1-44.8,2.3-65.2,11.2c-21.4,9.3-45.6,26.4-53.4,47.6c-5.5,14.9-9.6,32.3-6.9,48.1
		c2.8,16.7,12.7,33.3,12.5,50.2c10.4-2.1,18.5-13.3,29.4-16.6c0,0,8.4,4.9,19.2-3.4c14.6-11.3,29.3-24.4,46.6-28.7
		c19.2-4.8,26.9-23,37.1-28.5c8.3-17.3-2.3-20.9,5.7-33.8c10.1-16.2,4.6-28.2,10.1-42l-3.6-1.1C291.6,131.4,280.4,131.4,270.1,130.9
		z"/>
	<path class="st0" d="M212.9,203.9c-3,7.9-3.3,23.7-5.6,31.8c-2.2,7.8-4.2,15.7-5.6,23.6c-0.5,2.9-1,5.7-1.2,8.6
		c-0.1,1.8,0.1,2.4,0.1,2.5c0.1,0.1,0.2,0.3,0.3,0.4c1.5-0.7,3-1.6,4.6-2.9c5.1-3.9,10.2-8.1,15.4-12c0.4-6.4,1.6-12.8,2.7-19.2
		c1.3-7.5,3.1-16.4-0.3-23.7C221.9,210,212.9,203.9,212.9,203.9z"/>
	<path class="st3" d="M206.9,266.9c3.6-2.8,7.2-5.7,10.8-8.5c0.8-5.4,1.8-10.8,2.7-16.2c1.4-8.6-5.1-23.8-7.1-31.2
		C213.2,229.8,212.6,251.4,206.9,266.9z"/>
	<path class="st0" d="M300.5,133.7c-6.1,3.1-11.9,6.4-17.7,10c4.2,0.1,8,1,12,2.2c4.4,1.3,5.4,5.9,3.3,8.7
		c-4.5,17.1-21.8,28.2-26,45.4c-2.5,10.1-2.8,20.4-3.7,30.7c8.5-7.2,14.1-16.2,20.8-19.8c8.3-17.3-2.3-20.9,5.7-33.8
		c10.1-16.2,4.6-28.2,10.1-42l-3.6-1.1C301.1,133.8,300.8,133.8,300.5,133.7z"/>
	<path class="st3" d="M273.4,221.7c5.4-8.4,11.8-15.9,19.2-22.9c0.4-8.1-3.3-12.6,2.4-21.8c2.4-3.8,3.9-7.4,5-10.8
		c-5.1,8-10.9,15.6-16.8,23.1C279.9,200.2,276.4,210.9,273.4,221.7z"/>
	<path class="st0" d="M155.6,205.4c-0.4,0-0.8,0.1-1.2,0c-0.9,19.8-1.2,39.7-1.9,59.5c2.5,7.6,4.5,15.3,4.4,23c4.9-1,9.3-4,13.7-7.3
		c-0.1-1.3-0.2-2.5-0.3-3.8c-0.4-5.9-0.7-12-2.9-17.6c-1.8-4.7-5.1-9.3-6.1-14.2c-3.3-16.5,3.6-30,14.6-42.1
		C169.4,204.2,162.6,204.6,155.6,205.4z"/>
	<path class="st0" d="M233.6,160.8c0.3-0.1-15.9,3.4-11.8,5c1.1,0.1,5.4,1.2,6.3,1.5c0.5,0.2,13-0.3,13-0.3
		c-9.1,19.3-7.2,47.8-8.9,68.3c-0.4,4.7-0.9,9.3-1.6,13.9c3.9-2.5,7.9-4.7,12-6.6c0.3-4.2,0.7-8.5,1.3-12.7
		c1.5-10.2,5-18.6,8.8-28.2c3.4-8.6,1-17.8,4.3-26.3c2.6-6.7,6.1-12.7,8-19.3c-4.4,2.3-10,3.7-14.6,3.7
		C244.7,159.9,239,159.2,233.6,160.8z"/>
	<path class="st3" d="M233.6,160.8c0.3-0.1-15.9,3.4-11.8,5c1.1,0.1,5.4,1.2,6.3,1.5c0.5,0.2,13-0.3,13-0.3
		c-9.1,19.3-7.2,47.8-8.9,68.3c-0.4,4.7-0.9,9.3-1.6,13.9c1-0.6,2-1.2,3-1.8c0.5-8.2,1.7-16.4,2.8-24.6c1.1-8.8,1.5-17.7,3.5-26.5
		c3.4-15,7.3-25.6,20.7-35.6c1.1-0.8,2.3-1.2,3.4-1.3c0.4-1,0.7-2.1,1-3.1c-4.4,2.3-10,3.7-14.6,3.7
		C244.7,159.9,239,159.2,233.6,160.8z"/>
	<path class="st0" d="M178.8,200c1,8.8,1.9,17.7,1.6,26.5c-0.2,8.9-1.6,17.7-0.5,26.6c0.8,6.6,2.1,13.1,3,19.7
		c0.9-0.4,1.8-0.8,2.8-1.1c-0.5-7,1.4-13.8,2.7-20.8c1.7-9.2,1.5-17.8,5.3-26.8c4.7-10.9,3.3-21.8,11.8-32.6
		c1.9-2.5,15.1-16,15.6-18.9C211.6,175.7,184.1,192.1,178.8,200z"/>
	<path class="st3" d="M178.8,200c1,8.8,1.9,17.7,1.6,26.5c-0.2,8.9-1.6,17.7-0.5,26.6c0.8,6.6,2.1,13.1,3,19.7
		c0.8-0.4,1.6-0.7,2.5-1c-0.7-16.5-1-33-0.3-49.5c0.6-15.8,8.9-25.4,17.8-38.2c0.1-0.4,0.1-0.9,0.2-1.3
		C193.6,185.9,184.1,192.1,178.8,200z"/>
	<path class="st4" d="M154.5,190.9c-7.9-19.3-40.3-36.5-60.1-44.8c-19.9-8.3-46.8-8.3-68.3-9.2c-5.8-0.3-10.5-0.5-15.6-2
		c0,15.4,0.6,31.9,8.7,45.1c3.3,5.4,6.9,26,13.9,37.8c4.7,7.9,9.5,6.1,17,8.8c11.8,4.2,17.6,19.1,37.5,28.9
		c7.1,3.5,11.5,12.4,26.3,16.8c8.5,2.5,18.8,0.8,18.8,0.8c8.6,3.1,8.9,10.2,24.3,15c0.5-15.3-1-31.1-1-47.5
		C155.9,225.8,160.1,204.6,154.5,190.9z"/>
	<path class="st5" d="M83,205.7c0,0.1,0,0.2-0.1,0.3c1.8,5.7,2.6,12.7,1.8,19.6c0.1,9.5-2.2,18.3-9.8,21.7c3.5,2.9,7.6,5.6,12.6,8.1
		c4.3,2.1,7.6,6.2,12.8,10c-3.8-8.3-7.3-16.6-9.7-25.3C87.6,228.9,86.4,217,83,205.7z"/>
	<path class="st6" d="M155.5,207.6c-2.6-1.8-6.7-4.6-10.1-5.4c0,0.2,0.1,0.5,0.1,0.9c0.1,0.4,0.3,0.8,0.4,1.2
		c0.5,0.3,0.9,0.7,1.3,1.2c10,12.5,6,27.6,6.5,41.9c0.5,12.3,2.3,24.5,3.2,36.8c0.2-14.2-1.1-28.7-1.1-43.6c0-9.3,1.6-21.1,1.5-32
		C156.8,208.3,156.1,208.1,155.5,207.6z"/>
	<path class="st6" d="M142,236.1c-2.9-8.5-6-17-7.2-25.8c-2.5-6.2-4.7-13.2,0.3-16.7c1.3-0.9,2.7-1.6,4.1-2
		c-0.9-0.5-1.8-0.9-2.9-1.2c-3.7,1.9-7.7,3.1-11.9,3.8c7.2,17.8,10.4,36.5,10,55.3c0.1,0.2,0.2,0.4,0.2,0.5c1.1,3.2,0.3,7-0.5,10.3
		c0.1,0.3,0.1,0.6,0.1,0.9c0,4.2-0.2,8.2-0.8,12.1c4.7,1.9,6.9,5,10.9,8.3c-0.9-10.2-2.3-20.4-2.8-30.6
		C141.3,246.3,141.7,241.2,142,236.1z"/>
	<path class="st6" d="M29.6,178.3c-4.5-2.8-11.2-10-11.2-10c0,1.2-3.2-7.7-3.8-17.3c-0.2-4.4-0.2-8.8,0.4-13.2
		c-1-0.7-1.9-1.5-2.7-2.4c-0.7-0.2-1.3-0.3-2-0.5c0,15.4,0.6,31.9,8.7,45.1c3.3,5.4,6.9,26,13.9,37.8c2.7,4.6,5.5,5.9,8.8,6.7
		C34.7,211.5,21.9,191.5,29.6,178.3z"/>
	<path class="st6" d="M63.9,170.6c-1.5-1.2-2.7-2.5-3.7-3.9c-3.8-2-7.2-4.6-11.1-6.1c-0.1,2.2-0.3,4.4-0.6,6.5
		c0,0.2,0.1,0.5,0.1,0.7c3.5,8.7,5.2,17.7,6.9,27c0.2,0.4,0.4,0.9,0.5,1.4c0.5,2.2,0.9,4.4,1.3,6.6c0.5,0.8,0.9,1.7,0.9,2.7
		c0.6,9.1,1.7,18.1,1,27.1c1.6,1.4,3.2,3,4.8,4.6c0.3-6.9,0.9-13.7,0.9-20.6C65.1,201,57.4,185.8,63.9,170.6z"/>
	<path class="st7" d="M51.9,162.4c1-1.2,5.1-12.3,4.2-12.5c-5.5-0.8-19.1-2.4-20.4-2.3c1,8.8,1.9,17.8,4.5,26.4
		c2.8,9.1,8,17.1,11.4,26c4,10.7,6.1,21.7,7.7,32.8c1,0.9,1.9,1.8,2.9,2.8c-0.5-17.9-1.5-35.9-5.8-53.4
		C54,172.1,52.8,168.8,51.9,162.4z"/>
	<path class="st0" d="M52.1,162.1c0.9-1.2,4.9-12,4-12.2c-5.5-0.8-36.4-9.5-37.7-9.4c4.1,6.3,14.9,11.1,18.8,12.1
		c10,3.1,9.9,9,11.7,15.9c2.4,9.1,4.7,18.3,6.8,27.5c2.7,12,5.6,25.5,5.4,38.5c0.3,0.3,0.7,0.7,1.1,1c-0.5-17.9-1.5-35.9-5.8-53.4
		C54,172.1,53,168.5,52.1,162.1z"/>
	<path class="st7" d="M109.4,188c7.1,9.2,14.6,22.9,19.3,48.8c2.2,12.2,2.4,24,3.9,36.3c0.6,0.3,2.2,1,2.7,1.3
		c0.7-6.5,1.7-13,2.3-19.7c1.7-18.6-5.2-39.4-7.1-57.8c0,0,14.8-6.8,18.1-10.6C138.6,186.5,107,182.2,109.4,188z"/>
	<path class="st0" d="M80.6,172.6l11.7,7.4c10.4,3.5,27,16.5,26.9,16.9c2.4,1.3,11.2,19.7,12.9,27.3c3.5,15.7,5.1,33.5,1.8,49.4
		c0.5,0.2,0.9,0.5,1.4,0.7c0.7-6.5,1.7-13,2.3-19.7c1.7-18.6-5.2-39.4-7.1-57.8c0,0,14.8-6.8,18.1-10.6
		C138.6,186.5,90.2,169.6,80.6,172.6z"/>
	<path class="st8" d="M281.3,163.2c-2.6,1-5.3,1.8-8,2.8c-1.4,0.5-2.9,1-4.3,1.5c-5.7,2.1-11.5,4.2-17.5,5.8c-0.2,0-0.4,0.1-0.6,0.1
		c-0.5,0.2-0.9,0.2-1.3,0.1l-0.5,0.2c0,0,0.2,5.9-0.1,7.5c-0.5,2.7-2.7,4.6-3,7.4c-0.8,5.9,2.4,35.8,0.6,41.3
		c6.2-0.2,4.7-1.5,10.9-2c5-0.4,16.2-23.6,21.1-25.2c4.9-1.6,14.6-7,17.6-10.9c2.9-3.8,2.7-7,5-11.1c2.3-4.2,4.7-4.2,7.9-8
		c3.3-3.9-3.2-17.4-3.2-17.4L281.3,163.2z"/>
	<path class="st9" d="M277.2,178.1c-3-0.2-6-0.4-9-0.5c4,4.7,7.5,8.3,3.9,15c-3.9,7.3-11.2,13.6-13.7,21.4
		c-1.4,4.7-2.6,9.3-3.3,14.1c0.6-0.1,1.3-0.2,2.2-0.3c0.6-0.1,1.2-0.4,1.9-0.9c2.3-8.8,7-16.7,11.8-25c3.5-6.1,6.3-12.3,8.8-18.8
		C281,180.1,283,178.5,277.2,178.1z"/>
	<path class="st10" d="M277.3,169.4c-2.6,2.6-0.3,9.5-0.3,10.3c0.5,8.7-1.3,13.2-8.6,22.7c-5.9,7.7-8.9,16.3-10.4,25.3
		c5.2-1.8,15.9-23.5,20.6-25.1c4.9-1.6,14.6-7,17.6-10.9c2.9-3.8,2.7-7,5-11.1c2.3-4.2,4.7-4.2,7.9-8c3.3-3.9-3.2-17.4-3.2-17.4
		C305.9,154.6,289.8,160.3,277.3,169.4z"/>
	<path class="st0" d="M282.4,174.8c-1.9-0.5-4.2,0.3-6.3,0.7c0.3,2.1,0.8,3.8,0.8,4.2c0.5,8.7-1.3,13.2-8.6,22.7
		c-5.9,7.7-8.9,16.3-10.4,25.3c2.3-0.8,5.7-5.5,9.2-10.7c-2.6-8.9,4.7-17.2,10.9-24.5c1.9-5.6,3.5-11.3,6.5-16.4
		c-0.1-0.1-0.2-0.1-0.3-0.1C283.7,175.6,283.1,175.2,282.4,174.8z"/>
	<path class="st10" d="M235.3,204.8c-7.4,2.5-15.4,0.3-22.4-0.9c-0.5,5,0.9,12.1,1.4,17.6c0.6,6,3.2,31.2,3.4,36.9
		c4.9,1.5,8.6,0.1,13.3-2.9c3.3-2.1,5-15.4,7.6-24.9c2.2-8.3,15.6-20,15.9-28.6l-0.4,0.4C247.8,197.8,240.8,202.9,235.3,204.8z"/>
	<path class="st0" d="M231.3,212.3c-5,15.1-6.2,30.6-6.6,46.3c1.5-0.4,3.1-1.1,4.7-2.1c0-6.9,0.5-13.7,0.9-20.6
		c0.3-3.9,0-8.9,1.7-12.6c3.8-8.6,14.5-11.2,21.6-17.3c0.5-1.2,0.8-2.4,0.9-3.5c-6.3,4.9-14.8,8.4-23,9.2
		C231.4,211.9,231.4,212.1,231.3,212.3z"/>
	<path class="st8" d="M212.9,203.9c-0.5,5,0.9,12.1,1.4,17.6c0.6,6,3.2,31.2,3.4,36.9c3.2,1,5.9,0.7,8.7-0.4c0.1-17.9,3.2-38,9.8-55
		C229.2,204.9,219.4,205,212.9,203.9z"/>
	<path class="st9" d="M223.7,212.2c4.7,6.1,4.3,12.1,3,19.1c-1.7,9.1-1.9,18.2-2.1,27.3c0.6-0.2,1.2-0.4,1.9-0.6
		c0.1-14.5,2.2-30.3,6.5-44.8C229.7,213.5,226.4,213.2,223.7,212.2z"/>
	<path class="st5" d="M53.1,185c-3.7,2.1-7.6,7.2-11.7,8.7c0.7,6.2,5,14.6,7.9,20.5c2.8,5.6,5.6,11.3,8.8,19.7
		c0.7,0,2.2,0.6,2.9,0.6c-0.1-7.3,0.2-13.3-1.2-20.5C56.9,198.4,55.2,192.7,53.1,185z"/>
	<path class="st11" d="M50,197.5c1-3.9,3.1-7.4,3.4-11.5c-0.1-0.4-0.2-0.7-0.3-1.1c-3.7,2.1-7.6,7.2-11.7,8.7
		c0.7,6.2,5,14.6,7.9,20.5c2.8,5.6,5.6,11.3,8.8,19.7c0.2,0,0.4,0,0.7,0.1c-2.3-8.5-4.3-17-7-25.5C50.9,205.2,49.1,201,50,197.5z"/>
	<path class="st7" d="M25.4,188.6c6.1,7.4,13.3,14.5,17.2,22.8c3.2,6.8,7.2,20.2,15.6,22.4c-3.2-11.6-9.7-26.9-12.3-35.4
		C44.4,193.8,35.1,179.9,25.4,188.6z"/>
	<path class="st7" d="M25.2,188.8c0.1-0.1,0.1-0.1,0.2-0.1c0,0,0,0,0,0L25.2,188.8z"/>
	<path class="st12" d="M25.4,188.6c0.1,0.2,0.3,0.3,0.4,0.5c0.4,0,0.8,0,1.2,0.2c13.2,5.1,18.3,11.6,22.2,23.6
		c2,6.1,4.7,11.7,7.7,17.4c0.2,0.4,0.4,0.8,0.6,1.3c-3.4-11.3-9.2-25.2-11.7-33.3C44.4,193.8,35.1,179.9,25.4,188.6z"/>
	<path class="st7" d="M142.6,222.8c-1.9-4.7-3.2-10.8-4.9-14.8l-0.8-0.3c2,5.3,2.1,11.8,3.9,17.5c0.8,2.4,1.5,5,2.6,7.3
		c0.4,0.9,0.8,1.9,1.5,2.7c0.8,0.8,2.6,0.9,3,1.7c0.7,1.3-1.2,4.9-1.7,6.5c-0.9,3-1.4,5-1.4,8.1c0,3.5,0.2,7,0,10.4
		c-0.1,2.6-1.2,6.1,0,8.5c-0.4-11.5,4.8-24.8,7.5-35.5C145.7,235.1,144.6,227.6,142.6,222.8z"/>
	<path class="st5" d="M79.5,188c-0.5-2.2-1.1-13.2-1.8-15.3c-2-1.2-5.7-0.9-7.9-1.6c-1.4-0.4-6.4-1-5.7-0.3l-0.4-0.3
		c0.8,2.1,0,15.7,0,17.9c1.6-0.3,4.4-8.7,6.1-8.5c0.2,4.1,0.9,8.2-0.4,11.8c4.8,2.5,3,6.2,2.6,10.4c-0.5,4.8,3.2,2,2.8,6.8
		c-0.3,4-3.9,15.1-3.3,19.1c0,0,3.4,8,3.3,10.4c0,0.3,0.1,0.1,0.4-0.5c-3.1-10.4,0.6-20.8,4.1-30.9c-0.1-2.1-0.1-4.1,0-6.2
		c0.1-1.5,0.1-2.9,0.2-4.4C78.5,191.1,79.7,193.2,79.5,188z"/>
	<path class="st13" d="M261.3,111.2l-17.6,2.8c2.1-1.4,6.9-5.1,8.6-6.9c-16.2-15.5-37.7-15.8-51-26.2c-6.6-5.1-36.4-18-44.3-22.7
		c-18.1,9.7-31.4,9.5-39.2,18.9c-7.8,9.2-23.4,10.3-34.3,15.9c0.6,1.3,2,4.5,2.7,5.9c-13.8-2.1-31,10.9-44.3,18.7
		C30.2,124.4,10,134.4,10,134.4c15.2,14.8,28.3,17.3,43.7,19.4c1.1,2.6-3,6.6-0.9,10.8c6.5,13,55,18.6,66.6,30.4
		c2.8,2.8,17.3-3.7,17.3-3.7c0,2.3-6.1,5.6-6.1,5.6c14.3,7.3,21.1,14.8,27.2,14c6-0.8,22.4-9.6,27.7-12.5
		c10.4-5.7,13.7-11.8,24.8-15.5c13.6-4.6,20.8-4.8,30.7-15.6c-5.6-0.5-10.6-1.6-16.4-1.5c14.1-5.8,30.8-1.7,45-9.3
		c11.2-6,22.6-19.1,35.4-21.3C300.7,130.9,289.4,123.3,261.3,111.2z"/>
	<path class="st14" d="M157,58.1c-18.1,9.7-31.4,9.5-39.2,18.9c-7.8,9.2-23.4,10.3-34.3,15.9c0.6,1.3,2,4.5,2.7,5.9
		c-13.8-2.1-31,10.9-44.3,18.7C30.2,124.4,10,134.4,10,134.4c6.1,6,11.9,9.9,17.7,12.7c0.8-0.5,1.7-1,2.5-1.5
		c15.3-15.1,39-22,60.7-26.2c24.2-4.7,48.9-6.8,73.5-8.2c28-1.6,56.1-2.3,84-0.8c1.5-1.2,3-2.4,3.8-3.3
		c-16.2-15.5-37.7-15.8-51-26.2C194.7,75.7,164.9,62.8,157,58.1z"/>
	<path class="st15" d="M87,179.3c-3.1-0.4-6.1-0.8-9.2-1.4c-0.3,0-0.7,0-1,0c3.9,1.3,8.1,2.6,12.2,3.9c-0.2-0.1-0.4-0.2-0.7-0.4
		C87.4,180.8,87,180.1,87,179.3z"/>
	<path class="st16" d="M253.3,159.3c-6.5,0.8-24.3,2.6-27.3,4.3c-2.7,1.5-5.2,2.7-2.1,2.9c7.9,0.6,14.1,2,14.1,2
		c-13.8,10.8-28.7,10.2-32.8,12.5c-4.6,2.6-7.8,6.2-11.6,9.5c-5.2,4.6-28.8,16.6-36,17.8c-5.3,0.9-7.2-4.6-21.1-10.8
		c-3.3-1.5,3.9-7.4,4.4-8.7c-5,0.6-9.7,2-14.6,3.8c-2,0.7-6.5,0.6-8-0.6c-11.9-10.4-43.7-16.2-52.2-19.4
		c-4.7-1.8-11.6-5.6-12.2-10.4c-0.4-2.9,1.4-5.2,2.3-7.9c1.4-4-6-3.1-8.2-3.6c-8.2-1.6-29.9-7.8-38-16.4c0,0,0,0,0,0
		c15.2,14.8,28.3,17.3,43.7,19.4c1.1,2.6-3,6.6-0.9,10.8c6.5,13,55,18.6,66.6,30.4c2.8,2.8,17.3-3.7,17.3-3.7c0,2.3-6.1,5.6-6.1,5.6
		c14.3,7.3,21.1,14.8,27.2,14c6-0.8,22.4-9.6,27.7-12.5c10.4-5.7,13.7-11.8,24.8-15.5c13.6-4.6,20.8-4.8,30.7-15.6
		c-5.6-0.5-10.6-1.6-16.4-1.5c14.1-5.8,30.8-1.7,45-9.3c9-4.8,18.1-14.1,27.9-18.8c-7,1.4-13.3,7-19.1,10.6
		C270.2,153.4,263.6,158,253.3,159.3z"/>
	<path class="st0" d="M304.5,155.5c-1.6,3.2-3.6,6.2-6.4,8.4c1.9,3.5,3.9,8,3.5,8.8c-2.6,6.1-5.1,9.5-6.8,13.8
		c-0.5,1.7,0.4,5.2-0.2,6.9c0.6-0.5,1.1-1.1,1.4-1.5c2.9-3.8,2.7-7,5-11.1c2.3-4.2,4.7-4.2,7.9-8c3.3-3.9-3.2-17.4-3.2-17.4
		C305.9,155.1,305.3,155.2,304.5,155.5z"/>
	<path class="st3" d="M277.2,168.9c-1.7,1.8,8.2,3.5,9,5.4c0,0-0.5,4.3-0.8,5.7c-1,5.5-2,11.1-3,16.6c5.1-8.9,10.3-17.8,12.5-27.7
		C289.8,170,282.4,168.1,277.2,168.9z"/>
	<path class="st17" d="M294.1,153.2c-9.5,9.7-30,16.2-45,20.4c4.5,4.1,12,0.8,15.8,3.1c5.7,3.5,12.2,3,12.2,3s6.7-3.4,9.2-5.4
		c1.3-1-7.7-3.1-5.6-4.1c1.1-0.5,13.3,0.1,14.5-0.5c8.4-3.4,8.6-7.4,10.7-10.6C308.9,154.4,302.4,152.5,294.1,153.2z"/>
	<path class="st18" d="M284.8,167.3C284.7,167.3,284.7,167.2,284.8,167.3c-2.6,0.3-4.9,0.9-7.4,1.7c-0.1,0-0.2,0.1-0.3,0.1
		c1.4,1.2,2.4,3,4.3,3.5c5.3,1.6-2.4,5.6-4.4,5.8c-2.7,0.3-9.4-2.9-12.2-3.2c-5.2-0.5-3.4,0.4-8.6-0.5c-1.7-0.3-4.2-1.3-5.9-1.5
		c-0.4,0.1-0.8,0.2-1.2,0.3c4.5,4.1,12,0.8,15.8,3.1c5.7,3.5,12.2,3,12.2,3s6.7-3.4,9.2-5.4c1.3-1-7.7-3.1-5.6-4.1
		c1.1-0.5,13.3,0.1,14.5-0.5c7-2.9,8.3-6.1,9.8-9C301.4,165.5,297.3,168.7,284.8,167.3z"/>
	<path class="st17" d="M234.2,197.8c0,0-6,2.9-8.9,4c-3.5,1.4-8.5,2.9-12.4,2.2c0.3,0.9,1.1,2.5,2,3.4c4.3,4.5,14.9,8.4,20.9,6.3
		c3.9-1.4,16.9-7.2,18.6-10.6C256.6,198.3,238.4,196.3,234.2,197.8z"/>
	<path class="st18" d="M214.2,204.1c-0.4,0-0.9-0.1-1.3-0.2c0.3,0.9,1.1,2.5,2,3.4c4.3,4.5,14.9,8.4,20.9,6.3
		c3.4-1.2,13.6-5.7,17.3-9.1C241.9,212.1,223.3,214.4,214.2,204.1z"/>
	<path class="st13" d="M41.7,178.1c-8.9,3.5-24.5,10.7-11.7,12.3c5.7,1.2,11.1,5,15.8,8c3.2-3.7,7.3-8,7.3-13.4
		C49.1,183.4,44.2,181.3,41.7,178.1z"/>
	<path class="st19" d="M43.8,195.3c-2.7-2.1-9.6-4.8-15.5-6c-3-0.6-2.6-1.6-2.8-2.1c-0.7,1.4,0.4,2.6,4.6,3.1c5.7,1.2,11.1,5,15.8,8
		c3.1-3.6,7.1-7.8,7.3-13c-1.3,3.4-2.2,4.5-4.1,7.5C48.1,194.2,45.1,196.4,43.8,195.3z"/>
	<path class="st5" d="M117.5,204.1c-2.8-1-7.4,0-9.1,1.6c-2.3,2.2-3.6,4-5,6.7c-3.4,6.7-5.1,11.5-3.2,19.2
		c2.3,9.2,5.9,17.9,9.3,26.8c2.3,6.1,5.8,17.5,12,21.4c2.5-2,5.7-4.2,7.9-6.5c-4-10.3-6.2-23.3-7.4-34.6
		C120.6,227.3,118.5,215.4,117.5,204.1z"/>
	<path class="st11" d="M116,249.8c-3-7.4-5.4-14.7-5.3-22.7c0.1-7.6,4-13.3,6.3-20.4c0.1-0.4,0.3-0.8,0.5-1.2c0-0.5-0.1-0.9-0.2-1.4
		c-2.8-1-7.4,0-9.1,1.6c-2.3,2.2-3.6,4-5,6.7c-3.4,6.7-5.1,11.5-3.2,19.2c2.3,9.2,5.9,17.9,9.3,26.8c2.3,6.1,5.8,17.5,12,21.4
		c2.1-1.7,4.7-3.5,6.8-5.5C120.2,268.9,119.7,258.8,116,249.8z"/>
	<path class="st7" d="M107.6,229.1c-1.3-5.5,1.2-16.2-4.4-19.3c-3.6-2-9.3-2.8-13.3-5.1c-3.5-2-20-8.5-24.2-8.1
		c0.7,11,12.3,24.6,17.5,36.4c5.6,12.7,10,20.9,13.9,34c1.4,4.6,12.2,3.7,17.2,12.5l7.1,0.5c0,0-1.5-8.7-2.6-12.1
		C117.5,263.4,109.7,237.5,107.6,229.1z"/>
	<path class="st12" d="M107.6,229.1c-0.9-3.9,0.1-10.6-1.4-15.2c-3,0.8-6.2,0.9-9.4,0.8c9.7,7.9,11.9,22,14.1,33.1
		c2.2,11,7,21.3,9.8,32l0.7,0c0,0-1.5-8.7-2.6-12.1C117.5,263.4,109.7,237.5,107.6,229.1z"/>
	<path class="st13" d="M79.8,186.4c-4.7,3.9-8.7,4.1-13,7.6c-4.5,3.7,7.2,16,13.9,19c7,3.1,16.4,3.7,24.1,3
		c7-0.7,13.1-12.4,13.1-12.4c-4.1-2.5-13.1-3.4-19.5-7.2C90,191.5,79.8,186.4,79.8,186.4z"/>
	<path class="st19" d="M82,210.8c-5.2-1.7-17.1-8.5-14.1-17.7c-0.4,0.3-0.8,0.6-1.3,0.9c-4.5,3.7,7.2,16,13.9,19
		c7,3.1,16.4,3.7,24.1,3c5.5-0.5,10.5-8,12.4-11.1C107.8,215.1,99.4,216.4,82,210.8z"/>
</g>
<g>
	<g>
		<path class="st20" d="M309,132.9l-96.1-55.5c-2.1-1.2-5.5-1.2-7.6,0L78,151.4c-2.1,1.2-2.1,3.2,0,4.4l96.1,55.5
			c2.1,1.2,5.5,1.2,7.6,0l127.3-74C311.1,136.1,311.1,134.1,309,132.9z M100.9,148.8c0-0.8,0.5-1.6,1.6-2.2
			C101.4,147.2,100.9,148,100.9,148.8z M136.6,175.6c-1.5-0.9-3.6-1.2-5.5-1C133,174.4,135.1,174.7,136.6,175.6
			c1.2,0.7,1.8,1.6,1.8,2.5C138.4,177.2,137.8,176.2,136.6,175.6z"/>
		<g class="st21">
			<defs>
				<path id="SVGID_1_" class="st21" d="M202.1,92c0-2.2,0-4.4,0-6.5c1.9-1.1,4.9-1.1,6.8,0l0,6.5C207,90.9,203.9,90.9,202.1,92z"/>
			</defs>
			<clipPath id="SVGID_2_">
				<use xlink:href="#SVGID_1_"  style="overflow:visible;"/>
			</clipPath>
			<g class="st22">
				<path class="st23" d="M208.9,85.5l0,6.5c-0.2-0.1-0.4-0.2-0.7-0.3l0-6.5C208.4,85.3,208.7,85.4,208.9,85.5L208.9,85.5z"/>
				<path class="st24" d="M208.2,85.2l0,6.5c-0.2-0.1-0.4-0.1-0.6-0.2l0-6.5C207.8,85,208,85.1,208.2,85.2L208.2,85.2z"/>
				<path class="st25" d="M207.6,85l0,6.5c-0.2,0-0.3-0.1-0.5-0.1l0-6.5C207.3,84.9,207.4,84.9,207.6,85L207.6,85z"/>
				<path class="st26" d="M207.1,84.9l0,6.5c-0.2,0-0.3-0.1-0.5-0.1l0-6.5C206.8,84.8,206.9,84.8,207.1,84.9L207.1,84.9z"/>
				<path class="st27" d="M206.6,84.8l0,6.5c-0.2,0-0.3,0-0.5-0.1l0-6.5C206.3,84.7,206.5,84.8,206.6,84.8L206.6,84.8z"/>
				<path class="st28" d="M206.2,84.7l0,6.5c-0.2,0-0.3,0-0.5,0l0-6.5C205.8,84.7,206,84.7,206.2,84.7L206.2,84.7z"/>
				<path class="st29" d="M205.7,84.7l0,6.5c-0.2,0-0.3,0-0.5,0l0-6.5C205.3,84.7,205.5,84.7,205.7,84.7L205.7,84.7z"/>
				<path class="st30" d="M205.2,84.7l0,6.5c-0.2,0-0.4,0-0.5,0l0-6.5C204.8,84.7,205,84.7,205.2,84.7L205.2,84.7z"/>
				<path class="st31" d="M204.7,84.7l0,6.5c-0.2,0-0.4,0.1-0.6,0.1l0-6.5C204.2,84.8,204.4,84.8,204.7,84.7L204.7,84.7z"/>
				<path class="st32" d="M204,84.8l0,6.5c-0.3,0.1-0.6,0.1-0.9,0.2l0-6.5C203.4,85,203.7,84.9,204,84.8L204,84.8z"/>
				<path class="st33" d="M203.1,85l0,6.5c-0.4,0.1-0.7,0.3-1.1,0.5l0-6.5C202.4,85.3,202.8,85.2,203.1,85L203.1,85z"/>
			</g>
		</g>
		<g>
			<polygon class="st34" points="281,127.2 281,133.7 208.9,92 208.9,85.5 			"/>
		</g>
		<g class="st21">
			<defs>
				<path id="SVGID_3_" class="st21" d="M282.4,135.7c0-0.7-0.5-1.4-1.4-2c0-1.9,0-3.8,0-5.8l0-0.8c0.9,0.5,1.4,1.3,1.4,2
					C282.4,131.1,282.4,133.7,282.4,135.7z"/>
			</defs>
			<clipPath id="SVGID_4_">
				<use xlink:href="#SVGID_3_"  style="overflow:visible;"/>
			</clipPath>
			<g class="st35">
				<path class="st23" d="M282.4,129.1l0,6.5c0-0.7-0.5-1.4-1.4-2l0-6.5C282,127.7,282.4,128.4,282.4,129.1L282.4,129.1z"/>
			</g>
		</g>
		<g class="st21">
			<defs>
				<path id="SVGID_5_" class="st21" d="M282.4,129.1l0,6.5c0,0.7-0.5,1.4-1.4,1.9l0-6.5C282,130.6,282.4,129.9,282.4,129.1z"/>
			</defs>
			<clipPath id="SVGID_6_">
				<use xlink:href="#SVGID_5_"  style="overflow:visible;"/>
			</clipPath>
			<g class="st36">
				<path class="st37" d="M282.4,129.1l0,6.5c0,0,0,0,0,0L282.4,129.1C282.4,129.2,282.4,129.2,282.4,129.1L282.4,129.1z"/>
				<path class="st38" d="M282.4,129.2l0,6.5c0,0.1,0,0.2,0,0.3l0-6.5C282.4,129.4,282.4,129.3,282.4,129.2L282.4,129.2z"/>
				<path class="st39" d="M282.4,129.5l0,6.5c0,0.1,0,0.2-0.1,0.3l0-6.5C282.4,129.6,282.4,129.6,282.4,129.5L282.4,129.5z"/>
				<path class="st40" d="M282.3,129.7l0,6.5c0,0.1-0.1,0.2-0.1,0.3l0-6.5C282.2,129.9,282.3,129.8,282.3,129.7L282.3,129.7z"/>
				<path class="st41" d="M282.2,130l0,6.5c-0.1,0.1-0.1,0.2-0.2,0.3l0-6.5C282.1,130.2,282.1,130.1,282.2,130L282.2,130z"/>
				<path class="st42" d="M282,130.3l0,6.5c-0.1,0.1-0.2,0.2-0.3,0.3l0-6.5C281.8,130.5,281.9,130.4,282,130.3L282,130.3z"/>
				<path class="st43" d="M281.7,130.6l0,6.5c-0.2,0.2-0.4,0.3-0.6,0.4l0-6.5C281.3,130.9,281.5,130.8,281.7,130.6L281.7,130.6z"/>
				<path class="st44" d="M281.1,131.1l0,6.5c0,0,0,0-0.1,0L281.1,131.1C281.1,131.1,281.1,131.1,281.1,131.1L281.1,131.1z"/>
			</g>
		</g>
		<g>
			<polygon class="st45" points="202.1,85.5 202.1,92 112,144.4 112,137.9 			"/>
		</g>
		<g class="st21">
			<defs>
				<path id="SVGID_7_" class="st21" d="M110.6,146.3c0-2.2,0-4.3,0-6.5c0-0.7,0.5-1.4,1.4-2l0,6.5
					C111.1,144.9,110.6,145.6,110.6,146.3z"/>
			</defs>
			<clipPath id="SVGID_8_">
				<use xlink:href="#SVGID_7_"  style="overflow:visible;"/>
			</clipPath>
			<g class="st46">
				<path class="st33" d="M112,137.9l0,6.5c0,0,0,0-0.1,0L112,137.9C112,137.9,112,137.9,112,137.9L112,137.9z"/>
				<path class="st32" d="M111.9,137.9l0,6.5c-0.2,0.1-0.4,0.3-0.6,0.5l0-6.5C111.5,138.2,111.7,138,111.9,137.9L111.9,137.9z"/>
				<path class="st31" d="M111.3,138.3l0,6.5c-0.1,0.1-0.2,0.2-0.3,0.3l0-6.5C111.1,138.6,111.2,138.4,111.3,138.3L111.3,138.3z"/>
				<path class="st30" d="M111,138.7l0,6.5c-0.1,0.1-0.1,0.2-0.2,0.3l0-6.5C110.9,138.9,111,138.8,111,138.7L111,138.7z"/>
				<path class="st29" d="M110.8,139l0,6.5c0,0.1-0.1,0.2-0.1,0.3l0-6.5C110.8,139.1,110.8,139,110.8,139L110.8,139z"/>
				<path class="st28" d="M110.7,139.2l0,6.5c0,0.1-0.1,0.2-0.1,0.3l0-6.5C110.7,139.4,110.7,139.3,110.7,139.2L110.7,139.2z"/>
				<path class="st27" d="M110.6,139.5l0,6.5c0,0.1,0,0.2,0,0.3l0-6.5C110.6,139.7,110.6,139.6,110.6,139.5L110.6,139.5z"/>
				<path class="st26" d="M110.6,139.8l0,6.5c0,0,0,0,0,0L110.6,139.8C110.6,139.8,110.6,139.8,110.6,139.8L110.6,139.8z"/>
			</g>
		</g>
		<g class="st21">
			<defs>
				<path id="SVGID_9_" class="st21" d="M110.6,146.3c0-2.2,0-4.3,0-6.5c0,0.7,0.5,1.4,1.4,2l0,6.5
					C111.1,147.8,110.6,147.1,110.6,146.3z"/>
			</defs>
			<clipPath id="SVGID_10_">
				<use xlink:href="#SVGID_9_"  style="overflow:visible;"/>
			</clipPath>
			<g class="st47">
				<path class="st48" d="M112,141.8l0,6.5c-0.9-0.5-1.4-1.3-1.4-2l0-6.5C110.6,140.5,111.1,141.2,112,141.8L112,141.8z"/>
			</g>
		</g>
		<g>
			<defs>
				<path id="SVGID_11_" d="M88.7,150.7c0-2.2,0-4.3,0-6.5c0,0.7,0.5,1.4,1.4,2l0,6.5C89.2,152.1,88.7,151.4,88.7,150.7z"/>
			</defs>
			<use xlink:href="#SVGID_11_"  style="overflow:visible;fill:#8DA5D5;"/>
			<clipPath id="SVGID_12_">
				<use xlink:href="#SVGID_11_"  style="overflow:visible;"/>
			</clipPath>
			<g class="st49">
				<path class="st50" d="M90.1,146.1l0,6.5c-0.9-0.5-1.4-1.3-1.4-2l0-6.5C88.7,144.9,89.2,145.6,90.1,146.1L90.1,146.1z"/>
			</g>
		</g>
		<g>
			<polygon class="st51" points="184.2,183.4 184.1,190 112,148.3 112,141.8 			"/>
		</g>
		<g class="st21">
			<defs>
				<path id="SVGID_13_" class="st21" d="M134.8,170.3c-1.1,0.6-1.6,1.4-1.6,2.2l0-6.5c0-0.8,0.5-1.6,1.6-2.2
					C134.8,166,134.8,168.1,134.8,170.3c0-2.2,0-4.4,0-6.5c2.1-1.2,5.6-1.2,7.7,0l0,0c0,0,0,0,0,0l0,0l0,0l0,0l0,0
					c0,2.2,0,4.3,0,6.5l0,0l0,0C140.4,169.1,137,169.1,134.8,170.3z"/>
			</defs>
			<clipPath id="SVGID_14_">
				<use xlink:href="#SVGID_13_"  style="overflow:visible;"/>
			</clipPath>
			<g class="st52">
				<path class="st23" d="M144.2,166l0,6.5c0-0.8-0.5-1.6-1.6-2.3c-0.2-0.1-0.5-0.3-0.8-0.4l0-6.5c0.3,0.1,0.5,0.2,0.8,0.4
					C143.7,164.4,144.2,165.2,144.2,166L144.2,166z"/>
				<path class="st24" d="M141.8,163.4l0,6.5c-0.2-0.1-0.4-0.2-0.7-0.2l0-6.5C141.4,163.3,141.6,163.3,141.8,163.4L141.8,163.4z"/>
				<path class="st25" d="M141.1,163.2l0,6.5c-0.2-0.1-0.4-0.1-0.6-0.1l0-6.5C140.8,163.1,141,163.1,141.1,163.2L141.1,163.2z"/>
				<path class="st26" d="M140.6,163.1l0,6.5c-0.2,0-0.4-0.1-0.5-0.1l0-6.5C140.2,163,140.4,163,140.6,163.1L140.6,163.1z"/>
				<path class="st27" d="M140,163l0,6.5c-0.2,0-0.3,0-0.5-0.1l0-6.5C139.7,162.9,139.9,162.9,140,163L140,163z"/>
				<path class="st28" d="M139.5,162.9l0,6.5c-0.2,0-0.4,0-0.5,0l0-6.5C139.1,162.9,139.3,162.9,139.5,162.9L139.5,162.9z"/>
				<path class="st29" d="M139,162.9l0,6.5c-0.2,0-0.4,0-0.6,0l0-6.5C138.6,162.9,138.8,162.9,139,162.9L139,162.9z"/>
				<path class="st30" d="M138.4,162.9l0,6.5c-0.2,0-0.4,0-0.6,0l0-6.5C138,162.9,138.2,162.9,138.4,162.9L138.4,162.9z"/>
				<path class="st31" d="M137.8,162.9l0,6.5c-0.2,0-0.5,0.1-0.7,0.1l0-6.5C137.3,163,137.6,162.9,137.8,162.9L137.8,162.9z"/>
				<path class="st32" d="M137.1,163l0,6.5c-0.4,0.1-0.7,0.1-1,0.3l0-6.5C136.4,163.2,136.7,163.1,137.1,163L137.1,163z"/>
				<path class="st33" d="M136.1,163.3l0,6.5c-0.4,0.1-0.8,0.3-1.2,0.5c0,0,0,0-0.1,0l0-6.5c0,0,0,0,0.1,0
					C135.2,163.6,135.6,163.4,136.1,163.3L136.1,163.3z"/>
				<path class="st32" d="M134.8,163.8l0,6.5c-0.3,0.2-0.5,0.3-0.7,0.5l0-6.5C134.3,164.2,134.5,164,134.8,163.8L134.8,163.8z"/>
				<path class="st31" d="M134.1,164.3l0,6.5c-0.1,0.1-0.2,0.2-0.3,0.4l0-6.5C133.9,164.6,134,164.5,134.1,164.3L134.1,164.3z"/>
				<path class="st30" d="M133.8,164.7l0,6.5c-0.1,0.1-0.2,0.2-0.2,0.3l0-6.5C133.6,164.9,133.7,164.8,133.8,164.7L133.8,164.7z"/>
				<path class="st29" d="M133.5,165l0,6.5c-0.1,0.1-0.1,0.2-0.1,0.3l0-6.5C133.4,165.2,133.5,165.1,133.5,165L133.5,165z"/>
				<path class="st28" d="M133.4,165.3l0,6.5c0,0.1-0.1,0.2-0.1,0.3l0-6.5C133.3,165.6,133.4,165.4,133.4,165.3L133.4,165.3z"/>
				<path class="st27" d="M133.3,165.7l0,6.5c0,0.1,0,0.2,0,0.3l0-6.5C133.3,165.9,133.3,165.8,133.3,165.7L133.3,165.7z"/>
				<path class="st26" d="M133.3,166l0,6.5c0,0,0,0,0,0L133.3,166C133.3,166,133.3,166,133.3,166L133.3,166z"/>
			</g>
		</g>
		<g class="st21">
			<defs>
				<path id="SVGID_15_" class="st21" d="M144.2,166l0,6.5c0,0.8-0.5,1.6-1.6,2.2c-2.1,1.2-5.6,1.2-7.7,0c-1.1-0.6-1.6-1.4-1.6-2.3
					l0-6.5c0,0.8,0.5,1.6,1.6,2.2c2.1,1.2,5.6,1.2,7.7,0C143.7,167.7,144.2,166.9,144.2,166z"/>
			</defs>
			<clipPath id="SVGID_16_">
				<use xlink:href="#SVGID_15_"  style="overflow:visible;"/>
			</clipPath>
			<g class="st53">
				<path class="st37" d="M144.2,166l0,6.5c0,0,0,0,0,0.1L144.2,166C144.2,166.1,144.2,166.1,144.2,166L144.2,166z"/>
				<path class="st38" d="M144.2,166.1l0,6.5c0,0.1,0,0.2,0,0.3l0-6.5C144.2,166.3,144.2,166.2,144.2,166.1L144.2,166.1z"/>
				<path class="st39" d="M144.2,166.4l0,6.5c0,0.1-0.1,0.2-0.1,0.3l0-6.5C144.1,166.6,144.1,166.5,144.2,166.4L144.2,166.4z"/>
				<path class="st40" d="M144.1,166.7l0,6.5c0,0.1-0.1,0.2-0.1,0.3l0-6.5C144,166.9,144,166.8,144.1,166.7L144.1,166.7z"/>
				<path class="st41" d="M143.9,167l0,6.5c-0.1,0.1-0.1,0.2-0.2,0.3l0-6.5C143.8,167.3,143.9,167.1,143.9,167L143.9,167z"/>
				<path class="st42" d="M143.7,167.4l0,6.5c-0.1,0.1-0.2,0.2-0.3,0.4l0-6.5C143.5,167.6,143.6,167.5,143.7,167.4L143.7,167.4z"/>
				<path class="st43" d="M143.4,167.7l0,6.5c-0.2,0.2-0.4,0.4-0.7,0.5l0-6.5C142.9,168.1,143.2,167.9,143.4,167.7L143.4,167.7z"/>
				<path class="st44" d="M142.7,168.2l0,6.5c0,0,0,0-0.1,0c-0.4,0.2-0.8,0.4-1.2,0.5l0-6.5C141.8,168.7,142.2,168.5,142.7,168.2
					C142.6,168.3,142.7,168.2,142.7,168.2L142.7,168.2z"/>
				<path class="st43" d="M141.4,168.8l0,6.5c-0.3,0.1-0.7,0.2-1,0.3l0-6.5C140.7,169,141.1,168.9,141.4,168.8L141.4,168.8z"/>
				<path class="st42" d="M140.4,169.1l0,6.5c-0.2,0-0.5,0.1-0.7,0.1l0-6.5C139.9,169.1,140.2,169.1,140.4,169.1L140.4,169.1z"/>
				<path class="st41" d="M139.7,169.2l0,6.5c-0.2,0-0.4,0-0.6,0l0-6.5C139.3,169.2,139.5,169.2,139.7,169.2L139.7,169.2z"/>
				<path class="st40" d="M139.1,169.2l0,6.5c-0.2,0-0.4,0-0.6,0l0-6.5C138.7,169.2,138.9,169.2,139.1,169.2L139.1,169.2z"/>
				<path class="st39" d="M138.5,169.2l0,6.5c-0.2,0-0.4,0-0.5,0l0-6.5C138.2,169.2,138.3,169.2,138.5,169.2L138.5,169.2z"/>
				<path class="st38" d="M138,169.2l0,6.5c-0.2,0-0.4,0-0.5-0.1l0-6.5C137.6,169.1,137.8,169.2,138,169.2L138,169.2z"/>
				<path class="st37" d="M137.4,169.1l0,6.5c-0.2,0-0.4-0.1-0.5-0.1l0-6.5C137.1,169.1,137.3,169.1,137.4,169.1L137.4,169.1z"/>
				<path class="st54" d="M136.9,169l0,6.5c-0.2,0-0.4-0.1-0.6-0.1l0-6.5C136.5,168.9,136.7,169,136.9,169L136.9,169z"/>
				<path class="st55" d="M136.3,168.9l0,6.5c-0.2-0.1-0.5-0.1-0.7-0.2l0-6.5C135.9,168.7,136.1,168.8,136.3,168.9L136.3,168.9z"/>
				<path class="st48" d="M135.7,168.6l0,6.5c-0.3-0.1-0.5-0.2-0.8-0.4c-1.1-0.6-1.6-1.4-1.6-2.3l0-6.5c0,0.8,0.5,1.6,1.6,2.2
					C135.1,168.4,135.4,168.5,135.7,168.6L135.7,168.6z"/>
			</g>
		</g>
		<g>
			<path class="st56" d="M142.6,163.8c2.1,1.2,2.2,3.2,0,4.5c-2.1,1.2-5.6,1.2-7.7,0c-2.1-1.2-2.1-3.2,0-4.5
				C137,162.6,140.4,162.6,142.6,163.8z"/>
		</g>
		<g>
			<path class="st50" d="M134.9,168.3c2.1,1.2,5.6,1.2,7.7,0c0.6-0.3,1-0.7,1.3-1.2c0.1-0.9-0.4-1.8-1.6-2.5c-2.1-1.2-5.6-1.2-7.7,0
				c-0.6,0.3-1,0.7-1.2,1.2C133.2,166.7,133.7,167.6,134.9,168.3z"/>
		</g>
		<g>
			<polygon class="st57" points="281,131.1 281,137.6 190.9,190 191,183.4 			"/>
		</g>
		<g class="st21">
			<defs>
				<path id="SVGID_17_" class="st21" d="M191,183.4l0,6.5c-1.9,1.1-4.9,1.1-6.8,0l0-6.5C186,184.5,189.1,184.5,191,183.4z"/>
			</defs>
			<clipPath id="SVGID_18_">
				<use xlink:href="#SVGID_17_"  style="overflow:visible;"/>
			</clipPath>
			<g class="st58">
				<path class="st44" d="M191,183.4l0,6.5c-0.3,0.2-0.7,0.3-1.1,0.5l0-6.5C190.3,183.8,190.6,183.6,191,183.4L191,183.4z"/>
				<path class="st43" d="M189.9,183.9l0,6.5c-0.3,0.1-0.6,0.2-0.9,0.2l0-6.5C189.3,184.1,189.6,184,189.9,183.9L189.9,183.9z"/>
				<path class="st42" d="M189,184.1l0,6.5c-0.2,0-0.4,0.1-0.6,0.1l0-6.5C188.6,184.2,188.8,184.2,189,184.1L189,184.1z"/>
				<path class="st41" d="M188.4,184.2l0,6.5c-0.2,0-0.4,0-0.5,0l0-6.5C188,184.2,188.2,184.2,188.4,184.2L188.4,184.2z"/>
				<path class="st40" d="M187.8,184.3l0,6.5c-0.2,0-0.3,0-0.5,0l0-6.5C187.5,184.3,187.7,184.3,187.8,184.3L187.8,184.3z"/>
				<path class="st39" d="M187.4,184.3l0,6.5c-0.2,0-0.3,0-0.5,0l0-6.5C187,184.2,187.2,184.3,187.4,184.3L187.4,184.3z"/>
				<path class="st38" d="M186.9,184.2l0,6.5c-0.2,0-0.3,0-0.5-0.1l0-6.5C186.6,184.2,186.7,184.2,186.9,184.2L186.9,184.2z"/>
				<path class="st37" d="M186.4,184.2l0,6.5c-0.2,0-0.3-0.1-0.5-0.1l0-6.5C186.1,184.1,186.3,184.2,186.4,184.2L186.4,184.2z"/>
				<path class="st54" d="M185.9,184.1l0,6.5c-0.2,0-0.3-0.1-0.5-0.1l0-6.5C185.6,184,185.8,184.1,185.9,184.1L185.9,184.1z"/>
				<path class="st55" d="M185.4,184l0,6.5c-0.2-0.1-0.4-0.1-0.6-0.2l0-6.5C185,183.8,185.2,183.9,185.4,184L185.4,184z"/>
				<path class="st48" d="M184.8,183.8l0,6.5c-0.2-0.1-0.5-0.2-0.7-0.3l0-6.5C184.4,183.6,184.6,183.7,184.8,183.8L184.8,183.8z"/>
			</g>
		</g>
		<g>
			<path class="st59" d="M281,127.2c1.9,1.1,1.9,2.8,0,3.9L191,183.4c-1.9,1.1-4.9,1.1-6.8,0L112,141.8c-1.9-1.1-1.9-2.9,0-3.9
				l90.1-52.3c1.9-1.1,4.9-1.1,6.8,0L281,127.2z"/>
		</g>
		<g>
			<path class="st50" d="M112,141.8l72.1,41.7c1.9,1.1,4.9,1.1,6.8,0l90.1-52.3c0.6-0.3,0.9-0.7,1.2-1.1c-0.2-0.4-0.6-0.8-1.2-1.2
				l-72.1-41.3c-1.9-1.1-4.9-1.1-6.8,0L112,139.4c-0.6,0.3-1,0.8-1.2,1.2C111,141,111.4,141.4,112,141.8z"/>
		</g>
		<g>
			<polygon class="st50" points="176.1,195.8 176.1,202.3 90.1,152.7 90.1,146.1 			"/>
		</g>
		<g>
			<path class="st60" d="M296.9,125.6c1.9,1.1,1.9,2.8,0,3.9l-113.9,66.2c-1.9,1.1-4.9,1.1-6.8,0l-86-49.7c-1.9-1.1-1.9-2.8,0-3.9
				L204.1,76c1.9-1.1,4.9-1.1,6.8,0L296.9,125.6z M191,183.4l90.1-52.3c1.9-1.1,1.8-2.9,0-3.9l-72.1-41.7c-1.9-1.1-4.9-1.1-6.8,0
				L112,137.9c-1.9,1.1-1.9,2.9,0,3.9l72.1,41.7C186,184.5,189.1,184.5,191,183.4L191,183.4z M134.9,168.3c2.1,1.2,5.6,1.2,7.7,0
				c2.1-1.2,2.1-3.2,0-4.5c-2.1-1.2-5.6-1.2-7.7,0C132.7,165,132.7,167,134.9,168.3L134.9,168.3z"/>
		</g>
		<path class="st50" d="M298.2,128.1C298.2,128.1,298.2,128.2,298.2,128.1c-0.1,0.2-0.1,0.3-0.2,0.5c0,0,0,0.1-0.1,0.1
			c-0.1,0.1-0.2,0.3-0.4,0.4c-0.1,0.1-0.2,0.2-0.3,0.2c-0.1,0.1-0.2,0.1-0.3,0.2l-113.9,66.2c-0.3,0.2-0.6,0.3-1,0.4
			c-0.1,0-0.2,0.1-0.3,0.1c-0.2,0-0.3,0.1-0.5,0.1c-0.2,0-0.4,0.1-0.6,0.1c-0.1,0-0.1,0-0.2,0c-0.3,0-0.5,0-0.8,0c0,0-0.1,0-0.1,0
			c-0.3,0-0.5,0-0.8,0c0,0-0.1,0-0.1,0c-0.3,0-0.5-0.1-0.8-0.1c0,0-0.1,0-0.1,0c-0.2-0.1-0.5-0.1-0.7-0.2c0,0-0.1,0-0.1,0
			c-0.3-0.1-0.5-0.2-0.7-0.4l0,6.5c0.2,0.1,0.4,0.2,0.7,0.3c0,0,0,0,0,0c0,0,0.1,0,0.1,0c0.1,0.1,0.3,0.1,0.4,0.1
			c0.1,0,0.2,0,0.2,0.1c0,0,0.1,0,0.1,0c0,0,0.1,0,0.1,0c0.2,0,0.3,0.1,0.5,0.1c0.1,0,0.1,0,0.2,0c0,0,0.1,0,0.1,0
			c0.1,0,0.1,0,0.2,0c0.2,0,0.3,0,0.5,0c0.1,0,0.1,0,0.2,0c0,0,0.1,0,0.1,0c0.1,0,0.2,0,0.2,0c0.2,0,0.4,0,0.5,0c0,0,0,0,0.1,0
			c0,0,0.1,0,0.1,0c0.1,0,0.3,0,0.4-0.1c0.1,0,0.1,0,0.2,0c0.2,0,0.3-0.1,0.5-0.1c0.1,0,0.2,0,0.3-0.1c0,0,0.1,0,0.1,0
			c0.3-0.1,0.7-0.3,1-0.4l113.9-66.2c0,0,0,0,0.1,0c0.1-0.1,0.1-0.1,0.2-0.2c0.1-0.1,0.3-0.2,0.4-0.3c0,0,0,0,0,0
			c0.1-0.1,0.2-0.2,0.3-0.3c0,0,0,0,0.1-0.1c0,0,0-0.1,0.1-0.1c0,0,0.1-0.1,0.1-0.1c0.1-0.1,0.1-0.2,0.1-0.3c0,0,0,0,0,0
			c0,0,0,0,0,0c0-0.1,0-0.1,0.1-0.2c0-0.1,0-0.2,0-0.3l0-6.5c0,0,0,0,0,0C298.3,127.8,298.3,128,298.2,128.1z"/>
		<g class="st61">
			<path class="st62" d="M110.4,143.8c0,8.7-7.1,15.8-15.8,15.8c-8.8,0-15.9-7.1-15.9-15.8c0-8.8,7.1-15.9,15.9-15.9
				C103.3,127.9,110.4,135,110.4,143.8z"/>
			<path class="st63" d="M107.9,143.9c0,7.4-6,13.3-13.3,13.3c-7.4,0-13.4-6-13.4-13.3c0-7.4,6-13.3,13.4-13.3
				C101.9,130.6,107.9,136.5,107.9,143.9z"/>
			<path class="st64" d="M105.4,144c0,6-4.9,10.8-10.8,10.8c-6,0-10.8-4.9-10.8-10.8c0-6,4.9-10.8,10.8-10.8
				C100.5,133.2,105.4,138.1,105.4,144z"/>
			<path class="st65" d="M102.9,144.2c0,4.6-3.7,8.3-8.3,8.3c-4.6,0-8.3-3.7-8.3-8.3c0-4.6,3.7-8.3,8.3-8.3
				C99.2,135.9,102.9,139.6,102.9,144.2z"/>
			<path class="st66" d="M100.4,144.3c0,3.2-2.6,5.8-5.8,5.8c-3.2,0-5.8-2.6-5.8-5.8c0-3.2,2.6-5.8,5.8-5.8
				C97.8,138.5,100.4,141.1,100.4,144.3z"/>
			<path class="st67" d="M97.9,144.4c0,1.8-1.5,3.3-3.3,3.3c-1.8,0-3.3-1.5-3.3-3.3c0-1.8,1.5-3.3,3.3-3.3
				C96.4,141.1,97.9,142.6,97.9,144.4z"/>
			<path class="st68" d="M95.4,144.6c0,0.4-0.4,0.8-0.8,0.8c-0.4,0-0.8-0.4-0.8-0.8c0-0.4,0.4-0.8,0.8-0.8
				C95,143.8,95.4,144.1,95.4,144.6z"/>
		</g>
		<g class="st61">
			<path class="st62" d="M195.9,191.9c0,8.7-7.1,15.8-15.8,15.8s-15.9-7.1-15.9-15.8c0-8.8,7.1-15.8,15.9-15.8
				S195.9,183.1,195.9,191.9z"/>
			<path class="st63" d="M193.4,192c0,7.4-6,13.3-13.3,13.3c-7.4,0-13.3-6-13.3-13.3c0-7.4,6-13.3,13.3-13.3
				C187.5,178.6,193.4,184.6,193.4,192z"/>
			<path class="st64" d="M190.9,192.1c0,6-4.8,10.8-10.8,10.8c-6,0-10.8-4.8-10.8-10.8c0-6,4.9-10.8,10.8-10.8
				C186.1,181.3,190.9,186.1,190.9,192.1z"/>
			<path class="st65" d="M188.4,192.3c0,4.6-3.7,8.3-8.3,8.3c-4.6,0-8.3-3.7-8.3-8.3c0-4.6,3.7-8.3,8.3-8.3
				C184.7,183.9,188.4,187.7,188.4,192.3z"/>
			<path class="st66" d="M185.9,192.4c0,3.2-2.6,5.8-5.8,5.8c-3.2,0-5.8-2.6-5.8-5.8c0-3.2,2.6-5.8,5.8-5.8
				C183.3,186.6,185.9,189.2,185.9,192.4z"/>
			<path class="st67" d="M183.4,192.5c0,1.8-1.5,3.3-3.3,3.3c-1.8,0-3.3-1.5-3.3-3.3c0-1.8,1.5-3.3,3.3-3.3
				C181.9,189.2,183.4,190.7,183.4,192.5z"/>
			<path class="st68" d="M180.9,192.7c0,0.4-0.4,0.8-0.8,0.8c-0.5,0-0.8-0.4-0.8-0.8c0-0.4,0.4-0.8,0.8-0.8
				C180.5,191.9,180.9,192.2,180.9,192.7z"/>
		</g>
		<g>
			<path class="st60" d="M276.7,144.4C276.7,144.4,276.7,144.4,276.7,144.4C276.7,144.4,276.7,144.4,276.7,144.4c0-0.1,0-0.1,0-0.1
				c0,0,0,0,0,0c0,0,0,0,0,0c0,0,0,0,0,0c0,0,0,0,0,0c0,0,0,0,0,0c0,0,0,0,0,0v0v0c0,0,0,0,0,0c0,0,0,0,0,0c0,0,0,0,0,0c0,0,0,0,0,0
				c0,0,0,0,0,0c0,0,0,0,0,0c0,0,0,0,0,0c0,0,0,0,0-0.1c0,0,0,0,0-0.1c0,0,0,0,0,0c0,0,0,0,0,0c0,0,0-0.1,0.1-0.1c0,0,0-0.1,0.1-0.1
				c0,0,0,0,0,0c0,0,0,0,0,0c0,0,0,0,0,0c0,0,0,0,0,0c0,0,0,0,0,0c0,0,0,0,0,0c0,0,0,0,0,0c0,0,0,0,0,0c0,0,0,0,0,0c0,0,0,0,0,0
				c0,0,0,0,0,0c0,0,0,0,0,0c0,0,0,0,0,0c0,0,0,0,0,0l8.7-5c0,0,0,0,0,0c0,0,0,0,0,0c0,0,0,0,0,0c0,0,0,0,0,0c0,0,0,0,0,0
				c0,0,0,0,0,0c0,0,0,0,0,0c0,0,0,0,0,0c0,0,0,0,0,0c0,0,0,0,0,0l0,0c0,0,0,0,0,0c0,0,0,0,0,0c0,0,0,0,0,0c0,0,0,0,0,0
				c0,0,0,0,0.1,0c0,0,0,0,0.1,0l0.9,0.5c-0.1,0-0.2-0.1-0.3,0l0,0c-0.1,0-0.2,0-0.3,0.1l-8.7,5c-0.1,0.1-0.2,0.1-0.3,0.3
				c0,0,0,0,0,0c-0.1,0.1-0.2,0.2-0.3,0.3c0,0,0,0,0,0c-0.1,0.1-0.1,0.3-0.2,0.4l0,0c0,0.1-0.1,0.3-0.1,0.4c0,0.1,0,0.2,0.1,0.3
				c0,0,0,0,0,0c0,0.1,0.1,0.2,0.2,0.2l-0.9-0.5c-0.1,0-0.1-0.1-0.1-0.1c0,0,0,0,0-0.1c0,0,0,0,0,0c0,0,0,0,0,0c0,0,0,0,0,0
				c0,0,0,0,0,0c0,0,0,0,0,0c0,0,0,0,0,0C276.7,144.5,276.7,144.5,276.7,144.4C276.7,144.5,276.7,144.5,276.7,144.4L276.7,144.4
				C276.7,144.4,276.7,144.4,276.7,144.4z"/>
			<g>
				<path class="st69" d="M278.4,143.5c-0.5,0.3-0.8,0.9-0.8,1.4c0,0.5,0.4,0.7,0.8,0.5l8.7-5c0.5-0.3,0.8-0.9,0.8-1.4
					c0-0.5-0.4-0.7-0.8-0.5L278.4,143.5z"/>
			</g>
		</g>
		<g>
			<path class="st60" d="M264.3,151.4C264.3,151.4,264.3,151.4,264.3,151.4C264.3,151.4,264.3,151.3,264.3,151.4c0-0.1,0-0.1,0-0.1
				c0,0,0,0,0,0c0,0,0,0,0,0c0,0,0,0,0,0c0,0,0,0,0,0c0,0,0,0,0,0c0,0,0,0,0,0c0,0,0,0,0,0v0c0,0,0,0,0,0c0,0,0,0,0,0c0,0,0,0,0,0
				c0,0,0,0,0,0c0,0,0,0,0,0c0,0,0,0,0,0c0,0,0,0,0,0c0,0,0,0,0,0c0,0,0,0,0-0.1c0,0,0,0,0,0c0,0,0,0,0,0c0,0,0-0.1,0.1-0.1
				c0,0,0-0.1,0-0.1c0,0,0,0,0-0.1c0,0,0,0,0,0c0,0,0,0,0,0c0,0,0,0,0,0c0,0,0,0,0,0c0,0,0,0,0,0c0,0,0,0,0,0c0,0,0,0,0,0
				c0,0,0,0,0,0c0,0,0,0,0,0c0,0,0,0,0,0c0,0,0,0,0,0c0,0,0,0,0,0c0,0,0,0,0,0l8.7-5c0,0,0,0,0,0c0,0,0,0,0,0c0,0,0,0,0,0
				c0,0,0,0,0,0c0,0,0,0,0,0c0,0,0,0,0,0c0,0,0,0,0,0c0,0,0,0,0,0c0,0,0,0,0,0c0,0,0,0,0,0l0,0c0,0,0,0,0,0c0,0,0,0,0,0c0,0,0,0,0,0
				c0,0,0,0,0,0c0,0,0,0,0.1,0c0,0,0,0,0.1,0l0.9,0.5c-0.1,0-0.2-0.1-0.3,0c0,0,0,0,0,0c-0.1,0-0.2,0-0.3,0.1l-8.7,5
				c-0.1,0.1-0.2,0.2-0.3,0.3l0,0c-0.1,0.1-0.2,0.2-0.3,0.3c0,0,0,0,0,0c-0.1,0.1-0.1,0.3-0.2,0.4c0,0,0,0,0,0
				c0,0.1-0.1,0.3-0.1,0.4c0,0.1,0,0.2,0.1,0.3l0,0c0,0.1,0.1,0.2,0.2,0.2l-0.9-0.5c-0.1,0-0.1-0.1-0.1-0.1c0,0,0,0,0-0.1
				c0,0,0,0,0,0c0,0,0,0,0,0c0,0,0,0,0,0c0,0,0,0,0,0c0,0,0,0,0,0c0,0,0,0,0,0C264.3,151.5,264.3,151.5,264.3,151.4
				C264.3,151.5,264.3,151.5,264.3,151.4C264.3,151.4,264.3,151.4,264.3,151.4C264.3,151.4,264.3,151.4,264.3,151.4z"/>
			<g>
				<path class="st69" d="M266,150.5c-0.5,0.3-0.8,0.9-0.8,1.4c0,0.5,0.4,0.7,0.8,0.5l8.7-5c0.5-0.3,0.8-0.9,0.8-1.4
					c0-0.5-0.4-0.7-0.8-0.5L266,150.5z"/>
			</g>
		</g>
		<g>
			<path class="st70" d="M137.4,175.9c0.6,0.3,1.1,1.2,1.1,1.9c0,0.7-0.5,1-1.1,0.6l-11.4-6.6c-0.6-0.3-1.1-1.2-1.1-1.9
				c0-0.7,0.5-1,1.1-0.6L137.4,175.9z"/>
		</g>
		<path class="st56" d="M137.4,175.9c0.6,0.3,1.1,1.2,1.1,1.9c0,0.1,0,0.1,0,0.2c0,0,0,0,0,0l-11.4-6.6c-0.6-0.3-1.1-1.2-1.1-1.9
			c0-0.1,0-0.1,0-0.2c0,0,0,0,0,0L137.4,175.9z"/>
		<g>
			<g>
				<path class="st71" d="M260.4,108.8c0.7,0.4,0.7,1,0,1.5c-0.7,0.4-1.8,0.4-2.5,0l-28.5-16.5c-0.7-0.4-0.7-1.1,0-1.5
					c0.7-0.4,1.8-0.4,2.5,0L260.4,108.8z"/>
			</g>
			<path class="st59" d="M257.9,110.3c0.7,0.4,1.8,0.4,2.5,0c0.7-0.4,0.7-1,0-1.5l-28.5-16.5c-0.7-0.4-1.8-0.4-2.5,0
				c-0.7,0.4-0.7,1,0,1.5L257.9,110.3L257.9,110.3z"/>
			<path class="st50" d="M257.9,110.3l-28.5-16.5c-0.1-0.1-0.2-0.1-0.3-0.2c0.1-0.1,0.1-0.1,0.2-0.2c0.7-0.4,1.8-0.4,2.5,0
				l28.5,16.5c0.1,0.1,0.2,0.1,0.3,0.2c-0.1,0.1-0.1,0.1-0.2,0.2C259.8,110.7,258.6,110.7,257.9,110.3z"/>
		</g>
		<g class="st61">
			<path class="st62" d="M267.6,133c0,8.9,7.2,16.2,16.2,16.2c8.9,0,16.2-7.2,16.2-16.2c0-8.9-7.2-16.2-16.2-16.2
				C274.8,116.9,267.6,124.1,267.6,133z"/>
			<path class="st63" d="M270.1,133.2c0,7.5,6.1,13.6,13.6,13.6c7.5,0,13.6-6.1,13.6-13.6c0-7.5-6.1-13.6-13.6-13.6
				C276.2,119.6,270.1,125.7,270.1,133.2z"/>
			<path class="st64" d="M272.7,133.3c0,6.1,4.9,11,11,11c6.1,0,11.1-4.9,11.1-11c0-6.1-5-11.1-11.1-11.1
				C277.6,122.3,272.7,127.2,272.7,133.3z"/>
			<path class="st65" d="M275.2,133.4c0,4.7,3.8,8.5,8.5,8.5c4.7,0,8.5-3.8,8.5-8.5c0-4.7-3.8-8.5-8.5-8.5
				C279,124.9,275.2,128.8,275.2,133.4z"/>
			<path class="st66" d="M277.8,133.6c0,3.3,2.7,5.9,5.9,5.9c3.3,0,5.9-2.7,5.9-5.9c0-3.3-2.7-5.9-5.9-5.9
				C280.5,127.6,277.8,130.3,277.8,133.6z"/>
			<path class="st67" d="M280.4,133.7c0,1.9,1.5,3.4,3.4,3.4c1.9,0,3.4-1.5,3.4-3.4c0-1.9-1.5-3.4-3.4-3.4
				C281.9,130.3,280.4,131.8,280.4,133.7z"/>
			<path class="st68" d="M282.9,133.9c0,0.5,0.4,0.8,0.8,0.8c0.5,0,0.8-0.4,0.8-0.8c0-0.5-0.4-0.8-0.8-0.8
				C283.3,133,282.9,133.4,282.9,133.9z"/>
		</g>
	</g>
	<g>
		<g>
			<g class="st61">
				<path class="st62" d="M212.5,39.4c0,9.8,8,17.8,17.8,17.8c9.8,0,17.8-8,17.8-17.8c0-9.8-8-17.8-17.8-17.8
					C220.5,21.6,212.5,29.5,212.5,39.4z"/>
				<path class="st63" d="M215.3,39.5c0,8.3,6.7,15,15,15c8.3,0,15-6.7,15-15c0-8.3-6.7-15-15-15C222.1,24.5,215.3,31.2,215.3,39.5z
					"/>
				<path class="st64" d="M218.2,39.7c0,6.7,5.4,12.2,12.2,12.2c6.7,0,12.2-5.4,12.2-12.2c0-6.7-5.4-12.2-12.2-12.2
					C223.6,27.5,218.2,32.9,218.2,39.7z"/>
				<path class="st65" d="M221,39.8c0,5.2,4.2,9.3,9.3,9.3c5.2,0,9.4-4.2,9.4-9.3c0-5.2-4.2-9.4-9.4-9.4
					C225.2,30.5,221,34.6,221,39.8z"/>
				<path class="st66" d="M223.8,40c0,3.6,2.9,6.5,6.5,6.5c3.6,0,6.5-2.9,6.5-6.5c0-3.6-2.9-6.5-6.5-6.5
					C226.7,33.4,223.8,36.3,223.8,40z"/>
				<path class="st67" d="M226.6,40.1c0,2.1,1.7,3.7,3.7,3.7c2.1,0,3.7-1.7,3.7-3.7c0-2.1-1.7-3.7-3.7-3.7
					C228.3,36.4,226.6,38,226.6,40.1z"/>
				<path class="st68" d="M229.4,40.3c0,0.5,0.4,0.9,0.9,0.9c0.5,0,0.9-0.4,0.9-0.9c0-0.5-0.4-0.9-0.9-0.9
					C229.8,39.4,229.4,39.8,229.4,40.3z"/>
			</g>
			<g class="st20">
				<path d="M206.8,101.2c-16.3,9.4-16.4,24.6-0.2,34c16.2,9.4,42.5,9.4,58.7,0c16.3-9.4,16.4-24.6,0.2-34
					C249.4,91.9,223.1,91.8,206.8,101.2z"/>
			</g>
			<path class="st72" d="M200,99.5c0,20,16.2,36.2,36.2,36.2c20,0,36.2-16.2,36.2-36.2c0-20-16.2-36.2-36.2-36.2
				C216.2,63.2,200,79.5,200,99.5z"/>
			<rect x="225.3" y="38.6" class="st72" width="21.8" height="34.6"/>
			<g>
				<path class="st73" d="M227.3,37.5c-4.9,2.8-5,7.5-0.1,10.3c4.9,2.9,12.9,2.9,17.8,0c4.9-2.8,5-7.5,0.1-10.3
					C240.2,34.7,232.3,34.7,227.3,37.5z"/>
			</g>
			<rect x="223.6" y="38" class="st73" width="25.2" height="4.9"/>
			<g>
				<path class="st74" d="M227.3,32.8c-4.9,2.8-5,7.5-0.1,10.3c4.9,2.9,12.9,2.9,17.8,0c4.9-2.9,5-7.5,0.1-10.3
					C240.2,29.9,232.3,29.9,227.3,32.8z"/>
			</g>
			<g>
				<path class="st75" d="M228.4,33.4c-4.3,2.5-4.3,6.5,0,9c4.3,2.5,11.2,2.5,15.5,0c4.3-2.5,4.3-6.5,0.1-9
					C239.7,30.9,232.7,30.9,228.4,33.4z"/>
			</g>
			<path class="st76" d="M243.9,42.4c-4.3,2.5-11.3,2.5-15.5,0c-1.8-1-2.8-2.3-3.1-3.7c0.6-0.9,1.5-1.7,2.7-2.4
				c4.6-2.7,12-2.7,16.6,0c1.1,0.7,2,1.4,2.5,2.2C246.8,40,245.8,41.3,243.9,42.4z"/>
			<g>
				<g>
					<path class="st77" d="M214.6,83.6c-12,6.9-12,18.1-0.1,25c11.9,6.9,31.2,6.9,43.1,0c12-6.9,12-18.1,0.2-25
						C245.9,76.7,226.6,76.7,214.6,83.6z"/>
				</g>
				<path class="st78" d="M205.6,96.3c0.1,4.5,3,8.9,8.9,12.3c11.9,6.9,31.2,6.9,43.1,0c6.2-3.6,9.2-8.3,9-13
					c0.2,1.5,0.3,2.9,0.3,4.5c0,17-13.8,30.8-30.8,30.8c-17,0-30.8-13.8-30.8-30.8C205.4,98.7,205.5,97.5,205.6,96.3z"/>
			</g>
			<path class="st20" d="M221.8,66.2c-9.1,6.6-15,17.3-15,29.3c0,20,16.2,36.2,36.2,36.2c5.1,0,10-1.1,14.4-3
				c-6,4.3-13.3,6.9-21.3,6.9c-20,0-36.2-16.2-36.2-36.2C200,84.6,209,71.8,221.8,66.2z"/>
			<path class="st79" d="M252.8,73.2c7.5,0.5,13.1,8.3,14.9,26.4c2.4,24.1-10,13.7-12.5,10.5C249.5,102.8,234.3,72,252.8,73.2z"/>
		</g>
		<g>
			<path class="st80" d="M263.5,100.8c15.1,8.7,15.2,22.8,0.2,31.5c-15,8.7-39.3,8.7-54.4,0c-15.1-8.7-15.2-22.8-0.2-31.5
				C224,92.1,248.4,92.1,263.5,100.8z"/>
			<g class="st81">
				<path class="st82" d="M263.8,91.9c15.3,8.8,15.4,23.1,0.2,32c-15.2,8.8-39.9,8.8-55.2,0c-15.3-8.8-15.4-23.1-0.2-32
					C223.8,83.1,248.6,83.1,263.8,91.9z"/>
			</g>
			<g class="st83">
				<path class="st84" d="M264.2,83c15.5,8.9,15.6,23.5,0.2,32.4c-15.4,8.9-40.4,8.9-55.9,0C193,106.5,192.9,92,208.3,83
					C223.7,74.1,248.7,74.1,264.2,83z"/>
			</g>
			<g class="st85">
				<path class="st86" d="M264.6,74.2c15.7,9.1,15.8,23.8,0.2,32.9c-15.6,9.1-41,9.1-56.7,0c-15.7-9.1-15.8-23.8-0.2-32.9
					C223.5,65.1,248.9,65.1,264.6,74.2z"/>
			</g>
			<g class="st87">
				<path class="st88" d="M265,65.3c15.9,9.2,16,24.1,0.2,33.3c-15.8,9.2-41.6,9.2-57.5,0c-15.9-9.2-16-24.1-0.2-33.3
					C223.3,56.1,249.1,56.1,265,65.3z"/>
			</g>
			<g class="st89">
				<path class="st90" d="M265.4,56.4c16.1,9.3,16.2,24.4,0.2,33.7c-16,9.3-42.1,9.3-58.2,0c-16.1-9.3-16.2-24.4-0.2-33.7
					C223.1,47.1,249.2,47.1,265.4,56.4z"/>
			</g>
			<g class="st91">
				<path class="st92" d="M265.7,47.5c16.3,9.4,16.4,24.7,0.2,34.2c-16.2,9.4-42.7,9.4-59,0c-16.3-9.4-16.4-24.7-0.2-34.2
					C223,38.1,249.4,38.1,265.7,47.5z"/>
			</g>
		</g>
		<g class="st20">
			<path d="M141.9,125.7c-13.8,8-13.9,20.9-0.2,28.9c13.7,8,36.1,8,49.9,0c13.8-8,13.9-20.9,0.2-28.9
				C178.1,117.7,155.7,117.7,141.9,125.7z"/>
		</g>
		<g>
			<g>
				<path class="st76" d="M188.5,125.7c12,6.9,12,18.1,0.1,25c-11.9,6.9-31.2,6.9-43.2,0c-12-6.9-12-18.1-0.1-25
					C157.2,118.8,176.6,118.8,188.5,125.7z"/>
			</g>
			<polygon class="st76" points="175,86.9 175,61 158.7,61 158.7,86.9 136.9,135.4 197.2,135.6 			"/>
			<g>
				<path class="st73" d="M173.4,60.2c3.7,2.1,3.7,5.6,0,7.7c-3.7,2.1-9.6,2.1-13.3,0c-3.7-2.1-3.7-5.6-0.1-7.7
					C163.8,58,169.7,58,173.4,60.2z"/>
			</g>
			<rect x="157.4" y="60.6" class="st73" width="18.8" height="3.7"/>
			<g>
				<path class="st74" d="M173.4,56.6c3.7,2.1,3.7,5.6,0,7.7c-3.7,2.1-9.6,2.1-13.3,0c-3.7-2.1-3.7-5.6-0.1-7.7
					C163.8,54.5,169.7,54.5,173.4,56.6z"/>
			</g>
			<g>
				<path class="st75" d="M172.6,57.1c3.2,1.9,3.2,4.9,0,6.7c-3.2,1.9-8.4,1.9-11.6,0c-3.2-1.9-3.2-4.9,0-6.7
					C164.2,55.2,169.4,55.2,172.6,57.1z"/>
			</g>
			<path class="st76" d="M161,63.8c3.2,1.9,8.4,1.9,11.6,0c1.3-0.8,2.1-1.7,2.3-2.7c-0.4-0.7-1.1-1.3-2-1.8c-3.4-2-9-2-12.4,0
				c-0.8,0.5-1.5,1.1-1.9,1.7C158.9,62,159.7,63,161,63.8z"/>
			<g>
				<path class="st93" d="M186.4,126.9c10.8,6.2,10.8,16.3,0.1,22.5c-10.7,6.2-28.1,6.2-38.9,0c-10.8-6.2-10.8-16.3-0.1-22.5
					C158.2,120.7,175.7,120.7,186.4,126.9z"/>
			</g>
			<polygon class="st93" points="151.8,112.3 139.5,137.1 194.5,137.1 182.3,112.3 			"/>
			<g>
				<path class="st94" d="M177.8,106.1c6,3.4,6,9,0.1,12.5c-5.9,3.4-15.6,3.4-21.5,0c-6-3.4-6-9-0.1-12.5
					C162.2,102.6,171.8,102.6,177.8,106.1z"/>
			</g>
		</g>
	</g>
	<g>
		<g class="st20">
			<path d="M255,190c9.8,5.7,9.9,14.9,0.1,20.6c-9.8,5.7-25.7,5.7-35.5,0c-9.8-5.7-9.9-14.9-0.1-20.6
				C229.2,184.3,245.1,184.3,255,190z"/>
		</g>
		<path class="st95" d="M224.2,201.3c0,0-1.4,3,0.7,3.9c2.1,0.9,2.1-0.5,6.1,2.8c4,3.3,7.5,1.8,8.1,1.2c1.1-1,0.5-3.8-8.4-8.2
			L224.2,201.3z"/>
		<path class="st96" d="M224.9,205.2c2.1,0.9,2.1-0.5,6.1,2.8c4,3.3,7.6,1.9,8.1,1.2c0.1-0.1,0.3-0.2,0.3-0.4
			c-3.7,1.3-5.9-0.5-7.5-1.8c-1.7-1.3-3.1-1.8-5.6-2.4c-2.6-0.5-1.6-2.5-1.6-2.5c-0.2-0.1-0.4-0.2-0.7-0.2
			C223.7,202.8,223.4,204.5,224.9,205.2z"/>
		<path class="st95" d="M236.7,192.5c0,0-1.4,3,0.7,3.9c2.1,0.9,2.1-0.5,6.1,2.8c4,3.3,7.6,1.9,8.1,1.2c0.4-0.5,0.5-3.8-8.4-8.2
			L236.7,192.5z"/>
		<path class="st96" d="M237.4,196.4c2.1,0.9,2.1-0.5,6.1,2.8c4,3.3,7.6,1.9,8.1,1.2c0.1-0.1,0.1-0.2,0.1-0.4
			c-3.7,1.3-5.7-0.5-7.4-1.8c-1.7-1.3-3.1-1.8-5.7-2.4c-2.5-0.5-1.6-2.5-1.6-2.5c-0.2-0.1-0.4-0.2-0.7-0.2
			C236.2,193.9,235.9,195.7,237.4,196.4z"/>
		<path class="st97" d="M217.9,153.6c0,0,4.2-0.6,6.6-3.1c0,0,16.1,11.2,17.5,14.8c1.3,3.4,3.1,20.2,3,27.4c0,2.3-8.7,4-9.2,0.7
			c-0.9-5.9-1.6-22.6-1.6-22.6S214.9,163.9,217.9,153.6z"/>
		<path class="st98" d="M203.8,152.5c0,0-2.3,8.1,3.6,12.6c5.9,4.5,16.3,10.8,16.3,10.8s-0.6,5.5-0.4,14.9c0.2,8.5,0,8.3,0.4,11.3
			c0.3,2.2,8.6,2.9,9-0.9c0.8-7.8,0.6-27.5-1-31c-1.6-3.6-13.1-11.5-13.1-11.5l1.8-5.6C220.4,153.1,209.7,155.8,203.8,152.5z"/>
		<path class="st99" d="M203.8,152.5c0,0-2.3,8.1,3.6,12.6c5.9,4.5,16.3,10.8,16.3,10.8s-0.6,5.5-0.4,14.9c0.2,8.5,0,8.3,0.4,11.3
			c0.3,2.2,8.6,2.9,9-0.9c0.8-7.8,0.6-27.5-1-31c-1.6-3.6-13.1-11.5-13.1-11.5l1.8-5.6C220.4,153.1,209.7,155.8,203.8,152.5z"/>
		<g>
			<path class="st100" d="M240.1,137.4c0,0,0.9-0.6,2.9-0.6c2,0,2.4,0.5,3.5,1.1c1.1,0.6,1.9,1.1,1.6,1.6c-0.3,0.5-3,1.2-4.5,0.7
				c-0.9-0.3-3.5,0.7-4.1,0.7C239.1,140.8,239.5,137.7,240.1,137.4z"/>
			<path class="st101" d="M239.6,140.9c0.6,0.1,3.1-1,4.1-0.7c1.1,0.4,2.8,0.2,3.8-0.2c0,0,0-0.1,0-0.1c-0.2-0.3-1.1-0.2-1.6-0.4
				c-0.5-0.2-2.1-0.3-3.2-0.6c-1-0.3-3.1,0.7-3.1,0.7l-0.2,0.1C239.3,140.4,239.4,140.9,239.6,140.9z"/>
			<path class="st102" d="M218.1,118c0,0,3.6-3.7,6.2,1.1c1.7,3.1,3.8,15.1,5,16.2c0.6,0.6,11.4,1.3,11.4,1.3s-1.8,1.4,0,4.7
				c0,0-14.5,2.9-16.4-0.2C220.8,135.8,215.5,122.7,218.1,118z"/>
		</g>
		<path class="st97" d="M223.7,202.1c-0.3-3-0.2-2.8-0.4-11.3c-0.2-9.4,0.4-14.9,0.4-14.9s-10.4-6.3-16.3-10.8c-2.9-2.3-3.8-5.4-4-8
			c2.2,5.3,15.3,14.4,19.4,15.7c5.3,1.7,2.5,8.1,2.6,9.6c0.1,1.2-0.3,15.4-0.5,20.9C224.2,203,223.7,202.6,223.7,202.1z"/>
		<path class="st103" d="M223.1,143.3c-0.1-1.6-0.6-4.5,2.1-10.2c1.3-2.9,1-6,0.1-8.8c-1.9-5.4-2.2-7.2-3.4-8.1
			c-1.8-1.3-17.7,5.1-18.1,5.5c-5.7,4.1,2.2,11.7,0.4,26c-0.8,5.9-4.8,13.9,10.3,24.3c0,0,5.2,0.4,12.3-5.2c2.7-2.1,7-4.8,9.5-8.3
			C236.2,158.4,224.8,151.3,223.1,143.3z"/>
		<g>
			<path class="st104" d="M217.8,114.8c0,0-0.8,3.7,0,5.6c0.8,1.9-2.1,2.6-3.5,2.1c-1.4-0.5-3.6-1.5-3.3-2.7
				c0.3-1.2,1.5-5.3,0.7-6.8C210.8,111.6,217.8,114.8,217.8,114.8z"/>
			<path class="st100" d="M210.6,103.5c0,0-4.2,4.2-3.1,8.6c0.6,2.4,3.4,4,5,5.3c1.6,1.2,5.6,4.1,7.3,1.2c1.7-2.9,3.6-11.3,0-15
				C216.3,99.8,210.6,103.5,210.6,103.5z"/>
			<path class="st105" d="M219.9,105.3c0,0-0.5,2.9-6,3.8c-1.6,0.2-1.3,5-2.5,3.8c-0.5-0.5-1.7-1.4-1.8-0.7
				c-0.7,3.3,4.1,4.3,3.3,6.5c-1.2,3.4-10.7,8-7.4-11.5c0.8-4.6,3.6-7.8,10.2-7.3c5.2,0.4,7.4,4.9,5.5,5.5
				C220.8,105.5,221,105.2,219.9,105.3z"/>
		</g>
		<g>
			<g>
				<g class="st21">
					<g>
						<polygon class="st106" points="212.6,156.8 212.6,158.3 226,166 226,164.6 						"/>
					</g>
					<g>
						<polygon class="st107" points="226,164.6 226,166 246.2,154.4 246.2,152.9 						"/>
					</g>
					<g>
						<polygon class="st60" points="212.6,156.8 226,164.6 246.2,152.9 232.8,145.1 						"/>
					</g>
				</g>
			</g>
			<g>
				<g>
					<polygon class="st50" points="236.3,150.5 237.5,151.1 239,150.3 237.9,149.6 					"/>
				</g>
				<g>
					<polygon class="st50" points="233.4,148.8 234.6,149.5 236.1,148.6 235,147.9 					"/>
				</g>
				<g>
					<polygon class="st50" points="234.9,149.7 236,150.3 237.5,149.4 236.4,148.8 					"/>
				</g>
				<g>
					<polygon class="st50" points="231.4,148.8 232,149.2 234.6,147.7 234,147.4 					"/>
				</g>
				<g>
					<polygon class="st50" points="228.5,150.5 229.1,150.9 231.6,149.4 231,149 					"/>
				</g>
				<g>
					<polygon class="st50" points="219.7,155.6 220.3,155.9 222.9,154.5 222.3,154.1 					"/>
				</g>
				<g class="st21">
					<g>
						<polygon class="st50" points="231.5,149.9 232.6,150.6 234.1,149.7 233,149.1 						"/>
					</g>
					<g>
						<polygon class="st50" points="233,150.8 234.1,151.4 235.6,150.6 234.5,149.9 						"/>
					</g>
					<g>
						<polygon class="st50" points="229.6,151.1 230.7,151.7 232.2,150.8 231.1,150.2 						"/>
					</g>
					<g>
						<polygon class="st50" points="234.4,151.6 235.5,152.3 237,151.4 235.9,150.8 						"/>
					</g>
					<g>
						<polygon class="st50" points="225.6,152.2 226.2,152.5 228.7,151.1 228.1,150.7 						"/>
					</g>
					<g>
						<polygon class="st50" points="231,151.9 232.1,152.5 233.6,151.7 232.5,151 						"/>
					</g>
					<g>
						<polygon class="st50" points="227.6,152.2 228.7,152.8 230.2,152 229.1,151.3 						"/>
					</g>
					<g>
						<polygon class="st50" points="235.7,152.4 236.8,153 238.3,152.1 237.2,151.5 						"/>
					</g>
					<g>
						<polygon class="st50" points="232.5,152.8 233.6,153.4 235.1,152.5 234,151.9 						"/>
					</g>
					<g>
						<polygon class="st50" points="229.1,153 230.2,153.7 231.7,152.8 230.6,152.2 						"/>
					</g>
					<g>
						<polygon class="st50" points="225.7,153.3 226.8,154 228.3,153.1 227.2,152.4 						"/>
					</g>
					<g>
						<polygon class="st50" points="222.7,153.9 223.3,154.2 225.8,152.8 225.2,152.4 						"/>
					</g>
					<g>
						<polygon class="st50" points="230.5,153.9 231.6,154.5 233.1,153.6 232,153 						"/>
					</g>
					<g>
						<polygon class="st50" points="227.1,154.2 228.2,154.8 229.7,153.9 228.6,153.3 						"/>
					</g>
					<g>
						<polygon class="st50" points="223.7,154.4 224.8,155.1 226.3,154.2 225.2,153.6 						"/>
					</g>
					<g>
						<polygon class="st50" points="228.6,155 229.7,155.6 231.2,154.8 230.1,154.1 						"/>
					</g>
					<g>
						<polygon class="st50" points="225.2,155.3 226.3,155.9 227.8,155 226.7,154.4 						"/>
					</g>
					<g>
						<polygon class="st50" points="226.6,156.1 227.7,156.8 229.2,155.9 228.1,155.3 						"/>
					</g>
					<g>
						<polygon class="st50" points="223.2,156.4 224.3,157 225.8,156.2 224.7,155.5 						"/>
					</g>
					<g>
						<polygon class="st50" points="224.7,157.2 225.8,157.9 227.3,157 226.2,156.4 						"/>
					</g>
					<g>
						<polygon class="st50" points="221.3,157.5 222.4,158.2 223.9,157.3 222.8,156.7 						"/>
					</g>
					<g>
						<polygon class="st50" points="217.7,157.9 218.9,158.5 221.9,156.8 220.8,156.1 						"/>
					</g>
					<g>
						<polygon class="st50" points="225.8,158.1 226.9,158.7 236.3,153.3 235.3,152.7 						"/>
					</g>
					<g>
						<polygon class="st50" points="222.7,158.4 223.8,159 225.2,158.2 225.3,158.1 224.2,157.5 						"/>
					</g>
					<g>
						<polygon class="st50" points="223.9,159.2 225,159.8 226.5,159 225.4,158.3 						"/>
					</g>
				</g>
				<g>
					<polygon class="st50" points="222,160.3 223,161 224.5,160.1 223.5,159.5 					"/>
				</g>
				<g>
					<polygon class="st50" points="237.7,151.3 238.7,151.9 240.2,151 239.2,150.4 					"/>
				</g>
				<g>
					<polygon class="st50" points="219.2,158.7 220.3,159.4 221.9,158.4 220.8,157.8 					"/>
				</g>
				<g>
					<polygon class="st50" points="220.7,159.6 221.8,160.2 225.2,158.2 223.8,159 222.7,158.4 					"/>
				</g>
				<g>
					<polygon class="st50" points="221.8,155.6 222.9,156.2 224.4,155.3 223.3,154.7 					"/>
				</g>
				<g>
					<polygon class="st50" points="216.8,157.2 217.4,157.6 220,156.1 219.4,155.8 					"/>
				</g>
			</g>
			<g>
				<g class="st21">
					<g>
						<polygon class="st106" points="226,164.6 224.7,163.8 227.1,149.8 228.3,150.8 						"/>
					</g>
					<g>
						<polygon class="st106" points="228.3,150.8 227.1,149.8 247.3,138.1 248.6,139.1 						"/>
					</g>
					<g>
						<polygon class="st107" points="248.6,139.1 246.2,152.9 226,164.6 228.3,150.8 						"/>
					</g>
				</g>
			</g>
		</g>
		<g>
			<path class="st100" d="M215,150.2c0,0,1.1-0.1,3,0.7c1.9,0.9,2.1,1.6,2.8,2.6c0.8,1,1.3,1.8,0.8,2.2c-0.5,0.4-3.3-0.2-4.5-1.3
				c-0.7-0.7-3.6-0.8-4.1-1.1C212.4,153,214.3,150.2,215,150.2z"/>
			<path class="st101" d="M212.9,153.3c0.5,0.3,3.4,0.4,4.1,1.1c0.8,0.8,2.5,1.4,3.6,1.5c0,0,0-0.1,0-0.1c0-0.4-0.9-0.7-1.3-1.1
				c-0.4-0.4-1.9-1.2-2.7-1.9c-0.8-0.7-3.2-0.7-3.2-0.7l-0.2,0C212.9,152.6,212.7,153.2,212.9,153.3z"/>
			<path class="st108" d="M204,122.1c1-0.6,3.2-1.1,3.7,2.6c0.5,3.7-3.4,17.2-2.8,18.8c0.3,0.8,10.8,6.2,10.8,6.2s-2.3,0.5-2.1,4.4
				c0,0-14.9-3.6-15.3-7.4C197.5,140.2,199.2,124.7,204,122.1z"/>
		</g>
	</g>
</g>
<g>
	<path class="st109" d="M139.5,29.4c0-3.8-1.3-6.4-3.5-7.7c0,0,0,0-0.1,0c0,0,0,0-0.1,0c0,0,0,0-0.1,0c0,0,0,0-0.1,0c0,0,0,0-0.1,0
		c0,0,0,0-0.1,0c0,0,0,0-0.1,0c0,0,0,0-0.1,0c0,0,0,0-0.1,0c0,0,0,0-0.1,0c0,0,0,0-0.1,0c0,0,0,0-0.1,0c0,0,0,0-0.1,0c0,0,0,0-0.1,0
		c0,0,0,0-0.1,0c0,0,0,0-0.1,0c0,0,0,0-0.1,0c0,0,0,0-0.1,0c0,0,0,0-0.1,0c0,0,0,0-0.1,0c0,0,0,0-0.1,0c0,0,0,0-0.1,0c0,0,0,0-0.1,0
		c0,0,0,0-0.1,0c0,0,0,0-0.1,0c0,0,0,0-0.1,0c0,0,0,0-0.1,0c0,0,0,0-0.1,0c0,0,0,0-0.1,0c0,0,0,0-0.1,0c0,0,0,0-0.1,0c0,0,0,0-0.1,0
		c0,0,0,0-0.1,0c0,0,0,0-0.1,0c0,0,0,0-0.1,0c0,0,0,0-0.1,0c0,0,0,0-0.1,0c0,0,0,0-0.1,0c0,0,0,0-0.1,0c0,0,0,0-0.1,0c0,0,0,0-0.1,0
		c0,0,0,0-0.1,0c0,0,0,0-0.1,0c0,0,0,0-0.1,0c0,0,0,0-0.1,0c0,0,0,0-0.1,0c0,0,0,0-0.1,0c0,0,0,0-0.1,0c0,0,0,0-0.1,0c0,0,0,0-0.1,0
		c0,0,0,0-0.1,0c0,0,0,0-0.1,0c0,0,0,0-0.1,0c0,0,0,0-0.1,0c0,0,0,0-0.1,0c0,0,0,0-0.1,0c0,0,0,0-0.1,0c0,0,0,0-0.1,0c0,0,0,0-0.1,0
		c0,0,0,0-0.1,0c0,0,0,0-0.1,0c0,0,0,0-0.1,0c0,0,0,0-0.1,0c0,0,0,0-0.1,0c0,0,0,0-0.1,0c0,0,0,0-0.1,0c0,0,0,0-0.1,0c0,0,0,0-0.1,0
		c0,0,0,0-0.1,0c0,0,0,0-0.1,0c0,0,0,0-0.1,0c0,0,0,0-0.1,0c0,0,0,0-0.1,0c0,0,0,0-0.1,0c0,0,0,0-0.1,0c0,0,0,0-0.1,0c0,0,0,0-0.1,0
		c0,0,0,0-0.1,0c0,0,0,0-0.1,0c0,0,0,0-0.1,0c-2.1-1.3-5.1-1.1-8.4,0.8l-1.8,1c-6.5,3.8-11.8,13-11.8,20.5l0,60.4
		c0,3.8,1.3,6.4,3.5,7.7c0,0,0,0,0.1,0c0,0,0,0,0.1,0c0,0,0,0,0.1,0c0,0,0,0,0.1,0c0,0,0,0,0.1,0c0,0,0,0,0.1,0c0,0,0,0,0.1,0
		c0,0,0,0,0.1,0c0,0,0,0,0.1,0c0,0,0,0,0.1,0c0,0,0,0,0.1,0c0,0,0,0,0.1,0c0,0,0,0,0.1,0c0,0,0,0,0.1,0c0,0,0,0,0.1,0c0,0,0,0,0.1,0
		c0,0,0,0,0.1,0c0,0,0,0,0.1,0c0,0,0,0,0.1,0c0,0,0,0,0.1,0c0,0,0,0,0.1,0c0,0,0,0,0.1,0c0,0,0,0,0.1,0c0,0,0,0,0.1,0c0,0,0,0,0.1,0
		c0,0,0,0,0.1,0c0,0,0,0,0.1,0c0,0,0,0,0.1,0c0,0,0,0,0.1,0c0,0,0,0,0.1,0c0,0,0,0,0.1,0c0,0,0,0,0.1,0c0,0,0,0,0.1,0c0,0,0,0,0.1,0
		c0,0,0,0,0.1,0c0,0,0,0,0.1,0c0,0,0,0,0.1,0c0,0,0,0,0.1,0c0,0,0,0,0.1,0c0,0,0,0,0.1,0c0,0,0,0,0.1,0c0,0,0,0,0.1,0c0,0,0,0,0.1,0
		c0,0,0,0,0.1,0c0,0,0,0,0.1,0c0,0,0,0,0.1,0c0,0,0,0,0.1,0c0,0,0,0,0.1,0c0,0,0,0,0.1,0c0,0,0,0,0.1,0c0,0,0,0,0.1,0c0,0,0,0,0.1,0
		c0,0,0,0,0.1,0c0,0,0,0,0.1,0c0,0,0,0,0.1,0c0,0,0,0,0.1,0c0,0,0,0,0.1,0c0,0,0,0,0.1,0c0,0,0,0,0.1,0c0,0,0,0,0.1,0c0,0,0,0,0.1,0
		c0,0,0,0,0.1,0c0,0,0,0,0.1,0c0,0,0,0,0.1,0c0,0,0,0,0.1,0c0,0,0,0,0.1,0c0,0,0,0,0.1,0c0,0,0,0,0.1,0c0,0,0,0,0.1,0c0,0,0,0,0.1,0
		c0,0,0,0,0.1,0c0,0,0,0,0.1,0c0,0,0,0,0.1,0c0,0,0,0,0.1,0c0,0,0,0,0.1,0c0,0,0,0,0.1,0c0,0,0,0,0.1,0c0,0,0,0,0.1,0c0,0,0,0,0.1,0
		c0,0,0,0,0.1,0c2.1,1.3,5.1,1.1,8.4-0.8l1.8-1c6.5-3.8,11.8-13,11.8-20.5L139.5,29.4z"/>
	<path class="st110" d="M125.9,111.3c-6.5,3.8-11.8,0.7-11.8-6.8l0-60.4c0-7.5,5.3-16.7,11.8-20.5l1.8-1c6.5-3.8,11.8-0.7,11.8,6.8
		l0,60.4c0,7.5-5.3,16.7-11.8,20.5L125.9,111.3z"/>
	<path class="st111" d="M127.6,108l-1.8,1c-5.4,3.1-9.8,0.6-9.8-5.7l0-60.4c0-6.3,4.4-13.9,9.8-17l1.8-1c5.4-3.1,9.8-0.6,9.8,5.7
		l0,60.4C137.4,97.2,133,104.9,127.6,108z"/>
	<path class="st112" d="M130.9,95.8c0,2.7-1.9,6-4.3,7.4c-2.3,1.4-4.3,0.3-4.3-2.5c0-2.7,1.9-6,4.3-7.4
		C129,92,130.9,93.1,130.9,95.8z"/>
	<g>
		<polygon class="st112" points="133.2,34.2 129.3,36.4 129.3,35.8 133.2,33.6 		"/>
		<polygon class="st112" points="135.3,35.4 129.3,38.8 129.3,38.3 135.3,34.8 		"/>
		<polygon class="st112" points="133.2,39 129.3,41.3 129.3,40.7 133.2,38.5 		"/>
		<polygon class="st112" points="133.2,41.5 129.3,43.7 129.3,43.1 133.2,40.9 		"/>
		<polygon class="st112" points="135.3,42.7 129.3,46.1 129.3,45.5 135.3,42.1 		"/>
		<polygon class="st112" points="133.2,46.3 129.3,48.6 129.3,48 133.2,45.8 		"/>
		<polygon class="st112" points="133.2,48.8 129.3,51 129.3,50.4 133.2,48.2 		"/>
		<polygon class="st112" points="135.3,50 129.3,53.4 129.3,52.8 135.3,49.4 		"/>
		<polygon class="st112" points="133.2,53.6 129.3,55.9 129.3,55.3 133.2,53 		"/>
		<polygon class="st112" points="133.2,56.1 129.3,58.3 129.3,57.7 133.2,55.5 		"/>
		<polygon class="st112" points="135.3,57.2 129.3,60.7 129.3,60.1 135.3,56.7 		"/>
		<polygon class="st112" points="133.2,60.9 129.3,63.1 129.3,62.6 133.2,60.3 		"/>
		<polygon class="st112" points="133.2,63.3 129.3,65.6 129.3,65 133.2,62.8 		"/>
		<polygon class="st112" points="135.3,64.5 129.3,68 129.3,67.4 135.3,63.9 		"/>
		<polygon class="st112" points="133.2,68.2 129.3,70.4 129.3,69.9 133.2,67.6 		"/>
		<polygon class="st112" points="133.2,70.6 129.3,72.9 129.3,72.3 133.2,70.1 		"/>
		<polygon class="st112" points="135.3,71.8 129.3,75.3 129.3,74.7 135.3,71.2 		"/>
		<polygon class="st112" points="133.2,75.5 129.3,77.7 129.3,77.1 133.2,74.9 		"/>
		<polygon class="st112" points="133.2,77.9 129.3,80.2 129.3,79.6 133.2,77.3 		"/>
		<polygon class="st112" points="135.4,79.1 129.3,82.6 129.3,82 135.4,78.5 		"/>
		<polygon class="st112" points="133.2,82.8 129.3,85 129.3,84.4 133.2,82.2 		"/>
		<polygon class="st112" points="133.2,85.2 129.3,87.4 129.3,86.9 133.2,84.6 		"/>
		<polygon class="st112" points="135.4,86.3 129.3,89.9 129.3,89.3 135.4,85.8 		"/>
	</g>
	<g>
		<path class="st113" d="M133.8,98.3c0,3.3-2.7,6-6,6c-3.3,0-6-2.7-6-6c0-3.3,2.7-6,6-6C131.1,92.3,133.8,95,133.8,98.3z"/>
		<path class="st114" d="M132.2,97.6c0,2.8-2.3,5.1-5.1,5.1c-2.8,0-5.1-2.3-5.1-5.1c0-2.8,2.3-5.1,5.1-5.1
			C129.9,92.5,132.2,94.8,132.2,97.6z"/>
		<path class="st115" d="M129.6,96.3c0,1.7-1.4,3.1-3.1,3.1c-1.7,0-3.1-1.4-3.1-3.1c0-1.7,1.4-3.1,3.1-3.1
			C128.2,93.2,129.6,94.6,129.6,96.3z"/>
	</g>
	<g>
		<g>
			<g>
				<g>
					<rect x="125.6" y="57.8" class="st109" width="4.1" height="36.4"/>
				</g>
				<g>
					<path class="st116" d="M129.1,93.4c0.8,0.5,0.8,1.2,0,1.7c-0.8,0.5-2.1,0.5-2.9,0c-0.8-0.5-0.8-1.2,0-1.7
						C127,92.9,128.3,92.9,129.1,93.4z"/>
				</g>
				<g>
					<g>
						<defs>
							<path id="SVGID_19_" d="M129.7,94.2V57.8h-4.1v36.3c0,0.3,0.2,0.6,0.6,0.9c0.8,0.5,2.1,0.5,2.9,0
								C129.5,94.8,129.7,94.5,129.7,94.2z"/>
						</defs>
						<clipPath id="SVGID_20_">
							<use xlink:href="#SVGID_19_"  style="overflow:visible;"/>
						</clipPath>
						<g class="st117">
							<rect x="126" y="57.6" class="st118" width="1.3" height="38.6"/>
						</g>
					</g>
				</g>
			</g>
			<g>
				<path class="st119" d="M129.1,57.1c0.8,0.5,0.8,1.2,0,1.7c-0.8,0.5-2.1,0.5-2.9,0c-0.8-0.5-0.8-1.2,0-1.7
					C127,56.6,128.3,56.6,129.1,57.1z"/>
			</g>
		</g>
		<g>
			<g>
				<g>
					<rect x="125.6" y="33.9" class="st120" width="4.1" height="36.4"/>
				</g>
				<g>
					<path class="st120" d="M129.1,69.4c0.8,0.5,0.8,1.2,0,1.7c-0.8,0.5-2.1,0.5-2.9,0c-0.8-0.5-0.8-1.2,0-1.7
						C127,69,128.3,69,129.1,69.4z"/>
				</g>
				<g>
					<g>
						<defs>
							<path id="SVGID_21_" d="M129.7,70.3V33.9h-4.1v36.3c0,0.3,0.2,0.6,0.6,0.9c0.8,0.5,2.1,0.5,2.9,0
								C129.5,70.9,129.7,70.6,129.7,70.3z"/>
						</defs>
						<clipPath id="SVGID_22_">
							<use xlink:href="#SVGID_21_"  style="overflow:visible;"/>
						</clipPath>
						<g class="st121">
							<rect x="126" y="33.7" class="st122" width="1.3" height="38.6"/>
						</g>
					</g>
				</g>
			</g>
			<g>
				<path class="st119" d="M129.1,33.1c0.8,0.5,0.8,1.2,0,1.7c-0.8,0.5-2.1,0.5-2.9,0c-0.8-0.5-0.8-1.2,0-1.7
					C127,32.6,128.3,32.6,129.1,33.1z"/>
			</g>
		</g>
	</g>
</g>
</svg>
