<?xml version="1.0" encoding="utf-8"?>
<!-- Generator: Adobe Illustrator 24.2.0, SVG Export Plug-In . SVG Version: 6.00 Build 0)  -->
<svg version="1.1" id="Layer_1" xmlns="http://www.w3.org/2000/svg" xmlns:xlink="http://www.w3.org/1999/xlink" x="0px" y="0px"
	 viewBox="0 0 320 306.2" style="enable-background:new 0 0 320 306.2;" xml:space="preserve">
<style type="text/css">
	.st0{fill:#94D7EB;}
	.st1{fill:#582D0F;}
	.st2{fill:#6C3B17;}
	.st3{fill:#45220F;}
	.st4{fill:#905A24;}
	.st5{fill:#A9692C;}
	.st6{fill:#7F4A1E;}
	.st7{fill:#814C1F;}
	.st8{fill:#93562B;}
	.st9{fill:#683515;}
	.st10{fill:#5A2D0F;}
	.st11{fill:#935627;}
	.st12{fill:#E29D2A;}
	.st13{fill:#F8CA80;}
	.st14{fill:#BB7731;}
	.st15{fill:#D19046;}
	.st16{fill:#B8874C;}
	.st17{opacity:0.48;fill:#74441C;}
	.st18{opacity:0.3;fill:url(#SVGID_1_);}
	.st19{opacity:0.3;fill:url(#SVGID_2_);}
	.st20{fill:#ABDEEA;}
	.st21{fill:#D9EFF5;}
	.st22{fill:#CBCBCA;}
	.st23{fill:#F2F2F2;}
	.st24{opacity:0.4;fill:#D9EFF5;}
	.st25{fill:#5C9FD6;}
	.st26{fill:url(#SVGID_3_);}
	.st27{opacity:0.3;fill:url(#SVGID_4_);}
	.st28{fill:#ABB6CB;}
	.st29{fill:#CCEAF1;}
	.st30{fill:url(#SVGID_5_);}
	.st31{fill:#EF4E3E;}
	.st32{fill:#EAEAEA;}
	.st33{fill:#FFFFFF;}
	.st34{fill:url(#SVGID_6_);}
	.st35{fill:#D9DFF0;}
	.st36{fill:url(#SVGID_7_);}
	.st37{opacity:0.2;}
	.st38{fill:#4E2C80;}
	.st39{fill:#078FA9;}
	.st40{fill:#D9EBF1;}
	.st41{fill:#186D7D;}
	.st42{fill:#F3F1F0;}
	.st43{fill:#F4C1A5;}
	.st44{fill:#CA953C;}
	.st45{fill:#FCDDCC;}
	.st46{fill:#ECAF4A;}
	.st47{fill:#BB815A;}
	.st48{fill:#292B34;}
	.st49{enable-background:new    ;}
	.st50{clip-path:url(#SVGID_9_);enable-background:new    ;}
	.st51{fill:#16191F;}
	.st52{fill:#15151A;}
	.st53{clip-path:url(#SVGID_11_);enable-background:new    ;}
	.st54{fill:#1C2027;}
	.st55{fill:#1E2129;}
	.st56{fill:#23262F;}
	.st57{fill:#0C0C0C;}
	.st58{opacity:0.3;fill:url(#SVGID_12_);}
	.st59{fill:url(#SVGID_13_);}
	.st60{fill:#ED3180;}
	.st61{fill:#E71F73;}
	.st62{fill:#F4DD6A;}
	.st63{clip-path:url(#SVGID_15_);fill:#FAB217;}
	.st64{clip-path:url(#SVGID_15_);fill:#FAB317;}
	.st65{clip-path:url(#SVGID_15_);fill:#F9B417;}
	.st66{clip-path:url(#SVGID_15_);fill:#F9B516;}
	.st67{clip-path:url(#SVGID_15_);fill:#F9B616;}
	.st68{clip-path:url(#SVGID_15_);fill:#F8B716;}
	.st69{clip-path:url(#SVGID_15_);fill:#F8B916;}
	.st70{clip-path:url(#SVGID_15_);fill:#F7BA16;}
	.st71{clip-path:url(#SVGID_15_);fill:#F7BB16;}
	.st72{clip-path:url(#SVGID_15_);fill:#F7BC15;}
	.st73{clip-path:url(#SVGID_15_);fill:#F6BD15;}
	.st74{clip-path:url(#SVGID_15_);fill:#F6BE15;}
	.st75{clip-path:url(#SVGID_17_);fill:#FAB217;}
	.st76{clip-path:url(#SVGID_17_);fill:#FAB317;}
	.st77{clip-path:url(#SVGID_17_);fill:#F9B417;}
	.st78{clip-path:url(#SVGID_17_);fill:#F9B516;}
	.st79{clip-path:url(#SVGID_17_);fill:#F9B616;}
	.st80{clip-path:url(#SVGID_17_);fill:#F8B716;}
	.st81{clip-path:url(#SVGID_17_);fill:#F8B916;}
	.st82{clip-path:url(#SVGID_17_);fill:#F7BA16;}
	.st83{clip-path:url(#SVGID_17_);fill:#F7BB16;}
	.st84{clip-path:url(#SVGID_17_);fill:#F7BC15;}
	.st85{clip-path:url(#SVGID_17_);fill:#F6BD15;}
	.st86{clip-path:url(#SVGID_17_);fill:#F6BE15;}
	.st87{clip-path:url(#SVGID_19_);fill:#FAB217;}
	.st88{clip-path:url(#SVGID_19_);fill:#FAB317;}
	.st89{clip-path:url(#SVGID_19_);fill:#F9B417;}
	.st90{clip-path:url(#SVGID_19_);fill:#F9B516;}
	.st91{clip-path:url(#SVGID_19_);fill:#F9B616;}
	.st92{clip-path:url(#SVGID_19_);fill:#F8B716;}
	.st93{clip-path:url(#SVGID_19_);fill:#F8B916;}
	.st94{clip-path:url(#SVGID_19_);fill:#F7BA16;}
	.st95{clip-path:url(#SVGID_19_);fill:#F7BB16;}
	.st96{clip-path:url(#SVGID_19_);fill:#F7BC15;}
	.st97{clip-path:url(#SVGID_19_);fill:#F6BD15;}
	.st98{clip-path:url(#SVGID_19_);fill:#F6BE15;}
	.st99{clip-path:url(#SVGID_21_);fill:#FAB217;}
	.st100{clip-path:url(#SVGID_21_);fill:#FAB317;}
	.st101{clip-path:url(#SVGID_21_);fill:#F9B417;}
	.st102{clip-path:url(#SVGID_21_);fill:#F9B516;}
	.st103{clip-path:url(#SVGID_21_);fill:#F9B616;}
	.st104{clip-path:url(#SVGID_21_);fill:#F8B716;}
	.st105{clip-path:url(#SVGID_21_);fill:#F8B916;}
	.st106{clip-path:url(#SVGID_21_);fill:#F7BA16;}
	.st107{clip-path:url(#SVGID_21_);fill:#F7BB16;}
	.st108{clip-path:url(#SVGID_21_);fill:#F7BC15;}
	.st109{clip-path:url(#SVGID_21_);fill:#F6BD15;}
	.st110{clip-path:url(#SVGID_21_);fill:#F6BE15;}
	.st111{clip-path:url(#SVGID_23_);fill:#FAB217;}
	.st112{clip-path:url(#SVGID_23_);fill:#FAB317;}
	.st113{clip-path:url(#SVGID_23_);fill:#F9B417;}
	.st114{clip-path:url(#SVGID_23_);fill:#F9B516;}
	.st115{clip-path:url(#SVGID_23_);fill:#F9B616;}
	.st116{clip-path:url(#SVGID_23_);fill:#F8B716;}
	.st117{clip-path:url(#SVGID_23_);fill:#F8B916;}
	.st118{clip-path:url(#SVGID_23_);fill:#F7BA16;}
	.st119{clip-path:url(#SVGID_23_);fill:#F7BB16;}
	.st120{clip-path:url(#SVGID_23_);fill:#F7BC15;}
	.st121{clip-path:url(#SVGID_23_);fill:#F6BD15;}
	.st122{clip-path:url(#SVGID_23_);fill:#F6BE15;}
	.st123{fill:#30273B;}
	.st124{fill:#DFB095;}
	.st125{fill:#D9DAE0;}
	.st126{fill:#F0F0F3;}
	.st127{fill:#5193CF;}
	.st128{fill:#3582C4;}
	.st129{fill:#DCDCDC;}
	.st130{fill:#1A1311;}
	.st131{opacity:0.3;}
	.st132{fill:#FCD4BE;}
	.st133{fill:#2B130D;}
</style>
<path class="st0" d="M-188,20.8c-0.4,1.5-0.8,2.9-1.3,4.4C-188.7,23.8-188.3,22.3-188,20.8z"/>
<g>
	<path class="st1" d="M83.4,91.6c-0.2,1.2-0.7,2.5-0.8,3.8c-0.2,1.5-0.1,3.1-0.5,4.5l-0.2,0.1c0.8,0.4,2.9-0.5,3.9-0.5
		c1.4-0.1,3.2,0.6,2.8-1.1C88.1,95.6,85,93.9,83.4,91.6z"/>
	<path class="st1" d="M247.2,108.5c-2.1,1-4.3,1.7-5.9,3.3c-1.5,1.5-2.3,2.8,0,3.9c1.6,0.8,3.3,1,5.1,1.1c1.9,0.1,3.7-0.4,5.3,0.5
		c0-3.8,0.7-7.7,0.6-11.3C251.1,105.7,248.2,108,247.2,108.5z"/>
	<g>
		<path class="st2" d="M305.9,134.3l-4.5-1c-9.8-2.5-21-2.5-31.3-3c-22.9-1.1-44.8,2.4-65.2,11.4c-21.4,9.4-45.6,26.8-53.4,48.4
			c-5.5,15.2-9.6,32.8-6.9,48.9c2.8,17,12.7,33.8,12.5,51.1c10.4-2.1,18.5-13.6,29.4-16.9c0,0,8.3,5,19.2-3.5
			c14.6-11.5,29.3-24.8,46.6-29.2c19.2-4.9,26.9-23.3,37.1-29c8.3-17.6-2.3-21.3,5.7-34.3C305.1,160.6,300.4,148.3,305.9,134.3z"/>
		<path class="st1" d="M212.9,204.4c-3,8-3.3,24.1-5.6,32.4c-2.2,7.9-4.2,15.9-5.6,24c-0.5,2.9-1,5.8-1.2,8.8
			c-0.1,1.8,0.1,2.5,0.1,2.5c0.1,0.1,0.2,0.3,0.3,0.4c1.5-0.7,3-1.7,4.6-2.9c5.1-4,10.2-8.2,15.4-12.2c0.4-6.5,1.6-13,2.7-19.5
			c1.3-7.6,3.1-16.7-0.3-24C221.9,210.6,212.9,204.4,212.9,204.4z"/>
		<path class="st3" d="M217.7,259.9c0.8-5.5,1.8-11,2.7-16.5c1.4-8.7-5.1-24.2-7.1-31.8c-0.1,19.2-0.7,41-6.5,56.9
			C210.5,265.6,214.1,262.7,217.7,259.9z"/>
		<path class="st1" d="M305.9,134.3l-4.5-1c-0.3-0.1-0.6-0.1-0.9-0.2c-6.1,3.1-11.9,6.5-17.7,10.1c4.2,0.1,8,1,12,2.2
			c4.4,1.3,5.4,6,3.3,8.8c-4.5,17.4-21.8,28.7-26,46.2c-2.5,10.2-2.8,20.8-3.7,31.2c8.5-7.3,14.1-16.5,20.8-20.1
			c8.3-17.6-2.3-21.3,5.7-34.3C305.1,160.6,300.4,148.3,305.9,134.3z"/>
		<path class="st3" d="M299.9,166.2c-5.1,8.1-10.9,15.8-16.8,23.5c-3.3,11-6.7,21.9-9.7,32.9c5.4-8.6,11.8-16.2,19.1-23.3
			c0.4-8.2-3.3-12.8,2.4-22.2C297.3,173.3,298.9,169.6,299.9,166.2z"/>
		<path class="st1" d="M155.6,206c-0.4,0.1-0.8,0.1-1.2,0c-0.9,20.2-1.2,40.3-1.9,60.5c2.5,7.8,4.5,15.5,4.4,23.4
			c4.9-1,9.3-4.1,13.7-7.4c-0.1-1.3-0.2-2.6-0.3-3.8c-0.4-6-0.7-12.2-2.9-17.9c-1.8-4.8-5.1-9.4-6.1-14.4
			c-3.3-16.8,3.6-30.5,14.6-42.8C169.4,204.7,162.6,205.1,155.6,206z"/>
		<path class="st1" d="M230.5,250.5c3.9-2.5,7.9-4.8,12-6.7c0.3-4.3,0.7-8.6,1.3-12.9c1.5-10.4,5-18.9,8.8-28.7
			c3.4-8.7,1-18.1,4.3-26.7c2.6-6.8,6.1-12.9,8-19.6c-4.4,2.3-10,3.8-14.6,3.7c-5.6-0.1-11.3-0.8-16.7,0.9
			c0.3-0.1-15.9,3.5-11.8,5.1c1,0.1,5.4,1.2,6.3,1.5c0.5,0.2,13-0.3,13-0.3c-9.1,19.7-7.2,48.5-8.9,69.4
			C231.7,241.2,231.2,245.9,230.5,250.5z"/>
		<path class="st3" d="M230.5,250.5c1-0.6,2-1.3,3-1.9c0.5-8.4,1.8-16.6,2.8-25c1.1-9,1.5-18,3.5-26.9c3.4-15.2,7.3-26,20.7-36.2
			c1.1-0.8,2.2-1.2,3.4-1.4c0.4-1.1,0.7-2.1,1.1-3.2c-4.4,2.3-10,3.8-14.6,3.7c-5.6-0.1-11.3-0.8-16.7,0.9
			c0.3-0.1-15.9,3.5-11.8,5.1c1,0.1,5.4,1.2,6.3,1.5c0.5,0.2,13-0.3,13-0.3c-9.1,19.7-7.2,48.5-8.9,69.4
			C231.7,241.2,231.2,245.9,230.5,250.5z"/>
		<path class="st1" d="M193.7,225c4.7-11.1,3.3-22.2,11.8-33.2c1.9-2.5,15.1-16.3,15.6-19.2c-9.5,3.1-37.1,19.8-42.3,27.8
			c1,8.9,1.9,17.9,1.6,26.9c-0.2,9.1-1.6,18-0.5,27c0.8,6.7,2.1,13.4,3,20c0.9-0.4,1.8-0.8,2.8-1.1c-0.5-7.1,1.4-14,2.7-21.1
			C190.1,242.8,189.9,234,193.7,225z"/>
		<path class="st3" d="M202.9,184.3c0.1-0.4,0.1-0.9,0.2-1.3c-9.5,3.1-19,9.4-24.3,17.5c1,8.9,1.9,17.9,1.6,26.9
			c-0.2,9.1-1.6,18-0.5,27c0.8,6.7,2.1,13.4,3,20c0.8-0.4,1.6-0.7,2.5-1c-0.7-16.7-1-33.5-0.3-50.3
			C185.7,207.1,194,197.3,202.9,184.3z"/>
		<path class="st4" d="M154.5,191.2c-7.9-19.6-40.3-37.1-60.1-45.6c-19.9-8.4-46.8-8.4-68.3-9.3c-5.8-0.3-10.4-0.5-15.6-2
			c0,15.7,0.6,32.4,8.7,45.8c3.3,5.5,6.9,26.5,13.9,38.4c4.7,8.1,9.5,6.2,17,9c11.8,4.3,17.6,19.4,37.5,29.3
			c7.1,3.5,11.6,12.6,26.3,17c8.5,2.5,18.8,0.8,18.8,0.8c8.6,3.1,8.9,10.4,24.3,15.2c0.5-15.6-1-31.6-1-48.2
			C155.9,226.7,160.1,205.1,154.5,191.2z"/>
		<path class="st2" d="M74.9,248.6c3.5,2.9,7.6,5.7,12.6,8.2c4.3,2.1,7.6,6.3,12.8,10.2c-3.8-8.4-7.3-16.9-9.7-25.7
			c-3.1-11.5-4.2-23.6-7.7-35c0,0.1,0,0.2-0.1,0.4c1.8,5.8,2.6,12.9,1.8,19.9C84.7,236.3,82.5,245.2,74.9,248.6z"/>
		<path class="st5" d="M155.5,208.2c-2.6-1.8-6.7-4.7-10.1-5.4c0,0.2,0.1,0.5,0.1,0.9c0.1,0.4,0.3,0.8,0.4,1.2
			c0.4,0.4,0.9,0.7,1.3,1.2c10,12.7,6,28.1,6.5,42.6c0.5,12.5,2.3,24.9,3.2,37.4c0.2-14.4-1.1-29.1-1.1-44.4
			c0-9.4,1.6-21.5,1.5-32.6C156.8,208.9,156.1,208.6,155.5,208.2z"/>
		<path class="st5" d="M144.2,283.4c-0.9-10.4-2.3-20.7-2.8-31.1c-0.2-4.8,0.3-9.9,0.5-15.1c-3-8.6-6-17.2-7.2-26.2
			c-2.5-6.3-4.6-13.4,0.3-17c1.3-0.9,2.7-1.6,4.1-2c-0.9-0.5-1.8-0.9-2.9-1.2c-3.7,1.9-7.7,3.2-11.9,3.9c7.2,18.1,10.4,37.1,10,56.2
			c0.1,0.2,0.2,0.4,0.2,0.5c1.1,3.3,0.3,7.1-0.5,10.5c0.1,0.3,0.1,0.6,0.1,0.9c0,4.2-0.2,8.3-0.8,12.3
			C138,276.9,140.2,280.1,144.2,283.4z"/>
		<path class="st5" d="M12.4,134.8c-0.7-0.2-1.3-0.3-2-0.5c0,15.7,0.6,32.4,8.7,45.8c3.3,5.5,6.9,26.5,13.9,38.4
			c2.7,4.7,5.5,6,8.8,6.9c-7.1-13.3-19.9-33.6-12.1-47c-4.5-2.8-11.2-10.1-11.2-10.1c0,1.2-3.2-7.8-3.8-17.6
			c-0.2-4.5-0.2-8.9,0.4-13.4C14.1,136.5,13.2,135.7,12.4,134.8z"/>
		<path class="st5" d="M64,238.4c0.4-7,0.9-14,0.9-21c0.1-15.9-7.6-31.4-1.1-46.8c-1.4-1.3-2.7-2.6-3.7-4c-3.8-2-7.2-4.6-11.1-6.2
			c-0.1,2.2-0.3,4.4-0.6,6.6c0,0.2,0.1,0.5,0.1,0.7c3.5,8.9,5.2,18,6.9,27.5c0.2,0.4,0.4,0.9,0.5,1.4c0.5,2.2,0.9,4.5,1.4,6.7
			c0.5,0.8,0.9,1.7,0.9,2.8c0.6,9.3,1.7,18.4,1,27.6C60.8,235.1,62.4,236.7,64,238.4z"/>
		<path class="st6" d="M56.1,149.5c-5.5-0.8-19.1-2.4-20.4-2.4c1,9,1.9,18.1,4.5,26.8c2.8,9.2,8,17.4,11.4,26.4
			c4,10.9,6.1,22.1,7.7,33.4c1,0.9,1.9,1.8,2.9,2.8c-0.5-18.2-1.5-36.5-5.8-54.2c-2.4-10.2-3.6-13.5-4.5-20
			C52.9,161,57.1,149.7,56.1,149.5z"/>
		<path class="st1" d="M56.1,149.5c-5.5-0.8-36.4-9.6-37.7-9.6c4.1,6.4,14.9,11.3,18.8,12.3c10,3.2,9.9,9.1,11.7,16.2
			c2.4,9.2,4.7,18.6,6.8,27.9c2.7,12.2,5.6,25.9,5.4,39.1c0.4,0.3,0.7,0.7,1.1,1c-0.5-18.2-1.5-36.5-5.8-54.2
			C54,172,53,168.4,52.1,161.9C53.1,160.7,57.1,149.7,56.1,149.5z"/>
		<path class="st6" d="M148.7,186.4c-10.2,0.3-41.7-4-39.3,1.8c7.1,9.4,14.5,23.3,19.3,49.6c2.2,12.4,2.4,24.4,3.9,36.9
			c0.6,0.3,2.2,1,2.7,1.3c0.7-6.6,1.7-13.2,2.3-20c1.7-18.9-5.2-40-7.1-58.8C130.6,197.2,145.4,190.2,148.7,186.4z"/>
		<path class="st1" d="M148.7,186.4c-10.2,0.3-58.5-16.9-68.1-13.8c0,0,11.7,7.6,11.7,7.6c10.4,3.6,27,16.8,26.9,17.2
			c2.4,1.3,11.2,20,12.9,27.7c3.5,15.9,5.1,34,1.8,50.2c0.5,0.2,0.9,0.5,1.4,0.7c0.7-6.6,1.7-13.2,2.3-20c1.7-18.9-5.2-40-7.1-58.8
			C130.6,197.2,145.4,190.2,148.7,186.4z"/>
		<path class="st7" d="M257.4,228.7c5-0.4,16.2-23.9,21.1-25.6c4.9-1.7,14.6-7.1,17.6-11.1c2.9-3.9,2.7-7.1,5-11.3
			c2.3-4.3,4.7-4.2,7.9-8.1c3.3-4-3.2-17.7-3.2-17.7l-24.6,8.1c-2.6,1-5.3,1.9-8,2.8c-1.4,0.5-2.9,1-4.3,1.6
			c-5.7,2.2-11.5,4.2-17.5,5.9c-0.2,0-0.4,0.1-0.6,0.1c-0.5,0.2-0.9,0.2-1.3,0.1l-0.5,0.2c0,0,0.2,6-0.1,7.6c-0.5,2.7-2.7,4.7-3,7.6
			c-0.8,6,2.4,36.4,0.6,42C252.8,230.5,251.2,229.2,257.4,228.7z"/>
		<path class="st8" d="M258.5,214.7c-1.4,4.7-2.6,9.5-3.3,14.3c0.6-0.1,1.3-0.2,2.2-0.3c0.6-0.1,1.2-0.4,1.9-0.9
			c2.3-8.9,7-17,11.8-25.4c3.5-6.2,6.3-12.5,8.8-19.1c1.1-3,3.1-4.6-2.6-5.1c-3-0.2-6-0.4-9-0.5c4,4.8,7.5,8.4,3.9,15.2
			C268.2,200.2,260.9,206.7,258.5,214.7z"/>
		<path class="st9" d="M257.9,228.6c5.2-1.8,15.9-23.9,20.6-25.5c4.9-1.7,14.6-7.1,17.6-11.1c2.9-3.9,2.7-7.1,5-11.3
			c2.3-4.3,4.7-4.2,7.9-8.1c3.3-4-3.2-17.7-3.2-17.7c0-0.7-16.1,5.2-28.6,14.5c-2.6,2.7-0.3,9.7-0.3,10.4c0.5,8.8-1.3,13.4-8.6,23.1
			C262.4,210.7,259.5,219.4,257.9,228.6z"/>
		<path class="st1" d="M284.5,176.2c-0.1,0-0.2-0.1-0.2-0.2c-0.6-0.4-1.2-0.8-1.8-1.2c-1.9-0.6-4.2,0.3-6.3,0.7
			c0.3,2.1,0.8,3.9,0.8,4.3c0.5,8.8-1.3,13.4-8.6,23.1c-5.9,7.8-8.9,16.5-10.4,25.7c2.3-0.8,5.7-5.6,9.2-10.8
			c-2.6-9,4.7-17.5,10.9-24.9C279.9,187.2,281.5,181.4,284.5,176.2z"/>
		<path class="st9" d="M235.3,205.3c-7.4,2.6-15.4,0.3-22.4-0.9c-0.5,5.1,0.9,12.3,1.4,17.9c0.6,6,3.2,31.7,3.4,37.5
			c4.9,1.6,8.6,0.1,13.3-3c3.3-2.1,5-15.7,7.6-25.3c2.2-8.4,15.6-20.3,15.9-29l-0.5,0.4C247.8,198.2,240.8,203.4,235.3,205.3z"/>
		<path class="st1" d="M224.8,260c1.5-0.4,3.1-1.2,4.7-2.1c0-7,0.5-14,0.9-21c0.3-4,0-9,1.7-12.8c3.8-8.7,14.5-11.4,21.6-17.5
			c0.5-1.2,0.8-2.4,0.9-3.6c-6.3,5-14.8,8.6-23,9.4c0,0.2-0.1,0.4-0.1,0.6C226.3,228.4,225.2,244.1,224.8,260z"/>
		<path class="st7" d="M214.3,222.3c0.6,6,3.2,31.7,3.4,37.5c3.2,1,5.9,0.7,8.7-0.4c0.1-18.2,3.2-38.6,9.8-55.9
			c-7,1.8-16.8,2-23.3,0.9C212.4,209.5,213.8,216.8,214.3,222.3z"/>
		<path class="st8" d="M224.6,260.1c0.6-0.2,1.2-0.4,1.9-0.6c0.1-14.7,2.2-30.8,6.5-45.5c-3.2,0.3-6.5,0-9.2-1
			c4.7,6.2,4.3,12.3,3,19.4C224.9,241.5,224.8,250.8,224.6,260.1z"/>
		<path class="st2" d="M41.4,194c0.7,6.3,5,14.8,8,20.8c2.8,5.7,5.6,11.5,8.8,20.1c0.7,0,2.2,0.7,2.9,0.6
			c-0.1-7.4,0.2-13.5-1.2-20.9c-3-15.8-4.7-21.6-6.8-29.4C49.5,187.3,45.5,192.5,41.4,194z"/>
		<path class="st10" d="M53.4,186.2c-0.1-0.4-0.2-0.7-0.3-1.1c-3.7,2.2-7.6,7.3-11.7,8.8c0.7,6.3,5,14.8,8,20.8
			c2.8,5.7,5.6,11.5,8.8,20.1c0.2,0,0.4,0,0.7,0.1c-2.3-8.7-4.3-17.3-7-26c-1-3.3-2.8-7.5-1.9-11C51,193.9,53.1,190.4,53.4,186.2z"
			/>
		<path class="st6" d="M25.4,188.9c6.1,7.5,13.3,14.7,17.2,23.2c3.2,6.9,7.2,20.5,15.6,22.7c-3.2-11.8-9.7-27.3-12.3-36
			C44.4,194.2,35.1,180,25.4,188.9z"/>
		<path class="st6" d="M25.2,189.1c0.1-0.1,0.1-0.1,0.2-0.1c0,0,0,0,0,0L25.2,189.1z"/>
		<path class="st11" d="M25.4,188.9c0.1,0.2,0.3,0.3,0.4,0.5c0.4,0,0.8,0,1.2,0.2c13.2,5.2,18.3,11.8,22.2,24
			c2,6.2,4.7,11.9,7.8,17.7c0.2,0.4,0.4,0.8,0.6,1.3c-3.4-11.5-9.2-25.6-11.7-33.8C44.4,194.2,35.1,180,25.4,188.9z"/>
		<path class="st6" d="M144.9,272c-0.4-11.7,4.8-25.2,7.5-36c-6.7,0.2-7.8-7.5-9.8-12.4c-2-4.7-3.2-11-4.9-15l-0.8-0.3
			c2,5.4,2.1,12,3.9,17.8c0.8,2.5,1.5,5,2.6,7.4c0.4,0.9,0.8,2,1.5,2.7c0.8,0.8,2.6,0.9,3,1.7c0.7,1.4-1.2,5-1.7,6.6
			c-0.9,3-1.4,5.1-1.4,8.3c0,3.5,0.2,7.1,0,10.6C144.8,265.9,143.7,269.5,144.9,272z"/>
		<path class="st2" d="M79.5,188.2c-0.5-2.3-1.1-13.4-1.8-15.6c-2-1.2-5.7-0.9-7.9-1.6c-1.3-0.4-6.4-1-5.7-0.3l-0.4-0.3
			c0.8,2.2,0,15.9,0,18.2c1.6-0.3,4.4-8.8,6.1-8.7c0.2,4.2,0.9,8.3-0.4,11.9c4.8,2.5,3,6.4,2.6,10.6c-0.5,4.9,3.2,2.1,2.8,7
			c-0.3,4-3.9,15.4-3.3,19.4c0,0,3.4,8.2,3.3,10.6c0,0.4,0.1,0.1,0.4-0.5c-3.1-10.6,0.6-21.1,4.1-31.4c-0.1-2.1-0.1-4.2,0-6.3
			c0.1-1.5,0.1-3,0.2-4.4C78.5,191.4,79.7,193.5,79.5,188.2z"/>
		<path class="st12" d="M305.1,134.4c-9.3-8.9-35.8-20.8-43.8-24.3l-17.6,2.8c2.1-1.5,6.9-5.2,8.6-7c-16.2-15.8-37.7-16.1-51-26.6
			c-6.6-5.2-36.4-18.3-44.3-23.1c-18.1,9.8-31.4,9.7-39.2,19.2c-7.8,9.4-23.4,10.5-34.3,16.2c0.6,1.4,2,4.6,2.7,6
			c-13.8-2.2-31,11-44.3,19.1c-11.6,7-31.8,17.1-31.8,17.1c15.2,15,28.3,17.6,43.7,19.7c1.1,2.6-3,6.7-0.9,10.9
			c6.5,13.2,55.1,18.9,66.6,30.9c2.8,2.9,17.3-3.7,17.3-3.7c0,2.4-6.1,5.7-6.1,5.7c14.3,7.5,21.1,15,27.2,14.2
			c6-0.8,22.4-9.7,27.7-12.7c10.4-5.8,13.7-12,24.8-15.8c13.6-4.6,20.8-4.9,30.7-15.9c-5.6-0.5-10.6-1.6-16.4-1.5
			c14.1-5.9,30.8-1.8,45-9.4C280.9,150,292.2,136.7,305.1,134.4z"/>
		<path class="st13" d="M297.6,136.9c-7,1.4-13.3,7.1-19.1,10.8c-8.3,5.3-14.9,10-25.2,11.3c-6.5,0.8-24.3,2.7-27.3,4.4
			c-2.7,1.5-5.2,2.8-2.1,3c7.9,0.6,14.1,2.1,14.1,2.1c-13.8,11-28.7,10.4-32.8,12.8c-4.6,2.6-7.8,6.3-11.6,9.7
			c-5.2,4.6-28.8,16.9-35.9,18.1c-5.3,0.9-7.2-4.7-21.1-11c-3.3-1.5,3.9-7.5,4.4-8.9c-5,0.7-9.7,2-14.6,3.9c-2,0.8-6.5,0.6-8-0.6
			c-11.9-10.6-43.7-16.5-52.2-19.8c-4.7-1.8-11.6-5.7-12.2-10.5c-0.4-2.9,1.4-5.3,2.3-8.1c1.4-4-6-3.2-8.2-3.6
			c-8.2-1.6-29.9-8-38-16.6c0,0,0,0,0,0c15.2,15,28.3,17.6,43.7,19.7c1.1,2.6-3,6.7-0.9,10.9c6.5,13.2,55.1,18.9,66.6,30.9
			c2.8,2.9,17.3-3.7,17.3-3.7c0,2.4-6.1,5.7-6.1,5.7c14.3,7.5,21.1,15,27.2,14.2c6-0.8,22.4-9.7,27.7-12.7
			c10.4-5.8,13.7-12,24.8-15.8c13.6-4.6,20.8-4.9,30.7-15.9c-5.6-0.5-10.6-1.6-16.4-1.5c14.1-5.9,30.8-1.8,45-9.4
			C278.6,151.2,287.7,141.7,297.6,136.9z"/>
		<path class="st1" d="M296.2,192c2.9-3.9,2.7-7.1,5-11.3c2.3-4.3,4.7-4.2,7.9-8.1c3.3-4-3.2-17.7-3.2-17.7c0-0.1-0.5,0-1.4,0.3
			c-1.6,3.2-3.6,6.3-6.4,8.5c1.9,3.5,3.9,8.1,3.5,8.9c-2.6,6.2-5.1,9.6-6.8,14c-0.5,1.7,0.4,5.3-0.2,7
			C295.3,193,295.8,192.5,296.2,192z"/>
		<path class="st3" d="M282.4,196.9c5.1-9.1,10.3-18.1,12.5-28.2c-5,1.1-12.5-0.8-17.7,0c-1.7,1.8,8.2,3.6,9,5.5
			c0,0-0.5,4.3-0.8,5.8C284.4,185.7,283.4,191.3,282.4,196.9z"/>
		<path class="st14" d="M280.6,170.1c1.1-0.5,13.3,0.1,14.5-0.5c8.4-3.5,8.6-7.6,10.7-10.8c3-4.7-3.5-6.6-11.8-5.9
			c-9.5,9.9-30,16.5-45,20.7c4.5,4.1,12,0.8,15.8,3.1c5.7,3.6,12.2,3.1,12.2,3.1s6.7-3.5,9.2-5.5
			C287.5,173.2,278.5,171.1,280.6,170.1z"/>
		<path class="st15" d="M280.6,170.1c1.1-0.5,13.3,0.1,14.5-0.5c7-2.9,8.3-6.2,9.8-9.1c-3.5,4.9-7.6,8.1-20.2,6.7c0,0,0,0-0.1,0
			c-2.5,0.4-4.8,0.9-7.3,1.8c-0.1,0-0.2,0-0.3,0.1c1.4,1.2,2.4,3,4.4,3.6c5.3,1.6-2.4,5.7-4.4,5.9c-2.7,0.3-9.4-3-12.2-3.2
			c-5.2-0.5-3.4,0.4-8.6-0.5c-1.7-0.3-4.2-1.3-5.9-1.5c-0.4,0.1-0.8,0.2-1.2,0.3c4.5,4.1,12,0.8,15.8,3.1c5.7,3.6,12.2,3.1,12.2,3.1
			s6.7-3.5,9.2-5.5C287.5,173.2,278.5,171.1,280.6,170.1z"/>
		<path class="st14" d="M234.2,198.2c0,0-5.9,3-8.9,4.1c-3.5,1.4-8.5,2.9-12.4,2.2c0.3,0.9,1.1,2.5,2,3.4c4.3,4.6,14.9,8.6,20.9,6.4
			c3.9-1.4,16.9-7.3,18.6-10.7C256.6,198.7,238.4,196.7,234.2,198.2z"/>
		<path class="st15" d="M214.2,204.6c-0.4,0-0.9-0.1-1.3-0.2c0.3,0.9,1.1,2.5,2,3.4c4.3,4.6,14.9,8.6,20.9,6.4
			c3.4-1.2,13.6-5.8,17.3-9.2C241.9,212.7,223.3,215.1,214.2,204.6z"/>
		<path class="st12" d="M30,190.7c5.7,1.2,11.1,5.1,15.8,8.1c3.2-3.7,7.3-8.1,7.3-13.7c-4.1-1.5-9-3.7-11.4-7
			C32.8,181.7,17.3,189.1,30,190.7z"/>
		<path class="st13" d="M43.8,195.7c-2.7-2.2-9.6-4.9-15.5-6.1c-3-0.6-2.6-1.6-2.8-2.1c-0.7,1.5,0.4,2.6,4.6,3.2
			c5.7,1.2,11.1,5.1,15.8,8.1c3.1-3.6,7.1-7.9,7.2-13.3c-1.3,3.5-2.2,4.5-4.1,7.6C48.1,194.5,45.1,196.8,43.8,195.7z"/>
		<path class="st2" d="M108.4,206.3c-2.3,2.2-3.6,4.1-5,6.8c-3.4,6.8-5.1,11.7-3.2,19.5c2.3,9.3,5.9,18.2,9.3,27.3
			c2.3,6.2,5.7,17.8,12,21.8c2.5-2.1,5.7-4.2,7.9-6.6c-4-10.4-6.2-23.7-7.4-35.2c-1.3-11.6-3.4-23.7-4.4-35.2
			C114.7,203.6,110.1,204.6,108.4,206.3z"/>
		<path class="st10" d="M117.6,206c0-0.5-0.1-0.9-0.2-1.4c-2.8-1.1-7.4,0-9.1,1.6c-2.3,2.2-3.6,4.1-5,6.8
			c-3.4,6.8-5.1,11.7-3.2,19.5c2.3,9.3,5.9,18.2,9.3,27.3c2.3,6.2,5.7,17.8,12,21.8c2.1-1.8,4.7-3.6,6.8-5.5
			c-8.1-5.6-8.6-15.9-12.2-25c-3-7.5-5.4-14.9-5.3-23c0.1-7.8,4-13.5,6.3-20.8C117.2,206.8,117.4,206.4,117.6,206z"/>
		<path class="st6" d="M103.2,210.4c-3.6-2-9.3-2.9-13.3-5.2c-3.5-2-20-8.7-24.2-8.3c0.7,11.2,12.3,25,17.5,37
			c5.6,12.9,10,21.2,13.9,34.5c1.4,4.7,12.2,3.7,17.2,12.7l7.1,0.5c0,0-1.5-8.8-2.6-12.3c-1.4-4.4-9.2-30.7-11.2-39.3
			C106.3,224.5,108.8,213.5,103.2,210.4z"/>
		<path class="st11" d="M106.3,214.6c-3,0.8-6.2,0.9-9.4,0.8c9.7,8.1,11.9,22.4,14.1,33.7c2.2,11.2,7,21.6,9.8,32.5l0.7,0.1
			c0,0-1.5-8.8-2.6-12.3c-1.4-4.4-9.2-30.7-11.2-39.3C106.7,226,107.7,219.2,106.3,214.6z"/>
		<path class="st12" d="M66.7,194.4c-4.5,3.7,7.2,16.3,13.9,19.3c7,3.2,16.4,3.8,24.1,3c7-0.7,13.1-12.6,13.1-12.6
			c-4.1-2.5-13.1-3.5-19.5-7.3c-8.3-5-18.6-10.2-18.6-10.2C75.1,190.7,71.1,190.8,66.7,194.4z"/>
		<path class="st13" d="M66.7,194.4c-4.5,3.7,7.2,16.3,13.9,19.3c7,3.2,16.4,3.8,24.1,3c5.5-0.6,10.5-8.2,12.4-11.3
			c-9.3,10.3-17.7,11.6-35,6c-5.2-1.7-17.1-8.7-14.1-18C67.5,193.8,67.1,194.1,66.7,194.4z"/>
	</g>
	<path class="st16" d="M162.7,141.9c0.2-0.1,0.5-0.2,0.8-0.3c-0.1-0.1-0.3-0.1-0.4-0.2L162.7,141.9z"/>
	<path class="st16" d="M240.1,147.9c-0.1,0.2-0.2,0.4-0.4,0.5C240,148.2,240,148,240.1,147.9z"/>
	<path class="st17" d="M136.6,118.4c0.2,0.1,0.3,0.1,0.5,0.1c-0.2-0.3-0.4-0.6-0.5-0.9V118.4z"/>
</g>
<g>
	<g>
		
			<linearGradient id="SVGID_1_" gradientUnits="userSpaceOnUse" x1="-13519.9268" y1="130.1393" x2="-13442.4697" y2="130.1393" gradientTransform="matrix(-1 0 0 1 -13302.6621 0)">
			<stop  offset="0" style="stop-color:#A9B9D5"/>
			<stop  offset="1" style="stop-color:#95A9C8"/>
		</linearGradient>
		<path class="st18" d="M206.9,145.4c-0.3,0.2-0.6,0.4-0.9,0.6c-1.5,0.8-3,1.6-4.6,2.3c-15.1,6.4-36.4,5.6-50.1-2.3
			c-13.7-7.9-15.1-20.3-4.1-29c1.2-0.9,2.5-1.8,3.9-2.7c0.3-0.2,0.6-0.4,1-0.5c15.1-8.2,38.9-8,53.8,0.5
			C220.7,122.8,221.1,136.6,206.9,145.4z"/>
		
			<linearGradient id="SVGID_2_" gradientUnits="userSpaceOnUse" x1="-13515.2363" y1="167.7408" x2="-13478.4639" y2="167.7408" gradientTransform="matrix(-1 0 0 1 -13302.6621 0)">
			<stop  offset="0" style="stop-color:#A9B9D5"/>
			<stop  offset="1" style="stop-color:#95A9C8"/>
		</linearGradient>
		<path class="st19" d="M207.7,175c-0.1,0.1-0.3,0.2-0.4,0.3c-0.7,0.4-1.4,0.8-2.2,1.1c-7.2,3-17.3,2.7-23.8-1.1
			c-6.5-3.8-7.2-9.6-2-13.8c0.6-0.4,1.2-0.9,1.9-1.3c0.2-0.1,0.3-0.2,0.5-0.3c7.2-3.9,18.5-3.8,25.5,0.3
			C214.2,164.3,214.4,170.8,207.7,175z"/>
		<g>
			<g>
				<path class="st20" d="M146.8,70.4c0,4.8,4,9.3,10.4,12.9c12.4,6.9,31.4,6.9,43.4-0.2c5.8-3.5,8.7-8,8.7-12.5l-0.1,42
					c-0.1,19.3,1.9,24.7-9.8,31.9c-18.1,11.4-52.7,3.9-52.7-14.7C146.7,104.5,146.8,72.4,146.8,70.4z"/>
				<path class="st21" d="M146.8,63.7c0.3-20.1,24.6-29.8,41.3-24.5c18,5.6,23.4,21.1,20.2,28.9c0.6-1.4,0.9-2.8,0.9-4.2l0,6.7
					c0,4.5-2.9,9-8.7,12.5c-19.5,11.7-53.8,3.5-53.7-12.6L146.8,63.7z"/>
			</g>
			<g>
				<g>
					<path class="st22" d="M164.3,130.6l2,4.4l0,0c0,0,0,0,0,0c0.2,0.3,0.2,0.7,0.2,1c0,1.1-0.6,2.3-1.8,3.4
						c-0.4,0.4-0.8,0.8-1.4,1.1c-0.6,0.4-1.2,0.8-2,1.1c-1.3,0.6-2.7,0.9-3.9,1c-1.6,0.1-2.9-0.2-3.7-0.9c-0.3-0.2-0.5-0.5-0.7-0.8
						l-2-4.4L164.3,130.6z"/>
					<path class="st23" d="M151.2,136.7c0.2,0.3,0.4,0.6,0.7,0.8c0.8,0.7,2.2,1,3.7,0.9c1.2-0.1,2.6-0.4,3.9-1
						c0.7-0.3,1.4-0.7,2-1.1c0.5-0.4,1-0.7,1.4-1.1c1.1-1.1,1.8-2.3,1.8-3.4c0-0.4-0.1-0.7-0.2-1c-0.8-1.6-3.3-2.2-6.1-1.5
						c-0.7,0.2-1.4,0.4-2.1,0.7C152.5,131.7,150.3,134.7,151.2,136.7z"/>
				</g>
				<g>
					<path class="st22" d="M197.2,133.1l2,4.4l0,0c0,0,0,0,0,0c0.1,0.3,0.2,0.7,0.2,1c0,1.1-0.7,2.3-1.8,3.4
						c-0.4,0.4-0.8,0.8-1.4,1.1c-0.6,0.4-1.2,0.8-2,1.1c-1.3,0.6-2.7,0.9-3.9,1c-1.6,0.1-2.9-0.2-3.7-0.9c-0.3-0.2-0.5-0.5-0.7-0.8
						l-2-4.4L197.2,133.1z"/>
					<path class="st23" d="M184,139.2c0.2,0.3,0.4,0.6,0.7,0.8c0.8,0.7,2.1,1,3.7,0.9c1.2-0.1,2.6-0.4,3.9-1c0.7-0.3,1.4-0.7,2-1.1
						c0.5-0.4,1-0.7,1.4-1.1c1.1-1.1,1.8-2.3,1.8-3.4c0-0.4-0.1-0.7-0.2-1c-0.8-1.6-3.3-2.2-6.1-1.5c-0.7,0.2-1.4,0.4-2.1,0.7
						C185.3,134.1,183.1,137.1,184,139.2z"/>
				</g>
				<g>
					<path class="st22" d="M196.7,131.2l0,4.8h0c0,0,0,0,0,0c0,0.4-0.1,0.7-0.3,1c-0.5,1-1.6,1.8-3,2.3c-0.5,0.2-1.1,0.4-1.7,0.5
						c-0.7,0.1-1.5,0.2-2.2,0.2c-1.5,0-2.8-0.3-4-0.7c-1.5-0.6-2.5-1.4-3-2.4c-0.2-0.3-0.2-0.7-0.2-1l0-4.8L196.7,131.2z"/>
					<path class="st23" d="M182.2,131.1c0,0.4,0.1,0.7,0.2,1c0.4,1,1.5,1.8,3,2.4c1.1,0.4,2.5,0.7,4,0.7c0.8,0,1.5-0.1,2.2-0.2
						c0.6-0.1,1.2-0.3,1.7-0.5c1.5-0.5,2.6-1.4,3-2.3c0.2-0.3,0.3-0.7,0.3-1c0-1.8-2.1-3.4-4.9-3.9c-0.7-0.1-1.5-0.2-2.2-0.2
						C185.5,127.1,182.3,128.9,182.2,131.1z"/>
				</g>
				<g>
					<path class="st22" d="M184.5,123.8l2,4.4l0,0c0,0,0,0,0,0c0.1,0.3,0.2,0.7,0.2,1c0,1.1-0.6,2.3-1.8,3.4
						c-0.4,0.4-0.8,0.8-1.4,1.1c-0.6,0.4-1.2,0.8-2,1.1c-1.3,0.6-2.7,0.9-3.9,1c-1.6,0.1-2.9-0.2-3.7-0.9c-0.3-0.2-0.5-0.5-0.7-0.8
						l-2-4.4L184.5,123.8z"/>
					<path class="st23" d="M171.4,129.8c0.1,0.3,0.4,0.6,0.7,0.8c0.8,0.7,2.1,1,3.7,0.9c1.2-0.1,2.6-0.4,3.9-1
						c0.7-0.3,1.4-0.7,2-1.1c0.5-0.4,1-0.7,1.4-1.1c1.1-1.1,1.8-2.3,1.8-3.4c0-0.4-0.1-0.7-0.2-1c-0.8-1.6-3.3-2.2-6.1-1.5
						c-0.7,0.2-1.4,0.4-2.1,0.7C172.7,124.8,170.5,127.8,171.4,129.8z"/>
				</g>
				<g>
					<path class="st22" d="M174.9,130l-3.1,3.7l0,0c0,0,0,0,0,0c-0.2,0.3-0.5,0.5-0.9,0.6c-1,0.5-2.3,0.4-3.8-0.2
						c-0.5-0.2-1.1-0.4-1.6-0.7c-0.6-0.4-1.2-0.8-1.8-1.3c-1.1-0.9-2-2-2.6-3.1c-0.8-1.4-1.1-2.7-0.8-3.7c0.1-0.4,0.3-0.7,0.5-1
						l3.1-3.7L174.9,130z"/>
					<path class="st23" d="M163.8,120.7c-0.2,0.3-0.4,0.6-0.5,1c-0.3,1,0,2.4,0.8,3.7c0.6,1.1,1.5,2.1,2.6,3.1
						c0.6,0.5,1.2,0.9,1.8,1.3c0.5,0.3,1.1,0.6,1.6,0.7c1.5,0.5,2.8,0.6,3.8,0.2c0.3-0.1,0.6-0.4,0.9-0.6c1.2-1.4,0.6-3.9-1.3-6.2
						c-0.5-0.6-1-1.1-1.6-1.6C168.9,119.7,165.3,119,163.8,120.7z"/>
				</g>
				<g>
					<path class="st22" d="M205.8,129.6l-3.1,3.7l0,0c0,0,0,0,0,0c-0.2,0.3-0.5,0.5-0.9,0.6c-1,0.5-2.3,0.4-3.8-0.2
						c-0.5-0.2-1.1-0.4-1.6-0.7c-0.6-0.4-1.2-0.8-1.8-1.3c-1.1-0.9-2-2-2.6-3.1c-0.8-1.4-1.1-2.7-0.8-3.7c0.1-0.4,0.3-0.7,0.5-1
						l3.1-3.7L205.8,129.6z"/>
					<path class="st23" d="M194.8,120.3c-0.2,0.3-0.4,0.6-0.5,1c-0.3,1,0,2.4,0.8,3.7c0.6,1.1,1.5,2.1,2.6,3.1
						c0.6,0.5,1.2,0.9,1.8,1.3c0.5,0.3,1.1,0.6,1.6,0.7c1.5,0.5,2.8,0.6,3.8,0.2c0.3-0.1,0.6-0.4,0.9-0.6c1.2-1.4,0.6-3.9-1.3-6.2
						c-0.5-0.6-1-1.1-1.6-1.6C199.9,119.3,196.2,118.6,194.8,120.3z"/>
				</g>
				<g>
					<path class="st22" d="M169.6,131.7l4.8,0.9l0,0c0,0,0,0,0,0c0.4,0.1,0.7,0.2,1,0.4c0.9,0.6,1.5,1.8,1.8,3.4
						c0.1,0.6,0.2,1.1,0.1,1.8c0,0.7-0.1,1.5-0.2,2.2c-0.3,1.4-0.8,2.7-1.4,3.8c-0.8,1.3-1.8,2.3-2.9,2.5c-0.4,0.1-0.7,0.1-1.1,0.1
						l-4.8-0.9L169.6,131.7z"/>
					<path class="st23" d="M167,145.9c0.4,0.1,0.7,0.1,1.1-0.1c1.1-0.3,2.1-1.2,2.9-2.5c0.6-1,1.1-2.3,1.4-3.8
						c0.1-0.8,0.2-1.5,0.2-2.2c0-0.6,0-1.2-0.1-1.8c-0.3-1.5-0.9-2.8-1.8-3.4c-0.3-0.2-0.6-0.4-1-0.4c-1.8-0.3-3.7,1.4-4.7,4.2
						c-0.3,0.7-0.5,1.4-0.6,2.2C163.6,141.9,164.8,145.5,167,145.9z"/>
				</g>
				<g>
					<path class="st22" d="M162,125.8l-3.1,3.7l0,0c0,0,0,0,0,0c-0.2,0.3-0.5,0.5-0.9,0.6c-1,0.5-2.3,0.4-3.8-0.2
						c-0.5-0.2-1.1-0.4-1.6-0.7c-0.6-0.4-1.2-0.8-1.8-1.3c-1.1-0.9-2-2-2.6-3.1c-0.8-1.4-1.1-2.7-0.8-3.7c0.1-0.4,0.3-0.7,0.5-1
						l3.1-3.7L162,125.8z"/>
					<path class="st23" d="M150.9,116.5c-0.2,0.3-0.4,0.6-0.5,1c-0.3,1,0,2.4,0.8,3.7c0.6,1.1,1.5,2.1,2.6,3.1
						c0.6,0.5,1.2,0.9,1.8,1.3c0.5,0.3,1.1,0.6,1.6,0.7c1.5,0.5,2.8,0.6,3.8,0.2c0.3-0.1,0.6-0.4,0.9-0.6c1.2-1.4,0.6-3.9-1.3-6.2
						c-0.5-0.6-1-1.1-1.6-1.6C156,115.5,152.4,114.8,150.9,116.5z"/>
				</g>
				<g>
					<path class="st22" d="M186.5,142.4l-3.1,3.7l0,0c0,0,0,0,0,0c-0.2,0.3-0.5,0.5-0.9,0.6c-1,0.5-2.3,0.4-3.8-0.2
						c-0.5-0.2-1.1-0.4-1.6-0.7c-0.6-0.4-1.2-0.8-1.8-1.3c-1.1-0.9-2-2-2.6-3.1c-0.8-1.4-1.1-2.7-0.8-3.7c0.1-0.4,0.3-0.7,0.5-1
						l3.1-3.7L186.5,142.4z"/>
					<path class="st23" d="M175.5,133.1c-0.2,0.3-0.4,0.6-0.5,1c-0.3,1,0,2.4,0.8,3.7c0.6,1.1,1.5,2.1,2.6,3.1
						c0.6,0.5,1.2,0.9,1.8,1.3c0.5,0.3,1.1,0.6,1.6,0.7c1.5,0.5,2.8,0.6,3.8,0.2c0.3-0.1,0.6-0.4,0.9-0.6c1.2-1.4,0.6-3.9-1.3-6.2
						c-0.5-0.6-1-1.1-1.6-1.6C180.6,132.1,176.9,131.4,175.5,133.1z"/>
				</g>
			</g>
			<g>
				<g>
					<path class="st22" d="M164.9,112.1l2,4.4l0,0c0,0,0,0,0,0c0.1,0.3,0.2,0.7,0.2,1c0,1.1-0.6,2.3-1.8,3.4
						c-0.4,0.4-0.8,0.8-1.4,1.1c-0.6,0.4-1.2,0.8-2,1.1c-1.3,0.6-2.7,0.9-3.9,1c-1.6,0.1-2.9-0.2-3.7-0.9c-0.3-0.2-0.5-0.5-0.7-0.8
						l-2-4.4L164.9,112.1z"/>
					<path class="st23" d="M151.8,118.1c0.2,0.3,0.4,0.6,0.7,0.8c0.8,0.7,2.1,1,3.7,0.9c1.2-0.1,2.6-0.4,3.9-1
						c0.7-0.3,1.4-0.7,2-1.1c0.5-0.4,1-0.7,1.4-1.1c1.1-1.1,1.8-2.3,1.8-3.4c0-0.4-0.1-0.7-0.2-1c-0.8-1.6-3.3-2.2-6.1-1.5
						c-0.7,0.2-1.4,0.4-2.1,0.7C153,113.1,150.9,116.1,151.8,118.1z"/>
				</g>
				<g>
					<path class="st22" d="M197.7,114.6l2,4.4l0,0c0,0,0,0,0,0c0.1,0.3,0.2,0.7,0.2,1c0,1.1-0.7,2.3-1.8,3.4
						c-0.4,0.4-0.8,0.8-1.4,1.1c-0.6,0.4-1.2,0.8-2,1.1c-1.3,0.6-2.7,0.9-3.9,1c-1.6,0.1-2.9-0.2-3.7-0.9c-0.3-0.2-0.5-0.5-0.7-0.8
						l-2-4.4L197.7,114.6z"/>
					<path class="st23" d="M184.6,120.6c0.2,0.3,0.4,0.6,0.7,0.8c0.8,0.7,2.1,1,3.7,0.9c1.2-0.1,2.6-0.4,3.9-1
						c0.7-0.3,1.4-0.7,2-1.1c0.5-0.4,1-0.7,1.4-1.1c1.1-1.1,1.8-2.3,1.8-3.4c0-0.4-0.1-0.7-0.2-1c-0.8-1.6-3.3-2.2-6.1-1.5
						c-0.7,0.2-1.4,0.4-2.1,0.7C185.9,115.6,183.7,118.6,184.6,120.6z"/>
				</g>
				<g>
					<path class="st22" d="M197.3,112.6l0,4.8h0c0,0,0,0,0,0c0,0.4-0.1,0.7-0.3,1c-0.5,1-1.6,1.8-3,2.3c-0.5,0.2-1.1,0.4-1.7,0.5
						c-0.7,0.1-1.5,0.2-2.2,0.2c-1.5,0-2.8-0.3-4-0.7c-1.5-0.6-2.5-1.4-3-2.4c-0.2-0.3-0.2-0.7-0.2-1.1l0-4.8L197.3,112.6z"/>
					<path class="st23" d="M182.8,112.5c0,0.4,0.1,0.7,0.2,1.1c0.4,1,1.5,1.8,3,2.4c1.1,0.4,2.5,0.7,4,0.7c0.8,0,1.5-0.1,2.2-0.2
						c0.6-0.1,1.2-0.3,1.7-0.5c1.5-0.5,2.6-1.4,3-2.3c0.2-0.3,0.3-0.7,0.3-1c0-1.8-2.1-3.4-4.9-3.9c-0.7-0.1-1.5-0.2-2.2-0.2
						C186.1,108.5,182.8,110.3,182.8,112.5z"/>
				</g>
				<g>
					<path class="st22" d="M185.1,105.2l2,4.4l0,0c0,0,0,0,0,0c0.1,0.3,0.2,0.7,0.2,1c0,1.1-0.7,2.3-1.8,3.4
						c-0.4,0.4-0.8,0.8-1.4,1.1c-0.6,0.4-1.2,0.8-2,1.1c-1.3,0.6-2.7,0.9-3.9,1c-1.6,0.1-2.9-0.2-3.7-0.9c-0.3-0.2-0.5-0.5-0.7-0.8
						l-2-4.4L185.1,105.2z"/>
					<path class="st23" d="M172,111.2c0.1,0.3,0.4,0.6,0.7,0.8c0.8,0.7,2.1,1,3.7,0.9c1.2-0.1,2.6-0.4,3.9-1c0.7-0.3,1.4-0.7,2-1.1
						c0.5-0.4,1-0.7,1.4-1.1c1.1-1.1,1.8-2.3,1.8-3.4c0-0.4-0.1-0.7-0.2-1c-0.8-1.7-3.3-2.2-6.1-1.5c-0.7,0.2-1.4,0.4-2.1,0.7
						C173.2,106.2,171,109.2,172,111.2z"/>
				</g>
				<g>
					<path class="st22" d="M175.4,111.4l-3.1,3.7l0,0c0,0,0,0,0,0c-0.2,0.3-0.5,0.5-0.9,0.6c-1,0.5-2.3,0.4-3.8-0.2
						c-0.5-0.2-1.1-0.4-1.6-0.7c-0.6-0.4-1.2-0.8-1.8-1.3c-1.1-0.9-2-2-2.6-3.1c-0.8-1.4-1.1-2.7-0.8-3.7c0.1-0.4,0.3-0.7,0.5-1
						l3.1-3.7L175.4,111.4z"/>
					<path class="st23" d="M164.4,102.1c-0.2,0.3-0.4,0.6-0.5,1c-0.3,1,0,2.4,0.8,3.7c0.6,1.1,1.5,2.1,2.6,3.1
						c0.6,0.5,1.2,0.9,1.8,1.3c0.5,0.3,1.1,0.6,1.6,0.7c1.5,0.5,2.8,0.6,3.8,0.2c0.3-0.1,0.6-0.4,0.9-0.6c1.2-1.4,0.6-3.9-1.3-6.2
						c-0.5-0.6-1-1.1-1.6-1.6C169.5,101.1,165.8,100.4,164.4,102.1z"/>
				</g>
				<g>
					<path class="st22" d="M206.4,111l-3.1,3.7l0,0c0,0,0,0,0,0c-0.2,0.3-0.5,0.5-0.9,0.6c-1,0.5-2.3,0.4-3.8-0.2
						c-0.5-0.2-1.1-0.4-1.6-0.7c-0.6-0.4-1.2-0.8-1.8-1.3c-1.1-0.9-2-2-2.6-3.1c-0.8-1.4-1.1-2.7-0.8-3.7c0.1-0.4,0.3-0.7,0.5-1
						l3.1-3.7L206.4,111z"/>
					<path class="st23" d="M195.4,101.7c-0.2,0.3-0.4,0.6-0.5,1c-0.3,1,0,2.4,0.8,3.7c0.6,1.1,1.5,2.1,2.6,3.1
						c0.6,0.5,1.2,0.9,1.8,1.3c0.5,0.3,1.1,0.6,1.6,0.7c1.5,0.5,2.8,0.6,3.8,0.2c0.3-0.1,0.6-0.4,0.9-0.6c1.2-1.4,0.6-3.9-1.3-6.2
						c-0.5-0.6-1-1.1-1.6-1.6C200.5,100.7,196.8,100,195.4,101.7z"/>
				</g>
				<g>
					<path class="st22" d="M170.1,113.1l4.8,0.9l0,0c0,0,0,0,0,0c0.4,0.1,0.7,0.2,1,0.4c0.9,0.6,1.5,1.8,1.8,3.4
						c0.1,0.6,0.2,1.1,0.1,1.8c0,0.7-0.1,1.5-0.2,2.2c-0.3,1.4-0.8,2.7-1.4,3.8c-0.8,1.3-1.8,2.3-2.9,2.5c-0.4,0.1-0.7,0.1-1.1,0.1
						l-4.8-0.9L170.1,113.1z"/>
					<path class="st23" d="M167.5,127.3c0.4,0.1,0.7,0.1,1.1-0.1c1.1-0.3,2.1-1.2,2.9-2.5c0.6-1,1.1-2.3,1.4-3.8
						c0.1-0.8,0.2-1.5,0.2-2.2c0-0.6,0-1.2-0.1-1.8c-0.3-1.5-0.9-2.8-1.8-3.4c-0.3-0.2-0.6-0.4-1-0.4c-1.8-0.3-3.7,1.4-4.7,4.2
						c-0.3,0.7-0.5,1.4-0.6,2.2C164.1,123.4,165.3,126.9,167.5,127.3z"/>
				</g>
				<g>
					<path class="st22" d="M162.5,107.2l-3.1,3.7l0,0c0,0,0,0,0,0c-0.2,0.3-0.5,0.5-0.9,0.6c-1,0.5-2.3,0.4-3.8-0.2
						c-0.5-0.2-1.1-0.4-1.6-0.7c-0.6-0.4-1.2-0.8-1.8-1.3c-1.1-0.9-2-2-2.6-3.1c-0.8-1.4-1.1-2.7-0.8-3.7c0.1-0.4,0.3-0.7,0.5-1
						l3.1-3.7L162.5,107.2z"/>
					<path class="st23" d="M151.5,97.9c-0.2,0.3-0.4,0.6-0.5,1c-0.3,1,0,2.4,0.8,3.7c0.6,1.1,1.5,2.1,2.6,3.1
						c0.6,0.5,1.2,0.9,1.8,1.3c0.5,0.3,1.1,0.6,1.6,0.7c1.5,0.5,2.8,0.6,3.8,0.2c0.3-0.1,0.6-0.4,0.9-0.6c1.2-1.4,0.6-3.9-1.3-6.2
						c-0.5-0.6-1-1.1-1.6-1.6C156.6,96.9,153,96.2,151.5,97.9z"/>
				</g>
				<g>
					<path class="st22" d="M187.1,123.8l-3.1,3.7l0,0c0,0,0,0,0,0c-0.2,0.3-0.5,0.5-0.9,0.6c-1,0.5-2.3,0.4-3.8-0.2
						c-0.5-0.2-1.1-0.4-1.6-0.7c-0.6-0.4-1.2-0.8-1.8-1.3c-1.1-0.9-2-2-2.6-3.1c-0.8-1.4-1.1-2.7-0.8-3.7c0.1-0.4,0.3-0.7,0.5-1
						l3.1-3.7L187.1,123.8z"/>
					<path class="st23" d="M176,114.5c-0.2,0.3-0.4,0.6-0.5,1c-0.3,1,0,2.4,0.8,3.7c0.6,1.1,1.5,2.1,2.6,3.1
						c0.6,0.5,1.2,0.9,1.8,1.3c0.5,0.3,1.1,0.6,1.6,0.7c1.5,0.5,2.8,0.6,3.8,0.2c0.3-0.1,0.6-0.4,0.9-0.6c1.2-1.4,0.6-3.9-1.3-6.2
						c-0.5-0.6-1-1.1-1.6-1.6C181.1,113.5,177.5,112.8,176,114.5z"/>
				</g>
			</g>
			<g>
				<path class="st22" d="M164.1,94.8l2.1,4.6l0,0c0,0,0,0,0,0c0.2,0.3,0.2,0.7,0.2,1.1c0,1.1-0.7,2.4-1.8,3.5
					c-0.4,0.4-0.9,0.8-1.4,1.2c-0.6,0.4-1.3,0.8-2,1.2c-1.4,0.6-2.8,1-4,1.1c-1.6,0.1-3-0.2-3.9-0.9c-0.3-0.2-0.5-0.5-0.7-0.9
					l-2.1-4.6L164.1,94.8z"/>
				<path class="st23" d="M150.5,101.1c0.2,0.3,0.4,0.6,0.7,0.9c0.8,0.7,2.2,1.1,3.9,0.9c1.3-0.1,2.7-0.4,4-1.1
					c0.7-0.3,1.4-0.7,2-1.2c0.5-0.4,1-0.8,1.4-1.2c1.2-1.2,1.8-2.4,1.8-3.5c0-0.4-0.1-0.7-0.2-1.1c-0.8-1.7-3.4-2.3-6.4-1.5
					c-0.7,0.2-1.5,0.4-2.2,0.8C151.8,95.9,149.5,99,150.5,101.1z"/>
			</g>
			<g>
				<path class="st22" d="M198.1,97.1l2.1,4.6l0,0c0,0,0,0,0,0c0.2,0.3,0.2,0.7,0.2,1.1c0,1.1-0.7,2.4-1.8,3.5
					c-0.4,0.4-0.9,0.8-1.4,1.2c-0.6,0.4-1.3,0.8-2,1.2c-1.4,0.6-2.8,1-4,1.1c-1.6,0.1-3-0.2-3.9-0.9c-0.3-0.2-0.5-0.5-0.7-0.9
					l-2.1-4.6L198.1,97.1z"/>
				<path class="st23" d="M184.4,103.4c0.2,0.3,0.4,0.6,0.7,0.9c0.8,0.7,2.2,1.1,3.9,0.9c1.3-0.1,2.7-0.4,4-1.1
					c0.7-0.3,1.4-0.7,2-1.2c0.5-0.4,1-0.8,1.4-1.2c1.2-1.2,1.8-2.4,1.8-3.5c0-0.4-0.1-0.7-0.2-1.1c-0.8-1.7-3.4-2.3-6.4-1.5
					c-0.7,0.2-1.5,0.4-2.2,0.8C185.7,98.2,183.5,101.3,184.4,103.4z"/>
			</g>
			<g>
				<path class="st22" d="M207,94.1l0,5h0c0,0,0,0,0,0c0,0.4-0.1,0.7-0.3,1.1c-0.5,1-1.6,1.9-3.2,2.4c-0.5,0.2-1.1,0.4-1.8,0.5
					c-0.7,0.1-1.5,0.2-2.3,0.2c-1.5,0-2.9-0.3-4.1-0.7c-1.5-0.6-2.6-1.5-3.1-2.5c-0.2-0.3-0.3-0.7-0.3-1.1l0-5L207,94.1z"/>
				<path class="st23" d="M192,94c0,0.4,0.1,0.7,0.3,1.1c0.5,1,1.6,1.9,3.1,2.5c1.2,0.5,2.6,0.7,4.1,0.7c0.8,0,1.6-0.1,2.3-0.2
					c0.6-0.1,1.2-0.3,1.8-0.5c1.5-0.6,2.7-1.4,3.2-2.4c0.2-0.3,0.3-0.7,0.3-1.1c0-1.9-2.1-3.5-5.1-4.1c-0.7-0.1-1.5-0.2-2.3-0.2
					C195.4,89.8,192,91.7,192,94z"/>
			</g>
			<g>
				<path class="st22" d="M190,89.9l2.1,4.6l0,0c0,0,0,0,0,0c0.2,0.3,0.2,0.7,0.2,1.1c0,1.1-0.7,2.4-1.8,3.5
					c-0.4,0.4-0.9,0.8-1.4,1.2c-0.6,0.4-1.3,0.8-2,1.2c-1.4,0.6-2.8,1-4,1.1c-1.6,0.1-3-0.2-3.9-0.9c-0.3-0.2-0.5-0.5-0.7-0.9
					l-2.1-4.6L190,89.9z"/>
				<path class="st23" d="M176.4,96.2c0.2,0.3,0.4,0.6,0.7,0.9c0.8,0.7,2.2,1.1,3.9,0.9c1.3-0.1,2.7-0.4,4-1.1
					c0.7-0.3,1.4-0.7,2-1.2c0.5-0.4,1-0.8,1.4-1.2c1.2-1.2,1.8-2.4,1.8-3.5c0-0.4-0.1-0.7-0.2-1.1c-0.8-1.7-3.4-2.3-6.4-1.5
					c-0.7,0.2-1.5,0.4-2.2,0.8C177.7,90.9,175.4,94,176.4,96.2z"/>
			</g>
			<g>
				<path class="st22" d="M168,97.9l5,0.9l0,0c0,0,0,0,0,0c0.4,0.1,0.7,0.2,1,0.5c0.9,0.7,1.6,1.9,1.8,3.5c0.1,0.6,0.2,1.2,0.2,1.8
					c0,0.7-0.1,1.5-0.2,2.3c-0.3,1.5-0.8,2.8-1.4,3.9c-0.8,1.4-1.9,2.4-3,2.6c-0.4,0.1-0.7,0.1-1.1,0.1l-5-0.9L168,97.9z"/>
				<path class="st23" d="M165.3,112.7c0.4,0.1,0.7,0.1,1.1-0.1c1.1-0.3,2.2-1.2,3-2.6c0.7-1.1,1.2-2.4,1.4-3.9
					c0.2-0.8,0.2-1.6,0.2-2.3c0-0.6,0-1.3-0.2-1.8c-0.3-1.6-0.9-2.9-1.8-3.5c-0.3-0.2-0.6-0.4-1-0.5c-1.9-0.3-3.8,1.5-4.9,4.3
					c-0.3,0.7-0.5,1.5-0.6,2.2C161.7,108.6,163,112.3,165.3,112.7z"/>
			</g>
			<g>
				<path class="st22" d="M164.5,96.7l-3.3,3.8l0,0c0,0,0,0,0,0c-0.2,0.3-0.5,0.5-0.9,0.7c-1,0.5-2.4,0.4-4-0.2
					c-0.6-0.2-1.1-0.5-1.7-0.8c-0.6-0.4-1.3-0.8-1.9-1.4c-1.2-1-2.1-2.1-2.7-3.2c-0.8-1.4-1.1-2.8-0.8-3.9c0.1-0.4,0.3-0.7,0.5-1
					l3.3-3.8L164.5,96.7z"/>
				<path class="st23" d="M153,87c-0.2,0.3-0.4,0.6-0.5,1c-0.3,1.1,0,2.5,0.8,3.9c0.6,1.1,1.5,2.2,2.7,3.2c0.6,0.5,1.3,1,1.9,1.4
					c0.6,0.3,1.1,0.6,1.7,0.8c1.5,0.6,3,0.6,4,0.2c0.4-0.2,0.7-0.4,0.9-0.7c1.2-1.4,0.6-4.1-1.3-6.4c-0.5-0.6-1-1.1-1.6-1.7
					C158.3,86,154.5,85.2,153,87z"/>
			</g>
			<g>
				<path class="st22" d="M187,106.7l-3.3,3.8l0,0c0,0,0,0,0,0c-0.2,0.3-0.5,0.5-0.9,0.7c-1,0.5-2.4,0.4-4-0.2
					c-0.6-0.2-1.1-0.5-1.7-0.8c-0.6-0.4-1.3-0.8-1.9-1.4c-1.2-1-2.1-2.1-2.7-3.2c-0.8-1.4-1.1-2.8-0.8-3.9c0.1-0.4,0.3-0.7,0.5-1
					l3.3-3.8L187,106.7z"/>
				<path class="st23" d="M175.5,97c-0.2,0.3-0.4,0.6-0.5,1c-0.3,1.1,0,2.5,0.8,3.9c0.6,1.1,1.5,2.2,2.7,3.2c0.6,0.5,1.3,1,1.9,1.4
					c0.6,0.3,1.1,0.6,1.7,0.8c1.5,0.6,3,0.6,4,0.2c0.4-0.2,0.7-0.4,0.9-0.7c1.2-1.4,0.6-4.1-1.3-6.4c-0.5-0.6-1-1.1-1.6-1.7
					C180.8,96,177,95.3,175.5,97z"/>
			</g>
			<path class="st24" d="M166.5,110.8c2.6,5.6,6.4,10.6,11.7,14.6c8.6,6.8,18.8,10,29.4,10.8c-1.4,3.1-3.8,5.6-8.3,8.3
				c-18.1,11.4-52.7,3.9-52.7-14.7c0.1-25.2,0.2-57.3,0.2-59.4l0-6.7c0.3-15.3,14.3-24.6,28.4-25.8c-14.9,12.6-13.1,36.7-12.8,55
				C162.6,99,163.9,105.2,166.5,110.8"/>
			<g>
				<path class="st25" d="M165.5,23.5c-6.6,4-6.4,10.4,0.5,14.2c6.9,3.9,17.9,3.8,24.6-0.2c6.6-4,6.4-10.4-0.5-14.2
					C183.2,19.4,172.2,19.5,165.5,23.5z"/>
			</g>
			
				<linearGradient id="SVGID_3_" gradientUnits="userSpaceOnUse" x1="-14095.4902" y1="59.4341" x2="-14134.917" y2="-6.6416" gradientTransform="matrix(-1 0 0 1 -13929.6748 0)">
				<stop  offset="0" style="stop-color:#4F68B0"/>
				<stop  offset="0.3147" style="stop-color:#4E6FB5"/>
				<stop  offset="0.7778" style="stop-color:#4983C3"/>
				<stop  offset="1" style="stop-color:#478FCC"/>
			</linearGradient>
			<path class="st26" d="M156.9,44.9c0,3.2,2.2,6.4,6.5,8.9c8.4,4.7,21.8,4.6,29.8-0.3c3.9-2.4,5.9-5.4,5.9-8.4l0-11.4
				c0-0.5-0.1-1.1-0.1-1.5c-0.1-0.4-0.2-0.9-0.3-1.3c-0.2-0.6-0.5-1.7-1.5-3.1c-0.3-0.4-0.7-0.9-1-1.3c-0.4-0.5-1-1-1.5-1.4
				c-0.4-0.4-1-0.8-1.4-1.1c-0.4-0.3-1-0.6-1.4-0.8c-0.4-0.2-0.8-0.4-1.2-0.6c-0.4-0.2-1-0.5-1.4-0.6c-0.8-0.3-1.8-0.7-2.7-0.9
				c-0.4-0.1-1.1-0.3-1.5-0.4c-1.2-0.3-2.7-0.5-2.9-0.5c-0.5,0-1-0.1-1.5-0.2c-0.4,0-1-0.1-1.5-0.1c-0.4,0-1,0-1.5,0
				c-0.9,0-2.1,0.1-3,0.2c-0.4,0-1,0.1-1.5,0.2c-0.3,0-1.8,0.3-2.9,0.6c-0.4,0.1-1,0.3-1.4,0.4c-0.8,0.3-1.8,0.6-2.6,0.9
				c-0.4,0.2-0.9,0.4-1.3,0.6c-0.4,0.2-1,0.5-1.4,0.8c-0.3,0.2-0.7,0.4-1,0.6c-0.5,0.4-1.3,0.9-1.8,1.4c-1.2,1.1-2,2.2-2,2.3
				c-0.3,0.4-0.6,1-0.9,1.5c-0.2,0.4-0.4,0.9-0.5,1.2c-0.1,0.3-0.3,0.8-0.3,1.2c0,0.2-0.1,0.5-0.1,0.8c0,0.3-0.1,0.8-0.1,1.2
				L156.9,44.9z M190.6,37.5c-6.6,4-17.7,4.1-24.6,0.2c-6.9-3.9-7.2-10.2-0.5-14.2c6.6-4,17.7-4.1,24.6-0.3
				C197,27.1,197.3,33.5,190.6,37.5z"/>
		</g>
	</g>
	<g>
		
			<linearGradient id="SVGID_4_" gradientUnits="userSpaceOnUse" x1="643.9178" y1="152.4075" x2="740.9886" y2="152.4075" gradientTransform="matrix(1 0 0 1 -484.3329 0)">
			<stop  offset="0" style="stop-color:#A9B9D5"/>
			<stop  offset="1" style="stop-color:#95A9C8"/>
		</linearGradient>
		<path class="st27" d="M256.7,124.8c0,0-9.6,5.5-18,10.3l-3.2-1.9c-2.1-1.2-5.5-1.2-7.5,0l-2.1,1.2c-3-0.7-6.6-0.4-9,1.1L162,167.1
			c-3.2,1.9-3.2,4.9,0,6.8l8.1,4.7c3.2,1.9,8.5,1.9,11.8,0l54.8-31.6c2.4-1.4,3-3.4,1.9-5.2l2.2-1.2c2.1-1.2,2.1-3.2,0-4.4l-1.1-0.6
			c7.6-4.4,15.7-9.1,15.7-9.1L256.7,124.8z"/>
		<g>
			<path class="st28" d="M260.2,110c0,0-23.7,13.6-29.1,16.6c-0.1,0-0.1,0.1-0.1,0.2c0,0.2,0.1,0.5,0.3,0.6c0.1,0.1,0.2,0.1,0.2,0
				c5.3-3.1,27.2-15.8,27.2-15.8L260.2,110z"/>
			<path class="st29" d="M168.8,154.7c-0.1,4.5,3,10,6.9,12.3c2,1.2,3.8,1.3,5.1,0.6l47.2-27.1c0,0,0,0,0,0c1.3-0.7,2.1-2.3,2.1-4.5
				c0-0.9-0.1-1.8-0.3-2.8c0.8-0.5,1.7-1,2.5-1.4c0.6-0.3,1-1.1,1-2.1c0-0.6-0.1-1.2-0.3-1.8l0.6-0.3l0,0c0.2-0.1,0.3-0.3,0.3-0.6
				c0-0.6-0.4-1.4-1-1.8c0,0-0.1,0-0.1-0.1c0,0,0,0,0,0c0,0,0,0-0.1,0c0,0,0,0,0,0c0,0,0,0-0.1,0c0,0,0,0,0,0c0,0,0,0-0.1,0
				c0,0,0,0,0,0c0,0,0,0,0,0c0,0,0,0,0,0c0,0,0,0,0,0c0,0,0,0,0,0c0,0,0,0,0,0c0,0,0,0,0,0c0,0,0,0,0,0c0,0,0,0,0,0l-0.3,0.2
				c-0.1,0-0.2,0.1-0.2,0.1c-0.5-0.5-1-1-1.5-1.3c-0.9-0.5-1.7-0.6-2.3-0.2c-0.8,0.5-1.7,1-2.5,1.5c-0.6-0.6-1.3-1.1-2-1.5
				c-2-1.2-3.9-1.3-5.2-0.5c0,0,0.1,0,0.1-0.1c-10.3,5.9-37,21.2-47.3,27.1C169.6,150.9,168.9,152.5,168.8,154.7z"/>
			<g>
				
					<linearGradient id="SVGID_5_" gradientUnits="userSpaceOnUse" x1="665.8813" y1="142.3649" x2="713.3026" y2="142.3649" gradientTransform="matrix(1 0 0 1 -484.3329 0)">
					<stop  offset="0" style="stop-color:#4F68B0"/>
					<stop  offset="0.3147" style="stop-color:#4E6FB5"/>
					<stop  offset="0.7778" style="stop-color:#4983C3"/>
					<stop  offset="1" style="stop-color:#478FCC"/>
				</linearGradient>
				<path class="st30" d="M186.2,145.7c3.5,2.1,6.3,7.1,6.3,11.1c0,2-0.7,3.4-1.9,4l36.5-21c1.1-0.7,1.9-2,1.9-4
					c0.1-4-2.7-9-6.3-11.1l0,0c-1.8-1.1-3.4-1.2-4.6-0.5c-6.7,3.8-29.8,17.1-36.6,21C182.7,144.5,184.4,144.6,186.2,145.7z"/>
				<g>
					<path class="st31" d="M186.2,145.7l-0.1,7.4L186.2,145.7c3.5,2.1,6.3,7.1,6.3,11.1c-0.1,4.1-3,5.6-6.5,3.5
						c-3.5-2.1-6.3-7.1-6.3-11.1C179.7,145.2,182.6,143.6,186.2,145.7z"/>
				</g>
				<g>
					<path class="st32" d="M186.2,144.8L186.2,144.8c3.9,2.3,7,7.8,7,12.3c0,2.2-0.8,3.7-2.1,4.5c0.9-0.5-0.6,0.3,0.4-0.2
						c1.3-0.7,2.1-2.3,2.1-4.5c0.1-4.5-3-10-6.9-12.3l0,0c-2-1.2-3.8-1.3-5.1-0.6c-0.9,0.5,0.6-0.3-0.4,0.2
						C182.4,143.5,184.2,143.7,186.2,144.8z"/>
					<g>
						<path class="st33" d="M186.2,144.8c3.9,2.3,7,7.8,7,12.3c-0.1,4.5-3.3,6.2-7.2,3.9c-3.9-2.3-7-7.8-7-12.3
							C179.1,144.3,182.3,142.5,186.2,144.8z"/>
					</g>
				</g>
				
					<linearGradient id="SVGID_6_" gradientUnits="userSpaceOnUse" x1="660.7668" y1="155.0772" x2="673.4673" y2="155.0772" gradientTransform="matrix(1 0 0 1 -484.3329 0)">
					<stop  offset="0" style="stop-color:#A9B9D5"/>
					<stop  offset="1" style="stop-color:#95A9C8"/>
				</linearGradient>
				<path class="st34" d="M181.7,161.6c2.1-1.2,4.2-2.4,6.3-3.6c0.7-0.4,1.1-1.2,1.1-2.4c0-2.4-1.6-5.3-3.7-6.6
					c-1.1-0.6-2-0.7-2.7-0.3c-2.1,1.2-4.2,2.4-6.3,3.6C177.1,152,182.4,161.2,181.7,161.6z"/>
				<g>
					<g>
						<path class="st33" d="M173.5,149.5l-0.1,6.5c-2.1-1.2-3.8-0.3-3.8,2.1c0,2.4,1.6,5.3,3.7,6.6c2.1,1.2,3.8,0.3,3.8-2.1
							c0-2.4-1.6-5.3-3.7-6.6L173.5,149.5c5.2,3.1,9.4,10.5,9.3,16.4c-0.1,6-4.4,8.3-9.6,5.2c-5.2-3.1-9.4-10.5-9.3-16.4
							C164,148.8,168.2,146.4,173.5,149.5z"/>
					</g>
					<path class="st35" d="M166.6,148.8c1.7-1,4-0.9,6.6,0.6c2.7,1.5,5.1,4.1,6.8,7.1c1.7,3,2.8,6.4,2.8,9.5c0,2.9-1.1,5-2.8,6
						c0.9-0.5,0.4-0.2,1.3-0.7c1.7-1,2.7-3,2.8-6c0-3.1-1-6.5-2.8-9.5c-1.7-3-4.2-5.6-6.8-7.1c-2.6-1.4-4.9-1.5-6.6-0.6
						C167,148.5,167.4,148.3,166.6,148.8z"/>
				</g>
				
					<linearGradient id="SVGID_7_" gradientUnits="userSpaceOnUse" x1="648.691" y1="162.0491" x2="661.3925" y2="162.0491" gradientTransform="matrix(1 0 0 1 -484.3329 0)">
					<stop  offset="0" style="stop-color:#A9B9D5"/>
					<stop  offset="1" style="stop-color:#95A9C8"/>
				</linearGradient>
				<path class="st36" d="M167.1,159.6c2.1,1.2,3.7,4.2,3.7,6.6c0,1.2-0.4,2-1.1,2.4c2.1-1.2,4.2-2.4,6.3-3.6
					c0.7-0.4,1.1-1.2,1.1-2.4c0-2.4-1.6-5.3-3.7-6.6c-1.1-0.6-2-0.7-2.7-0.3c-2.1,1.2-4.2,2.4-6.3,3.6
					C165.1,159,166,159,167.1,159.6z"/>
				<g>
					<path class="st35" d="M164.3,157.5L164.3,157.5c3.9,2.3,7,7.8,7,12.3c0,2.2-0.8,3.8-2.1,4.5c0.9-0.5,0.7-0.4,1.7-1
						c1.3-0.7,2.1-2.3,2.1-4.5c0.1-4.5-3-10-6.9-12.3l0,0c-2-1.2-3.8-1.3-5.1-0.6c-0.9,0.5-0.7,0.4-1.7,0.9
						C160.5,156.2,162.3,156.3,164.3,157.5z"/>
					<g>
						<path class="st33" d="M164.3,157.5c3.9,2.3,7,7.8,7,12.3c-0.1,4.5-3.3,6.2-7.2,3.9c-3.9-2.3-7-7.8-7-12.3
							C157.2,156.9,160.4,155.2,164.3,157.5z"/>
					</g>
				</g>
			</g>
		</g>
	</g>
	<g>
		<g class="st37">
			<path class="st38" d="M141.5,89.1c5.9,3.4,5.9,8.9,0.1,12.3c-5.8,3.4-15.3,3.4-21.2,0c-5.9-3.4-5.9-8.9-0.1-12.3
				C126.1,85.7,135.6,85.7,141.5,89.1z"/>
		</g>
		<g>
			<path class="st39" d="M129.3,33.4c-0.5-0.2-2.4,0.3-3.1,1.8c-1.6,3.8-3,4.9-4.3,7.2l-7.6,3.2l0.8,0l-0.1,3.2c0,0,11-1.1,12.1-2.6
				c0.7-1,1.3-3.3,1.7-4.4c1-2.9,1.7-5.8,1.8-6.5C131,33.9,131.2,34.1,129.3,33.4z"/>
			<g>
				<g>
					<path class="st40" d="M139.1,94.3c0,0.3-0.1,0.5-0.2,0.7c-0.2,0.6-0.1,1.3-0.2,1.9c0,0.7-0.1,1.3-0.3,1.9
						c-0.3,0.9-0.9,1.7-1.7,2.2c-0.4,0.3-0.8,0.4-1.3,0.5c-0.5,0-0.9-0.2-1.2-0.5c-0.3-0.4-0.4-0.9-0.4-1.3c0-0.4,0.1-0.8,0.2-1.2
						c0-0.1,0-0.1,0-0.2c0.2-0.8,0.6-1.7,0.7-2.5c0.1-0.6,0-1.3,0.1-1.9c0-0.2,0.1-0.5,0.3-0.7c0-0.1,0.1-0.1,0.1-0.1
						c0.1-0.1,0.2-0.2,0.3-0.2c0.2-0.2,0.5-0.3,0.8-0.4c0.1,0,1.3-0.3,1.3-0.3c0,0.5,0.2,1.1,0.6,1.4c0.2,0.1,0.4,0.3,0.5,0.4
						C139.1,94,139.1,94.1,139.1,94.3z"/>
					<path class="st40" d="M124.5,95.3c0.8,0.6,3.2,0.5,4.4-1.1c0.1-0.2,0.2-0.5,0.6-0.9c0.3-0.3,0.6-0.3,0.9-0.3
						c0.3-0.1,0.9-0.3,1.3-0.7c0.2-0.2,0.3-0.5,0.3-0.9c-0.1-0.8-0.3-1.3-0.5-1.7c-0.6-1-1.4-1-2-0.8c-0.3,0.1-0.6,0.2-0.6,0.2
						s-0.6,0.8-2.2,2.3c-0.3,0.3-0.6,0.5-0.9,0.8C124.5,93.4,123.6,94.6,124.5,95.3z"/>
					<path class="st40" d="M139,94c0,0.3-0.1,0.5-0.2,0.8c-0.2,0.6-0.1,1.3-0.2,1.9c0,0.7-0.1,1.3-0.3,1.9c-0.3,0.9-0.9,1.7-1.7,2.2
						c-0.4,0.3-0.8,0.4-1.3,0.5c-0.5,0-0.9-0.2-1.2-0.5c-0.3-0.4-0.4-0.9-0.4-1.3c0-0.4,0.1-0.8,0.2-1.2c0-0.1,0-0.1,0-0.2
						c0.2-0.8,0.6-1.7,0.7-2.5c0.1-0.6,0-1.3,0.1-1.9c0-0.2,0.1-0.5,0.3-0.7c0-0.1,0.1-0.1,0.1-0.1c0.1-0.1,0.2-0.2,0.3-0.2
						c0.2-0.2,0.5-0.3,0.8-0.4c0.1,0,1.3-0.3,1.3-0.3c0,0.5,0.2,1.1,0.6,1.4c0.2,0.1,0.4,0.3,0.5,0.4C139,93.8,139,93.9,139,94z"/>
					<path class="st40" d="M124.5,94.9c0.8,0.6,3.2,0.5,4.4-1.1c0.1-0.2,0.2-0.5,0.6-0.9c0.3-0.3,0.6-0.3,0.9-0.3
						c0.3-0.1,0.9-0.3,1.3-0.7c0.2-0.2,0.3-0.5,0.3-0.9c-0.1-0.8-0.3-1.3-0.5-1.7c-0.6-1-1.4-1-2-0.8c-0.3,0.1-0.6,0.2-0.6,0.2
						s-0.6,0.8-2.2,2.3c-0.3,0.3-0.6,0.5-0.9,0.8C124.5,93,123.6,94.2,124.5,94.9z"/>
					<path class="st41" d="M132.7,72.8c-0.1-1,0.5-8.3,0.9-13h-6.9v0.5h-2c0,0.5,0,1,0,1.6c0.6,0.4,1.2,0.8,1.7,1.3
						c-0.5-0.4-1.1-0.8-1.7-1.2c0.2,5.5,1,10.8,1.3,12.6c1.1,6.4,0.4,16,0.6,16.1c0.8,0.5,4.5,0.4,5.2-0.6c1.1-1.4,1.5-5.5,1.5-9.8
						c-0.1-0.3-0.2-0.7-0.3-1C133,77,132.9,74.8,132.7,72.8z"/>
					<path class="st39" d="M125.8,55.5c0,0.1,1.7,3.4,2,3.7c1.1,1.6,3.7,5.5,4.2,8.9c0.6,4,0.9,8.4,0.9,8.5c0,0.8,0.8,11.7,0.8,17.3
						c1.2,0.2,1.8,2.3,5.8,1.1c0.3-0.1,0.4-0.4,0.5-0.7c0.5-2.8,0.9-6.3,1.1-10.3c0.1-2.6-1.2-5.5-0.9-8.3
						c1.2-13.5,1.3-16.4,0.5-17.3c-0.2-0.3-0.4-0.3-0.3-0.7L125.8,55.5z"/>
					<g>
						<g>
							<g>
								<g>
									<g>
										<g>
											<g>
												<g>
													<path class="st42" d="M124.4,60.2c0,1.9,0.7,3.8,2.3,4.4c2.2,0.8,5.3,1.1,7.7,1.3c3.6,0.2,8,0.6,7.1-5
														c-0.4-2.7-2.3-5.5-2.9-7.9c-2-7.7,3.2-14.9,2.1-15.9c-1.2-1.2-5-3.5-5.7-3.8c-1.4-0.7-3.6-0.5-3.6-0.5
														s-4.1,0.3-4.1,1.8c0,1.3-2.4,4.1-2.9,4.9c-0.7,1.2-1.9,3.5,1,6.1C126.6,46.5,124.4,58.3,124.4,60.2z"/>
												</g>
											</g>
										</g>
									</g>
								</g>
							</g>
						</g>
					</g>
				</g>
				<g>
					<path class="st43" d="M134.6,32.9c0-0.2,0.1-3.6,0.1-3.6l-5.5,0.7l0.8,3.2L134.6,32.9z"/>
					<g>
						<path class="st44" d="M134.6,20.8c0.3-0.7,0.9-1.2,1.5-1.6c0.6-0.4,1.2-0.8,1.8-0.8c1.1,0,1.9,0.9,2.5,1.7
							c0.4,0.6,0.9,1.3,0.9,2.1c0.1,1.4-0.9,2.6-2.2,3.1s-2.7,0.3-4-0.2L134.6,20.8z"/>
						<path class="st43" d="M136.3,34l0.3-5.1l-5.1,0.4c0,0-0.5,3.8-0.5,5.1c0,0.4,0.1,1.5,2.5,1.7C135.5,36.5,136.3,34,136.3,34z"
							/>
						<g>
							<g>
								<g>
									<path class="st45" d="M129.7,33.4c0.9,0.7,2.3,0.5,3.5,0.1c0.8-0.3,1.5-0.6,1.9-0.9c0.9-0.6,1.8-3.8,2-4.9
										c0.1-0.3,0.1-0.6,0.1-0.8c0.2-2.7-2.2-3.1-4.3-4.6c-2.3-1.7-5-1.1-5.2,2.5C127.6,28.3,127.7,32,129.7,33.4z"/>
									<path class="st45" d="M129.7,33.4c0.9,0.7,2.3,0.5,3.5,0.1c-1,0.1-1.9,0.4-2.7,0c-0.5-0.2-1-0.6-1.3-1.1
										c-0.8-1.2-1.3-3-1.1-4.9c0-0.1,0.1-0.5,0.6-0.5c1,0,2.2,0.1,3.1,0.6c0.9,0.4,2.5,0.7,3.1,0.6c0.6-0.1,0.4-0.9,0.4-1.5
										l1.9,0.1c0.2-2.7-2.2-3.1-4.3-4.6c-2.3-1.7-5-1.1-5.2,2.5C127.6,28.3,127.7,32,129.7,33.4z"/>
									<path class="st46" d="M128.9,20.8c1.6-1.8,3.8-1.8,6-1.4c1.9,0.3,4,2,4.3,3.8c0.4,2.5,0.2,6.1-2.5,8
										c-0.4,0.3-0.8,0.3-0.8-0.1c0-0.8,0.6-2.3-0.3-2.3c-0.5,0-0.2-0.6-0.6-0.6c-0.2,0.1-2.7-0.7-4.8-1.1c-0.1,0-0.5-1.2-0.7-1.2
										c-0.2,0-0.2,1.1-0.4,1c-1.1-0.2-1.9-0.6-1.9-0.6C126.6,24.4,127.8,22,128.9,20.8z"/>
									<path class="st45" d="M135.5,28.9c-0.7,0.8-0.9,1.7-0.4,2c0.4,0.4,1.3,0.1,2-0.7c0.7-0.8,0.9-1.7,0.4-2
										C137.1,27.9,136.2,28.2,135.5,28.9z"/>
									<path class="st45" d="M135.9,29.2c-0.3,0.4-0.4,0.9-0.2,1c0.2,0.2,0.7,0,1-0.4c0.3-0.4,0.4-0.9,0.2-1
										C136.7,28.7,136.2,28.9,135.9,29.2z"/>
								</g>
							</g>
						</g>
					</g>
				</g>
			</g>
			<path class="st47" d="M126.8,52.8c0.8-0.9,0.6-2.7,0.4-3.3c-0.4-0.2-1.3-0.4-2.2-0.6c-1.4-0.2-2.9-0.3-3.8,0.3
				c-1.8,1.3-1.3,2.1-0.7,2.7C121.4,53,125.5,51.7,126.8,52.8z"/>
			<path class="st39" d="M124.7,52.5l10.6,3.3c0.2,0.1,0.5,0.1,0.7,0.1c0.3,0,0.6,0,1-0.2c1.1-0.7,2-2.3,2.4-3
				c1.6-3,2.6-11.8,2.7-13.2c0.1-1.4,0.1-2.4-1.9-2.9c-0.2-0.1-0.5,0-0.8,0.1l0,0c-0.5,0.2-1.2,0.8-1.6,1.7
				c-1.7,3.8-2.5,7.4-2.9,10.3c-0.1,0.6-0.1,1.6-1.4,1.4c-3.3-0.6-7.6-1.7-7.6-1.7l-0.3,1.2L124.7,52.5z"/>
			<g>
				<path class="st48" d="M125,50.1l-11.3-6.7c-0.2-0.1-0.3-0.1-0.4,0c-0.2,0.1-0.4,0.2-0.6,0.3c0.1-0.1,0.2,0,0.4,0l0.6,0.4
					c0,0,0,0,0,0l0,0l0,0c-0.1,0.1-0.2,0.1-0.3,0.2c-0.1,0-0.2,0.1-0.2,0.1c-0.1,0-0.1,0.1-0.1,0.2l-0.1,6.9c0,0.2,0.1,0.5,0.3,0.6
					c0.1,0,0.2-0.1,0.3-0.1l0,0l-0.3,0.1l10.8,6.5c0.1,0.1,0.2,0.1,0.2,0c0.2-0.1,0.4-0.2,0.6-0.3l0,0.7c0,0.2-0.1,0.3-0.2,0.4
					c0.1-0.1,0.2-0.1,0.3-0.2c0.1-0.1,0.2-0.1,0.3-0.2c0.1-0.1,0.2-0.2,0.2-0.4l0.1-7.6C125.6,50.8,125.3,50.3,125,50.1z"/>
				<g>
					<g class="st49">
						<g class="st49">
							<defs>
								<path id="SVGID_8_" class="st49" d="M123.4,49.7l0-0.1C123.4,49.6,123.4,49.6,123.4,49.7L123.4,49.7
									C123.4,49.7,123.4,49.7,123.4,49.7z"/>
							</defs>
							<clipPath id="SVGID_9_">
								<use xlink:href="#SVGID_8_"  style="overflow:visible;"/>
							</clipPath>
							<g class="st50">
								<path class="st51" d="M123.5,49.6l0,0.1C123.4,49.7,123.4,49.7,123.5,49.6L123.5,49.6C123.4,49.6,123.4,49.6,123.5,49.6
									L123.5,49.6z"/>
							</g>
						</g>
						<g>
							<polygon class="st52" points="123.9,49.9 123.9,50 123.5,49.8 123.5,49.6 							"/>
						</g>
						<g class="st49">
							<defs>
								<path id="SVGID_10_" class="st49" d="M124.2,49.8l0,0.1c0,0,0,0.1-0.1,0.1c-0.1,0-0.2,0-0.3,0l0-0.1
									C123.9,49.9,124.1,49.9,124.2,49.8C124.2,49.8,124.2,49.8,124.2,49.8z"/>
							</defs>
							<clipPath id="SVGID_11_">
								<use xlink:href="#SVGID_10_"  style="overflow:visible;"/>
							</clipPath>
							<g class="st53">
								<path class="st51" d="M124.2,49.8l0,0.1c0,0,0,0,0,0.1L124.2,49.8C124.2,49.8,124.2,49.8,124.2,49.8L124.2,49.8z"/>
								<path class="st54" d="M124.2,49.8v0.1c0,0,0,0,0,0c0,0-0.1,0-0.1,0l0-0.1C124.1,49.9,124.1,49.9,124.2,49.8
									C124.2,49.9,124.2,49.8,124.2,49.8L124.2,49.8z"/>
								<path class="st51" d="M124,49.9l0,0.1c-0.1,0-0.1,0-0.2,0l0-0.1C123.9,49.9,124,49.9,124,49.9L124,49.9z"/>
							</g>
						</g>
						<g>
							<path class="st55" d="M124.2,49.7c0.1,0,0.1,0.1,0,0.2c-0.1,0-0.2,0-0.3,0l-0.4-0.2c-0.1,0-0.1-0.1,0-0.2c0.1,0,0.2,0,0.3,0
								L124.2,49.7z"/>
						</g>
					</g>
				</g>
				<path class="st56" d="M124.4,50.4l-11.3-6.7c-0.3-0.2-0.6,0-0.6,0.3l-0.1,7.6c0,0.4,0.2,0.8,0.5,1l11.3,6.7
					c0.3,0.2,0.6,0,0.6-0.3l0.1-7.6C125,51.1,124.8,50.6,124.4,50.4z"/>
				<path class="st57" d="M124.1,51.6c0-0.3-0.2-0.7-0.5-0.9c-0.3-0.2-0.5,0-0.5,0.3c0,0.3,0.2,0.7,0.5,0.9
					C123.9,52.1,124.1,52,124.1,51.6z"/>
				<polygon class="st57" points="125.1,53.4 125.4,53.2 125.4,52.2 125.1,52.4 				"/>
				<polygon class="st57" points="125.1,54.7 125.4,54.5 125.4,53.5 125.1,53.7 				"/>
				<path class="st57" d="M123,49.1c-0.1,0-0.2-0.1-0.3,0c-0.1,0-0.1,0.1,0,0.2c0.1,0,0.2,0.1,0.3,0C123.1,49.2,123.1,49.1,123,49.1
					z"/>
				<path class="st57" d="M122.3,48.7c-0.1,0-0.2,0-0.3,0s-0.1,0.1,0,0.2c0.1,0,0.2,0.1,0.3,0C122.4,48.8,122.4,48.7,122.3,48.7z"/>
				<polygon class="st57" points="121.6,48.2 121.3,48.4 120.7,48 121,47.9 				"/>
			</g>
			<path class="st47" d="M114.2,48.2c-0.1-0.1-0.2-0.2-0.3-0.3c0.2,0,0.3,0,0.4-0.2c0-0.1,0-0.2-0.1-0.3c-0.1-0.1-0.2-0.1-0.3-0.1
				c-0.5-0.2-1-0.4-1.5-0.6c-0.5,0.1-0.8,1.4-0.9,1.7c-0.1,0.4-0.1,1.1,0.2,1.4c0.2,0,0.3,0.1,0.5,0.1c0.1,0,0.3,0,0.4,0.1
				c0.1,0,0.1-0.1,0.1-0.2c0-0.1,0-0.1,0-0.2c0-0.1,0-0.2,0.1-0.2c0.2,0,0.7,0,0.6-0.4c0-0.1,0-0.1,0.1-0.1
				C114.1,48.8,114.2,48.5,114.2,48.2z"/>
		</g>
	</g>
	<g>
		
			<linearGradient id="SVGID_12_" gradientUnits="userSpaceOnUse" x1="-131.1049" y1="122.3342" x2="-87.1148" y2="122.3342" gradientTransform="matrix(1 0 0 1 213.8379 0)">
			<stop  offset="0" style="stop-color:#A9B9D5"/>
			<stop  offset="1" style="stop-color:#95A9C8"/>
		</linearGradient>
		<path class="st58" d="M126.6,114.6c-0.1-0.8-0.3-1.4-0.3-1.4c0-0.2-0.1-0.4-0.2-0.5c-0.1-0.2-0.1-0.4-0.2-0.5
			c-0.1-0.2-0.2-0.4-0.2-0.5c-0.1-0.1-0.2-0.3-0.2-0.5c-0.1-0.1-0.2-0.3-0.2-0.5c-0.1-0.1-0.2-0.3-0.3-0.5c-0.1-0.2-0.5-0.7-0.9-1.3
			c-0.1-0.1-0.2-0.3-0.4-0.4c-0.1-0.1-0.3-0.3-0.4-0.4c-0.1-0.1-0.3-0.3-0.4-0.4c-0.2-0.2-0.7-0.6-1.1-0.9c-0.2-0.1-0.4-0.3-0.6-0.4
			c-0.2-0.1-0.5-0.3-0.8-0.4c-0.4-0.2-1-0.5-1.4-0.6c-0.3-0.1-0.8-0.3-1.1-0.4c-0.5-0.1-1.1-0.3-1.6-0.3c-0.5-0.1-1.1-0.1-1.6-0.1
			c-0.4,0-1,0.1-1.5,0.1c-0.5,0.1-1.2,0.3-1.8,0.4c-0.4,0.1-0.9,0.3-1.3,0.5c-0.3,0.2-0.8,0.4-1.1,0.6c-3,1.8-6,3.6-9,5.4
			c-0.1,0-0.2,0.1-0.2,0.1c-0.6,0.4-1.2,0.7-1.8,1.1c-0.1,0.1-0.3,0.1-0.4,0.2c-3.1,1.8-6.1,3.7-9.2,5.5c-0.2,0.1-0.3,0.2-0.5,0.3
			c-0.3,0.2-0.6,0.4-0.8,0.6c-0.4,0.3-0.9,0.9-1.3,1.2c-0.2,0.2-0.5,0.5-0.6,0.8c-0.3,0.4-0.7,1-1,1.5c-0.2,0.4-0.5,1-0.7,1.4
			c-0.1,0.4-0.3,0.9-0.4,1.2c-0.1,0.5-0.2,1.1-0.3,1.6c0,0.3-0.1,0.7-0.1,1c0,0.2,0,0.5,0,0.7c0,0.7,0.1,1.3,0.1,1.5
			c0.1,0.4,0.2,1,0.3,1.3c0,0.2,0.1,0.4,0.2,0.5c0.1,0.2,0.1,0.4,0.2,0.5c0.1,0.1,0.1,0.4,0.2,0.5c0.1,0.1,0.1,0.3,0.2,0.5
			c0.1,0.1,0.2,0.3,0.2,0.5c0.1,0.1,0.2,0.3,0.3,0.4c0.2,0.3,0.4,0.6,0.6,0.9c0.1,0.1,0.2,0.3,0.3,0.4c0.1,0.1,0.3,0.3,0.4,0.4
			c0.1,0.1,0.3,0.3,0.4,0.4c0.1,0.1,0.3,0.3,0.4,0.4c0.2,0.1,0.4,0.3,0.5,0.4c0.2,0.1,0.4,0.3,0.6,0.5c0.3,0.2,0.7,0.4,1,0.6
			c0.1,0,0.1,0.1,0.2,0.1c0.3,0.2,0.7,0.4,1,0.5c0.4,0.2,1,0.4,1.5,0.5c0.5,0.1,1.1,0.2,1.5,0.3c0.4,0.1,1,0.1,1.4,0.1
			c0.5,0,1.2-0.1,1.7-0.1c0.4-0.1,1-0.2,1.4-0.3c0.3-0.1,0.8-0.2,1.1-0.4c0.3-0.1,0.6-0.3,0.9-0.4c0.3-0.1,0.5-0.3,0.8-0.4l9.3-5.4
			c0.1-0.1,0.2-0.1,0.3-0.2l1.9-1.1c0.1-0.1,0.2-0.1,0.3-0.2c3-1.7,6-3.5,9-5.2c0,0,0,0,0.1,0c0,0,0.1,0,0.1-0.1c0,0,0,0,0,0
			c0.2-0.1,0.4-0.3,0.6-0.4c0.4-0.3,1-0.8,1.4-1.2c0.3-0.4,0.8-0.8,1.1-1.2c0.3-0.4,0.6-0.8,1-1.5c0.3-0.4,0.5-1.1,0.7-1.5
			c0.2-0.4,0.3-1,0.4-1.4c0.1-0.4,0.2-0.9,0.2-1.2c0-0.2,0.1-0.5,0.1-0.8c0-0.3,0-0.7,0-1C126.7,115.5,126.7,115,126.6,114.6z"/>
		<g>
			<g>
				<path class="st33" d="M99,107.3c0.1,0,0.2-0.1,0.2-0.1c3-1.8,6-3.6,9-5.4c0.3-0.2,0.8-0.4,1.1-0.6c0.4-0.2,0.9-0.4,1.3-0.5
					c0.5-0.2,1.2-0.3,1.8-0.4c0.4-0.1,1-0.1,1.5-0.1c0.5,0,1.1,0,1.6,0.1c0.5,0.1,1.2,0.2,1.6,0.3c0.3,0.1,0.8,0.2,1.1,0.4
					c0.4,0.2,1,0.4,1.4,0.6c0.2,0.1,0.5,0.3,0.8,0.4c0.2,0.1,0.4,0.3,0.6,0.4c0.4,0.2,0.8,0.6,1.1,0.9c0.1,0.1,0.3,0.3,0.4,0.4
					c0.1,0.1,0.3,0.3,0.4,0.4c0.1,0.1,0.3,0.3,0.4,0.4c0.5,0.6,0.8,1.1,0.9,1.3c0.1,0.1,0.2,0.3,0.3,0.5c0.1,0.1,0.2,0.3,0.2,0.5
					c0.1,0.1,0.2,0.3,0.2,0.5c0.1,0.2,0.2,0.4,0.2,0.5c0.1,0.2,0.1,0.4,0.2,0.5c0.1,0.2,0.1,0.4,0.2,0.5c0,0,0.2,0.6,0.3,1.4
					c0.1,0.4,0.1,1,0.1,1.4c0,0.3,0,0.7,0,1c0,0.2,0,0.5-0.1,0.8c0,0.4-0.1,0.9-0.2,1.2c-0.1,0.4-0.3,1-0.4,1.4
					c-0.2,0.5-0.5,1.1-0.7,1.5c-0.4,0.7-0.7,1.2-1,1.5c-0.3,0.4-0.8,0.9-1.1,1.2c-0.4,0.4-1,0.8-1.4,1.2c-0.2,0.1-0.4,0.3-0.6,0.4
					c0,0,0,0,0,0c0,0-0.1,0-0.1,0.1c0,0,0,0-0.1,0c-3,1.7-6,3.5-9,5.2c-0.1,0.1-0.2,0.2-0.3,0.2l-2.2,1.3c1.5-0.9,2.5-2.8,2.4-5.6
					c-0.1-5.3-4-11.6-8.5-14.1c-2.2-1.2-4.2-1.3-5.7-0.4C97.6,108.2,98.3,107.7,99,107.3z"/>
				
					<linearGradient id="SVGID_13_" gradientUnits="userSpaceOnUse" x1="1868.3734" y1="121.8533" x2="1897.5294" y2="121.8533" gradientTransform="matrix(-1 0 0 1 1979.4279 0)">
					<stop  offset="0" style="stop-color:#4F68B0"/>
					<stop  offset="0.3147" style="stop-color:#4E6FB5"/>
					<stop  offset="0.7778" style="stop-color:#4983C3"/>
					<stop  offset="1" style="stop-color:#478FCC"/>
				</linearGradient>
				<path class="st59" d="M99.4,134.1L99.4,134.1c-0.3,0.2-0.5,0.3-0.8,0.4c-0.3,0.1-0.6,0.3-0.9,0.4c-0.3,0.1-0.8,0.3-1.1,0.4
					c-0.4,0.1-0.9,0.2-1.4,0.3c-0.5,0.1-1.2,0.1-1.7,0.1c-0.4,0-1,0-1.4-0.1c-0.5-0.1-1.1-0.2-1.6-0.3c-0.5-0.1-1.1-0.3-1.5-0.5
					c-0.3-0.1-0.7-0.3-1-0.5c-0.1,0-0.1-0.1-0.2-0.1c-0.3-0.2-0.7-0.4-1-0.6c-0.2-0.1-0.4-0.3-0.6-0.5c-0.2-0.1-0.4-0.3-0.5-0.4
					c-0.1-0.1-0.3-0.3-0.4-0.4c-0.1-0.1-0.3-0.3-0.4-0.4c-0.1-0.1-0.3-0.3-0.4-0.4c-0.1-0.1-0.2-0.3-0.3-0.4
					c-0.2-0.3-0.4-0.6-0.6-0.9c-0.1-0.1-0.2-0.3-0.3-0.4c-0.1-0.1-0.2-0.3-0.2-0.5c-0.1-0.1-0.2-0.3-0.2-0.5
					c-0.1-0.1-0.1-0.3-0.2-0.5c-0.1-0.2-0.1-0.4-0.2-0.5c-0.1-0.2-0.1-0.4-0.2-0.5c-0.1-0.3-0.2-0.9-0.3-1.3c0-0.2-0.1-0.8-0.1-1.5
					c0-0.2,0-0.5,0-0.7c0-0.3,0-0.7,0.1-1c0.1-0.5,0.2-1.1,0.3-1.6c0.1-0.4,0.3-0.9,0.4-1.2c0.2-0.4,0.4-1,0.7-1.4
					c0.2-0.5,0.7-1,1-1.5c0.2-0.2,0.4-0.5,0.6-0.8c0.4-0.4,0.9-0.9,1.3-1.2c0.2-0.2,0.5-0.4,0.8-0.6c0.2-0.1,0.3-0.2,0.5-0.3l0,0
					c3.1-1.8,6.2-3.7,9.2-5.5c1.4-0.9,3.4-0.8,5.7,0.4c4.6,2.5,8.4,8.8,8.6,14.1c0.1,2.7-0.8,4.7-2.4,5.6L99.4,134.1z"/>
			</g>
		</g>
	</g>
	<g>
		<g>
			<g>
				<g>
					<path class="st60" d="M145.2,190c-0.2,0.1-0.3,0.2-0.5,0.3c-0.8,0.4-1.6,0.9-2.4,1.2c-8,3.4-19.2,3-26.4-1.2
						c-7.2-4.2-8-10.7-2.2-15.3c0.6-0.5,1.3-1,2.1-1.4c0.2-0.1,0.3-0.2,0.5-0.3c8-4.3,20.5-4.2,28.4,0.3
						C152.5,178.1,152.7,185.4,145.2,190z"/>
				</g>
				<g>
					<g>
						<path class="st61" d="M150.7,182.2l-0.1,6.8c0,0.9-0.2,1.9-0.6,2.8c-0.8,1.9-2.4,3.7-4.8,5.2c-0.2,0.1-0.4,0.2-0.6,0.4
							c-0.7,0.4-1.5,0.8-2.3,1.2c-3.7,1.6-8.1,2.3-12.5,2.3l0.1-7c4.3,0,8.7-0.7,12.4-2.3c0.9-0.4,1.7-0.8,2.4-1.2
							c0.2-0.1,0.3-0.2,0.5-0.3c2.4-1.5,4.1-3.3,4.9-5.2C150.4,183.9,150.6,183,150.7,182.2z"/>
					</g>
					<g>
						<path class="st61" d="M129.9,193.8l-0.1,7c-5.1-0.1-10.2-1.2-14.1-3.5c-4-2.3-6-5.4-6-8.4l0.1-7c0,3,2,6.1,6,8.4
							C119.7,192.5,124.8,193.7,129.9,193.8L129.9,193.8z"/>
					</g>
					<g>
						<path class="st61" d="M114.5,189.4c-3.1-2.2-4.6-4.9-4.6-7.5l-0.1,7c0,2.7,1.6,5.4,4.7,7.6V189.4z"/>
					</g>
				</g>
			</g>
			<g>
				<path class="st61" d="M145.2,190c-0.2,0.1-0.3,0.2-0.5,0.3c-0.8,0.4-1.6,0.9-2.4,1.2L113.7,175c0.6-0.5,1.3-1,2.1-1.4
					c0.2-0.1,0.3-0.2,0.5-0.3L145.2,190z"/>
			</g>
			<g>
				<path class="st61" d="M145.2,190v6.9c-0.2,0.1-0.4,0.2-0.6,0.4c-0.7,0.4-1.5,0.8-2.3,1.2v-6.9L145.2,190z"/>
			</g>
		</g>
		<g>
			<g>
				<g>
					<path class="st62" d="M123.1,177.9c0.2,0.1,0.3,0.2,0.5,0.3c0.8,0.4,1.6,0.9,2.4,1.2c8,3.4,19.2,3,26.4-1.2
						c7.2-4.2,8-10.7,2.2-15.3c-0.6-0.5-1.3-1-2.1-1.4c-0.2-0.1-0.3-0.2-0.5-0.3c-8-4.3-20.5-4.2-28.4,0.3
						C115.9,165.9,115.6,173.2,123.1,177.9z"/>
				</g>
				<g>
					<g>
						<g>
							<defs>
								<path id="SVGID_14_" d="M117.7,170l0.1,6.8c0,0.9,0.2,1.9,0.6,2.8c0.8,1.9,2.4,3.7,4.8,5.2c0.2,0.1,0.4,0.2,0.6,0.4
									c0.7,0.4,1.5,0.8,2.3,1.2c3.7,1.6,8.1,2.3,12.5,2.3l-0.1-7c-4.3,0-8.7-0.7-12.4-2.3c-0.9-0.4-1.7-0.8-2.4-1.2
									c-0.2-0.1-0.3-0.2-0.5-0.3c-2.4-1.5-4.1-3.3-4.9-5.2C117.9,171.8,117.7,170.9,117.7,170z"/>
							</defs>
							<clipPath id="SVGID_15_">
								<use xlink:href="#SVGID_14_"  style="overflow:visible;"/>
							</clipPath>
							<rect x="117.7" y="170" class="st63" width="4.3" height="18.6"/>
							<rect x="122" y="170" class="st63" width="1.4" height="18.6"/>
							<rect x="123.3" y="170" class="st64" width="1.4" height="18.6"/>
							<rect x="124.7" y="170" class="st65" width="1.4" height="18.6"/>
							<rect x="126.1" y="170" class="st66" width="1.4" height="18.6"/>
							<rect x="127.5" y="170" class="st67" width="1.4" height="18.6"/>
							<rect x="128.8" y="170" class="st68" width="1.4" height="18.6"/>
							<rect x="130.2" y="170" class="st69" width="1.4" height="18.6"/>
							<rect x="131.6" y="170" class="st70" width="1.4" height="18.6"/>
							<rect x="133" y="170" class="st71" width="1.4" height="18.6"/>
							<rect x="134.4" y="170" class="st72" width="1.4" height="18.6"/>
							<rect x="135.7" y="170" class="st73" width="1.4" height="18.6"/>
							<rect x="137.1" y="170" class="st74" width="1.4" height="18.6"/>
							<path class="st74" d="M138.5,188.6V170V188.6z"/>
						</g>
					</g>
					<g>
						<g>
							<defs>
								<path id="SVGID_16_" d="M138.4,181.6l0.1,7c5.1-0.1,10.2-1.2,14.1-3.5c4-2.3,6-5.4,6-8.4l-0.1-7c0,3-2,6.1-6,8.4
									C148.6,180.4,143.5,181.6,138.4,181.6L138.4,181.6z"/>
							</defs>
							<clipPath id="SVGID_17_">
								<use xlink:href="#SVGID_16_"  style="overflow:visible;"/>
							</clipPath>
							<rect x="138.4" y="169.7" class="st75" width="4.2" height="18.9"/>
							<rect x="142.6" y="169.7" class="st75" width="1.3" height="18.9"/>
							<rect x="143.9" y="169.7" class="st76" width="1.3" height="18.9"/>
							<rect x="145.2" y="169.7" class="st77" width="1.3" height="18.9"/>
							<rect x="146.6" y="169.7" class="st78" width="1.3" height="18.9"/>
							<rect x="147.9" y="169.7" class="st79" width="1.3" height="18.9"/>
							<rect x="149.2" y="169.7" class="st80" width="1.3" height="18.9"/>
							<rect x="150.6" y="169.7" class="st81" width="1.3" height="18.9"/>
							<rect x="151.9" y="169.7" class="st82" width="1.3" height="18.9"/>
							<rect x="153.3" y="169.7" class="st83" width="1.3" height="18.9"/>
							<rect x="154.6" y="169.7" class="st84" width="1.3" height="18.9"/>
							<rect x="155.9" y="169.7" class="st85" width="1.3" height="18.9"/>
							<rect x="157.3" y="169.7" class="st86" width="1.3" height="18.9"/>
							<rect x="158.6" y="169.7" class="st86" width="0" height="18.9"/>
						</g>
					</g>
					<g>
						<g>
							<defs>
								<path id="SVGID_18_" d="M153.9,177.3c3.1-2.2,4.6-4.9,4.6-7.5l0.1,7c0,2.7-1.6,5.4-4.7,7.6V177.3z"/>
							</defs>
							<clipPath id="SVGID_19_">
								<use xlink:href="#SVGID_18_"  style="overflow:visible;"/>
							</clipPath>
							<rect x="153.9" y="169.7" class="st87" width="1" height="14.6"/>
							<rect x="154.8" y="169.7" class="st87" width="0.3" height="14.6"/>
							<rect x="155.2" y="169.7" class="st88" width="0.3" height="14.6"/>
							<rect x="155.5" y="169.7" class="st89" width="0.3" height="14.6"/>
							<rect x="155.8" y="169.7" class="st90" width="0.3" height="14.6"/>
							<rect x="156.1" y="169.7" class="st91" width="0.3" height="14.6"/>
							<rect x="156.4" y="169.7" class="st92" width="0.3" height="14.6"/>
							<rect x="156.7" y="169.7" class="st93" width="0.3" height="14.6"/>
							<rect x="157" y="169.7" class="st94" width="0.3" height="14.6"/>
							<rect x="157.3" y="169.7" class="st95" width="0.3" height="14.6"/>
							<rect x="157.7" y="169.7" class="st96" width="0.3" height="14.6"/>
							<rect x="158" y="169.7" class="st97" width="0.3" height="14.6"/>
							<rect x="158.3" y="169.7" class="st98" width="0.3" height="14.6"/>
							<rect x="158.6" y="169.7" class="st98" width="0" height="14.6"/>
						</g>
					</g>
				</g>
			</g>
			<g>
				<g>
					<defs>
						<path id="SVGID_20_" d="M123.1,177.9c0.2,0.1,0.3,0.2,0.5,0.3c0.8,0.4,1.6,0.9,2.4,1.2l28.6-16.5c-0.6-0.5-1.3-1-2.1-1.4
							c-0.2-0.1-0.3-0.2-0.5-0.3L123.1,177.9z"/>
					</defs>
					<clipPath id="SVGID_21_">
						<use xlink:href="#SVGID_20_"  style="overflow:visible;"/>
					</clipPath>
					<rect x="123.1" y="161.1" class="st99" width="6.5" height="18.2"/>
					<rect x="129.6" y="161.1" class="st99" width="2.1" height="18.2"/>
					<rect x="131.7" y="161.1" class="st100" width="2.1" height="18.2"/>
					<rect x="133.8" y="161.1" class="st101" width="2.1" height="18.2"/>
					<rect x="135.9" y="161.1" class="st102" width="2.1" height="18.2"/>
					<rect x="137.9" y="161.1" class="st103" width="2.1" height="18.2"/>
					<rect x="140" y="161.1" class="st104" width="2.1" height="18.2"/>
					<rect x="142.1" y="161.1" class="st105" width="2.1" height="18.2"/>
					<rect x="144.2" y="161.1" class="st106" width="2.1" height="18.2"/>
					<rect x="146.3" y="161.1" class="st107" width="2.1" height="18.2"/>
					<rect x="148.4" y="161.1" class="st108" width="2.1" height="18.2"/>
					<rect x="150.5" y="161.1" class="st109" width="2.1" height="18.2"/>
					<rect x="152.6" y="161.1" class="st110" width="2.1" height="18.2"/>
					<path class="st110" d="M154.6,179.4v-18.2V179.4z"/>
				</g>
			</g>
			<g>
				<g>
					<defs>
						<path id="SVGID_22_" d="M123.1,177.9v6.9c0.2,0.1,0.4,0.2,0.6,0.4c0.7,0.4,1.5,0.8,2.3,1.2v-6.9L123.1,177.9z"/>
					</defs>
					<clipPath id="SVGID_23_">
						<use xlink:href="#SVGID_22_"  style="overflow:visible;"/>
					</clipPath>
					<rect x="123.1" y="177.9" class="st111" width="0.6" height="8.4"/>
					<rect x="123.7" y="177.9" class="st111" width="0.2" height="8.4"/>
					<rect x="123.9" y="177.9" class="st112" width="0.2" height="8.4"/>
					<rect x="124.1" y="177.9" class="st113" width="0.2" height="8.4"/>
					<rect x="124.3" y="177.9" class="st114" width="0.2" height="8.4"/>
					<rect x="124.5" y="177.9" class="st115" width="0.2" height="8.4"/>
					<rect x="124.7" y="177.9" class="st116" width="0.2" height="8.4"/>
					<rect x="124.9" y="177.9" class="st117" width="0.2" height="8.4"/>
					<rect x="125.1" y="177.9" class="st118" width="0.2" height="8.4"/>
					<rect x="125.3" y="177.9" class="st119" width="0.2" height="8.4"/>
					<rect x="125.4" y="177.9" class="st120" width="0.2" height="8.4"/>
					<rect x="125.6" y="177.9" class="st121" width="0.2" height="8.4"/>
					<rect x="125.8" y="177.9" class="st122" width="0.2" height="8.4"/>
					<path class="st122" d="M126,186.3v-8.4V186.3z"/>
				</g>
			</g>
		</g>
		<g>
			<g>
				<g>
					<path class="st123" d="M123,193.7c0.8,1.2,1.4,2.4,1.7,3l0.6-0.4c-0.6-1.3-1.1-1.9-1.6-2.8L123,193.7z"/>
				</g>
				<g>
					<path class="st124" d="M112.4,170.1c0.6,1,1.2,2,1.9,3c1,1.6,2.2,3,2.9,4.7c1.7,4.3,3.2,8.5,4.7,12.8l1.1,2l0.8,6.1l-3.1,1.7
						l-0.3-1.7c0-2.5-1.1-5.3-1.3-6c-0.7-1.9-1.8-3.3-3-5c-1.5-2.2-3.1-4.4-4.6-6.6c-0.7-1.1-2.8-4.3-2.8-4.9
						C108.4,169.1,111.3,170.9,112.4,170.1z"/>
				</g>
				<g>
					<path class="st123" d="M120.1,199.9l0.1,1.1l3.2-0.9c0.6-0.2,0.9-0.8,0.8-1.3l-0.3-4l-0.2-1.3l-0.8-0.9c0,0,0.3,5.8,0.1,5.9
						c-0.2,0.1-2.2,0.9-2.2,0.9l-0.4-0.7L120.1,199.9z"/>
				</g>
			</g>
			<g>
				<g>
					<path class="st123" d="M116.5,199.8c-0.2,1.5-0.4,3.1-0.5,3.8l0.7,0.2c0.3-1.5,0.4-2.8,0.5-3.9L116.5,199.8z"/>
				</g>
				<g>
					<path class="st43" d="M121.7,172.8c-0.1,1.2-0.2,2.4-0.3,3.6c-0.2,1.9-0.1,3.8-0.5,5.7c-1.2,4.6-2.6,9.2-3.9,13.8l0.2,4.1
						l-2.6,5.2l-4.1-0.7c0.4,0.1,2.7-7.6,3-8.4c0.6-2.1,0.6-4,0.7-6.1c0.1-2.8,0.2-5.6,0.3-8.4c0.1-1.3,0-2.6,0.4-3.9
						c0.2-0.6,0.3-1.2,0.4-1.8c0.1-0.5-0.1-1.6,0.1-2c0.4-0.7,1.6-0.5,2.3-0.6C119,173.1,120.4,173,121.7,172.8z"/>
				</g>
				<image style="overflow:visible;" width="8" height="8" xlink:href="889AEC2.png"  transform="matrix(1 0 0 1 110 198.16)">
				</image>
			</g>
			<g>
				<g>
					<path class="st125" d="M124.2,138.7c-0.1,0-0.1,0-0.2,0c-0.8-0.1-1.8,0.2-2.6,0.9c-0.1,0.1-0.2,0.2-0.3,0.3
						c-0.2,0.2-0.5,0.6-0.9,1.3c0,0-3,5-3.6,6.1c-0.1,0.1-0.8,1.5-1.2,2.1c0,0.7-0.1,1.2,0.2,1.9c0.2,0.7,0.6,1.3,1.2,1.7
						c0.8,0.7,1.8,1.1,2.6,0.3c0.3-0.3,0.6-0.7,0.9-1c0.9-1.2,1.6-2.2,1.6-2.2c1.6-2.6,3.3-5.5,4.3-7.8
						C127.1,140.4,125.6,139,124.2,138.7z"/>
				</g>
				<g>
					<path class="st126" d="M124.2,138.7c-0.1,0-0.1,0-0.2,0c-0.8-0.1-1.8,0.1-2.5,0.8c-0.9,3.3-2.9,4.9-2.4,8.5
						c0.1,1.1,0.9,2.9,1.6,3.8c0.7-1,1.2-1.7,1.3-1.7c1.6-2.6,3.3-5.5,4.3-7.8C127.1,140.4,125.6,139,124.2,138.7z"/>
				</g>
				<g>
					<path class="st125" d="M115.5,149.5c-0.4,0.1-0.8,0.3-1.2,0.5c-1.3,0.6-2.6,1.3-3.6,1.8l2,1L111,156c1.5-0.3,3-0.5,5.1-1.2
						c1.8-0.6,4.3-1.3,3.7-3.8C119.4,148.9,117.5,148.9,115.5,149.5z"/>
				</g>
			</g>
			<g>
				<g>
					<g>
						<g>
							<g>
								<g>
									<g>
										<g>
											<path class="st127" d="M122.8,153l9.2-0.1c0,0,1.5-10.4-0.7-13.2c-0.9-1.1-5-1.3-5-1.3l-3.1,2.4L122.8,153z"/>
										</g>
										<g>
											<path class="st128" d="M128,141C128,140.9,127.9,140.9,128,141c-0.5,0.9-0.7,2-0.9,3c-0.3,1.2-0.6,2.4-0.9,3.6
												c-0.3,1.1-0.5,2.2-0.8,3.4c-0.2,1.1-0.6,2.3-0.5,3.4c0,0.3,0.4,0.3,0.5,0.1c0.3-1,0.4-2.2,0.6-3.3
												c0.3-1.2,0.5-2.4,0.7-3.6c0.2-1.1,0.5-2.3,0.7-3.4C127.7,143.1,128,142,128,141z"/>
										</g>
										<g>
											<path class="st126" d="M136,155.1c0.8-3.3,1.2-5.9,1.5-7.8c0.7-5.2-0.1-5.9-0.5-6.1c-0.9-0.4-1.8-0.9-2.6-1.3
												c-1.7-0.9-3-1.6-3-1.6s0.2,1.3-0.2,2.8c-0.1,0.5-0.3,1.1-0.6,1.7c-1,2-4.3,8.7-5,9.6c0-0.2-0.1-0.5-0.2-0.9
												c-0.2-1-0.5-2.3-0.6-2.9c0-0.3,0-0.5,0-0.8c-0.1-5.4,1.5-9.5,1.5-9.5l-3.1,0.1c-0.1,0-0.1,0-0.2,0
												c-0.5,0.1-1,0.5-1.1,0.9c-0.3,2.3-2.2,5.9-2.3,7.1c-0.1,0.8,0.2,1.9,0.6,3c0.6,1.7,1.9,3.4,2,4.5c0,0.3,0.1,1.8,0.1,3.5
												c0,1.2,0,2.6-0.4,3.8c-0.4,1.4-1.2,2.1-2.5,2.7c-1.3,0.6-2.6,1.2-4,1.8c-0.7,0.3-1.5,0.6-2.2,1c-0.7,0.5-1.3,1.1-1.9,1.7
												c-1.6,1.6-3.3,3.4-3.6,5.7c0,0.4,0,0.8,0.1,1.2c0.1,0.3,0.4,0.5,0.6,0.7c1.1,0.9,2.4,1.4,3.7,1.8
												c1.1,0.3,2.3,0.5,3.4,0.7c2,0.4,4.1,0.7,6.1,1.1c0.2,0,0.5,0.1,0.7,0.1c0.7-0.1,1.1-0.8,1.5-1.3c1.3-1.7,3.3-2.7,5.3-3.4
												c1.3-0.5,2.6-0.9,3.9-1.4c0.6-0.3,1.2-0.7,1.8-0.9c0.5-0.2,0.8-0.3,1.2-0.6c1.4-1.6,1.4-4.5,0.9-6.5
												c-0.2-1.1-1-4.3-1.4-7c-0.1-1.1-0.2-2.1,0-2.9C135.9,155.7,135.9,155.4,136,155.1z"/>
										</g>
										<g>
											<path class="st129" d="M125.7,154.3c0-0.3-0.2-0.6-0.4-0.8c-0.2-0.1-0.4,0-0.4,0.3c0,0.3,0.2,0.6,0.4,0.8
												C125.5,154.7,125.7,154.5,125.7,154.3z"/>
										</g>
										<g>
											<path class="st129" d="M125.5,157.4c0-0.3-0.2-0.6-0.4-0.8c-0.2-0.1-0.4,0-0.4,0.3c0,0.3,0.2,0.6,0.4,0.8
												C125.3,157.8,125.5,157.7,125.5,157.4z"/>
										</g>
										<g>
											<path class="st126" d="M125.5,152.6c0,0,5.7-3.2,6.2-5.1c0.3-1-0.9-4-0.9-4s1.8-0.6,2.3-1.3c1.8-2.6-1.5-4.2-1.5-4.2
												L125.5,152.6z"/>
										</g>
										<g>
											<path class="st33" d="M125.5,152.6c0,0,5.5-3.4,6.1-5.3c0.3-1-1.2-4.1-1.2-4.1s1.9-0.6,2.4-1.3c1.8-2.6-1.2-4-1.2-4
												L125.5,152.6z"/>
										</g>
										<g>
											<path class="st43" d="M127.9,141c1.6,0.7,3.7-1.5,3.7-1.5l0.4-5.5l-4.7,0.5c0,0-0.5,3.9-0.5,5.2
												C126.8,140.6,127.3,140.7,127.9,141z"/>
										</g>
										<g>
											<path class="st43" d="M126.8,139.7c0-1.4,0.5-5.2,0.5-5.2l4.7-0.5l-0.3,4.2c-1.3,0.8-2.9,0.9-4.1,2
												c-0.1,0.1,0.1,0.9,0.4,0.9c0.5,0.1,0.9,0.3,1.4,0.5c-0.6,0.2-0.8-0.2-1.4-0.5c0,0,0,0-0.1,0
												C127.2,140.7,126.8,140.6,126.8,139.7z"/>
										</g>
										<g id="XMLID_7_">
											<path class="st128" d="M126.8,139.2c0.1-0.5-0.2-0.8-0.2-0.8s-1.7,0.8-1.8,0.9c-0.1,0.1-0.1,0.3,0,0.5
												c0,0.4,0.1,0.8,0.2,1.3c0.1,0.5,0,1.1,0.2,1.6c0.1-0.1,2.5-1.6,2.7-1.6c-0.3-0.2-0.7-0.3-0.9-0.6
												C126.8,140.2,126.7,139.7,126.8,139.2z"/>
										</g>
										<g id="XMLID_6_">
											<path class="st128" d="M132,139.4c0-0.2-0.3-0.9-0.3-0.9c-0.1,0.3-0.4,0.7-0.5,0.9c-0.2,0.2-0.5,0.5-0.7,0.7
												c-0.4,0.3-0.8,0.5-1.2,0.7c-0.7,0.3-1.3,0.2-1.3,0.2c0,0,1.6,2,1.6,2C129.7,142.7,132.2,140.7,132,139.4z"/>
										</g>
									</g>
								</g>
								<g>
									<path class="st33" d="M125.5,152.6c0,0-3.2-5.1-2.9-7.2c0.1-1,2.2-3.1,2.2-3.1s-1.4-1.1-1-1.8c1-2.2,2.9-2,2.9-2
										L125.5,152.6z"/>
								</g>
							</g>
						</g>
						<g>
							<g id="XMLID_5_">
								<path class="st130" d="M137.8,130.9c-0.6,0.6-1.4,1-2.3,0.8c-0.4-0.1-0.8-0.3-1.1-0.5c-0.9-0.5-1.6-1.1-2.4-1.7l-0.9-4.1
									c0.1-0.7,0.5-1.4,1.1-1.8c0,0,0,0,0,0c0.3-0.2,0.6-0.4,1-0.4c1.1-0.2,2.3,0.1,3.2,0.7c1.4,1,2.4,2.7,2.4,4.4
									c0,0.2,0,0.4-0.1,0.6C138.7,129.7,138.4,130.4,137.8,130.9z"/>
							</g>
							<g class="st131">
								<path class="st130" d="M132.3,123.6C132.3,123.6,132.3,123.6,132.3,123.6c0.3-0.2,0.6-0.4,1-0.4c0.5-0.1,1-0.1,1.5,0
									c-0.9,0-1.7,0.1-1.3,0.6c2.1,2.4,3.1,5.3,2.7,8c-0.2,0-0.4,0-0.7,0c-0.4-0.1-0.8-0.3-1.1-0.5c-0.9-0.5-1.6-1.1-2.4-1.7
									l-0.9-4.1C131.2,124.7,131.7,124.1,132.3,123.6z"/>
							</g>
							<g>
								<g>
									<g>
										<path class="st132" d="M125.7,138.9c0.9,0.7,2.3,0.5,3.5,0.1c0.8-0.3,1.5-0.6,2-1c0.9-0.6,1.8-3.9,2.1-5
											c0.1-0.3,0.1-0.6,0.1-0.8c0.2-2.8-2.2-3.1-4.3-4.6c-2.3-1.7-5.1-1.1-5.3,2.5C123.6,133.6,123.7,137.4,125.7,138.9z"/>
									</g>
									<g>
										<path class="st132" d="M125.7,138.9c0.9,0.7,2.3,0.5,3.5,0.1c-1,0.1-1.9,0.4-2.7,0c-0.5-0.2-1-0.6-1.3-1.1
											c-0.8-1.2-1.3-3.1-1.1-5c0-0.1,0.1-0.5,0.6-0.5c1,0,2.3,0.1,3.1,0.6c0.9,0.4,2.6,0.7,3.2,0.6c0.6-0.1,0.4-0.9,0.4-1.5
											l2,0.1c0.2-2.8-2.2-3.1-4.3-4.6c-2.3-1.7-5.1-1.1-5.3,2.5C123.6,133.6,123.7,137.4,125.7,138.9z"/>
									</g>
									<g>
										<path class="st133" d="M124.9,126c1.6-1.8,3.8-1.8,6.1-1.4c1.9,0.3,4,2,4.3,3.8c0.4,2.5,0.1,5.9-2.7,7.8
											c-1,0.7,0.5-2.2-1-2.2c-0.5,0-0.2-0.6-0.6-0.7c-0.2,0.2-2.7-0.7-4.8-1.1c-0.2,0-0.5-1.2-0.7-1.2c-0.2,0-0.2,1.1-0.4,1
											c-1.1-0.2-1.9-0.6-1.9-0.6C122.6,129.7,123.8,127.3,124.9,126z"/>
									</g>
									<g>
										<path class="st132" d="M131,133.6c-0.4,0.8-0.3,1.7,0.2,1.9c0.5,0.2,1.2-0.3,1.6-1.1c0.4-0.8,0.3-1.7-0.2-1.9
											C132.1,132.2,131.4,132.7,131,133.6z"/>
									</g>
									<g>
										<path class="st132" d="M131.4,133.7c-0.2,0.4-0.1,0.9,0.1,1c0.3,0.1,0.6-0.1,0.8-0.6c0.2-0.4,0.1-0.9-0.1-1
											C132,133.1,131.6,133.3,131.4,133.7z"/>
									</g>
								</g>
							</g>
						</g>
					</g>
				</g>
			</g>
			<g>
				<path class="st33" d="M139.7,143.7c0.1-1.9-1.8-2.7-3.2-2.5c-0.1,0-0.1,0-0.2,0c-0.8,0.2-1.7,0.8-2.1,1.7
					c-0.1,0.1-0.1,0.3-0.2,0.4c-0.1,0.2-0.2,0.8-0.4,1.5c0,0-1.3,7.2-1.2,7.2c-0.7,3.9-1,7.1-1,7.2c0.1,0.3,3.8,1.6,4,1.9
					c0.1-0.1,0.1-0.2,0.2-0.2c0,0,0,0,0,0c0.2-0.2,0.3-0.5,0.5-0.8c0.6-1.3,2.2-7.5,2.3-7.6C139,149.6,139.5,146.3,139.7,143.7z"/>
			</g>
			<g>
				<polygon class="st33" points="118.3,168.3 105.9,161.1 105.9,141.5 118.3,148.7 				"/>
			</g>
			<g>
				<path class="st132" d="M107.4,151.8c-0.1-0.1-0.2-0.2-0.3-0.2c0.2-0.1,0.4-0.4,0.4-0.6c0-0.1,0-0.1,0-0.2
					c-0.1-0.2-0.3-0.2-0.4-0.2c-0.1,0-0.1,0-0.2,0c-0.3,0-0.5,0-0.8,0.1c-0.1,0-0.2,0-0.4,0c-0.6,0.4,0,0.9-0.1,0.9
					c-0.2,0.1-0.8,0.5-0.3,0.9c0.1,0.1-0.5,0.1-0.2,0.9c0.1,0.4-0.5,0.7,0.4,1.1c0.4,0.1,0.9-0.2,1-0.3c0-0.1,0.1-0.1,0.1-0.2
					c0-0.1,0-0.3-0.1-0.4c0.1,0,0.3-0.1,0.4-0.1c0.1,0,0.1,0,0.2-0.1c0,0,0-0.1,0-0.1c0-0.2-0.1-0.4-0.2-0.5c0.1,0,0.3-0.1,0.4-0.1
					c0.1-0.1,0.2-0.2,0.3-0.3C107.5,152.1,107.4,151.9,107.4,151.8z"/>
			</g>
			<g>
				<path class="st132" d="M128.3,162.4c1.9,0,4.2,0.1,5.9-0.9c1-0.6,1.4-1.8,0.5-2.7c-0.8-0.7-2.1-0.8-3.1-0.8
					c-1.4,0.1-2.9,0.2-4.3,0.5c-1,0.3-1.9,0.6-2.5,0.8c-1.5,0.4-2.9,0.5-3.7,0.4c-0.4-0.2-0.8-0.4-1.2-0.6c-0.4-0.2-1.7-0.1-2,0
					c-0.6,0.2-1.2,0.1-1.8,0.1c-0.5,0.1-0.3,0.5-0.2,0.5c0.5,0.2,1.8,0.2,1.9,0.2c0.1,0,0.6,0.1,0.5,0.2c-0.9,0.3-3.2-0.5-3.3,0.1
					c0,0.2,0.1,0.4,0.3,0.5c-0.1,0.1-0.2,0.1-0.3,0.2c-0.1,0.1-0.1,0.2-0.1,0.3c0,0.1,0.1,0.1,0.1,0.1c0.1,0.1,0.3,0.2,0.4,0.3
					c-0.2-0.1-0.4,0-0.5,0.2c-0.1,0.2,0,0.4,0.1,0.5c0.1,0.1,0.3,0.2,0.5,0.3c-0.1,0-0.3,0.1-0.3,0.2c0,0.1,0.1,0.3,0.2,0.4
					c0.1,0.1,1.6,0.3,2.1,0.3c0.2,0,0.3,0,0.5-0.1c0.2-0.1,2.5-0.5,3.2-0.6c1.3-0.1,2.4-0.3,3.6-0.2
					C125.9,162.3,127.3,162.4,128.3,162.4z"/>
			</g>
			<g>
				<path class="st33" d="M131.4,157.5c-0.4,0.1-0.9,0.1-1.3,0.2c-2.1,0.5-7.9,1.6-8.7,1.6c0.1,0.9,0.2,3,0.3,4c3,0,6.1,0,9.5-0.4
					c1.9-0.2,5-0.3,5.1-3.7C136.3,156.9,133.6,157.3,131.4,157.5z"/>
			</g>
		</g>
	</g>
</g>
</svg>
