<svg width="24" height="19" viewBox="0 0 24 19" fill="none" xmlns="http://www.w3.org/2000/svg">
<path d="M3.00049 13.75C2.80158 13.75 2.61081 13.829 2.47016 13.9697C2.32951 14.1103 2.25049 14.3011 2.25049 14.5C2.25049 14.6989 2.32951 14.8897 2.47016 15.0303C2.61081 15.171 2.80158 15.25 3.00049 15.25H21.0005C21.1994 15.25 21.3902 15.171 21.5308 15.0303C21.6715 14.8897 21.7505 14.6989 21.7505 14.5C21.7505 14.3011 21.6715 14.1103 21.5308 13.9697C21.3902 13.829 21.1994 13.75 21.0005 13.75H19.5005V7.75H21.0005C21.1614 7.74999 21.3181 7.69821 21.4474 7.60229C21.5767 7.50637 21.6716 7.37141 21.7183 7.21736C21.7649 7.06331 21.7608 6.89833 21.7064 6.74682C21.6521 6.59531 21.5505 6.4653 21.4166 6.376L12.4166 0.375998C12.2933 0.29388 12.1486 0.250061 12.0005 0.250061C11.8525 0.250061 11.7077 0.29388 11.5845 0.375998L2.58452 6.376C2.45061 6.46529 2.34897 6.5953 2.29463 6.7468C2.2403 6.8983 2.23614 7.06327 2.28278 7.21732C2.32941 7.37136 2.42437 7.50632 2.55361 7.60225C2.68286 7.69817 2.83954 7.74997 3.00049 7.75H4.50049V13.75H3.00049ZM13.5005 7.75V13.75H10.5005V7.75H13.5005ZM18.0005 13.75H15.0005V7.75H18.0005V13.75ZM12.0005 1.9014L18.5235 6.25H5.47755L12.0005 1.9014ZM6.00049 7.75H9.00049V13.75H6.00049V7.75ZM23.2505 17.5C23.2505 17.6989 23.1715 17.8897 23.0308 18.0303C22.8902 18.171 22.6994 18.25 22.5005 18.25H1.50049C1.30158 18.25 1.11081 18.171 0.970158 18.0303C0.829506 17.8897 0.750488 17.6989 0.750488 17.5C0.750488 17.3011 0.829506 17.1103 0.970158 16.9697C1.11081 16.829 1.30158 16.75 1.50049 16.75H22.5005C22.6994 16.75 22.8902 16.829 23.0308 16.9697C23.1715 17.1103 23.2505 17.3011 23.2505 17.5Z" fill="black"/>
</svg>
