<svg width="20" height="17" viewBox="0 0 20 17" fill="none" xmlns="http://www.w3.org/2000/svg">
<path fill-rule="evenodd" clip-rule="evenodd" d="M18.0785 0.628555C18.5204 0.628555 18.8988 0.785921 19.2135 1.10065C19.5282 1.41539 19.6856 1.79373 19.6856 2.2357V14.45C19.6856 14.8919 19.5282 15.2703 19.2135 15.585C18.8988 15.8997 18.5204 16.0571 18.0785 16.0571H2.00704C1.56508 16.0571 1.18673 15.8997 0.872 15.585C0.557268 15.2703 0.399902 14.8919 0.399902 14.45V2.2357C0.399902 1.79373 0.557268 1.41539 0.872 1.10065C1.18673 0.785921 1.56508 0.628555 2.00704 0.628555H18.0785ZM2.00716 1.91429C1.9201 1.91429 1.84477 1.94609 1.78115 2.00971C1.71753 2.07333 1.68573 2.14866 1.68573 2.23571V4.48571H18.4V2.23571C18.4 2.14866 18.3682 2.07333 18.3046 2.00971C18.2409 1.94609 18.1656 1.91429 18.0786 1.91429H2.00716ZM18.0786 14.7714C18.1656 14.7714 18.241 14.7396 18.3046 14.676C18.3682 14.6124 18.4 14.537 18.4 14.45V8.34283H1.68576V14.45C1.68576 14.537 1.71756 14.6124 1.78118 14.676C1.8448 14.7396 1.92013 14.7714 2.00718 14.7714H18.0786ZM2.97112 13.4857V12.2H5.54255V13.4857H2.97112ZM6.82859 13.4857V12.2H10.6857V13.4857H6.82859Z" fill="#101213"/>
</svg>
