<?xml version="1.0" encoding="utf-8"?>
<!-- Generator: Adobe Illustrator 24.2.0, SVG Export Plug-In . SVG Version: 6.00 Build 0)  -->
<svg version="1.1" id="Layer_1" xmlns="http://www.w3.org/2000/svg" xmlns:xlink="http://www.w3.org/1999/xlink" x="0px" y="0px"
	 viewBox="0 0 218 100" style="enable-background:new 0 0 218 100;" xml:space="preserve">
<style type="text/css">
	.st0{fill:#02B9EF;}
	.st1{fill:#06306F;}
</style>
<g>
	<path class="st0" d="M165.3,31.8c0.8-0.6,1.2-1,1.6-1.3c5.6-4.8,12.8-4.2,17.6,1.4c0.5,0.6,0.7,0.6,1.2,0.1c0.3-0.4,0.7-0.6,1-1
		c3.8-3.7,8.7-4.8,13.4-2.7c4.9,2.2,7.5,6,7.6,11.4c0.1,11.6,0,23.2,0,34.8c0,4.1-2.5,6.7-6.6,6.7c-1.6,0-3.2-0.1-4.8,0
		c-1.7,0.2-2.1-0.4-2.1-2.1c0.1-11.3,0-22.6,0-33.9c0-0.5,0-0.9,0-1.4c0-2.6-1.1-3.7-3.6-3.8c-2.3-0.1-3.8,1.3-4.1,3.6
		c0,0.5,0,1.1,0,1.6c0,9.8,0,19.5,0,29.3c0,4.3-2.5,6.8-6.7,6.7c-2.2,0-5.1,1-6.4-0.4c-1.1-1.2-0.4-4.1-0.4-6.2c0-10,0-20.1,0-30.1
		c0-3.6-2.3-5.4-5.3-4.2c-1.9,0.8-2.5,2.3-2.5,4.2c0,9.4,0,18.7,0,28.1c0,0.7,0,1.5,0,2.2c-0.1,3.9-2.6,6.4-6.5,6.4
		c-1.6,0-3.2-0.1-4.8,0c-1.7,0.2-2.3-0.3-2.2-2.2c0.1-15.9,0-31.8,0-47.7c0-0.7,0-1.3,0-2c-0.1-0.9,0.3-1.2,1.2-1.2
		c3.7,0,7.4,0,11.1,0c0.9,0,1.4,0.2,1.3,1.3C165.1,30.1,165.2,30.8,165.3,31.8z"/>
	<path class="st1" d="M79.6,53.7c0,5.5,0,11,0,16.6c0,7.2-3.8,10.9-11,11c-3.2,0-6.3,0-9.5,0C52.7,81.2,48,77,47.7,70.6
		c-0.2-4.6-0.3-9.2,0-13.7c0.3-6.5,5.3-11.2,12-11.2c1.7,0,3.5,0,5.3,0c1.7,0,2.3-1,2.3-2.6s-0.7-2.3-2.3-2.3c-1.8,0-3.6,0-5.5,0
		c-4.4-0.1-6.9-2.5-6.9-6.9c0-1.8-0.8-4.2,0.4-5.2c1-0.9,3.3-0.3,5.1-0.3c4.5,0,9,0,13.5,0c4.8,0,8.1,3.3,8.1,8.1
		C79.6,42.1,79.6,47.9,79.6,53.7z M67.2,62.9c0-0.7,0-1.3,0-2c0-4.1,0-4.1-4.1-4C61,57,59.9,58,59.9,60.2c0,1.7,0,3.4,0,5.1
		c0,2.9,1.3,3.7,5.5,3.8c3.1,0.1,1.5-2.1,1.8-3.3C67.4,64.8,67.2,63.8,67.2,62.9z"/>
	<path class="st1" d="M115.5,49.3c0,6.2,0.1,12.4,0,18.6c-0.1,4.8-1.2,9.1-5.8,11.6c-1.9,1-3.9,1.6-6,1.6c-4.6,0.1-9.3,0-13.9,0.1
		c-1.1,0-1.4-0.4-1.3-1.4c0.1-1.7,0-3.4,0-5.1c0.1-3.2,2.5-5.7,5.8-5.8c2.1-0.1,4.2,0,6.3,0c1.7,0,2.6-0.7,2.6-2.5
		c0-1.9-0.9-2.5-2.6-2.5c-2.8-0.1-5.7,0.3-8.4-0.5C87.3,62,83.8,58,83.7,53c-0.2-7.9-0.1-15.8-0.1-23.6c0-0.9,0.3-1.2,1.2-1.1
		c3.3,0,6.6,0.1,9.9,0c1.5,0,1.3,0.8,1.3,1.7c0,5.9,0,11.8,0,17.8c0,2.6,1.2,4,3.5,4c2.7,0.1,3.8-1,3.8-3.7c0-6,0-12,0-18
		c0-1.4,0.4-1.8,1.8-1.8c3,0.1,5.9,0.2,8.9,0c1.6-0.1,1.9,0.5,1.8,1.9C115.5,36.5,115.5,42.9,115.5,49.3z"/>
	<path class="st1" d="M12.6,58.5c0-6.6,0-13.2,0-19.8c0-6.5,4-10.5,10.5-10.4c4.2,0,8.5-0.5,12.7,0.3c5.4,1.1,8.8,5.2,8.8,10.7
		c0,5.9,0,11.7,0,17.6c0,7.4-4.3,11.8-11.7,12c-2.2,0.1-4.4,0-6.7,0c-1,0-1.5,0.3-1.4,1.4c0.1,1.6,0,3.2,0,4.8c-0.1,3.5-2.5,6-6,6
		c-2,0-4.6,0.8-5.9-0.3c-1.2-1.1-0.3-3.7-0.4-5.6C12.5,69.7,12.6,64.1,12.6,58.5z M24.8,48.6c0,1.3,0,2.5,0,3.8c0,4.6,0,4.6,4.6,4.2
		c2-0.2,2.9-1.1,3-3.1c0-2.3-0.1-4.6,0-6.8c0.2-6.5-1-5.9-6.3-5.9c-1,0-1.3,0.3-1.3,1.3C24.8,44.1,24.8,46.4,24.8,48.6z"/>
	<path class="st0" d="M127,58.6c0-5.4,0-10.8,0-16.2c0-1.3-0.3-1.8-1.7-1.7c-1.8,0.1-4.2,0.6-5.3-0.3c-1.3-1.2-0.3-3.7-0.4-5.6
		c0-0.1,0-0.3,0-0.4c0-1.9-0.6-4.1,0.2-5.5c0.8-1.4,3.3-0.5,5-1c3.4-0.9,6-2.9,8.1-5.6c1.5-1.9,3.3-3.2,5.6-3.6
		c1.3-0.2,2-0.1,1.9,1.5c-0.1,2.3,0,4.6,0,6.9c0,1,0.3,1.3,1.3,1.3c1.6,0,3.2,0,4.8,0c1,0,1.3,0.3,1.3,1.3c0,3.3,0,6.6,0,9.9
		c0,0.9-0.2,1.4-1.3,1.3c-0.2,0-0.4,0-0.6,0c-1.8,0.2-4.2-0.8-5.2,0.4c-0.9,1.1-0.3,3.5-0.3,5.3c0,11,0,21.9,0,32.9
		c0,1.5-0.4,2-1.9,1.9s-3,0-4.4,0c-4.4-0.2-7.2-3.1-7.2-7.5C127,68.7,127,63.6,127,58.6z"/>
</g>
</svg>
