<?xml version="1.0" encoding="utf-8"?>
<!-- Generator: Adobe Illustrator 24.2.0, SVG Export Plug-In . SVG Version: 6.00 Build 0)  -->
<svg version="1.1" id="Layer_1" xmlns="http://www.w3.org/2000/svg" xmlns:xlink="http://www.w3.org/1999/xlink" x="0px" y="0px"
	 viewBox="0 0 400 100" style="enable-background:new 0 0 400 100;" xml:space="preserve">
<style type="text/css">
	.st0{fill:#3395FF;}
	.st1{fill:#072654;}
</style>
<g>
	<path class="st0" d="M32.4,34.2l-2.6,9.7l15-9.7L35,70.8l10,0l14.5-54.2"/>
	<path class="st1" d="M16.3,55.4l-4.1,15.4h20.5L41,39.5L16.3,55.4 M87.3,41.8c-0.5,1.9-1.5,3.2-2.9,4.1c-1.4,0.9-3.4,1.3-6,1.3
		h-8.3L73,36.4h8.3c2.6,0,4.4,0.4,5.3,1.3C87.6,38.6,87.8,40,87.3,41.8 M95.9,41.6c1-3.9,0.6-6.9-1.3-9c-1.9-2.1-5.3-3.1-10.1-3.1
		H66.1L55,70.8h8.9l4.5-16.7h5.9c1.3,0,2.4,0.2,3.1,0.6c0.8,0.4,1.2,1.2,1.3,2.3l1.6,13.8h9.6L88.3,58c-0.3-2.9-1.6-4.5-3.9-5
		c2.9-0.9,5.4-2.3,7.4-4.2C93.8,46.8,95.2,44.3,95.9,41.6 M117.6,56c-0.8,2.8-1.9,4.9-3.5,6.4c-1.6,1.5-3.4,2.2-5.6,2.2
		c-2.2,0-3.7-0.7-4.5-2.2c-0.8-1.5-0.8-3.5-0.1-6.3s1.9-4.9,3.5-6.5s3.5-2.3,5.7-2.3c2.2,0,3.7,0.8,4.4,2.2
		C118.4,51.1,118.4,53.3,117.6,56L117.6,56z M121.5,41.4l-1.1,4.2c-0.5-1.5-1.4-2.7-2.8-3.6c-1.4-0.9-3.1-1.3-5.2-1.3
		c-2.5,0-4.9,0.7-7.3,2s-4.3,3.1-6.1,5.5s-3,5-3.8,8.1c-0.8,3-1,5.7-0.5,8c0.5,2.3,1.5,4.1,3.2,5.3c1.6,1.3,3.7,1.9,6.3,1.9
		c2,0,4-0.4,5.9-1.3c1.8-0.8,3.4-2,4.7-3.5l-1.2,4.4h8.7l7.9-29.5L121.5,41.4L121.5,41.4z M161.3,41.4h-25.2l-1.8,6.6H149
		l-19.4,16.7l-1.7,6.2h26l1.8-6.6h-15.7l19.6-17 M183.4,56c-0.8,2.9-1.9,5.1-3.5,6.5c-1.5,1.4-3.4,2.1-5.5,2.1c-4.5,0-6-2.9-4.5-8.6
		c0.8-2.9,1.9-5,3.5-6.5c1.6-1.5,3.4-2.2,5.6-2.2c2.2,0,3.6,0.7,4.4,2.2C184.2,51,184.2,53.1,183.4,56 M188.5,42.5
		c-2-1.2-4.5-1.9-7.6-1.9c-3.1,0-6,0.6-8.7,1.8c-2.7,1.2-5,3.1-6.8,5.3c-1.9,2.3-3.2,5-4.1,8.1c-0.8,3.1-0.9,5.8-0.3,8.1
		c0.6,2.3,2,4.1,4,5.3c2,1.2,4.6,1.9,7.7,1.9c3.1,0,6-0.6,8.6-1.9c2.7-1.2,4.9-3,6.8-5.3c1.9-2.3,3.2-5,4.1-8.1
		c0.8-3.1,0.9-5.8,0.3-8.1C191.8,45.5,190.5,43.7,188.5,42.5 M219.4,49.3l2.2-8c-0.8-0.4-1.7-0.6-3-0.6c-2,0-3.9,0.5-5.7,1.5
		c-1.6,0.8-2.9,2-4.1,3.5l1.2-4.3l-2.5,0h-6.2l-7.9,29.5h8.8l4.1-15.4c0.6-2.2,1.7-4,3.2-5.3c1.6-1.3,3.5-1.9,5.8-1.9
		C216.8,48.3,218.1,48.6,219.4,49.3 M243.8,56.1c-0.8,2.8-1.9,4.9-3.4,6.3c-1.6,1.5-3.4,2.2-5.6,2.2c-2.2,0-3.7-0.7-4.4-2.2
		c-0.8-1.5-0.8-3.6-0.1-6.4c0.8-2.8,1.9-4.9,3.5-6.4c1.6-1.5,3.4-2.2,5.6-2.2c2.1,0,3.6,0.8,4.3,2.3S244.5,53.4,243.8,56.1
		 M249.9,42.6c-1.6-1.3-3.7-2-6.2-2c-2.2,0-4.3,0.5-6.3,1.5c-2,1-3.6,2.4-4.8,4.1l0-0.2l1.5-4.7h-8.6l-2.2,8.2l-0.1,0.3l-9,33.6h8.8
		l4.5-16.9c0.4,1.5,1.4,2.7,2.8,3.5c1.4,0.8,3.1,1.3,5.2,1.3c2.6,0,5-0.6,7.3-1.9c2.3-1.2,4.3-3,6-5.3c1.7-2.3,3-5,3.8-8
		c0.8-3,1-5.7,0.5-8.1C252.6,45.7,251.5,43.9,249.9,42.6 M279,56c-0.8,2.8-1.9,4.9-3.4,6.4c-1.6,1.5-3.4,2.2-5.6,2.2
		c-2.2,0-3.7-0.7-4.5-2.2c-0.8-1.5-0.8-3.5-0.1-6.3s1.9-4.9,3.5-6.5c1.6-1.5,3.5-2.3,5.7-2.3c2.2,0,3.6,0.8,4.4,2.2
		C279.8,51.1,279.8,53.2,279,56L279,56z M282.9,41.4l-1.1,4.2c-0.5-1.5-1.4-2.7-2.8-3.6c-1.4-0.9-3.1-1.3-5.2-1.3
		c-2.5,0-4.9,0.6-7.3,1.9c-2.3,1.3-4.4,3.1-6.1,5.5s-3,5-3.8,8.1c-0.8,3-1,5.7-0.5,8c0.5,2.3,1.5,4.1,3.2,5.3
		c1.6,1.2,3.7,1.9,6.3,1.9c2,0,4-0.4,5.9-1.3c1.8-0.8,3.4-2,4.7-3.5l-1.2,4.4h8.7l7.9-29.4L282.9,41.4L282.9,41.4z M327.9,41.4
		L327.9,41.4l-5.3,0c-0.2,0-0.3,0-0.5,0h-2.8l-1.4,2l-0.3,0.5l-0.2,0.2l-11.2,15.6l-2.3-18.3h-9.2l4.6,27.8l-10.3,14.2h9.2l2.5-3.5
		c0.1-0.1,0.1-0.2,0.2-0.3l2.9-4.1l0.1-0.1l13-18.4L327.9,41.4L327.9,41.4L327.9,41.4L327.9,41.4z"/>
</g>
</svg>
