<svg width="61" height="44" viewBox="0 0 61 44" fill="none" xmlns="http://www.w3.org/2000/svg">
<g clip-path="url(#clip0)">
<path d="M23.6 10.4C23.4 10.1 21.8 7.5 24.8 4.7C26 3.6 27.6 3 29.2 3C29.7 3 30.2 3 30.8 3.1C32 3.3 33.2 3.2 34.4 3C36.4 2.5 38.1 1.5 39.5 0C40.1 2.4 40.5 5.8 39 7.5C38.6 8 38.2 8.4 37.7 8.8C37.6 8.8 37.6 8.9 37.5 8.9C36.3 9.8 34.9 10.4 33.3 10.5C32.7 10.5 32.3 10.9 32.3 11.5C32.3 12.1 32.7 12.5 33.3 12.5C34.7 12.4 36 12 37.2 11.4C37.2 12.6 37.2 14.5 37.2 16.8C37.1 20.9 34 24.5 30.5 24.5C27 24.5 23.9 20.9 23.8 16.8C23.7 12.4 23.8 11.1 23.8 11.1C23.8 10.8 23.7 10.6 23.6 10.4ZM21.7 30.5L23 30.3C22.3 30.1 21.5 30 20.6 29.9C19.6 29.8 17 29 17 27.2V25.2C17 24.9 17.1 24.6 17.3 24.4C17.5 24.2 17.8 24.1 18.1 24.2C20.4 24.4 22.7 23.9 24.7 22.8C24.3 22.6 23.9 22.4 23.6 22.1C22.1 21 20.5 18.8 21.1 14.9C21.6 12.5 21 10.1 19.5 8.2C16.9 5.3 12.5 5.1 9.59999 7.7C9.39999 7.9 9.19999 8.1 8.99999 8.2C7.49999 10.1 6.89999 12.5 7.39999 14.9C7.99999 18.8 6.39999 20.9 4.89999 22.1C4.49999 22.4 4.19999 22.6 3.79999 22.8C5.79999 23.9 8.09999 24.4 10.4 24.2C10.7 24.2 11 24.2 11.2 24.4C11.4 24.6 11.5 24.9 11.5 25.2V27.2C11.5 29 8.89999 29.8 7.89999 29.9C3.49999 30.5 1.39999 31.5 0.899988 32.3C-1.23382e-05 33.8 -0.100012 37.3 -1.23512e-05 39.3H10.7C10.9 37 11.9 34.8 13.5 33.2C15.8 31.1 19.1 30.8 21.7 30.5ZM46.2 34.7C44.4 33.1 41.6 32.8 39.2 32.5C38.1 32.4 37 32.2 35.9 31.9C35.3 31.7 34.7 31.4 34.2 30.9C33 29.6 32.9 27.6 33 26C31.4 26.6 29.7 26.6 28.1 26C28.2 27.5 28.1 29.6 26.9 30.9C26.7 31.1 26.6 31.2 26.4 31.3C25 32 23.5 32.4 22 32.4C19.5 32.7 16.8 33 15 34.6C13.8 35.9 13 37.5 12.9 39.3C12.7 40.8 12.6 42.3 12.7 43.8H48.6C48.7 42.3 48.6 40.8 48.4 39.3C48.1 37.6 47.4 35.9 46.2 34.7ZM59.1 32.3C58.6 31.5 56.5 30.5 52.1 29.9C50.6 29.7 49.6 28.5 49.6 27V25.5C49.6 25 50 24.6 50.4 24.5C50.4 24.5 52.5 24 52.7 19L52.8 17.3V17.2V17C52.8 16.7 53 16.4 53.2 16.2C54.1 14.4 54.3 12.3 53.8 10.3C53.1 7.6 51.3 6.2 48.3 6C47.6 6 47 6 46.3 6C43.3 6.3 41.5 7.7 40.8 10.3C40.3 12.3 40.5 14.4 41.4 16.2C41.7 16.4 41.8 16.7 41.8 17V17.2V17.3L41.9 19C42.1 24 44.2 24.6 44.2 24.6C44.7 24.7 45 25.1 45 25.6V27C45 28.5 43.9 29.7 42.5 29.9C41.4 30 40.4 30.2 39.4 30.5C42 30.8 45.2 31.2 47.5 33.2C49.1 34.9 50.1 37 50.3 39.3H60C60.1 37.3 60.1 33.8 59.1 32.3Z" fill="black"/>
</g>
<defs>
<clipPath id="clip0">
<rect width="60.1" height="43.8" fill="white"/>
</clipPath>
</defs>
</svg>
