<svg xmlns="http://www.w3.org/2000/svg" width="78" height="78" viewBox="0 0 78 78"><defs><style>.a{fill:#f3f5f9;}.b{stroke:#000;stroke-width:0.2px;}</style></defs><g transform="translate(-1149 -135)"><circle class="a" cx="39" cy="39" r="39" transform="translate(1149 135)"/><g transform="translate(1174.133 160.133)"><g transform="translate(2.234 2.234)"><path class="b" d="M53.835,65A11.168,11.168,0,1,1,65,53.835,11.2,11.2,0,0,1,53.835,65Zm0-21.219A10.051,10.051,0,1,0,63.886,53.835,10.009,10.009,0,0,0,53.835,43.784Z" transform="translate(-42.667 -42.667)"/></g><g transform="translate(12.843)"><path class="b" d="M245.891,5.584a.528.528,0,0,1-.558-.558V.558a.558.558,0,0,1,1.117,0V5.026A.528.528,0,0,1,245.891,5.584Z" transform="translate(-245.333)"/></g><g transform="translate(12.843)"><path class="b" d="M245.891,5.584a.528.528,0,0,1-.558-.558V.558a.558.558,0,0,1,1.117,0V5.026A.528.528,0,0,1,245.891,5.584Z" transform="translate(-245.333)"/></g><g transform="translate(21.219 12.843)"><path class="b" d="M410.359,246.45h-4.467a.558.558,0,0,1,0-1.117h4.467a.558.558,0,1,1,0,1.117Z" transform="translate(-405.333 -245.333)"/></g><g transform="translate(12.843 21.219)"><path class="b" d="M245.891,410.917a.528.528,0,0,1-.558-.558v-4.467a.558.558,0,1,1,1.117,0v4.467A.528.528,0,0,1,245.891,410.917Z" transform="translate(-245.333 -405.333)"/></g><g transform="translate(0 12.843)"><path class="b" d="M5.026,246.45H.558a.558.558,0,0,1,0-1.117H5.026a.558.558,0,0,1,0,1.117Z" transform="translate(0 -245.333)"/></g><g transform="translate(10.051 10.051)"><path class="b" d="M195.35,198.7a3.35,3.35,0,1,1,3.35-3.35A3.291,3.291,0,0,1,195.35,198.7Zm0-5.584a2.234,2.234,0,1,0,2.234,2.234A2.24,2.24,0,0,0,195.35,193.117Z" transform="translate(-192 -192)"/></g></g></g></svg>