<svg xmlns="http://www.w3.org/2000/svg" width="17.578" height="20" viewBox="0 0 17.578 20"><defs><style>.a{fill:#6c8bf1;}</style></defs><path class="a" d="M333.344,4.727a2.346,2.346,0,0,0,2.344-2.344,2.344,2.344,0,1,0-4.687,0A2.346,2.346,0,0,0,333.344,4.727Z" transform="translate(-319.281)"/><path class="a" d="M302.192,128.88l.613,7.394h3.422l.613-7.394,1.192-1.192v-3.532a2.965,2.965,0,0,0-1.422-2.538,3.57,3.57,0,0,0-5.609,2.9v3.172Z" transform="translate(-290.453 -116.273)"/><path class="a" d="M35.688,9.414A4.707,4.707,0,1,0,31,4.727,4.693,4.693,0,0,0,35.688,9.414ZM35.1,6.727l-2-2L33.93,3.9,35.1,5.07l2.344-2.344.829.829Z" transform="translate(-31)"/><path class="a" d="M35.688,280.414A4.707,4.707,0,1,0,31,275.688,4.726,4.726,0,0,0,35.688,280.414Zm-2-5.9.829-.829,1.172,1.172,1.172-1.172.829.829-1.172,1.172,1.172,1.172-.829.829-1.172-1.172-1.172,1.172-.829-.829,1.172-1.172Z" transform="translate(-31 -260.414)"/></svg>