<svg xmlns="http://www.w3.org/2000/svg" width="15.456" height="12.078" viewBox="0 0 15.456 12.078"><defs><style>.a{fill:#fff;stroke:#fff;stroke-width:0.5px;}</style></defs><g transform="translate(-144.682 -162.04)"><path class="a" d="M150.386,165c0,.654,0,1.308,0,1.962-.005.526-.251.764-.784.764q-1.912,0-3.824,0a.7.7,0,0,1-.8-.789q0-1.928,0-3.857a.693.693,0,0,1,.776-.784q1.928-.01,3.857,0a.679.679,0,0,1,.778.775C150.391,163.712,150.386,164.355,150.386,165Zm-4.044,1.343h2.671v-2.657h-2.671Z" transform="translate(-0.004)"/><path class="a" d="M250.992,294.848h3.321a.65.65,0,0,1,.649.425.578.578,0,0,1-.138.7.888.888,0,0,1-.528.215c-2.225.014-4.451.012-6.676.008a.676.676,0,1,1,.017-1.346C248.756,294.845,249.874,294.848,250.992,294.848Z" transform="translate(-95.143 -123.738)"/><path class="a" d="M250.933,194.3q-1.613,0-3.226,0c-.52,0-.808-.241-.81-.668s.3-.68.805-.68q3.276,0,6.552,0a.632.632,0,0,1,.675.379,1.033,1.033,0,0,1-.029.655c-.109.277-.392.32-.675.319C253.128,194.3,252.031,194.3,250.933,194.3Z" transform="translate(-95.148 -28.622)"/><path class="a" d="M147.07,276.406c.721-.751,1.437-1.506,2.164-2.25a.664.664,0,0,1,.952-.07.652.652,0,0,1,.045.976q-1.393,1.4-2.815,2.777a.625.625,0,0,1-.923-.026c-.439-.438-.871-.883-1.293-1.339a.67.67,0,0,1-.013-1,.691.691,0,0,1,1,.084c.251.25.5.5.747.755.014.014.04.016.061.024Z" transform="translate(0 -104.2)"/></g></svg>