<svg xmlns="http://www.w3.org/2000/svg" width="19.427" height="16.991" viewBox="0 0 19.427 16.991"><defs><style>.a{fill:#fff;stroke:rgba(0,0,0,0);stroke-miterlimit:10;}</style></defs><g transform="translate(0.5 -32.232)"><circle class="a" cx="3.2" cy="3.2" r="3.2" transform="translate(6.013 32.732)"/><circle class="a" cx="2" cy="2" r="2" transform="translate(13.627 35.132)"/><circle class="a" cx="2" cy="2" r="2" transform="translate(0.8 35.132)"/><path class="a" d="M5.032,241.109a3.335,3.335,0,0,0-2.486-.577A2.542,2.542,0,0,0,0,243.063v4.1a1.1,1.1,0,0,0,1.1,1.1c2.626,0,2.31.048,2.31-.113C3.413,245.242,3.069,243.114,5.032,241.109Z" transform="translate(0 -200.752)"/><path class="a" d="M125.715,239.894a4.848,4.848,0,0,0-3.967,1.016c-1.9,1.648-1.535,3.866-1.535,6.581a1.269,1.269,0,0,0,1.213,1.313c7.313,0,7.6.255,8.038-.784.142-.352.1-.24.1-3.6,0-2.671-2.137-4.523-3.852-4.523Z" transform="translate(-115.678 -200.1)"/><path class="a" d="M380.3,240.533a3.333,3.333,0,0,0-2.486.577c1.949,1.99,1.62,3.973,1.62,7.035,0,.162-.263.113,2.27.113a1.141,1.141,0,0,0,1.142-1.138v-4.056A2.542,2.542,0,0,0,380.3,240.533Z" transform="translate(-364.416 -200.754)"/></g></svg>