<svg xmlns="http://www.w3.org/2000/svg" width="20" height="20" viewBox="0 0 20 20"><defs><style>.a{fill:#4dd869;}</style></defs><g transform="translate(1.211)"><circle class="a" cx="1.5" cy="1.5" r="1.5" transform="translate(7.289 2)"/><path class="a" d="M186.74,181.407a2.922,2.922,0,0,0-5.363,2.109h5.714A2.933,2.933,0,0,0,186.74,181.407Z" transform="translate(-175.448 -172.969)"/><path class="a" d="M31,.938V9.609a.937.937,0,0,0,.938.938h3.794a4.1,4.1,0,0,1,4.058-4.687,2.344,2.344,0,1,1,2.344-2.344,2.346,2.346,0,0,1-2.344,2.344,4.094,4.094,0,0,1,4.056,4.688h3.8a.937.937,0,0,0,.938-.937V.938A.937.937,0,0,0,47.641,0h-15.7A.937.937,0,0,0,31,.938Z" transform="translate(-31)"/></g><g transform="translate(1.211 12.969)"><path class="a" d="M32.918,335.508a1.758,1.758,0,1,1,1.59-1.59A1.76,1.76,0,0,1,32.918,335.508Z" transform="translate(-31 -332)"/></g><g transform="translate(5.898 12.969)"><path class="a" d="M152.918,335.508a1.758,1.758,0,1,1,1.59-1.59A1.76,1.76,0,0,1,152.918,335.508Z" transform="translate(-151 -332)"/></g><g transform="translate(10.586 12.969)"><path class="a" d="M272.918,335.508a1.758,1.758,0,1,1,1.59-1.59A1.76,1.76,0,0,1,272.918,335.508Z" transform="translate(-271 -332)"/></g><g transform="translate(15.273 12.969)"><path class="a" d="M392.918,335.508a1.758,1.758,0,1,1,1.59-1.59A1.76,1.76,0,0,1,392.918,335.508Z" transform="translate(-391 -332)"/></g><path class="a" d="M17.031,422a2.919,2.919,0,0,0-2.344,1.19,2.9,2.9,0,0,0-4.687,0,2.9,2.9,0,0,0-4.687,0A2.919,2.919,0,0,0,2.969,422,2.967,2.967,0,0,0,0,424.93v.586H20v-.586A2.967,2.967,0,0,0,17.031,422Z" transform="translate(0 -405.516)"/></svg>