<svg xmlns="http://www.w3.org/2000/svg" width="18.945" height="20" viewBox="0 0 18.945 20"><defs><style>.a{fill:#e570aa;}</style></defs><path class="a" d="M221.837,5.483a5.48,5.48,0,0,0-10.945-.407,7.847,7.847,0,0,1,6.812,5.89h4.133l-1.382-1.843a5.463,5.463,0,0,0,1.382-3.64Z" transform="translate(-202.892)"/><path class="a" d="M22.3,161.661a6.7,6.7,0,0,0-5.609,11.123L15,175.037h6.7a6.7,6.7,0,0,0,.6-13.376Zm-4.254,4.848H21.7v1.219H18.044Zm7.307,3.657H18.044v-1.219h7.307Z" transform="translate(-15 -155.037)"/></svg>