<svg xmlns="http://www.w3.org/2000/svg" xmlns:xlink="http://www.w3.org/1999/xlink" width="42" height="44" viewBox="0 0 42 44"><defs><style>.a{fill:url(#a);}.b{fill:url(#b);}.c{fill:url(#c);}.d{fill:url(#d);}.e,.f,.g{opacity:0.5;}.e{fill:url(#f);}.f{fill:url(#h);}.g{fill:#e8eef4;}</style><linearGradient id="a" y1="-0.066" x2="1" y2="-0.066" gradientUnits="objectBoundingBox"><stop offset="0" stop-color="#fd5900"/><stop offset="1" stop-color="#ffde00"/></linearGradient><linearGradient id="b" y1="0.196" x2="1" y2="0.196" gradientUnits="objectBoundingBox"><stop offset="0" stop-color="#ffe59a"/><stop offset="1" stop-color="#ffffd5"/></linearGradient><linearGradient id="c" y1="0.5" y2="0.5" xlink:href="#a"/><linearGradient id="d" y1="0.5" x2="1" y2="0.5" gradientUnits="objectBoundingBox"><stop offset="0" stop-color="#5468ff"/><stop offset="1" stop-color="#00ffe5"/></linearGradient><linearGradient id="f" x1="-0.364" y1="0.5" x2="1.364" y2="0.5" xlink:href="#b"/><linearGradient id="h" x1="0" y1="0.5" y2="0.5" xlink:href="#b"/></defs><g transform="translate(-323.9 -209.11)"><g transform="translate(323.9 209.11)"><g transform="translate(0 13.372)"><g transform="translate(0 2.702)"><path class="a" d="M35.827,212.926a3.9,3.9,0,0,1-3.083-1.5,2.785,2.785,0,0,0-2.2-1.059H16.3a1.289,1.289,0,0,1-1.3-1.281v-22.8A1.289,1.289,0,0,1,16.3,185h3.975a1.289,1.289,0,0,1,1.3,1.281v17.251a14.327,14.327,0,0,1,6.481-1.452,13.68,13.68,0,0,1,7.778,2.213A13.68,13.68,0,0,1,43.6,202.08a14.327,14.327,0,0,1,6.481,1.452V186.281a1.289,1.289,0,0,1,1.3-1.281H55.7a1.289,1.289,0,0,1,1.3,1.281v22.8a1.289,1.289,0,0,1-1.3,1.281H40.9a2.387,2.387,0,0,0-1.925.971A3.9,3.9,0,0,1,35.827,212.926Z" transform="translate(-15 -185)"/></g><g transform="translate(4.143 0)"><path class="b" d="M92.164,181.036a9.668,9.668,0,0,0-6.79-2.334,9.661,9.661,0,0,0-6.8,2.342,1.234,1.234,0,0,1-1.806-.008,9.668,9.668,0,0,0-6.79-2.334,9.661,9.661,0,0,0-6.8,2.342,1.227,1.227,0,0,1-1.4.28A1.367,1.367,0,0,1,61,180.069V159.1c0-2.271,5.936-4.1,8.98-4.1a12.855,12.855,0,0,1,7.7,2.362,12.855,12.855,0,0,1,7.7-2.362c3.179,0,8.98,1.907,8.98,4.1v20.967a1.372,1.372,0,0,1-.792,1.263,1.225,1.225,0,0,1-1.4-.3Z" transform="translate(-61 -155)"/></g></g><path class="c" d="M199.543,6.789,200.982,9.7a.467.467,0,0,0,.351.255l3.218.468a.467.467,0,0,1,.259.8l-2.329,2.27a.467.467,0,0,0-.134.413l.55,3.205a.467.467,0,0,1-.677.492l-2.878-1.513a.467.467,0,0,0-.434,0L196.029,17.6a.467.467,0,0,1-.677-.492l.55-3.205a.467.467,0,0,0-.134-.413l-2.329-2.27a.467.467,0,0,1,.259-.8l3.218-.468a.467.467,0,0,0,.351-.255l1.439-2.916A.467.467,0,0,1,199.543,6.789Z" transform="translate(-178.125 -6.528)"/><path class="d" d="M75.29,94.779l.607,1.9a.629.629,0,0,0,.407.407l1.9.607a.629.629,0,0,1,0,1.2l-1.9.607a.629.629,0,0,0-.407.407l-.607,1.9a.629.629,0,0,1-1.2,0l-.607-1.9a.629.629,0,0,0-.407-.407l-1.9-.607a.629.629,0,0,1,0-1.2l1.9-.607a.629.629,0,0,0,.407-.407l.607-1.9A.629.629,0,0,1,75.29,94.779Z" transform="translate(-65.722 -86.753)"/><path class="d" d="M388.1,30.944l.523,1.634a.541.541,0,0,0,.351.351l1.634.523a.542.542,0,0,1,0,1.032l-1.634.523a.542.542,0,0,0-.351.351l-.523,1.634a.542.542,0,0,1-1.032,0l-.523-1.634a.542.542,0,0,0-.351-.351l-1.634-.523a.542.542,0,0,1,0-1.032l1.634-.523a.541.541,0,0,0,.351-.351l.523-1.634A.542.542,0,0,1,388.1,30.944Z" transform="translate(-352.705 -28.402)"/><rect class="e" width="0.681" height="1.177" rx="0.341" transform="translate(7.768 3.828) rotate(90)"/><rect class="e" width="0.681" height="1.177" rx="0.341" transform="translate(5.973 3.828) rotate(90)"/><rect class="f" width="0.681" height="1.177" rx="0.341" transform="translate(5.951 2.839)"/><rect class="f" width="0.681" height="1.177" rx="0.341" transform="translate(5.951 4.337)"/><rect class="g" width="0.876" height="1.514" rx="0.438" transform="translate(34.947 11.019) rotate(90)"/><rect class="g" width="0.876" height="1.514" rx="0.438" transform="translate(32.734 11.019) rotate(90)"/><rect class="g" width="0.876" height="1.514" rx="0.438" transform="translate(32.665 9.786)"/><rect class="g" width="0.876" height="1.514" rx="0.438" transform="translate(32.665 11.645)"/></g></g></svg>