<svg xmlns="http://www.w3.org/2000/svg" width="13.2" height="13.2" viewBox="0 0 13.2 13.2"><defs><style>.a{fill:none;stroke:#000;stroke-linecap:round;stroke-linejoin:round;stroke-width:1.2px;}</style></defs><g transform="translate(-2.4 -2.4)"><path class="a" d="M14.644,13.5h5.15a1.144,1.144,0,0,1,1.144,1.144v5.15a1.144,1.144,0,0,1-1.144,1.144h-5.15A1.144,1.144,0,0,1,13.5,19.794v-5.15A1.144,1.144,0,0,1,14.644,13.5Z" transform="translate(-5.939 -5.939)"/><path class="a" d="M4.717,10.439H4.144A1.144,1.144,0,0,1,3,9.294V4.144A1.144,1.144,0,0,1,4.144,3h5.15a1.144,1.144,0,0,1,1.144,1.144v.572"/></g></svg>