<svg xmlns="http://www.w3.org/2000/svg" width="12.94" height="14.807" viewBox="0 0 12.94 14.807"><g transform="translate(-135.804 -150.385)"><path d="M136.882,172.461c-.2,0-.359.01-.511,0a.57.57,0,0,1-.567-.563.525.525,0,0,1,.595-.512q5.873,0,11.746,0a.535.535,0,0,1,.6.513.567.567,0,0,1-.564.564c-.153.012-.307,0-.513,0v.466q0,4.641,0,9.281a2.194,2.194,0,0,1-2.35,2.361q-3.062,0-6.123,0a2.2,2.2,0,0,1-2.313-2.32q0-4.679,0-9.359Zm1.08.02v.38q0,4.678,0,9.356a1.125,1.125,0,0,0,1.285,1.269q3.042,0,6.084,0a1.122,1.122,0,0,0,1.254-1.259q0-4.7,0-9.395c0-.112-.009-.224-.015-.352Z" transform="translate(0 -19.379)"/><path d="M187.526,150.387c.692,0,1.384,0,2.077,0,.37,0,.593.195.607.5a.558.558,0,0,1-.592.572q-2.1.014-4.192,0a.558.558,0,0,1-.606-.557c.006-.32.234-.515.629-.518C186.141,150.383,186.834,150.386,187.526,150.387Z" transform="translate(-45.24 0)"/><path d="M238.331,219.9c0,.859.006,1.719,0,2.578,0,.48-.38.787-.739.578a.756.756,0,0,1-.328-.542c-.025-1.744-.02-3.489-.014-5.233,0-.4.24-.656.56-.643s.514.253.517.645c.007.872,0,1.744,0,2.617Z" transform="translate(-93.626 -61.148)"/><path d="M188.273,220.3q0-1.308,0-2.615c0-.287.118-.532.408-.568a.813.813,0,0,1,.537.183.6.6,0,0,1,.133.42q.011,2.6,0,5.192c0,.422-.208.64-.555.63-.329-.01-.518-.223-.521-.627C188.268,222.042,188.272,221.17,188.273,220.3Z" transform="translate(-48.425 -61.587)"/></g></svg>