<svg xmlns="http://www.w3.org/2000/svg" width="20" height="17.412" viewBox="0 0 20 17.412"><defs><style>.a{fill:#58b7ff;}</style></defs><path class="a" d="M239.211,191.583l0-.008-.794-2.414v-5.911a1.76,1.76,0,0,0-1.758-1.758h-5.131v2.876a2.933,2.933,0,0,1-2.93,2.93h-.416v2.827a1.76,1.76,0,0,0,1.758,1.758H235.9l1.535,1.021a1.158,1.158,0,0,0,1.355-.029A1.158,1.158,0,0,0,239.211,191.583Zm-3.988-2.082a.586.586,0,0,1-.755-.341l-.255-.676h-1.784l-.258.678a.586.586,0,0,1-1.1-.417l1.614-4.237.005-.013a.683.683,0,0,1,1.264,0l.006.016,1.6,4.237a.586.586,0,0,1-.341.755Z" transform="translate(-219.267 -175.697)"/><path class="a" d="M348.379,301.436h.9l-.446-1.18Z" transform="translate(-334.77 -289.821)"/><path class="a" d="M9.329,33.125H2.611A1.76,1.76,0,0,0,.853,34.883v5.95L.058,43.247l0,.008a1.158,1.158,0,0,0,.42,1.292,1.158,1.158,0,0,0,1.355.029l1.535-1.022H9.329A1.76,1.76,0,0,0,11.087,41.8V34.883a1.76,1.76,0,0,0-1.758-1.758Zm-.914,7.818a.586.586,0,0,1-.829,0l-.257-.257a2.737,2.737,0,1,1,.821-.836l.264.264A.586.586,0,0,1,8.415,40.943Z" transform="translate(0 -33.125)"/><path class="a" d="M111.011,128.155a1.561,1.561,0,1,0,.632,2.989l-.257-.257a.586.586,0,0,1,.829-.829l.243.243a1.561,1.561,0,0,0-1.447-2.146Z" transform="translate(-105.175 -124.443)"/></svg>