<svg xmlns="http://www.w3.org/2000/svg" width="18" height="20" viewBox="0 0 18 20"><defs><style>.a{fill:#e9ac1e;}</style></defs><path class="a" d="M40.648,0H27.41a2.364,2.364,0,0,0-2.381,2.347V13.192a3.055,3.055,0,0,1,2.191-.922H40.838a3.056,3.056,0,0,1,2.19.922V2.347A2.364,2.364,0,0,0,40.648,0ZM34.013,9.5A3.24,3.24,0,1,1,37.3,6.261,3.232,3.232,0,0,1,34.013,9.5Z" transform="translate(-25.029 0)"/><path class="a" d="M40.838,317.591H27.22a2.16,2.16,0,0,0-2.191,2.128v2.332a2.16,2.16,0,0,0,2.191,2.128H40.838a2.159,2.159,0,0,0,2.191-2.128h0v-2.332A2.16,2.16,0,0,0,40.838,317.591Zm-11.525,4.564h-1.7v-2.647h1.7v2.647Zm3.244,0h-1.7v-2.647h1.7v2.647Z" transform="translate(-25.029 -304.18)"/></svg>