<svg xmlns="http://www.w3.org/2000/svg" width="77" height="32" viewBox="0 0 77 32"><defs><style>.a{fill:#ff9c64;}.b{font-size:12px;font-family:Roboto-Regular, Roboto;}.c{fill:none;stroke:#000;stroke-linecap:round;stroke-linejoin:round;stroke-width:1.2px;}</style></defs><g transform="translate(-1281 -147)"><rect class="a" width="77" height="32" rx="7" transform="translate(1281 147)"/><text class="b" transform="translate(1322 168)"><tspan x="0" y="0">Edit</tspan></text><g transform="translate(1291 150.182)"><path class="c" d="M11.051,6H4.789A1.789,1.789,0,0,0,3,7.789V20.313A1.789,1.789,0,0,0,4.789,22.1H17.313A1.789,1.789,0,0,0,19.1,20.313V14.051" transform="translate(0 -1.284)"/><path class="c" d="M21.393,3.374a1.9,1.9,0,0,1,2.684,2.684l-8.5,8.5L12,15.451l.895-3.578Z" transform="translate(-3.632)"/></g></g></svg>