<svg xmlns="http://www.w3.org/2000/svg" width="371.065" height="375.913" viewBox="0 0 371.065 375.913"><defs><style>.a{fill:#e9e9e9;}.b{fill:#ffc100;}.c{opacity:0.8;}.d{fill:#fff;}.e{fill:#263238;}.f{opacity:0.2;}.g{fill:#455a64;}.h{fill:none;}.i{fill:#f5f5f5;}.j{opacity:0.3;}.k{fill:#fafafa;}.l{fill:#ffbe9d;}.m{fill:#eb996e;}.n{opacity:0.78;}.o{opacity:0.5;}</style></defs><g transform="translate(0 0)"><ellipse class="a" cx="20.018" cy="20.018" rx="20.018" ry="20.018" transform="translate(91.306 207.27)"/><ellipse class="a" cx="17.643" cy="17.643" rx="17.643" ry="17.643" transform="translate(0 152.379)"/><ellipse class="a" cx="9.468" cy="9.468" rx="9.468" ry="9.468" transform="translate(246.148 136.697)"/><ellipse class="a" cx="9.468" cy="9.468" rx="9.468" ry="9.468" transform="translate(203.389 8.564)"/><ellipse class="a" cx="18.032" cy="18.032" rx="18.032" ry="18.032" transform="translate(91.174)"/><ellipse class="a" cx="17.609" cy="17.609" rx="17.609" ry="17.609" transform="translate(333.678 167.68)"/><ellipse class="a" cx="16.003" cy="16.003" rx="16.003" ry="16.003" transform="translate(60.706 82.12)"/><ellipse class="a" cx="29.258" cy="29.258" rx="29.258" ry="29.258" transform="translate(295.254 16.033)"/></g><g transform="translate(1.784 5.881)"><path class="b" d="M197.74,227.16a3.237,3.237,0,0,0,.313.516l.972,1.429c.845,1.234,2.088,3,3.644,5.182,3.111,4.354,7.465,10.322,12.41,16.814s9.561,12.275,13.044,16.35c1.741,2.029,3.162,3.669,4.227,4.751l1.184,1.251a3.919,3.919,0,0,0,.44.414,3.867,3.867,0,0,0-.372-.473l-1.124-1.31c-.989-1.116-2.367-2.781-4.083-4.827-3.381-4.117-7.98-9.925-12.926-16.417S206.126,238.4,202.956,234.1l-3.762-5.072c-.431-.566-.769-1.023-1.031-1.378A3,3,0,0,0,197.74,227.16Z" transform="translate(-4.039 -63.865)"/><path class="b" d="M265.747,107.22c-.118,0,.414,4.548,1.192,10.144s1.5,10.068,1.623,10.051-.414-4.548-1.192-10.144S265.865,107.2,265.747,107.22Z" transform="translate(-96.123 -45.319)"/><path class="b" d="M300.67,100.27a5.788,5.788,0,0,0,.566.49c.406.338.964.786,1.691,1.353L309.1,107l20.458,16,20.509,15.927,6.256,4.776,1.691,1.277a3.66,3.66,0,0,0,.617.423,5.789,5.789,0,0,0-.566-.49l-1.691-1.344-6.171-4.895-20.467-16-20.543-15.9-6.247-4.776-1.691-1.277A4.547,4.547,0,0,0,300.67,100.27Z" transform="translate(-215.71 -44.245)"/><path class="b" d="M308.12,166.109c0,.118,20.7,1.843,46.267,3.838s46.293,3.525,46.3,3.382-20.7-1.834-46.267-3.838S308.128,166.016,308.12,166.109Z" transform="translate(-264.068 -54.424)"/><path class="b" d="M303.71,222.667c.051.11,8.843-4.269,19.621-9.773s19.444-10.051,19.444-10.144-8.834,4.227-19.621,9.764S303.643,222.557,303.71,222.667Z" transform="translate(-202.426 -60.09)"/><path class="b" d="M181.57,133.069a4.06,4.06,0,0,0,.431-.524l1.175-1.539c1.006-1.353,2.452-3.314,4.227-5.749,3.542-4.869,8.361-11.649,13.526-19.232s9.773-14.532,13.036-19.6c1.632-2.536,2.933-4.59,3.821-6.019.431-.685.769-1.243,1.023-1.648a3.013,3.013,0,0,0,.321-.592,4.97,4.97,0,0,0-.4.541l-1.091,1.606c-.955,1.446-2.291,3.466-3.939,5.918-3.322,5.022-7.947,11.937-13.137,19.52s-9.967,14.371-13.441,19.3l-4.117,5.825-1.107,1.589A3.188,3.188,0,0,0,181.57,133.069Z" transform="translate(24.473 -40.827)"/><path class="b" d="M182.56,159.8c.051.11,5.808-2.536,12.858-5.808s12.681-6.1,12.681-6.214-5.808,2.494-12.858,5.808S182.51,159.708,182.56,159.8Z" transform="translate(34.667 -51.59)"/><path class="b" d="M106.38,179.158c0,.118,19.444-1.522,43.342-3.669s43.325-3.982,43.317-4.1-19.444,1.513-43.351,3.66S106.372,179.031,106.38,179.158Z" transform="translate(114.127 -55.241)"/><path class="b" d="M156,208c-.051.11,11.472,5.123,25.733,11.2s25.86,10.922,25.911,10.779-11.472-5.131-25.742-11.21S156.076,207.9,156,208Z" transform="translate(57.575 -60.902)"/><ellipse class="b" cx="42.243" cy="42.243" rx="42.243" ry="42.243" transform="translate(136.021 81.674)"/><g class="c" transform="translate(136.021 81.674)"><ellipse class="d" cx="42.243" cy="42.243" rx="42.243" ry="42.243" transform="translate(0)"/></g><path class="b" d="M237.612,165.693a16.781,16.781,0,1,1,18.311,21.616l-1.26,4.041-14.025-4.4s.626-2.291,1.226-4.328A16.756,16.756,0,0,1,237.612,165.693Z" transform="translate(-73.55 -52.537)"/><path class="e" d="M251.314,191.518l.051-.2a4.04,4.04,0,0,1,.11-.6c.1-.533.245-1.3.4-2.308s.338-2.24.448-3.686a24.147,24.147,0,0,0-.068-4.912,16.047,16.047,0,0,0-.566-2.807,3.075,3.075,0,0,0-.786-1.319,1.751,1.751,0,0,0-1.539-.431,1.155,1.155,0,0,0-.71.482,1.209,1.209,0,0,0-.186.845,2.39,2.39,0,0,0,.9,1.454,4.581,4.581,0,0,0,3.382.8,4.649,4.649,0,0,0,3.094-1.97,3.456,3.456,0,0,0,.668-1.818,1.5,1.5,0,0,0-1.107-1.564,1.057,1.057,0,0,0-.989.313,1.521,1.521,0,0,0-.44.947,3.254,3.254,0,0,0,.634,1.936,4.979,4.979,0,0,0,3.382,2.249,4.353,4.353,0,0,0,3.821-1.344,2.535,2.535,0,0,0,.71-1.9,1.226,1.226,0,0,0-1.271-1.179,1.2,1.2,0,0,0-.226.03,1.688,1.688,0,0,0-.9.5,2.594,2.594,0,0,0-.533.845,4.886,4.886,0,0,0-.321,1.9,4.973,4.973,0,0,0,1.42,3.382,5.074,5.074,0,0,0,3.17,1.488,2.643,2.643,0,0,0,1.691-.313,1.285,1.285,0,0,0,.566-1.513,1.048,1.048,0,0,0-.609-.575,1.492,1.492,0,0,0-.845-.093,2.4,2.4,0,0,0-1.319.795c-.676.744-1.26,1.488-1.843,2.19-2.283,2.832-4.024,5.208-5.207,6.864-.583.845-1.04,1.471-1.336,1.919l-.347.5-.11.178a1.3,1.3,0,0,0,.127-.161l.363-.5,1.429-1.894c1.2-1.64,2.959-4,5.258-6.814.575-.7,1.175-1.446,1.834-2.173a2.319,2.319,0,0,1,1.234-.744,1.158,1.158,0,0,1,1.243.566,1.125,1.125,0,0,1-.507,1.3,2.536,2.536,0,0,1-1.572.287,4.907,4.907,0,0,1-3.052-1.446,4.793,4.793,0,0,1-1.361-3.255,4.646,4.646,0,0,1,.313-1.826,1.842,1.842,0,0,1,1.285-1.217,1.056,1.056,0,0,1,.845.178,1.083,1.083,0,0,1,.4.786,2.333,2.333,0,0,1-.659,1.75,4.159,4.159,0,0,1-3.635,1.277,4.8,4.8,0,0,1-3.255-2.156,3.078,3.078,0,0,1-.6-1.809,1.284,1.284,0,0,1,.38-.845.844.844,0,0,1,.8-.262,1.173,1.173,0,0,1,.719.507,1.518,1.518,0,0,1,.237.845,3.433,3.433,0,0,1-.634,1.691,4.421,4.421,0,0,1-6.138,1.19l-.084-.057a2.168,2.168,0,0,1-.845-1.327,1,1,0,0,1,.761-1.133,1.571,1.571,0,0,1,1.378.38,2.9,2.9,0,0,1,.752,1.251,15.536,15.536,0,0,1,.575,2.781,25.283,25.283,0,0,1,.1,4.878c-.11,1.446-.271,2.671-.414,3.677s-.279,1.775-.364,2.316a2.9,2.9,0,0,1-.093.6Z" transform="translate(-79.129 -55.562)"/><path class="e" d="M256.7,196.161l12.055,3.753a.964.964,0,0,0,1.192-.626h0a.947.947,0,0,0-.626-1.184l-12.055-3.753a.938.938,0,0,0-1.18.607l0,.01h0a.946.946,0,0,0,.613,1.19Z" transform="translate(-89.344 -58.785)"/><path class="e" d="M258.239,197.422l12.055,3.753a.964.964,0,0,1,.626,1.192.939.939,0,0,1-1.173.621l-.01,0-1.327-.406-2.8,2.79a1.209,1.209,0,0,1-1.217.3l-4.311-1.344a1.209,1.209,0,0,1-.845-.955l-.668-3.863-.9-.279a.939.939,0,0,1-.62-1.173l0-.01a.948.948,0,0,1,1.183-.629Z" transform="translate(-91.126 -59.26)"/><g class="f" transform="translate(187.733 106.287)"><path class="d" d="M244.548,164.582a12.469,12.469,0,0,0-2.536-3.128,9.078,9.078,0,0,0-2.24-1.488c-.592-.254-.955-.3-1.023-.178-.161.262.921,1.074,2.215,2.68a13.814,13.814,0,0,1,1.978,14.8c-.845,1.885-1.691,2.95-1.437,3.17.1.093.431,0,.938-.44a8.977,8.977,0,0,0,1.775-2.029,12.241,12.241,0,0,0,1.632-3.686,12.994,12.994,0,0,0,.321-4.979" transform="translate(-238.733 -159.725)"/></g><g class="f" transform="translate(181.899 103.71)"><path class="d" d="M251.487,158.8c1.014.313,2,.313,2.274-.194.127-.254,0-.592-.271-.93a3.37,3.37,0,0,0-3.035-.93c-.431.11-.71.338-.744.626" transform="translate(-249.712 -156.677)"/></g><path class="g" d="M264,204.862h.9a7.194,7.194,0,0,1,2.13.372,7.34,7.34,0,0,1,1.911,1.006,7.774,7.774,0,0,0,.719.558,2.59,2.59,0,0,0-.634-.668,6.167,6.167,0,0,0-1.927-1.091,6.261,6.261,0,0,0-2.2-.33A2.769,2.769,0,0,0,264,204.862Z" transform="translate(-95.745 -60.393)"/><path class="g" d="M260.18,199.939c0,.059,2.156.778,4.836,1.615s4.886,1.471,4.9,1.42-2.147-.778-4.836-1.615S260.2,199.889,260.18,199.939Z" transform="translate(-92.77 -59.656)"/><path class="g" d="M261.76,201.91a6.924,6.924,0,0,0,1.15.49c.719.279,1.691.634,2.84,1s2.139.676,2.883.845a7.057,7.057,0,0,0,1.217.279,7.728,7.728,0,0,0-1.175-.423l-2.857-.93-2.857-.938A9.071,9.071,0,0,0,261.76,201.91Z" transform="translate(-94.038 -59.961)"/><path class="b" d="M142.85,54.9a1.433,1.433,0,0,0,0-.33,8.5,8.5,0,0,1,.076-.989l.068-.727a5.462,5.462,0,0,1,.135-.845,14.634,14.634,0,0,1,.44-2.139,19.864,19.864,0,0,1,2.308-5.486A20.584,20.584,0,0,1,170.6,35.606a21.376,21.376,0,0,1,2.68,1.184,20.614,20.614,0,0,1,2.536,1.623,21.331,21.331,0,0,1,2.325,1.978,23,23,0,0,1,2.046,2.367,20.185,20.185,0,0,1,2.933,5.656,20.429,20.429,0,0,1,0,12.968,20.033,20.033,0,0,1-2.933,5.664,26.015,26.015,0,0,1-2.012,2.384,24.441,24.441,0,0,1-2.333,1.978,21.577,21.577,0,0,1-2.536,1.623,22.6,22.6,0,0,1-2.68,1.175A20.563,20.563,0,0,1,145.9,65.439a19.879,19.879,0,0,1-2.308-5.495,14.521,14.521,0,0,1-.44-2.13c-.051-.313-.1-.6-.135-.845l-.042-.719c0-.423-.059-.744-.076-.989a1.614,1.614,0,0,0,0-.338v2.063a6.531,6.531,0,0,0,.118.845,14.462,14.462,0,0,0,.4,2.156,19.719,19.719,0,0,0,2.266,5.579,20.92,20.92,0,0,0,25.057,9.062,23.6,23.6,0,0,0,2.739-1.2,21.348,21.348,0,0,0,2.536-1.648,22.272,22.272,0,0,0,2.384-2.02,22.944,22.944,0,0,0,2.063-2.426,20.227,20.227,0,0,0,3-5.782,20.783,20.783,0,0,0,0-13.239,20.064,20.064,0,0,0-3-5.774A22.853,22.853,0,0,0,178.4,40.1a23.222,23.222,0,0,0-2.384-2.012,21.349,21.349,0,0,0-2.536-1.648,22.273,22.273,0,0,0-2.739-1.2,20.872,20.872,0,0,0-25.074,9.029,19.777,19.777,0,0,0-2.266,5.571,14.569,14.569,0,0,0-.4,2.164c-.042.313-.093.609-.118.845a7.114,7.114,0,0,0,0,.735v.989A3.16,3.16,0,0,0,142.85,54.9Z" transform="translate(91.792 -33.997)"/><path class="e" d="M157.443,54.944a10.415,10.415,0,0,1,.245-1.572,6.3,6.3,0,0,1,.727-1.691,6.5,6.5,0,0,1,1.64-1.818,6.4,6.4,0,0,1,6.07-.964,5.8,5.8,0,0,1,1.623.845,7.225,7.225,0,0,1,.727.617,7.628,7.628,0,0,1,.626.744,6.384,6.384,0,0,1,0,7.608,7.628,7.628,0,0,1-.626.744,7.227,7.227,0,0,1-.727.617,5.8,5.8,0,0,1-1.623.845,6.433,6.433,0,0,1-7.71-2.722,6.3,6.3,0,0,1-.727-1.691,10.3,10.3,0,0,1-.245-1.581v.423a2.734,2.734,0,0,0,0,.5,6.574,6.574,0,0,0,.127.676,6.283,6.283,0,0,0,.7,1.75,6.555,6.555,0,0,0,7.879,2.849,6.116,6.116,0,0,0,1.691-.9,7.694,7.694,0,0,0,.752-.634,8.091,8.091,0,0,0,.651-.761,6.57,6.57,0,0,0,0-7.8,8.091,8.091,0,0,0-.651-.761,7.694,7.694,0,0,0-.752-.634,6.116,6.116,0,0,0-1.691-.9,6.561,6.561,0,0,0-7.879,2.849,6.284,6.284,0,0,0-.7,1.75,6.148,6.148,0,0,0-.127.676,2.734,2.734,0,0,0,0,.5v.431Z" transform="translate(93.481 -36.217)"/><path class="e" d="M176.668,61.76c-.042,0-1.454,1.31-3.162,3.018s-3.069,3.128-3.026,3.162,1.454-1.31,3.162-3.018S176.7,61.794,176.668,61.76Z" transform="translate(76.31 -38.29)"/><ellipse class="h" cx="27.762" cy="27.762" rx="27.762" ry="27.762" transform="translate(307.167 85.039)"/><path class="b" d="M40.451,162.313v-.448c0-.3.051-.752.093-1.319a5.7,5.7,0,0,1,.059-.972c.059-.355.11-.735.178-1.158a19.219,19.219,0,0,1,.575-2.866,26.636,26.636,0,0,1,3.077-7.355,27.762,27.762,0,0,1,18.649-12.977,24.722,24.722,0,0,1,3.483-.4c.6,0,1.192-.085,1.8-.076l1.826.1a4.868,4.868,0,0,1,.921.059l.913.135c.617.11,1.243.178,1.86.3a30.621,30.621,0,0,1,7.27,2.663c.575.313,1.133.685,1.691,1.023a14.514,14.514,0,0,1,1.691,1.15,29.924,29.924,0,0,1,3.128,2.654,30.683,30.683,0,0,1,2.7,3.2A26.728,26.728,0,0,1,94.3,153.64a27.325,27.325,0,0,1,0,17.389,26.663,26.663,0,0,1-3.939,7.608,31.469,31.469,0,0,1-2.7,3.2,31.016,31.016,0,0,1-3.128,2.654,13.808,13.808,0,0,1-1.691,1.15c-.583.338-1.141.7-1.691,1.023a28.71,28.71,0,0,1-3.6,1.581,30.27,30.27,0,0,1-3.669,1.082c-.617.127-1.243.194-1.86.3l-.913.144c-.313.042-.617.042-.921.059l-1.826.093c-.609,0-1.209-.042-1.8-.068a26.05,26.05,0,0,1-3.483-.4,27.728,27.728,0,0,1-18.649-12.985,26.426,26.426,0,0,1-3.077-7.355,19.239,19.239,0,0,1-.575-2.857c-.068-.423-.144-.8-.178-1.167s0-.676-.059-.964c0-.566-.068-1.006-.093-1.319a1.923,1.923,0,0,1,0-.448V165.1a11.086,11.086,0,0,0,.152,1.167,19.289,19.289,0,0,0,.549,2.883,26.213,26.213,0,0,0,3.026,7.439,27.9,27.9,0,0,0,18.877,13.171,26.553,26.553,0,0,0,3.534.423c.6,0,1.209.076,1.818.068l1.851-.085a4.868,4.868,0,0,0,.93-.059l.938-.144c.617-.1,1.251-.169,1.877-.3a28.389,28.389,0,0,0,3.737-1.082,28.81,28.81,0,0,0,3.61-1.6c.592-.321,1.158-.693,1.741-1.04a14.232,14.232,0,0,0,1.691-1.158,27.006,27.006,0,0,0,5.96-5.926,26.885,26.885,0,0,0,4.007-7.71,27.69,27.69,0,0,0,0-17.66,26.992,26.992,0,0,0-4.007-7.71A32.651,32.651,0,0,0,88,142.506a32.57,32.57,0,0,0-3.179-2.688,15.05,15.05,0,0,0-1.691-1.167c-.583-.347-1.15-.719-1.741-1.031a28.883,28.883,0,0,0-3.652-1.6A29.762,29.762,0,0,0,74,134.932c-.626-.127-1.26-.194-1.877-.3l-.93-.144c-.313-.042-.626-.042-.938-.059l-1.851-.093c-.609,0-1.217.051-1.818.076a25.469,25.469,0,0,0-3.534.423,27.964,27.964,0,0,0-18.793,13.2,26.416,26.416,0,0,0-3.026,7.439,19.2,19.2,0,0,0-.549,2.891c-.051.423-.127.845-.152,1.167s0,.685,0,.972v1.327A1.05,1.05,0,0,1,40.451,162.313Z" transform="translate(266.716 -49.513)"/><ellipse class="i" cx="14.803" cy="14.803" rx="14.803" ry="14.803" transform="translate(320.042 98.679)"/><path class="e" d="M56.115,165.53s0-.33.068-.947a6.977,6.977,0,0,1,.118-1.133,12.093,12.093,0,0,1,.313-1.53,13.958,13.958,0,0,1,1.64-3.931,14.72,14.72,0,0,1,17.685-6.29,14.062,14.062,0,0,1,3.72,2,13.231,13.231,0,0,1,3.111,3.128,14.651,14.651,0,0,1,0,17.4,18.737,18.737,0,0,1-1.446,1.691,17.722,17.722,0,0,1-1.691,1.42,14.062,14.062,0,0,1-3.72,2,14.768,14.768,0,0,1-17.694-6.3,13.961,13.961,0,0,1-1.632-3.931,11.964,11.964,0,0,1-.313-1.522,7.08,7.08,0,0,1-.118-1.141c-.042-.617-.068-.938-.068-.938v.947a6.884,6.884,0,0,0,.1,1.141,10.584,10.584,0,0,0,.3,1.53A14.14,14.14,0,0,0,58.1,173.1a14.818,14.818,0,0,0,17.829,6.4,14.032,14.032,0,0,0,3.77-2.02,17.13,17.13,0,0,0,1.691-1.437,16.761,16.761,0,0,0,1.462-1.691,14.8,14.8,0,0,0,0-17.6,16.183,16.183,0,0,0-1.462-1.691,15.749,15.749,0,0,0-1.691-1.437,14.154,14.154,0,0,0-3.77-2.02A14.81,14.81,0,0,0,58.11,158a13.964,13.964,0,0,0-1.564,3.948,10.47,10.47,0,0,0-.3,1.539,6.794,6.794,0,0,0-.1,1.141C56.123,165.2,56.115,165.53,56.115,165.53Z" transform="translate(263.927 -52.044)"/><path class="h" d="M71.871,156.8a9.671,9.671,0,1,1-9.671,9.671A9.671,9.671,0,0,1,71.871,156.8Z" transform="translate(262.973 -52.986)"/><path class="b" d="M71.882,156.789a7.447,7.447,0,0,0-2.376.22,9.757,9.757,0,0,0-6.89,12.807,9.78,9.78,0,0,0,15.065,4.59,9.324,9.324,0,0,0,2.1-2.088,9.545,9.545,0,0,0,1.336-2.536,9.768,9.768,0,0,0-6.89-12.816,7.5,7.5,0,0,0-2.384-.22,17.413,17.413,0,0,1,2.342.389,9.614,9.614,0,0,1,6.983,7.532,9.464,9.464,0,0,1-.431,4.971,9.03,9.03,0,0,1-1.293,2.392,8.847,8.847,0,0,1-1.944,2.037,9.385,9.385,0,0,1-11.167,0,8.684,8.684,0,0,1-2.012-2,8.778,8.778,0,0,1-1.293-2.392,9.468,9.468,0,0,1,1.327-8.978,9.6,9.6,0,0,1,5.224-3.525A17.49,17.49,0,0,1,71.882,156.789Z" transform="translate(262.963 -52.975)"/><path class="h" d="M73.079,164.61a3.069,3.069,0,1,1-3.069,3.069,3.068,3.068,0,0,1,3.069-3.069Z" transform="translate(261.766 -54.193)"/><path class="b" d="M73.035,164.6a1.354,1.354,0,0,0-.769,0,3.122,3.122,0,0,0-1.792,1.107,3.214,3.214,0,0,0-.507,3.069,3.263,3.263,0,0,0,6.146,0,3.2,3.2,0,0,0-.516-3.069A3.071,3.071,0,0,0,73.8,164.6a1.384,1.384,0,0,0-.769,0,2.195,2.195,0,0,1,.727.178,3.05,3.05,0,0,1,1.589,1.124,2.883,2.883,0,1,1-4.633,0,3.084,3.084,0,0,1,1.589-1.124C72.731,164.642,73.035,164.634,73.035,164.6Z" transform="translate(261.809 -54.183)"/><path class="i" d="M70.775,178.909c-5.115-3.567-10.66-7.1-15.775-10.669" transform="translate(279.827 -54.755)"/><path class="e" d="M55,168.24s3.483,2.46,7.845,5.41,7.913,5.3,7.913,5.258-3.474-2.46-7.837-5.41S55.034,168.2,55,168.24Z" transform="translate(279.844 -54.754)"/><path class="e" d="M52.68,179.6a9.029,9.029,0,0,0,1.826,0,9.187,9.187,0,0,0,1.826-.152,9.025,9.025,0,0,0-1.826,0A9.182,9.182,0,0,0,52.68,179.6Z" transform="translate(296.231 -56.481)"/><path class="e" d="M56.833,182.029a4.506,4.506,0,0,0-.178-1.251,4.286,4.286,0,0,0-.355-1.217,4.747,4.747,0,0,0,.186,1.251A4.841,4.841,0,0,0,56.833,182.029Z" transform="translate(292.671 -56.505)"/><path class="e" d="M57.817,181.677a5.562,5.562,0,0,0-.152-1.31,5.431,5.431,0,0,0-.313-1.277,4.854,4.854,0,0,0,.144,1.31A4.757,4.757,0,0,0,57.817,181.677Z" transform="translate(290.799 -56.432)"/><path class="e" d="M57.372,178.39a5.209,5.209,0,0,0-1.268.211,4.582,4.582,0,0,0-1.234.38,4.365,4.365,0,0,0,1.268-.211A4.582,4.582,0,0,0,57.372,178.39Z" transform="translate(293.34 -56.324)"/><circle class="h" cx="16.096" cy="16.096" r="16.096" transform="translate(263.62 106.61) rotate(-157.77)"/><path class="b" d="M148.959,132.314a1.233,1.233,0,0,0,0-.262c0-.194.042-.448.068-.761a6.713,6.713,0,0,1,.144-1.226,10.38,10.38,0,0,1,.347-1.691,15.3,15.3,0,0,1,1.792-4.227,15.91,15.91,0,0,1,19.122-6.763,14.877,14.877,0,0,1,4.024,2.164,17.911,17.911,0,0,1,1.851,1.53,19.361,19.361,0,0,1,1.555,1.843,15.808,15.808,0,0,1,0,18.767,18.279,18.279,0,0,1-1.555,1.843,18.062,18.062,0,0,1-1.8,1.53,14.926,14.926,0,0,1-4.024,2.173,15.96,15.96,0,0,1-19.122-6.763,15.266,15.266,0,0,1-1.792-4.227,10.768,10.768,0,0,1-.347-1.691,6.8,6.8,0,0,1-.144-1.234,7.035,7.035,0,0,0-.068-.761,1.357,1.357,0,0,0,0-.262,1.233,1.233,0,0,0,0,.262v.769a8.052,8.052,0,0,0,.1,1.243,11.359,11.359,0,0,0,.313,1.691,15.153,15.153,0,0,0,1.75,4.337,16.2,16.2,0,0,0,19.477,7.025,15.139,15.139,0,0,0,4.125-2.215,16.172,16.172,0,0,0,1.851-1.564,18.345,18.345,0,0,0,1.606-1.894,16.2,16.2,0,0,0,0-19.275,18.345,18.345,0,0,0-1.606-1.894,19.221,19.221,0,0,0-1.851-1.564,15.1,15.1,0,0,0-4.125-2.206,16.176,16.176,0,0,0-19.477,7.025,15.011,15.011,0,0,0-1.75,4.328,11.359,11.359,0,0,0-.313,1.691,8.161,8.161,0,0,0-.1,1.251v.761A1.215,1.215,0,0,0,148.959,132.314Z" transform="translate(89.757 -46.684)"/><path class="i" d="M165.81,134.252a3.753,3.753,0,0,1-2.24-3.483,3.534,3.534,0,1,1,7.05-.489,3.626,3.626,0,0,1,0,.489,3.754,3.754,0,0,1-2.249,3.517c5.427.845,5.182,6.712,5.182,6.712l-12.833.059S160.425,135.063,165.81,134.252Z" transform="translate(87.675 -48.376)"/><path class="e" d="M165.8,134.251a6.247,6.247,0,0,0-2.376.845,5.542,5.542,0,0,0-1.944,2.181,8.334,8.334,0,0,0-.845,3.77v.059h12.985v-.076a8.311,8.311,0,0,0-.795-3.635,5.581,5.581,0,0,0-1.86-2.19,6.664,6.664,0,0,0-2.6-.981v.161A3.847,3.847,0,0,0,170.656,131a3.92,3.92,0,0,0-1.615-3.382,3.431,3.431,0,0,0-3.382-.347,3.742,3.742,0,0,0-1.978,2.173,4.049,4.049,0,0,0-.093,2.418,3.882,3.882,0,0,0,.845,1.589,3.739,3.739,0,0,0,.9.7,3.57,3.57,0,0,0,.364.161,3.976,3.976,0,0,1-1.217-.9,3.731,3.731,0,0,1-.845-1.572,3.909,3.909,0,0,1,.11-2.35,3.6,3.6,0,0,1,1.927-2.088,3.3,3.3,0,0,1,3.212.338,3.821,3.821,0,0,1,1.539,3.28,3.669,3.669,0,0,1-2.2,3.212l-.271.11.3.059a6.511,6.511,0,0,1,2.536.955,5.373,5.373,0,0,1,1.8,2.122,8.209,8.209,0,0,1,.786,3.551l.085-.085-12.833.076.068.068a8.458,8.458,0,0,1,.795-3.72,5.572,5.572,0,0,1,1.894-2.164,4.8,4.8,0,0,1,.955-.482,3.939,3.939,0,0,1,.752-.254Z" transform="translate(87.69 -48.375)"/><ellipse class="h" cx="28.078" cy="28.077" rx="28.078" ry="28.077" transform="translate(263.261 150.297)"/><path class="b" d="M91.716,240.952a3.559,3.559,0,0,1,.042-.448c.042-.3.051-.761.093-1.336a5.843,5.843,0,0,1,.059-.981c.059-.363.11-.744.178-1.167a20.773,20.773,0,0,1,.583-2.891,26.818,26.818,0,0,1,3.111-7.431,27.994,27.994,0,0,1,7.1-7.913,27.676,27.676,0,0,1,11.734-5.2,26.717,26.717,0,0,1,3.517-.406c.6,0,1.209-.076,1.818-.068l1.843.093a4.866,4.866,0,0,1,.93.059l.93.144c.617.1,1.251.178,1.877.3a29.963,29.963,0,0,1,3.711,1.091,30.56,30.56,0,0,1,3.627,1.6c.592.321,1.15.693,1.691,1.04a14.064,14.064,0,0,1,1.691,1.15,30.424,30.424,0,0,1,3.153,2.688,31.488,31.488,0,0,1,2.731,3.229,26.812,26.812,0,0,1,3.973,7.659,27.637,27.637,0,0,1,0,17.567,27.1,27.1,0,0,1-3.982,7.668,25.467,25.467,0,0,1-5.918,5.918,14.233,14.233,0,0,1-1.691,1.158c-.575.347-1.141.719-1.691,1.031a27.535,27.535,0,0,1-3.627,1.6,28.454,28.454,0,0,1-3.711,1.091c-.626.135-1.26.2-1.877.3l-.93.144c-.3.042-.617.042-.93.059l-1.843.1c-.609,0-1.217-.051-1.818-.068a26.712,26.712,0,0,1-3.517-.406,28.067,28.067,0,0,1-18.793-13.1,26.941,26.941,0,0,1-3.111-7.431,20.773,20.773,0,0,1-.583-2.891c-.068-.423-.144-.845-.178-1.175s-.042-.685-.059-.981c0-.566-.068-1.014-.093-1.327s-.042-.457-.042-.457v.457c0,.3,0,.761.042,1.336a8.082,8.082,0,0,0,.042.981c.042.355.1.752.161,1.184a19.639,19.639,0,0,0,.549,2.917,26.731,26.731,0,0,0,3.06,7.515,28.2,28.2,0,0,0,18.979,13.34,25.926,25.926,0,0,0,3.567.423c.609,0,1.217.085,1.834.076l1.868-.093a5.091,5.091,0,0,0,.947-.059l.938-.144c.634-.1,1.277-.169,1.9-.3a27.688,27.688,0,0,0,3.77-1.1,28.789,28.789,0,0,0,3.686-1.606c.6-.33,1.175-.7,1.767-1.048a15.311,15.311,0,0,0,1.691-1.175,26,26,0,0,0,5.977-5.994,27.5,27.5,0,0,0,4.049-7.786,28.083,28.083,0,0,0,0-17.837,27.5,27.5,0,0,0-4.049-7.786,32.27,32.27,0,0,0-2.773-3.272,31.331,31.331,0,0,0-3.212-2.714,13.561,13.561,0,0,0-1.691-1.175c-.592-.347-1.167-.727-1.767-1.048a30.782,30.782,0,0,0-7.456-2.714c-.626-.127-1.268-.2-1.894-.3l-.947-.144a5,5,0,0,1-.938-.059l-1.868-.085c-.626,0-1.234.051-1.843.076a25.931,25.931,0,0,0-3.567.423,28.2,28.2,0,0,0-18.979,13.34A26.731,26.731,0,0,0,92.5,234.1a19.423,19.423,0,0,0-.549,2.917c-.059.423-.127.845-.161,1.175s0,.693-.042.989a11.691,11.691,0,0,1-.042,1.336A.9.9,0,0,0,91.716,240.952Z" transform="translate(171.585 -61.637)"/><ellipse class="i" cx="14.904" cy="14.904" rx="14.904" ry="14.904" transform="translate(276.502 164.257)"/><path class="e" d="M137.243,242.211a1.318,1.318,0,0,0,0,.245v1.226a2.749,2.749,0,0,1-.051.626,12.526,12.526,0,0,1-.22,1.555,14.163,14.163,0,0,1-1.395,4.032,14.786,14.786,0,0,1-17.288,7.439,16.333,16.333,0,0,1-1.97-.719,15.8,15.8,0,0,1-1.877-1.048,13.3,13.3,0,0,1-3.314-2.917,14.238,14.238,0,0,1-2.367-3.914,15.735,15.735,0,0,1-1.065-4.582,16.057,16.057,0,0,1,.457-4.692,14.189,14.189,0,0,1,1.834-4.185,13.551,13.551,0,0,1,2.9-3.331,16.527,16.527,0,0,1,1.691-1.277,15.688,15.688,0,0,1,1.894-.964,14.82,14.82,0,0,1,18.108,5.072,14.075,14.075,0,0,1,1.911,3.821,10.513,10.513,0,0,1,.414,1.5c.051.22.11.423.144.617s.042.355.068.516l.093.7a1.038,1.038,0,0,0,.051.237,1.318,1.318,0,0,0,0-.245,2.919,2.919,0,0,0-.068-.7l-.051-.524a3.647,3.647,0,0,0-.127-.617,10.377,10.377,0,0,0-.389-1.53,14.074,14.074,0,0,0-1.877-3.9,14.978,14.978,0,0,0-18.4-5.292,16.223,16.223,0,0,0-1.9.989,15.288,15.288,0,0,0-1.767,1.3,13.521,13.521,0,0,0-2.976,3.382,14.376,14.376,0,0,0-1.885,4.286,14.912,14.912,0,0,0,.626,9.494,14.527,14.527,0,0,0,2.426,4,17.266,17.266,0,0,0,1.589,1.691,18.136,18.136,0,0,0,1.8,1.336,16.392,16.392,0,0,0,1.927,1.057,15.382,15.382,0,0,0,9.95.845A14.965,14.965,0,0,0,135.721,250a13.913,13.913,0,0,0,1.361-4.109,10.567,10.567,0,0,0,.186-1.564,3.033,3.033,0,0,1,.042-.634,2.169,2.169,0,0,0,0-.524v-.71A1.24,1.24,0,0,0,137.243,242.211Z" transform="translate(169.037 -64.012)"/><path class="e" d="M124.66,244.863h6.949v-8.285a4.567,4.567,0,0,0,0-.609,3.659,3.659,0,0,0,0,.609v8.192l.1-.1h-6.323A2.674,2.674,0,0,0,124.66,244.863Z" transform="translate(160.003 -65.227)"/><path class="e" d="M124.973,231.21a8.445,8.445,0,0,0,0,2.536A7.784,7.784,0,0,0,124.973,231.21Z" transform="translate(166.453 -64.491)"/><path class="e" d="M130.94,233.59a7.988,7.988,0,0,0,1.741,1.741A7.987,7.987,0,0,0,130.94,233.59Z" transform="translate(153.723 -64.859)"/><path class="e" d="M135.21,238.72a5.158,5.158,0,0,0,1.031.685,5.089,5.089,0,0,0,1.082.6,3.436,3.436,0,0,0-.981-.761A3.145,3.145,0,0,0,135.21,238.72Z" transform="translate(145.471 -65.653)"/><path class="e" d="M136.46,246.313a14.409,14.409,0,0,0,3.382,0A15.7,15.7,0,0,0,136.46,246.313Z" transform="translate(141.896 -66.813)"/><path class="e" d="M108.64,246.043a12.9,12.9,0,0,0,3.229,0A14.033,14.033,0,0,0,108.64,246.043Z" transform="translate(193.387 -66.771)"/><path class="e" d="M111.41,251.73a7.04,7.04,0,0,0,1.217,1.074,7.247,7.247,0,0,0,1.344.955,7.454,7.454,0,0,0-1.217-1.107A7.228,7.228,0,0,0,111.41,251.73Z" transform="translate(188.943 -67.664)"/><path class="e" d="M117.32,256.12a10.29,10.29,0,0,0,.845,1.437,10.1,10.1,0,0,0,.845,1.4,5.35,5.35,0,0,0-.719-1.5A5.461,5.461,0,0,0,117.32,256.12Z" transform="translate(178.908 -68.343)"/><path class="e" d="M124.974,261.151a14.409,14.409,0,0,0,0-3.382A15.7,15.7,0,0,0,124.974,261.151Z" transform="translate(166.452 -68.598)"/><path class="e" d="M130.68,258.672a7.356,7.356,0,0,0,2.536-2.232,15.212,15.212,0,0,0-1.277,1.124A13.059,13.059,0,0,0,130.68,258.672Z" transform="translate(153.408 -68.393)"/><path class="e" d="M135.25,254.292a5.684,5.684,0,0,0,1.133-1,6.506,6.506,0,0,0,1-1.124,5.47,5.47,0,0,0-1.133.989A5.978,5.978,0,0,0,135.25,254.292Z" transform="translate(145.38 -67.732)"/><path class="e" d="M112.07,240.293a4.613,4.613,0,0,0,1-.845,5.157,5.157,0,0,0,.845-1,4.21,4.21,0,0,0-1,.845A4.505,4.505,0,0,0,112.07,240.293Z" transform="translate(188.444 -65.611)"/><path class="e" d="M117.13,234.986a4.443,4.443,0,0,0,.981-.845,4.062,4.062,0,0,0,.845-.981,4.615,4.615,0,0,0-.981.845A4.3,4.3,0,0,0,117.13,234.986Z" transform="translate(179.123 -64.793)"/><path class="b" d="M174.188,292.465a23.234,23.234,0,0,1,.482-3.069,12.216,12.216,0,0,1,1.412-3.322,12.486,12.486,0,0,1,15-5.292,11.627,11.627,0,0,1,3.145,1.691,11.754,11.754,0,0,1,2.621,2.638,12.368,12.368,0,0,1,0,14.693,11.618,11.618,0,0,1-2.621,2.646,11.845,11.845,0,0,1-3.145,1.691,12.486,12.486,0,0,1-15-5.292,12.1,12.1,0,0,1-1.412-3.322,23.1,23.1,0,0,1-.482-3.069,2.026,2.026,0,0,0,0,.2v.609a6.571,6.571,0,0,0,.076.981,9.312,9.312,0,0,0,.237,1.319,12.167,12.167,0,0,0,1.37,3.382,12.766,12.766,0,0,0,8.6,6.087,12.807,12.807,0,0,0,12.74-5A12.815,12.815,0,1,0,175.87,285.9a12.281,12.281,0,0,0-1.37,3.382,9.309,9.309,0,0,0-.237,1.327,6.237,6.237,0,0,0-.076.972v.609A1.922,1.922,0,0,0,174.188,292.465Z" transform="translate(50.124 -71.972)"/><path class="i" d="M185.088,296.717a2,2,0,0,1,1.691.955c.456-.347,1.023-.761,1.691-1.184l.989-.659a2.037,2.037,0,0,1-.271-2.621,14.918,14.918,0,0,1-1.26-.93c-.414-.355-.769-.6-1.091-.845a2.055,2.055,0,1,1,.355-1.158,2.113,2.113,0,0,1-.127.7c.364.254.778.558,1.209.9s.845.7,1.234,1.006a2.054,2.054,0,1,1,1.378,3.567,2.09,2.09,0,0,1-.972-.254l-1.133.795c-.651.44-1.26.845-1.758,1.133a2.409,2.409,0,0,1,.161.845,2.063,2.063,0,1,1-2.054-2.24Z" transform="translate(49.385 -73.307)"/><path class="e" d="M185.028,296.7a1.463,1.463,0,0,0-.769.135,2.249,2.249,0,0,0-1.3,1.691,2.482,2.482,0,0,0,.279,1.572,2.112,2.112,0,0,0,1.513,1.074,2.029,2.029,0,0,0,1.927-.845,2.451,2.451,0,0,0,.313-2.325v.085c.921-.583,1.911-1.2,2.908-1.927h-.085a2.088,2.088,0,0,0,2.1,0,2.139,2.139,0,1,0-2.536-3.382h.118l-1.209-.981-1.243-.93v.1a2.062,2.062,0,0,0-.11-1.691,2.086,2.086,0,0,0-1.31-1.065,2.133,2.133,0,0,0-1.64.194,2.2,2.2,0,0,0-1,1.26,2.13,2.13,0,0,0,3.813,1.8h-.11c.845.676,1.615,1.268,2.359,1.809v-.093a2.122,2.122,0,0,0,.3,2.7V295.8c-1.116.71-1.961,1.378-2.646,1.86h.051a2.074,2.074,0,0,0-1.192-.888,1.33,1.33,0,0,0-.516-.051,2.241,2.241,0,0,1,.507.085,2.106,2.106,0,0,1,1.141.9h0c.693-.473,1.547-1.124,2.663-1.826h.059l-.051-.042a2,2,0,0,1-.262-2.536v-.059h-.051c-.744-.541-1.53-1.133-2.342-1.818l-.059-.051v.068a1.987,1.987,0,1,1,.1-2.029,1.944,1.944,0,0,1,.1,1.581v.068h.059l1.234.921,1.2.981.068.051.051-.051a1.97,1.97,0,1,1,.389,3.179h-.093c-.981.727-1.97,1.344-2.883,1.927h-.051v.059a2.368,2.368,0,0,1-.279,2.2,1.927,1.927,0,0,1-1.809.795,1.976,1.976,0,0,1-1.446-1.006,2.345,2.345,0,0,1-.279-1.5,2.172,2.172,0,0,1,1.234-1.691A2.124,2.124,0,0,1,185.028,296.7Z" transform="translate(49.445 -73.293)"/><path class="b" d="M345.212,238.437a3.323,3.323,0,0,1,.051-.473c.051-.313.051-.786.085-1.386l.068-1.014a8.912,8.912,0,0,1,.186-1.217,20.277,20.277,0,0,1,.609-3,27.7,27.7,0,0,1,3.229-7.727,29.157,29.157,0,0,1,19.57-13.627,27.025,27.025,0,0,1,3.66-.423c.626,0,1.251-.076,1.885-.068l1.919.1a5.273,5.273,0,0,1,.964.059l.964.152c.642.1,1.3.178,1.944.313a30.862,30.862,0,0,1,3.863,1.133,30.115,30.115,0,0,1,3.77,1.691c.609.338,1.2.719,1.8,1.082a14.277,14.277,0,0,1,1.75,1.2,33.936,33.936,0,0,1,3.28,2.79,31.909,31.909,0,0,1,2.832,3.382,27.959,27.959,0,0,1,4.134,7.963,28.577,28.577,0,0,1,0,18.252,27.784,27.784,0,0,1-4.134,7.9,32.684,32.684,0,0,1-2.832,3.382,31.832,31.832,0,0,1-3.28,2.8,15.26,15.26,0,0,1-1.75,1.2c-.6.355-1.192.744-1.8,1.074a30.115,30.115,0,0,1-3.77,1.691,30.863,30.863,0,0,1-3.863,1.141c-.642.127-1.3.2-1.944.313l-.964.152c-.321.042-.651,0-.972.059l-1.911.1c-.634,0-1.268-.051-1.885-.076a27.02,27.02,0,0,1-3.66-.423,29.031,29.031,0,0,1-19.57-13.627,27.66,27.66,0,0,1-3.229-7.718,20.387,20.387,0,0,1-.609-3.01c-.068-.44-.152-.845-.186-1.209s-.042-.719-.068-1.023c0-.592-.068-1.057-.085-1.378a3.23,3.23,0,0,0-.051-.473v.473c0,.313,0,.786.051,1.386a8.917,8.917,0,0,0,.042,1.023c.042.38.1.778.161,1.226a21.537,21.537,0,0,0,.575,3.026,27.519,27.519,0,0,0,3.187,7.8A29.283,29.283,0,0,0,368.942,267.3a27.814,27.814,0,0,0,3.7.44c.634,0,1.268.085,1.911.076l1.944-.093a4.828,4.828,0,0,0,.981-.068l.972-.144c.659-.11,1.319-.186,1.978-.321a31.609,31.609,0,0,0,3.914-1.133,30.713,30.713,0,0,0,3.83-1.691c.626-.33,1.217-.719,1.834-1.082a16.752,16.752,0,0,0,1.767-1.217,26.735,26.735,0,0,0,6.214-6.23,28.326,28.326,0,0,0,4.227-8.09,28.943,28.943,0,0,0,0-18.522,28.326,28.326,0,0,0-4.227-8.09,26.911,26.911,0,0,0-6.214-6.222,14.533,14.533,0,0,0-1.767-1.217c-.617-.364-1.209-.752-1.834-1.091a32.187,32.187,0,0,0-7.744-2.815c-.659-.135-1.319-.211-1.97-.313l-.981-.152a5.411,5.411,0,0,1-.981-.059l-1.944-.093c-.642,0-1.277.051-1.911.076a26.475,26.475,0,0,0-3.7.44,29.241,29.241,0,0,0-19.714,13.856,27.544,27.544,0,0,0-3.187,7.811,21.275,21.275,0,0,0-.575,3.026c-.059.44-.127.845-.161,1.226s0,.719-.042,1.023a10.44,10.44,0,0,1-.051,1.386A.792.792,0,0,0,345.212,238.437Z" transform="translate(-298.455 -61.083)"/><path class="e" d="M361.57,255.9a2.871,2.871,0,0,0,.642.042l1.843.042,6.763.068,22.377.059H395V255.9c0-8.361-.051-15.859-.068-21.312,0-2.68-.042-4.852-.059-6.408,0-.727,0-1.3-.042-1.733a2.67,2.67,0,0,0-.042-.609,4.88,4.88,0,0,0,0,.609v1.733c0,1.555-.042,3.728-.068,6.408,0,5.453-.042,12.951-.068,21.312l.211-.211h-1.6l-22.377.068-6.763.068h-1.843A5.4,5.4,0,0,0,361.57,255.9Z" transform="translate(-303.569 -63.661)"/><path class="e" d="M365.45,234.47a9.257,9.257,0,0,0,.989.947l2.807,2.469c2.384,2.063,5.7,4.895,9.367,8.006l.558.473.144.118.135-.127c1.471-1.361,2.866-2.671,4.168-3.872h-.262l6.121,5.072,1.767,1.42a4.151,4.151,0,0,0,.668.473,3.946,3.946,0,0,0-.583-.575l-1.691-1.5-6.019-5.165-.135-.11-.127.118-4.185,3.846h.279l-.558-.473c-3.669-3.111-7.008-5.918-9.443-7.913l-2.891-2.367A8.53,8.53,0,0,0,365.45,234.47Z" transform="translate(-303.755 -64.995)"/><path class="e" d="M387.681,241.365a9.942,9.942,0,0,0,.144-2.071c.042-1.285.068-3.069.068-5.072l-.211.211h.355c2.071,0,3.948,0,5.3-.068a11.108,11.108,0,0,0,2.19-.144,11.444,11.444,0,0,0-2.19-.152c-1.353,0-3.229-.059-5.3-.059h-.566v.211c0,1.987,0,3.77.068,5.072A9.942,9.942,0,0,0,387.681,241.365Z" transform="translate(-325.986 -64.924)"/><path class="b" d="M417.568,161.286a1.733,1.733,0,0,0,.042-.355,9.615,9.615,0,0,1,.076-1.04,4.143,4.143,0,0,1,.051-.769c.051-.279.093-.583.144-.913a15.568,15.568,0,0,1,.457-2.266,21.033,21.033,0,0,1,2.443-5.808,21.777,21.777,0,0,1,26.147-9.3,23.343,23.343,0,0,1,2.84,1.243,22.987,22.987,0,0,1,2.663,1.691,26.045,26.045,0,0,1,2.469,2.1,25.236,25.236,0,0,1,2.122,2.536,21.226,21.226,0,0,1,3.111,5.985,21.645,21.645,0,0,1,0,13.72,20.994,20.994,0,0,1-3.1,5.985,25.734,25.734,0,0,1-2.13,2.536,25.042,25.042,0,0,1-2.469,2.1,22.991,22.991,0,0,1-2.663,1.691,23.345,23.345,0,0,1-2.84,1.243,21.819,21.819,0,0,1-26.147-9.3,20.934,20.934,0,0,1-2.443-5.808,15.212,15.212,0,0,1-.457-2.257c-.051-.33-.118-.634-.144-.913a6.907,6.907,0,0,0-.051-.769q-.051-.659-.076-1.04a1.733,1.733,0,0,0-.042-.355,1.917,1.917,0,0,0,0,.355v1.818a8.1,8.1,0,0,0,.118.921,15.176,15.176,0,0,0,.431,2.283,20.391,20.391,0,0,0,2.392,5.918,22.014,22.014,0,0,0,26.5,9.536,23.375,23.375,0,0,0,2.891-1.26,23.815,23.815,0,0,0,2.722-1.741,24.991,24.991,0,0,0,2.536-2.139,25.325,25.325,0,0,0,2.181-2.536,22.1,22.1,0,0,0,3.17-20.1,21.31,21.31,0,0,0-3.179-6.1,24.438,24.438,0,0,0-2.173-2.536,24.028,24.028,0,0,0-2.536-2.13,23.048,23.048,0,0,0-2.714-1.741,23.379,23.379,0,0,0-2.891-1.26,21.95,21.95,0,0,0-26.452,9.519,20.563,20.563,0,0,0-2.392,5.918,15.5,15.5,0,0,0-.431,2.291c-.042.33-.093.634-.118.921s0,.541,0,.769v1.048A1.884,1.884,0,0,0,417.568,161.286Z" transform="translate(-417.559 -50.261)"/><path class="h" d="M440.987,151.374l-2.942,5.918a.759.759,0,0,1-.566.414l-6.569.955a.761.761,0,0,0-.423,1.3l4.751,4.633a.753.753,0,0,1,.22.668l-1.124,6.543a.761.761,0,0,0,1.107.845l5.875-3.06a.755.755,0,0,1,.71,0l5.867,3.086a.761.761,0,0,0,1.108-.845l-1.116-6.543a.728.728,0,0,1,.211-.668l4.751-4.633a.76.76,0,0,0-.423-1.3l-6.56-.955a.753.753,0,0,1-.575-.414l-2.933-5.918a.761.761,0,0,0-1.37-.025Z" transform="translate(-419.709 -52.082)"/><path class="e" d="M441.123,151.372s0-.059.127-.152a.684.684,0,0,1,.507-.237.728.728,0,0,1,.719.473c.169.347.355.744.575,1.184.431.9.964,2,1.572,3.263l.482.981.254.524a.9.9,0,0,0,.507.406c.845.144,1.64.254,2.536.389l2.756.406,1.462.22a.634.634,0,0,1,.338,1.014l-4.768,4.633a.956.956,0,0,0-.287.938l.152.845.3,1.8c.2,1.217.414,2.452.634,3.711a.618.618,0,0,1-.634.769,1.089,1.089,0,0,1-.389-.152l-1.741-.913-3.551-1.868-.457-.245a.951.951,0,0,0-.592-.068,2.153,2.153,0,0,0-.5.22l-.448.237-1.767.93-3.441,1.809a.6.6,0,0,1-.685-.152.521.521,0,0,1-.152-.338,2.116,2.116,0,0,1,.042-.431c.11-.617.211-1.226.313-1.834q.313-1.817.609-3.551c.051-.3.1-.583.144-.845a.93.93,0,0,0-.33-.9l-1.209-1.175L431.883,161l-1.107-1.074a.643.643,0,0,1-.1-.9.652.652,0,0,1,.18-.153,2.32,2.32,0,0,1,.651-.135l.7-.11,1.344-.194,2.536-.38,1.15-.169a1.155,1.155,0,0,0,.566-.1.846.846,0,0,0,.457-.364l1.589-3.263.9-2.054c.11-.22.186-.4.254-.541l.076-.186a.911.911,0,0,0-.11.178l-.271.524c-.254.482-.6,1.167-1.04,2.037s-1,1.97-1.632,3.221a.654.654,0,0,1-.363.287,4.361,4.361,0,0,1-.533.085l-1.158.161-2.536.355-1.353.194-.7.093a2.3,2.3,0,0,0-.736.169.845.845,0,0,0-.144,1.454l1.1,1.082,2.384,2.266,1.217,1.184a.634.634,0,0,1,.237.642c-.051.279-.093.566-.144.845-.2,1.158-.406,2.342-.617,3.551-.11.609-.211,1.217-.321,1.834a2.319,2.319,0,0,0-.051.507.843.843,0,0,0,.228.516.921.921,0,0,0,1.048.237l3.466-1.818,1.767-.921.44-.237a2.223,2.223,0,0,1,.423-.194.623.623,0,0,1,.389.051l.44.228,3.559,1.868,1.691.913a1.329,1.329,0,0,0,.516.186.93.93,0,0,0,.964-1.133c-.211-1.26-.431-2.536-.634-3.711-.11-.609-.211-1.2-.313-1.8l-.152-.845a.633.633,0,0,1,.2-.676l4.768-4.675a.914.914,0,0,0,.144-.845.845.845,0,0,0-.642-.566l-1.471-.22-2.764-.389-2.494-.355a.668.668,0,0,1-.4-.313l-.254-.507-.49-.981-1.623-3.229c-.228-.44-.423-.845-.6-1.175a.845.845,0,0,0-.845-.5.753.753,0,0,0-.524.279A.4.4,0,0,0,441.123,151.372Z" transform="translate(-419.845 -52.081)"/><path class="b" d="M362,82.6a.891.891,0,0,0,.042-.262,3.848,3.848,0,0,1,.059-.761,7.667,7.667,0,0,1,.144-1.234,10.566,10.566,0,0,1,.347-1.691,15.241,15.241,0,0,1,1.792-4.227,15.91,15.91,0,0,1,19.122-6.763,14.877,14.877,0,0,1,4.024,2.164,17.988,17.988,0,0,1,1.834,1.547,18.274,18.274,0,0,1,1.555,1.843,15.808,15.808,0,0,1,0,18.767,18.274,18.274,0,0,1-1.555,1.843,17.968,17.968,0,0,1-1.8,1.53,14.926,14.926,0,0,1-4.024,2.173,15.96,15.96,0,0,1-19.122-6.763,15.241,15.241,0,0,1-1.792-4.227,10.559,10.559,0,0,1-.347-1.691,7.671,7.671,0,0,1-.144-1.234c0-.313-.051-.566-.059-.761a.988.988,0,0,0-.042-.262,1.233,1.233,0,0,0,0,.262v.769a7.286,7.286,0,0,0,.11,1.243,11.257,11.257,0,0,0,.3,1.691,15.414,15.414,0,0,0,1.75,4.337,16.2,16.2,0,0,0,19.477,7.025A15.376,15.376,0,0,0,387.8,95.7a16.174,16.174,0,0,0,1.851-1.564,17.331,17.331,0,0,0,1.606-1.894,16.2,16.2,0,0,0,0-19.275,14.786,14.786,0,0,0-3.458-3.458,15.376,15.376,0,0,0-4.125-2.215A16.2,16.2,0,0,0,364.2,74.319a15.414,15.414,0,0,0-1.75,4.337,11.257,11.257,0,0,0-.3,1.691,7.286,7.286,0,0,0-.11,1.243v.769A1.18,1.18,0,0,0,362,82.6Z" transform="translate(-303.365 -38.997)"/><path class="i" d="M372.42,81.934a7.338,7.338,0,1,1,13.661,3.7h0a13.655,13.655,0,0,1-.989,1.31l-4.227,5.647a1.327,1.327,0,0,1-2.113,0l-4.227-5.554s-.778-.938-1.065-1.412h0A7.267,7.267,0,0,1,372.42,81.934Zm7.338,3.2a3.238,3.238,0,1,0-3.229-3.246V81.9a3.229,3.229,0,0,0,3.229,3.229Z" transform="translate(-304.832 -40.272)"/><path class="h" d="M372.42,81.934a7.338,7.338,0,1,1,13.661,3.7h0a13.655,13.655,0,0,1-.989,1.31l-4.227,5.647a1.327,1.327,0,0,1-2.113,0l-4.227-5.554s-.778-.938-1.065-1.412h0A7.267,7.267,0,0,1,372.42,81.934Zm7.338,3.2a3.238,3.238,0,1,0-3.229-3.246V81.9a3.229,3.229,0,0,0,3.229,3.229Z" transform="translate(-304.832 -40.272)"/><path class="e" d="M380.478,85.862a3.257,3.257,0,0,1-.778-.135,3.223,3.223,0,0,1-1.741-1.184,3.153,3.153,0,1,1,5.072,0,3.245,3.245,0,0,1-1.741,1.184c-.49.127-.778.11-.778.135a2.442,2.442,0,0,0,.795-.068,3.215,3.215,0,0,0,1.792-1.175,3.312,3.312,0,1,0-3.382,1.192A2.449,2.449,0,0,0,380.478,85.862Z" transform="translate(-305.553 -41.004)"/><path class="e" d="M372.523,81.92a5.35,5.35,0,0,0,0,1.014,7.242,7.242,0,0,0,.93,2.714l.042-.068h-.1l.059.076h0l5.03,6.712a1.69,1.69,0,0,0,1.04.8,1.4,1.4,0,0,0,1.3-.4c.575-.727,1.124-1.471,1.691-2.249l3.652-4.836h0l.11-.144h-.186l.076.135a7.64,7.64,0,0,0,.651-1.429,7.4,7.4,0,0,0-10.99-8.606,7.3,7.3,0,0,0-3.187,4.3,5.347,5.347,0,0,0-.178.845,3.7,3.7,0,0,0-.059.626v.516a9.619,9.619,0,0,1,.313-1.961,7.3,7.3,0,0,1,3.179-4.227,7.445,7.445,0,0,1,3.525-1.091,7.335,7.335,0,0,1,7.287,9.561,7.953,7.953,0,0,1-.634,1.386l-.076.135h.161l-.068-.144h0l-3.635,4.836-1.665,2.24a1.269,1.269,0,0,1-1.158.355,1.529,1.529,0,0,1-.947-.744c-2.037-2.671-3.762-4.954-5.072-6.662h0V85.7h.085l-.042-.076a7.431,7.431,0,0,1-.955-2.671,6.611,6.611,0,0,1-.076-.752A1,1,0,0,1,372.523,81.92Z" transform="translate(-304.936 -40.257)"/><path class="b" d="M240.393,68.772a3.785,3.785,0,0,1,.042-.465c.042-.3.051-.769.093-1.344a5.939,5.939,0,0,1,.059-.989c.059-.364.118-.761.186-1.192a20.034,20.034,0,0,1,.592-2.925,26.892,26.892,0,0,1,3.153-7.532A28.344,28.344,0,0,1,263.6,41.035a26.08,26.08,0,0,1,3.567-.414c.609,0,1.226-.076,1.843-.068l1.868.093a4.5,4.5,0,0,1,.947.068l.938.144c.626.1,1.268.178,1.894.3a30.351,30.351,0,0,1,3.762,1.107,28.888,28.888,0,0,1,3.686,1.623c.592.321,1.167.693,1.75,1.048a13.872,13.872,0,0,1,1.691,1.167,33.35,33.35,0,0,1,3.2,2.722A32.3,32.3,0,0,1,291.5,52.1a27.26,27.26,0,0,1,4.032,7.769,30.106,30.106,0,0,1,1.471,8.9,30.152,30.152,0,0,1-1.454,8.9,27.3,27.3,0,0,1-4.032,7.777,26.108,26.108,0,0,1-5.918,5.985,14.473,14.473,0,0,1-1.691,1.175c-.592.347-1.167.727-1.758,1.048a28.887,28.887,0,0,1-3.686,1.623,30.315,30.315,0,0,1-3.762,1.1c-.626.135-1.268.211-1.894.313l-.947.144a5,5,0,0,0-.938.059l-1.868.1c-.617,0-1.234-.051-1.843-.076a26.068,26.068,0,0,1-3.567-.406,28.453,28.453,0,0,1-19.131-13.3,27.087,27.087,0,0,1-3.145-7.532,20.286,20.286,0,0,1-.592-2.925c-.068-.431-.144-.845-.186-1.192s-.042-.693-.059-.989c0-.583-.068-1.031-.093-1.353s-.042-.457-.042-.457v.457c0,.3,0,.778.042,1.353a8.352,8.352,0,0,0,.042,1c.042.364.1.769.161,1.2a21.329,21.329,0,0,0,.558,2.95,26.953,26.953,0,0,0,3.1,7.608A28.61,28.61,0,0,0,263.54,96.864a26.543,26.543,0,0,0,3.618.431c.617,0,1.234.085,1.86.076l1.894-.093a5.136,5.136,0,0,0,.955-.059l.955-.144c.642-.1,1.285-.178,1.927-.313a30.139,30.139,0,0,0,3.821-1.107,29.657,29.657,0,0,0,3.737-1.64c.6-.321,1.184-.7,1.784-1.057a14.708,14.708,0,0,0,1.691-1.192,26.622,26.622,0,0,0,6.078-6.087,27.553,27.553,0,0,0,4.1-7.887,30.585,30.585,0,0,0,1.488-9.02,30.439,30.439,0,0,0-1.479-9.029,27.562,27.562,0,0,0-4.109-7.879,31.227,31.227,0,0,0-2.807-3.314,32.3,32.3,0,0,0-3.255-2.764,14.819,14.819,0,0,0-1.691-1.184c-.6-.355-1.184-.735-1.784-1.065a29.6,29.6,0,0,0-3.737-1.632,31.726,31.726,0,0,0-3.821-1.116c-.642-.127-1.285-.2-1.927-.3l-.955-.144c-.313-.042-.634-.042-.955-.059l-1.894-.093c-.626,0-1.243.051-1.86.076a25.4,25.4,0,0,0-3.618.431,28.5,28.5,0,0,0-19.224,13.526,27,27,0,0,0-3.111,7.608,21.326,21.326,0,0,0-.558,2.95c-.059.431-.127.845-.161,1.192s0,.7-.042,1a11.857,11.857,0,0,1-.042,1.353A1.986,1.986,0,0,0,240.393,68.772Z" transform="translate(-103.57 -34.955)"/><path class="h" d="M268.884,57.928a12.969,12.969,0,0,0-3.382.888l-2.469-2.071-4.227,3.229,1.336,2.933a13.232,13.232,0,0,0-1.75,3l-3.2.279-.719,5.284,3.018,1.133a12.936,12.936,0,0,0,.888,3.382L256.3,78.454l3.229,4.227,2.967-1.344a12.627,12.627,0,0,0,3,1.75l.279,3.212,5.284.719L272.2,84a13.182,13.182,0,0,0,3.382-.845l2.477,2.071L282.283,82l-1.344-2.933a12.975,12.975,0,0,0,1.75-3l3.212-.287.719-5.284-3.06-1.133a12.9,12.9,0,0,0-.888-3.382l2.071-2.468-3.229-4.227-2.95,1.3a13.583,13.583,0,0,0-3-1.75l-.287-3.212-5.284-.71-1.124,3.018Zm2.164,7.329a5.8,5.8,0,1,1-.029,0Z" transform="translate(-104.644 -37.231)"/><path class="e" d="M273.344,67.13a2.017,2.017,0,0,0-.355-.076,4.171,4.171,0,0,0-1.057,0,5.643,5.643,0,0,0-3.508,1.606,5.918,5.918,0,0,0,6.991,9.333,5.787,5.787,0,0,0,2.409-2.468,5.867,5.867,0,0,0-.135-5.647,5.7,5.7,0,0,0-2.95-2.485,4.363,4.363,0,0,0-1.023-.262,1.057,1.057,0,0,0-.372,0c0,.051.507.1,1.327.448a5.755,5.755,0,0,1,2.739,2.485,5.527,5.527,0,1,1-10.3,1.946,5.522,5.522,0,0,1,1.539-3.13,5.667,5.667,0,0,1,3.3-1.691C272.836,67.1,273.344,67.181,273.344,67.13Z" transform="translate(-106.94 -39.103)"/><path class="e" d="M268.827,57.92a1.668,1.668,0,0,0,.085-.186l.228-.558c.211-.533.507-1.285.845-2.249l-.076.042,5.275.761-.1-.1c.085.972.169,2.054.27,3.2v.085h.085a13.418,13.418,0,0,1,2.959,1.741l.068.059h.085l2.942-1.319-.2-.051,3.221,4.227v-.228l-2.071,2.468-.076.085v.11a13.117,13.117,0,0,1,.845,3.314v.118l.118.042,3.009,1.133-.127-.22q-.342,2.536-.727,5.284l.194-.186-3.212.279h-.127l-.051.127a13.183,13.183,0,0,1-1.691,2.942l-.085.11.051.127c.423.913.845,1.919,1.336,2.933l.068-.279-4.227,3.229h.287l-2.468-2.071-.11-.093-.127.059a12.956,12.956,0,0,1-3.3.845h0c-.085.059.186-.152-.194.144h0v.144l-.068.194-.144.38-.287.752-.558,1.5.245-.144-5.284-.719.194.2-.279-3.2v-.135l-.127-.059a12.685,12.685,0,0,1-2.95-1.691l-.11-.085-.118.059-2.933,1.344.271.059-3.238-4.227V78.5l2.037-2.384.076-.093-.051-.118a13.018,13.018,0,0,1-.845-3.305v-.127h-.11l-3.018-1.124.118.2c.254-1.86.482-3.61.7-5.284l-.161.152,3.212-.3h.1v-.093A12.78,12.78,0,0,1,260.2,63.06l.051-.076V62.9c-.49-1.065-.938-2.02-1.353-2.925v.169l4.227-3.263h-.135c.989.845,1.809,1.488,2.494,2.046h.042a13.85,13.85,0,0,1,2.485-.786l.634-.127.211-.042a.64.64,0,0,0-.22,0,6.072,6.072,0,0,0-.642.085,13.027,13.027,0,0,0-2.536.719h.076l-2.452-2.1-.059-.051-.068.051-4.269,3.2-.085.068.051.093c.406.913.845,1.877,1.319,2.942v-.152a13.152,13.152,0,0,0-1.75,3l.135-.1-3.2.271h-.144v.135c-.237,1.691-.473,3.381-.736,5.284v.152l.144.059,2.959,1.15-.127-.161a13.534,13.534,0,0,0,.9,3.382v-.22l-2.071,2.468-.11.135.1.135,3.221,4.227.11.144.178-.017L262.5,81.54h-.228a12.891,12.891,0,0,0,3.052,1.784l-.144-.186c.093,1.057.186,2.122.279,3.2v.186h.186l5.284.719h.178l.068-.178c.186-.5.372-1,.566-1.5l.279-.752.144-.38.068-.194v-.093h0l-.186.152h0a13.469,13.469,0,0,0,3.381-.9h-.237l2.469,2.063.144.118.144-.11,4.227-3.229.144-.11-.076-.169-1.2-3.035v.228a13.313,13.313,0,0,0,1.775-3.06l-.178.135,3.2-.287h.178v-.178c.245-1.834.49-3.618.71-5.284v-.161l-.161-.059-2.993-1.124.127.161a13.239,13.239,0,0,0-.9-3.382v.2l2.063-2.477.093-.118-.085-.11-3.246-4.227-.076-.1-.118.051L278.5,60.482h.161a13.366,13.366,0,0,0-3.043-1.758l.085.118c-.11-1.158-.211-2.24-.3-3.212v-.093H275.3l-5.292-.676h-.059v.059c-.338.964-.609,1.691-.795,2.24l-.2.592A.827.827,0,0,0,268.827,57.92Z" transform="translate(-104.588 -37.223)"/></g><g transform="translate(104.316 155.236)"><path class="b" d="M276.759,322.016l1.184.4c5.275,1.775,20.974,6.966,25.716,8.91,0,0-8.4,74.317-9.384,81.224s-1.209,34.542-1.209,34.542H203.651s.237-74.486,0-86.034c-.33-14.946-2.181-29.732-2.181-29.732l15.589-6.087L235.31,315.6Z" transform="translate(-179.411 -226.895)"/><g class="j" transform="translate(70.339 111.2)"><path d="M235.2,342.21q10.94,40.645,23.062,80.978c.955,3.17,1.894,6.645.609,9.7a8.682,8.682,0,0,1-6.9,4.9,13.93,13.93,0,0,1-8.479-1.919c-6.044-3.382-9.967-9.73-11.894-16.375s-2.1-13.653-2.257-20.568l-1.268-55.347Z" transform="translate(-228.069 -342.21)"/></g><path class="b" d="M214.975,334.2s13.112,5.808,12.089,29.106a286.929,286.929,0,0,1-3.094,30.357l-36.867-10.6,9.375-40.46Z" transform="translate(-90.726 -229.771)"/><path class="b" d="M337.651,371.686l1.97,26.891-37.061-12s7.947-47.459,20.534-52.413l13.568,23.189Z" transform="translate(-300.832 -229.765)"/><path class="e" d="M311.893,369.37a4.011,4.011,0,0,0-.068.541c0,.406-.068.93-.11,1.581-.076,1.42-.186,3.382-.321,5.782-.237,4.895-.5,11.649-.744,19.114s-.448,14.177-.609,19.122c-.076,2.4-.135,4.371-.178,5.791v1.581a3.968,3.968,0,0,0,0,.549,2.367,2.367,0,0,0,.076-.549c0-.406.059-.93.11-1.572.076-1.42.186-3.382.321-5.791.237-4.886.5-11.649.735-19.114s.456-14.177.617-19.114c.076-2.409.135-4.371.178-5.8V369.92A2.255,2.255,0,0,0,311.893,369.37Z" transform="translate(-279.292 -235.209)"/><path class="e" d="M203.48,352.909a5,5,0,0,0,.482-.845c.321-.651.727-1.446,1.192-2.392a39.8,39.8,0,0,1,4.624-7.422,18.059,18.059,0,0,1,6.856-5.224,21.837,21.837,0,0,1,3.483-.981,3.464,3.464,0,0,0-.981,0,11.938,11.938,0,0,0-2.612.651,17.42,17.42,0,0,0-7.093,5.241,35.1,35.1,0,0,0-4.557,7.608c-.473,1.031-.845,1.868-1.065,2.452A3.412,3.412,0,0,0,203.48,352.909Z" transform="translate(-97.568 -230.051)"/><path class="e" d="M310.81,332.86a54.428,54.428,0,0,1,2.333,6.222,53.164,53.164,0,0,1,1.1,6.56,6.78,6.78,0,0,0,.068-1.97,22.4,22.4,0,0,0-.744-4.7,22,22,0,0,0-1.691-4.438A7.153,7.153,0,0,0,310.81,332.86Z" transform="translate(-282.537 -229.564)"/><path class="k" d="M189.368,346.439a2.218,2.218,0,0,1,.364.042,1.4,1.4,0,0,1,.845.592,3.45,3.45,0,0,1,.558,1.53,7.121,7.121,0,0,0,.271,1.048,2,2,0,0,0,.752,1.006,2.486,2.486,0,0,0,2.739-.287,9.808,9.808,0,0,0,1.961-2.494,4.442,4.442,0,0,1,1.1-1.184,2.464,2.464,0,0,1,1.5-.507,1.6,1.6,0,0,1,1.285.845,4.219,4.219,0,0,1,.389,1.733c.042.626.051,1.26.127,1.885a3.934,3.934,0,0,0,.6,1.818,1.926,1.926,0,0,0,.321.372,1.721,1.721,0,0,0,.389.3,2.359,2.359,0,0,0,.9.287,3.286,3.286,0,0,0,1.75-.33,7.179,7.179,0,0,0,2.342-2.164,8.467,8.467,0,0,1,1.86-1.9,2.808,2.808,0,0,1,2.02-.524,2.148,2.148,0,0,1,1.3.845,1.572,1.572,0,0,1,.287.972c0,.237-.085.355-.059.364a.779.779,0,0,0,.144-.355,1.556,1.556,0,0,0-.22-1.065,2.272,2.272,0,0,0-1.4-1.031,2.992,2.992,0,0,0-2.24.516,8.512,8.512,0,0,0-1.978,1.927A6.811,6.811,0,0,1,205,352.729a2.9,2.9,0,0,1-1.53.287,1.784,1.784,0,0,1-1.31-.786c-.626-.921-.549-2.232-.642-3.491a4.666,4.666,0,0,0-.44-1.911,2.062,2.062,0,0,0-1.691-1.048,3.625,3.625,0,0,0-2.95,1.894,10.276,10.276,0,0,1-1.843,2.426,2.19,2.19,0,0,1-2.359.33,2.787,2.787,0,0,1-.947-1.851,3.572,3.572,0,0,0-.668-1.589,1.521,1.521,0,0,0-.938-.575A.713.713,0,0,0,189.368,346.439Z" transform="translate(-78.663 -231.562)"/><path class="k" d="M186.8,361.31a1.7,1.7,0,0,0,0,.49,3.189,3.189,0,0,0,.465,1.31,3.805,3.805,0,0,0,1.691,1.454,3.262,3.262,0,0,0,2.908-.042c.989-.482,1.809-1.42,2.959-1.741a3.087,3.087,0,0,1,3.162,1.581c.735,1.124,1.082,2.621,1.86,4.007a4.755,4.755,0,0,0,1.691,1.75,2.732,2.732,0,0,0,2.536.2,4.473,4.473,0,0,0,1.758-1.792c.414-.693.761-1.395,1.184-2.012a2.99,2.99,0,0,1,1.606-1.3,2.265,2.265,0,0,1,1.894.372,7.211,7.211,0,0,1,2.283,3.111,25.923,25.923,0,0,0,1.589,3.136,5.376,5.376,0,0,0,4.083,2.739,2.954,2.954,0,0,0,1.37-.245,1.326,1.326,0,0,0,.321-.169l.1-.076a3.645,3.645,0,0,1-1.784.313,5.241,5.241,0,0,1-3.906-2.731,26.249,26.249,0,0,1-1.522-3.119,7.508,7.508,0,0,0-2.384-3.3,2.711,2.711,0,0,0-2.232-.44,3.382,3.382,0,0,0-1.851,1.462c-.448.651-.795,1.361-1.209,2.029a3.952,3.952,0,0,1-1.564,1.615,2.266,2.266,0,0,1-2.113-.178,4.222,4.222,0,0,1-1.53-1.589c-.744-1.293-1.057-2.79-1.894-4.016a4.464,4.464,0,0,0-1.572-1.454,2.7,2.7,0,0,0-2.02-.254,4.937,4.937,0,0,0-1.64.9,12.117,12.117,0,0,1-1.37.921,2.991,2.991,0,0,1-2.663.093A3.567,3.567,0,0,1,186.8,361.31Z" transform="translate(-83.591 -233.963)"/><path class="k" d="M189.513,382.639a1.345,1.345,0,0,0,.3-.051,1.24,1.24,0,0,1,.845.262,2.537,2.537,0,0,1,.778,1.158,4.278,4.278,0,0,1,.085,1.885,4.777,4.777,0,0,0,.178,2.452,2.6,2.6,0,0,0,2.46,1.412,3.912,3.912,0,0,0,2.9-1.353,11.631,11.631,0,0,0,1.843-2.959l-.152.118a2.485,2.485,0,0,1,2.3,1.141,5.916,5.916,0,0,1,.972,2.79,21.077,21.077,0,0,0,.406,2.283,4.852,4.852,0,0,0,1.107,2.037,2.729,2.729,0,0,0,2.054.947,3.229,3.229,0,0,0,1.987-.845,19.246,19.246,0,0,0,2.359-3.043,3.548,3.548,0,0,1,2.671-1.522,3.383,3.383,0,0,1,2.435.845,3.494,3.494,0,0,1,1.031,1.691,4.315,4.315,0,0,1,.076,1.691l.051-.1a2.1,2.1,0,0,0,.085-.338,3.437,3.437,0,0,0,0-1.327,3.5,3.5,0,0,0-3.652-2.773,3.618,3.618,0,0,0-1.6.431,4.674,4.674,0,0,0-1.344,1.175,19.775,19.775,0,0,1-2.333,2.967,2.807,2.807,0,0,1-1.733.735,2.3,2.3,0,0,1-1.733-.845,4.521,4.521,0,0,1-1-1.851,22.583,22.583,0,0,1-.4-2.24,6.2,6.2,0,0,0-1.057-2.984,2.891,2.891,0,0,0-2.714-1.293h-.11l-.051.093a11.643,11.643,0,0,1-1.75,2.874,3.534,3.534,0,0,1-2.621,1.26,2.264,2.264,0,0,1-2.164-1.184,4.648,4.648,0,0,1-.2-2.291,4.233,4.233,0,0,0-.152-1.987,2.535,2.535,0,0,0-.888-1.2,1.2,1.2,0,0,0-.913-.211A.665.665,0,0,0,189.513,382.639Z" transform="translate(-81.995 -237.235)"/><path class="k" d="M311.243,378.439a1.187,1.187,0,0,1,.423.118,2,2,0,0,1,.955.769,5.268,5.268,0,0,1,.752,1.826,10.683,10.683,0,0,0,.719,2.621A2.662,2.662,0,0,0,315.183,385a1.946,1.946,0,0,0,1.792.059,3.583,3.583,0,0,0,1.361-1.319,11.931,11.931,0,0,0,.9-1.691,5.455,5.455,0,0,1,1.091-1.6,1.87,1.87,0,0,1,1.691-.651,1.631,1.631,0,0,1,1.15,1.412,12.5,12.5,0,0,1,.11,2.206,6.163,6.163,0,0,0,1.539,4.227,3.7,3.7,0,0,0,4.016.955,13.343,13.343,0,0,0,2.933-2.392,3.009,3.009,0,0,1,2.8-.972,3.545,3.545,0,0,1,2.012,1.522,6.492,6.492,0,0,1,.786,1.818c.287,1.074.389,1.691.431,1.691a1.8,1.8,0,0,0,0-.448c-.042-.287-.1-.719-.228-1.268a6.56,6.56,0,0,0-.744-1.911,3.822,3.822,0,0,0-2.147-1.691,2.769,2.769,0,0,0-1.632.068,4.74,4.74,0,0,0-1.488.93,12.107,12.107,0,0,1-2.84,2.3,3.314,3.314,0,0,1-3.551-.888,5.739,5.739,0,0,1-1.412-3.931,11.588,11.588,0,0,0-.127-2.282,2.619,2.619,0,0,0-.465-1.1,1.83,1.83,0,0,0-1.006-.651,2.309,2.309,0,0,0-2.088.778,5.921,5.921,0,0,0-1.167,1.691,11.232,11.232,0,0,1-.845,1.691,3.193,3.193,0,0,1-1.192,1.2,1.607,1.607,0,0,1-1.471,0,2.351,2.351,0,0,1-.955-1.074,10.723,10.723,0,0,1-.761-2.536,5.127,5.127,0,0,0-.845-1.868,1.959,1.959,0,0,0-1.065-.752A.966.966,0,0,0,311.243,378.439Z" transform="translate(-306.354 -236.611)"/><path class="k" d="M309.542,354.94a1.26,1.26,0,0,0,.152.313c.118.194.3.473.541.845a8.669,8.669,0,0,0,1.006,1.217,4.439,4.439,0,0,0,1.8,1.107,3.138,3.138,0,0,0,2.536-.228c.845-.516,1.26-1.513,2.02-2.037a1.3,1.3,0,0,1,1.277-.135,2.235,2.235,0,0,1,.981,1.065,4.135,4.135,0,0,1,.406,1.53v1.733a4.937,4.937,0,0,0,.338,1.767,2.477,2.477,0,0,0,1.226,1.31,4,4,0,0,0,3.255-.186,14.285,14.285,0,0,0,2.435-1.606,7.158,7.158,0,0,1,2.139-1.167,2.806,2.806,0,0,1,1.927.093,2.61,2.61,0,0,1,1.175.9,1.869,1.869,0,0,1,.287,1.234,1.124,1.124,0,0,0,.093-.338,1.565,1.565,0,0,0-.237-.981,2.63,2.63,0,0,0-1.217-1.031,3.1,3.1,0,0,0-2.113-.178,7.455,7.455,0,0,0-2.266,1.175,15.531,15.531,0,0,1-2.384,1.53,3.635,3.635,0,0,1-2.908.169A2.1,2.1,0,0,1,321,361.948a4.559,4.559,0,0,1-.3-1.615v-1.741a4.653,4.653,0,0,0-.456-1.691,2.648,2.648,0,0,0-1.2-1.251,1.691,1.691,0,0,0-1.691.178c-.9.668-1.26,1.632-1.978,2.071a2.873,2.873,0,0,1-2.283.237,4.282,4.282,0,0,1-1.691-.989,9.236,9.236,0,0,1-1.04-1.141A12.342,12.342,0,0,0,309.542,354.94Z" transform="translate(-300.257 -232.978)"/><path class="k" d="M256.03,412.121a1.214,1.214,0,0,0,.431.5,2.445,2.445,0,0,0,1.86.3,5.027,5.027,0,0,0,1.31-.448,14.371,14.371,0,0,0,1.361-.845,7.754,7.754,0,0,1,1.581-.9,2.657,2.657,0,0,1,1.927-.051,3.451,3.451,0,0,1,1.581,1.462,18.377,18.377,0,0,1,1.1,2.2,12.1,12.1,0,0,0,1.285,2.375,3.735,3.735,0,0,0,1.091.921,2.17,2.17,0,0,0,.719.271,3.235,3.235,0,0,1,.372.076h.389a2.716,2.716,0,0,0,1.471-.516,5.417,5.417,0,0,0,1.116-1.082c.651-.8,1.184-1.691,1.818-2.536A4.707,4.707,0,0,1,277.815,412a3.828,3.828,0,0,1,2.976.626,6.92,6.92,0,0,1,2.181,2.3c.583.9,1.048,1.86,1.589,2.781a9.4,9.4,0,0,0,1.944,2.477,5.123,5.123,0,0,0,2.739,1.31,3.83,3.83,0,0,0,2.781-.845,9.113,9.113,0,0,0,1.792-2.02,12.307,12.307,0,0,1,3.052-3.551,3.439,3.439,0,0,1,1.885-.575,4.46,4.46,0,0,1,1.741.4,4.827,4.827,0,0,1,2.156,1.894,3.836,3.836,0,0,1,.558,1.741,4.908,4.908,0,0,0,0,.651v-.161a3.987,3.987,0,0,0,.051-.49,3.828,3.828,0,0,0-.507-1.826,4.892,4.892,0,0,0-2.2-2.029,4.562,4.562,0,0,0-1.843-.457,3.726,3.726,0,0,0-2.054.583,12.982,12.982,0,0,0-3.179,3.61,9.35,9.35,0,0,1-1.733,1.927,3.379,3.379,0,0,1-2.494.735,4.68,4.68,0,0,1-2.536-1.226,8.9,8.9,0,0,1-1.843-2.376c-.524-.9-1-1.868-1.589-2.8a7.392,7.392,0,0,0-2.316-2.435,4.23,4.23,0,0,0-3.322-.676,5.223,5.223,0,0,0-2.612,2c-.651.845-1.175,1.741-1.8,2.536a3.215,3.215,0,0,1-2.274,1.454,2.672,2.672,0,0,1-2.249-1.141,12.352,12.352,0,0,1-1.26-2.291,17.891,17.891,0,0,0-1.141-2.232,3.761,3.761,0,0,0-1.758-1.572,2.939,2.939,0,0,0-2.139.085,7.611,7.611,0,0,0-1.615.964,13.753,13.753,0,0,1-1.327.9,4.511,4.511,0,0,1-1.243.465,2.367,2.367,0,0,1-1.775-.211A3.833,3.833,0,0,1,256.03,412.121Z" transform="translate(-225.136 -241.516)"/><path class="k" d="M258.76,378.907a.286.286,0,0,0,.068.144.9.9,0,0,0,.347.287,1.944,1.944,0,0,0,1.691-.152c.693-.321,1.243-1.116,2.173-1.488a1.37,1.37,0,0,1,1.429.245,3.554,3.554,0,0,1,.778,1.589,10.762,10.762,0,0,0,.685,1.97,2.743,2.743,0,0,0,.735.9,2.311,2.311,0,0,0,1.133.44,5.285,5.285,0,0,0,4.345-2.274,13.233,13.233,0,0,1,1.834-1.826,3.792,3.792,0,0,1,2.46-.786,6.764,6.764,0,0,1,4.717,2.781c1.209,1.556,2.012,3.382,3.086,4.937a8.209,8.209,0,0,0,4.227,3.5,4.724,4.724,0,0,0,2.6.152,4.312,4.312,0,0,0,2.1-1.268c1.091-1.133,1.809-2.426,2.891-3.094a2.831,2.831,0,0,1,1.691-.431,2.9,2.9,0,0,1,1.479.549,6.528,6.528,0,0,1,1.75,1.936c.778,1.234,1.048,2.012,1.091,1.987a2.327,2.327,0,0,0-.186-.558,13.6,13.6,0,0,0-.752-1.522,6.855,6.855,0,0,0-1.758-2.046,3.166,3.166,0,0,0-1.6-.626,3.115,3.115,0,0,0-1.877.448c-1.192.719-1.927,2.037-2.993,3.1a3.959,3.959,0,0,1-1.927,1.15,4.393,4.393,0,0,1-2.392-.169,7.835,7.835,0,0,1-3.973-3.382c-1.04-1.547-1.843-3.381-3.094-4.971a7.118,7.118,0,0,0-5.072-2.942,4.307,4.307,0,0,0-2.722.845,14.011,14.011,0,0,0-1.911,1.9,7.229,7.229,0,0,1-1.843,1.632,3.7,3.7,0,0,1-2.164.549,2,2,0,0,1-1.606-1.133,10.94,10.94,0,0,1-.693-1.9,3.773,3.773,0,0,0-.888-1.691,1.691,1.691,0,0,0-1.691-.271c-1.014.448-1.53,1.268-2.173,1.572a1.876,1.876,0,0,1-1.564.228A1.275,1.275,0,0,1,258.76,378.907Z" transform="translate(-226.26 -236.436)"/><path class="k" d="M262.494,344.562a1.932,1.932,0,0,1,.431-.287,2.01,2.01,0,0,1,1.429-.1,2.757,2.757,0,0,1,1.741,1.42,14.734,14.734,0,0,1,1.057,2.967,6.522,6.522,0,0,0,.8,1.691,3.224,3.224,0,0,0,1.691,1.251,3.994,3.994,0,0,0,2.223-.068,7.809,7.809,0,0,0,2.1-1c1.31-.845,2.536-1.987,4.227-2.266a3.814,3.814,0,0,1,2.367.38,7.132,7.132,0,0,1,2.012,1.6c1.2,1.293,2.012,2.883,3.145,4.185a8.449,8.449,0,0,0,1.885,1.691,4.681,4.681,0,0,0,2.35.752,6.585,6.585,0,0,0,4.125-1.691c1.091-.845,2-1.784,2.967-2.435a5.128,5.128,0,0,1,2.866-1.04,3.687,3.687,0,0,1,2.181.7,2.388,2.388,0,0,1,.845,1.15c.118.321.11.507.144.507a1.354,1.354,0,0,0-.059-.533,2.384,2.384,0,0,0-.845-1.26,3.856,3.856,0,0,0-2.282-.845,5.469,5.469,0,0,0-3.043,1.031c-1.006.651-1.944,1.564-3.018,2.409a6.2,6.2,0,0,1-3.88,1.589,5.58,5.58,0,0,1-3.923-2.342c-1.091-1.26-1.9-2.849-3.153-4.227a7.548,7.548,0,0,0-2.139-1.691,4.278,4.278,0,0,0-2.638-.423c-1.784.338-3.06,1.53-4.328,2.359a5.168,5.168,0,0,1-4,1.048A2.863,2.863,0,0,1,268.284,350a6.081,6.081,0,0,1-.786-1.615,15.339,15.339,0,0,0-1.133-2.993,3.528,3.528,0,0,0-.888-1,2.918,2.918,0,0,0-1.031-.465,2.012,2.012,0,0,0-1.513.194A1.1,1.1,0,0,0,262.494,344.562Z" transform="translate(-230.425 -231.265)"/><path class="k" d="M280.6,328.209a.981.981,0,0,0,.051.313,4.92,4.92,0,0,0,.3.845,2.927,2.927,0,0,0,.9,1.175,1.556,1.556,0,0,0,1.927-.127,9.427,9.427,0,0,0,1.3-1.944,2.694,2.694,0,0,1,.8-.888,2.356,2.356,0,0,1,1.184-.372,3.44,3.44,0,0,1,2.536.938,8.365,8.365,0,0,1,1.75,2.485,6.283,6.283,0,0,0,.888,1.395,1.886,1.886,0,0,0,1.539.685,2.089,2.089,0,0,0,1.395-.845,4.106,4.106,0,0,0,.7-1.327,5.36,5.36,0,0,1,1.082-2.291,1.694,1.694,0,0,1,.947-.49,1.135,1.135,0,0,1,.9.271,3.848,3.848,0,0,1,.888,1.581,3.451,3.451,0,0,0,.727,1.277,1.386,1.386,0,0,0,.8.465.623.623,0,0,0,.33,0,1.514,1.514,0,0,1-1.006-.558,3.627,3.627,0,0,1-.626-1.243,3.9,3.9,0,0,0-.9-1.733,1.452,1.452,0,0,0-1.15-.38,2.089,2.089,0,0,0-1.158.566,5.6,5.6,0,0,0-1.217,2.418,3.683,3.683,0,0,1-.634,1.192,1.692,1.692,0,0,1-1.116.651,1.429,1.429,0,0,1-1.175-.549,6.357,6.357,0,0,1-.845-1.293,8.387,8.387,0,0,0-1.851-2.612,3.821,3.821,0,0,0-2.832-1.023,2.755,2.755,0,0,0-1.37.456,3.108,3.108,0,0,0-.9,1.014,9.358,9.358,0,0,1-1.2,1.9,1.26,1.26,0,0,1-1.581.152,2.831,2.831,0,0,1-.845-1.04C280.752,328.657,280.642,328.192,280.6,328.209Z" transform="translate(-244.195 -228.624)"/><path class="k" d="M213.466,328.54a1.584,1.584,0,0,0-.085.406,11.471,11.471,0,0,0-.1,1.167,5.711,5.711,0,0,0,.22,1.851,3.127,3.127,0,0,0,1.606,1.894,2.206,2.206,0,0,0,1.488.186,2.346,2.346,0,0,0,1.319-.947,14.037,14.037,0,0,0,.845-1.4,2.233,2.233,0,0,1,4.083.211,4.594,4.594,0,0,1,.524,1.8,14.534,14.534,0,0,1,0,2.012,6.272,6.272,0,0,0,.144,2.1A2.958,2.958,0,0,0,224.7,339.5a2.3,2.3,0,0,0,2.029.161,4.462,4.462,0,0,0,1.6-1.048c.845-.9,1.386-1.911,2.13-2.629a3.255,3.255,0,0,1,2.536-1.031,3.213,3.213,0,0,1,2.1.9,3.3,3.3,0,0,1,.845,1.53,4.4,4.4,0,0,1,.085,1.539.994.994,0,0,0,.118-.4,3.167,3.167,0,0,0,0-1.184,3.382,3.382,0,0,0-3.111-2.705,3.592,3.592,0,0,0-2.807,1.082c-.795.752-1.361,1.784-2.164,2.6a4.154,4.154,0,0,1-1.454.947,1.9,1.9,0,0,1-1.691-.135,2.536,2.536,0,0,1-1-1.479,5.751,5.751,0,0,1-.127-1.953,6.993,6.993,0,0,0-.558-4.049,2.9,2.9,0,0,0-3.424-1.454,2.868,2.868,0,0,0-1.353,1.243c-.313.49-.549.989-.845,1.395a1.993,1.993,0,0,1-1.107.845,1.919,1.919,0,0,1-1.268-.135,2.859,2.859,0,0,1-1.5-1.691,5.63,5.63,0,0,1-.287-1.775C213.449,329.106,213.508,328.548,213.466,328.54Z" transform="translate(-121.934 -228.896)"/><path class="e" d="M223.623,212.978c5.723-1.234,11.117,4.227,16.908,3.618,3.534-.389,6.391-2.942,9.629-4.413,4.844-2.19,11.421-2.054,15.944.744s7.346,5.622,7.549,10.931c4.506-2.1,11.218,3.923,13.222,9.35s.93,10.77-.93,16.257A76.4,76.4,0,0,1,271.134,275.2c-.583.668-1.488,1.378-2.249.938a1.911,1.911,0,0,1-.693-1.615c-.389-5.182.7-10.356,1.581-15.479s1.547-10.432.33-15.5-4.683-9.874-9.68-11.3c-3.694-1.065-7.7-.169-11.2,1.42s-6.645,3.855-10,5.715-7.084,3.382-10.922,3.2-7.786-2.308-9.122-5.918.9-8.369,4.717-8.851a7.549,7.549,0,0,1-.271-14.819Z" transform="translate(-177.378 -210.67)"/><path class="l" d="M240.133,305.495l1.479-10.99s-14.371-4.032-12.782-18.683c.761-7.076,3.517-21.523,6.154-34.559a27.467,27.467,0,0,1,30.188-21.819l1.412.169c15.115,2.722,21.253,17.077,18.116,32.124l-8.513,58.838a18.209,18.209,0,0,1-20.526,15.36h0A18.2,18.2,0,0,1,240.133,305.495Z" transform="translate(-184.275 -211.996)"/><path class="m" d="M257.79,307.628a34.241,34.241,0,0,0,19.731-3.128s-5.774,9.992-20.221,6.915Z" transform="translate(-200.47 -225.179)"/><path class="e" d="M278.235,255.433a2.13,2.13,0,0,0,1.741,2.426,2.046,2.046,0,0,0,2.384-1.64l.008-.051a2.139,2.139,0,0,0-1.741-2.435,2.046,2.046,0,0,0-2.382,1.642C278.241,255.394,278.239,255.414,278.235,255.433Z" transform="translate(-223.02 -217.324)"/><path class="e" d="M275.948,254.979c.228.3,1.944-.685,4.227-.406s3.762,1.6,4.041,1.353c.135-.11-.068-.634-.727-1.243a5.8,5.8,0,0,0-3.187-1.42,5.624,5.624,0,0,0-3.382.659C276.126,254.37,275.83,254.835,275.948,254.979Z" transform="translate(-222.948 -217.25)"/><path class="e" d="M252.913,257.554a2.164,2.164,0,0,0,1.741,2.468,2.063,2.063,0,0,0,2.39-1.673c0-.023.008-.046.011-.069a2.164,2.164,0,0,0-1.733-2.477,2.079,2.079,0,0,0-2.4,1.7Z" transform="translate(-176.302 -217.644)"/><path class="e" d="M250.418,257.05c.228.3,1.953-.676,4.227-.406s3.762,1.6,4.041,1.353c.135-.1-.068-.626-.727-1.234a5.736,5.736,0,0,0-3.187-1.42,5.56,5.56,0,0,0-3.381.659C250.6,256.45,250.3,256.915,250.418,257.05Z" transform="translate(-175.835 -217.571)"/><path class="e" d="M273.4,272.935a15.8,15.8,0,0,0-3.576-1.1c-.566-.127-1.091-.3-1.141-.71a2.943,2.943,0,0,1,.583-1.648l2.181-4.168c3.111-5.918,5.427-10.855,5.191-10.99s-2.95,4.59-6.061,10.533l-2.156,4.227a3.382,3.382,0,0,0-.566,2.223,1.465,1.465,0,0,0,.845.947,3.78,3.78,0,0,0,.955.254A15.4,15.4,0,0,0,273.4,272.935Z" transform="translate(-208.516 -217.419)"/><path class="e" d="M271.674,279.12c-.364-.059-.659,2.375-2.959,3.855s-4.861.9-4.92,1.243c-.059.152.516.541,1.615.7a6.063,6.063,0,0,0,4.092-.9,5.309,5.309,0,0,0,2.325-3.246C272.037,279.762,271.843,279.128,271.674,279.12Z" transform="translate(-200.354 -221.254)"/><path class="e" d="M246.888,244.978c.144.643,2.426.626,5.022,1.26s4.65,1.606,5.072,1.1c.186-.245-.11-.845-.9-1.556a8.995,8.995,0,0,0-7.684-1.792C247.37,244.259,246.786,244.682,246.888,244.978Z" transform="translate(-171.173 -215.787)"/><path class="e" d="M274.765,246.213c.338.558,1.944.22,3.813.414s3.382.761,3.821.271c.194-.245,0-.786-.626-1.353a5.554,5.554,0,0,0-6.154-.549C274.9,245.443,274.638,245.942,274.765,246.213Z" transform="translate(-220.159 -215.872)"/><path class="l" d="M224.189,270.232c.262-.076,10.407-1.767,8.893,8.2s-11.218,6.383-11.184,6.087S224.189,270.232,224.189,270.232Z" transform="translate(-126.257 -219.856)"/><path class="m" d="M225.016,281.861c.042,0,.152.144.423.33a1.774,1.774,0,0,0,1.293.22c1.116-.228,2.257-1.758,2.578-3.551a5.866,5.866,0,0,0-.11-2.536,2.02,2.02,0,0,0-1.1-1.53.9.9,0,0,0-1.1.321c-.178.262-.144.465-.194.473s-.194-.194-.051-.6a1.155,1.155,0,0,1,.49-.558,1.327,1.327,0,0,1,1-.11,2.467,2.467,0,0,1,1.581,1.826,5.987,5.987,0,0,1,.178,2.866c-.372,2-1.691,3.72-3.187,3.914a1.843,1.843,0,0,1-1.547-.507C224.974,282.107,224.949,281.87,225.016,281.861Z" transform="translate(-125.732 -220.504)"/><path class="e" d="M226.832,237.282a21.286,21.286,0,0,0,19.275-1.978c3.923-2.587,7.194-6.594,11.835-7.431a11.946,11.946,0,0,1,8.936,2.333,23.17,23.17,0,0,1,6.129,7.16c-3.72,7.093-2.815,15.623-1.818,23.569a4,4,0,0,0,.845,2.452c1.074,1.048,2.925.549,4.092-.406,1.86-1.53,2.79-3.889,3.491-6.2a41.48,41.48,0,0,0,1.894-16.265,28.236,28.236,0,0,0-6-15.065,26.733,26.733,0,0,0-17.753-9.3,32.827,32.827,0,0,0-19.714,4.489,19.2,19.2,0,0,0-6.991,6.34" transform="translate(-178.845 -211.498)"/><path class="g" d="M236.9,216.66a2.155,2.155,0,0,0,0,.845,4.046,4.046,0,0,0,1.15,2.232,6.375,6.375,0,0,0,3.584,1.691,10.847,10.847,0,0,0,2.536.144,5.282,5.282,0,0,0,2.688-.845,3.518,3.518,0,0,0,1.589-2.671,3.111,3.111,0,0,0-1.818-2.807,3.835,3.835,0,0,0-1.767-.448,3.381,3.381,0,0,0-1.818.566,4.581,4.581,0,0,0-1.9,3.322,5.284,5.284,0,0,0,1.133,3.855,8.1,8.1,0,0,0,3.381,2.494,13.221,13.221,0,0,0,8.665.093,37.379,37.379,0,0,0,7.93-3.568,48.829,48.829,0,0,1,7.219-3.474,14.848,14.848,0,0,1,7.076-.845,14.262,14.262,0,0,1,5.8,2.257,17.833,17.833,0,0,1,5.918,6.822c.49.964.8,1.75,1.014,2.283a5.523,5.523,0,0,0,.33.845.706.706,0,0,0-.051-.22c-.042-.144-.093-.355-.186-.626a18.548,18.548,0,0,0-.938-2.333,17.663,17.663,0,0,0-5.918-7.034,14.594,14.594,0,0,0-5.918-2.375,15.213,15.213,0,0,0-7.279.845,47.1,47.1,0,0,0-7.312,3.483,38.262,38.262,0,0,1-7.837,3.517,12.841,12.841,0,0,1-8.335-.076,7.606,7.606,0,0,1-3.179-2.325,4.8,4.8,0,0,1-1.057-3.517,4.124,4.124,0,0,1,1.691-3.01,3.069,3.069,0,0,1,3.153-.118,2.765,2.765,0,0,1,1.623,2.426,3.215,3.215,0,0,1-1.412,2.4,4.935,4.935,0,0,1-2.536.845,10.036,10.036,0,0,1-2.435-.1,6.24,6.24,0,0,1-3.491-1.555A4.125,4.125,0,0,1,237,217.564,8.6,8.6,0,0,1,236.9,216.66Z" transform="translate(-195.28 -211.309)"/><path class="g" d="M232.217,245.529a16.728,16.728,0,0,1-3.153.431,8.964,8.964,0,0,1-3.314-.752,14.853,14.853,0,0,1-3.534-2.257,11.836,11.836,0,0,1-3.737-6.492,25.2,25.2,0,0,1-.3-3.179,2.6,2.6,0,0,0-.152.845,9.7,9.7,0,0,0,.1,2.384,11.5,11.5,0,0,0,3.762,6.814,14.182,14.182,0,0,0,3.677,2.3,8.448,8.448,0,0,0,3.491.676,7.918,7.918,0,0,0,2.35-.414A2.918,2.918,0,0,0,232.217,245.529Z" transform="translate(-121.943 -214.166)"/><path class="g" d="M234.241,254c0-.093-1.2,0-3.077-.3a13.822,13.822,0,0,1-10.745-9.122c-.634-1.792-.71-2.993-.845-2.984a2.626,2.626,0,0,0,0,.845,11.424,11.424,0,0,0,.465,2.257,13.331,13.331,0,0,0,10.99,9.35,11.434,11.434,0,0,0,2.3.093A2.331,2.331,0,0,0,234.241,254Z" transform="translate(-125.269 -215.451)"/><path class="m" d="M251.956,270.053a.263.263,0,0,0,.321-.185h0a.254.254,0,0,0-.136-.332l-.016-.006a.27.27,0,0,0-.321.186.262.262,0,0,0,.152.338Z" transform="translate(-170.585 -219.77)"/><path class="m" d="M256.89,268.271a.321.321,0,0,0,.194-.592.3.3,0,0,0-.338.22A.287.287,0,0,0,256.89,268.271Z" transform="translate(-179.695 -219.485)"/><path class="m" d="M260.275,267.744a.4.4,0,0,0,.338-.338c.059-.22,0-.423-.144-.456s-.287.118-.338.338S260.14,267.71,260.275,267.744Z" transform="translate(-185.963 -219.372)"/><path class="m" d="M254.988,272.94c.135,0,.254-.042.262-.135s-.085-.169-.228-.186-.254,0-.262.127S254.853,272.94,254.988,272.94Z" transform="translate(-176.052 -220.248)"/><path class="m" d="M259.342,271.3a.287.287,0,1,0-.176-.367.311.311,0,0,0-.01.037A.271.271,0,0,0,259.342,271.3Z" transform="translate(-184.235 -219.958)"/><path class="m" d="M283.259,265.489a.271.271,0,0,0,.33-.194h0a.261.261,0,0,0-.142-.342l-.01,0a.262.262,0,0,0-.32.188l0,.007A.27.27,0,0,0,283.259,265.489Z" transform="translate(-228.365 -219.062)"/><path class="m" d="M286.72,264.739a.311.311,0,0,0,.313-.245.287.287,0,0,0-.178-.363.321.321,0,0,0-.135.609Z" transform="translate(-234.717 -218.937)"/><path class="m" d="M280.269,265.92a.236.236,0,0,0,.3-.127.228.228,0,0,0-.154-.283l-.015,0a.22.22,0,1,0-.19.4.2.2,0,0,0,.055.018Z" transform="translate(-222.797 -219.146)"/><path class="m" d="M283.055,269.1a.279.279,0,0,0,.363-.127.254.254,0,1,0-.389-.326.272.272,0,0,0-.042.073A.279.279,0,0,0,283.055,269.1Z" transform="translate(-228.102 -219.621)"/><path class="m" d="M286.349,268.173a.237.237,0,0,0,.22-.245.228.228,0,0,0-.274-.17h-.005a.213.213,0,1,0,.059.414Z" transform="translate(-233.839 -219.497)"/><path class="e" d="M223.034,275.83c0,.051.549.042,1-.609a1.757,1.757,0,0,0,.262-1.3,2.226,2.226,0,0,0-.9-1.353,2.274,2.274,0,0,0-1.572-.38,2.534,2.534,0,0,0-1.217.465c-.609.448-.71.947-.668.947a3.708,3.708,0,0,1,.845-.693,2.267,2.267,0,0,1,2.367,0,1.879,1.879,0,0,1,.761,1.074,1.46,1.46,0,0,1-.135,1.057C223.465,275.644,223,275.763,223.034,275.83Z" transform="translate(-115.676 -220.179)"/><path class="l" d="M245.962,404l-.752,21.836s63.31,12.537,71.46,16.73,11.463,4.844,10.99,16.907l-101.132-.169s-12.461-4.666-12.216-18.235,3.635-46.174,3.635-46.174Z" transform="translate(-214.308 -239.157)"/><path class="l" d="M219.506,467.366l-8.4-.769-8.023-19.165c1.293-.22,28.362-4.227,29.96-3.779l6.484,23.062S220.08,467.366,219.506,467.366Z" transform="translate(-116.637 -246.69)"/><path class="l" d="M214.308,470.29a1.155,1.155,0,0,1-.448.1c-2.24.245-12.562-.389-12.562-.389-.473-1.327.423-5.334,1.691-5.571s12.266.507,12.266.507,1.691.228,2.164,3.136C217.707,469.867,214.308,470.29,214.308,470.29Z" transform="translate(-92.934 -249.901)"/><path class="l" d="M210.025,463.35a1.067,1.067,0,0,1-.448.1c-2.232.245-12,.135-12.41-1.057-.473-1.327.271-4.666,1.555-4.9S211,458,211,458s1.691.228,2.164,3.136C213.423,462.927,210.025,463.35,210.025,463.35Z" transform="translate(-85.168 -248.828)"/><path class="l" d="M207.991,456.57a1.067,1.067,0,0,1-.448.1c-2.24.245-12,.135-12.419-1.057-.473-1.327.279-4.666,1.564-4.9s12.275.507,12.275.507,1.691.228,2.156,3.136C211.389,456.147,207.991,456.57,207.991,456.57Z" transform="translate(-81.401 -247.78)"/><path class="l" d="M206.068,449.822c0,.042-.178.076-.448.1-2.232.245-12,.135-12.419-1.048-.465-1.336.279-4.675,1.564-4.9s12.275.507,12.275.507,1.691.22,2.156,3.128C209.466,449.408,206.068,449.822,206.068,449.822Z" transform="translate(-77.855 -246.738)"/><path class="m" d="M203.69,464.344a19.633,19.633,0,0,0,4.751.44c2.6.076,4.717,0,4.7-.169a18.742,18.742,0,0,0-4.751-.44C205.778,464.108,203.681,464.175,203.69,464.344Z" transform="translate(-90.77 -249.865)"/><path class="m" d="M198.93,457.541c0,.169,3.018.406,6.763.524s6.763.076,6.763-.093-3.026-.406-6.763-.524S198.938,457.372,198.93,457.541Z" transform="translate(-86.06 -248.818)"/><g class="n" transform="translate(113.335 202.722)"><path class="m" d="M198.38,450.622c0,.169,3.018.406,6.763.524s6.763.076,6.763-.093-3.018-.406-6.763-.516S198.38,450.453,198.38,450.622Z" transform="translate(-198.38 -450.471)"/></g><path class="l" d="M206.3,445.077s18.421-8.192,19.57-7.008a27.21,27.21,0,0,1,2.925,4.988Z" transform="translate(-108.63 -245.814)"/><path class="m" d="M310.979,450.521c.076,0,.448-1.319,1.327-3.382a33.736,33.736,0,0,1,1.75-3.508,35.492,35.492,0,0,1,2.663-3.982,38.742,38.742,0,0,1,3.2-3.5,34.677,34.677,0,0,1,2.984-2.536c1.775-1.353,2.984-2.046,2.95-2.113a4.171,4.171,0,0,0-.845.431,22.242,22.242,0,0,0-2.249,1.429,29.857,29.857,0,0,0-3.077,2.536,33.589,33.589,0,0,0-3.28,3.584,34.153,34.153,0,0,0-2.671,4.058,28.464,28.464,0,0,0-1.691,3.584,21.544,21.544,0,0,0-.845,2.536A3.755,3.755,0,0,0,310.979,450.521Z" transform="translate(-294.186 -244.816)"/><path class="l" d="M213.67,332.45l19.055,54.239,21.422,6.171s-7.769,32.868-15.7,38.777c-2.7,2-7.1,4.176-11.615,3.863-8.564-.6-18.167-6.636-21.828-15.073-3.221-7.49-11.945-84.977-11.945-84.977Z" transform="translate(-122.789 -229.501)"/><path class="l" d="M237.017,329.538,235.9,316.325l3.069-10.609,1.184-4.058-2.316,2.375-4.227-4.506s1.37-8.006,2.536-8.006a21.257,21.257,0,0,1,4.286,1.26c.845.313,1.513.566,1.513.566l3.525,1.834-3.584-5.495s-3.686,3.069-5.571.406c-1.437-2.037,3.931-6.6,5.918-8.217a2.018,2.018,0,0,1,1.648-.389l2.088.414a3.035,3.035,0,0,1,3.052-2.781,4.7,4.7,0,0,1,4.058,2.435l2.2.4a3.669,3.669,0,0,1,3.441,2.392l4.836,13.154-6.205,26.739" transform="translate(-166.475 -221.254)"/><path class="m" d="M257.383,324.179s.051-.161.135-.473.2-.8.347-1.4c.3-1.251.744-3.052,1.293-5.36,1.107-4.667,2.68-11.336,4.6-19.444v-.1c-.955-2.6-1.961-5.368-3.018-8.268l-1.632-4.447a4.227,4.227,0,0,0-1.353-2.113,3.9,3.9,0,0,0-2.435-.845h0l-2.2-.4.144.1a5.328,5.328,0,0,0-1.606-1.691,4.4,4.4,0,0,0-2.308-.769,3.38,3.38,0,0,0-2.367.744,2.915,2.915,0,0,0-1.175,2.257l.262-.228-1.581-.313a5.628,5.628,0,0,0-.845-.144,2.282,2.282,0,0,0-.888.127,2.391,2.391,0,0,0-.752.457l-.643.524c-.423.355-.845.719-1.26,1.091a28.639,28.639,0,0,0-2.376,2.375,7.882,7.882,0,0,0-1.8,2.959,2.013,2.013,0,0,0,0,1.074,2.651,2.651,0,0,0,2.528,1.539,6.534,6.534,0,0,0,3.559-1.539l-.33-.042c1.217,1.851,2.409,3.686,3.584,5.486l.279-.313-3.576-1.826h0c-1.209-.456-2.4-.913-3.6-1.293a14.672,14.672,0,0,0-1.834-.5,1.707,1.707,0,0,0-.533,0,.847.847,0,0,0-.473.372,4.14,4.14,0,0,0-.44.845,41.648,41.648,0,0,0-1.691,6.932v.093l.068.076q2.206,2.333,4.227,4.5l.135.135.135-.135,2.308-2.376-.3-.169c-1.623,5.681-3.043,10.609-4.227,14.676v.042c.38,4.168.676,7.465.845,9.739l.254,2.587a5.324,5.324,0,0,0,.068.659.671.671,0,0,0,.042.22v-.888c-.042-.609-.1-1.471-.186-2.587-.178-2.283-.431-5.579-.761-9.747v.042c1.192-4.058,2.629-8.978,4.294-14.65l.2-.676-.5.507-2.325,2.359h.27l-4.227-4.514.051.169a41.545,41.545,0,0,1,1.691-6.848,4.078,4.078,0,0,1,.389-.769.54.54,0,0,1,.228-.211,1.789,1.789,0,0,1,.38,0,17.971,17.971,0,0,1,1.775.49c1.192.38,2.375.845,3.576,1.293h0l3.576,1.826.719.372-.44-.676-3.576-5.495-.127-.194-.194.152a6.34,6.34,0,0,1-3.3,1.437,2.164,2.164,0,0,1-2.088-1.268,1.441,1.441,0,0,1,0-.845,7.55,7.55,0,0,1,1.691-2.773,26.652,26.652,0,0,1,2.342-2.375c.406-.364.845-.727,1.243-1.074a5.26,5.26,0,0,1,1.268-.9,2.343,2.343,0,0,1,1.479,0l1.581.313.262.059v-.279a2.478,2.478,0,0,1,1.014-1.894,2.95,2.95,0,0,1,2.08-.651,4.4,4.4,0,0,1,3.567,2.266l.051.093h.093l2.206.4h0a3.5,3.5,0,0,1,2.181.769,3.882,3.882,0,0,1,1.234,1.936q.846,2.274,1.64,4.447,1.614,4.337,3.052,8.251v-.093c-1.86,8.141-3.381,14.819-4.447,19.494l-1.2,5.385c-.135.6-.237,1.065-.3,1.412A4.737,4.737,0,0,0,257.383,324.179Z" transform="translate(-166.502 -221.23)"/><path class="m" d="M264.081,303.271a23.849,23.849,0,0,0-3.7-2L259,300.6l1.141,1.031a3.58,3.58,0,0,1,.685,4.506,9.973,9.973,0,0,1-1.006,1.217,2.424,2.424,0,0,0,1.268-1.057,3.679,3.679,0,0,0,.642-1.691,3.8,3.8,0,0,0-.44-2.2,3.961,3.961,0,0,0-.845-1.091l-.228.355A24.254,24.254,0,0,0,264.081,303.271Z" transform="translate(-188.467 -224.576)"/><path class="m" d="M256.358,293.238a10.593,10.593,0,0,0-1.031-2c-.685-1.209-1.691-2.849-2.764-4.65-.558-.9-1.074-1.758-1.581-2.536a5.246,5.246,0,0,0-1.75-1.775,2.834,2.834,0,0,0-1.648-.363,1,1,0,0,0-.583.2h.592a2.916,2.916,0,0,1,1.479.465c1.167.685,1.987,2.494,3.111,4.269s2.122,3.382,2.874,4.582A12.61,12.61,0,0,0,256.358,293.238Z" transform="translate(-170.6 -221.685)"/><path class="m" d="M245.019,293.13a7.277,7.277,0,0,0-.626-1.792c-.448-1.091-1.107-2.536-1.9-4.176s-1.572-3.026-2.164-4.032a8.156,8.156,0,0,0-1.057-1.589,9.442,9.442,0,0,0,.778,1.691c.6,1.2,1.293,2.536,2.046,4.083l2.02,4.109A8.534,8.534,0,0,0,245.019,293.13Z" transform="translate(-152.725 -221.629)"/><path class="m" d="M210.82,390.34a4.853,4.853,0,0,0,.313.981l.972,2.621c.845,2.215,1.978,5.275,3.187,8.665s2.249,6.492,2.993,8.733c.355,1.057.659,1.944.9,2.655a5.037,5.037,0,0,0,.38.955,4.543,4.543,0,0,0-.211-1.006c-.169-.642-.431-1.564-.761-2.7-.676-2.266-1.691-5.385-2.883-8.783s-2.4-6.45-3.305-8.631c-.456-1.091-.845-1.97-1.116-2.578A4.687,4.687,0,0,0,210.82,390.34Z" transform="translate(-103.217 -238.452)"/><path class="m" d="M193.06,417.448a.663.663,0,0,0,0,.245c0,.194.059.431.093.727.1.676.237,1.606.406,2.8s.406,2.7.752,4.4a35.687,35.687,0,0,0,1.589,5.715,18.858,18.858,0,0,0,3.728,6.146,28.055,28.055,0,0,0,6.425,5.182,34.743,34.743,0,0,0,8.454,3.508,18.874,18.874,0,0,0,4.81.668,14.371,14.371,0,0,0,4.92-.845,18.207,18.207,0,0,0,7.854-5.8,31.221,31.221,0,0,0,4.548-7.913c1.1-2.7,1.758-5.393,2.536-7.845s1.471-4.751,2.113-6.848c1.31-4.185,2.308-7.608,2.933-9.959.313-1.192.541-2.113.685-2.739l.161-.719a.8.8,0,0,0,0-.245.91.91,0,0,0-.085.237c-.051.178-.118.414-.194.7-.186.651-.44,1.564-.769,2.714-.668,2.359-1.691,5.749-3.06,9.916-.659,2.1-1.386,4.379-2.164,6.839s-1.446,5.131-2.536,7.794a30.873,30.873,0,0,1-4.506,7.794,17.807,17.807,0,0,1-7.659,5.656,14.14,14.14,0,0,1-4.776.845,18.176,18.176,0,0,1-4.7-.651,34.41,34.41,0,0,1-8.327-3.432,28.125,28.125,0,0,1-6.357-5.072,18.908,18.908,0,0,1-3.711-6.011,37.687,37.687,0,0,1-1.64-5.656c-.364-1.691-.609-3.179-.845-4.379s-.372-2.113-.482-2.781l-.144-.727A2.416,2.416,0,0,0,193.06,417.448Z" transform="translate(-113.71 -240.553)"/></g><g transform="translate(267.764 238.313)"><path class="b" d="M34.908,401.708c.761-2.638,2.392-5.191,4.92-6.281s5.672-.482,8.361.49,5.326,2.283,8.175,2.46,6.078-1.175,6.932-3.906c.845-2.536-.744-5.3-2.68-7.169A16.907,16.907,0,0,0,32.9,393.922" transform="translate(39.772 -320.325)"/><g class="o" transform="translate(72.677 62.237)"><path d="M34.908,401.708c.761-2.638,2.392-5.191,4.92-6.281s5.672-.482,8.361.49,5.326,2.283,8.175,2.46,6.078-1.175,6.932-3.906c.845-2.536-.744-5.3-2.68-7.169A16.907,16.907,0,0,0,32.9,393.922" transform="translate(-32.905 -382.562)"/></g><path class="b" d="M46.863,412.777c-4.185-3.982-3.982-10.905-1.894-16.29s6.653-9.519,11.742-12.266a37.2,37.2,0,0,1,32.412-1.048,15.369,15.369,0,0,0-12.435,7.3c-2.3,3.813-2.807,8.454-4.7,12.461a19.621,19.621,0,0,1-25.125,9.823" transform="translate(5.204 -319.923)"/><path class="b" d="M75.934,377.889c-4.641-5.47-5.258-14.253-4.573-21.4s2.342-14.329,1.217-21.413c-.668-4.227-2.3-8.2-2.849-12.41s.228-8.986,3.491-11.7c3.753-3.128,9.663-2.392,13.526.541s6.163,7.549,7.82,12.148c3.627,10.094,4.962,21.295,1.978,31.6s-9.984,19.52-20.289,22.631" transform="translate(-25.88 -308.942)"/><path class="e" d="M63.488,434.441a2.669,2.669,0,0,1,0-.626v-1.809c.059-1.572.211-3.846.558-6.628a88.463,88.463,0,0,1,1.784-9.713,44.713,44.713,0,0,1,4.43-11.235,46.7,46.7,0,0,1,14.8-15.986c1.158-.8,2.274-1.412,3.238-1.97s1.851-.947,2.536-1.293l1.691-.7.592-.22a2.777,2.777,0,0,1-.558.3l-1.632.761c-.7.364-1.547.845-2.536,1.344a26.733,26.733,0,0,0-3.2,2,47.661,47.661,0,0,0-14.591,15.952c-4.227,7.456-5.427,15.3-6.273,20.8-.389,2.773-.575,5.072-.685,6.6l-.1,1.8A4.439,4.439,0,0,1,63.488,434.441Z" transform="translate(-15.657 -320.588)"/><path class="b" d="M127.427,365c-8.581,5.182-8.555,9.891-7.118,14.371s6.7,7.532,11.058,5.867c2.468-.938,4.227-3.086,5.782-5.233s2.967-4.464,5.072-6.011,5.241-2.147,7.389-.609" transform="translate(-119.59 -317.61)"/><g class="o" transform="translate(0 47.39)"><path d="M127.427,365c-8.581,5.182-8.555,9.891-7.118,14.371s6.7,7.532,11.058,5.867c2.468-.938,4.227-3.086,5.782-5.233s2.967-4.464,5.072-6.011,5.241-2.147,7.389-.609" transform="translate(-119.59 -365)"/></g><path class="b" d="M103.833,369.559c2.249-3.1,7.786-4,11.286-2.452s6.061,4.616,8.361,7.676,4.523,6.29,7.7,8.454,7.608,2.908,10.787.761a9.3,9.3,0,0,0,3.66-6.349,20.835,20.835,0,0,0-.507-7.473c-.752-3.6-1.987-7.355-4.869-9.646-3.212-2.536-7.659-2.663-11.759-2.536-4.692.161-9.468.507-13.873,2.139s-8.91,5.148-10.787,9.46" transform="translate(-102.421 -316.521)"/><path class="e" d="M128.986,423.679a.831.831,0,0,1,0-.194v-.549q0-.777-.076-2.13c-.051-1.877-.127-4.548-.22-7.828s-.237-7.245-.482-11.607-.566-9.164-1.226-14.152a46.511,46.511,0,0,0-1.42-7.194,38.068,38.068,0,0,0-2.629-6.29,37.491,37.491,0,0,0-3.322-5.208,33.635,33.635,0,0,0-3.618-3.973,26.726,26.726,0,0,0-6.416-4.379c-.423-.186-.786-.38-1.116-.507l-.845-.33-.516-.2-.169-.085.178.042.533.169.845.3c.338.127.7.3,1.133.482a25.967,25.967,0,0,1,6.543,4.311,34.154,34.154,0,0,1,3.686,3.982,36.308,36.308,0,0,1,3.382,5.241,37.135,37.135,0,0,1,2.671,6.34,44.892,44.892,0,0,1,1.446,7.253c.659,5.013.972,9.815,1.2,14.185s.33,8.31.4,11.615.093,5.985.1,7.837v2.68A.505.505,0,0,1,128.986,423.679Z" transform="translate(-88.323 -316.69)"/><path class="e" d="M90.02,422.767a25.3,25.3,0,0,1-.938-3.686,38.65,38.65,0,0,1-.389-10.347,69.08,69.08,0,0,1,3.28-15.014c1.767-5.52,4.151-11.421,6.2-17.753a79.97,79.97,0,0,0,2.46-9.392,82.34,82.34,0,0,0,1.2-8.969,131.951,131.951,0,0,0,.287-15.352c-.152-4.371-.38-7.9-.533-10.347-.068-1.2-.127-2.147-.161-2.815v-.727a.98.98,0,0,1,0-.254,1.157,1.157,0,0,1,0,.254,2.809,2.809,0,0,0,.076.727c.059.668.135,1.606.237,2.807.194,2.435.465,5.968.651,10.339a127.362,127.362,0,0,1-.2,15.369,82.893,82.893,0,0,1-1.2,9.012,81.409,81.409,0,0,1-2.469,9.443c-2.046,6.366-4.447,12.258-6.222,17.753a69.958,69.958,0,0,0-3.331,14.929,39.619,39.619,0,0,0,.271,10.3c.211,1.2.4,2.13.566,2.756q.11.448.178.71A1.1,1.1,0,0,1,90.02,422.767Z" transform="translate(-46.238 -311.906)"/><path class="g" d="M119.345,443.252H79.063L78.15,435.5h41.2Z" transform="translate(-54.293 -328.511)"/><path class="g" d="M83.26,443.62,88.3,466.876h21.887l4.709-23.256Z" transform="translate(-54.162 -329.766)"/><path class="g" d="M117.705,444.623c0,.1-8.851.161-19.773.135s-19.782-.144-19.782-.245,8.851-.169,19.782-.144S117.705,444.513,117.705,444.623Z" transform="translate(-52.653 -329.881)"/><path class="e" d="M113.043,457.659a16.266,16.266,0,0,0-3.542-2.037,12.512,12.512,0,0,0-4.32-.845,14.967,14.967,0,0,0-5.3.981c-1.834.617-3.551,1.344-5.216,1.741a12.509,12.509,0,0,1-4.514.135,9.415,9.415,0,0,1-2.9-.921,6.331,6.331,0,0,1-.7-.44c-.152-.118-.22-.178-.22-.194s.347.2.989.5a9.962,9.962,0,0,0,2.866.786,12.582,12.582,0,0,0,4.4-.211c1.615-.406,3.331-1.133,5.182-1.758a15.087,15.087,0,0,1,5.436-.964,12.374,12.374,0,0,1,4.4.964,11.43,11.43,0,0,1,2.621,1.539,6.483,6.483,0,0,1,.626.533C112.992,457.575,113.051,457.651,113.043,457.659Z" transform="translate(-54.906 -331.438)"/><path class="d" d="M112.5,459.491a17.584,17.584,0,0,0-3.382-2,11.435,11.435,0,0,0-4.159-.845,14.91,14.91,0,0,0-5.131.921c-1.775.592-3.441,1.277-5.072,1.691a13.185,13.185,0,0,1-4.337.49,7.425,7.425,0,0,1-2.84-.761,5.771,5.771,0,0,1-.676-.431c-.144-.11-.22-.178-.211-.186s.338.194.955.482a7.831,7.831,0,0,0,2.79.626,13.467,13.467,0,0,0,4.227-.558c1.555-.44,3.212-1.133,5-1.733a14.834,14.834,0,0,1,5.258-.913,11.38,11.38,0,0,1,6.763,2.485,5.6,5.6,0,0,1,.6.524C112.448,459.423,112.507,459.482,112.5,459.491Z" transform="translate(-54.667 -331.722)"/><path class="d" d="M113.4,455.771a19.966,19.966,0,0,0-3.644-2.147,13.459,13.459,0,0,0-4.421-1.057,14.141,14.141,0,0,0-5.478.964,49.236,49.236,0,0,1-5.4,1.758,13.638,13.638,0,0,1-4.658,0,10.461,10.461,0,0,1-2.993-.947,4.785,4.785,0,0,1-.727-.448c-.161-.118-.237-.186-.228-.194s.355.211,1.023.507a11.334,11.334,0,0,0,2.967.845,14.086,14.086,0,0,0,4.548-.093,53.378,53.378,0,0,0,5.351-1.775,14.3,14.3,0,0,1,5.613-.955,13.531,13.531,0,0,1,7.194,2.781,8.361,8.361,0,0,1,.651.558C113.333,455.686,113.409,455.762,113.4,455.771Z" transform="translate(-54.858 -331.096)"/><path class="e" d="M118.2,444.674c0,.1-9.062.186-20.23.186s-20.238-.085-20.238-.186,9.054-.194,20.238-.194S118.2,444.565,118.2,444.674Z" transform="translate(-52.791 -329.899)"/></g><g transform="translate(2.401 375.203)"><path class="e" d="M33.64,471.1c0,.118,82.4.22,184.013.22s184.03-.1,184.03-.22-82.373-.228-184.03-.228S33.64,470.98,33.64,471.1Z" transform="translate(-33.64 -470.87)"/></g></svg>