<svg xmlns="http://www.w3.org/2000/svg" width="11.461" height="11.464" viewBox="0 0 11.461 11.464"><path d="M7.324,10.767l-.739.739V4.865a.573.573,0,1,0-1.146,0v6.647L4.7,10.767a.573.573,0,1,0-.814.808L5.6,13.295a.573.573,0,0,0,.814,0l1.719-1.719a.573.573,0,1,0-.814-.808Zm6.137-8.194A.573.573,0,0,0,12.888,2H2.573A.573.573,0,0,0,2,2.573V6.011a.573.573,0,0,0,.573.573H3.719a.573.573,0,1,0,0-1.146H3.146V3.146h9.169V5.438H8.3a.573.573,0,0,0,0,1.146h.573V9.449a.573.573,0,0,0,.573.573h3.438a.573.573,0,0,0,.573-.573V2.573Zm-1.146,6.3H10.023V6.584h2.292Z" transform="translate(-2 -2)"/></svg>