<svg xmlns="http://www.w3.org/2000/svg" width="20" height="16.5" viewBox="0 0 20 16.5"><defs><style>.a{fill:#ff7d7d;}.b,.c{fill:#ff4848;}.b{opacity:0.24;}</style></defs><g transform="translate(-0.001)"><path class="a" d="M13,13H2a2,2,0,0,1-2-2V2A2,2,0,0,1,2,0H3.172A3,3,0,0,0,6,2,3.006,3.006,0,0,0,8.83,0H13a2,2,0,0,1,2,2v9A2,2,0,0,1,13,13ZM6.584,5a.562.562,0,0,0-.37.141.436.436,0,0,0-.166.345.5.5,0,0,0,.044.211l1.457,3.27a.543.543,0,0,0,.215.249.6.6,0,0,0,.618,0A.543.543,0,0,0,8.6,8.967L10.055,5.7a.5.5,0,0,0,.05-.211.44.44,0,0,0-.16-.347A.533.533,0,0,0,9.586,5a.441.441,0,0,0-.243.072.471.471,0,0,0-.171.216L8.09,7.844,7,5.288a.464.464,0,0,0-.174-.216A.454.454,0,0,0,6.584,5ZM5.16,5a.476.476,0,0,0-.367.148.56.56,0,0,0-.135.392v3.21a.569.569,0,0,0,.135.4A.476.476,0,0,0,5.16,9.3a.491.491,0,0,0,.375-.148.563.563,0,0,0,.138-.4V5.54a.554.554,0,0,0-.138-.392A.491.491,0,0,0,5.16,5Zm5.789.031a.452.452,0,0,0-.347.131.542.542,0,0,0-.122.378v3.21a.542.542,0,0,0,.122.378.45.45,0,0,0,.347.132h1.91a.528.528,0,0,0,.359-.108.4.4,0,0,0,.121-.312c0-.287-.161-.432-.48-.432H11.468V7.533h1.28a.528.528,0,0,0,.359-.108.4.4,0,0,0,.122-.312c0-.282-.162-.426-.481-.426h-1.28v-.8h1.391c.318,0,.48-.145.48-.432a.4.4,0,0,0-.121-.311.528.528,0,0,0-.359-.108ZM2,5a.475.475,0,0,0-.366.148A.557.557,0,0,0,1.5,5.54v3.2a.551.551,0,0,0,.122.384.451.451,0,0,0,.348.132H3.785a.526.526,0,0,0,.362-.108.438.438,0,0,0,.118-.337c0-.3-.161-.45-.48-.45H2.516V5.54a.553.553,0,0,0-.139-.392A.491.491,0,0,0,2,5Z" transform="translate(0 3.499)"/><path class="a" d="M5.278,8.118A.989.989,0,0,1,4.7,7.93L2.281,6.2V1.917L4.7.189A.99.99,0,0,1,5.277,0a1,1,0,0,1,1,1V7.116A1,1,0,0,1,5.278,8.118Zm-4-2.63h0L.42,4.874a1,1,0,0,1,0-1.628l.86-.615V5.488Z" transform="translate(13.72 5.44)"/><circle class="b" cx="2.5" cy="2.5" r="2.5" transform="translate(3.5)"/><circle class="c" cx="2" cy="2" r="2" transform="translate(4 0.5)"/></g></svg>