<svg xmlns="http://www.w3.org/2000/svg" width="15.971" height="12.83" viewBox="0 0 15.971 12.83"><defs><style>.a{fill:#fff;}</style></defs><g transform="translate(-106 -271)"><path class="a" d="M121.971,283.032V271.8a.8.8,0,0,0-.8-.8H106.8a.8.8,0,0,0-.8.8v11.233a.8.8,0,0,0,.8.8h14.374A.8.8,0,0,0,121.971,283.032Zm-4.348-4.979-4.791,3.194a.8.8,0,0,1-1.241-.664v-6.388a.8.8,0,0,1,1.242-.664l4.791,3.194a.8.8,0,0,1,0,1.329Z"/><path class="a" d="M241,362.427l2.553-1.7-2.553-1.7Z" transform="translate(-127.813 -83.336)"/></g></svg>