<svg width="202" height="202" viewBox="0 0 202 202" fill="none" xmlns="http://www.w3.org/2000/svg">
<circle cx="101" cy="101" r="101" fill="white"/>
<path d="M142.921 169.897C142.627 171.154 142.208 172.375 141.669 173.54C140.837 175.567 140.348 176.765 140.149 177.225C139.682 179.118 138.828 181.919 137.59 185.562C137.407 186.014 137.093 186.395 136.692 186.652C136.292 186.909 135.825 187.028 135.356 186.994C134.408 186.947 133.464 186.839 132.528 186.672C122.987 185.527 113.384 185.048 103.782 185.239C100.064 185.239 94.4777 185.345 86.9751 185.562C79.4725 185.778 73.8599 185.884 70.1681 185.884C68.4764 185.884 67.7848 185.129 68.0579 183.581C68.7951 179.479 69.9346 173.952 71.4765 167H87.2614C87.4281 167.507 87.7022 167.969 88.0632 168.35C92.5637 169.73 97.2585 170.288 101.941 169.998L110.311 169.916C113.874 169.916 123.968 169.268 140.594 167.972L141.753 167.889C142.806 167.778 143.18 168.465 142.921 169.897Z" fill="#43c6ac"/>
<path d="M81 147C81.9442 142.685 82.6841 139.088 83.2199 136.207C83.7763 133.166 84.5 128.764 85.3909 123H93.6488C93.5744 123.45 93.5432 123.906 93.5555 124.362C93.7065 125.986 94.8875 126.776 97.1073 126.776C97.7111 126.776 98.5769 126.749 99.7134 126.694H102.333C112.346 126.694 121.373 126.508 129.415 126.136C132.554 126.032 136.301 125.764 140.621 125.337C141.718 125.233 142.153 125.71 141.953 126.749C141.647 128.428 140.994 130.974 139.968 134.433C139.173 136.968 138.506 139.543 137.971 142.148C137.793 143.106 136.954 143.56 135.404 143.56C134.801 143.56 132.554 143.374 128.687 143.029C125.89 142.708 119.481 142.548 109.459 142.548C101.017 142.548 95.6585 142.654 93.3824 142.865C92.4434 142.879 91.5337 143.201 90.7883 143.785C90.0428 144.369 89.5015 145.183 89.2446 146.106C89.2978 145.938 89.2446 146.233 89.138 146.986L81 147Z" fill="#43c6ac"/>
<path d="M150.699 93.8131C150.857 92.4834 150.877 91.1405 150.757 89.8067C150.649 87.5758 150.578 86.2419 150.551 85.7684C150.771 83.6923 150.91 80.601 151 76.5946C151.003 76.3653 150.956 76.1382 150.863 75.9291C150.77 75.7199 150.634 75.5339 150.463 75.3839C150.291 75.2339 150.09 75.1235 149.873 75.0606C149.655 74.9976 149.426 74.9835 149.203 75.0193C148.179 75.0762 147.159 75.1947 146.148 75.3744C136.078 76.6181 125.934 77.1444 115.791 76.9497C111.932 76.9497 106.178 76.8313 98.4736 76.5946C90.7696 76.3578 93.4918 76.2395 89.6601 76.2395C89.296 76.1967 88.9271 76.2285 88.5753 76.333C88.2236 76.4375 87.8962 76.6126 87.6125 76.8479C87.3288 77.0831 87.0947 77.3738 86.924 77.7026C86.7533 78.0313 86.6496 78.3915 86.6189 78.7617C85.8552 83.275 84.9823 89.3544 84 97H96.7217C97.0884 96.4344 97.5435 95.9331 98.0693 95.5158C101.216 93.9444 104.738 93.3128 108.226 93.6947L116.9 93.7812C120.599 93.7812 130.832 94.493 147.599 95.9164L148.776 96.0029C149.796 96.1259 150.434 95.3883 150.699 93.8131Z" fill="#43c6ac"/>
<path fill-rule="evenodd" clip-rule="evenodd" d="M113.346 17.1907C111.4 16.8724 109.413 16.9532 107.497 17.4285C105.582 17.9038 103.776 18.7642 102.182 19.9608C100.589 21.1573 99.2391 22.6664 98.2099 24.402C97.1808 26.1376 96.4926 28.0657 96.1845 30.0761C95.8765 32.0866 95.9547 34.14 96.4146 36.1192C96.8746 38.0985 97.7073 39.9647 98.8652 41.6113C100.023 43.258 101.484 44.6529 103.163 45.7163C104.843 46.7798 106.709 47.4909 108.654 47.8092C112.584 48.4521 116.599 47.4557 119.817 45.0392C123.036 42.6227 125.193 38.9841 125.815 34.9238C126.438 30.8635 125.473 26.7142 123.135 23.3886C120.796 20.063 117.275 17.8335 113.346 17.1907Z" fill="#F16B24"/>
<path fill-rule="evenodd" clip-rule="evenodd" d="M128 18.2113C127.778 18.5174 124.476 21.3162 123.903 21.8041C122.519 23.0283 121.081 24.1904 119.696 25.4324C116.984 27.8675 114.046 30.2095 111.347 32.6401C110.711 33.2583 110.023 33.8221 109.292 34.3257C103.227 33.1639 97.1014 32.3406 90.9443 31.8595L92.8483 39.7237C93.057 40.0475 93.523 39.8169 93.736 40.4778C93.8192 40.6853 93.8289 40.915 93.7635 41.1288C93.6981 41.3426 93.5616 41.5276 93.3765 41.6532L95.791 44.8024L91.9341 46L92.5776 41.9326C92.156 41.7907 91.7965 41.6931 91.7166 41.0987C91.6189 40.3447 92.1116 40.358 92.1604 39.9277L90.1587 31.7176L86 31.1498C86.4438 30.52 104.641 15 104.641 15C104.641 15 127.507 17.9896 128 18.2113Z" fill="#43c6ac"/>
<path fill-rule="evenodd" clip-rule="evenodd" d="M78.9376 73.0904C79.4432 72.7958 79.9677 72.5355 80.5077 72.3113L74.9792 92.2329C74.4521 94.1738 74.3132 96.2007 74.5705 98.1961C74.8279 100.191 75.4765 102.115 76.4786 103.856C78.516 107.05 81.6303 109.396 85.2489 110.463C80.4369 127.602 74.276 149.638 70.6184 167L86.5404 166.915L102.02 114.492L112.131 116.824L111.688 126.28L115.58 126.235L120.596 126.137L125.271 126.008L129.87 125.839L128.986 112.154C128.481 109.263 127.141 106.586 125.134 104.456C123.127 102.326 120.541 100.839 117.699 100.179L106.739 97.5795L111.985 78.7352C112.396 79.1804 112.573 79.8571 112.98 80.3156C114.286 82.461 116.023 84.3084 118.079 85.7396C120.135 87.1707 122.466 88.1542 124.921 88.627L140.003 91.6854C141.56 92.0616 143.201 91.8477 144.611 91.0844C145.682 90.5679 146.62 89.8114 147.354 88.873C148.089 87.9346 148.6 86.8392 148.848 85.671C149.049 84.6908 149.051 83.6799 148.854 82.6989C148.657 81.7179 148.266 80.7869 147.704 79.9615C147.141 79.1362 146.419 78.4335 145.581 77.8954C144.743 77.3573 143.805 76.9949 142.825 76.8299L127.743 73.776C126.923 73.5128 126.197 73.0165 125.651 72.347C113.709 53.151 111.157 51.9134 107.478 51.4861L95.1382 50.1149C92.7632 49.7544 90.5872 49.6297 71.4764 59.615C67.5081 61.7996 64.1673 64.9783 61.7773 68.8434L53.0512 83.7835C52.5466 84.6401 52.215 85.5886 52.0753 86.5744C51.9356 87.5603 51.9906 88.5642 52.2372 89.5287C52.4837 90.4931 52.9169 91.3991 53.5119 92.1947C54.107 92.9903 54.8522 93.6598 55.7048 94.165C57.4385 95.1864 59.5023 95.4788 61.4488 94.9788C63.3952 94.4788 65.0674 93.2267 66.1028 91.4939L74.8156 76.7676C75.9225 75.2684 77.326 74.0164 78.9376 73.0904Z" fill="#F16B24"/>
</svg>
