<svg xmlns="http://www.w3.org/2000/svg" width="15.14" height="11.355" viewBox="0 0 15.14 11.355"><g transform="translate(-2.959 -76.229)"><path d="M13.721,59.882H1.419A1.421,1.421,0,0,0,0,61.3v8.516a1.421,1.421,0,0,0,1.419,1.419h12.3a1.421,1.421,0,0,0,1.419-1.419V61.3A1.421,1.421,0,0,0,13.721,59.882Zm0,.946a.47.47,0,0,1,.181.037L7.57,66.353,1.238,60.865a.471.471,0,0,1,.181-.037Zm0,9.463H1.419a.473.473,0,0,1-.473-.473V61.865L7.26,67.337a.474.474,0,0,0,.62,0l6.314-5.472v7.953A.473.473,0,0,1,13.721,70.291Z" transform="translate(2.959 16.347)"/></g></svg>