<svg xmlns="http://www.w3.org/2000/svg" width="12" height="8" viewBox="0 0 12 8"><defs><style>.a{opacity:0.3;}</style></defs><path class="a" d="M4.572,8.473a.6.6,0,0,0,.2.146.545.545,0,0,0,.461,0,.6.6,0,0,0,.2-.146.675.675,0,0,0,.131-.217.735.735,0,0,0,0-.513.675.675,0,0,0-.131-.217l-1.2-1.333a.6.6,0,0,0-.2-.14.545.545,0,0,0-.456,0,.6.6,0,0,0-.2.14l-1.2,1.333a.723.723,0,0,0,0,.947.561.561,0,0,0,.852,0l.174-.2v3.453l-.174-.2a.561.561,0,0,0-.852,0,.723.723,0,0,0,0,.947l1.2,1.333a.6.6,0,0,0,.2.14.513.513,0,0,0,.456,0,.6.6,0,0,0,.2-.14l1.2-1.333a.678.678,0,0,0,.131-.217.738.738,0,0,0,0-.512.678.678,0,0,0-.131-.217.6.6,0,0,0-.2-.145.547.547,0,0,0-.461,0,.6.6,0,0,0-.2.145l-.174.2V8.273ZM7.4,7.333h6a.571.571,0,0,0,.424-.2.72.72,0,0,0,0-.943A.571.571,0,0,0,13.4,6h-6a.571.571,0,0,0-.424.2.72.72,0,0,0,0,.943A.571.571,0,0,0,7.4,7.333Zm6,2h-6a.571.571,0,0,0-.424.2.72.72,0,0,0,0,.943.571.571,0,0,0,.424.2h6a.571.571,0,0,0,.424-.2.72.72,0,0,0,0-.943A.571.571,0,0,0,13.4,9.333Zm0,3.333h-6a.571.571,0,0,0-.424.2.72.72,0,0,0,0,.943A.571.571,0,0,0,7.4,14h6a.571.571,0,0,0,.424-.2.72.72,0,0,0,0-.943A.571.571,0,0,0,13.4,12.667Z" transform="translate(-1.996 -6)"/></svg>