<svg xmlns="http://www.w3.org/2000/svg" width="78" height="78" viewBox="0 0 78 78"><defs><style>.a{fill:#f3f5f9;}</style></defs><g transform="translate(-1337 -135)"><circle class="a" cx="39" cy="39" r="39" transform="translate(1337 135)"/><g transform="translate(1223.34 24.799)"><g transform="translate(159.086 141.33)"><path d="M387.551,177.769a3.551,3.551,0,1,1,3.551-3.551A3.562,3.562,0,0,1,387.551,177.769Zm0-5.327a1.776,1.776,0,1,0,1.776,1.776A1.678,1.678,0,0,0,387.551,172.443Z" transform="translate(-384 -170.667)"/></g><g transform="translate(159.086 150.208)"><path d="M393.766,284.435a.839.839,0,0,1-.888-.888v-1.776a2.731,2.731,0,0,0-2.663-2.663h-5.327a.888.888,0,0,1,0-1.776h5.327a4.4,4.4,0,0,1,4.439,4.439v1.776A.839.839,0,0,1,393.766,284.435Z" transform="translate(-384 -277.333)"/></g><g transform="translate(143.106 138.667)"><path d="M197.327,149.32a5.327,5.327,0,1,1,5.327-5.327A5.232,5.232,0,0,1,197.327,149.32Zm0-8.878a3.551,3.551,0,1,0,3.551,3.551A3.562,3.562,0,0,0,197.327,140.443Z" transform="translate(-192 -138.667)"/></g><g transform="translate(138.667 151.984)"><path d="M157.31,307.545a.839.839,0,0,1-.888-.888v-3.551a2.731,2.731,0,0,0-2.663-2.663H143.106a2.731,2.731,0,0,0-2.663,2.663v3.551a.888.888,0,0,1-1.776,0v-3.551a4.4,4.4,0,0,1,4.439-4.439h10.653a4.4,4.4,0,0,1,4.439,4.439v3.551A.839.839,0,0,1,157.31,307.545Z" transform="translate(-138.667 -298.667)"/></g></g></g></svg>