<svg xmlns="http://www.w3.org/2000/svg" width="14.406" height="14.406" viewBox="0 0 14.406 14.406"><path d="M12.3,3.63H11.9V2.11A2.113,2.113,0,0,0,9.792,0H4.615A2.113,2.113,0,0,0,2.5,2.11V3.63H2.11A2.113,2.113,0,0,0,0,5.74V9.116a2.113,2.113,0,0,0,2.11,2.11H2.5V13.14A1.268,1.268,0,0,0,3.77,14.406h6.865A1.268,1.268,0,0,0,11.9,13.14V11.227H12.3a2.113,2.113,0,0,0,2.11-2.11V5.74A2.113,2.113,0,0,0,12.3,3.63ZM3.348,2.11A1.268,1.268,0,0,1,4.615.844H9.792A1.268,1.268,0,0,1,11.058,2.11V3.63H3.348Zm7.71,11.03a.423.423,0,0,1-.422.422H3.77a.423.423,0,0,1-.422-.422V8.976h7.71Zm2.5-4.024A1.268,1.268,0,0,1,12.3,10.383H11.9V8.976h.253a.422.422,0,0,0,0-.844h-9.9a.422.422,0,0,0,0,.844H2.5v1.407H2.11A1.268,1.268,0,0,1,.844,9.116V5.74A1.268,1.268,0,0,1,2.11,4.474H12.3A1.268,1.268,0,0,1,13.562,5.74Z"/><path d="M203.673,353h-2.251a.422.422,0,1,0,0,.844h2.251a.422.422,0,1,0,0-.844Z" transform="translate(-195.344 -343.068)"/><path d="M203.673,417h-2.251a.422.422,0,0,0,0,.844h2.251a.422.422,0,0,0,0-.844Z" transform="translate(-195.344 -405.267)"/><path d="M66.773,193H65.422a.422.422,0,1,0,0,.844h1.351a.422.422,0,1,0,0-.844Z" transform="translate(-63.171 -187.57)"/></svg>