<svg xmlns="http://www.w3.org/2000/svg" width="78" height="78" viewBox="0 0 78 78"><defs><style>.a{fill:#f3f5f9;}</style></defs><g transform="translate(-1243 -135)"><circle class="a" cx="39" cy="39" r="39" transform="translate(1243 135)"/><g transform="translate(1270 162)"><path d="M20.485,3.515A12,12,0,0,0,1.607,18L0,24l6-1.607A12,12,0,0,0,20.485,3.515ZM12,22.594a10.57,10.57,0,0,1-5.53-1.556l-.258-.158L1.989,22.011l1.132-4.224-.158-.258A10.595,10.595,0,1,1,12,22.594Z"/><rect width="1.406" height="1.406" transform="translate(11.297 16.57)"/><path d="M184.516,128.5A3.52,3.52,0,0,0,181,132.016h1.406a2.109,2.109,0,1,1,3.681,1.406l-2.275,2.544v1.675h1.406V136.5l1.917-2.144a3.515,3.515,0,0,0-2.62-5.859Z" transform="translate(-172.516 -122.477)"/></g></g></svg>