<svg xmlns="http://www.w3.org/2000/svg" width="32" height="32" viewBox="0 0 32 32"><defs><style>.a,.b{fill:#fff;}.a{opacity:0;}</style></defs><g transform="translate(3 2.177)"><rect class="a" width="32" height="32" transform="translate(-3 -2.176)"/><g transform="translate(-0.144 0.49)"><path class="b" d="M241,5.481a2.33,2.33,0,0,0,2.327,2.327h.776v3.1h4.654V8.584a.776.776,0,1,1,1.551,0v2.327h4.706V0H244.1V3.154h-.776A2.33,2.33,0,0,0,241,5.481Zm2.327-.776h2.327V1.551h7.809V9.36h-1.6V8.584a2.327,2.327,0,0,0-4.654,0V9.36h-1.551v-3.1h-2.327a.776.776,0,1,1,0-1.551Z" transform="translate(-228.537)"/><path class="b" d="M20.219,130.308h-3.1v-.776a2.327,2.327,0,1,0-4.654,0v.776H10.911v-3.1H8.584a.776.776,0,0,1,0-1.551h2.327V121H0v20.219H20.219ZM1.551,122.551H9.36V124.1H8.584a2.327,2.327,0,0,0,0,4.654H9.36v1.551h-3.1v2.327a.776.776,0,1,1-1.551,0v-2.327H1.551ZM9.36,139.668H1.551V131.86h1.6v.776a2.327,2.327,0,1,0,4.654,0v-.776H9.36v3.1h2.327a.776.776,0,0,1,0,1.551H9.36Zm9.308,0H10.911v-1.6h.776a2.327,2.327,0,0,0,0-4.654h-.776V131.86h3.1v-2.327a.776.776,0,0,1,1.551,0v2.327h3.1Z" transform="translate(0 -114.743)"/></g></g></svg>