<svg xmlns="http://www.w3.org/2000/svg" width="20" height="20" viewBox="0 0 20 20"><defs><style>.a{fill:#64cfff;}</style></defs><g transform="translate(0 0.234)"><path class="a" d="M969.429,533.522c-.894-.913-2.009-2.084-2.89-2.987a.313.313,0,0,0-.535.224v2.978a.315.315,0,0,0,.314.314H969.2A.312.312,0,0,0,969.429,533.522Z" transform="translate(-950 -530.241)"/><path class="a" d="M968.74,535.233h-3.017a1.009,1.009,0,0,1-1.008-1.008v-2.959a1.259,1.259,0,0,0-1.259-1.259H951.265a1.259,1.259,0,0,0-1.259,1.259L950,548.749a.234.234,0,0,0,.362.195l7.061-4.635a.234.234,0,0,1,.287.024l1.6,1.484a.234.234,0,0,0,.324-.006l5.409-5.416h-1.5V539.22h3.291a.233.233,0,0,1,.233.233v3.291h-1.182v-1.536l-6.253,6.263a.234.234,0,0,1-.324.006l-1.605-1.489a.232.232,0,0,0-.281-.028l-5.884,3.615a.233.233,0,0,0,.123.432h17.074a1.259,1.259,0,0,0,1.259-1.259L970,536.493A1.26,1.26,0,0,0,968.74,535.233Zm-8.379,2.927h-7.418v-1.174h7.418Zm0-2.926h-7.418V534.06h7.418Z" transform="translate(-950 -530.241)"/></g></svg>