<svg xmlns="http://www.w3.org/2000/svg" width="15.2" height="16.95" viewBox="0 0 15.2 16.95"><defs><style>.a{fill:none;stroke:#000;stroke-linecap:round;stroke-linejoin:round;stroke-width:1.2px;}</style></defs><g transform="translate(-3.9 -2.4)"><path class="a" d="M27.208,5.354A2.354,2.354,0,1,1,24.854,3,2.354,2.354,0,0,1,27.208,5.354Z" transform="translate(-8.708)"/><path class="a" d="M9.208,15.854A2.354,2.354,0,1,1,6.854,13.5,2.354,2.354,0,0,1,9.208,15.854Z" transform="translate(0 -4.979)"/><path class="a" d="M27.208,26.354A2.354,2.354,0,1,1,24.854,24,2.354,2.354,0,0,1,27.208,26.354Z" transform="translate(-8.708 -9.958)"/><path class="a" d="M12.885,20.265l5.359,3.123" transform="translate(-4.061 -8.193)"/><path class="a" d="M18.236,9.765l-5.351,3.123" transform="translate(-4.061 -3.21)"/></g></svg>