<svg width="202" height="202" viewBox="0 0 202 202" fill="none" xmlns="http://www.w3.org/2000/svg">
<circle cx="101" cy="101" r="101" fill="#43c6ac"/>
<mask id="mask0" mask-type="alpha" maskUnits="userSpaceOnUse" x="0" y="0" width="202" height="202">
<circle cx="101" cy="101" r="101" fill="#43c6ac"/>
</mask>
<g mask="url(#mask0)">
<path d="M137.921 168.897C137.627 170.154 137.208 171.375 136.669 172.54C135.837 174.567 135.348 175.765 135.149 176.225C134.682 178.118 133.828 180.919 132.59 184.562C132.407 185.014 132.093 185.395 131.692 185.652C131.292 185.909 130.825 186.028 130.356 185.994C129.408 185.947 128.464 185.839 127.528 185.672C117.987 184.527 108.384 184.048 98.782 184.239C95.0638 184.239 89.4777 184.345 81.9751 184.562C74.4725 184.778 68.8599 184.884 65.1681 184.884C63.4764 184.884 62.7848 184.129 63.0579 182.581C63.7951 178.479 64.9346 172.952 66.4765 166H82.2614C82.4281 166.507 82.7022 166.969 83.0632 167.35C87.5637 168.73 92.2585 169.288 96.9406 168.998L105.311 168.916C108.874 168.916 118.968 168.268 135.594 166.972L136.753 166.889C137.806 166.778 138.18 167.465 137.921 168.897Z" fill="white"/>
<path d="M76 146C76.9442 141.685 77.6841 138.088 78.2199 135.207C78.7763 132.166 79.5 127.764 80.3909 122H88.6488C88.5744 122.45 88.5432 122.906 88.5555 123.362C88.7065 124.986 89.8875 125.776 92.1073 125.776C92.7111 125.776 93.5769 125.749 94.7134 125.694H97.3329C107.346 125.694 116.373 125.508 124.415 125.136C127.554 125.032 131.301 124.764 135.621 124.337C136.718 124.233 137.153 124.71 136.953 125.749C136.647 127.428 135.994 129.974 134.968 133.433C134.173 135.968 133.506 138.543 132.971 141.148C132.793 142.106 131.954 142.56 130.404 142.56C129.801 142.56 127.554 142.374 123.687 142.029C120.89 141.708 114.481 141.548 104.459 141.548C96.0172 141.548 90.6585 141.654 88.3824 141.865C87.4434 141.879 86.5337 142.201 85.7883 142.785C85.0428 143.369 84.5015 144.183 84.2446 145.106C84.2978 144.938 84.2446 145.233 84.138 145.986L76 146Z" fill="white"/>
<path d="M145.699 92.8131C145.857 91.4834 145.877 90.1405 145.757 88.8067C145.649 86.5758 145.578 85.2419 145.551 84.7684C145.771 82.6923 145.91 79.601 146 75.5946C146.003 75.3653 145.956 75.1382 145.863 74.9291C145.77 74.7199 145.634 74.5339 145.463 74.3839C145.291 74.2339 145.09 74.1235 144.873 74.0606C144.655 73.9976 144.426 73.9835 144.203 74.0193C143.179 74.0762 142.159 74.1947 141.148 74.3744C131.078 75.6181 120.934 76.1444 110.791 75.9497C106.932 75.9497 101.178 75.8313 93.4736 75.5946C85.7696 75.3578 88.4918 75.2395 84.6601 75.2395C84.296 75.1967 83.9271 75.2285 83.5753 75.333C83.2236 75.4375 82.8962 75.6126 82.6125 75.8479C82.3288 76.0831 82.0947 76.3738 81.924 76.7026C81.7533 77.0313 81.6496 77.3915 81.6189 77.7617C80.8552 82.275 79.9823 88.3544 79 96H91.7217C92.0884 95.4344 92.5435 94.9331 93.0693 94.5158C96.2158 92.9444 99.7385 92.3128 103.226 92.6947L111.9 92.7812C115.599 92.7812 125.832 93.493 142.599 94.9164L143.776 95.0029C144.796 95.1259 145.434 94.3883 145.699 92.8131Z" fill="white"/>
<path fill-rule="evenodd" clip-rule="evenodd" d="M108.346 16.1907C106.4 15.8724 104.413 15.9532 102.497 16.4285C100.582 16.9038 98.776 17.7642 97.1825 18.9608C95.5889 20.1573 94.2391 21.6664 93.2099 23.402C92.1808 25.1376 91.4926 27.0657 91.1845 29.0761C90.8765 31.0866 90.9547 33.14 91.4146 35.1192C91.8746 37.0985 92.7073 38.9647 93.8652 40.6113C95.0232 42.258 96.4836 43.6529 98.1633 44.7163C99.8429 45.7798 101.709 46.4909 103.654 46.8092C107.584 47.4521 111.599 46.4557 114.817 44.0392C118.036 41.6227 120.193 37.9841 120.815 33.9238C121.438 29.8635 120.473 25.7142 118.135 22.3886C115.796 19.063 112.275 16.8335 108.346 16.1907Z" fill="#F16B24"/>
<path fill-rule="evenodd" clip-rule="evenodd" d="M123 17.2113C122.778 17.5174 119.476 20.3162 118.903 20.8041C117.519 22.0283 116.081 23.1904 114.696 24.4324C111.984 26.8675 109.046 29.2095 106.347 31.6401C105.711 32.2583 105.023 32.8221 104.292 33.3257C98.2269 32.1639 92.1014 31.3406 85.9443 30.8595L87.8483 38.7237C88.057 39.0475 88.523 38.8169 88.736 39.4778C88.8192 39.6853 88.8289 39.915 88.7635 40.1288C88.6981 40.3426 88.5616 40.5276 88.3765 40.6532L90.791 43.8024L86.9341 45L87.5776 40.9326C87.156 40.7907 86.7965 40.6931 86.7166 40.0987C86.6189 39.3447 87.1116 39.358 87.1604 38.9277L85.1587 30.7176L81 30.1498C81.4438 29.52 99.641 14 99.641 14C99.641 14 122.507 16.9896 123 17.2113Z" fill="white"/>
<path fill-rule="evenodd" clip-rule="evenodd" d="M73.9376 72.0904C74.4432 71.7958 74.9677 71.5355 75.5077 71.3113L69.9792 91.2329C69.4521 93.1738 69.3132 95.2007 69.5705 97.1961C69.8279 99.1914 70.4765 101.115 71.4786 102.856C73.516 106.05 76.6303 108.396 80.2489 109.463C75.4369 126.602 69.276 148.638 65.6184 166L81.5404 165.915L97.02 113.492L107.131 115.824L106.688 125.28L110.58 125.235L115.596 125.137L120.271 125.008L124.87 124.839L123.986 111.154C123.481 108.263 122.141 105.586 120.134 103.456C118.127 101.326 115.541 99.8389 112.699 99.1793L101.739 96.5795L106.985 77.7352C107.396 78.1804 107.573 78.8571 107.98 79.3156C109.286 81.461 111.023 83.3084 113.079 84.7396C115.135 86.1707 117.466 87.1542 119.921 87.627L135.003 90.6854C136.56 91.0616 138.201 90.8477 139.611 90.0844C140.682 89.5679 141.62 88.8114 142.354 87.873C143.089 86.9346 143.6 85.8392 143.848 84.671C144.049 83.6908 144.051 82.6799 143.854 81.6989C143.657 80.7179 143.266 79.7869 142.704 78.9615C142.141 78.1362 141.419 77.4335 140.581 76.8954C139.743 76.3573 138.805 75.9949 137.825 75.8299L122.743 72.776C121.923 72.5128 121.197 72.0165 120.651 71.347C108.709 52.151 106.157 50.9134 102.478 50.4861L90.1382 49.1149C87.7632 48.7544 85.5872 48.6297 66.4764 58.615C62.5081 60.7996 59.1673 63.9783 56.7773 67.8434L48.0512 82.7835C47.5466 83.6401 47.215 84.5886 47.0753 85.5744C46.9356 86.5603 46.9906 87.5642 47.2372 88.5287C47.4837 89.4931 47.9169 90.3991 48.5119 91.1947C49.107 91.9903 49.8522 92.6598 50.7048 93.165C52.4385 94.1864 54.5023 94.4788 56.4488 93.9788C58.3952 93.4788 60.0674 92.2267 61.1028 90.4939L69.8156 75.7676C70.9225 74.2684 72.326 73.0164 73.9376 72.0904Z" fill="#F16B24"/>
</g>
</svg>
