<svg xmlns="http://www.w3.org/2000/svg" width="48" height="48" viewBox="0 0 48 48"><defs><style>.a{fill:#f5f5f5;}.a,.c{opacity:0;}.b{opacity:0.5;}.c,.d{fill:#fff;}</style></defs><g transform="translate(5516 -9183)"><rect class="a" width="48" height="48" rx="24" transform="translate(-5516 9183)"/><g class="b" transform="translate(-5506 9194.5)"><rect class="c" width="32" height="32" transform="translate(-2 -3.5)"/><g transform="translate(-49.407 -60.324)"><g transform="translate(50.418 59.839)"><path class="d" d="M70.179,220.2c0,.885.011,1.637,0,2.387-.018.922-.359,1.264-1.27,1.264q-8.6.005-17.2,0c-.937,0-1.282-.355-1.283-1.312q0-7.037,0-14.075c0-.9.361-1.276,1.264-1.277q8.6-.011,17.2,0c.934,0,1.274.361,1.29,1.314.012.695.008,1.39.014,2.085a1.233,1.233,0,0,0,.057.2c.183-.129.347-.236.5-.354,1.261-.956,2.525-1.909,3.779-2.874a1.116,1.116,0,0,1,1.278-.246,1.164,1.164,0,0,1,.576,1.169q-.017,7.037,0,14.075a1.156,1.156,0,0,1-.575,1.167,1.09,1.09,0,0,1-1.274-.237q-1.862-1.425-3.732-2.84C70.637,220.523,70.466,220.406,70.179,220.2Zm-2.061-10.915H52.494v12.5H68.118ZM74.3,210.3c-1.379,1.044-2.657,2-3.913,2.981a.8.8,0,0,0-.2.554c-.023.713.068,1.437-.027,2.138a2.4,2.4,0,0,0,1.295,2.648,33.8,33.8,0,0,1,2.845,2.117Z" transform="translate(-50.418 -197.896)"/><path class="d" d="M127.068,59.839a10.79,10.79,0,0,1,7.842,3.887,1.012,1.012,0,0,1,.03,1.494.943.943,0,0,1-1.474-.108,9.838,9.838,0,0,0-3.69-2.621,9.066,9.066,0,0,0-9.713,2.115c-.186.2-.365.4-.566.58a.935.935,0,0,1-1.391.042,1,1,0,0,1-.024-1.452A11.085,11.085,0,0,1,121.81,60.9,11.846,11.846,0,0,1,127.068,59.839Z" transform="translate(-113.539 -59.839)"/><path class="d" d="M194.778,133.165a6.727,6.727,0,0,1,3.539.958,1,1,0,0,1,.505,1.314,1.039,1.039,0,0,1-1.411.5,14.477,14.477,0,0,0-1.892-.671,4.649,4.649,0,0,0-3.074.5,1.558,1.558,0,0,1-1.022.223,1.436,1.436,0,0,1-.761-.826.914.914,0,0,1,.558-1.039A6.76,6.76,0,0,1,194.778,133.165Z" transform="translate(-181.793 -128.538)"/></g><g transform="translate(53.679 74.477)"><path class="d" d="M102.169,292.272q0-.17.141-.17h.966q.141,0,.141.17v4.079h1.424q.131,0,.131.166v1.06q0,.166-.131.166H102.31q-.141,0-.141-.166Z" transform="translate(-102.169 -292.102)"/><path class="d" d="M158.569,292.272q0-.17.141-.17h.986a.1.1,0,0,1,.094.043.272.272,0,0,1,.024.127v5.306a.26.26,0,0,1-.024.125.1.1,0,0,1-.094.042h-.986q-.141,0-.141-.166Z" transform="translate(-155.014 -292.102)"/><path class="d" d="M190.319,297.574q-.047.17-.188.17h-1.06q-.141,0-.189-.17l-1.357-5.306q-.05-.166.084-.166h1.047a.186.186,0,0,1,.118.039.216.216,0,0,1,.071.127l.68,3.395.071.471.074-.471.687-3.395a.217.217,0,0,1,.071-.127.191.191,0,0,1,.121-.039h1.044q.128,0,.084.166Z" transform="translate(-182.133 -292.102)"/><path class="d" d="M262.985,292.272q0-.17.141-.17h2.861q.131,0,.131.17v1.056q0,.166-.131.166H264.23v.736h1.323a.143.143,0,0,1,.108.042.185.185,0,0,1,.04.133v1.048q0,.166-.148.166H264.23v.772h1.808q.135,0,.135.166v1.021q0,.166-.135.166h-2.912q-.141,0-.141-.166Z" transform="translate(-252.85 -292.102)"/></g></g></g></g></svg>