<svg xmlns="http://www.w3.org/2000/svg" width="48" height="48" viewBox="0 0 48 48"><defs><style>.a{fill:#f5f5f5;}.a,.c{opacity:0;}.b{opacity:0.5;}.c,.d{fill:#fff;}</style></defs><g transform="translate(5511.907 -9278.093)"><rect class="a" width="48" height="48" rx="24" transform="translate(-5511.907 9278.093)"/><g class="b" transform="translate(-5507.181 9282.818)"><rect class="c" width="38" height="38" transform="translate(0.274 0.274)"/><g transform="translate(3.48 3.213)"><g transform="translate(0 0)"><g transform="translate(0 0)"><path class="d" d="M16.59,17.082h-7.4c-1.009,0-1.421-.415-1.423-1.432v-.4c0-1.172-.006-2.384.006-3.577a.323.323,0,0,0-.179-.336c-.915-.615-1.834-1.257-2.722-1.877l-.147-.1a1.365,1.365,0,0,1-.706-1.079,1.372,1.372,0,0,1,.71-1.084L5.012,7c.843-.588,1.714-1.2,2.583-1.78a.323.323,0,0,0,.174-.338c-.01-.99-.009-2-.007-2.968q0-.458,0-.916c0-1.148.4-1.535,1.564-1.535h9.395q2.7,0,5.4,0A1.207,1.207,0,0,1,25.512.838c0,5.282,0,10.148,0,14.874,0,.947-.428,1.369-1.387,1.37Zm-6.548-2.3H23.22V1.75H10.042V2.911q0,.377,0,.755c0,.6,0,1.221,0,1.831a1.307,1.307,0,0,1-.6,1.159c-.624.429-1.234.861-1.88,1.319l-.424.3c.138.1.272.2.405.293q.242.171.483.345c.42.3.855.614,1.293.9a1.486,1.486,0,0,1,.73,1.389c-.015.8-.012,1.606-.009,2.391q0,.488,0,.976Z" transform="translate(-4.016 0.543)"/></g></g><g transform="translate(10.506 15.439)"><path class="d" d="M179.047,260.3H171.5c-.959,0-1.387-.406-1.387-1.316,0-4.495,0-9.112,0-14.116,0-.9.441-1.324,1.387-1.325q2.707,0,5.414,0H186.3c1.169,0,1.563.372,1.564,1.473q0,.435,0,.87c0,.923,0,1.877-.007,2.816a.284.284,0,0,0,.167.3c.869.554,1.74,1.131,2.583,1.689l.286.189a1.12,1.12,0,0,1,0,2.088l-.162.108c-.883.585-1.8,1.19-2.706,1.771a.285.285,0,0,0-.172.3c.013,1.134.01,2.286.006,3.4v.375c0,.976-.415,1.375-1.423,1.375Zm-6.638-2.215h13.177v-.19q0-.464,0-.927c0-.744.006-1.513-.009-2.268a1.41,1.41,0,0,1,.737-1.336c.439-.268.874-.565,1.294-.851q.241-.164.482-.327c.125-.084.251-.171.38-.26l-.4-.269c-.645-.434-1.255-.845-1.878-1.251a1.242,1.242,0,0,1-.609-1.117c0-.581,0-1.173,0-1.745q0-.354,0-.708v-1.086H172.409Z" transform="translate(-170.115 -243.544)"/></g><g transform="translate(7.35 3.488)"><path class="d" d="M128.978,65a1.579,1.579,0,0,1-.645-.164,5.906,5.906,0,0,1-.723-.405c-.211-.136-.441-.291-.685-.462A5.735,5.735,0,0,1,122.9,64a3.962,3.962,0,0,1-1.488-1.029,4.4,4.4,0,0,1-.9-1.577,6.18,6.18,0,0,1-.295-1.937,6.015,6.015,0,0,1,.308-1.96,4.332,4.332,0,0,1,.913-1.557,3.992,3.992,0,0,1,1.465-.992,5.175,5.175,0,0,1,1.917-.338,5.032,5.032,0,0,1,2.506.6,3.941,3.941,0,0,1,1.62,1.72,5.708,5.708,0,0,1,.537,2.54,5.215,5.215,0,0,1-.933,3.188q.218.132.455.26a3.224,3.224,0,0,1,.69.454.921.921,0,0,1,.262.683,1,1,0,0,1-.978.948Zm-4.158-8.234a2.011,2.011,0,0,0-.82.166,1.751,1.751,0,0,0-.635.477,2.4,2.4,0,0,0-.437.837,4.021,4.021,0,0,0-.169,1.209,3.08,3.08,0,0,0,.607,2.059,1.839,1.839,0,0,0,1.256.667,3.187,3.187,0,0,1-.37-.222.754.754,0,0,1-.309-.626.793.793,0,0,1,.271-.593.852.852,0,0,1,.583-.237,3.544,3.544,0,0,1,1.722.76,2.424,2.424,0,0,0,.264-.585,4.239,4.239,0,0,0,.158-1.222,3.721,3.721,0,0,0-.276-1.5,1.914,1.914,0,0,0-.734-.889A2.029,2.029,0,0,0,124.82,56.767Z" transform="translate(-120.217 -54.61)"/></g><g transform="translate(15.112 19.128)"><path class="d" d="M250.523,311.611A1.165,1.165,0,0,1,250,311.5a1.108,1.108,0,0,1-.377-.306,2.179,2.179,0,0,1-.266-.474c-.077-.177-.145-.336-.2-.473l0-.01-.322-.845h-3.005l-.323.867a4.106,4.106,0,0,1-.467.976,1.019,1.019,0,0,1-.866.379,1.2,1.2,0,0,1-.848-.348,1.126,1.126,0,0,1-.372-.825,1.612,1.612,0,0,1,.077-.481c.043-.137.11-.319.206-.556l2.22-5.636.216-.553.011-.029a3.341,3.341,0,0,1,.323-.639,1.534,1.534,0,0,1,.525-.483,1.779,1.779,0,0,1,1.594,0,1.56,1.56,0,0,1,.522.473,2.912,2.912,0,0,1,.293.542c.071.172.16.4.266.678l2.267,5.6a3.04,3.04,0,0,1,.294,1.072,1.139,1.139,0,0,1-.363.822A1.214,1.214,0,0,1,250.523,311.611Zm-3.963-4.3h1.513l-.763-2.089Z" transform="translate(-242.946 -301.872)"/></g></g></g></g></svg>