<svg xmlns="http://www.w3.org/2000/svg" width="48" height="48" viewBox="0 0 48 48"><defs><style>.a{fill:#57ae57;}.a,.c{opacity:0;}.b{opacity:0.5;}.c,.d{fill:#fff;}</style></defs><g transform="translate(5516 -9020)"><rect class="a" width="48" height="48" rx="24" transform="translate(-5516 9020)"/><g class="b" transform="translate(-5506 9030)"><g transform="translate(-2 -2)"><rect class="c" width="32" height="32"/><g transform="translate(2.717 4.767)"><path class="d" d="M24.12,32H12.449A2.448,2.448,0,0,0,10,34.445v7.487L7.836,40.854c-.073-.036-.148-.071-.223-.1a3.7,3.7,0,1,0-5.1.226A4.925,4.925,0,0,0,0,45.283v2.5A2.45,2.45,0,0,0,1.667,50.1v4.35a.778.778,0,0,0,.778.778h5a.778.778,0,0,0,.778-.778V45.708l2.492,1.246a2.135,2.135,0,0,0,2.832-.893h2.79l-2.955,8.125a.778.778,0,0,0,1.463.532L18,46.061h.546l3.18,8.66a.778.778,0,0,0,1.461-.537L20.2,46.061h3.92a2.445,2.445,0,0,0,2.445-2.445v-9.17A2.445,2.445,0,0,0,24.12,32ZM2.807,38.2a2.139,2.139,0,1,1,2.139,2.139A2.142,2.142,0,0,1,2.807,38.2Zm9.412,7.032-.006.017a.575.575,0,0,1-.8.315L7.795,43.753a.779.779,0,0,0-1.126.7v9.225H3.224V49.451a.778.778,0,0,0-.778-.778.89.89,0,0,1-.889-.889v-2.5a3.39,3.39,0,0,1,3.39-3.39h.688a3.391,3.391,0,0,1,1.508.355l4.844,2.409A.467.467,0,0,1,12.219,45.229Zm12.79-1.613a.883.883,0,0,1-.26.629.9.9,0,0,1-.629.26h-10.4l0-.013,1.932-3.863a.778.778,0,0,0-1.392-.7l-1.647,3.294-1.046-.521V34.445a.89.89,0,0,1,.889-.889H24.12a.894.894,0,0,1,.629.261.882.882,0,0,1,.26.628Z" transform="translate(0 -32)"/><path class="d" d="M266.181,96.266h-8.336a.778.778,0,0,0,0,1.557h8.336a.778.778,0,0,0,0-1.557Z" transform="translate(-243.728 -92.932)"/><path class="d" d="M342.345,152.5h-4.168a.778.778,0,1,0,0,1.557h4.168a.778.778,0,0,0,0-1.557Z" transform="translate(-319.892 -146.248)"/><path class="d" d="M342.345,208.734h-4.168a.778.778,0,1,0,0,1.557h4.168a.778.778,0,0,0,0-1.557Z" transform="translate(-319.892 -199.564)"/></g></g></g></g></svg>