<svg xmlns="http://www.w3.org/2000/svg" width="48" height="48" viewBox="0 0 48 48"><defs><style>.a{opacity:0.5;}.b,.c{fill:#fff;}.b,.d{opacity:0;}.d{fill:#f5f5f5;}</style></defs><g transform="translate(5516 -9440)"><g class="a" transform="translate(-5505 9449.944)"><rect class="b" width="32" height="32" transform="translate(-3 -1.944)"/><g transform="translate(-71.089 -67.005)"><path class="c" d="M75.407,87.539l-2.149,2.212a1.033,1.033,0,0,1-1.325.265,1.089,1.089,0,0,1-.538-1.09c.009-1.958,0-3.916,0-5.874q0-5.9,0-11.806a3.105,3.105,0,0,1,3.362-3.366q7.753,0,15.506,0a3.128,3.128,0,0,1,3.422,3.378c0,.192.02.383.032.609.47.034.917.041,1.356.1a3.019,3.019,0,0,1,2.635,2.985c.014,6.03.005,12.06.008,18.09a1.05,1.05,0,0,1-.662,1.07,1,1,0,0,1-1.171-.292c-1.1-1.09-2.175-2.2-3.3-3.266a1.458,1.458,0,0,0-.908-.374c-4.17-.024-8.34-.014-12.51-.017C77.04,90.166,76.223,89.61,75.407,87.539Zm-1.948-1.1.18.091c.594-.616,1.21-1.212,1.774-1.853a1.873,1.873,0,0,1,1.555-.632c4.4.02,8.809.015,13.213.013,1.124,0,1.429-.311,1.43-1.434q0-5.55,0-11.1c0-1.34-.239-1.584-1.563-1.584H74.956c-1.221,0-1.5.271-1.5,1.474q0,7.223,0,14.446Zm22.028,4.117.145-.073c.009-.172.026-.343.026-.515q0-5.048,0-10.1c0-1.565.007-3.13-.005-4.7-.006-.693-.288-1.091-.836-1.163A8.966,8.966,0,0,0,93.686,74v.773c0,2.622-.039,5.244.012,7.865a3.266,3.266,0,0,1-3.454,3.486c-4.01-.073-8.021-.022-12.032-.022h-.659c-.17,1.384,0,2.025,1.678,2.005,4.363-.051,8.726-.011,13.089-.026a1.626,1.626,0,0,1,1.295.543C94.223,89.285,94.86,89.915,95.486,90.556Z" transform="translate(0)"/><path class="c" d="M164.581,214.208c1.272,0,2.545,0,3.817,0,.781,0,1.24.381,1.25,1.014s-.441,1.038-1.226,1.041q-3.847.016-7.694,0c-.8,0-1.218-.392-1.207-1.048s.443-1.009,1.242-1.011c1.272,0,2.545,0,3.817,0Z" transform="translate(-82.042 -136.22)"/><path class="c" d="M164.655,155.952c1.292,0,2.584,0,3.876,0,.73,0,1.175.4,1.17,1.018s-.463,1.008-1.189,1.009q-3.876.006-7.751,0c-.778,0-1.2-.386-1.182-1.057.015-.637.418-.967,1.2-.97C162.071,155.949,163.363,155.952,164.655,155.952Z" transform="translate(-82.094 -81.99)"/></g></g><rect class="d" width="48" height="48" rx="24" transform="translate(-5516 9440)"/></g></svg>