<svg xmlns="http://www.w3.org/2000/svg" width="48" height="48" viewBox="0 0 48 48"><defs><style>.a{fill:#f5f5f5;}.a,.c{opacity:0;}.b{opacity:0.5;}.c,.d{fill:#fff;}</style></defs><g transform="translate(5516 -9103)"><rect class="a" width="48" height="48" rx="24" transform="translate(-5516 9103)"/><g class="b" transform="translate(-5505.031 9112.885)"><rect class="c" width="32" height="32" transform="translate(-2.969 -1.885)"/><g transform="translate(-60.03 -62.549)"><path class="d" d="M253.677,75.856v-.63q0-5.233,0-10.466c0-.716.364-1.164.957-1.206.644-.046,1.1.423,1.1,1.181.007,2.18,0,4.361,0,6.541,0,1.524,0,3.048,0,4.561a7.342,7.342,0,0,1,6.033,8.585,7.19,7.19,0,0,1-14.161-.337C247.108,80.052,249.252,77.128,253.677,75.856Zm-4.049,7.151a5.086,5.086,0,1,0,5.105-5.069A5.063,5.063,0,0,0,249.628,83.008Z" transform="translate(-175.499 -0.105)"/><path class="d" d="M67.955,77.77c0,2.771,0,5.5,0,8.238,0,.971,0,1.943,0,2.914A1.048,1.048,0,0,1,66.9,90.094a1.027,1.027,0,0,1-1-1.159q-.009-5.055,0-10.109c0-.335,0-.671,0-1.055a7.256,7.256,0,0,1-5.378-3.9,6.867,6.867,0,0,1-.6-4.792,7.188,7.188,0,1,1,8.04,8.694ZM72,70.652a5.088,5.088,0,1,0-5.119,5.056A5.062,5.062,0,0,0,72,70.652Z" transform="translate(0)"/><path class="d" d="M320.023,322.267a11.467,11.467,0,0,1,.782-.9,1.049,1.049,0,0,1,1.5,0,1.037,1.037,0,0,1-.049,1.491,12.652,12.652,0,0,1-1,.8,10.7,10.7,0,0,1,.954.741,1.041,1.041,0,1,1-1.45,1.483c-.239-.235-.43-.518-.753-.916-.332.393-.539.679-.788.924a1.04,1.04,0,1,1-1.482-1.455,10.381,10.381,0,0,1,.949-.769c-.416-.347-.713-.552-.956-.808a1.043,1.043,0,1,1,1.457-1.491C319.449,321.6,319.672,321.885,320.023,322.267Z" transform="translate(-240.784 -240.73)"/><path class="d" d="M125.249,144.119c.481-.721.859-1.3,1.246-1.867.464-.685,1.042-.852,1.6-.47a1.079,1.079,0,0,1,.153,1.618c-.613.921-1.224,1.844-1.852,2.755a1.038,1.038,0,0,1-1.783.169q-.911-.892-1.805-1.8a1.049,1.049,0,0,1-.114-1.613,1.091,1.091,0,0,1,1.622.164C124.615,143.382,124.89,143.716,125.249,144.119Z" transform="translate(-58.531 -73.022)"/></g></g></g></svg>