<svg xmlns="http://www.w3.org/2000/svg" width="48" height="48" viewBox="0 0 48 48"><defs><style>.a{opacity:0.5;}.b,.c{fill:#fff;}.b,.d{opacity:0;}.d{fill:#f5f5f5;}</style></defs><g transform="translate(5516 -9522)"><g class="a" transform="translate(-5505 9532.177)"><rect class="b" width="32" height="32" transform="translate(-3 -2.176)"/><g transform="translate(-0.311 0.232)"><path class="c" d="M79.87,5H61V32.155H87.645V12.772Zm4.275,7.172H80.471V8.5ZM64.508,30.106l5.2-5.174,3.076,3.076,7.686-6.382v2.409h2.05V18.156H76.372v2.05h2.621l-6.208,4.9-3.073-3.073L63.05,28.666V7.05H78.422v7.174l7.174,0V30.106Z" transform="translate(-61 -5)"/><path class="c" d="M136,105h8.359v2.1H136Z" transform="translate(-131.359 -99.608)"/><path class="c" d="M136,179.737h8.359v2.1H136Z" transform="translate(-131.359 -169.125)"/></g></g><rect class="d" width="48" height="48" rx="24" transform="translate(-5516 9522)"/></g></svg>