<svg xmlns="http://www.w3.org/2000/svg" width="48" height="48" viewBox="0 0 48 48"><defs><style>.a{fill:#f5f5f5;}.a,.c{opacity:0;}.b{opacity:0.5;}.c,.d{fill:#fff;}</style></defs><g transform="translate(5516 -9357)"><rect class="a" width="48" height="48" rx="24" transform="translate(-5516 9357)"/><g class="b" transform="translate(-5505 9367.06)"><rect class="c" width="32" height="32" transform="translate(-3 -2.06)"/><g transform="translate(-43.165 -54.424)"><path class="d" d="M57.27,73.433c0,.345.02.6,0,.855-.072.791-.041,1.49.866,1.862a1.559,1.559,0,0,1,.688.787c.219.488.551.556,1.025.548,1.442-.027,2.885-.008,4.328-.01a1.128,1.128,0,0,1,1.159.659,1.045,1.045,0,0,1-1.067,1.432q-2.223.033-4.446,0a.943.943,0,0,0-.98.523,3.044,3.044,0,0,1-5.339-.129.656.656,0,0,0-.69-.391c-1.522.01-3.044.036-4.564-.019a1.535,1.535,0,0,1-1.046-.5c-.534-.7.044-1.559,1.022-1.571,1.462-.017,2.925-.019,4.387,0a.965.965,0,0,0,.989-.514,8.26,8.26,0,0,1,1.2-1.185,1.089,1.089,0,0,0,.336-.582c.046-.564.016-1.135.016-1.769h-.7q-5.069,0-10.138,0c-1.057,0-1.393-.33-1.393-1.368q0-7.826,0-15.652c0-1.041.341-1.38,1.387-1.38H68.086c1.084,0,1.411.329,1.412,1.415q0,7.767,0,15.533c0,1.137-.309,1.452-1.428,1.452H57.27ZM45.047,71.328H67.376V65.31H45.047Zm0-8.157H67.374V57.152H45.044ZM56.2,79.513a.974.974,0,0,0,1-.955.981.981,0,1,0-1,.955Z" transform="translate(0)"/><path class="d" d="M202.948,239.379c1.6,0,3.2-.03,4.8.023a1.6,1.6,0,0,1,1.047.5,1.207,1.207,0,0,1,.08.981.989.989,0,0,1-1.05.616q-1.987,0-3.973,0c-1.977,0-3.954.011-5.93-.008-.964-.009-1.548-.905-1.007-1.585a1.632,1.632,0,0,1,1.108-.5C199.666,239.348,201.307,239.379,202.948,239.379Z" transform="translate(-143.593 -172.119)"/><path class="d" d="M106.582,239.4c.335,0,.673-.023,1.006,0a1.046,1.046,0,0,1,1.023,1.085,1.03,1.03,0,0,1-1.031,1.013c-.67.03-1.343.028-2.012,0a1.052,1.052,0,1,1,.008-2.1c.334-.022.671,0,1.006,0Z" transform="translate(-57.497 -172.137)"/><path class="d" d="M203.114,118.5q-2.459,0-4.919,0c-.755,0-1.242-.42-1.238-1.052a1.064,1.064,0,0,1,1.2-1.038q4.949-.017,9.9,0a1.052,1.052,0,1,1-.019,2.085c-1.64.008-3.279,0-4.919,0Z" transform="translate(-143.822 -57.301)"/><path class="d" d="M106.6,118.622c-.354,0-.71.022-1.062-.005a1.038,1.038,0,0,1-.976-1,.98.98,0,0,1,.87-1.027,16.149,16.149,0,0,1,2.355,0,.946.946,0,0,1,.875,1.067,1.02,1.02,0,0,1-1,.971c-.353.023-.708,0-1.063,0Z" transform="translate(-57.549 -57.432)"/></g></g></g></svg>