<?xml version="1.0" standalone="no"?>
<!DOCTYPE svg PUBLIC "-//W3C//DTD SVG 1.1//EN" "http://www.w3.org/Graphics/SVG/1.1/DTD/svg11.dtd">
<svg xmlns="http://www.w3.org/2000/svg">
<metadata>Copyright (C) 2021 by original authors @ fontello.com</metadata>
<defs>
<font id="fontello" horiz-adv-x="1000" >
<font-face font-family="fontello" font-weight="400" font-stretch="normal" units-per-em="1000" ascent="850" descent="-150" />
<missing-glyph horiz-adv-x="1000" />
<glyph glyph-name="download" unicode="&#xe800;" d="M472 225l21-24 228 199-45 50-129-112c-3-3-8-5-12-2s-7 6-7 10v379h-67v-379c0-4-3-8-7-10-4-1-8-1-12 2l-129 112-45-50 204-175z m391-154c0-6-6-11-12-11h-709c-6 0-11 5-11 11v167h-67v-267h865v265h-66v-165z" horiz-adv-x="1000" />

<glyph glyph-name="concept" unicode="&#xe801;" d="M870 200c30 0 40-30 40-60 0-30-15-60-40-60-30 0-55 30-55 60 0 30 25 60 55 60z m-370 345c75 0 135 60 135 130s-60 125-135 125-135-55-135-130l0 0c0-65 60-125 135-125l0 0 0 0z m290-160c-70 70-175 115-290 115-120 0-220-45-290-115 125-20 225-55 290-105 70 55 165 90 290 105z m-270-485c85 70 225 95 335 110 5 0 10 5 10 10v20c-50 5-85 45-85 100s40 95 85 100v105c0 5-5 10-10 10l0 0c-110-10-250-35-335-110 0 0 0-345 0-345z m-295 240c0-55-40-95-85-100v-20c0-5 5-10 10-10 110-10 250-35 335-110v350c-85 70-225 95-335 110-10-5-15-10-15-15l0 0v-105c50-5 90-45 90-100z m-95-65c30 0 55 30 55 60s-25 60-55 60-40-30-40-60c-5-35 10-60 40-60z" horiz-adv-x="1000" />

<glyph glyph-name="info" unicode="&#xe802;" d="M630 605c20 20 30 45 30 70 0 30-10 50-30 70-20 20-45 30-75 30-30 0-55-10-75-30-20-20-35-45-35-70 0-30 10-50 30-70 20-20 45-30 75-30 35 0 60 10 80 30z m-50-655c40 20 55 50 40 65-10 10-25-5-35-5-25 0-40 5-50 10-10 10-15 20-15 45 0 10 0 20 5 35 5 15 5 30 10 45l45 160c5 15 5 30 10 50 0 20 0 30 0 35 0 35-10 60-35 80-25 20-55 30-100 30-25 0-50-5-75-15-55-10-40-55-30-55 25 0 40-5 50-10 10-10 15-20 15-45 0-10 0-25-5-40-5-15-5-30-10-45l-50-160c-5-15-5-30-10-45 0-15-5-25-5-40 0-35 10-60 35-80 25-20 60-40 105-40 35 0 75 10 105 25z" horiz-adv-x="1000" />

<glyph glyph-name="profile" unicode="&#xe803;" d="M505 325c105 0 195 85 195 195s-85 195-195 195c-105-5-195-90-195-200s90-190 195-190z m285-100c-50 60-135 80-215 60-25-10-50-10-75-10-25 0-50 5-75 10-75 25-160 5-215-60-35-45-60-105-60-170 0-35 25-65 65-65h570c35 0 65 25 65 65 5 65-20 125-60 170z" horiz-adv-x="1000" />

<glyph glyph-name="scholorship" unicode="&#xe804;" d="M555 630c-25 5-55 20-70 15-150-40-305-80-460-120v-50c135-45 270-85 405-130 20-5 45-20 60-20 10 0 30 10 45 15 105 35 215 65 320 95v30c-85 10-185 20-270 30-15 0-30 5-40 5s-20-10-30-10c-30-5-75 0-75 25s60 30 85 20c10-5 15-10 25-15 10-5 25 0 40-5 90-10 195-20 285-30 0-10 0-25 0-40 35 10 65 20 100 30v45c-135 35-285 75-420 110z m335-350c20 20 5 55-15 60v85l0 0c-5-5-15-5-20-5v-80c-25-5-35-40-20-60-35-10-15-70-20-110 30-10 70-10 95 0-5 40 15 100-20 110z m-405 5c-95 35-190 65-285 95 0 0 0 0 0-5 0-80 0-160 0-240 105-95 370-115 515-40 15 10 50 25 55 40v235l0 0c-100-25-190-55-285-85z" horiz-adv-x="1000" />

<glyph glyph-name="search-01" unicode="&#xe805;" d="M415 773c-190 0-340-155-340-340 0-190 155-340 340-340 75 0 145 25 200 65l215-215c20-20 55-20 75 0 20 20 20 55 0 75l-215 215c40 55 65 125 65 200 5 190-150 340-340 340l0 0z m0-100c130 0 240-105 240-240s-105-240-240-240c-130 0-240 105-240 240s110 240 240 240l0 0z" horiz-adv-x="1000" />

<glyph glyph-name="back-arrow" unicode="&#xe806;" d="M925 350c0-35-25-60-60-60h-590l185-185c25-20 25-60 0-80-25-25-60-25-80 0l-285 285c-25 20-25 60 0 80l285 285c20 25 60 25 80 0 25-20 25-60 0-80l-185-185h590c35 0 60-25 60-60z" horiz-adv-x="1000" />

<glyph glyph-name="logout" unicode="&#xe807;" d="M535 285h365c0 0 0 0 0 0 35 0 60 30 60 65 0 35-25 65-60 65 0 0 0 0 0 0h-365c-35 0-65-30-65-65l0 0c0-35 30-65 65-65z m-60 505c-240 0-440-195-440-440 0-240 195-440 440-440 145 0 285 75 365 195l5 5c5 10 10 20 10 30 0 35-30 65-65 65-20 0-35-10-50-25 0-5-5-5-5-10-60-85-155-140-260-140-175 0-315 140-315 315 0 175 140 315 315 315 105 0 200-50 260-140 0-5 5-5 5-10 10-15 30-25 50-25 35 0 65 30 65 65 0 10-5 20-10 30 0 0-5 5-5 5-80 130-220 205-365 205z" horiz-adv-x="1000" />

<glyph glyph-name="next" unicode="&#xe808;" d="M135 410h590l-185 185c-25 20-25 60 0 80 20 25 60 25 80 0l285-285c25-20 25-60 0-80l-285-285c-20-25-55-25-80 0-25 20-25 60 0 80l185 185h-590c-35 0-60 25-60 60s25 60 60 60z" horiz-adv-x="1000" />

<glyph glyph-name="next2" unicode="&#xe809;" d="M910 390l-390 390c-20 20-55 20-75 0-25-25-25-55 0-80l350-355-350-350c-20-20-20-55 0-75 10-10 25-15 40-15 15 0 25 5 40 15l390 390c15 25 15 55-5 80z m-265-40c0 30-25 55-55 55h-460c-30 0-55-25-55-55 0-30 25-55 55-55h465c30 0 50 25 50 55z" horiz-adv-x="1000" />

<glyph glyph-name="share" unicode="&#xe80a;" d="M731 781c-84 0-150-68-150-150 0-12 1-25 5-37l-223-125c-25 19-59 32-94 32-83 0-150-68-150-150s69-150 150-150c35 0 67 12 94 32l223-125c-3-13-5-25-5-38 0-83 68-150 150-150s150 68 150 150c0 84-68 150-150 150-49 0-91-22-118-58l-212 117c13 21 18 46 18 72 0 26-6 51-19 72l211 117c28-35 71-59 118-59 84 0 150 69 150 150s-65 150-148 150z m0-59c50 0 90-41 90-91 0-50-40-90-90-90-50 0-91 40-91 90 0 50 41 91 91 91z m-462-282c50 0 91-40 91-90s-41-91-91-91-90 41-90 91 40 90 90 90z m462-281c50 0 90-40 90-90 0-50-40-90-90-90-50 0-91 40-91 90 0 50 41 90 91 90z" horiz-adv-x="1000" />

<glyph glyph-name="bookmark" unicode="&#xe80b;" d="M890 445c5 5 10 10 10 20 0 15-5 25-20 30-5 0-10 0-15 0-35 5-70 5-100 5-10 0-10 5-15 10-15 35-25 70-40 105-5 10-15 20-25 20-10 0-20-5-25-15 0-5 0-5-5-10-15-30-25-65-40-95 0-5-5-10-10-10-40 0-80-5-120-5-15 0-25-10-25-25 0-15 10-25 20-30 25-20 50-45 80-65 5-5 5-5 5-10-10-35-20-75-30-110-5-15 5-30 20-35 10 0 20 0 25 5 30 20 60 35 90 55 5 5 10 5 20 0 30-20 60-40 95-60 10-10 25-10 35 0 10 10 15 20 10 30-10 35-15 70-25 105 0 10 0 15 5 20 25 15 50 40 80 65z m-245-250c-10-5-25-15-35-20-20-15-45-20-70-15-20 5-40 20-50 35-10 20-15 40-10 65l5 15c5 25 10 45 20 70-10 10-15 15-25 25-10 10-25 20-35 30-10 10-40 35-35 75 0 45 35 75 75 80l35 0c20 0 35 0 55 5 5 15 15 30 20 50l10 25c0 5 5 10 5 10 15 30 40 45 75 45v50c0 35-10 45-45 45-40 0-85 0-125 0h-245c-40 0-85 0-125 0-35 0-45-10-45-45 0-130 0-255 0-385 0 0 0 0 0 0v-375h0v-50c0-10 10-15 15-10 40 35 145 120 185 150 20 15 35 30 55 45 0 0 5 0 5 5 0 0 5 5 5 5 5 0 5 5 10 5 0 0 0 0 0 0 0 0 5 0 5 5 0 0 0 0 0 0 0 0 5 0 5 0 0 0 0 0 5 0 0 0 0 0 5 0 0 0 5 0 5 0 0 0 0 0 0 0 0 0 5 0 5-5 0 0 0 0 0 0 0 0 5-5 10-5 0 0 5-5 5-5 0 0 5 0 5-5 20-15 35-30 55-45 50-40 95-80 145-120l5-5c5-5 10-5 15-10 0 0 0 0 0 0l20-15c5-5 15 0 15 10v290c0 0 0 0-5 0-10-10-20-15-30-25z" horiz-adv-x="1000" />

<glyph glyph-name="time" unicode="&#xe80c;" d="M530 90c145 0 260 115 260 260s-115 260-260 260-265-115-265-260 120-260 265-260z m-25 290v105c0 30 45 30 45 0v-110c10-5 15-15 15-30 0-5 0-10 0-10l100-120c15-20-15-45-30-25l-100 120c-20-5-40 15-40 35-5 15 0 25 10 35z m425-30c0-220-180-400-400-400-160 0-300 95-365 240-15 30 35 55 50 20 55-125 180-205 320-205 190 0 345 155 345 345 0 190-155 345-345 345-185 0-335-135-350-315h40c30 0 25-35 10-50l-50-65c-15-20-40-20-55 0l-50 65c-15 20-20 50 10 50h40c15 210 190 370 400 370 220 0 400-180 400-400z" horiz-adv-x="1000" />

<glyph glyph-name="minus" unicode="&#xe80d;" d="M873 300h-745c-28 0-50 23-50 50s22 50 50 50h745c27 0 50-22 50-50s-23-50-50-50z" horiz-adv-x="1000" />

<glyph glyph-name="edit" unicode="&#xe80e;" d="M595 615l165-165-410-410-165 165 410 410z m290 40l-75 75c-30 30-75 30-100 0 0 0 0 0 0 0l-70-70 165-165 80 80c20 25 20 60 0 80z m-785-680c0-10 5-20 15-20 5 0 5 0 10 0l180 45-165 165-40-190z" horiz-adv-x="1000" />

<glyph glyph-name="call-us" unicode="&#xe80f;" d="M910 90l-150 150c-20 20-60 20-80 0l-45-40c-10-10-30-20-50-20-50 0-115 30-165 85-80 80-110 180-70 220l40 40c20 20 20 60 0 80l-150 150c-20 20-60 20-80 0l-25-20c-60-60-75-155-45-270 30-110 100-225 200-325 135-135 300-215 430-215 65 0 120 20 160 60l25 25c25 25 25 60 5 80z m-385 490c110 0 200-90 200-200 0-10 10-20 20-20s20 10 20 20c0 130-105 235-235 235-10 0-20-10-20-20s5-15 15-15z m-5-130c45 0 80-35 80-80 0-10 10-20 20-20 10 0 20 10 20 20 0 65-50 115-115 115-10 0-20-10-20-20s5-15 15-15z m15 250c170 0 310-140 310-310 0-10 10-20 20-20 10 0 20 10 20 20 0 190-155 350-350 350-10 0-20-10-20-20 0-10 10-20 20-20z m-35-365c5 0 10 0 10 5 5 5 5 10 5 15 0 5 0 10-5 15-5 5-20 5-25 0 0-5-5-10-5-15s0-10 5-10c5-5 10-10 15-10z" horiz-adv-x="1000" />

<glyph glyph-name="email-us" unicode="&#xe810;" d="M863 590v99c0 10-9 18-19 18h-172v44c0 10-8 18-18 18h-498c-10 0-18-8-18-18v-161c-37-4-66-34-66-72v-79-492c0-10 9-18 18-18h820c9 0 18 8 18 18v492 79c0 38-29 68-65 72z m29-182v-364l-278 200 278 164z m0 110v-68l-29-18v124c16-5 29-20 29-38z m-66 153v-261l-154-92v157h97c10 0 19 8 19 18s-9 18-19 18h-97v53h97c10 0 19 8 19 18s-9 18-19 18h-97v71h154z m-652 64h464v-436l-56-32-31 22c-30 22-73 22-104 0l-29-22-244 144v324z m-66-327l278-164-278-200v364z m30 148v-124l-30 18v68c0 18 13 33 30 38z m-30-591v35l361 260c19 14 45 14 63 0l361-260v-35h-785z m232 454c21-11 43-16 66-16 12 0 23 1 36 4 9 3 18 6 26 11 8 4 13 15 7 24-4 8-15 12-24 7-5-3-12-6-19-9-25-7-51-4-74 10-22 13-39 33-45 58-7 25-5 52 9 74 13 22 34 39 59 46 51 14 104-15 119-67 3-15 1-37-14-50-3-3-5-3-7-3-1 0-3 3-4 5-3 5-4 12-6 20l0 3c-2 14-4 22-4 35 0 0 0 1 0 1 0 0 0 2 0 2-4 16-15 25-23 29-23 10-49 0-56-4-26-13-44-38-47-66-4-32 15-69 49-73 2 0 4 0 6 0 13 0 25 5 37 15 5 6 11 11 15 18 5-11 15-18 28-21 12-3 26 2 37 10 24 19 33 53 27 85 0 0 0 0 0 0 0 0 0 0 0 0-20 71-94 112-163 93-35-10-62-32-81-63-18-30-22-66-12-100s28-59 58-78z m64 84c-5-6-11-6-14-6-12 2-19 22-18 34 2 15 13 29 28 37 7 4 14 6 19 6 3 0 5 0 6-2 1 0 1-1 3-4 0-18-9-51-24-65z" horiz-adv-x="1000" />

<glyph glyph-name="leader" unicode="&#xe811;" d="M875 555c-25 0-50-20-50-50 0-10 5-20 10-30l-220-185-80 280c10 15 15 25 15 35 0 25-20 50-50 50-25 0-50-20-50-50 0-10 5-20 10-30l-80-280-220 185c5 10 10 20 10 30 0 25-20 50-50 50s-50-20-50-50c0-25 15-45 40-45l75-315h0c-25 0-45-20-45-45v-10c0-25 20-45 45-45h630c25 0 45 20 45 45v5c0 25-20 45-45 45h-5l75 315c25 5 40 25 40 45 0 30-20 50-50 50z" horiz-adv-x="1000" />

<glyph glyph-name="quicktips" unicode="&#xe812;" d="M336 315c18-25 32-43 32-89 0-15 13-26 26-26h203c16 0 27 13 27 26 0 46 14 64 32 89l2 4c24 31 46 67 46 131 0 114-93 206-208 206s-208-93-208-206c0-64 22-100 45-131l3-4z m160 157c8 0 14-5 14-14 0-8-6-14-14-14-8 0-14 6-14 14 0 9 6 14 14 14z m26-75c24 11 41 35 41 61 0 38-31 67-67 67-38 0-67-31-67-67 0-26 17-50 40-61v-144h-50c-5 44-25 73-44 98-19 25-35 46-35 99 0 85 70 153 154 153 85 0 155-68 155-153 0-53-16-72-35-99-18-23-38-52-43-97h-50v143z m20-305h-93c-16 0-27-13-25-28 0-14 12-25 26-25 0 0 1 0 1 0h91c0 0 0 0 0 0 14 0 26 11 26 26 0 16-11 27-26 27z m-93-6c0 0 0 0 0 0l0 0 0 0z m133 86l-171 0c-1 0-1 0-3 0-15 0-26-12-25-28 0-6 3-13 9-18 5-4 11-7 18-7 0 0 1 0 1 0h171c14 0 26 12 26 27 0 15-11 26-26 26z m-174-5l0 0 0 0 0 0z m88 609c-236 0-429-193-429-429 0-84 25-166 73-239l-71-152c-5-14 0-30 13-35 7-3 15-3 22 0l153 71c72-49 154-74 239-74 236 0 429 193 429 429 0 238-192 429-429 429z m-302-676c5 8 3 19-2 26-48 66-73 142-73 221 0 207 170 377 377 377 207 0 376-170 376-377s-168-376-376-376c-81 0-157 25-221 72-4 3-10 6-15 6-4 0-9-2-11-3l-100-46 45 100z" horiz-adv-x="1000" />

<glyph glyph-name="chapters" unicode="&#xe813;" d="M200 781c-72 0-131-59-131-131v-597c0-72 59-131 131-131h726v859h-726z m44-106v-106h-45c-45 0-81 37-81 81s36 81 81 81h677v-162h-372v106h-260z m-118-132c2-1 3-1 5-3l2-1c2-1 3-1 5-3 1-1 2-1 4-3l2-1c2 0 3-1 5-1 1 0 2-2 4-2l3-1c1 0 2-2 4-2 1 0 4-1 5-1l3-1c1 0 3 0 4-2 3 0 4-1 7-1l3 0c1 0 1 0 3 0 4 0 8 0 14 0h45v-292l131 109 131-109v292h372v-547h-678c-44 0-81 36-81 80v495c0 0 2 0 2-2l3-1c0-2 1-2 2-3z m168-208v291h162v-291l-81 66-81-66z" horiz-adv-x="1000" />

<glyph glyph-name="blogs" unicode="&#xe814;" d="M131 721c11 0 19-8 19-20 0-11-8-19-19-19-12 0-20 8-20 19-1 12 7 20 20 20z m58 0c11 0 19-8 19-20 0-11-8-19-19-19s-20 8-20 19c0 12 9 20 20 20z m61 0c11 0 19-8 19-20 0-11-8-19-19-19-11 0-19 8-19 19-2 12 8 20 19 20z m-165-97h803c11 0 18 8 18 18 0 11-9 18-18 18h-803c-11 0-18-9-18-18-2-9 8-18 18-18m443-502l-14 14-151-153v139c0 4-2 10-6 14s-8 6-14 6h-217c-11 0-19 4-26 11-7 7-11 15-11 26v525c0 11 4 20 11 27 8 7 17 11 26 11h712c11 0 19-4 26-11 7-7 11-17 11-27v-526c0-11-4-20-11-27-7-7-17-11-26-11h-310c-4 0-10-1-14-5l14-13v-18h308c20 0 39 9 52 22s22 32 22 52v526c0 20-9 39-22 52s-32 22-52 22h-710c-19 0-38-9-51-22s-22-31-22-52v-526c0-20 8-39 22-52s32-22 51-22h200v-165c0-8 5-14 12-17s13-1 19 4l185 184-14 12v-18 18z m-31 82v-18h316c4 0 9 2 13 6s6 8 6 14v263c0 5-1 10-6 14s-8 6-13 6h-316c-4 0-9-1-14-6-4-4-5-8-5-14v-266c0-4 1-10 5-14 5-4 9-6 14-6v21h18v247h278v-229h-296v-18h18-18z m316 374h-664c-11 0-18-9-18-18 0-11 8-18 18-18h662c11 0 18 8 18 18 2 8-7 18-16 18m-396-89h-268c-11 0-18-8-18-18 0-11 8-18 18-18h266c11 0 18 8 18 18 2 10-7 18-16 18m0-89h-268c-11 0-18-8-18-18 0-11 8-18 18-18h266c11 0 18 8 18 18 2 10-7 18-16 18m0-89h-268c-11 0-18-8-18-18 0-11 8-18 18-18h266c11 0 18 8 18 18 2 10-7 18-16 18m0-87h-268c-11 0-18-9-18-18 0-12 8-18 18-18h266c11 0 18 8 18 18 2 8-7 18-16 18" horiz-adv-x="1000" />

<glyph glyph-name="feeds-game" unicode="&#xe815;" d="M534 767c-143 0-276-108-303-227-6-26-13-95-13-95l-66-166c-1-3-2-6-2-10 0-14 11-25 26-25h42v-88c0-69 56-125 125-125h50v-97h337v268c73 58 120 148 120 248 0 175-141 317-316 317z m187-511c-51-48-115-72-180-73l-4-122-133 142 142 133 0-3-3-104c53 2 105 22 147 61 91 85 96 229 10 320-85 91-229 96-320 10-45-43-69-100-71-158l-46 1c2 70 31 139 86 190 110 103 282 97 385-12 102-110 96-282-13-385z m-287 336c-10 18 18 32 28 15 46-82 53-96 99-179 3-6 2-11 0-15-1-1-2-3-3-4-45-40-72-59-117-99-15-14-37 10-21 24 42 37 66 53 107 91-44 78-49 89-93 167z" horiz-adv-x="1000" />

<glyph glyph-name="feeds-testimonials" unicode="&#xe816;" d="M879 124c46 55 70 122 70 191 0 181-164 328-367 328-25 0-50-3-74-7-11-3-19-12-16-25 2-11 12-19 25-17 21 5 43 6 65 6 179 0 324-128 324-285 0-62-23-122-66-172-4-5-5-11-4-18l20-106-106 38c-4 1-10 1-14 0-37-14-112-26-153-26-179 0-323 127-323 284 0 11-10 21-21 21-11 0-21-10-21-21-1-179 163-326 365-326 43 0 117 11 160 26l133-46c3-1 5-1 7-1 6 0 10 1 14 6 6 5 9 12 7 19l-25 131z m-530 232c2-2 7-3 9-3 5 0 9 1 13 4 7 4 10 12 8 21l-19 111 80 78c6 5 9 14 6 22-3 8-10 14-17 14l-111 16-50 102c-4 7-11 12-19 12-9 0-16-4-20-12l-50-102-111-16c-8-2-15-7-17-14-2-8 0-17 6-22l81-78-20-111c-1-9 1-17 8-21 7-4 16-6 23-1l100 52 100-52z m-181 57l14 79c1 7-1 14-6 19l-57 56 80 11c7 1 12 5 16 11l36 72 37-72c2-6 9-11 15-11l79-11-58-56c-6-5-7-12-6-19l14-79-71 37c-3 1-7 3-10 3-2 0-7-2-9-3l-74-37z m574 36h-317c-11 0-21-10-21-21 0-11 10-21 21-21h315c11 0 21 10 21 21 2 11-8 21-19 21z m21-132c0 11-10 21-21 21h-317c-11 0-21-10-21-21 0-11 10-21 21-21h315c13 0 23 10 23 21z m-338-89c-11 0-21-10-21-21 0-11 10-21 21-21h128c11 0 21 10 21 21 0 11-10 21-21 21h-128z" horiz-adv-x="1000" />

<glyph glyph-name="feed-subject" unicode="&#xe817;" d="M933 571l-423 165c-6 2-13 2-21 0l-424-165c-22-8-39-25-47-47-8-21-8-45 1-64 9-21 25-36 46-45l113-46v-134c0-146 166-211 322-211 115 0 236 36 292 114-6-10-9-23-9-35v-114c0-15 11-28 28-28h99c15 0 28 11 28 28v114c0 32-20 60-49 71v216l44 18c32 11 53 43 53 78v7c0 32-21 64-53 78z m-72-445c11 0 21-9 21-20v-88h-43v88c1 9 11 20 22 20z m8 316c-1 1-4 1-4 1l-359 65c-7 2-16 0-21-4-7-4-10-14-11-16-2-7 0-16 4-21 4-7 14-10 18-11l275-50-271-109-412 168c-5 2-13 6-16 16-3 8-3 15 0 22 3 7 9 11 16 14l412 164 414-163c11-4 18-15 18-26v-7c0-13-7-22-18-27l-45-16z m-636-95l193-78 66-25 2 0c0 0 2 0 2 0 5-1 11-1 15 2l256 100v-10c0-108-139-157-267-157s-267 49-267 157v11z m10-148c3-3 6-6 11-7 2-2 2-2 3-3 1 0 1-1 3-1 1-2 4-5 7-5 1 0 1-1 2-1 2-1 3-1 5-3 1-1 2-1 2-1l2-2c3-1 5-2 7-4 3-1 4-3 5-3 2-1 6-4 9-4 1-1 2-1 4-1 0 0 1 0 1 0l2-1c1-2 4-2 5-3 2-2 4-2 6-3l4-1c3-2 4-2 7-3 3-2 5-3 8-3l3 0c37-14 80-22 129-25 4 0 10 0 14-1l40 0c6 0 11 0 17 1 47 3 90 11 129 25l1 0c3 1 7 3 10 3 3 1 6 3 7 3 3 0 4 1 4 1l2 0c1 1 2 1 5 3 3 1 4 1 6 3l1 1c0 0 2 0 2 0 1 0 2 1 4 3 0 0 1 1 1 1 2 1 3 1 3 1l1 0c3 2 6 3 7 5 2 1 3 1 6 2l1 2c0 0 3 1 3 1l3 0c1 2 3 2 4 3 1 0 1 1 3 1l1 2c1 1 3 3 6 4l1 1c0 0 1 2 3 2 1 1 3 1 4 2 3 3 7 6 10 7l1 2c0 0 1 1 1 1h2c-24-86-150-125-264-125-115 0-238 39-264 125-3-5-1-5 0-5z m579 37v129l10 4v-193c-13-5-24-12-32-23 15 23 22 51 22 83z" horiz-adv-x="1000" />

<glyph glyph-name="active-students" unicode="&#xe818;" d="M638 733h-67c-7 0-13 6-13 13s6 12 13 12h67c6 0 12-5 12-12s-6-13-12-13z m195-419h-666c-7 0-13 5-13 12v420c0 7 6 12 13 12h204c7 0 12-5 12-12s-5-13-12-13h-192v-395h643v395h-119c-7 0-13 6-13 13s6 12 13 12h130c7 0 13-5 13-12v-420c0-8-6-12-13-12z m-333 419h-64c-7 0-12 6-12 13s5 12 12 12h64c7 0 13-5 13-12s-6-13-13-13z m411-790h-229c-7 0-13 6-13 13v57c0 38 31 69 70 69h115c39 0 70-31 70-69v-57c0-7-6-13-13-13z m-218 24h206v46c0 25-21 45-46 45h-115c-25 0-46-20-46-45v-46z m103 139c-40 0-72 32-72 72 0 40 32 72 72 72 40 0 72-32 72-72 0 0 0 0 0 0 1-40-32-72-72-72z m0 120c-27 0-49-22-49-48s22-49 49-49c26 0 48 22 48 49 0 0 0 0 0 0 0 28-20 48-48 48l0 0z m55-283h-109c-7 0-13 6-13 13v43c0 7 6 12 13 12s12-5 12-12v-31h86v31c0 7 6 12 13 12s12-5 12-12v-43c-1-7-7-13-14-13 0 0 0 0 0 0z m-236 0h-230c-7 0-13 6-13 13v57c0 38 31 69 70 69h115c39 0 69-31 69-69v-57c0-7-5-13-11-13l0 0z m-218 24h206v46c0 25-21 45-46 45h-115c-25 0-46-20-46-45v-46z m103 139c-40 0-72 32-72 72 0 40 32 72 72 72 40 0 72-32 72-72 0 0 0 0 0 0 0-40-32-72-72-72z m0 120c-26 0-49-22-49-48 0-27 23-49 49-49 26 0 49 22 49 49 0 0 0 0 0 0 0 28-23 48-49 48l0 0z m56-283h-112c-6 0-12 6-12 13v43c0 7 6 12 12 12 7 0 13-5 13-12v-31h86v31c0 7 6 12 13 12s12-5 12-12v-43c-1-7-5-13-12-13 0 0 0 0 0 0z m-238 0h-229c-7 0-13 6-13 13v57c0 38 31 69 70 69h115c39 0 70-31 70-69v-57c0-7-6-13-13-13z m-217 24h206v46c0 25-21 45-46 45h-115c-25 0-46-20-46-45v-46z m103 139c-40 0-72 32-72 72 0 40 32 72 72 72s72-32 72-72c0 0 0 0 0 0 0-40-32-72-72-72z m0 120c-26 0-48-22-48-48 0-27 22-49 48-49s49 22 49 49c0 0 0 0 0 0 0 28-22 48-49 48l0 0z m54-283h-109c-7 0-13 6-13 13v43c0 7 6 12 13 12 7 0 12-5 12-12v-31h86v31c0 7 6 12 13 12 7 0 12-5 12-12v-43c-1-7-7-13-14-13 0 0 0 0 0 0z m471 692h-458c-7 0-13 5-13 12s6 13 13 13h457c7 0 12-6 12-13s-5-12-11-12z m0-111h-458c-7 0-13 5-13 12 0 7 6 13 13 13h457c7 0 12-6 12-13 0-7-5-12-11-12z m0-111h-254c-7 0-12 5-12 12 0 7 5 13 12 13h253c7 0 12-6 12-13 0-7-5-12-11-12z" horiz-adv-x="1000" />

<glyph glyph-name="challenge" unicode="&#xe819;" d="M902 439c-54-59-135-95-216-96-37-54-87-99-148-132v-56c26-11 48-34 59-61h104c11 0 20-9 20-20v-154c0-11-9-20-20-20h-407c-11 0-20 9-20 20v153c0 11 9 20 20 20h104c11 28 31 50 59 61v56c-61 33-110 78-148 132-81 2-160 37-216 96-54 59-78 134-64 210 12 70 61 143 135 137 28-3 51-17 65-39 12-20 16-42 6-65-5-12-14-22-25-28-11-5-25-6-36-2-12 5-19 19-14 30 5 12 19 19 30 14l0 0c0 0 0 0 2 2 3 9 3 17-2 25-6 9-19 17-31 17-51 5-78-62-84-98-9-63 9-123 53-171 39-44 95-72 152-79-42 85-56 185-34 283l30 126h440l30-126c23-98 9-197-34-283 58 8 113 36 152 79 45 48 62 109 51 171-6 36-33 103-84 98-12-2-25-8-31-17-5-8-5-16-2-25 0-2 2-2 2-2 12 5 25-2 30-14s-2-25-14-30c-12-5-25-5-36 2-12 6-20 16-25 28-8 23-6 45 6 65 14 22 39 36 65 39 75 8 121-64 135-137 17-76-5-150-59-209z" horiz-adv-x="1000" />

<glyph glyph-name="chemistry" unicode="&#xe81a;" d="M411 722h-318c-11 0-21-9-21-21v-87c0-11 10-21 21-21h29v-455c0-74 60-134 134-134 73 0 133 60 133 134v413c0 12-10 21-21 21-11 0-21-9-21-21v-138h-184v180h248c11 0 21 10 21 21v89c0 10-10 19-21 19z m-142-391c0-12 10-21 21-21h56v-35h-56c-11 0-21-10-21-21 0-11 10-21 21-21h56v-34h-56c-11 0-21-10-21-21 0-11 10-21 21-21h56v-22c0-52-42-92-92-92-51 0-91 42-91 92v236h183v-20h-56c-11 0-21-8-21-20z m121 350v-48h-276v48h276z m536-534l-18 41-87 209v195h28c11 0 20 9 20 21v88c0 12-9 21-20 21h-327c-11 0-21-9-21-21v-87c0-11 10-21 21-21h257v-178h-183v138c0 11-10 21-21 21-11 0-21-10-21-21v-154l-105-252c-14-32-10-68 9-97 20-29 52-46 86-46h287c34 0 66 17 86 46 19 28 23 65 9 97z m-98 534v-48h-285v48h285z m-81-330c-11 0-21-9-21-20 0-12 10-21 21-21h63l14-35h-77c-11 0-21-10-21-21 0-11 10-21 21-21h95l14-34h-109c-11 0-21-10-21-21 0-11 10-21 21-21h128l11-28c8-19 7-40-5-58-13-18-31-28-52-28h-285c-20 0-38 10-51 28-12 17-14 39-5 58l101 242h197l8-20h-47z m-496-2c-2 2-5 2-5 2-2 0-3 2-3 2-5 1-12 0-19-6-5-4-6-8-6-15 0-4 1-8 4-14 0-1 2-3 3-4 3-3 6-3 6-3 1 0 2-1 4-1h5c2 0 3 1 3 1 1 0 3 2 3 2 3 0 5 1 7 5 3 4 4 8 4 14 0 4-1 10-6 15l0 2z m6-84l0 3-1 1c-2 2-2 3-3 3l-2 2c-2 2-5 2-5 2-2 0-3 2-4 2h-6c-1 0-4 0-7-2-3 0-4-1-5-4l-3 0v-5c0-2-2-3-2-3 0-1-1-3-1-4v-7c0-2 0-3 1-4 0-2 0-3 2-2v-3l1-1c2-1 2-3 3-3l1-1c3-3 6-3 6-3 1 0 3-1 4-1h6c1 0 4 0 7 1 2 0 5 2 7 4l1 2c3 2 3 5 3 5 0 2 1 3 1 4v6c0 1-1 3-1 3-3 4-3 5-3 5z m-22-65c-2 0-4 0-7-1l-3 0-1-2c-2-1-3-1-3-3l-3-1v-3c0-1-1-2-1-2 0-2-2-3-2-5v-8l2-1c0-2 1-3 1-3l0-3 1-1c2-2 2-3 3-3 4-3 9-4 14-4h3c1 0 4 0 7 1h3l1 2c1 1 3 1 3 2l1 2c3 2 3 5 3 5 0 2 1 3 1 4v3c0 4-1 10-5 15-6 5-13 7-18 6z m-17-26c0 0 0 0 0 0h6l0 0h-6z m465 172l0 0c-4-4-5-8-5-15 0-5 1-10 5-16 5-4 9-5 16-5h2c2 0 3 0 3 1 2 0 3 2 3 2 3 0 6 1 7 5 3 4 4 8 4 14 0 4-1 10-5 15-7 7-23 7-30-1z m30-74l0 0c-5 4-7 4-7 4-2 0-3 2-5 2h-7c-1 0-4 0-6-2-3 0-6-1-7-4l0-4c-3-3-3-5-3-5 0-2-2-3-2-5v-5c0-2 0-3 2-4 0-2 1-3 1-2v-3l2-1c1-1 1-3 2-3l2-1c3-3 5-3 5-3 2 0 3-1 4-1h6c1 0 4 0 7 1 3 0 6 2 7 4l1 2c3 2 3 5 3 5 0 2 1 3 1 4v6c0 1 0 4-1 7-1 4-3 7-5 8z m0-78c-6 5-13 6-19 6-1 0-4 0-5-1l-3 0-1-2c-2-1-3-1-3-3l-1-2c-3-3-3-6-3-6 0-1-2-3-2-4v-6c0-1 2-2 2-2 0-2 1-3 1-3l0-3 2-1c1-2 1-3 2-3l2-3h3c1 0 2-1 2-1 2 0 3-2 4-2h6c1 0 4 0 7 2l3 0 1 1c2 2 3 2 3 3l1 1c3 3 3 6 3 6 0 1 1 3 1 4v3c0 4-1 10-5 14l-1 2z m-409 237c4 0 10 1 15 5 5 4 6 8 6 15 0 5-1 10-6 14l0 2c-8 7-22 7-30-2-3-2-6-8-6-14 0-4 2-9 6-15 4-4 10-5 15-5z m-60 18c0 4-1 9-5 14l-1 1c-9 7-23 7-31-1l0 0c-6-6-6-12-6-14v-3c0-2 0-4 2-7v-3l5-3c5-4 9-5 16-5 4 0 9 1 15 5l1 2c3 3 3 5 3 5 0 2 1 3 1 4v5z m39 80c-8 9-22 9-30 0-4-4-6-8-6-15 0-4 2-10 6-15 4-5 8-6 15-6 4 0 10 1 15 6 5 4 6 8 6 15 1 5-1 10-6 15z m402-35c4 0 9 2 15 6 4 4 6 8 6 15 0 4-2 10-6 16-4 4-10 7-15 5-6 0-10-3-14-5-4-5-6-9-6-16 0-4 2-9 6-14 3-4 7-7 14-7z m68-52l0 0c4 4 7 9 7 15 0 4-2 10-6 15-4 4-10 7-15 6-6 0-10-3-14-6-4-4-6-8-6-15 0-4 2-10 6-15 4-4 8-6 15-6 4 2 10 4 13 6z m-117 12c0-4 2-10 6-15 4-4 8-6 15-6 4 0 10 2 15 6 4 4 6 8 6 15v3c0 1 0 4-2 7 0 3-1 4-2 5-2 2-3 3-5 3-2 2-4 2-4 2-1 0-1 1-2 1-6 1-13 0-20-6l-4-2c-3-3-3-6-3-6 0-1-1-3-1-4v-3z" horiz-adv-x="1000" />

<glyph glyph-name="coins" unicode="&#xe81b;" d="M593-3c0-32-19-57-49-78 163-47 407-2 407 82v55c-72-59-227-80-358-59z m0 129c0-11-4-23-8-32 6-11 8-23 8-36v-21c131-23 287 2 340 57 11 11 17 23 17 36 0 103 0 13 0 55-11-9-26-19-44-27-80-38-209-48-313-32z m0 131c0-11-4-23-8-32 6-9 8-21 8-32v-3-21c30-6 64-8 100-8 70 0 191 15 240 65 11 11 17 23 17 36 0 103 0 11 0 57-11-9-26-19-44-27-80-43-209-52-313-35z m102 292c-36 0-70-2-100-8v-21c0-13-2-25-8-36 9-21 8-36 8-72 0-23 2-36-8-57 9-19 8-36 8-57 125-21 287 2 340 57 11 11 17 23 17 36 0 30 0 46 0 59-1 54-115 99-257 99z m-142-494c-62-49-174-66-255-66-100 0-200 23-255 66v-55c0-55 115-100 255-100 136 0 255 44 255 101 0 18 0 34 0 54z m-255-26c81 0 195 17 240 65 11 11 17 23 17 36 0 23 0-27 0 53v2c-102-85-399-91-511 0v-53-4c0-13 6-25 17-36 35-37 127-63 237-63z m-238 195c83-87 399-84 479 0 11 11 17 23 17 36 0 25 0 30 0 53v2c-106-89-401-89-511 0 0-32 0-23 0-55-2-13 3-26 15-36z m0 130c81-84 393-87 479 0 11 11 17 23 17 36 0 27 0 32 0 53v2c-104-85-399-91-513 0 0-59-4-71 17-91z m0 129c17-17 45-32 83-44 134-42 333-19 395 44 11 11 17 23 17 36 0 23 0-4 0 55-110-87-403-87-513 0v-53-4c1-11 6-23 18-34z m478 131c21 21 17 30 17 95 0 55-113 100-255 100-142-2-257-45-257-100 0-51 0 59 0-61 0-13 6-25 17-36 83-86 397-84 478 2z" horiz-adv-x="1000" />

<glyph glyph-name="full-screen" unicode="&#xe81c;" d="M950 204c0-11 0-11 0-23v-203c0-45-34-79-79-79h-213c-23 0-45 23-45 45 0 11 0 23 11 34l79 79-203 192-202-203 79-79c11 0 11-11 11-23 0-23-23-45-45-45h-214c-45 1-79 35-79 80v202c0 11 0 11 0 23 0 11 23 34 45 34 11 0 23 0 34-11l79-79 191 202-203 202-79-79c0-11-11-11-23-11-23 0-45 23-45 34s0 11 0 23v191c0 56 34 90 79 90h214c23 0 45-23 45-45 0-11 0-23-11-34l-79-68 203-202 203 203-79 79c-11 0-11 11-11 23 0 23 22 45 45 45h214c45 0 79-34 79-90v-203c0-11 0-11 0-23 0 0-23-23-45-23-11 0-23 0-23 11l-79 79-203-202 203-203 79 79c0 11 11 11 23 11 22 0 44-22 44-33z" horiz-adv-x="1000" />

<glyph glyph-name="list" unicode="&#xe81d;" d="M935 650h-647v-139h648v139z m-183-235h-464v-139h464v139z m-237-226h-227v-139h228v139z m-381 323c38 0 69 31 69 69s-31 69-69 69c-38 0-69-31-69-69s30-69 69-69z m0-236c38 0 69 31 69 69 0 38-31 69-69 69-38 0-69-31-69-69 0-38 30-69 69-69z m0-222c38 0 69 31 69 69 0 38-31 69-69 69-38 0-69-31-69-69 0-38 30-69 69-69z" horiz-adv-x="1000" />

<glyph glyph-name="maths" unicode="&#xe81e;" d="M833 532c-50 56-116 90-189 101v78c0 7-5 14-12 14h-139c-7 0-12-7-12-14v-782c0-7 5-12 12-12h139c7 0 12 5 12 12v81c73 11 141 46 189 101 52 58 81 132 81 210 0 79-29 153-81 211z m-72-210c0-37-12-73-37-103-21-25-49-43-80-51v308c31-8 59-27 80-51 23-29 37-65 37-103z m-7-244l-25 44c-3 6-10 7-14 4-2-1-4-4-5-7s0-5 1-8l25-44c-28-16-58-25-90-31v104c39 10 73 32 98 63 28 33 44 76 44 119 0 43-16 86-44 120-25 30-59 52-98 62v104c30-5 61-15 89-29l-27-46c-1-2-1-5-1-8 1-3 3-6 6-7 5-3 11-1 13 4l25 45c24-14 45-32 63-53 11-13 21-25 29-39l-44-25c-3-1-5-4-6-7-1-3 0-5 1-8 2-3 5-4 7-6 3-1 6 0 9 2l44 25c21-38 32-81 34-125h-50c-6 0-12-5-12-12 0-5 5-11 12-11h51c-1-43-13-86-33-125l-45 25c-5 3-11 2-14-4-1-3-1-5-1-8s3-6 5-7l45-25c-8-14-18-28-29-39-20-15-41-33-63-47z m-189-102c0 6-4 11-11 11h-48v95h50c5 0 11 4 11 11 0 6-4 11-11 11h-49v93h49c5 0 11 4 11 11 0 6-4 11-11 11h-49v95h49c5 0 11 4 11 11 0 6-4 11-11 11h-49v95h49c5 0 11 4 11 11s-4 11-11 11h-49v94h49c5 0 11 4 11 11s-4 11-11 11h-49v95h49c5 0 11 4 11 11s-4 11-11 11h-49v20h112v-756h-112v24h49c5-7 9-3 9 2z m-150 285h-52l-34 247c3 3 6 5 7 7 20 20 31 48 31 75s-11 54-31 75c-14 14-32 24-51 28v71c0 7-6 12-13 12h-23c-7 0-13-5-13-12v-71c-18-4-35-14-48-28-20-19-31-47-31-75 0-27 11-54 31-75 1-1 2-2 5-4l-33-248h-61c-7 0-13-6-13-13s6-12 13-12h55l-28-203c0-2 0-2 0-3l12-101c0-6 5-12 11-12l11-1c0 0 1 0 1 0 3 0 6 1 8 3 3 3 5 5 6 8l42 309h30v-63c0-7 6-12 13-12s12 5 12 12v63h32l42-309c1-7 7-12 14-11l9 1c6 0 12 6 12 12l11 100c0 1 0 2 0 2l-28 203h49c6 0 12 6 12 13s-3 12-10 12z m-141 0v22c0 7-6 13-13 13s-12-6-12-13v-22h-28l29 224c7-2 14-2 21 0l30-222h-27z m-84-25l-33-244-4 39 28 205h9z m-5 25l32 233c2-1 5-2 9-4l-32-229h-9z m123 264l-1-1c-14-10-29-14-46-14-21 0-42 8-57 23-15 16-23 35-23 57 0 21 8 42 23 57 15 16 35 24 57 24 21 0 42-8 57-24 15-15 24-34 24-57 0-21-9-41-24-57-3-2-5-5-10-8z m-2-32l32-232h-10l-32 228c3 1 7 3 10 4z m34-257l28-205-4-41-33 245h9z m-33 399c-13 12-28 18-44 18s-34-7-45-18-18-28-18-45 7-33 18-44 28-18 45-18 33 7 44 18 18 28 18 44-7 32-18 45z m-71-71c-7 7-11 17-11 26s4 20 11 27c7 7 17 11 27 11s19-4 26-11 11-17 11-27-4-19-11-26c-14-15-39-15-53 0z" horiz-adv-x="1000" />

<glyph glyph-name="pause" unicode="&#xe81f;" d="M738 776c-30 0-59 0-88 0-56 0-101-45-101-101 0-217 0-432 0-650 0-56 45-101 101-101 29 0 60 0 88 0 55 0 101 45 101 101 0 217 0 433 0 650 1 56-45 101-101 101z m52-751c0-28-23-51-51-51-29 0-58 0-88 0-29 0-51 23-51 51 0 217 0 433 0 650 0 29 22 51 51 51 30 0 60 0 88 0 29 0 51-22 51-51 0-217 0-432 0-650z m-439 751c-29 0-59 0-88 0-56 0-102-45-102-101 0-217 0-432 0-650 0-56 46-101 102-101 29 0 59 0 88 0 56 0 102 45 102 101 0 217 0 433 0 650 0 56-46 101-102 101z m50-751c0-28-23-51-51-51-29 0-60 0-89 0-28 0-51 23-51 51 0 217 0 433 0 650 0 29 23 51 51 51 29 0 60 0 89 0 28 0 51-22 51-51 0-217 0-432 0-650z" horiz-adv-x="1000" />

<glyph glyph-name="physics" unicode="&#xe820;" d="M825 571c58 0 104 47 104 104 2 58-46 106-104 106-58 0-104-48-104-105 0-58 47-105 104-105z m-67 104c0 38 31 67 67 67 38 0 67-31 67-67 0-36-31-67-67-67-36 0-67 31-67 67z m49-18v-15c0-11 8-20 19-20 12 0 20 9 20 20v15h15c11 0 20 8 20 19 0 12-9 20-20 20h-15v15c0 11-8 20-20 20-11 0-19-9-19-20v-15h-15c-11 0-20-8-20-20 0-11 9-19 20-19h15z m18-528c-58 0-104-47-104-104s47-104 104-104 104 47 104 104c2 57-46 104-104 104z m68-104c0-36-30-67-67-67-37 0-66 31-66 67s30 67 66 67c37 0 67-31 67-67z m-101 18c-11 0-20-8-20-19s9-20 20-20h68c11 0 19 9 19 20s-8 19-19 19h-68z m-67 153c0 11-8 19-19 19h-360c-75 0-135 61-135 135 0 75 61 135 135 135h360 0c11 0 19 8 19 19v103c0 11-8 19-19 19h-360c-153 0-277-123-277-276 0-153 124-276 277-276h360c11 0 19 8 19 19v103z m-39-20v-65h-117v65h117z m-514 174c0-96 78-174 174-174h186v-65h-186c-132 0-238 107-238 238 0 132 107 237 238 237h186v-65h-186c-96 3-174-75-174-171z m399 174v65h117v-65h-117z m110-88c-6 3-13 3-18-1-6-4-9-10-9-17v-32h-118 0c-5 0-10-1-14-5-4-5-5-9-5-14 0-7 4-14 11-17l189-86c2-1 5-1 8-1 3 0 4 0 7 1 4 1 8 5 11 10 1 2 1 5 1 8v32h102c11 0 19 8 19 19 0 7-4 14-11 17l-173 86z m82-85h-41 0c-11 0-19-8-19-19v-22l-82 37h50c11 0 19 9 19 20v21l73-37z" horiz-adv-x="1000" />

<glyph glyph-name="powerups" unicode="&#xe821;" d="M703 379c17 15 9 44-14 46l-105 9c-9 1-18 7-22 16l-41 98c-9 21-39 21-47 0l-41-98c-4-9-12-15-22-16l-104-9c-23-2-32-30-14-46l80-68c8-7 10-16 9-26l-25-103c-6-22 19-40 38-28l90 55c9 5 19 5 27 0l90-55c20-12 44 6 38 28l-25 103c-2 9 1 19 9 26l79 68z m-206 278c16 0 28 13 28 28v86c0 16-13 28-28 28-15 0-28-13-28-28v-85c0-16 13-29 28-29z m-258-90c6-6 13-9 20-9 8 0 14 3 20 9 11 11 11 29 0 41l-61 61c-11 11-29 11-41 0-11-11-11-29 0-41l62-61z m-50-217c0 16-13 28-28 28h-86c-16 0-28-12-28-28 0-16 13-28 28-28h85c16 0 29 13 29 28z m48-217l-61-61c-11-11-11-29 0-41 6-6 13-9 20-9s14 3 20 9l61 61c11 11 11 29 0 41-10 10-28 10-40 0z m258-91c-16 0-28-13-28-28v-85c0-16 13-28 28-28s28 13 28 28v85c1 14-12 28-28 28z m258 89c-11 11-29 11-41 0-11-11-11-29 0-41l61-61c6-6 13-9 20-9s14 3 20 9c11 11 11 29 0 41l-60 61z m165 246h-85c-16 0-28-13-28-28 0-15 13-28 28-28h85c16 0 28 13 28 28 1 14-12 28-28 28z m-184 181c8 0 14 3 20 9l61 61c11 11 11 29 0 41-11 11-29 11-41 0l-60-62c-11-11-11-29 0-41 6-6 14-8 20-8z" horiz-adv-x="1000" />

<glyph glyph-name="civics" unicode="&#xe822;" d="M633 371c-11 0-20-10-20-21 0-85 69-154 154-154 0 0 0 0 0 0 84 0 154 69 154 154 0 11-10 21-21 21h-11l-93 323 54 10c6 2 10 4 14 9 3 4 4 9 3 15-3 11-13 18-25 16l-59-11c2 6-1 9-5 10-4 3-11 3-15 1-7-1-13-6-14-13l-2-5-226-43v68c0 12-10 21-21 21s-21-9-21-21v-76l-230-44c-6 7-16 9-24 7-6-3-11-7-12-14l-64-13c-11-3-18-12-17-25 3-11 14-18 25-17l43 9-90-314h-11c-11 0-21-10-21-21 0-85 69-154 154-154 0 0 0 0 0 0 85 0 154 69 154 154 0 11-10 21-21 21h-11l-93 328 218 41v-664h-273c-6 0-12-2-16-5-4-4-5-10-5-15 0-12 9-21 21-21h590c5 0 11 3 15 5 4 4 6 10 6 16 0 11-10 20-21 20h-275v673l212 41-89-311h-11z m-512-149h222c-11-58-65-98-124-91-50 5-90 43-98 91z m32 42l79 279 79-279h-158z m536 107l79 278 79-278h-158z m-32-42h222c-10-53-57-91-111-91-55 0-101 38-111 91z" horiz-adv-x="1000" />

<glyph glyph-name="cricket" unicode="&#xe823;" d="M690 407c50 0 91 40 91 90 0 50-41 91-91 91-50 0-90-41-90-91 0-50 40-90 90-90z m-54 90c0 31 25 54 54 54 31 0 54-25 54-54 0-30-25-54-54-54-30 0-54 24-54 54z m283-397l-481 482c-5 4-12 7-19 4l-61-21-184 185c-3 3-6 6-9 8l-1 2c-14 12-26 21-47 21-17 0-46-31-46-46 0-22 10-36 21-47 2-3 5-6 8-9l185-185-2-5c0 0 0-1 0-1l-19-57c-3-7 0-14 4-18l482-482c3-3 8-6 13-6 2 0 55 0 108 53 53 53 53 107 53 108 1 6-2 11-5 14z m-591 444l-22-22-170 168c6 3 10 6 13 10 4 4 7 8 9 13l170-169z m-6-55l39 39 49-88-88 49z m-12-33l136-77c7-4 15-3 21 3 5 6 7 14 2 21l-76 136 25 8 353-353-120-119-350 354 9 27z m-199 262c-3 4-4 8-4 11 3 4 10 11 14 14 4 0 7-1 11-4-1-6-4-10-7-14-4-3-8-4-14-7z m706-568l-118-118-20 19 118 118 20-19z m72-69c-1-14-10-45-42-77-32-32-64-40-76-42l-46 46 119 120 45-47z" horiz-adv-x="1000" />

<glyph glyph-name="cyber" unicode="&#xe824;" d="M499 369c-21 0-38-16-38-37 0-15 8-28 21-35v-22c0-10 7-17 17-17s16 7 16 17v22c13 6 21 20 21 35 0 19-17 37-37 37z m0-43c0 0 0 0 0 0-2 0-2 0-2 0-3 0-4 3-4 5 0 2 3 5 6 5s5-3 5-5c-1-2-3-5-5-5z m383 38c-22 0-40-14-47-33h-114v50h87c10 0 17 7 17 16v125c19 7 33 25 33 47 0 28-22 50-50 50-27 0-50-22-50-50 0-22 14-40 34-47v-108h-71v1c0 24-20 43-43 43h-31v88c0 82-66 150-150 150-82 0-150-67-150-150v-88h-30c-24 0-43-19-43-43v-1h-71v108c19 7 33 25 33 47 0 28-22 50-50 50s-47-22-47-50c0-22 14-40 33-47v-125c0-9 7-16 17-16h87v-50h-113c-7 19-25 33-48 33-27 0-50-22-50-50 0-28 23-50 50-50 23 0 41 14 48 33h113v-50h-87c-10 0-17-7-17-16v-125c-19-7-33-27-33-48 0-27 22-50 50-50s50 23 50 50c0 23-14 41-33 48v108h70v-1c0-24 20-44 43-44h360c24 0 43 20 43 44v1h70v-108c-20-7-34-25-34-48 0-27 23-50 50-50 28 0 50 23 50 50 0 23-14 41-33 48v125c0 9-7 16-17 16h-87v50h114c7-19 25-33 47-33 28 0 50 22 50 50 0 28-22 50-50 50z m0-67c-10 0-17 9-17 17 0 10 9 17 17 17 10 0 17-9 17-17 0-10-9-17-17-17z m-194-84c0-6-5-10-10-10h-360c-5 0-10 4-10 10v202c0 6 5 10 10 10h47 267 47c6 0 10-4 10-10v-202z m-189 450c64 0 116-53 116-117v-88h-233v88c0 64 51 117 117 117z m309-110c-9 0-16 8-16 16 0 10 8 17 16 17 10 0 17-8 17-17 0-8-7-16-17-16z m-619 0c-10 0-17 8-17 16 0 10 9 17 17 17 10 0 17-8 17-17 0-8-9-16-17-16z m-57-239c0-10-8-17-17-17s-16 9-16 17c0 10 8 17 16 17s17-7 17-17z m57-239c10 0 17-8 17-17s-9-16-17-16c-10 0-17 8-17 16s7 17 17 17z m619 0c10 0 17-8 17-17s-7-16-17-16c-9 0-16 8-16 16s7 17 16 17z" horiz-adv-x="1000" />

<glyph glyph-name="economics" unicode="&#xe825;" d="M676 413c-41 0-80-12-113-30v85h51c17 0 30 14 30 31v118c0 16-13 30-30 30h-51v86c0 17-14 31-31 31h-415c-17 0-31-14-31-31v-118c0-16 14-30 31-30h51v-56h-51c-17 0-31-14-31-30v-118-118-119-118c0-16 14-30 31-30h400c41-39 98-63 159-63 132 0 239 107 239 239s-108 241-239 241z m-93 172v-56h-51-301v56h300 52z m-436 62v56h353v-56h-300-53z m0-179h52 301v-55h-353v55z m0-118h353v-17c-11-11-21-25-29-39h-324v56z m0-118h297c-4-18-6-36-6-56h-291v56z m0-172v55h297c6-19 13-37 21-55h-318z m529-63c-43 0-83 17-113 43-38 32-63 79-63 134s25 101 63 133c30 26 70 43 113 43 98 0 177-79 177-176s-79-177-177-177z" horiz-adv-x="1000" />

<glyph glyph-name="geography" unicode="&#xe826;" d="M906 11h-189v65c0 10-9 17-17 17h-149v25c173 28 302 181 302 356 0 114-53 219-145 289-1 0-1 1-2 0-2 0-2 0-3-2l-14-22c-1-1-1-4 1-6 7-5 14-11 23-18l-14-14c-56 50-128 78-203 78-168 0-306-137-306-305 0-75 28-148 78-203l-14-14c-7 8-12 15-18 22-1 2-3 2-5 2l-23-17c-1 0-1-1-1-3s0-1 0-3c57-75 137-125 229-139v-25h-148c-10 0-17-8-17-16v-65h-189c-10 0-17-9-17-17v-56c0-9 9-16 17-16h824c9 0 16 8 16 16v56c0 7-7 15-16 15z m-595 497l-30-30h-24l-8 18c-3 5-9 10-16 10h-8c1 16 6 32 10 47h59l17-17v-28z m-64-65h42c4 0 8 1 12 6l42 41c3 3 6 9 6 13v41c0 5-2 9-6 13l-28 28c-2 3-7 5-12 5h-54c8 18 18 35 30 50l25-25c3-2 7-5 13-5h41c5 0 9 1 13 5l28 28c2 3 5 8 5 13v20l22 23c3 2 6 8 6 12v25c39 10 76 11 115 4l-21-21c-2-2-5-8-5-12v-21l-22-22c-3-3-6-8-6-13v-27c0-5 1-10 6-13l27-28c3-2 9-5 13-5h30l17-17v-33c0-4 2-10 6-13l27-27c3-3 7-6 13-6h33l23-22c2-3 8-6 12-6h33l27-26c-16-93-81-174-168-209l-27 27v21c0 4-1 8-5 12l-28 28c-3 3-8 6-13 6h-61l-16 16v21c0 4-2 10-6 13l-28 27c-2 3-7 6-12 6h-75l-22 22c-3 3-7 6-13 6h-60c-2 15-4 30-4 45l9-16c4-6 9-10 16-10z m147 271l-22-22c-3-3-5-9-5-13v-21l-18-16h-27l-22 22c26 26 58 47 93 61v-11z m99-546c168 0 306 138 306 306 0 75-28 147-78 202l14 14c54-59 83-136 83-218 1-178-144-323-325-323-80 0-158 29-218 83l14 14c57-50 129-78 204-78z m-212 220l22-23c3-2 7-5 12-5h75l17-17v-21c0-4 1-8 6-12l27-28c3-3 7-6 13-6h61l17-16v-21c0-4 1-8 5-13l18-18c-21-4-40-7-61-7-117 0-219 74-257 185h45z m472 98c-3 3-7 6-13 6h-33l-22 22c-3 3-7 5-13 5h-33l-17 17v33c0 5-1 10-5 13l-28 28c-3 3-7 5-13 5h-34l-17 17v12l22 23c3 2 6 8 6 12v21l29 29c108-37 182-139 182-254l-11 11z m-235-371v-21h-47v21c17-1 29-1 47 0z m-212-104v47h376v-47h-376z m582-35v-20h-788v20h788z m-480 518v-20c0-5 2-9 6-13l28-28c2-2 7-5 12-5h42c10 0 17 8 17 16v34l22 22c3 3 5 8 5 13v27c0 4-1 10-5 13l-28 28c-3 2-7 5-13 5h-37l-24 13c-7 2-15 1-19-3l-28-28c-3-3-5-8-5-12v-28c0-4 1-10 5-13l22-21z m30 20l-23 22v13l14 14 17-9c0 0 0 0 0 0 3-1 5-1 8-1h32l17-17v-12l-22-23c-3-2-6-8-6-12v-24h-17l-16 17v21c0 3-2 8-4 11z m43-290h27c2 0 5 1 5 4v28c0 1-2 4-5 4h-27c-2 0-5-2-5-4v-28c0-3 2-4 5-4z m-138 82h28c1 0 4 1 4 4v28c0 1-1 4-4 4h-28c-1 0-4-2-4-4v-28c0-3 1-4 4-4z" horiz-adv-x="1000" />

<glyph glyph-name="graph" unicode="&#xe827;" d="M495 784v-3c1 0 1 0 2 0 148 0 279-74 357-188l0 0c-78 115-210 191-359 191z m45-501l-126-85v153 422c-199-39-350-214-350-425 0-239 194-433 433-433s433 194 433 433c0 62-13 121-37 174l-353-239z m-43 498c-1 0-1 0-2 0v-430l359 242c-78 113-209 188-357 188z" horiz-adv-x="1000" />

<glyph glyph-name="history" unicode="&#xe828;" d="M922 585v84c0 9-4 16-11 19-8 2-17 1-22-5l-65-65v51c0 57-46 103-103 103h-540c-57 0-103-46-103-104 0-49 40-87 89-87 41 0 75 33 75 73 0 35-29 63-64 63-31 0-54-24-54-54v-6h39v6c0 8 6 15 16 15 14 0 25-11 25-25 0-20-16-35-36-35-28 0-50 22-50 49 0 37 28 65 64 65 43 0 78-35 78-78v-653c0-41 33-75 75-75h514c41 0 75 34 75 75v56c0 11-9 19-20 19h-78v267c62 65 96 151 96 242z m-655 148h455c35 0 64-29 64-64v-88l-244-245c-4-4-6-8-6-14v-103l-96-95 27-27 96 96h104c5 0 9 1 14 6l107 107v-227h-399c-11 0-20-8-20-19v-56c0-19-16-36-36-36s-36 17-36 36v652c0 29-11 57-30 77z m391-502h-57l249 248-26 27-249-249v57l310 310v-38c0-83-34-162-92-222l-135-133z m225-192v-36c0-20-16-36-36-36h-448c7 11 9 23 9 36v36h475z m-294 400h-28v50c0 5-3 11-7 14l-64 55 64 56c4 4 7 8 7 14v50h28v39h-289v-39h28v-50c0-6 3-11 7-14l64-56-64-55c-4-4-7-9-7-14v-50h-28v-39h288v39z m-136 0h-15l8 14 7-14z m-9 129c-1 1-2 3-4 4l-75 64v42h156v-42l-72-64c-2 0-3-3-5-4z m-77-87l75 63c1 2 2 3 4 5 1-2 3-3 4-5l75-63v-42h-25l-36 60c-3 5-10 8-17 8-7 0-12-3-16-8l-37-60h-25v42z" horiz-adv-x="1000" />

<glyph glyph-name="science" unicode="&#xe829;" d="M331 711c-5 6-10 10-18 10l0 0c-9 0-14-4-19-11-2-7-2-14 2-21 15-25 33-43 55-53 5-1 7-3 12-3 4 0 6 2 9 3 7 4 11 13 10 20 0 7-6 13-13 16-15 9-27 21-38 39z m70-143h49l0-64c0-14 11-21 21-21 0 0 0 0 0 0 10 0 21 7 21 21l0 84c0 80 66 147 147 147h104c-10-72-71-127-146-127h-69c0 0 0 0 0 0-6 0-11-2-15-5-5-4-6-10-6-15l0-85c0-9 4-14 10-18 2-2 7-3 11-3 4 0 7 1 11 3 7 4 10 9 10 18l0 64h50c102 0 187 84 189 189 0 5-3 11-6 15-4 4-10 5-14 5h-126c-96 0-178-73-188-168h-50c-75 0-136 55-146 127h91c33 0 65-11 91-32 6-6 14-7 21-4 7 2 14 9 14 18 1 7-3 14-8 19-34 27-75 42-118 42l-113 0c-5 0-11-3-15-6-4-4-6-9-6-14-2-105 82-190 186-190z m238 65c4 0 7 2 11 3 21 11 40 29 56 54 4 7 4 14 1 21-4 7-11 11-18 11l0 0 0 0c-7 0-14-4-17-9-11-19-23-31-39-39-7-3-12-10-12-17 0-8 4-15 10-19 1-5 5-5 8-5z m-288-543l0 0 0 0c-7 0-12-2-16-8l-54-69c-6-6-6-14-3-21 3-7 10-13 18-14 1 0 1 0 3 0 7 0 12 3 16 8l54 70c5 5 6 13 3 20-5 10-14 14-21 14z m324 74l-71 96v62c0 6-3 11-7 16-4 4-9 5-15 5-11 0-21-10-21-21v-69c0-4 2-9 4-13l28-37h-187l27 37c3 4 5 9 5 13v105h13v-119c0-28 42-28 42 0v119h14v-119c0-28 42-28 42 0v119h64c11 0 20 10 20 21v70c0 11-9 20-20 20h-225c0 0 0 0 0 0-6 0-12-2-16-5-4-4-5-10-5-15v-70c0-5 2-11 5-15 4-4 10-7 16-6h6v-98l0 0c-6-10-36-50-70-96-36-47-81-108-93-122-17-20-23-48-16-73 7-22 28-45 60-45h449c32 0 52 23 59 45 7 25 2 53-15 73-11 14-57 73-93 122z m-83 264v-28h-184v28h184z m151-447c-3-12-8-16-19-16h-448c-11 0-16 4-19 16-3 11 0 25 7 33 14 17 54 69 94 125l17 22h250l17-22c39-53 80-108 94-125 8-8 11-22 7-33z m-351 166c-6 0-11-3-16-8l-13-18c-5-6-6-11-5-17 2-5 5-10 9-12 4-3 8-4 12-4 0 0 2 0 2 0 5 0 11 2 15 8l14 18c5 7 5 15 3 22-5 7-13 11-21 11z" horiz-adv-x="1000" />

<glyph glyph-name="quiz" unicode="&#xe82a;" d="M908 350c0 78-26 153-75 215 16 24 24 50 24 78 0 78-64 142-142 142-57 0-108-35-130-88-10 2-17 2-25 2-138 0-261-81-318-207-3 0-7 0-10 0-78 0-142-64-142-142s64-142 142-142c3 0 7 0 10 0 55-126 180-207 318-207 7 0 15 0 25 2 22-53 73-88 130-88 78 0 142 64 142 142 0 28-8 54-24 78 49 62 75 136 75 215z m-675 100c56 0 100-44 100-100 0-56-44-100-100-100-55 0-100 44-100 100 0 56 45 100 100 100z m342-406c-6 0-10 0-14 0-118 0-225 69-276 175 54 21 90 74 90 132s-36 112-90 132c51 107 158 175 276 175 4 0 10 0 14 0l0 0c0-4 0-8 0-12 0-78 64-142 142-142 32 0 64 11 89 32 40-54 62-117 62-183 0-67-21-131-62-184-25 21-57 32-89 32-78 0-142-63-142-141-1-7-1-11 0-16z m140 499c-55 0-100 45-100 100 0 56 45 100 100 100 56 0 100-44 100-100 0-55-44-100-100-100z m0-386c56 0 100-44 100-100 0-56-44-100-100-100-55 0-100 44-100 100 0 56 45 100 100 100z m-65 253c0 48-36 82-90 82-41 0-84-28-89-88l0-3 42-4 0 3c4 47 41 50 48 50 14 0 49-4 49-40 0-20-11-29-29-45-18-14-41-32-41-66v-21h42v21c0 14 8 20 25 34 18 16 43 35 43 77z" horiz-adv-x="1000" />

<glyph glyph-name="political" unicode="&#xe82b;" d="M450 122c4-4 11-7 15-7 4 0 10 2 16 7l108 109c8 8 8 22 0 30-8 8-22 8-31 0l-93-93-25 25c-8 8-22 8-30 0-4-4-7-10-7-15 0-6 3-11 7-15l40-41z m299 311c-5 5-10 6-16 6h-55c-7 57-45 103-100 124 25 22 39 51 39 84v13c0 62-52 114-114 114h-13c-62 0-114-52-114-114v-13c0-33 14-64 39-84-55-21-93-67-100-124h-55c-13 0-21-8-21-21v-54c0-11 10-21 21-21h25v-390c0-13 8-21 21-21h380c13 0 21 8 21 21v390h25c12 0 21 8 21 21v53c1 7-2 12-4 16z m-84-90v-368h-339v368h339z m-169 193c62 0 128-29 139-96h-278c11 66 76 96 139 96z m76 113c0-39-32-71-71-71h-12c-39 0-71 32-71 71v12c0 39 32 71 71 71h12c39 0 71-32 71-71v-12z m138-253v-10h-431v10h431z" horiz-adv-x="1000" />

<glyph glyph-name="biology" unicode="&#xe82c;" d="M771 13h-220c153 27 267 161 267 319 0 172-135 314-307 324v33c0 11-10 21-21 21h-32v16c0 31-25 57-57 57s-57-25-57-57v-15h-33c-11 0-21-10-21-21v-268c0-11 10-21 21-21h33v-86c0-11 10-21 21-21h73c11 0 20 10 20 21v86h34c11 0 21 10 21 21v86c88-9 156-84 156-175s-66-165-156-175v48h33c11 0 21 9 21 20s-10 21-21 21h-271c-11 0-21-9-21-21s10-20 21-20h33v-192h-77c-27 0-48-21-48-47 0-27 21-48 48-48h540c26 0 47 21 47 48 0 25-21 46-47 46z m-370 90c-11 0-20-10-20-21v-69h-31v191h121v-191h-49v69c0 11-9 21-21 21z m375 208c-9-140-123-251-263-262v66c105 10 187 92 197 196h66z m-66 42c-10 104-92 186-197 196v66c141-9 254-122 263-262h-66z m66-388c0-3-2-5-5-5h-542c-4 0-5 2-5 5s2 6 5 6h540c5 0 7-3 7-6z m-359 436v-66h-31v66h31z m-31 310v15c0 9 7 16 15 16 9 0 16-7 16-16v-15h-31z m85-42v-226h-139v226h139z" horiz-adv-x="1000" />

<glyph glyph-name="english" unicode="&#xe82d;" d="M510 14c-17 0-17 25 0 25h275c-24 54-25 110 0 164h-495c-44 0-82-36-82-81 0-46 36-83 82-83 17 0 17-25 0-25-58 0-107 47-107 107v547c2 61 49 107 107 107 173 0 343 0 516 0l12-12-1-553c-67-116 34-195-11-195h-296z m-302 176c21 24 50 39 82 39h502v520h-502c-44 0-82-36-82-82v-477z m84 510c0 17 25 17 25 0v-218c0-17-25-17-25 0v218z m-3-585c-17 0-17 25 0 25h286c17 0 17-25 0-25h-286z m172 538h214c7 0 13-6 13-13v-254c0-7-6-12-13-12h-214c-7 0-12 5-12 12v254c0 7 5 13 12 13z m202-25h-189v-228h187v228z m-371-196c0 17 25 17 25 0v-19c0-17-25-17-25 0v19z m0-78c0 17 25 17 25 0v-19c0-17-25-17-25 0v19z m396-212c16 0 16-25 0-25h-13c-17 0-17 25 0 25h13z m-56 0c17 0 17-25 0-25h-13c-16 0-16 25 0 25h13z m-174-61c0 16 25 16 25 0v-144c0-12-15-16-22-8l-61 63-61-63c-8-8-22-3-22 8v145c0 17 25 17 25 0v-113l48 50c6 5 13 5 18 0l49-50v112z m60 483c-17 0-17 25 0 25h101c17 0 17-25 0-25h-101z m0-64c-17 0-17 25 0 25h101c17 0 17-25 0-25h-101z m0-56c-17 0-17 25 0 25h101c17 0 17-25 0-25h-101z" horiz-adv-x="1000" />

<glyph glyph-name="exit" unicode="&#xe82e;" d="M569 747c0 18 17 34 35 34h256c18 0 34-16 34-34v-789c0-18-16-35-34-35h-256c-18 0-35 17-35 35s17 34 35 34h221v720h-221c-18 0-35 17-35 35l0 0z m-463-395c0 9 4 18 9 24l186 197c13 11 37 17 52 3 14-13 14-38 0-51l-131-139h477c19 0 34-16 34-35s-15-35-34-35h-478l130-139c13-12 14-37 0-51-13-13-38-8-51 3l-185 200c-7 7-9 14-9 23z" horiz-adv-x="1000" />

<glyph glyph-name="colors" unicode="&#xe82f;" d="M294 799h-225c-12 0-22-10-23-22 0 0 0 0 0 0v-855c0-12 10-22 22-23 0 0 0 0 0 0h225c12 0 22 10 23 22 0 0 0 0 0 0v855c1 13-9 23-22 23 0 0 0 0 0 0z m-112-810c-25 0-45 20-45 45 0 25 20 45 45 45s45-20 45-45c0-25-20-45-45-45z m742 180h-196l-366-211v-59h563c12 0 22 10 23 22 0 0 0 0 0 0v225c-1 13-11 23-24 23 0 0 0 0 0 0z m-470-106l461 266c11 6 14 20 8 31l-112 195c-6 11-20 14-31 8l-56-33-270-467z m279 618l-195 113c-11 6-25 3-31-8l-145-253v-540l379 657c7 11 3 25-8 31 0 0 0 0 0 0z" horiz-adv-x="1000" />

<glyph glyph-name="fullscreen" unicode="&#xe830;" d="M894 804h-244c-10 0-19-8-19-17v-67c0-9 8-17 19-17h178c6 0 9-3 9-8v-93c0-9 8-17 19-17h75c10 0 19 8 19 17v151c0 28-25 51-56 51z m-544 0h-244c-31 0-56-23-56-51v-151c0-9 8-17 19-17h75c10 0 19 8 19 17v93c0 5 4 8 9 8h178c10 0 19 8 19 17v67c0 9-9 17-19 17z m581-689h-75c-10 0-19-8-19-17v-93c0-5-4-8-9-8h-178c-10 0-19-8-19-17v-67c0-9 8-17 19-17h244c31 0 56 23 56 50v152c0 9-8 17-19 17z m-581-118h-178c-6 0-9 3-9 8v93c0 9-8 17-19 17h-75c-10 0-19-8-19-17v-151c0-28 25-50 56-50h244c10 0 19 8 19 17v66c0 10-9 17-19 17z" horiz-adv-x="1000" />

<glyph glyph-name="lock" unicode="&#xe831;" d="M822 443h-79v100c0 135-110 243-243 243-135 0-243-110-243-243v-100h-79c-15 0-28-12-28-28v-472c0-15 13-28 28-28h644c16 0 28 13 28 28v472c0 16-12 28-28 28z m-508 0v100c0 103 83 186 186 186s186-83 186-186v-100h-372z m-107-472v415h587v-415c0 0-587 0-587 0z m293 343c-62 0-114-51-114-114 0-53 36-97 86-111v-61c0-15 13-28 28-28s28 13 28 28v61c50 12 86 58 86 111 0 63-51 114-114 114z m57-114c0-32-26-57-57-57s-57 26-57 57 26 57 57 57 57-25 57-57z" horiz-adv-x="1000" />

<glyph glyph-name="right" unicode="&#xe832;" d="M946 707c-2 8-9 13-17 12-266-21-487-202-597-488-60 94-153 109-205 109-39 0-67-8-68-8-6-2-11-7-12-13-1-6 2-13 8-16 127-76 205-202 249-295 8-18 25-28 43-28 21 0 39 14 46 35 157 496 540 671 544 673 7 3 11 11 9 19z" horiz-adv-x="1000" />

<glyph glyph-name="wrong" unicode="&#xe833;" d="M793-48c-7 4-14 10-21 16-7 6-14 12-22 18-8 6-16 13-24 20-4 3-8 7-13 10-4 4-8 8-12 12-17 16-34 32-52 50-17 18-35 37-53 56-18 19-34 40-51 61-32 39-63 80-90 120 163 144 330 259 338 266 76 64 116 142 88 180-27 37-117 16-196-51-9-8-149-145-285-311-56 89-91 157-94 162-48 72-113 115-154 94-42-21-38-108 13-186 4-7 64-84 152-176-66-88-123-177-162-249-11-20-20-39-29-55-7-17-14-32-19-44-11-25-17-39-17-39s8 13 23 35c7 11 16 24 26 40 11 15 24 31 38 49 49 62 118 137 194 209 36-35 74-70 114-103 22-17 43-35 65-52 22-16 44-32 65-47 22-14 43-27 63-40 5-3 10-6 15-9 5-3 10-5 15-8 10-5 19-10 28-15 9-5 18-9 26-14 8-5 16-9 24-12 15-7 28-13 39-17 22-9 34-15 34-15s-11 8-30 21c-11 6-22 14-36 24z" horiz-adv-x="1000" />

<glyph glyph-name="settings" unicode="&#xe834;" d="M911 428h-44c-10 46-28 89-53 128l30 30c5 4 6 10 6 15s-3 12-6 16l-80 80c-8 9-22 9-31 0l-30-30c-39 25-82 43-128 52v45c0 11-10 21-21 21h-114c-11 0-21-10-21-21v-45c-45-9-88-27-127-52l-32 30c-9 9-22 9-31 0l-80-80c-5-4-6-10-6-16 0-5 3-11 6-15l30-30c-25-39-43-82-53-128h-43c-11 0-20-10-20-21v-114c0-11 9-21 20-21h45c10-46 28-89 53-128l-31-30c-4-4-6-10-6-15 0-6 3-11 6-16l81-80c8-9 22-9 30 0l31 30c39-25 82-43 127-52v-45c0-11 10-21 21-21h114c11 0 21 10 21 21v45c46 9 89 27 128 52l30-30c9-9 23-9 31 0l80 80c9 9 9 23 0 31l-30 30c25 39 43 82 53 128h44c11 0 21 10 21 21v114c0 11-10 21-21 21z m-22-114h-40 0c-11 0-20-7-21-18-9-52-29-100-59-142-5-8-5-19 3-28l29-29-50-50-29 29c-7 7-19 9-28 3-41-30-91-50-141-58-10-2-18-11-18-21v-40h-72v40c0 11-7 19-19 21-51 8-100 29-141 58-9 6-20 6-28-3l-29-29-52 52 30 29c7 7 8 19 2 28-30 41-50 91-58 141-1 10-11 18-21 18 0 0 0 0 0 0h-41v73h40c11 0 19 6 21 18 8 51 29 100 58 141 6 9 6 20-3 28l-28 26 50 50 30-29c7-7 19-8 27-3 42 31 92 50 142 59 10 1 18 11 18 21v43h72v-41c0-11 7-19 18-20 52-9 100-30 142-59 8-5 20-5 28 3l29 29 50-50-29-29c-7-7-8-19-3-28 31-41 50-91 58-141 2-10 12-18 21-18h42v-74z m-392 357l0 0c-176 0-321-145-321-321 0-176 145-321 321-321 177 0 321 145 321 321 0 176-144 321-321 321z m0-599c-153 0-278 125-278 278s125 278 278 278 278-125 278-278c0-153-125-278-278-278z m14 261v188c0 8-7 14-14 14-8 0-14-7-14-14v-188c-22-8-33-32-26-54 4-12 14-22 26-26v-74c0-8 7-14 14-14 9 0 14 7 14 14v74c22 8 33 32 27 54-5 12-14 22-27 26z m-14-54c-8 0-14 7-14 14 0 8 7 14 14 14 9 0 14-7 14-14 0-8-5-14-14-14z m-100 168v74c0 8-7 14-14 14-8 0-14-7-14-14v-74c-22-8-33-32-26-54 4-12 14-22 26-26v-188c0-8 7-14 14-14 9 0 14 7 14 14v188c22 8 34 32 27 54-5 12-14 22-27 26z m-14-54c-8 0-14 7-14 14 0 8 7 14 14 14 9 0 14-7 14-14 0-8-7-14-14-14z m242 82v46c0 8-7 14-14 14-8 0-14-7-14-14v-46c-22-8-33-32-26-54 4-13 14-22 26-27v-216c0-9 7-14 14-14 8 0 14 7 14 14v218c22 8 33 32 26 54-4 11-13 21-26 25z m-14-54c-8 0-14 7-14 14s7 14 14 14c8 0 14-7 14-14s-6-14-14-14z" horiz-adv-x="1000" />

<glyph glyph-name="share-1" unicode="&#xe835;" d="M641 679c-15 11-41 11-53-4-4-8-8-19-8-27v-115h-38c-271 0-489-222-489-498 0-15 11-31 26-34 4-4 8-4 11-4 11 0 23 4 30 15l30 34c110 131 265 208 430 219v-115c0-23 15-38 38-38 8 0 19 4 23 8l301 249c15 11 19 38 4 54 0 4-4 4-4 4l-301 252z" horiz-adv-x="1000" />

<glyph glyph-name="chat" unicode="&#xe836;" d="M849 749h-544c-51 0-92-41-92-92v-285c0-51 41-92 92-92h337l217-246c2-2 5-2 7 0 1 1 2 3 2 5l-36 242h16c51 0 92 41 92 92v284c1 51-41 92-91 92z m-469-282c-27 0-47 22-47 47 0 27 22 47 47 47 27 0 47-22 47-47 0-26-22-47-47-47z m197 0c-27 0-47 22-47 47 0 27 22 47 47 47 26 0 47-22 47-47 0-26-20-47-47-47z m197 0c-27 0-47 22-47 47 0 26 22 47 47 47 27 0 47-22 47-47 1-26-20-47-47-47z m-651-330h12l-27-184c0-2 1-4 3-4 1 0 3 0 4 1l165 187h256c38 0 70 32 70 70v13h-301c-84 0-151 68-151 151v123h-31c-38 0-70-32-70-70v-217c0-39 32-70 70-70z" horiz-adv-x="1000" />

<glyph glyph-name="send" unicode="&#xe837;" d="M896 361c-4 4-8 7-11 11l-743 424c-15 8-30 4-38-11-4-4-4-11-4-15v-349c0-15 11-26 27-26l149-19c15-4 27-15 23-30 0-11-11-23-23-23l-149-19c-15 0-27-15-27-26v-348c0-15 11-26 27-30 4 0 11 0 15 4l743 420c15 7 19 26 11 37z" horiz-adv-x="1000" />

<glyph glyph-name="delete" unicode="&#xe838;" d="M842 593c0 39-32 71-71 71h-132c-15 78-92 128-168 111-56-11-100-56-111-111h-132c-39 0-71-32-71-72 0-34 25-63 58-70l24-482c3-66 58-119 125-118h274c66 0 120 53 125 118l22 482c33 7 57 36 57 71z m-342 128c36 0 68-24 81-57h-162c13 35 45 57 81 57z m204-678c-1-36-32-64-68-64h-273c-37 0-66 28-69 64l-22 478h454l-22-478z m67 535h-542c-8 0-14 7-14 14 0 8 7 14 14 14h542c8 0 14-7 14-14 0-7-6-14-14-14z m-357-485c15 0 29 13 29 29v285c0 15-12 29-29 29-15 0-29-12-29-29v-286c1-15 14-28 29-28z m171 0c15 0 29 13 29 29v285c0 15-13 29-29 29s-29-12-29-29v-286c1-15 13-28 29-28z" horiz-adv-x="1000" />

<glyph glyph-name="learn" unicode="&#xe839;" d="M924-15l-70 198c-1 5-4 9-7 13-30 30-69 54-114 68-29 105-126 182-236 182-109 0-208-77-236-182-44-13-83-36-114-68-3-3-5-7-7-13l-69-198c-3-9-3-17 1-25 4-9 10-14 18-17 14-6 29 0 38 13 30 44 101 76 172 76 71 0 142-31 172-75 4-7 13-13 21-14s17 0 24 6c2 2 7 5 8 8 31 46 100 75 172 75 70 0 141-31 172-76 6-7 13-13 21-14 2 0 4 0 6 0 7 0 12 1 18 5 10 9 15 24 10 38z m-459 62c-46 32-105 49-166 49-46 0-92-10-132-31l30 89c38 36 91 56 149 56 39 0 83-13 119-35v-128z m32 185c-47 29-100 44-151 44-4 0-8 0-13 0 30 64 93 106 164 106 71 0 135-42 164-106-4 0-8 0-12 0-52-1-106-16-152-44z m199-136c-61 0-120-18-167-49v129c36 23 81 35 120 35 57 0 111-21 148-55l31-89c-42 18-88 29-132 29z m-199 364c84 0 152 68 152 151s-68 153-152 153-151-68-151-151 68-153 151-153z m0 240c47 0 86-39 86-87s-39-88-86-88c-47 0-86 39-86 88s38 87 86 87z" horiz-adv-x="1000" />

<glyph glyph-name="practice" unicode="&#xe83a;" d="M892 338l-209 76c-39 14-83 14-122 0-55-21-146-54-208-76-24-9-39-31-39-56s15-47 39-56l30-11c13-4 25-9 38-14v-75c0-59 43-111 101-122l25-4c18-3 36-6 56-6-10-7-22-9-35-9h-362l0 0c-18 0-35 7-48 19-12 13-19 29-19 47v595c0 37 29 67 67 67h277c13 0 25-6 34-16 22-28 58-71 84-104l24-29c0 0 0 0 1-1h-97c-15 0-26 11-26 26v57c0 18-15 32-32 32-18 0-32-14-32-32v-57c0-50 42-92 92-92h107l0 0c0-18 15-32 31-32 19 0 32 14 32 32v39c0 25-8 49-25 68l-2 3c-28 33-78 94-107 131-21 25-52 40-84 40h-277c-73 0-132-59-132-132v-595c0-72 58-132 132-132h363c53 0 100 32 121 80 3 0 4 0 7 1l25 4c60 11 102 61 102 122v75c7 3 16 7 29 12l39 13c23 9 39 31 39 56 0 25-16 47-39 56z m-132-117v-95c0-27-21-52-49-58l-25-4c-42-7-83-7-125 0l-25 4c-28 6-48 29-48 58v52l75-28c38-14 81-14 122 0l9 4c2-16 16-29 32-29 18 0 32 14 32 32v53c0 54-39 101-93 111-19 3-36 7-36 7-3 0-4 0-7 0-15 0-28-11-30-27-3-18 8-34 26-37l36-6c18-2 34-16 38-34-7-3-14-6-25-10l-6-3c-25-10-51-10-76 0-52 20-132 49-193 72l193 73c23 9 51 9 76 0 52-20 132-49 193-73-37-14-75-27-75-27-14-6-22-21-19-35z" horiz-adv-x="1000" />

<glyph glyph-name="channel" unicode="&#xe83b;" d="M510 317c-27 23-67 22-92-4-10-12-17-27-17-41v-164c2-36 32-64 67-62 15 0 29 7 40 17l82 81c24 25 24 66 0 91l-80 82z m-41-199v145l73-73-73-72z m277 332h-182l137 160c37 0 66 29 66 65s-31 64-66 64-65-29-65-65c0-10 3-20 7-30l-150-175-118 150c3 7 4 16 4 23 0 36-29 65-65 65s-65-29-65-65 29-66 65-66h7l101-129h-154c-55 0-101-46-101-101v-315c1-56 46-99 101-99h478c55 0 101 44 101 101v316c0 55-46 101-101 101z m32-418c0-18-14-32-32-32h-478c-18 0-32 14-32 32v317c-1 18 13 33 31 33 0 0 1 0 1 0h478c18 0 32-14 32-32 0 0 0-1 0-1v-317z" horiz-adv-x="1000" />

<glyph glyph-name="bookmark-1" unicode="&#xe83c;" d="M718 738h-447c-63 0-114-52-114-114v-167c0-17 14-31 31-31h136v-418c0-16 14-30 30-30 0 0 0 0 0 0 7 0 13 3 18 7l197 151 198-151c8-7 21-9 30-3 11 4 18 15 18 28v630c0 53-43 98-97 98z m-347-62h347c20 0 36-16 36-36v-569l-166 129c-12 8-27 8-38 0l-167-129v553c0 18-4 36-12 52z m-100 0c29 0 53-23 53-52v-136h-106v136c0 29 24 52 53 52z m165-216h265c17 0 31 14 31 30 0 17-14 31-31 31h-265c-17 0-30-14-30-31 0-16 13-30 30-30z m0-99h265c17 0 31 14 31 31 0 16-14 30-31 30h-265c-17 0-30-14-30-30 0-18 13-31 30-31z m0-100h265c17 0 31 14 31 31s-14 30-31 30h-265c-17 0-30-14-30-30s13-31 30-31z" horiz-adv-x="1000" />

<glyph glyph-name="live-classes" unicode="&#xe83d;" d="M776 756h-545c-62 0-114-53-114-114v-442c0-62 51-114 114-114h238v-65h-145c-7 0-17-3-24-8-8-7-14-17-14-28 0-7 2-13 6-17 2-4 7-7 12-10 7-2 15-2 20-2h368c7 0 16 2 23 8 9 7 14 17 14 28 0 7-1 12-5 16-3 5-7 7-13 10-7 3-15 3-19 3h-156v65h239c61 0 114 53 114 114v440c0 63-51 116-113 116z m0-605h-86c-5 110-75 195-166 207 58 13 105 67 105 128 0 74-55 131-129 131-68 0-129-61-129-131 0-61 47-115 105-128-91-12-161-98-166-207h-79c-31 0-48 25-48 49v440c0 24 17 49 48 49h552c24 0 48-17 48-49v-440h-2v-1c2-23-22-48-53-48z m-200 62c-11 0-20-3-26-10-7-7-10-15-10-28v-25h-79v25c0 49-58 49-58 0v-25h-34c6 83 64 151 132 151 66 0 120-63 131-151h-25v25c-1 25-17 38-31 38z m-5 273c0-39-32-71-71-71s-71 34-71 71 32 71 71 71 71-32 71-71z" horiz-adv-x="1000" />

<glyph glyph-name="leaderboard" unicode="&#xe83e;" d="M846 576c-46 0-82-37-82-82 0-6 1-13 3-20l-110-78-97 176c14 16 23 36 23 57 0 46-37 82-82 82-45 0-82-37-82-82 0-21 9-41 24-57l-96-176-109 78c1 7 2 14 2 20 0 46-37 82-82 82-45 0-82-37-82-82 0-38 28-72 66-80l82-306v-84c0-20 15-35 34-35h492c19 0 35 15 35 35v84l82 306c37 7 66 40 66 80-5 46-43 82-87 82z m-135-497v-21h-422v21h422z m135 428c7 0 12-6 12-13s-5-12-12-12-13 6-13 12c-1 7 5 13 13 13z m-458-178l112 207 113-207c4-8 12-15 22-16 9-3 19 0 28 5l123 86-68-255h-437l-70 255 125-87c8-6 18-9 28-6 10 3 18 10 24 18z m112 286c-7 0-12 6-12 13s5 12 12 12 13-5 13-12c0-6-6-13-13-13z m-332-121c0-6-5-12-12-12s-13 6-13 12 6 13 13 13c7 0 12-6 12-13z" horiz-adv-x="1000" />

<glyph glyph-name="profile-1" unicode="&#xe83f;" d="M850 247c-61 74-158 104-253 84 81 37 136 118 136 211 0 127-104 233-233 233s-233-104-233-233c0-95 55-175 136-211-96 22-195-10-253-84-49-59-76-134-76-212 0-61 50-111 111-111h629c61 0 111 50 111 111 0 78-26 154-75 212z m-639-50c32 39 81 61 132 61 20 0 39-2 60-9 62-21 130-21 191 0 73 23 148 2 192-52 38-44 58-103 58-161 0-18-13-32-31-32h-627c-18 0-32 14-32 32 0 58 21 115 57 161z m289 193c-85 0-153 68-153 153s68 153 153 153 153-68 153-153-68-153-153-153z" horiz-adv-x="1000" />

<glyph glyph-name="search-1" unicode="&#xe840;" d="M885 21l-202 173c-14 12-33 14-48 6 61 58 100 140 100 231 1 175-142 316-316 316s-316-141-316-316c0-174 141-317 316-317 75 0 145 26 200 71-4-6-5-13-5-20 0-11 5-21 14-29l200-174c8-6 18-11 29-11s21 5 29 11c8 7 14 19 14 30-3 11-7 21-15 29z m-243 410c0-123-100-223-223-223s-222 100-222 223c0 123 100 222 222 222s223-99 223-222z" horiz-adv-x="1000" />

<glyph glyph-name="ask-doubt" unicode="&#xe841;" d="M924 617c-5 4-10 7-17 7h-340c-16 0-29-6-41-17-11-11-16-25-16-40v-431c0-15 5-29 16-40 12-11 25-17 41-17h161l93-93c3-3 7-5 12-7 2 0 3 0 5 0 2 0 5 0 8 2 4 1 8 4 11 8s4 8 4 12v77h47c3 0 6 0 10 1 3 2 6 3 7 6 3 3 4 4 6 7 0 5 0 8 0 11v497c0 6-2 13-7 17z m-41-41v-450h-47c-7 0-12-2-17-7s-6-11-6-16v-43l-60 59c-4 5-11 7-17 7h-169c-3 0-6 2-7 3-2 2-3 4-3 7v431c0 1 0 2 1 4 0 1 2 3 2 3 1 1 1 1 3 1 1 0 2 1 4 1h316z m-283-358l0 0c4-1 8-3 13-3 2 0 5 0 9 2 7 2 14 7 17 14l14 27h139l14-27c2-7 9-13 16-14 7-3 16-2 22 1 7 3 13 10 14 17 3 7 2 15-1 22l-110 218c-3 4-5 8-11 11-10 6-21 6-30 0-5-3-9-7-12-11l-109-218c-3-7-4-15-2-22 5-9 10-14 17-17z m81 99l40 82 40-82h-80z m-466 46c17-10 36-14 56-14 1 0 3 0 5 0 20 1 38 7 55 16l8-8c11-11 30-11 40 0 6 6 9 12 9 21s-3 15-9 21l-10 7c12 18 17 37 17 59v43c0 31-12 60-33 82-22 23-52 34-82 34s-60-13-82-34c-22-22-33-51-33-82v-43c0-21 5-41 16-59 10-20 25-34 43-43z m45 127c-4-1-7-4-10-7s-4-5-6-9c-1-5-2-7-2-11s1-7 2-12 5-7 6-9l36-36c-7 0-12 0-19 0-10 0-20 4-28 8-8 5-15 12-20 21-4 8-6 18-6 28v43c0 15 5 30 16 41 11 11 25 17 42 17 15 0 30-6 42-17 11-11 16-25 16-41v-43c0-6-1-12-3-16l-36 36c-2 3-5 5-9 6-7 4-14 4-21 1z m207 266h-342c-15 0-29-6-39-17-11-10-17-25-17-40v-431c0-15 6-29 17-40s24-15 39-17h10v-76c0-4 1-10 4-13 3-4 7-7 11-8 3-1 6-1 8-1 2 0 3 0 5 0 4 1 8 2 12 6l93 94h199c5 0 12 2 16 6s7 10 7 17v496c0 7-2 12-7 17-4 5-9 7-16 7z m-292-505c-4 5-10 7-17 7h-33c-3 0-6 2-7 3-1 2-3 4-3 7v431c0 2 2 5 3 7 1 1 4 2 7 2h318v-450h-185c-7 0-12-2-16-7l-60-59v43c0 7-3 12-7 16z" horiz-adv-x="1000" />

<glyph glyph-name="assessment" unicode="&#xe842;" d="M926 542l-72 72c-8 8-18 14-30 12-11 0-23-4-31-12l-71-72c-15 19-37 32-62 32h-200c-32 73-106 123-191 123-115 0-208-93-208-208 0-85 52-156 124-189v-219c0-43 34-80 79-80h397c43 0 79 37 79 80v211l189 190c14 17 14 43-3 60z m-397-282l46-46-69-32c-5-1-7 0-9 1s-3 5-1 9l33 68z m96-11c-3-3-6-5-8-7l-61 59c2 3 4 7 7 9l180 180 63-62-181-179z m-514 241c0 88 71 159 158 159s159-71 159-159-71-158-159-158c-88 0-158 71-158 158z m578-408c0-17-14-31-29-31h-397c-17 0-30 14-30 31v204c13-1 24-4 36-4 116 0 209 93 209 208 0 11-2 23-4 34h186c12 0 23-7 28-18l-159-160c-18-18-33-40-44-63l-34-72c-9-22-5-47 12-64 11-11 25-16 40-16 8 0 16 1 23 5l71 33c24 12 45 27 63 45l28 28 1-160 0 0z m153 383l-63 63 46 46 63-63-46-46z m-499 78c-10 10-26 8-35-1l-61-66-25 25c-9 10-25 10-34 2-10-10-10-25-2-35l42-46c4-4 11-8 18-8s14 3 18 8l79 85c11 11 10 26 0 36z" horiz-adv-x="1000" />

<glyph glyph-name="ask-doubt-1" unicode="&#xe843;" d="M535 358h-75v61c0 56 46 102 101 102h32c15 0 26 12 26 26v109c0 15-12 26-26 26h-180c-16 0-27-13-27-26v-75h-75v75c0 55 46 101 102 101h180c56 0 101-46 101-101v-107c0-56-45-102-101-102h-32c-15 0-26-12-26-26l0-63 0 0z m-36-416c-5 0-10 1-14 2-14 6-24 20-24 35v100h-305c-49 0-88 39-88 88v296c0 48 39 87 88 87h86v-75h-86c-7 0-13-6-13-12v-296c0-7 6-13 13-13h343c20 0 37-16 37-37v-48l74 74c7 7 16 11 26 11h208c7 0 13 6 13 13v296c0 6-6 12-13 12h-86v75h86c49 0 88-39 88-87v-296c0-49-39-88-88-88h-193l-126-126c-7-7-17-11-26-11z" horiz-adv-x="1000" />

<glyph glyph-name="doubt" unicode="&#xe844;" d="M471 218h118c-8-24-31-40-58-40h-218l-105-103c-12-12-34-4-34 14v87h-20-15c-33 2-61 30-61 63v228c0 34 28 61 62 61h227v-42h-93-135c-11 0-21-10-21-21v-226c0-11 10-21 21-21h55c12 0 21-10 21-21v-58l74 74c4 4 10 5 14 5h107 61z m-207 236h-7c-21 0-33-14-28-35l15-75c2-11 6-16 13-16h7c8 0 11 5 15 16l15 75c5 21-6 35-30 35z m-7-140c-15 0-24-7-24-24v-4c2-17 9-23 25-23h6c17 0 24 6 24 23v4c0 16-7 24-24 24h-7z m667 255v-247c0-33-28-61-61-62h-19-19v-88c0-18-22-28-35-14l-102 103h-219c-34 0-62 28-62 61v247c0 35 28 62 62 62h392c35 0 63-28 63-62z m-42 0c-1 12-10 21-21 21h-392c-11 0-20-9-20-21v-247c0-11 9-21 20-21h120 105c6 0 12-2 14-5l74-74v59c0 11 10 20 21 20h58c11 0 21 10 21 21v247z m-392-62h350v42h-350v-42z m0-165h186v41h-186v-41z m0 83h350v42h-350v-42z" horiz-adv-x="1000" />

<glyph glyph-name="reports" unicode="&#xe845;" d="M718 488v-55c0-15-12-26-26-26-11 0-21 7-25 18l-145-143c-8-8-19-10-29-6-10 5-17 14-17 25v96l-141-143c-11-11-28-11-38 0-11 11-11 28 0 38l188 187c8 9 19 10 29 6 10-4 17-14 17-25v-96l97 97c-10 4-18 14-18 25 0 15 12 27 26 27h54c16 1 28-10 28-25z m133 161v-589c0-74-59-134-133-134h-429c-74 0-133 60-133 134v428c0 1 0 2 0 4 1 4 2 8 5 12l214 268c3 4 7 7 13 9 1 0 2 1 4 1 1 0 4 0 5 0h321c74 0 133-60 133-133z m-613-135h105c15 0 26 12 26 26v138l-131-164z m559 135c0 44-36 80-80 80h-293v-187c0-45-36-81-81-81h-133v-401c0-45 36-81 80-81h428c45 0 81 36 81 81v589z m-369-400c-15 0-27-13-27-27v-161c0-15 13-26 27-26s26 12 26 26v161c0 14-12 27-26 27z m-110-81c-15 0-26-12-26-26v-81c0-15 12-26 26-26 15 0 26 12 26 26v81c2 15-11 26-26 26z m232 28c-15 0-26-13-26-27v-106c0-16 12-27 26-27s26 13 26 27v106c2 14-11 27-26 27z m138 107c-16 0-27-13-27-27v-213c0-16 13-27 27-27 15 0 26 13 26 27v212c0 15-11 28-26 28z" horiz-adv-x="1000" />

<glyph glyph-name="drive" unicode="&#xe846;" d="M914 381l-32 265c-1 33-14 65-36 89-22 23-53 39-86 43h-538c-33-3-64-18-86-43-22-24-35-56-36-89-7-53-35-282-35-297-1-25 4-52 16-74 11-24 26-43 47-60-20-16-36-36-47-59-12-24-16-49-16-74 0-85 56-154 124-154h604c68 0 124 69 124 154 1 25-4 51-16 74-11 23-26 43-47 59 24 20 42 46 53 75s12 60 7 91l0 0z m-815-23l1 16c1 22 13 44 28 59 16 17 37 27 60 28h604c22-3 44-12 59-28 17-16 27-37 28-59l2-14c4-59-39-122-96-122h-589c-60-2-102 63-97 120z m123 378h538c23-3 46-14 62-32 17-18 27-40 27-65l20-170c-11 12-22 20-36 25-12 6-27 9-41 10h-603c-14 0-29-3-42-10-12-5-25-13-34-25l20 170c0 24 10 47 27 65 15 18 37 29 62 32l0 0z m661-655c3-27-5-55-22-75-17-21-42-35-68-39h-604c-25 5-49 20-65 40-17 21-25 46-25 72 0 27 8 52 25 72 16 21 39 35 65 41h604c26-3 51-17 68-39 17-18 24-45 22-72z m-359 333h-289c-17 0-34-8-45-20-11-12-18-27-18-45 0-17 7-34 18-46 11-13 28-20 45-20h289c16 0 33 9 44 20 11 12 18 28 18 46 0 16-7 33-18 45-12 12-28 20-44 20l0 0z m0-89h-289c-7 0-13 3-17 7-4 4-7 11-7 17s3 12 7 16c4 4 11 7 17 7h289c7 0 12-3 16-7 4-4 7-11 7-16s-3-13-7-17c-5-4-11-7-16-7l0 0z m0-179h-289c-17 0-34-8-45-20-11-12-18-27-18-45 0-17 7-34 18-46 11-13 28-20 45-20h289c16 0 33 9 44 20 11 12 18 28 18 46 0 16-7 33-18 45-12 13-28 20-44 20l0 0z m0-89h-289c-7 0-13 3-17 7-4 4-7 11-7 17 0 7 3 12 7 16 4 4 11 7 17 7h289c7 0 12-3 16-7s7-11 7-16c0-7-3-13-7-17-5-4-11-7-16-7l0 0z m286 292c0 14-4 29-13 40-8 12-19 21-33 26-14 6-28 7-42 4-14-2-28-9-37-19-10-10-17-24-20-37-2-14-1-30 4-42 6-14 16-25 27-33 12-9 26-13 40-13 20 0 38 8 52 21 15 15 22 33 22 53l0 0z m-72-32c-6 0-13 1-19 5-5 3-9 9-11 14-2 6-2 13-1 18 1 6 4 11 8 17 4 4 10 7 17 8 6 2 12 0 18-1 6-3 11-7 14-11 3-6 5-11 5-18 0-9-2-17-9-23-6-5-14-9-22-9z m-74-236c0-14 4-30 12-41 9-12 20-21 34-26 14-6 28-7 41-4 14 3 28 9 38 19 10 10 17 24 19 38 3 14 2 29-4 41-5 14-15 25-26 34s-27 12-40 12c-20 0-38-8-52-21-14-14-22-33-22-52z m104 0c0-6-1-13-5-18-3-6-9-10-14-12-6-2-13-2-18-1-6 1-12 4-17 8-4 5-7 10-8 17-2 6 0 13 1 18 3 6 7 11 11 14 6 3 11 6 18 6 8 0 17-3 22-10 7-6 10-14 10-22l0 0z m-532 573h303c4 2 10 4 12 7 3 4 5 8 5 14 0 6-2 10-5 14-2 4-7 7-12 7h-303c-4-2-10-4-12-7-3-4-5-8-5-14 0-6 2-10 5-14 2-3 7-5 12-7l0 0z m431 0c4 0 8 2 11 4 3 3 5 6 8 10 2 4 2 8 2 13-2 4-3 8-6 11-3 2-7 5-11 5-4 2-8 0-13-1-4-2-7-4-9-8-3-3-5-7-5-12 0-2 0-5 2-8 1-3 3-4 4-7 1-1 4-3 7-4 4-1 7-3 10-3l0 0z" horiz-adv-x="1000" />

<glyph glyph-name="code" unicode="&#xe847;" d="M326 243l-138 117 138 115c10 8 12 22 3 33-4 6-11 9-18 9-5 0-11-2-15-6l-160-135c-5-4-8-11-8-18s3-14 8-18l161-133c4-4 10-6 16-6 6 0 13 3 18 9 7 11 5 25-5 33z m546 107c0 7-3 14-8 18l-161 135c-4 4-10 5-15 5-7 0-14-2-19-8-8-10-6-25 3-33l139-117-139-117c-9-8-11-22-3-33 5-6 12-8 19-8 5 0 11 2 15 5l161 134c5 5 8 12 8 19z m-291 294c-3 2-5 2-7 2-10 0-20-6-23-17l-169-544c-4-13 3-25 15-29 3-2 4-2 7-2 11 0 20 7 22 17l170 544c4 13-3 25-15 29z" horiz-adv-x="1000" />

<glyph glyph-name="default" unicode="&#xe848;" d="M896 447c0 17-14 29-29 29h-635c-38 0-68 31-68 68s30 70 68 70h635c16 0 29 14 29 29s-14 29-29 29h-635c-71 0-128-57-128-128 0-37 17-73 46-97-29-25-46-59-46-97s17-74 46-97c-29-25-46-60-46-97 0-71 57-128 128-128h635c16 0 29 14 29 29s-14 29-29 29h-635c-38 0-68 31-68 68s30 68 68 68h635c16 0 29 14 29 29s-14 30-29 30h-635c-38 0-68 30-68 68s30 68 68 68h635c15 1 29 15 29 30z m-664 128c-17 0-29-14-29-29 0-17 14-29 29-29h537c17 0 30 14 30 29 0 17-14 29-30 29h-537z m0-196c-17 0-29-14-29-29 0-17 14-29 29-29h586c17 0 29 14 29 29 0 17-14 29-29 29h-586z m0-197c-17 0-29-14-29-29s14-29 29-29h586c17 0 29 14 29 29s-14 29-29 29h-586z" horiz-adv-x="1000" />

<glyph glyph-name="exit-fullscreen" unicode="&#xe849;" d="M396 775c-29 0-52-24-52-51v-221h-220c-30 0-52-24-52-52s24-51 52-51h270c30 0 52 24 52 51v271c1 29-22 53-50 53z m0-478h-272c-30 0-52-23-52-51 0-29 24-52 52-52h219v-219c0-29 24-51 51-51s52 23 52 51v271c1 28-22 51-50 51z m476 0h-271c-29 0-51-23-51-51v-271c0-29 24-51 51-51 30 0 52 23 52 51v218h219c29 0 52 24 52 51 1 30-23 53-52 53z m0 206h-219v219c0 29-24 52-52 52-29 0-51-24-51-52v-271c0-29 24-51 51-51h271c29 0 52 24 52 51s-23 52-52 52z" horiz-adv-x="1000" />

<glyph glyph-name="copy-icon" unicode="&#xe84a;" d="M761 622h-667v-666h667v666z m-55-611h-556v556h556v-556z m-473 653h56v42h555v-556h-38v-56h94v667h-667v-97z m167-528h56v125h125v56h-125v125h-56v-125h-125v-56h125v-125z" horiz-adv-x="1000" />

<glyph glyph-name="install" unicode="&#xe84b;" d="M883 165h-54c-8 0-14-7-14-14v-80c0-4-4-4-4-4h-621c-2 0-4 2-4 4v80c0 9-7 14-14 14h-55c-9 0-14-7-14-14v-80c0-47 39-88 87-88h620c48 0 87 39 87 88v80c0 7-7 14-14 14z m-415 11c8-5 18-9 28-9s19 2 28 9l157 141c5 5 7 14 1 21l-36 40c-3 3-6 4-10 4-4 0-8-1-11-4l-89-79v404c0 8-7 14-14 14h-54c-8 0-14-7-14-14v-403l-86 78c-3 3-7 4-11 4-4 0-7-1-10-4l-36-40c-5-6-4-16 2-21l155-141z" horiz-adv-x="1000" />

<glyph glyph-name="calendar" unicode="&#xe84c;" d="M857 742h-510c-9 0-19-4-25-11-5-7-8-16-8-24 0-17 11-35 33-35h364v-66c0-45 70-45 70 0v66h41v-132h-644v132h44v-66c0-45 70-45 70 0v101c0 21-14 35-35 35h-114c-17 0-35-14-35-35v-714c0-21 14-35 35-35h714c21 0 35 14 35 35v714c0 17-13 35-35 35z m-35-270v-444h-644v444h644z m-479-183h317c22 0 33 18 33 35s-11 34-33 34h-317c-22 0-33-18-33-34s11-35 33-35z m-46-147h409c22 0 33 18 33 34s-11 35-33 35h-409c-23 0-36-18-36-35s13-34 36-34z" horiz-adv-x="1000" />

<glyph glyph-name="bright" unicode="&#xe84d;" d="M647 504c-12 14-9 36 4 49l98 97c14 11 33 11 45 0 16-12 17-35 5-49l-99-98c-1-2-3-3-4-4-6-6-14-9-22-9-10 0-20 4-27 14z m-361-154c0 19-15 35-35 35h-137c-20 0-35-16-35-35s15-35 35-35h137c20 0 35 16 35 35z m13 153c7-7 16-10 25-10 9 0 18 3 25 10l1 1c13 13 11 34-1 46l-98 97c-12 14-34 14-48 0-14-12-14-34 0-48l96-96z m201 61c19 0 35 15 35 35v137c0 20-16 35-35 35s-35-15-35-35v-137c0-20 16-35 35-35z m386-179h-137c-20 0-35-16-35-35s15-35 35-35h137c20 0 35 16 35 35s-15 35-35 35z m-186-35c0-110-90-200-200-200s-200 90-200 200 90 200 200 200 200-90 200-200z m-69 0c0 72-59 131-131 131s-131-59-131-131 59-131 131-131 131 59 131 131z m-331-151l-97-98c-7-5-11-13-13-23-1-10 3-18 9-25 7-9 16-13 26-13 7 0 15 3 21 7l103 103c12 14 11 36-5 49-12 11-30 11-44 0z m400 0c-14 12-36 11-49-5-11-12-11-31 0-45l98-98c7-7 15-9 25-9 8 0 18 2 25 9 14 14 14 35 0 49l-99 99z m-200-63c-19 0-35-15-35-35v-137c0-20 16-35 35-35s35 15 35 35v137c0 20-16 35-35 35z" horiz-adv-x="1000" />

<glyph glyph-name="dark" unicode="&#xe84e;" d="M911 63c-3 15-17 26-32 25-60-9-119-3-176 18-93 33-171 101-213 191-71 147-37 322 82 434 7 7 11 16 10 26-3 15-18 26-33 24-216-31-375-214-374-430 0-237 193-430 432-430 110 0 215 41 296 117 5 5 10 15 8 25z m-168-59c-192-75-408 20-485 211-75 192 20 410 213 485-21-31-38-64-50-99-81-225 37-470 261-551 35-12 72-21 108-24-14-8-30-15-47-22z" horiz-adv-x="1000" />

<glyph glyph-name="inform" unicode="&#xe84f;" d="M536 207c-1 0-3 0-4 0 0 14 0 28 0 42 0 39 0 79 0 118 0 8 0 18 0 26 0 18-15 33-33 33-13 0-24 0-36 0-17 0-34-15-34-33 2-18 14-33 34-33 1 0 2 0 2 0 0-14 0-28 0-42 0-37 0-75 0-112-1 0-2 0-4 0-17 0-33-16-33-34 1-18 14-33 33-33 25 0 49 0 74 0 16 0 33 15 33 33 0 20-12 35-32 35z m-36 254c11 0 22 4 31 13 7 7 9 14 11 22 1 3 1 5 1 8 0 2 0 2 0 3 0 1 0 3 0 6-1 8-5 16-11 22-8 8-19 12-31 12-23 0-41-19-43-43-1-23 18-43 42-43z m417-111c0 85-27 171-77 240-25 36-55 67-90 93-33 25-69 45-110 60-80 29-172 32-255 8-79-22-153-69-206-133-28-35-50-72-66-112-17-39-25-81-28-124-7-85 14-174 59-246 44-71 107-129 182-162 20-10 41-17 63-24 22-6 44-10 68-13 43-5 87-2 129 6 82 17 158 60 217 120 57 59 97 138 110 220 1 23 4 45 4 67 0 0 0 0 0 0 0 0 0 0 0 0z m-70-49c-4-30-12-59-23-87-13-28-28-54-46-78-20-23-40-46-64-64-24-18-50-33-78-46-28-11-58-19-87-23-32-4-66-4-98 0-30 4-59 12-87 23-28 13-54 28-78 46-23 20-46 41-64 64-18 24-33 50-46 78-11 28-19 58-23 87-4 32-4 66 0 98 4 30 12 59 23 87 13 28 28 54 46 78 20 24 41 46 64 64 24 18 50 33 78 46 28 11 58 19 87 23 32 4 66 4 98 0 30-4 59-12 87-23 28-13 54-28 78-46 24-20 46-40 64-64 18-24 33-50 46-78 11-28 19-58 23-87 2-17 3-32 3-49 1-17 0-32-3-49z" horiz-adv-x="1000" />

<glyph glyph-name="registered-students" unicode="&#xe850;" d="M635 674h-47c-13 50-63 80-113 68-33-9-60-35-68-68h-47c-13 0-22-10-22-23v-172c0-12 9-22 22-22h275c12 0 22 10 22 22v172c0 13-10 23-22 23l0 0z m-22-173h-231v128h44c13 0 23 10 23 22-2 27 19 50 45 50 27 2 50-19 50-45 0-2 0-3 0-5 0-12 10-22 23-22h44l2-128z m311-33v-424c0-45-38-83-84-83l0 0h-686c-46 0-83 38-83 83l0 0v424c0 46 37 83 83 83l0 0h125c13 0 22-9 22-22s-9-22-22-22h-125c-22 0-39-17-39-39l0 0v-424c0-22 18-38 39-38l0 0h685c22 0 39 18 39 38l0 0v424c0 22-18 39-39 39l0 0h-125c-13 0-22 10-22 22s9 22 22 22h125c47 0 83-37 85-83l0 0z m-573-235c46 0 84 39 82 85 0 46-39 83-84 82-46 0-82-37-82-83 0-46 39-84 84-84z m0 123c23 0 39-18 39-41 0-22-18-39-40-39-21 0-39 18-39 39 0 24 18 42 40 41l0 0z m102-260v43c0 18-15 32-34 32h-11l-37-38c-13-11-31-11-42 0l-36 36h-11c-18 0-32-13-33-31v-44c0-12-10-22-23-22s-22 10-22 22v44c0 41 35 76 77 76h19c6 0 11-3 15-7l35-33 35 33c4 4 9 6 15 7h19c42 0 77-33 77-76v-44c0-12-10-22-22-22s-21 11-21 24z m364 257c0-13-10-22-23-22h-280c-13 0-22 9-22 22 0 12 9 22 22 22h280c13 0 23-10 23-22z m0-96c0-13-10-22-23-22h-222c-12 0-22 9-22 22s10 22 22 22h222c13 0 23-10 23-22l0 0 0 0z m0-97c0-13-10-22-23-22h-222c-12 0-22 9-22 22 0 12 10 22 22 22h222c13 0 23-10 23-22l0 0 0 0z" horiz-adv-x="1000" />

<glyph glyph-name="time-1" unicode="&#xe851;" d="M678 103c-4 1-9 1-13-2-4-1-7-5-8-9l-38-125-222 0-54 129c-4 8-12 12-21 8-4-1-7-5-8-8-1-4-1-8 0-13l58-139c3-5 9-9 16-9h0l245 0c7 0 14 4 16 11l41 137c2 5 2 9-1 13-3 3-7 5-11 7z m-356 496c9-3 18 2 21 11l38 125 222 0 55-129c3-6 9-10 16-10 2 0 4 0 7 1 8 4 12 14 8 21l-60 139c-3 6-8 10-15 10l-246 0c-7 0-14-4-15-11l-42-137c-1-9 3-18 11-20z m235-178l-46-65v166c0 7-5 11-11 11-7 0-11-5-11-11v-203c0-5 3-9 8-11 2 0 3 0 3 0 4 0 7 2 10 6l66 96c5 5 3 12-2 15-7 1-14 0-17-4z m244-40h-2c-5 0-7-2-11-3-16 146-139 260-288 260-160 0-289-130-289-289 0-161 129-291 289-291 156 0 283 124 289 278 3-1 5-3 10-3h2c12 0 21 10 21 21v3c2 14-8 24-21 24z m-97-150l20-10c-21-38-50-68-86-90l-10 18c-3 5-10 7-15 4-6-3-7-10-5-15l11-19c-31-16-68-26-105-27v21c0 6-6 11-11 11-7 0-11-6-11-11v-21c-38 1-74 11-106 27l11 19c3 5 2 12-4 15-5 3-12 1-15-4l-10-18c-36 22-65 54-86 90l19 10c6 2 9 9 6 15-3 5-10 8-15 5l-20-9c-12 29-21 61-22 94h21c7 0 11 6 11 11 0 7-6 11-11 11h-21c1 34 10 66 22 95l20-10c1-1 2-1 5-1 4 0 9 2 10 5 3 6 0 13-6 16l-19 9c21 36 50 68 86 91l11-19c3-4 6-5 10-5 1 0 4 0 5 1 6 3 7 10 5 16l-11 18c31 16 68 26 106 27v-20c0-7 6-12 12-12 7 0 11 6 11 12v20c37-1 73-11 107-27l-11-18c-3-6-2-13 4-16 1-1 4-1 5-1 4 0 9 1 10 5l11 19c36-23 65-55 86-91l-19-9c-6-3-9-10-6-16 2-4 6-5 10-5 1 0 4 0 5 1l20 10c12-27 19-54 22-85h-11c-7 0-11-5-11-11 0-7 5-11 11-11h13c0-38-9-72-23-104l-19 9c-6 3-13 0-15-5-9-6-7-13-2-15z" horiz-adv-x="1000" />

<glyph glyph-name="active-student" unicode="&#xe852;" d="M511 315h13c14 0 27 6 37 16 29 29 82 82 99 98v332c0 10 8 18 18 18h53c38 0 70-32 70-71v-314c0-20-7-40-19-55-28-35-83-106-111-139-7-10-11-21-11-33 0-45 0-138 0-189 0-14-6-28-16-38-9-9-23-15-37-15-81 0-276 0-357 0-14 0-28 6-37 15-10 10-16 24-16 38 0 41 0 112 0 178 0 88 72 161 161 161h25c-4 5-9 11-14 18-29 43-47 104-47 143 0 69 56 125 125 125 70 0 125-56 125-125 0-38-18-100-47-143-4-9-10-14-14-20z m-39-357h135c4 0 10 2 12 6 3 3 6 8 6 12 0 52 0 145 0 189 0 21 7 41 19 56 28 35 84 105 112 139 7 9 11 21 11 33v243h-71v-207c0-10-4-18-11-25-17-16-70-69-99-98-17-17-39-27-62-27-38 0-105 0-167 0-69 0-125-55-125-125 0-65 0-136 0-178 0-4 1-9 6-12 2-3 8-6 12-6h125v71h-53c-9 0-18 9-18 18v89c0 10 9 18 18 18s18-8 18-18v-71h125c10 0 18-8 18-18 0 0 0-26 0-53-1-12-4-25-11-36l0 0z m-25 71h-36v-71c10 0 18 4 25 11 7 7 11 16 11 25v35z m0 535c49 0 89-40 89-89 0-33-17-86-40-122-14-21-29-38-49-38-18 0-34 17-48 38-25 37-41 90-41 122-1 50 39 89 89 89z m249 179v-71h71v36c0 20-16 36-36 36h-35z" horiz-adv-x="1000" />

<glyph glyph-name="dashboard" unicode="&#xe853;" d="M347 414h-243c-19 0-35-17-35-36v-363c0-53 44-96 96-96h182c20 0 35 16 35 35v424c0 19-15 36-35 36z m-36-71v-353h-146c-14 0-25 11-25 25v328h171z m579 71h-422c-19 0-35-15-35-35v-423c0-20 16-35 35-35h363c52 0 95 43 95 96v361c0 19-16 36-36 36z m-34-399c0-14-12-25-25-25h-328v353h353v-328z m-25 761h-666c-52 0-96-43-96-95v-182c0-20 16-35 35-35h786c20 0 35 15 35 35v182c1 52-42 95-94 95z m-691-95c0 13 11 25 25 25h666c13 0 25-12 25-25v-146h-716v146z" horiz-adv-x="1000" />

<glyph glyph-name="inactive-students" unicode="&#xe854;" d="M407 215h-228c-3 0-5 3-7 6l-29 228c-1 5-4 11-8 15-6 4-11 5-17 4l-19-3c-13-1-23-14-20-26l36-282c0 0 0 0 0-1v-216c0-11 10-21 23-21h12c13 0 24 10 24 24v200c0 4 2 7 7 7h184c4 0 7-3 7-7v-201c0-13 10-24 24-24h12c13 0 24 10 24 24v250c-1 14-11 23-25 23z m-42-48h-184c-13 0-24-10-24-24v-201c0-5-3-7-7-7h-12c-5 0-7 2-7 7v215c0 1 0 1 0 3l-37 282c0 4 2 7 6 7l19 2c2 0 3 0 6-1 1-1 3-3 3-4l29-228c1-11 11-19 24-19h227c5 0 7-3 7-7v-250c0-5-2-7-7-7h-12c-4 0-7 2-7 7v201c0 13-11 24-24 24z m534 222h-93v172c0 7-3 14-10 18l-65 49 37 93c3 5 3 12 0 18-3 5-7 10-12 12l-18 7c-6 3-13 3-19 0-5-2-9-7-12-12l-111-271c-3-6-3-12 0-18 3-6 7-10 12-13l18-6c3-2 6-2 9-2 9 0 18 6 21 14l41 101 25-16c2-2 3-3 3-6v-140h-321c-12 0-23-10-23-22v-20c0-12 9-22 23-22h285c4 0 7-3 7-7v-376c0-13 10-23 23-23h180c12 0 23 10 23 23v425c0 12-11 22-23 22z m-174 224l61-46c2-2 3-3 3-6v-172h-45v140c0 9-4 15-9 20l-28 18 18 46z m8 130l18-7c2 0 3-1 5-4 0-1 0-3 0-6l-112-270c0-2-1-3-4-5-1 0-2-1-5 0l-18 10c-2 0-3 2-4 4 0 2 0 3 0 6l111 271c0 1 1 2 4 4 1 0 1 0 3 0 1-2 1-2 2-3z m-44-403h-285c-4 0-7 3-7 7v20c0 4 3 7 7 7h495c4 0 7-3 7-7v-424c0-4-3-7-7-7h-180c-4 0-6 3-6 7v375c0 13-10 22-24 22z" horiz-adv-x="1000" />

<glyph glyph-name="logout-1" unicode="&#xe855;" d="M921 378c-2 4-3 7-6 10l-115 115c-11 11-29 11-40 0-11-11-11-29 0-40l66-66h-450c-15 0-29-12-29-29 0-15 13-29 29-29h449l-67-65c0 0 0 0 0 0-11-11-11-30 0-41 0 0 0 0 0 0 11-11 30-11 41 0l115 116c3 2 4 5 5 9 5 5 5 13 2 20z m-82-253c-10 7-24 6-32-4-72-97-183-153-304-153-211 1-382 172-382 382 0 210 171 381 382 381 118 0 228-53 300-146 8-10 22-11 32-4 9 8 11 22 4 32-82 104-204 163-336 163-235 0-427-191-427-426 0-235 192-426 427-426 135 0 260 62 340 169 7 11 6 25-4 32z" horiz-adv-x="1000" />

<glyph glyph-name="profile-2" unicode="&#xe856;" d="M886 715h-773c-23 0-44-22-44-48v-552c0-26 20-48 44-48h773c24 0 43 22 43 48v552c-1 27-21 48-43 48z m14-598c0-9-7-17-14-17h-373-28-372c-9 0-14 7-14 17v550c0 8 7 16 14 16h773c8 0 14-7 14-16v-550z m-314 212h208c28 0 49 24 49 54 0 31-21 55-49 55h-208c-28 0-48-24-48-55 0-30 20-54 48-54z m70 170h138c28 0 49 23 49 54 0 30-21 54-49 54h-138c-28 0-49-24-49-54 0-29 21-54 49-54z m147-255h-593c-22 0-41-18-41-43 0-23 19-43 41-43h593c22 0 40 18 40 43 0 24-18 43-40 43z m-600 53h248c18 0 32 14 32 32v264c0 18-14 32-32 32h-248c-18 0-32-14-32-32v-262c1-18 15-34 32-34z m218 264v-198h-185v198h185z" horiz-adv-x="1000" />

<glyph glyph-name="user" unicode="&#xe857;" d="M500 303l0 0c132 0 239 107 239 239s-107 237-239 237c-132 0-239-107-239-239 2-130 108-237 239-237z m-149 239c0 82 67 148 149 148 82 0 149-66 149-148 0-82-67-149-149-149-82 0-149 67-149 149z m149-252c-206 0-374-146-374-323 0-25 21-45 45-45s44 21 44 45c0 129 128 233 284 233s283-106 283-233c0-25 21-45 44-45s45 21 45 45c3 177-165 323-371 323z" horiz-adv-x="1000" />

<glyph glyph-name="plus" unicode="&#xe858;" d="M873 400h-323v323c0 27-22 50-50 50s-50-23-50-50v-323h-322c-28 0-50-22-50-50s22-50 50-50h322v-323c0-27 23-50 50-50s50 23 50 50v323h323c27 0 50 23 50 50s-23 50-50 50z" horiz-adv-x="1000" />

<glyph glyph-name="active-students-1" unicode="&#xe859;" d="M638 733h-67c-7 0-13 6-13 13s6 12 13 12h67c6 0 12-5 12-12s-6-13-12-13z m195-419h-666c-7 0-13 5-13 12v420c0 7 6 12 13 12h204c7 0 12-5 12-12s-5-13-12-13h-192v-395h643v395h-119c-7 0-13 6-13 13s6 12 13 12h130c7 0 13-5 13-12v-420c0-8-6-12-13-12z m-333 419h-64c-7 0-12 6-12 13s5 12 12 12h64c7 0 13-5 13-12s-6-13-13-13z m411-790h-229c-7 0-13 6-13 13v57c0 38 31 69 70 69h115c39 0 70-31 70-69v-57c0-7-6-13-13-13z m-218 24h206v46c0 25-21 45-46 45h-115c-25 0-46-20-46-45v-46z m103 139c-40 0-72 32-72 72 0 40 32 72 72 72 40 0 72-32 72-72 0 0 0 0 0 0 1-40-32-72-72-72z m0 120c-27 0-49-22-49-48s22-49 49-49c26 0 48 22 48 49 0 0 0 0 0 0 0 28-20 48-48 48l0 0z m55-283h-109c-7 0-13 6-13 13v43c0 7 6 12 13 12s12-5 12-12v-31h86v31c0 7 6 12 13 12s12-5 12-12v-43c-1-7-7-13-14-13 0 0 0 0 0 0z m-236 0h-230c-7 0-13 6-13 13v57c0 38 31 69 70 69h115c39 0 69-31 69-69v-57c0-7-5-13-11-13l0 0z m-218 24h206v46c0 25-21 45-46 45h-115c-25 0-46-20-46-45v-46z m103 139c-40 0-72 32-72 72 0 40 32 72 72 72 40 0 72-32 72-72 0 0 0 0 0 0 0-40-32-72-72-72z m0 120c-26 0-49-22-49-48 0-27 23-49 49-49 26 0 49 22 49 49 0 0 0 0 0 0 0 28-23 48-49 48l0 0z m56-283h-112c-6 0-12 6-12 13v43c0 7 6 12 12 12 7 0 13-5 13-12v-31h86v31c0 7 6 12 13 12s12-5 12-12v-43c-1-7-5-13-12-13 0 0 0 0 0 0z m-238 0h-229c-7 0-13 6-13 13v57c0 38 31 69 70 69h115c39 0 70-31 70-69v-57c0-7-6-13-13-13z m-217 24h206v46c0 25-21 45-46 45h-115c-25 0-46-20-46-45v-46z m103 139c-40 0-72 32-72 72 0 40 32 72 72 72s72-32 72-72c0 0 0 0 0 0 0-40-32-72-72-72z m0 120c-26 0-48-22-48-48 0-27 22-49 48-49s49 22 49 49c0 0 0 0 0 0 0 28-22 48-49 48l0 0z m54-283h-109c-7 0-13 6-13 13v43c0 7 6 12 13 12 7 0 12-5 12-12v-31h86v31c0 7 6 12 13 12 7 0 12-5 12-12v-43c-1-7-7-13-14-13 0 0 0 0 0 0z m471 692h-458c-7 0-13 5-13 12s6 13 13 13h457c7 0 12-6 12-13s-5-12-11-12z m0-111h-458c-7 0-13 5-13 12 0 7 6 13 13 13h457c7 0 12-6 12-13 0-7-5-12-11-12z m0-111h-254c-7 0-12 5-12 12 0 7 5 13 12 13h253c7 0 12-6 12-13 0-7-5-12-11-12z" horiz-adv-x="1000" />

<glyph glyph-name="insights" unicode="&#xe85a;" d="M915 47h-16v525c0 7-6 13-13 13h-129c-7 0-13-6-13-13v-525h-58v364c0 7-5 13-12 13h-132c-7 0-13-6-13-13v-167c0-6 6-12 13-12s12 6 12 12v153h103v-350h-101v135c0 7-6 12-13 12s-12-5-12-12v-135h-59v445c0 7-5 12-12 12h-129c-7 0-13-5-13-12v-445h-58v168c0 7-6 13-13 13-7 0-12-6-12-13v-168h-106v271h103v-47c0-7 6-13 12-13 7 0 13 6 13 13v60c0 7-6 12-13 12h-129c-7 0-12-5-12-12v-284h-18c-7 0-13-5-13-12v-68c0-7 6-13 13-13h696c7 0 12 6 12 13s-5 12-12 12h-682v42h802v-42h-40c-7 0-12-5-12-12s5-13 12-13h53c7 0 12 6 12 13v68c2 7-4 12-11 12z m-573 0v431h102v-431h-102z m426 0v511h103v-511h-103z m-593 320c38 0 68 30 69 68 0 12-2 25-9 36l111 83c26-26 71-26 97 0 8 9 14 17 17 28l79-49c0-1 0-2 0-5 0-38 30-68 69-68 38 0 68 30 68 69 0 7-1 14-2 21l101 76c28-26 72-25 97 3s25 72-3 97-73 27-100-1c-19-21-23-51-12-76l-97-77c-25 29-68 34-96 9-7-6-13-14-17-23l-84 52c-5 37-38 65-75 61-38-4-66-38-62-75 2-7 3-14 6-20l-114-86c-30 24-74 18-96-12s-18-74 13-96c9-10 25-15 40-15z m644 352c24 0 44-19 44-43 0-23-20-43-44-43-23 0-43 20-43 43 2 24 20 43 43 43 0 0 0 0 0 0l0 0z m-212-148c24 0 43-20 43-43 0-24-19-43-43-43-24 0-43 19-43 43 0 25 19 43 43 43z m-214 75c24 0 43-20 43-43s-19-43-43-43-43 19-43 43v0c1 23 19 43 43 43z m-218-167c24 0 43-19 43-43s-19-43-43-43c-24 0-43 20-43 43 0 0 0 0 0 0 0 24 19 42 43 43z" horiz-adv-x="1000" />

<glyph glyph-name="livetv" unicode="&#xe85b;" d="M874 769h-748c-25 0-45-20-45-45v-561c0-25 20-46 45-46h303v-96h-128c-25 0-45-21-45-46v-26c0-10 8-18 18-18h454c10 0 18 8 18 18v26c0 25-21 46-46 46h-128v96h303c25 0 46 21 46 46v561c-2 25-22 45-47 45z m-409-748v96h70v-96h-70z m243-53h-416v8c0 5 4 9 8 9h401c5 0 9-4 9-9v-8z m174 229v-34c0-5-4-9-8-9h-748c-4 0-8 4-8 9v34h764z m0 428v-390h-764v390h764z m0 99v-61h-764v61c0 4 4 8 8 8h749c4 0 7-3 7-8z m-382-473c99 0 179 81 179 180 0 37-11 73-33 104l-3 4-30-22 2-4c18-24 27-53 27-84 0-78-64-141-142-141s-142 63-142 141 64 143 142 143c17 0 32-3 47-8l6-1 12 34-5 2c-20 7-39 9-60 9-99 0-179-80-179-179 0-97 80-178 179-178z m94 285l5-3 25 28-5 3c-8 8-18 15-29 21l-4 3-18-32 4-3c7-4 14-10 22-17z m-152-10c-6 3-13 3-18-1-6-3-9-10-9-15v-160c0-7 3-12 9-15 2-2 7-3 9-3 3 0 6 0 9 1l159 81c7 3 10 10 10 17s-4 13-10 16l-159 79z m109-95l-100-50v100l100-50z" horiz-adv-x="1000" />

<glyph glyph-name="summary" unicode="&#xe85c;" d="M221 547h-152v-40h150v40z m-14-26h-124v14h123v-14z m572 82v-40h152v40h-152z m138-28h-123v14h123v-14z m-848-499h123v41h-123v-41z m14 28h96v-14h-96v14z m567-22c92 51 154 149 157 261h0v7 7h0c0 4 0 10 0 14h28v7c0 73-27 143-72 197h11v14h-24c-28 29-62 54-101 71-38 16-80 25-121 25h-7v-28c-4 0-10 0-14 0v0h-7-7v0c-97-3-183-50-239-122h-28v-14h18c-31-47-50-103-51-164h0v-7-7h0c1-71 28-136 71-189l-46-50h-18v-14h24l48 53c28-30 61-55 100-72l0 0 7-3 7-3 0 0c36-15 75-22 115-22 50 0 96 13 138 33l39-45h122v13h-117l-33 38z m-115 589c37-2 75-8 109-24 34-14 63-33 88-58h-40l-56-64c-4 1-8 3-12 3-16 0-28-13-28-28s12-28 28-28 27 13 27 28c0 6-1 11-4 15l52 60h47c47-51 75-119 76-192h-287v288z m101-171c0-7-5-14-14-14s-14 6-14 14c0 7 6 14 14 14s14-6 14-14z m-115 143v-272h272c0-4 0-10 1-14h-284-4v286c5 0 9 0 15 0z m-260-122h35l51-67c-3-4-5-10-5-15 0-15 12-28 27-28s28 13 28 28-12 28-28 28c-4 0-8-2-12-3l-56 71h-30c53 65 132 107 221 109v-286h-285c1 60 21 116 54 163z m110-68c7 0 14-6 14-14 0-7-6-14-14-14-7 0-14 6-14 14 0 7 6 14 14 14z m-89-299l76 84c5-2 9-3 13-3 15 0 28 12 28 28 0 15-13 27-28 27s-28-12-28-27c0-6 1-12 4-16l-75-82c-40 50-65 113-66 179h283l-88-202-25-57c-36 15-68 40-94 69z m75 107c0 7 6 14 14 14 7 0 14-6 14-14 0-7-6-14-14-14-8 0-14 7-14 14z m143-204c-37 0-75 7-110 21l61 143 53 122h3 286c-3-108-64-201-153-250l-77 92c2 4 5 9 5 15 0 15-12 28-28 28-15 0-27-13-27-28 0-15 12-28 27-28 4 0 9 2 13 3l76-89c-39-19-83-29-129-29z m40 129c-7 0-14 6-14 14 0 7 6 14 14 14 7 0 14-6 14-14 0-8-5-14-14-14z m267-171h124v41h-123v-41z m14 28h96v-14h-96v14z" horiz-adv-x="1000" />

<glyph glyph-name="evs" unicode="&#xe85d;" d="M515 238c-1 0-4 0-5 1-32 24-59 53-78 83-14 21-24 43-31 66-7 23-11 47-11 72 0 23 3 47 10 71 7 22 17 44 29 65 2 3 4 4 9 4 1 0 2 0 5-1 3-2 4-3 4-6 0-3 0-5-1-7-24-39-36-82-36-125 0-44 12-87 37-128 18-27 41-52 68-75 28 23 50 46 68 74 27 40 39 83 39 129 0 45-12 88-37 127-18 27-41 54-70 76-7-6-15-13-22-20-1-1-4-2-7-2-3 0-5 1-7 2-4 5-3 10 0 14 10 9 20 17 29 25 3 3 9 3 11 0 32-25 60-52 80-84 12-21 23-43 29-66 7-23 11-47 11-70 0-25-4-49-11-74-7-24-18-46-31-67-19-30-46-58-78-82 0-1-1-2-4-2z m-65 363c-1 0-4 0-6 2-1 1-2 4-4 5 0 3 0 6 2 7 0 0 0 0 0 0 1 3 4 4 7 4 1 0 4 0 5-1 2-1 3-4 4-5 0-3 0-6-1-7 0 0 0 0 0 0-1-3-4-5-7-5z m67-348c-6 0-10 4-10 10v313c0 6 4 10 10 10s9-4 9-10v-315c0-4-4-8-9-8z m7 225l0 0c-3 0-6 1-7 4-3 4-3 10 1 12l53 41c1 1 4 1 5 1 3 0 6-1 7-4 2-1 3-4 2-7 0-3-2-4-4-6l-53-40c-2-1-3-1-4-1z m-17 3c-3 0-4 1-6 2l-44 38c-4 3-4 10-1 12 1 3 4 3 7 3 2 0 4-1 5-3l45-37c4-3 4-10 1-13-1-1-4-2-7-2z m17-116l0 0c-3 0-6 2-7 4-3 2-3 5-3 7 0 3 1 5 4 6l53 40c1 2 4 2 5 2 3 0 6-2 7-5 2-1 3-4 2-6 0-3-2-5-4-6l-53-40c-2 0-3-2-4-2z m-17 3c-3 0-4 1-6 3l-44 37c-4 3-4 10-1 13 1 3 4 3 7 3 2 0 4-2 5-3l45-38c4-2 4-9 1-12-1-2-4-3-7-3z m124-372h-242c-3 0-4 1-7 3-1 1-3 4-3 7v227c-43 23-80 56-108 96 0 0 0 0 0 0-2 2-2 3-2 6 0 3 2 5 5 8 1 1 2 1 5 1 3 0 6-1 9-4 26-39 62-71 105-93 3-1 6-4 6-8v-225h223v222c0 4 3 7 6 8 22 12 43 25 62 42 2 2 4 3 6 3 3 0 5-1 7-3 3-4 3-10-2-12-18-17-38-31-61-42v-226c0-3-1-5-2-7-2-3-5-3-7-3z m104 315c-2 0-4 0-6 2-4 2-5 8-1 12 1 3 4 4 7 4 1 0 4 0 5-1 2-2 3-4 4-6 0-3 0-5-1-7-3-2-5-4-8-4z m29 47l0 0 0 0c-1 0-3 0-4 2-3 1-6 5-6 8 0 1 0 3 2 4 18 38 27 77 27 118 0 73-27 141-79 192s-121 79-193 79c-72 0-140-28-192-79-51-51-79-119-79-192 0-16 2-34 4-51 2-6-2-10-6-11 0 0-2 0-2 0-4 0-8 3-10 7-2 18-5 36-5 54 0 39 8 76 22 112 7 17 17 34 26 49 10 15 23 29 35 43 13 13 28 25 43 35 16 11 32 19 49 26 36 15 73 22 112 22 39 0 77-8 113-22 17-7 33-16 48-26 16-10 30-22 44-35 12-12 25-28 34-43 11-15 20-32 27-49 15-36 22-73 22-112 0-22-3-45-7-65-6-21-13-42-21-61 3-3-1-5-4-5z m-511 16c-4 0-7 2-9 5-1 3-1 4 0 7 2 3 3 4 6 6 1 0 3 1 4 1 4 0 7-3 9-5 1-5 0-10-6-13-1 0-3-1-4-1z m322-453h-131c-2 0-4 1-6 3-2 1-3 4-3 7v75c0 2 1 5 3 7 1 1 4 2 6 2h131c3 0 4-1 7-2 1-2 3-5 3-7v-75c0-3-2-5-3-7-1-2-4-3-7-3z m-121 18h113v55h-113v-55z m234 205h-356c-6 0-10 5-10 10 0 6 4 10 10 10h354c6 0 10-4 10-10 0-5-4-10-8-10z m0-75h-356c-6 0-10 5-10 10 0 6 4 10 10 10h354c6 0 10-4 10-10 0-5-4-10-8-10z m-177 75c-5 0-10 5-10 10v106c0 5 5 9 10 9 6 0 10-4 10-9v-106c0-5-4-10-10-10z" horiz-adv-x="1000" />

<glyph glyph-name="report" unicode="&#xe85e;" d="M828-81c5 0 11 5 11 12v838c0 6-6 12-11 12h-549c-65 0-118-53-118-118v-624c0-65 53-118 118-118l549-2 0 0z m-11 23h-499v816h499c0 0 0-816 0-816z m-634 97v622c0 53 43 97 98 97h16v-816h-16c-55 0-98 43-98 97z m263 475c-11-26-39-89 8-150 25-33 57-40 79-46 17-4 27-7 32-15 2-3 6-6 10-6s7 2 10 6c4 8 15 11 32 15 22 6 52 14 79 46 47 61 21 124 8 150-12 29 14 67 14 68 3 4 3 11-3 14l-30 23c-3 3-7 3-11 2-59-22-91 14-92 17s-6 4-8 4c-3 0-7-2-9-4-1-2-33-39-91-17-5 1-9 1-11-2l-31-23c-4-4-6-10-3-14 4-1 29-40 17-68z m10 71l18 14c51-18 86 4 101 16 15-12 50-34 101-16l18-14c-8-16-23-50-11-79 17-39 30-84-5-130-21-26-46-33-67-38-14-3-26-7-36-14-10 8-22 11-36 14-22 5-46 11-67 38-34 45-22 91-5 130 12 29-3 63-11 79z m254-381h-270c-5 0-11-4-11-11 0-5 4-11 11-11h270c5 0 11 4 11 11 0 6-6 11-11 11z m14-89h-277c-5 0-11-5-11-11s6-11 11-11h277c5 0 11 6 11 11s-6 11-11 11z" horiz-adv-x="1000" />

<glyph glyph-name="refresh" unicode="&#xe85f;" d="M914 446c-3 12-15 21-28 18-12-3-21-15-18-28 47-203-79-405-282-453-126-29-260 9-351 102l-10 9h76c13 0 24 12 24 24 0 13-11 24-24 24h-134c-13 0-24-11-24-24 0 0 0 0 0 0v-133c0-13 11-24 24-24 12 0 23 11 23 24v76l10-10c165-165 435-165 600 0 103 102 146 252 114 395z m-681 171c148 147 386 147 534 0l9-10h-76c-12 0-24-11-24-24s12-23 24-23h133c13 0 24 11 24 23 0 0 0 0 0 0v134c0 12-11 23-24 23-12 0-23-11-23-23v-77l-10 10c-165 165-435 165-600 0-103-103-146-253-114-396 3-11 13-18 24-18 1 0 4 0 5 0 13 3 21 15 18 28 0 0 0 0 0 0-30 128 9 261 100 353z" horiz-adv-x="1000" />

<glyph glyph-name="funzone" unicode="&#xe860;" d="M817 381c-31 0-59-23-73-37l-2-1c-32-26-89-75-111-97-5-3-12-7-17-7h-4l-3-3c-8-10-18-18-29-25l-25-17h61c17 0 36 9 47 20 17 15 56 50 110 94 1 2 3 3 4 3 15 14 32 24 42 24 2 0 7-2 11-6 7-8-7-28-18-39l-124-123-1-2c-13-14-54-64-59-104l0-80c0-12-9-21-20-21h-203c-11 0-21 9-21 21v76l0 4c-4 40-49 90-63 106l-1 2c-111 107-125 120-126 121-14 14-21 27-21 34 0 1 0 4 5 8 3 3 5 3 7 3 7 0 23-7 41-24l114-98c12-10 30-17 45-17h64l-25 15c-11 7-21 15-29 25l-3 3h-7c-5 0-14 3-16 7l-113 97c-16 17-44 36-71 36-14 0-26-4-36-14-12-11-19-25-19-41 0-30 21-55 35-67 1-1 126-121 126-121 14-14 49-55 50-78v-76c0-36 29-65 65-65h203c36 0 65 29 65 65l0 75c3 24 35 65 47 79l124 122c36 38 43 75 18 102-14 14-28 21-44 21z m-317-185c75 0 135 61 135 135 0 75-61 136-135 136s-135-61-135-136c0-74 60-135 135-135z m-90 136c0 50 40 90 90 90 50 0 90-40 90-90 0-50-40-90-90-90-50-2-90 40-90 90z m-214 82c42 0 75 33 75 75s-33 75-75 75-75-33-75-75 33-75 75-75z m-31 75c0 17 14 30 31 30s30-13 30-30-13-31-30-31-31 14-31 31z m335 143c42 0 75 33 75 75s-33 75-75 75-75-33-75-75 33-75 75-75z m0 106c17 0 31-14 31-31s-14-31-31-31c-17 0-31 14-31 31s14 31 31 31z m-185-180c14 0 28 5 41 11 16 12 29 28 33 48 4 19 1 40-10 57-14 22-37 34-64 34-14 0-27-4-40-11-35-22-46-68-24-104 14-21 38-35 64-35z m-30 82c1 9 7 16 14 20 5 3 11 4 16 4 11 0 21-6 27-14 8-14 4-33-10-42-14-8-33-4-42 10-5 7-7 15-5 22z m359-64c13-7 27-11 41-11 26 0 50 13 64 35 11 17 14 38 9 57-4 19-16 36-33 47-12 7-26 11-40 11-27 0-50-12-64-34-21-35-11-82 23-105z m16 81l0 0c5 8 15 14 26 14 6 0 11-2 17-4 7-4 11-11 14-20 1-8 0-16-4-23-9-14-28-18-42-10-7 4-11 11-14 19-4 9-3 17 3 24z m69-168c0-42 34-75 75-75s75 33 75 75-33 75-75 75-75-33-75-75z m45 0c0 17 14 30 30 30s31-13 31-30-14-31-31-31-30 14-30 31z" horiz-adv-x="1000" />
</font>
</defs>
</svg>
