<?xml version="1.0" encoding="utf-8"?>
<!-- Generator: Adobe Illustrator 24.2.0, SVG Export Plug-In . SVG Version: 6.00 Build 0)  -->
<svg version="1.1" id="Layer_1" xmlns="http://www.w3.org/2000/svg" xmlns:xlink="http://www.w3.org/1999/xlink" x="0px" y="0px"
	 viewBox="0 0 51 43" style="enable-background:new 0 0 51 43;" xml:space="preserve">
<style type="text/css">
	.st0{fill:#00C984;}
	.st1{fill:#4DBFFF;}
	.st2{fill:#E96969;}
	.st3{fill:#AB78FF;}
	.st4{fill:#FFFFFF;}
</style>
<path class="st0" d="M7,9c0-1.7,1.3-3,3-3h12c1.7,0,3,1.3,3,3v8c0,1.7-1.3,3-3,3H10c-1.7,0-3-1.3-3-3V9z"/>
<path class="st1" d="M10,22h12c1.7,0,3,1.3,3,3v9c0,1.7-1.3,3-3,3H10c-1.7,0-3-1.3-3-3v-9C7,23.3,8.3,22,10,22z"/>
<path class="st2" d="M30,6h11c1.7,0,3,1.3,3,3v8c0,1.7-1.3,3-3,3H30c-1.7,0-3-1.3-3-3V9C27,7.3,28.3,6,30,6z"/>
<path class="st3" d="M30,22h11c1.7,0,3,1.3,3,3v9c0,1.7-1.3,3-3,3H30c-1.7,0-3-1.3-3-3v-9C27,23.3,28.3,22,30,22z"/>
<path class="st4" d="M20,26.1c0-0.1-0.1-0.1-0.2-0.1c-2.7,0.2-4.9,1.9-6,4.6c-0.6-0.9-1.5-1-2.1-1c-0.4,0-0.7,0.1-0.7,0.1
	c-0.1,0-0.1,0.1-0.1,0.1c0,0.1,0,0.1,0.1,0.2c1.3,0.7,2.1,1.9,2.5,2.8c0.1,0.2,0.2,0.3,0.4,0.3s0.4-0.1,0.5-0.3
	c1.6-4.7,5.4-6.4,5.4-6.4C20,26.3,20,26.2,20,26.1z"/>
<path class="st4" d="M40,9.1c0,0-0.1-0.1-0.2-0.1c-2.7,0.2-4.9,2.2-6,5.3c-0.6-1-1.5-1.2-2.1-1.2c-0.4,0-0.7,0.1-0.7,0.1
	c-0.1,0-0.1,0.1-0.1,0.1c0,0.1,0,0.1,0.1,0.2c1.3,0.8,2.1,2.2,2.5,3.2c0.1,0.2,0.2,0.3,0.4,0.3s0.4-0.1,0.5-0.4
	c1.6-5.4,5.4-7.3,5.4-7.3C40,9.3,40,9.2,40,9.1z"/>
<path d="M47.8,3.8c0,0-0.5-0.5-1-0.5c-12.8,1-23.3,10.5-28.5,25.2c-2.9-4.8-7.1-5.7-10-5.7c-1.9,0-3.3,0.5-3.3,0.5
	c-0.5,0-0.5,0.5-0.5,0.5c0,0.5,0,0.5,0.5,1c6.2,3.8,10,10.5,11.9,15.2c0.5,1,1,1.4,1.9,1.4s1.9-0.5,2.4-1.9
	C28.8,13.8,46.9,4.7,46.9,4.7C47.8,4.7,47.8,4.2,47.8,3.8z"/>
</svg>
