<svg width="51" height="43" viewBox="0 0 51 43" fill="none" xmlns="http://www.w3.org/2000/svg">
<path d="M7 9C7 7.34315 8.34315 6 10 6H22C23.6569 6 25 7.34315 25 9V17C25 18.6569 23.6569 20 22 20H10C8.34315 20 7 18.6569 7 17V9Z" fill="#00C984"/>
<rect x="7" y="22" width="18" height="15" rx="3" fill="#4DBFFF"/>
<rect x="27" y="6" width="17" height="14" rx="3" fill="#E96969"/>
<rect x="27" y="22" width="17" height="15" rx="3" fill="#AB78FF"/>
<path d="M19.9931 26.1254C19.9666 26.0502 19.887 26 19.8339 26C17.1811 26.2007 14.9792 27.9068 13.8651 30.6165C13.2549 29.7133 12.3264 29.5878 11.7958 29.5878C11.3979 29.5878 11.1326 29.6631 11.1061 29.6631C11.0531 29.6882 11 29.7384 11 29.7885C11 29.8387 11.0265 29.914 11.0796 29.9391C12.3529 30.6416 13.1488 31.8459 13.5732 32.724C13.6528 32.8996 13.812 33 13.9977 33C14.2099 33 14.3956 32.8746 14.4487 32.6738C16.0139 27.957 19.8605 26.3011 19.887 26.3011C19.9666 26.2509 20.0196 26.1756 19.9931 26.1254Z" fill="white"/>
<path d="M39.9931 9.14337C39.9666 9.05735 39.887 9 39.8339 9C37.1811 9.22939 34.9792 11.1792 33.8651 14.276C33.2549 13.2437 32.3264 13.1004 31.7958 13.1004C31.3979 13.1004 31.1326 13.1864 31.1061 13.1864C31.0531 13.2151 31 13.2724 31 13.3297C31 13.3871 31.0265 13.4731 31.0796 13.5018C32.3529 14.3047 33.1488 15.681 33.5732 16.6846C33.6528 16.8853 33.812 17 33.9977 17C34.2099 17 34.3956 16.8566 34.4487 16.6272C36.0139 11.2366 39.8605 9.34409 39.887 9.34409C39.9666 9.28674 40.0196 9.20072 39.9931 9.14337Z" fill="white"/>
</svg>
