<svg width="63" height="61" viewBox="0 0 63 61" fill="none" xmlns="http://www.w3.org/2000/svg">
<rect x="25.3076" y="0.45752" width="40.2785" height="47.2403" rx="7" transform="rotate(20.9018 25.3076 0.45752)" fill="#9A2929"/>
<g clip-path="url(#clip0)">
<path fill-rule="evenodd" clip-rule="evenodd" d="M47.4628 23.3889L44.0468 22.4736C45.2301 18.0574 47.3211 20.3532 47.755 18.7339C48.0311 17.7035 46.3277 16.9315 45.8544 18.698L42.7354 17.8623C44.3526 11.8267 52.591 14.3497 51.171 19.6492C50.2244 23.1822 48.0939 21.0336 47.4628 23.3889ZM45.7107 23.3928C48.6812 24.1887 47.4978 28.605 44.5274 27.809C41.4084 26.9733 42.7403 22.5969 45.7107 23.3928Z" fill="white"/>
</g>
<rect y="13.3862" width="40.2785" height="47.2403" rx="7" fill="url(#paint0_linear)"/>
<rect x="17.4819" y="47.2002" width="11.9344" height="2.48633" rx="1.24316" fill="white"/>
<rect x="17.4819" y="51.6758" width="11.9344" height="2.48633" rx="1.24316" fill="white"/>
<path d="M10.7773 49.7707C10.3563 50.1657 10.3563 50.8343 10.7773 51.2293L14.3158 54.549C14.9544 55.1482 16 54.6954 16 53.8198L16 47.1802C16 46.3046 14.9544 45.8518 14.3158 46.451L10.7773 49.7707Z" fill="white"/>
<g clip-path="url(#clip1)">
<path d="M20.5825 23C20.0262 23 19.5858 23.4461 19.5858 24.0097V30.279C19.5858 30.5138 19.4236 30.6782 19.1918 30.6782C18.96 30.6782 18.7978 30.5138 18.7746 30.279V24.8315C18.7746 24.268 18.3342 23.8218 17.7779 23.8218C17.2216 23.8218 16.7812 24.268 16.7812 24.8315V30.279C16.7812 30.5138 16.6189 30.6782 16.364 30.6782C16.1322 30.6782 15.9699 30.5138 15.9699 30.279V27.25C15.9699 26.6865 15.5295 26.2403 14.9733 26.2403C14.417 26.2403 13.9766 26.6865 13.9766 27.25V30.279V30.6782V36.7362C13.9766 38.5207 15.4136 39.9765 17.1752 39.9765H21.6487C22.3905 39.9765 23.0858 39.6478 23.5726 39.1547L23.5958 39.1782L27.5593 35.0925C28.1156 34.576 28.1156 33.6837 27.5593 33.1202C27.0494 32.5566 26.1686 32.5566 25.6123 33.1202L24.3838 34.3646V30.7017V30.279V25.2307C24.3838 24.6671 23.9434 24.221 23.3872 24.221C22.8309 24.221 22.3905 24.6671 22.3905 25.2307V30.279C22.3905 30.5138 22.2282 30.6782 21.9964 30.6782C21.7646 30.6782 21.6024 30.5138 21.6024 30.279V24.0097C21.6024 23.4461 21.162 23 20.5825 23Z" fill="white"/>
</g>
<defs>
<linearGradient id="paint0_linear" x1="-4.18478" y1="53.6043" x2="50.8716" y2="53.5775" gradientUnits="userSpaceOnUse">
<stop offset="0.146099" stop-color="#F8A70B" stop-opacity="0.98"/>
<stop offset="0.731848" stop-color="#FF4E4E"/>
</linearGradient>
<clipPath id="clip0">
<rect width="8.61067" height="13.7771" fill="white" transform="translate(43.9351 13.3862) rotate(15)"/>
</clipPath>
<clipPath id="clip1">
<rect width="14" height="17" fill="white" transform="translate(14 23)"/>
</clipPath>
</defs>
</svg>
