<?xml version="1.0" encoding="utf-8"?>
<!-- Generator: Adobe Illustrator 24.2.0, SVG Export Plug-In . SVG Version: 6.00 Build 0)  -->
<svg version="1.1" id="Layer_1" xmlns="http://www.w3.org/2000/svg" xmlns:xlink="http://www.w3.org/1999/xlink" x="0px" y="0px"
	 viewBox="0 0 59 59" style="enable-background:new 0 0 59 59;" xml:space="preserve">
<style type="text/css">
	.st0{fill:#648dff;}
	.st1{fill:#FFFFFF;}
</style>
<circle class="st0" cx="29.5" cy="29.5" r="29.5"/>
<path class="st1" d="M40.4,27.2l-8-8.1c-0.8-0.8-2-0.8-2.8-0.1c-0.8,0.8-0.8,2-0.1,2.8c0,0,0,0,0.1,0.1l4.8,4.8H18.6
	c-1.1,0-2,0.9-2,2c0,1.1,0.9,2,2,2h15.7l-4.7,4.7c-0.8,0.8-0.7,2,0.1,2.8c0.8,0.7,2,0.7,2.7,0l8-8.1c0.4-0.4,0.6-0.9,0.6-1.4
	c0,0,0,0,0,0c0,0,0,0,0,0C41,28,40.8,27.5,40.4,27.2z"/>
</svg>
