<?xml version="1.0" encoding="utf-8"?>
<!-- Generator: Adobe Illustrator 24.2.0, SVG Export Plug-In . SVG Version: 6.00 Build 0)  -->
<svg version="1.1" xmlns="http://www.w3.org/2000/svg" xmlns:xlink="http://www.w3.org/1999/xlink" x="0px" y="0px"
	 viewBox="0 0 200 200" style="enable-background:new 0 0 200 200;" xml:space="preserve">
<style type="text/css">
	.st0{fill:#F4F7FA;}
	.st1{fill:url(#SVGID_1_);}
	.st2{fill:url(#SVGID_2_);}
	.st3{fill:url(#SVGID_3_);}
	.st4{fill:#96A6B7;}
	.st5{fill:url(#SVGID_4_);}
	.st6{fill:url(#SVGID_5_);}
	.st7{fill:url(#SVGID_6_);}
	.st8{fill:url(#SVGID_7_);}
	.st9{fill:#FFFFFF;}
	.st10{fill:url(#SVGID_8_);}
	.st11{opacity:0.1;fill:#FFFFFF;}
	.st12{fill:#8193CA;}
	.st13{fill:#C0CFEB;}
	.st14{opacity:0.78;fill:#FFFFFF;}
	.st15{fill:url(#SVGID_9_);}
	.st16{fill:url(#SVGID_10_);}
	.st17{opacity:0.6;}
	.st18{opacity:0.6;fill:#FFFFFF;}
	.st19{fill:url(#SVGID_11_);}
	.st20{fill:url(#SVGID_12_);}
	.st21{fill:url(#SVGID_13_);}
	.st22{fill:url(#SVGID_14_);}
	.st23{fill:url(#SVGID_15_);}
	.st24{fill:url(#SVGID_16_);}
	.st25{fill:url(#SVGID_17_);}
	.st26{fill:url(#SVGID_18_);}
	.st27{fill:url(#SVGID_19_);}
	.st28{fill:url(#SVGID_20_);}
	.st29{fill:#98B1DC;}
	.st30{fill:url(#SVGID_21_);}
	.st31{fill:url(#SVGID_22_);}
	.st32{fill:url(#SVGID_23_);}
</style>
<g id="Layer_2">
	<path class="st0" d="M98.9,4.9c-20,8-21.9,28.3-40,30.1c-15.7,1.5-21.7-13.2-32.7-10.6c-16.8,4-27.3,44-20.6,77
		c7,34,36.2,79.2,84.7,82.2c54.4,3.5,95.6-48.5,98.1-94.1c0.3-4.9,1.9-46.3-29.7-70.7C157.1,17.5,126-5.9,98.9,4.9z"/>
	
		<linearGradient id="SVGID_1_" gradientUnits="userSpaceOnUse" x1="28.5358" y1="22.2992" x2="99.8691" y2="22.2992" gradientTransform="matrix(0.9994 3.584952e-02 -2.956543e-02 0.8242 1.1476 4.4643)">
		<stop  offset="3.597120e-03" style="stop-color:#D191C0"/>
		<stop  offset="1" style="stop-color:#8172B4"/>
	</linearGradient>
	<path class="st1" d="M94.6,31.7l-60.3-2.2c-3-0.1-5.4-2.7-5.3-5.7v0c0.1-3,2.7-5.4,5.7-5.3L95,20.7c3,0.1,5.4,2.7,5.3,5.7v0
		C100.2,29.5,97.6,31.8,94.6,31.7z"/>
	
		<linearGradient id="SVGID_2_" gradientUnits="userSpaceOnUse" x1="49.5729" y1="6.6595" x2="120.9061" y2="6.6595" gradientTransform="matrix(0.9994 3.584952e-02 -2.956543e-02 0.8242 1.1476 4.4643)">
		<stop  offset="0" style="stop-color:#F58F86"/>
		<stop  offset="1" style="stop-color:#ED72AC"/>
	</linearGradient>
	<path class="st2" d="M116.1,19.6l-60.3-2.2c-3-0.1-5.4-2.7-5.3-5.7v0c0.1-3,2.7-5.4,5.7-5.3l60.3,2.2c3,0.1,5.4,2.7,5.3,5.7v0
		C121.7,17.3,119.1,19.7,116.1,19.6z"/>
	
		<linearGradient id="SVGID_3_" gradientUnits="userSpaceOnUse" x1="9.9936" y1="39.1315" x2="81.3268" y2="39.1315" gradientTransform="matrix(0.9994 3.584952e-02 -2.956543e-02 0.8242 1.1476 4.4643)">
		<stop  offset="0" style="stop-color:#FFC546"/>
		<stop  offset="0.9964" style="stop-color:#F36F56"/>
	</linearGradient>
	<path class="st3" d="M75.5,45l-60.1-2.2c-3.1-0.1-5.5-2.7-5.4-5.8l0,0c0.1-3.1,2.7-5.5,5.8-5.4l60.1,2.2c3.1,0.1,5.5,2.7,5.4,5.8v0
		C81.2,42.7,78.5,45.1,75.5,45z"/>
</g>
<g id="Layer_1">
	<g>
		<g>
			<path class="st4" d="M193.4,145.6V49c0-2-1.6-2.2-3.6-2.3l-166-8.1c-2.5-0.1-4.6,1.6-4.6,3.9v106.8L193.4,145.6z"/>
			<path class="st4" d="M19.2,149.2v21.3c0,2.2,2.1,4,4.6,3.9L189,166c2-0.1,4.4-0.4,4.4-2.3V145L19.2,149.2z"/>
			<path class="st4" d="M134.7,188.8c-3-1-5.2-3.5-5.9-6.7l-4.4-21.5l-37.2,1.3l-4.6,22.4c-0.6,3.1,1.9,6.3,4.9,7.5l15.6,6.1
				c2.9,1.1,6,1.6,9.1,1.3l32.9-2.8c1-0.1,1.7-0.8,1.8-1.8c0.1-1,0.8-2.1-0.1-2.4L134.7,188.8z"/>
			<linearGradient id="SVGID_4_" gradientUnits="userSpaceOnUse" x1="115.0392" y1="168.2712" x2="115.6054" y2="189.5018">
				<stop  offset="0" style="stop-color:#454C8D"/>
				<stop  offset="0.9964" style="stop-color:#26274F"/>
			</linearGradient>
			<path class="st5" d="M135.1,187.5c-3-1-5.2-3.5-5.9-6.6l-4.3-21.3L88.5,161l-4.6,22.2c-0.6,3.1,1.1,6.2,4,7.4l15.6,6
				c2.9,1.1,6,1.6,9.1,1.3l32.9-2.8c1-0.1,1.7-0.8,1.8-1.8c0.1-1-0.5-1.9-1.4-2.2L135.1,187.5z"/>
			<linearGradient id="SVGID_5_" gradientUnits="userSpaceOnUse" x1="80.8388" y1="85.0382" x2="193.2778" y2="139.7458">
				<stop  offset="0" style="stop-color:#454C8D"/>
				<stop  offset="0.6447" style="stop-color:#323466"/>
				<stop  offset="0.9964" style="stop-color:#26274F"/>
			</linearGradient>
			<path class="st6" d="M194.6,49v96.6l-102.8,2.1l-71.6,1.5V42.5c0-2.2,2.1-4,4.6-3.9l14,0.6l152.1,6.1
				C192.9,45.3,194.6,47,194.6,49z"/>
			<g>
				<linearGradient id="SVGID_6_" gradientUnits="userSpaceOnUse" x1="25.427" y1="100.8578" x2="190.6599" y2="100.8578">
					<stop  offset="0" style="stop-color:#FFFFFF"/>
					<stop  offset="0.9964" style="stop-color:#ECEFF2"/>
				</linearGradient>
				<path class="st7" d="M25.4,57.3v83.4c0,2.1,1.9,3.7,4.3,3.7l157.5-4.5c1.9-0.1,3.4-1.6,3.4-3.5V62L25.4,57.3z"/>
				<linearGradient id="SVGID_7_" gradientUnits="userSpaceOnUse" x1="73.4652" y1="-69.5111" x2="128.1012" y2="127.5225">
					<stop  offset="0" style="stop-color:#9681BC"/>
					<stop  offset="0.9964" style="stop-color:#6166AE"/>
				</linearGradient>
				<path class="st8" d="M190.7,62v-8.5c0-1.8-1.5-3.4-3.3-3.4L29.6,44.2c-2.3-0.1-4.2,1.5-4.2,3.6v9.6L190.7,62z"/>
				<g>
					<path class="st9" d="M37,50.8c0,0.7-0.7,1.3-1.5,1.3c-0.8,0-1.5-0.6-1.5-1.3c0-0.7,0.7-1.3,1.5-1.3C36.3,49.5,37,50.1,37,50.8z
						"/>
					<path class="st9" d="M43.2,51c0,0.7-0.6,1.3-1.4,1.2c-0.8,0-1.4-0.6-1.4-1.3c0-0.7,0.6-1.3,1.4-1.2
						C42.6,49.7,43.2,50.3,43.2,51z"/>
					<path class="st9" d="M49.5,51.2c0,0.7-0.6,1.3-1.4,1.2c-0.8,0-1.4-0.6-1.4-1.3c0-0.7,0.6-1.3,1.4-1.2
						C48.8,49.9,49.5,50.5,49.5,51.2z"/>
				</g>
			</g>
			<linearGradient id="SVGID_8_" gradientUnits="userSpaceOnUse" x1="56.8221" y1="134.3084" x2="169.2803" y2="189.0254">
				<stop  offset="0" style="stop-color:#454C8D"/>
				<stop  offset="0.9964" style="stop-color:#26274F"/>
			</linearGradient>
			<path class="st10" d="M194.6,145v18.7c0,2-1.7,3.7-3.7,3.8l-6,0.3l-160,6.8c-2.5,0.1-4.7-1.6-4.7-3.9v-21.3l71.4-1.7L194.6,145z"
				/>
			<path class="st11" d="M184.9,167.7l-160,6.8c-2.5,0.1-4.6-1.6-4.6-3.9V42.5c0-2.2,2.1-4,4.6-3.9l14,0.6c2.2,1.4,4.1,3.2,5.6,5.3
				c0.1,0.1,0.1,0.2,0.2,0.3c1.2,1.7,2,3.5,2.6,5.3c0.3,0.8,0.5,1.6,0.6,2.4c0.4,1.8,0.6,3.6,0.7,5.5c0.2,3.9-0.1,8-0.1,12
				c0,8.1,0.5,16.2,5.9,22.7c4,4.8,10.4,6.7,15.8,9.5c6.3,3.3,11.8,7.6,15,14.1c3.9,7.9,0.2,16.5,2.7,24.7c0.2,0.6,0.4,1.2,0.7,1.8
				c0.8,1.7,1.8,3.3,3,4.8c0.1,0.1,0.1,0.2,0.2,0.2c4.8,5.5,12.4,8.9,19.1,10.6c13.6,3.4,27.7-2.5,41.3-3c9.7-0.3,23.2,1.9,30.4,9.2
				C183.4,165.5,184.2,166.5,184.9,167.7z"/>
		</g>
	</g>
	<g>
		<g>
			<path class="st12" d="M75.5,34.2c0-1.3,1.1-2.3,2.4-2.2c8.7,1.1,38.5,4.6,63.1,2.6c1.1-0.1,2.1,0.8,2.2,1.9l5.4,92.4
				c0.1,1.3-0.9,2.4-2.2,2.4c-10.4,0.7-53,3.3-68.2,1.7c-0.9-0.1-1.6-0.9-1.6-1.8L75.5,34.2z"/>
			<path class="st13" d="M76.5,36.5c0-1.3,1.1-2.3,2.4-2.1c8.3,1.1,37,4.4,60.7,2.5c1.1-0.1,2,0.7,2.1,1.8l5.2,88.9
				c0.1,1.2-0.9,2.3-2.1,2.3c-10,0.6-51,3.1-65.7,1.7c-0.9-0.1-1.6-0.8-1.6-1.7L76.5,36.5z"/>
			<path class="st14" d="M84.3,43.3l1,19.1c0,0.6,0.5,1.1,1.2,1.2c3.5,0.1,14.5,0.3,20.7-0.1c0.7,0,1.3-0.6,1.3-1.3
				c0.1-3.6,0.3-14-0.5-18.3c-0.1-0.7-0.7-1.2-1.5-1.2l-20.9-0.6C84.8,41.9,84.2,42.6,84.3,43.3z"/>
			
				<linearGradient id="SVGID_9_" gradientUnits="userSpaceOnUse" x1="336.6958" y1="-140.9702" x2="381.3433" y2="-90.2233" gradientTransform="matrix(0.981 0.1939 -0.1939 0.981 -266.8866 113.5119)">
				<stop  offset="0" style="stop-color:#CE1C68"/>
				<stop  offset="1" style="stop-color:#72429A"/>
			</linearGradient>
			<circle class="st15" cx="96.3" cy="50.1" r="4.1"/>
			
				<linearGradient id="SVGID_10_" gradientUnits="userSpaceOnUse" x1="332.7635" y1="-137.5116" x2="377.4124" y2="-86.7631" gradientTransform="matrix(0.981 0.1939 -0.1939 0.981 -266.8866 113.5119)">
				<stop  offset="0" style="stop-color:#CE1C68"/>
				<stop  offset="1" style="stop-color:#72429A"/>
			</linearGradient>
			<path class="st16" d="M90.1,62.1l13.1-0.1c0.8,0,1.3-0.9,0.8-1.6c-1.1-1.7-3.5-4.3-7.5-4.1c-3.9,0.1-6.2,2.4-7.3,4.1
				C88.8,61.2,89.3,62.1,90.1,62.1z"/>
			<g class="st17">
				<path class="st9" d="M136.6,44.7c0.4,0,0.6-0.3,0.6-0.6c0-0.4-0.3-0.6-0.7-0.6l-23.1-0.3c-0.4,0-0.6,0.3-0.4,0.6l0.2,0.5
					c0.1,0.3,0.5,0.6,0.9,0.6L136.6,44.7z"/>
			</g>
			<g class="st17">
				<path class="st9" d="M113.5,46.7c-0.4,0-0.6,0.3-0.4,0.6l0.2,0.5c0.1,0.3,0.5,0.6,0.9,0.6l22.5-0.1c0.4,0,0.6-0.3,0.6-0.6
					c0-0.4-0.3-0.6-0.7-0.6L113.5,46.7z"/>
			</g>
			<g class="st17">
				<path class="st9" d="M113.5,50.3c-0.4,0-0.6,0.3-0.4,0.6l0.2,0.5c0.1,0.3,0.5,0.6,0.9,0.6l22.5-0.1c0.4,0,0.6-0.3,0.6-0.6
					c0-0.4-0.3-0.6-0.7-0.6L113.5,50.3z"/>
			</g>
			<g class="st17">
				<path class="st9" d="M138.9,69.2c0.4,0,0.6-0.3,0.6-0.6c0-0.4-0.3-0.6-0.7-0.6L85,67.8c-0.4,0-0.5,0.2-0.2,0.5l0.6,0.7
					c0.2,0.3,0.7,0.5,1.1,0.5L138.9,69.2z"/>
			</g>
			<g class="st17">
				<path class="st9" d="M85,71.4c-0.4,0-0.5,0.2-0.2,0.5l0.6,0.7c0.2,0.3,0.7,0.5,1.1,0.5l52.5-0.3c0.4,0,0.6-0.3,0.6-0.6
					c0-0.4-0.3-0.6-0.7-0.6L85,71.4z"/>
			</g>
			<path class="st18" d="M84.9,77.3c1.3-0.1,3.7-0.2,5-0.2c0.6,0,1.1,0.4,1.2,0.9c0.3,1.1,0.6,2.9,0.6,4.9c0,0.6-0.5,1.1-1.1,1.1
				l-4.9,0c-0.6,0-1.1-0.5-1.2-1.1l-0.5-4.6C84.1,77.8,84.4,77.3,84.9,77.3z"/>
			<g class="st17">
				<path class="st9" d="M93.9,79.1c-0.4,0-0.6,0.3-0.6,0.6l0.2,1c0.1,0.4,0.4,0.6,0.8,0.6l12.1-0.1c0.4,0,0.6-0.3,0.6-0.7l0-0.4
					c0-0.4-0.3-0.7-0.7-0.7L93.9,79.1z"/>
			</g>
			<path class="st18" d="M111.6,77.2c1.3-0.1,3.7-0.2,5-0.2c0.6,0,1.1,0.4,1.2,0.9c0.3,1.1,0.6,2.9,0.6,4.9c0,0.6-0.5,1.1-1.1,1.1
				l-4.9,0c-0.6,0-1.1-0.5-1.2-1.1l-0.5-4.6C110.8,77.6,111.2,77.2,111.6,77.2z"/>
			<g class="st17">
				<path class="st9" d="M120.6,79c-0.4,0-0.6,0.3-0.6,0.6l0.2,1c0.1,0.4,0.4,0.6,0.8,0.6l12.1-0.1c0.4,0,0.6-0.3,0.6-0.7l0-0.4
					c0-0.4-0.3-0.7-0.7-0.7L120.6,79z"/>
			</g>
			<g>
				<path class="st9" d="M91.9,95.6C91.9,95.6,91.9,95.6,91.9,95.6l-4.5,0c-0.6,0-1.2-0.4-1.2-1l-0.4-3.8c0-0.2,0-0.4,0.2-0.6
					c0.2-0.2,0.4-0.3,0.7-0.3l0,0c0.4,0,0.9-0.1,1.5-0.1c1.2-0.1,2.7-0.2,3.5-0.3c0.6,0,1.1,0.4,1.3,0.9c0.2,0.9,0.2,2.5,0.2,4.3
					C93.1,95.1,92.6,95.6,91.9,95.6z M86.6,90.1c-0.2,0-0.3,0.1-0.4,0.2c-0.1,0.1-0.1,0.2-0.1,0.4l0.4,3.8c0,0.4,0.4,0.7,0.9,0.7
					l4.5,0c0,0,0,0,0,0c0.4,0,0.8-0.3,0.8-0.7c0-1.7,0-3.4-0.2-4.2c-0.1-0.4-0.5-0.6-0.9-0.6c-0.8,0-2.3,0.1-3.5,0.3
					C87.6,90,87,90.1,86.6,90.1L86.6,90.1z"/>
				<path class="st18" d="M87.1,90.5c1-0.1,3-0.3,4-0.3c0.4,0,0.8,0.2,0.9,0.6c0.2,0.7,0.2,2.1,0.1,3.4c0,0.4-0.4,0.7-0.8,0.7
					l-3.6,0c-0.4,0-0.8-0.3-0.9-0.7l-0.3-3C86.5,90.8,86.8,90.5,87.1,90.5z"/>
				<g class="st17">
					<path class="st9" d="M95.9,93c0.1,0.5,0.6,0.8,1.1,0.8l41.9-0.6c0.5,0,0.9-0.4,0.8-0.9c0-0.5-0.4-0.8-0.8-0.8l-41.9,0
						C96.2,91.6,95.7,92.3,95.9,93z"/>
				</g>
				<path class="st9" d="M92,105.3C92,105.3,92,105.3,92,105.3l-4.5,0c-0.6,0-1.2-0.4-1.2-1l-0.4-3.8c0-0.2,0-0.4,0.2-0.6
					c0.2-0.2,0.4-0.3,0.7-0.3l0,0c0.4,0,0.9-0.1,1.5-0.1c1.2-0.1,2.7-0.2,3.5-0.3c0,0,0,0,0,0c0.6,0,1.1,0.4,1.3,0.9
					c0.2,0.9,0.2,2.5,0.2,4.3C93.1,104.8,92.6,105.3,92,105.3z M86.7,99.8c-0.2,0-0.3,0.1-0.4,0.2c-0.1,0.1-0.1,0.2-0.1,0.4l0.4,3.8
					c0,0.4,0.4,0.7,0.9,0.7l4.5,0c0,0,0,0,0,0c0.4,0,0.8-0.3,0.8-0.7c0-1.7,0-3.4-0.2-4.2c-0.1-0.4-0.5-0.6-0.9-0.6
					c-0.8,0-2.3,0.1-3.5,0.3C87.6,99.7,87.1,99.8,86.7,99.8L86.7,99.8z"/>
				<path class="st18" d="M87.2,100.2c1-0.1,3-0.3,4-0.3c0.4,0,0.8,0.2,0.9,0.6c0.2,0.7,0.2,2.1,0.1,3.4c0,0.4-0.4,0.7-0.8,0.7
					l-3.6,0c-0.4,0-0.8-0.3-0.9-0.7l-0.3-3C86.6,100.5,86.8,100.2,87.2,100.2z"/>
				<g class="st17">
					<path class="st9" d="M96,102.7c0.1,0.5,0.6,0.8,1.1,0.8l41.9-0.6c0.5,0,0.9-0.4,0.8-0.9c0-0.5-0.4-0.8-0.8-0.8l-41.9,0
						C96.3,101.3,95.8,102,96,102.7z"/>
				</g>
				<path class="st9" d="M92,115C92,115,92,115,92,115l-4.5,0c-0.6,0-1.2-0.4-1.2-1l-0.4-3.8c0-0.2,0-0.4,0.2-0.6
					c0.2-0.2,0.4-0.3,0.7-0.3l0,0c0.4,0,0.9-0.1,1.5-0.1c1.2-0.1,2.7-0.2,3.5-0.3c0,0,0,0,0,0c0.6,0,1.1,0.4,1.3,0.9
					c0.2,0.9,0.2,2.5,0.2,4.3C93.2,114.5,92.7,114.9,92,115z M86.7,109.5c-0.2,0-0.3,0.1-0.4,0.2c-0.1,0.1-0.1,0.2-0.1,0.4l0.4,3.8
					c0,0.4,0.4,0.7,0.9,0.7l4.5,0c0,0,0,0,0,0c0.4,0,0.8-0.3,0.8-0.7c0-1.7,0-3.4-0.2-4.2c-0.1-0.4-0.5-0.6-0.9-0.6
					c-0.8,0-2.3,0.1-3.5,0.3C87.7,109.4,87.1,109.5,86.7,109.5L86.7,109.5z"/>
				<path class="st18" d="M87.2,109.9c1-0.1,3-0.3,4-0.3c0.4,0,0.8,0.2,0.9,0.6c0.2,0.7,0.2,2.1,0.1,3.4c0,0.4-0.4,0.7-0.8,0.7
					l-3.6,0c-0.4,0-0.8-0.3-0.9-0.7l-0.3-3C86.6,110.2,86.9,109.9,87.2,109.9z"/>
				<g class="st17">
					<path class="st9" d="M96,112.4c0.1,0.5,0.6,0.8,1.1,0.8l41.9-0.6c0.5,0,0.9-0.4,0.8-0.9c0-0.5-0.4-0.8-0.8-0.8l-41.9,0
						C96.3,111,95.8,111.7,96,112.4z"/>
				</g>
				<path class="st9" d="M92.1,124.6C92.1,124.6,92.1,124.6,92.1,124.6l-4.5,0c-0.6,0-1.2-0.4-1.2-1l-0.4-3.8c0-0.2,0-0.4,0.2-0.6
					c0.2-0.2,0.4-0.3,0.7-0.3l0,0c0.4,0,0.9-0.1,1.5-0.1c1.2-0.1,2.7-0.2,3.5-0.3c0,0,0,0,0,0c0.6,0,1.1,0.4,1.3,0.9
					c0.2,0.9,0.2,2.5,0.2,4.3C93.2,124.2,92.7,124.6,92.1,124.6z M86.8,119.2c-0.2,0-0.3,0.1-0.4,0.2c-0.1,0.1-0.1,0.2-0.1,0.4
					l0.4,3.8c0,0.4,0.4,0.7,0.9,0.7l4.5,0c0,0,0,0,0,0c0.4,0,0.8-0.3,0.8-0.7c0-1.7,0-3.4-0.2-4.2c-0.1-0.4-0.5-0.6-0.9-0.6
					c-0.8,0-2.3,0.1-3.5,0.3C87.7,119.1,87.2,119.2,86.8,119.2L86.8,119.2z"/>
				<path class="st18" d="M87.3,119.6c1-0.1,3-0.3,4-0.3c0.4,0,0.8,0.2,0.9,0.6c0.2,0.7,0.2,2.1,0.1,3.4c0,0.4-0.4,0.7-0.8,0.7
					l-3.6,0c-0.4,0-0.8-0.3-0.9-0.7l-0.3-3C86.7,119.9,86.9,119.6,87.3,119.6z"/>
				<g class="st17">
					<path class="st9" d="M96.1,122.1L96.1,122.1c0.1,0.5,0.6,0.8,1.1,0.8l41.9-0.6c0.5,0,0.9-0.4,0.8-0.9c0-0.5-0.4-0.8-0.8-0.8
						l-41.9,0C96.4,120.7,95.9,121.4,96.1,122.1z"/>
				</g>
				
					<linearGradient id="SVGID_11_" gradientUnits="userSpaceOnUse" x1="-275.7252" y1="311.7086" x2="-298.8308" y2="351.1443" gradientTransform="matrix(1 -5.200000e-03 5.200000e-03 1 387.3508 -233.5277)">
					<stop  offset="0" style="stop-color:#8D50A0"/>
					<stop  offset="1" style="stop-color:#EF4A7B"/>
				</linearGradient>
				<path class="st19" d="M87.5,120.2L87.5,120.2c0.3-0.2,0.8-0.1,1,0.3l0.9,1.6c0.1,0.2,0.3,0.1,0.4,0l2.2-4.9
					c0.1-0.2,0.5-0.2,0.5,0.1c0,1.5-0.4,4.4-2.8,6.8c0,0-1.3-0.5-2.4-2.9C87,120.8,87.2,120.4,87.5,120.2z"/>
			</g>
		</g>
		<g>
			<path class="st12" d="M80.9,39.9c0-1.3,1.1-2.3,2.4-2.2c8.7,1.1,38.5,4.6,63.1,2.6c1.1-0.1,2.1,0.8,2.2,1.9l5.4,92.4
				c0.1,1.3-0.9,2.4-2.2,2.4c-10.4,0.7-53,3.3-68.2,1.7c-0.9-0.1-1.6-0.9-1.6-1.8L80.9,39.9z"/>
			<path class="st13" d="M82,42.2c0-1.3,1.1-2.3,2.4-2.1c8.3,1.1,37,4.4,60.7,2.5c1.1-0.1,2,0.7,2.1,1.8l5.2,88.9
				c0.1,1.2-0.9,2.3-2.1,2.3c-10,0.6-51,3.1-65.7,1.7c-0.9-0.1-1.6-0.8-1.6-1.7L82,42.2z"/>
			<g>
				<path class="st9" d="M97.1,97.5C97.1,97.5,97.1,97.5,97.1,97.5l-4.5,0c-0.6,0-1.2-0.4-1.2-1l-0.4-3.8c0-0.2,0-0.4,0.2-0.6
					c0.2-0.2,0.4-0.3,0.7-0.3l0,0c0.4,0,0.9-0.1,1.5-0.1c1.2-0.1,2.7-0.2,3.5-0.3c0.6,0,1.1,0.4,1.3,0.9c0.2,0.9,0.2,2.5,0.2,4.3
					C98.2,97.1,97.7,97.5,97.1,97.5z M91.8,92.1c-0.2,0-0.3,0.1-0.4,0.2c-0.1,0.1-0.1,0.2-0.1,0.4l0.4,3.8c0,0.4,0.4,0.7,0.9,0.7
					l4.5,0c0,0,0,0,0,0c0.4,0,0.8-0.3,0.8-0.7c0-1.7,0-3.4-0.2-4.2c-0.1-0.4-0.5-0.6-0.9-0.6c-0.8,0-2.3,0.1-3.5,0.3
					C92.7,92,92.2,92,91.8,92.1L91.8,92.1z"/>
				<path class="st18" d="M92.3,92.5c1-0.1,3-0.3,4-0.3c0.4,0,0.8,0.2,0.9,0.6c0.2,0.7,0.2,2.1,0.1,3.4c0,0.4-0.4,0.7-0.8,0.7
					l-3.6,0c-0.4,0-0.8-0.3-0.9-0.7l-0.3-3C91.7,92.8,91.9,92.5,92.3,92.5z"/>
				<g class="st17">
					<path class="st9" d="M101.1,95c0.1,0.5,0.6,0.8,1.1,0.8l41.9-0.6c0.5,0,0.9-0.4,0.8-0.9c0-0.5-0.4-0.8-0.8-0.8l-41.9,0
						C101.4,93.6,100.9,94.3,101.1,95z"/>
				</g>
				<path class="st9" d="M97.1,108.8C97.1,108.8,97.1,108.8,97.1,108.8l-4.5,0c-0.6,0-1.2-0.4-1.2-1l-0.4-3.8c0-0.2,0-0.4,0.2-0.6
					c0.2-0.2,0.4-0.3,0.7-0.3l0,0c0.4,0,0.9-0.1,1.5-0.1c1.2-0.1,2.7-0.2,3.5-0.3c0,0,0,0,0,0c0.6,0,1.1,0.4,1.3,0.9
					c0.2,0.9,0.2,2.5,0.2,4.3C98.3,108.3,97.8,108.8,97.1,108.8z M91.8,103.3c-0.2,0-0.3,0.1-0.4,0.2c-0.1,0.1-0.1,0.2-0.1,0.4
					l0.4,3.8c0,0.4,0.4,0.7,0.9,0.7l4.5,0c0,0,0,0,0,0c0.4,0,0.8-0.3,0.8-0.7c0-1.7,0-3.4-0.2-4.2c-0.1-0.4-0.5-0.6-0.9-0.6
					c-0.8,0-2.3,0.1-3.5,0.3C92.8,103.3,92.2,103.3,91.8,103.3L91.8,103.3z"/>
				<path class="st18" d="M92.3,103.7c1-0.1,3-0.3,4-0.3c0.4,0,0.8,0.2,0.9,0.6c0.2,0.7,0.2,2.1,0.1,3.4c0,0.4-0.4,0.7-0.8,0.7
					l-3.6,0c-0.4,0-0.8-0.3-0.9-0.7l-0.3-3C91.7,104,92,103.8,92.3,103.7z"/>
				<g class="st17">
					<path class="st9" d="M101.1,106.3c0.1,0.5,0.6,0.8,1.1,0.8l41.9-0.6c0.5,0,0.9-0.4,0.8-0.9c0-0.5-0.4-0.8-0.8-0.8l-41.9,0
						C101.4,104.8,100.9,105.5,101.1,106.3z"/>
				</g>
				<path class="st9" d="M97.2,120.5C97.2,120.5,97.2,120.5,97.2,120.5l-4.5,0c-0.6,0-1.2-0.4-1.2-1l-0.4-3.8c0-0.2,0-0.4,0.2-0.6
					c0.2-0.2,0.4-0.3,0.7-0.3l0,0c0.4,0,0.9-0.1,1.5-0.1c1.2-0.1,2.7-0.2,3.5-0.3c0,0,0,0,0,0c0.6,0,1.1,0.4,1.3,0.9
					c0.2,0.9,0.2,2.5,0.2,4.3C98.3,120.1,97.8,120.5,97.2,120.5z M91.9,115.1c-0.2,0-0.3,0.1-0.4,0.2c-0.1,0.1-0.1,0.2-0.1,0.4
					l0.4,3.8c0,0.4,0.4,0.7,0.9,0.7l4.5,0c0,0,0,0,0,0c0.4,0,0.8-0.3,0.8-0.7c0-1.7,0-3.4-0.2-4.2c-0.1-0.4-0.5-0.6-0.9-0.6
					c-0.8,0-2.3,0.1-3.5,0.3C92.8,115,92.3,115.1,91.9,115.1L91.9,115.1z"/>
				<path class="st18" d="M92.4,115.5c1-0.1,3-0.3,4-0.3c0.4,0,0.8,0.2,0.9,0.6c0.2,0.7,0.2,2.1,0.1,3.4c0,0.4-0.4,0.7-0.8,0.7
					l-3.6,0c-0.4,0-0.8-0.3-0.9-0.7l-0.3-3C91.8,115.8,92,115.5,92.4,115.5z"/>
				<g class="st17">
					<path class="st9" d="M101.2,118c0.1,0.5,0.6,0.8,1.1,0.8l41.9-0.6c0.5,0,0.9-0.4,0.8-0.9c0-0.5-0.4-0.8-0.8-0.8l-41.9,0
						C101.5,116.6,101,117.3,101.2,118z"/>
				</g>
				<path class="st9" d="M97.6,132.3C97.6,132.3,97.5,132.3,97.6,132.3l-4.5,0c-0.6,0-1.2-0.4-1.2-1l-0.4-3.8c0-0.2,0-0.4,0.2-0.6
					c0.2-0.2,0.4-0.3,0.7-0.3l0,0c0.4,0,0.9-0.1,1.5-0.1c1.2-0.1,2.7-0.2,3.5-0.3c0,0,0,0,0,0c0.6,0,1.1,0.4,1.3,0.9
					c0.2,0.9,0.2,2.5,0.2,4.3C98.7,131.8,98.2,132.3,97.6,132.3z M92.3,126.8c-0.2,0-0.3,0.1-0.4,0.2c-0.1,0.1-0.1,0.2-0.1,0.4
					l0.4,3.8c0,0.4,0.4,0.7,0.9,0.7l4.5,0c0,0,0,0,0,0c0.4,0,0.8-0.3,0.8-0.7c0-1.7,0-3.4-0.2-4.2c-0.1-0.4-0.5-0.6-0.9-0.6
					c-0.8,0-2.3,0.1-3.5,0.3C93.2,126.8,92.6,126.8,92.3,126.8L92.3,126.8z"/>
				<path class="st18" d="M92.8,127.2c1-0.1,3-0.3,4-0.3c0.4,0,0.8,0.2,0.9,0.6c0.2,0.7,0.2,2.1,0.1,3.4c0,0.4-0.4,0.7-0.8,0.7
					l-3.6,0c-0.4,0-0.8-0.3-0.9-0.7l-0.3-3C92.1,127.5,92.4,127.2,92.8,127.2z"/>
				<g class="st17">
					<path class="st9" d="M101.5,129.8L101.5,129.8c0.1,0.5,0.6,0.8,1.1,0.8l41.9-0.6c0.5,0,0.9-0.4,0.8-0.9c0-0.5-0.4-0.8-0.8-0.8
						l-41.9,0C101.9,128.3,101.3,129,101.5,129.8z"/>
				</g>
				
					<linearGradient id="SVGID_12_" gradientUnits="userSpaceOnUse" x1="-257.6851" y1="232.7068" x2="-264.5307" y2="256.5626" gradientTransform="matrix(1 -5.200000e-03 5.200000e-03 1 387.3508 -233.5277)">
					<stop  offset="0" style="stop-color:#F5928F"/>
					<stop  offset="1" style="stop-color:#F37064"/>
				</linearGradient>
				<path class="st20" d="M92.9,127.8L92.9,127.8c0.3-0.2,0.8-0.1,1,0.3l0.9,1.6c0.1,0.2,0.3,0.1,0.4,0l2.2-4.9
					c0.1-0.2,0.5-0.2,0.5,0.1c0,1.5-0.4,4.4-2.8,6.8c0,0-1.3-0.5-2.4-2.9C92.5,128.4,92.6,128,92.9,127.8z"/>
				
					<linearGradient id="SVGID_13_" gradientUnits="userSpaceOnUse" x1="-261.3571" y1="231.6536" x2="-268.2027" y2="255.5094" gradientTransform="matrix(1 -5.200000e-03 5.200000e-03 1 387.3508 -233.5277)">
					<stop  offset="0" style="stop-color:#F5928F"/>
					<stop  offset="1" style="stop-color:#F37064"/>
				</linearGradient>
				<path class="st21" d="M92.4,115.7L92.4,115.7c0.3-0.2,0.8-0.1,1,0.3l0.9,1.6c0.1,0.2,0.3,0.1,0.4,0l2.2-4.9
					c0.1-0.2,0.5-0.2,0.5,0.1c0,1.5-0.4,4.4-2.8,6.8c0,0-1.3-0.5-2.4-2.9C91.9,116.3,92.1,115.9,92.4,115.7z"/>
				
					<linearGradient id="SVGID_14_" gradientUnits="userSpaceOnUse" x1="-264.4093" y1="230.7772" x2="-271.2549" y2="254.633" gradientTransform="matrix(1 -5.200000e-03 5.200000e-03 1 387.3508 -233.5277)">
					<stop  offset="0" style="stop-color:#F5928F"/>
					<stop  offset="1" style="stop-color:#F37064"/>
				</linearGradient>
				<path class="st22" d="M92.4,104L92.4,104c0.3-0.2,0.8-0.1,1,0.3l0.9,1.6c0.1,0.2,0.3,0.1,0.4,0l2.2-4.9c0.1-0.2,0.5-0.2,0.5,0.1
					c0,1.5-0.4,4.4-2.8,6.8c0,0-1.3-0.5-2.4-2.9C91.9,104.6,92.1,104.1,92.4,104z"/>
				
					<linearGradient id="SVGID_15_" gradientUnits="userSpaceOnUse" x1="-267.0957" y1="230.007" x2="-273.9413" y2="253.8629" gradientTransform="matrix(1 -5.200000e-03 5.200000e-03 1 387.3508 -233.5277)">
					<stop  offset="0" style="stop-color:#F5928F"/>
					<stop  offset="1" style="stop-color:#F37064"/>
				</linearGradient>
				<path class="st23" d="M97.1,89.7c0.1-0.2,0.5-0.2,0.5,0.1c0,1.5-0.4,4.4-2.8,6.8c0,0-1.3-0.5-2.4-2.9c-0.2-0.3,0-0.7,0.3-0.9
					l0,0c0.3-0.2,0.8-0.1,1,0.3l0.9,1.6c0.1,0.2,0.3,0.1,0.4,0L97.1,89.7z"/>
			</g>
			<g>
				<path class="st9" d="M96.2,62.7C96.2,62.7,96.2,62.7,96.2,62.7l-4.5,0c-0.6,0-1.2-0.4-1.2-1L90,57.8c0-0.2,0-0.4,0.2-0.6
					c0.2-0.2,0.4-0.3,0.7-0.3l0,0c0.4,0,0.9-0.1,1.5-0.1c1.2-0.1,2.7-0.2,3.5-0.3c0,0,0,0,0,0c0.6,0,1.1,0.4,1.3,0.9
					c0.2,0.9,0.2,2.5,0.2,4.3C97.3,62.2,96.8,62.7,96.2,62.7z M90.9,57.2c-0.2,0-0.3,0.1-0.4,0.2c-0.1,0.1-0.1,0.2-0.1,0.4l0.4,3.8
					c0,0.4,0.4,0.7,0.9,0.7l4.5,0c0,0,0,0,0,0c0.4,0,0.8-0.3,0.8-0.7c0-1.7,0-3.4-0.2-4.2c-0.1-0.4-0.5-0.6-0.9-0.6
					c-0.8,0-2.3,0.1-3.5,0.3C91.8,57.2,91.3,57.2,90.9,57.2L90.9,57.2z"/>
				<path class="st18" d="M91.4,57.6c1-0.1,3-0.3,4-0.3c0.4,0,0.8,0.2,0.9,0.6c0.2,0.7,0.2,2.1,0.1,3.4c0,0.4-0.4,0.7-0.8,0.7L92,62
					c-0.4,0-0.8-0.3-0.9-0.7l-0.3-3C90.8,57.9,91,57.6,91.4,57.6z"/>
				<g class="st17">
					<path class="st9" d="M100.1,60.1c0.1,0.5,0.6,0.8,1.1,0.8l41.9-0.6c0.5,0,0.9-0.4,0.8-0.9c0-0.5-0.4-0.8-0.8-0.8l-41.9,0
						C100.5,58.7,100,59.4,100.1,60.1z"/>
				</g>
				<g class="st17">
					<path class="st9" d="M94,50c0.1,0.8,0.6,1.3,1.1,1.3l41.9,0c0.5,0,0.9-0.6,0.9-1.3c0-0.7-0.4-1.3-0.8-1.3l-41.9-0.8
						C94.4,47.9,93.9,49,94,50z"/>
				</g>
				<path class="st9" d="M96.2,74.4C96.2,74.4,96.2,74.4,96.2,74.4l-4.5,0c-0.6,0-1.2-0.4-1.2-1L90,69.6c0-0.2,0-0.4,0.2-0.6
					c0.2-0.2,0.4-0.3,0.7-0.3l0,0c0.4,0,0.9-0.1,1.5-0.1c1.2-0.1,2.7-0.2,3.5-0.3c0,0,0,0,0,0c0.6,0,1.1,0.4,1.3,0.9
					c0.2,0.9,0.2,2.5,0.2,4.3C97.4,74,96.9,74.4,96.2,74.4z M90.9,69c-0.2,0-0.3,0.1-0.4,0.2c-0.1,0.1-0.1,0.2-0.1,0.4l0.4,3.8
					c0,0.4,0.4,0.7,0.9,0.7l4.5,0c0,0,0,0,0,0c0.4,0,0.8-0.3,0.8-0.7c0-1.7,0-3.4-0.2-4.2c-0.1-0.4-0.5-0.6-0.9-0.6
					c-0.8,0-2.3,0.1-3.5,0.3C91.9,68.9,91.3,68.9,90.9,69L90.9,69z"/>
				<path class="st18" d="M91.4,69.4c1-0.1,3-0.3,4-0.3c0.4,0,0.8,0.2,0.9,0.6c0.2,0.7,0.2,2.1,0.1,3.4c0,0.4-0.4,0.7-0.8,0.7
					l-3.6,0c-0.4,0-0.8-0.3-0.9-0.7l-0.3-3C90.8,69.7,91.1,69.4,91.4,69.4z"/>
				<g class="st17">
					<path class="st9" d="M100.2,71.9c0.1,0.5,0.6,0.8,1.1,0.8l41.9-0.6c0.5,0,0.9-0.4,0.8-0.9c0-0.5-0.4-0.8-0.8-0.8l-41.9,0
						C100.5,70.5,100,71.2,100.2,71.9z"/>
				</g>
				<path class="st9" d="M96.6,86.2C96.6,86.2,96.6,86.2,96.6,86.2l-4.5,0c-0.6,0-1.2-0.4-1.2-1l-0.4-3.8c0-0.2,0-0.4,0.2-0.6
					c0.2-0.2,0.4-0.3,0.7-0.3l0,0c0.4,0,0.9-0.1,1.5-0.1c1.2-0.1,2.7-0.2,3.5-0.3c0,0,0,0,0,0c0.6,0,1.1,0.4,1.3,0.9
					c0.2,0.9,0.2,2.5,0.2,4.3C97.7,85.7,97.2,86.2,96.6,86.2z M91.3,80.7c-0.2,0-0.3,0.1-0.4,0.2c-0.1,0.1-0.1,0.2-0.1,0.4l0.4,3.8
					c0,0.4,0.4,0.7,0.9,0.7l4.5,0c0,0,0,0,0,0c0.4,0,0.8-0.3,0.8-0.7c0-1.7,0-3.4-0.2-4.2c-0.1-0.4-0.5-0.6-0.9-0.6
					c-0.8,0-2.3,0.1-3.5,0.3C92.2,80.6,91.7,80.7,91.3,80.7L91.3,80.7z"/>
				<path class="st18" d="M91.8,81.1c1-0.1,3-0.3,4-0.3c0.4,0,0.8,0.2,0.9,0.6c0.2,0.7,0.2,2.1,0.1,3.4c0,0.4-0.4,0.7-0.8,0.7
					l-3.6,0c-0.4,0-0.8-0.3-0.9-0.7l-0.3-3C91.2,81.4,91.4,81.1,91.8,81.1z"/>
				<g class="st17">
					<path class="st9" d="M100.6,83.6L100.6,83.6c0.1,0.5,0.6,0.8,1.1,0.8l41.9-0.6c0.5,0,0.9-0.4,0.8-0.9c0-0.5-0.4-0.8-0.8-0.8
						l-41.9,0C100.9,82.2,100.4,82.9,100.6,83.6z"/>
				</g>
			</g>
		</g>
		<linearGradient id="SVGID_16_" gradientUnits="userSpaceOnUse" x1="214.8287" y1="-72.2994" x2="200.7203" y2="-30.8041">
			<stop  offset="0" style="stop-color:#5560AB"/>
			<stop  offset="1" style="stop-color:#4C57A6"/>
		</linearGradient>
		<path class="st24" d="M160.8,100.3c0.1,0.2,2.7-5,2.7-5l-5.8-3.7l2.8-6.8l-6.9-4l8.7,3.8l-2.6,6.1c0,0,7.5,4.5,7.4,4.6
			C167,95.4,160.8,100.3,160.8,100.3z"/>
		
			<linearGradient id="SVGID_17_" gradientUnits="userSpaceOnUse" x1="510.9767" y1="-6069.8242" x2="496.8686" y2="-6028.3301" gradientTransform="matrix(-0.3426 0.9395 -0.9395 -0.3426 -5367.8462 -2528.1243)">
			<stop  offset="0" style="stop-color:#5560AB"/>
			<stop  offset="1" style="stop-color:#4C57A6"/>
		</linearGradient>
		<path class="st25" d="M170.3,26.4c-0.2,0.2-5.1,8.6-5.1,8.6l-4.9-4.5c0,0-8.1,9.2-7.9,8.7s7.1-11.8,7.1-11.8l5.7,6.1L170.3,26.4z"
			/>
		
			<linearGradient id="SVGID_18_" gradientUnits="userSpaceOnUse" x1="950.1257" y1="-455.1024" x2="936.0175" y2="-413.6078" gradientTransform="matrix(0.884 0.4675 -0.4675 0.884 -895.4906 -51.1238)">
			<stop  offset="0" style="stop-color:#5560AB"/>
			<stop  offset="1" style="stop-color:#4C57A6"/>
		</linearGradient>
		<path class="st26" d="M103.6,26.5c0.1,0.3,8,6.3,8,6.3l-5.2,4.3c0,0,8.1,9.4,7.7,9.2c-0.5-0.2-10.9-8.8-10.9-8.8l7-4.9L103.6,26.5
			z"/>
		
			<linearGradient id="SVGID_19_" gradientUnits="userSpaceOnUse" x1="-4366.5923" y1="364.8112" x2="-4380.7007" y2="406.3074" gradientTransform="matrix(-0.8931 -0.4498 0.4498 -0.8931 -5239.4204 -319.253)">
			<stop  offset="0" style="stop-color:#5560AB"/>
			<stop  offset="1" style="stop-color:#4C57A6"/>
		</linearGradient>
		<path class="st27" d="M88.6,73.2c0.5,0.3,9.6-0.6,9.6-0.6l-1.1-6.4c0,0,10.9-1.4,10.8-1.3c-0.1,0.2-13.3-0.8-13.3-0.8l1.7,6.8
			L88.6,73.2z"/>
		<g>
			<g>
				<linearGradient id="SVGID_20_" gradientUnits="userSpaceOnUse" x1="258.3978" y1="-48.5533" x2="204.1826" y2="-0.4236">
					<stop  offset="0" style="stop-color:#201B59"/>
					<stop  offset="1" style="stop-color:#2D2D84"/>
				</linearGradient>
				<path class="st28" d="M110.5,59.7c0,13.8,11.6,25,25.9,25c14.3,0,26.5-11.7,26.5-25.4c0-13.8-12.2-24.5-26.5-24.5
					C122.1,34.8,110.5,46,110.5,59.7z"/>
				<g>
					<path class="st13" d="M160.9,53.7C160.9,53.7,160.9,53.7,160.9,53.7c0.1,0,0.2-0.1,0.2-0.2c-0.3-1-0.6-2-1.1-3
						c0-0.1-0.1-0.1-0.2-0.1c-0.1,0-0.1,0.1-0.1,0.2c0.4,0.9,0.8,1.9,1,2.9C160.7,53.6,160.8,53.7,160.9,53.7z"/>
					<path class="st13" d="M156.9,45.9c0,0,0.1,0,0.1,0c0.1-0.1,0.1-0.2,0-0.2c-4.8-6.1-12.5-9.8-20.7-9.8c-3.5,0-6.8,0.7-10,2
						c-0.1,0-0.1,0.1-0.1,0.2c0,0.1,0.1,0.1,0.2,0.1c3.1-1.3,6.4-2,9.9-2c8,0,15.7,3.6,20.4,9.7C156.8,45.8,156.9,45.9,156.9,45.9z"
						/>
				</g>
				<path class="st29" d="M114,59.7c0,11.9,10,21.6,22.4,21.6c12.4,0,23-10.1,23-22c0-11.9-10.6-21.2-23-21.2
					C124.1,38.1,114,47.8,114,59.7z"/>
				<path class="st14" d="M153.7,58.6c0.1,0.9,0.9,1.6,1.8,1.6c1-0.1,1.7-0.8,1.6-1.8c-0.1-0.9-0.9-1.6-1.8-1.6
					C154.3,56.9,153.6,57.7,153.7,58.6z"/>
				<path class="st14" d="M116.4,60.7c0.1,0.9,0.9,1.6,1.8,1.6c1-0.1,1.7-0.8,1.6-1.8c-0.1-0.9-0.9-1.6-1.8-1.6
					C117.1,59,116.3,59.8,116.4,60.7z"/>
				<path class="st14" d="M139.8,75.6c-0.9,0.2-1.6,1-1.4,1.9c0.2,0.9,1.1,1.5,2,1.3c0.9-0.2,1.6-1,1.4-1.9
					C141.6,76.1,140.7,75.5,139.8,75.6z"/>
				<path class="st14" d="M133.1,40.2c-0.9,0.2-1.6,1-1.4,1.9c0.2,0.9,1.1,1.5,2,1.3c0.9-0.2,1.6-1,1.4-1.9
					C134.9,40.7,134,40.1,133.1,40.2z"/>
				<path class="st14" d="M127.5,76.6c-0.2,0.4-0.1,0.8,0.1,0.9c0.2,0.1,0.6-0.2,0.7-0.7c0.2-0.4,0.1-0.8-0.1-0.9
					C128,75.9,127.7,76.2,127.5,76.6z"/>
				<path class="st14" d="M142.5,43c-0.2,0.4-0.1,0.8,0.1,0.9c0.2,0.1,0.6-0.2,0.7-0.7c0.2-0.4,0.1-0.8-0.1-0.9
					C143,42.3,142.7,42.6,142.5,43z"/>
				<path class="st14" d="M119.7,70.2c-0.4,0.3-0.6,0.6-0.4,0.8c0.2,0.2,0.6,0.1,1-0.2c0.4-0.3,0.6-0.6,0.4-0.8
					C120.5,69.8,120.1,69.9,119.7,70.2z"/>
				<path class="st14" d="M150.6,49c-0.4,0.3-0.6,0.6-0.4,0.8c0.2,0.2,0.6,0.1,1-0.2c0.4-0.3,0.6-0.6,0.4-0.8
					C151.4,48.6,151,48.7,150.6,49z"/>
				<path class="st14" d="M118.7,51.2c-0.4-0.2-0.8-0.2-0.9,0c-0.1,0.2,0.2,0.6,0.6,0.7c0.4,0.2,0.8,0.2,0.9,0
					C119.4,51.7,119.1,51.4,118.7,51.2z"/>
				<path class="st14" d="M152.5,67.9c-0.4-0.2-0.8-0.2-0.9,0c-0.1,0.2,0.2,0.6,0.6,0.7c0.4,0.2,0.8,0.2,0.9,0
					C153.2,68.4,152.9,68.1,152.5,67.9z"/>
				<path class="st14" d="M125.9,44.1c-0.3-0.4-0.6-0.6-0.8-0.4c-0.2,0.1-0.1,0.6,0.1,1c0.3,0.4,0.6,0.6,0.8,0.4
					C126.2,44.9,126.1,44.5,125.9,44.1z"/>
				<path class="st14" d="M145.7,75.2c-0.3-0.4-0.6-0.6-0.8-0.4c-0.2,0.1-0.1,0.6,0.1,1c0.3,0.4,0.6,0.6,0.8,0.4
					C146,76,146,75.6,145.7,75.2z"/>
				
					<linearGradient id="SVGID_21_" gradientUnits="userSpaceOnUse" x1="1942.4669" y1="966.3445" x2="1932.2314" y2="982.1128" gradientTransform="matrix(-0.2954 -0.9553 -0.9553 0.2954 1674.7878 1599.528)">
					<stop  offset="0" style="stop-color:#F5928F"/>
					<stop  offset="1" style="stop-color:#F37064"/>
				</linearGradient>
				<path class="st30" d="M136.5,59.3l15.1,2.7c0.3,0.1,0.5-0.2,0.5-0.5l-0.5-1.6c-0.1-0.3,0.2-0.6,0.6-0.5l11.9,5.5
					c0.4,0.2,0.3,0.7-0.2,0.7l-13.2,0.9c-0.3,0-0.5-0.3-0.4-0.6l1.1-1.8c0.1-0.2,0-0.5-0.2-0.6l-14.9-3.6c-0.2-0.1-0.3-0.3-0.3-0.5
					l0,0C136.1,59.4,136.3,59.3,136.5,59.3z"/>
				<path class="st9" d="M162.6,65.4c0.1,0,0.2-0.1,0.2-0.3c0-0.2,0-0.3-0.2-0.4l-2.6-1.1c-0.1,0-0.2,0-0.2,0.1c0,0.1,0,0.2,0.1,0.2
					l2.6,1.1c-3,0.2-10,0.6-10.1,0.6c-0.1,0-0.2,0.1-0.1,0.2c0,0.1,0.1,0.2,0.2,0.1C152.6,66,158,65.7,162.6,65.4
					C162.5,65.4,162.5,65.4,162.6,65.4z"/>
				
					<linearGradient id="SVGID_22_" gradientUnits="userSpaceOnUse" x1="2106.9749" y1="1072.2689" x2="2096.7402" y2="1088.0355" gradientTransform="matrix(-3.050000e-02 -0.9995 -0.9995 3.050000e-02 1350.1432 2064.9888)">
					<stop  offset="0" style="stop-color:#F5928F"/>
					<stop  offset="1" style="stop-color:#F37064"/>
				</linearGradient>
				<path class="st31" d="M135.7,58.4l0-13.1c0-0.3-0.3-0.5-0.6-0.3l-1.6,0.8c-0.3,0.2-0.7-0.1-0.6-0.4l3.2-12.5
					c0.1-0.4,0.7-0.4,0.8,0l3.5,12.3c0.1,0.3-0.2,0.6-0.5,0.5l-2-0.6c-0.2-0.1-0.5,0.1-0.5,0.3l-0.9,13c0,0.2-0.2,0.4-0.4,0.4l0,0
					C135.9,58.8,135.7,58.6,135.7,58.4z"/>
				<path class="st9" d="M139.4,44C139.4,44,139.4,44,139.4,44c0.2,0,0.2-0.1,0.2-0.2c-0.1-0.2-1.5-5.2-2.6-9.4
					c0-0.1-0.2-0.2-0.3-0.2c-0.2,0-0.3,0.1-0.3,0.3l-0.6,2.7c0,0.1,0,0.2,0.1,0.2c0.1,0,0.2,0,0.2-0.1l0.6-2.7
					c0.8,2.8,2.6,9.3,2.6,9.4C139.3,44,139.3,44,139.4,44z"/>
				
					<linearGradient id="SVGID_23_" gradientUnits="userSpaceOnUse" x1="-1622.3583" y1="159.8276" x2="-1605.717" y2="116.5031" gradientTransform="matrix(-1 0 0 1 -1447.1235 0)">
					<stop  offset="0" style="stop-color:#201B59"/>
					<stop  offset="1" style="stop-color:#2D2D84"/>
				</linearGradient>
				<ellipse class="st32" cx="136.6" cy="59.1" rx="1.8" ry="1.8"/>
			</g>
		</g>
	</g>
</g>
</svg>
