<?xml version="1.0" encoding="utf-8"?>
<!-- Generator: Adobe Illustrator 24.2.0, SVG Export Plug-In . SVG Version: 6.00 Build 0)  -->
<svg version="1.1" id="Layer_1" xmlns="http://www.w3.org/2000/svg" xmlns:xlink="http://www.w3.org/1999/xlink" x="0px" y="0px"
	 viewBox="0 0 200 200" style="enable-background:new 0 0 200 200;" xml:space="preserve">
<style type="text/css">
	.st0{fill:#F4F7FA;}
	.st1{fill:#96A6B7;}
	.st2{fill:url(#SVGID_1_);}
	.st3{fill:url(#SVGID_2_);}
	.st4{fill:url(#SVGID_3_);}
	.st5{fill:url(#SVGID_4_);}
	.st6{fill:url(#SVGID_5_);}
	.st7{fill:url(#SVGID_6_);}
	.st8{fill:url(#SVGID_7_);}
	.st9{fill:#FFFFFF;}
	.st10{fill:url(#SVGID_8_);}
	.st11{opacity:0.1;fill:#FFFFFF;enable-background:new    ;}
	.st12{fill:url(#SVGID_9_);}
	.st13{fill:url(#SVGID_10_);}
	.st14{fill:url(#SVGID_11_);}
	.st15{fill:url(#SVGID_12_);}
	.st16{fill:url(#SVGID_13_);}
	.st17{fill:url(#SVGID_14_);}
	.st18{opacity:0.21;fill:#FFFFFF;enable-background:new    ;}
	.st19{fill:#D8DEE8;}
	.st20{fill:url(#SVGID_15_);}
</style>
<g>
	<path class="st0" d="M98.9,4.9c-20,8-21.9,28.3-40,30.1c-15.7,1.5-21.7-13.2-32.7-10.6c-16.8,4-27.3,44-20.6,77
		c7,34,36.2,79.2,84.7,82.2c54.4,3.5,95.6-48.5,98.1-94.1c0.3-4.9,1.9-46.3-29.7-70.7C157.1,17.5,126-5.9,98.9,4.9z"/>
	<g>
		<path class="st1" d="M193.4,145.6V49c0-2-1.6-2.2-3.6-2.3l-166-8.1c-2.5-0.1-4.6,1.6-4.6,3.9v106.8L193.4,145.6z"/>
		<path class="st1" d="M19.2,149.2v21.3c0,2.2,2.1,4,4.6,3.9L189,166c2-0.1,4.4-0.4,4.4-2.3V145L19.2,149.2z"/>
		
			<linearGradient id="SVGID_1_" gradientUnits="userSpaceOnUse" x1="31.6888" y1="175.7088" x2="103.0332" y2="175.7088" gradientTransform="matrix(0.9994 3.584952e-02 2.956543e-02 -0.8242 -4.7655 169.3043)">
			<stop  offset="3.597120e-03" style="stop-color:#D191C0"/>
			<stop  offset="1" style="stop-color:#8172B4"/>
		</linearGradient>
		<path class="st2" d="M97.7,33.5l-60.3-2.2c-3-0.1-5.4-2.7-5.3-5.7l0,0c0.1-3,2.7-5.4,5.7-5.3l60.3,2.2c3,0.1,5.4,2.7,5.3,5.7l0,0
			C103.3,31.3,100.7,33.6,97.7,33.5z"/>
		
			<linearGradient id="SVGID_2_" gradientUnits="userSpaceOnUse" x1="52.7403" y1="191.3053" x2="124.0847" y2="191.3053" gradientTransform="matrix(0.9994 3.584952e-02 2.956543e-02 -0.8242 -4.7655 169.3043)">
			<stop  offset="0" style="stop-color:#F58F86"/>
			<stop  offset="1" style="stop-color:#ED72AC"/>
		</linearGradient>
		<path class="st3" d="M119.2,21.4l-60.3-2.2c-3-0.1-5.4-2.7-5.3-5.7l0,0c0.1-3,2.7-5.4,5.7-5.3l60.3,2.2c3,0.1,5.4,2.7,5.3,5.7l0,0
			C124.8,19.1,122.2,21.5,119.2,21.4z"/>
		
			<linearGradient id="SVGID_3_" gradientUnits="userSpaceOnUse" x1="13.175" y1="158.888" x2="84.5194" y2="158.888" gradientTransform="matrix(0.9994 3.584952e-02 2.956543e-02 -0.8242 -4.7655 169.3043)">
			<stop  offset="0" style="stop-color:#FFC546"/>
			<stop  offset="0.9964" style="stop-color:#F36F56"/>
		</linearGradient>
		<path class="st4" d="M78.6,46.8l-60.1-2.2c-3.1-0.1-5.5-2.7-5.4-5.8l0,0c0.1-3.1,2.7-5.5,5.8-5.4L79,35.6c3.1,0.1,5.5,2.7,5.4,5.8
			l0,0C84.3,44.5,81.6,46.9,78.6,46.8z"/>
		<path class="st1" d="M134.7,188.8c-3-1-5.2-3.5-5.9-6.7l-4.4-21.5l-37.2,1.3l-4.6,22.4c-0.6,3.1,1.9,6.3,4.9,7.5l15.6,6.1
			c2.9,1.1,6,1.6,9.1,1.3l32.9-2.8c1-0.1,1.7-0.8,1.8-1.8s0.8-2.1-0.1-2.4L134.7,188.8z"/>
		
			<linearGradient id="SVGID_4_" gradientUnits="userSpaceOnUse" x1="114.9981" y1="31.7277" x2="115.5643" y2="10.4971" gradientTransform="matrix(1 0 0 -1 0 200)">
			<stop  offset="0" style="stop-color:#454C8D"/>
			<stop  offset="0.9964" style="stop-color:#26274F"/>
		</linearGradient>
		<path class="st5" d="M135.1,187.5c-3-1-5.2-3.5-5.9-6.6l-4.3-21.3L88.5,161l-4.6,22.2c-0.6,3.1,1.1,6.2,4,7.4l15.6,6
			c2.9,1.1,6,1.6,9.1,1.3l32.9-2.8c1-0.1,1.7-0.8,1.8-1.8s-0.5-1.9-1.4-2.2L135.1,187.5z"/>
		
			<linearGradient id="SVGID_5_" gradientUnits="userSpaceOnUse" x1="80.8431" y1="114.9707" x2="193.2822" y2="60.2631" gradientTransform="matrix(1 0 0 -1 0 200)">
			<stop  offset="0" style="stop-color:#454C8D"/>
			<stop  offset="0.6447" style="stop-color:#323466"/>
			<stop  offset="0.9964" style="stop-color:#26274F"/>
		</linearGradient>
		<path class="st6" d="M194.6,49v96.6l-102.8,2.1l-71.6,1.5V42.5c0-2.2,2.1-4,4.6-3.9l14,0.6l152.1,6.1
			C192.9,45.3,194.6,47,194.6,49z"/>
		<g>
			
				<linearGradient id="SVGID_6_" gradientUnits="userSpaceOnUse" x1="25.4" y1="99.15" x2="190.6" y2="99.15" gradientTransform="matrix(1 0 0 -1 0 200)">
				<stop  offset="0" style="stop-color:#FFFFFF"/>
				<stop  offset="0.9964" style="stop-color:#ECEFF2"/>
			</linearGradient>
			<path class="st7" d="M25.4,57.3v83.4c0,2.1,1.9,3.7,4.3,3.7l157.5-4.5c1.9-0.1,3.4-1.6,3.4-3.5V62L25.4,57.3z"/>
			
				<linearGradient id="SVGID_7_" gradientUnits="userSpaceOnUse" x1="73.4613" y1="269.51" x2="128.0973" y2="72.4764" gradientTransform="matrix(1 0 0 -1 0 200)">
				<stop  offset="0" style="stop-color:#9681BC"/>
				<stop  offset="0.9964" style="stop-color:#6166AE"/>
			</linearGradient>
			<path class="st8" d="M190.7,62v-8.5c0-1.8-1.5-3.4-3.3-3.4L29.6,44.2c-2.3-0.1-4.2,1.5-4.2,3.6v9.6L190.7,62z"/>
			<g>
				<path class="st9" d="M37,50.8c0,0.7-0.7,1.3-1.5,1.3S34,51.5,34,50.8s0.7-1.3,1.5-1.3S37,50.1,37,50.8z"/>
				<path class="st9" d="M43.2,51c0,0.7-0.6,1.3-1.4,1.2c-0.8,0-1.4-0.6-1.4-1.3s0.6-1.3,1.4-1.2C42.6,49.7,43.2,50.3,43.2,51z"/>
				<path class="st9" d="M49.5,51.2c0,0.7-0.6,1.3-1.4,1.2c-0.8,0-1.4-0.6-1.4-1.3s0.6-1.3,1.4-1.2C48.8,49.9,49.5,50.5,49.5,51.2z"
					/>
			</g>
		</g>
		
			<linearGradient id="SVGID_8_" gradientUnits="userSpaceOnUse" x1="56.7911" y1="65.6279" x2="169.2493" y2="10.9109" gradientTransform="matrix(1 0 0 -1 0 200)">
			<stop  offset="0" style="stop-color:#454C8D"/>
			<stop  offset="0.9964" style="stop-color:#26274F"/>
		</linearGradient>
		<path class="st10" d="M194.6,145v18.7c0,2-1.7,3.7-3.7,3.8l-6,0.3l-160,6.8c-2.5,0.1-4.7-1.6-4.7-3.9v-21.3l71.4-1.7L194.6,145z"
			/>
		<path class="st11" d="M184.9,167.7l-160,6.8c-2.5,0.1-4.6-1.6-4.6-3.9V42.5c0-2.2,2.1-4,4.6-3.9l14,0.6c2.2,1.4,4.1,3.2,5.6,5.3
			c0.1,0.1,0.1,0.2,0.2,0.3c1.2,1.7,2,3.5,2.6,5.3c0.3,0.8,0.5,1.6,0.6,2.4c0.4,1.8,0.6,3.6,0.7,5.5c0.2,3.9-0.1,8-0.1,12
			c0,8.1,0.5,16.2,5.9,22.7c4,4.8,10.4,6.7,15.8,9.5c6.3,3.3,11.8,7.6,15,14.1c3.9,7.9,0.2,16.5,2.7,24.7c0.2,0.6,0.4,1.2,0.7,1.8
			c0.8,1.7,1.8,3.3,3,4.8c0.1,0.1,0.1,0.2,0.2,0.2c4.8,5.5,12.4,8.9,19.1,10.6c13.6,3.4,27.7-2.5,41.3-3c9.7-0.3,23.2,1.9,30.4,9.2
			C183.4,165.5,184.2,166.5,184.9,167.7z"/>
	</g>
	
		<linearGradient id="SVGID_9_" gradientUnits="userSpaceOnUse" x1="143.4376" y1="157.55" x2="150.3035" y2="157.55" gradientTransform="matrix(1 0 0 -1 0 200)">
		<stop  offset="0" style="stop-color:#AC316E"/>
		<stop  offset="1" style="stop-color:#7A2E3E"/>
	</linearGradient>
	<path class="st12" d="M143.4,43.4L143.4,43.4c0-1.3,1-2.3,2.2-2.3h0.8l3.9,1.5v1.2L143.4,43.4z"/>
	<g>
		
			<linearGradient id="SVGID_10_" gradientUnits="userSpaceOnUse" x1="60.6624" y1="98.8117" x2="31.4446" y2="47.0274" gradientTransform="matrix(1 0 0 -1 0 200)">
			<stop  offset="0" style="stop-color:#FFC546"/>
			<stop  offset="0.9964" style="stop-color:#F36F56"/>
		</linearGradient>
		<path class="st13" d="M57,137.6L38.3,138c-3.7,0.1-6.8-2.8-6.8-6.4V118c0-3.6,3-6.6,6.8-6.6l18.6-0.1c3.6,0,6.6,2.8,6.6,6.4V131
			C63.5,134.6,60.6,137.5,57,137.6z"/>
		
			<linearGradient id="SVGID_11_" gradientUnits="userSpaceOnUse" x1="104.4475" y1="98.6471" x2="76.2559" y2="48.6815" gradientTransform="matrix(1 0 0 -1 0 200)">
			<stop  offset="0" style="stop-color:#FFC546"/>
			<stop  offset="0.9964" style="stop-color:#F36F56"/>
		</linearGradient>
		<path class="st14" d="M100.7,136.6L83,137c-3.5,0.1-6.4-2.7-6.4-6.2v-13.3c0-3.5,2.9-6.4,6.4-6.4l17.7-0.1c3.4,0,6.2,2.8,6.2,6.2
			v13.1C106.9,133.6,104.1,136.5,100.7,136.6z"/>
		
			<linearGradient id="SVGID_12_" gradientUnits="userSpaceOnUse" x1="147.7243" y1="98.5392" x2="120.533" y2="50.3465" gradientTransform="matrix(1 0 0 -1 0 200)">
			<stop  offset="0" style="stop-color:#FFC546"/>
			<stop  offset="0.9964" style="stop-color:#F36F56"/>
		</linearGradient>
		<path class="st15" d="M144,135.6l-16.8,0.4c-3.3,0.1-6.1-2.7-6.1-6.1v-13c0-3.4,2.7-6.2,6.1-6.3l16.8-0.1c3.3,0,5.9,2.7,5.9,6.1
			v12.7C149.9,132.7,147.3,135.5,144,135.6z"/>
		
			<linearGradient id="SVGID_13_" gradientUnits="userSpaceOnUse" x1="183.8913" y1="98.3955" x2="157.5214" y2="51.6587" gradientTransform="matrix(1 0 0 -1 0 200)">
			<stop  offset="0" style="stop-color:#FFC546"/>
			<stop  offset="0.9964" style="stop-color:#F36F56"/>
		</linearGradient>
		<path class="st16" d="M180.1,134.8l-16,0.4c-3.2,0.1-5.8-2.6-5.8-5.9v-12.7c0-3.3,2.6-6.1,5.8-6.1l16-0.1c3.1,0,5.6,2.6,5.6,5.9
			v12.5C185.7,132,183.2,134.7,180.1,134.8z"/>
		
			<linearGradient id="SVGID_14_" gradientUnits="userSpaceOnUse" x1="149.0301" y1="187.438" x2="57.9481" y2="26.0083" gradientTransform="matrix(1 0 0 -1 0 200)">
			<stop  offset="0" style="stop-color:#FFC546"/>
			<stop  offset="0.9964" style="stop-color:#F36F56"/>
		</linearGradient>
		<path class="st17" d="M180.7,105.3L37.4,106c-3.8,0-6.9-2.6-6.9-5.7V68.8c0-3.2,3.1-5.7,6.9-5.6L180.7,66c3.2,0.1,5.8,2.5,5.8,5.4
			V100C186.5,102.9,183.9,105.3,180.7,105.3z"/>
		<path class="st18" d="M54.1,104.4c12-3.3,3.6-12.7,17-17.4c13.5-4.7,32.6,1.1,42.1-3.8c7.1-3.7-1.2-8.1,5.5-11.5
			c10.6-5.4,37.7,2,50.1-3.3c1.8-0.8,2.3-0.8,3.3-2.7l8-0.2c3.1-0.1,5.6,0.8,5.6,2l1.3,37c0,1.2-2.5,2.1-5.6,2L39.3,107
			c-2.3-0.1-4.1-0.9-4.1-1.9v-0.6C44.6,105.9,50.4,105.4,54.1,104.4z"/>
	</g>
	<path class="st19" d="M164.4,69.2l-8.7-6.7l-8.7,6.3v-21c0-1.6-0.8-3.2-2.1-4.3l-0.1-0.1l16.5,0.6c1.7,0.1,3,1.5,3,3.2v22H164.4z"
		/>
	
		<linearGradient id="SVGID_15_" gradientUnits="userSpaceOnUse" x1="167.6218" y1="165.7707" x2="141.9586" y2="120.2863" gradientTransform="matrix(1 0 0 -1 0 200)">
		<stop  offset="0" style="stop-color:#F58F86"/>
		<stop  offset="1" style="stop-color:#ED72AC"/>
	</linearGradient>
	<path class="st20" d="M165.9,68.3l-8.7-7l-8.7,6.6V45.6c0-1.7-0.8-3.4-2.1-4.5l-0.1-0.1l16.5,0.7c1.7,0.1,3,1.6,3,3.3v23.3H165.9z"
		/>
</g>
</svg>
