<?xml version="1.0" encoding="utf-8"?>
<!-- Generator: Adobe Illustrator 24.2.0, SVG Export Plug-In . SVG Version: 6.00 Build 0)  -->
<svg version="1.1" id="Layer_1" xmlns="http://www.w3.org/2000/svg" xmlns:xlink="http://www.w3.org/1999/xlink" x="0px" y="0px"
	 viewBox="0 0 320 306.2" style="enable-background:new 0 0 320 306.2;" xml:space="preserve">
<style type="text/css">
	.st0{fill:#4A573C;}
	.st1{fill:#504C3B;}
	.st2{fill:#566846;}
	.st3{fill:#3A4331;}
	.st4{fill:#7B9065;}
	.st5{fill:#4A563C;}
	.st6{fill:#667754;}
	.st7{fill:#667955;}
	.st8{fill:#5F714D;}
	.st9{fill:#71875D;}
	.st10{fill:#49543C;}
	.st11{fill:#434D38;}
	.st12{fill:#7A9264;}
	.st13{fill:#AABD98;}
	.st14{opacity:0.43;fill:#9FB38B;enable-background:new    ;}
	.st15{fill:#6F8C5D;}
	.st16{fill:#DAE5C9;}
	.st17{fill:#94A57E;}
	.st18{fill:#B6C6A4;}
	.st19{fill:#C7D3B7;}
	.st20{fill:#D8A432;}
	.st21{fill:#FF9D03;}
	.st22{fill:#FFB605;}
	.st23{fill:#34247D;}
	.st24{fill:#F97906;}
	.st25{fill:#E26600;}
	.st26{fill:none;stroke:#FFFFFF;stroke-miterlimit:10;}
	.st27{fill:#4B21DB;}
	.st28{fill:#06C9E2;}
	.st29{fill:#08A5D3;}
	.st30{fill:#FF6EB0;}
	.st31{fill:#FF92C9;}
	.st32{fill:#F45D9F;}
	.st33{fill:#EA4C8E;}
	.st34{fill:#7A2866;}
	.st35{fill:#5FE8F2;}
</style>
<g>
	<path class="st0" d="M83.5,92.7c-0.2,1.2-0.7,2.5-0.8,3.8c-0.2,1.5-0.1,3-0.5,4.4L82,101c0.8,0.4,2.9-0.5,3.9-0.5
		c1.4-0.1,3.2,0.6,2.9-1.1C88.2,96.6,85.1,95,83.5,92.7z"/>
	<path class="st1" d="M251.7,118.5h0.5c-0.2-0.1-0.3-0.2-0.5-0.3C251.7,118.2,251.7,118.3,251.7,118.5z"/>
	<path class="st2" d="M270.1,130.9c-22.9-1.1-44.8,2.3-65.2,11.2c-21.4,9.3-45.6,26.4-53.4,47.6c-5.5,14.9-9.6,32.3-6.9,48.1
		c2.8,16.7,12.7,33.3,12.5,50.2c10.4-2.1,18.5-13.3,29.4-16.6c0,0,8.4,4.9,19.2-3.4c14.6-11.3,29.3-24.4,46.6-28.7
		c19.2-4.8,26.9-23,37.1-28.5c8.3-17.3-2.3-20.9,5.7-33.8c10.1-16.2,4.6-28.2,10.1-42l-3.6-1.1C291.6,131.4,280.4,131.4,270.1,130.9
		z"/>
	<path class="st0" d="M212.9,203.9c-3,7.9-3.3,23.7-5.6,31.8c-2.2,7.8-4.2,15.7-5.6,23.6c-0.5,2.9-1,5.7-1.2,8.6
		c-0.1,1.8,0.1,2.4,0.1,2.5c0.1,0.1,0.2,0.3,0.3,0.4c1.5-0.7,3-1.6,4.6-2.9c5.1-3.9,10.2-8.1,15.4-12c0.4-6.4,1.6-12.8,2.7-19.2
		c1.3-7.5,3.1-16.4-0.3-23.7C221.9,210,212.9,203.9,212.9,203.9z"/>
	<path class="st3" d="M206.9,266.9c3.6-2.8,7.2-5.7,10.8-8.5c0.8-5.4,1.8-10.8,2.7-16.2c1.4-8.6-5.1-23.8-7.1-31.2
		C213.2,229.8,212.6,251.4,206.9,266.9z"/>
	<path class="st0" d="M300.5,133.7c-6.1,3.1-11.9,6.4-17.7,10c4.2,0.1,8,1,12,2.2c4.4,1.3,5.4,5.9,3.3,8.7
		c-4.5,17.1-21.8,28.2-26,45.4c-2.5,10.1-2.8,20.4-3.7,30.7c8.5-7.2,14.1-16.2,20.8-19.8c8.3-17.3-2.3-20.9,5.7-33.8
		c10.1-16.2,4.6-28.2,10.1-42l-3.6-1.1C301.1,133.8,300.8,133.8,300.5,133.7z"/>
	<path class="st3" d="M273.4,221.7c5.4-8.4,11.8-15.9,19.2-22.9c0.4-8.1-3.3-12.6,2.4-21.8c2.4-3.8,3.9-7.4,5-10.8
		c-5.1,8-10.9,15.6-16.8,23.1C279.9,200.2,276.4,210.9,273.4,221.7z"/>
	<path class="st0" d="M155.6,205.4c-0.4,0-0.8,0.1-1.2,0c-0.9,19.8-1.2,39.7-1.9,59.5c2.5,7.6,4.5,15.3,4.4,23c4.9-1,9.3-4,13.7-7.3
		c-0.1-1.3-0.2-2.5-0.3-3.8c-0.4-5.9-0.7-12-2.9-17.6c-1.8-4.7-5.1-9.3-6.1-14.2c-3.3-16.5,3.6-30,14.6-42.1
		C169.4,204.2,162.6,204.6,155.6,205.4z"/>
	<path class="st0" d="M233.6,160.8c0.3-0.1-15.9,3.4-11.8,5c1.1,0.1,5.4,1.2,6.3,1.5c0.5,0.2,13-0.3,13-0.3
		c-9.1,19.3-7.2,47.8-8.9,68.3c-0.4,4.7-0.9,9.3-1.6,13.9c3.9-2.5,7.9-4.7,12-6.6c0.3-4.2,0.7-8.5,1.3-12.7
		c1.5-10.2,5-18.6,8.8-28.2c3.4-8.6,1-17.8,4.3-26.3c2.6-6.7,6.1-12.7,8-19.3c-4.4,2.3-10,3.7-14.6,3.7
		C244.7,159.9,239,159.2,233.6,160.8z"/>
	<path class="st3" d="M233.6,160.8c0.3-0.1-15.9,3.4-11.8,5c1.1,0.1,5.4,1.2,6.3,1.5c0.5,0.2,13-0.3,13-0.3
		c-9.1,19.3-7.2,47.8-8.9,68.3c-0.4,4.7-0.9,9.3-1.6,13.9c1-0.6,2-1.2,3-1.8c0.5-8.2,1.7-16.4,2.8-24.6c1.1-8.8,1.5-17.7,3.5-26.5
		c3.4-15,7.3-25.6,20.7-35.6c1.1-0.8,2.3-1.2,3.4-1.3c0.4-1,0.7-2.1,1-3.1c-4.4,2.3-10,3.7-14.6,3.7
		C244.7,159.9,239,159.2,233.6,160.8z"/>
	<path class="st0" d="M178.8,200c1,8.8,1.9,17.7,1.6,26.5c-0.2,8.9-1.6,17.7-0.5,26.6c0.8,6.6,2.1,13.1,3,19.7
		c0.9-0.4,1.8-0.8,2.8-1.1c-0.5-7,1.4-13.8,2.7-20.8c1.7-9.2,1.5-17.8,5.3-26.8c4.7-10.9,3.3-21.8,11.8-32.6
		c1.9-2.5,15.1-16,15.6-18.9C211.6,175.7,184.1,192.1,178.8,200z"/>
	<path class="st3" d="M178.8,200c1,8.8,1.9,17.7,1.6,26.5c-0.2,8.9-1.6,17.7-0.5,26.6c0.8,6.6,2.1,13.1,3,19.7
		c0.8-0.4,1.6-0.7,2.5-1c-0.7-16.5-1-33-0.3-49.5c0.6-15.8,8.9-25.4,17.8-38.2c0.1-0.4,0.1-0.9,0.2-1.3
		C193.6,185.9,184.1,192.1,178.8,200z"/>
	<path class="st4" d="M154.5,190.9c-7.9-19.3-40.3-36.5-60.1-44.8c-19.9-8.3-46.8-8.3-68.3-9.2c-5.8-0.3-10.5-0.5-15.6-2
		c0,15.4,0.6,31.9,8.7,45.1c3.3,5.4,6.9,26,13.9,37.8c4.7,7.9,9.5,6.1,17,8.8c11.8,4.2,17.6,19.1,37.5,28.9
		c7.1,3.5,11.5,12.4,26.3,16.8c8.5,2.5,18.8,0.8,18.8,0.8c8.6,3.1,8.9,10.2,24.3,15c0.5-15.3-1-31.1-1-47.5
		C155.9,225.8,160.1,204.6,154.5,190.9z"/>
	<path class="st5" d="M83,205.7c0,0.1,0,0.2-0.1,0.3c1.8,5.7,2.6,12.7,1.8,19.6c0.1,9.5-2.2,18.3-9.8,21.7c3.5,2.9,7.6,5.6,12.6,8.1
		c4.3,2.1,7.6,6.2,12.8,10c-3.8-8.3-7.3-16.6-9.7-25.3C87.6,228.9,86.4,217,83,205.7z"/>
	<path class="st6" d="M155.5,207.6c-2.6-1.8-6.7-4.6-10.1-5.4c0,0.2,0.1,0.5,0.1,0.9c0.1,0.4,0.3,0.8,0.4,1.2
		c0.5,0.3,0.9,0.7,1.3,1.2c10,12.5,6,27.6,6.5,41.9c0.5,12.3,2.3,24.5,3.2,36.8c0.2-14.2-1.1-28.7-1.1-43.6c0-9.3,1.6-21.1,1.5-32
		C156.8,208.3,156.1,208.1,155.5,207.6z"/>
	<path class="st6" d="M142,236.1c-2.9-8.5-6-17-7.2-25.8c-2.5-6.2-4.7-13.2,0.3-16.7c1.3-0.9,2.7-1.6,4.1-2
		c-0.9-0.5-1.8-0.9-2.9-1.2c-3.7,1.9-7.7,3.1-11.9,3.8c7.2,17.8,10.4,36.5,10,55.3c0.1,0.2,0.2,0.4,0.2,0.5c1.1,3.2,0.3,7-0.5,10.3
		c0.1,0.3,0.1,0.6,0.1,0.9c0,4.2-0.2,8.2-0.8,12.1c4.7,1.9,6.9,5,10.9,8.3c-0.9-10.2-2.3-20.4-2.8-30.6
		C141.3,246.3,141.7,241.2,142,236.1z"/>
	<path class="st6" d="M29.6,178.3c-4.5-2.8-11.2-10-11.2-10c0,1.2-3.2-7.7-3.8-17.3c-0.2-4.4-0.2-8.8,0.4-13.2
		c-1-0.7-1.9-1.5-2.7-2.4c-0.7-0.2-1.3-0.3-2-0.5c0,15.4,0.6,31.9,8.7,45.1c3.3,5.4,6.9,26,13.9,37.8c2.7,4.6,5.5,5.9,8.8,6.7
		C34.7,211.5,21.9,191.5,29.6,178.3z"/>
	<path class="st6" d="M63.9,170.6c-1.5-1.2-2.7-2.5-3.7-3.9c-3.8-2-7.2-4.6-11.1-6.1c-0.1,2.2-0.3,4.4-0.6,6.5
		c0,0.2,0.1,0.5,0.1,0.7c3.5,8.7,5.2,17.7,6.9,27c0.2,0.4,0.4,0.9,0.5,1.4c0.5,2.2,0.9,4.4,1.3,6.6c0.5,0.8,0.9,1.7,0.9,2.7
		c0.6,9.1,1.7,18.1,1,27.1c1.6,1.4,3.2,3,4.8,4.6c0.3-6.9,0.9-13.7,0.9-20.6C65.1,201,57.4,185.8,63.9,170.6z"/>
	<path class="st7" d="M51.9,162.4c1-1.2,5.1-12.3,4.2-12.5c-5.5-0.8-19.1-2.4-20.4-2.3c1,8.8,1.9,17.8,4.5,26.4
		c2.8,9.1,8,17.1,11.4,26c4,10.7,6.1,21.7,7.7,32.8c1,0.9,1.9,1.8,2.9,2.8c-0.5-17.9-1.5-35.9-5.8-53.4
		C54,172.1,52.8,168.8,51.9,162.4z"/>
	<path class="st0" d="M52.1,162.1c0.9-1.2,4.9-12,4-12.2c-5.5-0.8-36.4-9.5-37.7-9.4c4.1,6.3,14.9,11.1,18.8,12.1
		c10,3.1,9.9,9,11.7,15.9c2.4,9.1,4.7,18.3,6.8,27.5c2.7,12,5.6,25.5,5.4,38.5c0.3,0.3,0.7,0.7,1.1,1c-0.5-17.9-1.5-35.9-5.8-53.4
		C54,172.1,53,168.5,52.1,162.1z"/>
	<path class="st7" d="M109.4,188c7.1,9.2,14.6,22.9,19.3,48.8c2.2,12.2,2.4,24,3.9,36.3c0.6,0.3,2.2,1,2.7,1.3
		c0.7-6.5,1.7-13,2.3-19.7c1.7-18.6-5.2-39.4-7.1-57.8c0,0,14.8-6.8,18.1-10.6C138.6,186.5,107,182.2,109.4,188z"/>
	<path class="st0" d="M80.6,172.6l11.7,7.4c10.4,3.5,27,16.5,26.9,16.9c2.4,1.3,11.2,19.7,12.9,27.3c3.5,15.7,5.1,33.5,1.8,49.4
		c0.5,0.2,0.9,0.5,1.4,0.7c0.7-6.5,1.7-13,2.3-19.7c1.7-18.6-5.2-39.4-7.1-57.8c0,0,14.8-6.8,18.1-10.6
		C138.6,186.5,90.2,169.6,80.6,172.6z"/>
	<path class="st8" d="M281.3,163.2c-2.6,1-5.3,1.8-8,2.8c-1.4,0.5-2.9,1-4.3,1.5c-5.7,2.1-11.5,4.2-17.5,5.8c-0.2,0-0.4,0.1-0.6,0.1
		c-0.5,0.2-0.9,0.2-1.3,0.1l-0.5,0.2c0,0,0.2,5.9-0.1,7.5c-0.5,2.7-2.7,4.6-3,7.4c-0.8,5.9,2.4,35.8,0.6,41.3
		c6.2-0.2,4.7-1.5,10.9-2c5-0.4,16.2-23.6,21.1-25.2c4.9-1.6,14.6-7,17.6-10.9c2.9-3.8,2.7-7,5-11.1c2.3-4.2,4.7-4.2,7.9-8
		c3.3-3.9-3.2-17.4-3.2-17.4L281.3,163.2z"/>
	<path class="st9" d="M277.2,178.1c-3-0.2-6-0.4-9-0.5c4,4.7,7.5,8.3,3.9,15c-3.9,7.3-11.2,13.6-13.7,21.4
		c-1.4,4.7-2.6,9.3-3.3,14.1c0.6-0.1,1.3-0.2,2.2-0.3c0.6-0.1,1.2-0.4,1.9-0.9c2.3-8.8,7-16.7,11.8-25c3.5-6.1,6.3-12.3,8.8-18.8
		C281,180.1,283,178.5,277.2,178.1z"/>
	<path class="st10" d="M277.3,169.4c-2.6,2.6-0.3,9.5-0.3,10.3c0.5,8.7-1.3,13.2-8.6,22.7c-5.9,7.7-8.9,16.3-10.4,25.3
		c5.2-1.8,15.9-23.5,20.6-25.1c4.9-1.6,14.6-7,17.6-10.9c2.9-3.8,2.7-7,5-11.1c2.3-4.2,4.7-4.2,7.9-8c3.3-3.9-3.2-17.4-3.2-17.4
		C305.9,154.6,289.8,160.3,277.3,169.4z"/>
	<path class="st0" d="M282.4,174.8c-1.9-0.5-4.2,0.3-6.3,0.7c0.3,2.1,0.8,3.8,0.8,4.2c0.5,8.7-1.3,13.2-8.6,22.7
		c-5.9,7.7-8.9,16.3-10.4,25.3c2.3-0.8,5.7-5.5,9.2-10.7c-2.6-8.9,4.7-17.2,10.9-24.5c1.9-5.6,3.5-11.3,6.5-16.4
		c-0.1-0.1-0.2-0.1-0.3-0.1C283.7,175.6,283.1,175.2,282.4,174.8z"/>
	<path class="st10" d="M235.3,204.8c-7.4,2.5-15.4,0.3-22.4-0.9c-0.5,5,0.9,12.1,1.4,17.6c0.6,6,3.2,31.2,3.4,36.9
		c4.9,1.5,8.6,0.1,13.3-2.9c3.3-2.1,5-15.4,7.6-24.9c2.2-8.3,15.6-20,15.9-28.6l-0.4,0.4C247.8,197.8,240.8,202.9,235.3,204.8z"/>
	<path class="st0" d="M231.3,212.3c-5,15.1-6.2,30.6-6.6,46.3c1.5-0.4,3.1-1.1,4.7-2.1c0-6.9,0.5-13.7,0.9-20.6
		c0.3-3.9,0-8.9,1.7-12.6c3.8-8.6,14.5-11.2,21.6-17.3c0.5-1.2,0.8-2.4,0.9-3.5c-6.3,4.9-14.8,8.4-23,9.2
		C231.4,211.9,231.4,212.1,231.3,212.3z"/>
	<path class="st8" d="M212.9,203.9c-0.5,5,0.9,12.1,1.4,17.6c0.6,6,3.2,31.2,3.4,36.9c3.2,1,5.9,0.7,8.7-0.4c0.1-17.9,3.2-38,9.8-55
		C229.2,204.9,219.4,205,212.9,203.9z"/>
	<path class="st9" d="M223.7,212.2c4.7,6.1,4.3,12.1,3,19.1c-1.7,9.1-1.9,18.2-2.1,27.3c0.6-0.2,1.2-0.4,1.9-0.6
		c0.1-14.5,2.2-30.3,6.5-44.8C229.7,213.5,226.4,213.2,223.7,212.2z"/>
	<path class="st5" d="M53.1,185c-3.7,2.1-7.6,7.2-11.7,8.7c0.7,6.2,5,14.6,7.9,20.5c2.8,5.6,5.6,11.3,8.8,19.7
		c0.7,0,2.2,0.6,2.9,0.6c-0.1-7.3,0.2-13.3-1.2-20.5C56.9,198.4,55.2,192.7,53.1,185z"/>
	<path class="st11" d="M50,197.5c1-3.9,3.1-7.4,3.4-11.5c-0.1-0.4-0.2-0.7-0.3-1.1c-3.7,2.1-7.6,7.2-11.7,8.7
		c0.7,6.2,5,14.6,7.9,20.5c2.8,5.6,5.6,11.3,8.8,19.7c0.2,0,0.4,0,0.7,0.1c-2.3-8.5-4.3-17-7-25.5C50.9,205.2,49.1,201,50,197.5z"/>
	<path class="st7" d="M25.4,188.6c6.1,7.4,13.3,14.5,17.2,22.8c3.2,6.8,7.2,20.2,15.6,22.4c-3.2-11.6-9.7-26.9-12.3-35.4
		C44.4,193.8,35.1,179.9,25.4,188.6z"/>
	<path class="st7" d="M25.2,188.8c0.1-0.1,0.1-0.1,0.2-0.1l0,0L25.2,188.8z"/>
	<path class="st12" d="M25.4,188.6c0.1,0.2,0.3,0.3,0.4,0.5c0.4,0,0.8,0,1.2,0.2c13.2,5.1,18.3,11.6,22.2,23.6
		c2,6.1,4.7,11.7,7.7,17.4c0.2,0.4,0.4,0.8,0.6,1.3c-3.4-11.3-9.2-25.2-11.7-33.3C44.4,193.8,35.1,179.9,25.4,188.6z"/>
	<path class="st7" d="M142.6,222.8c-1.9-4.7-3.2-10.8-4.9-14.8l-0.8-0.3c2,5.3,2.1,11.8,3.9,17.5c0.8,2.4,1.5,5,2.6,7.3
		c0.4,0.9,0.8,1.9,1.5,2.7c0.8,0.8,2.6,0.9,3,1.7c0.7,1.3-1.2,4.9-1.7,6.5c-0.9,3-1.4,5-1.4,8.1c0,3.5,0.2,7,0,10.4
		c-0.1,2.6-1.2,6.1,0,8.5c-0.4-11.5,4.8-24.8,7.5-35.5C145.7,235.1,144.6,227.6,142.6,222.8z"/>
	<path class="st5" d="M79.5,188c-0.5-2.2-1.1-13.2-1.8-15.3c-2-1.2-5.7-0.9-7.9-1.6c-1.4-0.4-6.4-1-5.7-0.3l-0.4-0.3
		c0.8,2.1,0,15.7,0,17.9c1.6-0.3,4.4-8.7,6.1-8.5c0.2,4.1,0.9,8.2-0.4,11.8c4.8,2.5,3,6.2,2.6,10.4c-0.5,4.8,3.2,2,2.8,6.8
		c-0.3,4-3.9,15.1-3.3,19.1c0,0,3.4,8,3.3,10.4c0,0.3,0.1,0.1,0.4-0.5c-3.1-10.4,0.6-20.8,4.1-30.9c-0.1-2.1-0.1-4.1,0-6.2
		c0.1-1.5,0.1-2.9,0.2-4.4C78.5,191.1,79.7,193.2,79.5,188z"/>
	<path class="st13" d="M261.3,111.2l-17.6,2.8c2.1-1.4,6.9-5.1,8.6-6.9c-16.2-15.5-37.7-15.8-51-26.2c-6.6-5.1-36.4-18-44.3-22.7
		c-18.1,9.7-31.4,9.5-39.2,18.9C110,86.3,94.4,87.4,83.5,93c0.6,1.3,2,4.5,2.7,5.9c-13.8-2.1-31,10.9-44.3,18.7
		C30.2,124.4,10,134.4,10,134.4c15.2,14.8,28.3,17.3,43.7,19.4c1.1,2.6-3,6.6-0.9,10.8c6.5,13,55,18.6,66.6,30.4
		c2.8,2.8,17.3-3.7,17.3-3.7c0,2.3-6.1,5.6-6.1,5.6c14.3,7.3,21.1,14.8,27.2,14c6-0.8,22.4-9.6,27.7-12.5
		c10.4-5.7,13.7-11.8,24.8-15.5c13.6-4.6,20.8-4.8,30.7-15.6c-5.6-0.5-10.6-1.6-16.4-1.5c14.1-5.8,30.8-1.7,45-9.3
		c11.2-6,22.6-19.1,35.4-21.3C300.7,130.9,289.4,123.3,261.3,111.2z"/>
	<path class="st14" d="M157,58.1c-18.1,9.7-31.4,9.5-39.2,18.9c-7.8,9.2-23.4,10.3-34.3,15.9c0.6,1.3,2,4.5,2.7,5.9
		c-13.8-2.1-31,10.9-44.3,18.7C30.2,124.4,10,134.4,10,134.4c6.1,6,11.9,9.9,17.7,12.7c0.8-0.5,1.7-1,2.5-1.5
		c15.3-15.1,39-22,60.7-26.2c24.2-4.7,48.9-6.8,73.5-8.2c28-1.6,56.1-2.3,84-0.8c1.5-1.2,3-2.4,3.8-3.3
		c-16.2-15.5-37.7-15.8-51-26.2C194.7,75.7,164.9,62.8,157,58.1z"/>
	<path class="st15" d="M87,179.3c-3.1-0.4-6.1-0.8-9.2-1.4c-0.3,0-0.7,0-1,0c3.9,1.3,8.1,2.6,12.2,3.9c-0.2-0.1-0.4-0.2-0.7-0.4
		C87.4,180.8,87,180.1,87,179.3z"/>
	<path class="st16" d="M253.3,159.3c-6.5,0.8-24.3,2.6-27.3,4.3c-2.7,1.5-5.2,2.7-2.1,2.9c7.9,0.6,14.1,2,14.1,2
		c-13.8,10.8-28.7,10.2-32.8,12.5c-4.6,2.6-7.8,6.2-11.6,9.5c-5.2,4.6-28.8,16.6-36,17.8c-5.3,0.9-7.2-4.6-21.1-10.8
		c-3.3-1.5,3.9-7.4,4.4-8.7c-5,0.6-9.7,2-14.6,3.8c-2,0.7-6.5,0.6-8-0.6c-11.9-10.4-43.7-16.2-52.2-19.4
		c-4.7-1.8-11.6-5.6-12.2-10.4c-0.4-2.9,1.4-5.2,2.3-7.9c1.4-4-6-3.1-8.2-3.6c-8.2-1.6-29.9-7.8-38-16.4l0,0
		c15.2,14.8,28.3,17.3,43.7,19.4c1.1,2.6-3,6.6-0.9,10.8c6.5,13,55,18.6,66.6,30.4c2.8,2.8,17.3-3.7,17.3-3.7c0,2.3-6.1,5.6-6.1,5.6
		c14.3,7.3,21.1,14.8,27.2,14c6-0.8,22.4-9.6,27.7-12.5c10.4-5.7,13.7-11.8,24.8-15.5c13.6-4.6,20.8-4.8,30.7-15.6
		c-5.6-0.5-10.6-1.6-16.4-1.5c14.1-5.8,30.8-1.7,45-9.3c9-4.8,18.1-14.1,27.9-18.8c-7,1.4-13.3,7-19.1,10.6
		C270.2,153.4,263.6,158,253.3,159.3z"/>
	<path class="st0" d="M304.5,155.5c-1.6,3.2-3.6,6.2-6.4,8.4c1.9,3.5,3.9,8,3.5,8.8c-2.6,6.1-5.1,9.5-6.8,13.8
		c-0.5,1.7,0.4,5.2-0.2,6.9c0.6-0.5,1.1-1.1,1.4-1.5c2.9-3.8,2.7-7,5-11.1c2.3-4.2,4.7-4.2,7.9-8c3.3-3.9-3.2-17.4-3.2-17.4
		C305.9,155.1,305.3,155.2,304.5,155.5z"/>
	<path class="st3" d="M277.2,168.9c-1.7,1.8,8.2,3.5,9,5.4c0,0-0.5,4.3-0.8,5.7c-1,5.5-2,11.1-3,16.6c5.1-8.9,10.3-17.8,12.5-27.7
		C289.8,170,282.4,168.1,277.2,168.9z"/>
	<path class="st17" d="M294.1,153.2c-9.5,9.7-30,16.2-45,20.4c4.5,4.1,12,0.8,15.8,3.1c5.7,3.5,12.2,3,12.2,3s6.7-3.4,9.2-5.4
		c1.3-1-7.7-3.1-5.6-4.1c1.1-0.5,13.3,0.1,14.5-0.5c8.4-3.4,8.6-7.4,10.7-10.6C308.9,154.4,302.4,152.5,294.1,153.2z"/>
	<path class="st18" d="M284.8,167.3C284.7,167.3,284.7,167.2,284.8,167.3c-2.6,0.3-4.9,0.9-7.4,1.7c-0.1,0-0.2,0.1-0.3,0.1
		c1.4,1.2,2.4,3,4.3,3.5c5.3,1.6-2.4,5.6-4.4,5.8c-2.7,0.3-9.4-2.9-12.2-3.2c-5.2-0.5-3.4,0.4-8.6-0.5c-1.7-0.3-4.2-1.3-5.9-1.5
		c-0.4,0.1-0.8,0.2-1.2,0.3c4.5,4.1,12,0.8,15.8,3.1c5.7,3.5,12.2,3,12.2,3s6.7-3.4,9.2-5.4c1.3-1-7.7-3.1-5.6-4.1
		c1.1-0.5,13.3,0.1,14.5-0.5c7-2.9,8.3-6.1,9.8-9C301.4,165.5,297.3,168.7,284.8,167.3z"/>
	<path class="st17" d="M234.2,197.8c0,0-6,2.9-8.9,4c-3.5,1.4-8.5,2.9-12.4,2.2c0.3,0.9,1.1,2.5,2,3.4c4.3,4.5,14.9,8.4,20.9,6.3
		c3.9-1.4,16.9-7.2,18.6-10.6C256.6,198.3,238.4,196.3,234.2,197.8z"/>
	<path class="st18" d="M214.2,204.1c-0.4,0-0.9-0.1-1.3-0.2c0.3,0.9,1.1,2.5,2,3.4c4.3,4.5,14.9,8.4,20.9,6.3
		c3.4-1.2,13.6-5.7,17.3-9.1C241.9,212.1,223.3,214.4,214.2,204.1z"/>
	<path class="st13" d="M41.7,178.1c-8.9,3.5-24.5,10.7-11.7,12.3c5.7,1.2,11.1,5,15.8,8c3.2-3.7,7.3-8,7.3-13.4
		C49.1,183.4,44.2,181.3,41.7,178.1z"/>
	<path class="st19" d="M43.8,195.3c-2.7-2.1-9.6-4.8-15.5-6c-3-0.6-2.6-1.6-2.8-2.1c-0.7,1.4,0.4,2.6,4.6,3.1c5.7,1.2,11.1,5,15.8,8
		c3.1-3.6,7.1-7.8,7.3-13c-1.3,3.4-2.2,4.5-4.1,7.5C48.1,194.2,45.1,196.4,43.8,195.3z"/>
	<path class="st5" d="M117.5,204.1c-2.8-1-7.4,0-9.1,1.6c-2.3,2.2-3.6,4-5,6.7c-3.4,6.7-5.1,11.5-3.2,19.2
		c2.3,9.2,5.9,17.9,9.3,26.8c2.3,6.1,5.8,17.5,12,21.4c2.5-2,5.7-4.2,7.9-6.5c-4-10.3-6.2-23.3-7.4-34.6
		C120.6,227.3,118.5,215.4,117.5,204.1z"/>
	<path class="st11" d="M116,249.8c-3-7.4-5.4-14.7-5.3-22.7c0.1-7.6,4-13.3,6.3-20.4c0.1-0.4,0.3-0.8,0.5-1.2c0-0.5-0.1-0.9-0.2-1.4
		c-2.8-1-7.4,0-9.1,1.6c-2.3,2.2-3.6,4-5,6.7c-3.4,6.7-5.1,11.5-3.2,19.2c2.3,9.2,5.9,17.9,9.3,26.8c2.3,6.1,5.8,17.5,12,21.4
		c2.1-1.7,4.7-3.5,6.8-5.5C120.2,268.9,119.7,258.8,116,249.8z"/>
	<path class="st7" d="M107.6,229.1c-1.3-5.5,1.2-16.2-4.4-19.3c-3.6-2-9.3-2.8-13.3-5.1c-3.5-2-20-8.5-24.2-8.1
		c0.7,11,12.3,24.6,17.5,36.4c5.6,12.7,10,20.9,13.9,34c1.4,4.6,12.2,3.7,17.2,12.5l7.1,0.5c0,0-1.5-8.7-2.6-12.1
		C117.5,263.4,109.7,237.5,107.6,229.1z"/>
	<path class="st12" d="M107.6,229.1c-0.9-3.9,0.1-10.6-1.4-15.2c-3,0.8-6.2,0.9-9.4,0.8c9.7,7.9,11.9,22,14.1,33.1
		c2.2,11,7,21.3,9.8,32h0.7c0,0-1.5-8.7-2.6-12.1C117.5,263.4,109.7,237.5,107.6,229.1z"/>
	<path class="st13" d="M79.8,186.4c-4.7,3.9-8.7,4.1-13,7.6c-4.5,3.7,7.2,16,13.9,19c7,3.1,16.4,3.7,24.1,3
		c7-0.7,13.1-12.4,13.1-12.4c-4.1-2.5-13.1-3.4-19.5-7.2C90,191.5,79.8,186.4,79.8,186.4z"/>
	<path class="st19" d="M82,210.8c-5.2-1.7-17.1-8.5-14.1-17.7c-0.4,0.3-0.8,0.6-1.3,0.9c-4.5,3.7,7.2,16,13.9,19
		c7,3.1,16.4,3.7,24.1,3c5.5-0.5,10.5-8,12.4-11.1C107.8,215.1,99.4,216.4,82,210.8z"/>
</g>
<g id="XMLID_21176_">
	<polygon id="XMLID_701_" class="st20" points="29.3,127.4 45.5,136.8 152.9,74.8 150.5,73.4 139,64.1 28.6,125 	"/>
	<polygon id="XMLID_21179_" class="st21" points="28.6,120.4 44.9,129.7 150.5,68.8 134.3,59.4 	"/>
	<polygon id="XMLID_41363_" class="st22" points="44.9,129.7 33.2,120.4 134.3,59.4 28.6,120.4 	"/>
	<g id="XMLID_400_">
		<polygon id="XMLID_584_" class="st23" points="49,127.4 40.8,122.7 41.8,122.1 50,126.8 		"/>
		<polygon id="XMLID_41733_" class="st23" points="53,125 49,122.7 50,122.1 54,124.5 		"/>
		<polygon id="XMLID_42284_" class="st23" points="61.1,120.4 57.1,118 58.1,117.4 62.2,119.8 		"/>
		<polygon id="XMLID_42418_" class="st23" points="69.3,115.7 65.2,113.3 66.2,112.7 70.3,115.1 		"/>
		<polygon id="XMLID_42422_" class="st23" points="77.4,111 73.3,108.6 74.3,108 78.4,110.4 		"/>
		<polygon id="XMLID_42430_" class="st23" points="85.5,106.3 81.5,103.9 82.5,103.4 86.5,105.7 		"/>
		<polygon id="XMLID_42433_" class="st23" points="93.6,101.6 89.6,99.2 90.6,98.7 94.7,101 		"/>
		<polygon id="XMLID_42436_" class="st23" points="101.8,96.9 97.7,94.6 98.7,94 102.8,96.3 		"/>
		<polygon id="XMLID_42439_" class="st23" points="109.9,92.2 105.8,89.9 106.8,89.3 110.9,91.6 		"/>
		<polygon id="XMLID_42442_" class="st23" points="118,87.5 114,85.2 115,84.6 119,86.9 		"/>
		<polygon id="XMLID_42445_" class="st23" points="126.1,82.8 122.1,80.5 123.1,79.9 127.2,82.2 		"/>
		<polygon id="XMLID_42448_" class="st23" points="134.3,78.1 130.2,75.8 131.2,75.2 135.3,77.6 		"/>
		<polygon id="XMLID_42451_" class="st23" points="142.4,73.4 138.3,71.1 139.3,70.5 143.4,72.9 		"/>
		<polygon id="XMLID_20948_" class="st23" points="57.1,122.7 49,118 50,117.4 58.1,122.1 		"/>
		<polygon id="XMLID_20957_" class="st23" points="65.2,118 57.1,113.3 58.1,112.7 66.2,117.4 		"/>
		<polygon id="XMLID_42386_" class="st23" points="73.3,113.3 65.2,108.6 66.2,108 74.3,112.7 		"/>
		<polygon id="XMLID_42391_" class="st23" points="81.5,108.6 73.3,103.9 74.3,103.4 82.5,108 		"/>
		<polygon id="XMLID_42394_" class="st23" points="89.6,103.9 81.5,99.2 82.5,98.7 90.6,103.4 		"/>
		<polygon id="XMLID_42397_" class="st23" points="97.7,99.2 89.6,94.6 90.6,94 98.7,98.7 		"/>
		<polygon id="XMLID_42400_" class="st23" points="105.8,94.6 97.7,89.9 98.7,89.3 106.8,94 		"/>
		<polygon id="XMLID_42403_" class="st23" points="113.9,89.9 105.8,85.2 106.8,84.6 115,89.3 		"/>
		<polygon id="XMLID_42406_" class="st23" points="122.1,85.2 113.9,80.5 115,79.9 123.1,84.6 		"/>
		<polygon id="XMLID_42409_" class="st23" points="130.2,80.5 122.1,75.8 123.1,75.2 131.2,79.9 		"/>
		<polygon id="XMLID_42412_" class="st23" points="138.3,75.8 130.2,71.1 131.2,70.5 139.3,75.2 		"/>
		<polygon id="XMLID_42415_" class="st23" points="146.4,71.1 138.3,66.4 139.3,65.8 147.5,70.5 		"/>
	</g>
	<polygon id="XMLID_21178_" class="st24" points="28.6,120.4 28.6,125 44.9,134.4 44.9,129.7 	"/>
	<polygon id="XMLID_21177_" class="st25" points="44.9,129.7 150.5,68.8 150.5,73.4 44.9,134.4 	"/>
</g>
<g id="XMLID_41392_">
	<path id="XMLID_21154_" class="st20" d="M194.1,124.7c-3.4,2-3.4,5.1,0,7.1c3.4,1.9,8.8,1.9,12.2,0s3.4-5.1,0-7.1
		C202.9,122.7,197.5,122.7,194.1,124.7z"/>
	<g id="XMLID_21147_">
		<ellipse id="XMLID_21148_" class="st26" cx="200.2" cy="128.9" rx="61.2" ry="35.3"/>
	</g>
	<g id="XMLID_21115_">
		<polygon id="XMLID_21118_" class="st27" points="200.2,128.9 201.1,120 199.2,120 		"/>
		<polygon id="XMLID_21117_" class="st28" points="198.7,121 201.5,122.6 198,45.6 194.1,43.3 		"/>
		<path id="XMLID_21116_" class="st29" d="M201.5,122.6L201.5,122.6c1.8-8.3,2.6-16.8,2.3-25.3l-1.6-54.1l-4.2,2.3L201.5,122.6z"/>
	</g>
	<g id="XMLID_21111_">
		<path id="XMLID_21114_" class="st29" d="M198,45.6L167.7,150v-1c0-14.9,2.3-29.8,6.8-44l19.6-61.8L198,45.6z"/>
		<path id="XMLID_21113_" class="st28" d="M167.7,150l-4.1-2.3l0,0c0-15.9,2.6-31.6,7.7-46.7L192,39.7l2.1,3.5L174.5,105
			c-4.5,14.2-6.8,29.1-6.8,44V150z"/>
		<polygon id="XMLID_21112_" class="st27" points="164.5,148.2 164.5,157.6 166.7,149.4 		"/>
	</g>
	<g id="XMLID_21036_">
		<path id="XMLID_21110_" class="st30" d="M199.8,24.6L199.8,24.6c-1.5-0.9-3.5-0.8-5.8,0.5c-4.5,2.6-8.1,8.9-8.1,14.1
			c0,2.6,0.9,4.4,2.4,5.3l0,0l8.1,4.7l11.4-19.9L199.8,24.6z"/>
		<path id="XMLID_42624_" class="st31" d="M194,43.9c0,0-1.4-6.3,3.2-11.8c4.6-5.5,8.4-3.9,10.6-2.9L194,43.9z"/>
		<path id="XMLID_42649_" class="st32" d="M196.3,49.1l0.8-1.5l-1.7-3.2c0,0-3.8-0.1-6.3-3s-2-5.5-1.5-9.4c-1.2,2.3-1.9,4.8-1.9,7.1
			c0,2.6,0.9,4.4,2.4,5.3l0,0L196.3,49.1z"/>
		<path id="XMLID_21109_" class="st33" d="M202.1,29.8c-4.5,2.6-8.1,8.9-8.1,14.1s3.6,7.3,8.1,4.7s8.1-8.9,8.1-14.1
			C210.2,29.3,206.6,27.2,202.1,29.8z"/>
		<path id="XMLID_21108_" class="st34" d="M202.1,43.8c2.2-1.3,4.1-4.4,4.1-7s-1.8-3.6-4.1-2.3c-2.2,1.3-4.1,4.4-4.1,7
			S199.8,45.1,202.1,43.8z"/>
		<path id="XMLID_21107_" class="st28" d="M200.9,15.7c0-1.6-1.3-2.9-2.9-2.9c-1.6,0-2.9,1.3-2.9,2.9l0,0l0,0v11.7l0,0
			c0,0.4,0.3,0.8,0.8,1.2c1.1,0.6,2.9,0.6,4.1,0c0.6-0.3,0.8-0.7,0.8-1.2L200.9,15.7L200.9,15.7z"/>
		<path id="XMLID_42651_" class="st35" d="M200.9,27.4V15.7l0,0c0-1.4-1-2.5-2.3-2.8c1.1,0.5,1.5,1.4,1.5,4.5s0,11.2,0,11.2
			C200.6,28.3,200.9,27.9,200.9,27.4z"/>
		<path id="XMLID_20977_" class="st29" d="M200.9,27.4c-1.6,1.3-4.1,0.6-4.1-0.8s0-5.5,0-8.6s0-4.7,1.8-5.1c-0.2,0-0.4-0.1-0.6-0.1
			c-1.6,0-2.9,1.3-2.9,2.9l0,0l0,0v11.7l0,0c0,0.4,0.3,0.8,0.8,1.2c1.1,0.6,2.9,0.6,4.1,0C200.6,28.3,200.9,27.9,200.9,27.4z"/>
	</g>
</g>
<g id="XMLID_21152_">
	<path id="XMLID_41365_" class="st20" d="M81,124.6c-20.8,12-20.8,31.5,0,43.5l32.5-18.8l38.7-22.3l4.2-2.4
		C135.6,112.6,101.8,112.6,81,124.6z M82.9,154.6c-5.5-8-2.7-17.5,8.6-23.9c11.2-6.5,27.6-8.1,41.5-4.9L82.9,154.6z"/>
	<path id="XMLID_41404_" class="st24" d="M80.4,123.1c-20.2,11.7-20.2,30.6,0,42.2l31.6-18.2l37.5-21.6l4.1-2.3
		C133.4,111.4,100.6,111.4,80.4,123.1z M82.3,152.2c-5.3-7.8-2.6-16.9,8.3-23.2s26.8-7.9,40.2-4.8L82.3,152.2z"/>
	<polygon id="XMLID_21153_" class="st25" points="153.6,118.4 153.6,123.1 80.4,165.3 80.4,160.6 	"/>
	<path id="XMLID_21157_" class="st21" d="M149.5,120.8l4.1-2.3c-20.2-11.7-53-11.7-73.2,0s-20.2,30.6,0,42.2l31.6-18.2L149.5,120.8
		L149.5,120.8z M90.6,124.3c10.9-6.3,26.8-7.9,40.2-4.8l-48.5,28C76.9,139.7,79.7,130.5,90.6,124.3z"/>
	<path id="XMLID_41451_" class="st22" d="M69.3,132.8c6.5-14.5,26.4-19.7,34-22.1c-8.4,1.3-16.3,3.9-22.9,7.7
		c-20.2,11.7-20.2,30.6,0,42.2l2.8-1.6C82.6,158.7,62.9,147.2,69.3,132.8z"/>
	<g id="XMLID_20966_">
		<polygon id="XMLID_42609_" class="st23" points="84.5,158.3 78.6,154.8 79.6,154.3 85.5,157.7 		"/>
		<polygon id="XMLID_42606_" class="st23" points="88.6,155.9 84.5,153.6 85.5,153 89.6,155.4 		"/>
		<polygon id="XMLID_42603_" class="st23" points="96.7,151.3 92.6,148.9 93.7,148.3 97.7,150.7 		"/>
		<polygon id="XMLID_42600_" class="st23" points="104.8,146.6 100.8,144.2 101.8,143.6 105.8,146 		"/>
		<polygon id="XMLID_42597_" class="st23" points="113,141.9 108.9,139.5 109.9,138.9 114,141.3 		"/>
		<polygon id="XMLID_42594_" class="st23" points="121.1,137.2 117,134.8 118,134.3 122.1,136.6 		"/>
		<polygon id="XMLID_42591_" class="st23" points="129.2,132.5 125.1,130.2 126.2,129.6 130.2,131.9 		"/>
		<polygon id="XMLID_42588_" class="st23" points="137.3,127.8 133.3,125.5 134.3,124.9 138.3,127.2 		"/>
		<polygon id="XMLID_42561_" class="st23" points="145.4,123.1 141.4,120.8 142.4,120.2 146.5,122.5 		"/>
		<polygon id="XMLID_41538_" class="st23" points="92.6,153.6 86.7,150.2 87.7,149.6 93.7,153 		"/>
		<polygon id="XMLID_41534_" class="st23" points="100.8,148.9 94.8,145.5 95.8,144.9 101.8,148.3 		"/>
		<polygon id="XMLID_41530_" class="st23" points="108.9,144.2 102.9,140.8 104,140.2 109.9,143.6 		"/>
		<polygon id="XMLID_41518_" class="st23" points="117,139.5 111.1,136.1 112.1,135.5 118,138.9 		"/>
		<polygon id="XMLID_41511_" class="st23" points="125.1,134.8 119.2,131.4 120.2,130.8 126.2,134.3 		"/>
		<polygon id="XMLID_41499_" class="st23" points="133.3,130.2 127.3,126.7 128.3,126.1 134.3,129.6 		"/>
		<polygon id="XMLID_41495_" class="st23" points="141.4,125.5 135.4,122 136.4,121.4 142.4,124.9 		"/>
		<polygon id="XMLID_41489_" class="st23" points="149.5,120.8 143.6,117.3 144.6,116.7 150.5,120.2 		"/>
	</g>
</g>
</svg>
