<?xml version="1.0" encoding="utf-8"?>
<!-- Generator: Adobe Illustrator 24.2.0, SVG Export Plug-In . SVG Version: 6.00 Build 0)  -->
<svg version="1.1" id="Layer_1" xmlns="http://www.w3.org/2000/svg" xmlns:xlink="http://www.w3.org/1999/xlink" x="0px" y="0px"
	 viewBox="0 0 320 306.2" style="enable-background:new 0 0 320 306.2;" xml:space="preserve">
<style type="text/css">
	.st0{fill:#94D7EB;}
	.st1{fill:#1A6F7F;}
	.st2{fill:#084C59;}
	.st3{fill:#582D0F;}
	.st4{fill:#0C5D6D;}
	.st5{fill:#033D47;}
	.st6{fill:#207E91;}
	.st7{fill:#2994A9;}
	.st8{fill:#187282;}
	.st9{fill:#278292;}
	.st10{fill:#115C68;}
	.st11{fill:#094E5B;}
	.st12{fill:#238192;}
	.st13{fill:#47BFB9;}
	.st14{fill:#4C6FB5;}
	.st15{fill:#95D4CE;}
	.st16{fill:#1C949C;}
	.st17{fill:#36B1B0;}
	.st18{fill:#92B73E;}
	.st19{fill:#FEFFFF;}
	.st20{fill:#72B5E0;}
	.st21{fill:#AED9EC;}
	.st22{fill:#4E83AB;}
	.st23{fill:#366989;}
	.st24{fill:#7A2866;}
	.st25{fill:#EA4C8E;}
	.st26{fill:#FF6EB0;}
	.st27{fill:#8658DC;}
	.st28{fill:#673BB7;}
	.st29{fill:#FFD2B3;}
	.st30{fill:none;stroke:#000000;stroke-width:0.7232;stroke-miterlimit:10;}
	.st31{fill:#34247D;}
	.st32{fill:#06C9E2;}
	.st33{fill:#EFAFA0;}
	.st34{fill:#08A5D3;}
</style>
<path class="st0" d="M163,164.4c-0.4,1.5-0.8,3-1.3,4.5C162.3,167.4,162.7,165.9,163,164.4z"/>
<g>
	<g>
		<g>
			<path class="st1" d="M25.4,188.8C25.4,188.8,25.4,188.8,25.4,188.8l-0.2,0.1C25.2,188.9,25.3,188.9,25.4,188.8z"/>
			<path class="st2" d="M294.9,186.5c-0.5,1.7,0.4,5.2-0.2,6.9c0.6-0.5,1.1-1.1,1.4-1.6c2.9-3.9,2.7-7,5-11.2c2.3-4.3,4.7-4.2,7.9-8
				c3.3-3.9-3.2-17.6-3.2-17.6c0-0.1-0.5,0-1.4,0.3c-1.6,3.2-3.6,6.3-6.4,8.4c1.9,3.5,3.9,8,3.5,8.9
				C299,178.7,296.5,182.2,294.9,186.5z"/>
			<g>
				<path class="st3" d="M82.7,95.7c-0.2,1.5-0.1,3.1-0.5,4.5l-0.2,0.1c0.8,0.4,2.9-0.5,3.9-0.5c1.4-0.1,3.2,0.6,2.9-1.1
					c-0.5-2.8-3.7-4.5-5.2-6.8C83.3,93.1,82.9,94.4,82.7,95.7z"/>
				<path class="st3" d="M251.7,117.6h0.5c-0.2-0.1-0.3-0.2-0.5-0.3C251.7,117.4,251.7,117.5,251.7,117.6z"/>
				<path class="st3" d="M246.4,117.1c1.9,0.1,3.7-0.4,5.3,0.5c0-3.8,0.7-7.5,0.6-11.1c-1.1-0.3-4,1.8-5.1,2.3
					c-2.1,1-4.3,1.7-5.9,3.3c-1.5,1.5-2.3,2.8,0,3.9C242.9,116.8,244.6,117,246.4,117.1z"/>
				<path class="st4" d="M305.1,134.7l-3.6-1.1c-9.8-2.5-21-2.5-31.3-3c-22.9-1.1-44.8,2.4-65.2,11.3c-21.4,9.4-45.6,26.6-53.4,48.1
					c-5.5,15.1-9.6,32.6-6.9,48.5c2.8,16.9,12.7,33.6,12.5,50.7c10.4-2.1,18.5-13.5,29.4-16.8c0,0,8.4,5,19.2-3.5
					c14.6-11.4,29.3-24.6,46.6-29c19.2-4.8,26.9-23.2,37.1-28.8c8.3-17.4-2.3-21.1,5.7-34.1C305.1,160.7,299.6,148.6,305.1,134.7z"
					/>
				<path class="st2" d="M205.5,268.9c5.1-4,10.2-8.2,15.4-12.1c0.4-6.4,1.6-12.9,2.7-19.4c1.3-7.6,3.1-16.6-0.3-23.9
					c-1.5-3.2-10.5-9.3-10.5-9.3c-3,8-3.3,24-5.6,32.1c-2.2,7.9-4.2,15.8-5.6,23.8c-0.5,2.9-1,5.8-1.2,8.7c-0.1,1.8,0.1,2.4,0.1,2.5
					c0.1,0.1,0.2,0.3,0.3,0.4C202.4,271.1,203.9,270.2,205.5,268.9z"/>
				<path class="st5" d="M213.4,211.3c-0.1,19-0.7,40.8-6.5,56.5c3.6-2.8,7.2-5.7,10.9-8.6c0.8-5.5,1.8-10.9,2.7-16.4
					C221.9,234.2,215.3,218.9,213.4,211.3z"/>
				<path class="st2" d="M272.2,200.2c-2.5,10.2-2.8,20.6-3.7,31c8.5-7.2,14.1-16.4,20.8-20c8.3-17.4-2.3-21.1,5.7-34.1
					c10.1-16.4,4.6-28.5,10.1-42.4l-3.6-1.1c-0.3-0.1-0.6-0.1-0.9-0.2c-6.1,3.1-11.9,6.5-17.7,10.1c4.2,0.1,8,1,12,2.2
					c4.4,1.3,5.4,5.9,3.3,8.7C293.7,171.6,276.4,182.8,272.2,200.2z"/>
				<path class="st5" d="M299.9,166.2c-5.1,8-10.9,15.7-16.8,23.3c-3.2,10.9-6.7,21.7-9.7,32.7c5.4-8.5,11.8-16.1,19.1-23.1
					c0.4-8.2-3.3-12.7,2.4-22C297.3,173.2,298.9,169.7,299.9,166.2z"/>
				<path class="st2" d="M155.6,205.8c-0.4,0-0.8,0.1-1.2,0c-0.9,20-1.2,40.1-1.9,60.1c2.5,7.7,4.5,15.4,4.4,23.2
					c4.9-1,9.3-4,13.7-7.3c-0.1-1.3-0.2-2.5-0.3-3.8c-0.4-5.9-0.7-12.1-2.9-17.8c-1.8-4.7-5.1-9.4-6.1-14.4
					c-3.3-16.7,3.6-30.3,14.6-42.5C169.4,204.5,162.6,204.9,155.6,205.8z"/>
				<path class="st2" d="M230.5,250c3.9-2.5,7.9-4.8,12-6.6c0.3-4.3,0.7-8.6,1.3-12.8c1.5-10.3,5-18.7,8.8-28.5
					c3.4-8.7,1-18,4.3-26.5c2.6-6.8,6.1-12.8,8-19.5c-4.4,2.3-10,3.8-14.6,3.7c-5.6-0.1-11.3-0.8-16.7,0.9
					c0.3-0.1-15.9,3.4-11.8,5.1c1,0.1,5.4,1.2,6.3,1.5c0.5,0.2,13-0.3,13-0.3c-9.1,19.5-7.2,48.2-8.9,68.9
					C231.7,240.7,231.2,245.4,230.5,250z"/>
				<path class="st5" d="M230.5,250c1-0.6,2-1.3,3-1.9c0.5-8.3,1.8-16.5,2.8-24.8c1.1-8.9,1.5-17.9,3.5-26.8
					c3.4-15.1,7.3-25.9,20.7-36c1.1-0.8,2.2-1.2,3.4-1.3c0.4-1,0.7-2.1,1.1-3.2c-4.4,2.3-10,3.8-14.6,3.7
					c-5.6-0.1-11.3-0.8-16.7,0.9c0.3-0.1-15.9,3.4-11.8,5.1c1,0.1,5.4,1.2,6.3,1.5c0.5,0.2,13-0.3,13-0.3
					c-9.1,19.5-7.2,48.2-8.9,68.9C231.7,240.7,231.2,245.4,230.5,250z"/>
				<path class="st2" d="M193.7,224.6c4.7-11,3.3-22,11.8-33c1.9-2.5,15.1-16.2,15.6-19.1c-9.5,3.1-37,19.7-42.3,27.7
					c1,8.9,1.9,17.8,1.6,26.7c-0.2,9-1.6,17.9-0.5,26.9c0.8,6.6,2.1,13.3,3,19.9c0.9-0.4,1.8-0.8,2.8-1.1c-0.5-7,1.4-13.9,2.7-21
					C190.1,242.3,189.9,233.6,193.7,224.6z"/>
				<path class="st5" d="M202.9,184.2c0.1-0.4,0.1-0.9,0.2-1.3c-9.5,3.1-19,9.4-24.3,17.3c1,8.9,1.9,17.8,1.6,26.7
					c-0.2,9-1.6,17.9-0.5,26.9c0.8,6.6,2.1,13.3,3,19.9c0.8-0.4,1.6-0.7,2.5-1c-0.7-16.6-1-33.3-0.3-49.9
					C185.7,206.9,194,197.1,202.9,184.2z"/>
				<path class="st6" d="M154.5,191.1c-7.9-19.5-40.3-36.9-60.1-45.3c-19.9-8.4-46.8-8.3-68.3-9.3c-5.8-0.3-10.5-0.5-15.6-2
					c0,15.6,0.6,32.2,8.7,45.5c3.3,5.5,6.9,26.3,13.9,38.1c4.7,8,9.5,6.2,17,8.9c11.8,4.3,17.6,19.3,37.5,29.1
					c7.1,3.5,11.6,12.5,26.3,16.9c8.5,2.5,18.8,0.8,18.8,0.8c8.6,3.1,8.9,10.3,24.3,15.1c0.5-15.5-1-31.4-1-47.9
					C155.9,226.3,160.1,204.9,154.5,191.1z"/>
				<path class="st4" d="M74.9,248.1c3.5,2.9,7.6,5.7,12.6,8.2c4.3,2.1,7.6,6.2,12.8,10.1c-3.8-8.4-7.3-16.8-9.7-25.5
					c-3.1-11.4-4.2-23.4-7.7-34.8c0,0.1,0,0.2-0.1,0.3c1.8,5.7,2.6,12.9,1.8,19.8C84.7,235.8,82.5,244.7,74.9,248.1z"/>
				<path class="st7" d="M155.5,208c-2.6-1.8-6.7-4.7-10.1-5.4c0,0.2,0.1,0.5,0.1,0.9c0.1,0.4,0.3,0.8,0.4,1.2
					c0.5,0.4,0.9,0.7,1.3,1.2c10,12.6,6,27.9,6.5,42.3c0.5,12.4,2.3,24.8,3.2,37.1c0.2-14.3-1.1-28.9-1.1-44.1
					c0-9.4,1.6-21.3,1.5-32.3C156.8,208.7,156.1,208.4,155.5,208z"/>
				<path class="st7" d="M144.2,282.7c-1-10.3-2.3-20.6-2.8-30.9c-0.2-4.7,0.3-9.9,0.5-15c-2.9-8.6-6-17.1-7.2-26
					c-2.5-6.3-4.6-13.3,0.3-16.8c1.3-0.9,2.7-1.6,4.1-2c-0.9-0.5-1.8-0.9-2.9-1.2c-3.7,1.9-7.7,3.2-11.9,3.9
					c7.2,18,10.4,36.9,10,55.8c0.1,0.2,0.2,0.4,0.2,0.5c1.1,3.3,0.3,7.1-0.5,10.4c0.1,0.3,0.1,0.6,0.1,0.9c0,4.2-0.2,8.3-0.8,12.2
					C138,276.2,140.2,279.4,144.2,282.7z"/>
				<path class="st7" d="M12.4,135.1c-0.6-0.2-1.3-0.3-2-0.5c0,15.6,0.6,32.2,8.7,45.5c3.3,5.5,6.9,26.3,13.9,38.1
					c2.7,4.6,5.5,6,8.8,6.8c-7.1-13.2-19.9-33.4-12.1-46.7c-4.5-2.8-11.2-10.1-11.2-10.1c0,1.2-3.2-7.8-3.8-17.5
					c-0.2-4.5-0.2-8.9,0.4-13.3C14.1,136.7,13.2,135.9,12.4,135.1z"/>
				<path class="st7" d="M64,237.9c0.3-6.9,0.9-13.9,0.9-20.8c0.1-15.8-7.6-31.2-1.1-46.5c-1.5-1.3-2.6-2.6-3.7-3.9
					c-3.8-2-7.2-4.6-11.1-6.2c-0.1,2.2-0.3,4.4-0.6,6.6c0,0.2,0.1,0.5,0.1,0.7c3.5,8.8,5.2,17.9,6.9,27.3c0.2,0.4,0.4,0.9,0.5,1.4
					c0.5,2.2,0.9,4.4,1.3,6.6c0.5,0.8,0.9,1.7,0.9,2.7c0.6,9.2,1.7,18.2,1,27.4C60.8,234.7,62.4,236.3,64,237.9z"/>
				<path class="st1" d="M56.1,149.6c-5.5-0.8-19.1-2.4-20.4-2.4c1,8.9,1.9,18,4.5,26.6c2.8,9.2,8,17.3,11.4,26.2
					c4,10.8,6.1,21.9,7.7,33.1c1,0.9,1.9,1.8,2.9,2.8c-0.5-18.1-1.5-36.2-5.8-53.9c-2.4-10.1-3.6-13.4-4.5-19.9
					C52.9,161.1,57.1,149.8,56.1,149.6z"/>
				<path class="st2" d="M56.1,149.6c-5.5-0.8-36.4-9.6-37.7-9.5c4.1,6.4,14.9,11.2,18.8,12.2c10,3.2,9.9,9.1,11.7,16
					c2.4,9.2,4.7,18.5,6.8,27.8c2.7,12.1,5.6,25.7,5.4,38.9c0.3,0.3,0.7,0.7,1.1,1c-0.5-18.1-1.5-36.2-5.8-53.9
					C54,172,53,168.4,52.1,162C53.1,160.8,57.1,149.8,56.1,149.6z"/>
				<path class="st1" d="M148.7,186.3c-10.2,0.3-41.7-4-39.3,1.8c7.1,9.3,14.5,23.1,19.3,49.3c2.2,12.3,2.4,24.3,3.9,36.7
					c0.6,0.3,2.2,1,2.7,1.3c0.7-6.6,1.7-13.2,2.3-19.8c1.7-18.8-5.2-39.8-7.1-58.4C130.6,197,145.4,190.1,148.7,186.3z"/>
				<path class="st2" d="M148.7,186.3c-10.2,0.3-58.5-16.8-68.1-13.7l11.7,7.5c10.4,3.6,27,16.6,26.9,17
					c2.4,1.3,11.2,19.9,12.9,27.5c3.5,15.8,5.1,33.8,1.8,49.9c0.5,0.2,0.9,0.5,1.4,0.7c0.7-6.6,1.7-13.2,2.3-19.8
					c1.7-18.8-5.2-39.8-7.1-58.4C130.6,197,145.4,190.1,148.7,186.3z"/>
				<path class="st8" d="M245.9,188.6c-0.8,5.9,2.4,36.1,0.6,41.7c6.2-0.2,4.7-1.5,10.9-2c5-0.4,16.2-23.8,21.1-25.4
					c4.9-1.7,14.6-7,17.6-11c2.9-3.9,2.7-7,5-11.2c2.3-4.3,4.7-4.2,7.9-8c3.3-3.9-3.2-17.6-3.2-17.6l-24.6,8c-2.6,1-5.3,1.8-8,2.8
					c-1.4,0.5-2.9,1-4.3,1.6c-5.7,2.2-11.5,4.2-17.5,5.8c-0.2,0-0.4,0.1-0.5,0.1c-0.5,0.2-0.9,0.2-1.3,0.1l-0.5,0.2
					c0,0,0.2,6-0.1,7.5C248.4,183.8,246.3,185.8,245.9,188.6z"/>
				<path class="st9" d="M258.5,214.4c-1.4,4.7-2.6,9.4-3.3,14.2c0.6-0.1,1.3-0.2,2.2-0.3c0.6,0,1.2-0.4,1.9-0.9
					c2.3-8.9,7-16.9,11.8-25.2c3.5-6.2,6.3-12.4,8.8-19c1.1-3,3.1-4.6-2.6-5.1c-3-0.2-6-0.4-9-0.5c4,4.7,7.5,8.3,3.9,15.1
					C268.2,200.1,260.9,206.5,258.5,214.4z"/>
				<path class="st10" d="M257.9,228.2c5.2-1.8,15.9-23.7,20.6-25.3c4.9-1.7,14.6-7,17.6-11c2.9-3.9,2.7-7,5-11.2
					c2.3-4.3,4.7-4.2,7.9-8c3.3-3.9-3.2-17.6-3.2-17.6c0-0.7-16.1,5.2-28.6,14.4c-2.6,2.6-0.3,9.6-0.3,10.4c0.5,8.7-1.3,13.3-8.6,23
					C262.4,210.5,259.5,219.1,257.9,228.2z"/>
				<path class="st2" d="M257.9,228.2c2.3-0.8,5.7-5.6,9.2-10.8c-2.6-9,4.7-17.4,10.9-24.7c1.9-5.7,3.5-11.4,6.5-16.6
					c-0.1,0-0.2-0.1-0.2-0.2c-0.6-0.4-1.2-0.8-1.8-1.2c-1.9-0.5-4.2,0.3-6.3,0.7c0.3,2.1,0.8,3.9,0.8,4.2c0.5,8.7-1.3,13.3-8.6,23
					C262.4,210.5,259.5,219.1,257.9,228.2z"/>
				<path class="st10" d="M231.1,256.3c3.3-2.1,5-15.6,7.6-25.1c2.2-8.4,15.6-20.2,15.9-28.8l-0.4,0.4c-6.2-4.7-13.3,0.5-18.8,2.4
					c-7.4,2.6-15.4,0.3-22.4-0.9c-0.5,5,0.9,12.3,1.4,17.8c0.6,6,3.2,31.5,3.4,37.3C222.7,260.9,226.4,259.4,231.1,256.3z"/>
				<path class="st2" d="M232.1,223.8c3.8-8.7,14.5-11.3,21.6-17.4c0.5-1.2,0.8-2.4,0.9-3.5c-6.3,5-14.8,8.5-23,9.3
					c0,0.2-0.1,0.4-0.1,0.6c-5,15.3-6.2,30.9-6.6,46.7c1.5-0.4,3.1-1.2,4.7-2.1c0-7,0.5-13.9,0.9-20.8
					C230.7,232.5,230.4,227.5,232.1,223.8z"/>
				<path class="st8" d="M226.4,258.9c0.1-18.1,3.2-38.4,9.8-55.5c-7,1.8-16.8,2-23.3,0.9c-0.5,5,0.9,12.3,1.4,17.8
					c0.6,6,3.2,31.5,3.4,37.3C221,260.3,223.6,260,226.4,258.9z"/>
				<path class="st9" d="M224.6,259.5c0.6-0.2,1.2-0.4,1.9-0.6c0.1-14.6,2.2-30.6,6.5-45.3c-3.2,0.3-6.5,0-9.2-1
					c4.7,6.1,4.3,12.2,3,19.3C224.9,241.1,224.8,250.3,224.6,259.5z"/>
				<path class="st4" d="M41.4,193.8c0.6,6.2,5,14.7,7.9,20.7c2.8,5.6,5.6,11.4,8.8,19.9c0.7,0,2.2,0.6,2.9,0.6
					c-0.1-7.4,0.2-13.4-1.2-20.7c-3-15.7-4.7-21.4-6.8-29.2C49.5,187.2,45.5,192.4,41.4,193.8z"/>
				<path class="st11" d="M53.4,186.1c-0.1-0.4-0.2-0.7-0.3-1.1c-3.7,2.2-7.6,7.3-11.7,8.8c0.6,6.2,5,14.7,7.9,20.7
					c2.8,5.6,5.6,11.4,8.8,19.9c0.2,0,0.4,0,0.7,0.1c-2.3-8.6-4.3-17.2-7-25.8c-1-3.2-2.8-7.5-1.9-11
					C51,193.8,53.1,190.3,53.4,186.1z"/>
				<path class="st1" d="M25.4,188.8c6.1,7.5,13.3,14.6,17.2,23c3.2,6.8,7.2,20.4,15.6,22.6c-3.2-11.7-9.7-27.1-12.3-35.8
					C44.4,194,35.1,179.9,25.4,188.8z"/>
				<path class="st12" d="M25.4,188.8c0.1,0.2,0.3,0.3,0.4,0.5c0.4,0,0.8,0,1.2,0.2c13.2,5.2,18.3,11.7,22.2,23.9
					c2,6.2,4.7,11.8,7.8,17.6c0.2,0.4,0.4,0.8,0.6,1.3c-3.4-11.4-9.2-25.5-11.7-33.6C44.4,194,35.1,179.9,25.4,188.8z"/>
				<path class="st1" d="M144.9,271.3c-0.4-11.6,4.8-25,7.5-35.8c-6.7,0.2-7.8-7.4-9.8-12.3c-2-4.7-3.2-10.9-4.9-14.9L137,208
					c2,5.4,2.1,11.9,3.9,17.7c0.8,2.5,1.5,5,2.6,7.4c0.4,0.9,0.8,1.9,1.5,2.7c0.8,0.8,2.6,0.9,3,1.7c0.7,1.3-1.2,5-1.7,6.5
					c-0.9,3-1.4,5-1.4,8.2c0,3.5,0.2,7,0,10.5C144.8,265.3,143.7,268.9,144.9,271.3z"/>
				<path class="st4" d="M79.5,188.1c-0.5-2.3-1.1-13.3-1.8-15.5c-2-1.2-5.7-0.9-7.9-1.6c-1.4-0.4-6.4-1-5.7-0.3l-0.4-0.3
					c0.8,2.2,0,15.8,0,18.1c1.6-0.3,4.4-8.7,6.1-8.6c0.2,4.2,0.9,8.3-0.4,11.9c4.8,2.5,3,6.3,2.6,10.5c-0.5,4.8,3.2,2.1,2.8,6.9
					c-0.3,4-3.9,15.3-3.3,19.3c0,0,3.4,8.1,3.3,10.5c0,0.3,0.1,0.1,0.4-0.5c-3.1-10.5,0.6-21,4.1-31.2c-0.1-2.1-0.1-4.1,0-6.2
					c0.1-1.5,0.1-2.9,0.2-4.4C78.5,191.3,79.7,193.4,79.5,188.1z"/>
				<path class="st13" d="M252.3,106.4c-16.2-15.7-37.7-16-51-26.5c-6.6-5.2-36.4-18.2-44.3-22.9c-18.1,9.7-31.4,9.6-39.2,19.1
					c-7.8,9.3-23.4,10.4-34.3,16.1c0.6,1.3,2,4.5,2.7,5.9c-13.8-2.2-31,11-44.3,18.9C30.2,124,10,134,10,134
					c15.2,14.9,28.3,17.5,43.7,19.5c1.1,2.6-3,6.6-0.9,10.9c6.5,13.2,55.1,18.8,66.6,30.7c2.8,2.9,17.3-3.7,17.3-3.7
					c0,2.4-6.1,5.6-6.1,5.6c14.3,7.4,21.1,14.9,27.2,14.1c6-0.8,22.4-9.7,27.7-12.6c10.4-5.8,13.7-11.9,24.8-15.7
					c13.6-4.6,20.8-4.9,30.7-15.8c-5.6-0.5-10.6-1.6-16.4-1.5c14.1-5.9,30.8-1.7,45-9.4c11.2-6,22.6-19.3,35.4-21.5
					c-4.4-4.2-15.7-11.9-43.8-24.1l-17.6,2.8C245.7,111.9,250.6,108.2,252.3,106.4z"/>
				<path class="st14" d="M87,179.3c-3.1-0.4-6.1-0.8-9.2-1.4c-0.3,0-0.7,0-1,0c3.9,1.3,8.1,2.6,12.2,3.9c-0.2-0.1-0.4-0.2-0.7-0.4
					C87.4,180.9,87,180.1,87,179.3z"/>
				<path class="st15" d="M193.5,190.8c-5.2,4.6-28.8,16.8-36,18c-5.3,0.9-7.2-4.6-21.1-10.9c-3.3-1.5,3.9-7.4,4.4-8.8
					c-5,0.7-9.7,2-14.6,3.8c-2,0.8-6.5,0.6-8-0.6c-11.9-10.5-43.7-16.4-52.2-19.6c-4.7-1.8-11.6-5.6-12.2-10.5
					c-0.4-2.9,1.4-5.3,2.3-8c1.4-4-6-3.2-8.2-3.6c-8.2-1.6-29.9-7.9-38-16.5l0,0c15.2,14.9,28.3,17.5,43.7,19.5
					c1.1,2.6-3,6.6-0.9,10.9c6.5,13.2,55.1,18.8,66.6,30.7c2.8,2.9,17.3-3.7,17.3-3.7c0,2.4-6.1,5.6-6.1,5.6
					c14.3,7.4,21.1,14.9,27.2,14.1c6-0.8,22.4-9.7,27.7-12.6c10.4-5.8,13.7-11.9,24.8-15.7c13.6-4.6,20.8-4.9,30.7-15.8
					c-5.6-0.5-10.6-1.6-16.4-1.5c14.1-5.9,30.8-1.7,45-9.4c9-4.8,18.1-14.3,27.9-19c-7,1.4-13.3,7.1-19.1,10.8
					c-8.3,5.3-14.9,9.9-25.2,11.2c-6.5,0.8-24.3,2.7-27.3,4.3c-2.7,1.5-5.2,2.8-2.1,3c7.8,0.6,14.1,2,14.1,2
					c-13.8,10.9-28.7,10.3-32.8,12.7C200.5,183.8,197.3,187.4,193.5,190.8z"/>
				<path class="st5" d="M282.4,196.8c5.1-9,10.3-18,12.5-28c-5,1.1-12.5-0.8-17.7,0c-1.7,1.8,8.2,3.5,9,5.5c0,0-0.5,4.3-0.8,5.8
					C284.4,185.6,283.4,191.2,282.4,196.8z"/>
				<path class="st16" d="M280.6,170.1c1.1-0.5,13.3,0.1,14.5-0.5c8.4-3.5,8.6-7.5,10.7-10.7c3-4.6-3.5-6.6-11.8-5.9
					c-9.5,9.8-30,16.4-45,20.6c4.5,4.1,12,0.8,15.8,3.1c5.7,3.6,12.2,3.1,12.2,3.1s6.7-3.5,9.2-5.5
					C287.5,173.2,278.5,171.1,280.6,170.1z"/>
				<path class="st13" d="M277,178.5c-2.7,0.3-9.4-2.9-12.2-3.2c-5.2-0.5-3.4,0.4-8.6-0.5c-1.7-0.3-4.2-1.3-5.9-1.5
					c-0.4,0.1-0.8,0.2-1.2,0.3c4.5,4.1,12,0.8,15.8,3.1c5.7,3.6,12.2,3.1,12.2,3.1s6.7-3.5,9.2-5.5c1.3-1-7.7-3.2-5.6-4.2
					c1.1-0.5,13.3,0.1,14.5-0.5c7-2.9,8.3-6.2,9.8-9c-3.5,4.8-7.6,8.1-20.2,6.6c0,0,0,0-0.1,0c-2.5,0.4-4.8,0.9-7.3,1.8
					c-0.1,0-0.2,0-0.3,0.1c1.4,1.2,2.4,3,4.4,3.6C286.7,174.2,279,178.3,277,178.5z"/>
				<path class="st16" d="M235.8,214c3.9-1.4,16.9-7.3,18.6-10.7c2.3-4.8-15.9-6.8-20.2-5.3c0,0-5.9,2.9-8.9,4.1
					c-3.5,1.4-8.5,2.9-12.4,2.2c0.3,0.9,1.1,2.5,2,3.4C219.2,212.2,229.8,216.2,235.8,214z"/>
				<path class="st13" d="M235.8,214c3.4-1.2,13.6-5.8,17.3-9.2c-11.2,7.7-29.8,10-38.9-0.4c-0.4,0-0.9-0.1-1.3-0.2
					c0.3,0.9,1.1,2.5,2,3.4C219.2,212.2,229.8,216.2,235.8,214z"/>
				<path class="st17" d="M30,190.6c5.7,1.2,11.1,5,15.8,8.1c3.2-3.7,7.3-8.1,7.3-13.6c-4.1-1.5-8.9-3.7-11.4-6.9
					C32.8,181.7,17.3,188.9,30,190.6z"/>
				<path class="st15" d="M43.8,195.5c-2.7-2.2-9.6-4.9-15.5-6c-3-0.6-2.6-1.6-2.8-2.1c-0.7,1.4,0.4,2.6,4.6,3.2
					c5.7,1.2,11.1,5,15.8,8.1c3.1-3.6,7.1-7.9,7.2-13.2c-1.3,3.5-2.2,4.5-4.1,7.6C48.1,194.4,45.1,196.6,43.8,195.5z"/>
				<path class="st4" d="M108.4,206.1c-2.3,2.2-3.6,4-5,6.8c-3.4,6.7-5.1,11.6-3.2,19.4c2.3,9.3,5.9,18.1,9.3,27.1
					c2.3,6.2,5.8,17.7,12,21.6c2.5-2.1,5.7-4.2,7.9-6.6c-4-10.4-6.2-23.6-7.4-34.9c-1.3-11.6-3.4-23.6-4.4-34.9
					C114.7,203.4,110.1,204.4,108.4,206.1z"/>
				<path class="st11" d="M117.6,205.8c0-0.5-0.1-0.9-0.2-1.4c-2.8-1-7.4,0-9.1,1.6c-2.3,2.2-3.6,4-5,6.8
					c-3.4,6.7-5.1,11.6-3.2,19.4c2.3,9.3,5.9,18.1,9.3,27.1c2.3,6.2,5.8,17.7,12,21.6c2.1-1.7,4.7-3.6,6.8-5.5
					c-8.1-5.6-8.6-15.8-12.2-24.9c-3-7.5-5.4-14.8-5.3-22.9c0.1-7.7,4-13.4,6.3-20.6C117.2,206.6,117.4,206.2,117.6,205.8z"/>
				<path class="st1" d="M103.2,210.2c-3.6-2-9.3-2.9-13.3-5.2c-3.5-2-20-8.6-24.2-8.2c0.7,11.1,12.3,24.9,17.5,36.7
					c5.6,12.8,10,21.1,14,34.3c1.4,4.7,12.2,3.7,17.2,12.6l7.1,0.5c0,0-1.5-8.7-2.6-12.2c-1.4-4.4-9.2-30.5-11.2-39
					C106.3,224.1,108.8,213.2,103.2,210.2z"/>
				<path class="st12" d="M106.3,214.3c-3,0.8-6.2,0.9-9.4,0.8c9.7,8,11.9,22.2,14.1,33.5c2.2,11.1,7,21.5,9.8,32.3l0.7,0
					c0,0-1.5-8.7-2.6-12.2c-1.4-4.4-9.2-30.5-11.2-39C106.7,225.7,107.7,218.9,106.3,214.3z"/>
				<path class="st17" d="M66.7,194.3c-4.5,3.7,7.2,16.2,13.9,19.2c7,3.2,16.4,3.8,24.1,3c7-0.7,13.1-12.6,13.1-12.6
					c-4.1-2.5-13.1-3.5-19.5-7.3c-8.3-5-18.6-10.1-18.6-10.1C75.1,190.5,71.1,190.7,66.7,194.3z"/>
				<path class="st15" d="M66.7,194.3c-4.5,3.7,7.2,16.2,13.9,19.2c7,3.2,16.4,3.8,24.1,3c5.5-0.6,10.5-8.1,12.4-11.2
					c-9.3,10.2-17.7,11.5-35,5.9c-5.2-1.7-17.1-8.6-14.1-17.8C67.5,193.6,67.1,193.9,66.7,194.3z"/>
				<path class="st18" d="M192.7,81.3c0.2-0.1,0.5-0.2,0.8-0.2c-0.2-0.5-0.4-1-0.8-1.6V81.3z"/>
			</g>
		</g>
	</g>
</g>
<g>
	<g id="XMLID_41461_">
		<polygon id="XMLID_41361_" class="st17" points="100.6,179.9 100.6,184.3 119.5,195.2 251.6,118.9 240.2,112.4 		"/>
		<g id="XMLID_21212_">
			<polygon id="XMLID_21234_" class="st19" points="119.5,182.1 104.4,173.4 225.1,103.7 240.2,112.4 			"/>
			<polygon id="XMLID_21233_" class="st20" points="240.2,20.9 225.1,12.1 225.1,103.7 240.2,112.4 			"/>
			<polygon id="XMLID_21230_" class="st21" points="119.5,112.4 240.2,42.6 240.2,47 119.5,116.7 			"/>
			<polygon id="XMLID_21229_" class="st19" points="240.2,42.6 225.1,33.9 104.4,103.7 119.5,112.4 			"/>
			<g id="XMLID_231_">
				<path id="XMLID_21235_" class="st22" d="M125.7,85.8H123c0,0,0,16.6,0,16.7c0,0.2,0.1,0.4,0.4,0.5c0.5,0.3,1.4,0.3,1.9,0
					c0.3-0.1,0.4-0.3,0.4-0.5C125.7,102.4,125.7,85.8,125.7,85.8z"/>
				<polygon id="XMLID_20965_" class="st23" points="123,90.6 125.7,89.1 125.7,99.7 123,101.1 				"/>
				<g id="XMLID_21226_">
					<path id="XMLID_21228_" class="st24" d="M118.1,91.9c0,1.5,1.1,2.8,2.4,3.8c1.5,1.1,2,2,3.9,2c1.8,0,2.4-0.9,3.9-2
						c1.3-1,2.4-2.3,2.4-3.8H118.1z"/>
					<path id="XMLID_21227_" class="st25" d="M130.6,91.5c-0.2-1.3-1.1-2.5-2.4-3.4c-1.5-1.1-2-2-3.9-2c-1.8,0-2.4,0.9-3.9,2
						c-1.2,0.9-2.2,2.1-2.4,3.4c0,0.1,0,0.2,0,0.4c0,0,0,0,0,0l0,0c0,0.9,0.6,1.9,1.8,2.6c2.4,1.4,6.4,1.4,8.9,0
						C130.1,93.7,130.7,92.6,130.6,91.5z"/>
					<path id="XMLID_41442_" class="st26" d="M128.7,88.6c1,1,1.5,3.3,0,4.6c-1.5,1.3-4.6,2.3-7.2,2c2.4,0.7,5.3,0.5,7.3-0.7
						c1.4-0.8,2-1.9,1.8-2.9C130.4,90.4,129.7,89.4,128.7,88.6z"/>
				</g>
				<g id="XMLID_21222_">
					<path id="XMLID_21225_" class="st24" d="M118.1,165.4c0,1.5,1.1,2.8,2.4,3.8c1.5,1.1,2,2,3.9,2c1.8,0,2.4-0.9,3.9-2
						c1.3-1,2.4-2.3,2.4-3.8H118.1z"/>
					<path id="XMLID_21223_" class="st25" d="M130.6,165.1c-0.2-1.3-1.1-2.5-2.4-3.4c-1.5-1.1-2-2-3.9-2c-1.8,0-2.4,0.9-3.9,2
						c-1.2,0.9-2.2,2.1-2.4,3.4c0,0.1,0,0.2,0,0.4c0,0,0,0,0,0l0,0c0,0.9,0.6,1.9,1.8,2.6c2.4,1.4,6.4,1.4,8.9,0
						C130.1,167.2,130.7,166.1,130.6,165.1z"/>
					<path id="XMLID_41431_" class="st26" d="M128.7,162.1c1,1,1.5,3.3,0,4.6c-1.5,1.3-4.6,2.3-7.2,2c2.4,0.7,5.3,0.5,7.3-0.7
						c1.4-0.8,2-1.9,1.8-2.9C130.4,164,129.7,163,128.7,162.1z"/>
				</g>
				<g id="XMLID_21219_">
					<path id="XMLID_21221_" class="st24" d="M118.1,155.5c0,1.5,1.1,2.8,2.4,3.8c1.5,1.1,2,2,3.9,2c1.8,0,2.4-0.9,3.9-2
						c1.3-1,2.4-2.3,2.4-3.8H118.1z"/>
					<path id="XMLID_21220_" class="st25" d="M130.6,155.1c-0.2-1.3-1.1-2.5-2.4-3.4c-1.5-1.1-2-2-3.9-2c-1.8,0-2.4,0.9-3.9,2
						c-1.2,0.9-2.2,2.1-2.4,3.4c0,0.1,0,0.2,0,0.4c0,0,0,0,0,0l0,0c0,0.9,0.6,1.9,1.8,2.6c2.4,1.4,6.4,1.4,8.9,0
						C130.1,157.2,130.7,156.2,130.6,155.1z"/>
					<path id="XMLID_41416_" class="st26" d="M128.7,152.1c1,1,1.5,3.3,0,4.6c-1.5,1.3-4.6,2.3-7.2,2c2.4,0.7,5.3,0.5,7.3-0.7
						c1.4-0.8,2-1.9,1.8-2.9C130.4,154,129.7,153,128.7,152.1z"/>
				</g>
				<g id="XMLID_21216_">
					<path id="XMLID_21218_" class="st24" d="M118.1,145.5c0,1.5,1.1,2.8,2.4,3.8c1.5,1.1,2,2,3.9,2c1.8,0,2.4-0.9,3.9-2
						c1.3-1,2.4-2.3,2.4-3.8H118.1z"/>
					<path id="XMLID_21217_" class="st25" d="M130.6,145.2c-0.2-1.3-1.1-2.5-2.4-3.4c-1.5-1.1-2-2-3.9-2c-1.8,0-2.4,0.9-3.9,2
						c-1.2,0.9-2.2,2.1-2.4,3.4c0,0.1,0,0.2,0,0.4c0,0,0,0,0,0l0,0c0,0.9,0.6,1.9,1.8,2.6c2.4,1.4,6.4,1.4,8.9,0
						C130.1,147.3,130.7,146.2,130.6,145.2z"/>
					<path id="XMLID_41441_" class="st26" d="M128.7,142.2c1,1,1.5,3.3,0,4.6c-1.5,1.3-4.6,2.3-7.2,2c2.4,0.7,5.3,0.5,7.3-0.7
						c1.4-0.8,2-1.9,1.8-2.9C130.4,144,129.7,143,128.7,142.2z"/>
				</g>
				<g id="XMLID_21213_">
					<path id="XMLID_21215_" class="st24" d="M118.1,135.5c0,1.5,1.1,2.8,2.4,3.8c1.5,1.1,2,2,3.9,2c1.8,0,2.4-0.9,3.9-2
						c1.3-1,2.4-2.3,2.4-3.8H118.1z"/>
					<path id="XMLID_21214_" class="st25" d="M130.6,135.2c-0.2-1.3-1.1-2.5-2.4-3.4c-1.5-1.1-2-2-3.9-2c-1.8,0-2.4,0.9-3.9,2
						c-1.2,0.9-2.2,2.1-2.4,3.4c0,0.1,0,0.2,0,0.4c0,0,0,0,0,0l0,0c0,0.9,0.6,1.9,1.8,2.6c2.4,1.4,6.4,1.4,8.9,0
						C130.1,137.3,130.7,136.2,130.6,135.2z"/>
					<path id="XMLID_20967_" class="st26" d="M128.7,132.2c1,1,1.5,3.3,0,4.6c-1.5,1.3-4.6,2.3-7.2,2c2.4,0.7,5.3,0.5,7.3-0.7
						c1.4-0.8,2-1.9,1.8-2.9C130.4,134.1,129.7,133.1,128.7,132.2z"/>
				</g>
				<path id="XMLID_21231_" class="st22" d="M125.7,113.1l-2.7,1.5c0,0,0,17.1,0,17.1c0,0.2,0.1,0.4,0.4,0.5c0.5,0.3,1.4,0.3,1.9,0
					c0.3-0.1,0.4-0.3,0.4-0.5C125.7,131.8,125.7,113.1,125.7,113.1z"/>
				<polygon id="XMLID_21039_" class="st23" points="123,114.7 125.7,113.1 125.7,115.4 123,116.9 				"/>
			</g>
			<g id="XMLID_190_">
				<path id="XMLID_21046_" class="st22" d="M138.4,78.4h-2.7c0,0,0,16.6,0,16.7c0,0.2,0.1,0.4,0.4,0.5c0.5,0.3,1.4,0.3,1.9,0
					c0.3-0.1,0.4-0.3,0.4-0.5C138.4,95.1,138.4,78.4,138.4,78.4z"/>
				<polygon id="XMLID_21042_" class="st23" points="135.7,83.3 138.4,81.7 138.4,92.3 135.7,93.8 				"/>
				<g id="XMLID_21050_">
					<path id="XMLID_41588_" class="st24" d="M130.8,84.6c0,1.5,1.1,2.8,2.4,3.8c1.5,1.1,2,2,3.9,2c1.8,0,2.4-0.9,3.9-2
						c1.3-1,2.4-2.3,2.4-3.8H130.8z"/>
					<path id="XMLID_41561_" class="st25" d="M143.3,84.2c-0.2-1.3-1.1-2.5-2.4-3.4c-1.5-1.1-2-2-3.9-2c-1.8,0-2.4,0.9-3.9,2
						c-1.2,0.9-2.2,2.1-2.4,3.4c0,0.1,0,0.2,0,0.4c0,0,0,0,0,0l0,0c0,0.9,0.6,1.9,1.8,2.6c2.4,1.4,6.4,1.4,8.9,0
						C142.9,86.3,143.5,85.2,143.3,84.2z"/>
					<path id="XMLID_41446_" class="st26" d="M141.4,81.2c1,1,1.5,3.3,0,4.6c-1.5,1.3-4.6,2.3-7.2,2c2.4,0.7,5.3,0.5,7.3-0.7
						c1.4-0.8,2-1.9,1.8-2.9C143.1,83.1,142.4,82.1,141.4,81.2z"/>
				</g>
				<g id="XMLID_21000_">
					<path id="XMLID_21038_" class="st24" d="M130.8,158.1c0,1.5,1.1,2.8,2.4,3.8c1.5,1.1,2,2,3.9,2c1.8,0,2.4-0.9,3.9-2
						c1.3-1,2.4-2.3,2.4-3.8H130.8z"/>
					<path id="XMLID_21006_" class="st25" d="M143.3,157.7c-0.2-1.3-1.1-2.5-2.4-3.4c-1.5-1.1-2-2-3.9-2c-1.8,0-2.4,0.9-3.9,2
						c-1.2,0.9-2.2,2.1-2.4,3.4c0,0.1,0,0.2,0,0.4c0,0,0,0,0,0l0,0c0,0.9,0.6,1.9,1.8,2.6c2.4,1.4,6.4,1.4,8.9,0
						C142.9,159.9,143.5,158.8,143.3,157.7z"/>
					<path id="XMLID_21001_" class="st26" d="M141.4,154.8c1,1,1.5,3.3,0,4.6c-1.5,1.3-4.6,2.3-7.2,2c2.4,0.7,5.3,0.5,7.3-0.7
						c1.4-0.8,2-1.9,1.8-2.9C143.1,156.6,142.4,155.6,141.4,154.8z"/>
				</g>
				<g id="XMLID_20989_">
					<path id="XMLID_20997_" class="st24" d="M130.8,148.1c0,1.5,1.1,2.8,2.4,3.8c1.5,1.1,2,2,3.9,2c1.8,0,2.4-0.9,3.9-2
						c1.3-1,2.4-2.3,2.4-3.8H130.8z"/>
					<path id="XMLID_20993_" class="st25" d="M143.3,147.8c-0.2-1.3-1.1-2.5-2.4-3.4c-1.5-1.1-2-2-3.9-2c-1.8,0-2.4,0.9-3.9,2
						c-1.2,0.9-2.2,2.1-2.4,3.4c0,0.1,0,0.2,0,0.4c0,0,0,0,0,0l0,0c0,0.9,0.6,1.9,1.8,2.6c2.4,1.4,6.4,1.4,8.9,0
						C142.9,149.9,143.5,148.8,143.3,147.8z"/>
					<path id="XMLID_20990_" class="st26" d="M141.4,144.8c1,1,1.5,3.3,0,4.6c-1.5,1.3-4.6,2.3-7.2,2c2.4,0.7,5.3,0.5,7.3-0.7
						c1.4-0.8,2-1.9,1.8-2.9C143.1,146.7,142.4,145.7,141.4,144.8z"/>
				</g>
				<g id="XMLID_20979_">
					<path id="XMLID_20986_" class="st24" d="M130.8,138.2c0,1.5,1.1,2.8,2.4,3.8c1.5,1.1,2,2,3.9,2c1.8,0,2.4-0.9,3.9-2
						c1.3-1,2.4-2.3,2.4-3.8H130.8z"/>
					<path id="XMLID_20983_" class="st25" d="M143.3,137.8c-0.2-1.3-1.1-2.5-2.4-3.4c-1.5-1.1-2-2-3.9-2c-1.8,0-2.4,0.9-3.9,2
						c-1.2,0.9-2.2,2.1-2.4,3.4c0,0.1,0,0.2,0,0.4c0,0,0,0,0,0l0,0c0,0.9,0.6,1.9,1.8,2.6c2.4,1.4,6.4,1.4,8.9,0
						C142.9,139.9,143.5,138.9,143.3,137.8z"/>
					<path id="XMLID_20980_" class="st26" d="M141.4,134.8c1,1,1.5,3.3,0,4.6c-1.5,1.3-4.6,2.3-7.2,2c2.4,0.7,5.3,0.5,7.3-0.7
						c1.4-0.8,2-1.9,1.8-2.9C143.1,136.7,142.4,135.7,141.4,134.8z"/>
				</g>
				<g id="XMLID_20959_">
					<path id="XMLID_20971_" class="st24" d="M130.8,128.2c0,1.5,1.1,2.8,2.4,3.8c1.5,1.1,2,2,3.9,2c1.8,0,2.4-0.9,3.9-2
						c1.3-1,2.4-2.3,2.4-3.8H130.8z"/>
					<path id="XMLID_20963_" class="st25" d="M143.3,127.8c-0.2-1.3-1.1-2.5-2.4-3.4c-1.5-1.1-2-2-3.9-2c-1.8,0-2.4,0.9-3.9,2
						c-1.2,0.9-2.2,2.1-2.4,3.4c0,0.1,0,0.2,0,0.4c0,0,0,0,0,0l0,0c0,0.9,0.6,1.9,1.8,2.6c2.4,1.4,6.4,1.4,8.9,0
						C142.9,130,143.5,128.9,143.3,127.8z"/>
					<path id="XMLID_20960_" class="st26" d="M141.4,124.9c1,1,1.5,3.3,0,4.6c-1.5,1.3-4.6,2.3-7.2,2c2.4,0.7,5.3,0.5,7.3-0.7
						c1.4-0.8,2-1.9,1.8-2.9C143.1,126.7,142.4,125.7,141.4,124.9z"/>
				</g>
				<path id="XMLID_193_" class="st22" d="M138.4,105.8l-2.7,1.5c0,0,0,17.1,0,17.1c0,0.2,0.1,0.4,0.4,0.5c0.5,0.3,1.4,0.3,1.9,0
					c0.3-0.1,0.4-0.3,0.4-0.5C138.4,124.5,138.4,105.8,138.4,105.8z"/>
				<polygon id="XMLID_191_" class="st23" points="135.7,107.4 138.4,105.8 138.4,108 135.7,109.6 				"/>
			</g>
			<g id="XMLID_41596_">
				<path id="XMLID_41697_" class="st22" d="M151.1,71.1h-2.7c0,0,0,16.6,0,16.7c0,0.2,0.1,0.4,0.4,0.5c0.5,0.3,1.4,0.3,1.9,0
					c0.3-0.1,0.4-0.3,0.4-0.5C151.1,87.8,151.1,71.1,151.1,71.1z"/>
				<polygon id="XMLID_41694_" class="st23" points="148.4,76 151.1,74.4 151.1,85 148.4,86.5 				"/>
				<g id="XMLID_41700_">
					<path id="XMLID_41730_" class="st24" d="M143.5,77.2c0,1.5,1.1,2.8,2.4,3.8c1.5,1.1,2,2,3.9,2c1.8,0,2.4-0.9,3.9-2
						c1.3-1,2.4-2.3,2.4-3.8H143.5z"/>
					<path id="XMLID_41704_" class="st25" d="M156,76.9c-0.2-1.3-1.1-2.5-2.4-3.4c-1.5-1.1-2-2-3.9-2c-1.8,0-2.4,0.9-3.9,2
						c-1.2,0.9-2.2,2.1-2.4,3.4c0,0.1,0,0.2,0,0.4c0,0,0,0,0,0l0,0c0,0.9,0.6,1.9,1.8,2.6c2.4,1.4,6.4,1.4,8.9,0
						C155.6,79,156.2,77.9,156,76.9z"/>
					<path id="XMLID_41701_" class="st26" d="M154.1,73.9c1,1,1.5,3.3,0,4.6c-1.5,1.3-4.6,2.3-7.2,2c2.4,0.7,5.3,0.5,7.3-0.7
						c1.4-0.8,2-1.9,1.8-2.9C155.8,75.7,155.1,74.7,154.1,73.9z"/>
				</g>
				<g id="XMLID_41684_">
					<path id="XMLID_41691_" class="st24" d="M143.5,150.8c0,1.5,1.1,2.8,2.4,3.8c1.5,1.1,2,2,3.9,2c1.8,0,2.4-0.9,3.9-2
						c1.3-1,2.4-2.3,2.4-3.8H143.5z"/>
					<path id="XMLID_41688_" class="st25" d="M156,150.4c-0.2-1.3-1.1-2.5-2.4-3.4c-1.5-1.1-2-2-3.9-2c-1.8,0-2.4,0.9-3.9,2
						c-1.2,0.9-2.2,2.1-2.4,3.4c0,0.1,0,0.2,0,0.4c0,0,0,0,0,0l0,0c0,0.9,0.6,1.9,1.8,2.6c2.4,1.4,6.4,1.4,8.9,0
						C155.6,152.5,156.2,151.5,156,150.4z"/>
					<path id="XMLID_41685_" class="st26" d="M154.1,147.4c1,1,1.5,3.3,0,4.6c-1.5,1.3-4.6,2.3-7.2,2c2.4,0.7,5.3,0.5,7.3-0.7
						c1.4-0.8,2-1.9,1.8-2.9C155.8,149.3,155.1,148.3,154.1,147.4z"/>
				</g>
				<g id="XMLID_41674_">
					<path id="XMLID_41681_" class="st24" d="M143.5,140.8c0,1.5,1.1,2.8,2.4,3.8c1.5,1.1,2,2,3.9,2c1.8,0,2.4-0.9,3.9-2
						c1.3-1,2.4-2.3,2.4-3.8H143.5z"/>
					<path id="XMLID_41678_" class="st25" d="M156,140.4c-0.2-1.3-1.1-2.5-2.4-3.4c-1.5-1.1-2-2-3.9-2c-1.8,0-2.4,0.9-3.9,2
						c-1.2,0.9-2.2,2.1-2.4,3.4c0,0.1,0,0.2,0,0.4c0,0,0,0,0,0l0,0c0,0.9,0.6,1.9,1.8,2.6c2.4,1.4,6.4,1.4,8.9,0
						C155.6,142.6,156.2,141.5,156,140.4z"/>
					<path id="XMLID_41675_" class="st26" d="M154.1,137.5c1,1,1.5,3.3,0,4.6c-1.5,1.3-4.6,2.3-7.2,2c2.4,0.7,5.3,0.5,7.3-0.7
						c1.4-0.8,2-1.9,1.8-2.9C155.8,139.3,155.1,138.3,154.1,137.5z"/>
				</g>
				<g id="XMLID_41664_">
					<path id="XMLID_41671_" class="st24" d="M143.5,130.8c0,1.5,1.1,2.8,2.4,3.8c1.5,1.1,2,2,3.9,2c1.8,0,2.4-0.9,3.9-2
						c1.3-1,2.4-2.3,2.4-3.8H143.5z"/>
					<path id="XMLID_41668_" class="st25" d="M156,130.5c-0.2-1.3-1.1-2.5-2.4-3.4c-1.5-1.1-2-2-3.9-2c-1.8,0-2.4,0.9-3.9,2
						c-1.2,0.9-2.2,2.1-2.4,3.4c0,0.1,0,0.2,0,0.4c0,0,0,0,0,0l0,0c0,0.9,0.6,1.9,1.8,2.6c2.4,1.4,6.4,1.4,8.9,0
						C155.6,132.6,156.2,131.5,156,130.5z"/>
					<path id="XMLID_41665_" class="st26" d="M154.1,127.5c1,1,1.5,3.3,0,4.6c-1.5,1.3-4.6,2.3-7.2,2c2.4,0.7,5.3,0.5,7.3-0.7
						c1.4-0.8,2-1.9,1.8-2.9C155.8,129.4,155.1,128.4,154.1,127.5z"/>
				</g>
				<g id="XMLID_41654_">
					<path id="XMLID_41661_" class="st24" d="M143.5,120.9c0,1.5,1.1,2.8,2.4,3.8c1.5,1.1,2,2,3.9,2c1.8,0,2.4-0.9,3.9-2
						c1.3-1,2.4-2.3,2.4-3.8H143.5z"/>
					<path id="XMLID_41658_" class="st25" d="M156,120.5c-0.2-1.3-1.1-2.5-2.4-3.4c-1.5-1.1-2-2-3.9-2c-1.8,0-2.4,0.9-3.9,2
						c-1.2,0.9-2.2,2.1-2.4,3.4c0,0.1,0,0.2,0,0.4c0,0,0,0,0,0l0,0c0,0.9,0.6,1.9,1.8,2.6c2.4,1.4,6.4,1.4,8.9,0
						C155.6,122.6,156.2,121.6,156,120.5z"/>
					<path id="XMLID_41655_" class="st26" d="M154.1,117.5c1,1,1.5,3.3,0,4.6c-1.5,1.3-4.6,2.3-7.2,2c2.4,0.7,5.3,0.5,7.3-0.7
						c1.4-0.8,2-1.9,1.8-2.9C155.8,119.4,155.1,118.4,154.1,117.5z"/>
				</g>
				<path id="XMLID_41647_" class="st22" d="M151.1,98.5l-2.7,1.5c0,0,0,17.1,0,17.1c0,0.2,0.1,0.4,0.4,0.5c0.5,0.3,1.4,0.3,1.9,0
					c0.3-0.1,0.4-0.3,0.4-0.5C151.1,117.1,151.1,98.5,151.1,98.5z"/>
				<polygon id="XMLID_41635_" class="st23" points="148.4,100 151.1,98.5 151.1,100.7 148.4,102.3 				"/>
			</g>
			<g id="XMLID_41737_">
				<path id="XMLID_41942_" class="st22" d="M163.8,63.8h-2.7c0,0,0,16.6,0,16.7c0,0.2,0.1,0.4,0.4,0.5c0.5,0.3,1.4,0.3,1.9,0
					c0.3-0.1,0.4-0.3,0.4-0.5C163.8,80.4,163.8,63.8,163.8,63.8z"/>
				<polygon id="XMLID_41939_" class="st23" points="161.1,68.6 163.8,67.1 163.8,77.7 161.1,79.1 				"/>
				<g id="XMLID_41945_">
					<path id="XMLID_41952_" class="st24" d="M156.2,69.9c0,1.5,1.1,2.8,2.4,3.8c1.5,1.1,2,2,3.9,2c1.8,0,2.4-0.9,3.9-2
						c1.3-1,2.4-2.3,2.4-3.8H156.2z"/>
					<path id="XMLID_41949_" class="st25" d="M168.7,69.5c-0.2-1.3-1.1-2.5-2.4-3.4c-1.5-1.1-2-2-3.9-2c-1.8,0-2.4,0.9-3.9,2
						c-1.2,0.9-2.2,2.1-2.4,3.4c0,0.1,0,0.2,0,0.4c0,0,0,0,0,0l0,0c0,0.9,0.6,1.9,1.8,2.6c2.4,1.4,6.4,1.4,8.9,0
						C168.3,71.7,168.9,70.6,168.7,69.5z"/>
					<path id="XMLID_41946_" class="st26" d="M166.8,66.6c1,1,1.5,3.3,0,4.6c-1.5,1.3-4.6,2.3-7.2,2c2.4,0.7,5.3,0.5,7.3-0.7
						c1.4-0.8,2-1.9,1.8-2.9C168.5,68.4,167.8,67.4,166.8,66.6z"/>
				</g>
				<g id="XMLID_41909_">
					<path id="XMLID_41936_" class="st24" d="M156.2,143.4c0,1.5,1.1,2.8,2.4,3.8c1.5,1.1,2,2,3.9,2c1.8,0,2.4-0.9,3.9-2
						c1.3-1,2.4-2.3,2.4-3.8H156.2z"/>
					<path id="XMLID_41913_" class="st25" d="M168.7,143.1c-0.2-1.3-1.1-2.5-2.4-3.4c-1.5-1.1-2-2-3.9-2c-1.8,0-2.4,0.9-3.9,2
						c-1.2,0.9-2.2,2.1-2.4,3.4c0,0.1,0,0.2,0,0.4c0,0,0,0,0,0l0,0c0,0.9,0.6,1.9,1.8,2.6c2.4,1.4,6.4,1.4,8.9,0
						C168.3,145.2,168.9,144.1,168.7,143.1z"/>
					<path id="XMLID_41910_" class="st26" d="M166.8,140.1c1,1,1.5,3.3,0,4.6c-1.5,1.3-4.6,2.3-7.2,2c2.4,0.7,5.3,0.5,7.3-0.7
						c1.4-0.8,2-1.9,1.8-2.9C168.5,142,167.8,141,166.8,140.1z"/>
				</g>
				<g id="XMLID_41895_">
					<path id="XMLID_41906_" class="st24" d="M156.2,133.5c0,1.5,1.1,2.8,2.4,3.8c1.5,1.1,2,2,3.9,2c1.8,0,2.4-0.9,3.9-2
						c1.3-1,2.4-2.3,2.4-3.8H156.2z"/>
					<path id="XMLID_41903_" class="st25" d="M168.7,133.1c-0.2-1.3-1.1-2.5-2.4-3.4c-1.5-1.1-2-2-3.9-2c-1.8,0-2.4,0.9-3.9,2
						c-1.2,0.9-2.2,2.1-2.4,3.4c0,0.1,0,0.2,0,0.4c0,0,0,0,0,0l0,0c0,0.9,0.6,1.9,1.8,2.6c2.4,1.4,6.4,1.4,8.9,0
						C168.3,135.2,168.9,134.2,168.7,133.1z"/>
					<path id="XMLID_41898_" class="st26" d="M166.8,130.1c1,1,1.5,3.3,0,4.6c-1.5,1.3-4.6,2.3-7.2,2c2.4,0.7,5.3,0.5,7.3-0.7
						c1.4-0.8,2-1.9,1.8-2.9C168.5,132,167.8,131,166.8,130.1z"/>
				</g>
				<g id="XMLID_41861_">
					<path id="XMLID_41890_" class="st24" d="M156.2,123.5c0,1.5,1.1,2.8,2.4,3.8c1.5,1.1,2,2,3.9,2c1.8,0,2.4-0.9,3.9-2
						c1.3-1,2.4-2.3,2.4-3.8H156.2z"/>
					<path id="XMLID_41873_" class="st25" d="M168.7,123.1c-0.2-1.3-1.1-2.5-2.4-3.4c-1.5-1.1-2-2-3.9-2c-1.8,0-2.4,0.9-3.9,2
						c-1.2,0.9-2.2,2.1-2.4,3.4c0,0.1,0,0.2,0,0.4c0,0,0,0,0,0l0,0c0,0.9,0.6,1.9,1.8,2.6c2.4,1.4,6.4,1.4,8.9,0
						C168.3,125.3,168.9,124.2,168.7,123.1z"/>
					<path id="XMLID_41863_" class="st26" d="M166.8,120.2c1,1,1.5,3.3,0,4.6c-1.5,1.3-4.6,2.3-7.2,2c2.4,0.7,5.3,0.5,7.3-0.7
						c1.4-0.8,2-1.9,1.8-2.9C168.5,122,167.8,121,166.8,120.2z"/>
				</g>
				<g id="XMLID_41845_">
					<path id="XMLID_41857_" class="st24" d="M156.2,113.5c0,1.5,1.1,2.8,2.4,3.8c1.5,1.1,2,2,3.9,2c1.8,0,2.4-0.9,3.9-2
						c1.3-1,2.4-2.3,2.4-3.8H156.2z"/>
					<path id="XMLID_41853_" class="st25" d="M168.7,113.2c-0.2-1.3-1.1-2.5-2.4-3.4c-1.5-1.1-2-2-3.9-2c-1.8,0-2.4,0.9-3.9,2
						c-1.2,0.9-2.2,2.1-2.4,3.4c0,0.1,0,0.2,0,0.4c0,0,0,0,0,0l0,0c0,0.9,0.6,1.9,1.8,2.6c2.4,1.4,6.4,1.4,8.9,0
						C168.3,115.3,168.9,114.2,168.7,113.2z"/>
					<path id="XMLID_41846_" class="st26" d="M166.8,110.2c1,1,1.5,3.3,0,4.6c-1.5,1.3-4.6,2.3-7.2,2c2.4,0.7,5.3,0.5,7.3-0.7
						c1.4-0.8,2-1.9,1.8-2.9C168.5,112.1,167.8,111.1,166.8,110.2z"/>
				</g>
				<path id="XMLID_41839_" class="st22" d="M163.8,91.1l-2.7,1.5c0,0,0,17.1,0,17.1c0,0.2,0.1,0.4,0.4,0.5c0.5,0.3,1.4,0.3,1.9,0
					c0.3-0.1,0.4-0.3,0.4-0.5C163.8,109.8,163.8,91.1,163.8,91.1z"/>
				<polygon id="XMLID_41753_" class="st23" points="161.1,92.7 163.8,91.1 163.8,93.4 161.1,94.9 				"/>
			</g>
			<g id="XMLID_41955_">
				<path id="XMLID_42005_" class="st22" d="M176.5,56.4h-2.7c0,0,0,16.6,0,16.7c0,0.2,0.1,0.4,0.4,0.5c0.5,0.3,1.4,0.3,1.9,0
					c0.3-0.1,0.4-0.3,0.4-0.5C176.5,73.1,176.5,56.4,176.5,56.4z"/>
				<polygon id="XMLID_42002_" class="st23" points="173.8,61.3 176.5,59.7 176.5,70.3 173.8,71.8 				"/>
				<g id="XMLID_42008_">
					<path id="XMLID_42015_" class="st24" d="M168.9,62.6c0,1.5,1.1,2.8,2.4,3.8c1.5,1.1,2,2,3.9,2c1.8,0,2.4-0.9,3.9-2
						c1.3-1,2.4-2.3,2.4-3.8H168.9z"/>
					<path id="XMLID_42012_" class="st25" d="M181.4,62.2c-0.2-1.3-1.1-2.5-2.4-3.4c-1.5-1.1-2-2-3.9-2c-1.8,0-2.4,0.9-3.9,2
						c-1.2,0.9-2.2,2.1-2.4,3.4c0,0.1,0,0.2,0,0.4c0,0,0,0,0,0l0,0c0,0.9,0.6,1.9,1.8,2.6c2.4,1.4,6.4,1.4,8.9,0
						C181,64.3,181.6,63.2,181.4,62.2z"/>
					<path id="XMLID_42009_" class="st26" d="M179.5,59.2c1,1,1.5,3.3,0,4.6c-1.5,1.3-4.6,2.3-7.2,2c2.4,0.7,5.3,0.5,7.3-0.7
						c1.4-0.8,2-1.9,1.8-2.9C181.3,61.1,180.5,60.1,179.5,59.2z"/>
				</g>
				<g id="XMLID_41992_">
					<path id="XMLID_41999_" class="st24" d="M168.9,136.1c0,1.5,1.1,2.8,2.4,3.8c1.5,1.1,2,2,3.9,2c1.8,0,2.4-0.9,3.9-2
						c1.3-1,2.4-2.3,2.4-3.8H168.9z"/>
					<path id="XMLID_41996_" class="st25" d="M181.4,135.7c-0.2-1.3-1.1-2.5-2.4-3.4c-1.5-1.1-2-2-3.9-2c-1.8,0-2.4,0.9-3.9,2
						c-1.2,0.9-2.2,2.1-2.4,3.4c0,0.1,0,0.2,0,0.4c0,0,0,0,0,0l0,0c0,0.9,0.6,1.9,1.8,2.6c2.4,1.4,6.4,1.4,8.9,0
						C181,137.9,181.6,136.8,181.4,135.7z"/>
					<path id="XMLID_41993_" class="st26" d="M179.5,132.8c1,1,1.5,3.3,0,4.6c-1.5,1.3-4.6,2.3-7.2,2c2.4,0.7,5.3,0.5,7.3-0.7
						c1.4-0.8,2-1.9,1.8-2.9C181.3,134.6,180.5,133.6,179.5,132.8z"/>
				</g>
				<g id="XMLID_41982_">
					<path id="XMLID_41989_" class="st24" d="M168.9,126.1c0,1.5,1.1,2.8,2.4,3.8c1.5,1.1,2,2,3.9,2c1.8,0,2.4-0.9,3.9-2
						c1.3-1,2.4-2.3,2.4-3.8H168.9z"/>
					<path id="XMLID_41986_" class="st25" d="M181.4,125.8c-0.2-1.3-1.1-2.5-2.4-3.4c-1.5-1.1-2-2-3.9-2c-1.8,0-2.4,0.9-3.9,2
						c-1.2,0.9-2.2,2.1-2.4,3.4c0,0.1,0,0.2,0,0.4c0,0,0,0,0,0l0,0c0,0.9,0.6,1.9,1.8,2.6c2.4,1.4,6.4,1.4,8.9,0
						C181,127.9,181.6,126.8,181.4,125.8z"/>
					<path id="XMLID_41983_" class="st26" d="M179.5,122.8c1,1,1.5,3.3,0,4.6c-1.5,1.3-4.6,2.3-7.2,2c2.4,0.7,5.3,0.5,7.3-0.7
						c1.4-0.8,2-1.9,1.8-2.9C181.3,124.7,180.5,123.7,179.5,122.8z"/>
				</g>
				<g id="XMLID_41972_">
					<path id="XMLID_41979_" class="st24" d="M168.9,116.2c0,1.5,1.1,2.8,2.4,3.8c1.5,1.1,2,2,3.9,2c1.8,0,2.4-0.9,3.9-2
						c1.3-1,2.4-2.3,2.4-3.8H168.9z"/>
					<path id="XMLID_41976_" class="st25" d="M181.4,115.8c-0.2-1.3-1.1-2.5-2.4-3.4c-1.5-1.1-2-2-3.9-2c-1.8,0-2.4,0.9-3.9,2
						c-1.2,0.9-2.2,2.1-2.4,3.4c0,0.1,0,0.2,0,0.4c0,0,0,0,0,0l0,0c0,0.9,0.6,1.9,1.8,2.6c2.4,1.4,6.4,1.4,8.9,0
						C181,117.9,181.6,116.9,181.4,115.8z"/>
					<path id="XMLID_41973_" class="st26" d="M179.5,112.8c1,1,1.5,3.3,0,4.6c-1.5,1.3-4.6,2.3-7.2,2c2.4,0.7,5.3,0.5,7.3-0.7
						c1.4-0.8,2-1.9,1.8-2.9C181.3,114.7,180.5,113.7,179.5,112.8z"/>
				</g>
				<g id="XMLID_41962_">
					<path id="XMLID_41969_" class="st24" d="M168.9,106.2c0,1.5,1.1,2.8,2.4,3.8c1.5,1.1,2,2,3.9,2c1.8,0,2.4-0.9,3.9-2
						c1.3-1,2.4-2.3,2.4-3.8H168.9z"/>
					<path id="XMLID_41966_" class="st25" d="M181.4,105.8c-0.2-1.3-1.1-2.5-2.4-3.4c-1.5-1.1-2-2-3.9-2c-1.8,0-2.4,0.9-3.9,2
						c-1.2,0.9-2.2,2.1-2.4,3.4c0,0.1,0,0.2,0,0.4c0,0,0,0,0,0l0,0c0,0.9,0.6,1.9,1.8,2.6c2.4,1.4,6.4,1.4,8.9,0
						C181,108,181.6,106.9,181.4,105.8z"/>
					<path id="XMLID_41963_" class="st26" d="M179.5,102.9c1,1,1.5,3.3,0,4.6c-1.5,1.3-4.6,2.3-7.2,2c2.4,0.7,5.3,0.5,7.3-0.7
						c1.4-0.8,2-1.9,1.8-2.9C181.3,104.7,180.5,103.7,179.5,102.9z"/>
				</g>
				<path id="XMLID_41959_" class="st22" d="M176.5,83.8l-2.7,1.5c0,0,0,17.1,0,17.1c0,0.2,0.1,0.4,0.4,0.5c0.5,0.3,1.4,0.3,1.9,0
					c0.3-0.1,0.4-0.3,0.4-0.5C176.5,102.5,176.5,83.8,176.5,83.8z"/>
				<polygon id="XMLID_41956_" class="st23" points="173.8,85.3 176.5,83.8 176.5,86 173.8,87.6 				"/>
			</g>
			<g id="XMLID_42018_">
				<path id="XMLID_42068_" class="st22" d="M189.2,49.1h-2.7c0,0,0,16.6,0,16.7c0,0.2,0.1,0.4,0.4,0.5c0.5,0.3,1.4,0.3,1.9,0
					c0.3-0.1,0.4-0.3,0.4-0.5C189.2,65.7,189.2,49.1,189.2,49.1z"/>
				<polygon id="XMLID_42065_" class="st23" points="186.5,53.9 189.2,52.4 189.2,63 186.5,64.5 				"/>
				<g id="XMLID_42071_">
					<path id="XMLID_42078_" class="st24" d="M181.6,55.2c0,1.5,1.1,2.8,2.4,3.8c1.5,1.1,2,2,3.9,2c1.8,0,2.4-0.9,3.9-2
						c1.3-1,2.4-2.3,2.4-3.8H181.6z"/>
					<path id="XMLID_42075_" class="st25" d="M194.1,54.9c-0.2-1.3-1.1-2.5-2.4-3.4c-1.5-1.1-2-2-3.9-2c-1.8,0-2.4,0.9-3.9,2
						c-1.2,0.9-2.2,2.1-2.4,3.4c0,0.1,0,0.2,0,0.4c0,0,0,0,0,0l0,0c0,0.9,0.6,1.9,1.8,2.6c2.4,1.4,6.4,1.4,8.9,0
						C193.7,57,194.3,55.9,194.1,54.9z"/>
					<path id="XMLID_42072_" class="st26" d="M192.2,51.9c1,1,1.5,3.3,0,4.6c-1.5,1.3-4.6,2.3-7.2,2c2.4,0.7,5.3,0.5,7.3-0.7
						c1.4-0.8,2-1.9,1.8-2.9C194,53.7,193.2,52.7,192.2,51.9z"/>
				</g>
				<g id="XMLID_42055_">
					<path id="XMLID_42062_" class="st24" d="M181.6,128.8c0,1.5,1.1,2.8,2.4,3.8c1.5,1.1,2,2,3.9,2c1.8,0,2.4-0.9,3.9-2
						c1.3-1,2.4-2.3,2.4-3.8H181.6z"/>
					<path id="XMLID_42059_" class="st25" d="M194.1,128.4c-0.2-1.3-1.1-2.5-2.4-3.4c-1.5-1.1-2-2-3.9-2c-1.8,0-2.4,0.9-3.9,2
						c-1.2,0.9-2.2,2.1-2.4,3.4c0,0.1,0,0.2,0,0.4c0,0,0,0,0,0l0,0c0,0.9,0.6,1.9,1.8,2.6c2.4,1.4,6.4,1.4,8.9,0
						C193.7,130.5,194.3,129.4,194.1,128.4z"/>
					<path id="XMLID_42056_" class="st26" d="M192.2,125.4c1,1,1.5,3.3,0,4.6c-1.5,1.3-4.6,2.3-7.2,2c2.4,0.7,5.3,0.5,7.3-0.7
						c1.4-0.8,2-1.9,1.8-2.9C194,127.3,193.2,126.3,192.2,125.4z"/>
				</g>
				<g id="XMLID_42045_">
					<path id="XMLID_42052_" class="st24" d="M181.6,118.8c0,1.5,1.1,2.8,2.4,3.8c1.5,1.1,2,2,3.9,2c1.8,0,2.4-0.9,3.9-2
						c1.3-1,2.4-2.3,2.4-3.8H181.6z"/>
					<path id="XMLID_42049_" class="st25" d="M194.1,118.4c-0.2-1.3-1.1-2.5-2.4-3.4c-1.5-1.1-2-2-3.9-2c-1.8,0-2.4,0.9-3.9,2
						c-1.2,0.9-2.2,2.1-2.4,3.4c0,0.1,0,0.2,0,0.4c0,0,0,0,0,0l0,0c0,0.9,0.6,1.9,1.8,2.6c2.4,1.4,6.4,1.4,8.9,0
						C193.7,120.6,194.3,119.5,194.1,118.4z"/>
					<path id="XMLID_42046_" class="st26" d="M192.2,115.5c1,1,1.5,3.3,0,4.6c-1.5,1.3-4.6,2.3-7.2,2c2.4,0.7,5.3,0.5,7.3-0.7
						c1.4-0.8,2-1.9,1.8-2.9C194,117.3,193.2,116.3,192.2,115.5z"/>
				</g>
				<g id="XMLID_42035_">
					<path id="XMLID_42042_" class="st24" d="M181.6,108.8c0,1.5,1.1,2.8,2.4,3.8c1.5,1.1,2,2,3.9,2c1.8,0,2.4-0.9,3.9-2
						c1.3-1,2.4-2.3,2.4-3.8H181.6z"/>
					<path id="XMLID_42039_" class="st25" d="M194.1,108.5c-0.2-1.3-1.1-2.5-2.4-3.4c-1.5-1.1-2-2-3.9-2c-1.8,0-2.4,0.9-3.9,2
						c-1.2,0.9-2.2,2.1-2.4,3.4c0,0.1,0,0.2,0,0.4c0,0,0,0,0,0l0,0c0,0.9,0.6,1.9,1.8,2.6c2.4,1.4,6.4,1.4,8.9,0
						C193.7,110.6,194.3,109.5,194.1,108.5z"/>
					<path id="XMLID_42036_" class="st26" d="M192.2,105.5c1,1,1.5,3.3,0,4.6c-1.5,1.3-4.6,2.3-7.2,2c2.4,0.7,5.3,0.5,7.3-0.7
						c1.4-0.8,2-1.9,1.8-2.9C194,107.4,193.2,106.4,192.2,105.5z"/>
				</g>
				<g id="XMLID_42025_">
					<path id="XMLID_42032_" class="st24" d="M181.6,98.9c0,1.5,1.1,2.8,2.4,3.8c1.5,1.1,2,2,3.9,2c1.8,0,2.4-0.9,3.9-2
						c1.3-1,2.4-2.3,2.4-3.8H181.6z"/>
					<path id="XMLID_42029_" class="st25" d="M194.1,98.5c-0.2-1.3-1.1-2.5-2.4-3.4c-1.5-1.1-2-2-3.9-2c-1.8,0-2.4,0.9-3.9,2
						c-1.2,0.9-2.2,2.1-2.4,3.4c0,0.1,0,0.2,0,0.4c0,0,0,0,0,0l0,0c0,0.9,0.6,1.9,1.8,2.6c2.4,1.4,6.4,1.4,8.9,0
						C193.7,100.6,194.3,99.6,194.1,98.5z"/>
					<path id="XMLID_42026_" class="st26" d="M192.2,95.5c1,1,1.5,3.3,0,4.6c-1.5,1.3-4.6,2.3-7.2,2c2.4,0.7,5.3,0.5,7.3-0.7
						c1.4-0.8,2-1.9,1.8-2.9C194,97.4,193.2,96.4,192.2,95.5z"/>
				</g>
				<path id="XMLID_42022_" class="st22" d="M189.2,76.5l-2.7,1.5c0,0,0,17.1,0,17.1c0,0.2,0.1,0.4,0.4,0.5c0.5,0.3,1.4,0.3,1.9,0
					c0.3-0.1,0.4-0.3,0.4-0.5C189.2,95.1,189.2,76.5,189.2,76.5z"/>
				<polygon id="XMLID_42019_" class="st23" points="186.5,78 189.2,76.5 189.2,78.7 186.5,80.3 				"/>
			</g>
			<g id="XMLID_42081_">
				<path id="XMLID_42131_" class="st22" d="M201.9,41.8h-2.7c0,0,0,16.6,0,16.7c0,0.2,0.1,0.4,0.4,0.5c0.5,0.3,1.4,0.3,1.9,0
					c0.3-0.1,0.4-0.3,0.4-0.5C201.9,58.4,201.9,41.8,201.9,41.8z"/>
				<polygon id="XMLID_42128_" class="st23" points="199.2,46.6 201.9,45.1 201.9,55.7 199.2,57.1 				"/>
				<g id="XMLID_42134_">
					<path id="XMLID_42141_" class="st24" d="M194.3,47.9c0,1.5,1.1,2.8,2.4,3.8c1.5,1.1,2,2,3.9,2c1.8,0,2.4-0.9,3.9-2
						c1.3-1,2.4-2.3,2.4-3.8H194.3z"/>
					<path id="XMLID_42138_" class="st25" d="M206.8,47.5c-0.2-1.3-1.1-2.5-2.4-3.4c-1.5-1.1-2-2-3.9-2c-1.8,0-2.4,0.9-3.9,2
						c-1.2,0.9-2.2,2.1-2.4,3.4c0,0.1,0,0.2,0,0.4c0,0,0,0,0,0l0,0c0,0.9,0.6,1.9,1.8,2.6c2.4,1.4,6.4,1.4,8.9,0
						C206.4,49.6,207,48.6,206.8,47.5z"/>
					<path id="XMLID_42135_" class="st26" d="M204.9,44.5c1,1,1.5,3.3,0,4.6c-1.5,1.3-4.6,2.3-7.2,2c2.4,0.7,5.3,0.5,7.3-0.7
						c1.4-0.8,2-1.9,1.8-2.9C206.7,46.4,205.9,45.4,204.9,44.5z"/>
				</g>
				<g id="XMLID_42118_">
					<path id="XMLID_42125_" class="st24" d="M194.3,121.4c0,1.5,1.1,2.8,2.4,3.8c1.5,1.1,2,2,3.9,2c1.8,0,2.4-0.9,3.9-2
						c1.3-1,2.4-2.3,2.4-3.8H194.3z"/>
					<path id="XMLID_42122_" class="st25" d="M206.8,121.1c-0.2-1.3-1.1-2.5-2.4-3.4c-1.5-1.1-2-2-3.9-2c-1.8,0-2.4,0.9-3.9,2
						c-1.2,0.9-2.2,2.1-2.4,3.4c0,0.1,0,0.2,0,0.4c0,0,0,0,0,0l0,0c0,0.9,0.6,1.9,1.8,2.6c2.4,1.4,6.4,1.4,8.9,0
						C206.4,123.2,207,122.1,206.8,121.1z"/>
					<path id="XMLID_42119_" class="st26" d="M204.9,118.1c1,1,1.5,3.3,0,4.6c-1.5,1.3-4.6,2.3-7.2,2c2.4,0.7,5.3,0.5,7.3-0.7
						c1.4-0.8,2-1.9,1.8-2.9C206.7,120,205.9,118.9,204.9,118.1z"/>
				</g>
				<g id="XMLID_42108_">
					<path id="XMLID_42115_" class="st24" d="M194.3,111.5c0,1.5,1.1,2.8,2.4,3.8c1.5,1.1,2,2,3.9,2c1.8,0,2.4-0.9,3.9-2
						c1.3-1,2.4-2.3,2.4-3.8H194.3z"/>
					<path id="XMLID_42112_" class="st25" d="M206.8,111.1c-0.2-1.3-1.1-2.5-2.4-3.4c-1.5-1.1-2-2-3.9-2c-1.8,0-2.4,0.9-3.9,2
						c-1.2,0.9-2.2,2.1-2.4,3.4c0,0.1,0,0.2,0,0.4c0,0,0,0,0,0l0,0c0,0.9,0.6,1.9,1.8,2.6c2.4,1.4,6.4,1.4,8.9,0
						C206.4,113.2,207,112.1,206.8,111.1z"/>
					<path id="XMLID_42109_" class="st26" d="M204.9,108.1c1,1,1.5,3.3,0,4.6c-1.5,1.3-4.6,2.3-7.2,2c2.4,0.7,5.3,0.5,7.3-0.7
						c1.4-0.8,2-1.9,1.8-2.9C206.7,110,205.9,109,204.9,108.1z"/>
				</g>
				<g id="XMLID_42098_">
					<path id="XMLID_42105_" class="st24" d="M194.3,101.5c0,1.5,1.1,2.8,2.4,3.8c1.5,1.1,2,2,3.9,2c1.8,0,2.4-0.9,3.9-2
						c1.3-1,2.4-2.3,2.4-3.8H194.3z"/>
					<path id="XMLID_42102_" class="st25" d="M206.8,101.1c-0.2-1.3-1.1-2.5-2.4-3.4c-1.5-1.1-2-2-3.9-2c-1.8,0-2.4,0.9-3.9,2
						c-1.2,0.9-2.2,2.1-2.4,3.4c0,0.1,0,0.2,0,0.4c0,0,0,0,0,0l0,0c0,0.9,0.6,1.9,1.8,2.6c2.4,1.4,6.4,1.4,8.9,0
						C206.4,103.3,207,102.2,206.8,101.1z"/>
					<path id="XMLID_42099_" class="st26" d="M204.9,98.2c1,1,1.5,3.3,0,4.6c-1.5,1.3-4.6,2.3-7.2,2c2.4,0.7,5.3,0.5,7.3-0.7
						c1.4-0.8,2-1.9,1.8-2.9C206.7,100,205.9,99,204.9,98.2z"/>
				</g>
				<g id="XMLID_42088_">
					<path id="XMLID_42095_" class="st24" d="M194.3,91.5c0,1.5,1.1,2.8,2.4,3.8c1.5,1.1,2,2,3.9,2c1.8,0,2.4-0.9,3.9-2
						c1.3-1,2.4-2.3,2.4-3.8H194.3z"/>
					<path id="XMLID_42092_" class="st25" d="M206.8,91.2c-0.2-1.3-1.1-2.5-2.4-3.4c-1.5-1.1-2-2-3.9-2c-1.8,0-2.4,0.9-3.9,2
						c-1.2,0.9-2.2,2.1-2.4,3.4c0,0.1,0,0.2,0,0.4c0,0,0,0,0,0l0,0c0,0.9,0.6,1.9,1.8,2.6c2.4,1.4,6.4,1.4,8.9,0
						C206.4,93.3,207,92.2,206.8,91.2z"/>
					<path id="XMLID_42089_" class="st26" d="M204.9,88.2c1,1,1.5,3.3,0,4.6c-1.5,1.3-4.6,2.3-7.2,2c2.4,0.7,5.3,0.5,7.3-0.7
						c1.4-0.8,2-1.9,1.8-2.9C206.7,90.1,205.9,89.1,204.9,88.2z"/>
				</g>
				<path id="XMLID_42085_" class="st22" d="M201.9,69.1l-2.7,1.5c0,0,0,17.1,0,17.1c0,0.2,0.1,0.4,0.4,0.5c0.5,0.3,1.4,0.3,1.9,0
					c0.3-0.1,0.4-0.3,0.4-0.5C201.9,87.8,201.9,69.1,201.9,69.1z"/>
				<polygon id="XMLID_42082_" class="st23" points="199.2,70.7 201.9,69.1 201.9,71.4 199.2,72.9 				"/>
			</g>
			<g id="XMLID_42144_">
				<path id="XMLID_42194_" class="st22" d="M214.6,34.4h-2.7c0,0,0,16.6,0,16.7c0,0.2,0.1,0.4,0.4,0.5c0.5,0.3,1.4,0.3,1.9,0
					c0.3-0.1,0.4-0.3,0.4-0.5C214.6,51.1,214.6,34.4,214.6,34.4z"/>
				<polygon id="XMLID_42191_" class="st23" points="211.9,39.3 214.6,37.7 214.6,48.3 211.9,49.8 				"/>
				<g id="XMLID_42197_">
					<path id="XMLID_42204_" class="st24" d="M207,40.6c0,1.5,1.1,2.8,2.4,3.8c1.5,1.1,2,2,3.9,2c1.8,0,2.4-0.9,3.9-2
						c1.3-1,2.4-2.3,2.4-3.8H207z"/>
					<path id="XMLID_42201_" class="st25" d="M219.5,40.2c-0.2-1.3-1.1-2.5-2.4-3.4c-1.5-1.1-2-2-3.9-2c-1.8,0-2.4,0.9-3.9,2
						c-1.2,0.9-2.2,2.1-2.4,3.4c0,0.1,0,0.2,0,0.4c0,0,0,0,0,0l0,0c0,0.9,0.6,1.9,1.8,2.6c2.4,1.4,6.4,1.4,8.9,0
						C219.1,42.3,219.7,41.2,219.5,40.2z"/>
					<path id="XMLID_42198_" class="st26" d="M217.7,37.2c1,1,1.5,3.3,0,4.6c-1.5,1.3-4.6,2.3-7.2,2c2.4,0.7,5.3,0.5,7.3-0.7
						c1.4-0.8,2-1.9,1.8-2.9C219.4,39.1,218.6,38.1,217.7,37.2z"/>
				</g>
				<g id="XMLID_42181_">
					<path id="XMLID_42188_" class="st24" d="M207,114.1c0,1.5,1.1,2.8,2.4,3.8c1.5,1.1,2,2,3.9,2c1.8,0,2.4-0.9,3.9-2
						c1.3-1,2.4-2.3,2.4-3.8H207z"/>
					<path id="XMLID_42185_" class="st25" d="M219.5,113.7c-0.2-1.3-1.1-2.5-2.4-3.4c-1.5-1.1-2-2-3.9-2c-1.8,0-2.4,0.9-3.9,2
						c-1.2,0.9-2.2,2.1-2.4,3.4c0,0.1,0,0.2,0,0.4c0,0,0,0,0,0l0,0c0,0.9,0.6,1.9,1.8,2.6c2.4,1.4,6.4,1.4,8.9,0
						C219.1,115.9,219.7,114.8,219.5,113.7z"/>
					<path id="XMLID_42182_" class="st26" d="M217.7,110.8c1,1,1.5,3.3,0,4.6c-1.5,1.3-4.6,2.3-7.2,2c2.4,0.7,5.3,0.5,7.3-0.7
						c1.4-0.8,2-1.9,1.8-2.9C219.4,112.6,218.6,111.6,217.7,110.8z"/>
				</g>
				<g id="XMLID_42171_">
					<path id="XMLID_42178_" class="st24" d="M207,104.1c0,1.5,1.1,2.8,2.4,3.8c1.5,1.1,2,2,3.9,2c1.8,0,2.4-0.9,3.9-2
						c1.3-1,2.4-2.3,2.4-3.8H207z"/>
					<path id="XMLID_42175_" class="st25" d="M219.5,103.8c-0.2-1.3-1.1-2.5-2.4-3.4c-1.5-1.1-2-2-3.9-2c-1.8,0-2.4,0.9-3.9,2
						c-1.2,0.9-2.2,2.1-2.4,3.4c0,0.1,0,0.2,0,0.4c0,0,0,0,0,0l0,0c0,0.9,0.6,1.9,1.8,2.6c2.4,1.4,6.4,1.4,8.9,0
						C219.1,105.9,219.7,104.8,219.5,103.8z"/>
					<path id="XMLID_42172_" class="st26" d="M217.7,100.8c1,1,1.5,3.3,0,4.6c-1.5,1.3-4.6,2.3-7.2,2c2.4,0.7,5.3,0.5,7.3-0.7
						c1.4-0.8,2-1.9,1.8-2.9C219.4,102.7,218.6,101.6,217.7,100.8z"/>
				</g>
				<g id="XMLID_42161_">
					<path id="XMLID_42168_" class="st24" d="M207,94.2c0,1.5,1.1,2.8,2.4,3.8c1.5,1.1,2,2,3.9,2c1.8,0,2.4-0.9,3.9-2
						c1.3-1,2.4-2.3,2.4-3.8H207z"/>
					<path id="XMLID_42165_" class="st25" d="M219.5,93.8c-0.2-1.3-1.1-2.5-2.4-3.4c-1.5-1.1-2-2-3.9-2c-1.8,0-2.4,0.9-3.9,2
						c-1.2,0.9-2.2,2.1-2.4,3.4c0,0.1,0,0.2,0,0.4c0,0,0,0,0,0l0,0c0,0.9,0.6,1.9,1.8,2.6c2.4,1.4,6.4,1.4,8.9,0
						C219.1,95.9,219.7,94.8,219.5,93.8z"/>
					<path id="XMLID_42162_" class="st26" d="M217.7,90.8c1,1,1.5,3.3,0,4.6c-1.5,1.3-4.6,2.3-7.2,2c2.4,0.7,5.3,0.5,7.3-0.7
						c1.4-0.8,2-1.9,1.8-2.9C219.4,92.7,218.6,91.7,217.7,90.8z"/>
				</g>
				<path id="XMLID_21044_" class="st22" d="M214.6,72.7l-2.7,1.5c0,0,0,15.3,0,15.3c0,0.2,0.1,0.4,0.4,0.5c0.5,0.3,1.4,0.3,1.9,0
					c0.3-0.1,0.4-0.3,0.4-0.5C214.6,89.6,214.6,72.7,214.6,72.7z"/>
				<polygon id="XMLID_20950_" class="st23" points="211.9,74.3 214.6,72.7 214.6,76.6 211.9,78.1 				"/>
				<g id="XMLID_42151_">
					<path id="XMLID_42158_" class="st24" d="M207,69.9c0,1.5,1.1,2.8,2.4,3.8c1.5,1.1,2,2,3.9,2c1.8,0,2.4-0.9,3.9-2
						c1.3-1,2.4-2.3,2.4-3.8H207z"/>
					<path id="XMLID_42155_" class="st25" d="M219.5,69.5c-0.2-1.3-1.1-2.5-2.4-3.4c-1.5-1.1-2-2-3.9-2c-1.8,0-2.4,0.9-3.9,2
						c-1.2,0.9-2.2,2.1-2.4,3.4c0,0.1,0,0.2,0,0.4c0,0,0,0,0,0l0,0c0,0.9,0.6,1.9,1.8,2.6c2.4,1.4,6.4,1.4,8.9,0
						C219.1,71.7,219.7,70.6,219.5,69.5z"/>
					<path id="XMLID_42152_" class="st26" d="M217.7,66.6c1,1,1.5,3.3,0,4.6c-1.5,1.3-4.6,2.3-7.2,2c2.4,0.7,5.3,0.5,7.3-0.7
						c1.4-0.8,2-1.9,1.8-2.9C219.4,68.4,218.6,67.4,217.7,66.6z"/>
				</g>
				<path id="XMLID_42148_" class="st22" d="M214.6,61.8l-2.7,1.5c0,0,0,2.9,0,2.9c0,0.2,0.1,0.4,0.4,0.5c0.5,0.3,1.4,0.3,1.9,0
					c0.3-0.1,0.4-0.3,0.4-0.5C214.6,66.2,214.6,61.8,214.6,61.8z"/>
				<polygon id="XMLID_42145_" class="st23" points="211.9,63.3 214.6,61.8 214.6,64 211.9,65.6 				"/>
			</g>
			<g id="XMLID_42207_">
				<path id="XMLID_41696_" class="st22" d="M227.3,96.7l-2.7,1.5c0,0,0,14.3,0,14.3c0,0.2,0.1,0.4,0.4,0.5c0.5,0.3,1.4,0.3,1.9,0
					c0.3-0.1,0.4-0.3,0.4-0.5C227.3,112.5,227.3,96.7,227.3,96.7z"/>
				<polygon id="XMLID_20953_" class="st23" points="224.6,98.2 227.3,96.7 227.3,99.9 224.6,101.5 				"/>
				<g id="XMLID_42260_">
					<path id="XMLID_42267_" class="st24" d="M219.7,38.3c0,1.5,1.1,2.8,2.4,3.8c1.5,1.1,2,2,3.9,2c1.8,0,2.4-0.9,3.9-2
						c1.3-1,2.4-2.3,2.4-3.8H219.7z"/>
					<path id="XMLID_42264_" class="st25" d="M232.2,37.9c-0.2-1.3-1.1-2.5-2.4-3.4c-1.5-1.1-2-2-3.9-2c-1.8,0-2.4,0.9-3.9,2
						c-1.2,0.9-2.2,2.1-2.4,3.4c0,0.1,0,0.2,0,0.4c0,0,0,0,0,0l0,0c0,0.9,0.6,1.9,1.8,2.6c2.4,1.4,6.4,1.4,8.9,0
						C231.8,40,232.4,39,232.2,37.9z"/>
					<path id="XMLID_42261_" class="st26" d="M230.4,34.9c1,1,1.5,3.3,0,4.6c-1.5,1.3-4.6,2.3-7.2,2c2.4,0.7,5.3,0.5,7.3-0.7
						c1.4-0.8,2-1.9,1.8-2.9C232.1,36.8,231.3,35.8,230.4,34.9z"/>
				</g>
				<g id="XMLID_42244_">
					<path id="XMLID_42251_" class="st24" d="M219.7,93.1c0,1.5,1.1,2.8,2.4,3.8c1.5,1.1,2,2,3.9,2c1.8,0,2.4-0.9,3.9-2
						c1.3-1,2.4-2.3,2.4-3.8H219.7z"/>
					<path id="XMLID_42248_" class="st25" d="M232.2,92.7c-0.2-1.3-1.1-2.5-2.4-3.4c-1.5-1.1-2-2-3.9-2c-1.8,0-2.4,0.9-3.9,2
						c-1.2,0.9-2.2,2.1-2.4,3.4c0,0.1,0,0.2,0,0.4c0,0,0,0,0,0l0,0c0,0.9,0.6,1.9,1.8,2.6c2.4,1.4,6.4,1.4,8.9,0
						C231.8,94.9,232.4,93.8,232.2,92.7z"/>
					<path id="XMLID_42245_" class="st26" d="M230.4,89.8c1,1,1.5,3.3,0,4.6c-1.5,1.3-4.6,2.3-7.2,2c2.4,0.7,5.3,0.5,7.3-0.7
						c1.4-0.8,2-1.9,1.8-2.9C232.1,91.6,231.3,90.6,230.4,89.8z"/>
				</g>
				<g id="XMLID_42234_">
					<path id="XMLID_42241_" class="st24" d="M219.7,83.1c0,1.5,1.1,2.8,2.4,3.8c1.5,1.1,2,2,3.9,2c1.8,0,2.4-0.9,3.9-2
						c1.3-1,2.4-2.3,2.4-3.8H219.7z"/>
					<path id="XMLID_42238_" class="st25" d="M232.2,82.8c-0.2-1.3-1.1-2.5-2.4-3.4c-1.5-1.1-2-2-3.9-2c-1.8,0-2.4,0.9-3.9,2
						c-1.2,0.9-2.2,2.1-2.4,3.4c0,0.1,0,0.2,0,0.4c0,0,0,0,0,0l0,0c0,0.9,0.6,1.9,1.8,2.6c2.4,1.4,6.4,1.4,8.9,0
						C231.8,84.9,232.4,83.8,232.2,82.8z"/>
					<path id="XMLID_42235_" class="st26" d="M230.4,79.8c1,1,1.5,3.3,0,4.6c-1.5,1.3-4.6,2.3-7.2,2c2.4,0.7,5.3,0.5,7.3-0.7
						c1.4-0.8,2-1.9,1.8-2.9C232.1,81.6,231.3,80.6,230.4,79.8z"/>
				</g>
				<g id="XMLID_42224_">
					<path id="XMLID_42231_" class="st24" d="M219.7,73.2c0,1.5,1.1,2.8,2.4,3.8c1.5,1.1,2,2,3.9,2c1.8,0,2.4-0.9,3.9-2
						c1.3-1,2.4-2.3,2.4-3.8H219.7z"/>
					<path id="XMLID_42228_" class="st25" d="M232.2,72.8c-0.2-1.3-1.1-2.5-2.4-3.4c-1.5-1.1-2-2-3.9-2c-1.8,0-2.4,0.9-3.9,2
						c-1.2,0.9-2.2,2.1-2.4,3.4c0,0.1,0,0.2,0,0.4c0,0,0,0,0,0l0,0c0,0.9,0.6,1.9,1.8,2.6c2.4,1.4,6.4,1.4,8.9,0
						C231.8,74.9,232.4,73.8,232.2,72.8z"/>
					<path id="XMLID_42225_" class="st26" d="M230.4,69.8c1,1,1.5,3.3,0,4.6c-1.5,1.3-4.6,2.3-7.2,2c2.4,0.7,5.3,0.5,7.3-0.7
						c1.4-0.8,2-1.9,1.8-2.9C232.1,71.7,231.3,70.7,230.4,69.8z"/>
				</g>
				<g id="XMLID_42214_">
					<path id="XMLID_42221_" class="st24" d="M219.7,63.2c0,1.5,1.1,2.8,2.4,3.8c1.5,1.1,2,2,3.9,2c1.8,0,2.4-0.9,3.9-2
						c1.3-1,2.4-2.3,2.4-3.8H219.7z"/>
					<path id="XMLID_42218_" class="st25" d="M232.2,62.8c-0.2-1.3-1.1-2.5-2.4-3.4c-1.5-1.1-2-2-3.9-2c-1.8,0-2.4,0.9-3.9,2
						c-1.2,0.9-2.2,2.1-2.4,3.4c0,0.1,0,0.2,0,0.4c0,0,0,0,0,0l0,0c0,0.9,0.6,1.9,1.8,2.6c2.4,1.4,6.4,1.4,8.9,0
						C231.8,65,232.4,63.9,232.2,62.8z"/>
					<path id="XMLID_42215_" class="st26" d="M230.4,59.9c1,1,1.5,3.3,0,4.6c-1.5,1.3-4.6,2.3-7.2,2c2.4,0.7,5.3,0.5,7.3-0.7
						c1.4-0.8,2-1.9,1.8-2.9C232.1,61.7,231.3,60.7,230.4,59.9z"/>
				</g>
				<path id="XMLID_42211_" class="st22" d="M227.3,54.5l-2.7,1.5c0,0,0,2.8,0,2.8c0,0.2,0.1,0.4,0.4,0.5c0.5,0.3,1.4,0.3,1.9,0
					c0.3-0.1,0.4-0.3,0.4-0.5C227.3,58.8,227.3,54.5,227.3,54.5z"/>
				<polygon id="XMLID_42208_" class="st23" points="224.6,56 227.3,54.5 227.3,56.7 224.6,58.3 				"/>
				<path id="XMLID_42257_" class="st22" d="M227.3,16.7h-2.7c0,0,0,16.6,0,16.7c0,0.2,0.1,0.4,0.4,0.5c0.5,0.3,1.4,0.3,1.9,0
					c0.3-0.1,0.4-0.3,0.4-0.5C227.3,33.3,227.3,16.7,227.3,16.7z"/>
				<polygon id="XMLID_42254_" class="st23" points="224.6,29.9 227.3,28.3 227.3,30.5 224.6,32 				"/>
			</g>
			<polygon id="XMLID_21238_" class="st20" points="115.7,188.6 115.7,88.4 100.6,79.7 100.6,179.9 			"/>
			<polygon id="XMLID_21237_" class="st19" points="100.6,79.7 228.9,5.6 244,14.3 115.7,88.4 			"/>
			<path id="XMLID_41372_" class="st21" d="M244,14.3L115.7,88.4v100.2L244,114.6L244,14.3z M119.5,182.1l0-91.5l120.8-69.7l0,91.5
				L119.5,182.1z"/>
		</g>
	</g>
	<g id="XMLID_42895_">
		<polygon id="XMLID_42898_" class="st27" points="99,102 96.5,100.8 79.1,195.4 81.7,196.6 		"/>
		<polygon id="XMLID_42897_" class="st28" points="81.7,196.6 84,195 101.3,100.5 99,102 		"/>
		<polygon id="XMLID_42896_" class="st28" points="96.5,100.8 98.8,99.2 101.3,100.5 99,102 		"/>
	</g>
	<g id="XMLID_42887_">
		<path id="XMLID_42894_" class="st28" d="M100.1,189.2l0.2,2.8l-15.2-7.3l-0.1-1.3c-0.1-0.7,0.7-1.2,1.3-0.9L100.1,189.2z"/>
		<path id="XMLID_42893_" class="st28" d="M100.1,175.7l0.2,2.8l-13.2-6.3l-0.1-1.3c-0.1-0.7,0.7-1.2,1.3-0.9L100.1,175.7z"/>
		<path id="XMLID_42892_" class="st28" d="M102.4,163.3l0.2,2.8l-13.2-6.3l-0.1-1.3c-0.1-0.7,0.7-1.2,1.3-0.9L102.4,163.3z"/>
		<path id="XMLID_42891_" class="st28" d="M104.7,150.8l0.2,2.8l-13.2-6.3l-0.1-1.3c-0.1-0.7,0.7-1.2,1.3-0.9L104.7,150.8z"/>
		<path id="XMLID_42890_" class="st28" d="M106.9,138.3l0.2,2.8l-13.2-6.3l-0.1-1.3c-0.1-0.7,0.7-1.2,1.3-0.9L106.9,138.3z"/>
		<path id="XMLID_42889_" class="st28" d="M109,125.8l0.2,2.8l-13.2-6.3L96,121c-0.1-0.7,0.7-1.2,1.3-0.9L109,125.8z"/>
		<path id="XMLID_42888_" class="st28" d="M111.2,113.3l0.2,2.8l-13.2-6.3l-0.1-1.3c-0.1-0.7,0.7-1.2,1.3-0.9L111.2,113.3z"/>
	</g>
	<g id="XMLID_42861_">
		<g id="XMLID_42884_">
			<path id="XMLID_42886_" class="st29" d="M100.4,113.6c-0.9,1.2-3,6.3-3.7,7.1c-0.7,0.8-2.8,1.7-5.5,2.4c-3.1,0.8-4.1-2.8-1.2-3.5
				c2.6-0.6,3.5-0.7,4.3-1.2c1.3-1.9,3.7-5.9,4.5-6.8c1-1.1,0-2.7,1.9-3.3c1.9-0.5,3.5,0.4,3.6,1.7l-0.9-0.4
				c-0.6,0.1-1.3,0.9-1.3,1.5c-0.1,1.1,1.1,1.1,1.7,1.4c0.6,0.3,0.8,0.9,0.7,1.2c-0.2,0.4-1.1-0.3-1.7-0.2
				C102.1,113.5,101.6,113.9,100.4,113.6z"/>
			<path id="XMLID_42885_" class="st30" d="M97.9,107.6"/>
		</g>
		<g id="XMLID_42880_">
			<g>
				<path id="XMLID_12_" class="st31" d="M89.7,163.2c0.4,0.5,1.8,1.2,2.8,0.7c0.8-0.4,1.7-1.2,2.7-1.9c3-1.3,3.6-2,4-2.8
					c0-0.3-0.1-0.9-0.3-1.2c-0.5-1.1-2.2-1.7-3.7-0.4c-2,0.4-3.4,0.9-3.4,0.9l-2.4,2.2c0,0.1,0,1.1,0.1,1.8
					C89.6,162.8,89.7,163.1,89.7,163.2z"/>
			</g>
		</g>
		<g id="XMLID_42876_">
			<g>
				<path id="XMLID_11_" class="st31" d="M98.1,151c0.4,0.5,1.8,1.2,2.8,0.7c0.8-0.4,1.7-1.2,2.7-1.9c3-1.3,3.6-2,4-2.8
					c0-0.3-0.1-0.9-0.3-1.2c-0.5-1.1-2.2-1.7-3.7-0.4c-2,0.4-3.4,0.9-3.4,0.9l-2.4,2.2c0,0.1,0,1.1,0.1,1.8
					C98,150.6,98,150.9,98.1,151z"/>
			</g>
		</g>
		<path id="XMLID_42875_" class="st31" d="M106.8,135.7c0,0-0.1,2.9-1.1,5c-1.1,2.1-3.9,5.5-3.9,6.7c0,0-1.2,2-3.8,1
			c0.1-2.2,1.1-4.7,2.4-7.5C100.3,140.9,103,135.3,106.8,135.7z"/>
		<path id="XMLID_42874_" class="st31" d="M98.5,137l-10.4-1.3c-0.1,4.9,1.4,13.8,1.4,13.8s-0.7,0.7-0.6,3.5
			c0.1,2.9,0.6,7.3,0.6,7.7c1.3,0.8,2.5-0.2,2.5-0.2c0.1-2.8,0.8-7.6,1.1-9.6c0.4-2.5,0.8-4.8,0.9-6.6l0.3-2.1
			c1.7,0.7,3.9-0.1,7.7-2.7c3.8-2.6,5.4-3.9,4.2-5.4c-1.2-1.5-8,0.6-8,0.6L98.5,137z"/>
		<path id="XMLID_42872_" class="st32" d="M94,120.1c2,1,3.3,2.2,3.7,7.1c0.4,4.9,0.7,9.8,0.7,9.8s-1.5,1.9-4.8,1.4
			s-5.6-2.8-5.6-2.8s0.7-2.5,1.1-4.3c0.4-1.8-1.3-4.4-1.8-8.2c-0.6-3.8,0.6-4.8,2.4-4.4C91.7,119.1,93.3,119.7,94,120.1z"/>
		<g id="XMLID_42869_">
			<path id="XMLID_42871_" class="st29" d="M89.4,115.8l0.5,4.9c0,0,0.5,1.2,3,0.2l-0.2-3.4L89.4,115.8z"/>
			<path id="XMLID_42870_" class="st33" d="M89.4,115.8l0.2,2.2c0.7,0.4,0.9,0.5,1.7,0.6c0.2,0,1.3,0.1,1.5,0.1l-0.1-1.2L89.4,115.8
				z"/>
		</g>
		<g id="XMLID_42862_">
			<path id="XMLID_42868_" class="st29" d="M89.6,116.8c-0.6-0.5-1-1.3-1.3-2.1c-0.3-0.9-0.4-1.9-0.4-2.9c0-0.8,0.1-1.7,0.6-2.3
				c0.7-0.8,1.9-0.9,2.9-0.6c0.5,0.1,0.9,0.3,1.3,0.5c0.5,0.3,0.8,0.9,1,1.4c0.7,1.7,1,3.4,1.1,5.2c0,0.3,0,0.6-0.2,0.8
				c-0.4,0.6-1.7,0.8-2.4,0.8c-0.9,0.1-1.8-0.1-2.5-0.6C89.8,117,89.7,116.9,89.6,116.8z"/>
			<path id="XMLID_42864_" class="st31" d="M89.9,114.4l0.6-0.1c0,0-0.3-1.5-1.1-2.2c0,0,1.1-0.4,1.1-1.9c0,0,1,0.6,2.7-0.3
				c1.7-0.9,0.6-2.7,0.3-2.8c-0.3-0.1-0.9-0.1-1.2,0.8c0,0-0.3-1.4-1.7-1.5c-1.4-0.1-1.2,1.5-1.2,1.5s-3.3,0.8-2.8,3.1
				c0,0-1,0.3-0.8,1.5s0.6,4.9,3.8,5.5c0,0-0.1-0.9-0.2-2.3L89.9,114.4z"/>
			<path id="XMLID_42863_" class="st29" d="M87.8,114.8c0.2,0.6,0.9,0.9,1.4,0.7c0.5-0.2,0.8-0.9,0.5-1.5c-0.2-0.6-0.9-0.9-1.4-0.7
				C87.8,113.6,87.6,114.2,87.8,114.8z"/>
		</g>
	</g>
	<g id="XMLID_42857_">
		<polygon id="XMLID_42860_" class="st27" points="114.3,109.4 111.7,108.2 94.4,202.7 96.9,204 		"/>
		<polygon id="XMLID_42859_" class="st28" points="96.9,204 99.2,202.4 116.6,107.8 114.3,109.4 		"/>
		<polygon id="XMLID_42858_" class="st28" points="111.7,108.2 114,106.6 116.6,107.8 114.3,109.4 		"/>
	</g>
	<g id="XMLID_42854_">
		<path id="XMLID_42856_" class="st29" d="M95.8,122.3c2.3-0.1,7.1-0.3,8.5-0.3c1.7-0.4,2.1-0.8,4.1-0.7c2,0.1,3,0.1,3.8,0.1
			c0.4,0,0.2-1.1,1.2-1.8c1-0.6,1.6-1.4,1.8-0.9c0.2,0.5-1.1,1.6-0.9,1.7c0.2,0.1,3-0.8,3.8-1.2c0.8-0.4,0.7,1.4,0.6,2.1
			c-0.2,1.2-2.7,2-3.6,2.2c-0.9,0.2-3.2,0.7-5.7,1.2c-2.5,0.5-3.8,0.7-4.9,0.8c-1,0.1-6.4,0.7-8.5,0.5
			C93,125.9,93.4,122.4,95.8,122.3z"/>
		<path id="XMLID_42855_" class="st34" d="M100.2,121.3c0,0-4.8,0-6,0.7c-1.2,0.8-1.3,2.9-0.2,3.8c1.1,0.9,3.3,0.8,6.2,0.6
			C100.1,126.5,101.8,123.1,100.2,121.3z"/>
	</g>
</g>
</svg>
