<?xml version="1.0" encoding="utf-8"?>
<!-- Generator: Adobe Illustrator 24.2.0, SVG Export Plug-In . SVG Version: 6.00 Build 0)  -->
<svg version="1.1" id="Layer_1" xmlns="http://www.w3.org/2000/svg" xmlns:xlink="http://www.w3.org/1999/xlink" x="0px" y="0px"
	 viewBox="0 0 320 306.2" style="enable-background:new 0 0 320 306.2;" xml:space="preserve">
<style type="text/css">
	.st0{fill:#94D7EB;}
	.st1{fill:#582D0F;}
	.st2{fill:#6C3B17;}
	.st3{fill:#45220F;}
	.st4{fill:#905A24;}
	.st5{fill:#A9692C;}
	.st6{fill:#7F4A1E;}
	.st7{fill:#814C1F;}
	.st8{fill:#93562B;}
	.st9{fill:#683515;}
	.st10{fill:#5A2D0F;}
	.st11{fill:#935627;}
	.st12{fill:#E29D2A;}
	.st13{fill:#F8CA80;}
	.st14{fill:#BB7731;}
	.st15{fill:#D19046;}
	.st16{fill:#B8874C;}
	.st17{opacity:0.48;fill:#74441C;}
	.st18{opacity:0.5;fill:url(#SVGID_1_);}
	.st19{fill:url(#SVGID_2_);}
	.st20{fill:url(#SVGID_3_);}
	.st21{fill:url(#SVGID_4_);}
	.st22{fill:url(#SVGID_5_);}
	.st23{fill:url(#SVGID_6_);}
	.st24{fill:url(#SVGID_7_);}
	.st25{fill:url(#SVGID_8_);}
	.st26{fill:url(#SVGID_9_);}
	.st27{fill:url(#SVGID_10_);}
	.st28{fill:url(#SVGID_11_);}
	.st29{fill:url(#SVGID_12_);}
	.st30{fill:url(#SVGID_13_);}
	.st31{fill:url(#SVGID_14_);}
	.st32{fill:url(#SVGID_15_);}
	.st33{fill:url(#SVGID_16_);}
	.st34{fill:url(#SVGID_17_);}
	.st35{fill:url(#SVGID_18_);}
	.st36{fill:url(#SVGID_19_);}
	.st37{fill:url(#SVGID_20_);}
	.st38{fill:url(#SVGID_21_);}
	.st39{fill:url(#SVGID_22_);}
	.st40{fill:url(#SVGID_23_);}
	.st41{fill:url(#SVGID_24_);}
	.st42{fill:url(#SVGID_25_);}
	.st43{fill:url(#SVGID_26_);}
	.st44{fill:url(#SVGID_27_);}
	.st45{fill:url(#SVGID_28_);}
	.st46{fill:url(#SVGID_29_);}
	.st47{fill:url(#SVGID_30_);}
	.st48{fill:url(#SVGID_31_);}
	.st49{fill:url(#SVGID_32_);}
	.st50{fill:url(#SVGID_33_);}
	.st51{fill:url(#SVGID_34_);}
	.st52{fill:url(#SVGID_35_);}
	.st53{fill:url(#SVGID_36_);}
	.st54{fill:url(#SVGID_37_);}
	.st55{fill:url(#SVGID_38_);}
	.st56{fill:url(#SVGID_39_);}
	.st57{fill:url(#SVGID_40_);}
	.st58{fill:none;}
	.st59{fill:url(#SVGID_41_);}
	.st60{fill:url(#SVGID_42_);}
	.st61{fill:url(#SVGID_43_);}
	.st62{fill:url(#SVGID_44_);}
	.st63{fill:url(#SVGID_45_);}
	.st64{fill:url(#SVGID_46_);}
	.st65{fill:url(#SVGID_47_);}
	.st66{fill:#FFFFFF;}
	.st67{opacity:0.5;fill:url(#SVGID_48_);}
	.st68{fill:url(#SVGID_49_);}
	.st69{fill:#F2A697;}
	.st70{fill:#EDBA9F;}
	.st71{fill:#333BB2;}
	.st72{fill:url(#SVGID_50_);}
	.st73{fill:url(#SVGID_51_);}
</style>
<path class="st0" d="M-188,20.8c-0.4,1.5-0.8,2.9-1.3,4.4C-188.7,23.8-188.3,22.3-188,20.8z"/>
<g>
	<path class="st1" d="M83.4,91.6c-0.2,1.2-0.7,2.5-0.8,3.8c-0.2,1.5-0.1,3.1-0.5,4.5l-0.2,0.1c0.8,0.4,2.9-0.5,3.9-0.5
		c1.4-0.1,3.2,0.6,2.8-1.1C88.1,95.6,85,93.9,83.4,91.6z"/>
	<path class="st1" d="M247.2,108.5c-2.1,1-4.3,1.7-5.9,3.3c-1.5,1.5-2.3,2.8,0,3.9c1.6,0.8,3.3,1,5.1,1.1c1.9,0.1,3.7-0.4,5.3,0.5
		c0-3.8,0.7-7.7,0.6-11.3C251.1,105.7,248.2,108,247.2,108.5z"/>
	<g>
		<path class="st2" d="M305.9,134.3l-4.5-1c-9.8-2.5-21-2.5-31.3-3c-22.9-1.1-44.8,2.4-65.2,11.4c-21.4,9.4-45.6,26.8-53.4,48.4
			c-5.5,15.2-9.6,32.8-6.9,48.9c2.8,17,12.7,33.8,12.5,51.1c10.4-2.1,18.5-13.6,29.4-16.9c0,0,8.3,5,19.2-3.5
			c14.6-11.5,29.3-24.8,46.6-29.2c19.2-4.9,26.9-23.3,37.1-29c8.3-17.6-2.3-21.3,5.7-34.3C305.1,160.6,300.4,148.3,305.9,134.3z"/>
		<path class="st1" d="M212.9,204.4c-3,8-3.3,24.1-5.6,32.4c-2.2,7.9-4.2,15.9-5.6,24c-0.5,2.9-1,5.8-1.2,8.8
			c-0.1,1.8,0.1,2.5,0.1,2.5c0.1,0.1,0.2,0.3,0.3,0.4c1.5-0.7,3-1.7,4.6-2.9c5.1-4,10.2-8.2,15.4-12.2c0.4-6.5,1.6-13,2.7-19.5
			c1.3-7.6,3.1-16.7-0.3-24C221.9,210.6,212.9,204.4,212.9,204.4z"/>
		<path class="st3" d="M217.7,259.9c0.8-5.5,1.8-11,2.7-16.5c1.4-8.7-5.1-24.2-7.1-31.8c-0.1,19.2-0.7,41-6.5,56.9
			C210.5,265.6,214.1,262.7,217.7,259.9z"/>
		<path class="st1" d="M305.9,134.3l-4.5-1c-0.3-0.1-0.6-0.1-0.9-0.2c-6.1,3.1-11.9,6.5-17.7,10.1c4.2,0.1,8,1,12,2.2
			c4.4,1.3,5.4,6,3.3,8.8c-4.5,17.4-21.8,28.7-26,46.2c-2.5,10.2-2.8,20.8-3.7,31.2c8.5-7.3,14.1-16.5,20.8-20.1
			c8.3-17.6-2.3-21.3,5.7-34.3C305.1,160.6,300.4,148.3,305.9,134.3z"/>
		<path class="st3" d="M299.9,166.2c-5.1,8.1-10.9,15.8-16.8,23.5c-3.3,11-6.7,21.9-9.7,32.9c5.4-8.6,11.8-16.2,19.1-23.3
			c0.4-8.2-3.3-12.8,2.4-22.2C297.3,173.3,298.9,169.6,299.9,166.2z"/>
		<path class="st1" d="M155.6,206c-0.4,0.1-0.8,0.1-1.2,0c-0.9,20.2-1.2,40.3-1.9,60.5c2.5,7.8,4.5,15.5,4.4,23.4
			c4.9-1,9.3-4.1,13.7-7.4c-0.1-1.3-0.2-2.6-0.3-3.8c-0.4-6-0.7-12.2-2.9-17.9c-1.8-4.8-5.1-9.4-6.1-14.4
			c-3.3-16.8,3.6-30.5,14.6-42.8C169.4,204.7,162.6,205.1,155.6,206z"/>
		<path class="st1" d="M230.5,250.5c3.9-2.5,7.9-4.8,12-6.7c0.3-4.3,0.7-8.6,1.3-12.9c1.5-10.4,5-18.9,8.8-28.7
			c3.4-8.7,1-18.1,4.3-26.7c2.6-6.8,6.1-12.9,8-19.6c-4.4,2.3-10,3.8-14.6,3.7c-5.6-0.1-11.3-0.8-16.7,0.9
			c0.3-0.1-15.9,3.5-11.8,5.1c1,0.1,5.4,1.2,6.3,1.5c0.5,0.2,13-0.3,13-0.3c-9.1,19.7-7.2,48.5-8.9,69.4
			C231.7,241.2,231.2,245.9,230.5,250.5z"/>
		<path class="st3" d="M230.5,250.5c1-0.6,2-1.3,3-1.9c0.5-8.4,1.8-16.6,2.8-25c1.1-9,1.5-18,3.5-26.9c3.4-15.2,7.3-26,20.7-36.2
			c1.1-0.8,2.2-1.2,3.4-1.4c0.4-1.1,0.7-2.1,1.1-3.2c-4.4,2.3-10,3.8-14.6,3.7c-5.6-0.1-11.3-0.8-16.7,0.9
			c0.3-0.1-15.9,3.5-11.8,5.1c1,0.1,5.4,1.2,6.3,1.5c0.5,0.2,13-0.3,13-0.3c-9.1,19.7-7.2,48.5-8.9,69.4
			C231.7,241.2,231.2,245.9,230.5,250.5z"/>
		<path class="st1" d="M193.7,225c4.7-11.1,3.3-22.2,11.8-33.2c1.9-2.5,15.1-16.3,15.6-19.2c-9.5,3.1-37.1,19.8-42.3,27.8
			c1,8.9,1.9,17.9,1.6,26.9c-0.2,9.1-1.6,18-0.5,27c0.8,6.7,2.1,13.4,3,20c0.9-0.4,1.8-0.8,2.8-1.1c-0.5-7.1,1.4-14,2.7-21.1
			C190.1,242.8,189.9,234,193.7,225z"/>
		<path class="st3" d="M202.9,184.3c0.1-0.4,0.1-0.9,0.2-1.3c-9.5,3.1-19,9.4-24.3,17.5c1,8.9,1.9,17.9,1.6,26.9
			c-0.2,9.1-1.6,18-0.5,27c0.8,6.7,2.1,13.4,3,20c0.8-0.4,1.6-0.7,2.5-1c-0.7-16.7-1-33.5-0.3-50.3
			C185.7,207.1,194,197.3,202.9,184.3z"/>
		<path class="st4" d="M154.5,191.2c-7.9-19.6-40.3-37.1-60.1-45.6c-19.9-8.4-46.8-8.4-68.3-9.3c-5.8-0.3-10.4-0.5-15.6-2
			c0,15.7,0.6,32.4,8.7,45.8c3.3,5.5,6.9,26.5,13.9,38.4c4.7,8.1,9.5,6.2,17,9c11.8,4.3,17.6,19.4,37.5,29.3
			c7.1,3.5,11.6,12.6,26.3,17c8.5,2.5,18.8,0.8,18.8,0.8c8.6,3.1,8.9,10.4,24.3,15.2c0.5-15.6-1-31.6-1-48.2
			C155.9,226.7,160.1,205.1,154.5,191.2z"/>
		<path class="st2" d="M74.9,248.6c3.5,2.9,7.6,5.7,12.6,8.2c4.3,2.1,7.6,6.3,12.8,10.2c-3.8-8.4-7.3-16.9-9.7-25.7
			c-3.1-11.5-4.2-23.6-7.7-35c0,0.1,0,0.2-0.1,0.4c1.8,5.8,2.6,12.9,1.8,19.9C84.7,236.3,82.5,245.2,74.9,248.6z"/>
		<path class="st5" d="M155.5,208.2c-2.6-1.8-6.7-4.7-10.1-5.4c0,0.2,0.1,0.5,0.1,0.9c0.1,0.4,0.3,0.8,0.4,1.2
			c0.4,0.4,0.9,0.7,1.3,1.2c10,12.7,6,28.1,6.5,42.6c0.5,12.5,2.3,24.9,3.2,37.4c0.2-14.4-1.1-29.1-1.1-44.4
			c0-9.4,1.6-21.5,1.5-32.6C156.8,208.9,156.1,208.6,155.5,208.2z"/>
		<path class="st5" d="M144.2,283.4c-0.9-10.4-2.3-20.7-2.8-31.1c-0.2-4.8,0.3-9.9,0.5-15.1c-3-8.6-6-17.2-7.2-26.2
			c-2.5-6.3-4.6-13.4,0.3-17c1.3-0.9,2.7-1.6,4.1-2c-0.9-0.5-1.8-0.9-2.9-1.2c-3.7,1.9-7.7,3.2-11.9,3.9c7.2,18.1,10.4,37.1,10,56.2
			c0.1,0.2,0.2,0.4,0.2,0.5c1.1,3.3,0.3,7.1-0.5,10.5c0.1,0.3,0.1,0.6,0.1,0.9c0,4.2-0.2,8.3-0.8,12.3
			C138,276.9,140.2,280.1,144.2,283.4z"/>
		<path class="st5" d="M12.4,134.8c-0.7-0.2-1.3-0.3-2-0.5c0,15.7,0.6,32.4,8.7,45.8c3.3,5.5,6.9,26.5,13.9,38.4
			c2.7,4.7,5.5,6,8.8,6.9c-7.1-13.3-19.9-33.6-12.1-47c-4.5-2.8-11.2-10.1-11.2-10.1c0,1.2-3.2-7.8-3.8-17.6
			c-0.2-4.5-0.2-8.9,0.4-13.4C14.1,136.5,13.2,135.7,12.4,134.8z"/>
		<path class="st5" d="M64,238.4c0.4-7,0.9-14,0.9-21c0.1-15.9-7.6-31.4-1.1-46.8c-1.4-1.3-2.7-2.6-3.7-4c-3.8-2-7.2-4.6-11.1-6.2
			c-0.1,2.2-0.3,4.4-0.6,6.6c0,0.2,0.1,0.5,0.1,0.7c3.5,8.9,5.2,18,6.9,27.5c0.2,0.4,0.4,0.9,0.5,1.4c0.5,2.2,0.9,4.5,1.4,6.7
			c0.5,0.8,0.9,1.7,0.9,2.8c0.6,9.3,1.7,18.4,1,27.6C60.8,235.1,62.4,236.7,64,238.4z"/>
		<path class="st6" d="M56.1,149.5c-5.5-0.8-19.1-2.4-20.4-2.4c1,9,1.9,18.1,4.5,26.8c2.8,9.2,8,17.4,11.4,26.4
			c4,10.9,6.1,22.1,7.7,33.4c1,0.9,1.9,1.8,2.9,2.8c-0.5-18.2-1.5-36.5-5.8-54.2c-2.4-10.2-3.6-13.5-4.5-20
			C52.9,161,57.1,149.7,56.1,149.5z"/>
		<path class="st1" d="M56.1,149.5c-5.5-0.8-36.4-9.6-37.7-9.6c4.1,6.4,14.9,11.3,18.8,12.3c10,3.2,9.9,9.1,11.7,16.2
			c2.4,9.2,4.7,18.6,6.8,27.9c2.7,12.2,5.6,25.9,5.4,39.1c0.4,0.3,0.7,0.7,1.1,1c-0.5-18.2-1.5-36.5-5.8-54.2
			C54,172,53,168.4,52.1,161.9C53.1,160.7,57.1,149.7,56.1,149.5z"/>
		<path class="st6" d="M148.7,186.4c-10.2,0.3-41.7-4-39.3,1.8c7.1,9.4,14.5,23.3,19.3,49.6c2.2,12.4,2.4,24.4,3.9,36.9
			c0.6,0.3,2.2,1,2.7,1.3c0.7-6.6,1.7-13.2,2.3-20c1.7-18.9-5.2-40-7.1-58.8C130.6,197.2,145.4,190.2,148.7,186.4z"/>
		<path class="st1" d="M148.7,186.4c-10.2,0.3-58.5-16.9-68.1-13.8c0,0,11.7,7.6,11.7,7.6c10.4,3.6,27,16.8,26.9,17.2
			c2.4,1.3,11.2,20,12.9,27.7c3.5,15.9,5.1,34,1.8,50.2c0.5,0.2,0.9,0.5,1.4,0.7c0.7-6.6,1.7-13.2,2.3-20c1.7-18.9-5.2-40-7.1-58.8
			C130.6,197.2,145.4,190.2,148.7,186.4z"/>
		<path class="st7" d="M257.4,228.7c5-0.4,16.2-23.9,21.1-25.6c4.9-1.7,14.6-7.1,17.6-11.1c2.9-3.9,2.7-7.1,5-11.3
			c2.3-4.3,4.7-4.2,7.9-8.1c3.3-4-3.2-17.7-3.2-17.7l-24.6,8.1c-2.6,1-5.3,1.9-8,2.8c-1.4,0.5-2.9,1-4.3,1.6
			c-5.7,2.2-11.5,4.2-17.5,5.9c-0.2,0-0.4,0.1-0.6,0.1c-0.5,0.2-0.9,0.2-1.3,0.1l-0.5,0.2c0,0,0.2,6-0.1,7.6c-0.5,2.7-2.7,4.7-3,7.6
			c-0.8,6,2.4,36.4,0.6,42C252.8,230.5,251.2,229.2,257.4,228.7z"/>
		<path class="st8" d="M258.5,214.7c-1.4,4.7-2.6,9.5-3.3,14.3c0.6-0.1,1.3-0.2,2.2-0.3c0.6-0.1,1.2-0.4,1.9-0.9
			c2.3-8.9,7-17,11.8-25.4c3.5-6.2,6.3-12.5,8.8-19.1c1.1-3,3.1-4.6-2.6-5.1c-3-0.2-6-0.4-9-0.5c4,4.8,7.5,8.4,3.9,15.2
			C268.2,200.2,260.9,206.7,258.5,214.7z"/>
		<path class="st9" d="M257.9,228.6c5.2-1.8,15.9-23.9,20.6-25.5c4.9-1.7,14.6-7.1,17.6-11.1c2.9-3.9,2.7-7.1,5-11.3
			c2.3-4.3,4.7-4.2,7.9-8.1c3.3-4-3.2-17.7-3.2-17.7c0-0.7-16.1,5.2-28.6,14.5c-2.6,2.7-0.3,9.7-0.3,10.4c0.5,8.8-1.3,13.4-8.6,23.1
			C262.4,210.7,259.5,219.4,257.9,228.6z"/>
		<path class="st1" d="M284.5,176.2c-0.1,0-0.2-0.1-0.2-0.2c-0.6-0.4-1.2-0.8-1.8-1.2c-1.9-0.6-4.2,0.3-6.3,0.7
			c0.3,2.1,0.8,3.9,0.8,4.3c0.5,8.8-1.3,13.4-8.6,23.1c-5.9,7.8-8.9,16.5-10.4,25.7c2.3-0.8,5.7-5.6,9.2-10.8
			c-2.6-9,4.7-17.5,10.9-24.9C279.9,187.2,281.5,181.4,284.5,176.2z"/>
		<path class="st9" d="M235.3,205.3c-7.4,2.6-15.4,0.3-22.4-0.9c-0.5,5.1,0.9,12.3,1.4,17.9c0.6,6,3.2,31.7,3.4,37.5
			c4.9,1.6,8.6,0.1,13.3-3c3.3-2.1,5-15.7,7.6-25.3c2.2-8.4,15.6-20.3,15.9-29l-0.5,0.4C247.8,198.2,240.8,203.4,235.3,205.3z"/>
		<path class="st1" d="M224.8,260c1.5-0.4,3.1-1.2,4.7-2.1c0-7,0.5-14,0.9-21c0.3-4,0-9,1.7-12.8c3.8-8.7,14.5-11.4,21.6-17.5
			c0.5-1.2,0.8-2.4,0.9-3.6c-6.3,5-14.8,8.6-23,9.4c0,0.2-0.1,0.4-0.1,0.6C226.3,228.4,225.2,244.1,224.8,260z"/>
		<path class="st7" d="M214.3,222.3c0.6,6,3.2,31.7,3.4,37.5c3.2,1,5.9,0.7,8.7-0.4c0.1-18.2,3.2-38.6,9.8-55.9
			c-7,1.8-16.8,2-23.3,0.9C212.4,209.5,213.8,216.8,214.3,222.3z"/>
		<path class="st8" d="M224.6,260.1c0.6-0.2,1.2-0.4,1.9-0.6c0.1-14.7,2.2-30.8,6.5-45.5c-3.2,0.3-6.5,0-9.2-1
			c4.7,6.2,4.3,12.3,3,19.4C224.9,241.5,224.8,250.8,224.6,260.1z"/>
		<path class="st2" d="M41.4,194c0.7,6.3,5,14.8,8,20.8c2.8,5.7,5.6,11.5,8.8,20.1c0.7,0,2.2,0.7,2.9,0.6
			c-0.1-7.4,0.2-13.5-1.2-20.9c-3-15.8-4.7-21.6-6.8-29.4C49.5,187.3,45.5,192.5,41.4,194z"/>
		<path class="st10" d="M53.4,186.2c-0.1-0.4-0.2-0.7-0.3-1.1c-3.7,2.2-7.6,7.3-11.7,8.8c0.7,6.3,5,14.8,8,20.8
			c2.8,5.7,5.6,11.5,8.8,20.1c0.2,0,0.4,0,0.7,0.1c-2.3-8.7-4.3-17.3-7-26c-1-3.3-2.8-7.5-1.9-11C51,193.9,53.1,190.4,53.4,186.2z"
			/>
		<path class="st6" d="M25.4,188.9c6.1,7.5,13.3,14.7,17.2,23.2c3.2,6.9,7.2,20.5,15.6,22.7c-3.2-11.8-9.7-27.3-12.3-36
			C44.4,194.2,35.1,180,25.4,188.9z"/>
		<path class="st6" d="M25.2,189.1c0.1-0.1,0.1-0.1,0.2-0.1c0,0,0,0,0,0L25.2,189.1z"/>
		<path class="st11" d="M25.4,188.9c0.1,0.2,0.3,0.3,0.4,0.5c0.4,0,0.8,0,1.2,0.2c13.2,5.2,18.3,11.8,22.2,24
			c2,6.2,4.7,11.9,7.8,17.7c0.2,0.4,0.4,0.8,0.6,1.3c-3.4-11.5-9.2-25.6-11.7-33.8C44.4,194.2,35.1,180,25.4,188.9z"/>
		<path class="st6" d="M144.9,272c-0.4-11.7,4.8-25.2,7.5-36c-6.7,0.2-7.8-7.5-9.8-12.4c-2-4.7-3.2-11-4.9-15l-0.8-0.3
			c2,5.4,2.1,12,3.9,17.8c0.8,2.5,1.5,5,2.6,7.4c0.4,0.9,0.8,2,1.5,2.7c0.8,0.8,2.6,0.9,3,1.7c0.7,1.4-1.2,5-1.7,6.6
			c-0.9,3-1.4,5.1-1.4,8.3c0,3.5,0.2,7.1,0,10.6C144.8,265.9,143.7,269.5,144.9,272z"/>
		<path class="st2" d="M79.5,188.2c-0.5-2.3-1.1-13.4-1.8-15.6c-2-1.2-5.7-0.9-7.9-1.6c-1.3-0.4-6.4-1-5.7-0.3l-0.4-0.3
			c0.8,2.2,0,15.9,0,18.2c1.6-0.3,4.4-8.8,6.1-8.7c0.2,4.2,0.9,8.3-0.4,11.9c4.8,2.5,3,6.4,2.6,10.6c-0.5,4.9,3.2,2.1,2.8,7
			c-0.3,4-3.9,15.4-3.3,19.4c0,0,3.4,8.2,3.3,10.6c0,0.4,0.1,0.1,0.4-0.5c-3.1-10.6,0.6-21.1,4.1-31.4c-0.1-2.1-0.1-4.2,0-6.3
			c0.1-1.5,0.1-3,0.2-4.4C78.5,191.4,79.7,193.5,79.5,188.2z"/>
		<path class="st12" d="M305.1,134.4c-9.3-8.9-35.8-20.8-43.8-24.3l-17.6,2.8c2.1-1.5,6.9-5.2,8.6-7c-16.2-15.8-37.7-16.1-51-26.6
			c-6.6-5.2-36.4-18.3-44.3-23.1c-18.1,9.8-31.4,9.7-39.2,19.2c-7.8,9.4-23.4,10.5-34.3,16.2c0.6,1.4,2,4.6,2.7,6
			c-13.8-2.2-31,11-44.3,19.1c-11.6,7-31.8,17.1-31.8,17.1c15.2,15,28.3,17.6,43.7,19.7c1.1,2.6-3,6.7-0.9,10.9
			c6.5,13.2,55.1,18.9,66.6,30.9c2.8,2.9,17.3-3.7,17.3-3.7c0,2.4-6.1,5.7-6.1,5.7c14.3,7.5,21.1,15,27.2,14.2
			c6-0.8,22.4-9.7,27.7-12.7c10.4-5.8,13.7-12,24.8-15.8c13.6-4.6,20.8-4.9,30.7-15.9c-5.6-0.5-10.6-1.6-16.4-1.5
			c14.1-5.9,30.8-1.8,45-9.4C280.9,150,292.2,136.7,305.1,134.4z"/>
		<path class="st13" d="M297.6,136.9c-7,1.4-13.3,7.1-19.1,10.8c-8.3,5.3-14.9,10-25.2,11.3c-6.5,0.8-24.3,2.7-27.3,4.4
			c-2.7,1.5-5.2,2.8-2.1,3c7.9,0.6,14.1,2.1,14.1,2.1c-13.8,11-28.7,10.4-32.8,12.8c-4.6,2.6-7.8,6.3-11.6,9.7
			c-5.2,4.6-28.8,16.9-35.9,18.1c-5.3,0.9-7.2-4.7-21.1-11c-3.3-1.5,3.9-7.5,4.4-8.9c-5,0.7-9.7,2-14.6,3.9c-2,0.8-6.5,0.6-8-0.6
			c-11.9-10.6-43.7-16.5-52.2-19.8c-4.7-1.8-11.6-5.7-12.2-10.5c-0.4-2.9,1.4-5.3,2.3-8.1c1.4-4-6-3.2-8.2-3.6
			c-8.2-1.6-29.9-8-38-16.6c0,0,0,0,0,0c15.2,15,28.3,17.6,43.7,19.7c1.1,2.6-3,6.7-0.9,10.9c6.5,13.2,55.1,18.9,66.6,30.9
			c2.8,2.9,17.3-3.7,17.3-3.7c0,2.4-6.1,5.7-6.1,5.7c14.3,7.5,21.1,15,27.2,14.2c6-0.8,22.4-9.7,27.7-12.7
			c10.4-5.8,13.7-12,24.8-15.8c13.6-4.6,20.8-4.9,30.7-15.9c-5.6-0.5-10.6-1.6-16.4-1.5c14.1-5.9,30.8-1.8,45-9.4
			C278.6,151.2,287.7,141.7,297.6,136.9z"/>
		<path class="st1" d="M296.2,192c2.9-3.9,2.7-7.1,5-11.3c2.3-4.3,4.7-4.2,7.9-8.1c3.3-4-3.2-17.7-3.2-17.7c0-0.1-0.5,0-1.4,0.3
			c-1.6,3.2-3.6,6.3-6.4,8.5c1.9,3.5,3.9,8.1,3.5,8.9c-2.6,6.2-5.1,9.6-6.8,14c-0.5,1.7,0.4,5.3-0.2,7
			C295.3,193,295.8,192.5,296.2,192z"/>
		<path class="st3" d="M282.4,196.9c5.1-9.1,10.3-18.1,12.5-28.2c-5,1.1-12.5-0.8-17.7,0c-1.7,1.8,8.2,3.6,9,5.5
			c0,0-0.5,4.3-0.8,5.8C284.4,185.7,283.4,191.3,282.4,196.9z"/>
		<path class="st14" d="M280.6,170.1c1.1-0.5,13.3,0.1,14.5-0.5c8.4-3.5,8.6-7.6,10.7-10.8c3-4.7-3.5-6.6-11.8-5.9
			c-9.5,9.9-30,16.5-45,20.7c4.5,4.1,12,0.8,15.8,3.1c5.7,3.6,12.2,3.1,12.2,3.1s6.7-3.5,9.2-5.5
			C287.5,173.2,278.5,171.1,280.6,170.1z"/>
		<path class="st15" d="M280.6,170.1c1.1-0.5,13.3,0.1,14.5-0.5c7-2.9,8.3-6.2,9.8-9.1c-3.5,4.9-7.6,8.1-20.2,6.7c0,0,0,0-0.1,0
			c-2.5,0.4-4.8,0.9-7.3,1.8c-0.1,0-0.2,0-0.3,0.1c1.4,1.2,2.4,3,4.4,3.6c5.3,1.6-2.4,5.7-4.4,5.9c-2.7,0.3-9.4-3-12.2-3.2
			c-5.2-0.5-3.4,0.4-8.6-0.5c-1.7-0.3-4.2-1.3-5.9-1.5c-0.4,0.1-0.8,0.2-1.2,0.3c4.5,4.1,12,0.8,15.8,3.1c5.7,3.6,12.2,3.1,12.2,3.1
			s6.7-3.5,9.2-5.5C287.5,173.2,278.5,171.1,280.6,170.1z"/>
		<path class="st14" d="M234.2,198.2c0,0-5.9,3-8.9,4.1c-3.5,1.4-8.5,2.9-12.4,2.2c0.3,0.9,1.1,2.5,2,3.4c4.3,4.6,14.9,8.6,20.9,6.4
			c3.9-1.4,16.9-7.3,18.6-10.7C256.6,198.7,238.4,196.7,234.2,198.2z"/>
		<path class="st15" d="M214.2,204.6c-0.4,0-0.9-0.1-1.3-0.2c0.3,0.9,1.1,2.5,2,3.4c4.3,4.6,14.9,8.6,20.9,6.4
			c3.4-1.2,13.6-5.8,17.3-9.2C241.9,212.7,223.3,215.1,214.2,204.6z"/>
		<path class="st12" d="M30,190.7c5.7,1.2,11.1,5.1,15.8,8.1c3.2-3.7,7.3-8.1,7.3-13.7c-4.1-1.5-9-3.7-11.4-7
			C32.8,181.7,17.3,189.1,30,190.7z"/>
		<path class="st13" d="M43.8,195.7c-2.7-2.2-9.6-4.9-15.5-6.1c-3-0.6-2.6-1.6-2.8-2.1c-0.7,1.5,0.4,2.6,4.6,3.2
			c5.7,1.2,11.1,5.1,15.8,8.1c3.1-3.6,7.1-7.9,7.2-13.3c-1.3,3.5-2.2,4.5-4.1,7.6C48.1,194.5,45.1,196.8,43.8,195.7z"/>
		<path class="st2" d="M108.4,206.3c-2.3,2.2-3.6,4.1-5,6.8c-3.4,6.8-5.1,11.7-3.2,19.5c2.3,9.3,5.9,18.2,9.3,27.3
			c2.3,6.2,5.7,17.8,12,21.8c2.5-2.1,5.7-4.2,7.9-6.6c-4-10.4-6.2-23.7-7.4-35.2c-1.3-11.6-3.4-23.7-4.4-35.2
			C114.7,203.6,110.1,204.6,108.4,206.3z"/>
		<path class="st10" d="M117.6,206c0-0.5-0.1-0.9-0.2-1.4c-2.8-1.1-7.4,0-9.1,1.6c-2.3,2.2-3.6,4.1-5,6.8
			c-3.4,6.8-5.1,11.7-3.2,19.5c2.3,9.3,5.9,18.2,9.3,27.3c2.3,6.2,5.7,17.8,12,21.8c2.1-1.8,4.7-3.6,6.8-5.5
			c-8.1-5.6-8.6-15.9-12.2-25c-3-7.5-5.4-14.9-5.3-23c0.1-7.8,4-13.5,6.3-20.8C117.2,206.8,117.4,206.4,117.6,206z"/>
		<path class="st6" d="M103.2,210.4c-3.6-2-9.3-2.9-13.3-5.2c-3.5-2-20-8.7-24.2-8.3c0.7,11.2,12.3,25,17.5,37
			c5.6,12.9,10,21.2,13.9,34.5c1.4,4.7,12.2,3.7,17.2,12.7l7.1,0.5c0,0-1.5-8.8-2.6-12.3c-1.4-4.4-9.2-30.7-11.2-39.3
			C106.3,224.5,108.8,213.5,103.2,210.4z"/>
		<path class="st11" d="M106.3,214.6c-3,0.8-6.2,0.9-9.4,0.8c9.7,8.1,11.9,22.4,14.1,33.7c2.2,11.2,7,21.6,9.8,32.5l0.7,0.1
			c0,0-1.5-8.8-2.6-12.3c-1.4-4.4-9.2-30.7-11.2-39.3C106.7,226,107.7,219.2,106.3,214.6z"/>
		<path class="st12" d="M66.7,194.4c-4.5,3.7,7.2,16.3,13.9,19.3c7,3.2,16.4,3.8,24.1,3c7-0.7,13.1-12.6,13.1-12.6
			c-4.1-2.5-13.1-3.5-19.5-7.3c-8.3-5-18.6-10.2-18.6-10.2C75.1,190.7,71.1,190.8,66.7,194.4z"/>
		<path class="st13" d="M66.7,194.4c-4.5,3.7,7.2,16.3,13.9,19.3c7,3.2,16.4,3.8,24.1,3c5.5-0.6,10.5-8.2,12.4-11.3
			c-9.3,10.3-17.7,11.6-35,6c-5.2-1.7-17.1-8.7-14.1-18C67.5,193.8,67.1,194.1,66.7,194.4z"/>
	</g>
	<path class="st16" d="M162.7,141.9c0.2-0.1,0.5-0.2,0.8-0.3c-0.1-0.1-0.3-0.1-0.4-0.2L162.7,141.9z"/>
	<path class="st16" d="M240.1,147.9c-0.1,0.2-0.2,0.4-0.4,0.5C240,148.2,240,148,240.1,147.9z"/>
	<path class="st17" d="M136.6,118.4c0.2,0.1,0.3,0.1,0.5,0.1c-0.2-0.3-0.4-0.6-0.5-0.9V118.4z"/>
	<g>
		
			<linearGradient id="SVGID_1_" gradientUnits="userSpaceOnUse" x1="161.6953" y1="143.5126" x2="55.7729" y2="282.4862" gradientTransform="matrix(1 -7.700000e-03 7.700000e-03 1 3.730000e-02 5.4797)">
			<stop  offset="0.1187" style="stop-color:#D4DFF2"/>
			<stop  offset="0.1727" style="stop-color:#DBE3F1"/>
			<stop  offset="0.307" style="stop-color:#E7EBF1"/>
			<stop  offset="0.4947" style="stop-color:#EEEFF0"/>
			<stop  offset="1" style="stop-color:#F0F0F0"/>
		</linearGradient>
		<path class="st18" d="M205.1,149.5l-48.5,29.8l-19.5,11.6c-6.1,3.6-13.7,3.8-19.9,0.4l-12.6-5.7c-6.4-3.5-6.7-12.6-0.5-16.4
			l16.7-10.3l48.5-29.8L205.1,149.5z"/>
		<g>
			<linearGradient id="SVGID_2_" gradientUnits="userSpaceOnUse" x1="147.2383" y1="128.865" x2="147.3929" y2="128.865">
				<stop  offset="0" style="stop-color:#840038"/>
				<stop  offset="5.864056e-02" style="stop-color:#8E043C"/>
				<stop  offset="0.3636" style="stop-color:#BE1552"/>
				<stop  offset="0.6329" style="stop-color:#E02261"/>
				<stop  offset="0.8538" style="stop-color:#F5296B"/>
				<stop  offset="0.9987" style="stop-color:#FD2C6E"/>
			</linearGradient>
			<path class="st19" d="M147.2,127.9c0,0.7,0.1,1.3,0.2,1.9C147.3,129.2,147.3,128.5,147.2,127.9z"/>
			<linearGradient id="SVGID_3_" gradientUnits="userSpaceOnUse" x1="147.0565" y1="125.3347" x2="147.1579" y2="125.3347">
				<stop  offset="0" style="stop-color:#840038"/>
				<stop  offset="5.864056e-02" style="stop-color:#8E043C"/>
				<stop  offset="0.3636" style="stop-color:#BE1552"/>
				<stop  offset="0.6329" style="stop-color:#E02261"/>
				<stop  offset="0.8538" style="stop-color:#F5296B"/>
				<stop  offset="0.9987" style="stop-color:#FD2C6E"/>
			</linearGradient>
			<path class="st20" d="M147.1,123.8c0,1,0,2.1,0.1,3.1C147.1,125.9,147.1,124.8,147.1,123.8z"/>
			<linearGradient id="SVGID_4_" gradientUnits="userSpaceOnUse" x1="147.5397" y1="131.8302" x2="147.7583" y2="131.8302">
				<stop  offset="0" style="stop-color:#840038"/>
				<stop  offset="5.864056e-02" style="stop-color:#8E043C"/>
				<stop  offset="0.3636" style="stop-color:#BE1552"/>
				<stop  offset="0.6329" style="stop-color:#E02261"/>
				<stop  offset="0.8538" style="stop-color:#F5296B"/>
				<stop  offset="0.9987" style="stop-color:#FD2C6E"/>
			</linearGradient>
			<path class="st21" d="M147.5,131c0.1,0.6,0.1,1.1,0.2,1.7C147.7,132.1,147.6,131.6,147.5,131z"/>
			<linearGradient id="SVGID_5_" gradientUnits="userSpaceOnUse" x1="208.061" y1="26.8515" x2="208.8443" y2="26.8515">
				<stop  offset="4.527000e-03" style="stop-color:#058BA0"/>
				<stop  offset="0.4104" style="stop-color:#1EA9BE"/>
				<stop  offset="1" style="stop-color:#47DAF0"/>
			</linearGradient>
			<path class="st22" d="M208.8,26.7c-0.3,0.1-0.5,0.2-0.8,0.3C208.3,26.9,208.6,26.8,208.8,26.7L208.8,26.7z"/>
			<linearGradient id="SVGID_6_" gradientUnits="userSpaceOnUse" x1="148.5287" y1="137.2758" x2="148.8667" y2="137.2758">
				<stop  offset="0" style="stop-color:#840038"/>
				<stop  offset="5.864056e-02" style="stop-color:#8E043C"/>
				<stop  offset="0.3636" style="stop-color:#BE1552"/>
				<stop  offset="0.6329" style="stop-color:#E02261"/>
				<stop  offset="0.8538" style="stop-color:#F5296B"/>
				<stop  offset="0.9987" style="stop-color:#FD2C6E"/>
			</linearGradient>
			<path class="st23" d="M148.5,136.6c0.1,0.5,0.2,1,0.3,1.4C148.7,137.5,148.6,137,148.5,136.6z"/>
			<linearGradient id="SVGID_7_" gradientUnits="userSpaceOnUse" x1="147.9688" y1="134.6182" x2="148.2507" y2="134.6182">
				<stop  offset="0" style="stop-color:#840038"/>
				<stop  offset="5.864056e-02" style="stop-color:#8E043C"/>
				<stop  offset="0.3636" style="stop-color:#BE1552"/>
				<stop  offset="0.6329" style="stop-color:#E02261"/>
				<stop  offset="0.8538" style="stop-color:#F5296B"/>
				<stop  offset="0.9987" style="stop-color:#FD2C6E"/>
			</linearGradient>
			<path class="st24" d="M148,133.8c0.1,0.5,0.2,1,0.3,1.6C148.1,134.9,148.1,134.4,148,133.8z"/>
			<linearGradient id="SVGID_8_" gradientUnits="userSpaceOnUse" x1="201.6861" y1="29.5264" x2="204.3788" y2="29.5264">
				<stop  offset="4.527000e-03" style="stop-color:#058BA0"/>
				<stop  offset="0.4104" style="stop-color:#1EA9BE"/>
				<stop  offset="1" style="stop-color:#47DAF0"/>
			</linearGradient>
			<path class="st25" d="M201.7,30.3c0.9-0.5,1.8-1,2.7-1.5C203.5,29.2,202.6,29.7,201.7,30.3z"/>
			<linearGradient id="SVGID_9_" gradientUnits="userSpaceOnUse" x1="149.205" y1="139.7849" x2="149.6035" y2="139.7849">
				<stop  offset="0" style="stop-color:#840038"/>
				<stop  offset="5.864056e-02" style="stop-color:#8E043C"/>
				<stop  offset="0.3636" style="stop-color:#BE1552"/>
				<stop  offset="0.6329" style="stop-color:#E02261"/>
				<stop  offset="0.8538" style="stop-color:#F5296B"/>
				<stop  offset="0.9987" style="stop-color:#FD2C6E"/>
			</linearGradient>
			<path class="st26" d="M149.2,139.1c0.1,0.4,0.3,0.9,0.4,1.3C149.5,140,149.3,139.6,149.2,139.1z"/>
			<linearGradient id="SVGID_10_" gradientUnits="userSpaceOnUse" x1="234.4334" y1="25.8144" x2="235.5627" y2="25.8144">
				<stop  offset="0" style="stop-color:#840038"/>
				<stop  offset="5.864056e-02" style="stop-color:#8E043C"/>
				<stop  offset="0.3636" style="stop-color:#BE1552"/>
				<stop  offset="0.6329" style="stop-color:#E02261"/>
				<stop  offset="0.8538" style="stop-color:#F5296B"/>
				<stop  offset="0.9987" style="stop-color:#FD2C6E"/>
			</linearGradient>
			<path class="st27" d="M234.4,25.5c0.4,0.2,0.8,0.4,1.1,0.5C235.2,25.9,234.8,25.7,234.4,25.5z"/>
			<linearGradient id="SVGID_11_" gradientUnits="userSpaceOnUse" x1="232.4884" y1="24.9964" x2="233.643" y2="24.9964">
				<stop  offset="0" style="stop-color:#840038"/>
				<stop  offset="5.864056e-02" style="stop-color:#8E043C"/>
				<stop  offset="0.3636" style="stop-color:#BE1552"/>
				<stop  offset="0.6329" style="stop-color:#E02261"/>
				<stop  offset="0.8538" style="stop-color:#F5296B"/>
				<stop  offset="0.9987" style="stop-color:#FD2C6E"/>
			</linearGradient>
			<path class="st28" d="M232.5,24.8c0.4,0.1,0.8,0.3,1.2,0.4C233.3,25.1,232.9,24.9,232.5,24.8z"/>
			<linearGradient id="SVGID_12_" gradientUnits="userSpaceOnUse" x1="205.2551" y1="27.9078" x2="207.0385" y2="27.9078">
				<stop  offset="0" style="stop-color:#840038"/>
				<stop  offset="5.864056e-02" style="stop-color:#8E043C"/>
				<stop  offset="0.3636" style="stop-color:#BE1552"/>
				<stop  offset="0.6329" style="stop-color:#E02261"/>
				<stop  offset="0.8538" style="stop-color:#F5296B"/>
				<stop  offset="0.9987" style="stop-color:#FD2C6E"/>
			</linearGradient>
			<path class="st29" d="M205.3,28.3c0.6-0.3,1.2-0.6,1.8-0.9C206.4,27.7,205.9,28,205.3,28.3z"/>
			<linearGradient id="SVGID_13_" gradientUnits="userSpaceOnUse" x1="157.0777" y1="153.5885" x2="157.8522" y2="153.5885">
				<stop  offset="0" style="stop-color:#840038"/>
				<stop  offset="5.864056e-02" style="stop-color:#8E043C"/>
				<stop  offset="0.3636" style="stop-color:#BE1552"/>
				<stop  offset="0.6329" style="stop-color:#E02261"/>
				<stop  offset="0.8538" style="stop-color:#F5296B"/>
				<stop  offset="0.9987" style="stop-color:#FD2C6E"/>
			</linearGradient>
			<path class="st30" d="M157.9,154c-0.3-0.3-0.5-0.5-0.8-0.8C157.3,153.5,157.6,153.7,157.9,154z"/>
			<linearGradient id="SVGID_14_" gradientUnits="userSpaceOnUse" x1="160.2359" y1="156.2809" x2="161.1033" y2="156.2809">
				<stop  offset="0" style="stop-color:#840038"/>
				<stop  offset="5.864056e-02" style="stop-color:#8E043C"/>
				<stop  offset="0.3636" style="stop-color:#BE1552"/>
				<stop  offset="0.6329" style="stop-color:#E02261"/>
				<stop  offset="0.8538" style="stop-color:#F5296B"/>
				<stop  offset="0.9987" style="stop-color:#FD2C6E"/>
			</linearGradient>
			<path class="st31" d="M160.2,156c0.3,0.2,0.6,0.4,0.9,0.6C160.8,156.4,160.5,156.2,160.2,156z"/>
			<linearGradient id="SVGID_15_" gradientUnits="userSpaceOnUse" x1="158.6107" y1="155.0067" x2="159.4332" y2="155.0067">
				<stop  offset="0" style="stop-color:#840038"/>
				<stop  offset="5.864056e-02" style="stop-color:#8E043C"/>
				<stop  offset="0.3636" style="stop-color:#BE1552"/>
				<stop  offset="0.6329" style="stop-color:#E02261"/>
				<stop  offset="0.8538" style="stop-color:#F5296B"/>
				<stop  offset="0.9987" style="stop-color:#FD2C6E"/>
			</linearGradient>
			<path class="st32" d="M158.6,154.6c0.3,0.2,0.5,0.5,0.8,0.7C159.2,155.1,158.9,154.9,158.6,154.6z"/>
			<linearGradient id="SVGID_16_" gradientUnits="userSpaceOnUse" x1="149.9982" y1="142.1588" x2="150.4572" y2="142.1588">
				<stop  offset="0" style="stop-color:#840038"/>
				<stop  offset="5.864056e-02" style="stop-color:#8E043C"/>
				<stop  offset="0.3636" style="stop-color:#BE1552"/>
				<stop  offset="0.6329" style="stop-color:#E02261"/>
				<stop  offset="0.8538" style="stop-color:#F5296B"/>
				<stop  offset="0.9987" style="stop-color:#FD2C6E"/>
			</linearGradient>
			<path class="st33" d="M150,141.5c0.2,0.4,0.3,0.8,0.5,1.3C150.3,142.4,150.2,142,150,141.5z"/>
			<linearGradient id="SVGID_17_" gradientUnits="userSpaceOnUse" x1="155.6411" y1="152.0294" x2="156.366" y2="152.0294">
				<stop  offset="0" style="stop-color:#840038"/>
				<stop  offset="5.864056e-02" style="stop-color:#8E043C"/>
				<stop  offset="0.3636" style="stop-color:#BE1552"/>
				<stop  offset="0.6329" style="stop-color:#E02261"/>
				<stop  offset="0.8538" style="stop-color:#F5296B"/>
				<stop  offset="0.9987" style="stop-color:#FD2C6E"/>
			</linearGradient>
			<path class="st34" d="M155.6,151.6c0.2,0.3,0.5,0.6,0.7,0.9C156.1,152.2,155.9,151.9,155.6,151.6z"/>
			<linearGradient id="SVGID_18_" gradientUnits="userSpaceOnUse" x1="153.0647" y1="148.4906" x2="153.6877" y2="148.4906">
				<stop  offset="0" style="stop-color:#840038"/>
				<stop  offset="5.864056e-02" style="stop-color:#8E043C"/>
				<stop  offset="0.3636" style="stop-color:#BE1552"/>
				<stop  offset="0.6329" style="stop-color:#E02261"/>
				<stop  offset="0.8538" style="stop-color:#F5296B"/>
				<stop  offset="0.9987" style="stop-color:#FD2C6E"/>
			</linearGradient>
			<path class="st35" d="M153.1,148c0.2,0.3,0.4,0.7,0.6,1C153.5,148.7,153.3,148.3,153.1,148z"/>
			<linearGradient id="SVGID_19_" gradientUnits="userSpaceOnUse" x1="150.9084" y1="144.403" x2="151.4249" y2="144.403">
				<stop  offset="0" style="stop-color:#840038"/>
				<stop  offset="5.864056e-02" style="stop-color:#8E043C"/>
				<stop  offset="0.3636" style="stop-color:#BE1552"/>
				<stop  offset="0.6329" style="stop-color:#E02261"/>
				<stop  offset="0.8538" style="stop-color:#F5296B"/>
				<stop  offset="0.9987" style="stop-color:#FD2C6E"/>
			</linearGradient>
			<path class="st36" d="M150.9,143.8c0.2,0.4,0.3,0.8,0.5,1.2C151.2,144.6,151.1,144.2,150.9,143.8z"/>
			<linearGradient id="SVGID_20_" gradientUnits="userSpaceOnUse" x1="154.3026" y1="150.3296" x2="154.9763" y2="150.3296">
				<stop  offset="0" style="stop-color:#840038"/>
				<stop  offset="5.864056e-02" style="stop-color:#8E043C"/>
				<stop  offset="0.3636" style="stop-color:#BE1552"/>
				<stop  offset="0.6329" style="stop-color:#E02261"/>
				<stop  offset="0.8538" style="stop-color:#F5296B"/>
				<stop  offset="0.9987" style="stop-color:#FD2C6E"/>
			</linearGradient>
			<path class="st37" d="M154.3,149.9c0.2,0.3,0.4,0.6,0.7,0.9C154.7,150.5,154.5,150.2,154.3,149.9z"/>
			<linearGradient id="SVGID_21_" gradientUnits="userSpaceOnUse" x1="151.9317" y1="146.5139" x2="152.5025" y2="146.5139">
				<stop  offset="0" style="stop-color:#840038"/>
				<stop  offset="5.864056e-02" style="stop-color:#8E043C"/>
				<stop  offset="0.3636" style="stop-color:#BE1552"/>
				<stop  offset="0.6329" style="stop-color:#E02261"/>
				<stop  offset="0.8538" style="stop-color:#F5296B"/>
				<stop  offset="0.9987" style="stop-color:#FD2C6E"/>
			</linearGradient>
			<path class="st38" d="M151.9,146c0.2,0.4,0.4,0.7,0.6,1.1C152.3,146.7,152.1,146.3,151.9,146z"/>
			<linearGradient id="SVGID_22_" gradientUnits="userSpaceOnUse" x1="199.6982" y1="76.6227" x2="252.4879" y2="76.6227">
				<stop  offset="0" style="stop-color:#840038"/>
				<stop  offset="5.864056e-02" style="stop-color:#8E043C"/>
				<stop  offset="0.3636" style="stop-color:#BE1552"/>
				<stop  offset="0.6329" style="stop-color:#E02261"/>
				<stop  offset="0.8538" style="stop-color:#F5296B"/>
				<stop  offset="0.9987" style="stop-color:#FD2C6E"/>
			</linearGradient>
			<polygon class="st39" points="199.7,85.4 199.8,92.8 252.5,61.8 250,60.4 203.6,87.7 			"/>
			<linearGradient id="SVGID_23_" gradientUnits="userSpaceOnUse" x1="203.6483" y1="58.7669" x2="252.4581" y2="58.7669">
				<stop  offset="1.943110e-03" style="stop-color:#574DFD"/>
				<stop  offset="0.1709" style="stop-color:#686BFD"/>
				<stop  offset="0.4177" style="stop-color:#7E91FD"/>
				<stop  offset="0.6462" style="stop-color:#8EADFD"/>
				<stop  offset="0.8475" style="stop-color:#98BDFD"/>
				<stop  offset="1" style="stop-color:#9BC3FD"/>
			</linearGradient>
			<path class="st40" d="M203.6,87.7L250,60.4l2.4-1.4c-0.1-13.5-4.4-23.5-11.4-29.2L203.6,87.7z"/>
			<linearGradient id="SVGID_24_" gradientUnits="userSpaceOnUse" x1="210.724" y1="25.6779" x2="212.2477" y2="25.6779">
				<stop  offset="0" style="stop-color:#840038"/>
				<stop  offset="5.864056e-02" style="stop-color:#8E043C"/>
				<stop  offset="0.3636" style="stop-color:#BE1552"/>
				<stop  offset="0.6329" style="stop-color:#E02261"/>
				<stop  offset="0.8538" style="stop-color:#F5296B"/>
				<stop  offset="0.9987" style="stop-color:#FD2C6E"/>
			</linearGradient>
			<path class="st41" d="M210.7,25.9c0.5-0.2,1-0.4,1.5-0.5C211.7,25.6,211.2,25.8,210.7,25.9z"/>
			<linearGradient id="SVGID_25_" gradientUnits="userSpaceOnUse" x1="213.3087" y1="24.8591" x2="214.798" y2="24.8591">
				<stop  offset="0" style="stop-color:#840038"/>
				<stop  offset="5.864056e-02" style="stop-color:#8E043C"/>
				<stop  offset="0.3636" style="stop-color:#BE1552"/>
				<stop  offset="0.6329" style="stop-color:#E02261"/>
				<stop  offset="0.8538" style="stop-color:#F5296B"/>
				<stop  offset="0.9987" style="stop-color:#FD2C6E"/>
			</linearGradient>
			<path class="st42" d="M213.3,25.1c0.5-0.2,1-0.3,1.5-0.4C214.3,24.8,213.8,24.9,213.3,25.1z"/>
			<linearGradient id="SVGID_26_" gradientUnits="userSpaceOnUse" x1="218.283" y1="23.764" x2="219.8763" y2="23.764">
				<stop  offset="0" style="stop-color:#840038"/>
				<stop  offset="5.864056e-02" style="stop-color:#8E043C"/>
				<stop  offset="0.3636" style="stop-color:#BE1552"/>
				<stop  offset="0.6329" style="stop-color:#E02261"/>
				<stop  offset="0.8538" style="stop-color:#F5296B"/>
				<stop  offset="0.9987" style="stop-color:#FD2C6E"/>
			</linearGradient>
			<path class="st43" d="M218.3,23.9c0.5-0.1,1.1-0.2,1.6-0.2C219.3,23.7,218.8,23.8,218.3,23.9z"/>
			<linearGradient id="SVGID_27_" gradientUnits="userSpaceOnUse" x1="230.4487" y1="24.3461" x2="231.6568" y2="24.3461">
				<stop  offset="0" style="stop-color:#840038"/>
				<stop  offset="5.864056e-02" style="stop-color:#8E043C"/>
				<stop  offset="0.3636" style="stop-color:#BE1552"/>
				<stop  offset="0.6329" style="stop-color:#E02261"/>
				<stop  offset="0.8538" style="stop-color:#F5296B"/>
				<stop  offset="0.9987" style="stop-color:#FD2C6E"/>
			</linearGradient>
			<path class="st44" d="M230.4,24.2c0.4,0.1,0.8,0.2,1.2,0.3C231.3,24.4,230.9,24.3,230.4,24.2z"/>
			<linearGradient id="SVGID_28_" gradientUnits="userSpaceOnUse" x1="228.2999" y1="23.862" x2="229.6003" y2="23.862">
				<stop  offset="0" style="stop-color:#840038"/>
				<stop  offset="5.864056e-02" style="stop-color:#8E043C"/>
				<stop  offset="0.3636" style="stop-color:#BE1552"/>
				<stop  offset="0.6329" style="stop-color:#E02261"/>
				<stop  offset="0.8538" style="stop-color:#F5296B"/>
				<stop  offset="0.9987" style="stop-color:#FD2C6E"/>
			</linearGradient>
			<path class="st45" d="M228.3,23.7c0.4,0.1,0.9,0.1,1.3,0.2C229.2,23.9,228.7,23.8,228.3,23.7z"/>
			<linearGradient id="SVGID_29_" gradientUnits="userSpaceOnUse" x1="225.9832" y1="23.5452" x2="227.4718" y2="23.5452">
				<stop  offset="0" style="stop-color:#840038"/>
				<stop  offset="5.864056e-02" style="stop-color:#8E043C"/>
				<stop  offset="0.3636" style="stop-color:#BE1552"/>
				<stop  offset="0.6329" style="stop-color:#E02261"/>
				<stop  offset="0.8538" style="stop-color:#F5296B"/>
				<stop  offset="0.9987" style="stop-color:#FD2C6E"/>
			</linearGradient>
			<path class="st46" d="M226,23.5c0.5,0,1,0.1,1.5,0.1C227,23.6,226.5,23.5,226,23.5z"/>
			<linearGradient id="SVGID_30_" gradientUnits="userSpaceOnUse" x1="208.8313" y1="26.5245" x2="209.6622" y2="26.5245">
				<stop  offset="4.527000e-03" style="stop-color:#058BA0"/>
				<stop  offset="0.4104" style="stop-color:#1EA9BE"/>
				<stop  offset="1" style="stop-color:#47DAF0"/>
			</linearGradient>
			<path class="st47" d="M209.7,26.3c-0.3,0.1-0.5,0.2-0.8,0.3l0,0C209.1,26.6,209.4,26.5,209.7,26.3z"/>
			<linearGradient id="SVGID_31_" gradientUnits="userSpaceOnUse" x1="220.6787" y1="23.475" x2="222.8596" y2="23.475">
				<stop  offset="0" style="stop-color:#840038"/>
				<stop  offset="5.864056e-02" style="stop-color:#8E043C"/>
				<stop  offset="0.3636" style="stop-color:#BE1552"/>
				<stop  offset="0.6329" style="stop-color:#E02261"/>
				<stop  offset="0.8538" style="stop-color:#F5296B"/>
				<stop  offset="0.9987" style="stop-color:#FD2C6E"/>
			</linearGradient>
			<path class="st48" d="M220.7,23.5c0.7-0.1,1.5-0.1,2.2-0.1C222.1,23.4,221.4,23.5,220.7,23.5z"/>
			<linearGradient id="SVGID_32_" gradientUnits="userSpaceOnUse" x1="223.0101" y1="23.4005" x2="225.2737" y2="23.4005">
				<stop  offset="0" style="stop-color:#840038"/>
				<stop  offset="5.864056e-02" style="stop-color:#8E043C"/>
				<stop  offset="0.3636" style="stop-color:#BE1552"/>
				<stop  offset="0.6329" style="stop-color:#E02261"/>
				<stop  offset="0.8538" style="stop-color:#F5296B"/>
				<stop  offset="0.9987" style="stop-color:#FD2C6E"/>
			</linearGradient>
			<path class="st49" d="M223,23.4c0.8,0,1.5,0,2.3,0C224.5,23.4,223.8,23.4,223,23.4z"/>
			<linearGradient id="SVGID_33_" gradientUnits="userSpaceOnUse" x1="215.8266" y1="24.2227" x2="217.326" y2="24.2227">
				<stop  offset="0" style="stop-color:#840038"/>
				<stop  offset="5.864056e-02" style="stop-color:#8E043C"/>
				<stop  offset="0.3636" style="stop-color:#BE1552"/>
				<stop  offset="0.6329" style="stop-color:#E02261"/>
				<stop  offset="0.8538" style="stop-color:#F5296B"/>
				<stop  offset="0.9987" style="stop-color:#FD2C6E"/>
			</linearGradient>
			<path class="st50" d="M215.8,24.4c0.5-0.1,1-0.2,1.5-0.3C216.8,24.2,216.3,24.3,215.8,24.4z"/>
			<linearGradient id="SVGID_34_" gradientUnits="userSpaceOnUse" x1="176.6606" y1="19.6837" x2="236.5313" y2="19.6837">
				<stop  offset="4.527000e-03" style="stop-color:#058BA0"/>
				<stop  offset="0.4104" style="stop-color:#1EA9BE"/>
				<stop  offset="1" style="stop-color:#47DAF0"/>
			</linearGradient>
			<path class="st51" d="M204.4,28.8c0.3-0.2,0.6-0.3,0.9-0.4c0.6-0.3,1.2-0.6,1.8-0.9c0.3-0.2,0.7-0.3,1-0.4
				c0.3-0.1,0.5-0.2,0.8-0.3c0.3-0.1,0.5-0.2,0.8-0.3c0.4-0.1,0.7-0.3,1.1-0.4c0.5-0.2,1-0.4,1.5-0.5c0.4-0.1,0.7-0.2,1.1-0.3
				c0.5-0.2,1-0.3,1.5-0.4c0.3-0.1,0.7-0.2,1-0.3c0.5-0.1,1-0.2,1.5-0.3c0.3-0.1,0.6-0.1,1-0.2c0.5-0.1,1.1-0.2,1.6-0.2
				c0.3,0,0.5-0.1,0.8-0.1c0.7-0.1,1.5-0.1,2.2-0.1c0,0,0.1,0,0.2,0c0.8,0,1.5,0,2.3,0c0.2,0,0.5,0,0.7,0.1c0.5,0,1,0.1,1.5,0.1
				c0.3,0,0.6,0.1,0.8,0.1c0.4,0.1,0.9,0.1,1.3,0.2c0.3,0.1,0.6,0.1,0.8,0.2c0.4,0.1,0.8,0.2,1.2,0.3c0.3,0.1,0.6,0.2,0.8,0.3
				c0.4,0.1,0.8,0.3,1.2,0.4c0.3,0.1,0.5,0.2,0.8,0.3c0.4,0.2,0.8,0.4,1.1,0.5c0.2,0.1,0.5,0.2,0.7,0.4c0.1,0,0.2,0.1,0.2,0.1
				l-25-14.3c-8.9-5.1-21.3-4.3-34.8,3.7l25,14.3C202.6,29.7,203.5,29.2,204.4,28.8z"/>
			<linearGradient id="SVGID_35_" gradientUnits="userSpaceOnUse" x1="176.6606" y1="15.9867" x2="176.6606" y2="15.9867">
				<stop  offset="4.527000e-03" style="stop-color:#058BA0"/>
				<stop  offset="0.4104" style="stop-color:#1EA9BE"/>
				<stop  offset="1" style="stop-color:#47DAF0"/>
			</linearGradient>
			<polygon class="st52" points="176.7,16 176.7,16 176.7,16 			"/>
			<linearGradient id="SVGID_36_" gradientUnits="userSpaceOnUse" x1="201.6861" y1="54.9954" x2="239.6971" y2="54.9954">
				<stop  offset="4.527000e-03" style="stop-color:#058BA0"/>
				<stop  offset="0.4104" style="stop-color:#1EA9BE"/>
				<stop  offset="1" style="stop-color:#47DAF0"/>
			</linearGradient>
			<path class="st53" d="M234.4,25.5c-0.3-0.1-0.5-0.2-0.8-0.3c-0.4-0.2-0.8-0.3-1.2-0.4c-0.3-0.1-0.6-0.2-0.8-0.3
				c-0.4-0.1-0.8-0.2-1.2-0.3c-0.3-0.1-0.6-0.1-0.8-0.2c-0.4-0.1-0.9-0.2-1.3-0.2c-0.3,0-0.5-0.1-0.8-0.1c-0.5-0.1-1-0.1-1.5-0.1
				c-0.2,0-0.5,0-0.7-0.1c-0.7,0-1.5,0-2.3,0c0,0-0.1,0-0.2,0c-0.7,0-1.4,0.1-2.2,0.1c-0.3,0-0.5,0.1-0.8,0.1
				c-0.5,0.1-1.1,0.1-1.6,0.2c-0.3,0.1-0.6,0.1-1,0.2c-0.5,0.1-1,0.2-1.5,0.3c-0.3,0.1-0.7,0.2-1,0.3c-0.5,0.1-1,0.3-1.5,0.4
				c-0.4,0.1-0.7,0.2-1.1,0.3c-0.5,0.2-1,0.3-1.5,0.5c-0.4,0.1-0.7,0.3-1.1,0.4c-0.3,0.1-0.6,0.2-0.8,0.3c-0.3,0.1-0.5,0.2-0.8,0.3
				c-0.3,0.1-0.7,0.3-1,0.4c-0.6,0.3-1.2,0.6-1.8,0.9c-0.3,0.1-0.6,0.3-0.9,0.4c-0.9,0.5-1.8,1-2.7,1.5l0.6,56.3L239.6,29l0.1-0.2
				c-1.1-0.9-2.2-1.6-3.4-2.3c-0.2-0.1-0.5-0.3-0.7-0.4C235.2,25.9,234.8,25.7,234.4,25.5z"/>
			<linearGradient id="SVGID_37_" gradientUnits="userSpaceOnUse" x1="176.6606" y1="51.2976" x2="202.2803" y2="51.2976">
				<stop  offset="4.527000e-03" style="stop-color:#058BA0"/>
				<stop  offset="0.4104" style="stop-color:#1EA9BE"/>
				<stop  offset="1" style="stop-color:#47DAF0"/>
			</linearGradient>
			<polygon class="st54" points="199.1,32 199.7,85.1 202.3,86.6 201.7,30.3 176.7,16 176.7,16 176.7,16 176.7,16 176.7,19.2 
				199.1,32 			"/>
			<linearGradient id="SVGID_38_" gradientUnits="userSpaceOnUse" x1="190.9876" y1="177.3787" x2="136.9718" y2="-4.8346">
				<stop  offset="0" style="stop-color:#840038"/>
				<stop  offset="5.864056e-02" style="stop-color:#8E043C"/>
				<stop  offset="0.3636" style="stop-color:#BE1552"/>
				<stop  offset="0.6329" style="stop-color:#E02261"/>
				<stop  offset="0.8538" style="stop-color:#F5296B"/>
				<stop  offset="0.9987" style="stop-color:#FD2C6E"/>
			</linearGradient>
			<path class="st55" d="M160.2,156c-0.3-0.2-0.5-0.4-0.8-0.6c-0.3-0.2-0.5-0.5-0.8-0.7c-0.3-0.2-0.5-0.4-0.8-0.7
				c-0.3-0.3-0.5-0.5-0.8-0.8c-0.2-0.2-0.5-0.5-0.7-0.7c-0.2-0.3-0.5-0.6-0.7-0.9c-0.2-0.3-0.5-0.5-0.7-0.8
				c-0.2-0.3-0.5-0.6-0.7-0.9c-0.2-0.3-0.4-0.6-0.6-0.9c-0.2-0.3-0.4-0.7-0.6-1c-0.2-0.3-0.4-0.6-0.6-0.9c-0.2-0.4-0.4-0.7-0.6-1.1
				c-0.2-0.3-0.3-0.6-0.5-1c-0.2-0.4-0.3-0.8-0.5-1.2c-0.2-0.3-0.3-0.7-0.5-1c-0.2-0.4-0.3-0.8-0.5-1.3c-0.1-0.4-0.3-0.7-0.4-1.1
				c-0.1-0.4-0.3-0.9-0.4-1.3c-0.1-0.4-0.2-0.7-0.3-1.1c-0.1-0.5-0.2-0.9-0.3-1.4c-0.1-0.4-0.2-0.8-0.3-1.2c-0.1-0.5-0.2-1-0.3-1.6
				c-0.1-0.4-0.1-0.8-0.2-1.2c-0.1-0.6-0.1-1.1-0.2-1.7c0-0.4-0.1-0.8-0.1-1.1c-0.1-0.6-0.1-1.3-0.2-1.9c0-0.3-0.1-0.7-0.1-1
				c-0.1-1-0.1-2-0.1-3.1c-0.3-26.3,13.9-57.1,34-77.5c5.6-5.7,11.7-10.6,18.1-14.3l-22.4-12.8l-2.6-1.5
				C145,34.8,121.7,75.9,122,109.5c0.2,16.7,6.2,28.4,15.7,33.8l25,14.3c-0.3-0.2-0.5-0.3-0.8-0.5c-0.3-0.2-0.6-0.3-0.8-0.5
				C160.8,156.4,160.5,156.2,160.2,156z"/>
			<g>
				<linearGradient id="SVGID_39_" gradientUnits="userSpaceOnUse" x1="235.0677" y1="50.6261" x2="288.8282" y2="19.8512">
					<stop  offset="1.943110e-03" style="stop-color:#574DFD"/>
					<stop  offset="0.1709" style="stop-color:#686BFD"/>
					<stop  offset="0.4177" style="stop-color:#7E91FD"/>
					<stop  offset="0.6462" style="stop-color:#8EADFD"/>
					<stop  offset="0.8475" style="stop-color:#98BDFD"/>
					<stop  offset="1" style="stop-color:#9BC3FD"/>
				</linearGradient>
				<polygon class="st56" points="241.1,29.8 203.6,87.7 199.7,85.4 199.7,85.1 202.3,86.6 239.6,29 				"/>
				<linearGradient id="SVGID_40_" gradientUnits="userSpaceOnUse" x1="166.3124" y1="138.9356" x2="250.1868" y2="23.3333">
					<stop  offset="0" style="stop-color:#840038"/>
					<stop  offset="5.697503e-02" style="stop-color:#8E033C"/>
					<stop  offset="0.4004" style="stop-color:#C31754"/>
					<stop  offset="0.6578" style="stop-color:#E42363"/>
					<stop  offset="0.7982" style="stop-color:#F12769"/>
					<stop  offset="0.8523" style="stop-color:#F5296B"/>
					<stop  offset="0.9987" style="stop-color:#FD2C6E"/>
				</linearGradient>
				<path class="st57" d="M252.5,61.8c0.4,33.6-23,74.7-52.1,91.8c-15.1,8.9-28.7,9.5-38.5,3.5c-0.3-0.2-0.6-0.3-0.8-0.5
					c-0.3-0.2-0.6-0.4-0.9-0.6c-0.3-0.2-0.6-0.4-0.8-0.6c-0.3-0.2-0.6-0.5-0.8-0.7c-0.2-0.2-0.5-0.4-0.8-0.7
					c-0.3-0.3-0.5-0.5-0.8-0.8c-0.2-0.2-0.5-0.5-0.7-0.7c-0.2-0.3-0.5-0.6-0.7-0.9c-0.2-0.3-0.4-0.5-0.7-0.8
					c-0.2-0.3-0.5-0.6-0.7-0.9c-0.2-0.3-0.4-0.6-0.6-0.9c-0.2-0.3-0.4-0.7-0.6-1c-0.2-0.3-0.4-0.6-0.6-0.9c-0.2-0.4-0.4-0.7-0.6-1.1
					c-0.2-0.3-0.3-0.6-0.5-1c-0.2-0.4-0.3-0.8-0.5-1.2c-0.2-0.3-0.3-0.7-0.5-1c-0.2-0.4-0.3-0.8-0.5-1.3c-0.1-0.4-0.3-0.7-0.4-1.1
					c-0.1-0.4-0.3-0.9-0.4-1.3c-0.1-0.4-0.2-0.7-0.3-1.1c-0.1-0.5-0.2-1-0.3-1.4c-0.1-0.4-0.2-0.8-0.3-1.2c-0.1-0.5-0.2-1-0.3-1.6
					c-0.1-0.4-0.2-0.8-0.2-1.2c-0.1-0.6-0.2-1.1-0.2-1.7c0-0.4-0.1-0.8-0.1-1.1c-0.1-0.6-0.1-1.3-0.2-1.9c0-0.3-0.1-0.7-0.1-1
					c-0.1-1-0.1-2-0.1-3.1c-0.3-26.3,13.9-57.1,34-77.5c2.8-2.9,5.7-5.5,8.8-7.9c3-2.4,6.1-4.6,9.3-6.4l0.6,53.2v0.3l0,0.6l0.1,6.7
					L252.5,61.8z"/>
				<line class="st58" x1="199.7" y1="84.7" x2="199.7" y2="85.1"/>
				<line class="st58" x1="199.7" y1="86.1" x2="199.7" y2="85.1"/>
			</g>
		</g>
	</g>
	<g>
		<g>
			<g>
				
					<linearGradient id="SVGID_41_" gradientUnits="userSpaceOnUse" x1="1496.4763" y1="104.1086" x2="1536.7108" y2="104.1086" gradientTransform="matrix(-1 0 0 1 1664.4163 0)">
					<stop  offset="0" style="stop-color:#FFFFFF"/>
					<stop  offset="0.1339" style="stop-color:#FEF9F9"/>
					<stop  offset="0.3103" style="stop-color:#FDE9E9"/>
					<stop  offset="0.5105" style="stop-color:#FACDCD"/>
					<stop  offset="0.7283" style="stop-color:#F7A7A7"/>
					<stop  offset="0.9578" style="stop-color:#F27777"/>
					<stop  offset="1" style="stop-color:#F16D6D"/>
				</linearGradient>
				<polygon class="st59" points="128.6,77.9 127.7,107.5 167,130.3 167.9,100.7 				"/>
			</g>
		</g>
		<g>
			<g>
				
					<linearGradient id="SVGID_42_" gradientUnits="userSpaceOnUse" x1="1481.3608" y1="140.0849" x2="1524.2351" y2="140.0849" gradientTransform="matrix(-1 0 0 1 1664.4163 0)">
					<stop  offset="0" style="stop-color:#FFFFFF"/>
					<stop  offset="0.1339" style="stop-color:#FEF9F9"/>
					<stop  offset="0.3103" style="stop-color:#FDE9E9"/>
					<stop  offset="0.5105" style="stop-color:#FACDCD"/>
					<stop  offset="0.7283" style="stop-color:#F7A7A7"/>
					<stop  offset="0.9578" style="stop-color:#F27777"/>
					<stop  offset="1" style="stop-color:#F16D6D"/>
				</linearGradient>
				<polygon class="st60" points="140.9,116.8 140.2,139 182.4,163.3 183.1,141.2 				"/>
			</g>
		</g>
		<g>
			<g>
				
					<linearGradient id="SVGID_43_" gradientUnits="userSpaceOnUse" x1="1530.3545" y1="125.3347" x2="1573.677" y2="125.3347" gradientTransform="matrix(-1 0 0 1 1664.4163 0)">
					<stop  offset="0" style="stop-color:#F16D6D"/>
					<stop  offset="4.217511e-02" style="stop-color:#F27777"/>
					<stop  offset="0.2717" style="stop-color:#F7A7A7"/>
					<stop  offset="0.4895" style="stop-color:#FACDCD"/>
					<stop  offset="0.6897" style="stop-color:#FDE9E9"/>
					<stop  offset="0.8661" style="stop-color:#FEF9F9"/>
					<stop  offset="1" style="stop-color:#FFFFFF"/>
				</linearGradient>
				<polygon class="st61" points="91.4,101.8 90.7,124.2 133.4,148.8 134.1,126.4 				"/>
			</g>
		</g>
		<g id="XMLID_30_">
			
				<linearGradient id="SVGID_44_" gradientUnits="userSpaceOnUse" x1="253.7643" y1="128.4548" x2="278.7119" y2="128.4548" gradientTransform="matrix(1 0 0 1 -124.7049 0)">
				<stop  offset="0" style="stop-color:#FDB90A"/>
				<stop  offset="1" style="stop-color:#FDF351"/>
			</linearGradient>
			<path class="st62" d="M153,146.4c-0.1,0-0.3-0.1-0.4-0.1l-22.6-13c-0.5-0.3-0.9-0.9-0.9-1.5v-20.3c0-0.3,0.2-0.6,0.5-0.8
				c0.3-0.1,0.7-0.1,1,0.1l22.6,13c0.5,0.3,0.9,0.9,0.9,1.5v20.3c0,0.3-0.2,0.6-0.4,0.8C153.4,146.4,153.2,146.4,153,146.4z"/>
		</g>
		<g id="XMLID_29_">
			
				<linearGradient id="SVGID_45_" gradientUnits="userSpaceOnUse" x1="234.4179" y1="131.0523" x2="259.3653" y2="131.0523" gradientTransform="matrix(1 0 0 1 -124.7049 0)">
				<stop  offset="1.943110e-03" style="stop-color:#574DFD"/>
				<stop  offset="0.1709" style="stop-color:#686BFD"/>
				<stop  offset="0.4177" style="stop-color:#7E91FD"/>
				<stop  offset="0.6462" style="stop-color:#8EADFD"/>
				<stop  offset="0.8475" style="stop-color:#98BDFD"/>
				<stop  offset="1" style="stop-color:#9BC3FD"/>
			</linearGradient>
			<path class="st63" d="M134.3,126.8c-0.1-0.2-0.3-0.3-0.5-0.5l-0.1-0.1l-0.7-0.4c0,0,0,0,0,0l-21.8-12.5c-0.3-0.2-0.7-0.2-1-0.1
				c-0.3,0.1-0.5,0.4-0.5,0.8v20.3c0,0.6,0.4,1.2,0.9,1.5l22.6,13c0.1,0.1,0.3,0.1,0.4,0.1c0.2,0,0.4,0,0.6-0.1
				c0.3-0.1,0.4-0.4,0.4-0.8v-20.3C134.7,127.4,134.5,127.1,134.3,126.8z"/>
		</g>
		<g>
			
				<linearGradient id="SVGID_46_" gradientUnits="userSpaceOnUse" x1="234.4179" y1="137.8666" x2="259.3653" y2="137.8666" gradientTransform="matrix(1 0 0 1 -124.7049 0)">
				<stop  offset="1.943110e-03" style="stop-color:#574DFD"/>
				<stop  offset="0.1709" style="stop-color:#686BFD"/>
				<stop  offset="0.4177" style="stop-color:#7E91FD"/>
				<stop  offset="0.6462" style="stop-color:#8EADFD"/>
				<stop  offset="0.8475" style="stop-color:#98BDFD"/>
				<stop  offset="1" style="stop-color:#9BC3FD"/>
			</linearGradient>
			<path class="st64" d="M134.7,127.8v20.3c0,0.3-0.2,0.6-0.4,0.8c-0.2,0.1-0.4,0.1-0.6,0.1c-0.1,0-0.3-0.1-0.4-0.1l-22.6-13
				c-0.5-0.3-0.9-0.9-0.9-1.5v-6.8c0.7,0.5,1.4,1.3,2.1,2.5c1.2,2,0.8,4.7,4.8,4.3c3.3-0.3,3.1-3.3,5-4.9c5.3-4.7,6,4.4,11.8-1.7
				c0.3-0.3,0.6-0.6,0.9-0.9C134.5,127.1,134.7,127.4,134.7,127.8z"/>
		</g>
		<g>
			<g>
				<g id="XMLID_239_">
					
						<linearGradient id="SVGID_47_" gradientUnits="userSpaceOnUse" x1="1271.4496" y1="89.2789" x2="1304.6327" y2="89.2789" gradientTransform="matrix(1 0 0 1 -1166.0725 0)">
						<stop  offset="4.527000e-03" style="stop-color:#058BA0"/>
						<stop  offset="0.4104" style="stop-color:#1EA9BE"/>
						<stop  offset="1" style="stop-color:#47DAF0"/>
					</linearGradient>
					<path class="st65" d="M137.2,113.1c-0.2,0-0.3-0.1-0.5-0.2l-30.1-17.3c-0.7-0.4-1.2-1.2-1.2-2v-27c0-0.5,0.2-0.9,0.6-1
						c0.4-0.2,0.9-0.2,1.3,0.1L137.4,83c0.7,0.4,1.2,1.2,1.2,2v27c0,0.5-0.2,0.8-0.6,1C137.7,113.1,137.5,113.1,137.2,113.1z"/>
				</g>
				<g>
					<g>
						<path class="st66" d="M115.5,76.7c1.1,0.7,2.1,2.3,2.1,3.6l0,13.8c0,1.3-0.9,1.8-2.1,1.2c-1.1-0.7-2.1-2.3-2.1-3.6l0-13.8
							C113.4,76.5,114.3,76,115.5,76.7z"/>
					</g>
					<g>
						<path class="st66" d="M121.5,86.9c1.1,0.7,2.1,2.3,2.1,3.6l0,7.1c0,1.3-0.9,1.8-2.1,1.2c-1.1-0.7-2.1-2.3-2.1-3.6l0-7.1
							C119.4,86.7,120.4,86.2,121.5,86.9z"/>
					</g>
					<g>
						<path class="st66" d="M127,92.3c1.1,0.7,2.1,2.3,2.1,3.6l0,4.9c0,1.3-0.9,1.8-2.1,1.2c-1.1-0.7-2.1-2.3-2.1-3.6l0-4.9
							C124.9,92.1,125.8,91.6,127,92.3z"/>
					</g>
				</g>
			</g>
		</g>
	</g>
	<g>
		
			<linearGradient id="SVGID_48_" gradientUnits="userSpaceOnUse" x1="1193.2509" y1="189.7356" x2="1152.1455" y2="213.9848" gradientTransform="matrix(-1 0 0 1 1270.8549 0)">
			<stop  offset="0.1187" style="stop-color:#D4DFF2"/>
			<stop  offset="0.1727" style="stop-color:#DBE3F1"/>
			<stop  offset="0.307" style="stop-color:#E7EBF1"/>
			<stop  offset="0.4947" style="stop-color:#EEEFF0"/>
			<stop  offset="1" style="stop-color:#F0F0F0"/>
		</linearGradient>
		<ellipse class="st67" cx="94.2" cy="199.5" rx="23.1" ry="14.3"/>
		
			<linearGradient id="SVGID_49_" gradientUnits="userSpaceOnUse" x1="1597.0404" y1="142.1032" x2="1614.9999" y2="179.8486" gradientTransform="matrix(1 0 0 1 -1515.765 0)">
			<stop  offset="0" style="stop-color:#6D2656"/>
			<stop  offset="0.9981" style="stop-color:#EE4A73"/>
		</linearGradient>
		<path class="st68" d="M80.2,146.1c0,0,3.1,12,12.7,24.5l5.5,26.7l4.8-0.9l-2.9-23.8c-0.2-1.7-0.6-3.4-1.1-5l-6.3-20.3L80.2,146.1z
			"/>
		<path class="st69" d="M80.7,113.2l1.9,0c1.3,0,2.4-1.1,2.4-2.4l0-2.1l0-5.3l-5.8,0l0,2.5l0,5.8C79.2,112.5,79.9,113.2,80.7,113.2z
			"/>
		<path class="st70" d="M88.1,96.1c0.2,0.9,0.4,1.9,0.4,2.7c0,0.4,0.1,0.8,0.4,1.1l1.4,1.4c0.2,0.2,0.2,0.4,0.1,0.6
			c-0.2,0.3-0.5,0.6-0.9,0.7c0,0-0.1,2.3-1.3,4.1c-0.4,0.6-1,0.9-1.6,1.1c-7,1.7-10.3-1.3-11-8.4c-0.2-1.5,0.3-3.1,1.2-4.3
			c1.5-1.9,4.5-4.9,8.1-3.2C86.6,92.7,87.7,94.3,88.1,96.1z"/>
		<g>
			<g>
				<path class="st71" d="M85.7,99.2c0.1,0,0.1,0,0.1-0.1c0.6-0.9,1.5-0.4,1.5-0.4c0.1,0,0.2,0,0.2-0.1c0-0.1,0-0.2-0.1-0.2
					c-0.4-0.2-1.3-0.5-2,0.5c-0.1,0.1,0,0.2,0,0.2C85.7,99.2,85.7,99.2,85.7,99.2z"/>
			</g>
		</g>
		<g>
			<g>
				<path class="st71" d="M88.5,103.5c0,0-0.1-0.1-0.1,0c-1.1,0.1-1.3-0.8-1.3-0.9c0-0.1-0.1-0.2-0.2-0.1c-0.1,0-0.2,0.1-0.1,0.2
					c0.1,0.5,0.5,1.3,1.7,1.1C88.5,103.8,88.6,103.7,88.5,103.5C88.5,103.6,88.5,103.6,88.5,103.5z"/>
			</g>
		</g>
		<path class="st71" d="M87.5,100.3c0.1,0.3-0.1,0.6-0.3,0.6c-0.3,0.1-0.5-0.1-0.6-0.4c-0.1-0.3,0.1-0.6,0.3-0.6
			C87.2,99.8,87.4,100,87.5,100.3z"/>
		<path class="st71" d="M98.4,197.4l4.8-0.9l0.7,0.9c0,0,1.1-0.5,3.4-0.8c1.7-0.2,2.3,1.3,0.9,2.3c-1.4,1-2.6,1.5-6.5,3
			c-1.4,0.5-2.6,0.3-2.8-1.1L98.4,197.4z"/>
		
			<linearGradient id="SVGID_50_" gradientUnits="userSpaceOnUse" x1="1599.8193" y1="95.9827" x2="1617.7788" y2="133.7281" gradientTransform="matrix(0.9698 0.2439 -0.2439 0.9698 -1450.6569 -332.6583)">
			<stop  offset="0" style="stop-color:#6D2656"/>
			<stop  offset="0.9981" style="stop-color:#EE4A73"/>
		</linearGradient>
		<path class="st72" d="M73.1,142.7c0,0,0,12.4,6.4,26.9l-1.2,27.3l4.9,0.3l3-23.8c0.2-1.7,0.3-3.4,0.2-5.1l-1.2-21.2L73.1,142.7z"
			/>
		<path class="st71" d="M78.3,196.8l4.9,0.3l0.5,1.1c0,0,1.2-0.3,3.5,0c1.7,0.2,1.9,1.8,0.3,2.5c-1.6,0.7-2.9,0.9-7.1,1.3
			c-1.4,0.2-2.6-0.3-2.5-1.8L78.3,196.8z"/>
		<linearGradient id="SVGID_51_" gradientUnits="userSpaceOnUse" x1="69.6209" y1="145.9523" x2="106.6414" y2="110.5108">
			<stop  offset="0" style="stop-color:#FDAC2B"/>
			<stop  offset="0.3827" style="stop-color:#FECA17"/>
			<stop  offset="0.7627" style="stop-color:#FFE107"/>
			<stop  offset="1" style="stop-color:#FFEA01"/>
		</linearGradient>
		<path class="st73" d="M94.4,151.3c-11,5.7-21.2,0.5-21.3-1.5c-0.3-4.7-0.1-26.3,0-34.1c0-2.3,1.5-4.4,3.7-5.1
			c2.1-0.6,4.3-0.5,6.6,0.3c2.3,0.8,3.3,0.9,4.5,1.5c-2.1,1.6-3.4,6.1,5.1,18.9v0c0,0.1,0,0.3,0.1,0.4
			C94.5,142,94.7,150.6,94.4,151.3z"/>
		<path class="st70" d="M118.1,120c-0.5,0.4-1.1,0.7-1.7,1c0.2,1.7-0.6,3.3-2.2,4.1c-0.4,0.2-0.8,0.3-1.2,0.5
			c-0.6,0.2-1,0.7-1.6,0.9c-0.6,0.2-1.2,0.2-1.8,0.1c-0.8,0.8-1.9,1.8-3,2.8c-1.1,1-2.3,2-3.3,2.9c-1.1,1-1.9,1.6-1.9,1.6
			c0,0,0,0,0-0.1c-1.3,0.9-2.7,2-3.3,2c-2.8,0.1-4.4-3.8-5-5.3c0,0.3,0.1,0.6,0.1,0.9c-8.5-12.8-7.2-17.3-5.1-18.9
			c0.6,0.3,1.3,0.8,2.3,1.7c1.9,1.7,8.1,15.3,8.1,15.3s7.9-4.8,10.9-6.9c1.3-0.9,2.5-1.9,3.9-2.5c0.7-0.3,1.4-0.4,2.1-0.6
			c1-0.2,1.9-0.6,2.8-1.1c0.1,0,0.1,0,0.2,0c0.1-0.1,0.3-0.1,0.4,0.1C119,119,118.6,119.6,118.1,120z"/>
		<g>
			<path class="st71" d="M90.2,89c-0.3,0.6-0.6,1.2-1.4,1.3c-0.1-1.2-0.8-2-1.4-3.1c-0.1,0.9-1.1,2.2-1.9,2.5
				c-0.1-0.6-0.5-1.3-0.8-1.8c-0.5,2.1-3.3,2.7-5,3.5c-1.6,0.8-3.3,1.4-4.4,3c-0.4,0.7-0.8,1.5-1,2.3c-0.3,1-0.6,2.2-0.6,3.3
				c-0.1,2.3,0.3,4.7,2,6.5c1.7,1.9,4.6,2.1,6.9,1.5c0-0.4-0.1-0.9-0.2-1.2c-0.1-0.5-0.1-1.1-0.3-1.6c-1.3,0.3-3,0-3-1.7
				c0-0.8,0.1-2,1.1-2c0.8-0.1,2,0.3,2.4,1c-0.3-0.8-0.8-1.6-1.2-2.3c1.4-1.4,2.4-3.2,3.8-4.7c-0.1,0.7-0.7,1.6-0.7,2.3
				c0.9-0.3,2-0.9,2.8-1.7c0.9,0.3,2.4-0.2,2.9-0.8C91.8,93.4,91,91,90.2,89z"/>
		</g>
	</g>
</g>
</svg>
